<?xml version="1.0" encoding="UTF-8" standalone="no"?>
<!DOCTYPE svg PUBLIC "-//W3C//DTD SVG 1.1//EN"
 "http://www.w3.org/Graphics/SVG/1.1/DTD/svg11.dtd">
<!-- Generated by graphviz version 2.38.0 (20140413.2041)
 -->
<!-- Title: System.Reflection.Emit.PropertyBuilder Pages: 1 -->
<svg width="822pt" height="263pt"
 viewBox="0.00 0.00 822.00 262.50" xmlns="http://www.w3.org/2000/svg" xmlns:xlink="http://www.w3.org/1999/xlink">
<g id="graph0" class="graph" transform="scale(1 1) rotate(0) translate(4 258.5)">
<title>System.Reflection.Emit.PropertyBuilder</title>
<!-- Node7 -->
<g id="node1" class="node"><title>Node7</title>
<g id="a_node1"><a xlink:title="Defines the properties for a type.">
<polygon fill="#bfbfbf" stroke="black" points="655,-120.5 655,-150.5 814,-150.5 814,-120.5 655,-120.5"/>
<text text-anchor="start" x="663" y="-138.5" font-family="Helvetica,sans-Serif" font-size="10.00">System.Reflection.Emit.Property</text>
<text text-anchor="middle" x="734.5" y="-127.5" font-family="Helvetica,sans-Serif" font-size="10.00">Builder</text>
</a>
</g>
</g>
<!-- Node8 -->
<g id="node2" class="node"><title>Node8</title>
<g id="a_node2"><a xlink:href="class_system_1_1_reflection_1_1_property_info.html" target="_top" xlink:title="Discovers the attributes of a property and provides access to property metadata.">
<polygon fill="none" stroke="black" points="438.5,-231 438.5,-250 506.5,-250 506.5,-231 438.5,-231"/>
<text text-anchor="middle" x="472.5" y="-238" font-family="Helvetica,sans-Serif" font-size="10.00">PropertyInfo</text>
</a>
</g>
</g>
<!-- Node8&#45;&gt;Node7 -->
<g id="edge1" class="edge"><title>Node8&#45;&gt;Node7</title>
<path fill="none" stroke="midnightblue" d="M516.704,-230.618C528.215,-227.828 540.615,-224.682 552,-221.5 590.175,-210.831 600.94,-210.958 637,-194.5 664.153,-182.107 693.082,-163.631 712.105,-150.664"/>
<polygon fill="midnightblue" stroke="midnightblue" points="515.777,-227.241 506.864,-232.97 517.404,-234.049 515.777,-227.241"/>
</g>
<!-- Node9 -->
<g id="node3" class="node"><title>Node9</title>
<g id="a_node3"><a xlink:href="class_system_1_1_reflection_1_1_member_info.html" target="_top" xlink:title="Obtains information about the attributes of a member and provides access to member metadata.">
<polygon fill="none" stroke="black" points="257,-197 257,-216 324,-216 324,-197 257,-197"/>
<text text-anchor="middle" x="290.5" y="-204" font-family="Helvetica,sans-Serif" font-size="10.00">MemberInfo</text>
</a>
</g>
</g>
<!-- Node9&#45;&gt;Node8 -->
<g id="edge2" class="edge"><title>Node9&#45;&gt;Node8</title>
<path fill="none" stroke="midnightblue" d="M334.018,-214.531C365.878,-220.549 408.86,-228.668 438.232,-234.216"/>
<polygon fill="midnightblue" stroke="midnightblue" points="334.573,-211.074 324.097,-212.657 333.273,-217.952 334.573,-211.074"/>
</g>
<!-- Node14 -->
<g id="node8" class="node"><title>Node14</title>
<g id="a_node8"><a xlink:href="class_system_1_1_type.html" target="_top" xlink:title="Represents type declarations: class types, interface types, array types, value types,...">
<polygon fill="none" stroke="black" points="435.5,-126 435.5,-145 509.5,-145 509.5,-126 435.5,-126"/>
<text text-anchor="middle" x="472.5" y="-133" font-family="Helvetica,sans-Serif" font-size="10.00">System.Type</text>
</a>
</g>
</g>
<!-- Node9&#45;&gt;Node14 -->
<g id="edge8" class="edge"><title>Node9&#45;&gt;Node14</title>
<path fill="none" stroke="midnightblue" d="M333.87,-194.919C341.303,-192.632 348.921,-190.122 356,-187.5 390.644,-174.667 429.559,-156.283 452.22,-145.16"/>
<polygon fill="midnightblue" stroke="midnightblue" points="332.846,-191.572 324.266,-197.787 334.849,-198.279 332.846,-191.572"/>
</g>
<!-- Node10 -->
<g id="node4" class="node"><title>Node10</title>
<g id="a_node4"><a xlink:href="interface_system_1_1_reflection_1_1_i_custom_attribute_provider.html" target="_top" xlink:title="Provides custom attributes for reflection objects that support them.">
<polygon fill="none" stroke="black" points="0,-172 0,-191 124,-191 124,-172 0,-172"/>
<text text-anchor="middle" x="62" y="-179" font-family="Helvetica,sans-Serif" font-size="10.00">ICustomAttributeProvider</text>
</a>
</g>
</g>
<!-- Node10&#45;&gt;Node9 -->
<g id="edge3" class="edge"><title>Node10&#45;&gt;Node9</title>
<path fill="none" stroke="midnightblue" d="M134.259,-189.365C175.308,-193.896 224.933,-199.373 256.843,-202.895"/>
<polygon fill="midnightblue" stroke="midnightblue" points="134.618,-185.884 124.294,-188.265 133.85,-192.841 134.618,-185.884"/>
</g>
<!-- Node17 -->
<g id="node11" class="node"><title>Node17</title>
<g id="a_node11"><a xlink:href="class_system_1_1_reflection_1_1_module.html" target="_top" xlink:title="Performs reflection on a module.">
<polygon fill="none" stroke="black" points="225,-83 225,-102 356,-102 356,-83 225,-83"/>
<text text-anchor="middle" x="290.5" y="-90" font-family="Helvetica,sans-Serif" font-size="10.00">System.Reflection.Module</text>
</a>
</g>
</g>
<!-- Node10&#45;&gt;Node17 -->
<g id="edge15" class="edge"><title>Node10&#45;&gt;Node17</title>
<path fill="none" stroke="midnightblue" d="M104.031,-168.931C110.717,-166.822 117.56,-164.627 124,-162.5 161.104,-150.244 174.985,-155.905 207,-133.5 217.351,-126.256 214.473,-118.484 225,-111.5 230.837,-107.628 237.48,-104.527 244.232,-102.049"/>
<polygon fill="midnightblue" stroke="midnightblue" points="102.91,-165.614 94.4116,-171.941 105,-172.295 102.91,-165.614"/>
</g>
<!-- Node11 -->
<g id="node5" class="node"><title>Node11</title>
<g id="a_node5"><a xlink:href="interface_system_1_1_runtime_1_1_interop_services_1_1___member_info.html" target="_top" xlink:title="Exposes the public members of the T:System.Reflection.MemberInfo class to unmanaged code.">
<polygon fill="none" stroke="black" points="26,-210 26,-229 98,-229 98,-210 26,-210"/>
<text text-anchor="middle" x="62" y="-217" font-family="Helvetica,sans-Serif" font-size="10.00">_MemberInfo</text>
</a>
</g>
</g>
<!-- Node11&#45;&gt;Node9 -->
<g id="edge4" class="edge"><title>Node11&#45;&gt;Node9</title>
<path fill="none" stroke="midnightblue" d="M108.523,-216.887C152.482,-214.364 217.959,-210.606 256.928,-208.37"/>
<polygon fill="midnightblue" stroke="midnightblue" points="108.174,-213.401 98.3906,-217.469 108.575,-220.39 108.174,-213.401"/>
</g>
<!-- Node12 -->
<g id="node6" class="node"><title>Node12</title>
<g id="a_node6"><a xlink:href="interface_system_1_1_runtime_1_1_interop_services_1_1___property_info.html" target="_top" xlink:title="Exposes the public members of the T:System.Reflection.PropertyInfo class to unmanaged code.">
<polygon fill="none" stroke="black" points="253.5,-235 253.5,-254 327.5,-254 327.5,-235 253.5,-235"/>
<text text-anchor="middle" x="290.5" y="-242" font-family="Helvetica,sans-Serif" font-size="10.00">_PropertyInfo</text>
</a>
</g>
</g>
<!-- Node12&#45;&gt;Node8 -->
<g id="edge5" class="edge"><title>Node12&#45;&gt;Node8</title>
<path fill="none" stroke="midnightblue" d="M338.203,-243.462C369.648,-242.763 410.35,-241.859 438.462,-241.234"/>
<polygon fill="midnightblue" stroke="midnightblue" points="337.845,-239.969 327.926,-243.691 338.001,-246.967 337.845,-239.969"/>
</g>
<!-- Node13 -->
<g id="node7" class="node"><title>Node13</title>
<g id="a_node7"><a xlink:href="interface_system_1_1_runtime_1_1_interop_services_1_1___property_builder.html" target="_top" xlink:title="Exposes the T:System.Reflection.Emit.PropertyBuilder class to unmanaged code.">
<polygon fill="none" stroke="black" points="428,-193 428,-212 517,-212 517,-193 428,-193"/>
<text text-anchor="middle" x="472.5" y="-200" font-family="Helvetica,sans-Serif" font-size="10.00">_PropertyBuilder</text>
</a>
</g>
</g>
<!-- Node13&#45;&gt;Node7 -->
<g id="edge6" class="edge"><title>Node13&#45;&gt;Node7</title>
<path fill="none" stroke="midnightblue" d="M527.131,-195.217C559.322,-190.215 600.898,-182.639 637,-172.5 657.902,-166.63 680.604,-158.043 698.734,-150.619"/>
<polygon fill="midnightblue" stroke="midnightblue" points="526.389,-191.789 517.028,-196.75 527.44,-198.71 526.389,-191.789"/>
</g>
<!-- Node14&#45;&gt;Node7 -->
<g id="edge7" class="edge"><title>Node14&#45;&gt;Node7</title>
<path fill="none" stroke="#9a32cd" stroke-dasharray="5,2" d="M519.763,-135.5C557.203,-135.5 610.775,-135.5 654.918,-135.5"/>
<polygon fill="#9a32cd" stroke="#9a32cd" points="519.652,-132 509.652,-135.5 519.652,-139 519.652,-132"/>
<text text-anchor="middle" x="603.5" y="-160.5" font-family="Helvetica,sans-Serif" font-size="10.00"> ReflectedType</text>
<text text-anchor="middle" x="603.5" y="-149.5" font-family="Helvetica,sans-Serif" font-size="10.00">DeclaringType</text>
<text text-anchor="middle" x="603.5" y="-138.5" font-family="Helvetica,sans-Serif" font-size="10.00">PropertyType</text>
</g>
<!-- Node14&#45;&gt;Node14 -->
<g id="edge11" class="edge"><title>Node14&#45;&gt;Node14</title>
<path fill="none" stroke="#9a32cd" stroke-dasharray="5,2" d="M454.353,-154.9C455.565,-159.815 461.614,-163.5 472.5,-163.5 489.918,-163.5 494.953,-154.065 487.605,-145.257"/>
<polygon fill="#9a32cd" stroke="#9a32cd" points="457.724,-155.847 457.395,-145.257 451.048,-153.74 457.724,-155.847"/>
<text text-anchor="middle" x="472.5" y="-166.5" font-family="Helvetica,sans-Serif" font-size="10.00"> EmptyTypes</text>
</g>
<!-- Node15 -->
<g id="node9" class="node"><title>Node15</title>
<g id="a_node9"><a xlink:href="interface_system_1_1_runtime_1_1_interop_services_1_1___type.html" target="_top" xlink:title="Exposes the public members of the T:System.Type class to the unmanaged code.">
<polygon fill="none" stroke="black" points="269,-121 269,-140 312,-140 312,-121 269,-121"/>
<text text-anchor="middle" x="290.5" y="-128" font-family="Helvetica,sans-Serif" font-size="10.00">_Type</text>
</a>
</g>
</g>
<!-- Node15&#45;&gt;Node14 -->
<g id="edge9" class="edge"><title>Node15&#45;&gt;Node14</title>
<path fill="none" stroke="midnightblue" d="M322.462,-131.36C353.785,-132.23 402.179,-133.574 435.267,-134.494"/>
<polygon fill="midnightblue" stroke="midnightblue" points="322.242,-127.853 312.148,-131.074 322.047,-134.85 322.242,-127.853"/>
</g>
<!-- Node16 -->
<g id="node10" class="node"><title>Node16</title>
<g id="a_node10"><a xlink:href="interface_system_1_1_reflection_1_1_i_reflect.html" target="_top" xlink:title="Interoperates with the IDispatch interface.">
<polygon fill="none" stroke="black" points="266,-159 266,-178 315,-178 315,-159 266,-159"/>
<text text-anchor="middle" x="290.5" y="-166" font-family="Helvetica,sans-Serif" font-size="10.00">IReflect</text>
</a>
</g>
</g>
<!-- Node16&#45;&gt;Node14 -->
<g id="edge10" class="edge"><title>Node16&#45;&gt;Node14</title>
<path fill="none" stroke="midnightblue" d="M325.025,-162.354C356.352,-156.61 402.997,-148.059 435.193,-142.156"/>
<polygon fill="midnightblue" stroke="midnightblue" points="324.237,-158.94 315.032,-164.186 325.499,-165.825 324.237,-158.94"/>
</g>
<!-- Node17&#45;&gt;Node7 -->
<g id="edge12" class="edge"><title>Node17&#45;&gt;Node7</title>
<path fill="none" stroke="#9a32cd" stroke-dasharray="5,2" d="M366.331,-93.975C418.493,-95.5553 489.635,-98.8117 552,-105.5 585.82,-109.127 622.913,-114.928 654.702,-120.467"/>
<polygon fill="#9a32cd" stroke="#9a32cd" points="366.257,-90.4714 356.16,-93.6807 366.055,-97.4685 366.257,-90.4714"/>
<text text-anchor="middle" x="472.5" y="-108.5" font-family="Helvetica,sans-Serif" font-size="10.00"> Module</text>
</g>
<!-- Node18 -->
<g id="node12" class="node"><title>Node18</title>
<g id="a_node12"><a xlink:href="interface_system_1_1_runtime_1_1_interop_services_1_1___module.html" target="_top" xlink:title="Exposes the T:System.Reflection.Module class to unmanaged code.">
<polygon fill="none" stroke="black" points="35.5,-29 35.5,-48 88.5,-48 88.5,-29 35.5,-29"/>
<text text-anchor="middle" x="62" y="-36" font-family="Helvetica,sans-Serif" font-size="10.00">_Module</text>
</a>
</g>
</g>
<!-- Node18&#45;&gt;Node17 -->
<g id="edge13" class="edge"><title>Node18&#45;&gt;Node17</title>
<path fill="none" stroke="midnightblue" d="M98.3655,-46.9315C139.364,-56.7061 206.774,-72.7773 249.608,-82.9893"/>
<polygon fill="midnightblue" stroke="midnightblue" points="99.0812,-43.5041 88.5421,-44.5895 97.4578,-50.3133 99.0812,-43.5041"/>
</g>
<!-- Node19 -->
<g id="node13" class="node"><title>Node19</title>
<g id="a_node13"><a xlink:href="interface_system_1_1_runtime_1_1_serialization_1_1_i_serializable.html" target="_top" xlink:title="Allows an object to control its own serialization and deserialization.">
<polygon fill="none" stroke="black" points="27.5,-134 27.5,-153 96.5,-153 96.5,-134 27.5,-134"/>
<text text-anchor="middle" x="62" y="-141" font-family="Helvetica,sans-Serif" font-size="10.00">ISerializable</text>
</a>
</g>
</g>
<!-- Node19&#45;&gt;Node17 -->
<g id="edge14" class="edge"><title>Node19&#45;&gt;Node17</title>
<path fill="none" stroke="midnightblue" d="M106.774,-133.644C147.311,-124.516 207.201,-111.031 247.245,-102.014"/>
<polygon fill="midnightblue" stroke="midnightblue" points="105.896,-130.254 96.9093,-135.865 107.434,-137.083 105.896,-130.254"/>
</g>
<!-- Node20 -->
<g id="node14" class="node"><title>Node20</title>
<g id="a_node14"><a xlink:href="struct_system_1_1_module_handle.html" target="_top" xlink:title="Represents a runtime handle for a module.">
<polygon fill="none" stroke="black" points="4.5,-67 4.5,-86 119.5,-86 119.5,-67 4.5,-67"/>
<text text-anchor="middle" x="62" y="-74" font-family="Helvetica,sans-Serif" font-size="10.00">System.ModuleHandle</text>
</a>
</g>
</g>
<!-- Node20&#45;&gt;Node17 -->
<g id="edge16" class="edge"><title>Node20&#45;&gt;Node17</title>
<path fill="none" stroke="#9a32cd" stroke-dasharray="5,2" d="M129.548,-81.201C159.615,-83.3249 195.007,-85.825 224.845,-87.9328"/>
<polygon fill="#9a32cd" stroke="#9a32cd" points="129.793,-77.7096 119.571,-80.4962 129.3,-84.6922 129.793,-77.7096"/>
<text text-anchor="middle" x="174.5" y="-89.5" font-family="Helvetica,sans-Serif" font-size="10.00"> ModuleHandle</text>
</g>
<!-- Node20&#45;&gt;Node20 -->
<g id="edge17" class="edge"><title>Node20&#45;&gt;Node20</title>
<path fill="none" stroke="#9a32cd" stroke-dasharray="5,2" d="M41.2603,-95.9C42.6454,-100.815 49.5586,-104.5 62,-104.5 81.9063,-104.5 87.6604,-95.0653 79.2625,-86.2571"/>
<polygon fill="#9a32cd" stroke="#9a32cd" points="44.6378,-96.8514 44.7375,-86.2571 38.0528,-94.4768 44.6378,-96.8514"/>
<text text-anchor="middle" x="62" y="-107.5" font-family="Helvetica,sans-Serif" font-size="10.00"> EmptyHandle</text>
</g>
<!-- Node21 -->
<g id="node15" class="node"><title>Node21</title>
<g id="a_node15"><a xlink:href="struct_system_1_1_reflection_1_1_emit_1_1_property_token.html" target="_top" xlink:title="The PropertyToken struct is an opaque representation of the Token returned by the metadata to represe...">
<polygon fill="none" stroke="black" points="393,-0.5 393,-30.5 552,-30.5 552,-0.5 393,-0.5"/>
<text text-anchor="start" x="401" y="-18.5" font-family="Helvetica,sans-Serif" font-size="10.00">System.Reflection.Emit.Property</text>
<text text-anchor="middle" x="472.5" y="-7.5" font-family="Helvetica,sans-Serif" font-size="10.00">Token</text>
</a>
</g>
</g>
<!-- Node21&#45;&gt;Node7 -->
<g id="edge18" class="edge"><title>Node21&#45;&gt;Node7</title>
<path fill="none" stroke="#9a32cd" stroke-dasharray="5,2" d="M538.382,-33.525C569.029,-43.0873 605.671,-56.0638 637,-71.5 665.312,-85.4495 695.193,-106.36 714.069,-120.447"/>
<polygon fill="#9a32cd" stroke="#9a32cd" points="539.244,-30.1284 528.657,-30.5415 537.191,-36.8206 539.244,-30.1284"/>
<text text-anchor="middle" x="603.5" y="-74.5" font-family="Helvetica,sans-Serif" font-size="10.00"> PropertyToken</text>
</g>
<!-- Node21&#45;&gt;Node21 -->
<g id="edge19" class="edge"><title>Node21&#45;&gt;Node21</title>
<path fill="none" stroke="#9a32cd" stroke-dasharray="5,2" d="M455.087,-40.9579C457.248,-45.679 463.052,-49 472.5,-49 488.004,-49 493.697,-40.0566 489.579,-30.659"/>
<polygon fill="#9a32cd" stroke="#9a32cd" points="458.595,-40.7675 455.421,-30.659 451.598,-40.5399 458.595,-40.7675"/>
<text text-anchor="middle" x="472.5" y="-52" font-family="Helvetica,sans-Serif" font-size="10.00"> Empty</text>
</g>
</g>
</svg>
