<?xml version="1.0" encoding="UTF-8" standalone="no"?>
<!DOCTYPE svg PUBLIC "-//W3C//DTD SVG 1.1//EN"
 "http://www.w3.org/Graphics/SVG/1.1/DTD/svg11.dtd">
<!-- Generated by graphviz version 2.38.0 (20140413.2041)
 -->
<!-- Title: System.Reflection.ConstructorInfo Pages: 1 -->
<svg width="777pt" height="140pt"
 viewBox="0.00 0.00 777.00 139.50" xmlns="http://www.w3.org/2000/svg" xmlns:xlink="http://www.w3.org/1999/xlink">
<g id="graph0" class="graph" transform="scale(1 1) rotate(0) translate(4 135.5)">
<title>System.Reflection.ConstructorInfo</title>
<!-- Node0 -->
<g id="node1" class="node"><title>Node0</title>
<g id="a_node1"><a xlink:title="Discovers the attributes of a class constructor and provides access to constructor metadata.">
<polygon fill="#bfbfbf" stroke="black" points="396,-55 396,-74 560,-74 560,-55 396,-55"/>
<text text-anchor="middle" x="478" y="-62" font-family="Helvetica,sans-Serif" font-size="10.00">System.Reflection.ConstructorInfo</text>
</a>
</g>
</g>
<!-- Node7 -->
<g id="node8" class="node"><title>Node7</title>
<g id="a_node8"><a xlink:href="class_system_1_1_reflection_1_1_emit_1_1_constructor_builder.html" target="_top" xlink:title="Defines and represents a constructor of a dynamic class.">
<polygon fill="none" stroke="black" points="596,-98.5 596,-128.5 769,-128.5 769,-98.5 596,-98.5"/>
<text text-anchor="start" x="604" y="-116.5" font-family="Helvetica,sans-Serif" font-size="10.00">System.Reflection.Emit.Constructor</text>
<text text-anchor="middle" x="682.5" y="-105.5" font-family="Helvetica,sans-Serif" font-size="10.00">Builder</text>
</a>
</g>
</g>
<!-- Node0&#45;&gt;Node7 -->
<g id="edge7" class="edge"><title>Node0&#45;&gt;Node7</title>
<path fill="none" stroke="midnightblue" d="M528.289,-76.4268C555.71,-83.062 590.107,-91.3851 619.357,-98.463"/>
<polygon fill="midnightblue" stroke="midnightblue" points="529.067,-73.0141 518.525,-74.064 527.421,-79.8178 529.067,-73.0141"/>
</g>
<!-- Node8 -->
<g id="node9" class="node"><title>Node8</title>
<g id="a_node9"><a xlink:href="class_system_1_1_reflection_1_1_emit_1_1_constructor_on_type_builder_instantiation.html" target="_top" xlink:title=" ">
<polygon fill="none" stroke="black" points="596,-49.5 596,-79.5 769,-79.5 769,-49.5 596,-49.5"/>
<text text-anchor="start" x="604" y="-67.5" font-family="Helvetica,sans-Serif" font-size="10.00">System.Reflection.Emit.Constructor</text>
<text text-anchor="middle" x="682.5" y="-56.5" font-family="Helvetica,sans-Serif" font-size="10.00">OnTypeBuilderInstantiation</text>
</a>
</g>
</g>
<!-- Node0&#45;&gt;Node8 -->
<g id="edge8" class="edge"><title>Node0&#45;&gt;Node8</title>
<path fill="none" stroke="midnightblue" d="M570.206,-64.5C578.783,-64.5 587.456,-64.5 595.977,-64.5"/>
<polygon fill="midnightblue" stroke="midnightblue" points="570.198,-61.0001 560.198,-64.5 570.198,-68.0001 570.198,-61.0001"/>
</g>
<!-- Node9 -->
<g id="node10" class="node"><title>Node9</title>
<g id="a_node10"><a xlink:href="class_system_1_1_reflection_1_1_runtime_constructor_info.html" target="_top" xlink:title=" ">
<polygon fill="none" stroke="black" points="615,-0.5 615,-30.5 750,-30.5 750,-0.5 615,-0.5"/>
<text text-anchor="start" x="623" y="-18.5" font-family="Helvetica,sans-Serif" font-size="10.00">System.Reflection.Runtime</text>
<text text-anchor="middle" x="682.5" y="-7.5" font-family="Helvetica,sans-Serif" font-size="10.00">ConstructorInfo</text>
</a>
</g>
</g>
<!-- Node0&#45;&gt;Node9 -->
<g id="edge9" class="edge"><title>Node0&#45;&gt;Node9</title>
<path fill="none" stroke="midnightblue" d="M528.289,-52.5732C555.71,-45.938 590.107,-37.6149 619.357,-30.537"/>
<polygon fill="midnightblue" stroke="midnightblue" points="527.421,-49.1822 518.525,-54.936 529.067,-55.9859 527.421,-49.1822"/>
</g>
<!-- Node1 -->
<g id="node2" class="node"><title>Node1</title>
<g id="a_node2"><a xlink:href="class_system_1_1_reflection_1_1_method_base.html" target="_top" xlink:title="Provides information about methods and constructors.">
<polygon fill="none" stroke="black" points="281,-74 281,-93 352,-93 352,-74 281,-74"/>
<text text-anchor="middle" x="316.5" y="-81" font-family="Helvetica,sans-Serif" font-size="10.00">MethodBase</text>
</a>
</g>
</g>
<!-- Node1&#45;&gt;Node0 -->
<g id="edge1" class="edge"><title>Node1&#45;&gt;Node0</title>
<path fill="none" stroke="midnightblue" d="M362.165,-78.1794C373.037,-76.8843 384.996,-75.4597 396.963,-74.0341"/>
<polygon fill="midnightblue" stroke="midnightblue" points="361.625,-74.7189 352.109,-79.3773 362.453,-81.6698 361.625,-74.7189"/>
</g>
<!-- Node2 -->
<g id="node3" class="node"><title>Node2</title>
<g id="a_node3"><a xlink:href="class_system_1_1_reflection_1_1_member_info.html" target="_top" xlink:title="Obtains information about the attributes of a member and provides access to member metadata.">
<polygon fill="none" stroke="black" points="165,-93 165,-112 232,-112 232,-93 165,-93"/>
<text text-anchor="middle" x="198.5" y="-100" font-family="Helvetica,sans-Serif" font-size="10.00">MemberInfo</text>
</a>
</g>
</g>
<!-- Node2&#45;&gt;Node1 -->
<g id="edge2" class="edge"><title>Node2&#45;&gt;Node1</title>
<path fill="none" stroke="midnightblue" d="M242.037,-95.5327C254.752,-93.4501 268.536,-91.1924 280.692,-89.2012"/>
<polygon fill="midnightblue" stroke="midnightblue" points="241.424,-92.0864 232.121,-97.1569 242.555,-98.9944 241.424,-92.0864"/>
</g>
<!-- Node3 -->
<g id="node4" class="node"><title>Node3</title>
<g id="a_node4"><a xlink:href="interface_system_1_1_reflection_1_1_i_custom_attribute_provider.html" target="_top" xlink:title="Provides custom attributes for reflection objects that support them.">
<polygon fill="none" stroke="black" points="0,-112 0,-131 124,-131 124,-112 0,-112"/>
<text text-anchor="middle" x="62" y="-119" font-family="Helvetica,sans-Serif" font-size="10.00">ICustomAttributeProvider</text>
</a>
</g>
</g>
<!-- Node3&#45;&gt;Node2 -->
<g id="edge3" class="edge"><title>Node3&#45;&gt;Node2</title>
<path fill="none" stroke="midnightblue" d="M134.54,-111.394C145.163,-109.893 155.643,-108.413 164.913,-107.103"/>
<polygon fill="midnightblue" stroke="midnightblue" points="133.758,-107.97 124.346,-112.834 134.737,-114.901 133.758,-107.97"/>
</g>
<!-- Node4 -->
<g id="node5" class="node"><title>Node4</title>
<g id="a_node5"><a xlink:href="interface_system_1_1_runtime_1_1_interop_services_1_1___member_info.html" target="_top" xlink:title="Exposes the public members of the T:System.Reflection.MemberInfo class to unmanaged code.">
<polygon fill="none" stroke="black" points="26,-74 26,-93 98,-93 98,-74 26,-74"/>
<text text-anchor="middle" x="62" y="-81" font-family="Helvetica,sans-Serif" font-size="10.00">_MemberInfo</text>
</a>
</g>
</g>
<!-- Node4&#45;&gt;Node2 -->
<g id="edge4" class="edge"><title>Node4&#45;&gt;Node2</title>
<path fill="none" stroke="midnightblue" d="M108.308,-89.9004C126.787,-92.5108 147.748,-95.4718 164.705,-97.8673"/>
<polygon fill="midnightblue" stroke="midnightblue" points="108.73,-86.4253 98.3383,-88.492 107.75,-93.3565 108.73,-86.4253"/>
</g>
<!-- Node5 -->
<g id="node6" class="node"><title>Node5</title>
<g id="a_node6"><a xlink:href="interface_system_1_1_runtime_1_1_interop_services_1_1___method_base.html" target="_top" xlink:title="Exposes the public members of the T:System.Reflection.MethodBase class to unmanaged code.">
<polygon fill="none" stroke="black" points="160,-55 160,-74 237,-74 237,-55 160,-55"/>
<text text-anchor="middle" x="198.5" y="-62" font-family="Helvetica,sans-Serif" font-size="10.00">_MethodBase</text>
</a>
</g>
</g>
<!-- Node5&#45;&gt;Node1 -->
<g id="edge5" class="edge"><title>Node5&#45;&gt;Node1</title>
<path fill="none" stroke="midnightblue" d="M247.272,-72.3247C258.497,-74.1634 270.251,-76.0885 280.777,-77.8126"/>
<polygon fill="midnightblue" stroke="midnightblue" points="247.596,-68.8313 237.162,-70.6688 246.465,-75.7392 247.596,-68.8313"/>
</g>
<!-- Node6 -->
<g id="node7" class="node"><title>Node6</title>
<g id="a_node7"><a xlink:href="interface_system_1_1_runtime_1_1_interop_services_1_1___constructor_info.html" target="_top" xlink:title="Exposes the public members of the T:System.Reflection.ConstructorInfo class to unmanaged code.">
<polygon fill="none" stroke="black" points="273,-36 273,-55 360,-55 360,-36 273,-36"/>
<text text-anchor="middle" x="316.5" y="-43" font-family="Helvetica,sans-Serif" font-size="10.00">_ConstructorInfo</text>
</a>
</g>
</g>
<!-- Node6&#45;&gt;Node0 -->
<g id="edge6" class="edge"><title>Node6&#45;&gt;Node0</title>
<path fill="none" stroke="midnightblue" d="M370.178,-51.7752C378.857,-52.8089 388.02,-53.9005 397.184,-54.9922"/>
<polygon fill="midnightblue" stroke="midnightblue" points="370.587,-48.2992 360.243,-50.5917 369.759,-55.25 370.587,-48.2992"/>
</g>
</g>
</svg>
