<?xml version="1.0" encoding="UTF-8" standalone="no"?>
<!DOCTYPE svg PUBLIC "-//W3C//DTD SVG 1.1//EN"
 "http://www.w3.org/Graphics/SVG/1.1/DTD/svg11.dtd">
<!-- Generated by graphviz version 2.38.0 (20140413.2041)
 -->
<!-- Title: System.ComponentModel.NullableConverter Pages: 1 -->
<svg width="426pt" height="128pt"
 viewBox="0.00 0.00 425.50 128.00" xmlns="http://www.w3.org/2000/svg" xmlns:xlink="http://www.w3.org/1999/xlink">
<g id="graph0" class="graph" transform="scale(1 1) rotate(0) translate(4 124)">
<title>System.ComponentModel.NullableConverter</title>
<!-- Node2 -->
<g id="node1" class="node"><title>Node2</title>
<g id="a_node1"><a xlink:title="Provides automatic conversion between a nullable type and its underlying primitive type.">
<polygon fill="#bfbfbf" stroke="black" points="49.5,-0.5 49.5,-30.5 216.5,-30.5 216.5,-0.5 49.5,-0.5"/>
<text text-anchor="start" x="57.5" y="-18.5" font-family="Helvetica,sans-Serif" font-size="10.00">System.ComponentModel.Nullable</text>
<text text-anchor="middle" x="133" y="-7.5" font-family="Helvetica,sans-Serif" font-size="10.00">Converter</text>
</a>
</g>
</g>
<!-- Node3 -->
<g id="node2" class="node"><title>Node3</title>
<g id="a_node2"><a xlink:href="class_system_1_1_component_model_1_1_type_converter.html" target="_top" xlink:title="Provides a unified way of converting types of values to other types, as well as for accessing standar...">
<polygon fill="none" stroke="black" points="0,-95 0,-114 78,-114 78,-95 0,-95"/>
<text text-anchor="middle" x="39" y="-102" font-family="Helvetica,sans-Serif" font-size="10.00">TypeConverter</text>
</a>
</g>
</g>
<!-- Node3&#45;&gt;Node2 -->
<g id="edge1" class="edge"><title>Node3&#45;&gt;Node2</title>
<path fill="none" stroke="midnightblue" d="M56.1548,-87.6227C73.78,-71.31 100.956,-46.1579 117.822,-30.5475"/>
<polygon fill="midnightblue" stroke="midnightblue" points="53.3184,-85.4788 48.3567,-94.84 58.0732,-90.6162 53.3184,-85.4788"/>
</g>
<!-- Node4 -->
<g id="node3" class="node"><title>Node4</title>
<g id="a_node3"><a xlink:href="class_system_1_1_type.html" target="_top" xlink:title="Represents type declarations: class types, interface types, array types, value types,...">
<polygon fill="none" stroke="red" points="96,-95 96,-114 170,-114 170,-95 96,-95"/>
<text text-anchor="middle" x="133" y="-102" font-family="Helvetica,sans-Serif" font-size="10.00">System.Type</text>
</a>
</g>
</g>
<!-- Node4&#45;&gt;Node2 -->
<g id="edge2" class="edge"><title>Node4&#45;&gt;Node2</title>
<path fill="none" stroke="#9a32cd" stroke-dasharray="5,2" d="M133,-84.4058C133,-68.1475 133,-45.1645 133,-30.5475"/>
<polygon fill="#9a32cd" stroke="#9a32cd" points="129.5,-84.84 133,-94.84 136.5,-84.8401 129.5,-84.84"/>
<text text-anchor="middle" x="168" y="-63" font-family="Helvetica,sans-Serif" font-size="10.00"> UnderlyingType</text>
<text text-anchor="middle" x="168" y="-52" font-family="Helvetica,sans-Serif" font-size="10.00">NullableType</text>
</g>
<!-- Node4&#45;&gt;Node4 -->
<g id="edge3" class="edge"><title>Node4&#45;&gt;Node4</title>
<path fill="none" stroke="#9a32cd" stroke-dasharray="5,2" d="M180.186,-111.268C184.957,-109.925 188,-107.669 188,-104.5 188,-99.4297 180.21,-96.6965 170.015,-96.3004"/>
<polygon fill="#9a32cd" stroke="#9a32cd" points="179.43,-107.84 170.015,-112.7 180.406,-114.772 179.43,-107.84"/>
<text text-anchor="middle" x="217" y="-102" font-family="Helvetica,sans-Serif" font-size="10.00"> EmptyTypes</text>
</g>
<!-- Node10 -->
<g id="node4" class="node"><title>Node10</title>
<g id="a_node4"><a xlink:href="class_system_1_1_component_model_1_1_type_converter.html" target="_top" xlink:title="Provides a unified way of converting types of values to other types, as well as for accessing standar...">
<polygon fill="none" stroke="black" points="264.5,-89.5 264.5,-119.5 417.5,-119.5 417.5,-89.5 264.5,-89.5"/>
<text text-anchor="start" x="272.5" y="-107.5" font-family="Helvetica,sans-Serif" font-size="10.00">System.ComponentModel.Type</text>
<text text-anchor="middle" x="341" y="-96.5" font-family="Helvetica,sans-Serif" font-size="10.00">Converter</text>
</a>
</g>
</g>
<!-- Node10&#45;&gt;Node2 -->
<g id="edge4" class="edge"><title>Node10&#45;&gt;Node2</title>
<path fill="none" stroke="#9a32cd" stroke-dasharray="5,2" d="M297.603,-85.3484C258.605,-69.0368 202.146,-45.4218 166.523,-30.5215"/>
<polygon fill="#9a32cd" stroke="#9a32cd" points="296.542,-88.6984 307.118,-89.3283 299.243,-82.2406 296.542,-88.6984"/>
<text text-anchor="middle" x="317.5" y="-57.5" font-family="Helvetica,sans-Serif" font-size="10.00"> UnderlyingTypeConverter</text>
</g>
</g>
</svg>
