<?xml version="1.0" encoding="UTF-8" standalone="no"?>
<!DOCTYPE svg PUBLIC "-//W3C//DTD SVG 1.1//EN"
 "http://www.w3.org/Graphics/SVG/1.1/DTD/svg11.dtd">
<!-- Generated by graphviz version 2.38.0 (20140413.2041)
 -->
<!-- Title: System.Security.Cryptography.AsymmetricAlgorithm Pages: 1 -->
<svg width="246pt" height="128pt"
 viewBox="0.00 0.00 246.00 128.00" xmlns="http://www.w3.org/2000/svg" xmlns:xlink="http://www.w3.org/1999/xlink">
<g id="graph0" class="graph" transform="scale(1 1) rotate(0) translate(4 124)">
<title>System.Security.Cryptography.AsymmetricAlgorithm</title>
<!-- Node6 -->
<g id="node1" class="node"><title>Node6</title>
<g id="a_node1"><a xlink:title="Represents the abstract base class from which all implementations of asymmetric algorithms must inher...">
<polygon fill="#bfbfbf" stroke="black" points="21,-0.5 21,-30.5 174,-30.5 174,-0.5 21,-0.5"/>
<text text-anchor="start" x="29" y="-18.5" font-family="Helvetica,sans-Serif" font-size="10.00">System.Security.Cryptography.</text>
<text text-anchor="middle" x="97.5" y="-7.5" font-family="Helvetica,sans-Serif" font-size="10.00">AsymmetricAlgorithm</text>
</a>
</g>
</g>
<!-- Node7 -->
<g id="node2" class="node"><title>Node7</title>
<g id="a_node2"><a xlink:href="interface_system_1_1_i_disposable.html" target="_top" xlink:title="Provides a mechanism for releasing unmanaged resources.To browse the .NET Framework source code for t...">
<polygon fill="none" stroke="black" points="0,-95 0,-114 67,-114 67,-95 0,-95"/>
<text text-anchor="middle" x="33.5" y="-102" font-family="Helvetica,sans-Serif" font-size="10.00">IDisposable</text>
</a>
</g>
</g>
<!-- Node7&#45;&gt;Node6 -->
<g id="edge1" class="edge"><title>Node7&#45;&gt;Node6</title>
<path fill="none" stroke="midnightblue" d="M45.8408,-86.7242C57.8505,-70.3986 75.8915,-45.8741 87.1662,-30.5475"/>
<polygon fill="midnightblue" stroke="midnightblue" points="42.9769,-84.7108 39.8705,-94.84 48.6156,-88.8588 42.9769,-84.7108"/>
</g>
<!-- Node8 -->
<g id="node3" class="node"><title>Node8</title>
<g id="a_node3"><a xlink:href="class_system_1_1_security_1_1_cryptography_1_1_key_sizes.html" target="_top" xlink:title="Determines the set of valid key sizes for the symmetric cryptographic algorithms.">
<polygon fill="none" stroke="black" points="85,-89.5 85,-119.5 238,-119.5 238,-89.5 85,-89.5"/>
<text text-anchor="start" x="93" y="-107.5" font-family="Helvetica,sans-Serif" font-size="10.00">System.Security.Cryptography.</text>
<text text-anchor="middle" x="161.5" y="-96.5" font-family="Helvetica,sans-Serif" font-size="10.00">KeySizes</text>
</a>
</g>
</g>
<!-- Node8&#45;&gt;Node6 -->
<g id="edge2" class="edge"><title>Node8&#45;&gt;Node6</title>
<path fill="none" stroke="#9a32cd" stroke-dasharray="5,2" d="M144.858,-80.8769C133.158,-64.9727 117.868,-44.1879 107.872,-30.599"/>
<polygon fill="#9a32cd" stroke="#9a32cd" points="142.187,-83.1525 150.932,-89.1337 147.825,-79.0045 142.187,-83.1525"/>
<text text-anchor="middle" x="182" y="-63" font-family="Helvetica,sans-Serif" font-size="10.00"> LegalKeySizes</text>
<text text-anchor="middle" x="182" y="-52" font-family="Helvetica,sans-Serif" font-size="10.00">LegalKeySizesValue</text>
</g>
</g>
</svg>
