<?xml version="1.0" encoding="UTF-8" standalone="no"?>
<!DOCTYPE svg PUBLIC "-//W3C//DTD SVG 1.1//EN"
 "http://www.w3.org/Graphics/SVG/1.1/DTD/svg11.dtd">
<!-- Generated by graphviz version 2.38.0 (20140413.2041)
 -->
<!-- Title: System.Diagnostics.Tracing.ArrayTypeInfo&lt; ElementType &gt; Pages: 1 -->
<svg width="166pt" height="185pt"
 viewBox="0.00 0.00 165.50 185.00" xmlns="http://www.w3.org/2000/svg" xmlns:xlink="http://www.w3.org/1999/xlink">
<g id="graph0" class="graph" transform="scale(1 1) rotate(0) translate(4 181)">
<title>System.Diagnostics.Tracing.ArrayTypeInfo&lt; ElementType &gt;</title>
<!-- Node3 -->
<g id="node1" class="node"><title>Node3</title>
<g id="a_node1"><a xlink:title=" ">
<polygon fill="#bfbfbf" stroke="black" points="0,-0.5 0,-30.5 151,-30.5 151,-0.5 0,-0.5"/>
<text text-anchor="start" x="8" y="-18.5" font-family="Helvetica,sans-Serif" font-size="10.00">System.Diagnostics.Tracing.</text>
<text text-anchor="middle" x="75.5" y="-7.5" font-family="Helvetica,sans-Serif" font-size="10.00">ArrayTypeInfo&lt; ElementType &gt;</text>
</a>
</g>
</g>
<!-- Node4 -->
<g id="node2" class="node"><title>Node4</title>
<g id="a_node2"><a xlink:href="class_system_1_1_diagnostics_1_1_tracing_1_1_trace_logging_type_info.html" target="_top" xlink:title=" ">
<polygon fill="none" stroke="black" points="20.5,-68.5 20.5,-98.5 130.5,-98.5 130.5,-68.5 20.5,-68.5"/>
<text text-anchor="start" x="28.5" y="-86.5" font-family="Helvetica,sans-Serif" font-size="10.00">TraceLoggingTypeInfo</text>
<text text-anchor="middle" x="75.5" y="-75.5" font-family="Helvetica,sans-Serif" font-size="10.00">&lt; ElementType[]&gt;</text>
</a>
</g>
</g>
<!-- Node4&#45;&gt;Node3 -->
<g id="edge1" class="edge"><title>Node4&#45;&gt;Node3</title>
<path fill="none" stroke="midnightblue" d="M75.5,-58.0322C75.5,-48.8606 75.5,-38.7449 75.5,-30.7931"/>
<polygon fill="midnightblue" stroke="midnightblue" points="72.0001,-58.1789 75.5,-68.179 79.0001,-58.179 72.0001,-58.1789"/>
</g>
<!-- Node5 -->
<g id="node3" class="node"><title>Node5</title>
<g id="a_node3"><a xlink:href="class_system_1_1_diagnostics_1_1_tracing_1_1_trace_logging_type_info.html" target="_top" xlink:title=" ">
<polygon fill="none" stroke="black" points="4.5,-146.5 4.5,-176.5 146.5,-176.5 146.5,-146.5 4.5,-146.5"/>
<text text-anchor="start" x="12.5" y="-164.5" font-family="Helvetica,sans-Serif" font-size="10.00">System.Diagnostics.Tracing.</text>
<text text-anchor="middle" x="75.5" y="-153.5" font-family="Helvetica,sans-Serif" font-size="10.00">TraceLoggingTypeInfo</text>
</a>
</g>
</g>
<!-- Node5&#45;&gt;Node4 -->
<g id="edge2" class="edge"><title>Node5&#45;&gt;Node4</title>
<path fill="none" stroke="orange" stroke-dasharray="5,2" d="M75.5,-136.09C75.5,-123.757 75.5,-109.224 75.5,-98.7309"/>
<polygon fill="orange" stroke="orange" points="72.0001,-136.205 75.5,-146.205 79.0001,-136.205 72.0001,-136.205"/>
<text text-anchor="middle" x="116.5" y="-120" font-family="Helvetica,sans-Serif" font-size="10.00"> &lt; ElementType[]&gt;</text>
</g>
</g>
</svg>
