<?xml version="1.0" encoding="UTF-8" standalone="no"?>
<!DOCTYPE svg PUBLIC "-//W3C//DTD SVG 1.1//EN"
 "http://www.w3.org/Graphics/SVG/1.1/DTD/svg11.dtd">
<!-- Generated by graphviz version 2.38.0 (20140413.2041)
 -->
<!-- Title: System.Diagnostics.Switch Pages: 1 -->
<svg width="324pt" height="137pt"
 viewBox="0.00 0.00 324.00 137.00" xmlns="http://www.w3.org/2000/svg" xmlns:xlink="http://www.w3.org/1999/xlink">
<g id="graph0" class="graph" transform="scale(1 1) rotate(0) translate(4 133)">
<title>System.Diagnostics.Switch</title>
<!-- Node0 -->
<g id="node1" class="node"><title>Node0</title>
<g id="a_node1"><a xlink:title="Provides an abstract base class to create new debugging and tracing switches.">
<polygon fill="#bfbfbf" stroke="black" points="0,-55 0,-74 137,-74 137,-55 0,-55"/>
<text text-anchor="middle" x="68.5" y="-62" font-family="Helvetica,sans-Serif" font-size="10.00">System.Diagnostics.Switch</text>
</a>
</g>
</g>
<!-- Node1 -->
<g id="node2" class="node"><title>Node1</title>
<g id="a_node2"><a xlink:href="class_system_1_1_diagnostics_1_1_boolean_switch.html" target="_top" xlink:title="Provides a simple on/off switch that controls debugging and tracing output.">
<polygon fill="none" stroke="black" points="173,-98.5 173,-128.5 316,-128.5 316,-98.5 173,-98.5"/>
<text text-anchor="start" x="181" y="-116.5" font-family="Helvetica,sans-Serif" font-size="10.00">System.Diagnostics.Boolean</text>
<text text-anchor="middle" x="244.5" y="-105.5" font-family="Helvetica,sans-Serif" font-size="10.00">Switch</text>
</a>
</g>
</g>
<!-- Node0&#45;&gt;Node1 -->
<g id="edge1" class="edge"><title>Node0&#45;&gt;Node1</title>
<path fill="none" stroke="midnightblue" d="M113.098,-76.7776C136.45,-83.3537 165.41,-91.5092 190.103,-98.463"/>
<polygon fill="midnightblue" stroke="midnightblue" points="114.036,-73.4058 103.462,-74.064 112.139,-80.1437 114.036,-73.4058"/>
</g>
<!-- Node2 -->
<g id="node3" class="node"><title>Node2</title>
<g id="a_node3"><a xlink:href="class_system_1_1_diagnostics_1_1_source_switch.html" target="_top" xlink:title="Provides a multilevel switch to control tracing and debug output without recompiling your code.">
<polygon fill="none" stroke="black" points="175.5,-49.5 175.5,-79.5 313.5,-79.5 313.5,-49.5 175.5,-49.5"/>
<text text-anchor="start" x="183.5" y="-67.5" font-family="Helvetica,sans-Serif" font-size="10.00">System.Diagnostics.Source</text>
<text text-anchor="middle" x="244.5" y="-56.5" font-family="Helvetica,sans-Serif" font-size="10.00">Switch</text>
</a>
</g>
</g>
<!-- Node0&#45;&gt;Node2 -->
<g id="edge2" class="edge"><title>Node0&#45;&gt;Node2</title>
<path fill="none" stroke="midnightblue" d="M147.33,-64.5C156.67,-64.5 166.153,-64.5 175.341,-64.5"/>
<polygon fill="midnightblue" stroke="midnightblue" points="147.271,-61.0001 137.271,-64.5 147.271,-68.0001 147.271,-61.0001"/>
</g>
<!-- Node3 -->
<g id="node4" class="node"><title>Node3</title>
<g id="a_node4"><a xlink:href="class_system_1_1_diagnostics_1_1_trace_switch.html" target="_top" xlink:title="Provides a multilevel switch to control tracing and debug output without recompiling your code.">
<polygon fill="none" stroke="black" points="179,-0.5 179,-30.5 310,-30.5 310,-0.5 179,-0.5"/>
<text text-anchor="start" x="187" y="-18.5" font-family="Helvetica,sans-Serif" font-size="10.00">System.Diagnostics.Trace</text>
<text text-anchor="middle" x="244.5" y="-7.5" font-family="Helvetica,sans-Serif" font-size="10.00">Switch</text>
</a>
</g>
</g>
<!-- Node0&#45;&gt;Node3 -->
<g id="edge3" class="edge"><title>Node0&#45;&gt;Node3</title>
<path fill="none" stroke="midnightblue" d="M113.098,-52.2224C136.45,-45.6463 165.41,-37.4908 190.103,-30.537"/>
<polygon fill="midnightblue" stroke="midnightblue" points="112.139,-48.8563 103.462,-54.936 114.036,-55.5942 112.139,-48.8563"/>
</g>
</g>
</svg>
