<?xml version="1.0" encoding="UTF-8" standalone="no"?>
<!DOCTYPE svg PUBLIC "-//W3C//DTD SVG 1.1//EN"
 "http://www.w3.org/Graphics/SVG/1.1/DTD/svg11.dtd">
<!-- Generated by graphviz version 2.38.0 (20140413.2041)
 -->
<!-- Title: System.Reflection.Emit.TypeBuilderInstantiation Pages: 1 -->
<!--zoomable 396 -->
<svg id="main" version="1.1" xmlns="http://www.w3.org/2000/svg" xmlns:xlink="http://www.w3.org/1999/xlink" xml:space="preserve" onload="init(evt)">
<style type="text/css"><![CDATA[
.edge:hover path { stroke: red; }
.edge:hover polygon { stroke: red; fill: red; }
]]></style>
<script type="text/javascript"><![CDATA[
var edges = document.getElementsByTagName('g');
if (edges && edges.length) {
  for (var i=0;i<edges.length;i++) {
    if (edges[i].id.substr(0,4)=='edge') {
      edges[i].setAttribute('class','edge');
    }
  }
}
]]></script>
        <defs>
                <circle id="rim" cx="0" cy="0" r="7"/>
                <circle id="rim2" cx="0" cy="0" r="3.5"/>
                <g id="zoomPlus">
                        <use xlink:href="#rim" fill="#404040">
                                <set attributeName="fill" to="#808080" begin="zoomplus.mouseover" end="zoomplus.mouseout"/>
                        </use>
                        <path d="M-4,0h8M0,-4v8" fill="none" stroke="white" stroke-width="1.5" pointer-events="none"/>
                </g>
                <g id="zoomMin">
                        <use xlink:href="#rim" fill="#404040">
                                <set attributeName="fill" to="#808080" begin="zoomminus.mouseover" end="zoomminus.mouseout"/>
                        </use>
                        <path d="M-4,0h8" fill="none" stroke="white" stroke-width="1.5" pointer-events="none"/>
                </g>
                <g id="dirArrow">
                        <path fill="none" stroke="white" stroke-width="1.5" d="M0,-3.0v7 M-2.5,-0.5L0,-3.0L2.5,-0.5"/>
                </g>
               <g id="resetDef">
                       <use xlink:href="#rim2" fill="#404040">
                               <set attributeName="fill" to="#808080" begin="reset.mouseover" end="reset.mouseout"/>
                       </use>
               </g>
        </defs>

<script type="text/javascript">
var viewWidth = 1119;
var viewHeight = 396;
var sectionId = 'dynsection-1';
</script>
<script xlink:href="svgpan.js"/>
<svg id="graph" class="graph">
<g id="viewport">
<title>System.Reflection.Emit.TypeBuilderInstantiation</title>
<!-- Node9 -->
<g id="node1" class="node"><title>Node9</title>
<g id="a_node1"><a xlink:title=" ">
<polygon fill="#bfbfbf" stroke="black" points="968,-178 968,-208 1111,-208 1111,-178 968,-178"/>
<text text-anchor="start" x="976" y="-196" font-family="Helvetica,sans-Serif" font-size="10.00">System.Reflection.Emit.Type</text>
<text text-anchor="middle" x="1039.5" y="-185" font-family="Helvetica,sans-Serif" font-size="10.00">BuilderInstantiation</text>
</a>
</g>
</g>
<!-- Node10 -->
<g id="node2" class="node"><title>Node10</title>
<g id="a_node2"><a xlink:href="class_system_1_1_reflection_1_1_type_info.html" target="_top" xlink:title="Represents type declarations for class types, interface types, array types, value types,...">
<polygon fill="none" stroke="black" points="878,-299.5 878,-318.5 931,-318.5 931,-299.5 878,-299.5"/>
<text text-anchor="middle" x="904.5" y="-306.5" font-family="Helvetica,sans-Serif" font-size="10.00">TypeInfo</text>
</a>
</g>
</g>
<!-- Node10&#45;&gt;Node9 -->
<g id="edge1" class="edge"><title>Node10&#45;&gt;Node9</title>
<path fill="none" stroke="midnightblue" d="M926.832,-293.349C934.283,-287.714 942.623,-281.212 950,-275 976.437,-252.739 1005.56,-225.109 1022.92,-208.279"/>
<polygon fill="midnightblue" stroke="midnightblue" points="924.521,-290.707 918.606,-299.497 928.712,-296.314 924.521,-290.707"/>
</g>
<!-- Node11 -->
<g id="node3" class="node"><title>Node11</title>
<g id="a_node3"><a xlink:href="class_system_1_1_type.html" target="_top" xlink:title="Represents type declarations: class types, interface types, array types, value types,...">
<polygon fill="none" stroke="black" points="678,-331.5 678,-350.5 716,-350.5 716,-331.5 678,-331.5"/>
<text text-anchor="middle" x="697" y="-338.5" font-family="Helvetica,sans-Serif" font-size="10.00">Type</text>
</a>
</g>
</g>
<!-- Node11&#45;&gt;Node10 -->
<g id="edge2" class="edge"><title>Node11&#45;&gt;Node10</title>
<path fill="none" stroke="midnightblue" d="M726.193,-338.371C758.64,-335.109 813.445,-328.871 860,-320 865.816,-318.892 872.012,-317.472 877.851,-316.024"/>
<polygon fill="midnightblue" stroke="midnightblue" points="725.701,-334.903 716.09,-339.363 726.384,-341.869 725.701,-334.903"/>
</g>
<!-- Node12 -->
<g id="node4" class="node"><title>Node12</title>
<g id="a_node4"><a xlink:href="class_system_1_1_reflection_1_1_member_info.html" target="_top" xlink:title="Obtains information about the attributes of a member and provides access to member metadata.">
<polygon fill="none" stroke="black" points="263,-233.5 263,-252.5 330,-252.5 330,-233.5 263,-233.5"/>
<text text-anchor="middle" x="296.5" y="-240.5" font-family="Helvetica,sans-Serif" font-size="10.00">MemberInfo</text>
</a>
</g>
</g>
<!-- Node12&#45;&gt;Node11 -->
<g id="edge3" class="edge"><title>Node12&#45;&gt;Node11</title>
<path fill="none" stroke="midnightblue" d="M340.678,-239.443C393.231,-236.368 484.218,-235.107 559,-255 595.69,-264.76 606.882,-268.49 635,-294 645.957,-303.94 641.759,-312.382 653,-322 660.194,-328.155 669.697,-332.633 677.94,-335.69"/>
<polygon fill="midnightblue" stroke="midnightblue" points="340.139,-235.97 330.381,-240.098 340.583,-242.956 340.139,-235.97"/>
</g>
<!-- Node17 -->
<g id="node9" class="node"><title>Node17</title>
<g id="a_node9"><a xlink:href="class_system_1_1_type.html" target="_top" xlink:title="Represents type declarations: class types, interface types, array types, value types,...">
<polygon fill="none" stroke="black" points="445,-264.5 445,-283.5 519,-283.5 519,-264.5 445,-264.5"/>
<text text-anchor="middle" x="482" y="-271.5" font-family="Helvetica,sans-Serif" font-size="10.00">System.Type</text>
</a>
</g>
</g>
<!-- Node12&#45;&gt;Node17 -->
<g id="edge9" class="edge"><title>Node12&#45;&gt;Node17</title>
<path fill="none" stroke="midnightblue" d="M340.178,-250.21C371.876,-255.565 414.645,-262.79 444.705,-267.868"/>
<polygon fill="midnightblue" stroke="midnightblue" points="340.749,-246.757 330.306,-248.542 339.583,-253.659 340.749,-246.757"/>
</g>
<!-- Node26 -->
<g id="node18" class="node"><title>Node26</title>
<g id="a_node18"><a xlink:href="class_system_1_1_reflection_1_1_method_base.html" target="_top" xlink:title="Provides information about methods and constructors.">
<polygon fill="none" stroke="black" points="405,-183.5 405,-202.5 559,-202.5 559,-183.5 405,-183.5"/>
<text text-anchor="middle" x="482" y="-190.5" font-family="Helvetica,sans-Serif" font-size="10.00">System.Reflection.MethodBase</text>
</a>
</g>
</g>
<!-- Node12&#45;&gt;Node26 -->
<g id="edge27" class="edge"><title>Node12&#45;&gt;Node26</title>
<path fill="none" stroke="midnightblue" d="M340.31,-231.335C372.445,-222.579 415.904,-210.737 445.979,-202.543"/>
<polygon fill="midnightblue" stroke="midnightblue" points="339.034,-228.055 330.306,-234.061 340.875,-234.809 339.034,-228.055"/>
</g>
<!-- Node13 -->
<g id="node5" class="node"><title>Node13</title>
<g id="a_node5"><a xlink:href="interface_system_1_1_reflection_1_1_i_custom_attribute_provider.html" target="_top" xlink:title="Provides custom attributes for reflection objects that support them.">
<polygon fill="none" stroke="black" points="0,-219.5 0,-238.5 124,-238.5 124,-219.5 0,-219.5"/>
<text text-anchor="middle" x="62" y="-226.5" font-family="Helvetica,sans-Serif" font-size="10.00">ICustomAttributeProvider</text>
</a>
</g>
</g>
<!-- Node13&#45;&gt;Node12 -->
<g id="edge4" class="edge"><title>Node13&#45;&gt;Node12</title>
<path fill="none" stroke="midnightblue" d="M134.188,-233.287C177.027,-235.866 229.524,-239.027 262.751,-241.028"/>
<polygon fill="midnightblue" stroke="midnightblue" points="134.279,-229.786 124.087,-232.678 133.858,-236.773 134.279,-229.786"/>
</g>
<!-- Node19 -->
<g id="node11" class="node"><title>Node19</title>
<g id="a_node11"><a xlink:href="class_system_1_1_reflection_1_1_module.html" target="_top" xlink:title="Performs reflection on a module.">
<polygon fill="none" stroke="black" points="231,-138.5 231,-157.5 362,-157.5 362,-138.5 231,-138.5"/>
<text text-anchor="middle" x="296.5" y="-145.5" font-family="Helvetica,sans-Serif" font-size="10.00">System.Reflection.Module</text>
</a>
</g>
</g>
<!-- Node13&#45;&gt;Node19 -->
<g id="edge18" class="edge"><title>Node13&#45;&gt;Node19</title>
<path fill="none" stroke="midnightblue" d="M134.541,-229.593C159.514,-226.62 186.416,-219.485 207,-204 221.614,-193.006 210.903,-178.649 225,-167 229.69,-163.124 235.1,-160.033 240.795,-157.57"/>
<polygon fill="midnightblue" stroke="midnightblue" points="133.959,-226.133 124.35,-230.595 134.645,-233.099 133.959,-226.133"/>
</g>
<!-- Node23 -->
<g id="node15" class="node"><title>Node23</title>
<g id="a_node15"><a xlink:href="class_system_1_1_reflection_1_1_assembly.html" target="_top" xlink:title="Represents an assembly, which is a reusable, versionable, and self&#45;describing building block of a com...">
<polygon fill="none" stroke="black" points="225,-74.5 225,-93.5 368,-93.5 368,-74.5 225,-74.5"/>
<text text-anchor="middle" x="296.5" y="-81.5" font-family="Helvetica,sans-Serif" font-size="10.00">System.Reflection.Assembly</text>
</a>
</g>
</g>
<!-- Node13&#45;&gt;Node23 -->
<g id="edge24" class="edge"><title>Node13&#45;&gt;Node23</title>
<path fill="none" stroke="midnightblue" d="M109.413,-216.117C114.418,-214.265 119.369,-212.224 124,-210 164.113,-190.734 175.058,-184.983 207,-154 216.828,-144.467 215.052,-138.407 225,-129 240.509,-114.335 261.453,-101.674 276.476,-93.551"/>
<polygon fill="midnightblue" stroke="midnightblue" points="108.101,-212.867 99.793,-219.442 110.388,-219.483 108.101,-212.867"/>
</g>
<!-- Node14 -->
<g id="node6" class="node"><title>Node14</title>
<g id="a_node6"><a xlink:href="interface_system_1_1_runtime_1_1_interop_services_1_1___member_info.html" target="_top" xlink:title="Exposes the public members of the T:System.Reflection.MemberInfo class to unmanaged code.">
<polygon fill="none" stroke="black" points="26,-258.5 26,-277.5 98,-277.5 98,-258.5 26,-258.5"/>
<text text-anchor="middle" x="62" y="-265.5" font-family="Helvetica,sans-Serif" font-size="10.00">_MemberInfo</text>
</a>
</g>
</g>
<!-- Node14&#45;&gt;Node12 -->
<g id="edge5" class="edge"><title>Node14&#45;&gt;Node12</title>
<path fill="none" stroke="midnightblue" d="M108.216,-263.138C153.608,-258.257 222.433,-250.857 262.789,-246.517"/>
<polygon fill="midnightblue" stroke="midnightblue" points="107.628,-259.681 98.0593,-264.23 108.376,-266.641 107.628,-259.681"/>
</g>
<!-- Node15 -->
<g id="node7" class="node"><title>Node15</title>
<g id="a_node7"><a xlink:href="interface_system_1_1_runtime_1_1_interop_services_1_1___type.html" target="_top" xlink:title="Exposes the public members of the T:System.Type class to the unmanaged code.">
<polygon fill="none" stroke="black" points="275,-368.5 275,-387.5 318,-387.5 318,-368.5 275,-368.5"/>
<text text-anchor="middle" x="296.5" y="-375.5" font-family="Helvetica,sans-Serif" font-size="10.00">_Type</text>
</a>
</g>
</g>
<!-- Node15&#45;&gt;Node11 -->
<g id="edge6" class="edge"><title>Node15&#45;&gt;Node11</title>
<path fill="none" stroke="midnightblue" d="M328.33,-376.674C387.82,-373.883 522.509,-366.438 635,-352 649.516,-350.137 665.825,-347.149 677.924,-344.757"/>
<polygon fill="midnightblue" stroke="midnightblue" points="327.949,-373.188 318.12,-377.141 328.27,-380.18 327.949,-373.188"/>
</g>
<!-- Node15&#45;&gt;Node17 -->
<g id="edge10" class="edge"><title>Node15&#45;&gt;Node17</title>
<path fill="none" stroke="midnightblue" d="M327.511,-366.051C340.221,-360.673 355.054,-353.971 368,-347 405.427,-326.848 446.751,-298.453 467.515,-283.721"/>
<polygon fill="midnightblue" stroke="midnightblue" points="326.165,-362.82 318.272,-369.888 328.85,-369.285 326.165,-362.82"/>
</g>
<!-- Node16 -->
<g id="node8" class="node"><title>Node16</title>
<g id="a_node8"><a xlink:href="interface_system_1_1_reflection_1_1_i_reflect.html" target="_top" xlink:title="Interoperates with the IDispatch interface.">
<polygon fill="none" stroke="black" points="272,-318.5 272,-337.5 321,-337.5 321,-318.5 272,-318.5"/>
<text text-anchor="middle" x="296.5" y="-325.5" font-family="Helvetica,sans-Serif" font-size="10.00">IReflect</text>
</a>
</g>
</g>
<!-- Node16&#45;&gt;Node11 -->
<g id="edge7" class="edge"><title>Node16&#45;&gt;Node11</title>
<path fill="none" stroke="midnightblue" d="M331.394,-329.106C412.467,-331.75 615.459,-338.373 677.62,-340.4"/>
<polygon fill="midnightblue" stroke="midnightblue" points="331.343,-325.602 321.235,-328.774 331.115,-332.599 331.343,-325.602"/>
</g>
<!-- Node16&#45;&gt;Node17 -->
<g id="edge11" class="edge"><title>Node16&#45;&gt;Node17</title>
<path fill="none" stroke="midnightblue" d="M330.88,-318.177C364.306,-308.34 415.407,-293.303 448.513,-283.56"/>
<polygon fill="midnightblue" stroke="midnightblue" points="329.719,-314.87 321.114,-321.051 331.695,-321.585 329.719,-314.87"/>
</g>
<!-- Node17&#45;&gt;Node9 -->
<g id="edge14" class="edge"><title>Node17&#45;&gt;Node9</title>
<path fill="none" stroke="#9a32cd" stroke-dasharray="5,2" d="M529.018,-267.622C612.811,-255.958 795.865,-230.247 950,-207 955.845,-206.118 961.905,-205.19 967.987,-204.248"/>
<polygon fill="#9a32cd" stroke="#9a32cd" points="528.483,-264.162 519.061,-269.007 529.447,-271.096 528.483,-264.162"/>
<text text-anchor="middle" x="809.5" y="-259" font-family="Helvetica,sans-Serif" font-size="10.00"> ReflectedType</text>
<text text-anchor="middle" x="809.5" y="-248" font-family="Helvetica,sans-Serif" font-size="10.00">DeclaringType</text>
<text text-anchor="middle" x="809.5" y="-237" font-family="Helvetica,sans-Serif" font-size="10.00">UnderlyingSystemType</text>
</g>
<!-- Node17&#45;&gt;Node11 -->
<g id="edge8" class="edge"><title>Node17&#45;&gt;Node11</title>
<path fill="none" stroke="#9a32cd" stroke-dasharray="5,2" d="M529.187,-285.232C559.54,-292.987 599.97,-304.03 635,-316 649.621,-320.996 665.785,-327.675 677.799,-332.873"/>
<polygon fill="#9a32cd" stroke="#9a32cd" points="529.855,-281.791 519.302,-282.732 528.138,-288.577 529.855,-281.791"/>
<text text-anchor="middle" x="606" y="-319" font-family="Helvetica,sans-Serif" font-size="10.00"> EmptyTypes</text>
</g>
<!-- Node17&#45;&gt;Node17 -->
<g id="edge12" class="edge"><title>Node17&#45;&gt;Node17</title>
<path fill="none" stroke="#9a32cd" stroke-dasharray="5,2" d="M464.593,-293.4C465.756,-298.315 471.558,-302 482,-302 498.707,-302 503.536,-292.565 496.488,-283.757"/>
<polygon fill="#9a32cd" stroke="#9a32cd" points="467.965,-294.342 467.512,-283.757 461.265,-292.314 467.965,-294.342"/>
<text text-anchor="middle" x="482" y="-305" font-family="Helvetica,sans-Serif" font-size="10.00"> EmptyTypes</text>
</g>
<!-- Node18 -->
<g id="node10" class="node"><title>Node18</title>
<g id="a_node10"><a xlink:href="interface_system_1_1_reflection_1_1_i_reflectable_type.html" target="_top" xlink:title="Represents a type that you can reflect over.">
<polygon fill="none" stroke="black" points="653,-293.5 653,-312.5 741,-312.5 741,-293.5 653,-293.5"/>
<text text-anchor="middle" x="697" y="-300.5" font-family="Helvetica,sans-Serif" font-size="10.00">IReflectableType</text>
</a>
</g>
</g>
<!-- Node18&#45;&gt;Node10 -->
<g id="edge13" class="edge"><title>Node18&#45;&gt;Node10</title>
<path fill="none" stroke="midnightblue" d="M751.13,-304.551C791.911,-305.742 846.415,-307.333 877.966,-308.254"/>
<polygon fill="midnightblue" stroke="midnightblue" points="751.177,-301.051 741.08,-304.258 750.973,-308.048 751.177,-301.051"/>
</g>
<!-- Node19&#45;&gt;Node9 -->
<g id="edge15" class="edge"><title>Node19&#45;&gt;Node9</title>
<path fill="none" stroke="#9a32cd" stroke-dasharray="5,2" d="M372.157,-149.773C405.466,-150.422 445.195,-151 481,-151 481,-151 481,-151 905.5,-151 942.427,-151 982.555,-165.904 1008.97,-177.956"/>
<polygon fill="#9a32cd" stroke="#9a32cd" points="372.105,-146.272 362.037,-149.57 371.965,-153.27 372.105,-146.272"/>
<text text-anchor="middle" x="697" y="-154" font-family="Helvetica,sans-Serif" font-size="10.00"> Module</text>
</g>
<!-- Node20 -->
<g id="node12" class="node"><title>Node20</title>
<g id="a_node12"><a xlink:href="interface_system_1_1_runtime_1_1_interop_services_1_1___module.html" target="_top" xlink:title="Exposes the T:System.Reflection.Module class to unmanaged code.">
<polygon fill="none" stroke="black" points="35.5,-181.5 35.5,-200.5 88.5,-200.5 88.5,-181.5 35.5,-181.5"/>
<text text-anchor="middle" x="62" y="-188.5" font-family="Helvetica,sans-Serif" font-size="10.00">_Module</text>
</a>
</g>
</g>
<!-- Node20&#45;&gt;Node19 -->
<g id="edge16" class="edge"><title>Node20&#45;&gt;Node19</title>
<path fill="none" stroke="midnightblue" d="M99.0557,-184.332C137.827,-177.161 199.813,-165.697 243.777,-157.566"/>
<polygon fill="midnightblue" stroke="midnightblue" points="97.9666,-180.974 88.7699,-186.234 99.2397,-187.857 97.9666,-180.974"/>
</g>
<!-- Node21 -->
<g id="node13" class="node"><title>Node21</title>
<g id="a_node13"><a xlink:href="interface_system_1_1_runtime_1_1_serialization_1_1_i_serializable.html" target="_top" xlink:title="Allows an object to control its own serialization and deserialization.">
<polygon fill="none" stroke="black" points="27.5,-76.5 27.5,-95.5 96.5,-95.5 96.5,-76.5 27.5,-76.5"/>
<text text-anchor="middle" x="62" y="-83.5" font-family="Helvetica,sans-Serif" font-size="10.00">ISerializable</text>
</a>
</g>
</g>
<!-- Node21&#45;&gt;Node19 -->
<g id="edge17" class="edge"><title>Node21&#45;&gt;Node19</title>
<path fill="none" stroke="midnightblue" d="M106.7,-97.6533C150.953,-109.454 218.574,-127.486 259.742,-138.465"/>
<polygon fill="midnightblue" stroke="midnightblue" points="107.372,-94.2102 96.8075,-95.0153 105.568,-100.974 107.372,-94.2102"/>
</g>
<!-- Node21&#45;&gt;Node23 -->
<g id="edge25" class="edge"><title>Node21&#45;&gt;Node23</title>
<path fill="none" stroke="midnightblue" d="M107.093,-85.6207C140.258,-85.3354 186.383,-84.9386 224.693,-84.6091"/>
<polygon fill="midnightblue" stroke="midnightblue" points="106.777,-82.1232 96.8075,-85.7092 106.837,-89.1229 106.777,-82.1232"/>
</g>
<!-- Node22 -->
<g id="node14" class="node"><title>Node22</title>
<g id="a_node14"><a xlink:href="struct_system_1_1_module_handle.html" target="_top" xlink:title="Represents a runtime handle for a module.">
<polygon fill="none" stroke="black" points="4.5,-114.5 4.5,-133.5 119.5,-133.5 119.5,-114.5 4.5,-114.5"/>
<text text-anchor="middle" x="62" y="-121.5" font-family="Helvetica,sans-Serif" font-size="10.00">System.ModuleHandle</text>
</a>
</g>
</g>
<!-- Node22&#45;&gt;Node19 -->
<g id="edge19" class="edge"><title>Node22&#45;&gt;Node19</title>
<path fill="none" stroke="#9a32cd" stroke-dasharray="5,2" d="M129.669,-130.882C161.454,-134.163 199.324,-138.072 230.846,-141.326"/>
<polygon fill="#9a32cd" stroke="#9a32cd" points="129.885,-127.386 119.579,-129.84 129.166,-134.349 129.885,-127.386"/>
<text text-anchor="middle" x="174.5" y="-142" font-family="Helvetica,sans-Serif" font-size="10.00"> ModuleHandle</text>
</g>
<!-- Node22&#45;&gt;Node22 -->
<g id="edge20" class="edge"><title>Node22&#45;&gt;Node22</title>
<path fill="none" stroke="#9a32cd" stroke-dasharray="5,2" d="M41.2603,-143.4C42.6454,-148.315 49.5586,-152 62,-152 81.9063,-152 87.6604,-142.565 79.2625,-133.757"/>
<polygon fill="#9a32cd" stroke="#9a32cd" points="44.6378,-144.351 44.7375,-133.757 38.0528,-141.977 44.6378,-144.351"/>
<text text-anchor="middle" x="62" y="-155" font-family="Helvetica,sans-Serif" font-size="10.00"> EmptyHandle</text>
</g>
<!-- Node23&#45;&gt;Node9 -->
<g id="edge21" class="edge"><title>Node23&#45;&gt;Node9</title>
<path fill="none" stroke="#9a32cd" stroke-dasharray="5,2" d="M378.571,-93.4893C410.451,-96.4707 447.399,-99 481,-99 481,-99 481,-99 905.5,-99 959.506,-99 1006.96,-151.326 1027.58,-177.897"/>
<polygon fill="#9a32cd" stroke="#9a32cd" points="378.699,-89.9855 368.409,-92.508 378.026,-96.953 378.699,-89.9855"/>
<text text-anchor="middle" x="697" y="-102" font-family="Helvetica,sans-Serif" font-size="10.00"> Assembly</text>
</g>
<!-- Node24 -->
<g id="node16" class="node"><title>Node24</title>
<g id="a_node16"><a xlink:href="interface_system_1_1_runtime_1_1_interop_services_1_1___assembly.html" target="_top" xlink:title="Exposes the public members of the T:System.Reflection.Assembly class to unmanaged code.">
<polygon fill="none" stroke="black" points="29.5,-0.5 29.5,-19.5 94.5,-19.5 94.5,-0.5 29.5,-0.5"/>
<text text-anchor="middle" x="62" y="-7.5" font-family="Helvetica,sans-Serif" font-size="10.00">_Assembly</text>
</a>
</g>
</g>
<!-- Node24&#45;&gt;Node23 -->
<g id="edge22" class="edge"><title>Node24&#45;&gt;Node23</title>
<path fill="none" stroke="midnightblue" d="M103.543,-22.576C110.375,-24.7101 117.391,-26.9112 124,-29 173.939,-44.7847 231.948,-63.4594 266.087,-74.4847"/>
<polygon fill="midnightblue" stroke="midnightblue" points="104.324,-19.1533 93.7351,-19.5181 102.24,-25.836 104.324,-19.1533"/>
</g>
<!-- Node25 -->
<g id="node17" class="node"><title>Node25</title>
<g id="a_node17"><a xlink:href="interface_system_1_1_security_1_1_i_evidence_factory.html" target="_top" xlink:title="Gets an object&#39;s T:System.Security.Policy.Evidence.">
<polygon fill="none" stroke="black" points="16.5,-38.5 16.5,-57.5 107.5,-57.5 107.5,-38.5 16.5,-38.5"/>
<text text-anchor="middle" x="62" y="-45.5" font-family="Helvetica,sans-Serif" font-size="10.00">IEvidenceFactory</text>
</a>
</g>
</g>
<!-- Node25&#45;&gt;Node23 -->
<g id="edge23" class="edge"><title>Node25&#45;&gt;Node23</title>
<path fill="none" stroke="midnightblue" d="M117.563,-56.4484C152.457,-61.8515 197.791,-68.8709 233.967,-74.4722"/>
<polygon fill="midnightblue" stroke="midnightblue" points="117.971,-52.97 107.553,-54.8986 116.9,-59.8876 117.971,-52.97"/>
</g>
<!-- Node26&#45;&gt;Node9 -->
<g id="edge26" class="edge"><title>Node26&#45;&gt;Node9</title>
<path fill="none" stroke="#9a32cd" stroke-dasharray="5,2" d="M569.108,-193C678.716,-193 866.017,-193 967.729,-193"/>
<polygon fill="#9a32cd" stroke="#9a32cd" points="569.075,-189.5 559.075,-193 569.075,-196.5 569.075,-189.5"/>
<text text-anchor="middle" x="809.5" y="-196" font-family="Helvetica,sans-Serif" font-size="10.00"> DeclaringMethod</text>
</g>
<!-- Node27 -->
<g id="node19" class="node"><title>Node27</title>
<g id="a_node19"><a xlink:href="interface_system_1_1_runtime_1_1_interop_services_1_1___method_base.html" target="_top" xlink:title="Exposes the public members of the T:System.Reflection.MethodBase class to unmanaged code.">
<polygon fill="none" stroke="black" points="258,-176.5 258,-195.5 335,-195.5 335,-176.5 258,-176.5"/>
<text text-anchor="middle" x="296.5" y="-183.5" font-family="Helvetica,sans-Serif" font-size="10.00">_MethodBase</text>
</a>
</g>
</g>
<!-- Node27&#45;&gt;Node26 -->
<g id="edge28" class="edge"><title>Node27&#45;&gt;Node26</title>
<path fill="none" stroke="midnightblue" d="M345.138,-187.817C363.356,-188.512 384.618,-189.323 404.84,-190.095"/>
<polygon fill="midnightblue" stroke="midnightblue" points="345.203,-184.317 335.077,-187.433 344.936,-191.312 345.203,-184.317"/>
</g>
</g>
</svg>
        <g id="navigator" transform="translate(0 0)" fill="#404254">
                <rect fill="#f2f5e9" fill-opacity="0.5" stroke="#606060" stroke-width=".5" x="0" y="0" width="60" height="60"/>
                <use id="zoomplus" xlink:href="#zoomPlus" x="17" y="9" onmousedown="handleZoom(evt,'in')"/>
                <use id="zoomminus" xlink:href="#zoomMin" x="42" y="9" onmousedown="handleZoom(evt,'out')"/>
                <use id="reset" xlink:href="#resetDef" x="30" y="36" onmousedown="handleReset()"/>
                <g id="arrowUp" xlink:href="#dirArrow" transform="translate(30 24)" onmousedown="handlePan(0,-1)">
                  <use xlink:href="#rim" fill="#404040">
                        <set attributeName="fill" to="#808080" begin="arrowUp.mouseover" end="arrowUp.mouseout"/>
                  </use>
                  <path fill="none" stroke="white" stroke-width="1.5" d="M0,-3.0v7 M-2.5,-0.5L0,-3.0L2.5,-0.5"/>
                </g>
                <g id="arrowRight" xlink:href="#dirArrow" transform="rotate(90) translate(36 -43)" onmousedown="handlePan(1,0)">
                  <use xlink:href="#rim" fill="#404040">
                        <set attributeName="fill" to="#808080" begin="arrowRight.mouseover" end="arrowRight.mouseout"/>
                  </use>
                  <path fill="none" stroke="white" stroke-width="1.5" d="M0,-3.0v7 M-2.5,-0.5L0,-3.0L2.5,-0.5"/>
                </g>
                <g id="arrowDown" xlink:href="#dirArrow" transform="rotate(180) translate(-30 -48)" onmousedown="handlePan(0,1)">
                  <use xlink:href="#rim" fill="#404040">
                        <set attributeName="fill" to="#808080" begin="arrowDown.mouseover" end="arrowDown.mouseout"/>
                  </use>
                  <path fill="none" stroke="white" stroke-width="1.5" d="M0,-3.0v7 M-2.5,-0.5L0,-3.0L2.5,-0.5"/>
                </g>
                <g id="arrowLeft" xlink:href="#dirArrow" transform="rotate(270) translate(-36 17)" onmousedown="handlePan(-1,0)">
                  <use xlink:href="#rim" fill="#404040">
                        <set attributeName="fill" to="#808080" begin="arrowLeft.mouseover" end="arrowLeft.mouseout"/>
                  </use>
                  <path fill="none" stroke="white" stroke-width="1.5" d="M0,-3.0v7 M-2.5,-0.5L0,-3.0L2.5,-0.5"/>
                </g>
        </g>
        <svg viewBox="0 0 15 15" width="100%" height="30px" preserveAspectRatio="xMaxYMin meet">
         <g id="arrow_out" transform="scale(0.3 0.3)">
          <a xlink:href="class_system_1_1_reflection_1_1_emit_1_1_type_builder_instantiation__coll__graph_org.svg" target="_base">
           <rect id="button" ry="5" rx="5" y="6" x="6" height="38" width="38"
                fill="#f2f5e9" fill-opacity="0.5" stroke="#606060" stroke-width="1.0"/>
           <path id="arrow"
             d="M 11.500037,31.436501 C 11.940474,20.09759 22.043105,11.32322 32.158766,21.979434 L 37.068811,17.246167 C 37.068811,17.246167 37.088388,32 37.088388,32 L 22.160133,31.978069 C 22.160133,31.978069 26.997745,27.140456 26.997745,27.140456 C 18.528582,18.264221 13.291696,25.230495 11.500037,31.436501 z"
             style="fill:#404040;"/>
          </a>
         </g>
        </svg>
</svg>
