<?xml version="1.0" encoding="UTF-8" standalone="no"?>
<!DOCTYPE svg PUBLIC "-//W3C//DTD SVG 1.1//EN"
 "http://www.w3.org/Graphics/SVG/1.1/DTD/svg11.dtd">
<!-- Generated by graphviz version 2.38.0 (20140413.2041)
 -->
<!-- Title: System.IO.DriveNotFoundException Pages: 1 -->
<svg width="181pt" height="252pt"
 viewBox="0.00 0.00 181.00 252.00" xmlns="http://www.w3.org/2000/svg" xmlns:xlink="http://www.w3.org/1999/xlink">
<g id="graph0" class="graph" transform="scale(1 1) rotate(0) translate(4 248)">
<title>System.IO.DriveNotFoundException</title>
<!-- Node6 -->
<g id="node1" class="node"><title>Node6</title>
<g id="a_node1"><a xlink:title="The exception that is thrown when trying to access a drive or share that is not available.">
<polygon fill="#bfbfbf" stroke="black" points="0,-0.5 0,-19.5 173,-19.5 173,-0.5 0,-0.5"/>
<text text-anchor="middle" x="86.5" y="-7.5" font-family="Helvetica,sans-Serif" font-size="10.00">System.IO.DriveNotFoundException</text>
</a>
</g>
</g>
<!-- Node7 -->
<g id="node2" class="node"><title>Node7</title>
<g id="a_node2"><a xlink:href="class_system_1_1_i_o_1_1_i_o_exception.html" target="_top" xlink:title="The exception that is thrown when an I/O error occurs.">
<polygon fill="none" stroke="black" points="51.5,-56.5 51.5,-75.5 121.5,-75.5 121.5,-56.5 51.5,-56.5"/>
<text text-anchor="middle" x="86.5" y="-63.5" font-family="Helvetica,sans-Serif" font-size="10.00">IOException</text>
</a>
</g>
</g>
<!-- Node7&#45;&gt;Node6 -->
<g id="edge1" class="edge"><title>Node7&#45;&gt;Node6</title>
<path fill="none" stroke="midnightblue" d="M86.5,-45.8045C86.5,-36.9102 86.5,-26.7798 86.5,-19.7511"/>
<polygon fill="midnightblue" stroke="midnightblue" points="83.0001,-46.083 86.5,-56.083 90.0001,-46.083 83.0001,-46.083"/>
</g>
<!-- Node8 -->
<g id="node3" class="node"><title>Node8</title>
<g id="a_node3"><a xlink:href="class_system_1_1_system_exception.html" target="_top" xlink:title="Serves as the base class for system exceptions namespace.">
<polygon fill="none" stroke="black" points="39.5,-112.5 39.5,-131.5 133.5,-131.5 133.5,-112.5 39.5,-112.5"/>
<text text-anchor="middle" x="86.5" y="-119.5" font-family="Helvetica,sans-Serif" font-size="10.00">SystemException</text>
</a>
</g>
</g>
<!-- Node8&#45;&gt;Node7 -->
<g id="edge2" class="edge"><title>Node8&#45;&gt;Node7</title>
<path fill="none" stroke="midnightblue" d="M86.5,-101.805C86.5,-92.9102 86.5,-82.7798 86.5,-75.7511"/>
<polygon fill="midnightblue" stroke="midnightblue" points="83.0001,-102.083 86.5,-112.083 90.0001,-102.083 83.0001,-102.083"/>
</g>
<!-- Node9 -->
<g id="node4" class="node"><title>Node9</title>
<g id="a_node4"><a xlink:href="class_system_1_1_exception.html" target="_top" xlink:title="Represents errors that occur during application execution.To browse the .NET Framework source code fo...">
<polygon fill="none" stroke="black" points="56.5,-168.5 56.5,-187.5 116.5,-187.5 116.5,-168.5 56.5,-168.5"/>
<text text-anchor="middle" x="86.5" y="-175.5" font-family="Helvetica,sans-Serif" font-size="10.00">Exception</text>
</a>
</g>
</g>
<!-- Node9&#45;&gt;Node8 -->
<g id="edge3" class="edge"><title>Node9&#45;&gt;Node8</title>
<path fill="none" stroke="midnightblue" d="M86.5,-157.805C86.5,-148.91 86.5,-138.78 86.5,-131.751"/>
<polygon fill="midnightblue" stroke="midnightblue" points="83.0001,-158.083 86.5,-168.083 90.0001,-158.083 83.0001,-158.083"/>
</g>
<!-- Node10 -->
<g id="node5" class="node"><title>Node10</title>
<g id="a_node5"><a xlink:href="interface_system_1_1_runtime_1_1_serialization_1_1_i_serializable.html" target="_top" xlink:title="Allows an object to control its own serialization and deserialization.">
<polygon fill="none" stroke="black" points="10,-224.5 10,-243.5 79,-243.5 79,-224.5 10,-224.5"/>
<text text-anchor="middle" x="44.5" y="-231.5" font-family="Helvetica,sans-Serif" font-size="10.00">ISerializable</text>
</a>
</g>
</g>
<!-- Node10&#45;&gt;Node9 -->
<g id="edge4" class="edge"><title>Node10&#45;&gt;Node9</title>
<path fill="none" stroke="midnightblue" d="M57.6102,-216.144C64.9278,-206.736 73.7409,-195.405 79.6936,-187.751"/>
<polygon fill="midnightblue" stroke="midnightblue" points="54.8122,-214.041 51.4354,-224.083 60.3376,-218.338 54.8122,-214.041"/>
</g>
<!-- Node11 -->
<g id="node6" class="node"><title>Node11</title>
<g id="a_node6"><a xlink:href="interface_system_1_1_runtime_1_1_interop_services_1_1___exception.html" target="_top" xlink:title="Exposes the public members of the T:System.Exception class to unmanaged code.">
<polygon fill="none" stroke="black" points="97,-224.5 97,-243.5 162,-243.5 162,-224.5 97,-224.5"/>
<text text-anchor="middle" x="129.5" y="-231.5" font-family="Helvetica,sans-Serif" font-size="10.00">_Exception</text>
</a>
</g>
</g>
<!-- Node11&#45;&gt;Node9 -->
<g id="edge5" class="edge"><title>Node11&#45;&gt;Node9</title>
<path fill="none" stroke="midnightblue" d="M116.078,-216.144C108.586,-206.736 99.5629,-195.405 93.4685,-187.751"/>
<polygon fill="midnightblue" stroke="midnightblue" points="113.432,-218.44 122.399,-224.083 118.908,-214.08 113.432,-218.44"/>
</g>
</g>
</svg>
