<?xml version="1.0" encoding="UTF-8" standalone="no"?>
<!DOCTYPE svg PUBLIC "-//W3C//DTD SVG 1.1//EN"
 "http://www.w3.org/Graphics/SVG/1.1/DTD/svg11.dtd">
<!-- Generated by graphviz version 2.38.0 (20140413.2041)
 -->
<!-- Title: System.Runtime.CompilerServices.ConditionalWeakTable&lt; TKey, TValue &gt; Pages: 1 -->
<svg width="724pt" height="649pt"
 viewBox="0.00 0.00 724.00 649.00" xmlns="http://www.w3.org/2000/svg" xmlns:xlink="http://www.w3.org/1999/xlink">
<g id="graph0" class="graph" transform="scale(1 1) rotate(0) translate(4 645)">
<title>System.Runtime.CompilerServices.ConditionalWeakTable&lt; TKey, TValue &gt;</title>
<!-- Node0 -->
<g id="node1" class="node"><title>Node0</title>
<g id="a_node1"><a xlink:title="Enables compilers to dynamically attach object fields to managed objects.">
<polygon fill="#bfbfbf" stroke="black" points="0,-262.5 0,-303.5 170,-303.5 170,-262.5 0,-262.5"/>
<text text-anchor="start" x="8" y="-291.5" font-family="Helvetica,sans-Serif" font-size="10.00">System.Runtime.CompilerServices.</text>
<text text-anchor="start" x="8" y="-280.5" font-family="Helvetica,sans-Serif" font-size="10.00">ConditionalWeakTable&lt; TKey,</text>
<text text-anchor="middle" x="85" y="-269.5" font-family="Helvetica,sans-Serif" font-size="10.00"> TValue &gt;</text>
</a>
</g>
</g>
<!-- Node1 -->
<g id="node2" class="node"><title>Node1</title>
<g id="a_node2"><a xlink:href="class_system_1_1_runtime_1_1_compiler_services_1_1_conditional_weak_table.html" target="_top" xlink:title=" ">
<polygon fill="none" stroke="black" points="466,-558.5 466,-599.5 670,-599.5 670,-558.5 466,-558.5"/>
<text text-anchor="start" x="474" y="-587.5" font-family="Helvetica,sans-Serif" font-size="10.00">System.Runtime.CompilerServices.</text>
<text text-anchor="start" x="474" y="-576.5" font-family="Helvetica,sans-Serif" font-size="10.00">ConditionalWeakTable&lt; System.Threading.</text>
<text text-anchor="middle" x="568" y="-565.5" font-family="Helvetica,sans-Serif" font-size="10.00">Tasks.TaskScheduler, object &gt;</text>
</a>
</g>
</g>
<!-- Node0&#45;&gt;Node1 -->
<g id="edge1" class="edge"><title>Node0&#45;&gt;Node1</title>
<path fill="none" stroke="orange" stroke-dasharray="5,2" d="M87.1463,-313.623C91.1573,-372.017 109.015,-498.656 188,-557 270.703,-618.089 393.349,-612.896 476.546,-599.516"/>
<polygon fill="orange" stroke="orange" points="90.6345,-313.32 86.5469,-303.545 83.6469,-313.736 90.6345,-313.32"/>
<text text-anchor="start" x="242" y="-633" font-family="Helvetica,sans-Serif" font-size="10.00"> &lt; System::Threading</text>
<text text-anchor="start" x="242" y="-622" font-family="Helvetica,sans-Serif" font-size="10.00">::Tasks::TaskScheduler,</text>
<text text-anchor="middle" x="295" y="-611" font-family="Helvetica,sans-Serif" font-size="10.00"> object &gt;</text>
</g>
<!-- Node2 -->
<g id="node3" class="node"><title>Node2</title>
<g id="a_node3"><a xlink:href="class_system_1_1_runtime_1_1_compiler_services_1_1_conditional_weak_table.html" target="_top" xlink:title=" ">
<polygon fill="none" stroke="black" points="420,-476.5 420,-539.5 716,-539.5 716,-476.5 420,-476.5"/>
<text text-anchor="start" x="428" y="-527.5" font-family="Helvetica,sans-Serif" font-size="10.00">System.Runtime.CompilerServices.</text>
<text text-anchor="start" x="428" y="-516.5" font-family="Helvetica,sans-Serif" font-size="10.00">ConditionalWeakTable&lt; INotifyCollection</text>
<text text-anchor="start" x="428" y="-505.5" font-family="Helvetica,sans-Serif" font-size="10.00">Changed, System.Runtime.InteropServices.Windows</text>
<text text-anchor="start" x="428" y="-494.5" font-family="Helvetica,sans-Serif" font-size="10.00">Runtime.EventRegistrationTokenTable&lt; NotifyCollectionChanged</text>
<text text-anchor="middle" x="568" y="-483.5" font-family="Helvetica,sans-Serif" font-size="10.00">EventHandler &gt; &gt;</text>
</a>
</g>
</g>
<!-- Node0&#45;&gt;Node2 -->
<g id="edge2" class="edge"><title>Node0&#45;&gt;Node2</title>
<path fill="none" stroke="orange" stroke-dasharray="5,2" d="M92.2179,-313.766C103.066,-358.61 130.066,-440.74 188,-479 225.445,-503.729 330.069,-510.368 419.925,-511.159"/>
<polygon fill="orange" stroke="orange" points="95.5648,-312.703 89.9126,-303.742 88.7429,-314.272 95.5648,-312.703"/>
<text text-anchor="start" x="188" y="-546" font-family="Helvetica,sans-Serif" font-size="10.00"> &lt; INotifyCollectionChanged,</text>
<text text-anchor="start" x="188" y="-535" font-family="Helvetica,sans-Serif" font-size="10.00"> System::Runtime::InteropServices</text>
<text text-anchor="start" x="188" y="-524" font-family="Helvetica,sans-Serif" font-size="10.00">::WindowsRuntime::EventRegistrationToken</text>
<text text-anchor="middle" x="295" y="-513" font-family="Helvetica,sans-Serif" font-size="10.00">Table&lt; NotifyCollectionChangedEventHandler &gt; &gt;</text>
</g>
<!-- Node3 -->
<g id="node4" class="node"><title>Node3</title>
<g id="a_node4"><a xlink:href="class_system_1_1_runtime_1_1_compiler_services_1_1_conditional_weak_table.html" target="_top" xlink:title=" ">
<polygon fill="none" stroke="black" points="466,-394.5 466,-457.5 670,-457.5 670,-394.5 466,-394.5"/>
<text text-anchor="start" x="474" y="-445.5" font-family="Helvetica,sans-Serif" font-size="10.00">System.Runtime.CompilerServices.</text>
<text text-anchor="start" x="474" y="-434.5" font-family="Helvetica,sans-Serif" font-size="10.00">ConditionalWeakTable&lt; ICommand,</text>
<text text-anchor="start" x="474" y="-423.5" font-family="Helvetica,sans-Serif" font-size="10.00"> System.Runtime.InteropServices.Windows</text>
<text text-anchor="start" x="474" y="-412.5" font-family="Helvetica,sans-Serif" font-size="10.00">Runtime.EventRegistrationTokenTable</text>
<text text-anchor="middle" x="568" y="-401.5" font-family="Helvetica,sans-Serif" font-size="10.00">&lt; EventHandler &gt; &gt;</text>
</a>
</g>
</g>
<!-- Node0&#45;&gt;Node3 -->
<g id="edge3" class="edge"><title>Node0&#45;&gt;Node3</title>
<path fill="none" stroke="orange" stroke-dasharray="5,2" d="M106.199,-311.77C124.587,-335.486 154.002,-367.768 188,-384 275.373,-425.713 386.61,-433.474 465.929,-432.461"/>
<polygon fill="orange" stroke="orange" points="108.984,-309.651 100.165,-303.779 103.398,-313.869 108.984,-309.651"/>
<text text-anchor="start" x="213" y="-467" font-family="Helvetica,sans-Serif" font-size="10.00"> &lt; ICommand, System</text>
<text text-anchor="start" x="213" y="-456" font-family="Helvetica,sans-Serif" font-size="10.00">::Runtime::InteropServices</text>
<text text-anchor="start" x="213" y="-445" font-family="Helvetica,sans-Serif" font-size="10.00">::WindowsRuntime::EventRegistration</text>
<text text-anchor="middle" x="295" y="-434" font-family="Helvetica,sans-Serif" font-size="10.00">TokenTable&lt; EventHandler &gt; &gt;</text>
</g>
<!-- Node4 -->
<g id="node5" class="node"><title>Node4</title>
<g id="a_node5"><a xlink:href="class_system_1_1_runtime_1_1_compiler_services_1_1_conditional_weak_table.html" target="_top" xlink:title=" ">
<polygon fill="none" stroke="black" points="466.5,-323 466.5,-375 669.5,-375 669.5,-323 466.5,-323"/>
<text text-anchor="start" x="474.5" y="-363" font-family="Helvetica,sans-Serif" font-size="10.00">System.Runtime.CompilerServices.</text>
<text text-anchor="start" x="474.5" y="-352" font-family="Helvetica,sans-Serif" font-size="10.00">ConditionalWeakTable&lt; object,</text>
<text text-anchor="start" x="474.5" y="-341" font-family="Helvetica,sans-Serif" font-size="10.00"> Dictionary&lt; MethodInfo, Dictionary</text>
<text text-anchor="middle" x="568" y="-330" font-family="Helvetica,sans-Serif" font-size="10.00">&lt; object, EventRegistrationTokenList &gt; &gt; &gt;</text>
</a>
</g>
</g>
<!-- Node0&#45;&gt;Node4 -->
<g id="edge4" class="edge"><title>Node0&#45;&gt;Node4</title>
<path fill="none" stroke="orange" stroke-dasharray="5,2" d="M171.509,-305.751C177.071,-306.935 182.604,-308.033 188,-309 281.619,-325.781 389.601,-336.329 466.297,-342.352"/>
<polygon fill="orange" stroke="orange" points="172.007,-302.277 161.487,-303.535 170.496,-309.112 172.007,-302.277"/>
<text text-anchor="start" x="223" y="-372" font-family="Helvetica,sans-Serif" font-size="10.00"> &lt; object, Dictionary</text>
<text text-anchor="start" x="223" y="-361" font-family="Helvetica,sans-Serif" font-size="10.00">&lt; MethodInfo, Dictionary</text>
<text text-anchor="start" x="223" y="-350" font-family="Helvetica,sans-Serif" font-size="10.00">&lt; object, EventRegistrationToken</text>
<text text-anchor="middle" x="295" y="-339" font-family="Helvetica,sans-Serif" font-size="10.00">List &gt; &gt; &gt;</text>
</g>
<!-- Node5 -->
<g id="node6" class="node"><title>Node5</title>
<g id="a_node6"><a xlink:href="class_system_1_1_runtime_1_1_compiler_services_1_1_conditional_weak_table.html" target="_top" xlink:title=" ">
<polygon fill="none" stroke="black" points="470,-262.5 470,-303.5 666,-303.5 666,-262.5 470,-262.5"/>
<text text-anchor="start" x="478" y="-291.5" font-family="Helvetica,sans-Serif" font-size="10.00">System.Runtime.CompilerServices.</text>
<text text-anchor="start" x="478" y="-280.5" font-family="Helvetica,sans-Serif" font-size="10.00">ConditionalWeakTable&lt; System.Linq.</text>
<text text-anchor="middle" x="568" y="-269.5" font-family="Helvetica,sans-Serif" font-size="10.00">Expressions.Expression, ExtensionInfo &gt;</text>
</a>
</g>
</g>
<!-- Node0&#45;&gt;Node5 -->
<g id="edge5" class="edge"><title>Node0&#45;&gt;Node5</title>
<path fill="none" stroke="orange" stroke-dasharray="5,2" d="M180.312,-283C263.875,-283 385.381,-283 469.804,-283"/>
<polygon fill="orange" stroke="orange" points="180.059,-279.5 170.059,-283 180.059,-286.5 180.059,-279.5"/>
<text text-anchor="start" x="230" y="-297" font-family="Helvetica,sans-Serif" font-size="10.00"> &lt; System::Linq::Expressions</text>
<text text-anchor="middle" x="295" y="-286" font-family="Helvetica,sans-Serif" font-size="10.00">::Expression, ExtensionInfo &gt;</text>
</g>
<!-- Node6 -->
<g id="node7" class="node"><title>Node6</title>
<g id="a_node7"><a xlink:href="class_system_1_1_runtime_1_1_compiler_services_1_1_conditional_weak_table.html" target="_top" xlink:title=" ">
<polygon fill="none" stroke="black" points="477,-202.5 477,-243.5 659,-243.5 659,-202.5 477,-202.5"/>
<text text-anchor="start" x="485" y="-231.5" font-family="Helvetica,sans-Serif" font-size="10.00">System.Runtime.CompilerServices.</text>
<text text-anchor="start" x="485" y="-220.5" font-family="Helvetica,sans-Serif" font-size="10.00">ConditionalWeakTable&lt; EventHandler,</text>
<text text-anchor="middle" x="568" y="-209.5" font-family="Helvetica,sans-Serif" font-size="10.00"> EventHandler&lt; object &gt; &gt;</text>
</a>
</g>
</g>
<!-- Node0&#45;&gt;Node6 -->
<g id="edge6" class="edge"><title>Node0&#45;&gt;Node6</title>
<path fill="none" stroke="orange" stroke-dasharray="5,2" d="M170.717,-260.312C176.544,-259.089 182.346,-257.968 188,-257 285.999,-240.225 399.761,-231.423 476.882,-227.017"/>
<polygon fill="orange" stroke="orange" points="169.929,-256.902 160.908,-262.456 171.424,-263.74 169.929,-256.902"/>
<text text-anchor="start" x="228.5" y="-271" font-family="Helvetica,sans-Serif" font-size="10.00"> &lt; EventHandler, EventHandler</text>
<text text-anchor="middle" x="295" y="-260" font-family="Helvetica,sans-Serif" font-size="10.00">&lt; object &gt; &gt;</text>
</g>
<!-- Node7 -->
<g id="node8" class="node"><title>Node7</title>
<g id="a_node8"><a xlink:href="class_system_1_1_runtime_1_1_compiler_services_1_1_conditional_weak_table.html" target="_top" xlink:title=" ">
<polygon fill="none" stroke="black" points="472,-142.5 472,-183.5 664,-183.5 664,-142.5 472,-142.5"/>
<text text-anchor="start" x="480" y="-171.5" font-family="Helvetica,sans-Serif" font-size="10.00">System.Runtime.CompilerServices.</text>
<text text-anchor="start" x="480" y="-160.5" font-family="Helvetica,sans-Serif" font-size="10.00">ConditionalWeakTable&lt; object,</text>
<text text-anchor="middle" x="568" y="-149.5" font-family="Helvetica,sans-Serif" font-size="10.00"> EventRegistrationTokenListWithCount &gt;</text>
</a>
</g>
</g>
<!-- Node0&#45;&gt;Node7 -->
<g id="edge7" class="edge"><title>Node0&#45;&gt;Node7</title>
<path fill="none" stroke="orange" stroke-dasharray="5,2" d="M114.1,-255.62C133.302,-238.642 160.219,-218.03 188,-207 279.732,-170.577 393.072,-161.647 471.792,-160.546"/>
<polygon fill="orange" stroke="orange" points="111.682,-253.088 106.621,-262.396 116.382,-258.276 111.682,-253.088"/>
<text text-anchor="start" x="234.5" y="-221" font-family="Helvetica,sans-Serif" font-size="10.00"> &lt; object, EventRegistration</text>
<text text-anchor="middle" x="295" y="-210" font-family="Helvetica,sans-Serif" font-size="10.00">TokenListWithCount &gt;</text>
</g>
<!-- Node8 -->
<g id="node9" class="node"><title>Node8</title>
<g id="a_node9"><a xlink:href="class_system_1_1_runtime_1_1_compiler_services_1_1_conditional_weak_table.html" target="_top" xlink:title=" ">
<polygon fill="none" stroke="black" points="483,-82.5 483,-123.5 653,-123.5 653,-82.5 483,-82.5"/>
<text text-anchor="start" x="491" y="-111.5" font-family="Helvetica,sans-Serif" font-size="10.00">System.Runtime.CompilerServices.</text>
<text text-anchor="start" x="491" y="-100.5" font-family="Helvetica,sans-Serif" font-size="10.00">ConditionalWeakTable&lt; object,</text>
<text text-anchor="middle" x="568" y="-89.5" font-family="Helvetica,sans-Serif" font-size="10.00"> SerializationInfo &gt;</text>
</a>
</g>
</g>
<!-- Node0&#45;&gt;Node8 -->
<g id="edge8" class="edge"><title>Node0&#45;&gt;Node8</title>
<path fill="none" stroke="orange" stroke-dasharray="5,2" d="M99.7899,-253.039C116.062,-221.417 146.278,-172.915 188,-149 278.857,-96.9212 401.932,-91.6048 482.845,-95.1664"/>
<polygon fill="orange" stroke="orange" points="96.5199,-251.753 95.1904,-262.264 102.785,-254.877 96.5199,-251.753"/>
<text text-anchor="middle" x="295" y="-152" font-family="Helvetica,sans-Serif" font-size="10.00"> &lt; object, SerializationInfo &gt;</text>
</g>
<!-- Node9 -->
<g id="node10" class="node"><title>Node9</title>
<g id="a_node10"><a xlink:href="class_system_1_1_runtime_1_1_compiler_services_1_1_conditional_weak_table.html" target="_top" xlink:title=" ">
<polygon fill="none" stroke="black" points="435.5,-0.5 435.5,-63.5 700.5,-63.5 700.5,-0.5 435.5,-0.5"/>
<text text-anchor="start" x="443.5" y="-51.5" font-family="Helvetica,sans-Serif" font-size="10.00">System.Runtime.CompilerServices.</text>
<text text-anchor="start" x="443.5" y="-40.5" font-family="Helvetica,sans-Serif" font-size="10.00">ConditionalWeakTable&lt; INotifyProperty</text>
<text text-anchor="start" x="443.5" y="-29.5" font-family="Helvetica,sans-Serif" font-size="10.00">Changed, System.Runtime.InteropServices.Windows</text>
<text text-anchor="start" x="443.5" y="-18.5" font-family="Helvetica,sans-Serif" font-size="10.00">Runtime.EventRegistrationTokenTable&lt; PropertyChanged</text>
<text text-anchor="middle" x="568" y="-7.5" font-family="Helvetica,sans-Serif" font-size="10.00">EventHandler &gt; &gt;</text>
</a>
</g>
</g>
<!-- Node0&#45;&gt;Node9 -->
<g id="edge9" class="edge"><title>Node0&#45;&gt;Node9</title>
<path fill="none" stroke="orange" stroke-dasharray="5,2" d="M89.1185,-252.511C96.2493,-200.453 118.884,-95.4617 188,-48 259.255,0.9305 357.068,3.89383 435.478,-4.83741"/>
<polygon fill="orange" stroke="orange" points="85.6402,-252.12 87.8554,-262.48 92.5847,-253 85.6402,-252.12"/>
<text text-anchor="start" x="200" y="-84" font-family="Helvetica,sans-Serif" font-size="10.00"> &lt; INotifyPropertyChanged,</text>
<text text-anchor="start" x="200" y="-73" font-family="Helvetica,sans-Serif" font-size="10.00"> System::Runtime::InteropServices</text>
<text text-anchor="start" x="200" y="-62" font-family="Helvetica,sans-Serif" font-size="10.00">::WindowsRuntime::EventRegistrationToken</text>
<text text-anchor="middle" x="295" y="-51" font-family="Helvetica,sans-Serif" font-size="10.00">Table&lt; PropertyChangedEventHandler &gt; &gt;</text>
</g>
</g>
</svg>
