<?xml version="1.0" encoding="UTF-8" standalone="no"?>
<!DOCTYPE svg PUBLIC "-//W3C//DTD SVG 1.1//EN"
 "http://www.w3.org/Graphics/SVG/1.1/DTD/svg11.dtd">
<!-- Generated by graphviz version 2.38.0 (20140413.2041)
 -->
<!-- Title: System.TimeoutException Pages: 1 -->
<svg width="160pt" height="196pt"
 viewBox="0.00 0.00 160.00 196.00" xmlns="http://www.w3.org/2000/svg" xmlns:xlink="http://www.w3.org/1999/xlink">
<g id="graph0" class="graph" transform="scale(1 1) rotate(0) translate(4 192)">
<title>System.TimeoutException</title>
<!-- Node0 -->
<g id="node1" class="node"><title>Node0</title>
<g id="a_node1"><a xlink:title="The exception that is thrown when the time allotted for a process or operation has expired.">
<polygon fill="#bfbfbf" stroke="black" points="11,-0.5 11,-19.5 142,-19.5 142,-0.5 11,-0.5"/>
<text text-anchor="middle" x="76.5" y="-7.5" font-family="Helvetica,sans-Serif" font-size="10.00">System.TimeoutException</text>
</a>
</g>
</g>
<!-- Node1 -->
<g id="node2" class="node"><title>Node1</title>
<g id="a_node2"><a xlink:href="class_system_1_1_system_exception.html" target="_top" xlink:title="Serves as the base class for system exceptions namespace.">
<polygon fill="none" stroke="black" points="29.5,-56.5 29.5,-75.5 123.5,-75.5 123.5,-56.5 29.5,-56.5"/>
<text text-anchor="middle" x="76.5" y="-63.5" font-family="Helvetica,sans-Serif" font-size="10.00">SystemException</text>
</a>
</g>
</g>
<!-- Node1&#45;&gt;Node0 -->
<g id="edge1" class="edge"><title>Node1&#45;&gt;Node0</title>
<path fill="none" stroke="midnightblue" d="M76.5,-45.8045C76.5,-36.9102 76.5,-26.7798 76.5,-19.7511"/>
<polygon fill="midnightblue" stroke="midnightblue" points="73.0001,-46.083 76.5,-56.083 80.0001,-46.083 73.0001,-46.083"/>
</g>
<!-- Node2 -->
<g id="node3" class="node"><title>Node2</title>
<g id="a_node3"><a xlink:href="class_system_1_1_exception.html" target="_top" xlink:title="Represents errors that occur during application execution.To browse the .NET Framework source code fo...">
<polygon fill="none" stroke="black" points="46.5,-112.5 46.5,-131.5 106.5,-131.5 106.5,-112.5 46.5,-112.5"/>
<text text-anchor="middle" x="76.5" y="-119.5" font-family="Helvetica,sans-Serif" font-size="10.00">Exception</text>
</a>
</g>
</g>
<!-- Node2&#45;&gt;Node1 -->
<g id="edge2" class="edge"><title>Node2&#45;&gt;Node1</title>
<path fill="none" stroke="midnightblue" d="M76.5,-101.805C76.5,-92.9102 76.5,-82.7798 76.5,-75.7511"/>
<polygon fill="midnightblue" stroke="midnightblue" points="73.0001,-102.083 76.5,-112.083 80.0001,-102.083 73.0001,-102.083"/>
</g>
<!-- Node3 -->
<g id="node4" class="node"><title>Node3</title>
<g id="a_node4"><a xlink:href="interface_system_1_1_runtime_1_1_serialization_1_1_i_serializable.html" target="_top" xlink:title="Allows an object to control its own serialization and deserialization.">
<polygon fill="none" stroke="black" points="0,-168.5 0,-187.5 69,-187.5 69,-168.5 0,-168.5"/>
<text text-anchor="middle" x="34.5" y="-175.5" font-family="Helvetica,sans-Serif" font-size="10.00">ISerializable</text>
</a>
</g>
</g>
<!-- Node3&#45;&gt;Node2 -->
<g id="edge3" class="edge"><title>Node3&#45;&gt;Node2</title>
<path fill="none" stroke="midnightblue" d="M47.6102,-160.144C54.9278,-150.736 63.7409,-139.405 69.6936,-131.751"/>
<polygon fill="midnightblue" stroke="midnightblue" points="44.8122,-158.041 41.4354,-168.083 50.3376,-162.338 44.8122,-158.041"/>
</g>
<!-- Node4 -->
<g id="node5" class="node"><title>Node4</title>
<g id="a_node5"><a xlink:href="interface_system_1_1_runtime_1_1_interop_services_1_1___exception.html" target="_top" xlink:title="Exposes the public members of the T:System.Exception class to unmanaged code.">
<polygon fill="none" stroke="black" points="87,-168.5 87,-187.5 152,-187.5 152,-168.5 87,-168.5"/>
<text text-anchor="middle" x="119.5" y="-175.5" font-family="Helvetica,sans-Serif" font-size="10.00">_Exception</text>
</a>
</g>
</g>
<!-- Node4&#45;&gt;Node2 -->
<g id="edge4" class="edge"><title>Node4&#45;&gt;Node2</title>
<path fill="none" stroke="midnightblue" d="M106.078,-160.144C98.5858,-150.736 89.5629,-139.405 83.4685,-131.751"/>
<polygon fill="midnightblue" stroke="midnightblue" points="103.432,-162.44 112.399,-168.083 108.908,-158.08 103.432,-162.44"/>
</g>
</g>
</svg>
