<?xml version="1.0" encoding="UTF-8" standalone="no"?>
<!DOCTYPE svg PUBLIC "-//W3C//DTD SVG 1.1//EN"
 "http://www.w3.org/Graphics/SVG/1.1/DTD/svg11.dtd">
<!-- Generated by graphviz version 2.38.0 (20140413.2041)
 -->
<!-- Title: System.Reflection.Emit.InternalAssemblyBuilder Pages: 1 -->
<svg width="412pt" height="207pt"
 viewBox="0.00 0.00 412.00 207.00" xmlns="http://www.w3.org/2000/svg" xmlns:xlink="http://www.w3.org/1999/xlink">
<g id="graph0" class="graph" transform="scale(1 1) rotate(0) translate(4 203)">
<title>System.Reflection.Emit.InternalAssemblyBuilder</title>
<!-- Node0 -->
<g id="node1" class="node"><title>Node0</title>
<g id="a_node1"><a xlink:title=" ">
<polygon fill="#bfbfbf" stroke="black" points="167.5,-0.5 167.5,-30.5 321.5,-30.5 321.5,-0.5 167.5,-0.5"/>
<text text-anchor="start" x="175.5" y="-18.5" font-family="Helvetica,sans-Serif" font-size="10.00">System.Reflection.Emit.Internal</text>
<text text-anchor="middle" x="244.5" y="-7.5" font-family="Helvetica,sans-Serif" font-size="10.00">AssemblyBuilder</text>
</a>
</g>
</g>
<!-- Node1 -->
<g id="node2" class="node"><title>Node1</title>
<g id="a_node2"><a xlink:href="class_system_1_1_reflection_1_1_runtime_assembly.html" target="_top" xlink:title=" ">
<polygon fill="none" stroke="black" points="196.5,-67.5 196.5,-86.5 292.5,-86.5 292.5,-67.5 196.5,-67.5"/>
<text text-anchor="middle" x="244.5" y="-74.5" font-family="Helvetica,sans-Serif" font-size="10.00">RuntimeAssembly</text>
</a>
</g>
</g>
<!-- Node1&#45;&gt;Node0 -->
<g id="edge1" class="edge"><title>Node1&#45;&gt;Node0</title>
<path fill="none" stroke="midnightblue" d="M244.5,-57.2349C244.5,-48.5864 244.5,-38.4969 244.5,-30.523"/>
<polygon fill="midnightblue" stroke="midnightblue" points="241,-57.4751 244.5,-67.4751 248,-57.4751 241,-57.4751"/>
</g>
<!-- Node2 -->
<g id="node3" class="node"><title>Node2</title>
<g id="a_node3"><a xlink:href="class_system_1_1_reflection_1_1_assembly.html" target="_top" xlink:title="Represents an assembly, which is a reusable, versionable, and self&#45;describing building block of a com...">
<polygon fill="none" stroke="black" points="161.5,-123.5 161.5,-142.5 221.5,-142.5 221.5,-123.5 161.5,-123.5"/>
<text text-anchor="middle" x="191.5" y="-130.5" font-family="Helvetica,sans-Serif" font-size="10.00">Assembly</text>
</a>
</g>
</g>
<!-- Node2&#45;&gt;Node1 -->
<g id="edge2" class="edge"><title>Node2&#45;&gt;Node1</title>
<path fill="none" stroke="midnightblue" d="M207.481,-115.718C216.822,-106.2 228.246,-94.5608 235.911,-86.7511"/>
<polygon fill="midnightblue" stroke="midnightblue" points="204.759,-113.494 200.252,-123.083 209.754,-118.398 204.759,-113.494"/>
</g>
<!-- Node3 -->
<g id="node4" class="node"><title>Node3</title>
<g id="a_node4"><a xlink:href="interface_system_1_1_runtime_1_1_interop_services_1_1___assembly.html" target="_top" xlink:title="Exposes the public members of the T:System.Reflection.Assembly class to unmanaged code.">
<polygon fill="none" stroke="black" points="0,-179.5 0,-198.5 65,-198.5 65,-179.5 0,-179.5"/>
<text text-anchor="middle" x="32.5" y="-186.5" font-family="Helvetica,sans-Serif" font-size="10.00">_Assembly</text>
</a>
</g>
</g>
<!-- Node3&#45;&gt;Node2 -->
<g id="edge3" class="edge"><title>Node3&#45;&gt;Node2</title>
<path fill="none" stroke="midnightblue" d="M67.3268,-176.172C97.2663,-166.004 139.721,-151.585 166.424,-142.516"/>
<polygon fill="midnightblue" stroke="midnightblue" points="66.0373,-172.914 57.694,-179.444 68.2884,-179.542 66.0373,-172.914"/>
</g>
<!-- Node4 -->
<g id="node5" class="node"><title>Node4</title>
<g id="a_node5"><a xlink:href="interface_system_1_1_security_1_1_i_evidence_factory.html" target="_top" xlink:title="Gets an object&#39;s T:System.Security.Policy.Evidence.">
<polygon fill="none" stroke="black" points="83,-179.5 83,-198.5 174,-198.5 174,-179.5 83,-179.5"/>
<text text-anchor="middle" x="128.5" y="-186.5" font-family="Helvetica,sans-Serif" font-size="10.00">IEvidenceFactory</text>
</a>
</g>
</g>
<!-- Node4&#45;&gt;Node2 -->
<g id="edge4" class="edge"><title>Node4&#45;&gt;Node2</title>
<path fill="none" stroke="midnightblue" d="M146.54,-172.537C157.773,-162.909 171.819,-150.869 181.194,-142.834"/>
<polygon fill="midnightblue" stroke="midnightblue" points="143.937,-170.159 138.622,-179.324 148.492,-175.473 143.937,-170.159"/>
</g>
<!-- Node5 -->
<g id="node6" class="node"><title>Node5</title>
<g id="a_node6"><a xlink:href="interface_system_1_1_reflection_1_1_i_custom_attribute_provider.html" target="_top" xlink:title="Provides custom attributes for reflection objects that support them.">
<polygon fill="none" stroke="black" points="192.5,-179.5 192.5,-198.5 316.5,-198.5 316.5,-179.5 192.5,-179.5"/>
<text text-anchor="middle" x="254.5" y="-186.5" font-family="Helvetica,sans-Serif" font-size="10.00">ICustomAttributeProvider</text>
</a>
</g>
</g>
<!-- Node5&#45;&gt;Node2 -->
<g id="edge5" class="edge"><title>Node5&#45;&gt;Node2</title>
<path fill="none" stroke="midnightblue" d="M236.46,-172.537C225.227,-162.909 211.181,-150.869 201.806,-142.834"/>
<polygon fill="midnightblue" stroke="midnightblue" points="234.508,-175.473 244.378,-179.324 239.063,-170.159 234.508,-175.473"/>
</g>
<!-- Node6 -->
<g id="node7" class="node"><title>Node6</title>
<g id="a_node7"><a xlink:href="interface_system_1_1_runtime_1_1_serialization_1_1_i_serializable.html" target="_top" xlink:title="Allows an object to control its own serialization and deserialization.">
<polygon fill="none" stroke="black" points="335,-179.5 335,-198.5 404,-198.5 404,-179.5 335,-179.5"/>
<text text-anchor="middle" x="369.5" y="-186.5" font-family="Helvetica,sans-Serif" font-size="10.00">ISerializable</text>
</a>
</g>
</g>
<!-- Node6&#45;&gt;Node2 -->
<g id="edge6" class="edge"><title>Node6&#45;&gt;Node2</title>
<path fill="none" stroke="midnightblue" d="M331.383,-176.436C297.822,-166.255 249.726,-151.664 219.573,-142.516"/>
<polygon fill="midnightblue" stroke="midnightblue" points="330.71,-179.89 341.295,-179.444 332.742,-173.191 330.71,-179.89"/>
</g>
<!-- Node7 -->
<g id="node8" class="node"><title>Node7</title>
<g id="a_node8"><a xlink:href="interface_system_1_1_runtime_1_1_interop_services_1_1_i_custom_query_interface.html" target="_top" xlink:title="Enables developers to provide a custom, managed implementation of the IUnknown::QueryInterface(REFIID...">
<polygon fill="none" stroke="black" points="239.5,-123.5 239.5,-142.5 355.5,-142.5 355.5,-123.5 239.5,-123.5"/>
<text text-anchor="middle" x="297.5" y="-130.5" font-family="Helvetica,sans-Serif" font-size="10.00">ICustomQueryInterface</text>
</a>
</g>
</g>
<!-- Node7&#45;&gt;Node1 -->
<g id="edge7" class="edge"><title>Node7&#45;&gt;Node1</title>
<path fill="none" stroke="midnightblue" d="M281.519,-115.718C272.178,-106.2 260.754,-94.5608 253.089,-86.7511"/>
<polygon fill="midnightblue" stroke="midnightblue" points="279.246,-118.398 288.748,-123.083 284.241,-113.494 279.246,-118.398"/>
</g>
</g>
</svg>
