<?xml version="1.0" encoding="UTF-8" standalone="no"?>
<!DOCTYPE svg PUBLIC "-//W3C//DTD SVG 1.1//EN"
 "http://www.w3.org/Graphics/SVG/1.1/DTD/svg11.dtd">
<!-- Generated by graphviz version 2.38.0 (20140413.2041)
 -->
<!-- Title: System.Runtime.InteropServices.WindowsRuntime.DictionaryValueCollection&lt; TKey, TValue &gt; Pages: 1 -->
<svg width="1176pt" height="129pt"
 viewBox="0.00 0.00 1176.00 129.00" xmlns="http://www.w3.org/2000/svg" xmlns:xlink="http://www.w3.org/1999/xlink">
<g id="graph0" class="graph" transform="scale(1 1) rotate(0) translate(4 125)">
<title>System.Runtime.InteropServices.WindowsRuntime.DictionaryValueCollection&lt; TKey, TValue &gt;</title>
<!-- Node0 -->
<g id="node1" class="node"><title>Node0</title>
<g id="a_node1"><a xlink:title=" ">
<polygon fill="#bfbfbf" stroke="black" points="962,-43.5 962,-84.5 1168,-84.5 1168,-43.5 962,-43.5"/>
<text text-anchor="start" x="970" y="-72.5" font-family="Helvetica,sans-Serif" font-size="10.00">System.Runtime.InteropServices.</text>
<text text-anchor="start" x="970" y="-61.5" font-family="Helvetica,sans-Serif" font-size="10.00">WindowsRuntime.DictionaryValueCollection</text>
<text text-anchor="middle" x="1065" y="-50.5" font-family="Helvetica,sans-Serif" font-size="10.00">&lt; TKey, TValue &gt;</text>
</a>
</g>
</g>
<!-- Node1 -->
<g id="node2" class="node"><title>Node1</title>
<g id="a_node2"><a xlink:href="interface_system_1_1_collections_1_1_generic_1_1_i_collection.html" target="_top" xlink:title=" ">
<polygon fill="none" stroke="black" points="815,-54.5 815,-73.5 925,-73.5 925,-54.5 815,-54.5"/>
<text text-anchor="middle" x="870" y="-61.5" font-family="Helvetica,sans-Serif" font-size="10.00">ICollection&lt; TValue &gt;</text>
</a>
</g>
</g>
<!-- Node1&#45;&gt;Node0 -->
<g id="edge1" class="edge"><title>Node1&#45;&gt;Node0</title>
<path fill="none" stroke="midnightblue" d="M935.026,-64C943.725,-64 952.822,-64 961.985,-64"/>
<polygon fill="midnightblue" stroke="midnightblue" points="935.018,-60.5001 925.018,-64 935.018,-67.5001 935.018,-60.5001"/>
</g>
<!-- Node2 -->
<g id="node3" class="node"><title>Node2</title>
<g id="a_node3"><a xlink:href="interface_system_1_1_collections_1_1_generic_1_1_i_collection.html" target="_top" xlink:title="Defines methods to manipulate generic collections.">
<polygon fill="none" stroke="black" points="586,-49 586,-79 727,-79 727,-49 586,-49"/>
<text text-anchor="start" x="594" y="-67" font-family="Helvetica,sans-Serif" font-size="10.00">System.Collections.Generic.</text>
<text text-anchor="middle" x="656.5" y="-56" font-family="Helvetica,sans-Serif" font-size="10.00">ICollection&lt; T &gt;</text>
</a>
</g>
</g>
<!-- Node2&#45;&gt;Node1 -->
<g id="edge2" class="edge"><title>Node2&#45;&gt;Node1</title>
<path fill="none" stroke="orange" stroke-dasharray="5,2" d="M737.227,-64C763.126,-64 791.245,-64 814.831,-64"/>
<polygon fill="orange" stroke="orange" points="737.046,-60.5001 727.046,-64 737.046,-67.5001 737.046,-60.5001"/>
<text text-anchor="middle" x="771" y="-67" font-family="Helvetica,sans-Serif" font-size="10.00"> &lt; TValue &gt;</text>
</g>
<!-- Node3 -->
<g id="node4" class="node"><title>Node3</title>
<g id="a_node4"><a xlink:href="interface_system_1_1_collections_1_1_generic_1_1_i_enumerable.html" target="_top" xlink:title=" ">
<polygon fill="none" stroke="black" points="337,-35.5 337,-54.5 431,-54.5 431,-35.5 337,-35.5"/>
<text text-anchor="middle" x="384" y="-42.5" font-family="Helvetica,sans-Serif" font-size="10.00">IEnumerable&lt; T &gt;</text>
</a>
</g>
</g>
<!-- Node3&#45;&gt;Node2 -->
<g id="edge3" class="edge"><title>Node3&#45;&gt;Node2</title>
<path fill="none" stroke="midnightblue" d="M441.251,-48.9511C483.268,-51.9024 540.948,-55.9538 585.876,-59.1096"/>
<polygon fill="midnightblue" stroke="midnightblue" points="441.414,-45.454 431.193,-48.2446 440.923,-52.4368 441.414,-45.454"/>
</g>
<!-- Node4 -->
<g id="node5" class="node"><title>Node4</title>
<g id="a_node5"><a xlink:href="interface_system_1_1_collections_1_1_generic_1_1_i_enumerable.html" target="_top" xlink:title="Exposes the enumerator, which supports a simple iteration over a collection of a specified type....">
<polygon fill="none" stroke="black" points="108,-24 108,-54 249,-54 249,-24 108,-24"/>
<text text-anchor="start" x="116" y="-42" font-family="Helvetica,sans-Serif" font-size="10.00">System.Collections.Generic.</text>
<text text-anchor="middle" x="178.5" y="-31" font-family="Helvetica,sans-Serif" font-size="10.00">IEnumerable&lt; out out T &gt;</text>
</a>
</g>
</g>
<!-- Node4&#45;&gt;Node3 -->
<g id="edge4" class="edge"><title>Node4&#45;&gt;Node3</title>
<path fill="none" stroke="orange" stroke-dasharray="5,2" d="M259.583,-41.3612C285.847,-42.1355 314.131,-42.9695 336.988,-43.6434"/>
<polygon fill="orange" stroke="orange" points="259.347,-37.8528 249.248,-41.0565 259.141,-44.8498 259.347,-37.8528"/>
<text text-anchor="middle" x="293" y="-47" font-family="Helvetica,sans-Serif" font-size="10.00"> &lt; T &gt;</text>
</g>
<!-- Node6 -->
<g id="node7" class="node"><title>Node6</title>
<g id="a_node7"><a xlink:href="interface_system_1_1_collections_1_1_generic_1_1_i_enumerable.html" target="_top" xlink:title=" ">
<polygon fill="none" stroke="black" points="449,-0.5 449,-19.5 568,-19.5 568,-0.5 449,-0.5"/>
<text text-anchor="middle" x="508.5" y="-7.5" font-family="Helvetica,sans-Serif" font-size="10.00">IEnumerable&lt; TValue &gt;</text>
</a>
</g>
</g>
<!-- Node4&#45;&gt;Node6 -->
<g id="edge8" class="edge"><title>Node4&#45;&gt;Node6</title>
<path fill="none" stroke="orange" stroke-dasharray="5,2" d="M259.29,-27.8356C261.889,-27.5428 264.464,-27.2632 267,-27 328.826,-20.5824 399.851,-15.8898 448.598,-13.0805"/>
<polygon fill="orange" stroke="orange" points="258.704,-24.3803 249.181,-29.0234 259.521,-31.3325 258.704,-24.3803"/>
<text text-anchor="middle" x="293" y="-30" font-family="Helvetica,sans-Serif" font-size="10.00"> &lt; TValue &gt;</text>
</g>
<!-- Node5 -->
<g id="node6" class="node"><title>Node5</title>
<g id="a_node6"><a xlink:href="interface_system_1_1_collections_1_1_i_enumerable.html" target="_top" xlink:title="Exposes an enumerator, which supports a simple iteration over a non&#45;generic collection....">
<polygon fill="none" stroke="black" points="0,-73.5 0,-92.5 71,-92.5 71,-73.5 0,-73.5"/>
<text text-anchor="middle" x="35.5" y="-80.5" font-family="Helvetica,sans-Serif" font-size="10.00">IEnumerable</text>
</a>
</g>
</g>
<!-- Node5&#45;&gt;Node0 -->
<g id="edge9" class="edge"><title>Node5&#45;&gt;Node0</title>
<path fill="none" stroke="midnightblue" d="M67.2976,-96.3206C95.4416,-107.274 138.493,-121 177.5,-121 177.5,-121 177.5,-121 871,-121 924.105,-121 982.188,-100.905 1020.62,-84.5783"/>
<polygon fill="midnightblue" stroke="midnightblue" points="68.5797,-93.0638 57.9955,-92.589 65.9734,-99.5606 68.5797,-93.0638"/>
</g>
<!-- Node5&#45;&gt;Node2 -->
<g id="edge6" class="edge"><title>Node5&#45;&gt;Node2</title>
<path fill="none" stroke="midnightblue" d="M81.0155,-82.0064C172.335,-79.91 387.464,-74.6736 568,-68 573.775,-67.7865 579.763,-67.5483 585.774,-67.2974"/>
<polygon fill="midnightblue" stroke="midnightblue" points="80.9355,-78.5072 71.018,-82.2346 81.0953,-85.5053 80.9355,-78.5072"/>
</g>
<!-- Node5&#45;&gt;Node4 -->
<g id="edge5" class="edge"><title>Node5&#45;&gt;Node4</title>
<path fill="none" stroke="midnightblue" d="M76.8747,-70.4008C93.1983,-65.3069 112.176,-59.3849 129.222,-54.0654"/>
<polygon fill="midnightblue" stroke="midnightblue" points="75.5983,-67.1326 67.0949,-73.4527 77.6835,-73.8148 75.5983,-67.1326"/>
</g>
<!-- Node6&#45;&gt;Node0 -->
<g id="edge7" class="edge"><title>Node6&#45;&gt;Node0</title>
<path fill="none" stroke="midnightblue" d="M578.08,-14.6832C660.543,-20.5669 803.086,-31.5422 925,-45 936.984,-46.3228 949.53,-47.8445 961.973,-49.4386"/>
<polygon fill="midnightblue" stroke="midnightblue" points="578.304,-11.1903 568.081,-13.9737 577.808,-18.1728 578.304,-11.1903"/>
</g>
</g>
</svg>
