<?xml version="1.0" encoding="UTF-8" standalone="no"?>
<!DOCTYPE svg PUBLIC "-//W3C//DTD SVG 1.1//EN"
 "http://www.w3.org/Graphics/SVG/1.1/DTD/svg11.dtd">
<!-- Generated by graphviz version 2.38.0 (20140413.2041)
 -->
<!-- Title: System.Runtime.Remoting.Messaging.ReturnMessage Pages: 1 -->
<svg width="177pt" height="207pt"
 viewBox="0.00 0.00 177.41 207.00" xmlns="http://www.w3.org/2000/svg" xmlns:xlink="http://www.w3.org/1999/xlink">
<g id="graph0" class="graph" transform="scale(1 1) rotate(0) translate(4 203)">
<title>System.Runtime.Remoting.Messaging.ReturnMessage</title>
<!-- Node5 -->
<g id="node1" class="node"><title>Node5</title>
<g id="a_node1"><a xlink:title="Holds a message returned in response to a method call on a remote object.">
<polygon fill="#bfbfbf" stroke="black" points="6.40779,-0.5 6.40779,-30.5 143.408,-30.5 143.408,-0.5 6.40779,-0.5"/>
<text text-anchor="start" x="14.4078" y="-18.5" font-family="Helvetica,sans-Serif" font-size="10.00">System.Runtime.Remoting.</text>
<text text-anchor="middle" x="74.9078" y="-7.5" font-family="Helvetica,sans-Serif" font-size="10.00">Messaging.ReturnMessage</text>
</a>
</g>
</g>
<!-- Node6 -->
<g id="node2" class="node"><title>Node6</title>
<g id="a_node2"><a xlink:href="interface_system_1_1_runtime_1_1_remoting_1_1_messaging_1_1_i_method_return_message.html" target="_top" xlink:title="Defines the method call return message interface.">
<polygon fill="none" stroke="black" points="15.4078,-67.5 15.4078,-86.5 134.408,-86.5 134.408,-67.5 15.4078,-67.5"/>
<text text-anchor="middle" x="74.9078" y="-74.5" font-family="Helvetica,sans-Serif" font-size="10.00">IMethodReturnMessage</text>
</a>
</g>
</g>
<!-- Node6&#45;&gt;Node5 -->
<g id="edge1" class="edge"><title>Node6&#45;&gt;Node5</title>
<path fill="none" stroke="midnightblue" d="M74.9078,-57.2349C74.9078,-48.5864 74.9078,-38.4969 74.9078,-30.523"/>
<polygon fill="midnightblue" stroke="midnightblue" points="71.4079,-57.4751 74.9078,-67.4751 78.4079,-57.4751 71.4079,-57.4751"/>
</g>
<!-- Node7 -->
<g id="node3" class="node"><title>Node7</title>
<g id="a_node3"><a xlink:href="interface_system_1_1_runtime_1_1_remoting_1_1_messaging_1_1_i_method_message.html" target="_top" xlink:title="Defines the method message interface.">
<polygon fill="none" stroke="black" points="78.4078,-123.5 78.4078,-142.5 169.408,-142.5 169.408,-123.5 78.4078,-123.5"/>
<text text-anchor="middle" x="123.908" y="-130.5" font-family="Helvetica,sans-Serif" font-size="10.00">IMethodMessage</text>
</a>
</g>
</g>
<!-- Node7&#45;&gt;Node5 -->
<g id="edge5" class="edge"><title>Node7&#45;&gt;Node5</title>
<path fill="none" stroke="midnightblue" d="M136.322,-114.504C144.224,-101.052 151.645,-82.251 143.908,-67 135.848,-51.1138 120.183,-39.0247 105.814,-30.6636"/>
<polygon fill="midnightblue" stroke="midnightblue" points="133.174,-112.926 130.692,-123.226 139.055,-116.723 133.174,-112.926"/>
</g>
<!-- Node7&#45;&gt;Node6 -->
<g id="edge2" class="edge"><title>Node7&#45;&gt;Node6</title>
<path fill="none" stroke="midnightblue" d="M108.873,-115.431C100.286,-105.967 89.8643,-94.4827 82.8486,-86.7511"/>
<polygon fill="midnightblue" stroke="midnightblue" points="106.505,-118.029 115.816,-123.083 111.688,-113.325 106.505,-118.029"/>
</g>
<!-- Node8 -->
<g id="node4" class="node"><title>Node8</title>
<g id="a_node4"><a xlink:href="interface_system_1_1_runtime_1_1_remoting_1_1_messaging_1_1_i_message.html" target="_top" xlink:title="Contains communication data sent between cooperating message sinks.">
<polygon fill="none" stroke="black" points="20.4078,-179.5 20.4078,-198.5 79.4078,-198.5 79.4078,-179.5 20.4078,-179.5"/>
<text text-anchor="middle" x="49.9078" y="-186.5" font-family="Helvetica,sans-Serif" font-size="10.00">IMessage</text>
</a>
</g>
</g>
<!-- Node8&#45;&gt;Node5 -->
<g id="edge6" class="edge"><title>Node8&#45;&gt;Node5</title>
<path fill="none" stroke="midnightblue" d="M35.7338,-171.789C16.8219,-148.078 -12.2865,-102.863 5.90779,-67 13.9674,-51.1138 29.6322,-39.0247 44.0015,-30.6636"/>
<polygon fill="midnightblue" stroke="midnightblue" points="33.0519,-174.038 42.1335,-179.495 38.4369,-169.566 33.0519,-174.038"/>
</g>
<!-- Node8&#45;&gt;Node6 -->
<g id="edge4" class="edge"><title>Node8&#45;&gt;Node6</title>
<path fill="none" stroke="midnightblue" d="M54.1469,-169.348C59.6228,-145.254 68.9287,-104.308 72.9552,-86.5914"/>
<polygon fill="midnightblue" stroke="midnightblue" points="50.6728,-168.841 51.8695,-179.368 57.4988,-170.393 50.6728,-168.841"/>
</g>
<!-- Node8&#45;&gt;Node7 -->
<g id="edge3" class="edge"><title>Node8&#45;&gt;Node7</title>
<path fill="none" stroke="midnightblue" d="M69.9421,-173.38C83.3169,-163.62 100.467,-151.106 111.802,-142.834"/>
<polygon fill="midnightblue" stroke="midnightblue" points="67.8119,-170.602 61.7972,-179.324 71.9383,-176.257 67.8119,-170.602"/>
</g>
</g>
</svg>
