<?xml version="1.0" encoding="UTF-8" standalone="no"?>
<!DOCTYPE svg PUBLIC "-//W3C//DTD SVG 1.1//EN"
 "http://www.w3.org/Graphics/SVG/1.1/DTD/svg11.dtd">
<!-- Generated by graphviz version 2.38.0 (20140413.2041)
 -->
<!-- Title: System.Reflection.Module Pages: 1 -->
<svg width="343pt" height="218pt"
 viewBox="0.00 0.00 343.00 218.00" xmlns="http://www.w3.org/2000/svg" xmlns:xlink="http://www.w3.org/1999/xlink">
<g id="graph0" class="graph" transform="scale(1 1) rotate(0) translate(4 214)">
<title>System.Reflection.Module</title>
<!-- Node0 -->
<g id="node1" class="node"><title>Node0</title>
<g id="a_node1"><a xlink:title="Performs reflection on a module.">
<polygon fill="#bfbfbf" stroke="black" points="92.5,-134.5 92.5,-153.5 223.5,-153.5 223.5,-134.5 92.5,-134.5"/>
<text text-anchor="middle" x="158" y="-141.5" font-family="Helvetica,sans-Serif" font-size="10.00">System.Reflection.Module</text>
</a>
</g>
</g>
<!-- Node4 -->
<g id="node5" class="node"><title>Node4</title>
<g id="a_node5"><a xlink:href="class_system_1_1_reflection_1_1_emit_1_1_module_builder.html" target="_top" xlink:title="Defines and represents a module in a dynamic assembly.">
<polygon fill="none" stroke="black" points="0,-67.5 0,-97.5 154,-97.5 154,-67.5 0,-67.5"/>
<text text-anchor="start" x="8" y="-85.5" font-family="Helvetica,sans-Serif" font-size="10.00">System.Reflection.Emit.Module</text>
<text text-anchor="middle" x="77" y="-74.5" font-family="Helvetica,sans-Serif" font-size="10.00">Builder</text>
</a>
</g>
</g>
<!-- Node0&#45;&gt;Node4 -->
<g id="edge4" class="edge"><title>Node0&#45;&gt;Node4</title>
<path fill="none" stroke="midnightblue" d="M138.217,-128.468C125.392,-119.047 108.775,-106.841 96.0901,-97.523"/>
<polygon fill="midnightblue" stroke="midnightblue" points="136.263,-131.376 146.395,-134.475 140.407,-125.734 136.263,-131.376"/>
</g>
<!-- Node5 -->
<g id="node6" class="node"><title>Node5</title>
<g id="a_node6"><a xlink:href="class_system_1_1_reflection_1_1_runtime_module.html" target="_top" xlink:title=" ">
<polygon fill="none" stroke="black" points="172.5,-67.5 172.5,-97.5 307.5,-97.5 307.5,-67.5 172.5,-67.5"/>
<text text-anchor="start" x="180.5" y="-85.5" font-family="Helvetica,sans-Serif" font-size="10.00">System.Reflection.Runtime</text>
<text text-anchor="middle" x="240" y="-74.5" font-family="Helvetica,sans-Serif" font-size="10.00">Module</text>
</a>
</g>
</g>
<!-- Node0&#45;&gt;Node5 -->
<g id="edge5" class="edge"><title>Node0&#45;&gt;Node5</title>
<path fill="none" stroke="midnightblue" d="M178.027,-128.468C191.01,-119.047 207.833,-106.841 220.674,-97.523"/>
<polygon fill="midnightblue" stroke="midnightblue" points="175.787,-125.769 169.749,-134.475 179.898,-131.435 175.787,-125.769"/>
</g>
<!-- Node1 -->
<g id="node2" class="node"><title>Node1</title>
<g id="a_node2"><a xlink:href="interface_system_1_1_runtime_1_1_interop_services_1_1___module.html" target="_top" xlink:title="Exposes the T:System.Reflection.Module class to unmanaged code.">
<polygon fill="none" stroke="black" points="52.5,-190.5 52.5,-209.5 105.5,-209.5 105.5,-190.5 52.5,-190.5"/>
<text text-anchor="middle" x="79" y="-197.5" font-family="Helvetica,sans-Serif" font-size="10.00">_Module</text>
</a>
</g>
</g>
<!-- Node1&#45;&gt;Node0 -->
<g id="edge1" class="edge"><title>Node1&#45;&gt;Node0</title>
<path fill="none" stroke="midnightblue" d="M100.034,-184.622C114.466,-174.757 133.141,-161.992 145.339,-153.655"/>
<polygon fill="midnightblue" stroke="midnightblue" points="97.9733,-181.791 91.6927,-190.324 101.923,-187.57 97.9733,-181.791"/>
</g>
<!-- Node2 -->
<g id="node3" class="node"><title>Node2</title>
<g id="a_node3"><a xlink:href="interface_system_1_1_runtime_1_1_serialization_1_1_i_serializable.html" target="_top" xlink:title="Allows an object to control its own serialization and deserialization.">
<polygon fill="none" stroke="black" points="123.5,-190.5 123.5,-209.5 192.5,-209.5 192.5,-190.5 123.5,-190.5"/>
<text text-anchor="middle" x="158" y="-197.5" font-family="Helvetica,sans-Serif" font-size="10.00">ISerializable</text>
</a>
</g>
</g>
<!-- Node2&#45;&gt;Node0 -->
<g id="edge2" class="edge"><title>Node2&#45;&gt;Node0</title>
<path fill="none" stroke="midnightblue" d="M158,-179.805C158,-170.91 158,-160.78 158,-153.751"/>
<polygon fill="midnightblue" stroke="midnightblue" points="154.5,-180.083 158,-190.083 161.5,-180.083 154.5,-180.083"/>
</g>
<!-- Node3 -->
<g id="node4" class="node"><title>Node3</title>
<g id="a_node4"><a xlink:href="interface_system_1_1_reflection_1_1_i_custom_attribute_provider.html" target="_top" xlink:title="Provides custom attributes for reflection objects that support them.">
<polygon fill="none" stroke="black" points="211,-190.5 211,-209.5 335,-209.5 335,-190.5 211,-190.5"/>
<text text-anchor="middle" x="273" y="-197.5" font-family="Helvetica,sans-Serif" font-size="10.00">ICustomAttributeProvider</text>
</a>
</g>
</g>
<!-- Node3&#45;&gt;Node0 -->
<g id="edge3" class="edge"><title>Node3&#45;&gt;Node0</title>
<path fill="none" stroke="midnightblue" d="M245.519,-186.096C224.034,-176.007 194.778,-162.27 176.137,-153.516"/>
<polygon fill="midnightblue" stroke="midnightblue" points="244.238,-189.361 254.778,-190.444 247.214,-183.025 244.238,-189.361"/>
</g>
<!-- Node6 -->
<g id="node7" class="node"><title>Node6</title>
<g id="a_node7"><a xlink:href="class_system_1_1_reflection_1_1_emit_1_1_internal_module_builder.html" target="_top" xlink:title=" ">
<polygon fill="none" stroke="black" points="163,-0.5 163,-30.5 317,-30.5 317,-0.5 163,-0.5"/>
<text text-anchor="start" x="171" y="-18.5" font-family="Helvetica,sans-Serif" font-size="10.00">System.Reflection.Emit.Internal</text>
<text text-anchor="middle" x="240" y="-7.5" font-family="Helvetica,sans-Serif" font-size="10.00">ModuleBuilder</text>
</a>
</g>
</g>
<!-- Node5&#45;&gt;Node6 -->
<g id="edge6" class="edge"><title>Node5&#45;&gt;Node6</title>
<path fill="none" stroke="midnightblue" d="M240,-57.1081C240,-48.1539 240,-38.3227 240,-30.5765"/>
<polygon fill="midnightblue" stroke="midnightblue" points="236.5,-57.3959 240,-67.396 243.5,-57.396 236.5,-57.3959"/>
</g>
</g>
</svg>
