<?xml version="1.0" encoding="UTF-8" standalone="no"?>
<!DOCTYPE svg PUBLIC "-//W3C//DTD SVG 1.1//EN"
 "http://www.w3.org/Graphics/SVG/1.1/DTD/svg11.dtd">
<!-- Generated by graphviz version 2.38.0 (20140413.2041)
 -->
<!-- Title: System.Security.Authentication.ExtendedProtection.ExtendedProtectionPolicy Pages: 1 -->
<svg width="572pt" height="127pt"
 viewBox="0.00 0.00 572.00 126.50" xmlns="http://www.w3.org/2000/svg" xmlns:xlink="http://www.w3.org/1999/xlink">
<g id="graph0" class="graph" transform="scale(1 1) rotate(0) translate(4 122.5)">
<title>System.Security.Authentication.ExtendedProtection.ExtendedProtectionPolicy</title>
<!-- Node2 -->
<g id="node1" class="node"><title>Node2</title>
<g id="a_node1"><a xlink:title="The T:System.Security.Authentication.ExtendedProtection.ExtendedProtectionPolicy class represents the...">
<polygon fill="#bfbfbf" stroke="black" points="346,-49.5 346,-79.5 564,-79.5 564,-49.5 346,-49.5"/>
<text text-anchor="start" x="354" y="-67.5" font-family="Helvetica,sans-Serif" font-size="10.00">System.Security.Authentication.</text>
<text text-anchor="middle" x="455" y="-56.5" font-family="Helvetica,sans-Serif" font-size="10.00">ExtendedProtection.ExtendedProtectionPolicy</text>
</a>
</g>
</g>
<!-- Node3 -->
<g id="node2" class="node"><title>Node3</title>
<g id="a_node2"><a xlink:href="interface_system_1_1_runtime_1_1_serialization_1_1_i_serializable.html" target="_top" xlink:title="Allows an object to control its own serialization and deserialization.">
<polygon fill="none" stroke="black" points="68,-99 68,-118 137,-118 137,-99 68,-99"/>
<text text-anchor="middle" x="102.5" y="-106" font-family="Helvetica,sans-Serif" font-size="10.00">ISerializable</text>
</a>
</g>
</g>
<!-- Node3&#45;&gt;Node2 -->
<g id="edge1" class="edge"><title>Node3&#45;&gt;Node2</title>
<path fill="none" stroke="midnightblue" d="M147.131,-103.023C196.527,-96.8218 278.833,-86.4895 345.777,-78.0858"/>
<polygon fill="midnightblue" stroke="midnightblue" points="146.594,-99.5627 137.107,-104.281 147.466,-106.508 146.594,-99.5627"/>
</g>
<!-- Node4 -->
<g id="node3" class="node"><title>Node4</title>
<g id="a_node3"><a xlink:href="class_system_1_1_security_1_1_authentication_1_1_extended_protection_1_1_channel_binding.html" target="_top" xlink:title="The T:System.Security.Authentication.ExtendedProtection.ChannelBinding class encapsulates a pointer t...">
<polygon fill="none" stroke="black" points="16,-49.5 16,-79.5 189,-79.5 189,-49.5 16,-49.5"/>
<text text-anchor="start" x="24" y="-67.5" font-family="Helvetica,sans-Serif" font-size="10.00">System.Security.Authentication.</text>
<text text-anchor="middle" x="102.5" y="-56.5" font-family="Helvetica,sans-Serif" font-size="10.00">ExtendedProtection.ChannelBinding</text>
</a>
</g>
</g>
<!-- Node4&#45;&gt;Node2 -->
<g id="edge2" class="edge"><title>Node4&#45;&gt;Node2</title>
<path fill="none" stroke="#9a32cd" stroke-dasharray="5,2" d="M199.371,-64.5C244.727,-64.5 299.077,-64.5 345.894,-64.5"/>
<polygon fill="#9a32cd" stroke="#9a32cd" points="199.242,-61.0001 189.242,-64.5 199.242,-68.0001 199.242,-61.0001"/>
<text text-anchor="middle" x="275.5" y="-67.5" font-family="Helvetica,sans-Serif" font-size="10.00"> CustomChannelBinding</text>
</g>
<!-- Node5 -->
<g id="node4" class="node"><title>Node5</title>
<g id="a_node4"><a xlink:href="class_system_1_1_security_1_1_authentication_1_1_extended_protection_1_1_service_name_collection.html" target="_top" xlink:title="The T:System.Security.Authentication.ExtendedProtection.ServiceNameCollection class is a read&#45;only co...">
<polygon fill="none" stroke="red" points="0,-0.5 0,-30.5 205,-30.5 205,-0.5 0,-0.5"/>
<text text-anchor="start" x="8" y="-18.5" font-family="Helvetica,sans-Serif" font-size="10.00">System.Security.Authentication.</text>
<text text-anchor="middle" x="102.5" y="-7.5" font-family="Helvetica,sans-Serif" font-size="10.00">ExtendedProtection.ServiceNameCollection</text>
</a>
</g>
</g>
<!-- Node5&#45;&gt;Node2 -->
<g id="edge3" class="edge"><title>Node5&#45;&gt;Node2</title>
<path fill="none" stroke="#9a32cd" stroke-dasharray="5,2" d="M215.326,-31.1333C257.278,-36.9983 304.836,-43.6469 346.398,-49.4572"/>
<polygon fill="#9a32cd" stroke="#9a32cd" points="215.738,-27.657 205.35,-29.7387 214.769,-34.5896 215.738,-27.657"/>
<text text-anchor="middle" x="275.5" y="-49.5" font-family="Helvetica,sans-Serif" font-size="10.00"> CustomServiceNames</text>
</g>
</g>
</svg>
