<?xml version="1.0" encoding="UTF-8" standalone="no"?>
<!DOCTYPE svg PUBLIC "-//W3C//DTD SVG 1.1//EN"
 "http://www.w3.org/Graphics/SVG/1.1/DTD/svg11.dtd">
<!-- Generated by graphviz version 2.38.0 (20140413.2041)
 -->
<!-- Title: System.Security.Policy.StrongName Pages: 1 -->
<svg width="789pt" height="252pt"
 viewBox="0.00 0.00 789.00 252.00" xmlns="http://www.w3.org/2000/svg" xmlns:xlink="http://www.w3.org/1999/xlink">
<g id="graph0" class="graph" transform="scale(1 1) rotate(0) translate(4 248)">
<title>System.Security.Policy.StrongName</title>
<!-- Node4 -->
<g id="node1" class="node"><title>Node4</title>
<g id="a_node1"><a xlink:title="Provides the strong name of a code assembly as evidence for policy evaluation. This class cannot be i...">
<polygon fill="#bfbfbf" stroke="black" points="605,-148.5 605,-167.5 781,-167.5 781,-148.5 605,-148.5"/>
<text text-anchor="middle" x="693" y="-155.5" font-family="Helvetica,sans-Serif" font-size="10.00">System.Security.Policy.StrongName</text>
</a>
</g>
</g>
<!-- Node5 -->
<g id="node2" class="node"><title>Node5</title>
<g id="a_node2"><a xlink:href="class_system_1_1_security_1_1_policy_1_1_evidence_base.html" target="_top" xlink:title="Provides a base class from which all objects to be used as evidence must derive.">
<polygon fill="none" stroke="black" points="407.5,-224.5 407.5,-243.5 485.5,-243.5 485.5,-224.5 407.5,-224.5"/>
<text text-anchor="middle" x="446.5" y="-231.5" font-family="Helvetica,sans-Serif" font-size="10.00">EvidenceBase</text>
</a>
</g>
</g>
<!-- Node5&#45;&gt;Node4 -->
<g id="edge1" class="edge"><title>Node5&#45;&gt;Node4</title>
<path fill="none" stroke="midnightblue" d="M495.594,-222.075C504.087,-219.825 512.824,-217.416 521,-215 572.468,-199.789 631.721,-179.377 665.229,-167.559"/>
<polygon fill="midnightblue" stroke="midnightblue" points="494.577,-218.723 485.785,-224.635 496.345,-225.496 494.577,-218.723"/>
</g>
<!-- Node6 -->
<g id="node3" class="node"><title>Node6</title>
<g id="a_node3"><a xlink:href="interface_system_1_1_security_1_1_policy_1_1_i_identity_permission_factory.html" target="_top" xlink:title="Defines the method that creates a new identity permission.">
<polygon fill="none" stroke="black" points="380.5,-186.5 380.5,-205.5 512.5,-205.5 512.5,-186.5 380.5,-186.5"/>
<text text-anchor="middle" x="446.5" y="-193.5" font-family="Helvetica,sans-Serif" font-size="10.00">IIdentityPermissionFactory</text>
</a>
</g>
</g>
<!-- Node6&#45;&gt;Node4 -->
<g id="edge2" class="edge"><title>Node6&#45;&gt;Node4</title>
<path fill="none" stroke="midnightblue" d="M519.139,-184.866C554.503,-179.37 596.728,-172.807 630.593,-167.544"/>
<polygon fill="midnightblue" stroke="midnightblue" points="518.226,-181.466 508.882,-186.46 519.301,-188.383 518.226,-181.466"/>
</g>
<!-- Node7 -->
<g id="node4" class="node"><title>Node7</title>
<g id="a_node4"><a xlink:href="interface_system_1_1_security_1_1_policy_1_1_i_delay_evaluated_evidence.html" target="_top" xlink:title=" ">
<polygon fill="none" stroke="black" points="384,-148.5 384,-167.5 509,-167.5 509,-148.5 384,-148.5"/>
<text text-anchor="middle" x="446.5" y="-155.5" font-family="Helvetica,sans-Serif" font-size="10.00">IDelayEvaluatedEvidence</text>
</a>
</g>
</g>
<!-- Node7&#45;&gt;Node4 -->
<g id="edge3" class="edge"><title>Node7&#45;&gt;Node4</title>
<path fill="none" stroke="midnightblue" d="M519.274,-158C546.103,-158 576.866,-158 604.927,-158"/>
<polygon fill="midnightblue" stroke="midnightblue" points="519.198,-154.5 509.198,-158 519.198,-161.5 519.198,-154.5"/>
</g>
<!-- Node8 -->
<g id="node5" class="node"><title>Node8</title>
<g id="a_node5"><a xlink:href="class_system_1_1_security_1_1_permissions_1_1_strong_name_public_key_blob.html" target="_top" xlink:title="Represents the public key information (called a blob) for a strong name. This class cannot be inherit...">
<polygon fill="none" stroke="black" points="372,-99 372,-129 521,-129 521,-99 372,-99"/>
<text text-anchor="start" x="380" y="-117" font-family="Helvetica,sans-Serif" font-size="10.00">System.Security.Permissions.</text>
<text text-anchor="middle" x="446.5" y="-106" font-family="Helvetica,sans-Serif" font-size="10.00">StrongNamePublicKeyBlob</text>
</a>
</g>
</g>
<!-- Node8&#45;&gt;Node4 -->
<g id="edge4" class="edge"><title>Node8&#45;&gt;Node4</title>
<path fill="none" stroke="#9a32cd" stroke-dasharray="5,2" d="M531.131,-129.05C566.88,-135.484 607.54,-142.801 639.038,-148.469"/>
<polygon fill="#9a32cd" stroke="#9a32cd" points="531.651,-125.588 521.19,-127.261 530.412,-132.477 531.651,-125.588"/>
<text text-anchor="middle" x="563" y="-141" font-family="Helvetica,sans-Serif" font-size="10.00"> PublicKey</text>
</g>
<!-- Node9 -->
<g id="node6" class="node"><title>Node9</title>
<g id="a_node6"><a xlink:href="class_system_1_1_version.html" target="_top" xlink:title="Represents the version number of an assembly, operating system, or the common language runtime....">
<polygon fill="none" stroke="black" points="403.5,-60.5 403.5,-79.5 489.5,-79.5 489.5,-60.5 403.5,-60.5"/>
<text text-anchor="middle" x="446.5" y="-67.5" font-family="Helvetica,sans-Serif" font-size="10.00">System.Version</text>
</a>
</g>
</g>
<!-- Node9&#45;&gt;Node4 -->
<g id="edge5" class="edge"><title>Node9&#45;&gt;Node4</title>
<path fill="none" stroke="#9a32cd" stroke-dasharray="5,2" d="M497.924,-82.1624C505.697,-84.2881 513.597,-86.5948 521,-89 576.261,-106.953 639.118,-134.133 671.023,-148.432"/>
<polygon fill="#9a32cd" stroke="#9a32cd" points="498.757,-78.7624 488.193,-79.573 496.957,-85.527 498.757,-78.7624"/>
<text text-anchor="middle" x="563" y="-115" font-family="Helvetica,sans-Serif" font-size="10.00"> Version</text>
</g>
<!-- Node10 -->
<g id="node7" class="node"><title>Node10</title>
<g id="a_node7"><a xlink:href="interface_system_1_1_i_cloneable.html" target="_top" xlink:title="Supports cloning, which creates a new instance of a class with the same value as an existing instance...">
<polygon fill="none" stroke="black" points="243,-114.5 243,-133.5 305,-133.5 305,-114.5 243,-114.5"/>
<text text-anchor="middle" x="274" y="-121.5" font-family="Helvetica,sans-Serif" font-size="10.00">ICloneable</text>
</a>
</g>
</g>
<!-- Node10&#45;&gt;Node9 -->
<g id="edge6" class="edge"><title>Node10&#45;&gt;Node9</title>
<path fill="none" stroke="midnightblue" d="M314.841,-112.009C321.609,-109.794 328.535,-107.414 335,-105 351.784,-98.732 355.054,-94.815 372,-89 382.222,-85.4922 393.437,-82.2822 403.96,-79.5391"/>
<polygon fill="midnightblue" stroke="midnightblue" points="313.571,-108.74 305.113,-115.121 315.704,-115.407 313.571,-108.74"/>
</g>
<!-- Node11 -->
<g id="node8" class="node"><title>Node11</title>
<g id="a_node8"><a xlink:href="interface_system_1_1_i_comparable.html" target="_top" xlink:title="Defines a generalized type&#45;specific comparison method that a value type or class implements to order ...">
<polygon fill="none" stroke="black" points="238.5,-76.5 238.5,-95.5 309.5,-95.5 309.5,-76.5 238.5,-76.5"/>
<text text-anchor="middle" x="274" y="-83.5" font-family="Helvetica,sans-Serif" font-size="10.00">IComparable</text>
</a>
</g>
</g>
<!-- Node11&#45;&gt;Node9 -->
<g id="edge7" class="edge"><title>Node11&#45;&gt;Node9</title>
<path fill="none" stroke="midnightblue" d="M319.767,-81.799C345.571,-79.3775 377.82,-76.3512 403.197,-73.9698"/>
<polygon fill="midnightblue" stroke="midnightblue" points="319.132,-78.3431 309.503,-82.7622 319.787,-85.3125 319.132,-78.3431"/>
</g>
<!-- Node12 -->
<g id="node9" class="node"><title>Node12</title>
<g id="a_node9"><a xlink:href="interface_system_1_1_i_comparable.html" target="_top" xlink:title=" ">
<polygon fill="none" stroke="black" points="213,-38.5 213,-57.5 335,-57.5 335,-38.5 213,-38.5"/>
<text text-anchor="middle" x="274" y="-45.5" font-family="Helvetica,sans-Serif" font-size="10.00">IComparable&lt; Version &gt;</text>
</a>
</g>
</g>
<!-- Node12&#45;&gt;Node9 -->
<g id="edge8" class="edge"><title>Node12&#45;&gt;Node9</title>
<path fill="none" stroke="midnightblue" d="M345.292,-57.0699C364.995,-59.6123 385.799,-62.2966 403.314,-64.5566"/>
<polygon fill="midnightblue" stroke="midnightblue" points="345.478,-53.565 335.112,-55.7564 344.582,-60.5074 345.478,-53.565"/>
</g>
<!-- Node13 -->
<g id="node10" class="node"><title>Node13</title>
<g id="a_node10"><a xlink:href="interface_system_1_1_i_comparable.html" target="_top" xlink:title="Defines a generalized type&#45;specific comparison method that a value type or class implements to order ...">
<polygon fill="none" stroke="black" points="7.5,-38.5 7.5,-57.5 114.5,-57.5 114.5,-38.5 7.5,-38.5"/>
<text text-anchor="middle" x="61" y="-45.5" font-family="Helvetica,sans-Serif" font-size="10.00">System.IComparable</text>
</a>
</g>
</g>
<!-- Node13&#45;&gt;Node12 -->
<g id="edge9" class="edge"><title>Node13&#45;&gt;Node12</title>
<path fill="none" stroke="orange" stroke-dasharray="5,2" d="M124.726,-48C152.577,-48 185.215,-48 212.77,-48"/>
<polygon fill="orange" stroke="orange" points="124.7,-44.5001 114.7,-48 124.7,-51.5001 124.7,-44.5001"/>
<text text-anchor="middle" x="167.5" y="-51" font-family="Helvetica,sans-Serif" font-size="10.00"> &lt; Version &gt;</text>
</g>
<!-- Node14 -->
<g id="node11" class="node"><title>Node14</title>
<g id="a_node11"><a xlink:href="interface_system_1_1_i_equatable.html" target="_top" xlink:title=" ">
<polygon fill="none" stroke="black" points="217.5,-0.5 217.5,-19.5 330.5,-19.5 330.5,-0.5 217.5,-0.5"/>
<text text-anchor="middle" x="274" y="-7.5" font-family="Helvetica,sans-Serif" font-size="10.00">IEquatable&lt; Version &gt;</text>
</a>
</g>
</g>
<!-- Node14&#45;&gt;Node9 -->
<g id="edge10" class="edge"><title>Node14&#45;&gt;Node9</title>
<path fill="none" stroke="midnightblue" d="M316.057,-22.7092C322.416,-24.7619 328.897,-26.9028 335,-29 364.608,-39.174 398.295,-51.8318 420.609,-60.3704"/>
<polygon fill="midnightblue" stroke="midnightblue" points="316.826,-19.281 306.236,-19.575 314.698,-25.9496 316.826,-19.281"/>
</g>
<!-- Node15 -->
<g id="node12" class="node"><title>Node15</title>
<g id="a_node12"><a xlink:href="interface_system_1_1_i_equatable.html" target="_top" xlink:title="Defines a generalized method that a value type or class implements to create a type&#45;specific method f...">
<polygon fill="none" stroke="black" points="0,-0.5 0,-19.5 122,-19.5 122,-0.5 0,-0.5"/>
<text text-anchor="middle" x="61" y="-7.5" font-family="Helvetica,sans-Serif" font-size="10.00">System.IEquatable&lt; T &gt;</text>
</a>
</g>
</g>
<!-- Node15&#45;&gt;Node14 -->
<g id="edge11" class="edge"><title>Node15&#45;&gt;Node14</title>
<path fill="none" stroke="orange" stroke-dasharray="5,2" d="M132.213,-10C159.939,-10 191.339,-10 217.438,-10"/>
<polygon fill="orange" stroke="orange" points="132.182,-6.5001 122.182,-10 132.182,-13.5001 132.182,-6.5001"/>
<text text-anchor="middle" x="167.5" y="-13" font-family="Helvetica,sans-Serif" font-size="10.00"> &lt; Version &gt;</text>
</g>
</g>
</svg>
