<?xml version="1.0" encoding="UTF-8" standalone="no"?>
<!DOCTYPE svg PUBLIC "-//W3C//DTD SVG 1.1//EN"
 "http://www.w3.org/Graphics/SVG/1.1/DTD/svg11.dtd">
<!-- Generated by graphviz version 2.38.0 (20140413.2041)
 -->
<!-- Title: System.CodeDom.CodeIterationStatement Pages: 1 -->
<svg width="278pt" height="117pt"
 viewBox="0.00 0.00 277.50 117.00" xmlns="http://www.w3.org/2000/svg" xmlns:xlink="http://www.w3.org/1999/xlink">
<g id="graph0" class="graph" transform="scale(1 1) rotate(0) translate(4 113)">
<title>System.CodeDom.CodeIterationStatement</title>
<!-- Node3 -->
<g id="node1" class="node"><title>Node3</title>
<g id="a_node1"><a xlink:title="Represents a for statement, or a loop through a block of statements, using a test expression as a con...">
<polygon fill="#bfbfbf" stroke="black" points="36,-0.5 36,-30.5 192,-30.5 192,-0.5 36,-0.5"/>
<text text-anchor="start" x="44" y="-18.5" font-family="Helvetica,sans-Serif" font-size="10.00">System.CodeDom.CodeIteration</text>
<text text-anchor="middle" x="114" y="-7.5" font-family="Helvetica,sans-Serif" font-size="10.00">Statement</text>
</a>
</g>
</g>
<!-- Node4 -->
<g id="node2" class="node"><title>Node4</title>
<g id="a_node2"><a xlink:href="class_system_1_1_code_dom_1_1_code_statement.html" target="_top" xlink:title="Represents the abstract base class from which all code statements derive.">
<polygon fill="none" stroke="red" points="0,-84 0,-103 84,-103 84,-84 0,-84"/>
<text text-anchor="middle" x="42" y="-91" font-family="Helvetica,sans-Serif" font-size="10.00">CodeStatement</text>
</a>
</g>
</g>
<!-- Node4&#45;&gt;Node3 -->
<g id="edge1" class="edge"><title>Node4&#45;&gt;Node3</title>
<path fill="none" stroke="midnightblue" d="M57.4984,-76.1406C70.3742,-62.5495 88.4986,-43.4181 100.718,-30.5198"/>
<polygon fill="midnightblue" stroke="midnightblue" points="54.5959,-74.1152 50.2593,-83.7818 59.6776,-78.9294 54.5959,-74.1152"/>
</g>
<!-- Node6 -->
<g id="node3" class="node"><title>Node6</title>
<g id="a_node3"><a xlink:href="class_system_1_1_code_dom_1_1_code_statement_collection.html" target="_top" xlink:title="Represents a collection of T:System.CodeDom.CodeStatement objects.">
<polygon fill="none" stroke="red" points="102.5,-78.5 102.5,-108.5 269.5,-108.5 269.5,-78.5 102.5,-78.5"/>
<text text-anchor="start" x="110.5" y="-96.5" font-family="Helvetica,sans-Serif" font-size="10.00">System.CodeDom.CodeStatement</text>
<text text-anchor="middle" x="186" y="-85.5" font-family="Helvetica,sans-Serif" font-size="10.00">Collection</text>
</a>
</g>
</g>
<!-- Node6&#45;&gt;Node3 -->
<g id="edge2" class="edge"><title>Node6&#45;&gt;Node3</title>
<path fill="none" stroke="#9a32cd" stroke-dasharray="5,2" d="M165.32,-70.6707C153.157,-57.8319 138.125,-41.9656 127.482,-30.7309"/>
<polygon fill="#9a32cd" stroke="#9a32cd" points="163.039,-73.3525 172.457,-78.205 168.121,-68.5383 163.039,-73.3525"/>
<text text-anchor="middle" x="182" y="-52" font-family="Helvetica,sans-Serif" font-size="10.00"> Statements</text>
</g>
</g>
</svg>
