<?xml version="1.0" encoding="UTF-8" standalone="no"?>
<!DOCTYPE svg PUBLIC "-//W3C//DTD SVG 1.1//EN"
 "http://www.w3.org/Graphics/SVG/1.1/DTD/svg11.dtd">
<!-- Generated by graphviz version 2.38.0 (20140413.2041)
 -->
<!-- Title: System.Collections.Concurrent.ConcurrentQueue&lt; T &gt; Pages: 1 -->
<!--zoomable 228 -->
<svg id="main" version="1.1" xmlns="http://www.w3.org/2000/svg" xmlns:xlink="http://www.w3.org/1999/xlink" xml:space="preserve" onload="init(evt)">
<style type="text/css"><![CDATA[
.edge:hover path { stroke: red; }
.edge:hover polygon { stroke: red; fill: red; }
]]></style>
<script type="text/javascript"><![CDATA[
var edges = document.getElementsByTagName('g');
if (edges && edges.length) {
  for (var i=0;i<edges.length;i++) {
    if (edges[i].id.substr(0,4)=='edge') {
      edges[i].setAttribute('class','edge');
    }
  }
}
]]></script>
        <defs>
                <circle id="rim" cx="0" cy="0" r="7"/>
                <circle id="rim2" cx="0" cy="0" r="3.5"/>
                <g id="zoomPlus">
                        <use xlink:href="#rim" fill="#404040">
                                <set attributeName="fill" to="#808080" begin="zoomplus.mouseover" end="zoomplus.mouseout"/>
                        </use>
                        <path d="M-4,0h8M0,-4v8" fill="none" stroke="white" stroke-width="1.5" pointer-events="none"/>
                </g>
                <g id="zoomMin">
                        <use xlink:href="#rim" fill="#404040">
                                <set attributeName="fill" to="#808080" begin="zoomminus.mouseover" end="zoomminus.mouseout"/>
                        </use>
                        <path d="M-4,0h8" fill="none" stroke="white" stroke-width="1.5" pointer-events="none"/>
                </g>
                <g id="dirArrow">
                        <path fill="none" stroke="white" stroke-width="1.5" d="M0,-3.0v7 M-2.5,-0.5L0,-3.0L2.5,-0.5"/>
                </g>
               <g id="resetDef">
                       <use xlink:href="#rim2" fill="#404040">
                               <set attributeName="fill" to="#808080" begin="reset.mouseover" end="reset.mouseout"/>
                       </use>
               </g>
        </defs>

<script type="text/javascript">
var viewWidth = 924;
var viewHeight = 228;
var sectionId = 'dynsection-1';
</script>
<script xlink:href="svgpan.js"/>
<svg id="graph" class="graph">
<g id="viewport">
<title>System.Collections.Concurrent.ConcurrentQueue&lt; T &gt;</title>
<!-- Node9 -->
<g id="node1" class="node"><title>Node9</title>
<g id="a_node1"><a xlink:title="Represents a thread&#45;safe first in&#45;first out (FIFO) collection.">
<polygon fill="#bfbfbf" stroke="black" points="761,-71 761,-101 916,-101 916,-71 761,-71"/>
<text text-anchor="start" x="769" y="-89" font-family="Helvetica,sans-Serif" font-size="10.00">System.Collections.Concurrent.</text>
<text text-anchor="middle" x="838.5" y="-78" font-family="Helvetica,sans-Serif" font-size="10.00">ConcurrentQueue&lt; T &gt;</text>
</a>
</g>
</g>
<!-- Node10 -->
<g id="node2" class="node"><title>Node10</title>
<g id="a_node2"><a xlink:href="interface_system_1_1_collections_1_1_concurrent_1_1_i_producer_consumer_collection.html" target="_top" xlink:title="Defines methods to manipulate thread&#45;safe collections intended for producer/consumer usage....">
<polygon fill="none" stroke="black" points="556,-38.5 556,-57.5 724,-57.5 724,-38.5 556,-38.5"/>
<text text-anchor="middle" x="640" y="-45.5" font-family="Helvetica,sans-Serif" font-size="10.00">IProducerConsumerCollection&lt; T &gt;</text>
</a>
</g>
</g>
<!-- Node10&#45;&gt;Node9 -->
<g id="edge1" class="edge"><title>Node10&#45;&gt;Node9</title>
<path fill="none" stroke="midnightblue" d="M700.367,-59.4807C719.439,-63.1688 740.84,-67.3076 760.963,-71.199"/>
<polygon fill="midnightblue" stroke="midnightblue" points="700.814,-56.0024 690.332,-57.54 699.485,-62.875 700.814,-56.0024"/>
</g>
<!-- Node11 -->
<g id="node3" class="node"><title>Node11</title>
<g id="a_node3"><a xlink:href="interface_system_1_1_collections_1_1_i_enumerable.html" target="_top" xlink:title=" ">
<polygon fill="none" stroke="black" points="221,-163.5 221,-182.5 315,-182.5 315,-163.5 221,-163.5"/>
<text text-anchor="middle" x="268" y="-170.5" font-family="Helvetica,sans-Serif" font-size="10.00">IEnumerable&lt; T &gt;</text>
</a>
</g>
</g>
<!-- Node11&#45;&gt;Node9 -->
<g id="edge7" class="edge"><title>Node11&#45;&gt;Node9</title>
<path fill="none" stroke="midnightblue" d="M298.825,-186.626C314.331,-192.971 333.801,-199.812 352,-203 515.746,-231.685 569.909,-226.383 724,-164 761.897,-148.657 799.808,-119.009 820.805,-101.013"/>
<polygon fill="midnightblue" stroke="midnightblue" points="299.834,-183.252 289.262,-182.571 297.102,-189.697 299.834,-183.252"/>
</g>
<!-- Node11&#45;&gt;Node10 -->
<g id="edge2" class="edge"><title>Node11&#45;&gt;Node10</title>
<path fill="none" stroke="midnightblue" d="M304.442,-159.95C319.127,-154.605 336.353,-148.416 352,-143 445.492,-110.637 556.908,-74.4267 609.162,-57.5812"/>
<polygon fill="midnightblue" stroke="midnightblue" points="302.926,-156.777 294.733,-163.495 305.327,-163.353 302.926,-156.777"/>
</g>
<!-- Node16 -->
<g id="node8" class="node"><title>Node16</title>
<g id="a_node8"><a xlink:href="interface_system_1_1_collections_1_1_generic_1_1_i_read_only_collection.html" target="_top" xlink:title="Represents a strongly&#45;typed, read&#45;only collection of elements.">
<polygon fill="none" stroke="black" points="352,-152.5 352,-193.5 493,-193.5 493,-152.5 352,-152.5"/>
<text text-anchor="start" x="360" y="-181.5" font-family="Helvetica,sans-Serif" font-size="10.00">System.Collections.Generic.</text>
<text text-anchor="start" x="360" y="-170.5" font-family="Helvetica,sans-Serif" font-size="10.00">IReadOnlyCollection&lt; out</text>
<text text-anchor="middle" x="422.5" y="-159.5" font-family="Helvetica,sans-Serif" font-size="10.00"> out T &gt;</text>
</a>
</g>
</g>
<!-- Node11&#45;&gt;Node16 -->
<g id="edge12" class="edge"><title>Node11&#45;&gt;Node16</title>
<path fill="none" stroke="midnightblue" d="M325.447,-173C334.047,-173 343.008,-173 351.85,-173"/>
<polygon fill="midnightblue" stroke="midnightblue" points="325.169,-169.5 315.169,-173 325.169,-176.5 325.169,-169.5"/>
</g>
<!-- Node12 -->
<g id="node4" class="node"><title>Node12</title>
<g id="a_node4"><a xlink:href="interface_system_1_1_collections_1_1_i_enumerable.html" target="_top" xlink:title="Exposes an enumerator, which supports a simple iteration over a non&#45;generic collection....">
<polygon fill="none" stroke="black" points="0,-163.5 0,-182.5 158,-182.5 158,-163.5 0,-163.5"/>
<text text-anchor="middle" x="79" y="-170.5" font-family="Helvetica,sans-Serif" font-size="10.00">System.Collections.IEnumerable</text>
</a>
</g>
</g>
<!-- Node12&#45;&gt;Node11 -->
<g id="edge3" class="edge"><title>Node12&#45;&gt;Node11</title>
<path fill="none" stroke="orange" stroke-dasharray="5,2" d="M168.276,-173C186.456,-173 204.899,-173 220.847,-173"/>
<polygon fill="orange" stroke="orange" points="168.221,-169.5 158.221,-173 168.221,-176.5 168.221,-169.5"/>
<text text-anchor="middle" x="189.5" y="-176" font-family="Helvetica,sans-Serif" font-size="10.00"> &lt; T &gt;</text>
</g>
<!-- Node13 -->
<g id="node5" class="node"><title>Node13</title>
<g id="a_node5"><a xlink:href="interface_system_1_1_collections_1_1_i_enumerable.html" target="_top" xlink:title="Exposes an enumerator, which supports a simple iteration over a non&#45;generic collection....">
<polygon fill="none" stroke="black" points="232.5,-57.5 232.5,-76.5 303.5,-76.5 303.5,-57.5 232.5,-57.5"/>
<text text-anchor="middle" x="268" y="-64.5" font-family="Helvetica,sans-Serif" font-size="10.00">IEnumerable</text>
</a>
</g>
</g>
<!-- Node13&#45;&gt;Node9 -->
<g id="edge8" class="edge"><title>Node13&#45;&gt;Node9</title>
<path fill="none" stroke="midnightblue" d="M313.812,-69.9573C326.181,-70.7033 339.606,-71.4481 352,-72 496.471,-78.433 665.264,-82.5299 760.953,-84.5336"/>
<polygon fill="midnightblue" stroke="midnightblue" points="313.913,-66.457 303.717,-69.3346 313.482,-73.4438 313.913,-66.457"/>
</g>
<!-- Node13&#45;&gt;Node10 -->
<g id="edge4" class="edge"><title>Node13&#45;&gt;Node10</title>
<path fill="none" stroke="midnightblue" d="M314.073,-64.6855C373.977,-61.6093 480.953,-56.1159 555.738,-52.2756"/>
<polygon fill="midnightblue" stroke="midnightblue" points="313.616,-61.2042 303.809,-65.2125 313.975,-68.195 313.616,-61.2042"/>
</g>
<!-- Node14 -->
<g id="node6" class="node"><title>Node14</title>
<g id="a_node6"><a xlink:href="interface_system_1_1_collections_1_1_i_collection.html" target="_top" xlink:title="Defines size, enumerators, and synchronization methods for all nongeneric collections.">
<polygon fill="none" stroke="black" points="391.5,-0.5 391.5,-19.5 453.5,-19.5 453.5,-0.5 391.5,-0.5"/>
<text text-anchor="middle" x="422.5" y="-7.5" font-family="Helvetica,sans-Serif" font-size="10.00">ICollection</text>
</a>
</g>
</g>
<!-- Node13&#45;&gt;Node14 -->
<g id="edge6" class="edge"><title>Node13&#45;&gt;Node14</title>
<path fill="none" stroke="midnightblue" d="M294.187,-52.4468C305.749,-46.1782 319.799,-39.1269 333,-34 351.995,-26.6229 374.12,-20.6229 391.496,-16.4672"/>
<polygon fill="midnightblue" stroke="midnightblue" points="292.179,-49.5578 285.132,-57.469 295.575,-55.6792 292.179,-49.5578"/>
</g>
<!-- Node13&#45;&gt;Node16 -->
<g id="edge13" class="edge"><title>Node13&#45;&gt;Node16</title>
<path fill="none" stroke="midnightblue" d="M291.054,-82.329C317.572,-100.761 362.193,-131.777 391.744,-152.317"/>
<polygon fill="midnightblue" stroke="midnightblue" points="293.011,-79.4273 282.802,-76.5937 289.016,-85.1752 293.011,-79.4273"/>
</g>
<!-- Node14&#45;&gt;Node9 -->
<g id="edge9" class="edge"><title>Node14&#45;&gt;Node9</title>
<path fill="none" stroke="midnightblue" d="M463.859,-7.50311C522.33,-5.00932 633.507,-4.51213 724,-29 757.204,-37.9852 792.087,-57.1859 814.274,-70.8155"/>
<polygon fill="midnightblue" stroke="midnightblue" points="463.396,-4.0209 453.571,-7.98641 463.724,-11.0132 463.396,-4.0209"/>
</g>
<!-- Node14&#45;&gt;Node10 -->
<g id="edge5" class="edge"><title>Node14&#45;&gt;Node10</title>
<path fill="none" stroke="midnightblue" d="M464.022,-17.1455C498.231,-23.1776 547.496,-31.8646 585.041,-38.4851"/>
<polygon fill="midnightblue" stroke="midnightblue" points="464.375,-13.6537 453.919,-15.3639 463.159,-20.5473 464.375,-13.6537"/>
</g>
<!-- Node15 -->
<g id="node7" class="node"><title>Node15</title>
<g id="a_node7"><a xlink:href="interface_system_1_1_collections_1_1_generic_1_1_i_read_only_collection.html" target="_top" xlink:title=" ">
<polygon fill="none" stroke="black" points="576,-135.5 576,-154.5 704,-154.5 704,-135.5 576,-135.5"/>
<text text-anchor="middle" x="640" y="-142.5" font-family="Helvetica,sans-Serif" font-size="10.00">IReadOnlyCollection&lt; T &gt;</text>
</a>
</g>
</g>
<!-- Node15&#45;&gt;Node9 -->
<g id="edge10" class="edge"><title>Node15&#45;&gt;Node9</title>
<path fill="none" stroke="midnightblue" d="M682.932,-132.41C713.524,-123.224 755.114,-110.737 787.447,-101.029"/>
<polygon fill="midnightblue" stroke="midnightblue" points="681.58,-129.161 673.008,-135.389 683.593,-135.866 681.58,-129.161"/>
</g>
<!-- Node16&#45;&gt;Node15 -->
<g id="edge11" class="edge"><title>Node16&#45;&gt;Node15</title>
<path fill="none" stroke="orange" stroke-dasharray="5,2" d="M503.281,-162.634C527.192,-159.527 553.077,-156.164 575.767,-153.216"/>
<polygon fill="orange" stroke="orange" points="502.635,-159.188 493.169,-163.948 503.537,-166.13 502.635,-159.188"/>
<text text-anchor="middle" x="524.5" y="-164" font-family="Helvetica,sans-Serif" font-size="10.00"> &lt; T &gt;</text>
</g>
</g>
</svg>
        <g id="navigator" transform="translate(0 0)" fill="#404254">
                <rect fill="#f2f5e9" fill-opacity="0.5" stroke="#606060" stroke-width=".5" x="0" y="0" width="60" height="60"/>
                <use id="zoomplus" xlink:href="#zoomPlus" x="17" y="9" onmousedown="handleZoom(evt,'in')"/>
                <use id="zoomminus" xlink:href="#zoomMin" x="42" y="9" onmousedown="handleZoom(evt,'out')"/>
                <use id="reset" xlink:href="#resetDef" x="30" y="36" onmousedown="handleReset()"/>
                <g id="arrowUp" xlink:href="#dirArrow" transform="translate(30 24)" onmousedown="handlePan(0,-1)">
                  <use xlink:href="#rim" fill="#404040">
                        <set attributeName="fill" to="#808080" begin="arrowUp.mouseover" end="arrowUp.mouseout"/>
                  </use>
                  <path fill="none" stroke="white" stroke-width="1.5" d="M0,-3.0v7 M-2.5,-0.5L0,-3.0L2.5,-0.5"/>
                </g>
                <g id="arrowRight" xlink:href="#dirArrow" transform="rotate(90) translate(36 -43)" onmousedown="handlePan(1,0)">
                  <use xlink:href="#rim" fill="#404040">
                        <set attributeName="fill" to="#808080" begin="arrowRight.mouseover" end="arrowRight.mouseout"/>
                  </use>
                  <path fill="none" stroke="white" stroke-width="1.5" d="M0,-3.0v7 M-2.5,-0.5L0,-3.0L2.5,-0.5"/>
                </g>
                <g id="arrowDown" xlink:href="#dirArrow" transform="rotate(180) translate(-30 -48)" onmousedown="handlePan(0,1)">
                  <use xlink:href="#rim" fill="#404040">
                        <set attributeName="fill" to="#808080" begin="arrowDown.mouseover" end="arrowDown.mouseout"/>
                  </use>
                  <path fill="none" stroke="white" stroke-width="1.5" d="M0,-3.0v7 M-2.5,-0.5L0,-3.0L2.5,-0.5"/>
                </g>
                <g id="arrowLeft" xlink:href="#dirArrow" transform="rotate(270) translate(-36 17)" onmousedown="handlePan(-1,0)">
                  <use xlink:href="#rim" fill="#404040">
                        <set attributeName="fill" to="#808080" begin="arrowLeft.mouseover" end="arrowLeft.mouseout"/>
                  </use>
                  <path fill="none" stroke="white" stroke-width="1.5" d="M0,-3.0v7 M-2.5,-0.5L0,-3.0L2.5,-0.5"/>
                </g>
        </g>
        <svg viewBox="0 0 15 15" width="100%" height="30px" preserveAspectRatio="xMaxYMin meet">
         <g id="arrow_out" transform="scale(0.3 0.3)">
          <a xlink:href="class_system_1_1_collections_1_1_concurrent_1_1_concurrent_queue__coll__graph_org.svg" target="_base">
           <rect id="button" ry="5" rx="5" y="6" x="6" height="38" width="38"
                fill="#f2f5e9" fill-opacity="0.5" stroke="#606060" stroke-width="1.0"/>
           <path id="arrow"
             d="M 11.500037,31.436501 C 11.940474,20.09759 22.043105,11.32322 32.158766,21.979434 L 37.068811,17.246167 C 37.068811,17.246167 37.088388,32 37.088388,32 L 22.160133,31.978069 C 22.160133,31.978069 26.997745,27.140456 26.997745,27.140456 C 18.528582,18.264221 13.291696,25.230495 11.500037,31.436501 z"
             style="fill:#404040;"/>
          </a>
         </g>
        </svg>
</svg>
