<?xml version="1.0" encoding="UTF-8" standalone="no"?>
<!DOCTYPE svg PUBLIC "-//W3C//DTD SVG 1.1//EN"
 "http://www.w3.org/Graphics/SVG/1.1/DTD/svg11.dtd">
<!-- Generated by graphviz version 2.38.0 (20140413.2041)
 -->
<!-- Title: System.Reflection.Emit.AssemblyBuilder Pages: 1 -->
<svg width="992pt" height="321pt"
 viewBox="0.00 0.00 992.00 321.00" xmlns="http://www.w3.org/2000/svg" xmlns:xlink="http://www.w3.org/1999/xlink">
<g id="graph0" class="graph" transform="scale(1 1) rotate(0) translate(4 317)">
<title>System.Reflection.Emit.AssemblyBuilder</title>
<!-- Node7 -->
<g id="node1" class="node"><title>Node7</title>
<g id="a_node1"><a xlink:title="Defines and represents a dynamic assembly.">
<polygon fill="#bfbfbf" stroke="black" points="818,-174 818,-204 984,-204 984,-174 818,-174"/>
<text text-anchor="start" x="826" y="-192" font-family="Helvetica,sans-Serif" font-size="10.00">System.Reflection.Emit.Assembly</text>
<text text-anchor="middle" x="901" y="-181" font-family="Helvetica,sans-Serif" font-size="10.00">Builder</text>
</a>
</g>
</g>
<!-- Node8 -->
<g id="node2" class="node"><title>Node8</title>
<g id="a_node2"><a xlink:href="class_system_1_1_reflection_1_1_assembly.html" target="_top" xlink:title="Represents an assembly, which is a reusable, versionable, and self&#45;describing building block of a com...">
<polygon fill="none" stroke="black" points="260.5,-255.5 260.5,-274.5 320.5,-274.5 320.5,-255.5 260.5,-255.5"/>
<text text-anchor="middle" x="290.5" y="-262.5" font-family="Helvetica,sans-Serif" font-size="10.00">Assembly</text>
</a>
</g>
</g>
<!-- Node8&#45;&gt;Node7 -->
<g id="edge1" class="edge"><title>Node8&#45;&gt;Node7</title>
<path fill="none" stroke="midnightblue" d="M331.05,-267.045C408.824,-270.245 586.819,-273.502 733,-246 780.118,-237.135 832.038,-217.807 865.28,-204.121"/>
<polygon fill="midnightblue" stroke="midnightblue" points="330.897,-263.535 320.754,-266.597 330.593,-270.528 330.897,-263.535"/>
</g>
<!-- Node9 -->
<g id="node3" class="node"><title>Node9</title>
<g id="a_node3"><a xlink:href="interface_system_1_1_runtime_1_1_interop_services_1_1___assembly.html" target="_top" xlink:title="Exposes the public members of the T:System.Reflection.Assembly class to unmanaged code.">
<polygon fill="none" stroke="black" points="29.5,-293.5 29.5,-312.5 94.5,-312.5 94.5,-293.5 29.5,-293.5"/>
<text text-anchor="middle" x="62" y="-300.5" font-family="Helvetica,sans-Serif" font-size="10.00">_Assembly</text>
</a>
</g>
</g>
<!-- Node9&#45;&gt;Node8 -->
<g id="edge2" class="edge"><title>Node9&#45;&gt;Node8</title>
<path fill="none" stroke="midnightblue" d="M104.845,-296.059C133.584,-291.284 172.608,-284.784 207,-279 224.765,-276.012 244.676,-272.634 260.486,-269.945"/>
<polygon fill="midnightblue" stroke="midnightblue" points="104.04,-292.645 94.749,-297.736 105.187,-299.55 104.04,-292.645"/>
</g>
<!-- Node10 -->
<g id="node4" class="node"><title>Node10</title>
<g id="a_node4"><a xlink:href="interface_system_1_1_security_1_1_i_evidence_factory.html" target="_top" xlink:title="Gets an object&#39;s T:System.Security.Policy.Evidence.">
<polygon fill="none" stroke="black" points="16.5,-255.5 16.5,-274.5 107.5,-274.5 107.5,-255.5 16.5,-255.5"/>
<text text-anchor="middle" x="62" y="-262.5" font-family="Helvetica,sans-Serif" font-size="10.00">IEvidenceFactory</text>
</a>
</g>
</g>
<!-- Node10&#45;&gt;Node8 -->
<g id="edge3" class="edge"><title>Node10&#45;&gt;Node8</title>
<path fill="none" stroke="midnightblue" d="M117.906,-265C162.764,-265 224.422,-265 260.311,-265"/>
<polygon fill="midnightblue" stroke="midnightblue" points="117.749,-261.5 107.749,-265 117.749,-268.5 117.749,-261.5"/>
</g>
<!-- Node11 -->
<g id="node5" class="node"><title>Node11</title>
<g id="a_node5"><a xlink:href="interface_system_1_1_reflection_1_1_i_custom_attribute_provider.html" target="_top" xlink:title="Provides custom attributes for reflection objects that support them.">
<polygon fill="none" stroke="black" points="0,-143.5 0,-162.5 124,-162.5 124,-143.5 0,-143.5"/>
<text text-anchor="middle" x="62" y="-150.5" font-family="Helvetica,sans-Serif" font-size="10.00">ICustomAttributeProvider</text>
</a>
</g>
</g>
<!-- Node11&#45;&gt;Node8 -->
<g id="edge4" class="edge"><title>Node11&#45;&gt;Node8</title>
<path fill="none" stroke="midnightblue" d="M85.7668,-168.375C116.333,-188.468 172.84,-223.713 225,-246 236.272,-250.816 249.148,-254.878 260.416,-257.994"/>
<polygon fill="midnightblue" stroke="midnightblue" points="87.4151,-165.268 77.1472,-162.657 83.5454,-171.101 87.4151,-165.268"/>
</g>
<!-- Node16 -->
<g id="node10" class="node"><title>Node16</title>
<g id="a_node10"><a xlink:href="class_system_1_1_reflection_1_1_member_info.html" target="_top" xlink:title="Obtains information about the attributes of a member and provides access to member metadata.">
<polygon fill="none" stroke="black" points="257,-217.5 257,-236.5 324,-236.5 324,-217.5 257,-217.5"/>
<text text-anchor="middle" x="290.5" y="-224.5" font-family="Helvetica,sans-Serif" font-size="10.00">MemberInfo</text>
</a>
</g>
</g>
<!-- Node11&#45;&gt;Node16 -->
<g id="edge10" class="edge"><title>Node11&#45;&gt;Node16</title>
<path fill="none" stroke="midnightblue" d="M134.141,-161.565C158.471,-166.699 185.06,-174.902 207,-188 217.268,-194.13 214.882,-201.625 225,-208 234.58,-214.036 246.161,-218.226 256.85,-221.102"/>
<polygon fill="midnightblue" stroke="midnightblue" points="134.719,-158.111 124.231,-159.612 133.366,-164.979 134.719,-158.111"/>
</g>
<!-- Node23 -->
<g id="node17" class="node"><title>Node23</title>
<g id="a_node17"><a xlink:href="class_system_1_1_reflection_1_1_module.html" target="_top" xlink:title="Performs reflection on a module.">
<polygon fill="none" stroke="black" points="225,-67.5 225,-86.5 356,-86.5 356,-67.5 225,-67.5"/>
<text text-anchor="middle" x="290.5" y="-74.5" font-family="Helvetica,sans-Serif" font-size="10.00">System.Reflection.Module</text>
</a>
</g>
</g>
<!-- Node11&#45;&gt;Node23 -->
<g id="edge21" class="edge"><title>Node11&#45;&gt;Node23</title>
<path fill="none" stroke="midnightblue" d="M107.906,-140.72C136.484,-132.628 174.162,-121.444 207,-110 227.685,-102.791 250.806,-93.4262 267.296,-86.5151"/>
<polygon fill="midnightblue" stroke="midnightblue" points="106.88,-137.373 98.2008,-143.449 108.775,-144.111 106.88,-137.373"/>
</g>
<!-- Node12 -->
<g id="node6" class="node"><title>Node12</title>
<g id="a_node6"><a xlink:href="interface_system_1_1_runtime_1_1_serialization_1_1_i_serializable.html" target="_top" xlink:title="Allows an object to control its own serialization and deserialization.">
<polygon fill="none" stroke="black" points="27.5,-105.5 27.5,-124.5 96.5,-124.5 96.5,-105.5 27.5,-105.5"/>
<text text-anchor="middle" x="62" y="-112.5" font-family="Helvetica,sans-Serif" font-size="10.00">ISerializable</text>
</a>
</g>
</g>
<!-- Node12&#45;&gt;Node8 -->
<g id="edge5" class="edge"><title>Node12&#45;&gt;Node8</title>
<path fill="none" stroke="midnightblue" d="M106.114,-126.22C112.268,-128.451 118.403,-131.037 124,-134 165.653,-156.05 179.006,-162.085 207,-200 220.04,-217.662 208.819,-231.162 225,-246 234.636,-254.837 248.186,-259.578 260.381,-262.116"/>
<polygon fill="midnightblue" stroke="midnightblue" points="107.096,-122.858 96.5024,-123.005 104.876,-129.497 107.096,-122.858"/>
</g>
<!-- Node12&#45;&gt;Node23 -->
<g id="edge20" class="edge"><title>Node12&#45;&gt;Node23</title>
<path fill="none" stroke="midnightblue" d="M107.044,-107.611C142.831,-101.607 193.57,-93.0942 232.461,-86.5695"/>
<polygon fill="midnightblue" stroke="midnightblue" points="106.192,-104.205 96.9093,-109.311 107.351,-111.108 106.192,-104.205"/>
</g>
<!-- Node13 -->
<g id="node7" class="node"><title>Node13</title>
<g id="a_node7"><a xlink:href="interface_system_1_1_runtime_1_1_interop_services_1_1___assembly_builder.html" target="_top" xlink:title="Exposes the T:System.Reflection.Emit.AssemblyBuilder class to unmanaged code.">
<polygon fill="none" stroke="black" points="605,-217.5 605,-236.5 700,-236.5 700,-217.5 605,-217.5"/>
<text text-anchor="middle" x="652.5" y="-224.5" font-family="Helvetica,sans-Serif" font-size="10.00">_AssemblyBuilder</text>
</a>
</g>
</g>
<!-- Node13&#45;&gt;Node7 -->
<g id="edge6" class="edge"><title>Node13&#45;&gt;Node7</title>
<path fill="none" stroke="midnightblue" d="M710.178,-218.263C742.018,-213.354 782.327,-207.14 817.602,-201.702"/>
<polygon fill="midnightblue" stroke="midnightblue" points="709.505,-214.825 700.155,-219.808 710.571,-221.743 709.505,-214.825"/>
</g>
<!-- Node14 -->
<g id="node8" class="node"><title>Node14</title>
<g id="a_node8"><a xlink:href="class_system_1_1_reflection_1_1_method_info.html" target="_top" xlink:title="Discovers the attributes of a method and provides access to method metadata.">
<polygon fill="none" stroke="black" points="579.5,-179.5 579.5,-198.5 725.5,-198.5 725.5,-179.5 579.5,-179.5"/>
<text text-anchor="middle" x="652.5" y="-186.5" font-family="Helvetica,sans-Serif" font-size="10.00">System.Reflection.MethodInfo</text>
</a>
</g>
</g>
<!-- Node14&#45;&gt;Node7 -->
<g id="edge7" class="edge"><title>Node14&#45;&gt;Node7</title>
<path fill="none" stroke="#9a32cd" stroke-dasharray="5,2" d="M736.104,-189C762.399,-189 791.474,-189 817.744,-189"/>
<polygon fill="#9a32cd" stroke="#9a32cd" points="735.793,-185.5 725.793,-189 735.793,-192.5 735.793,-185.5"/>
<text text-anchor="middle" x="775.5" y="-192" font-family="Helvetica,sans-Serif" font-size="10.00"> EntryPoint</text>
</g>
<!-- Node15 -->
<g id="node9" class="node"><title>Node15</title>
<g id="a_node9"><a xlink:href="class_system_1_1_reflection_1_1_method_base.html" target="_top" xlink:title="Provides information about methods and constructors.">
<polygon fill="none" stroke="black" points="393,-217.5 393,-236.5 464,-236.5 464,-217.5 393,-217.5"/>
<text text-anchor="middle" x="428.5" y="-224.5" font-family="Helvetica,sans-Serif" font-size="10.00">MethodBase</text>
</a>
</g>
</g>
<!-- Node15&#45;&gt;Node14 -->
<g id="edge8" class="edge"><title>Node15&#45;&gt;Node14</title>
<path fill="none" stroke="midnightblue" d="M474.144,-219.358C509.226,-213.353 558.281,-204.956 595.91,-198.515"/>
<polygon fill="midnightblue" stroke="midnightblue" points="473.454,-215.925 464.188,-221.063 474.635,-222.825 473.454,-215.925"/>
</g>
<!-- Node16&#45;&gt;Node15 -->
<g id="edge9" class="edge"><title>Node16&#45;&gt;Node15</title>
<path fill="none" stroke="midnightblue" d="M334.202,-227C353.072,-227 374.974,-227 392.813,-227"/>
<polygon fill="midnightblue" stroke="midnightblue" points="334.075,-223.5 324.075,-227 334.075,-230.5 334.075,-223.5"/>
</g>
<!-- Node17 -->
<g id="node11" class="node"><title>Node17</title>
<g id="a_node11"><a xlink:href="interface_system_1_1_runtime_1_1_interop_services_1_1___member_info.html" target="_top" xlink:title="Exposes the public members of the T:System.Reflection.MemberInfo class to unmanaged code.">
<polygon fill="none" stroke="black" points="26,-217.5 26,-236.5 98,-236.5 98,-217.5 26,-217.5"/>
<text text-anchor="middle" x="62" y="-224.5" font-family="Helvetica,sans-Serif" font-size="10.00">_MemberInfo</text>
</a>
</g>
</g>
<!-- Node17&#45;&gt;Node16 -->
<g id="edge11" class="edge"><title>Node17&#45;&gt;Node16</title>
<path fill="none" stroke="midnightblue" d="M108.523,-227C152.482,-227 217.959,-227 256.928,-227"/>
<polygon fill="midnightblue" stroke="midnightblue" points="108.391,-223.5 98.3906,-227 108.391,-230.5 108.391,-223.5"/>
</g>
<!-- Node18 -->
<g id="node12" class="node"><title>Node18</title>
<g id="a_node12"><a xlink:href="interface_system_1_1_runtime_1_1_interop_services_1_1___method_base.html" target="_top" xlink:title="Exposes the public members of the T:System.Reflection.MethodBase class to unmanaged code.">
<polygon fill="none" stroke="black" points="252,-179.5 252,-198.5 329,-198.5 329,-179.5 252,-179.5"/>
<text text-anchor="middle" x="290.5" y="-186.5" font-family="Helvetica,sans-Serif" font-size="10.00">_MethodBase</text>
</a>
</g>
</g>
<!-- Node18&#45;&gt;Node15 -->
<g id="edge12" class="edge"><title>Node18&#45;&gt;Node15</title>
<path fill="none" stroke="midnightblue" d="M335.587,-201.318C354.272,-206.539 375.718,-212.532 393.192,-217.414"/>
<polygon fill="midnightblue" stroke="midnightblue" points="336.392,-197.909 325.819,-198.589 334.508,-204.651 336.392,-197.909"/>
</g>
<!-- Node19 -->
<g id="node13" class="node"><title>Node19</title>
<g id="a_node13"><a xlink:href="interface_system_1_1_runtime_1_1_interop_services_1_1___method_info.html" target="_top" xlink:title="Exposes the public members of the T:System.Reflection.MethodInfo class to unmanaged code.">
<polygon fill="none" stroke="black" points="394,-179.5 394,-198.5 463,-198.5 463,-179.5 394,-179.5"/>
<text text-anchor="middle" x="428.5" y="-186.5" font-family="Helvetica,sans-Serif" font-size="10.00">_MethodInfo</text>
</a>
</g>
</g>
<!-- Node19&#45;&gt;Node14 -->
<g id="edge13" class="edge"><title>Node19&#45;&gt;Node14</title>
<path fill="none" stroke="midnightblue" d="M473.422,-189C503.597,-189 544.354,-189 579.262,-189"/>
<polygon fill="midnightblue" stroke="midnightblue" points="473.217,-185.5 463.217,-189 473.217,-192.5 473.217,-185.5"/>
</g>
<!-- Node20 -->
<g id="node14" class="node"><title>Node20</title>
<g id="a_node14"><a xlink:href="class_system_1_1_security_1_1_policy_1_1_evidence.html" target="_top" xlink:title="Defines the set of information that constitutes input to security policy decisions....">
<polygon fill="none" stroke="black" points="572,-141.5 572,-160.5 733,-160.5 733,-141.5 572,-141.5"/>
<text text-anchor="middle" x="652.5" y="-148.5" font-family="Helvetica,sans-Serif" font-size="10.00">System.Security.Policy.Evidence</text>
</a>
</g>
</g>
<!-- Node20&#45;&gt;Node7 -->
<g id="edge14" class="edge"><title>Node20&#45;&gt;Node7</title>
<path fill="none" stroke="#9a32cd" stroke-dasharray="5,2" d="M725.394,-162.083C754.271,-166.535 787.728,-171.692 817.582,-176.295"/>
<polygon fill="#9a32cd" stroke="#9a32cd" points="725.801,-158.604 715.384,-160.54 724.734,-165.523 725.801,-158.604"/>
<text text-anchor="middle" x="775.5" y="-176" font-family="Helvetica,sans-Serif" font-size="10.00"> Evidence</text>
</g>
<!-- Node21 -->
<g id="node15" class="node"><title>Node21</title>
<g id="a_node15"><a xlink:href="interface_system_1_1_collections_1_1_i_collection.html" target="_top" xlink:title="Defines size, enumerators, and synchronization methods for all nongeneric collections.">
<polygon fill="none" stroke="black" points="397.5,-141.5 397.5,-160.5 459.5,-160.5 459.5,-141.5 397.5,-141.5"/>
<text text-anchor="middle" x="428.5" y="-148.5" font-family="Helvetica,sans-Serif" font-size="10.00">ICollection</text>
</a>
</g>
</g>
<!-- Node21&#45;&gt;Node20 -->
<g id="edge15" class="edge"><title>Node21&#45;&gt;Node20</title>
<path fill="none" stroke="midnightblue" d="M470.24,-151C498.623,-151 537.412,-151 571.826,-151"/>
<polygon fill="midnightblue" stroke="midnightblue" points="469.903,-147.5 459.903,-151 469.903,-154.5 469.903,-147.5"/>
</g>
<!-- Node22 -->
<g id="node16" class="node"><title>Node22</title>
<g id="a_node16"><a xlink:href="interface_system_1_1_collections_1_1_i_enumerable.html" target="_top" xlink:title="Exposes an enumerator, which supports a simple iteration over a non&#45;generic collection....">
<polygon fill="none" stroke="black" points="255,-123.5 255,-142.5 326,-142.5 326,-123.5 255,-123.5"/>
<text text-anchor="middle" x="290.5" y="-130.5" font-family="Helvetica,sans-Serif" font-size="10.00">IEnumerable</text>
</a>
</g>
</g>
<!-- Node22&#45;&gt;Node20 -->
<g id="edge17" class="edge"><title>Node22&#45;&gt;Node20</title>
<path fill="none" stroke="midnightblue" d="M336.304,-132.464C353.969,-132.277 374.439,-132.091 393,-132 424.555,-131.845 432.485,-130.407 464,-132 500.598,-133.85 541.062,-137.717 575.003,-141.484"/>
<polygon fill="midnightblue" stroke="midnightblue" points="336.223,-128.964 326.262,-132.573 336.299,-135.964 336.223,-128.964"/>
</g>
<!-- Node22&#45;&gt;Node21 -->
<g id="edge16" class="edge"><title>Node22&#45;&gt;Node21</title>
<path fill="none" stroke="midnightblue" d="M336.274,-138.926C356.205,-141.564 379.162,-144.602 397.06,-146.971"/>
<polygon fill="midnightblue" stroke="midnightblue" points="336.543,-135.431 326.17,-137.589 335.625,-142.371 336.543,-135.431"/>
</g>
<!-- Node23&#45;&gt;Node7 -->
<g id="edge18" class="edge"><title>Node23&#45;&gt;Node7</title>
<path fill="none" stroke="#9a32cd" stroke-dasharray="5,2" d="M366.407,-81.6345C454.893,-88.1853 606.113,-102.768 733,-132 778.825,-142.557 829.737,-160.947 863.161,-173.981"/>
<polygon fill="#9a32cd" stroke="#9a32cd" points="366.424,-78.1266 356.196,-80.8937 365.917,-85.1082 366.424,-78.1266"/>
<text text-anchor="middle" x="518" y="-103" font-family="Helvetica,sans-Serif" font-size="10.00"> ManifestModule</text>
</g>
<!-- Node24 -->
<g id="node18" class="node"><title>Node24</title>
<g id="a_node18"><a xlink:href="interface_system_1_1_runtime_1_1_interop_services_1_1___module.html" target="_top" xlink:title="Exposes the T:System.Reflection.Module class to unmanaged code.">
<polygon fill="none" stroke="black" points="35.5,-67.5 35.5,-86.5 88.5,-86.5 88.5,-67.5 35.5,-67.5"/>
<text text-anchor="middle" x="62" y="-74.5" font-family="Helvetica,sans-Serif" font-size="10.00">_Module</text>
</a>
</g>
</g>
<!-- Node24&#45;&gt;Node23 -->
<g id="edge19" class="edge"><title>Node24&#45;&gt;Node23</title>
<path fill="none" stroke="midnightblue" d="M98.8587,-77C132.651,-77 184.065,-77 224.987,-77"/>
<polygon fill="midnightblue" stroke="midnightblue" points="98.5422,-73.5001 88.5421,-77 98.5421,-80.5001 98.5422,-73.5001"/>
</g>
<!-- Node25 -->
<g id="node19" class="node"><title>Node25</title>
<g id="a_node19"><a xlink:href="struct_system_1_1_module_handle.html" target="_top" xlink:title="Represents a runtime handle for a module.">
<polygon fill="none" stroke="black" points="4.5,-0.5 4.5,-19.5 119.5,-19.5 119.5,-0.5 4.5,-0.5"/>
<text text-anchor="middle" x="62" y="-7.5" font-family="Helvetica,sans-Serif" font-size="10.00">System.ModuleHandle</text>
</a>
</g>
</g>
<!-- Node25&#45;&gt;Node23 -->
<g id="edge22" class="edge"><title>Node25&#45;&gt;Node23</title>
<path fill="none" stroke="#9a32cd" stroke-dasharray="5,2" d="M105.272,-22.5042C149.262,-35.5168 217.19,-55.6104 257.108,-67.4183"/>
<polygon fill="#9a32cd" stroke="#9a32cd" points="106.034,-19.0799 95.4519,-19.5995 104.048,-25.7923 106.034,-19.0799"/>
<text text-anchor="middle" x="174.5" y="-55" font-family="Helvetica,sans-Serif" font-size="10.00"> ModuleHandle</text>
</g>
<!-- Node25&#45;&gt;Node25 -->
<g id="edge23" class="edge"><title>Node25&#45;&gt;Node25</title>
<path fill="none" stroke="#9a32cd" stroke-dasharray="5,2" d="M41.2603,-29.4C42.6454,-34.3146 49.5586,-38 62,-38 81.9063,-38 87.6604,-28.5653 79.2625,-19.7571"/>
<polygon fill="#9a32cd" stroke="#9a32cd" points="44.6378,-30.3514 44.7375,-19.7571 38.0528,-27.9768 44.6378,-30.3514"/>
<text text-anchor="middle" x="62" y="-41" font-family="Helvetica,sans-Serif" font-size="10.00"> EmptyHandle</text>
</g>
</g>
</svg>
