<?xml version="1.0" encoding="UTF-8" standalone="no"?>
<!DOCTYPE svg PUBLIC "-//W3C//DTD SVG 1.1//EN"
 "http://www.w3.org/Graphics/SVG/1.1/DTD/svg11.dtd">
<!-- Generated by graphviz version 2.38.0 (20140413.2041)
 -->
<!-- Title: System.Security.Cryptography.X509Certificates.X509Chain Pages: 1 -->
<svg width="438pt" height="88pt"
 viewBox="0.00 0.00 438.00 88.00" xmlns="http://www.w3.org/2000/svg" xmlns:xlink="http://www.w3.org/1999/xlink">
<g id="graph0" class="graph" transform="scale(1 1) rotate(0) translate(4 84)">
<title>System.Security.Cryptography.X509Certificates.X509Chain</title>
<!-- Node2 -->
<g id="node1" class="node"><title>Node2</title>
<g id="a_node1"><a xlink:title="Represents a chain&#45;building engine for T:System.Security.Cryptography.X509Certificates....">
<polygon fill="#bfbfbf" stroke="black" points="277,-30 277,-60 430,-60 430,-30 277,-30"/>
<text text-anchor="start" x="285" y="-48" font-family="Helvetica,sans-Serif" font-size="10.00">System.Security.Cryptography.</text>
<text text-anchor="middle" x="353.5" y="-37" font-family="Helvetica,sans-Serif" font-size="10.00">X509Certificates.X509Chain</text>
</a>
</g>
</g>
<!-- Node3 -->
<g id="node2" class="node"><title>Node3</title>
<g id="a_node2"><a xlink:href="interface_system_1_1_i_disposable.html" target="_top" xlink:title="Provides a mechanism for releasing unmanaged resources.To browse the .NET Framework source code for t...">
<polygon fill="none" stroke="black" points="52,-60.5 52,-79.5 119,-79.5 119,-60.5 52,-60.5"/>
<text text-anchor="middle" x="85.5" y="-67.5" font-family="Helvetica,sans-Serif" font-size="10.00">IDisposable</text>
</a>
</g>
</g>
<!-- Node3&#45;&gt;Node2 -->
<g id="edge1" class="edge"><title>Node3&#45;&gt;Node2</title>
<path fill="none" stroke="midnightblue" d="M129.261,-65.9811C169.007,-62.2455 229.102,-56.5976 276.931,-52.1023"/>
<polygon fill="midnightblue" stroke="midnightblue" points="128.745,-62.5141 119.117,-66.9345 129.4,-69.4833 128.745,-62.5141"/>
</g>
<!-- Node4 -->
<g id="node3" class="node"><title>Node4</title>
<g id="a_node3"><a xlink:href="class_system_1_1_security_1_1_cryptography_1_1_x509_certificates_1_1_x509_chain_element_collection.html" target="_top" xlink:title="Represents a collection of T:System.Security.Cryptography.X509Certificates.X509ChainElement objects....">
<polygon fill="none" stroke="red" points="0,-0.5 0,-41.5 171,-41.5 171,-0.5 0,-0.5"/>
<text text-anchor="start" x="8" y="-29.5" font-family="Helvetica,sans-Serif" font-size="10.00">System.Security.Cryptography.</text>
<text text-anchor="start" x="8" y="-18.5" font-family="Helvetica,sans-Serif" font-size="10.00">X509Certificates.X509ChainElement</text>
<text text-anchor="middle" x="85.5" y="-7.5" font-family="Helvetica,sans-Serif" font-size="10.00">Collection</text>
</a>
</g>
</g>
<!-- Node4&#45;&gt;Node2 -->
<g id="edge2" class="edge"><title>Node4&#45;&gt;Node2</title>
<path fill="none" stroke="#9a32cd" stroke-dasharray="5,2" d="M181.098,-29.5351C212.476,-32.3663 246.974,-35.4788 276.743,-38.1648"/>
<polygon fill="#9a32cd" stroke="#9a32cd" points="181.304,-26.0396 171.03,-28.6267 180.675,-33.0113 181.304,-26.0396"/>
<text text-anchor="middle" x="224" y="-39" font-family="Helvetica,sans-Serif" font-size="10.00"> ChainElements</text>
</g>
</g>
</svg>
