<?xml version="1.0" encoding="UTF-8" standalone="no"?>
<!DOCTYPE svg PUBLIC "-//W3C//DTD SVG 1.1//EN"
 "http://www.w3.org/Graphics/SVG/1.1/DTD/svg11.dtd">
<!-- Generated by graphviz version 2.38.0 (20140413.2041)
 -->
<!-- Title: System.IO.IOException Pages: 1 -->
<svg width="667pt" height="230pt"
 viewBox="0.00 0.00 667.00 229.50" xmlns="http://www.w3.org/2000/svg" xmlns:xlink="http://www.w3.org/1999/xlink">
<g id="graph0" class="graph" transform="scale(1 1) rotate(0) translate(4 225.5)">
<title>System.IO.IOException</title>
<!-- Node0 -->
<g id="node1" class="node"><title>Node0</title>
<g id="a_node1"><a xlink:title="The exception that is thrown when an I/O error occurs.">
<polygon fill="#bfbfbf" stroke="black" points="331,-95.5 331,-114.5 450,-114.5 450,-95.5 331,-95.5"/>
<text text-anchor="middle" x="390.5" y="-102.5" font-family="Helvetica,sans-Serif" font-size="10.00">System.IO.IOException</text>
</a>
</g>
</g>
<!-- Node5 -->
<g id="node6" class="node"><title>Node5</title>
<g id="a_node6"><a xlink:href="class_system_1_1_i_o_1_1_directory_not_found_exception.html" target="_top" xlink:title="The exception that is thrown when part of a file or directory cannot be found.">
<polygon fill="none" stroke="black" points="499,-191 499,-221 646,-221 646,-191 499,-191"/>
<text text-anchor="start" x="507" y="-209" font-family="Helvetica,sans-Serif" font-size="10.00">System.IO.DirectoryNotFound</text>
<text text-anchor="middle" x="572.5" y="-198" font-family="Helvetica,sans-Serif" font-size="10.00">Exception</text>
</a>
</g>
</g>
<!-- Node0&#45;&gt;Node5 -->
<g id="edge5" class="edge"><title>Node0&#45;&gt;Node5</title>
<path fill="none" stroke="midnightblue" d="M408.082,-121.782C425.89,-138.926 455.731,-165.207 486,-181 493.267,-184.792 501.19,-188.085 509.185,-190.923"/>
<polygon fill="midnightblue" stroke="midnightblue" points="410.374,-119.128 400.787,-114.618 405.47,-124.122 410.374,-119.128"/>
</g>
<!-- Node6 -->
<g id="node7" class="node"><title>Node6</title>
<g id="a_node7"><a xlink:href="class_system_1_1_i_o_1_1_drive_not_found_exception.html" target="_top" xlink:title="The exception that is thrown when trying to access a drive or share that is not available.">
<polygon fill="none" stroke="black" points="486,-152.5 486,-171.5 659,-171.5 659,-152.5 486,-152.5"/>
<text text-anchor="middle" x="572.5" y="-159.5" font-family="Helvetica,sans-Serif" font-size="10.00">System.IO.DriveNotFoundException</text>
</a>
</g>
</g>
<!-- Node0&#45;&gt;Node6 -->
<g id="edge6" class="edge"><title>Node0&#45;&gt;Node6</title>
<path fill="none" stroke="midnightblue" d="M421.816,-118.666C440.13,-126.549 464.094,-136.212 486,-143 497.474,-146.556 510.009,-149.726 521.857,-152.411"/>
<polygon fill="midnightblue" stroke="midnightblue" points="423.098,-115.407 412.533,-114.615 420.299,-121.823 423.098,-115.407"/>
</g>
<!-- Node7 -->
<g id="node8" class="node"><title>Node7</title>
<g id="a_node8"><a xlink:href="class_system_1_1_i_o_1_1_end_of_stream_exception.html" target="_top" xlink:title="The exception that is thrown when reading is attempted past the end of a stream.">
<polygon fill="none" stroke="black" points="488.5,-114.5 488.5,-133.5 656.5,-133.5 656.5,-114.5 488.5,-114.5"/>
<text text-anchor="middle" x="572.5" y="-121.5" font-family="Helvetica,sans-Serif" font-size="10.00">System.IO.EndOfStreamException</text>
</a>
</g>
</g>
<!-- Node0&#45;&gt;Node7 -->
<g id="edge7" class="edge"><title>Node0&#45;&gt;Node7</title>
<path fill="none" stroke="midnightblue" d="M460.534,-112.287C469.607,-113.245 478.981,-114.234 488.259,-115.213"/>
<polygon fill="midnightblue" stroke="midnightblue" points="460.751,-108.79 450.439,-111.221 460.016,-115.752 460.751,-108.79"/>
</g>
<!-- Node8 -->
<g id="node9" class="node"><title>Node8</title>
<g id="a_node9"><a xlink:href="class_system_1_1_i_o_1_1_file_load_exception.html" target="_top" xlink:title="The exception that is thrown when a managed assembly is found but cannot be loaded.">
<polygon fill="none" stroke="black" points="499.5,-76.5 499.5,-95.5 645.5,-95.5 645.5,-76.5 499.5,-76.5"/>
<text text-anchor="middle" x="572.5" y="-83.5" font-family="Helvetica,sans-Serif" font-size="10.00">System.IO.FileLoadException</text>
</a>
</g>
</g>
<!-- Node0&#45;&gt;Node8 -->
<g id="edge8" class="edge"><title>Node0&#45;&gt;Node8</title>
<path fill="none" stroke="midnightblue" d="M460.469,-97.7199C473.16,-96.3803 486.442,-94.9783 499.227,-93.6288"/>
<polygon fill="midnightblue" stroke="midnightblue" points="460.016,-94.2482 450.439,-98.7787 460.751,-101.21 460.016,-94.2482"/>
</g>
<!-- Node9 -->
<g id="node10" class="node"><title>Node9</title>
<g id="a_node10"><a xlink:href="class_system_1_1_i_o_1_1_file_not_found_exception.html" target="_top" xlink:title="The exception that is thrown when an attempt to access a file that does not exist on disk fails.">
<polygon fill="none" stroke="black" points="489,-38.5 489,-57.5 656,-57.5 656,-38.5 489,-38.5"/>
<text text-anchor="middle" x="572.5" y="-45.5" font-family="Helvetica,sans-Serif" font-size="10.00">System.IO.FileNotFoundException</text>
</a>
</g>
</g>
<!-- Node0&#45;&gt;Node9 -->
<g id="edge9" class="edge"><title>Node0&#45;&gt;Node9</title>
<path fill="none" stroke="midnightblue" d="M421.816,-91.3341C440.13,-83.4512 464.094,-73.7882 486,-67 497.474,-63.4443 510.009,-60.2738 521.857,-57.5893"/>
<polygon fill="midnightblue" stroke="midnightblue" points="420.299,-88.1773 412.533,-95.3847 423.098,-94.593 420.299,-88.1773"/>
</g>
<!-- Node10 -->
<g id="node11" class="node"><title>Node10</title>
<g id="a_node11"><a xlink:href="class_system_1_1_i_o_1_1_path_too_long_exception.html" target="_top" xlink:title="The exception that is thrown when a path or fully qualified file name is longer than the system&#45;defin...">
<polygon fill="none" stroke="black" points="489,-0.5 489,-19.5 656,-19.5 656,-0.5 489,-0.5"/>
<text text-anchor="middle" x="572.5" y="-7.5" font-family="Helvetica,sans-Serif" font-size="10.00">System.IO.PathTooLongException</text>
</a>
</g>
</g>
<!-- Node0&#45;&gt;Node10 -->
<g id="edge10" class="edge"><title>Node0&#45;&gt;Node10</title>
<path fill="none" stroke="midnightblue" d="M407.597,-88.0928C425.204,-70.6217 455.063,-43.8677 486,-29 494.086,-25.114 502.986,-22.0099 511.896,-19.5339"/>
<polygon fill="midnightblue" stroke="midnightblue" points="404.933,-85.8101 400.409,-95.3908 409.92,-90.7219 404.933,-85.8101"/>
</g>
<!-- Node1 -->
<g id="node2" class="node"><title>Node1</title>
<g id="a_node2"><a xlink:href="class_system_1_1_system_exception.html" target="_top" xlink:title="Serves as the base class for system exceptions namespace.">
<polygon fill="none" stroke="black" points="201,-95.5 201,-114.5 295,-114.5 295,-95.5 201,-95.5"/>
<text text-anchor="middle" x="248" y="-102.5" font-family="Helvetica,sans-Serif" font-size="10.00">SystemException</text>
</a>
</g>
</g>
<!-- Node1&#45;&gt;Node0 -->
<g id="edge1" class="edge"><title>Node1&#45;&gt;Node0</title>
<path fill="none" stroke="midnightblue" d="M305.14,-105C313.593,-105 322.33,-105 330.834,-105"/>
<polygon fill="midnightblue" stroke="midnightblue" points="305.005,-101.5 295.005,-105 305.005,-108.5 305.005,-101.5"/>
</g>
<!-- Node2 -->
<g id="node3" class="node"><title>Node2</title>
<g id="a_node3"><a xlink:href="class_system_1_1_exception.html" target="_top" xlink:title="Represents errors that occur during application execution.To browse the .NET Framework source code fo...">
<polygon fill="none" stroke="black" points="105,-95.5 105,-114.5 165,-114.5 165,-95.5 105,-95.5"/>
<text text-anchor="middle" x="135" y="-102.5" font-family="Helvetica,sans-Serif" font-size="10.00">Exception</text>
</a>
</g>
</g>
<!-- Node2&#45;&gt;Node1 -->
<g id="edge2" class="edge"><title>Node2&#45;&gt;Node1</title>
<path fill="none" stroke="midnightblue" d="M175.295,-105C183.565,-105 192.361,-105 200.855,-105"/>
<polygon fill="midnightblue" stroke="midnightblue" points="175.164,-101.5 165.164,-105 175.164,-108.5 175.164,-101.5"/>
</g>
<!-- Node3 -->
<g id="node4" class="node"><title>Node3</title>
<g id="a_node4"><a xlink:href="interface_system_1_1_runtime_1_1_serialization_1_1_i_serializable.html" target="_top" xlink:title="Allows an object to control its own serialization and deserialization.">
<polygon fill="none" stroke="black" points="0,-114.5 0,-133.5 69,-133.5 69,-114.5 0,-114.5"/>
<text text-anchor="middle" x="34.5" y="-121.5" font-family="Helvetica,sans-Serif" font-size="10.00">ISerializable</text>
</a>
</g>
</g>
<!-- Node3&#45;&gt;Node2 -->
<g id="edge3" class="edge"><title>Node3&#45;&gt;Node2</title>
<path fill="none" stroke="midnightblue" d="M79.1435,-115.581C87.8281,-113.906 96.7483,-112.186 104.805,-110.632"/>
<polygon fill="midnightblue" stroke="midnightblue" points="78.2787,-112.184 69.1226,-117.514 79.6046,-119.057 78.2787,-112.184"/>
</g>
<!-- Node4 -->
<g id="node5" class="node"><title>Node4</title>
<g id="a_node5"><a xlink:href="interface_system_1_1_runtime_1_1_interop_services_1_1___exception.html" target="_top" xlink:title="Exposes the public members of the T:System.Exception class to unmanaged code.">
<polygon fill="none" stroke="black" points="2,-76.5 2,-95.5 67,-95.5 67,-76.5 2,-76.5"/>
<text text-anchor="middle" x="34.5" y="-83.5" font-family="Helvetica,sans-Serif" font-size="10.00">_Exception</text>
</a>
</g>
</g>
<!-- Node4&#45;&gt;Node2 -->
<g id="edge4" class="edge"><title>Node4&#45;&gt;Node2</title>
<path fill="none" stroke="midnightblue" d="M77.0745,-94.0195C86.3615,-95.8109 96.0219,-97.6743 104.691,-99.3464"/>
<polygon fill="midnightblue" stroke="midnightblue" points="77.6901,-90.5738 67.2082,-92.1163 76.3643,-97.4471 77.6901,-90.5738"/>
</g>
</g>
</svg>
