<?xml version="1.0" encoding="UTF-8" standalone="no"?>
<!DOCTYPE svg PUBLIC "-//W3C//DTD SVG 1.1//EN"
 "http://www.w3.org/Graphics/SVG/1.1/DTD/svg11.dtd">
<!-- Generated by graphviz version 2.38.0 (20140413.2041)
 -->
<!-- Title: System.Reflection.MethodInfo Pages: 1 -->
<svg width="731pt" height="284pt"
 viewBox="0.00 0.00 731.00 284.00" xmlns="http://www.w3.org/2000/svg" xmlns:xlink="http://www.w3.org/1999/xlink">
<g id="graph0" class="graph" transform="scale(1 1) rotate(0) translate(4 280)">
<title>System.Reflection.MethodInfo</title>
<!-- Node0 -->
<g id="node1" class="node"><title>Node0</title>
<g id="a_node1"><a xlink:title="Discovers the attributes of a method and provides access to method metadata.">
<polygon fill="#bfbfbf" stroke="black" points="380,-128 380,-147 526,-147 526,-128 380,-128"/>
<text text-anchor="middle" x="453" y="-135" font-family="Helvetica,sans-Serif" font-size="10.00">System.Reflection.MethodInfo</text>
</a>
</g>
</g>
<!-- Node7 -->
<g id="node8" class="node"><title>Node7</title>
<g id="a_node8"><a xlink:href="class_system_1_1_reflection_1_1_emit_1_1_dynamic_method.html" target="_top" xlink:title="Defines and represents a dynamic method that can be compiled, executed, and discarded....">
<polygon fill="none" stroke="black" points="562,-245.5 562,-275.5 723,-275.5 723,-245.5 562,-245.5"/>
<text text-anchor="start" x="570" y="-263.5" font-family="Helvetica,sans-Serif" font-size="10.00">System.Reflection.Emit.Dynamic</text>
<text text-anchor="middle" x="642.5" y="-252.5" font-family="Helvetica,sans-Serif" font-size="10.00">Method</text>
</a>
</g>
</g>
<!-- Node0&#45;&gt;Node7 -->
<g id="edge7" class="edge"><title>Node0&#45;&gt;Node7</title>
<path fill="none" stroke="midnightblue" d="M468.627,-155.094C487.869,-177.158 523.753,-214.724 562,-236.5 568.014,-239.924 574.568,-242.908 581.247,-245.496"/>
<polygon fill="midnightblue" stroke="midnightblue" points="471.036,-152.526 461.877,-147.201 465.716,-157.076 471.036,-152.526"/>
</g>
<!-- Node8 -->
<g id="node9" class="node"><title>Node8</title>
<g id="a_node9"><a xlink:href="class_system_1_1_reflection_1_1_emit_1_1_method_builder.html" target="_top" xlink:title="Defines and represents a method (or constructor) on a dynamic class.">
<polygon fill="none" stroke="black" points="565,-196.5 565,-226.5 720,-226.5 720,-196.5 565,-196.5"/>
<text text-anchor="start" x="573" y="-214.5" font-family="Helvetica,sans-Serif" font-size="10.00">System.Reflection.Emit.Method</text>
<text text-anchor="middle" x="642.5" y="-203.5" font-family="Helvetica,sans-Serif" font-size="10.00">Builder</text>
</a>
</g>
</g>
<!-- Node0&#45;&gt;Node8 -->
<g id="edge8" class="edge"><title>Node0&#45;&gt;Node8</title>
<path fill="none" stroke="midnightblue" d="M481.98,-151.775C503.514,-162.436 534.199,-176.928 562,-187.5 570.22,-190.626 579.037,-193.625 587.699,-196.38"/>
<polygon fill="midnightblue" stroke="midnightblue" points="483.282,-148.513 472.772,-147.174 480.153,-154.775 483.282,-148.513"/>
</g>
<!-- Node9 -->
<g id="node10" class="node"><title>Node9</title>
<g id="a_node10"><a xlink:href="class_system_1_1_reflection_1_1_emit_1_1_method_builder_instantiation.html" target="_top" xlink:title=" ">
<polygon fill="none" stroke="black" points="565,-147.5 565,-177.5 720,-177.5 720,-147.5 565,-147.5"/>
<text text-anchor="start" x="573" y="-165.5" font-family="Helvetica,sans-Serif" font-size="10.00">System.Reflection.Emit.Method</text>
<text text-anchor="middle" x="642.5" y="-154.5" font-family="Helvetica,sans-Serif" font-size="10.00">BuilderInstantiation</text>
</a>
</g>
</g>
<!-- Node0&#45;&gt;Node9 -->
<g id="edge9" class="edge"><title>Node0&#45;&gt;Node9</title>
<path fill="none" stroke="midnightblue" d="M535.528,-148.37C545.307,-149.674 555.267,-151.002 564.971,-152.296"/>
<polygon fill="midnightblue" stroke="midnightblue" points="535.795,-144.875 525.421,-147.023 534.87,-151.814 535.795,-144.875"/>
</g>
<!-- Node10 -->
<g id="node11" class="node"><title>Node10</title>
<g id="a_node11"><a xlink:href="class_system_1_1_reflection_1_1_emit_1_1_method_on_type_builder_instantiation.html" target="_top" xlink:title=" ">
<polygon fill="none" stroke="black" points="565,-98.5 565,-128.5 720,-128.5 720,-98.5 565,-98.5"/>
<text text-anchor="start" x="573" y="-116.5" font-family="Helvetica,sans-Serif" font-size="10.00">System.Reflection.Emit.Method</text>
<text text-anchor="middle" x="642.5" y="-105.5" font-family="Helvetica,sans-Serif" font-size="10.00">OnTypeBuilderInstantiation</text>
</a>
</g>
</g>
<!-- Node0&#45;&gt;Node10 -->
<g id="edge10" class="edge"><title>Node0&#45;&gt;Node10</title>
<path fill="none" stroke="midnightblue" d="M536.435,-126.948C545.918,-125.734 555.559,-124.5 564.96,-123.297"/>
<polygon fill="midnightblue" stroke="midnightblue" points="535.699,-123.514 526.224,-128.255 536.588,-130.457 535.699,-123.514"/>
</g>
<!-- Node11 -->
<g id="node12" class="node"><title>Node11</title>
<g id="a_node12"><a xlink:href="class_system_1_1_reflection_1_1_emit_1_1_symbol_method.html" target="_top" xlink:title=" ">
<polygon fill="none" stroke="black" points="565,-49.5 565,-79.5 720,-79.5 720,-49.5 565,-49.5"/>
<text text-anchor="start" x="573" y="-67.5" font-family="Helvetica,sans-Serif" font-size="10.00">System.Reflection.Emit.Symbol</text>
<text text-anchor="middle" x="642.5" y="-56.5" font-family="Helvetica,sans-Serif" font-size="10.00">Method</text>
</a>
</g>
</g>
<!-- Node0&#45;&gt;Node11 -->
<g id="edge11" class="edge"><title>Node0&#45;&gt;Node11</title>
<path fill="none" stroke="midnightblue" d="M482.403,-123.361C503.934,-112.952 534.423,-98.8661 562,-88.5 570.367,-85.3548 579.344,-82.3254 588.146,-79.5401"/>
<polygon fill="midnightblue" stroke="midnightblue" points="480.637,-120.329 473.183,-127.859 483.706,-126.62 480.637,-120.329"/>
</g>
<!-- Node12 -->
<g id="node13" class="node"><title>Node12</title>
<g id="a_node13"><a xlink:href="class_system_1_1_reflection_1_1_runtime_method_info.html" target="_top" xlink:title=" ">
<polygon fill="none" stroke="black" points="575,-0.5 575,-30.5 710,-30.5 710,-0.5 575,-0.5"/>
<text text-anchor="start" x="583" y="-18.5" font-family="Helvetica,sans-Serif" font-size="10.00">System.Reflection.Runtime</text>
<text text-anchor="middle" x="642.5" y="-7.5" font-family="Helvetica,sans-Serif" font-size="10.00">MethodInfo</text>
</a>
</g>
</g>
<!-- Node0&#45;&gt;Node12 -->
<g id="edge12" class="edge"><title>Node0&#45;&gt;Node12</title>
<path fill="none" stroke="midnightblue" d="M468.665,-120.091C487.948,-98.2583 523.874,-61.0791 562,-39.5 568.023,-36.0913 574.582,-33.1171 581.264,-30.5343"/>
<polygon fill="midnightblue" stroke="midnightblue" points="465.801,-118.051 461.9,-127.902 471.093,-122.634 465.801,-118.051"/>
</g>
<!-- Node1 -->
<g id="node2" class="node"><title>Node1</title>
<g id="a_node2"><a xlink:href="class_system_1_1_reflection_1_1_method_base.html" target="_top" xlink:title="Provides information about methods and constructors.">
<polygon fill="none" stroke="black" points="273,-147 273,-166 344,-166 344,-147 273,-147"/>
<text text-anchor="middle" x="308.5" y="-154" font-family="Helvetica,sans-Serif" font-size="10.00">MethodBase</text>
</a>
</g>
</g>
<!-- Node1&#45;&gt;Node0 -->
<g id="edge1" class="edge"><title>Node1&#45;&gt;Node0</title>
<path fill="none" stroke="midnightblue" d="M354.295,-150.527C362.705,-149.406 371.689,-148.208 380.673,-147.01"/>
<polygon fill="midnightblue" stroke="midnightblue" points="353.809,-147.061 344.359,-151.852 354.734,-154 353.809,-147.061"/>
</g>
<!-- Node2 -->
<g id="node3" class="node"><title>Node2</title>
<g id="a_node3"><a xlink:href="class_system_1_1_reflection_1_1_member_info.html" target="_top" xlink:title="Obtains information about the attributes of a member and provides access to member metadata.">
<polygon fill="none" stroke="black" points="165,-166 165,-185 232,-185 232,-166 165,-166"/>
<text text-anchor="middle" x="198.5" y="-173" font-family="Helvetica,sans-Serif" font-size="10.00">MemberInfo</text>
</a>
</g>
</g>
<!-- Node2&#45;&gt;Node1 -->
<g id="edge2" class="edge"><title>Node2&#45;&gt;Node1</title>
<path fill="none" stroke="midnightblue" d="M242.088,-168.008C252.224,-166.225 262.921,-164.343 272.663,-162.629"/>
<polygon fill="midnightblue" stroke="midnightblue" points="241.439,-164.568 232.197,-169.748 242.652,-171.462 241.439,-164.568"/>
</g>
<!-- Node3 -->
<g id="node4" class="node"><title>Node3</title>
<g id="a_node4"><a xlink:href="interface_system_1_1_reflection_1_1_i_custom_attribute_provider.html" target="_top" xlink:title="Provides custom attributes for reflection objects that support them.">
<polygon fill="none" stroke="black" points="0,-185 0,-204 124,-204 124,-185 0,-185"/>
<text text-anchor="middle" x="62" y="-192" font-family="Helvetica,sans-Serif" font-size="10.00">ICustomAttributeProvider</text>
</a>
</g>
</g>
<!-- Node3&#45;&gt;Node2 -->
<g id="edge3" class="edge"><title>Node3&#45;&gt;Node2</title>
<path fill="none" stroke="midnightblue" d="M134.54,-184.394C145.163,-182.893 155.643,-181.413 164.913,-180.103"/>
<polygon fill="midnightblue" stroke="midnightblue" points="133.758,-180.97 124.346,-185.834 134.737,-187.901 133.758,-180.97"/>
</g>
<!-- Node4 -->
<g id="node5" class="node"><title>Node4</title>
<g id="a_node5"><a xlink:href="interface_system_1_1_runtime_1_1_interop_services_1_1___member_info.html" target="_top" xlink:title="Exposes the public members of the T:System.Reflection.MemberInfo class to unmanaged code.">
<polygon fill="none" stroke="black" points="26,-147 26,-166 98,-166 98,-147 26,-147"/>
<text text-anchor="middle" x="62" y="-154" font-family="Helvetica,sans-Serif" font-size="10.00">_MemberInfo</text>
</a>
</g>
</g>
<!-- Node4&#45;&gt;Node2 -->
<g id="edge4" class="edge"><title>Node4&#45;&gt;Node2</title>
<path fill="none" stroke="midnightblue" d="M108.308,-162.9C126.787,-165.511 147.748,-168.472 164.705,-170.867"/>
<polygon fill="midnightblue" stroke="midnightblue" points="108.73,-159.425 98.3383,-161.492 107.75,-166.356 108.73,-159.425"/>
</g>
<!-- Node5 -->
<g id="node6" class="node"><title>Node5</title>
<g id="a_node6"><a xlink:href="interface_system_1_1_runtime_1_1_interop_services_1_1___method_base.html" target="_top" xlink:title="Exposes the public members of the T:System.Reflection.MethodBase class to unmanaged code.">
<polygon fill="none" stroke="black" points="160,-128 160,-147 237,-147 237,-128 160,-128"/>
<text text-anchor="middle" x="198.5" y="-135" font-family="Helvetica,sans-Serif" font-size="10.00">_MethodBase</text>
</a>
</g>
</g>
<!-- Node5&#45;&gt;Node1 -->
<g id="edge5" class="edge"><title>Node5&#45;&gt;Node1</title>
<path fill="none" stroke="midnightblue" d="M247.231,-145.897C255.843,-147.412 264.671,-148.965 272.822,-150.399"/>
<polygon fill="midnightblue" stroke="midnightblue" points="247.728,-142.431 237.273,-144.145 246.515,-149.325 247.728,-142.431"/>
</g>
<!-- Node6 -->
<g id="node7" class="node"><title>Node6</title>
<g id="a_node7"><a xlink:href="interface_system_1_1_runtime_1_1_interop_services_1_1___method_info.html" target="_top" xlink:title="Exposes the public members of the T:System.Reflection.MethodInfo class to unmanaged code.">
<polygon fill="none" stroke="black" points="274,-109 274,-128 343,-128 343,-109 274,-109"/>
<text text-anchor="middle" x="308.5" y="-116" font-family="Helvetica,sans-Serif" font-size="10.00">_MethodInfo</text>
</a>
</g>
</g>
<!-- Node6&#45;&gt;Node0 -->
<g id="edge6" class="edge"><title>Node6&#45;&gt;Node0</title>
<path fill="none" stroke="midnightblue" d="M353.445,-124.359C362.077,-125.51 371.339,-126.745 380.605,-127.981"/>
<polygon fill="midnightblue" stroke="midnightblue" points="353.645,-120.855 343.271,-123.003 352.72,-127.794 353.645,-120.855"/>
</g>
</g>
</svg>
