<?xml version="1.0" encoding="UTF-8" standalone="no"?>
<!DOCTYPE svg PUBLIC "-//W3C//DTD SVG 1.1//EN"
 "http://www.w3.org/Graphics/SVG/1.1/DTD/svg11.dtd">
<!-- Generated by graphviz version 2.38.0 (20140413.2041)
 -->
<!-- Title: System.Security.AccessControl.AuthorizationRule Pages: 1 -->
<!--zoomable 578 -->
<svg id="main" version="1.1" xmlns="http://www.w3.org/2000/svg" xmlns:xlink="http://www.w3.org/1999/xlink" xml:space="preserve" onload="init(evt)">
<style type="text/css"><![CDATA[
.edge:hover path { stroke: red; }
.edge:hover polygon { stroke: red; fill: red; }
]]></style>
<script type="text/javascript"><![CDATA[
var edges = document.getElementsByTagName('g');
if (edges && edges.length) {
  for (var i=0;i<edges.length;i++) {
    if (edges[i].id.substr(0,4)=='edge') {
      edges[i].setAttribute('class','edge');
    }
  }
}
]]></script>
        <defs>
                <circle id="rim" cx="0" cy="0" r="7"/>
                <circle id="rim2" cx="0" cy="0" r="3.5"/>
                <g id="zoomPlus">
                        <use xlink:href="#rim" fill="#404040">
                                <set attributeName="fill" to="#808080" begin="zoomplus.mouseover" end="zoomplus.mouseout"/>
                        </use>
                        <path d="M-4,0h8M0,-4v8" fill="none" stroke="white" stroke-width="1.5" pointer-events="none"/>
                </g>
                <g id="zoomMin">
                        <use xlink:href="#rim" fill="#404040">
                                <set attributeName="fill" to="#808080" begin="zoomminus.mouseover" end="zoomminus.mouseout"/>
                        </use>
                        <path d="M-4,0h8" fill="none" stroke="white" stroke-width="1.5" pointer-events="none"/>
                </g>
                <g id="dirArrow">
                        <path fill="none" stroke="white" stroke-width="1.5" d="M0,-3.0v7 M-2.5,-0.5L0,-3.0L2.5,-0.5"/>
                </g>
               <g id="resetDef">
                       <use xlink:href="#rim2" fill="#404040">
                               <set attributeName="fill" to="#808080" begin="reset.mouseover" end="reset.mouseout"/>
                       </use>
               </g>
        </defs>

<script type="text/javascript">
var viewWidth = 557;
var viewHeight = 578;
var sectionId = 'dynsection-0';
</script>
<script xlink:href="svgpan.js"/>
<svg id="graph" class="graph">
<g id="viewport">
<title>System.Security.AccessControl.AuthorizationRule</title>
<!-- Node0 -->
<g id="node1" class="node"><title>Node0</title>
<g id="a_node1"><a xlink:title="Determines access to securable objects. The derived classes T:System.Security.AccessControl....">
<polygon fill="#bfbfbf" stroke="black" points="0,-269.5 0,-299.5 159,-299.5 159,-269.5 0,-269.5"/>
<text text-anchor="start" x="8" y="-287.5" font-family="Helvetica,sans-Serif" font-size="10.00">System.Security.AccessControl.</text>
<text text-anchor="middle" x="79.5" y="-276.5" font-family="Helvetica,sans-Serif" font-size="10.00">AuthorizationRule</text>
</a>
</g>
</g>
<!-- Node1 -->
<g id="node2" class="node"><title>Node1</title>
<g id="a_node2"><a xlink:href="class_system_1_1_security_1_1_access_control_1_1_access_rule.html" target="_top" xlink:title="Represents a combination of a user&#39;s identity, an access mask, and an access control type (allow or d...">
<polygon fill="none" stroke="black" points="195,-392.5 195,-422.5 354,-422.5 354,-392.5 195,-392.5"/>
<text text-anchor="start" x="203" y="-410.5" font-family="Helvetica,sans-Serif" font-size="10.00">System.Security.AccessControl.</text>
<text text-anchor="middle" x="274.5" y="-399.5" font-family="Helvetica,sans-Serif" font-size="10.00">AccessRule&lt; T &gt;</text>
</a>
</g>
</g>
<!-- Node0&#45;&gt;Node1 -->
<g id="edge1" class="edge"><title>Node0&#45;&gt;Node1</title>
<path fill="none" stroke="midnightblue" d="M112.976,-305.197C151.74,-329.902 215.619,-370.612 249.943,-392.487"/>
<polygon fill="midnightblue" stroke="midnightblue" points="114.48,-302.005 104.166,-299.582 110.718,-307.908 114.48,-302.005"/>
</g>
<!-- Node8 -->
<g id="node9" class="node"><title>Node8</title>
<g id="a_node9"><a xlink:href="class_system_1_1_security_1_1_access_control_1_1_audit_rule.html" target="_top" xlink:title="Represents a combination of a user’s identity and an access mask.">
<polygon fill="none" stroke="black" points="195,-147.5 195,-177.5 354,-177.5 354,-147.5 195,-147.5"/>
<text text-anchor="start" x="203" y="-165.5" font-family="Helvetica,sans-Serif" font-size="10.00">System.Security.AccessControl.</text>
<text text-anchor="middle" x="274.5" y="-154.5" font-family="Helvetica,sans-Serif" font-size="10.00">AuditRule&lt; T &gt;</text>
</a>
</g>
</g>
<!-- Node0&#45;&gt;Node8 -->
<g id="edge8" class="edge"><title>Node0&#45;&gt;Node8</title>
<path fill="none" stroke="midnightblue" d="M113.364,-263.726C152.092,-239.245 215.495,-199.167 249.75,-177.513"/>
<polygon fill="midnightblue" stroke="midnightblue" points="111.136,-260.994 104.553,-269.295 114.876,-266.911 111.136,-260.994"/>
</g>
<!-- Node2 -->
<g id="node3" class="node"><title>Node2</title>
<g id="a_node3"><a xlink:href="class_system_1_1_security_1_1_access_control_1_1_crypto_key_access_rule.html" target="_top" xlink:title="Represents an access rule for a cryptographic key. An access rule represents a combination of a user&#39;...">
<polygon fill="none" stroke="black" points="390,-539.5 390,-569.5 549,-569.5 549,-539.5 390,-539.5"/>
<text text-anchor="start" x="398" y="-557.5" font-family="Helvetica,sans-Serif" font-size="10.00">System.Security.AccessControl.</text>
<text text-anchor="middle" x="469.5" y="-546.5" font-family="Helvetica,sans-Serif" font-size="10.00">CryptoKeyAccessRule</text>
</a>
</g>
</g>
<!-- Node1&#45;&gt;Node2 -->
<g id="edge2" class="edge"><title>Node1&#45;&gt;Node2</title>
<path fill="none" stroke="midnightblue" d="M291.474,-431.088C311.411,-458.782 348.04,-504.255 390,-530.5 395.437,-533.901 401.388,-536.848 407.505,-539.395"/>
<polygon fill="midnightblue" stroke="midnightblue" points="294.228,-428.92 285.601,-422.768 288.509,-432.957 294.228,-428.92"/>
</g>
<!-- Node3 -->
<g id="node4" class="node"><title>Node3</title>
<g id="a_node4"><a xlink:href="class_system_1_1_security_1_1_access_control_1_1_event_wait_handle_access_rule.html" target="_top" xlink:title="Represents a set of access rights allowed or denied for a user or group. This class cannot be inherit...">
<polygon fill="none" stroke="black" points="390,-490.5 390,-520.5 549,-520.5 549,-490.5 390,-490.5"/>
<text text-anchor="start" x="398" y="-508.5" font-family="Helvetica,sans-Serif" font-size="10.00">System.Security.AccessControl.</text>
<text text-anchor="middle" x="469.5" y="-497.5" font-family="Helvetica,sans-Serif" font-size="10.00">EventWaitHandleAccessRule</text>
</a>
</g>
</g>
<!-- Node1&#45;&gt;Node3 -->
<g id="edge3" class="edge"><title>Node1&#45;&gt;Node3</title>
<path fill="none" stroke="midnightblue" d="M303.552,-428.789C325.981,-445.011 358.738,-466.964 390,-481.5 397.107,-484.805 404.784,-487.797 412.458,-490.459"/>
<polygon fill="midnightblue" stroke="midnightblue" points="305.329,-425.751 295.194,-422.662 301.19,-431.397 305.329,-425.751"/>
</g>
<!-- Node4 -->
<g id="node5" class="node"><title>Node4</title>
<g id="a_node5"><a xlink:href="class_system_1_1_security_1_1_access_control_1_1_file_system_access_rule.html" target="_top" xlink:title="Represents an abstraction of an access control entry (ACE) that defines an access rule for a file or ...">
<polygon fill="none" stroke="black" points="390,-441.5 390,-471.5 549,-471.5 549,-441.5 390,-441.5"/>
<text text-anchor="start" x="398" y="-459.5" font-family="Helvetica,sans-Serif" font-size="10.00">System.Security.AccessControl.</text>
<text text-anchor="middle" x="469.5" y="-448.5" font-family="Helvetica,sans-Serif" font-size="10.00">FileSystemAccessRule</text>
</a>
</g>
</g>
<!-- Node1&#45;&gt;Node4 -->
<g id="edge4" class="edge"><title>Node1&#45;&gt;Node4</title>
<path fill="none" stroke="midnightblue" d="M344.625,-425.05C365.819,-430.431 388.933,-436.299 409.394,-441.494"/>
<polygon fill="midnightblue" stroke="midnightblue" points="345.272,-421.603 334.718,-422.535 343.549,-428.388 345.272,-421.603"/>
</g>
<!-- Node5 -->
<g id="node6" class="node"><title>Node5</title>
<g id="a_node6"><a xlink:href="class_system_1_1_security_1_1_access_control_1_1_mutex_access_rule.html" target="_top" xlink:title="Represents a set of access rights allowed or denied for a user or group. This class cannot be inherit...">
<polygon fill="none" stroke="black" points="390,-392.5 390,-422.5 549,-422.5 549,-392.5 390,-392.5"/>
<text text-anchor="start" x="398" y="-410.5" font-family="Helvetica,sans-Serif" font-size="10.00">System.Security.AccessControl.</text>
<text text-anchor="middle" x="469.5" y="-399.5" font-family="Helvetica,sans-Serif" font-size="10.00">MutexAccessRule</text>
</a>
</g>
</g>
<!-- Node1&#45;&gt;Node5 -->
<g id="edge5" class="edge"><title>Node1&#45;&gt;Node5</title>
<path fill="none" stroke="midnightblue" d="M364.023,-407.5C372.607,-407.5 381.276,-407.5 389.756,-407.5"/>
<polygon fill="midnightblue" stroke="midnightblue" points="364.001,-404 354,-407.5 364,-411 364.001,-404"/>
</g>
<!-- Node6 -->
<g id="node7" class="node"><title>Node6</title>
<g id="a_node7"><a xlink:href="class_system_1_1_security_1_1_access_control_1_1_object_access_rule.html" target="_top" xlink:title="Represents a combination of a user&#39;s identity, an access mask, and an access control type (allow or d...">
<polygon fill="none" stroke="black" points="390,-343.5 390,-373.5 549,-373.5 549,-343.5 390,-343.5"/>
<text text-anchor="start" x="398" y="-361.5" font-family="Helvetica,sans-Serif" font-size="10.00">System.Security.AccessControl.</text>
<text text-anchor="middle" x="469.5" y="-350.5" font-family="Helvetica,sans-Serif" font-size="10.00">ObjectAccessRule</text>
</a>
</g>
</g>
<!-- Node1&#45;&gt;Node6 -->
<g id="edge6" class="edge"><title>Node1&#45;&gt;Node6</title>
<path fill="none" stroke="midnightblue" d="M344.625,-389.95C365.819,-384.569 388.933,-378.701 409.394,-373.506"/>
<polygon fill="midnightblue" stroke="midnightblue" points="343.549,-386.612 334.718,-392.465 345.272,-393.397 343.549,-386.612"/>
</g>
<!-- Node7 -->
<g id="node8" class="node"><title>Node7</title>
<g id="a_node8"><a xlink:href="class_system_1_1_security_1_1_access_control_1_1_registry_access_rule.html" target="_top" xlink:title="Represents a set of access rights allowed or denied for a user or group. This class cannot be inherit...">
<polygon fill="none" stroke="black" points="390,-294.5 390,-324.5 549,-324.5 549,-294.5 390,-294.5"/>
<text text-anchor="start" x="398" y="-312.5" font-family="Helvetica,sans-Serif" font-size="10.00">System.Security.AccessControl.</text>
<text text-anchor="middle" x="469.5" y="-301.5" font-family="Helvetica,sans-Serif" font-size="10.00">RegistryAccessRule</text>
</a>
</g>
</g>
<!-- Node1&#45;&gt;Node7 -->
<g id="edge7" class="edge"><title>Node1&#45;&gt;Node7</title>
<path fill="none" stroke="midnightblue" d="M304.053,-386.333C326.519,-370.426 359.089,-348.975 390,-334.5 397.772,-330.861 406.213,-327.554 414.582,-324.624"/>
<polygon fill="midnightblue" stroke="midnightblue" points="301.756,-383.674 295.668,-392.345 305.835,-389.362 301.756,-383.674"/>
</g>
<!-- Node9 -->
<g id="node10" class="node"><title>Node9</title>
<g id="a_node10"><a xlink:href="class_system_1_1_security_1_1_access_control_1_1_crypto_key_audit_rule.html" target="_top" xlink:title="Represents an audit rule for a cryptographic key. An audit rule represents a combination of a user&#39;s ...">
<polygon fill="none" stroke="black" points="390,-245.5 390,-275.5 549,-275.5 549,-245.5 390,-245.5"/>
<text text-anchor="start" x="398" y="-263.5" font-family="Helvetica,sans-Serif" font-size="10.00">System.Security.AccessControl.</text>
<text text-anchor="middle" x="469.5" y="-252.5" font-family="Helvetica,sans-Serif" font-size="10.00">CryptoKeyAuditRule</text>
</a>
</g>
</g>
<!-- Node8&#45;&gt;Node9 -->
<g id="edge9" class="edge"><title>Node8&#45;&gt;Node9</title>
<path fill="none" stroke="midnightblue" d="M303.552,-183.789C325.981,-200.011 358.738,-221.964 390,-236.5 397.107,-239.805 404.784,-242.797 412.458,-245.459"/>
<polygon fill="midnightblue" stroke="midnightblue" points="305.329,-180.751 295.194,-177.662 301.19,-186.397 305.329,-180.751"/>
</g>
<!-- Node10 -->
<g id="node11" class="node"><title>Node10</title>
<g id="a_node11"><a xlink:href="class_system_1_1_security_1_1_access_control_1_1_event_wait_handle_audit_rule.html" target="_top" xlink:title="Represents a set of access rights to be audited for a user or group. This class cannot be inherited.">
<polygon fill="none" stroke="black" points="390,-196.5 390,-226.5 549,-226.5 549,-196.5 390,-196.5"/>
<text text-anchor="start" x="398" y="-214.5" font-family="Helvetica,sans-Serif" font-size="10.00">System.Security.AccessControl.</text>
<text text-anchor="middle" x="469.5" y="-203.5" font-family="Helvetica,sans-Serif" font-size="10.00">EventWaitHandleAuditRule</text>
</a>
</g>
</g>
<!-- Node8&#45;&gt;Node10 -->
<g id="edge10" class="edge"><title>Node8&#45;&gt;Node10</title>
<path fill="none" stroke="midnightblue" d="M344.625,-180.05C365.819,-185.431 388.933,-191.299 409.394,-196.494"/>
<polygon fill="midnightblue" stroke="midnightblue" points="345.272,-176.603 334.718,-177.535 343.549,-183.388 345.272,-176.603"/>
</g>
<!-- Node11 -->
<g id="node12" class="node"><title>Node11</title>
<g id="a_node12"><a xlink:href="class_system_1_1_security_1_1_access_control_1_1_file_system_audit_rule.html" target="_top" xlink:title="Represents an abstraction of an access control entry (ACE) that defines an audit rule for a file or d...">
<polygon fill="none" stroke="black" points="390,-147.5 390,-177.5 549,-177.5 549,-147.5 390,-147.5"/>
<text text-anchor="start" x="398" y="-165.5" font-family="Helvetica,sans-Serif" font-size="10.00">System.Security.AccessControl.</text>
<text text-anchor="middle" x="469.5" y="-154.5" font-family="Helvetica,sans-Serif" font-size="10.00">FileSystemAuditRule</text>
</a>
</g>
</g>
<!-- Node8&#45;&gt;Node11 -->
<g id="edge11" class="edge"><title>Node8&#45;&gt;Node11</title>
<path fill="none" stroke="midnightblue" d="M364.023,-162.5C372.607,-162.5 381.276,-162.5 389.756,-162.5"/>
<polygon fill="midnightblue" stroke="midnightblue" points="364.001,-159 354,-162.5 364,-166 364.001,-159"/>
</g>
<!-- Node12 -->
<g id="node13" class="node"><title>Node12</title>
<g id="a_node13"><a xlink:href="class_system_1_1_security_1_1_access_control_1_1_mutex_audit_rule.html" target="_top" xlink:title="Represents a set of access rights to be audited for a user or group. This class cannot be inherited.">
<polygon fill="none" stroke="black" points="390,-98.5 390,-128.5 549,-128.5 549,-98.5 390,-98.5"/>
<text text-anchor="start" x="398" y="-116.5" font-family="Helvetica,sans-Serif" font-size="10.00">System.Security.AccessControl.</text>
<text text-anchor="middle" x="469.5" y="-105.5" font-family="Helvetica,sans-Serif" font-size="10.00">MutexAuditRule</text>
</a>
</g>
</g>
<!-- Node8&#45;&gt;Node12 -->
<g id="edge12" class="edge"><title>Node8&#45;&gt;Node12</title>
<path fill="none" stroke="midnightblue" d="M344.625,-144.95C365.819,-139.569 388.933,-133.701 409.394,-128.506"/>
<polygon fill="midnightblue" stroke="midnightblue" points="343.549,-141.612 334.718,-147.465 345.272,-148.397 343.549,-141.612"/>
</g>
<!-- Node13 -->
<g id="node14" class="node"><title>Node13</title>
<g id="a_node14"><a xlink:href="class_system_1_1_security_1_1_access_control_1_1_object_audit_rule.html" target="_top" xlink:title="Represents a combination of a user&#39;s identity, an access mask, and audit conditions....">
<polygon fill="none" stroke="black" points="390,-49.5 390,-79.5 549,-79.5 549,-49.5 390,-49.5"/>
<text text-anchor="start" x="398" y="-67.5" font-family="Helvetica,sans-Serif" font-size="10.00">System.Security.AccessControl.</text>
<text text-anchor="middle" x="469.5" y="-56.5" font-family="Helvetica,sans-Serif" font-size="10.00">ObjectAuditRule</text>
</a>
</g>
</g>
<!-- Node8&#45;&gt;Node13 -->
<g id="edge13" class="edge"><title>Node8&#45;&gt;Node13</title>
<path fill="none" stroke="midnightblue" d="M304.053,-141.333C326.519,-125.426 359.089,-103.975 390,-89.5 397.772,-85.8607 406.213,-82.554 414.582,-79.6239"/>
<polygon fill="midnightblue" stroke="midnightblue" points="301.756,-138.674 295.668,-147.345 305.835,-144.362 301.756,-138.674"/>
</g>
<!-- Node14 -->
<g id="node15" class="node"><title>Node14</title>
<g id="a_node15"><a xlink:href="class_system_1_1_security_1_1_access_control_1_1_registry_audit_rule.html" target="_top" xlink:title="Represents a set of access rights to be audited for a user or group. This class cannot be inherited.">
<polygon fill="none" stroke="black" points="390,-0.5 390,-30.5 549,-30.5 549,-0.5 390,-0.5"/>
<text text-anchor="start" x="398" y="-18.5" font-family="Helvetica,sans-Serif" font-size="10.00">System.Security.AccessControl.</text>
<text text-anchor="middle" x="469.5" y="-7.5" font-family="Helvetica,sans-Serif" font-size="10.00">RegistryAuditRule</text>
</a>
</g>
</g>
<!-- Node8&#45;&gt;Node14 -->
<g id="edge14" class="edge"><title>Node8&#45;&gt;Node14</title>
<path fill="none" stroke="midnightblue" d="M291.57,-139.191C311.601,-111.808 348.321,-66.7881 390,-40.5 396.049,-36.6849 402.729,-33.4063 409.564,-30.6003"/>
<polygon fill="midnightblue" stroke="midnightblue" points="288.654,-137.251 285.667,-147.416 294.341,-141.332 288.654,-137.251"/>
</g>
</g>
</svg>
        <g id="navigator" transform="translate(0 0)" fill="#404254">
                <rect fill="#f2f5e9" fill-opacity="0.5" stroke="#606060" stroke-width=".5" x="0" y="0" width="60" height="60"/>
                <use id="zoomplus" xlink:href="#zoomPlus" x="17" y="9" onmousedown="handleZoom(evt,'in')"/>
                <use id="zoomminus" xlink:href="#zoomMin" x="42" y="9" onmousedown="handleZoom(evt,'out')"/>
                <use id="reset" xlink:href="#resetDef" x="30" y="36" onmousedown="handleReset()"/>
                <g id="arrowUp" xlink:href="#dirArrow" transform="translate(30 24)" onmousedown="handlePan(0,-1)">
                  <use xlink:href="#rim" fill="#404040">
                        <set attributeName="fill" to="#808080" begin="arrowUp.mouseover" end="arrowUp.mouseout"/>
                  </use>
                  <path fill="none" stroke="white" stroke-width="1.5" d="M0,-3.0v7 M-2.5,-0.5L0,-3.0L2.5,-0.5"/>
                </g>
                <g id="arrowRight" xlink:href="#dirArrow" transform="rotate(90) translate(36 -43)" onmousedown="handlePan(1,0)">
                  <use xlink:href="#rim" fill="#404040">
                        <set attributeName="fill" to="#808080" begin="arrowRight.mouseover" end="arrowRight.mouseout"/>
                  </use>
                  <path fill="none" stroke="white" stroke-width="1.5" d="M0,-3.0v7 M-2.5,-0.5L0,-3.0L2.5,-0.5"/>
                </g>
                <g id="arrowDown" xlink:href="#dirArrow" transform="rotate(180) translate(-30 -48)" onmousedown="handlePan(0,1)">
                  <use xlink:href="#rim" fill="#404040">
                        <set attributeName="fill" to="#808080" begin="arrowDown.mouseover" end="arrowDown.mouseout"/>
                  </use>
                  <path fill="none" stroke="white" stroke-width="1.5" d="M0,-3.0v7 M-2.5,-0.5L0,-3.0L2.5,-0.5"/>
                </g>
                <g id="arrowLeft" xlink:href="#dirArrow" transform="rotate(270) translate(-36 17)" onmousedown="handlePan(-1,0)">
                  <use xlink:href="#rim" fill="#404040">
                        <set attributeName="fill" to="#808080" begin="arrowLeft.mouseover" end="arrowLeft.mouseout"/>
                  </use>
                  <path fill="none" stroke="white" stroke-width="1.5" d="M0,-3.0v7 M-2.5,-0.5L0,-3.0L2.5,-0.5"/>
                </g>
        </g>
        <svg viewBox="0 0 15 15" width="100%" height="30px" preserveAspectRatio="xMaxYMin meet">
         <g id="arrow_out" transform="scale(0.3 0.3)">
          <a xlink:href="class_system_1_1_security_1_1_access_control_1_1_authorization_rule__inherit__graph_org.svg" target="_base">
           <rect id="button" ry="5" rx="5" y="6" x="6" height="38" width="38"
                fill="#f2f5e9" fill-opacity="0.5" stroke="#606060" stroke-width="1.0"/>
           <path id="arrow"
             d="M 11.500037,31.436501 C 11.940474,20.09759 22.043105,11.32322 32.158766,21.979434 L 37.068811,17.246167 C 37.068811,17.246167 37.088388,32 37.088388,32 L 22.160133,31.978069 C 22.160133,31.978069 26.997745,27.140456 26.997745,27.140456 C 18.528582,18.264221 13.291696,25.230495 11.500037,31.436501 z"
             style="fill:#404040;"/>
          </a>
         </g>
        </svg>
</svg>
