<?xml version="1.0" encoding="UTF-8" standalone="no"?>
<!DOCTYPE svg PUBLIC "-//W3C//DTD SVG 1.1//EN"
 "http://www.w3.org/Graphics/SVG/1.1/DTD/svg11.dtd">
<!-- Generated by graphviz version 2.38.0 (20140413.2041)
 -->
<!-- Title: System.Reflection.Emit.GenericTypeParameterBuilder Pages: 1 -->
<svg width="455pt" height="209pt"
 viewBox="0.00 0.00 455.00 209.00" xmlns="http://www.w3.org/2000/svg" xmlns:xlink="http://www.w3.org/1999/xlink">
<g id="graph0" class="graph" transform="scale(1 1) rotate(0) translate(4 205)">
<title>System.Reflection.Emit.GenericTypeParameterBuilder</title>
<!-- Node9 -->
<g id="node1" class="node"><title>Node9</title>
<g id="a_node1"><a xlink:title="Defines and creates generic type parameters for dynamically defined generic types and methods....">
<polygon fill="#bfbfbf" stroke="black" points="291,-71 291,-101 447,-101 447,-71 291,-71"/>
<text text-anchor="start" x="299" y="-89" font-family="Helvetica,sans-Serif" font-size="10.00">System.Reflection.Emit.Generic</text>
<text text-anchor="middle" x="369" y="-78" font-family="Helvetica,sans-Serif" font-size="10.00">TypeParameterBuilder</text>
</a>
</g>
</g>
<!-- Node10 -->
<g id="node2" class="node"><title>Node10</title>
<g id="a_node2"><a xlink:href="class_system_1_1_reflection_1_1_type_info.html" target="_top" xlink:title="Represents type declarations for class types, interface types, array types, value types,...">
<polygon fill="none" stroke="red" points="50.5,-181.5 50.5,-200.5 103.5,-200.5 103.5,-181.5 50.5,-181.5"/>
<text text-anchor="middle" x="77" y="-188.5" font-family="Helvetica,sans-Serif" font-size="10.00">TypeInfo</text>
</a>
</g>
</g>
<!-- Node10&#45;&gt;Node9 -->
<g id="edge1" class="edge"><title>Node10&#45;&gt;Node9</title>
<path fill="none" stroke="midnightblue" d="M113.894,-190.609C154.187,-188.984 220.758,-182.688 273,-160 305.216,-146.009 336.061,-118.512 353.461,-101.261"/>
<polygon fill="midnightblue" stroke="midnightblue" points="113.63,-187.115 103.75,-190.941 113.859,-194.112 113.63,-187.115"/>
</g>
<!-- Node17 -->
<g id="node3" class="node"><title>Node17</title>
<g id="a_node3"><a xlink:href="class_system_1_1_type.html" target="_top" xlink:title="Represents type declarations: class types, interface types, array types, value types,...">
<polygon fill="none" stroke="red" points="40,-114.5 40,-133.5 114,-133.5 114,-114.5 40,-114.5"/>
<text text-anchor="middle" x="77" y="-121.5" font-family="Helvetica,sans-Serif" font-size="10.00">System.Type</text>
</a>
</g>
</g>
<!-- Node17&#45;&gt;Node9 -->
<g id="edge2" class="edge"><title>Node17&#45;&gt;Node9</title>
<path fill="none" stroke="#9a32cd" stroke-dasharray="5,2" d="M124.463,-118.597C163.995,-113.925 222.267,-106.859 273,-100 278.782,-99.2182 284.759,-98.3885 290.77,-97.5386"/>
<polygon fill="#9a32cd" stroke="#9a32cd" points="123.854,-115.145 114.332,-119.791 124.673,-122.097 123.854,-115.145"/>
<text text-anchor="middle" x="222.5" y="-148" font-family="Helvetica,sans-Serif" font-size="10.00"> ReflectedType</text>
<text text-anchor="middle" x="222.5" y="-137" font-family="Helvetica,sans-Serif" font-size="10.00">DeclaringType</text>
<text text-anchor="middle" x="222.5" y="-126" font-family="Helvetica,sans-Serif" font-size="10.00">BaseType</text>
<text text-anchor="middle" x="222.5" y="-115" font-family="Helvetica,sans-Serif" font-size="10.00">UnderlyingSystemType</text>
</g>
<!-- Node17&#45;&gt;Node17 -->
<g id="edge3" class="edge"><title>Node17&#45;&gt;Node17</title>
<path fill="none" stroke="#9a32cd" stroke-dasharray="5,2" d="M50.1208,-142.654C51.2444,-147.937 60.2041,-152 77,-152 102.594,-152 109.992,-142.565 99.1946,-133.757"/>
<polygon fill="#9a32cd" stroke="#9a32cd" points="53.2433,-144.236 54.8054,-133.757 47.0494,-140.975 53.2433,-144.236"/>
<text text-anchor="middle" x="77" y="-155" font-family="Helvetica,sans-Serif" font-size="10.00"> EmptyTypes</text>
</g>
<!-- Node19 -->
<g id="node4" class="node"><title>Node19</title>
<g id="a_node4"><a xlink:href="class_system_1_1_reflection_1_1_module.html" target="_top" xlink:title="Performs reflection on a module.">
<polygon fill="none" stroke="red" points="11.5,-76.5 11.5,-95.5 142.5,-95.5 142.5,-76.5 11.5,-76.5"/>
<text text-anchor="middle" x="77" y="-83.5" font-family="Helvetica,sans-Serif" font-size="10.00">System.Reflection.Module</text>
</a>
</g>
</g>
<!-- Node19&#45;&gt;Node9 -->
<g id="edge4" class="edge"><title>Node19&#45;&gt;Node9</title>
<path fill="none" stroke="#9a32cd" stroke-dasharray="5,2" d="M152.971,-86C195.323,-86 248.165,-86 290.867,-86"/>
<polygon fill="#9a32cd" stroke="#9a32cd" points="152.721,-82.5001 142.721,-86 152.721,-89.5001 152.721,-82.5001"/>
<text text-anchor="middle" x="222.5" y="-89" font-family="Helvetica,sans-Serif" font-size="10.00"> Module</text>
</g>
<!-- Node23 -->
<g id="node5" class="node"><title>Node23</title>
<g id="a_node5"><a xlink:href="class_system_1_1_reflection_1_1_assembly.html" target="_top" xlink:title="Represents an assembly, which is a reusable, versionable, and self&#45;describing building block of a com...">
<polygon fill="none" stroke="red" points="5.5,-38.5 5.5,-57.5 148.5,-57.5 148.5,-38.5 5.5,-38.5"/>
<text text-anchor="middle" x="77" y="-45.5" font-family="Helvetica,sans-Serif" font-size="10.00">System.Reflection.Assembly</text>
</a>
</g>
</g>
<!-- Node23&#45;&gt;Node9 -->
<g id="edge5" class="edge"><title>Node23&#45;&gt;Node9</title>
<path fill="none" stroke="#9a32cd" stroke-dasharray="5,2" d="M159.129,-56.849C194.189,-60.8593 235.656,-65.8515 273,-71 278.789,-71.7982 284.771,-72.6585 290.785,-73.549"/>
<polygon fill="#9a32cd" stroke="#9a32cd" points="159.275,-53.3431 148.943,-55.6909 158.484,-60.2983 159.275,-53.3431"/>
<text text-anchor="middle" x="222.5" y="-74" font-family="Helvetica,sans-Serif" font-size="10.00"> Assembly</text>
</g>
<!-- Node26 -->
<g id="node6" class="node"><title>Node26</title>
<g id="a_node6"><a xlink:href="class_system_1_1_reflection_1_1_method_base.html" target="_top" xlink:title="Provides information about methods and constructors.">
<polygon fill="none" stroke="red" points="0,-0.5 0,-19.5 154,-19.5 154,-0.5 0,-0.5"/>
<text text-anchor="middle" x="77" y="-7.5" font-family="Helvetica,sans-Serif" font-size="10.00">System.Reflection.MethodBase</text>
</a>
</g>
</g>
<!-- Node26&#45;&gt;Node9 -->
<g id="edge6" class="edge"><title>Node26&#45;&gt;Node9</title>
<path fill="none" stroke="#9a32cd" stroke-dasharray="5,2" d="M164.064,-19.6945C198.412,-24.8182 238.03,-32.3227 273,-43 296.202,-50.0843 321.143,-61.5336 339.646,-70.8374"/>
<polygon fill="#9a32cd" stroke="#9a32cd" points="164.454,-16.2146 154.056,-18.246 163.451,-23.1424 164.454,-16.2146"/>
<text text-anchor="middle" x="222.5" y="-46" font-family="Helvetica,sans-Serif" font-size="10.00"> DeclaringMethod</text>
</g>
</g>
</svg>
