<?xml version="1.0" encoding="UTF-8" standalone="no"?>
<!DOCTYPE svg PUBLIC "-//W3C//DTD SVG 1.1//EN"
 "http://www.w3.org/Graphics/SVG/1.1/DTD/svg11.dtd">
<!-- Generated by graphviz version 2.38.0 (20140413.2041)
 -->
<!-- Title: System.Threading.ThreadExceptionEventArgs Pages: 1 -->
<svg width="191pt" height="106pt"
 viewBox="0.00 0.00 191.00 106.00" xmlns="http://www.w3.org/2000/svg" xmlns:xlink="http://www.w3.org/1999/xlink">
<g id="graph0" class="graph" transform="scale(1 1) rotate(0) translate(4 102)">
<title>System.Threading.ThreadExceptionEventArgs</title>
<!-- Node2 -->
<g id="node1" class="node"><title>Node2</title>
<g id="a_node1"><a xlink:title="Provides data for the E:System.Windows.Forms.Application.ThreadException event.">
<polygon fill="#bfbfbf" stroke="black" points="0,-0.5 0,-30.5 171,-30.5 171,-0.5 0,-0.5"/>
<text text-anchor="start" x="8" y="-18.5" font-family="Helvetica,sans-Serif" font-size="10.00">System.Threading.ThreadException</text>
<text text-anchor="middle" x="85.5" y="-7.5" font-family="Helvetica,sans-Serif" font-size="10.00">EventArgs</text>
</a>
</g>
</g>
<!-- Node3 -->
<g id="node2" class="node"><title>Node3</title>
<g id="a_node2"><a xlink:href="class_system_1_1_event_args.html" target="_top" xlink:title="Represents the base class for classes that contain event data, and provides a value to use for events...">
<polygon fill="none" stroke="red" points="7,-78.5 7,-97.5 68,-97.5 68,-78.5 7,-78.5"/>
<text text-anchor="middle" x="37.5" y="-85.5" font-family="Helvetica,sans-Serif" font-size="10.00">EventArgs</text>
</a>
</g>
</g>
<!-- Node3&#45;&gt;Node2 -->
<g id="edge1" class="edge"><title>Node3&#45;&gt;Node2</title>
<path fill="none" stroke="midnightblue" d="M49.048,-70.0389C57.2664,-57.968 68.1792,-41.94 75.9162,-30.5762"/>
<polygon fill="midnightblue" stroke="midnightblue" points="46.1206,-68.1195 43.3857,-78.3553 51.9068,-72.0591 46.1206,-68.1195"/>
</g>
<!-- Node5 -->
<g id="node3" class="node"><title>Node5</title>
<g id="a_node3"><a xlink:href="class_system_1_1_exception.html" target="_top" xlink:title="Represents errors that occur during application execution.To browse the .NET Framework source code fo...">
<polygon fill="none" stroke="red" points="86,-78.5 86,-97.5 183,-97.5 183,-78.5 86,-78.5"/>
<text text-anchor="middle" x="134.5" y="-85.5" font-family="Helvetica,sans-Serif" font-size="10.00">System.Exception</text>
</a>
</g>
</g>
<!-- Node5&#45;&gt;Node2 -->
<g id="edge2" class="edge"><title>Node5&#45;&gt;Node2</title>
<path fill="none" stroke="#9a32cd" stroke-dasharray="5,2" d="M122.711,-70.0389C114.322,-57.968 103.182,-41.94 95.2834,-30.5762"/>
<polygon fill="#9a32cd" stroke="#9a32cd" points="119.91,-72.1414 128.492,-78.3553 125.658,-68.1463 119.91,-72.1414"/>
<text text-anchor="middle" x="137" y="-52" font-family="Helvetica,sans-Serif" font-size="10.00"> Exception</text>
</g>
</g>
</svg>
