<?xml version="1.0" encoding="UTF-8" standalone="no"?>
<!DOCTYPE svg PUBLIC "-//W3C//DTD SVG 1.1//EN"
 "http://www.w3.org/Graphics/SVG/1.1/DTD/svg11.dtd">
<!-- Generated by graphviz version 2.38.0 (20140413.2041)
 -->
<!-- Title: System.Text.BaseCodePageEncoding Pages: 1 -->
<svg width="501pt" height="330pt"
 viewBox="0.00 0.00 501.00 330.00" xmlns="http://www.w3.org/2000/svg" xmlns:xlink="http://www.w3.org/1999/xlink">
<g id="graph0" class="graph" transform="scale(1 1) rotate(0) translate(4 326)">
<title>System.Text.BaseCodePageEncoding</title>
<!-- Node0 -->
<g id="node1" class="node"><title>Node0</title>
<g id="a_node1"><a xlink:title=" ">
<polygon fill="#bfbfbf" stroke="black" points="254,-123.5 254,-153.5 397,-153.5 397,-123.5 254,-123.5"/>
<text text-anchor="start" x="262" y="-141.5" font-family="Helvetica,sans-Serif" font-size="10.00">System.Text.BaseCodePage</text>
<text text-anchor="middle" x="325.5" y="-130.5" font-family="Helvetica,sans-Serif" font-size="10.00">Encoding</text>
</a>
</g>
</g>
<!-- Node5 -->
<g id="node6" class="node"><title>Node5</title>
<g id="a_node6"><a xlink:href="class_system_1_1_text_1_1_d_b_c_s_code_page_encoding.html" target="_top" xlink:title=" ">
<polygon fill="none" stroke="black" points="170,-56.5 170,-86.5 317,-86.5 317,-56.5 170,-56.5"/>
<text text-anchor="start" x="178" y="-74.5" font-family="Helvetica,sans-Serif" font-size="10.00">System.Text.DBCSCodePage</text>
<text text-anchor="middle" x="243.5" y="-63.5" font-family="Helvetica,sans-Serif" font-size="10.00">Encoding</text>
</a>
</g>
</g>
<!-- Node0&#45;&gt;Node5 -->
<g id="edge5" class="edge"><title>Node0&#45;&gt;Node5</title>
<path fill="none" stroke="midnightblue" d="M299.85,-117.168C287.311,-107.228 272.534,-95.5144 261.258,-86.5765"/>
<polygon fill="midnightblue" stroke="midnightblue" points="297.696,-119.927 307.707,-123.396 302.045,-114.441 297.696,-119.927"/>
</g>
<!-- Node9 -->
<g id="node10" class="node"><title>Node9</title>
<g id="a_node10"><a xlink:href="class_system_1_1_text_1_1_s_b_c_s_code_page_encoding.html" target="_top" xlink:title=" ">
<polygon fill="none" stroke="black" points="335,-56.5 335,-86.5 482,-86.5 482,-56.5 335,-56.5"/>
<text text-anchor="start" x="343" y="-74.5" font-family="Helvetica,sans-Serif" font-size="10.00">System.Text.SBCSCodePage</text>
<text text-anchor="middle" x="408.5" y="-63.5" font-family="Helvetica,sans-Serif" font-size="10.00">Encoding</text>
</a>
</g>
</g>
<!-- Node0&#45;&gt;Node9 -->
<g id="edge9" class="edge"><title>Node0&#45;&gt;Node9</title>
<path fill="none" stroke="midnightblue" d="M351.463,-117.168C364.155,-107.228 379.112,-95.5144 390.525,-86.5765"/>
<polygon fill="midnightblue" stroke="midnightblue" points="349.225,-114.475 343.51,-123.396 353.541,-119.986 349.225,-114.475"/>
</g>
<!-- Node1 -->
<g id="node2" class="node"><title>Node1</title>
<g id="a_node2"><a xlink:href="class_system_1_1_text_1_1_encoding_n_l_s.html" target="_top" xlink:title=" ">
<polygon fill="none" stroke="black" points="242.5,-190.5 242.5,-209.5 318.5,-209.5 318.5,-190.5 242.5,-190.5"/>
<text text-anchor="middle" x="280.5" y="-197.5" font-family="Helvetica,sans-Serif" font-size="10.00">EncodingNLS</text>
</a>
</g>
</g>
<!-- Node1&#45;&gt;Node0 -->
<g id="edge1" class="edge"><title>Node1&#45;&gt;Node0</title>
<path fill="none" stroke="midnightblue" d="M293.17,-182.247C300.023,-173.187 308.389,-162.124 314.894,-153.523"/>
<polygon fill="midnightblue" stroke="midnightblue" points="290.188,-180.388 286.947,-190.475 295.771,-184.611 290.188,-180.388"/>
</g>
<!-- Node2 -->
<g id="node3" class="node"><title>Node2</title>
<g id="a_node3"><a xlink:href="class_system_1_1_text_1_1_encoding.html" target="_top" xlink:title="Represents a character encoding.To browse the .NET Framework source code for this type,...">
<polygon fill="none" stroke="black" points="252,-246.5 252,-265.5 309,-265.5 309,-246.5 252,-246.5"/>
<text text-anchor="middle" x="280.5" y="-253.5" font-family="Helvetica,sans-Serif" font-size="10.00">Encoding</text>
</a>
</g>
</g>
<!-- Node2&#45;&gt;Node1 -->
<g id="edge2" class="edge"><title>Node2&#45;&gt;Node1</title>
<path fill="none" stroke="midnightblue" d="M280.5,-235.805C280.5,-226.91 280.5,-216.78 280.5,-209.751"/>
<polygon fill="midnightblue" stroke="midnightblue" points="277,-236.083 280.5,-246.083 284,-236.083 277,-236.083"/>
</g>
<!-- Node3 -->
<g id="node4" class="node"><title>Node3</title>
<g id="a_node4"><a xlink:href="interface_system_1_1_i_cloneable.html" target="_top" xlink:title="Supports cloning, which creates a new instance of a class with the same value as an existing instance...">
<polygon fill="none" stroke="black" points="249.5,-302.5 249.5,-321.5 311.5,-321.5 311.5,-302.5 249.5,-302.5"/>
<text text-anchor="middle" x="280.5" y="-309.5" font-family="Helvetica,sans-Serif" font-size="10.00">ICloneable</text>
</a>
</g>
</g>
<!-- Node3&#45;&gt;Node2 -->
<g id="edge3" class="edge"><title>Node3&#45;&gt;Node2</title>
<path fill="none" stroke="midnightblue" d="M280.5,-291.805C280.5,-282.91 280.5,-272.78 280.5,-265.751"/>
<polygon fill="midnightblue" stroke="midnightblue" points="277,-292.083 280.5,-302.083 284,-292.083 277,-292.083"/>
</g>
<!-- Node4 -->
<g id="node5" class="node"><title>Node4</title>
<g id="a_node5"><a xlink:href="interface_system_1_1_runtime_1_1_serialization_1_1_i_serializable.html" target="_top" xlink:title="Allows an object to control its own serialization and deserialization.">
<polygon fill="none" stroke="black" points="337,-190.5 337,-209.5 406,-209.5 406,-190.5 337,-190.5"/>
<text text-anchor="middle" x="371.5" y="-197.5" font-family="Helvetica,sans-Serif" font-size="10.00">ISerializable</text>
</a>
</g>
</g>
<!-- Node4&#45;&gt;Node0 -->
<g id="edge4" class="edge"><title>Node4&#45;&gt;Node0</title>
<path fill="none" stroke="midnightblue" d="M358.767,-182.53C351.722,-173.417 343.06,-162.214 336.341,-153.523"/>
<polygon fill="midnightblue" stroke="midnightblue" points="356.024,-184.704 364.909,-190.475 361.562,-180.423 356.024,-184.704"/>
</g>
<!-- Node6 -->
<g id="node7" class="node"><title>Node6</title>
<g id="a_node7"><a xlink:href="class_system_1_1_text_1_1_e_u_c_j_p_encoding.html" target="_top" xlink:title=" ">
<polygon fill="none" stroke="black" points="0,-0.5 0,-19.5 147,-19.5 147,-0.5 0,-0.5"/>
<text text-anchor="middle" x="73.5" y="-7.5" font-family="Helvetica,sans-Serif" font-size="10.00">System.Text.EUCJPEncoding</text>
</a>
</g>
</g>
<!-- Node5&#45;&gt;Node6 -->
<g id="edge6" class="edge"><title>Node5&#45;&gt;Node6</title>
<path fill="none" stroke="midnightblue" d="M193.745,-53.0858C162.355,-42.0993 123.172,-28.3853 98.2365,-19.6578"/>
<polygon fill="midnightblue" stroke="midnightblue" points="192.618,-56.3993 203.212,-56.3993 194.93,-49.7923 192.618,-56.3993"/>
</g>
<!-- Node7 -->
<g id="node8" class="node"><title>Node7</title>
<g id="a_node8"><a xlink:href="class_system_1_1_text_1_1_g_b18030_encoding.html" target="_top" xlink:title=" ">
<polygon fill="none" stroke="black" points="165.5,-0.5 165.5,-19.5 321.5,-19.5 321.5,-0.5 165.5,-0.5"/>
<text text-anchor="middle" x="243.5" y="-7.5" font-family="Helvetica,sans-Serif" font-size="10.00">System.Text.GB18030Encoding</text>
</a>
</g>
</g>
<!-- Node5&#45;&gt;Node7 -->
<g id="edge7" class="edge"><title>Node5&#45;&gt;Node7</title>
<path fill="none" stroke="midnightblue" d="M243.5,-46.2892C243.5,-36.857 243.5,-26.6548 243.5,-19.6578"/>
<polygon fill="midnightblue" stroke="midnightblue" points="240,-46.3993 243.5,-56.3993 247,-46.3994 240,-46.3993"/>
</g>
<!-- Node8 -->
<g id="node9" class="node"><title>Node8</title>
<g id="a_node9"><a xlink:href="class_system_1_1_text_1_1_i_s_o2022_encoding.html" target="_top" xlink:title=" ">
<polygon fill="none" stroke="black" points="340,-0.5 340,-19.5 493,-19.5 493,-0.5 340,-0.5"/>
<text text-anchor="middle" x="416.5" y="-7.5" font-family="Helvetica,sans-Serif" font-size="10.00">System.Text.ISO2022Encoding</text>
</a>
</g>
</g>
<!-- Node5&#45;&gt;Node8 -->
<g id="edge8" class="edge"><title>Node5&#45;&gt;Node8</title>
<path fill="none" stroke="midnightblue" d="M294.163,-53.0756C326.208,-42.0543 366.224,-28.2914 391.58,-19.5709"/>
<polygon fill="midnightblue" stroke="midnightblue" points="292.817,-49.8372 284.499,-56.3993 295.093,-56.4567 292.817,-49.8372"/>
</g>
</g>
</svg>
