<?xml version="1.0" encoding="UTF-8" standalone="no"?>
<!DOCTYPE svg PUBLIC "-//W3C//DTD SVG 1.1//EN"
 "http://www.w3.org/Graphics/SVG/1.1/DTD/svg11.dtd">
<!-- Generated by graphviz version 2.38.0 (20140413.2041)
 -->
<!-- Title: System.Runtime.InteropServices.UnmanagedFunctionPointerAttribute Pages: 1 -->
<svg width="181pt" height="151pt"
 viewBox="0.00 0.00 181.00 151.00" xmlns="http://www.w3.org/2000/svg" xmlns:xlink="http://www.w3.org/1999/xlink">
<g id="graph0" class="graph" transform="scale(1 1) rotate(0) translate(4 147)">
<title>System.Runtime.InteropServices.UnmanagedFunctionPointerAttribute</title>
<!-- Node0 -->
<g id="node1" class="node"><title>Node0</title>
<g id="a_node1"><a xlink:title="Controls the marshaling behavior of a delegate signature passed as an unmanaged function pointer to o...">
<polygon fill="#bfbfbf" stroke="black" points="0,-0.5 0,-30.5 173,-30.5 173,-0.5 0,-0.5"/>
<text text-anchor="start" x="8" y="-18.5" font-family="Helvetica,sans-Serif" font-size="10.00">System.Runtime.InteropServices.</text>
<text text-anchor="middle" x="86.5" y="-7.5" font-family="Helvetica,sans-Serif" font-size="10.00">UnmanagedFunctionPointerAttribute</text>
</a>
</g>
</g>
<!-- Node1 -->
<g id="node2" class="node"><title>Node1</title>
<g id="a_node2"><a xlink:href="class_system_1_1_attribute.html" target="_top" xlink:title="Represents the base class for custom attributes.">
<polygon fill="none" stroke="black" points="60,-67.5 60,-86.5 113,-86.5 113,-67.5 60,-67.5"/>
<text text-anchor="middle" x="86.5" y="-74.5" font-family="Helvetica,sans-Serif" font-size="10.00">Attribute</text>
</a>
</g>
</g>
<!-- Node1&#45;&gt;Node0 -->
<g id="edge1" class="edge"><title>Node1&#45;&gt;Node0</title>
<path fill="none" stroke="midnightblue" d="M86.5,-57.2349C86.5,-48.5864 86.5,-38.4969 86.5,-30.523"/>
<polygon fill="midnightblue" stroke="midnightblue" points="83.0001,-57.4751 86.5,-67.4751 90.0001,-57.4751 83.0001,-57.4751"/>
</g>
<!-- Node2 -->
<g id="node3" class="node"><title>Node2</title>
<g id="a_node3"><a xlink:href="interface_system_1_1_runtime_1_1_interop_services_1_1___attribute.html" target="_top" xlink:title="Exposes the T:System.Attribute class to unmanaged code.">
<polygon fill="none" stroke="black" points="57,-123.5 57,-142.5 116,-142.5 116,-123.5 57,-123.5"/>
<text text-anchor="middle" x="86.5" y="-130.5" font-family="Helvetica,sans-Serif" font-size="10.00">_Attribute</text>
</a>
</g>
</g>
<!-- Node2&#45;&gt;Node1 -->
<g id="edge2" class="edge"><title>Node2&#45;&gt;Node1</title>
<path fill="none" stroke="midnightblue" d="M86.5,-112.805C86.5,-103.91 86.5,-93.7798 86.5,-86.7511"/>
<polygon fill="midnightblue" stroke="midnightblue" points="83.0001,-113.083 86.5,-123.083 90.0001,-113.083 83.0001,-113.083"/>
</g>
</g>
</svg>
