<?xml version="1.0" encoding="UTF-8" standalone="no"?>
<!DOCTYPE svg PUBLIC "-//W3C//DTD SVG 1.1//EN"
 "http://www.w3.org/Graphics/SVG/1.1/DTD/svg11.dtd">
<!-- Generated by graphviz version 2.38.0 (20140413.2041)
 -->
<!-- Title: System.Security.Permissions.SecurityAttribute Pages: 1 -->
<svg width="971pt" height="872pt"
 viewBox="0.00 0.00 971.00 872.00" xmlns="http://www.w3.org/2000/svg" xmlns:xlink="http://www.w3.org/1999/xlink">
<g id="graph0" class="graph" transform="scale(1 1) rotate(0) translate(4 868)">
<title>System.Security.Permissions.SecurityAttribute</title>
<!-- Node0 -->
<g id="node1" class="node"><title>Node0</title>
<g id="a_node1"><a xlink:title="Specifies the base attribute class for declarative security from which T:System.Security....">
<polygon fill="#bfbfbf" stroke="black" points="184,-416.5 184,-446.5 333,-446.5 333,-416.5 184,-416.5"/>
<text text-anchor="start" x="192" y="-434.5" font-family="Helvetica,sans-Serif" font-size="10.00">System.Security.Permissions.</text>
<text text-anchor="middle" x="258.5" y="-423.5" font-family="Helvetica,sans-Serif" font-size="10.00">SecurityAttribute</text>
</a>
</g>
</g>
<!-- Node3 -->
<g id="node4" class="node"><title>Node3</title>
<g id="a_node4"><a xlink:href="class_system_1_1_security_1_1_permissions_1_1_code_access_security_attribute.html" target="_top" xlink:title="Specifies the base attribute class for code access security.">
<polygon fill="none" stroke="black" points="369,-416.5 369,-446.5 518,-446.5 518,-416.5 369,-416.5"/>
<text text-anchor="start" x="377" y="-434.5" font-family="Helvetica,sans-Serif" font-size="10.00">System.Security.Permissions.</text>
<text text-anchor="middle" x="443.5" y="-423.5" font-family="Helvetica,sans-Serif" font-size="10.00">CodeAccessSecurityAttribute</text>
</a>
</g>
</g>
<!-- Node0&#45;&gt;Node3 -->
<g id="edge3" class="edge"><title>Node0&#45;&gt;Node3</title>
<path fill="none" stroke="midnightblue" d="M343.387,-431.5C351.838,-431.5 360.376,-431.5 368.711,-431.5"/>
<polygon fill="midnightblue" stroke="midnightblue" points="343.142,-428 333.142,-431.5 343.142,-435 343.142,-428"/>
</g>
<!-- Node1 -->
<g id="node2" class="node"><title>Node1</title>
<g id="a_node2"><a xlink:href="class_system_1_1_attribute.html" target="_top" xlink:title="Represents the base class for custom attributes.">
<polygon fill="none" stroke="black" points="95,-422 95,-441 148,-441 148,-422 95,-422"/>
<text text-anchor="middle" x="121.5" y="-429" font-family="Helvetica,sans-Serif" font-size="10.00">Attribute</text>
</a>
</g>
</g>
<!-- Node1&#45;&gt;Node0 -->
<g id="edge1" class="edge"><title>Node1&#45;&gt;Node0</title>
<path fill="none" stroke="midnightblue" d="M158.466,-431.5C166.367,-431.5 175.011,-431.5 183.796,-431.5"/>
<polygon fill="midnightblue" stroke="midnightblue" points="158.21,-428 148.21,-431.5 158.21,-435 158.21,-428"/>
</g>
<!-- Node2 -->
<g id="node3" class="node"><title>Node2</title>
<g id="a_node3"><a xlink:href="interface_system_1_1_runtime_1_1_interop_services_1_1___attribute.html" target="_top" xlink:title="Exposes the T:System.Attribute class to unmanaged code.">
<polygon fill="none" stroke="black" points="0,-422 0,-441 59,-441 59,-422 0,-422"/>
<text text-anchor="middle" x="29.5" y="-429" font-family="Helvetica,sans-Serif" font-size="10.00">_Attribute</text>
</a>
</g>
</g>
<!-- Node2&#45;&gt;Node1 -->
<g id="edge2" class="edge"><title>Node2&#45;&gt;Node1</title>
<path fill="none" stroke="midnightblue" d="M69.676,-431.5C78.2271,-431.5 87.0636,-431.5 94.9222,-431.5"/>
<polygon fill="midnightblue" stroke="midnightblue" points="69.472,-428 59.472,-431.5 69.4719,-435 69.472,-428"/>
</g>
<!-- Node4 -->
<g id="node5" class="node"><title>Node4</title>
<g id="a_node5"><a xlink:href="class_system_1_1_security_1_1_permissions_1_1_environment_permission_attribute.html" target="_top" xlink:title="Allows security actions for T:System.Security.Permissions.EnvironmentPermission to be applied to code...">
<polygon fill="none" stroke="black" points="570.5,-833.5 570.5,-863.5 725.5,-863.5 725.5,-833.5 570.5,-833.5"/>
<text text-anchor="start" x="578.5" y="-851.5" font-family="Helvetica,sans-Serif" font-size="10.00">System.Security.Permissions.</text>
<text text-anchor="middle" x="648" y="-840.5" font-family="Helvetica,sans-Serif" font-size="10.00">EnvironmentPermissionAttribute</text>
</a>
</g>
</g>
<!-- Node3&#45;&gt;Node4 -->
<g id="edge4" class="edge"><title>Node3&#45;&gt;Node4</title>
<path fill="none" stroke="midnightblue" d="M443.589,-456.889C442.558,-526.163 449.627,-720.143 554,-823.5 558.752,-828.206 564.289,-832.051 570.251,-835.19"/>
<polygon fill="midnightblue" stroke="midnightblue" points="447.088,-456.95 443.81,-446.875 440.09,-456.795 447.088,-456.95"/>
</g>
<!-- Node5 -->
<g id="node6" class="node"><title>Node5</title>
<g id="a_node6"><a xlink:href="class_system_1_1_security_1_1_permissions_1_1_file_dialog_permission_attribute.html" target="_top" xlink:title="Allows security actions for T:System.Security.Permissions.FileDialogPermission to be applied to code ...">
<polygon fill="none" stroke="black" points="573.5,-784.5 573.5,-814.5 722.5,-814.5 722.5,-784.5 573.5,-784.5"/>
<text text-anchor="start" x="581.5" y="-802.5" font-family="Helvetica,sans-Serif" font-size="10.00">System.Security.Permissions.</text>
<text text-anchor="middle" x="648" y="-791.5" font-family="Helvetica,sans-Serif" font-size="10.00">FileDialogPermissionAttribute</text>
</a>
</g>
</g>
<!-- Node3&#45;&gt;Node5 -->
<g id="edge5" class="edge"><title>Node3&#45;&gt;Node5</title>
<path fill="none" stroke="midnightblue" d="M444.794,-457.086C446.961,-520.535 461.655,-686.344 554,-774.5 559.563,-779.811 566.129,-784.02 573.159,-787.352"/>
<polygon fill="midnightblue" stroke="midnightblue" points="448.285,-456.709 444.525,-446.804 441.288,-456.892 448.285,-456.709"/>
</g>
<!-- Node6 -->
<g id="node7" class="node"><title>Node6</title>
<g id="a_node7"><a xlink:href="class_system_1_1_security_1_1_permissions_1_1_file_i_o_permission_attribute.html" target="_top" xlink:title="Allows security actions for T:System.Security.Permissions.FileIOPermission to be applied to code usin...">
<polygon fill="none" stroke="black" points="573.5,-735.5 573.5,-765.5 722.5,-765.5 722.5,-735.5 573.5,-735.5"/>
<text text-anchor="start" x="581.5" y="-753.5" font-family="Helvetica,sans-Serif" font-size="10.00">System.Security.Permissions.</text>
<text text-anchor="middle" x="648" y="-742.5" font-family="Helvetica,sans-Serif" font-size="10.00">FileIOPermissionAttribute</text>
</a>
</g>
</g>
<!-- Node3&#45;&gt;Node6 -->
<g id="edge6" class="edge"><title>Node3&#45;&gt;Node6</title>
<path fill="none" stroke="midnightblue" d="M446.349,-456.89C451.888,-513.76 473.378,-652.116 554,-725.5 559.687,-730.677 566.334,-734.801 573.411,-738.082"/>
<polygon fill="midnightblue" stroke="midnightblue" points="449.811,-456.298 445.441,-446.646 442.838,-456.916 449.811,-456.298"/>
</g>
<!-- Node7 -->
<g id="node8" class="node"><title>Node7</title>
<g id="a_node8"><a xlink:href="class_system_1_1_security_1_1_permissions_1_1_gac_identity_permission_attribute.html" target="_top" xlink:title="Allows security actions for T:System.Security.Permissions.GacIdentityPermission to be applied to code...">
<polygon fill="none" stroke="black" points="572,-686.5 572,-716.5 724,-716.5 724,-686.5 572,-686.5"/>
<text text-anchor="start" x="580" y="-704.5" font-family="Helvetica,sans-Serif" font-size="10.00">System.Security.Permissions.</text>
<text text-anchor="middle" x="648" y="-693.5" font-family="Helvetica,sans-Serif" font-size="10.00">GacIdentityPermissionAttribute</text>
</a>
</g>
</g>
<!-- Node3&#45;&gt;Node7 -->
<g id="edge7" class="edge"><title>Node3&#45;&gt;Node7</title>
<path fill="none" stroke="midnightblue" d="M448.393,-456.42C457.485,-506.035 484.836,-617.465 554,-676.5 559.341,-681.059 565.433,-684.795 571.885,-687.855"/>
<polygon fill="midnightblue" stroke="midnightblue" points="451.837,-455.795 446.678,-446.542 444.941,-456.993 451.837,-455.795"/>
</g>
<!-- Node8 -->
<g id="node9" class="node"><title>Node8</title>
<g id="a_node9"><a xlink:href="class_system_1_1_security_1_1_permissions_1_1_host_protection_attribute.html" target="_top" xlink:title="Allows the use of declarative security actions to determine host protection requirements....">
<polygon fill="none" stroke="black" points="573.5,-637.5 573.5,-667.5 722.5,-667.5 722.5,-637.5 573.5,-637.5"/>
<text text-anchor="start" x="581.5" y="-655.5" font-family="Helvetica,sans-Serif" font-size="10.00">System.Security.Permissions.</text>
<text text-anchor="middle" x="648" y="-644.5" font-family="Helvetica,sans-Serif" font-size="10.00">HostProtectionAttribute</text>
</a>
</g>
</g>
<!-- Node3&#45;&gt;Node8 -->
<g id="edge8" class="edge"><title>Node3&#45;&gt;Node8</title>
<path fill="none" stroke="midnightblue" d="M451.421,-456.373C464.375,-498.226 496.321,-582.553 554,-627.5 559.803,-632.022 566.358,-635.728 573.236,-638.765"/>
<polygon fill="midnightblue" stroke="midnightblue" points="454.747,-455.278 448.533,-446.697 448.039,-457.28 454.747,-455.278"/>
</g>
<!-- Node9 -->
<g id="node10" class="node"><title>Node9</title>
<g id="a_node10"><a xlink:href="class_system_1_1_security_1_1_permissions_1_1_isolated_storage_permission_attribute.html" target="_top" xlink:title="Allows security actions for T:System.Security.Permissions.IsolatedStoragePermission to be applied to ...">
<polygon fill="none" stroke="black" points="563,-588.5 563,-618.5 733,-618.5 733,-588.5 563,-588.5"/>
<text text-anchor="start" x="571" y="-606.5" font-family="Helvetica,sans-Serif" font-size="10.00">System.Security.Permissions.</text>
<text text-anchor="middle" x="648" y="-595.5" font-family="Helvetica,sans-Serif" font-size="10.00">IsolatedStoragePermissionAttribute</text>
</a>
</g>
</g>
<!-- Node3&#45;&gt;Node9 -->
<g id="edge9" class="edge"><title>Node3&#45;&gt;Node9</title>
<path fill="none" stroke="midnightblue" d="M456.116,-455.973C473.005,-488.881 507.477,-546.905 554,-578.5 559.671,-582.351 565.91,-585.61 572.392,-588.368"/>
<polygon fill="midnightblue" stroke="midnightblue" points="459.045,-454.005 451.445,-446.623 452.783,-457.133 459.045,-454.005"/>
</g>
<!-- Node11 -->
<g id="node12" class="node"><title>Node11</title>
<g id="a_node12"><a xlink:href="class_system_1_1_security_1_1_permissions_1_1_key_container_permission_attribute.html" target="_top" xlink:title="Allows security actions for T:System.Security.Permissions.KeyContainerPermission to be applied to cod...">
<polygon fill="none" stroke="black" points="567.5,-539.5 567.5,-569.5 728.5,-569.5 728.5,-539.5 567.5,-539.5"/>
<text text-anchor="start" x="575.5" y="-557.5" font-family="Helvetica,sans-Serif" font-size="10.00">System.Security.Permissions.</text>
<text text-anchor="middle" x="648" y="-546.5" font-family="Helvetica,sans-Serif" font-size="10.00">KeyContainerPermissionAttribute</text>
</a>
</g>
</g>
<!-- Node3&#45;&gt;Node11 -->
<g id="edge11" class="edge"><title>Node3&#45;&gt;Node11</title>
<path fill="none" stroke="midnightblue" d="M463.885,-454.177C484.174,-476.51 518.036,-510.024 554,-529.5 561.057,-533.322 568.737,-536.589 576.558,-539.376"/>
<polygon fill="midnightblue" stroke="midnightblue" points="466.311,-451.639 457.045,-446.501 461.085,-456.296 466.311,-451.639"/>
</g>
<!-- Node12 -->
<g id="node13" class="node"><title>Node12</title>
<g id="a_node13"><a xlink:href="class_system_1_1_security_1_1_permissions_1_1_permission_set_attribute.html" target="_top" xlink:title="Allows security actions for a T:System.Security.PermissionSet to be applied to code using declarative...">
<polygon fill="none" stroke="black" points="573.5,-490.5 573.5,-520.5 722.5,-520.5 722.5,-490.5 573.5,-490.5"/>
<text text-anchor="start" x="581.5" y="-508.5" font-family="Helvetica,sans-Serif" font-size="10.00">System.Security.Permissions.</text>
<text text-anchor="middle" x="648" y="-497.5" font-family="Helvetica,sans-Serif" font-size="10.00">PermissionSetAttribute</text>
</a>
</g>
</g>
<!-- Node3&#45;&gt;Node12 -->
<g id="edge12" class="edge"><title>Node3&#45;&gt;Node12</title>
<path fill="none" stroke="midnightblue" d="M483.721,-450.866C504.322,-460.571 530.176,-472.027 554,-480.5 564.082,-484.085 574.935,-487.441 585.544,-490.457"/>
<polygon fill="midnightblue" stroke="midnightblue" points="485.185,-447.686 474.651,-446.547 482.175,-454.006 485.185,-447.686"/>
</g>
<!-- Node13 -->
<g id="node14" class="node"><title>Node13</title>
<g id="a_node14"><a xlink:href="class_system_1_1_security_1_1_permissions_1_1_principal_permission_attribute.html" target="_top" xlink:title="Allows security actions for T:System.Security.Permissions.PrincipalPermission to be applied to code u...">
<polygon fill="none" stroke="black" points="573.5,-441.5 573.5,-471.5 722.5,-471.5 722.5,-441.5 573.5,-441.5"/>
<text text-anchor="start" x="581.5" y="-459.5" font-family="Helvetica,sans-Serif" font-size="10.00">System.Security.Permissions.</text>
<text text-anchor="middle" x="648" y="-448.5" font-family="Helvetica,sans-Serif" font-size="10.00">PrincipalPermissionAttribute</text>
</a>
</g>
</g>
<!-- Node3&#45;&gt;Node13 -->
<g id="edge13" class="edge"><title>Node3&#45;&gt;Node13</title>
<path fill="none" stroke="midnightblue" d="M528.41,-441.859C543.33,-443.701 558.768,-445.607 573.375,-447.41"/>
<polygon fill="midnightblue" stroke="midnightblue" points="528.534,-438.348 518.18,-440.596 527.676,-445.295 528.534,-438.348"/>
</g>
<!-- Node14 -->
<g id="node15" class="node"><title>Node14</title>
<g id="a_node15"><a xlink:href="class_system_1_1_security_1_1_permissions_1_1_publisher_identity_permission_attribute.html" target="_top" xlink:title="Allows security actions for T:System.Security.Permissions.PublisherIdentityPermission to be applied t...">
<polygon fill="none" stroke="black" points="561,-392.5 561,-422.5 735,-422.5 735,-392.5 561,-392.5"/>
<text text-anchor="start" x="569" y="-410.5" font-family="Helvetica,sans-Serif" font-size="10.00">System.Security.Permissions.</text>
<text text-anchor="middle" x="648" y="-399.5" font-family="Helvetica,sans-Serif" font-size="10.00">PublisherIdentityPermissionAttribute</text>
</a>
</g>
</g>
<!-- Node3&#45;&gt;Node14 -->
<g id="edge14" class="edge"><title>Node3&#45;&gt;Node14</title>
<path fill="none" stroke="midnightblue" d="M528.402,-421.556C539.167,-420.28 550.201,-418.972 560.999,-417.693"/>
<polygon fill="midnightblue" stroke="midnightblue" points="527.699,-418.115 518.18,-422.768 528.522,-425.066 527.699,-418.115"/>
</g>
<!-- Node15 -->
<g id="node16" class="node"><title>Node15</title>
<g id="a_node16"><a xlink:href="class_system_1_1_security_1_1_permissions_1_1_reflection_permission_attribute.html" target="_top" xlink:title="Allows security actions for T:System.Security.Permissions.ReflectionPermission to be applied to code ...">
<polygon fill="none" stroke="black" points="573.5,-343.5 573.5,-373.5 722.5,-373.5 722.5,-343.5 573.5,-343.5"/>
<text text-anchor="start" x="581.5" y="-361.5" font-family="Helvetica,sans-Serif" font-size="10.00">System.Security.Permissions.</text>
<text text-anchor="middle" x="648" y="-350.5" font-family="Helvetica,sans-Serif" font-size="10.00">ReflectionPermissionAttribute</text>
</a>
</g>
</g>
<!-- Node3&#45;&gt;Node15 -->
<g id="edge15" class="edge"><title>Node3&#45;&gt;Node15</title>
<path fill="none" stroke="midnightblue" d="M483.686,-412.035C504.277,-402.303 530.134,-390.853 554,-382.5 563.128,-379.305 572.894,-376.326 582.54,-373.629"/>
<polygon fill="midnightblue" stroke="midnightblue" points="482.134,-408.897 474.621,-416.368 485.153,-415.213 482.134,-408.897"/>
</g>
<!-- Node16 -->
<g id="node17" class="node"><title>Node16</title>
<g id="a_node17"><a xlink:href="class_system_1_1_security_1_1_permissions_1_1_registry_permission_attribute.html" target="_top" xlink:title="Allows security actions for T:System.Security.Permissions.RegistryPermission to be applied to code us...">
<polygon fill="none" stroke="black" points="573.5,-294.5 573.5,-324.5 722.5,-324.5 722.5,-294.5 573.5,-294.5"/>
<text text-anchor="start" x="581.5" y="-312.5" font-family="Helvetica,sans-Serif" font-size="10.00">System.Security.Permissions.</text>
<text text-anchor="middle" x="648" y="-301.5" font-family="Helvetica,sans-Serif" font-size="10.00">RegistryPermissionAttribute</text>
</a>
</g>
</g>
<!-- Node3&#45;&gt;Node16 -->
<g id="edge16" class="edge"><title>Node3&#45;&gt;Node16</title>
<path fill="none" stroke="midnightblue" d="M463.844,-408.747C484.101,-386.355 517.938,-352.795 554,-333.5 560.322,-330.117 567.144,-327.194 574.12,-324.671"/>
<polygon fill="midnightblue" stroke="midnightblue" points="461.034,-406.641 457.016,-416.445 466.27,-411.286 461.034,-406.641"/>
</g>
<!-- Node17 -->
<g id="node18" class="node"><title>Node17</title>
<g id="a_node18"><a xlink:href="class_system_1_1_security_1_1_permissions_1_1_security_permission_attribute.html" target="_top" xlink:title="Allows security actions for T:System.Security.Permissions.SecurityPermission to be applied to code us...">
<polygon fill="none" stroke="black" points="573.5,-245.5 573.5,-275.5 722.5,-275.5 722.5,-245.5 573.5,-245.5"/>
<text text-anchor="start" x="581.5" y="-263.5" font-family="Helvetica,sans-Serif" font-size="10.00">System.Security.Permissions.</text>
<text text-anchor="middle" x="648" y="-252.5" font-family="Helvetica,sans-Serif" font-size="10.00">SecurityPermissionAttribute</text>
</a>
</g>
</g>
<!-- Node3&#45;&gt;Node17 -->
<g id="edge17" class="edge"><title>Node3&#45;&gt;Node17</title>
<path fill="none" stroke="midnightblue" d="M456.07,-406.96C472.907,-373.974 507.319,-315.861 554,-284.5 559.952,-280.502 566.528,-277.169 573.351,-274.392"/>
<polygon fill="midnightblue" stroke="midnightblue" points="452.728,-405.82 451.415,-416.333 458.998,-408.934 452.728,-405.82"/>
</g>
<!-- Node18 -->
<g id="node19" class="node"><title>Node18</title>
<g id="a_node19"><a xlink:href="class_system_1_1_security_1_1_permissions_1_1_site_identity_permission_attribute.html" target="_top" xlink:title="Allows security actions for T:System.Security.Permissions.SiteIdentityPermission to be applied to cod...">
<polygon fill="none" stroke="black" points="572.5,-196.5 572.5,-226.5 723.5,-226.5 723.5,-196.5 572.5,-196.5"/>
<text text-anchor="start" x="580.5" y="-214.5" font-family="Helvetica,sans-Serif" font-size="10.00">System.Security.Permissions.</text>
<text text-anchor="middle" x="648" y="-203.5" font-family="Helvetica,sans-Serif" font-size="10.00">SiteIdentityPermissionAttribute</text>
</a>
</g>
</g>
<!-- Node3&#45;&gt;Node18 -->
<g id="edge18" class="edge"><title>Node3&#45;&gt;Node18</title>
<path fill="none" stroke="midnightblue" d="M451.373,-406.565C464.254,-364.619 496.096,-280.156 554,-235.5 559.546,-231.223 565.775,-227.703 572.314,-224.808"/>
<polygon fill="midnightblue" stroke="midnightblue" points="447.984,-405.681 448.502,-416.263 454.696,-407.668 447.984,-405.681"/>
</g>
<!-- Node19 -->
<g id="node20" class="node"><title>Node19</title>
<g id="a_node20"><a xlink:href="class_system_1_1_security_1_1_permissions_1_1_strong_name_identity_permission_attribute.html" target="_top" xlink:title="Allows security actions for T:System.Security.Permissions.StrongNameIdentityPermission to be applied ...">
<polygon fill="none" stroke="black" points="554,-147.5 554,-177.5 742,-177.5 742,-147.5 554,-147.5"/>
<text text-anchor="start" x="562" y="-165.5" font-family="Helvetica,sans-Serif" font-size="10.00">System.Security.Permissions.</text>
<text text-anchor="middle" x="648" y="-154.5" font-family="Helvetica,sans-Serif" font-size="10.00">StrongNameIdentityPermissionAttribute</text>
</a>
</g>
</g>
<!-- Node3&#45;&gt;Node19 -->
<g id="edge19" class="edge"><title>Node3&#45;&gt;Node19</title>
<path fill="none" stroke="midnightblue" d="M448.343,-406.521C457.345,-356.799 484.54,-245.187 554,-186.5 558.076,-183.056 562.586,-180.098 567.358,-177.559"/>
<polygon fill="midnightblue" stroke="midnightblue" points="444.886,-405.974 446.646,-416.421 451.786,-407.157 444.886,-405.974"/>
</g>
<!-- Node20 -->
<g id="node21" class="node"><title>Node20</title>
<g id="a_node21"><a xlink:href="class_system_1_1_security_1_1_permissions_1_1_u_i_permission_attribute.html" target="_top" xlink:title="Allows security actions for T:System.Security.Permissions.UIPermission to be applied to code using de...">
<polygon fill="none" stroke="black" points="573.5,-98.5 573.5,-128.5 722.5,-128.5 722.5,-98.5 573.5,-98.5"/>
<text text-anchor="start" x="581.5" y="-116.5" font-family="Helvetica,sans-Serif" font-size="10.00">System.Security.Permissions.</text>
<text text-anchor="middle" x="648" y="-105.5" font-family="Helvetica,sans-Serif" font-size="10.00">UIPermissionAttribute</text>
</a>
</g>
</g>
<!-- Node3&#45;&gt;Node20 -->
<g id="edge20" class="edge"><title>Node3&#45;&gt;Node20</title>
<path fill="none" stroke="midnightblue" d="M446.297,-406.052C451.728,-349.063 473.01,-210.478 554,-137.5 559.698,-132.365 566.352,-128.301 573.433,-125.088"/>
<polygon fill="midnightblue" stroke="midnightblue" points="442.784,-406.053 445.409,-416.318 449.758,-406.657 442.784,-406.053"/>
</g>
<!-- Node21 -->
<g id="node22" class="node"><title>Node21</title>
<g id="a_node22"><a xlink:href="class_system_1_1_security_1_1_permissions_1_1_url_identity_permission_attribute.html" target="_top" xlink:title="Allows security actions for T:System.Security.Permissions.UrlIdentityPermission to be applied to code...">
<polygon fill="none" stroke="black" points="573.5,-49.5 573.5,-79.5 722.5,-79.5 722.5,-49.5 573.5,-49.5"/>
<text text-anchor="start" x="581.5" y="-67.5" font-family="Helvetica,sans-Serif" font-size="10.00">System.Security.Permissions.</text>
<text text-anchor="middle" x="648" y="-56.5" font-family="Helvetica,sans-Serif" font-size="10.00">UrlIdentityPermissionAttribute</text>
</a>
</g>
</g>
<!-- Node3&#45;&gt;Node21 -->
<g id="edge21" class="edge"><title>Node3&#45;&gt;Node21</title>
<path fill="none" stroke="midnightblue" d="M444.74,-405.857C446.782,-342.277 461.213,-176.191 554,-88.5 559.575,-83.2315 566.149,-79.0814 573.183,-75.818"/>
<polygon fill="midnightblue" stroke="midnightblue" points="441.233,-406.08 444.491,-416.161 448.231,-406.248 441.233,-406.08"/>
</g>
<!-- Node22 -->
<g id="node23" class="node"><title>Node22</title>
<g id="a_node23"><a xlink:href="class_system_1_1_security_1_1_permissions_1_1_zone_identity_permission_attribute.html" target="_top" xlink:title="Allows security actions for T:System.Security.Permissions.ZoneIdentityPermission to be applied to cod...">
<polygon fill="none" stroke="black" points="570.5,-0.5 570.5,-30.5 725.5,-30.5 725.5,-0.5 570.5,-0.5"/>
<text text-anchor="start" x="578.5" y="-18.5" font-family="Helvetica,sans-Serif" font-size="10.00">System.Security.Permissions.</text>
<text text-anchor="middle" x="648" y="-7.5" font-family="Helvetica,sans-Serif" font-size="10.00">ZoneIdentityPermissionAttribute</text>
</a>
</g>
</g>
<!-- Node3&#45;&gt;Node22 -->
<g id="edge22" class="edge"><title>Node3&#45;&gt;Node22</title>
<path fill="none" stroke="midnightblue" d="M448.185,-406.476C460.15,-328.531 500.267,-92.1777 554,-39.5 558.763,-34.8307 564.308,-31.0346 570.274,-27.9528"/>
<polygon fill="midnightblue" stroke="midnightblue" points="444.721,-405.976 446.685,-416.387 451.642,-407.024 444.721,-405.976"/>
</g>
<!-- Node10 -->
<g id="node11" class="node"><title>Node10</title>
<g id="a_node11"><a xlink:href="class_system_1_1_security_1_1_permissions_1_1_isolated_storage_file_permission_attribute.html" target="_top" xlink:title="Allows security actions for T:System.Security.Permissions.IsolatedStorageFilePermission to be applied...">
<polygon fill="none" stroke="black" points="778,-588.5 778,-618.5 963,-618.5 963,-588.5 778,-588.5"/>
<text text-anchor="start" x="786" y="-606.5" font-family="Helvetica,sans-Serif" font-size="10.00">System.Security.Permissions.</text>
<text text-anchor="middle" x="870.5" y="-595.5" font-family="Helvetica,sans-Serif" font-size="10.00">IsolatedStorageFilePermissionAttribute</text>
</a>
</g>
</g>
<!-- Node9&#45;&gt;Node10 -->
<g id="edge10" class="edge"><title>Node9&#45;&gt;Node10</title>
<path fill="none" stroke="midnightblue" d="M743.308,-603.5C754.773,-603.5 766.474,-603.5 777.899,-603.5"/>
<polygon fill="midnightblue" stroke="midnightblue" points="743.305,-600 733.305,-603.5 743.305,-607 743.305,-600"/>
</g>
</g>
</svg>
