<?xml version="1.0" encoding="UTF-8" standalone="no"?>
<!DOCTYPE svg PUBLIC "-//W3C//DTD SVG 1.1//EN"
 "http://www.w3.org/Graphics/SVG/1.1/DTD/svg11.dtd">
<!-- Generated by graphviz version 2.38.0 (20140413.2041)
 -->
<!-- Title: System.Security.Policy.PEFileEvidenceFactory Pages: 1 -->
<svg width="288pt" height="117pt"
 viewBox="0.00 0.00 287.50 117.00" xmlns="http://www.w3.org/2000/svg" xmlns:xlink="http://www.w3.org/1999/xlink">
<g id="graph0" class="graph" transform="scale(1 1) rotate(0) translate(4 113)">
<title>System.Security.Policy.PEFileEvidenceFactory</title>
<!-- Node2 -->
<g id="node1" class="node"><title>Node2</title>
<g id="a_node1"><a xlink:title=" ">
<polygon fill="#bfbfbf" stroke="black" points="61.5,-0.5 61.5,-30.5 213.5,-30.5 213.5,-0.5 61.5,-0.5"/>
<text text-anchor="start" x="69.5" y="-18.5" font-family="Helvetica,sans-Serif" font-size="10.00">System.Security.Policy.PEFile</text>
<text text-anchor="middle" x="137.5" y="-7.5" font-family="Helvetica,sans-Serif" font-size="10.00">EvidenceFactory</text>
</a>
</g>
</g>
<!-- Node3 -->
<g id="node2" class="node"><title>Node3</title>
<g id="a_node2"><a xlink:href="interface_system_1_1_security_1_1_policy_1_1_i_runtime_evidence_factory.html" target="_top" xlink:title=" ">
<polygon fill="none" stroke="black" points="0,-84 0,-103 127,-103 127,-84 0,-84"/>
<text text-anchor="middle" x="63.5" y="-91" font-family="Helvetica,sans-Serif" font-size="10.00">IRuntimeEvidenceFactory</text>
</a>
</g>
</g>
<!-- Node3&#45;&gt;Node2 -->
<g id="edge1" class="edge"><title>Node3&#45;&gt;Node2</title>
<path fill="none" stroke="midnightblue" d="M79.0558,-76.5238C92.3104,-62.911 111.172,-43.5398 123.849,-30.5198"/>
<polygon fill="midnightblue" stroke="midnightblue" points="76.4573,-74.1754 71.9887,-83.7818 81.4726,-79.0588 76.4573,-74.1754"/>
</g>
<!-- Node4 -->
<g id="node3" class="node"><title>Node4</title>
<g id="a_node3"><a xlink:href="interface_system_1_1_security_1_1_i_evidence_factory.html" target="_top" xlink:title="Gets an object&#39;s T:System.Security.Policy.Evidence.">
<polygon fill="none" stroke="black" points="145.5,-78.5 145.5,-108.5 279.5,-108.5 279.5,-78.5 145.5,-78.5"/>
<text text-anchor="start" x="153.5" y="-96.5" font-family="Helvetica,sans-Serif" font-size="10.00">System.Security.IEvidence</text>
<text text-anchor="middle" x="212.5" y="-85.5" font-family="Helvetica,sans-Serif" font-size="10.00">Factory</text>
</a>
</g>
</g>
<!-- Node4&#45;&gt;Node2 -->
<g id="edge2" class="edge"><title>Node4&#45;&gt;Node2</title>
<path fill="none" stroke="#9a32cd" stroke-dasharray="5,2" d="M191.316,-71.0332C178.584,-58.1316 162.735,-42.0716 151.544,-30.7309"/>
<polygon fill="#9a32cd" stroke="#9a32cd" points="188.878,-73.5457 198.393,-78.205 193.86,-68.6288 188.878,-73.5457"/>
<text text-anchor="middle" x="195" y="-52" font-family="Helvetica,sans-Serif" font-size="10.00"> Target</text>
</g>
</g>
</svg>
