<?xml version="1.0" encoding="UTF-8" standalone="no"?>
<!DOCTYPE svg PUBLIC "-//W3C//DTD SVG 1.1//EN"
 "http://www.w3.org/Graphics/SVG/1.1/DTD/svg11.dtd">
<!-- Generated by graphviz version 2.38.0 (20140413.2041)
 -->
<!-- Title: System.Threading.Tasks.Task&lt; TResult &gt; Pages: 1 -->
<svg width="653pt" height="799pt"
 viewBox="0.00 0.00 653.00 798.50" xmlns="http://www.w3.org/2000/svg" xmlns:xlink="http://www.w3.org/1999/xlink">
<g id="graph0" class="graph" transform="scale(1 1) rotate(0) translate(4 794.5)">
<title>System.Threading.Tasks.Task&lt; TResult &gt;</title>
<!-- Node0 -->
<g id="node1" class="node"><title>Node0</title>
<g id="a_node1"><a xlink:title="Represents an asynchronous operation that can return a value.">
<polygon fill="#bfbfbf" stroke="black" points="147,-357.5 147,-387.5 296,-387.5 296,-357.5 147,-357.5"/>
<text text-anchor="start" x="155" y="-375.5" font-family="Helvetica,sans-Serif" font-size="10.00">System.Threading.Tasks.Task</text>
<text text-anchor="middle" x="221.5" y="-364.5" font-family="Helvetica,sans-Serif" font-size="10.00">&lt; TResult &gt;</text>
</a>
</g>
</g>
<!-- Node5 -->
<g id="node6" class="node"><title>Node5</title>
<g id="a_node6"><a xlink:href="class_system_1_1_threading_1_1_tasks_1_1_continuation_result_task_from_result_task.html" target="_top" xlink:title=" ">
<polygon fill="none" stroke="black" points="464.5,-749 464.5,-790 616.5,-790 616.5,-749 464.5,-749"/>
<text text-anchor="start" x="472.5" y="-778" font-family="Helvetica,sans-Serif" font-size="10.00">System::Threading::</text>
<text text-anchor="start" x="472.5" y="-767" font-family="Helvetica,sans-Serif" font-size="10.00">Tasks::ContinuationResultTask</text>
<text text-anchor="middle" x="540.5" y="-756" font-family="Helvetica,sans-Serif" font-size="10.00">FromResultTask&lt; TResult &gt;</text>
</a>
</g>
</g>
<!-- Node0&#45;&gt;Node5 -->
<g id="edge5" class="edge"><title>Node0&#45;&gt;Node5</title>
<path fill="none" stroke="midnightblue" d="M225.387,-397.704C232.43,-449.858 254.499,-571.504 314,-652.5 353.428,-706.171 376.056,-710.485 436,-739.5 444.925,-743.82 454.591,-747.637 464.308,-750.974"/>
<polygon fill="midnightblue" stroke="midnightblue" points="228.844,-397.145 224.104,-387.669 221.9,-398.032 228.844,-397.145"/>
</g>
<!-- Node6 -->
<g id="node7" class="node"><title>Node6</title>
<g id="a_node7"><a xlink:href="class_system_1_1_threading_1_1_tasks_1_1_continuation_result_task_from_task.html" target="_top" xlink:title=" ">
<polygon fill="none" stroke="black" points="464.5,-689 464.5,-730 616.5,-730 616.5,-689 464.5,-689"/>
<text text-anchor="start" x="472.5" y="-718" font-family="Helvetica,sans-Serif" font-size="10.00">System::Threading::</text>
<text text-anchor="start" x="472.5" y="-707" font-family="Helvetica,sans-Serif" font-size="10.00">Tasks::ContinuationResultTask</text>
<text text-anchor="middle" x="540.5" y="-696" font-family="Helvetica,sans-Serif" font-size="10.00">FromTask&lt; TResult &gt;</text>
</a>
</g>
</g>
<!-- Node0&#45;&gt;Node6 -->
<g id="edge6" class="edge"><title>Node0&#45;&gt;Node6</title>
<path fill="none" stroke="midnightblue" d="M226.998,-397.617C236.241,-443.164 261.106,-540.494 314,-603.5 352.384,-649.222 414.913,-676.452 464.401,-691.841"/>
<polygon fill="midnightblue" stroke="midnightblue" points="230.415,-396.853 225.069,-387.705 223.543,-398.19 230.415,-396.853"/>
</g>
<!-- Node7 -->
<g id="node8" class="node"><title>Node7</title>
<g id="a_node8"><a xlink:href="class_system_1_1_threading_1_1_tasks_1_1_continuation_task_from_result_task.html" target="_top" xlink:title=" ">
<polygon fill="none" stroke="black" points="436,-639.5 436,-669.5 645,-669.5 645,-639.5 436,-639.5"/>
<text text-anchor="start" x="444" y="-657.5" font-family="Helvetica,sans-Serif" font-size="10.00">System.Threading.Tasks.Continuation</text>
<text text-anchor="middle" x="540.5" y="-646.5" font-family="Helvetica,sans-Serif" font-size="10.00">TaskFromResultTask&lt; TAntecedentResult &gt;</text>
</a>
</g>
</g>
<!-- Node0&#45;&gt;Node7 -->
<g id="edge7" class="edge"><title>Node0&#45;&gt;Node7</title>
<path fill="none" stroke="midnightblue" d="M229.799,-397.279C242.015,-435.294 269.709,-508.625 314,-556.5 356.91,-602.883 377.512,-605.587 436,-629.5 445.24,-633.278 455.187,-636.574 465.131,-639.424"/>
<polygon fill="midnightblue" stroke="midnightblue" points="233.082,-396.048 226.764,-387.543 226.399,-398.132 233.082,-396.048"/>
</g>
<!-- Node8 -->
<g id="node9" class="node"><title>Node8</title>
<g id="a_node9"><a xlink:href="class_system_1_1_threading_1_1_tasks_1_1_continuation_task_from_task.html" target="_top" xlink:title=" ">
<polygon fill="none" stroke="black" points="449.5,-590.5 449.5,-620.5 631.5,-620.5 631.5,-590.5 449.5,-590.5"/>
<text text-anchor="start" x="457.5" y="-608.5" font-family="Helvetica,sans-Serif" font-size="10.00">System.Threading.Tasks.Continuation</text>
<text text-anchor="middle" x="540.5" y="-597.5" font-family="Helvetica,sans-Serif" font-size="10.00">TaskFromTask</text>
</a>
</g>
</g>
<!-- Node0&#45;&gt;Node8 -->
<g id="edge8" class="edge"><title>Node0&#45;&gt;Node8</title>
<path fill="none" stroke="midnightblue" d="M234.282,-397.074C249.459,-426.777 278.2,-476.94 314,-510.5 359.608,-553.254 377.922,-557.373 436,-580.5 445.446,-584.261 455.61,-587.56 465.748,-590.422"/>
<polygon fill="midnightblue" stroke="midnightblue" points="237.267,-395.218 229.664,-387.839 231.006,-398.349 237.267,-395.218"/>
</g>
<!-- Node9 -->
<g id="node10" class="node"><title>Node9</title>
<g id="a_node10"><a xlink:href="class_system_1_1_threading_1_1_tasks_1_1_parallel_for_replica_task.html" target="_top" xlink:title=" ">
<polygon fill="none" stroke="black" points="460.5,-541.5 460.5,-571.5 620.5,-571.5 620.5,-541.5 460.5,-541.5"/>
<text text-anchor="start" x="468.5" y="-559.5" font-family="Helvetica,sans-Serif" font-size="10.00">System.Threading.Tasks.Parallel</text>
<text text-anchor="middle" x="540.5" y="-548.5" font-family="Helvetica,sans-Serif" font-size="10.00">ForReplicaTask</text>
</a>
</g>
</g>
<!-- Node0&#45;&gt;Node9 -->
<g id="edge9" class="edge"><title>Node0&#45;&gt;Node9</title>
<path fill="none" stroke="midnightblue" d="M241.132,-395.724C258.478,-416.332 285.826,-446.364 314,-467.5 362.979,-504.245 378.696,-509.926 436,-531.5 445.948,-535.245 456.648,-538.569 467.261,-541.472"/>
<polygon fill="midnightblue" stroke="midnightblue" points="243.633,-393.257 234.557,-387.791 238.244,-397.724 243.633,-393.257"/>
</g>
<!-- Node10 -->
<g id="node11" class="node"><title>Node10</title>
<g id="a_node11"><a xlink:href="class_system_1_1_threading_1_1_tasks_1_1_parallel_for_replicating_task.html" target="_top" xlink:title=" ">
<polygon fill="none" stroke="black" points="460.5,-492.5 460.5,-522.5 620.5,-522.5 620.5,-492.5 460.5,-492.5"/>
<text text-anchor="start" x="468.5" y="-510.5" font-family="Helvetica,sans-Serif" font-size="10.00">System.Threading.Tasks.Parallel</text>
<text text-anchor="middle" x="540.5" y="-499.5" font-family="Helvetica,sans-Serif" font-size="10.00">ForReplicatingTask</text>
</a>
</g>
</g>
<!-- Node0&#45;&gt;Node10 -->
<g id="edge10" class="edge"><title>Node0&#45;&gt;Node10</title>
<path fill="none" stroke="midnightblue" d="M253.512,-393.41C270.922,-404.74 293.257,-418.609 314,-429.5 366.342,-456.981 379.947,-463.712 436,-482.5 446.867,-486.142 458.541,-489.487 469.994,-492.464"/>
<polygon fill="midnightblue" stroke="midnightblue" points="255.17,-390.311 244.89,-387.745 251.326,-396.162 255.17,-390.311"/>
</g>
<!-- Node11 -->
<g id="node12" class="node"><title>Node11</title>
<g id="a_node12"><a xlink:href="class_system_1_1_threading_1_1_tasks_1_1_unwrap_promise.html" target="_top" xlink:title=" ">
<polygon fill="none" stroke="black" points="482,-432 482,-473 599,-473 599,-432 482,-432"/>
<text text-anchor="start" x="490" y="-461" font-family="Helvetica,sans-Serif" font-size="10.00">System::Threading::</text>
<text text-anchor="start" x="490" y="-450" font-family="Helvetica,sans-Serif" font-size="10.00">Tasks::UnwrapPromise</text>
<text text-anchor="middle" x="540.5" y="-439" font-family="Helvetica,sans-Serif" font-size="10.00">&lt; TResult &gt;</text>
</a>
</g>
</g>
<!-- Node0&#45;&gt;Node11 -->
<g id="edge11" class="edge"><title>Node0&#45;&gt;Node11</title>
<path fill="none" stroke="midnightblue" d="M275.023,-390.703C287.711,-394.827 301.281,-399.014 314,-402.5 370.464,-417.976 435.869,-432.062 481.651,-441.311"/>
<polygon fill="midnightblue" stroke="midnightblue" points="276.115,-387.378 265.522,-387.574 273.925,-394.026 276.115,-387.378"/>
</g>
<!-- Node12 -->
<g id="node13" class="node"><title>Node12</title>
<g id="a_node13"><a xlink:href="class_system_1_1_threading_1_1_tasks_1_1_task.html" target="_top" xlink:title=" ">
<polygon fill="none" stroke="black" points="466,-382.5 466,-412.5 615,-412.5 615,-382.5 466,-382.5"/>
<text text-anchor="start" x="474" y="-400.5" font-family="Helvetica,sans-Serif" font-size="10.00">System.Threading.Tasks.Task</text>
<text text-anchor="middle" x="540.5" y="-389.5" font-family="Helvetica,sans-Serif" font-size="10.00">&lt; Task&lt; T &gt;[]&gt;</text>
</a>
</g>
</g>
<!-- Node0&#45;&gt;Node12 -->
<g id="edge12" class="edge"><title>Node0&#45;&gt;Node12</title>
<path fill="none" stroke="orange" stroke-dasharray="5,2" d="M306.089,-379.092C355.712,-383.006 418.057,-387.922 465.827,-391.69"/>
<polygon fill="orange" stroke="orange" points="306.267,-375.595 296.023,-378.298 305.717,-382.574 306.267,-375.595"/>
<text text-anchor="middle" x="366" y="-390.5" font-family="Helvetica,sans-Serif" font-size="10.00"> &lt; Task&lt; T &gt;[]&gt;</text>
</g>
<!-- Node13 -->
<g id="node14" class="node"><title>Node13</title>
<g id="a_node14"><a xlink:href="class_system_1_1_threading_1_1_tasks_1_1_task.html" target="_top" xlink:title=" ">
<polygon fill="none" stroke="black" points="466,-333.5 466,-363.5 615,-363.5 615,-333.5 466,-333.5"/>
<text text-anchor="start" x="474" y="-351.5" font-family="Helvetica,sans-Serif" font-size="10.00">System.Threading.Tasks.Task</text>
<text text-anchor="middle" x="540.5" y="-340.5" font-family="Helvetica,sans-Serif" font-size="10.00">&lt; int &gt;</text>
</a>
</g>
</g>
<!-- Node0&#45;&gt;Node13 -->
<g id="edge13" class="edge"><title>Node0&#45;&gt;Node13</title>
<path fill="none" stroke="orange" stroke-dasharray="5,2" d="M306.388,-365.111C308.954,-364.902 311.496,-364.698 314,-364.5 364.667,-360.488 421.777,-356.441 465.847,-353.42"/>
<polygon fill="orange" stroke="orange" points="306.08,-361.624 296.402,-365.934 306.655,-368.601 306.08,-361.624"/>
<text text-anchor="middle" x="366" y="-367.5" font-family="Helvetica,sans-Serif" font-size="10.00"> &lt; int &gt;</text>
</g>
<!-- Node14 -->
<g id="node15" class="node"><title>Node14</title>
<g id="a_node15"><a xlink:href="class_system_1_1_threading_1_1_tasks_1_1_task.html" target="_top" xlink:title=" ">
<polygon fill="none" stroke="black" points="454.5,-295 454.5,-314 626.5,-314 626.5,-295 454.5,-295"/>
<text text-anchor="middle" x="540.5" y="-302" font-family="Helvetica,sans-Serif" font-size="10.00">System.Threading.Tasks.Task&lt; T &gt;</text>
</a>
</g>
</g>
<!-- Node0&#45;&gt;Node14 -->
<g id="edge14" class="edge"><title>Node0&#45;&gt;Node14</title>
<path fill="none" stroke="orange" stroke-dasharray="5,2" d="M273.75,-354.201C286.768,-349.967 300.807,-345.755 314,-342.5 364.206,-330.114 421.697,-320.494 466.065,-314.033"/>
<polygon fill="orange" stroke="orange" points="272.414,-350.956 264.025,-357.427 274.618,-357.6 272.414,-350.956"/>
<text text-anchor="middle" x="366" y="-345.5" font-family="Helvetica,sans-Serif" font-size="10.00"> &lt; T &gt;</text>
</g>
<!-- Node15 -->
<g id="node16" class="node"><title>Node15</title>
<g id="a_node16"><a xlink:href="class_system_1_1_threading_1_1_tasks_1_1_task.html" target="_top" xlink:title=" ">
<polygon fill="none" stroke="black" points="466,-245.5 466,-275.5 615,-275.5 615,-245.5 466,-245.5"/>
<text text-anchor="start" x="474" y="-263.5" font-family="Helvetica,sans-Serif" font-size="10.00">System.Threading.Tasks.Task</text>
<text text-anchor="middle" x="540.5" y="-252.5" font-family="Helvetica,sans-Serif" font-size="10.00">&lt; VoidTaskResult &gt;</text>
</a>
</g>
</g>
<!-- Node0&#45;&gt;Node15 -->
<g id="edge15" class="edge"><title>Node0&#45;&gt;Node15</title>
<path fill="none" stroke="orange" stroke-dasharray="5,2" d="M247.452,-350.886C264.972,-336.801 289.554,-319.126 314,-308.5 362.363,-287.477 420.673,-275.38 465.882,-268.589"/>
<polygon fill="orange" stroke="orange" points="244.951,-348.412 239.451,-357.466 249.398,-353.818 244.951,-348.412"/>
<text text-anchor="middle" x="366" y="-311.5" font-family="Helvetica,sans-Serif" font-size="10.00"> &lt; VoidTaskResult &gt;</text>
</g>
<!-- Node16 -->
<g id="node17" class="node"><title>Node16</title>
<g id="a_node17"><a xlink:href="class_system_1_1_threading_1_1_tasks_1_1_task.html" target="_top" xlink:title=" ">
<polygon fill="none" stroke="black" points="466,-196.5 466,-226.5 615,-226.5 615,-196.5 466,-196.5"/>
<text text-anchor="start" x="474" y="-214.5" font-family="Helvetica,sans-Serif" font-size="10.00">System.Threading.Tasks.Task</text>
<text text-anchor="middle" x="540.5" y="-203.5" font-family="Helvetica,sans-Serif" font-size="10.00">&lt; Task &gt;</text>
</a>
</g>
</g>
<!-- Node0&#45;&gt;Node16 -->
<g id="edge16" class="edge"><title>Node0&#45;&gt;Node16</title>
<path fill="none" stroke="orange" stroke-dasharray="5,2" d="M235.783,-348.692C251.222,-323.307 279.101,-283.882 314,-262.5 359.862,-234.402 419.496,-221.745 465.919,-216.064"/>
<polygon fill="orange" stroke="orange" points="232.741,-346.96 230.668,-357.35 238.768,-350.52 232.741,-346.96"/>
<text text-anchor="middle" x="366" y="-265.5" font-family="Helvetica,sans-Serif" font-size="10.00"> &lt; Task &gt;</text>
</g>
<!-- Node17 -->
<g id="node18" class="node"><title>Node17</title>
<g id="a_node18"><a xlink:href="class_system_1_1_threading_1_1_tasks_1_1_task.html" target="_top" xlink:title=" ">
<polygon fill="none" stroke="black" points="466,-147.5 466,-177.5 615,-177.5 615,-147.5 466,-147.5"/>
<text text-anchor="start" x="474" y="-165.5" font-family="Helvetica,sans-Serif" font-size="10.00">System.Threading.Tasks.Task</text>
<text text-anchor="middle" x="540.5" y="-154.5" font-family="Helvetica,sans-Serif" font-size="10.00">&lt; bool &gt;</text>
</a>
</g>
</g>
<!-- Node0&#45;&gt;Node17 -->
<g id="edge17" class="edge"><title>Node0&#45;&gt;Node17</title>
<path fill="none" stroke="orange" stroke-dasharray="5,2" d="M229.472,-347.368C240.873,-311.173 267.074,-244.944 314,-210.5 357.803,-178.348 418.559,-166.798 465.972,-163.041"/>
<polygon fill="orange" stroke="orange" points="226.058,-346.564 226.523,-357.149 232.76,-348.585 226.058,-346.564"/>
<text text-anchor="middle" x="366" y="-213.5" font-family="Helvetica,sans-Serif" font-size="10.00"> &lt; bool &gt;</text>
</g>
<!-- Node18 -->
<g id="node19" class="node"><title>Node18</title>
<g id="a_node19"><a xlink:href="class_system_1_1_threading_1_1_tasks_1_1_task.html" target="_top" xlink:title=" ">
<polygon fill="none" stroke="black" points="466,-98.5 466,-128.5 615,-128.5 615,-98.5 466,-98.5"/>
<text text-anchor="start" x="474" y="-116.5" font-family="Helvetica,sans-Serif" font-size="10.00">System.Threading.Tasks.Task</text>
<text text-anchor="middle" x="540.5" y="-105.5" font-family="Helvetica,sans-Serif" font-size="10.00">&lt; TAntecedentResult &gt;</text>
</a>
</g>
</g>
<!-- Node0&#45;&gt;Node18 -->
<g id="edge18" class="edge"><title>Node0&#45;&gt;Node18</title>
<path fill="none" stroke="orange" stroke-dasharray="5,2" d="M225.313,-347.429C231.887,-301.428 252.671,-203.754 314,-154.5 356.426,-120.427 417.872,-111.057 465.911,-109.721"/>
<polygon fill="orange" stroke="orange" points="221.83,-347.073 223.992,-357.445 228.77,-347.988 221.83,-347.073"/>
<text text-anchor="middle" x="366" y="-157.5" font-family="Helvetica,sans-Serif" font-size="10.00"> &lt; TAntecedentResult &gt;</text>
</g>
<!-- Node19 -->
<g id="node20" class="node"><title>Node19</title>
<g id="a_node20"><a xlink:href="class_system_1_1_threading_1_1_tasks_1_1_task.html" target="_top" xlink:title=" ">
<polygon fill="none" stroke="black" points="466,-49.5 466,-79.5 615,-79.5 615,-49.5 466,-49.5"/>
<text text-anchor="start" x="474" y="-67.5" font-family="Helvetica,sans-Serif" font-size="10.00">System.Threading.Tasks.Task</text>
<text text-anchor="middle" x="540.5" y="-56.5" font-family="Helvetica,sans-Serif" font-size="10.00">&lt; Task[]&gt;</text>
</a>
</g>
</g>
<!-- Node0&#45;&gt;Node19 -->
<g id="edge19" class="edge"><title>Node0&#45;&gt;Node19</title>
<path fill="none" stroke="orange" stroke-dasharray="5,2" d="M222.786,-347.302C224.875,-292.769 238.037,-163.572 314,-99.5 355.565,-64.4415 417.378,-56.9146 465.781,-57.4754"/>
<polygon fill="orange" stroke="orange" points="219.283,-347.368 222.495,-357.464 226.28,-347.568 219.283,-347.368"/>
<text text-anchor="middle" x="366" y="-102.5" font-family="Helvetica,sans-Serif" font-size="10.00"> &lt; Task[]&gt;</text>
</g>
<!-- Node20 -->
<g id="node21" class="node"><title>Node20</title>
<g id="a_node21"><a xlink:href="class_system_1_1_threading_1_1_tasks_1_1_task.html" target="_top" xlink:title=" ">
<polygon fill="none" stroke="black" points="466,-0.5 466,-30.5 615,-30.5 615,-0.5 466,-0.5"/>
<text text-anchor="start" x="474" y="-18.5" font-family="Helvetica,sans-Serif" font-size="10.00">System.Threading.Tasks.Task</text>
<text text-anchor="middle" x="540.5" y="-7.5" font-family="Helvetica,sans-Serif" font-size="10.00">&lt; T[]&gt;</text>
</a>
</g>
</g>
<!-- Node0&#45;&gt;Node20 -->
<g id="edge20" class="edge"><title>Node0&#45;&gt;Node20</title>
<path fill="none" stroke="orange" stroke-dasharray="5,2" d="M225.941,-347.394C235.987,-277.968 267.526,-85.8607 314,-45.5 355.076,-9.82775 417.237,-3.85887 465.9,-5.95586"/>
<polygon fill="orange" stroke="orange" points="222.455,-347.049 224.515,-357.442 229.386,-348.033 222.455,-347.049"/>
<text text-anchor="middle" x="366" y="-48.5" font-family="Helvetica,sans-Serif" font-size="10.00"> &lt; T[]&gt;</text>
</g>
<!-- Node1 -->
<g id="node2" class="node"><title>Node1</title>
<g id="a_node2"><a xlink:title=" ">
<polygon fill="none" stroke="#bfbfbf" points="36,-420 36,-439 74,-439 74,-420 36,-420"/>
<text text-anchor="middle" x="55" y="-427" font-family="Helvetica,sans-Serif" font-size="10.00">Task</text>
</a>
</g>
</g>
<!-- Node1&#45;&gt;Node0 -->
<g id="edge1" class="edge"><title>Node1&#45;&gt;Node0</title>
<path fill="none" stroke="midnightblue" d="M83.9912,-419.801C109.46,-410.976 147.461,-397.808 176.906,-387.605"/>
<polygon fill="midnightblue" stroke="midnightblue" points="82.5358,-416.601 74.2329,-423.182 84.8277,-423.215 82.5358,-416.601"/>
</g>
<!-- Node2 -->
<g id="node3" class="node"><title>Node2</title>
<g id="a_node3"><a xlink:href="interface_system_1_1_threading_1_1_i_thread_pool_work_item.html" target="_top" xlink:title=" ">
<polygon fill="none" stroke="black" points="0,-382 0,-401 110,-401 110,-382 0,-382"/>
<text text-anchor="middle" x="55" y="-389" font-family="Helvetica,sans-Serif" font-size="10.00">IThreadPoolWorkItem</text>
</a>
</g>
</g>
<!-- Node2&#45;&gt;Node0 -->
<g id="edge2" class="edge"><title>Node2&#45;&gt;Node0</title>
<path fill="none" stroke="midnightblue" d="M120.368,-384.065C129.058,-383.062 138.028,-382.026 146.865,-381.005"/>
<polygon fill="midnightblue" stroke="midnightblue" points="119.852,-380.602 110.319,-385.226 120.655,-387.555 119.852,-380.602"/>
</g>
<!-- Node3 -->
<g id="node4" class="node"><title>Node3</title>
<g id="a_node4"><a xlink:href="interface_system_1_1_i_async_result.html" target="_top" xlink:title="Represents the status of an asynchronous operation.">
<polygon fill="none" stroke="black" points="18,-344 18,-363 92,-363 92,-344 18,-344"/>
<text text-anchor="middle" x="55" y="-351" font-family="Helvetica,sans-Serif" font-size="10.00">IAsyncResult</text>
</a>
</g>
</g>
<!-- Node3&#45;&gt;Node0 -->
<g id="edge3" class="edge"><title>Node3&#45;&gt;Node0</title>
<path fill="none" stroke="midnightblue" d="M102.294,-358.847C116.098,-360.441 131.585,-362.23 146.688,-363.975"/>
<polygon fill="midnightblue" stroke="midnightblue" points="102.436,-355.34 92.1002,-357.67 101.633,-362.294 102.436,-355.34"/>
</g>
<!-- Node4 -->
<g id="node5" class="node"><title>Node4</title>
<g id="a_node5"><a xlink:href="interface_system_1_1_i_disposable.html" target="_top" xlink:title="Provides a mechanism for releasing unmanaged resources.To browse the .NET Framework source code for t...">
<polygon fill="none" stroke="black" points="21.5,-306 21.5,-325 88.5,-325 88.5,-306 21.5,-306"/>
<text text-anchor="middle" x="55" y="-313" font-family="Helvetica,sans-Serif" font-size="10.00">IDisposable</text>
</a>
</g>
</g>
<!-- Node4&#45;&gt;Node0 -->
<g id="edge4" class="edge"><title>Node4&#45;&gt;Node0</title>
<path fill="none" stroke="midnightblue" d="M92.9999,-328.321C117.927,-336.958 150.904,-348.385 177.075,-357.453"/>
<polygon fill="midnightblue" stroke="midnightblue" points="94.1284,-325.008 83.5336,-325.041 91.8365,-331.622 94.1284,-325.008"/>
</g>
</g>
</svg>
