<?xml version="1.0" encoding="UTF-8" standalone="no"?>
<!DOCTYPE svg PUBLIC "-//W3C//DTD SVG 1.1//EN"
 "http://www.w3.org/Graphics/SVG/1.1/DTD/svg11.dtd">
<!-- Generated by graphviz version 2.38.0 (20140413.2041)
 -->
<!-- Title: System.Xml.Schema.XmlSchemaExternal Pages: 1 -->
<svg width="503pt" height="137pt"
 viewBox="0.00 0.00 503.00 137.00" xmlns="http://www.w3.org/2000/svg" xmlns:xlink="http://www.w3.org/1999/xlink">
<g id="graph0" class="graph" transform="scale(1 1) rotate(0) translate(4 133)">
<title>System.Xml.Schema.XmlSchemaExternal</title>
<!-- Node0 -->
<g id="node1" class="node"><title>Node0</title>
<g id="a_node1"><a xlink:title="An abstract class. Provides information about the included schema.">
<polygon fill="#bfbfbf" stroke="black" points="133,-49.5 133,-79.5 296,-79.5 296,-49.5 133,-49.5"/>
<text text-anchor="start" x="141" y="-67.5" font-family="Helvetica,sans-Serif" font-size="10.00">System.Xml.Schema.XmlSchema</text>
<text text-anchor="middle" x="214.5" y="-56.5" font-family="Helvetica,sans-Serif" font-size="10.00">External</text>
</a>
</g>
</g>
<!-- Node2 -->
<g id="node3" class="node"><title>Node2</title>
<g id="a_node3"><a xlink:href="class_system_1_1_xml_1_1_schema_1_1_xml_schema_import.html" target="_top" xlink:title="Represents the import element from XML Schema as specified by the World Wide Web Consortium (W3C)....">
<polygon fill="none" stroke="black" points="332,-98.5 332,-128.5 495,-128.5 495,-98.5 332,-98.5"/>
<text text-anchor="start" x="340" y="-116.5" font-family="Helvetica,sans-Serif" font-size="10.00">System.Xml.Schema.XmlSchema</text>
<text text-anchor="middle" x="413.5" y="-105.5" font-family="Helvetica,sans-Serif" font-size="10.00">Import</text>
</a>
</g>
</g>
<!-- Node0&#45;&gt;Node2 -->
<g id="edge2" class="edge"><title>Node0&#45;&gt;Node2</title>
<path fill="none" stroke="midnightblue" d="M285.764,-81.9768C307.477,-87.3775 331.189,-93.2755 352.169,-98.4938"/>
<polygon fill="midnightblue" stroke="midnightblue" points="286.494,-78.5519 275.945,-79.5346 284.805,-85.345 286.494,-78.5519"/>
</g>
<!-- Node3 -->
<g id="node4" class="node"><title>Node3</title>
<g id="a_node4"><a xlink:href="class_system_1_1_xml_1_1_schema_1_1_xml_schema_include.html" target="_top" xlink:title="Represents the include element from XML Schema as specified by the World Wide Web Consortium (W3C)....">
<polygon fill="none" stroke="black" points="332,-49.5 332,-79.5 495,-79.5 495,-49.5 332,-49.5"/>
<text text-anchor="start" x="340" y="-67.5" font-family="Helvetica,sans-Serif" font-size="10.00">System.Xml.Schema.XmlSchema</text>
<text text-anchor="middle" x="413.5" y="-56.5" font-family="Helvetica,sans-Serif" font-size="10.00">Include</text>
</a>
</g>
</g>
<!-- Node0&#45;&gt;Node3 -->
<g id="edge3" class="edge"><title>Node0&#45;&gt;Node3</title>
<path fill="none" stroke="midnightblue" d="M306.215,-64.5C314.795,-64.5 323.454,-64.5 331.93,-64.5"/>
<polygon fill="midnightblue" stroke="midnightblue" points="306.196,-61.0001 296.196,-64.5 306.196,-68.0001 306.196,-61.0001"/>
</g>
<!-- Node4 -->
<g id="node5" class="node"><title>Node4</title>
<g id="a_node5"><a xlink:href="class_system_1_1_xml_1_1_schema_1_1_xml_schema_redefine.html" target="_top" xlink:title="Represents the redefine element from XML Schema as specified by the World Wide Web Consortium (W3C)....">
<polygon fill="none" stroke="black" points="332,-0.5 332,-30.5 495,-30.5 495,-0.5 332,-0.5"/>
<text text-anchor="start" x="340" y="-18.5" font-family="Helvetica,sans-Serif" font-size="10.00">System.Xml.Schema.XmlSchema</text>
<text text-anchor="middle" x="413.5" y="-7.5" font-family="Helvetica,sans-Serif" font-size="10.00">Redefine</text>
</a>
</g>
</g>
<!-- Node0&#45;&gt;Node4 -->
<g id="edge4" class="edge"><title>Node0&#45;&gt;Node4</title>
<path fill="none" stroke="midnightblue" d="M285.764,-47.0232C307.477,-41.6225 331.189,-35.7245 352.169,-30.5062"/>
<polygon fill="midnightblue" stroke="midnightblue" points="284.805,-43.655 275.945,-49.4654 286.494,-50.4481 284.805,-43.655"/>
</g>
<!-- Node1 -->
<g id="node2" class="node"><title>Node1</title>
<g id="a_node2"><a xlink:href="class_system_1_1_xml_1_1_schema_1_1_xml_schema_object.html" target="_top" xlink:title="Represents the root class for the Xml schema object model hierarchy and serves as a base class for cl...">
<polygon fill="none" stroke="black" points="0,-55 0,-74 97,-74 97,-55 0,-55"/>
<text text-anchor="middle" x="48.5" y="-62" font-family="Helvetica,sans-Serif" font-size="10.00">XmlSchemaObject</text>
</a>
</g>
</g>
<!-- Node1&#45;&gt;Node0 -->
<g id="edge1" class="edge"><title>Node1&#45;&gt;Node0</title>
<path fill="none" stroke="midnightblue" d="M107.556,-64.5C115.762,-64.5 124.319,-64.5 132.857,-64.5"/>
<polygon fill="midnightblue" stroke="midnightblue" points="107.376,-61.0001 97.3765,-64.5 107.376,-68.0001 107.376,-61.0001"/>
</g>
</g>
</svg>
