<?xml version="1.0" encoding="UTF-8" standalone="no"?>
<!DOCTYPE svg PUBLIC "-//W3C//DTD SVG 1.1//EN"
 "http://www.w3.org/Graphics/SVG/1.1/DTD/svg11.dtd">
<!-- Generated by graphviz version 2.38.0 (20140413.2041)
 -->
<!-- Title: System.Net.Sockets.SocketAsyncEventArgs Pages: 1 -->
<!--zoomable 192 -->
<svg id="main" version="1.1" xmlns="http://www.w3.org/2000/svg" xmlns:xlink="http://www.w3.org/1999/xlink" xml:space="preserve" onload="init(evt)">
<style type="text/css"><![CDATA[
.edge:hover path { stroke: red; }
.edge:hover polygon { stroke: red; fill: red; }
]]></style>
<script type="text/javascript"><![CDATA[
var edges = document.getElementsByTagName('g');
if (edges && edges.length) {
  for (var i=0;i<edges.length;i++) {
    if (edges[i].id.substr(0,4)=='edge') {
      edges[i].setAttribute('class','edge');
    }
  }
}
]]></script>
        <defs>
                <circle id="rim" cx="0" cy="0" r="7"/>
                <circle id="rim2" cx="0" cy="0" r="3.5"/>
                <g id="zoomPlus">
                        <use xlink:href="#rim" fill="#404040">
                                <set attributeName="fill" to="#808080" begin="zoomplus.mouseover" end="zoomplus.mouseout"/>
                        </use>
                        <path d="M-4,0h8M0,-4v8" fill="none" stroke="white" stroke-width="1.5" pointer-events="none"/>
                </g>
                <g id="zoomMin">
                        <use xlink:href="#rim" fill="#404040">
                                <set attributeName="fill" to="#808080" begin="zoomminus.mouseover" end="zoomminus.mouseout"/>
                        </use>
                        <path d="M-4,0h8" fill="none" stroke="white" stroke-width="1.5" pointer-events="none"/>
                </g>
                <g id="dirArrow">
                        <path fill="none" stroke="white" stroke-width="1.5" d="M0,-3.0v7 M-2.5,-0.5L0,-3.0L2.5,-0.5"/>
                </g>
               <g id="resetDef">
                       <use xlink:href="#rim2" fill="#404040">
                               <set attributeName="fill" to="#808080" begin="reset.mouseover" end="reset.mouseout"/>
                       </use>
               </g>
        </defs>

<script type="text/javascript">
var viewWidth = 584;
var viewHeight = 192;
var sectionId = 'dynsection-1';
</script>
<script xlink:href="svgpan.js"/>
<svg id="graph" class="graph">
<g id="viewport">
<title>System.Net.Sockets.SocketAsyncEventArgs</title>
<!-- Node3 -->
<g id="node1" class="node"><title>Node3</title>
<g id="a_node1"><a xlink:title="Represents an asynchronous socket operation.">
<polygon fill="#bfbfbf" stroke="black" points="435,-82.5 435,-112.5 576,-112.5 576,-82.5 435,-82.5"/>
<text text-anchor="start" x="443" y="-100.5" font-family="Helvetica,sans-Serif" font-size="10.00">System.Net.Sockets.Socket</text>
<text text-anchor="middle" x="505.5" y="-89.5" font-family="Helvetica,sans-Serif" font-size="10.00">AsyncEventArgs</text>
</a>
</g>
</g>
<!-- Node4 -->
<g id="node2" class="node"><title>Node4</title>
<g id="a_node2"><a xlink:href="class_system_1_1_event_args.html" target="_top" xlink:title="Represents the base class for classes that contain event data, and provides a value to use for events...">
<polygon fill="none" stroke="red" points="148.5,-164 148.5,-183 209.5,-183 209.5,-164 148.5,-164"/>
<text text-anchor="middle" x="179" y="-171" font-family="Helvetica,sans-Serif" font-size="10.00">EventArgs</text>
</a>
</g>
</g>
<!-- Node4&#45;&gt;Node3 -->
<g id="edge1" class="edge"><title>Node4&#45;&gt;Node3</title>
<path fill="none" stroke="midnightblue" d="M219.945,-174.651C267.951,-174.865 350.362,-171.477 417,-149.5 442.173,-141.198 467.887,-124.772 484.866,-112.593"/>
<polygon fill="midnightblue" stroke="midnightblue" points="219.7,-171.148 209.665,-174.547 219.629,-178.148 219.7,-171.148"/>
</g>
<!-- Node6 -->
<g id="node3" class="node"><title>Node6</title>
<g id="a_node3"><a xlink:href="interface_system_1_1_i_disposable.html" target="_top" xlink:title="Provides a mechanism for releasing unmanaged resources.To browse the .NET Framework source code for t...">
<polygon fill="none" stroke="black" points="0,-110 0,-129 67,-129 67,-110 0,-110"/>
<text text-anchor="middle" x="33.5" y="-117" font-family="Helvetica,sans-Serif" font-size="10.00">IDisposable</text>
</a>
</g>
</g>
<!-- Node6&#45;&gt;Node3 -->
<g id="edge2" class="edge"><title>Node6&#45;&gt;Node3</title>
<path fill="none" stroke="midnightblue" d="M77.246,-121.504C80.2081,-121.537 83.1482,-121.539 86,-121.5 233.152,-119.5 270.548,-126.97 417,-112.5 422.828,-111.924 428.854,-111.189 434.891,-110.354"/>
<polygon fill="midnightblue" stroke="midnightblue" points="77.2598,-118.003 67.1862,-121.285 77.1078,-125.002 77.2598,-118.003"/>
</g>
<!-- Node7 -->
<g id="node4" class="node"><title>Node7</title>
<g id="a_node4"><a xlink:href="class_system_1_1_net_1_1_sockets_1_1_socket.html" target="_top" xlink:title="Implements the Berkeley sockets interface.">
<polygon fill="none" stroke="black" points="108.5,-88 108.5,-107 249.5,-107 249.5,-88 108.5,-88"/>
<text text-anchor="middle" x="179" y="-95" font-family="Helvetica,sans-Serif" font-size="10.00">System.Net.Sockets.Socket</text>
</a>
</g>
</g>
<!-- Node6&#45;&gt;Node7 -->
<g id="edge4" class="edge"><title>Node6&#45;&gt;Node7</title>
<path fill="none" stroke="midnightblue" d="M76.9598,-112.99C89.1724,-111.118 102.752,-109.036 115.892,-107.022"/>
<polygon fill="midnightblue" stroke="midnightblue" points="76.4165,-109.533 67.0624,-114.508 77.4773,-116.452 76.4165,-109.533"/>
</g>
<!-- Node7&#45;&gt;Node3 -->
<g id="edge3" class="edge"><title>Node7&#45;&gt;Node3</title>
<path fill="none" stroke="#9a32cd" stroke-dasharray="5,2" d="M259.764,-97.5C313.367,-97.5 383.334,-97.5 434.722,-97.5"/>
<polygon fill="#9a32cd" stroke="#9a32cd" points="259.613,-94.0001 249.613,-97.5 259.613,-101 259.613,-94.0001"/>
<text text-anchor="middle" x="344.5" y="-100.5" font-family="Helvetica,sans-Serif" font-size="10.00"> ConnectSocket</text>
</g>
<!-- Node8 -->
<g id="node5" class="node"><title>Node8</title>
<g id="a_node5"><a xlink:href="class_system_1_1_exception.html" target="_top" xlink:title="Represents errors that occur during application execution.To browse the .NET Framework source code fo...">
<polygon fill="none" stroke="red" points="130.5,-50 130.5,-69 227.5,-69 227.5,-50 130.5,-50"/>
<text text-anchor="middle" x="179" y="-57" font-family="Helvetica,sans-Serif" font-size="10.00">System.Exception</text>
</a>
</g>
</g>
<!-- Node8&#45;&gt;Node3 -->
<g id="edge5" class="edge"><title>Node8&#45;&gt;Node3</title>
<path fill="none" stroke="#9a32cd" stroke-dasharray="5,2" d="M237.995,-63.9384C286.061,-67.9021 356.116,-74.3382 417,-82.5 422.805,-83.2782 428.814,-84.1558 434.84,-85.0863"/>
<polygon fill="#9a32cd" stroke="#9a32cd" points="238.033,-60.43 227.782,-63.1061 237.465,-67.4068 238.033,-60.43"/>
<text text-anchor="middle" x="344.5" y="-85.5" font-family="Helvetica,sans-Serif" font-size="10.00"> ConnectByNameError</text>
</g>
<!-- Node11 -->
<g id="node6" class="node"><title>Node11</title>
<g id="a_node6"><a xlink:href="struct_system_1_1_net_1_1_sockets_1_1_i_p_packet_information.html" target="_top" xlink:title="Presents the packet information from a call to M:System.Net.Sockets.Socket.ReceiveMessageFrom(System....">
<polygon fill="none" stroke="red" points="104,-0.5 104,-30.5 254,-30.5 254,-0.5 104,-0.5"/>
<text text-anchor="start" x="112" y="-18.5" font-family="Helvetica,sans-Serif" font-size="10.00">System.Net.Sockets.IPPacket</text>
<text text-anchor="middle" x="179" y="-7.5" font-family="Helvetica,sans-Serif" font-size="10.00">Information</text>
</a>
</g>
</g>
<!-- Node11&#45;&gt;Node3 -->
<g id="edge6" class="edge"><title>Node11&#45;&gt;Node3</title>
<path fill="none" stroke="#9a32cd" stroke-dasharray="5,2" d="M264.25,-22.036C310.229,-27.2382 367.672,-36.4298 417,-52.5 439.414,-59.8021 463.089,-72.3081 480.153,-82.2856"/>
<polygon fill="#9a32cd" stroke="#9a32cd" points="264.343,-18.5256 254.023,-20.9229 263.586,-25.4845 264.343,-18.5256"/>
<text text-anchor="middle" x="344.5" y="-55.5" font-family="Helvetica,sans-Serif" font-size="10.00"> ReceiveMessageFromPacketInfo</text>
</g>
</g>
</svg>
        <g id="navigator" transform="translate(0 0)" fill="#404254">
                <rect fill="#f2f5e9" fill-opacity="0.5" stroke="#606060" stroke-width=".5" x="0" y="0" width="60" height="60"/>
                <use id="zoomplus" xlink:href="#zoomPlus" x="17" y="9" onmousedown="handleZoom(evt,'in')"/>
                <use id="zoomminus" xlink:href="#zoomMin" x="42" y="9" onmousedown="handleZoom(evt,'out')"/>
                <use id="reset" xlink:href="#resetDef" x="30" y="36" onmousedown="handleReset()"/>
                <g id="arrowUp" xlink:href="#dirArrow" transform="translate(30 24)" onmousedown="handlePan(0,-1)">
                  <use xlink:href="#rim" fill="#404040">
                        <set attributeName="fill" to="#808080" begin="arrowUp.mouseover" end="arrowUp.mouseout"/>
                  </use>
                  <path fill="none" stroke="white" stroke-width="1.5" d="M0,-3.0v7 M-2.5,-0.5L0,-3.0L2.5,-0.5"/>
                </g>
                <g id="arrowRight" xlink:href="#dirArrow" transform="rotate(90) translate(36 -43)" onmousedown="handlePan(1,0)">
                  <use xlink:href="#rim" fill="#404040">
                        <set attributeName="fill" to="#808080" begin="arrowRight.mouseover" end="arrowRight.mouseout"/>
                  </use>
                  <path fill="none" stroke="white" stroke-width="1.5" d="M0,-3.0v7 M-2.5,-0.5L0,-3.0L2.5,-0.5"/>
                </g>
                <g id="arrowDown" xlink:href="#dirArrow" transform="rotate(180) translate(-30 -48)" onmousedown="handlePan(0,1)">
                  <use xlink:href="#rim" fill="#404040">
                        <set attributeName="fill" to="#808080" begin="arrowDown.mouseover" end="arrowDown.mouseout"/>
                  </use>
                  <path fill="none" stroke="white" stroke-width="1.5" d="M0,-3.0v7 M-2.5,-0.5L0,-3.0L2.5,-0.5"/>
                </g>
                <g id="arrowLeft" xlink:href="#dirArrow" transform="rotate(270) translate(-36 17)" onmousedown="handlePan(-1,0)">
                  <use xlink:href="#rim" fill="#404040">
                        <set attributeName="fill" to="#808080" begin="arrowLeft.mouseover" end="arrowLeft.mouseout"/>
                  </use>
                  <path fill="none" stroke="white" stroke-width="1.5" d="M0,-3.0v7 M-2.5,-0.5L0,-3.0L2.5,-0.5"/>
                </g>
        </g>
        <svg viewBox="0 0 15 15" width="100%" height="30px" preserveAspectRatio="xMaxYMin meet">
         <g id="arrow_out" transform="scale(0.3 0.3)">
          <a xlink:href="class_system_1_1_net_1_1_sockets_1_1_socket_async_event_args__coll__graph_org.svg" target="_base">
           <rect id="button" ry="5" rx="5" y="6" x="6" height="38" width="38"
                fill="#f2f5e9" fill-opacity="0.5" stroke="#606060" stroke-width="1.0"/>
           <path id="arrow"
             d="M 11.500037,31.436501 C 11.940474,20.09759 22.043105,11.32322 32.158766,21.979434 L 37.068811,17.246167 C 37.068811,17.246167 37.088388,32 37.088388,32 L 22.160133,31.978069 C 22.160133,31.978069 26.997745,27.140456 26.997745,27.140456 C 18.528582,18.264221 13.291696,25.230495 11.500037,31.436501 z"
             style="fill:#404040;"/>
          </a>
         </g>
        </svg>
</svg>
