<?xml version="1.0" encoding="UTF-8" standalone="no"?>
<!DOCTYPE svg PUBLIC "-//W3C//DTD SVG 1.1//EN"
 "http://www.w3.org/Graphics/SVG/1.1/DTD/svg11.dtd">
<!-- Generated by graphviz version 2.38.0 (20140413.2041)
 -->
<!-- Title: System.Collections.Hashtable Pages: 1 -->
<svg width="433pt" height="263pt"
 viewBox="0.00 0.00 432.83 263.00" xmlns="http://www.w3.org/2000/svg" xmlns:xlink="http://www.w3.org/1999/xlink">
<g id="graph0" class="graph" transform="scale(1 1) rotate(0) translate(4 259)">
<title>System.Collections.Hashtable</title>
<!-- Node0 -->
<g id="node1" class="node"><title>Node0</title>
<g id="a_node1"><a xlink:title="Represents a collection of key/value pairs that are organized based on the hash code of the key....">
<polygon fill="#bfbfbf" stroke="black" points="65.8313,-67.5 65.8313,-86.5 213.831,-86.5 213.831,-67.5 65.8313,-67.5"/>
<text text-anchor="middle" x="139.831" y="-74.5" font-family="Helvetica,sans-Serif" font-size="10.00">System.Collections.Hashtable</text>
</a>
</g>
</g>
<!-- Node7 -->
<g id="node8" class="node"><title>Node7</title>
<g id="a_node8"><a xlink:href="class_system_1_1_runtime_1_1_serialization_1_1_surrogate_hashtable.html" target="_top" xlink:title=" ">
<polygon fill="none" stroke="black" points="65.3313,-0.5 65.3313,-30.5 214.331,-30.5 214.331,-0.5 65.3313,-0.5"/>
<text text-anchor="start" x="73.3313" y="-18.5" font-family="Helvetica,sans-Serif" font-size="10.00">System.Runtime.Serialization.</text>
<text text-anchor="middle" x="139.831" y="-7.5" font-family="Helvetica,sans-Serif" font-size="10.00">SurrogateHashtable</text>
</a>
</g>
</g>
<!-- Node0&#45;&gt;Node7 -->
<g id="edge10" class="edge"><title>Node0&#45;&gt;Node7</title>
<path fill="none" stroke="midnightblue" d="M139.831,-57.2349C139.831,-48.5864 139.831,-38.4969 139.831,-30.523"/>
<polygon fill="midnightblue" stroke="midnightblue" points="136.331,-57.4751 139.831,-67.4751 143.331,-57.4751 136.331,-57.4751"/>
</g>
<!-- Node1 -->
<g id="node2" class="node"><title>Node1</title>
<g id="a_node2"><a xlink:href="interface_system_1_1_collections_1_1_i_dictionary.html" target="_top" xlink:title="Represents a nongeneric collection of key/value pairs.">
<polygon fill="none" stroke="black" points="18.8313,-123.5 18.8313,-142.5 80.8313,-142.5 80.8313,-123.5 18.8313,-123.5"/>
<text text-anchor="middle" x="49.8313" y="-130.5" font-family="Helvetica,sans-Serif" font-size="10.00">IDictionary</text>
</a>
</g>
</g>
<!-- Node1&#45;&gt;Node0 -->
<g id="edge1" class="edge"><title>Node1&#45;&gt;Node0</title>
<path fill="none" stroke="midnightblue" d="M72.8691,-118.177C89.4302,-108.241 111.249,-95.1492 125.407,-86.6545"/>
<polygon fill="midnightblue" stroke="midnightblue" points="71.0656,-115.178 64.2914,-123.324 74.6671,-121.18 71.0656,-115.178"/>
</g>
<!-- Node2 -->
<g id="node3" class="node"><title>Node2</title>
<g id="a_node3"><a xlink:href="interface_system_1_1_collections_1_1_i_collection.html" target="_top" xlink:title="Defines size, enumerators, and synchronization methods for all nongeneric collections.">
<polygon fill="none" stroke="black" points="66.8313,-179.5 66.8313,-198.5 128.831,-198.5 128.831,-179.5 66.8313,-179.5"/>
<text text-anchor="middle" x="97.8313" y="-186.5" font-family="Helvetica,sans-Serif" font-size="10.00">ICollection</text>
</a>
</g>
</g>
<!-- Node2&#45;&gt;Node0 -->
<g id="edge5" class="edge"><title>Node2&#45;&gt;Node0</title>
<path fill="none" stroke="midnightblue" d="M104.705,-169.998C113.869,-145.997 129.725,-104.468 136.551,-86.5914"/>
<polygon fill="midnightblue" stroke="midnightblue" points="101.424,-168.778 101.127,-179.368 107.964,-171.275 101.424,-168.778"/>
</g>
<!-- Node2&#45;&gt;Node1 -->
<g id="edge2" class="edge"><title>Node2&#45;&gt;Node1</title>
<path fill="none" stroke="midnightblue" d="M83.1037,-171.431C74.6912,-161.967 64.4826,-150.483 57.6101,-142.751"/>
<polygon fill="midnightblue" stroke="midnightblue" points="80.6455,-173.934 89.9051,-179.083 85.8774,-169.284 80.6455,-173.934"/>
</g>
<!-- Node3 -->
<g id="node4" class="node"><title>Node3</title>
<g id="a_node4"><a xlink:href="interface_system_1_1_collections_1_1_i_enumerable.html" target="_top" xlink:title="Exposes an enumerator, which supports a simple iteration over a non&#45;generic collection....">
<polygon fill="none" stroke="black" points="3.33133,-235.5 3.33133,-254.5 74.3313,-254.5 74.3313,-235.5 3.33133,-235.5"/>
<text text-anchor="middle" x="38.8313" y="-242.5" font-family="Helvetica,sans-Serif" font-size="10.00">IEnumerable</text>
</a>
</g>
</g>
<!-- Node3&#45;&gt;Node0 -->
<g id="edge6" class="edge"><title>Node3&#45;&gt;Node0</title>
<path fill="none" stroke="midnightblue" d="M26.9539,-227.085C11.0108,-202.092 -12.8341,-154.831 9.83133,-123 23.3383,-104.031 45.4137,-92.9839 67.5717,-86.5756"/>
<polygon fill="midnightblue" stroke="midnightblue" points="24.1028,-229.118 32.5639,-235.494 29.926,-225.233 24.1028,-229.118"/>
</g>
<!-- Node3&#45;&gt;Node1 -->
<g id="edge4" class="edge"><title>Node3&#45;&gt;Node1</title>
<path fill="none" stroke="midnightblue" d="M40.6965,-225.348C43.106,-201.254 47.2005,-160.308 48.9722,-142.591"/>
<polygon fill="midnightblue" stroke="midnightblue" points="37.207,-225.07 39.6945,-235.368 44.1722,-225.766 37.207,-225.07"/>
</g>
<!-- Node3&#45;&gt;Node2 -->
<g id="edge3" class="edge"><title>Node3&#45;&gt;Node2</title>
<path fill="none" stroke="midnightblue" d="M55.7259,-228.537C66.2459,-218.909 79.4,-206.869 88.1795,-198.834"/>
<polygon fill="midnightblue" stroke="midnightblue" points="53.3244,-225.99 48.3107,-235.324 58.0505,-231.154 53.3244,-225.99"/>
</g>
<!-- Node4 -->
<g id="node5" class="node"><title>Node4</title>
<g id="a_node5"><a xlink:href="interface_system_1_1_runtime_1_1_serialization_1_1_i_serializable.html" target="_top" xlink:title="Allows an object to control its own serialization and deserialization.">
<polygon fill="none" stroke="black" points="137.331,-123.5 137.331,-142.5 206.331,-142.5 206.331,-123.5 137.331,-123.5"/>
<text text-anchor="middle" x="171.831" y="-130.5" font-family="Helvetica,sans-Serif" font-size="10.00">ISerializable</text>
</a>
</g>
</g>
<!-- Node4&#45;&gt;Node0 -->
<g id="edge7" class="edge"><title>Node4&#45;&gt;Node0</title>
<path fill="none" stroke="midnightblue" d="M161.327,-114.275C155.858,-105.045 149.414,-94.1703 145.017,-86.7511"/>
<polygon fill="midnightblue" stroke="midnightblue" points="158.438,-116.264 166.547,-123.083 164.46,-112.696 158.438,-116.264"/>
</g>
<!-- Node5 -->
<g id="node6" class="node"><title>Node5</title>
<g id="a_node6"><a xlink:href="interface_system_1_1_runtime_1_1_serialization_1_1_i_deserialization_callback.html" target="_top" xlink:title="Indicates that a class is to be notified when deserialization of the entire object graph has been com...">
<polygon fill="none" stroke="black" points="224.831,-123.5 224.831,-142.5 344.831,-142.5 344.831,-123.5 224.831,-123.5"/>
<text text-anchor="middle" x="284.831" y="-130.5" font-family="Helvetica,sans-Serif" font-size="10.00">IDeserializationCallback</text>
</a>
</g>
</g>
<!-- Node5&#45;&gt;Node0 -->
<g id="edge8" class="edge"><title>Node5&#45;&gt;Node0</title>
<path fill="none" stroke="midnightblue" d="M252.356,-119.906C225.095,-109.754 186.839,-95.5063 162.7,-86.5164"/>
<polygon fill="midnightblue" stroke="midnightblue" points="251.263,-123.233 261.856,-123.444 253.706,-116.674 251.263,-123.233"/>
</g>
<!-- Node6 -->
<g id="node7" class="node"><title>Node6</title>
<g id="a_node7"><a xlink:href="interface_system_1_1_i_cloneable.html" target="_top" xlink:title="Supports cloning, which creates a new instance of a class with the same value as an existing instance...">
<polygon fill="none" stroke="black" points="362.831,-123.5 362.831,-142.5 424.831,-142.5 424.831,-123.5 362.831,-123.5"/>
<text text-anchor="middle" x="393.831" y="-130.5" font-family="Helvetica,sans-Serif" font-size="10.00">ICloneable</text>
</a>
</g>
</g>
<!-- Node6&#45;&gt;Node0 -->
<g id="edge9" class="edge"><title>Node6&#45;&gt;Node0</title>
<path fill="none" stroke="midnightblue" d="M352.363,-122.701C287.197,-108.559 222.325,-95.0288 181.293,-86.5386"/>
<polygon fill="midnightblue" stroke="midnightblue" points="351.882,-126.179 362.398,-124.884 353.37,-119.339 351.882,-126.179"/>
</g>
</g>
</svg>
