<?xml version="1.0" encoding="UTF-8" standalone="no"?>
<!DOCTYPE svg PUBLIC "-//W3C//DTD SVG 1.1//EN"
 "http://www.w3.org/Graphics/SVG/1.1/DTD/svg11.dtd">
<!-- Generated by graphviz version 2.38.0 (20140413.2041)
 -->
<!-- Title: System.Runtime.InteropServices.WindowsRuntime.ConstantSplittableMap&lt; TKey, TValue &gt; Pages: 1 -->
<!--zoomable 231 -->
<svg id="main" version="1.1" xmlns="http://www.w3.org/2000/svg" xmlns:xlink="http://www.w3.org/1999/xlink" xml:space="preserve" onload="init(evt)">
<style type="text/css"><![CDATA[
.edge:hover path { stroke: red; }
.edge:hover polygon { stroke: red; fill: red; }
]]></style>
<script type="text/javascript"><![CDATA[
var edges = document.getElementsByTagName('g');
if (edges && edges.length) {
  for (var i=0;i<edges.length;i++) {
    if (edges[i].id.substr(0,4)=='edge') {
      edges[i].setAttribute('class','edge');
    }
  }
}
]]></script>
        <defs>
                <circle id="rim" cx="0" cy="0" r="7"/>
                <circle id="rim2" cx="0" cy="0" r="3.5"/>
                <g id="zoomPlus">
                        <use xlink:href="#rim" fill="#404040">
                                <set attributeName="fill" to="#808080" begin="zoomplus.mouseover" end="zoomplus.mouseout"/>
                        </use>
                        <path d="M-4,0h8M0,-4v8" fill="none" stroke="white" stroke-width="1.5" pointer-events="none"/>
                </g>
                <g id="zoomMin">
                        <use xlink:href="#rim" fill="#404040">
                                <set attributeName="fill" to="#808080" begin="zoomminus.mouseover" end="zoomminus.mouseout"/>
                        </use>
                        <path d="M-4,0h8" fill="none" stroke="white" stroke-width="1.5" pointer-events="none"/>
                </g>
                <g id="dirArrow">
                        <path fill="none" stroke="white" stroke-width="1.5" d="M0,-3.0v7 M-2.5,-0.5L0,-3.0L2.5,-0.5"/>
                </g>
               <g id="resetDef">
                       <use xlink:href="#rim2" fill="#404040">
                               <set attributeName="fill" to="#808080" begin="reset.mouseover" end="reset.mouseout"/>
                       </use>
               </g>
        </defs>

<script type="text/javascript">
var viewWidth = 849;
var viewHeight = 231;
var sectionId = 'dynsection-0';
</script>
<script xlink:href="svgpan.js"/>
<svg id="graph" class="graph">
<g id="viewport">
<title>System.Runtime.InteropServices.WindowsRuntime.ConstantSplittableMap&lt; TKey, TValue &gt;</title>
<!-- Node0 -->
<g id="node1" class="node"><title>Node0</title>
<g id="a_node1"><a xlink:title=" ">
<polygon fill="#bfbfbf" stroke="black" points="647,-66 647,-107 841,-107 841,-66 647,-66"/>
<text text-anchor="start" x="655" y="-95" font-family="Helvetica,sans-Serif" font-size="10.00">System.Runtime.InteropServices.</text>
<text text-anchor="start" x="655" y="-84" font-family="Helvetica,sans-Serif" font-size="10.00">WindowsRuntime.ConstantSplittableMap</text>
<text text-anchor="middle" x="744" y="-73" font-family="Helvetica,sans-Serif" font-size="10.00">&lt; TKey, TValue &gt;</text>
</a>
</g>
</g>
<!-- Node1 -->
<g id="node2" class="node"><title>Node1</title>
<g id="a_node2"><a xlink:href="interface_system_1_1_runtime_1_1_interop_services_1_1_windows_runtime_1_1_i_map_view.html" target="_top" xlink:title=" ">
<polygon fill="none" stroke="black" points="472,-140 472,-159 607,-159 607,-140 472,-140"/>
<text text-anchor="middle" x="539.5" y="-147" font-family="Helvetica,sans-Serif" font-size="10.00">IMapView&lt; TKey, TValue &gt;</text>
</a>
</g>
</g>
<!-- Node1&#45;&gt;Node0 -->
<g id="edge1" class="edge"><title>Node1&#45;&gt;Node0</title>
<path fill="none" stroke="midnightblue" d="M581.975,-136.938C596.82,-132.418 613.668,-127.259 629,-122.5 644.957,-117.547 662.15,-112.149 678.226,-107.076"/>
<polygon fill="midnightblue" stroke="midnightblue" points="580.611,-133.695 572.062,-139.953 582.647,-140.392 580.611,-133.695"/>
</g>
<!-- Node2 -->
<g id="node3" class="node"><title>Node2</title>
<g id="a_node3"><a xlink:href="interface_system_1_1_runtime_1_1_interop_services_1_1_windows_runtime_1_1_i_map_view.html" target="_top" xlink:title=" ">
<polygon fill="none" stroke="black" points="178,-140.5 178,-170.5 353,-170.5 353,-140.5 178,-140.5"/>
<text text-anchor="start" x="186" y="-158.5" font-family="Helvetica,sans-Serif" font-size="10.00">System.Runtime.InteropServices.</text>
<text text-anchor="middle" x="265.5" y="-147.5" font-family="Helvetica,sans-Serif" font-size="10.00">WindowsRuntime.IMapView&lt; K, V &gt;</text>
</a>
</g>
</g>
<!-- Node2&#45;&gt;Node1 -->
<g id="edge2" class="edge"><title>Node2&#45;&gt;Node1</title>
<path fill="none" stroke="orange" stroke-dasharray="5,2" d="M363.335,-153.364C399.288,-152.571 439.232,-151.69 471.887,-150.969"/>
<polygon fill="orange" stroke="orange" points="363.231,-149.865 353.31,-153.585 363.385,-156.864 363.231,-149.865"/>
<text text-anchor="middle" x="411" y="-156.5" font-family="Helvetica,sans-Serif" font-size="10.00"> &lt; TKey, TValue &gt;</text>
</g>
<!-- Node3 -->
<g id="node4" class="node"><title>Node3</title>
<g id="a_node4"><a xlink:title=" ">
<polygon fill="none" stroke="#bfbfbf" points="10,-192.5 10,-222.5 131,-222.5 131,-192.5 10,-192.5"/>
<text text-anchor="start" x="18" y="-210.5" font-family="Helvetica,sans-Serif" font-size="10.00">IIterable&lt; IKeyValuePair</text>
<text text-anchor="middle" x="70.5" y="-199.5" font-family="Helvetica,sans-Serif" font-size="10.00">&lt; K, V &gt;&gt;</text>
</a>
</g>
</g>
<!-- Node3&#45;&gt;Node2 -->
<g id="edge3" class="edge"><title>Node3&#45;&gt;Node2</title>
<path fill="none" stroke="midnightblue" d="M137.127,-189.818C160.426,-183.541 186.41,-176.54 208.802,-170.507"/>
<polygon fill="midnightblue" stroke="midnightblue" points="136.069,-186.478 127.324,-192.459 137.89,-193.237 136.069,-186.478"/>
</g>
<!-- Node4 -->
<g id="node5" class="node"><title>Node4</title>
<g id="a_node5"><a xlink:title=" ">
<polygon fill="none" stroke="#bfbfbf" points="0,-143.5 0,-173.5 141,-173.5 141,-143.5 0,-143.5"/>
<text text-anchor="start" x="8" y="-161.5" font-family="Helvetica,sans-Serif" font-size="10.00">IEnumerable&lt; IKeyValuePair</text>
<text text-anchor="middle" x="70.5" y="-150.5" font-family="Helvetica,sans-Serif" font-size="10.00">&lt; K, V &gt;&gt;</text>
</a>
</g>
</g>
<!-- Node4&#45;&gt;Node2 -->
<g id="edge4" class="edge"><title>Node4&#45;&gt;Node2</title>
<path fill="none" stroke="midnightblue" d="M151.321,-157.259C160.05,-157.124 168.967,-156.985 177.774,-156.848"/>
<polygon fill="midnightblue" stroke="midnightblue" points="151.122,-153.762 141.177,-157.417 151.231,-160.761 151.122,-153.762"/>
</g>
<!-- Node5 -->
<g id="node6" class="node"><title>Node5</title>
<g id="a_node6"><a xlink:href="interface_system_1_1_collections_1_1_i_enumerable.html" target="_top" xlink:title="Exposes an enumerator, which supports a simple iteration over a non&#45;generic collection....">
<polygon fill="none" stroke="black" points="35,-102 35,-121 106,-121 106,-102 35,-102"/>
<text text-anchor="middle" x="70.5" y="-109" font-family="Helvetica,sans-Serif" font-size="10.00">IEnumerable</text>
</a>
</g>
</g>
<!-- Node5&#45;&gt;Node0 -->
<g id="edge8" class="edge"><title>Node5&#45;&gt;Node0</title>
<path fill="none" stroke="midnightblue" d="M116.388,-109.829C224.174,-105.816 499.552,-95.5636 646.767,-90.0827"/>
<polygon fill="midnightblue" stroke="midnightblue" points="116.052,-106.339 106.189,-110.209 116.312,-113.334 116.052,-106.339"/>
</g>
<!-- Node5&#45;&gt;Node2 -->
<g id="edge5" class="edge"><title>Node5&#45;&gt;Node2</title>
<path fill="none" stroke="midnightblue" d="M115.761,-121.591C140.318,-127.189 171.337,-134.261 198.685,-140.496"/>
<polygon fill="midnightblue" stroke="midnightblue" points="116.532,-118.177 106.005,-119.366 114.976,-125.002 116.532,-118.177"/>
</g>
<!-- Node6 -->
<g id="node7" class="node"><title>Node6</title>
<g id="a_node7"><a xlink:title=" ">
<polygon fill="none" stroke="#bfbfbf" points="479,-49.5 479,-79.5 600,-79.5 600,-49.5 479,-49.5"/>
<text text-anchor="start" x="487" y="-67.5" font-family="Helvetica,sans-Serif" font-size="10.00">IIterable&lt; IKeyValuePair</text>
<text text-anchor="middle" x="539.5" y="-56.5" font-family="Helvetica,sans-Serif" font-size="10.00">&lt; TKey, TValue &gt;&gt;</text>
</a>
</g>
</g>
<!-- Node6&#45;&gt;Node0 -->
<g id="edge6" class="edge"><title>Node6&#45;&gt;Node0</title>
<path fill="none" stroke="midnightblue" d="M610.352,-72.0889C622.155,-73.3711 634.589,-74.722 646.921,-76.0617"/>
<polygon fill="midnightblue" stroke="midnightblue" points="610.481,-68.5824 600.161,-70.9817 609.725,-75.5414 610.481,-68.5824"/>
</g>
<!-- Node7 -->
<g id="node8" class="node"><title>Node7</title>
<g id="a_node8"><a xlink:title=" ">
<polygon fill="none" stroke="#bfbfbf" points="469,-0.5 469,-30.5 610,-30.5 610,-0.5 469,-0.5"/>
<text text-anchor="start" x="477" y="-18.5" font-family="Helvetica,sans-Serif" font-size="10.00">IEnumerable&lt; IKeyValuePair</text>
<text text-anchor="middle" x="539.5" y="-7.5" font-family="Helvetica,sans-Serif" font-size="10.00">&lt; TKey, TValue &gt;&gt;</text>
</a>
</g>
</g>
<!-- Node7&#45;&gt;Node0 -->
<g id="edge7" class="edge"><title>Node7&#45;&gt;Node0</title>
<path fill="none" stroke="midnightblue" d="M593.967,-33.9201C599.385,-35.7995 604.803,-37.6844 610,-39.5 634.622,-48.1017 661.776,-57.6808 685.094,-65.9353"/>
<polygon fill="midnightblue" stroke="midnightblue" points="594.859,-30.5251 584.264,-30.5593 592.568,-37.1395 594.859,-30.5251"/>
</g>
</g>
</svg>
        <g id="navigator" transform="translate(0 0)" fill="#404254">
                <rect fill="#f2f5e9" fill-opacity="0.5" stroke="#606060" stroke-width=".5" x="0" y="0" width="60" height="60"/>
                <use id="zoomplus" xlink:href="#zoomPlus" x="17" y="9" onmousedown="handleZoom(evt,'in')"/>
                <use id="zoomminus" xlink:href="#zoomMin" x="42" y="9" onmousedown="handleZoom(evt,'out')"/>
                <use id="reset" xlink:href="#resetDef" x="30" y="36" onmousedown="handleReset()"/>
                <g id="arrowUp" xlink:href="#dirArrow" transform="translate(30 24)" onmousedown="handlePan(0,-1)">
                  <use xlink:href="#rim" fill="#404040">
                        <set attributeName="fill" to="#808080" begin="arrowUp.mouseover" end="arrowUp.mouseout"/>
                  </use>
                  <path fill="none" stroke="white" stroke-width="1.5" d="M0,-3.0v7 M-2.5,-0.5L0,-3.0L2.5,-0.5"/>
                </g>
                <g id="arrowRight" xlink:href="#dirArrow" transform="rotate(90) translate(36 -43)" onmousedown="handlePan(1,0)">
                  <use xlink:href="#rim" fill="#404040">
                        <set attributeName="fill" to="#808080" begin="arrowRight.mouseover" end="arrowRight.mouseout"/>
                  </use>
                  <path fill="none" stroke="white" stroke-width="1.5" d="M0,-3.0v7 M-2.5,-0.5L0,-3.0L2.5,-0.5"/>
                </g>
                <g id="arrowDown" xlink:href="#dirArrow" transform="rotate(180) translate(-30 -48)" onmousedown="handlePan(0,1)">
                  <use xlink:href="#rim" fill="#404040">
                        <set attributeName="fill" to="#808080" begin="arrowDown.mouseover" end="arrowDown.mouseout"/>
                  </use>
                  <path fill="none" stroke="white" stroke-width="1.5" d="M0,-3.0v7 M-2.5,-0.5L0,-3.0L2.5,-0.5"/>
                </g>
                <g id="arrowLeft" xlink:href="#dirArrow" transform="rotate(270) translate(-36 17)" onmousedown="handlePan(-1,0)">
                  <use xlink:href="#rim" fill="#404040">
                        <set attributeName="fill" to="#808080" begin="arrowLeft.mouseover" end="arrowLeft.mouseout"/>
                  </use>
                  <path fill="none" stroke="white" stroke-width="1.5" d="M0,-3.0v7 M-2.5,-0.5L0,-3.0L2.5,-0.5"/>
                </g>
        </g>
        <svg viewBox="0 0 15 15" width="100%" height="30px" preserveAspectRatio="xMaxYMin meet">
         <g id="arrow_out" transform="scale(0.3 0.3)">
          <a xlink:href="class_system_1_1_runtime_1_1_interop_services_1_1_windows_runtime_1_1_constant_splittable_map__inherit__graph_org.svg" target="_base">
           <rect id="button" ry="5" rx="5" y="6" x="6" height="38" width="38"
                fill="#f2f5e9" fill-opacity="0.5" stroke="#606060" stroke-width="1.0"/>
           <path id="arrow"
             d="M 11.500037,31.436501 C 11.940474,20.09759 22.043105,11.32322 32.158766,21.979434 L 37.068811,17.246167 C 37.068811,17.246167 37.088388,32 37.088388,32 L 22.160133,31.978069 C 22.160133,31.978069 26.997745,27.140456 26.997745,27.140456 C 18.528582,18.264221 13.291696,25.230495 11.500037,31.436501 z"
             style="fill:#404040;"/>
          </a>
         </g>
        </svg>
</svg>
