<?xml version="1.0" encoding="UTF-8" standalone="no"?>
<!DOCTYPE svg PUBLIC "-//W3C//DTD SVG 1.1//EN"
 "http://www.w3.org/Graphics/SVG/1.1/DTD/svg11.dtd">
<!-- Generated by graphviz version 2.38.0 (20140413.2041)
 -->
<!-- Title: System.Runtime.CompilerServices.TupleElementNamesAttribute Pages: 1 -->
<svg width="222pt" height="117pt"
 viewBox="0.00 0.00 221.50 117.00" xmlns="http://www.w3.org/2000/svg" xmlns:xlink="http://www.w3.org/1999/xlink">
<g id="graph0" class="graph" transform="scale(1 1) rotate(0) translate(4 113)">
<title>System.Runtime.CompilerServices.TupleElementNamesAttribute</title>
<!-- Node3 -->
<g id="node1" class="node"><title>Node3</title>
<g id="a_node1"><a xlink:title="Indicates that the use of a value tuple on a member is meant to be treated as a tuple with element na...">
<polygon fill="#bfbfbf" stroke="black" points="0,-0.5 0,-30.5 170,-30.5 170,-0.5 0,-0.5"/>
<text text-anchor="start" x="8" y="-18.5" font-family="Helvetica,sans-Serif" font-size="10.00">System.Runtime.CompilerServices.</text>
<text text-anchor="middle" x="85" y="-7.5" font-family="Helvetica,sans-Serif" font-size="10.00">TupleElementNamesAttribute</text>
</a>
</g>
</g>
<!-- Node4 -->
<g id="node2" class="node"><title>Node4</title>
<g id="a_node2"><a xlink:href="class_system_1_1_attribute.html" target="_top" xlink:title="Represents the base class for custom attributes.">
<polygon fill="none" stroke="red" points="1.5,-84 1.5,-103 54.5,-103 54.5,-84 1.5,-84"/>
<text text-anchor="middle" x="28" y="-91" font-family="Helvetica,sans-Serif" font-size="10.00">Attribute</text>
</a>
</g>
</g>
<!-- Node4&#45;&gt;Node3 -->
<g id="edge1" class="edge"><title>Node4&#45;&gt;Node3</title>
<path fill="none" stroke="midnightblue" d="M40.5591,-75.7545C50.7332,-62.189 64.9027,-43.2964 74.4851,-30.5198"/>
<polygon fill="midnightblue" stroke="midnightblue" points="37.7387,-73.6818 34.5386,-83.7818 43.3387,-77.8818 37.7387,-73.6818"/>
</g>
<!-- Node6 -->
<g id="node3" class="node"><title>Node6</title>
<g id="a_node3"><a xlink:href="interface_system_1_1_collections_1_1_generic_1_1_i_list.html" target="_top" xlink:title=" ">
<polygon fill="none" stroke="red" points="72.5,-78.5 72.5,-108.5 213.5,-108.5 213.5,-78.5 72.5,-78.5"/>
<text text-anchor="start" x="80.5" y="-96.5" font-family="Helvetica,sans-Serif" font-size="10.00">System.Collections.Generic.</text>
<text text-anchor="middle" x="143" y="-85.5" font-family="Helvetica,sans-Serif" font-size="10.00">IList&lt; string &gt;</text>
</a>
</g>
</g>
<!-- Node6&#45;&gt;Node3 -->
<g id="edge2" class="edge"><title>Node6&#45;&gt;Node3</title>
<path fill="none" stroke="#9a32cd" stroke-dasharray="5,2" d="M125.784,-69.9408C116.087,-57.2348 104.272,-41.7536 95.8604,-30.7309"/>
<polygon fill="#9a32cd" stroke="#9a32cd" points="123.242,-72.3788 132.091,-78.205 128.806,-68.1321 123.242,-72.3788"/>
<text text-anchor="middle" x="155.5" y="-52" font-family="Helvetica,sans-Serif" font-size="10.00"> TransformNames</text>
</g>
</g>
</svg>
