<?xml version="1.0" encoding="UTF-8" standalone="no"?>
<!DOCTYPE svg PUBLIC "-//W3C//DTD SVG 1.1//EN"
 "http://www.w3.org/Graphics/SVG/1.1/DTD/svg11.dtd">
<!-- Generated by graphviz version 2.38.0 (20140413.2041)
 -->
<!-- Title: System.Reflection.FieldInfo Pages: 1 -->
<!--zoomable 186 -->
<svg id="main" version="1.1" xmlns="http://www.w3.org/2000/svg" xmlns:xlink="http://www.w3.org/1999/xlink" xml:space="preserve" onload="init(evt)">
<style type="text/css"><![CDATA[
.edge:hover path { stroke: red; }
.edge:hover polygon { stroke: red; fill: red; }
]]></style>
<script type="text/javascript"><![CDATA[
var edges = document.getElementsByTagName('g');
if (edges && edges.length) {
  for (var i=0;i<edges.length;i++) {
    if (edges[i].id.substr(0,4)=='edge') {
      edges[i].setAttribute('class','edge');
    }
  }
}
]]></script>
        <defs>
                <circle id="rim" cx="0" cy="0" r="7"/>
                <circle id="rim2" cx="0" cy="0" r="3.5"/>
                <g id="zoomPlus">
                        <use xlink:href="#rim" fill="#404040">
                                <set attributeName="fill" to="#808080" begin="zoomplus.mouseover" end="zoomplus.mouseout"/>
                        </use>
                        <path d="M-4,0h8M0,-4v8" fill="none" stroke="white" stroke-width="1.5" pointer-events="none"/>
                </g>
                <g id="zoomMin">
                        <use xlink:href="#rim" fill="#404040">
                                <set attributeName="fill" to="#808080" begin="zoomminus.mouseover" end="zoomminus.mouseout"/>
                        </use>
                        <path d="M-4,0h8" fill="none" stroke="white" stroke-width="1.5" pointer-events="none"/>
                </g>
                <g id="dirArrow">
                        <path fill="none" stroke="white" stroke-width="1.5" d="M0,-3.0v7 M-2.5,-0.5L0,-3.0L2.5,-0.5"/>
                </g>
               <g id="resetDef">
                       <use xlink:href="#rim2" fill="#404040">
                               <set attributeName="fill" to="#808080" begin="reset.mouseover" end="reset.mouseout"/>
                       </use>
               </g>
        </defs>

<script type="text/javascript">
var viewWidth = 776;
var viewHeight = 186;
var sectionId = 'dynsection-0';
</script>
<script xlink:href="svgpan.js"/>
<svg id="graph" class="graph">
<g id="viewport">
<title>System.Reflection.FieldInfo</title>
<!-- Node0 -->
<g id="node1" class="node"><title>Node0</title>
<g id="a_node1"><a xlink:title="Discovers the attributes of a field and provides access to field metadata.">
<polygon fill="#bfbfbf" stroke="black" points="263,-79 263,-98 398,-98 398,-79 263,-79"/>
<text text-anchor="middle" x="330.5" y="-86" font-family="Helvetica,sans-Serif" font-size="10.00">System.Reflection.FieldInfo</text>
</a>
</g>
</g>
<!-- Node5 -->
<g id="node6" class="node"><title>Node5</title>
<g id="a_node6"><a xlink:href="class_system_1_1_reflection_1_1_emit_1_1_field_builder.html" target="_top" xlink:title="Defines and represents a field. This class cannot be inherited.">
<polygon fill="none" stroke="black" points="437,-147.5 437,-177.5 580,-177.5 580,-147.5 437,-147.5"/>
<text text-anchor="start" x="445" y="-165.5" font-family="Helvetica,sans-Serif" font-size="10.00">System.Reflection.Emit.Field</text>
<text text-anchor="middle" x="508.5" y="-154.5" font-family="Helvetica,sans-Serif" font-size="10.00">Builder</text>
</a>
</g>
</g>
<!-- Node0&#45;&gt;Node5 -->
<g id="edge5" class="edge"><title>Node0&#45;&gt;Node5</title>
<path fill="none" stroke="midnightblue" d="M358.312,-102.847C378.726,-113.457 407.701,-127.851 434,-138.5 441.714,-141.624 450.003,-144.642 458.135,-147.423"/>
<polygon fill="midnightblue" stroke="midnightblue" points="359.784,-99.6663 349.302,-98.1205 356.532,-105.865 359.784,-99.6663"/>
</g>
<!-- Node6 -->
<g id="node7" class="node"><title>Node6</title>
<g id="a_node7"><a xlink:href="class_system_1_1_reflection_1_1_emit_1_1_field_on_type_builder_instantiation.html" target="_top" xlink:title=" ">
<polygon fill="none" stroke="black" points="437,-98.5 437,-128.5 580,-128.5 580,-98.5 437,-98.5"/>
<text text-anchor="start" x="445" y="-116.5" font-family="Helvetica,sans-Serif" font-size="10.00">System.Reflection.Emit.Field</text>
<text text-anchor="middle" x="508.5" y="-105.5" font-family="Helvetica,sans-Serif" font-size="10.00">OnTypeBuilderInstantiation</text>
</a>
</g>
</g>
<!-- Node0&#45;&gt;Node6 -->
<g id="edge6" class="edge"><title>Node0&#45;&gt;Node6</title>
<path fill="none" stroke="midnightblue" d="M408.234,-99.3998C417.715,-100.746 427.373,-102.118 436.758,-103.451"/>
<polygon fill="midnightblue" stroke="midnightblue" points="408.431,-95.8926 398.038,-97.9514 407.446,-102.823 408.431,-95.8926"/>
</g>
<!-- Node7 -->
<g id="node8" class="node"><title>Node7</title>
<g id="a_node8"><a xlink:href="class_system_1_1_reflection_1_1_runtime_field_info.html" target="_top" xlink:title=" ">
<polygon fill="none" stroke="black" points="441,-49.5 441,-79.5 576,-79.5 576,-49.5 441,-49.5"/>
<text text-anchor="start" x="449" y="-67.5" font-family="Helvetica,sans-Serif" font-size="10.00">System.Reflection.Runtime</text>
<text text-anchor="middle" x="508.5" y="-56.5" font-family="Helvetica,sans-Serif" font-size="10.00">FieldInfo</text>
</a>
</g>
</g>
<!-- Node0&#45;&gt;Node7 -->
<g id="edge7" class="edge"><title>Node0&#45;&gt;Node7</title>
<path fill="none" stroke="midnightblue" d="M408.002,-78.0679C418.947,-76.5755 430.133,-75.05 440.868,-73.5862"/>
<polygon fill="midnightblue" stroke="midnightblue" points="407.473,-74.6075 398.038,-79.4266 408.419,-81.5433 407.473,-74.6075"/>
</g>
<!-- Node10 -->
<g id="node11" class="node"><title>Node10</title>
<g id="a_node11"><a xlink:href="class_system_1_1_runtime_1_1_serialization_1_1_serialization_field_info.html" target="_top" xlink:title=" ">
<polygon fill="none" stroke="black" points="434,-0.5 434,-30.5 583,-30.5 583,-0.5 434,-0.5"/>
<text text-anchor="start" x="442" y="-18.5" font-family="Helvetica,sans-Serif" font-size="10.00">System.Runtime.Serialization.</text>
<text text-anchor="middle" x="508.5" y="-7.5" font-family="Helvetica,sans-Serif" font-size="10.00">SerializationFieldInfo</text>
</a>
</g>
</g>
<!-- Node0&#45;&gt;Node10 -->
<g id="edge10" class="edge"><title>Node0&#45;&gt;Node10</title>
<path fill="none" stroke="midnightblue" d="M358.716,-74.2923C379.127,-63.9333 407.917,-49.9412 434,-39.5 441.726,-36.407 450.022,-33.4045 458.157,-30.63"/>
<polygon fill="midnightblue" stroke="midnightblue" points="357,-71.239 349.694,-78.912 360.19,-77.4697 357,-71.239"/>
</g>
<!-- Node1 -->
<g id="node2" class="node"><title>Node1</title>
<g id="a_node2"><a xlink:href="class_system_1_1_reflection_1_1_member_info.html" target="_top" xlink:title="Obtains information about the attributes of a member and provides access to member metadata.">
<polygon fill="none" stroke="black" points="160,-98 160,-117 227,-117 227,-98 160,-98"/>
<text text-anchor="middle" x="193.5" y="-105" font-family="Helvetica,sans-Serif" font-size="10.00">MemberInfo</text>
</a>
</g>
</g>
<!-- Node1&#45;&gt;Node0 -->
<g id="edge1" class="edge"><title>Node1&#45;&gt;Node0</title>
<path fill="none" stroke="midnightblue" d="M237.233,-101.486C245.444,-100.33 254.223,-99.0946 262.979,-97.8621"/>
<polygon fill="midnightblue" stroke="midnightblue" points="236.594,-98.041 227.18,-102.901 237.57,-104.973 236.594,-98.041"/>
</g>
<!-- Node2 -->
<g id="node3" class="node"><title>Node2</title>
<g id="a_node3"><a xlink:href="interface_system_1_1_reflection_1_1_i_custom_attribute_provider.html" target="_top" xlink:title="Provides custom attributes for reflection objects that support them.">
<polygon fill="none" stroke="black" points="0,-117 0,-136 124,-136 124,-117 0,-117"/>
<text text-anchor="middle" x="62" y="-124" font-family="Helvetica,sans-Serif" font-size="10.00">ICustomAttributeProvider</text>
</a>
</g>
</g>
<!-- Node2&#45;&gt;Node1 -->
<g id="edge2" class="edge"><title>Node2&#45;&gt;Node1</title>
<path fill="none" stroke="midnightblue" d="M134.419,-116.021C143.318,-114.716 152.047,-113.435 159.924,-112.28"/>
<polygon fill="midnightblue" stroke="midnightblue" points="133.723,-112.586 124.337,-117.501 134.739,-119.512 133.723,-112.586"/>
</g>
<!-- Node3 -->
<g id="node4" class="node"><title>Node3</title>
<g id="a_node4"><a xlink:href="interface_system_1_1_runtime_1_1_interop_services_1_1___member_info.html" target="_top" xlink:title="Exposes the public members of the T:System.Reflection.MemberInfo class to unmanaged code.">
<polygon fill="none" stroke="black" points="26,-79 26,-98 98,-98 98,-79 26,-79"/>
<text text-anchor="middle" x="62" y="-86" font-family="Helvetica,sans-Serif" font-size="10.00">_MemberInfo</text>
</a>
</g>
</g>
<!-- Node3&#45;&gt;Node1 -->
<g id="edge3" class="edge"><title>Node3&#45;&gt;Node1</title>
<path fill="none" stroke="midnightblue" d="M108.279,-95.1432C125.196,-97.6253 144.069,-100.394 159.654,-102.681"/>
<polygon fill="midnightblue" stroke="midnightblue" points="108.447,-91.6305 98.0446,-93.6417 107.431,-98.5563 108.447,-91.6305"/>
</g>
<!-- Node4 -->
<g id="node5" class="node"><title>Node4</title>
<g id="a_node5"><a xlink:href="interface_system_1_1_runtime_1_1_interop_services_1_1___field_info.html" target="_top" xlink:title="Exposes the public members of the T:System.Reflection.FieldInfo class to unmanaged code.">
<polygon fill="none" stroke="black" points="164.5,-60 164.5,-79 222.5,-79 222.5,-60 164.5,-60"/>
<text text-anchor="middle" x="193.5" y="-67" font-family="Helvetica,sans-Serif" font-size="10.00">_FieldInfo</text>
</a>
</g>
</g>
<!-- Node4&#45;&gt;Node0 -->
<g id="edge4" class="edge"><title>Node4&#45;&gt;Node0</title>
<path fill="none" stroke="midnightblue" d="M232.934,-74.9093C242.303,-76.2278 252.594,-77.6762 262.859,-79.1209"/>
<polygon fill="midnightblue" stroke="midnightblue" points="233.191,-71.4109 222.8,-73.483 232.215,-78.3426 233.191,-71.4109"/>
</g>
<!-- Node8 -->
<g id="node9" class="node"><title>Node8</title>
<g id="a_node9"><a xlink:href="class_system_1_1_reflection_1_1_md_field_info.html" target="_top" xlink:title=" ">
<polygon fill="none" stroke="black" points="619,-74 619,-93 768,-93 768,-74 619,-74"/>
<text text-anchor="middle" x="693.5" y="-81" font-family="Helvetica,sans-Serif" font-size="10.00">System.Reflection.MdFieldInfo</text>
</a>
</g>
</g>
<!-- Node7&#45;&gt;Node8 -->
<g id="edge8" class="edge"><title>Node7&#45;&gt;Node8</title>
<path fill="none" stroke="midnightblue" d="M586.309,-72.4747C597.083,-73.5933 608.136,-74.7409 618.85,-75.8532"/>
<polygon fill="midnightblue" stroke="midnightblue" points="586.393,-68.9647 576.085,-71.4132 585.67,-75.9273 586.393,-68.9647"/>
</g>
<!-- Node9 -->
<g id="node10" class="node"><title>Node9</title>
<g id="a_node10"><a xlink:href="class_system_1_1_reflection_1_1_rt_field_info.html" target="_top" xlink:title=" ">
<polygon fill="none" stroke="black" points="621,-36 621,-55 766,-55 766,-36 621,-36"/>
<text text-anchor="middle" x="693.5" y="-43" font-family="Helvetica,sans-Serif" font-size="10.00">System.Reflection.RtFieldInfo</text>
</a>
</g>
</g>
<!-- Node7&#45;&gt;Node9 -->
<g id="edge9" class="edge"><title>Node7&#45;&gt;Node9</title>
<path fill="none" stroke="midnightblue" d="M586.069,-56.5502C597.546,-55.3586 609.345,-54.1336 620.717,-52.9529"/>
<polygon fill="midnightblue" stroke="midnightblue" points="585.67,-53.0727 576.085,-57.5868 586.393,-60.0353 585.67,-53.0727"/>
</g>
</g>
</svg>
        <g id="navigator" transform="translate(0 0)" fill="#404254">
                <rect fill="#f2f5e9" fill-opacity="0.5" stroke="#606060" stroke-width=".5" x="0" y="0" width="60" height="60"/>
                <use id="zoomplus" xlink:href="#zoomPlus" x="17" y="9" onmousedown="handleZoom(evt,'in')"/>
                <use id="zoomminus" xlink:href="#zoomMin" x="42" y="9" onmousedown="handleZoom(evt,'out')"/>
                <use id="reset" xlink:href="#resetDef" x="30" y="36" onmousedown="handleReset()"/>
                <g id="arrowUp" xlink:href="#dirArrow" transform="translate(30 24)" onmousedown="handlePan(0,-1)">
                  <use xlink:href="#rim" fill="#404040">
                        <set attributeName="fill" to="#808080" begin="arrowUp.mouseover" end="arrowUp.mouseout"/>
                  </use>
                  <path fill="none" stroke="white" stroke-width="1.5" d="M0,-3.0v7 M-2.5,-0.5L0,-3.0L2.5,-0.5"/>
                </g>
                <g id="arrowRight" xlink:href="#dirArrow" transform="rotate(90) translate(36 -43)" onmousedown="handlePan(1,0)">
                  <use xlink:href="#rim" fill="#404040">
                        <set attributeName="fill" to="#808080" begin="arrowRight.mouseover" end="arrowRight.mouseout"/>
                  </use>
                  <path fill="none" stroke="white" stroke-width="1.5" d="M0,-3.0v7 M-2.5,-0.5L0,-3.0L2.5,-0.5"/>
                </g>
                <g id="arrowDown" xlink:href="#dirArrow" transform="rotate(180) translate(-30 -48)" onmousedown="handlePan(0,1)">
                  <use xlink:href="#rim" fill="#404040">
                        <set attributeName="fill" to="#808080" begin="arrowDown.mouseover" end="arrowDown.mouseout"/>
                  </use>
                  <path fill="none" stroke="white" stroke-width="1.5" d="M0,-3.0v7 M-2.5,-0.5L0,-3.0L2.5,-0.5"/>
                </g>
                <g id="arrowLeft" xlink:href="#dirArrow" transform="rotate(270) translate(-36 17)" onmousedown="handlePan(-1,0)">
                  <use xlink:href="#rim" fill="#404040">
                        <set attributeName="fill" to="#808080" begin="arrowLeft.mouseover" end="arrowLeft.mouseout"/>
                  </use>
                  <path fill="none" stroke="white" stroke-width="1.5" d="M0,-3.0v7 M-2.5,-0.5L0,-3.0L2.5,-0.5"/>
                </g>
        </g>
        <svg viewBox="0 0 15 15" width="100%" height="30px" preserveAspectRatio="xMaxYMin meet">
         <g id="arrow_out" transform="scale(0.3 0.3)">
          <a xlink:href="class_system_1_1_reflection_1_1_field_info__inherit__graph_org.svg" target="_base">
           <rect id="button" ry="5" rx="5" y="6" x="6" height="38" width="38"
                fill="#f2f5e9" fill-opacity="0.5" stroke="#606060" stroke-width="1.0"/>
           <path id="arrow"
             d="M 11.500037,31.436501 C 11.940474,20.09759 22.043105,11.32322 32.158766,21.979434 L 37.068811,17.246167 C 37.068811,17.246167 37.088388,32 37.088388,32 L 22.160133,31.978069 C 22.160133,31.978069 26.997745,27.140456 26.997745,27.140456 C 18.528582,18.264221 13.291696,25.230495 11.500037,31.436501 z"
             style="fill:#404040;"/>
          </a>
         </g>
        </svg>
</svg>
