<?xml version="1.0" encoding="UTF-8" standalone="no"?>
<!DOCTYPE svg PUBLIC "-//W3C//DTD SVG 1.1//EN"
 "http://www.w3.org/Graphics/SVG/1.1/DTD/svg11.dtd">
<!-- Generated by graphviz version 2.38.0 (20140413.2041)
 -->
<!-- Title: System.Security.Permissions.GacIdentityPermissionAttribute Pages: 1 -->
<svg width="160pt" height="263pt"
 viewBox="0.00 0.00 160.00 263.00" xmlns="http://www.w3.org/2000/svg" xmlns:xlink="http://www.w3.org/1999/xlink">
<g id="graph0" class="graph" transform="scale(1 1) rotate(0) translate(4 259)">
<title>System.Security.Permissions.GacIdentityPermissionAttribute</title>
<!-- Node0 -->
<g id="node1" class="node"><title>Node0</title>
<g id="a_node1"><a xlink:title="Allows security actions for T:System.Security.Permissions.GacIdentityPermission to be applied to code...">
<polygon fill="#bfbfbf" stroke="black" points="0,-0.5 0,-30.5 152,-30.5 152,-0.5 0,-0.5"/>
<text text-anchor="start" x="8" y="-18.5" font-family="Helvetica,sans-Serif" font-size="10.00">System.Security.Permissions.</text>
<text text-anchor="middle" x="76" y="-7.5" font-family="Helvetica,sans-Serif" font-size="10.00">GacIdentityPermissionAttribute</text>
</a>
</g>
</g>
<!-- Node1 -->
<g id="node2" class="node"><title>Node1</title>
<g id="a_node2"><a xlink:href="class_system_1_1_security_1_1_permissions_1_1_code_access_security_attribute.html" target="_top" xlink:title="Specifies the base attribute class for code access security.">
<polygon fill="none" stroke="black" points="3.5,-67.5 3.5,-86.5 148.5,-86.5 148.5,-67.5 3.5,-67.5"/>
<text text-anchor="middle" x="76" y="-74.5" font-family="Helvetica,sans-Serif" font-size="10.00">CodeAccessSecurityAttribute</text>
</a>
</g>
</g>
<!-- Node1&#45;&gt;Node0 -->
<g id="edge1" class="edge"><title>Node1&#45;&gt;Node0</title>
<path fill="none" stroke="midnightblue" d="M76,-57.2349C76,-48.5864 76,-38.4969 76,-30.523"/>
<polygon fill="midnightblue" stroke="midnightblue" points="72.5001,-57.4751 76,-67.4751 79.5001,-57.4751 72.5001,-57.4751"/>
</g>
<!-- Node2 -->
<g id="node3" class="node"><title>Node2</title>
<g id="a_node3"><a xlink:href="class_system_1_1_security_1_1_permissions_1_1_security_attribute.html" target="_top" xlink:title="Specifies the base attribute class for declarative security from which T:System.Security....">
<polygon fill="none" stroke="black" points="31.5,-123.5 31.5,-142.5 120.5,-142.5 120.5,-123.5 31.5,-123.5"/>
<text text-anchor="middle" x="76" y="-130.5" font-family="Helvetica,sans-Serif" font-size="10.00">SecurityAttribute</text>
</a>
</g>
</g>
<!-- Node2&#45;&gt;Node1 -->
<g id="edge2" class="edge"><title>Node2&#45;&gt;Node1</title>
<path fill="none" stroke="midnightblue" d="M76,-112.805C76,-103.91 76,-93.7798 76,-86.7511"/>
<polygon fill="midnightblue" stroke="midnightblue" points="72.5001,-113.083 76,-123.083 79.5001,-113.083 72.5001,-113.083"/>
</g>
<!-- Node3 -->
<g id="node4" class="node"><title>Node3</title>
<g id="a_node4"><a xlink:href="class_system_1_1_attribute.html" target="_top" xlink:title="Represents the base class for custom attributes.">
<polygon fill="none" stroke="black" points="49.5,-179.5 49.5,-198.5 102.5,-198.5 102.5,-179.5 49.5,-179.5"/>
<text text-anchor="middle" x="76" y="-186.5" font-family="Helvetica,sans-Serif" font-size="10.00">Attribute</text>
</a>
</g>
</g>
<!-- Node3&#45;&gt;Node2 -->
<g id="edge3" class="edge"><title>Node3&#45;&gt;Node2</title>
<path fill="none" stroke="midnightblue" d="M76,-168.805C76,-159.91 76,-149.78 76,-142.751"/>
<polygon fill="midnightblue" stroke="midnightblue" points="72.5001,-169.083 76,-179.083 79.5001,-169.083 72.5001,-169.083"/>
</g>
<!-- Node4 -->
<g id="node5" class="node"><title>Node4</title>
<g id="a_node5"><a xlink:href="interface_system_1_1_runtime_1_1_interop_services_1_1___attribute.html" target="_top" xlink:title="Exposes the T:System.Attribute class to unmanaged code.">
<polygon fill="none" stroke="black" points="46.5,-235.5 46.5,-254.5 105.5,-254.5 105.5,-235.5 46.5,-235.5"/>
<text text-anchor="middle" x="76" y="-242.5" font-family="Helvetica,sans-Serif" font-size="10.00">_Attribute</text>
</a>
</g>
</g>
<!-- Node4&#45;&gt;Node3 -->
<g id="edge4" class="edge"><title>Node4&#45;&gt;Node3</title>
<path fill="none" stroke="midnightblue" d="M76,-224.805C76,-215.91 76,-205.78 76,-198.751"/>
<polygon fill="midnightblue" stroke="midnightblue" points="72.5001,-225.083 76,-235.083 79.5001,-225.083 72.5001,-225.083"/>
</g>
</g>
</svg>
