<?xml version="1.0" encoding="UTF-8" standalone="no"?>
<!DOCTYPE svg PUBLIC "-//W3C//DTD SVG 1.1//EN"
 "http://www.w3.org/Graphics/SVG/1.1/DTD/svg11.dtd">
<!-- Generated by graphviz version 2.38.0 (20140413.2041)
 -->
<!-- Title: System.Net.WebRequest Pages: 1 -->
<svg width="476pt" height="140pt"
 viewBox="0.00 0.00 475.50 140.00" xmlns="http://www.w3.org/2000/svg" xmlns:xlink="http://www.w3.org/1999/xlink">
<g id="graph0" class="graph" transform="scale(1 1) rotate(0) translate(4 136)">
<title>System.Net.WebRequest</title>
<!-- Node0 -->
<g id="node1" class="node"><title>Node0</title>
<g id="a_node1"><a xlink:title="Makes a request to a Uniform Resource Identifier (URI). This is an abstract class.">
<polygon fill="#bfbfbf" stroke="black" points="168.5,-56.5 168.5,-75.5 296.5,-75.5 296.5,-56.5 168.5,-56.5"/>
<text text-anchor="middle" x="232.5" y="-63.5" font-family="Helvetica,sans-Serif" font-size="10.00">System.Net.WebRequest</text>
</a>
</g>
</g>
<!-- Node3 -->
<g id="node4" class="node"><title>Node3</title>
<g id="a_node4"><a xlink:href="class_system_1_1_net_1_1_file_web_request.html" target="_top" xlink:title="Provides a file system implementation of the T:System.Net.WebRequest class.">
<polygon fill="none" stroke="black" points="0,-0.5 0,-19.5 143,-19.5 143,-0.5 0,-0.5"/>
<text text-anchor="middle" x="71.5" y="-7.5" font-family="Helvetica,sans-Serif" font-size="10.00">System.Net.FileWebRequest</text>
</a>
</g>
</g>
<!-- Node0&#45;&gt;Node3 -->
<g id="edge3" class="edge"><title>Node0&#45;&gt;Node3</title>
<path fill="none" stroke="midnightblue" d="M197.235,-53.172C166.919,-43.0039 123.93,-28.5852 96.8916,-19.5164"/>
<polygon fill="midnightblue" stroke="midnightblue" points="196.395,-56.5819 206.989,-56.4435 198.621,-49.9452 196.395,-56.5819"/>
</g>
<!-- Node4 -->
<g id="node5" class="node"><title>Node4</title>
<g id="a_node5"><a xlink:href="class_system_1_1_net_1_1_ftp_web_request.html" target="_top" xlink:title="Implements a File Transfer Protocol (FTP) client.">
<polygon fill="none" stroke="black" points="161.5,-0.5 161.5,-19.5 303.5,-19.5 303.5,-0.5 161.5,-0.5"/>
<text text-anchor="middle" x="232.5" y="-7.5" font-family="Helvetica,sans-Serif" font-size="10.00">System.Net.FtpWebRequest</text>
</a>
</g>
</g>
<!-- Node0&#45;&gt;Node4 -->
<g id="edge4" class="edge"><title>Node0&#45;&gt;Node4</title>
<path fill="none" stroke="midnightblue" d="M232.5,-45.8045C232.5,-36.9102 232.5,-26.7798 232.5,-19.7511"/>
<polygon fill="midnightblue" stroke="midnightblue" points="229,-46.083 232.5,-56.083 236,-46.083 229,-46.083"/>
</g>
<!-- Node5 -->
<g id="node6" class="node"><title>Node5</title>
<g id="a_node6"><a xlink:href="class_system_1_1_net_1_1_http_web_request.html" target="_top" xlink:title="Provides an HTTP&#45;specific implementation of the T:System.Net.WebRequest class.">
<polygon fill="none" stroke="black" points="321.5,-0.5 321.5,-19.5 467.5,-19.5 467.5,-0.5 321.5,-0.5"/>
<text text-anchor="middle" x="394.5" y="-7.5" font-family="Helvetica,sans-Serif" font-size="10.00">System.Net.HttpWebRequest</text>
</a>
</g>
</g>
<!-- Node0&#45;&gt;Node5 -->
<g id="edge5" class="edge"><title>Node0&#45;&gt;Node5</title>
<path fill="none" stroke="midnightblue" d="M267.984,-53.172C298.488,-43.0039 341.745,-28.5852 368.951,-19.5164"/>
<polygon fill="midnightblue" stroke="midnightblue" points="266.549,-49.9608 258.169,-56.4435 268.763,-56.6016 266.549,-49.9608"/>
</g>
<!-- Node1 -->
<g id="node2" class="node"><title>Node1</title>
<g id="a_node2"><a xlink:href="class_system_1_1_marshal_by_ref_object.html" target="_top" xlink:title="Enables access to objects across application domain boundaries in applications that support remoting.">
<polygon fill="none" stroke="black" points="126.5,-112.5 126.5,-131.5 232.5,-131.5 232.5,-112.5 126.5,-112.5"/>
<text text-anchor="middle" x="179.5" y="-119.5" font-family="Helvetica,sans-Serif" font-size="10.00">MarshalByRefObject</text>
</a>
</g>
</g>
<!-- Node1&#45;&gt;Node0 -->
<g id="edge1" class="edge"><title>Node1&#45;&gt;Node0</title>
<path fill="none" stroke="midnightblue" d="M195.481,-104.718C204.822,-95.1997 216.246,-83.5608 223.911,-75.7511"/>
<polygon fill="midnightblue" stroke="midnightblue" points="192.759,-102.494 188.252,-112.083 197.754,-107.398 192.759,-102.494"/>
</g>
<!-- Node2 -->
<g id="node3" class="node"><title>Node2</title>
<g id="a_node3"><a xlink:href="interface_system_1_1_runtime_1_1_serialization_1_1_i_serializable.html" target="_top" xlink:title="Allows an object to control its own serialization and deserialization.">
<polygon fill="none" stroke="black" points="251,-112.5 251,-131.5 320,-131.5 320,-112.5 251,-112.5"/>
<text text-anchor="middle" x="285.5" y="-119.5" font-family="Helvetica,sans-Serif" font-size="10.00">ISerializable</text>
</a>
</g>
</g>
<!-- Node2&#45;&gt;Node0 -->
<g id="edge2" class="edge"><title>Node2&#45;&gt;Node0</title>
<path fill="none" stroke="midnightblue" d="M269.519,-104.718C260.178,-95.1997 248.754,-83.5608 241.089,-75.7511"/>
<polygon fill="midnightblue" stroke="midnightblue" points="267.246,-107.398 276.748,-112.083 272.241,-102.494 267.246,-107.398"/>
</g>
</g>
</svg>
