<?xml version="1.0" encoding="UTF-8" standalone="no"?>
<!DOCTYPE svg PUBLIC "-//W3C//DTD SVG 1.1//EN"
 "http://www.w3.org/Graphics/SVG/1.1/DTD/svg11.dtd">
<!-- Generated by graphviz version 2.38.0 (20140413.2041)
 -->
<!-- Title: System.Collections.ObjectModel.Collection&lt; T &gt; Pages: 1 -->
<!--zoomable 367 -->
<svg id="main" version="1.1" xmlns="http://www.w3.org/2000/svg" xmlns:xlink="http://www.w3.org/1999/xlink" xml:space="preserve" onload="init(evt)">
<style type="text/css"><![CDATA[
.edge:hover path { stroke: red; }
.edge:hover polygon { stroke: red; fill: red; }
]]></style>
<script type="text/javascript"><![CDATA[
var edges = document.getElementsByTagName('g');
if (edges && edges.length) {
  for (var i=0;i<edges.length;i++) {
    if (edges[i].id.substr(0,4)=='edge') {
      edges[i].setAttribute('class','edge');
    }
  }
}
]]></script>
        <defs>
                <circle id="rim" cx="0" cy="0" r="7"/>
                <circle id="rim2" cx="0" cy="0" r="3.5"/>
                <g id="zoomPlus">
                        <use xlink:href="#rim" fill="#404040">
                                <set attributeName="fill" to="#808080" begin="zoomplus.mouseover" end="zoomplus.mouseout"/>
                        </use>
                        <path d="M-4,0h8M0,-4v8" fill="none" stroke="white" stroke-width="1.5" pointer-events="none"/>
                </g>
                <g id="zoomMin">
                        <use xlink:href="#rim" fill="#404040">
                                <set attributeName="fill" to="#808080" begin="zoomminus.mouseover" end="zoomminus.mouseout"/>
                        </use>
                        <path d="M-4,0h8" fill="none" stroke="white" stroke-width="1.5" pointer-events="none"/>
                </g>
                <g id="dirArrow">
                        <path fill="none" stroke="white" stroke-width="1.5" d="M0,-3.0v7 M-2.5,-0.5L0,-3.0L2.5,-0.5"/>
                </g>
               <g id="resetDef">
                       <use xlink:href="#rim2" fill="#404040">
                               <set attributeName="fill" to="#808080" begin="reset.mouseover" end="reset.mouseout"/>
                       </use>
               </g>
        </defs>

<script type="text/javascript">
var viewWidth = 2065;
var viewHeight = 367;
var sectionId = 'dynsection-0';
</script>
<script xlink:href="svgpan.js"/>
<svg id="graph" class="graph">
<g id="viewport">
<title>System.Collections.ObjectModel.Collection&lt; T &gt;</title>
<!-- Node0 -->
<g id="node1" class="node"><title>Node0</title>
<g id="a_node1"><a xlink:title="Provides the base class for a generic collection.">
<polygon fill="#bfbfbf" stroke="black" points="1186,-175 1186,-205 1319,-205 1319,-175 1186,-175"/>
<text text-anchor="start" x="1194" y="-193" font-family="Helvetica,sans-Serif" font-size="10.00">System.Collections.Object</text>
<text text-anchor="middle" x="1252.5" y="-182" font-family="Helvetica,sans-Serif" font-size="10.00">Model.Collection&lt; T &gt;</text>
</a>
</g>
</g>
<!-- Node14 -->
<g id="node15" class="node"><title>Node14</title>
<g id="a_node15"><a xlink:href="class_system_1_1_collections_1_1_object_model_1_1_collection.html" target="_top" xlink:title=" ">
<polygon fill="none" stroke="black" points="1495.5,-248 1495.5,-278 1645.5,-278 1645.5,-248 1495.5,-248"/>
<text text-anchor="start" x="1503.5" y="-266" font-family="Helvetica,sans-Serif" font-size="10.00">System.Collections.Object</text>
<text text-anchor="middle" x="1570.5" y="-255" font-family="Helvetica,sans-Serif" font-size="10.00">Model.Collection&lt; Assembly &gt;</text>
</a>
</g>
</g>
<!-- Node0&#45;&gt;Node14 -->
<g id="edge25" class="edge"><title>Node0&#45;&gt;Node14</title>
<path fill="none" stroke="orange" stroke-dasharray="5,2" d="M1290.73,-209.622C1304.88,-216.36 1321.37,-223.365 1337,-228 1388.76,-243.346 1449.09,-252.177 1495.32,-257.129"/>
<polygon fill="orange" stroke="orange" points="1291.86,-206.28 1281.34,-205.032 1288.79,-212.569 1291.86,-206.28"/>
<text text-anchor="middle" x="1400.5" y="-257" font-family="Helvetica,sans-Serif" font-size="10.00"> &lt; Assembly &gt;</text>
</g>
<!-- Node15 -->
<g id="node16" class="node"><title>Node15</title>
<g id="a_node16"><a xlink:href="class_system_1_1_collections_1_1_object_model_1_1_collection.html" target="_top" xlink:title=" ">
<polygon fill="none" stroke="black" points="1482,-187.5 1482,-228.5 1659,-228.5 1659,-187.5 1482,-187.5"/>
<text text-anchor="start" x="1490" y="-216.5" font-family="Helvetica,sans-Serif" font-size="10.00">System.Collections.Object</text>
<text text-anchor="start" x="1490" y="-205.5" font-family="Helvetica,sans-Serif" font-size="10.00">Model.Collection&lt; IEnumerable</text>
<text text-anchor="middle" x="1570.5" y="-194.5" font-family="Helvetica,sans-Serif" font-size="10.00">&lt; System.Security.Claims.Claim &gt; &gt;</text>
</a>
</g>
</g>
<!-- Node0&#45;&gt;Node15 -->
<g id="edge26" class="edge"><title>Node0&#45;&gt;Node15</title>
<path fill="none" stroke="orange" stroke-dasharray="5,2" d="M1329.54,-194.331C1375.41,-196.944 1434.02,-200.283 1481.83,-203.006"/>
<polygon fill="orange" stroke="orange" points="1329.54,-190.826 1319.36,-193.751 1329.14,-197.815 1329.54,-190.826"/>
<text text-anchor="start" x="1337" y="-216" font-family="Helvetica,sans-Serif" font-size="10.00"> &lt; IEnumerable&lt; System</text>
<text text-anchor="middle" x="1400.5" y="-205" font-family="Helvetica,sans-Serif" font-size="10.00">::Security::Claims::Claim &gt; &gt;</text>
</g>
<!-- Node16 -->
<g id="node17" class="node"><title>Node16</title>
<g id="a_node17"><a xlink:href="class_system_1_1_collections_1_1_object_model_1_1_collection.html" target="_top" xlink:title=" ">
<polygon fill="none" stroke="black" points="1504,-138 1504,-168 1637,-168 1637,-138 1504,-138"/>
<text text-anchor="start" x="1512" y="-156" font-family="Helvetica,sans-Serif" font-size="10.00">System.Collections.Object</text>
<text text-anchor="middle" x="1570.5" y="-145" font-family="Helvetica,sans-Serif" font-size="10.00">Model.Collection&lt; TItem &gt;</text>
</a>
</g>
</g>
<!-- Node0&#45;&gt;Node16 -->
<g id="edge27" class="edge"><title>Node0&#45;&gt;Node16</title>
<path fill="none" stroke="orange" stroke-dasharray="5,2" d="M1329.28,-180.913C1331.88,-180.604 1334.46,-180.299 1337,-180 1393.3,-173.36 1457.28,-165.939 1503.85,-160.56"/>
<polygon fill="orange" stroke="orange" points="1328.65,-177.462 1319.13,-182.117 1329.48,-184.414 1328.65,-177.462"/>
<text text-anchor="middle" x="1400.5" y="-183" font-family="Helvetica,sans-Serif" font-size="10.00"> &lt; TItem &gt;</text>
</g>
<!-- Node19 -->
<g id="node20" class="node"><title>Node19</title>
<g id="a_node20"><a xlink:href="class_system_1_1_collections_1_1_object_model_1_1_collection.html" target="_top" xlink:title=" ">
<polygon fill="none" stroke="black" points="1504,-89 1504,-119 1637,-119 1637,-89 1504,-89"/>
<text text-anchor="start" x="1512" y="-107" font-family="Helvetica,sans-Serif" font-size="10.00">System.Collections.Object</text>
<text text-anchor="middle" x="1570.5" y="-96" font-family="Helvetica,sans-Serif" font-size="10.00">Model.Collection&lt; string &gt;</text>
</a>
</g>
</g>
<!-- Node0&#45;&gt;Node19 -->
<g id="edge30" class="edge"><title>Node0&#45;&gt;Node19</title>
<path fill="none" stroke="orange" stroke-dasharray="5,2" d="M1290.4,-170.457C1304.66,-163.527 1321.29,-156.174 1337,-151 1391.95,-132.898 1456.62,-120.509 1503.78,-113.014"/>
<polygon fill="orange" stroke="orange" points="1288.81,-167.339 1281.42,-174.922 1291.93,-173.608 1288.81,-167.339"/>
<text text-anchor="middle" x="1400.5" y="-154" font-family="Helvetica,sans-Serif" font-size="10.00"> &lt; string &gt;</text>
</g>
<!-- Node1 -->
<g id="node2" class="node"><title>Node1</title>
<g id="a_node2"><a xlink:href="interface_system_1_1_collections_1_1_i_list.html" target="_top" xlink:title=" ">
<polygon fill="none" stroke="black" points="972,-204.5 972,-223.5 1030,-223.5 1030,-204.5 972,-204.5"/>
<text text-anchor="middle" x="1001" y="-211.5" font-family="Helvetica,sans-Serif" font-size="10.00">IList&lt; T &gt;</text>
</a>
</g>
</g>
<!-- Node1&#45;&gt;Node0 -->
<g id="edge1" class="edge"><title>Node1&#45;&gt;Node0</title>
<path fill="none" stroke="midnightblue" d="M1040.45,-210.302C1079.16,-206.578 1139.61,-200.763 1185.92,-196.309"/>
<polygon fill="midnightblue" stroke="midnightblue" points="1039.75,-206.852 1030.14,-211.294 1040.43,-213.82 1039.75,-206.852"/>
</g>
<!-- Node2 -->
<g id="node3" class="node"><title>Node2</title>
<g id="a_node3"><a xlink:href="interface_system_1_1_collections_1_1_i_list.html" target="_top" xlink:title="Represents a non&#45;generic collection of objects that can be individually accessed by index.">
<polygon fill="none" stroke="black" points="567,-208.5 567,-227.5 689,-227.5 689,-208.5 567,-208.5"/>
<text text-anchor="middle" x="628" y="-215.5" font-family="Helvetica,sans-Serif" font-size="10.00">System.Collections.IList</text>
</a>
</g>
</g>
<!-- Node2&#45;&gt;Node1 -->
<g id="edge2" class="edge"><title>Node2&#45;&gt;Node1</title>
<path fill="none" stroke="orange" stroke-dasharray="5,2" d="M699.056,-217.245C781.441,-216.356 914.251,-214.925 971.851,-214.303"/>
<polygon fill="orange" stroke="orange" points="698.982,-213.745 689.02,-217.353 699.057,-220.745 698.982,-213.745"/>
<text text-anchor="middle" x="752.5" y="-221" font-family="Helvetica,sans-Serif" font-size="10.00"> &lt; T &gt;</text>
</g>
<!-- Node3 -->
<g id="node4" class="node"><title>Node3</title>
<g id="a_node4"><a xlink:href="interface_system_1_1_collections_1_1_i_collection.html" target="_top" xlink:title="Defines size, enumerators, and synchronization methods for all nongeneric collections.">
<polygon fill="none" stroke="black" points="395.5,-246.5 395.5,-265.5 457.5,-265.5 457.5,-246.5 395.5,-246.5"/>
<text text-anchor="middle" x="426.5" y="-253.5" font-family="Helvetica,sans-Serif" font-size="10.00">ICollection</text>
</a>
</g>
</g>
<!-- Node3&#45;&gt;Node0 -->
<g id="edge15" class="edge"><title>Node3&#45;&gt;Node0</title>
<path fill="none" stroke="midnightblue" d="M467.799,-256C508.094,-256 571.837,-256 627,-256 627,-256 627,-256 1099.5,-256 1150.13,-256 1202.99,-224.805 1231.08,-205.308"/>
<polygon fill="midnightblue" stroke="midnightblue" points="467.58,-252.5 457.58,-256 467.58,-259.5 467.58,-252.5"/>
</g>
<!-- Node3&#45;&gt;Node2 -->
<g id="edge3" class="edge"><title>Node3&#45;&gt;Node2</title>
<path fill="none" stroke="midnightblue" d="M467.97,-248.291C499.454,-242.294 543.302,-233.942 576.984,-227.527"/>
<polygon fill="midnightblue" stroke="midnightblue" points="466.968,-244.919 457.8,-250.229 468.278,-251.796 466.968,-244.919"/>
</g>
<!-- Node9 -->
<g id="node10" class="node"><title>Node9</title>
<g id="a_node10"><a xlink:href="interface_system_1_1_collections_1_1_i_list.html" target="_top" xlink:title="Represents a non&#45;generic collection of objects that can be individually accessed by index.">
<polygon fill="none" stroke="black" points="610.5,-284.5 610.5,-303.5 645.5,-303.5 645.5,-284.5 610.5,-284.5"/>
<text text-anchor="middle" x="628" y="-291.5" font-family="Helvetica,sans-Serif" font-size="10.00">IList</text>
</a>
</g>
</g>
<!-- Node3&#45;&gt;Node9 -->
<g id="edge13" class="edge"><title>Node3&#45;&gt;Node9</title>
<path fill="none" stroke="midnightblue" d="M467.813,-263.679C511.497,-271.999 579.118,-284.88 610.258,-290.811"/>
<polygon fill="midnightblue" stroke="midnightblue" points="468.278,-260.204 457.8,-261.771 466.968,-267.081 468.278,-260.204"/>
</g>
<!-- Node4 -->
<g id="node5" class="node"><title>Node4</title>
<g id="a_node5"><a xlink:href="interface_system_1_1_collections_1_1_i_enumerable.html" target="_top" xlink:title="Exposes an enumerator, which supports a simple iteration over a non&#45;generic collection....">
<polygon fill="none" stroke="black" points="232.5,-208.5 232.5,-227.5 303.5,-227.5 303.5,-208.5 232.5,-208.5"/>
<text text-anchor="middle" x="268" y="-215.5" font-family="Helvetica,sans-Serif" font-size="10.00">IEnumerable</text>
</a>
</g>
</g>
<!-- Node4&#45;&gt;Node0 -->
<g id="edge11" class="edge"><title>Node4&#45;&gt;Node0</title>
<path fill="none" stroke="midnightblue" d="M276.527,-198.821C288.218,-171.864 313.483,-123.548 352,-101 421.233,-60.4705 451.277,-82 531.5,-82 531.5,-82 531.5,-82 1099.5,-82 1162.95,-82 1218.34,-145.308 1240.82,-174.983"/>
<polygon fill="midnightblue" stroke="midnightblue" points="273.187,-197.738 272.589,-208.316 279.653,-200.42 273.187,-197.738"/>
</g>
<!-- Node4&#45;&gt;Node2 -->
<g id="edge5" class="edge"><title>Node4&#45;&gt;Node2</title>
<path fill="none" stroke="midnightblue" d="M313.818,-218C377.781,-218 495.398,-218 566.872,-218"/>
<polygon fill="midnightblue" stroke="midnightblue" points="313.652,-214.5 303.652,-218 313.652,-221.5 313.652,-214.5"/>
</g>
<!-- Node4&#45;&gt;Node3 -->
<g id="edge4" class="edge"><title>Node4&#45;&gt;Node3</title>
<path fill="none" stroke="midnightblue" d="M313.785,-228.874C339.932,-235.223 372.222,-243.063 395.351,-248.68"/>
<polygon fill="midnightblue" stroke="midnightblue" points="314.276,-225.392 303.732,-226.433 312.624,-232.194 314.276,-225.392"/>
</g>
<!-- Node6 -->
<g id="node7" class="node"><title>Node6</title>
<g id="a_node7"><a xlink:href="interface_system_1_1_collections_1_1_i_collection.html" target="_top" xlink:title="Defines size, enumerators, and synchronization methods for all nongeneric collections.">
<polygon fill="none" stroke="black" points="352,-334.5 352,-353.5 501,-353.5 501,-334.5 352,-334.5"/>
<text text-anchor="middle" x="426.5" y="-341.5" font-family="Helvetica,sans-Serif" font-size="10.00">System.Collections.ICollection</text>
</a>
</g>
</g>
<!-- Node4&#45;&gt;Node6 -->
<g id="edge8" class="edge"><title>Node4&#45;&gt;Node6</title>
<path fill="none" stroke="midnightblue" d="M275.828,-236.996C285.137,-260.146 304.041,-298.79 333,-320 341.7,-326.372 351.945,-331.056 362.391,-334.497"/>
<polygon fill="midnightblue" stroke="midnightblue" points="279.064,-235.66 272.224,-227.568 272.526,-238.159 279.064,-235.66"/>
</g>
<!-- Node4&#45;&gt;Node9 -->
<g id="edge14" class="edge"><title>Node4&#45;&gt;Node9</title>
<path fill="none" stroke="midnightblue" d="M287.172,-234.567C303.036,-247.967 327.326,-266.031 352,-275 444.654,-308.679 566.261,-300.459 610.23,-295.963"/>
<polygon fill="midnightblue" stroke="midnightblue" points="289.115,-231.619 279.276,-227.69 284.518,-236.897 289.115,-231.619"/>
</g>
<!-- Node11 -->
<g id="node12" class="node"><title>Node11</title>
<g id="a_node12"><a xlink:href="interface_system_1_1_collections_1_1_generic_1_1_i_read_only_list.html" target="_top" xlink:title="Represents a read&#45;only collection of elements that can be accessed by index.">
<polygon fill="none" stroke="black" points="813,-111 813,-141 954,-141 954,-111 813,-111"/>
<text text-anchor="start" x="821" y="-129" font-family="Helvetica,sans-Serif" font-size="10.00">System.Collections.Generic.</text>
<text text-anchor="middle" x="883.5" y="-118" font-family="Helvetica,sans-Serif" font-size="10.00">IReadOnlyList&lt; out out T &gt;</text>
</a>
</g>
</g>
<!-- Node4&#45;&gt;Node11 -->
<g id="edge23" class="edge"><title>Node4&#45;&gt;Node11</title>
<path fill="none" stroke="midnightblue" d="M313.497,-212.423C404.258,-200.879 617.197,-172.929 795,-143 800.799,-142.024 806.804,-140.963 812.827,-139.864"/>
<polygon fill="midnightblue" stroke="midnightblue" points="313.037,-208.953 303.557,-213.684 313.918,-215.898 313.037,-208.953"/>
</g>
<!-- Node13 -->
<g id="node14" class="node"><title>Node13</title>
<g id="a_node14"><a xlink:href="interface_system_1_1_collections_1_1_generic_1_1_i_read_only_collection.html" target="_top" xlink:title="Represents a strongly&#45;typed, read&#45;only collection of elements.">
<polygon fill="none" stroke="black" points="356,-110.5 356,-151.5 497,-151.5 497,-110.5 356,-110.5"/>
<text text-anchor="start" x="364" y="-139.5" font-family="Helvetica,sans-Serif" font-size="10.00">System.Collections.Generic.</text>
<text text-anchor="start" x="364" y="-128.5" font-family="Helvetica,sans-Serif" font-size="10.00">IReadOnlyCollection&lt; out</text>
<text text-anchor="middle" x="426.5" y="-117.5" font-family="Helvetica,sans-Serif" font-size="10.00"> out T &gt;</text>
</a>
</g>
</g>
<!-- Node4&#45;&gt;Node13 -->
<g id="edge21" class="edge"><title>Node4&#45;&gt;Node13</title>
<path fill="none" stroke="midnightblue" d="M286.309,-201.35C298.584,-190.218 315.859,-175.86 333,-166 342.228,-160.692 352.411,-155.902 362.546,-151.69"/>
<polygon fill="midnightblue" stroke="midnightblue" points="283.615,-199.075 278.673,-208.446 288.381,-204.203 283.615,-199.075"/>
</g>
<!-- Node5 -->
<g id="node6" class="node"><title>Node5</title>
<g id="a_node6"><a xlink:href="interface_system_1_1_collections_1_1_i_collection.html" target="_top" xlink:title=" ">
<polygon fill="none" stroke="black" points="710,-329.5 710,-348.5 795,-348.5 795,-329.5 710,-329.5"/>
<text text-anchor="middle" x="752.5" y="-336.5" font-family="Helvetica,sans-Serif" font-size="10.00">ICollection&lt; T &gt;</text>
</a>
</g>
</g>
<!-- Node5&#45;&gt;Node0 -->
<g id="edge6" class="edge"><title>Node5&#45;&gt;Node0</title>
<path fill="none" stroke="midnightblue" d="M804.928,-348.379C887.451,-360.679 1051.93,-373.658 1168,-308 1209.28,-284.646 1235.12,-231.459 1245.82,-205.218"/>
<polygon fill="midnightblue" stroke="midnightblue" points="805.457,-344.919 795.04,-346.849 804.387,-351.837 805.457,-344.919"/>
</g>
<!-- Node6&#45;&gt;Node5 -->
<g id="edge7" class="edge"><title>Node6&#45;&gt;Node5</title>
<path fill="none" stroke="orange" stroke-dasharray="5,2" d="M511.063,-342.71C574.831,-341.726 659.973,-340.412 709.956,-339.641"/>
<polygon fill="orange" stroke="orange" points="510.965,-339.211 501.021,-342.865 511.073,-346.211 510.965,-339.211"/>
<text text-anchor="middle" x="532.5" y="-345" font-family="Helvetica,sans-Serif" font-size="10.00"> &lt; T &gt;</text>
</g>
<!-- Node7 -->
<g id="node8" class="node"><title>Node7</title>
<g id="a_node8"><a xlink:href="interface_system_1_1_collections_1_1_i_enumerable.html" target="_top" xlink:title=" ">
<polygon fill="none" stroke="black" points="221,-28.5 221,-47.5 315,-47.5 315,-28.5 221,-28.5"/>
<text text-anchor="middle" x="268" y="-35.5" font-family="Helvetica,sans-Serif" font-size="10.00">IEnumerable&lt; T &gt;</text>
</a>
</g>
</g>
<!-- Node7&#45;&gt;Node0 -->
<g id="edge9" class="edge"><title>Node7&#45;&gt;Node0</title>
<path fill="none" stroke="midnightblue" d="M302.498,-24.9658C333.806,-13.967 382.106,-0 425.5,-0 425.5,-0 425.5,-0 1099.5,-0 1188.84,-0 1234.31,-129.686 1247.42,-174.773"/>
<polygon fill="midnightblue" stroke="midnightblue" points="301.175,-21.7224 292.958,-28.411 303.553,-28.3062 301.175,-21.7224"/>
</g>
<!-- Node7&#45;&gt;Node11 -->
<g id="edge22" class="edge"><title>Node7&#45;&gt;Node11</title>
<path fill="none" stroke="midnightblue" d="M325.261,-43.0486C381.317,-48.3244 469.787,-57.3156 546,-68 638.611,-80.9833 744.861,-99.9892 812.774,-112.665"/>
<polygon fill="midnightblue" stroke="midnightblue" points="325.463,-39.5523 315.181,-42.1071 324.812,-46.522 325.463,-39.5523"/>
</g>
<!-- Node7&#45;&gt;Node13 -->
<g id="edge20" class="edge"><title>Node7&#45;&gt;Node13</title>
<path fill="none" stroke="midnightblue" d="M294.063,-52.8935C320.214,-68.4337 361.412,-92.9157 390.708,-110.325"/>
<polygon fill="midnightblue" stroke="midnightblue" points="295.543,-49.7021 285.159,-47.6024 291.967,-55.7198 295.543,-49.7021"/>
</g>
<!-- Node8 -->
<g id="node9" class="node"><title>Node8</title>
<g id="a_node9"><a xlink:href="interface_system_1_1_collections_1_1_i_enumerable.html" target="_top" xlink:title="Exposes an enumerator, which supports a simple iteration over a non&#45;generic collection....">
<polygon fill="none" stroke="black" points="0,-28.5 0,-47.5 158,-47.5 158,-28.5 0,-28.5"/>
<text text-anchor="middle" x="79" y="-35.5" font-family="Helvetica,sans-Serif" font-size="10.00">System.Collections.IEnumerable</text>
</a>
</g>
</g>
<!-- Node8&#45;&gt;Node7 -->
<g id="edge10" class="edge"><title>Node8&#45;&gt;Node7</title>
<path fill="none" stroke="orange" stroke-dasharray="5,2" d="M168.276,-38C186.456,-38 204.899,-38 220.847,-38"/>
<polygon fill="orange" stroke="orange" points="168.221,-34.5001 158.221,-38 168.221,-41.5001 168.221,-34.5001"/>
<text text-anchor="middle" x="189.5" y="-41" font-family="Helvetica,sans-Serif" font-size="10.00"> &lt; T &gt;</text>
</g>
<!-- Node9&#45;&gt;Node0 -->
<g id="edge12" class="edge"><title>Node9&#45;&gt;Node0</title>
<path fill="none" stroke="midnightblue" d="M655.682,-299.139C736.768,-313.47 985.854,-347.923 1168,-270 1200.12,-256.26 1227.15,-224.24 1241.17,-205.137"/>
<polygon fill="midnightblue" stroke="midnightblue" points="656.262,-295.687 645.798,-297.343 655.01,-302.575 656.262,-295.687"/>
</g>
<!-- Node10 -->
<g id="node11" class="node"><title>Node10</title>
<g id="a_node11"><a xlink:href="interface_system_1_1_collections_1_1_generic_1_1_i_read_only_list.html" target="_top" xlink:title=" ">
<polygon fill="none" stroke="black" points="1048,-120.5 1048,-139.5 1149,-139.5 1149,-120.5 1048,-120.5"/>
<text text-anchor="middle" x="1098.5" y="-127.5" font-family="Helvetica,sans-Serif" font-size="10.00">IReadOnlyList&lt; T &gt;</text>
</a>
</g>
</g>
<!-- Node10&#45;&gt;Node0 -->
<g id="edge16" class="edge"><title>Node10&#45;&gt;Node0</title>
<path fill="none" stroke="midnightblue" d="M1134.72,-143.185C1145.43,-147.242 1157.21,-151.758 1168,-156 1183.44,-162.073 1200.41,-168.946 1215,-174.915"/>
<polygon fill="midnightblue" stroke="midnightblue" points="1135.85,-139.867 1125.25,-139.609 1133.37,-146.416 1135.85,-139.867"/>
</g>
<!-- Node11&#45;&gt;Node10 -->
<g id="edge17" class="edge"><title>Node11&#45;&gt;Node10</title>
<path fill="none" stroke="orange" stroke-dasharray="5,2" d="M964.426,-127.501C992.427,-128.027 1023.05,-128.602 1047.85,-129.068"/>
<polygon fill="orange" stroke="orange" points="964.308,-123.998 954.244,-127.31 964.177,-130.997 964.308,-123.998"/>
<text text-anchor="middle" x="1001" y="-132" font-family="Helvetica,sans-Serif" font-size="10.00"> &lt; T &gt;</text>
</g>
<!-- Node12 -->
<g id="node13" class="node"><title>Node12</title>
<g id="a_node13"><a xlink:href="interface_system_1_1_collections_1_1_generic_1_1_i_read_only_collection.html" target="_top" xlink:title=" ">
<polygon fill="none" stroke="black" points="564,-121.5 564,-140.5 692,-140.5 692,-121.5 564,-121.5"/>
<text text-anchor="middle" x="628" y="-128.5" font-family="Helvetica,sans-Serif" font-size="10.00">IReadOnlyCollection&lt; T &gt;</text>
</a>
</g>
</g>
<!-- Node12&#45;&gt;Node0 -->
<g id="edge24" class="edge"><title>Node12&#45;&gt;Node0</title>
<path fill="none" stroke="midnightblue" d="M702.306,-140.158C704.902,-140.448 707.473,-140.73 710,-141 881.528,-159.344 1084.11,-176.468 1186,-184.766"/>
<polygon fill="midnightblue" stroke="midnightblue" points="702.542,-136.663 692.209,-139.005 701.748,-143.617 702.542,-136.663"/>
</g>
<!-- Node12&#45;&gt;Node11 -->
<g id="edge18" class="edge"><title>Node12&#45;&gt;Node11</title>
<path fill="none" stroke="midnightblue" d="M702.414,-129.552C737.211,-128.866 778.566,-128.05 812.866,-127.373"/>
<polygon fill="midnightblue" stroke="midnightblue" points="702.244,-126.055 692.315,-129.751 702.382,-133.053 702.244,-126.055"/>
</g>
<!-- Node13&#45;&gt;Node12 -->
<g id="edge19" class="edge"><title>Node13&#45;&gt;Node12</title>
<path fill="none" stroke="orange" stroke-dasharray="5,2" d="M507.315,-131C526.144,-131 545.961,-131 563.933,-131"/>
<polygon fill="orange" stroke="orange" points="507.275,-127.5 497.275,-131 507.275,-134.5 507.275,-127.5"/>
<text text-anchor="middle" x="532.5" y="-134" font-family="Helvetica,sans-Serif" font-size="10.00"> &lt; T &gt;</text>
</g>
<!-- Node17 -->
<g id="node18" class="node"><title>Node17</title>
<g id="a_node18"><a xlink:href="class_system_1_1_collections_1_1_object_model_1_1_keyed_collection.html" target="_top" xlink:title="Provides the abstract base class for a collection whose keys are embedded in the values.">
<polygon fill="none" stroke="black" points="1696,-132.5 1696,-173.5 1829,-173.5 1829,-132.5 1696,-132.5"/>
<text text-anchor="start" x="1704" y="-161.5" font-family="Helvetica,sans-Serif" font-size="10.00">System.Collections.Object</text>
<text text-anchor="start" x="1704" y="-150.5" font-family="Helvetica,sans-Serif" font-size="10.00">Model.KeyedCollection&lt;</text>
<text text-anchor="middle" x="1762.5" y="-139.5" font-family="Helvetica,sans-Serif" font-size="10.00"> TKey, TItem &gt;</text>
</a>
</g>
</g>
<!-- Node16&#45;&gt;Node17 -->
<g id="edge28" class="edge"><title>Node16&#45;&gt;Node17</title>
<path fill="none" stroke="midnightblue" d="M1647.54,-153C1663.53,-153 1680.27,-153 1695.84,-153"/>
<polygon fill="midnightblue" stroke="midnightblue" points="1647.15,-149.5 1637.15,-153 1647.15,-156.5 1647.15,-149.5"/>
</g>
<!-- Node18 -->
<g id="node19" class="node"><title>Node18</title>
<g id="a_node19"><a xlink:href="class_system_1_1_collections_1_1_object_model_1_1_keyed_collection.html" target="_top" xlink:title=" ">
<polygon fill="none" stroke="black" points="1905,-138 1905,-168 2057,-168 2057,-138 1905,-138"/>
<text text-anchor="start" x="1913" y="-156" font-family="Helvetica,sans-Serif" font-size="10.00">System.Collections.Object</text>
<text text-anchor="middle" x="1981" y="-145" font-family="Helvetica,sans-Serif" font-size="10.00">Model.KeyedCollection&lt; K, T &gt;</text>
</a>
</g>
</g>
<!-- Node17&#45;&gt;Node18 -->
<g id="edge29" class="edge"><title>Node17&#45;&gt;Node18</title>
<path fill="none" stroke="orange" stroke-dasharray="5,2" d="M1839.31,-153C1860.54,-153 1883.61,-153 1904.81,-153"/>
<polygon fill="orange" stroke="orange" points="1839.04,-149.5 1829.04,-153 1839.04,-156.5 1839.04,-149.5"/>
<text text-anchor="middle" x="1867" y="-156" font-family="Helvetica,sans-Serif" font-size="10.00"> &lt; K, T &gt;</text>
</g>
</g>
</svg>
        <g id="navigator" transform="translate(0 0)" fill="#404254">
                <rect fill="#f2f5e9" fill-opacity="0.5" stroke="#606060" stroke-width=".5" x="0" y="0" width="60" height="60"/>
                <use id="zoomplus" xlink:href="#zoomPlus" x="17" y="9" onmousedown="handleZoom(evt,'in')"/>
                <use id="zoomminus" xlink:href="#zoomMin" x="42" y="9" onmousedown="handleZoom(evt,'out')"/>
                <use id="reset" xlink:href="#resetDef" x="30" y="36" onmousedown="handleReset()"/>
                <g id="arrowUp" xlink:href="#dirArrow" transform="translate(30 24)" onmousedown="handlePan(0,-1)">
                  <use xlink:href="#rim" fill="#404040">
                        <set attributeName="fill" to="#808080" begin="arrowUp.mouseover" end="arrowUp.mouseout"/>
                  </use>
                  <path fill="none" stroke="white" stroke-width="1.5" d="M0,-3.0v7 M-2.5,-0.5L0,-3.0L2.5,-0.5"/>
                </g>
                <g id="arrowRight" xlink:href="#dirArrow" transform="rotate(90) translate(36 -43)" onmousedown="handlePan(1,0)">
                  <use xlink:href="#rim" fill="#404040">
                        <set attributeName="fill" to="#808080" begin="arrowRight.mouseover" end="arrowRight.mouseout"/>
                  </use>
                  <path fill="none" stroke="white" stroke-width="1.5" d="M0,-3.0v7 M-2.5,-0.5L0,-3.0L2.5,-0.5"/>
                </g>
                <g id="arrowDown" xlink:href="#dirArrow" transform="rotate(180) translate(-30 -48)" onmousedown="handlePan(0,1)">
                  <use xlink:href="#rim" fill="#404040">
                        <set attributeName="fill" to="#808080" begin="arrowDown.mouseover" end="arrowDown.mouseout"/>
                  </use>
                  <path fill="none" stroke="white" stroke-width="1.5" d="M0,-3.0v7 M-2.5,-0.5L0,-3.0L2.5,-0.5"/>
                </g>
                <g id="arrowLeft" xlink:href="#dirArrow" transform="rotate(270) translate(-36 17)" onmousedown="handlePan(-1,0)">
                  <use xlink:href="#rim" fill="#404040">
                        <set attributeName="fill" to="#808080" begin="arrowLeft.mouseover" end="arrowLeft.mouseout"/>
                  </use>
                  <path fill="none" stroke="white" stroke-width="1.5" d="M0,-3.0v7 M-2.5,-0.5L0,-3.0L2.5,-0.5"/>
                </g>
        </g>
        <svg viewBox="0 0 15 15" width="100%" height="30px" preserveAspectRatio="xMaxYMin meet">
         <g id="arrow_out" transform="scale(0.3 0.3)">
          <a xlink:href="class_system_1_1_collections_1_1_object_model_1_1_collection__inherit__graph_org.svg" target="_base">
           <rect id="button" ry="5" rx="5" y="6" x="6" height="38" width="38"
                fill="#f2f5e9" fill-opacity="0.5" stroke="#606060" stroke-width="1.0"/>
           <path id="arrow"
             d="M 11.500037,31.436501 C 11.940474,20.09759 22.043105,11.32322 32.158766,21.979434 L 37.068811,17.246167 C 37.068811,17.246167 37.088388,32 37.088388,32 L 22.160133,31.978069 C 22.160133,31.978069 26.997745,27.140456 26.997745,27.140456 C 18.528582,18.264221 13.291696,25.230495 11.500037,31.436501 z"
             style="fill:#404040;"/>
          </a>
         </g>
        </svg>
</svg>
