<?xml version="1.0" encoding="UTF-8" standalone="no"?>
<!DOCTYPE svg PUBLIC "-//W3C//DTD SVG 1.1//EN"
 "http://www.w3.org/Graphics/SVG/1.1/DTD/svg11.dtd">
<!-- Generated by graphviz version 2.38.0 (20140413.2041)
 -->
<!-- Title: System.Reflection.MethodInfo Pages: 1 -->
<svg width="296pt" height="196pt"
 viewBox="0.00 0.00 295.50 196.00" xmlns="http://www.w3.org/2000/svg" xmlns:xlink="http://www.w3.org/1999/xlink">
<g id="graph0" class="graph" transform="scale(1 1) rotate(0) translate(4 192)">
<title>System.Reflection.MethodInfo</title>
<!-- Node13 -->
<g id="node1" class="node"><title>Node13</title>
<g id="a_node1"><a xlink:title="Discovers the attributes of a method and provides access to method metadata.">
<polygon fill="#bfbfbf" stroke="black" points="136,-0.5 136,-19.5 282,-19.5 282,-0.5 136,-0.5"/>
<text text-anchor="middle" x="209" y="-7.5" font-family="Helvetica,sans-Serif" font-size="10.00">System.Reflection.MethodInfo</text>
</a>
</g>
</g>
<!-- Node14 -->
<g id="node2" class="node"><title>Node14</title>
<g id="a_node2"><a xlink:href="class_system_1_1_reflection_1_1_method_base.html" target="_top" xlink:title="Provides information about methods and constructors.">
<polygon fill="none" stroke="black" points="129.5,-56.5 129.5,-75.5 200.5,-75.5 200.5,-56.5 129.5,-56.5"/>
<text text-anchor="middle" x="165" y="-63.5" font-family="Helvetica,sans-Serif" font-size="10.00">MethodBase</text>
</a>
</g>
</g>
<!-- Node14&#45;&gt;Node13 -->
<g id="edge1" class="edge"><title>Node14&#45;&gt;Node13</title>
<path fill="none" stroke="midnightblue" d="M178.735,-48.144C186.401,-38.7357 195.633,-27.4046 201.869,-19.7511"/>
<polygon fill="midnightblue" stroke="midnightblue" points="175.869,-46.1198 172.266,-56.083 181.296,-50.5415 175.869,-46.1198"/>
</g>
<!-- Node15 -->
<g id="node3" class="node"><title>Node15</title>
<g id="a_node3"><a xlink:href="class_system_1_1_reflection_1_1_member_info.html" target="_top" xlink:title="Obtains information about the attributes of a member and provides access to member metadata.">
<polygon fill="none" stroke="black" points="86.5,-112.5 86.5,-131.5 153.5,-131.5 153.5,-112.5 86.5,-112.5"/>
<text text-anchor="middle" x="120" y="-119.5" font-family="Helvetica,sans-Serif" font-size="10.00">MemberInfo</text>
</a>
</g>
</g>
<!-- Node15&#45;&gt;Node14 -->
<g id="edge2" class="edge"><title>Node15&#45;&gt;Node14</title>
<path fill="none" stroke="midnightblue" d="M134.047,-104.144C141.887,-94.7357 151.329,-83.4046 157.707,-75.7511"/>
<polygon fill="midnightblue" stroke="midnightblue" points="131.144,-102.16 127.431,-112.083 136.521,-106.641 131.144,-102.16"/>
</g>
<!-- Node16 -->
<g id="node4" class="node"><title>Node16</title>
<g id="a_node4"><a xlink:href="interface_system_1_1_reflection_1_1_i_custom_attribute_provider.html" target="_top" xlink:title="Provides custom attributes for reflection objects that support them.">
<polygon fill="none" stroke="black" points="0,-168.5 0,-187.5 124,-187.5 124,-168.5 0,-168.5"/>
<text text-anchor="middle" x="62" y="-175.5" font-family="Helvetica,sans-Serif" font-size="10.00">ICustomAttributeProvider</text>
</a>
</g>
</g>
<!-- Node16&#45;&gt;Node15 -->
<g id="edge3" class="edge"><title>Node16&#45;&gt;Node15</title>
<path fill="none" stroke="midnightblue" d="M78.9131,-161.253C89.203,-151.673 101.966,-139.791 110.512,-131.834"/>
<polygon fill="midnightblue" stroke="midnightblue" points="76.2527,-158.948 71.3187,-168.324 81.0226,-164.071 76.2527,-158.948"/>
</g>
<!-- Node17 -->
<g id="node5" class="node"><title>Node17</title>
<g id="a_node5"><a xlink:href="interface_system_1_1_runtime_1_1_interop_services_1_1___member_info.html" target="_top" xlink:title="Exposes the public members of the T:System.Reflection.MemberInfo class to unmanaged code.">
<polygon fill="none" stroke="black" points="142,-168.5 142,-187.5 214,-187.5 214,-168.5 142,-168.5"/>
<text text-anchor="middle" x="178" y="-175.5" font-family="Helvetica,sans-Serif" font-size="10.00">_MemberInfo</text>
</a>
</g>
</g>
<!-- Node17&#45;&gt;Node15 -->
<g id="edge4" class="edge"><title>Node17&#45;&gt;Node15</title>
<path fill="none" stroke="midnightblue" d="M161.087,-161.253C150.797,-151.673 138.034,-139.791 129.488,-131.834"/>
<polygon fill="midnightblue" stroke="midnightblue" points="158.977,-164.071 168.681,-168.324 163.747,-158.948 158.977,-164.071"/>
</g>
<!-- Node18 -->
<g id="node6" class="node"><title>Node18</title>
<g id="a_node6"><a xlink:href="interface_system_1_1_runtime_1_1_interop_services_1_1___method_base.html" target="_top" xlink:title="Exposes the public members of the T:System.Reflection.MethodBase class to unmanaged code.">
<polygon fill="none" stroke="black" points="171.5,-112.5 171.5,-131.5 248.5,-131.5 248.5,-112.5 171.5,-112.5"/>
<text text-anchor="middle" x="210" y="-119.5" font-family="Helvetica,sans-Serif" font-size="10.00">_MethodBase</text>
</a>
</g>
</g>
<!-- Node18&#45;&gt;Node14 -->
<g id="edge5" class="edge"><title>Node18&#45;&gt;Node14</title>
<path fill="none" stroke="midnightblue" d="M195.953,-104.144C188.113,-94.7357 178.671,-83.4046 172.293,-75.7511"/>
<polygon fill="midnightblue" stroke="midnightblue" points="193.479,-106.641 202.569,-112.083 198.856,-102.16 193.479,-106.641"/>
</g>
<!-- Node19 -->
<g id="node7" class="node"><title>Node19</title>
<g id="a_node7"><a xlink:href="interface_system_1_1_runtime_1_1_interop_services_1_1___method_info.html" target="_top" xlink:title="Exposes the public members of the T:System.Reflection.MethodInfo class to unmanaged code.">
<polygon fill="none" stroke="black" points="218.5,-56.5 218.5,-75.5 287.5,-75.5 287.5,-56.5 218.5,-56.5"/>
<text text-anchor="middle" x="253" y="-63.5" font-family="Helvetica,sans-Serif" font-size="10.00">_MethodInfo</text>
</a>
</g>
</g>
<!-- Node19&#45;&gt;Node13 -->
<g id="edge6" class="edge"><title>Node19&#45;&gt;Node13</title>
<path fill="none" stroke="midnightblue" d="M239.265,-48.144C231.599,-38.7357 222.367,-27.4046 216.131,-19.7511"/>
<polygon fill="midnightblue" stroke="midnightblue" points="236.704,-50.5415 245.734,-56.083 242.131,-46.1198 236.704,-50.5415"/>
</g>
</g>
</svg>
