<?xml version="1.0" encoding="UTF-8" standalone="no"?>
<!DOCTYPE svg PUBLIC "-//W3C//DTD SVG 1.1//EN"
 "http://www.w3.org/Graphics/SVG/1.1/DTD/svg11.dtd">
<!-- Generated by graphviz version 2.38.0 (20140413.2041)
 -->
<!-- Title: System.Security.Cryptography.DeriveBytes Pages: 1 -->
<svg width="453pt" height="88pt"
 viewBox="0.00 0.00 453.00 88.00" xmlns="http://www.w3.org/2000/svg" xmlns:xlink="http://www.w3.org/1999/xlink">
<g id="graph0" class="graph" transform="scale(1 1) rotate(0) translate(4 84)">
<title>System.Security.Cryptography.DeriveBytes</title>
<!-- Node0 -->
<g id="node1" class="node"><title>Node0</title>
<g id="a_node1"><a xlink:title="Represents the abstract base class from which all classes that derive byte sequences of a specified l...">
<polygon fill="#bfbfbf" stroke="black" points="103,-24.5 103,-54.5 256,-54.5 256,-24.5 103,-24.5"/>
<text text-anchor="start" x="111" y="-42.5" font-family="Helvetica,sans-Serif" font-size="10.00">System.Security.Cryptography.</text>
<text text-anchor="middle" x="179.5" y="-31.5" font-family="Helvetica,sans-Serif" font-size="10.00">DeriveBytes</text>
</a>
</g>
</g>
<!-- Node2 -->
<g id="node3" class="node"><title>Node2</title>
<g id="a_node3"><a xlink:href="class_system_1_1_security_1_1_cryptography_1_1_password_derive_bytes.html" target="_top" xlink:title="Derives a key from a password using an extension of the PBKDF1 algorithm.">
<polygon fill="none" stroke="black" points="292,-49.5 292,-79.5 445,-79.5 445,-49.5 292,-49.5"/>
<text text-anchor="start" x="300" y="-67.5" font-family="Helvetica,sans-Serif" font-size="10.00">System.Security.Cryptography.</text>
<text text-anchor="middle" x="368.5" y="-56.5" font-family="Helvetica,sans-Serif" font-size="10.00">PasswordDeriveBytes</text>
</a>
</g>
</g>
<!-- Node0&#45;&gt;Node2 -->
<g id="edge2" class="edge"><title>Node0&#45;&gt;Node2</title>
<path fill="none" stroke="midnightblue" d="M266.018,-50.9329C274.585,-52.0782 283.241,-53.2354 291.697,-54.3659"/>
<polygon fill="midnightblue" stroke="midnightblue" points="266.397,-47.4525 256.021,-49.5964 265.469,-54.3907 266.397,-47.4525"/>
</g>
<!-- Node3 -->
<g id="node4" class="node"><title>Node3</title>
<g id="a_node4"><a xlink:href="class_system_1_1_security_1_1_cryptography_1_1_rfc2898_derive_bytes.html" target="_top" xlink:title="Implements password&#45;based key derivation functionality, PBKDF2, by using a pseudo&#45;random number gener...">
<polygon fill="none" stroke="black" points="292,-0.5 292,-30.5 445,-30.5 445,-0.5 292,-0.5"/>
<text text-anchor="start" x="300" y="-18.5" font-family="Helvetica,sans-Serif" font-size="10.00">System.Security.Cryptography.</text>
<text text-anchor="middle" x="368.5" y="-7.5" font-family="Helvetica,sans-Serif" font-size="10.00">Rfc2898DeriveBytes</text>
</a>
</g>
</g>
<!-- Node0&#45;&gt;Node3 -->
<g id="edge3" class="edge"><title>Node0&#45;&gt;Node3</title>
<path fill="none" stroke="midnightblue" d="M266.018,-28.5244C274.585,-27.425 283.241,-26.314 291.697,-25.2287"/>
<polygon fill="midnightblue" stroke="midnightblue" points="265.494,-25.0629 256.021,-29.8075 266.385,-32.0059 265.494,-25.0629"/>
</g>
<!-- Node1 -->
<g id="node2" class="node"><title>Node1</title>
<g id="a_node2"><a xlink:href="interface_system_1_1_i_disposable.html" target="_top" xlink:title="Provides a mechanism for releasing unmanaged resources.To browse the .NET Framework source code for t...">
<polygon fill="none" stroke="black" points="0,-30 0,-49 67,-49 67,-30 0,-30"/>
<text text-anchor="middle" x="33.5" y="-37" font-family="Helvetica,sans-Serif" font-size="10.00">IDisposable</text>
</a>
</g>
</g>
<!-- Node1&#45;&gt;Node0 -->
<g id="edge1" class="edge"><title>Node1&#45;&gt;Node0</title>
<path fill="none" stroke="midnightblue" d="M77.3832,-39.5C85.4367,-39.5 94.0747,-39.5 102.785,-39.5"/>
<polygon fill="midnightblue" stroke="midnightblue" points="77.1759,-36.0001 67.1758,-39.5 77.1758,-43.0001 77.1759,-36.0001"/>
</g>
</g>
</svg>
