<?xml version="1.0" encoding="UTF-8" standalone="no"?>
<!DOCTYPE svg PUBLIC "-//W3C//DTD SVG 1.1//EN"
 "http://www.w3.org/Graphics/SVG/1.1/DTD/svg11.dtd">
<!-- Generated by graphviz version 2.38.0 (20140413.2041)
 -->
<!-- Title: System.Xml.XmlAttribute Pages: 1 -->
<svg width="1245pt" height="271pt"
 viewBox="0.00 0.00 1245.00 271.00" xmlns="http://www.w3.org/2000/svg" xmlns:xlink="http://www.w3.org/1999/xlink">
<g id="graph0" class="graph" transform="scale(1 1) rotate(0) translate(4 267)">
<title>System.Xml.XmlAttribute</title>
<!-- Node5 -->
<g id="node1" class="node"><title>Node5</title>
<g id="a_node1"><a xlink:title="Represents an attribute. Valid and default values for the attribute are defined in a document type de...">
<polygon fill="#bfbfbf" stroke="black" points="1112,-159.5 1112,-178.5 1237,-178.5 1237,-159.5 1112,-159.5"/>
<text text-anchor="middle" x="1174.5" y="-166.5" font-family="Helvetica,sans-Serif" font-size="10.00">System.Xml.XmlAttribute</text>
</a>
</g>
</g>
<!-- Node6 -->
<g id="node2" class="node"><title>Node6</title>
<g id="a_node2"><a xlink:href="class_system_1_1_xml_1_1_xml_node.html" target="_top" xlink:title="Represents a single node in the XML document.">
<polygon fill="none" stroke="red" points="487,-92.5 487,-111.5 542,-111.5 542,-92.5 487,-92.5"/>
<text text-anchor="middle" x="514.5" y="-99.5" font-family="Helvetica,sans-Serif" font-size="10.00">XmlNode</text>
</a>
</g>
</g>
<!-- Node6&#45;&gt;Node5 -->
<g id="edge1" class="edge"><title>Node6&#45;&gt;Node5</title>
<path fill="none" stroke="midnightblue" d="M543.294,-115.947C566.602,-126.885 601.102,-141.335 633,-148 803.516,-183.63 1010.71,-178.651 1111.9,-173.206"/>
<polygon fill="midnightblue" stroke="midnightblue" points="544.56,-112.673 534.03,-111.507 541.535,-118.985 544.56,-112.673"/>
</g>
<!-- Node19 -->
<g id="node6" class="node"><title>Node19</title>
<g id="a_node6"><a xlink:href="class_system_1_1_xml_1_1_xml_document.html" target="_top" xlink:title="Represents an XML document. You can use this class to load, validate, edit, add, and position XML in ...">
<polygon fill="none" stroke="red" points="633,-90.5 633,-109.5 765,-109.5 765,-90.5 633,-90.5"/>
<text text-anchor="middle" x="699" y="-97.5" font-family="Helvetica,sans-Serif" font-size="10.00">System.Xml.XmlDocument</text>
</a>
</g>
</g>
<!-- Node6&#45;&gt;Node19 -->
<g id="edge9" class="edge"><title>Node6&#45;&gt;Node19</title>
<path fill="none" stroke="midnightblue" d="M552.088,-101.599C575.181,-101.346 605.671,-101.012 632.806,-100.714"/>
<polygon fill="midnightblue" stroke="midnightblue" points="551.998,-98.0997 542.037,-101.709 552.075,-105.099 551.998,-98.0997"/>
</g>
<!-- Node13 -->
<g id="node3" class="node"><title>Node13</title>
<g id="a_node3"><a xlink:href="interface_system_1_1_xml_1_1_schema_1_1_i_xml_schema_info.html" target="_top" xlink:title="Defines the post&#45;schema&#45;validation infoset of a validated XML node.">
<polygon fill="none" stroke="black" points="0,-59.5 0,-78.5 180,-78.5 180,-59.5 0,-59.5"/>
<text text-anchor="middle" x="90" y="-66.5" font-family="Helvetica,sans-Serif" font-size="10.00">System.Xml.Schema.IXmlSchemaInfo</text>
</a>
</g>
</g>
<!-- Node13&#45;&gt;Node5 -->
<g id="edge14" class="edge"><title>Node13&#45;&gt;Node5</title>
<path fill="none" stroke="#9a32cd" stroke-dasharray="5,2" d="M102.196,-87.312C132.1,-133.667 218.833,-252 325,-252 325,-252 325,-252 948,-252 1032.27,-252 1123.95,-200.323 1158.88,-178.521"/>
<polygon fill="#9a32cd" stroke="#9a32cd" points="104.985,-85.1733 96.691,-78.5812 99.0641,-88.9069 104.985,-85.1733"/>
<text text-anchor="middle" x="587.5" y="-255" font-family="Helvetica,sans-Serif" font-size="10.00"> SchemaInfo</text>
</g>
<!-- Node13&#45;&gt;Node6 -->
<g id="edge2" class="edge"><title>Node13&#45;&gt;Node6</title>
<path fill="none" stroke="#9a32cd" stroke-dasharray="5,2" d="M190.428,-66.038C246.551,-65.5357 317.882,-66.8532 381,-74 418.146,-78.206 460.262,-87.9885 486.846,-94.7981"/>
<polygon fill="#9a32cd" stroke="#9a32cd" points="190.091,-62.5414 180.131,-66.1519 190.169,-69.5409 190.091,-62.5414"/>
<text text-anchor="middle" x="326" y="-77" font-family="Helvetica,sans-Serif" font-size="10.00"> SchemaInfo</text>
</g>
<!-- Node16 -->
<g id="node4" class="node"><title>Node16</title>
<g id="a_node4"><a xlink:href="class_system_1_1_xml_1_1_xml_node.html" target="_top" xlink:title="Represents a single node in the XML document.">
<polygon fill="none" stroke="red" points="271,-94.5 271,-113.5 381,-113.5 381,-94.5 271,-94.5"/>
<text text-anchor="middle" x="326" y="-101.5" font-family="Helvetica,sans-Serif" font-size="10.00">System.Xml.XmlNode</text>
</a>
</g>
</g>
<!-- Node13&#45;&gt;Node16 -->
<g id="edge4" class="edge"><title>Node13&#45;&gt;Node16</title>
<path fill="none" stroke="#9a32cd" stroke-dasharray="5,2" d="M164.643,-80.015C199.071,-85.1645 239.333,-91.1865 270.901,-95.9082"/>
<polygon fill="#9a32cd" stroke="#9a32cd" points="165.04,-76.5355 154.632,-78.5177 164.005,-83.4585 165.04,-76.5355"/>
<text text-anchor="middle" x="225.5" y="-96" font-family="Helvetica,sans-Serif" font-size="10.00"> SchemaInfo</text>
</g>
<!-- Node17 -->
<g id="node5" class="node"><title>Node17</title>
<g id="a_node5"><a xlink:href="class_system_1_1_xml_1_1_xml_element.html" target="_top" xlink:title="Represents an element.">
<polygon fill="none" stroke="red" points="885,-60.5 885,-79.5 1009,-79.5 1009,-60.5 885,-60.5"/>
<text text-anchor="middle" x="947" y="-67.5" font-family="Helvetica,sans-Serif" font-size="10.00">System.Xml.XmlElement</text>
</a>
</g>
</g>
<!-- Node13&#45;&gt;Node17 -->
<g id="edge7" class="edge"><title>Node13&#45;&gt;Node17</title>
<path fill="none" stroke="#9a32cd" stroke-dasharray="5,2" d="M119.147,-54.9823C162.319,-34.812 247.985,-0 325,-0 325,-0 325,-0 700,-0 787.253,-0 885.497,-41.2423 926.451,-60.4136"/>
<polygon fill="#9a32cd" stroke="#9a32cd" points="117.381,-51.9468 109.856,-59.4058 120.39,-58.267 117.381,-51.9468"/>
<text text-anchor="middle" x="514.5" y="-3" font-family="Helvetica,sans-Serif" font-size="10.00"> SchemaInfo</text>
</g>
<!-- Node16&#45;&gt;Node5 -->
<g id="edge16" class="edge"><title>Node16&#45;&gt;Node5</title>
<path fill="none" stroke="#9a32cd" stroke-dasharray="5,2" d="M339.562,-121.634C352.586,-138.675 374.455,-164.045 399,-179 444.333,-206.621 460.415,-213 513.5,-213 513.5,-213 513.5,-213 948,-213 1019.4,-213 1101.2,-191.488 1143.95,-178.547"/>
<polygon fill="#9a32cd" stroke="#9a32cd" points="342.358,-119.528 333.59,-113.581 336.736,-123.698 342.358,-119.528"/>
<text text-anchor="middle" x="699" y="-216" font-family="Helvetica,sans-Serif" font-size="10.00"> ParentNode</text>
</g>
<!-- Node16&#45;&gt;Node6 -->
<g id="edge3" class="edge"><title>Node16&#45;&gt;Node6</title>
<path fill="none" stroke="#9a32cd" stroke-dasharray="5,2" d="M391.6,-103.307C424.287,-102.957 462.175,-102.55 486.925,-102.285"/>
<polygon fill="#9a32cd" stroke="#9a32cd" points="391.156,-99.8117 381.194,-103.419 391.231,-106.811 391.156,-99.8117"/>
<text text-anchor="middle" x="434" y="-151" font-family="Helvetica,sans-Serif" font-size="10.00"> PreviousSibling</text>
<text text-anchor="middle" x="434" y="-140" font-family="Helvetica,sans-Serif" font-size="10.00">FirstChild</text>
<text text-anchor="middle" x="434" y="-129" font-family="Helvetica,sans-Serif" font-size="10.00">LastChild</text>
<text text-anchor="middle" x="434" y="-118" font-family="Helvetica,sans-Serif" font-size="10.00">PreviousText</text>
<text text-anchor="middle" x="434" y="-107" font-family="Helvetica,sans-Serif" font-size="10.00">NextSibling</text>
</g>
<!-- Node16&#45;&gt;Node16 -->
<g id="edge5" class="edge"><title>Node16&#45;&gt;Node16</title>
<path fill="none" stroke="#9a32cd" stroke-dasharray="5,2" d="M307.482,-123.4C308.719,-128.315 314.892,-132 326,-132 343.773,-132 348.911,-122.565 341.413,-113.757"/>
<polygon fill="#9a32cd" stroke="#9a32cd" points="310.854,-124.349 310.587,-113.757 304.191,-122.203 310.854,-124.349"/>
<text text-anchor="middle" x="326" y="-179" font-family="Helvetica,sans-Serif" font-size="10.00"> PreviousSibling</text>
<text text-anchor="middle" x="326" y="-168" font-family="Helvetica,sans-Serif" font-size="10.00">FirstChild</text>
<text text-anchor="middle" x="326" y="-157" font-family="Helvetica,sans-Serif" font-size="10.00">LastChild</text>
<text text-anchor="middle" x="326" y="-146" font-family="Helvetica,sans-Serif" font-size="10.00">PreviousText</text>
<text text-anchor="middle" x="326" y="-135" font-family="Helvetica,sans-Serif" font-size="10.00">NextSibling</text>
</g>
<!-- Node16&#45;&gt;Node17 -->
<g id="edge13" class="edge"><title>Node16&#45;&gt;Node17</title>
<path fill="none" stroke="#9a32cd" stroke-dasharray="5,2" d="M391.391,-94.6577C420.539,-90.6585 455.458,-86.186 487,-83 618.219,-69.746 651.196,-66.6696 783,-62 820.31,-60.6782 829.714,-60.1169 867,-62 872.783,-62.292 878.794,-62.7036 884.804,-63.1876"/>
<polygon fill="#9a32cd" stroke="#9a32cd" points="390.763,-91.2112 381.337,-96.0496 391.723,-98.1451 390.763,-91.2112"/>
<text text-anchor="middle" x="587.5" y="-79" font-family="Helvetica,sans-Serif" font-size="10.00"> ParentNode</text>
</g>
<!-- Node16&#45;&gt;Node19 -->
<g id="edge12" class="edge"><title>Node16&#45;&gt;Node19</title>
<path fill="none" stroke="#9a32cd" stroke-dasharray="5,2" d="M342.578,-121.213C356.009,-134.676 376.712,-152.353 399,-160 502.663,-195.568 634.177,-134.386 680.724,-109.662"/>
<polygon fill="#9a32cd" stroke="#9a32cd" points="344.999,-118.68 335.554,-113.88 339.944,-123.523 344.999,-118.68"/>
<text text-anchor="middle" x="514.5" y="-173" font-family="Helvetica,sans-Serif" font-size="10.00"> ParentNode</text>
</g>
<!-- Node17&#45;&gt;Node5 -->
<g id="edge6" class="edge"><title>Node17&#45;&gt;Node5</title>
<path fill="none" stroke="#9a32cd" stroke-dasharray="5,2" d="M1019.01,-80.4588C1043.58,-85.7625 1070.76,-93.5877 1094,-105 1122.63,-119.06 1150.3,-144.989 1164.21,-159.145"/>
<polygon fill="#9a32cd" stroke="#9a32cd" points="1019.53,-76.9907 1009.03,-78.4074 1018.12,-83.8476 1019.53,-76.9907"/>
<text text-anchor="middle" x="1060.5" y="-108" font-family="Helvetica,sans-Serif" font-size="10.00"> OwnerElement</text>
</g>
<!-- Node17&#45;&gt;Node19 -->
<g id="edge10" class="edge"><title>Node17&#45;&gt;Node19</title>
<path fill="none" stroke="#9a32cd" stroke-dasharray="5,2" d="M875.167,-80.9112C872.411,-81.2877 869.681,-81.6521 867,-82 833.455,-86.3535 796.021,-90.4574 765.11,-93.6441"/>
<polygon fill="#9a32cd" stroke="#9a32cd" points="875.805,-84.3561 885.224,-79.5036 874.835,-77.4237 875.805,-84.3561"/>
<text text-anchor="middle" x="825" y="-95" font-family="Helvetica,sans-Serif" font-size="10.00"> DocumentElement</text>
</g>
<!-- Node19&#45;&gt;Node5 -->
<g id="edge15" class="edge"><title>Node19&#45;&gt;Node5</title>
<path fill="none" stroke="#9a32cd" stroke-dasharray="5,2" d="M775.684,-109.751C855.095,-120.173 983.496,-137.563 1094,-155 1102.72,-156.376 1111.96,-157.923 1120.95,-159.473"/>
<polygon fill="#9a32cd" stroke="#9a32cd" points="775.66,-106.218 765.29,-108.39 774.751,-113.159 775.66,-106.218"/>
<text text-anchor="middle" x="947" y="-144" font-family="Helvetica,sans-Serif" font-size="10.00"> OwnerDocument</text>
</g>
<!-- Node19&#45;&gt;Node17 -->
<g id="edge8" class="edge"><title>Node19&#45;&gt;Node17</title>
<path fill="none" stroke="#9a32cd" stroke-dasharray="5,2" d="M730.513,-86.6226C745.926,-80.5712 765.109,-74.092 783,-71 816.323,-65.2408 854.054,-64.6405 884.816,-65.6376"/>
<polygon fill="#9a32cd" stroke="#9a32cd" points="728.926,-83.4894 720.98,-90.4976 731.562,-89.9741 728.926,-83.4894"/>
<text text-anchor="middle" x="825" y="-74" font-family="Helvetica,sans-Serif" font-size="10.00"> OwnerDocument</text>
</g>
<!-- Node19&#45;&gt;Node19 -->
<g id="edge11" class="edge"><title>Node19&#45;&gt;Node19</title>
<path fill="none" stroke="#9a32cd" stroke-dasharray="5,2" d="M678.631,-119.4C679.991,-124.315 686.781,-128 699,-128 718.551,-128 724.202,-118.565 715.954,-109.757"/>
<polygon fill="#9a32cd" stroke="#9a32cd" points="682.007,-120.352 682.046,-109.757 675.408,-118.015 682.007,-120.352"/>
<text text-anchor="middle" x="699" y="-131" font-family="Helvetica,sans-Serif" font-size="10.00"> OwnerDocument</text>
</g>
</g>
</svg>
