<?xml version="1.0" encoding="UTF-8" standalone="no"?>
<!DOCTYPE svg PUBLIC "-//W3C//DTD SVG 1.1//EN"
 "http://www.w3.org/Graphics/SVG/1.1/DTD/svg11.dtd">
<!-- Generated by graphviz version 2.38.0 (20140413.2041)
 -->
<!-- Title: System.Xml.Schema.XmlSchemaGroupBase Pages: 1 -->
<svg width="518pt" height="127pt"
 viewBox="0.00 0.00 518.00 126.50" xmlns="http://www.w3.org/2000/svg" xmlns:xlink="http://www.w3.org/1999/xlink">
<g id="graph0" class="graph" transform="scale(1 1) rotate(0) translate(4 122.5)">
<title>System.Xml.Schema.XmlSchemaGroupBase</title>
<!-- Node0 -->
<g id="node1" class="node"><title>Node0</title>
<g id="a_node1"><a xlink:title="An abstract class for T:System.Xml.Schema.XmlSchemaAll, T:System.Xml.Schema.XmlSchemaChoice,...">
<polygon fill="#bfbfbf" stroke="black" points="137,-49.5 137,-79.5 300,-79.5 300,-49.5 137,-49.5"/>
<text text-anchor="start" x="145" y="-67.5" font-family="Helvetica,sans-Serif" font-size="10.00">System.Xml.Schema.XmlSchema</text>
<text text-anchor="middle" x="218.5" y="-56.5" font-family="Helvetica,sans-Serif" font-size="10.00">GroupBase</text>
</a>
</g>
</g>
<!-- Node4 -->
<g id="node3" class="node"><title>Node4</title>
<g id="a_node3"><a xlink:href="class_system_1_1_xml_1_1_schema_1_1_xml_schema_all.html" target="_top" xlink:title="Represents the World Wide Web Consortium (W3C) all element (compositor).">
<polygon fill="none" stroke="black" points="336,-99 336,-118 510,-118 510,-99 336,-99"/>
<text text-anchor="middle" x="423" y="-106" font-family="Helvetica,sans-Serif" font-size="10.00">System.Xml.Schema.XmlSchemaAll</text>
</a>
</g>
</g>
<!-- Node0&#45;&gt;Node4 -->
<g id="edge2" class="edge"><title>Node0&#45;&gt;Node4</title>
<path fill="none" stroke="midnightblue" d="M298.492,-81.6637C325.596,-87.553 354.94,-93.9288 378.221,-98.9876"/>
<polygon fill="midnightblue" stroke="midnightblue" points="299.138,-78.2224 288.623,-79.5192 297.651,-85.0628 299.138,-78.2224"/>
</g>
<!-- Node5 -->
<g id="node4" class="node"><title>Node5</title>
<g id="a_node4"><a xlink:href="class_system_1_1_xml_1_1_schema_1_1_xml_schema_choice.html" target="_top" xlink:title="Represents the choice element (compositor) from the XML Schema as specified by the World Wide Web Con...">
<polygon fill="none" stroke="black" points="341.5,-49.5 341.5,-79.5 504.5,-79.5 504.5,-49.5 341.5,-49.5"/>
<text text-anchor="start" x="349.5" y="-67.5" font-family="Helvetica,sans-Serif" font-size="10.00">System.Xml.Schema.XmlSchema</text>
<text text-anchor="middle" x="423" y="-56.5" font-family="Helvetica,sans-Serif" font-size="10.00">Choice</text>
</a>
</g>
</g>
<!-- Node0&#45;&gt;Node5 -->
<g id="edge3" class="edge"><title>Node0&#45;&gt;Node5</title>
<path fill="none" stroke="midnightblue" d="M310.371,-64.5C320.69,-64.5 331.156,-64.5 341.331,-64.5"/>
<polygon fill="midnightblue" stroke="midnightblue" points="310.115,-61.0001 300.115,-64.5 310.115,-68.0001 310.115,-61.0001"/>
</g>
<!-- Node6 -->
<g id="node5" class="node"><title>Node6</title>
<g id="a_node5"><a xlink:href="class_system_1_1_xml_1_1_schema_1_1_xml_schema_sequence.html" target="_top" xlink:title="Represents the sequence element (compositor) from the XML Schema as specified by the World Wide Web C...">
<polygon fill="none" stroke="black" points="341.5,-0.5 341.5,-30.5 504.5,-30.5 504.5,-0.5 341.5,-0.5"/>
<text text-anchor="start" x="349.5" y="-18.5" font-family="Helvetica,sans-Serif" font-size="10.00">System.Xml.Schema.XmlSchema</text>
<text text-anchor="middle" x="423" y="-7.5" font-family="Helvetica,sans-Serif" font-size="10.00">Sequence</text>
</a>
</g>
</g>
<!-- Node0&#45;&gt;Node6 -->
<g id="edge4" class="edge"><title>Node0&#45;&gt;Node6</title>
<path fill="none" stroke="midnightblue" d="M291.424,-47.0962C313.825,-41.6757 338.322,-35.748 359.985,-30.5062"/>
<polygon fill="midnightblue" stroke="midnightblue" points="290.529,-43.7116 281.633,-49.4654 292.176,-50.5153 290.529,-43.7116"/>
</g>
<!-- Node1 -->
<g id="node2" class="node"><title>Node1</title>
<g id="a_node2"><a xlink:href="class_system_1_1_xml_1_1_schema_1_1_xml_schema_particle.html" target="_top" xlink:title="Abstract class for that is the base class for all particle types (e.g. T:System.Xml....">
<polygon fill="none" stroke="red" points="0,-55 0,-74 101,-74 101,-55 0,-55"/>
<text text-anchor="middle" x="50.5" y="-62" font-family="Helvetica,sans-Serif" font-size="10.00">XmlSchemaParticle</text>
</a>
</g>
</g>
<!-- Node1&#45;&gt;Node0 -->
<g id="edge1" class="edge"><title>Node1&#45;&gt;Node0</title>
<path fill="none" stroke="midnightblue" d="M111.573,-64.5C119.84,-64.5 128.435,-64.5 136.996,-64.5"/>
<polygon fill="midnightblue" stroke="midnightblue" points="111.306,-61.0001 101.305,-64.5 111.305,-68.0001 111.306,-61.0001"/>
</g>
</g>
</svg>
