<?xml version="1.0" encoding="UTF-8" standalone="no"?>
<!DOCTYPE svg PUBLIC "-//W3C//DTD SVG 1.1//EN"
 "http://www.w3.org/Graphics/SVG/1.1/DTD/svg11.dtd">
<!-- Generated by graphviz version 2.38.0 (20140413.2041)
 -->
<!-- Title: System.Xml.Schema.XmlSchemaException Pages: 1 -->
<svg width="284pt" height="117pt"
 viewBox="0.00 0.00 283.50 117.00" xmlns="http://www.w3.org/2000/svg" xmlns:xlink="http://www.w3.org/1999/xlink">
<g id="graph0" class="graph" transform="scale(1 1) rotate(0) translate(4 113)">
<title>System.Xml.Schema.XmlSchemaException</title>
<!-- Node7 -->
<g id="node1" class="node"><title>Node7</title>
<g id="a_node1"><a xlink:title="Returns detailed information about the schema exception.">
<polygon fill="#bfbfbf" stroke="black" points="38.5,-0.5 38.5,-30.5 201.5,-30.5 201.5,-0.5 38.5,-0.5"/>
<text text-anchor="start" x="46.5" y="-18.5" font-family="Helvetica,sans-Serif" font-size="10.00">System.Xml.Schema.XmlSchema</text>
<text text-anchor="middle" x="120" y="-7.5" font-family="Helvetica,sans-Serif" font-size="10.00">Exception</text>
</a>
</g>
</g>
<!-- Node8 -->
<g id="node2" class="node"><title>Node8</title>
<g id="a_node2"><a xlink:href="class_system_1_1_system_exception.html" target="_top" xlink:title="Serves as the base class for system exceptions namespace.">
<polygon fill="none" stroke="red" points="0,-84 0,-103 94,-103 94,-84 0,-84"/>
<text text-anchor="middle" x="47" y="-91" font-family="Helvetica,sans-Serif" font-size="10.00">SystemException</text>
</a>
</g>
</g>
<!-- Node8&#45;&gt;Node7 -->
<g id="edge1" class="edge"><title>Node8&#45;&gt;Node7</title>
<path fill="none" stroke="midnightblue" d="M62.3456,-76.5238C75.421,-62.911 94.0276,-43.5398 106.534,-30.5198"/>
<polygon fill="midnightblue" stroke="midnightblue" points="59.7772,-74.1453 55.374,-83.7818 64.8256,-78.9944 59.7772,-74.1453"/>
</g>
<!-- Node12 -->
<g id="node3" class="node"><title>Node12</title>
<g id="a_node3"><a xlink:href="class_system_1_1_xml_1_1_schema_1_1_xml_schema_object.html" target="_top" xlink:title="Represents the root class for the Xml schema object model hierarchy and serves as a base class for cl...">
<polygon fill="none" stroke="black" points="112.5,-78.5 112.5,-108.5 275.5,-108.5 275.5,-78.5 112.5,-78.5"/>
<text text-anchor="start" x="120.5" y="-96.5" font-family="Helvetica,sans-Serif" font-size="10.00">System.Xml.Schema.XmlSchema</text>
<text text-anchor="middle" x="194" y="-85.5" font-family="Helvetica,sans-Serif" font-size="10.00">Object</text>
</a>
</g>
</g>
<!-- Node12&#45;&gt;Node7 -->
<g id="edge2" class="edge"><title>Node12&#45;&gt;Node7</title>
<path fill="none" stroke="#9a32cd" stroke-dasharray="5,2" d="M173.098,-71.0332C160.536,-58.1316 144.899,-42.0716 133.856,-30.7309"/>
<polygon fill="#9a32cd" stroke="#9a32cd" points="170.597,-73.4819 180.081,-78.205 175.613,-68.5986 170.597,-73.4819"/>
<text text-anchor="middle" x="211.5" y="-52" font-family="Helvetica,sans-Serif" font-size="10.00"> SourceSchemaObject</text>
</g>
</g>
</svg>
