<?xml version="1.0" encoding="UTF-8" standalone="no"?>
<!DOCTYPE svg PUBLIC "-//W3C//DTD SVG 1.1//EN"
 "http://www.w3.org/Graphics/SVG/1.1/DTD/svg11.dtd">
<!-- Generated by graphviz version 2.38.0 (20140413.2041)
 -->
<!-- Title: System.Globalization.CultureInfo Pages: 1 -->
<svg width="175pt" height="84pt"
 viewBox="0.00 0.00 175.00 84.00" xmlns="http://www.w3.org/2000/svg" xmlns:xlink="http://www.w3.org/1999/xlink">
<g id="graph0" class="graph" transform="scale(1 1) rotate(0) translate(4 80)">
<title>System.Globalization.CultureInfo</title>
<!-- Node3 -->
<g id="node1" class="node"><title>Node3</title>
<g id="a_node1"><a xlink:title="Provides information about a specific culture (called a locale for unmanaged code development)....">
<polygon fill="#bfbfbf" stroke="black" points="0,-0.5 0,-19.5 158,-19.5 158,-0.5 0,-0.5"/>
<text text-anchor="middle" x="79" y="-7.5" font-family="Helvetica,sans-Serif" font-size="10.00">System.Globalization.CultureInfo</text>
</a>
</g>
</g>
<!-- Node4 -->
<g id="node2" class="node"><title>Node4</title>
<g id="a_node2"><a xlink:href="interface_system_1_1_i_cloneable.html" target="_top" xlink:title="Supports cloning, which creates a new instance of a class with the same value as an existing instance...">
<polygon fill="none" stroke="black" points="3,-56.5 3,-75.5 65,-75.5 65,-56.5 3,-56.5"/>
<text text-anchor="middle" x="34" y="-63.5" font-family="Helvetica,sans-Serif" font-size="10.00">ICloneable</text>
</a>
</g>
</g>
<!-- Node4&#45;&gt;Node3 -->
<g id="edge1" class="edge"><title>Node4&#45;&gt;Node3</title>
<path fill="none" stroke="midnightblue" d="M48.0467,-48.144C55.8869,-38.7357 65.3295,-27.4046 71.7074,-19.7511"/>
<polygon fill="midnightblue" stroke="midnightblue" points="45.1439,-46.1601 41.4308,-56.083 50.5215,-50.6414 45.1439,-46.1601"/>
</g>
<!-- Node5 -->
<g id="node3" class="node"><title>Node5</title>
<g id="a_node3"><a xlink:href="interface_system_1_1_i_format_provider.html" target="_top" xlink:title="Provides a mechanism for retrieving an object to control formatting.">
<polygon fill="none" stroke="black" points="83,-56.5 83,-75.5 167,-75.5 167,-56.5 83,-56.5"/>
<text text-anchor="middle" x="125" y="-63.5" font-family="Helvetica,sans-Serif" font-size="10.00">IFormatProvider</text>
</a>
</g>
</g>
<!-- Node5&#45;&gt;Node3 -->
<g id="edge2" class="edge"><title>Node5&#45;&gt;Node3</title>
<path fill="none" stroke="midnightblue" d="M110.886,-48.4314C102.824,-38.9673 93.0408,-27.4827 86.4546,-19.7511"/>
<polygon fill="midnightblue" stroke="midnightblue" points="108.255,-50.7402 117.404,-56.083 113.584,-46.2009 108.255,-50.7402"/>
</g>
</g>
</svg>
