<?xml version="1.0" encoding="UTF-8" standalone="no"?>
<!DOCTYPE svg PUBLIC "-//W3C//DTD SVG 1.1//EN"
 "http://www.w3.org/Graphics/SVG/1.1/DTD/svg11.dtd">
<!-- Generated by graphviz version 2.38.0 (20140413.2041)
 -->
<!-- Title: System.Security.Cryptography.HMAC Pages: 1 -->
<svg width="868pt" height="284pt"
 viewBox="0.00 0.00 868.00 284.00" xmlns="http://www.w3.org/2000/svg" xmlns:xlink="http://www.w3.org/1999/xlink">
<g id="graph0" class="graph" transform="scale(1 1) rotate(0) translate(4 280)">
<title>System.Security.Cryptography.HMAC</title>
<!-- Node0 -->
<g id="node1" class="node"><title>Node0</title>
<g id="a_node1"><a xlink:title="Represents the abstract class from which all implementations of Hash&#45;based Message Authentication Cod...">
<polygon fill="#bfbfbf" stroke="black" points="489,-128 489,-147 671,-147 671,-128 489,-128"/>
<text text-anchor="middle" x="580" y="-135" font-family="Helvetica,sans-Serif" font-size="10.00">System.Security.Cryptography.HMAC</text>
</a>
</g>
</g>
<!-- Node5 -->
<g id="node6" class="node"><title>Node5</title>
<g id="a_node6"><a xlink:href="class_system_1_1_security_1_1_cryptography_1_1_h_m_a_c_m_d5.html" target="_top" xlink:title="Computes a Hash&#45;based Message Authentication Code (HMAC) by using the T:System.Security....">
<polygon fill="none" stroke="black" points="707,-245.5 707,-275.5 860,-275.5 860,-245.5 707,-245.5"/>
<text text-anchor="start" x="715" y="-263.5" font-family="Helvetica,sans-Serif" font-size="10.00">System.Security.Cryptography.</text>
<text text-anchor="middle" x="783.5" y="-252.5" font-family="Helvetica,sans-Serif" font-size="10.00">HMACMD5</text>
</a>
</g>
</g>
<!-- Node0&#45;&gt;Node5 -->
<g id="edge6" class="edge"><title>Node0&#45;&gt;Node5</title>
<path fill="none" stroke="midnightblue" d="M597.809,-153.999C620.731,-175.681 663.892,-213.68 707,-236.5 713.321,-239.846 720.189,-242.823 727.121,-245.443"/>
<polygon fill="midnightblue" stroke="midnightblue" points="600.217,-151.459 590.578,-147.061 595.371,-156.51 600.217,-151.459"/>
</g>
<!-- Node6 -->
<g id="node7" class="node"><title>Node6</title>
<g id="a_node7"><a xlink:href="class_system_1_1_security_1_1_cryptography_1_1_h_m_a_c_r_i_p_e_m_d160.html" target="_top" xlink:title="Computes a Hash&#45;based Message Authentication Code (HMAC) by using the T:System.Security....">
<polygon fill="none" stroke="black" points="707,-196.5 707,-226.5 860,-226.5 860,-196.5 707,-196.5"/>
<text text-anchor="start" x="715" y="-214.5" font-family="Helvetica,sans-Serif" font-size="10.00">System.Security.Cryptography.</text>
<text text-anchor="middle" x="783.5" y="-203.5" font-family="Helvetica,sans-Serif" font-size="10.00">HMACRIPEMD160</text>
</a>
</g>
</g>
<!-- Node0&#45;&gt;Node6 -->
<g id="edge7" class="edge"><title>Node0&#45;&gt;Node6</title>
<path fill="none" stroke="midnightblue" d="M613.049,-150.937C638.375,-161.38 674.713,-175.978 707,-187.5 715.42,-190.505 724.432,-193.531 733.191,-196.374"/>
<polygon fill="midnightblue" stroke="midnightblue" points="614.159,-147.608 603.581,-147.015 611.48,-154.075 614.159,-147.608"/>
</g>
<!-- Node7 -->
<g id="node8" class="node"><title>Node7</title>
<g id="a_node8"><a xlink:href="class_system_1_1_security_1_1_cryptography_1_1_h_m_a_c_s_h_a1.html" target="_top" xlink:title="Computes a Hash&#45;based Message Authentication Code (HMAC) using the T:System.Security....">
<polygon fill="none" stroke="black" points="707,-147.5 707,-177.5 860,-177.5 860,-147.5 707,-147.5"/>
<text text-anchor="start" x="715" y="-165.5" font-family="Helvetica,sans-Serif" font-size="10.00">System.Security.Cryptography.</text>
<text text-anchor="middle" x="783.5" y="-154.5" font-family="Helvetica,sans-Serif" font-size="10.00">HMACSHA1</text>
</a>
</g>
</g>
<!-- Node0&#45;&gt;Node7 -->
<g id="edge8" class="edge"><title>Node0&#45;&gt;Node7</title>
<path fill="none" stroke="midnightblue" d="M668.058,-148.301C681.01,-149.908 694.27,-151.553 706.959,-153.128"/>
<polygon fill="midnightblue" stroke="midnightblue" points="668.108,-144.781 657.753,-147.023 667.246,-151.727 668.108,-144.781"/>
</g>
<!-- Node8 -->
<g id="node9" class="node"><title>Node8</title>
<g id="a_node9"><a xlink:href="class_system_1_1_security_1_1_cryptography_1_1_h_m_a_c_s_h_a256.html" target="_top" xlink:title="Computes a Hash&#45;based Message Authentication Code (HMAC) by using the T:System.Security....">
<polygon fill="none" stroke="black" points="707,-98.5 707,-128.5 860,-128.5 860,-98.5 707,-98.5"/>
<text text-anchor="start" x="715" y="-116.5" font-family="Helvetica,sans-Serif" font-size="10.00">System.Security.Cryptography.</text>
<text text-anchor="middle" x="783.5" y="-105.5" font-family="Helvetica,sans-Serif" font-size="10.00">HMACSHA256</text>
</a>
</g>
</g>
<!-- Node0&#45;&gt;Node8 -->
<g id="edge9" class="edge"><title>Node0&#45;&gt;Node8</title>
<path fill="none" stroke="midnightblue" d="M670.958,-126.785C682.974,-125.354 695.198,-123.898 706.935,-122.5"/>
<polygon fill="midnightblue" stroke="midnightblue" points="670.443,-123.322 660.928,-127.98 671.271,-130.273 670.443,-123.322"/>
</g>
<!-- Node9 -->
<g id="node10" class="node"><title>Node9</title>
<g id="a_node10"><a xlink:href="class_system_1_1_security_1_1_cryptography_1_1_h_m_a_c_s_h_a384.html" target="_top" xlink:title="Computes a Hash&#45;based Message Authentication Code (HMAC) using the T:System.Security....">
<polygon fill="none" stroke="black" points="707,-49.5 707,-79.5 860,-79.5 860,-49.5 707,-49.5"/>
<text text-anchor="start" x="715" y="-67.5" font-family="Helvetica,sans-Serif" font-size="10.00">System.Security.Cryptography.</text>
<text text-anchor="middle" x="783.5" y="-56.5" font-family="Helvetica,sans-Serif" font-size="10.00">HMACSHA384</text>
</a>
</g>
</g>
<!-- Node0&#45;&gt;Node9 -->
<g id="edge10" class="edge"><title>Node0&#45;&gt;Node9</title>
<path fill="none" stroke="midnightblue" d="M614.002,-124.008C639.296,-113.828 675.152,-99.7421 707,-88.5 715.56,-85.4784 724.724,-82.4196 733.613,-79.5437"/>
<polygon fill="midnightblue" stroke="midnightblue" points="612.481,-120.848 604.521,-127.84 615.104,-127.338 612.481,-120.848"/>
</g>
<!-- Node10 -->
<g id="node11" class="node"><title>Node10</title>
<g id="a_node11"><a xlink:href="class_system_1_1_security_1_1_cryptography_1_1_h_m_a_c_s_h_a512.html" target="_top" xlink:title="Computes a Hash&#45;based Message Authentication Code (HMAC) using the T:System.Security....">
<polygon fill="none" stroke="black" points="707,-0.5 707,-30.5 860,-30.5 860,-0.5 707,-0.5"/>
<text text-anchor="start" x="715" y="-18.5" font-family="Helvetica,sans-Serif" font-size="10.00">System.Security.Cryptography.</text>
<text text-anchor="middle" x="783.5" y="-7.5" font-family="Helvetica,sans-Serif" font-size="10.00">HMACSHA512</text>
</a>
</g>
</g>
<!-- Node0&#45;&gt;Node10 -->
<g id="edge11" class="edge"><title>Node0&#45;&gt;Node10</title>
<path fill="none" stroke="midnightblue" d="M598.194,-120.849C621.241,-99.3446 664.221,-62.0114 707,-39.5 713.329,-36.1694 720.202,-33.2016 727.137,-30.5866"/>
<polygon fill="midnightblue" stroke="midnightblue" points="595.765,-118.33 590.907,-127.746 600.576,-123.414 595.765,-118.33"/>
</g>
<!-- Node1 -->
<g id="node2" class="node"><title>Node1</title>
<g id="a_node2"><a xlink:href="class_system_1_1_security_1_1_cryptography_1_1_keyed_hash_algorithm.html" target="_top" xlink:title="Represents the abstract class from which all implementations of keyed hash algorithms must derive.">
<polygon fill="none" stroke="black" points="345,-128 345,-147 453,-147 453,-128 345,-128"/>
<text text-anchor="middle" x="399" y="-135" font-family="Helvetica,sans-Serif" font-size="10.00">KeyedHashAlgorithm</text>
</a>
</g>
</g>
<!-- Node1&#45;&gt;Node0 -->
<g id="edge1" class="edge"><title>Node1&#45;&gt;Node0</title>
<path fill="none" stroke="midnightblue" d="M463.445,-137.5C471.67,-137.5 480.218,-137.5 488.774,-137.5"/>
<polygon fill="midnightblue" stroke="midnightblue" points="463.221,-134 453.221,-137.5 463.221,-141 463.221,-134"/>
</g>
<!-- Node2 -->
<g id="node3" class="node"><title>Node2</title>
<g id="a_node3"><a xlink:href="class_system_1_1_security_1_1_cryptography_1_1_hash_algorithm.html" target="_top" xlink:title="Represents the base class from which all implementations of cryptographic hash algorithms must derive...">
<polygon fill="none" stroke="black" points="229,-128 229,-147 309,-147 309,-128 229,-128"/>
<text text-anchor="middle" x="269" y="-135" font-family="Helvetica,sans-Serif" font-size="10.00">HashAlgorithm</text>
</a>
</g>
</g>
<!-- Node2&#45;&gt;Node1 -->
<g id="edge2" class="edge"><title>Node2&#45;&gt;Node1</title>
<path fill="none" stroke="midnightblue" d="M319.184,-137.5C327.635,-137.5 336.45,-137.5 344.996,-137.5"/>
<polygon fill="midnightblue" stroke="midnightblue" points="319.1,-134 309.1,-137.5 319.1,-141 319.1,-134"/>
</g>
<!-- Node3 -->
<g id="node4" class="node"><title>Node3</title>
<g id="a_node4"><a xlink:href="interface_system_1_1_i_disposable.html" target="_top" xlink:title="Provides a mechanism for releasing unmanaged resources.To browse the .NET Framework source code for t...">
<polygon fill="none" stroke="black" points="0,-128 0,-147 67,-147 67,-128 0,-128"/>
<text text-anchor="middle" x="33.5" y="-135" font-family="Helvetica,sans-Serif" font-size="10.00">IDisposable</text>
</a>
</g>
</g>
<!-- Node3&#45;&gt;Node2 -->
<g id="edge3" class="edge"><title>Node3&#45;&gt;Node2</title>
<path fill="none" stroke="midnightblue" d="M77.6877,-137.5C121.025,-137.5 187.183,-137.5 228.981,-137.5"/>
<polygon fill="midnightblue" stroke="midnightblue" points="77.4596,-134 67.4596,-137.5 77.4596,-141 77.4596,-134"/>
</g>
<!-- Node4 -->
<g id="node5" class="node"><title>Node4</title>
<g id="a_node5"><a xlink:href="interface_system_1_1_security_1_1_cryptography_1_1_i_crypto_transform.html" target="_top" xlink:title="Defines the basic operations of cryptographic transformations.">
<polygon fill="none" stroke="black" points="103,-109 103,-128 193,-128 193,-109 103,-109"/>
<text text-anchor="middle" x="148" y="-116" font-family="Helvetica,sans-Serif" font-size="10.00">ICryptoTransform</text>
</a>
</g>
</g>
<!-- Node3&#45;&gt;Node4 -->
<g id="edge5" class="edge"><title>Node3&#45;&gt;Node4</title>
<path fill="none" stroke="midnightblue" d="M77.046,-130.314C85.4722,-128.891 94.3353,-127.394 102.815,-125.962"/>
<polygon fill="midnightblue" stroke="midnightblue" points="76.3171,-126.888 67.0397,-132.004 77.4829,-133.79 76.3171,-126.888"/>
</g>
<!-- Node4&#45;&gt;Node2 -->
<g id="edge4" class="edge"><title>Node4&#45;&gt;Node2</title>
<path fill="none" stroke="midnightblue" d="M203.278,-127.166C211.862,-128.537 220.592,-129.931 228.746,-131.233"/>
<polygon fill="midnightblue" stroke="midnightblue" points="203.738,-123.695 193.311,-125.575 202.634,-130.608 203.738,-123.695"/>
</g>
</g>
</svg>
