<?xml version="1.0" encoding="UTF-8" standalone="no"?>
<!DOCTYPE svg PUBLIC "-//W3C//DTD SVG 1.1//EN"
 "http://www.w3.org/Graphics/SVG/1.1/DTD/svg11.dtd">
<!-- Generated by graphviz version 2.38.0 (20140413.2041)
 -->
<!-- Title: System.Runtime.CompilerServices.CustomConstantAttribute Pages: 1 -->
<svg width="568pt" height="137pt"
 viewBox="0.00 0.00 568.00 137.00" xmlns="http://www.w3.org/2000/svg" xmlns:xlink="http://www.w3.org/1999/xlink">
<g id="graph0" class="graph" transform="scale(1 1) rotate(0) translate(4 133)">
<title>System.Runtime.CompilerServices.CustomConstantAttribute</title>
<!-- Node0 -->
<g id="node1" class="node"><title>Node0</title>
<g id="a_node1"><a xlink:title="Defines a constant value that a compiler can persist for a field or method parameter.">
<polygon fill="#bfbfbf" stroke="black" points="184,-49.5 184,-79.5 354,-79.5 354,-49.5 184,-49.5"/>
<text text-anchor="start" x="192" y="-67.5" font-family="Helvetica,sans-Serif" font-size="10.00">System.Runtime.CompilerServices.</text>
<text text-anchor="middle" x="269" y="-56.5" font-family="Helvetica,sans-Serif" font-size="10.00">CustomConstantAttribute</text>
</a>
</g>
</g>
<!-- Node3 -->
<g id="node4" class="node"><title>Node3</title>
<g id="a_node4"><a xlink:href="class_system_1_1_runtime_1_1_compiler_services_1_1_date_time_constant_attribute.html" target="_top" xlink:title="Persists an 8&#45;byte T:System.DateTime constant for a field or parameter.">
<polygon fill="none" stroke="black" points="390,-98.5 390,-128.5 560,-128.5 560,-98.5 390,-98.5"/>
<text text-anchor="start" x="398" y="-116.5" font-family="Helvetica,sans-Serif" font-size="10.00">System.Runtime.CompilerServices.</text>
<text text-anchor="middle" x="475" y="-105.5" font-family="Helvetica,sans-Serif" font-size="10.00">DateTimeConstantAttribute</text>
</a>
</g>
</g>
<!-- Node0&#45;&gt;Node3 -->
<g id="edge3" class="edge"><title>Node0&#45;&gt;Node3</title>
<path fill="none" stroke="midnightblue" d="M342.457,-81.9038C365.024,-87.3243 389.702,-93.252 411.525,-98.4938"/>
<polygon fill="midnightblue" stroke="midnightblue" points="343.134,-78.467 332.593,-79.5346 341.499,-85.2734 343.134,-78.467"/>
</g>
<!-- Node4 -->
<g id="node5" class="node"><title>Node4</title>
<g id="a_node5"><a xlink:href="class_system_1_1_runtime_1_1_compiler_services_1_1_i_dispatch_constant_attribute.html" target="_top" xlink:title="Indicates that the default value for the attributed field or parameter is an instance of T:System....">
<polygon fill="none" stroke="black" points="390,-49.5 390,-79.5 560,-79.5 560,-49.5 390,-49.5"/>
<text text-anchor="start" x="398" y="-67.5" font-family="Helvetica,sans-Serif" font-size="10.00">System.Runtime.CompilerServices.</text>
<text text-anchor="middle" x="475" y="-56.5" font-family="Helvetica,sans-Serif" font-size="10.00">IDispatchConstantAttribute</text>
</a>
</g>
</g>
<!-- Node0&#45;&gt;Node4 -->
<g id="edge4" class="edge"><title>Node0&#45;&gt;Node4</title>
<path fill="none" stroke="midnightblue" d="M364.402,-64.5C372.847,-64.5 381.361,-64.5 389.712,-64.5"/>
<polygon fill="midnightblue" stroke="midnightblue" points="364.152,-61.0001 354.152,-64.5 364.152,-68.0001 364.152,-61.0001"/>
</g>
<!-- Node5 -->
<g id="node6" class="node"><title>Node5</title>
<g id="a_node6"><a xlink:href="class_system_1_1_runtime_1_1_compiler_services_1_1_i_unknown_constant_attribute.html" target="_top" xlink:title="Indicates that the default value for the attributed field or parameter is an instance of T:System....">
<polygon fill="none" stroke="black" points="390,-0.5 390,-30.5 560,-30.5 560,-0.5 390,-0.5"/>
<text text-anchor="start" x="398" y="-18.5" font-family="Helvetica,sans-Serif" font-size="10.00">System.Runtime.CompilerServices.</text>
<text text-anchor="middle" x="475" y="-7.5" font-family="Helvetica,sans-Serif" font-size="10.00">IUnknownConstantAttribute</text>
</a>
</g>
</g>
<!-- Node0&#45;&gt;Node5 -->
<g id="edge5" class="edge"><title>Node0&#45;&gt;Node5</title>
<path fill="none" stroke="midnightblue" d="M342.457,-47.0962C365.024,-41.6757 389.702,-35.748 411.525,-30.5062"/>
<polygon fill="midnightblue" stroke="midnightblue" points="341.499,-43.7266 332.593,-49.4654 343.134,-50.533 341.499,-43.7266"/>
</g>
<!-- Node1 -->
<g id="node2" class="node"><title>Node1</title>
<g id="a_node2"><a xlink:href="class_system_1_1_attribute.html" target="_top" xlink:title="Represents the base class for custom attributes.">
<polygon fill="none" stroke="black" points="95,-55 95,-74 148,-74 148,-55 95,-55"/>
<text text-anchor="middle" x="121.5" y="-62" font-family="Helvetica,sans-Serif" font-size="10.00">Attribute</text>
</a>
</g>
</g>
<!-- Node1&#45;&gt;Node0 -->
<g id="edge1" class="edge"><title>Node1&#45;&gt;Node0</title>
<path fill="none" stroke="midnightblue" d="M158.406,-64.5C166.303,-64.5 174.987,-64.5 183.904,-64.5"/>
<polygon fill="midnightblue" stroke="midnightblue" points="158.178,-61.0001 148.178,-64.5 158.178,-68.0001 158.178,-61.0001"/>
</g>
<!-- Node2 -->
<g id="node3" class="node"><title>Node2</title>
<g id="a_node3"><a xlink:href="interface_system_1_1_runtime_1_1_interop_services_1_1___attribute.html" target="_top" xlink:title="Exposes the T:System.Attribute class to unmanaged code.">
<polygon fill="none" stroke="black" points="0,-55 0,-74 59,-74 59,-55 0,-55"/>
<text text-anchor="middle" x="29.5" y="-62" font-family="Helvetica,sans-Serif" font-size="10.00">_Attribute</text>
</a>
</g>
</g>
<!-- Node2&#45;&gt;Node1 -->
<g id="edge2" class="edge"><title>Node2&#45;&gt;Node1</title>
<path fill="none" stroke="midnightblue" d="M69.676,-64.5C78.2271,-64.5 87.0636,-64.5 94.9222,-64.5"/>
<polygon fill="midnightblue" stroke="midnightblue" points="69.472,-61.0001 59.472,-64.5 69.4719,-68.0001 69.472,-61.0001"/>
</g>
</g>
</svg>
