<?xml version="1.0" encoding="UTF-8" standalone="no"?>
<!DOCTYPE svg PUBLIC "-//W3C//DTD SVG 1.1//EN"
 "http://www.w3.org/Graphics/SVG/1.1/DTD/svg11.dtd">
<!-- Generated by graphviz version 2.38.0 (20140413.2041)
 -->
<!-- Title: System.Text.EUCJPEncoding Pages: 1 -->
<svg width="196pt" height="308pt"
 viewBox="0.00 0.00 196.00 308.00" xmlns="http://www.w3.org/2000/svg" xmlns:xlink="http://www.w3.org/1999/xlink">
<g id="graph0" class="graph" transform="scale(1 1) rotate(0) translate(4 304)">
<title>System.Text.EUCJPEncoding</title>
<!-- Node0 -->
<g id="node1" class="node"><title>Node0</title>
<g id="a_node1"><a xlink:title=" ">
<polygon fill="#bfbfbf" stroke="black" points="34,-0.5 34,-19.5 181,-19.5 181,-0.5 34,-0.5"/>
<text text-anchor="middle" x="107.5" y="-7.5" font-family="Helvetica,sans-Serif" font-size="10.00">System.Text.EUCJPEncoding</text>
</a>
</g>
</g>
<!-- Node1 -->
<g id="node2" class="node"><title>Node1</title>
<g id="a_node2"><a xlink:href="class_system_1_1_text_1_1_d_b_c_s_code_page_encoding.html" target="_top" xlink:title=" ">
<polygon fill="none" stroke="black" points="43,-56.5 43,-75.5 172,-75.5 172,-56.5 43,-56.5"/>
<text text-anchor="middle" x="107.5" y="-63.5" font-family="Helvetica,sans-Serif" font-size="10.00">DBCSCodePageEncoding</text>
</a>
</g>
</g>
<!-- Node1&#45;&gt;Node0 -->
<g id="edge1" class="edge"><title>Node1&#45;&gt;Node0</title>
<path fill="none" stroke="midnightblue" d="M107.5,-45.8045C107.5,-36.9102 107.5,-26.7798 107.5,-19.7511"/>
<polygon fill="midnightblue" stroke="midnightblue" points="104,-46.083 107.5,-56.083 111,-46.083 104,-46.083"/>
</g>
<!-- Node2 -->
<g id="node3" class="node"><title>Node2</title>
<g id="a_node3"><a xlink:href="class_system_1_1_text_1_1_base_code_page_encoding.html" target="_top" xlink:title=" ">
<polygon fill="none" stroke="black" points="0,-112.5 0,-131.5 125,-131.5 125,-112.5 0,-112.5"/>
<text text-anchor="middle" x="62.5" y="-119.5" font-family="Helvetica,sans-Serif" font-size="10.00">BaseCodePageEncoding</text>
</a>
</g>
</g>
<!-- Node2&#45;&gt;Node1 -->
<g id="edge2" class="edge"><title>Node2&#45;&gt;Node1</title>
<path fill="none" stroke="midnightblue" d="M76.5467,-104.144C84.3869,-94.7357 93.8295,-83.4046 100.207,-75.7511"/>
<polygon fill="midnightblue" stroke="midnightblue" points="73.6439,-102.16 69.9308,-112.083 79.0215,-106.641 73.6439,-102.16"/>
</g>
<!-- Node3 -->
<g id="node4" class="node"><title>Node3</title>
<g id="a_node4"><a xlink:href="class_system_1_1_text_1_1_encoding_n_l_s.html" target="_top" xlink:title=" ">
<polygon fill="none" stroke="black" points="24.5,-168.5 24.5,-187.5 100.5,-187.5 100.5,-168.5 24.5,-168.5"/>
<text text-anchor="middle" x="62.5" y="-175.5" font-family="Helvetica,sans-Serif" font-size="10.00">EncodingNLS</text>
</a>
</g>
</g>
<!-- Node3&#45;&gt;Node2 -->
<g id="edge3" class="edge"><title>Node3&#45;&gt;Node2</title>
<path fill="none" stroke="midnightblue" d="M62.5,-157.805C62.5,-148.91 62.5,-138.78 62.5,-131.751"/>
<polygon fill="midnightblue" stroke="midnightblue" points="59.0001,-158.083 62.5,-168.083 66.0001,-158.083 59.0001,-158.083"/>
</g>
<!-- Node4 -->
<g id="node5" class="node"><title>Node4</title>
<g id="a_node5"><a xlink:href="class_system_1_1_text_1_1_encoding.html" target="_top" xlink:title="Represents a character encoding.To browse the .NET Framework source code for this type,...">
<polygon fill="none" stroke="black" points="34,-224.5 34,-243.5 91,-243.5 91,-224.5 34,-224.5"/>
<text text-anchor="middle" x="62.5" y="-231.5" font-family="Helvetica,sans-Serif" font-size="10.00">Encoding</text>
</a>
</g>
</g>
<!-- Node4&#45;&gt;Node3 -->
<g id="edge4" class="edge"><title>Node4&#45;&gt;Node3</title>
<path fill="none" stroke="midnightblue" d="M62.5,-213.805C62.5,-204.91 62.5,-194.78 62.5,-187.751"/>
<polygon fill="midnightblue" stroke="midnightblue" points="59.0001,-214.083 62.5,-224.083 66.0001,-214.083 59.0001,-214.083"/>
</g>
<!-- Node5 -->
<g id="node6" class="node"><title>Node5</title>
<g id="a_node6"><a xlink:href="interface_system_1_1_i_cloneable.html" target="_top" xlink:title="Supports cloning, which creates a new instance of a class with the same value as an existing instance...">
<polygon fill="none" stroke="black" points="31.5,-280.5 31.5,-299.5 93.5,-299.5 93.5,-280.5 31.5,-280.5"/>
<text text-anchor="middle" x="62.5" y="-287.5" font-family="Helvetica,sans-Serif" font-size="10.00">ICloneable</text>
</a>
</g>
</g>
<!-- Node5&#45;&gt;Node4 -->
<g id="edge5" class="edge"><title>Node5&#45;&gt;Node4</title>
<path fill="none" stroke="midnightblue" d="M62.5,-269.805C62.5,-260.91 62.5,-250.78 62.5,-243.751"/>
<polygon fill="midnightblue" stroke="midnightblue" points="59.0001,-270.083 62.5,-280.083 66.0001,-270.083 59.0001,-270.083"/>
</g>
<!-- Node6 -->
<g id="node7" class="node"><title>Node6</title>
<g id="a_node7"><a xlink:href="interface_system_1_1_runtime_1_1_serialization_1_1_i_serializable.html" target="_top" xlink:title="Allows an object to control its own serialization and deserialization.">
<polygon fill="none" stroke="black" points="119,-168.5 119,-187.5 188,-187.5 188,-168.5 119,-168.5"/>
<text text-anchor="middle" x="153.5" y="-175.5" font-family="Helvetica,sans-Serif" font-size="10.00">ISerializable</text>
</a>
</g>
</g>
<!-- Node6&#45;&gt;Node1 -->
<g id="edge7" class="edge"><title>Node6&#45;&gt;Node1</title>
<path fill="none" stroke="midnightblue" d="M149.019,-158.567C145.517,-145.332 140.137,-127.219 133.5,-112 127.729,-98.767 119.016,-84.4971 113.292,-75.6556"/>
<polygon fill="midnightblue" stroke="midnightblue" points="145.653,-159.534 151.505,-168.366 152.438,-157.812 145.653,-159.534"/>
</g>
<!-- Node6&#45;&gt;Node2 -->
<g id="edge6" class="edge"><title>Node6&#45;&gt;Node2</title>
<path fill="none" stroke="midnightblue" d="M130.206,-163.177C113.461,-153.241 91.3996,-140.149 77.0844,-131.655"/>
<polygon fill="midnightblue" stroke="midnightblue" points="128.493,-166.231 138.879,-168.324 132.066,-160.211 128.493,-166.231"/>
</g>
</g>
</svg>
