<?xml version="1.0" encoding="UTF-8" standalone="no"?>
<!DOCTYPE svg PUBLIC "-//W3C//DTD SVG 1.1//EN"
 "http://www.w3.org/Graphics/SVG/1.1/DTD/svg11.dtd">
<!-- Generated by graphviz version 2.38.0 (20140413.2041)
 -->
<!-- Title: System.Collections.Generic.EqualityComparer&lt; T &gt; Pages: 1 -->
<svg width="253pt" height="174pt"
 viewBox="0.00 0.00 252.50 174.00" xmlns="http://www.w3.org/2000/svg" xmlns:xlink="http://www.w3.org/1999/xlink">
<g id="graph0" class="graph" transform="scale(1 1) rotate(0) translate(4 170)">
<title>System.Collections.Generic.EqualityComparer&lt; T &gt;</title>
<!-- Node14 -->
<g id="node1" class="node"><title>Node14</title>
<g id="a_node1"><a xlink:title="Provides a base class for implementations of the T:System.Collections.Generic.IEqualityComparer`1 gen...">
<polygon fill="#bfbfbf" stroke="black" points="14.5,-0.5 14.5,-30.5 155.5,-30.5 155.5,-0.5 14.5,-0.5"/>
<text text-anchor="start" x="22.5" y="-18.5" font-family="Helvetica,sans-Serif" font-size="10.00">System.Collections.Generic.</text>
<text text-anchor="middle" x="85" y="-7.5" font-family="Helvetica,sans-Serif" font-size="10.00">EqualityComparer&lt; T &gt;</text>
</a>
</g>
</g>
<!-- Node15 -->
<g id="node2" class="node"><title>Node15</title>
<g id="a_node2"><a xlink:href="interface_system_1_1_collections_1_1_generic_1_1_i_equality_comparer.html" target="_top" xlink:title="Defines methods to support the comparison of objects for equality.">
<polygon fill="none" stroke="black" points="0,-68.5 0,-87.5 96,-87.5 96,-68.5 0,-68.5"/>
<text text-anchor="middle" x="48" y="-75.5" font-family="Helvetica,sans-Serif" font-size="10.00">IEqualityComparer</text>
</a>
</g>
</g>
<!-- Node15&#45;&gt;Node14 -->
<g id="edge1" class="edge"><title>Node15&#45;&gt;Node14</title>
<path fill="none" stroke="midnightblue" d="M58.5942,-59.677C64.1952,-50.5187 70.987,-39.4132 76.2798,-30.7587"/>
<polygon fill="midnightblue" stroke="midnightblue" points="55.5327,-57.9746 53.3012,-68.3318 61.5045,-61.6268 55.5327,-57.9746"/>
</g>
<!-- Node16 -->
<g id="node3" class="node"><title>Node16</title>
<g id="a_node3"><a xlink:href="interface_system_1_1_collections_1_1_generic_1_1_i_equality_comparer.html" target="_top" xlink:title=" ">
<polygon fill="none" stroke="black" points="114.5,-68.5 114.5,-87.5 233.5,-87.5 233.5,-68.5 114.5,-68.5"/>
<text text-anchor="middle" x="174" y="-75.5" font-family="Helvetica,sans-Serif" font-size="10.00">IEqualityComparer&lt; T &gt;</text>
</a>
</g>
</g>
<!-- Node16&#45;&gt;Node14 -->
<g id="edge2" class="edge"><title>Node16&#45;&gt;Node14</title>
<path fill="none" stroke="midnightblue" d="M152.606,-62.4572C138.354,-52.7689 119.726,-40.1059 105.633,-30.526"/>
<polygon fill="midnightblue" stroke="midnightblue" points="151.011,-65.6045 161.248,-68.3318 154.946,-59.8154 151.011,-65.6045"/>
</g>
<!-- Node17 -->
<g id="node4" class="node"><title>Node17</title>
<g id="a_node4"><a xlink:href="interface_system_1_1_collections_1_1_generic_1_1_i_equality_comparer.html" target="_top" xlink:title="Defines methods to support the comparison of objects for equality.">
<polygon fill="none" stroke="black" points="103.5,-135.5 103.5,-165.5 244.5,-165.5 244.5,-135.5 103.5,-135.5"/>
<text text-anchor="start" x="111.5" y="-153.5" font-family="Helvetica,sans-Serif" font-size="10.00">System.Collections.Generic.</text>
<text text-anchor="middle" x="174" y="-142.5" font-family="Helvetica,sans-Serif" font-size="10.00">IEqualityComparer&lt; in in T &gt;</text>
</a>
</g>
</g>
<!-- Node17&#45;&gt;Node16 -->
<g id="edge3" class="edge"><title>Node17&#45;&gt;Node16</title>
<path fill="none" stroke="orange" stroke-dasharray="5,2" d="M174,-125.091C174,-112.214 174,-97.1974 174,-87.8932"/>
<polygon fill="orange" stroke="orange" points="170.5,-125.233 174,-135.233 177.5,-125.233 170.5,-125.233"/>
<text text-anchor="middle" x="187.5" y="-109" font-family="Helvetica,sans-Serif" font-size="10.00"> &lt; T &gt;</text>
</g>
</g>
</svg>
