<?xml version="1.0" encoding="UTF-8" standalone="no"?>
<!DOCTYPE svg PUBLIC "-//W3C//DTD SVG 1.1//EN"
 "http://www.w3.org/Graphics/SVG/1.1/DTD/svg11.dtd">
<!-- Generated by graphviz version 2.38.0 (20140413.2041)
 -->
<!-- Title: System.ComponentModel.TypeConverter.StandardValuesCollection Pages: 1 -->
<svg width="180pt" height="151pt"
 viewBox="0.00 0.00 180.00 151.00" xmlns="http://www.w3.org/2000/svg" xmlns:xlink="http://www.w3.org/1999/xlink">
<g id="graph0" class="graph" transform="scale(1 1) rotate(0) translate(4 147)">
<title>System.ComponentModel.TypeConverter.StandardValuesCollection</title>
<!-- Node3 -->
<g id="node1" class="node"><title>Node3</title>
<g id="a_node1"><a xlink:title="Represents a collection of values.">
<polygon fill="#bfbfbf" stroke="black" points="0,-0.5 0,-30.5 172,-30.5 172,-0.5 0,-0.5"/>
<text text-anchor="start" x="8" y="-18.5" font-family="Helvetica,sans-Serif" font-size="10.00">System.ComponentModel.Type</text>
<text text-anchor="middle" x="86" y="-7.5" font-family="Helvetica,sans-Serif" font-size="10.00">Converter.StandardValuesCollection</text>
</a>
</g>
</g>
<!-- Node4 -->
<g id="node2" class="node"><title>Node4</title>
<g id="a_node2"><a xlink:href="interface_system_1_1_collections_1_1_i_collection.html" target="_top" xlink:title="Defines size, enumerators, and synchronization methods for all nongeneric collections.">
<polygon fill="none" stroke="black" points="85,-67.5 85,-86.5 147,-86.5 147,-67.5 85,-67.5"/>
<text text-anchor="middle" x="116" y="-74.5" font-family="Helvetica,sans-Serif" font-size="10.00">ICollection</text>
</a>
</g>
</g>
<!-- Node4&#45;&gt;Node3 -->
<g id="edge1" class="edge"><title>Node4&#45;&gt;Node3</title>
<path fill="none" stroke="midnightblue" d="M107.122,-58.392C102.637,-49.4976 97.2716,-38.8553 93.0704,-30.523"/>
<polygon fill="midnightblue" stroke="midnightblue" points="104.074,-60.1216 111.702,-67.4751 110.325,-56.9701 104.074,-60.1216"/>
</g>
<!-- Node5 -->
<g id="node3" class="node"><title>Node5</title>
<g id="a_node3"><a xlink:href="interface_system_1_1_collections_1_1_i_enumerable.html" target="_top" xlink:title="Exposes an enumerator, which supports a simple iteration over a non&#45;generic collection....">
<polygon fill="none" stroke="black" points="50.5,-123.5 50.5,-142.5 121.5,-142.5 121.5,-123.5 50.5,-123.5"/>
<text text-anchor="middle" x="86" y="-130.5" font-family="Helvetica,sans-Serif" font-size="10.00">IEnumerable</text>
</a>
</g>
</g>
<!-- Node5&#45;&gt;Node3 -->
<g id="edge3" class="edge"><title>Node5&#45;&gt;Node3</title>
<path fill="none" stroke="midnightblue" d="M80.9626,-113.625C78.9917,-105.528 76.9726,-95.8602 76,-87 73.8417,-67.3387 78.2876,-44.715 81.9254,-30.512"/>
<polygon fill="midnightblue" stroke="midnightblue" points="77.6171,-114.667 83.5176,-123.467 84.3926,-112.908 77.6171,-114.667"/>
</g>
<!-- Node5&#45;&gt;Node4 -->
<g id="edge2" class="edge"><title>Node5&#45;&gt;Node4</title>
<path fill="none" stroke="midnightblue" d="M95.8474,-114.275C100.975,-105.045 107.016,-94.1703 111.138,-86.7511"/>
<polygon fill="midnightblue" stroke="midnightblue" points="92.7508,-112.642 90.9539,-123.083 98.8699,-116.041 92.7508,-112.642"/>
</g>
</g>
</svg>
