<?xml version="1.0" encoding="UTF-8" standalone="no"?>
<!DOCTYPE svg PUBLIC "-//W3C//DTD SVG 1.1//EN"
 "http://www.w3.org/Graphics/SVG/1.1/DTD/svg11.dtd">
<!-- Generated by graphviz version 2.38.0 (20140413.2041)
 -->
<!-- Title: System.Text.RegularExpressions.RegexMatchTimeoutException Pages: 1 -->
<svg width="190pt" height="95pt"
 viewBox="0.00 0.00 190.00 95.00" xmlns="http://www.w3.org/2000/svg" xmlns:xlink="http://www.w3.org/1999/xlink">
<g id="graph0" class="graph" transform="scale(1 1) rotate(0) translate(4 91)">
<title>System.Text.RegularExpressions.RegexMatchTimeoutException</title>
<!-- Node6 -->
<g id="node1" class="node"><title>Node6</title>
<g id="a_node1"><a xlink:title="The exception that is thrown when the execution time of a regular expression pattern&#45;matching method ...">
<polygon fill="#bfbfbf" stroke="black" points="15,-0.5 15,-30.5 180,-30.5 180,-0.5 15,-0.5"/>
<text text-anchor="start" x="23" y="-18.5" font-family="Helvetica,sans-Serif" font-size="10.00">System.Text.RegularExpressions.</text>
<text text-anchor="middle" x="97.5" y="-7.5" font-family="Helvetica,sans-Serif" font-size="10.00">RegexMatchTimeoutException</text>
</a>
</g>
</g>
<!-- Node7 -->
<g id="node2" class="node"><title>Node7</title>
<g id="a_node2"><a xlink:href="class_system_1_1_timeout_exception.html" target="_top" xlink:title="The exception that is thrown when the time allotted for a process or operation has expired.">
<polygon fill="none" stroke="red" points="0,-67.5 0,-86.5 95,-86.5 95,-67.5 0,-67.5"/>
<text text-anchor="middle" x="47.5" y="-74.5" font-family="Helvetica,sans-Serif" font-size="10.00">TimeoutException</text>
</a>
</g>
</g>
<!-- Node7&#45;&gt;Node6 -->
<g id="edge1" class="edge"><title>Node7&#45;&gt;Node6</title>
<path fill="none" stroke="midnightblue" d="M61.1044,-59.8108C68.8037,-50.6486 78.3376,-39.3032 85.716,-30.523"/>
<polygon fill="midnightblue" stroke="midnightblue" points="58.4177,-57.5676 54.6638,-67.4751 63.7768,-62.071 58.4177,-57.5676"/>
</g>
<!-- Node10 -->
<g id="node3" class="node"><title>Node10</title>
<g id="a_node3"><a xlink:href="interface_system_1_1_runtime_1_1_serialization_1_1_i_serializable.html" target="_top" xlink:title="Allows an object to control its own serialization and deserialization.">
<polygon fill="none" stroke="black" points="113,-67.5 113,-86.5 182,-86.5 182,-67.5 113,-67.5"/>
<text text-anchor="middle" x="147.5" y="-74.5" font-family="Helvetica,sans-Serif" font-size="10.00">ISerializable</text>
</a>
</g>
</g>
<!-- Node10&#45;&gt;Node6 -->
<g id="edge2" class="edge"><title>Node10&#45;&gt;Node6</title>
<path fill="none" stroke="midnightblue" d="M133.896,-59.8108C126.196,-50.6486 116.662,-39.3032 109.284,-30.523"/>
<polygon fill="midnightblue" stroke="midnightblue" points="131.223,-62.071 140.336,-67.4751 136.582,-57.5676 131.223,-62.071"/>
</g>
</g>
</svg>
