<?xml version="1.0" encoding="UTF-8" standalone="no"?>
<!DOCTYPE svg PUBLIC "-//W3C//DTD SVG 1.1//EN"
 "http://www.w3.org/Graphics/SVG/1.1/DTD/svg11.dtd">
<!-- Generated by graphviz version 2.38.0 (20140413.2041)
 -->
<!-- Title: System.ActivationContext Pages: 1 -->
<svg width="265pt" height="152pt"
 viewBox="0.00 0.00 265.00 152.00" xmlns="http://www.w3.org/2000/svg" xmlns:xlink="http://www.w3.org/1999/xlink">
<g id="graph0" class="graph" transform="scale(1 1) rotate(0) translate(4 148)">
<title>System.ActivationContext</title>
<!-- Node3 -->
<g id="node1" class="node"><title>Node3</title>
<g id="a_node1"><a xlink:title="Identifies the activation context for the current application. This class cannot be inherited.">
<polygon fill="#bfbfbf" stroke="black" points="31,-0.5 31,-19.5 160,-19.5 160,-0.5 31,-0.5"/>
<text text-anchor="middle" x="95.5" y="-7.5" font-family="Helvetica,sans-Serif" font-size="10.00">System.ActivationContext</text>
</a>
</g>
</g>
<!-- Node4 -->
<g id="node2" class="node"><title>Node4</title>
<g id="a_node2"><a xlink:href="interface_system_1_1_i_disposable.html" target="_top" xlink:title="Provides a mechanism for releasing unmanaged resources.To browse the .NET Framework source code for t...">
<polygon fill="none" stroke="black" points="0,-67.5 0,-86.5 67,-86.5 67,-67.5 0,-67.5"/>
<text text-anchor="middle" x="33.5" y="-74.5" font-family="Helvetica,sans-Serif" font-size="10.00">IDisposable</text>
</a>
</g>
</g>
<!-- Node4&#45;&gt;Node3 -->
<g id="edge1" class="edge"><title>Node4&#45;&gt;Node3</title>
<path fill="none" stroke="midnightblue" d="M48.7646,-59.9968C60.9235,-47.2496 77.4774,-29.8947 87.2709,-19.6273"/>
<polygon fill="midnightblue" stroke="midnightblue" points="46.2311,-57.582 41.8616,-67.2338 51.2964,-62.4134 46.2311,-57.582"/>
</g>
<!-- Node5 -->
<g id="node3" class="node"><title>Node5</title>
<g id="a_node3"><a xlink:href="interface_system_1_1_runtime_1_1_serialization_1_1_i_serializable.html" target="_top" xlink:title="Allows an object to control its own serialization and deserialization.">
<polygon fill="none" stroke="black" points="91,-124.5 91,-143.5 160,-143.5 160,-124.5 91,-124.5"/>
<text text-anchor="middle" x="125.5" y="-131.5" font-family="Helvetica,sans-Serif" font-size="10.00">ISerializable</text>
</a>
</g>
</g>
<!-- Node5&#45;&gt;Node3 -->
<g id="edge2" class="edge"><title>Node5&#45;&gt;Node3</title>
<path fill="none" stroke="midnightblue" d="M120.875,-114.191C114.286,-87.3972 102.462,-39.314 97.638,-19.6944"/>
<polygon fill="midnightblue" stroke="midnightblue" points="117.556,-115.351 123.342,-124.226 124.353,-113.68 117.556,-115.351"/>
</g>
<!-- Node6 -->
<g id="node4" class="node"><title>Node6</title>
<g id="a_node4"><a xlink:href="class_system_1_1_application_identity.html" target="_top" xlink:title="Provides the ability to uniquely identify a manifest&#45;activated application. This class cannot be inhe...">
<polygon fill="none" stroke="black" points="124,-67.5 124,-86.5 257,-86.5 257,-67.5 124,-67.5"/>
<text text-anchor="middle" x="190.5" y="-74.5" font-family="Helvetica,sans-Serif" font-size="10.00">System.ApplicationIdentity</text>
</a>
</g>
</g>
<!-- Node5&#45;&gt;Node6 -->
<g id="edge4" class="edge"><title>Node5&#45;&gt;Node6</title>
<path fill="none" stroke="midnightblue" d="M143.572,-117.708C155.382,-107.715 170.381,-95.0237 180.201,-86.7149"/>
<polygon fill="midnightblue" stroke="midnightblue" points="141.029,-115.275 135.656,-124.406 145.551,-120.619 141.029,-115.275"/>
</g>
<!-- Node6&#45;&gt;Node3 -->
<g id="edge3" class="edge"><title>Node6&#45;&gt;Node3</title>
<path fill="none" stroke="#9a32cd" stroke-dasharray="5,2" d="M169.19,-61.4196C150.409,-48.5695 123.682,-30.2821 108.109,-19.6273"/>
<polygon fill="#9a32cd" stroke="#9a32cd" points="167.458,-64.4755 177.688,-67.2338 171.411,-58.6983 167.458,-64.4755"/>
<text text-anchor="middle" x="167" y="-41" font-family="Helvetica,sans-Serif" font-size="10.00"> Identity</text>
</g>
</g>
</svg>
