<?xml version="1.0" encoding="UTF-8" standalone="no"?>
<!DOCTYPE svg PUBLIC "-//W3C//DTD SVG 1.1//EN"
 "http://www.w3.org/Graphics/SVG/1.1/DTD/svg11.dtd">
<!-- Generated by graphviz version 2.38.0 (20140413.2041)
 -->
<!-- Title: System.Runtime.Remoting.Channels.BaseChannelWithProperties Pages: 1 -->
<svg width="339pt" height="288pt"
 viewBox="0.00 0.00 338.50 288.00" xmlns="http://www.w3.org/2000/svg" xmlns:xlink="http://www.w3.org/1999/xlink">
<g id="graph0" class="graph" transform="scale(1 1) rotate(0) translate(4 284)">
<title>System.Runtime.Remoting.Channels.BaseChannelWithProperties</title>
<!-- Node5 -->
<g id="node1" class="node"><title>Node5</title>
<g id="a_node1"><a xlink:title="Provides a base implementation for channels that want to expose a dictionary interface to their prope...">
<polygon fill="#bfbfbf" stroke="black" points="121.5,-0.5 121.5,-30.5 303.5,-30.5 303.5,-0.5 121.5,-0.5"/>
<text text-anchor="start" x="129.5" y="-18.5" font-family="Helvetica,sans-Serif" font-size="10.00">System.Runtime.Remoting.</text>
<text text-anchor="middle" x="212.5" y="-7.5" font-family="Helvetica,sans-Serif" font-size="10.00">Channels.BaseChannelWithProperties</text>
</a>
</g>
</g>
<!-- Node6 -->
<g id="node2" class="node"><title>Node6</title>
<g id="a_node2"><a xlink:href="class_system_1_1_runtime_1_1_remoting_1_1_channels_1_1_base_channel_object_with_properties.html" target="_top" xlink:title="Provides a base implementation of a channel object that exposes a dictionary interface to its propert...">
<polygon fill="none" stroke="black" points="0,-84 0,-103 167,-103 167,-84 0,-84"/>
<text text-anchor="middle" x="83.5" y="-91" font-family="Helvetica,sans-Serif" font-size="10.00">BaseChannelObjectWithProperties</text>
</a>
</g>
</g>
<!-- Node6&#45;&gt;Node5 -->
<g id="edge1" class="edge"><title>Node6&#45;&gt;Node5</title>
<path fill="none" stroke="midnightblue" d="M107.135,-78.5757C130.315,-64.9192 165.468,-44.2091 188.703,-30.5198"/>
<polygon fill="midnightblue" stroke="midnightblue" points="105.137,-75.6902 98.2979,-83.7818 108.69,-81.7213 105.137,-75.6902"/>
</g>
<!-- Node7 -->
<g id="node3" class="node"><title>Node7</title>
<g id="a_node3"><a xlink:href="interface_system_1_1_collections_1_1_i_dictionary.html" target="_top" xlink:title="Represents a nongeneric collection of key/value pairs.">
<polygon fill="none" stroke="black" points="52.5,-146.5 52.5,-165.5 114.5,-165.5 114.5,-146.5 52.5,-146.5"/>
<text text-anchor="middle" x="83.5" y="-153.5" font-family="Helvetica,sans-Serif" font-size="10.00">IDictionary</text>
</a>
</g>
</g>
<!-- Node7&#45;&gt;Node6 -->
<g id="edge2" class="edge"><title>Node7&#45;&gt;Node6</title>
<path fill="none" stroke="midnightblue" d="M83.5,-136.003C83.5,-125 83.5,-111.682 83.5,-103.152"/>
<polygon fill="midnightblue" stroke="midnightblue" points="80.0001,-136.332 83.5,-146.332 87.0001,-136.332 80.0001,-136.332"/>
</g>
<!-- Node8 -->
<g id="node4" class="node"><title>Node8</title>
<g id="a_node4"><a xlink:href="interface_system_1_1_collections_1_1_i_collection.html" target="_top" xlink:title="Defines size, enumerators, and synchronization methods for all nongeneric collections.">
<polygon fill="none" stroke="black" points="97.5,-203.5 97.5,-222.5 159.5,-222.5 159.5,-203.5 97.5,-203.5"/>
<text text-anchor="middle" x="128.5" y="-210.5" font-family="Helvetica,sans-Serif" font-size="10.00">ICollection</text>
</a>
</g>
</g>
<!-- Node8&#45;&gt;Node6 -->
<g id="edge6" class="edge"><title>Node8&#45;&gt;Node6</title>
<path fill="none" stroke="midnightblue" d="M129.911,-193.054C130.249,-179.506 129.313,-161.078 123.5,-146 116.902,-128.888 102.637,-112.81 93.05,-103.31"/>
<polygon fill="midnightblue" stroke="midnightblue" points="126.412,-192.943 129.407,-203.106 133.403,-193.294 126.412,-192.943"/>
</g>
<!-- Node8&#45;&gt;Node7 -->
<g id="edge3" class="edge"><title>Node8&#45;&gt;Node7</title>
<path fill="none" stroke="midnightblue" d="M115.026,-195.532C107.011,-185.736 97.1645,-173.701 90.6304,-165.715"/>
<polygon fill="midnightblue" stroke="midnightblue" points="112.427,-197.883 121.469,-203.406 117.845,-193.45 112.427,-197.883"/>
</g>
<!-- Node9 -->
<g id="node5" class="node"><title>Node9</title>
<g id="a_node5"><a xlink:href="interface_system_1_1_collections_1_1_i_enumerable.html" target="_top" xlink:title="Exposes an enumerator, which supports a simple iteration over a non&#45;generic collection....">
<polygon fill="none" stroke="black" points="34,-260.5 34,-279.5 105,-279.5 105,-260.5 34,-260.5"/>
<text text-anchor="middle" x="69.5" y="-267.5" font-family="Helvetica,sans-Serif" font-size="10.00">IEnumerable</text>
</a>
</g>
</g>
<!-- Node9&#45;&gt;Node6 -->
<g id="edge7" class="edge"><title>Node9&#45;&gt;Node6</title>
<path fill="none" stroke="midnightblue" d="M59.9717,-251.427C48.1501,-227.228 30.9925,-182.494 43.5,-146 49.4462,-128.651 63.8848,-112.636 73.6865,-103.214"/>
<polygon fill="midnightblue" stroke="midnightblue" points="56.9274,-253.161 64.6094,-260.458 63.1542,-249.963 56.9274,-253.161"/>
</g>
<!-- Node9&#45;&gt;Node7 -->
<g id="edge5" class="edge"><title>Node9&#45;&gt;Node7</title>
<path fill="none" stroke="midnightblue" d="M71.8739,-250.009C74.9404,-225.477 80.1517,-183.786 82.4065,-165.748"/>
<polygon fill="midnightblue" stroke="midnightblue" points="68.366,-249.855 70.5986,-260.212 75.312,-250.723 68.366,-249.855"/>
</g>
<!-- Node9&#45;&gt;Node8 -->
<g id="edge4" class="edge"><title>Node9&#45;&gt;Node8</title>
<path fill="none" stroke="midnightblue" d="M86.2172,-253.416C96.8878,-243.469 110.325,-230.943 119.151,-222.715"/>
<polygon fill="midnightblue" stroke="midnightblue" points="83.6469,-251.027 78.7188,-260.406 88.42,-256.148 83.6469,-251.027"/>
</g>
<!-- Node10 -->
<g id="node6" class="node"><title>Node10</title>
<g id="a_node6"><a xlink:href="interface_system_1_1_runtime_1_1_remoting_1_1_channels_1_1_i_channel_sink_base.html" target="_top" xlink:title="Provides the base interface for channel sinks.">
<polygon fill="none" stroke="black" points="185.5,-78.5 185.5,-108.5 325.5,-108.5 325.5,-78.5 185.5,-78.5"/>
<text text-anchor="start" x="193.5" y="-96.5" font-family="Helvetica,sans-Serif" font-size="10.00">System.Runtime.Remoting.</text>
<text text-anchor="middle" x="255.5" y="-85.5" font-family="Helvetica,sans-Serif" font-size="10.00">Channels.IChannelSinkBase</text>
</a>
</g>
</g>
<!-- Node10&#45;&gt;Node5 -->
<g id="edge8" class="edge"><title>Node10&#45;&gt;Node5</title>
<path fill="none" stroke="#9a32cd" stroke-dasharray="5,2" d="M242.32,-69.2047C235.211,-56.641 226.668,-41.5416 220.552,-30.7309"/>
<polygon fill="#9a32cd" stroke="#9a32cd" points="239.441,-71.225 247.412,-78.205 245.534,-67.7779 239.441,-71.225"/>
<text text-anchor="middle" x="284" y="-52" font-family="Helvetica,sans-Serif" font-size="10.00"> SinksWithProperties</text>
</g>
</g>
</svg>
