<?xml version="1.0" encoding="UTF-8" standalone="no"?>
<!DOCTYPE svg PUBLIC "-//W3C//DTD SVG 1.1//EN"
 "http://www.w3.org/Graphics/SVG/1.1/DTD/svg11.dtd">
<!-- Generated by graphviz version 2.38.0 (20140413.2041)
 -->
<!-- Title: System.FormatException Pages: 1 -->
<svg width="160pt" height="263pt"
 viewBox="0.00 0.00 160.00 263.00" xmlns="http://www.w3.org/2000/svg" xmlns:xlink="http://www.w3.org/1999/xlink">
<g id="graph0" class="graph" transform="scale(1 1) rotate(0) translate(4 259)">
<title>System.FormatException</title>
<!-- Node0 -->
<g id="node1" class="node"><title>Node0</title>
<g id="a_node1"><a xlink:title="The exception that is thrown when the format of an argument is invalid, or when a composite format st...">
<polygon fill="#bfbfbf" stroke="black" points="12.5,-67.5 12.5,-86.5 140.5,-86.5 140.5,-67.5 12.5,-67.5"/>
<text text-anchor="middle" x="76.5" y="-74.5" font-family="Helvetica,sans-Serif" font-size="10.00">System.FormatException</text>
</a>
</g>
</g>
<!-- Node5 -->
<g id="node6" class="node"><title>Node5</title>
<g id="a_node6"><a xlink:href="class_system_1_1_reflection_1_1_custom_attribute_format_exception.html" target="_top" xlink:title="The exception that is thrown when the binary format of a custom attribute is invalid.">
<polygon fill="none" stroke="black" points="10,-0.5 10,-30.5 143,-30.5 143,-0.5 10,-0.5"/>
<text text-anchor="start" x="18" y="-18.5" font-family="Helvetica,sans-Serif" font-size="10.00">System.Reflection.Custom</text>
<text text-anchor="middle" x="76.5" y="-7.5" font-family="Helvetica,sans-Serif" font-size="10.00">AttributeFormatException</text>
</a>
</g>
</g>
<!-- Node0&#45;&gt;Node5 -->
<g id="edge5" class="edge"><title>Node0&#45;&gt;Node5</title>
<path fill="none" stroke="midnightblue" d="M76.5,-57.2349C76.5,-48.5864 76.5,-38.4969 76.5,-30.523"/>
<polygon fill="midnightblue" stroke="midnightblue" points="73.0001,-57.4751 76.5,-67.4751 80.0001,-57.4751 73.0001,-57.4751"/>
</g>
<!-- Node1 -->
<g id="node2" class="node"><title>Node1</title>
<g id="a_node2"><a xlink:href="class_system_1_1_system_exception.html" target="_top" xlink:title="Serves as the base class for system exceptions namespace.">
<polygon fill="none" stroke="black" points="29.5,-123.5 29.5,-142.5 123.5,-142.5 123.5,-123.5 29.5,-123.5"/>
<text text-anchor="middle" x="76.5" y="-130.5" font-family="Helvetica,sans-Serif" font-size="10.00">SystemException</text>
</a>
</g>
</g>
<!-- Node1&#45;&gt;Node0 -->
<g id="edge1" class="edge"><title>Node1&#45;&gt;Node0</title>
<path fill="none" stroke="midnightblue" d="M76.5,-112.805C76.5,-103.91 76.5,-93.7798 76.5,-86.7511"/>
<polygon fill="midnightblue" stroke="midnightblue" points="73.0001,-113.083 76.5,-123.083 80.0001,-113.083 73.0001,-113.083"/>
</g>
<!-- Node2 -->
<g id="node3" class="node"><title>Node2</title>
<g id="a_node3"><a xlink:href="class_system_1_1_exception.html" target="_top" xlink:title="Represents errors that occur during application execution.To browse the .NET Framework source code fo...">
<polygon fill="none" stroke="black" points="46.5,-179.5 46.5,-198.5 106.5,-198.5 106.5,-179.5 46.5,-179.5"/>
<text text-anchor="middle" x="76.5" y="-186.5" font-family="Helvetica,sans-Serif" font-size="10.00">Exception</text>
</a>
</g>
</g>
<!-- Node2&#45;&gt;Node1 -->
<g id="edge2" class="edge"><title>Node2&#45;&gt;Node1</title>
<path fill="none" stroke="midnightblue" d="M76.5,-168.805C76.5,-159.91 76.5,-149.78 76.5,-142.751"/>
<polygon fill="midnightblue" stroke="midnightblue" points="73.0001,-169.083 76.5,-179.083 80.0001,-169.083 73.0001,-169.083"/>
</g>
<!-- Node3 -->
<g id="node4" class="node"><title>Node3</title>
<g id="a_node4"><a xlink:href="interface_system_1_1_runtime_1_1_serialization_1_1_i_serializable.html" target="_top" xlink:title="Allows an object to control its own serialization and deserialization.">
<polygon fill="none" stroke="black" points="0,-235.5 0,-254.5 69,-254.5 69,-235.5 0,-235.5"/>
<text text-anchor="middle" x="34.5" y="-242.5" font-family="Helvetica,sans-Serif" font-size="10.00">ISerializable</text>
</a>
</g>
</g>
<!-- Node3&#45;&gt;Node2 -->
<g id="edge3" class="edge"><title>Node3&#45;&gt;Node2</title>
<path fill="none" stroke="midnightblue" d="M47.6102,-227.144C54.9278,-217.736 63.7409,-206.405 69.6936,-198.751"/>
<polygon fill="midnightblue" stroke="midnightblue" points="44.8122,-225.041 41.4354,-235.083 50.3376,-229.338 44.8122,-225.041"/>
</g>
<!-- Node4 -->
<g id="node5" class="node"><title>Node4</title>
<g id="a_node5"><a xlink:href="interface_system_1_1_runtime_1_1_interop_services_1_1___exception.html" target="_top" xlink:title="Exposes the public members of the T:System.Exception class to unmanaged code.">
<polygon fill="none" stroke="black" points="87,-235.5 87,-254.5 152,-254.5 152,-235.5 87,-235.5"/>
<text text-anchor="middle" x="119.5" y="-242.5" font-family="Helvetica,sans-Serif" font-size="10.00">_Exception</text>
</a>
</g>
</g>
<!-- Node4&#45;&gt;Node2 -->
<g id="edge4" class="edge"><title>Node4&#45;&gt;Node2</title>
<path fill="none" stroke="midnightblue" d="M106.078,-227.144C98.5858,-217.736 89.5629,-206.405 83.4685,-198.751"/>
<polygon fill="midnightblue" stroke="midnightblue" points="103.432,-229.44 112.399,-235.083 108.908,-225.08 103.432,-229.44"/>
</g>
</g>
</svg>
