<?xml version="1.0" encoding="UTF-8" standalone="no"?>
<!DOCTYPE svg PUBLIC "-//W3C//DTD SVG 1.1//EN"
 "http://www.w3.org/Graphics/SVG/1.1/DTD/svg11.dtd">
<!-- Generated by graphviz version 2.38.0 (20140413.2041)
 -->
<!-- Title: System.Threading.Mutex Pages: 1 -->
<svg width="335pt" height="209pt"
 viewBox="0.00 0.00 334.50 209.00" xmlns="http://www.w3.org/2000/svg" xmlns:xlink="http://www.w3.org/1999/xlink">
<g id="graph0" class="graph" transform="scale(1 1) rotate(0) translate(4 205)">
<title>System.Threading.Mutex</title>
<!-- Node4 -->
<g id="node1" class="node"><title>Node4</title>
<g id="a_node1"><a xlink:title="A synchronization primitive that can also be used for interprocess synchronization.">
<polygon fill="#bfbfbf" stroke="black" points="95.5,-0.5 95.5,-19.5 220.5,-19.5 220.5,-0.5 95.5,-0.5"/>
<text text-anchor="middle" x="158" y="-7.5" font-family="Helvetica,sans-Serif" font-size="10.00">System.Threading.Mutex</text>
</a>
</g>
</g>
<!-- Node5 -->
<g id="node2" class="node"><title>Node5</title>
<g id="a_node2"><a xlink:href="class_system_1_1_threading_1_1_wait_handle.html" target="_top" xlink:title="Encapsulates operating system–specific objects that wait for exclusive access to shared resources.">
<polygon fill="none" stroke="black" points="124.5,-57.5 124.5,-76.5 191.5,-76.5 191.5,-57.5 124.5,-57.5"/>
<text text-anchor="middle" x="158" y="-64.5" font-family="Helvetica,sans-Serif" font-size="10.00">WaitHandle</text>
</a>
</g>
</g>
<!-- Node5&#45;&gt;Node4 -->
<g id="edge1" class="edge"><title>Node5&#45;&gt;Node4</title>
<path fill="none" stroke="midnightblue" d="M158,-47.1166C158,-37.8173 158,-27.0557 158,-19.7149"/>
<polygon fill="midnightblue" stroke="midnightblue" points="154.5,-47.4062 158,-57.4063 161.5,-47.4063 154.5,-47.4062"/>
</g>
<!-- Node6 -->
<g id="node3" class="node"><title>Node6</title>
<g id="a_node3"><a xlink:href="class_system_1_1_marshal_by_ref_object.html" target="_top" xlink:title="Enables access to objects across application domain boundaries in applications that support remoting.">
<polygon fill="none" stroke="black" points="0,-124.5 0,-143.5 106,-143.5 106,-124.5 0,-124.5"/>
<text text-anchor="middle" x="53" y="-131.5" font-family="Helvetica,sans-Serif" font-size="10.00">MarshalByRefObject</text>
</a>
</g>
</g>
<!-- Node6&#45;&gt;Node5 -->
<g id="edge2" class="edge"><title>Node6&#45;&gt;Node5</title>
<path fill="none" stroke="midnightblue" d="M75.7087,-118.942C96.5029,-106.07 126.617,-87.4274 144.064,-76.6273"/>
<polygon fill="midnightblue" stroke="midnightblue" points="73.8212,-115.994 67.1608,-124.234 77.5057,-121.946 73.8212,-115.994"/>
</g>
<!-- Node7 -->
<g id="node4" class="node"><title>Node7</title>
<g id="a_node4"><a xlink:href="interface_system_1_1_i_disposable.html" target="_top" xlink:title="Provides a mechanism for releasing unmanaged resources.To browse the .NET Framework source code for t...">
<polygon fill="none" stroke="black" points="124.5,-124.5 124.5,-143.5 191.5,-143.5 191.5,-124.5 124.5,-124.5"/>
<text text-anchor="middle" x="158" y="-131.5" font-family="Helvetica,sans-Serif" font-size="10.00">IDisposable</text>
</a>
</g>
</g>
<!-- Node7&#45;&gt;Node5 -->
<g id="edge3" class="edge"><title>Node7&#45;&gt;Node5</title>
<path fill="none" stroke="midnightblue" d="M158,-114.037C158,-101.67 158,-86.1198 158,-76.6273"/>
<polygon fill="midnightblue" stroke="midnightblue" points="154.5,-114.234 158,-124.234 161.5,-114.234 154.5,-114.234"/>
</g>
<!-- Node8 -->
<g id="node5" class="node"><title>Node8</title>
<g id="a_node5"><a xlink:href="struct_system_1_1_int_ptr.html" target="_top" xlink:title="A platform&#45;specific type that is used to represent a pointer or a handle.">
<polygon fill="none" stroke="black" points="209.5,-124.5 209.5,-143.5 286.5,-143.5 286.5,-124.5 209.5,-124.5"/>
<text text-anchor="middle" x="248" y="-131.5" font-family="Helvetica,sans-Serif" font-size="10.00">System.IntPtr</text>
</a>
</g>
</g>
<!-- Node8&#45;&gt;Node5 -->
<g id="edge4" class="edge"><title>Node8&#45;&gt;Node5</title>
<path fill="none" stroke="#9a32cd" stroke-dasharray="5,2" d="M227.325,-118.068C209.56,-105.238 184.564,-87.1853 169.945,-76.6273"/>
<polygon fill="#9a32cd" stroke="#9a32cd" points="225.706,-121.216 235.862,-124.234 229.805,-115.541 225.706,-121.216"/>
<text text-anchor="middle" x="238" y="-98" font-family="Helvetica,sans-Serif" font-size="10.00"> InvalidHandle</text>
</g>
<!-- Node8&#45;&gt;Node8 -->
<g id="edge6" class="edge"><title>Node8&#45;&gt;Node8</title>
<path fill="none" stroke="#9a32cd" stroke-dasharray="5,2" d="M296.72,-138.263C301.479,-137.403 304.5,-135.982 304.5,-134 304.5,-130.828 296.766,-129.094 286.555,-128.796"/>
<polygon fill="#9a32cd" stroke="#9a32cd" points="296.19,-134.797 286.555,-139.204 296.835,-141.767 296.19,-134.797"/>
<text text-anchor="middle" x="315.5" y="-131.5" font-family="Helvetica,sans-Serif" font-size="10.00"> Zero</text>
</g>
<!-- Node9 -->
<g id="node6" class="node"><title>Node9</title>
<g id="a_node6"><a xlink:href="interface_system_1_1_runtime_1_1_serialization_1_1_i_serializable.html" target="_top" xlink:title="Allows an object to control its own serialization and deserialization.">
<polygon fill="none" stroke="black" points="213.5,-181.5 213.5,-200.5 282.5,-200.5 282.5,-181.5 213.5,-181.5"/>
<text text-anchor="middle" x="248" y="-188.5" font-family="Helvetica,sans-Serif" font-size="10.00">ISerializable</text>
</a>
</g>
</g>
<!-- Node9&#45;&gt;Node8 -->
<g id="edge5" class="edge"><title>Node9&#45;&gt;Node8</title>
<path fill="none" stroke="midnightblue" d="M248,-171.117C248,-161.817 248,-151.056 248,-143.715"/>
<polygon fill="midnightblue" stroke="midnightblue" points="244.5,-171.406 248,-181.406 251.5,-171.406 244.5,-171.406"/>
</g>
</g>
</svg>
