<?xml version="1.0" encoding="UTF-8" standalone="no"?>
<!DOCTYPE svg PUBLIC "-//W3C//DTD SVG 1.1//EN"
 "http://www.w3.org/Graphics/SVG/1.1/DTD/svg11.dtd">
<!-- Generated by graphviz version 2.38.0 (20140413.2041)
 -->
<!-- Title: System.Linq.ParallelQuery Pages: 1 -->
<svg width="389pt" height="274pt"
 viewBox="0.00 0.00 389.00 274.00" xmlns="http://www.w3.org/2000/svg" xmlns:xlink="http://www.w3.org/1999/xlink">
<g id="graph0" class="graph" transform="scale(1 1) rotate(0) translate(4 270)">
<title>System.Linq.ParallelQuery</title>
<!-- Node0 -->
<g id="node1" class="node"><title>Node0</title>
<g id="a_node1"><a xlink:title="Represents a parallel sequence.">
<polygon fill="#bfbfbf" stroke="black" points="0,-143 0,-162 133,-162 133,-143 0,-143"/>
<text text-anchor="middle" x="66.5" y="-150" font-family="Helvetica,sans-Serif" font-size="10.00">System.Linq.ParallelQuery</text>
</a>
</g>
</g>
<!-- Node1 -->
<g id="node2" class="node"><title>Node1</title>
<g id="a_node2"><a xlink:href="class_system_1_1_linq_1_1_parallel_query.html" target="_top" xlink:title="Represents a parallel sequence.">
<polygon fill="none" stroke="black" points="236.5,-235.5 236.5,-265.5 369.5,-265.5 369.5,-235.5 236.5,-235.5"/>
<text text-anchor="start" x="244.5" y="-253.5" font-family="Helvetica,sans-Serif" font-size="10.00">System.Linq.ParallelQuery</text>
<text text-anchor="middle" x="303" y="-242.5" font-family="Helvetica,sans-Serif" font-size="10.00">&lt; TSource &gt;</text>
</a>
</g>
</g>
<!-- Node0&#45;&gt;Node1 -->
<g id="edge1" class="edge"><title>Node0&#45;&gt;Node1</title>
<path fill="none" stroke="midnightblue" d="M108.261,-166.481C121.725,-173.178 136.874,-180.935 151,-187.5 183.183,-202.457 191.586,-205.543 225,-217.5 242.139,-223.633 261.727,-229.726 276.858,-235.417"/>
<polygon fill="midnightblue" stroke="midnightblue" points="109.76,-163.318 99.2419,-162.042 106.668,-169.598 109.76,-163.318"/>
</g>
<!-- Node0&#45;&gt;Node1 -->
<g id="edge3" class="edge"><title>Node0&#45;&gt;Node1</title>
<path fill="none" stroke="midnightblue" d="M83.2696,-168.134C99.8841,-179.664 126.928,-194.312 151,-205.5 183.183,-220.457 191.586,-223.543 225,-235.5 228.691,-236.821 232.496,-238.14 236.346,-239.43"/>
<polygon fill="midnightblue" stroke="midnightblue" points="85.3004,-165.283 75.1974,-162.092 81.1055,-170.887 85.3004,-165.283"/>
</g>
<!-- Node2 -->
<g id="node3" class="node"><title>Node2</title>
<g id="a_node3"><a xlink:href="class_system_1_1_linq_1_1_parallel_query.html" target="_top" xlink:title=" ">
<polygon fill="none" stroke="black" points="236.5,-186.5 236.5,-216.5 369.5,-216.5 369.5,-186.5 236.5,-186.5"/>
<text text-anchor="start" x="244.5" y="-204.5" font-family="Helvetica,sans-Serif" font-size="10.00">System.Linq.ParallelQuery</text>
<text text-anchor="middle" x="303" y="-193.5" font-family="Helvetica,sans-Serif" font-size="10.00">&lt; TResult &gt;</text>
</a>
</g>
</g>
<!-- Node0&#45;&gt;Node2 -->
<g id="edge2" class="edge"><title>Node0&#45;&gt;Node2</title>
<path fill="none" stroke="orange" stroke-dasharray="5,2" d="M123.191,-164.137C157.108,-171.224 200.618,-180.316 236.226,-187.756"/>
<polygon fill="orange" stroke="orange" points="123.497,-160.625 112.992,-162.006 122.065,-167.477 123.497,-160.625"/>
<text text-anchor="middle" x="179" y="-184.5" font-family="Helvetica,sans-Serif" font-size="10.00"> &lt; TResult &gt;</text>
</g>
<!-- Node3 -->
<g id="node4" class="node"><title>Node3</title>
<g id="a_node4"><a xlink:href="class_system_1_1_linq_1_1_parallel_query.html" target="_top" xlink:title=" ">
<polygon fill="none" stroke="black" points="236.5,-137.5 236.5,-167.5 369.5,-167.5 369.5,-137.5 236.5,-137.5"/>
<text text-anchor="start" x="244.5" y="-155.5" font-family="Helvetica,sans-Serif" font-size="10.00">System.Linq.ParallelQuery</text>
<text text-anchor="middle" x="303" y="-144.5" font-family="Helvetica,sans-Serif" font-size="10.00">&lt; int &gt;</text>
</a>
</g>
</g>
<!-- Node0&#45;&gt;Node3 -->
<g id="edge4" class="edge"><title>Node0&#45;&gt;Node3</title>
<path fill="none" stroke="orange" stroke-dasharray="5,2" d="M143.146,-152.5C173.186,-152.5 207.412,-152.5 236.383,-152.5"/>
<polygon fill="orange" stroke="orange" points="143.133,-149 133.133,-152.5 143.133,-156 143.133,-149"/>
<text text-anchor="middle" x="179" y="-155.5" font-family="Helvetica,sans-Serif" font-size="10.00"> &lt; int &gt;</text>
</g>
<!-- Node4 -->
<g id="node5" class="node"><title>Node4</title>
<g id="a_node5"><a xlink:href="class_system_1_1_linq_1_1_parallel_query.html" target="_top" xlink:title=" ">
<polygon fill="none" stroke="black" points="236.5,-88.5 236.5,-118.5 369.5,-118.5 369.5,-88.5 236.5,-88.5"/>
<text text-anchor="start" x="244.5" y="-106.5" font-family="Helvetica,sans-Serif" font-size="10.00">System.Linq.ParallelQuery</text>
<text text-anchor="middle" x="303" y="-95.5" font-family="Helvetica,sans-Serif" font-size="10.00">&lt; object &gt;</text>
</a>
</g>
</g>
<!-- Node0&#45;&gt;Node4 -->
<g id="edge5" class="edge"><title>Node0&#45;&gt;Node4</title>
<path fill="none" stroke="orange" stroke-dasharray="5,2" d="M123.191,-140.863C157.108,-133.776 200.618,-124.684 236.226,-117.244"/>
<polygon fill="orange" stroke="orange" points="122.065,-137.523 112.992,-142.994 123.497,-144.375 122.065,-137.523"/>
<text text-anchor="middle" x="179" y="-137.5" font-family="Helvetica,sans-Serif" font-size="10.00"> &lt; object &gt;</text>
</g>
<!-- Node5 -->
<g id="node6" class="node"><title>Node5</title>
<g id="a_node6"><a xlink:href="class_system_1_1_linq_1_1_parallel_query.html" target="_top" xlink:title=" ">
<polygon fill="none" stroke="black" points="225,-50 225,-69 381,-69 381,-50 225,-50"/>
<text text-anchor="middle" x="303" y="-57" font-family="Helvetica,sans-Serif" font-size="10.00">System.Linq.ParallelQuery&lt; T &gt;</text>
</a>
</g>
</g>
<!-- Node0&#45;&gt;Node5 -->
<g id="edge6" class="edge"><title>Node0&#45;&gt;Node5</title>
<path fill="none" stroke="orange" stroke-dasharray="5,2" d="M93.5444,-137.879C124.143,-121.27 176.857,-94.4173 225,-78.5 235.589,-74.9989 247.186,-71.8112 258.093,-69.0891"/>
<polygon fill="orange" stroke="orange" points="91.5045,-135.006 84.4207,-142.884 94.8714,-141.143 91.5045,-135.006"/>
<text text-anchor="middle" x="179" y="-110.5" font-family="Helvetica,sans-Serif" font-size="10.00"> &lt; T &gt;</text>
</g>
<!-- Node6 -->
<g id="node7" class="node"><title>Node6</title>
<g id="a_node7"><a xlink:href="class_system_1_1_linq_1_1_parallel_query.html" target="_top" xlink:title=" ">
<polygon fill="none" stroke="black" points="236.5,-0.5 236.5,-30.5 369.5,-30.5 369.5,-0.5 236.5,-0.5"/>
<text text-anchor="start" x="244.5" y="-18.5" font-family="Helvetica,sans-Serif" font-size="10.00">System.Linq.ParallelQuery</text>
<text text-anchor="middle" x="303" y="-7.5" font-family="Helvetica,sans-Serif" font-size="10.00">&lt; TOutput &gt;</text>
</a>
</g>
</g>
<!-- Node0&#45;&gt;Node6 -->
<g id="edge7" class="edge"><title>Node0&#45;&gt;Node6</title>
<path fill="none" stroke="orange" stroke-dasharray="5,2" d="M82.0881,-134.903C97.6511,-117.024 123.768,-89.4763 151,-71.5 178.885,-53.0928 213.639,-39.6681 242.774,-30.5852"/>
<polygon fill="orange" stroke="orange" points="79.1632,-132.939 75.3372,-142.819 84.4893,-137.481 79.1632,-132.939"/>
<text text-anchor="middle" x="179" y="-74.5" font-family="Helvetica,sans-Serif" font-size="10.00"> &lt; TOutput &gt;</text>
</g>
</g>
</svg>
