<?xml version="1.0" encoding="UTF-8" standalone="no"?>
<!DOCTYPE svg PUBLIC "-//W3C//DTD SVG 1.1//EN"
 "http://www.w3.org/Graphics/SVG/1.1/DTD/svg11.dtd">
<!-- Generated by graphviz version 2.38.0 (20140413.2041)
 -->
<!-- Title: System.Security.Cryptography.HMAC Pages: 1 -->
<svg width="523pt" height="284pt"
 viewBox="0.00 0.00 523.00 284.00" xmlns="http://www.w3.org/2000/svg" xmlns:xlink="http://www.w3.org/1999/xlink">
<g id="graph0" class="graph" transform="scale(1 1) rotate(0) translate(4 280)">
<title>System.Security.Cryptography.HMAC</title>
<!-- Node0 -->
<g id="node1" class="node"><title>Node0</title>
<g id="a_node1"><a xlink:title="Represents the abstract class from which all implementations of Hash&#45;based Message Authentication Cod...">
<polygon fill="#bfbfbf" stroke="black" points="144,-128 144,-147 326,-147 326,-128 144,-128"/>
<text text-anchor="middle" x="235" y="-135" font-family="Helvetica,sans-Serif" font-size="10.00">System.Security.Cryptography.HMAC</text>
</a>
</g>
</g>
<!-- Node5 -->
<g id="node3" class="node"><title>Node5</title>
<g id="a_node3"><a xlink:href="class_system_1_1_security_1_1_cryptography_1_1_h_m_a_c_m_d5.html" target="_top" xlink:title="Computes a Hash&#45;based Message Authentication Code (HMAC) by using the T:System.Security....">
<polygon fill="none" stroke="black" points="362,-245.5 362,-275.5 515,-275.5 515,-245.5 362,-245.5"/>
<text text-anchor="start" x="370" y="-263.5" font-family="Helvetica,sans-Serif" font-size="10.00">System.Security.Cryptography.</text>
<text text-anchor="middle" x="438.5" y="-252.5" font-family="Helvetica,sans-Serif" font-size="10.00">HMACMD5</text>
</a>
</g>
</g>
<!-- Node0&#45;&gt;Node5 -->
<g id="edge2" class="edge"><title>Node0&#45;&gt;Node5</title>
<path fill="none" stroke="midnightblue" d="M252.809,-153.999C275.731,-175.681 318.892,-213.68 362,-236.5 368.321,-239.846 375.189,-242.823 382.121,-245.443"/>
<polygon fill="midnightblue" stroke="midnightblue" points="255.217,-151.459 245.578,-147.061 250.371,-156.51 255.217,-151.459"/>
</g>
<!-- Node6 -->
<g id="node4" class="node"><title>Node6</title>
<g id="a_node4"><a xlink:href="class_system_1_1_security_1_1_cryptography_1_1_h_m_a_c_r_i_p_e_m_d160.html" target="_top" xlink:title="Computes a Hash&#45;based Message Authentication Code (HMAC) by using the T:System.Security....">
<polygon fill="none" stroke="black" points="362,-196.5 362,-226.5 515,-226.5 515,-196.5 362,-196.5"/>
<text text-anchor="start" x="370" y="-214.5" font-family="Helvetica,sans-Serif" font-size="10.00">System.Security.Cryptography.</text>
<text text-anchor="middle" x="438.5" y="-203.5" font-family="Helvetica,sans-Serif" font-size="10.00">HMACRIPEMD160</text>
</a>
</g>
</g>
<!-- Node0&#45;&gt;Node6 -->
<g id="edge3" class="edge"><title>Node0&#45;&gt;Node6</title>
<path fill="none" stroke="midnightblue" d="M268.049,-150.937C293.375,-161.38 329.713,-175.978 362,-187.5 370.42,-190.505 379.432,-193.531 388.191,-196.374"/>
<polygon fill="midnightblue" stroke="midnightblue" points="269.159,-147.608 258.581,-147.015 266.48,-154.075 269.159,-147.608"/>
</g>
<!-- Node7 -->
<g id="node5" class="node"><title>Node7</title>
<g id="a_node5"><a xlink:href="class_system_1_1_security_1_1_cryptography_1_1_h_m_a_c_s_h_a1.html" target="_top" xlink:title="Computes a Hash&#45;based Message Authentication Code (HMAC) using the T:System.Security....">
<polygon fill="none" stroke="black" points="362,-147.5 362,-177.5 515,-177.5 515,-147.5 362,-147.5"/>
<text text-anchor="start" x="370" y="-165.5" font-family="Helvetica,sans-Serif" font-size="10.00">System.Security.Cryptography.</text>
<text text-anchor="middle" x="438.5" y="-154.5" font-family="Helvetica,sans-Serif" font-size="10.00">HMACSHA1</text>
</a>
</g>
</g>
<!-- Node0&#45;&gt;Node7 -->
<g id="edge4" class="edge"><title>Node0&#45;&gt;Node7</title>
<path fill="none" stroke="midnightblue" d="M323.058,-148.301C336.01,-149.908 349.27,-151.553 361.959,-153.128"/>
<polygon fill="midnightblue" stroke="midnightblue" points="323.108,-144.781 312.753,-147.023 322.246,-151.727 323.108,-144.781"/>
</g>
<!-- Node8 -->
<g id="node6" class="node"><title>Node8</title>
<g id="a_node6"><a xlink:href="class_system_1_1_security_1_1_cryptography_1_1_h_m_a_c_s_h_a256.html" target="_top" xlink:title="Computes a Hash&#45;based Message Authentication Code (HMAC) by using the T:System.Security....">
<polygon fill="none" stroke="black" points="362,-98.5 362,-128.5 515,-128.5 515,-98.5 362,-98.5"/>
<text text-anchor="start" x="370" y="-116.5" font-family="Helvetica,sans-Serif" font-size="10.00">System.Security.Cryptography.</text>
<text text-anchor="middle" x="438.5" y="-105.5" font-family="Helvetica,sans-Serif" font-size="10.00">HMACSHA256</text>
</a>
</g>
</g>
<!-- Node0&#45;&gt;Node8 -->
<g id="edge5" class="edge"><title>Node0&#45;&gt;Node8</title>
<path fill="none" stroke="midnightblue" d="M325.958,-126.785C337.974,-125.354 350.198,-123.898 361.935,-122.5"/>
<polygon fill="midnightblue" stroke="midnightblue" points="325.443,-123.322 315.928,-127.98 326.271,-130.273 325.443,-123.322"/>
</g>
<!-- Node9 -->
<g id="node7" class="node"><title>Node9</title>
<g id="a_node7"><a xlink:href="class_system_1_1_security_1_1_cryptography_1_1_h_m_a_c_s_h_a384.html" target="_top" xlink:title="Computes a Hash&#45;based Message Authentication Code (HMAC) using the T:System.Security....">
<polygon fill="none" stroke="black" points="362,-49.5 362,-79.5 515,-79.5 515,-49.5 362,-49.5"/>
<text text-anchor="start" x="370" y="-67.5" font-family="Helvetica,sans-Serif" font-size="10.00">System.Security.Cryptography.</text>
<text text-anchor="middle" x="438.5" y="-56.5" font-family="Helvetica,sans-Serif" font-size="10.00">HMACSHA384</text>
</a>
</g>
</g>
<!-- Node0&#45;&gt;Node9 -->
<g id="edge6" class="edge"><title>Node0&#45;&gt;Node9</title>
<path fill="none" stroke="midnightblue" d="M269.002,-124.008C294.296,-113.828 330.152,-99.7421 362,-88.5 370.56,-85.4784 379.724,-82.4196 388.613,-79.5437"/>
<polygon fill="midnightblue" stroke="midnightblue" points="267.481,-120.848 259.521,-127.84 270.104,-127.338 267.481,-120.848"/>
</g>
<!-- Node10 -->
<g id="node8" class="node"><title>Node10</title>
<g id="a_node8"><a xlink:href="class_system_1_1_security_1_1_cryptography_1_1_h_m_a_c_s_h_a512.html" target="_top" xlink:title="Computes a Hash&#45;based Message Authentication Code (HMAC) using the T:System.Security....">
<polygon fill="none" stroke="black" points="362,-0.5 362,-30.5 515,-30.5 515,-0.5 362,-0.5"/>
<text text-anchor="start" x="370" y="-18.5" font-family="Helvetica,sans-Serif" font-size="10.00">System.Security.Cryptography.</text>
<text text-anchor="middle" x="438.5" y="-7.5" font-family="Helvetica,sans-Serif" font-size="10.00">HMACSHA512</text>
</a>
</g>
</g>
<!-- Node0&#45;&gt;Node10 -->
<g id="edge7" class="edge"><title>Node0&#45;&gt;Node10</title>
<path fill="none" stroke="midnightblue" d="M253.194,-120.849C276.241,-99.3446 319.221,-62.0114 362,-39.5 368.329,-36.1694 375.202,-33.2016 382.137,-30.5866"/>
<polygon fill="midnightblue" stroke="midnightblue" points="250.765,-118.33 245.907,-127.746 255.576,-123.414 250.765,-118.33"/>
</g>
<!-- Node1 -->
<g id="node2" class="node"><title>Node1</title>
<g id="a_node2"><a xlink:href="class_system_1_1_security_1_1_cryptography_1_1_keyed_hash_algorithm.html" target="_top" xlink:title="Represents the abstract class from which all implementations of keyed hash algorithms must derive.">
<polygon fill="none" stroke="red" points="0,-128 0,-147 108,-147 108,-128 0,-128"/>
<text text-anchor="middle" x="54" y="-135" font-family="Helvetica,sans-Serif" font-size="10.00">KeyedHashAlgorithm</text>
</a>
</g>
</g>
<!-- Node1&#45;&gt;Node0 -->
<g id="edge1" class="edge"><title>Node1&#45;&gt;Node0</title>
<path fill="none" stroke="midnightblue" d="M118.445,-137.5C126.67,-137.5 135.218,-137.5 143.774,-137.5"/>
<polygon fill="midnightblue" stroke="midnightblue" points="118.221,-134 108.221,-137.5 118.221,-141 118.221,-134"/>
</g>
</g>
</svg>
