<?xml version="1.0" encoding="UTF-8" standalone="no"?>
<!DOCTYPE svg PUBLIC "-//W3C//DTD SVG 1.1//EN"
 "http://www.w3.org/Graphics/SVG/1.1/DTD/svg11.dtd">
<!-- Generated by graphviz version 2.38.0 (20140413.2041)
 -->
<!-- Title: System.ComponentModel.SettingsBindableAttribute Pages: 1 -->
<svg width="215pt" height="96pt"
 viewBox="0.00 0.00 215.00 96.00" xmlns="http://www.w3.org/2000/svg" xmlns:xlink="http://www.w3.org/1999/xlink">
<g id="graph0" class="graph" transform="scale(1 1) rotate(0) translate(4 92)">
<title>System.ComponentModel.SettingsBindableAttribute</title>
<!-- Node3 -->
<g id="node1" class="node"><title>Node3</title>
<g id="a_node1"><a xlink:title="Specifies when a component property can be bound to an application setting.">
<polygon fill="#bfbfbf" stroke="black" points="0,-0.5 0,-30.5 168,-30.5 168,-0.5 0,-0.5"/>
<text text-anchor="start" x="8" y="-18.5" font-family="Helvetica,sans-Serif" font-size="10.00">System.ComponentModel.Settings</text>
<text text-anchor="middle" x="84" y="-7.5" font-family="Helvetica,sans-Serif" font-size="10.00">BindableAttribute</text>
</a>
</g>
</g>
<!-- Node3&#45;&gt;Node3 -->
<g id="edge2" class="edge"><title>Node3&#45;&gt;Node3</title>
<path fill="none" stroke="#9a32cd" stroke-dasharray="5,2" d="M178.113,-19.6963C183.066,-18.6643 186,-17.2655 186,-15.5 186,-12.7441 178.852,-10.8818 168.032,-9.91293"/>
<polygon fill="#9a32cd" stroke="#9a32cd" points="177.46,-16.2532 168.032,-21.0871 178.417,-23.1875 177.46,-16.2532"/>
<text text-anchor="middle" x="196.5" y="-18.5" font-family="Helvetica,sans-Serif" font-size="10.00"> Yes</text>
<text text-anchor="middle" x="196.5" y="-7.5" font-family="Helvetica,sans-Serif" font-size="10.00">No</text>
</g>
<!-- Node4 -->
<g id="node2" class="node"><title>Node4</title>
<g id="a_node2"><a xlink:href="class_system_1_1_attribute.html" target="_top" xlink:title="Represents the base class for custom attributes.">
<polygon fill="none" stroke="red" points="57.5,-68.5 57.5,-87.5 110.5,-87.5 110.5,-68.5 57.5,-68.5"/>
<text text-anchor="middle" x="84" y="-75.5" font-family="Helvetica,sans-Serif" font-size="10.00">Attribute</text>
</a>
</g>
</g>
<!-- Node4&#45;&gt;Node3 -->
<g id="edge1" class="edge"><title>Node4&#45;&gt;Node3</title>
<path fill="none" stroke="midnightblue" d="M84,-58.2154C84,-49.3565 84,-38.9577 84,-30.7587"/>
<polygon fill="midnightblue" stroke="midnightblue" points="80.5001,-58.3318 84,-68.3318 87.5001,-58.3319 80.5001,-58.3318"/>
</g>
</g>
</svg>
