<?xml version="1.0" encoding="UTF-8" standalone="no"?>
<!DOCTYPE svg PUBLIC "-//W3C//DTD SVG 1.1//EN"
 "http://www.w3.org/Graphics/SVG/1.1/DTD/svg11.dtd">
<!-- Generated by graphviz version 2.38.0 (20140413.2041)
 -->
<!-- Title: System.Reflection.RuntimeConstructorInfo Pages: 1 -->
<!--zoomable 287 -->
<svg id="main" version="1.1" xmlns="http://www.w3.org/2000/svg" xmlns:xlink="http://www.w3.org/1999/xlink" xml:space="preserve" onload="init(evt)">
<style type="text/css"><![CDATA[
.edge:hover path { stroke: red; }
.edge:hover polygon { stroke: red; fill: red; }
]]></style>
<script type="text/javascript"><![CDATA[
var edges = document.getElementsByTagName('g');
if (edges && edges.length) {
  for (var i=0;i<edges.length;i++) {
    if (edges[i].id.substr(0,4)=='edge') {
      edges[i].setAttribute('class','edge');
    }
  }
}
]]></script>
        <defs>
                <circle id="rim" cx="0" cy="0" r="7"/>
                <circle id="rim2" cx="0" cy="0" r="3.5"/>
                <g id="zoomPlus">
                        <use xlink:href="#rim" fill="#404040">
                                <set attributeName="fill" to="#808080" begin="zoomplus.mouseover" end="zoomplus.mouseout"/>
                        </use>
                        <path d="M-4,0h8M0,-4v8" fill="none" stroke="white" stroke-width="1.5" pointer-events="none"/>
                </g>
                <g id="zoomMin">
                        <use xlink:href="#rim" fill="#404040">
                                <set attributeName="fill" to="#808080" begin="zoomminus.mouseover" end="zoomminus.mouseout"/>
                        </use>
                        <path d="M-4,0h8" fill="none" stroke="white" stroke-width="1.5" pointer-events="none"/>
                </g>
                <g id="dirArrow">
                        <path fill="none" stroke="white" stroke-width="1.5" d="M0,-3.0v7 M-2.5,-0.5L0,-3.0L2.5,-0.5"/>
                </g>
               <g id="resetDef">
                       <use xlink:href="#rim2" fill="#404040">
                               <set attributeName="fill" to="#808080" begin="reset.mouseover" end="reset.mouseout"/>
                       </use>
               </g>
        </defs>

<script type="text/javascript">
var viewWidth = 595;
var viewHeight = 287;
var sectionId = 'dynsection-1';
</script>
<script xlink:href="svgpan.js"/>
<svg id="graph" class="graph">
<g id="viewport">
<title>System.Reflection.RuntimeConstructorInfo</title>
<!-- Node10 -->
<g id="node1" class="node"><title>Node10</title>
<g id="a_node1"><a xlink:title=" ">
<polygon fill="#bfbfbf" stroke="black" points="238,-0.5 238,-30.5 373,-30.5 373,-0.5 238,-0.5"/>
<text text-anchor="start" x="246" y="-18.5" font-family="Helvetica,sans-Serif" font-size="10.00">System.Reflection.Runtime</text>
<text text-anchor="middle" x="305.5" y="-7.5" font-family="Helvetica,sans-Serif" font-size="10.00">ConstructorInfo</text>
</a>
</g>
</g>
<!-- Node11 -->
<g id="node2" class="node"><title>Node11</title>
<g id="a_node2"><a xlink:href="class_system_1_1_reflection_1_1_constructor_info.html" target="_top" xlink:title="Discovers the attributes of a class constructor and provides access to constructor metadata.">
<polygon fill="none" stroke="black" points="355.5,-78.5 355.5,-97.5 437.5,-97.5 437.5,-78.5 355.5,-78.5"/>
<text text-anchor="middle" x="396.5" y="-85.5" font-family="Helvetica,sans-Serif" font-size="10.00">ConstructorInfo</text>
</a>
</g>
</g>
<!-- Node11&#45;&gt;Node10 -->
<g id="edge1" class="edge"><title>Node11&#45;&gt;Node10</title>
<path fill="none" stroke="midnightblue" d="M377.301,-72.1262C361.481,-59.8698 339.2,-42.6084 323.669,-30.5762"/>
<polygon fill="midnightblue" stroke="midnightblue" points="375.293,-74.9977 385.342,-78.3553 379.58,-69.4641 375.293,-74.9977"/>
</g>
<!-- Node12 -->
<g id="node3" class="node"><title>Node12</title>
<g id="a_node3"><a xlink:href="class_system_1_1_reflection_1_1_method_base.html" target="_top" xlink:title="Provides information about methods and constructors.">
<polygon fill="none" stroke="black" points="515,-145.5 515,-164.5 586,-164.5 586,-145.5 515,-145.5"/>
<text text-anchor="middle" x="550.5" y="-152.5" font-family="Helvetica,sans-Serif" font-size="10.00">MethodBase</text>
</a>
</g>
</g>
<!-- Node12&#45;&gt;Node11 -->
<g id="edge2" class="edge"><title>Node12&#45;&gt;Node11</title>
<path fill="none" stroke="midnightblue" d="M520.763,-141.448C490.271,-128.579 443.655,-108.903 417.035,-97.6672"/>
<polygon fill="midnightblue" stroke="midnightblue" points="519.476,-144.704 530.05,-145.369 522.198,-138.255 519.476,-144.704"/>
</g>
<!-- Node13 -->
<g id="node4" class="node"><title>Node13</title>
<g id="a_node4"><a xlink:href="class_system_1_1_reflection_1_1_member_info.html" target="_top" xlink:title="Obtains information about the attributes of a member and provides access to member metadata.">
<polygon fill="none" stroke="black" points="517,-202.5 517,-221.5 584,-221.5 584,-202.5 517,-202.5"/>
<text text-anchor="middle" x="550.5" y="-209.5" font-family="Helvetica,sans-Serif" font-size="10.00">MemberInfo</text>
</a>
</g>
</g>
<!-- Node13&#45;&gt;Node12 -->
<g id="edge3" class="edge"><title>Node13&#45;&gt;Node12</title>
<path fill="none" stroke="midnightblue" d="M550.5,-192.117C550.5,-182.817 550.5,-172.056 550.5,-164.715"/>
<polygon fill="midnightblue" stroke="midnightblue" points="547,-192.406 550.5,-202.406 554,-192.406 547,-192.406"/>
</g>
<!-- Node14 -->
<g id="node5" class="node"><title>Node14</title>
<g id="a_node5"><a xlink:href="interface_system_1_1_reflection_1_1_i_custom_attribute_provider.html" target="_top" xlink:title="Provides custom attributes for reflection objects that support them.">
<polygon fill="none" stroke="black" points="346.5,-259.5 346.5,-278.5 470.5,-278.5 470.5,-259.5 346.5,-259.5"/>
<text text-anchor="middle" x="408.5" y="-266.5" font-family="Helvetica,sans-Serif" font-size="10.00">ICustomAttributeProvider</text>
</a>
</g>
</g>
<!-- Node14&#45;&gt;Node13 -->
<g id="edge4" class="edge"><title>Node14&#45;&gt;Node13</title>
<path fill="none" stroke="midnightblue" d="M440.034,-255.786C466.884,-245.386 504.771,-230.712 528.468,-221.533"/>
<polygon fill="midnightblue" stroke="midnightblue" points="438.748,-252.531 430.688,-259.406 441.277,-259.058 438.748,-252.531"/>
</g>
<!-- Node20 -->
<g id="node11" class="node"><title>Node20</title>
<g id="a_node11"><a xlink:href="class_system_1_1_reflection_1_1_module.html" target="_top" xlink:title="Performs reflection on a module.">
<polygon fill="none" stroke="black" points="150,-78.5 150,-97.5 281,-97.5 281,-78.5 150,-78.5"/>
<text text-anchor="middle" x="215.5" y="-85.5" font-family="Helvetica,sans-Serif" font-size="10.00">System.Reflection.Module</text>
</a>
</g>
</g>
<!-- Node14&#45;&gt;Node20 -->
<g id="edge13" class="edge"><title>Node14&#45;&gt;Node20</title>
<path fill="none" stroke="midnightblue" d="M406.177,-249.336C401.921,-222.756 390.477,-174.013 361.5,-145 335.889,-119.357 297.285,-105.23 266.205,-97.5812"/>
<polygon fill="midnightblue" stroke="midnightblue" points="402.713,-249.842 407.59,-259.248 409.643,-248.854 402.713,-249.842"/>
</g>
<!-- Node15 -->
<g id="node6" class="node"><title>Node15</title>
<g id="a_node6"><a xlink:href="interface_system_1_1_runtime_1_1_interop_services_1_1___member_info.html" target="_top" xlink:title="Exposes the public members of the T:System.Reflection.MemberInfo class to unmanaged code.">
<polygon fill="none" stroke="black" points="514.5,-259.5 514.5,-278.5 586.5,-278.5 586.5,-259.5 514.5,-259.5"/>
<text text-anchor="middle" x="550.5" y="-266.5" font-family="Helvetica,sans-Serif" font-size="10.00">_MemberInfo</text>
</a>
</g>
</g>
<!-- Node15&#45;&gt;Node13 -->
<g id="edge5" class="edge"><title>Node15&#45;&gt;Node13</title>
<path fill="none" stroke="midnightblue" d="M550.5,-249.117C550.5,-239.817 550.5,-229.056 550.5,-221.715"/>
<polygon fill="midnightblue" stroke="midnightblue" points="547,-249.406 550.5,-259.406 554,-249.406 547,-249.406"/>
</g>
<!-- Node16 -->
<g id="node7" class="node"><title>Node16</title>
<g id="a_node7"><a xlink:href="interface_system_1_1_runtime_1_1_interop_services_1_1___method_base.html" target="_top" xlink:title="Exposes the public members of the T:System.Reflection.MethodBase class to unmanaged code.">
<polygon fill="none" stroke="black" points="422,-202.5 422,-221.5 499,-221.5 499,-202.5 422,-202.5"/>
<text text-anchor="middle" x="460.5" y="-209.5" font-family="Helvetica,sans-Serif" font-size="10.00">_MethodBase</text>
</a>
</g>
</g>
<!-- Node16&#45;&gt;Node12 -->
<g id="edge6" class="edge"><title>Node16&#45;&gt;Node12</title>
<path fill="none" stroke="midnightblue" d="M483.229,-197.11C500.007,-186.857 522.307,-173.229 536.536,-164.533"/>
<polygon fill="midnightblue" stroke="midnightblue" points="481.27,-194.205 474.563,-202.406 484.92,-200.178 481.27,-194.205"/>
</g>
<!-- Node17 -->
<g id="node8" class="node"><title>Node17</title>
<g id="a_node8"><a xlink:href="interface_system_1_1_runtime_1_1_interop_services_1_1___constructor_info.html" target="_top" xlink:title="Exposes the public members of the T:System.Reflection.ConstructorInfo class to unmanaged code.">
<polygon fill="none" stroke="black" points="410,-145.5 410,-164.5 497,-164.5 497,-145.5 410,-145.5"/>
<text text-anchor="middle" x="453.5" y="-152.5" font-family="Helvetica,sans-Serif" font-size="10.00">_ConstructorInfo</text>
</a>
</g>
</g>
<!-- Node17&#45;&gt;Node11 -->
<g id="edge7" class="edge"><title>Node17&#45;&gt;Node11</title>
<path fill="none" stroke="midnightblue" d="M439.149,-137.635C428.002,-124.923 412.984,-107.798 404.065,-97.6273"/>
<polygon fill="midnightblue" stroke="midnightblue" points="436.588,-140.023 445.813,-145.234 441.851,-135.408 436.588,-140.023"/>
</g>
<!-- Node18 -->
<g id="node9" class="node"><title>Node18</title>
<g id="a_node9"><a xlink:href="interface_system_1_1_runtime_1_1_serialization_1_1_i_serializable.html" target="_top" xlink:title="Allows an object to control its own serialization and deserialization.">
<polygon fill="none" stroke="black" points="0,-145.5 0,-164.5 69,-164.5 69,-145.5 0,-145.5"/>
<text text-anchor="middle" x="34.5" y="-152.5" font-family="Helvetica,sans-Serif" font-size="10.00">ISerializable</text>
</a>
</g>
</g>
<!-- Node18&#45;&gt;Node10 -->
<g id="edge8" class="edge"><title>Node18&#45;&gt;Node10</title>
<path fill="none" stroke="midnightblue" d="M52.1986,-139.052C72.4981,-122.461 107.273,-95.6973 140.5,-78 178.275,-57.88 224.081,-41.3733 257.836,-30.5452"/>
<polygon fill="midnightblue" stroke="midnightblue" points="49.9017,-136.409 44.4318,-145.483 54.3662,-141.801 49.9017,-136.409"/>
</g>
<!-- Node18&#45;&gt;Node20 -->
<g id="edge12" class="edge"><title>Node18&#45;&gt;Node20</title>
<path fill="none" stroke="midnightblue" d="M68.0926,-141.936C103.999,-129.042 160.019,-108.924 191.653,-97.5637"/>
<polygon fill="midnightblue" stroke="midnightblue" points="66.764,-138.695 58.5354,-145.369 69.1299,-145.283 66.764,-138.695"/>
</g>
<!-- Node19 -->
<g id="node10" class="node"><title>Node19</title>
<g id="a_node10"><a xlink:href="interface_system_1_1_i_runtime_method_info.html" target="_top" xlink:title=" ">
<polygon fill="none" stroke="black" points="455.5,-78.5 455.5,-97.5 557.5,-97.5 557.5,-78.5 455.5,-78.5"/>
<text text-anchor="middle" x="506.5" y="-85.5" font-family="Helvetica,sans-Serif" font-size="10.00">IRuntimeMethodInfo</text>
</a>
</g>
</g>
<!-- Node19&#45;&gt;Node10 -->
<g id="edge9" class="edge"><title>Node19&#45;&gt;Node10</title>
<path fill="none" stroke="midnightblue" d="M472.463,-75.0616C437.338,-62.7417 382.58,-43.5356 345.432,-30.5059"/>
<polygon fill="midnightblue" stroke="midnightblue" points="471.66,-78.4889 482.255,-78.4961 473.977,-71.8835 471.66,-78.4889"/>
</g>
<!-- Node20&#45;&gt;Node10 -->
<g id="edge10" class="edge"><title>Node20&#45;&gt;Node10</title>
<path fill="none" stroke="#9a32cd" stroke-dasharray="5,2" d="M234.488,-72.1262C250.134,-59.8698 272.17,-42.6084 287.53,-30.5762"/>
<polygon fill="#9a32cd" stroke="#9a32cd" points="232.25,-69.4334 226.536,-78.3553 236.566,-74.944 232.25,-69.4334"/>
<text text-anchor="middle" x="281" y="-52" font-family="Helvetica,sans-Serif" font-size="10.00"> Module</text>
</g>
<!-- Node21 -->
<g id="node12" class="node"><title>Node21</title>
<g id="a_node12"><a xlink:href="interface_system_1_1_runtime_1_1_interop_services_1_1___module.html" target="_top" xlink:title="Exposes the T:System.Reflection.Module class to unmanaged code.">
<polygon fill="none" stroke="black" points="87,-145.5 87,-164.5 140,-164.5 140,-145.5 87,-145.5"/>
<text text-anchor="middle" x="113.5" y="-152.5" font-family="Helvetica,sans-Serif" font-size="10.00">_Module</text>
</a>
</g>
</g>
<!-- Node21&#45;&gt;Node20 -->
<g id="edge11" class="edge"><title>Node21&#45;&gt;Node20</title>
<path fill="none" stroke="midnightblue" d="M135.832,-139.769C156.022,-126.903 185.09,-108.379 201.962,-97.6273"/>
<polygon fill="midnightblue" stroke="midnightblue" points="133.808,-136.908 127.256,-145.234 137.57,-142.811 133.808,-136.908"/>
</g>
<!-- Node22 -->
<g id="node13" class="node"><title>Node22</title>
<g id="a_node13"><a xlink:href="struct_system_1_1_module_handle.html" target="_top" xlink:title="Represents a runtime handle for a module.">
<polygon fill="none" stroke="black" points="158,-145.5 158,-164.5 273,-164.5 273,-145.5 158,-145.5"/>
<text text-anchor="middle" x="215.5" y="-152.5" font-family="Helvetica,sans-Serif" font-size="10.00">System.ModuleHandle</text>
</a>
</g>
</g>
<!-- Node22&#45;&gt;Node20 -->
<g id="edge14" class="edge"><title>Node22&#45;&gt;Node20</title>
<path fill="none" stroke="#9a32cd" stroke-dasharray="5,2" d="M215.5,-135.037C215.5,-122.67 215.5,-107.12 215.5,-97.6273"/>
<polygon fill="#9a32cd" stroke="#9a32cd" points="212,-135.234 215.5,-145.234 219,-135.234 212,-135.234"/>
<text text-anchor="middle" x="248" y="-119" font-family="Helvetica,sans-Serif" font-size="10.00"> ModuleHandle</text>
</g>
<!-- Node22&#45;&gt;Node22 -->
<g id="edge15" class="edge"><title>Node22&#45;&gt;Node22</title>
<path fill="none" stroke="#9a32cd" stroke-dasharray="5,2" d="M283.39,-158.822C288.119,-157.949 291,-156.675 291,-155 291,-152.32 283.624,-150.666 273.107,-150.038"/>
<polygon fill="#9a32cd" stroke="#9a32cd" points="282.661,-155.382 273.107,-159.962 283.432,-162.339 282.661,-155.382"/>
<text text-anchor="middle" x="322" y="-152.5" font-family="Helvetica,sans-Serif" font-size="10.00"> EmptyHandle</text>
</g>
</g>
</svg>
        <g id="navigator" transform="translate(0 0)" fill="#404254">
                <rect fill="#f2f5e9" fill-opacity="0.5" stroke="#606060" stroke-width=".5" x="0" y="0" width="60" height="60"/>
                <use id="zoomplus" xlink:href="#zoomPlus" x="17" y="9" onmousedown="handleZoom(evt,'in')"/>
                <use id="zoomminus" xlink:href="#zoomMin" x="42" y="9" onmousedown="handleZoom(evt,'out')"/>
                <use id="reset" xlink:href="#resetDef" x="30" y="36" onmousedown="handleReset()"/>
                <g id="arrowUp" xlink:href="#dirArrow" transform="translate(30 24)" onmousedown="handlePan(0,-1)">
                  <use xlink:href="#rim" fill="#404040">
                        <set attributeName="fill" to="#808080" begin="arrowUp.mouseover" end="arrowUp.mouseout"/>
                  </use>
                  <path fill="none" stroke="white" stroke-width="1.5" d="M0,-3.0v7 M-2.5,-0.5L0,-3.0L2.5,-0.5"/>
                </g>
                <g id="arrowRight" xlink:href="#dirArrow" transform="rotate(90) translate(36 -43)" onmousedown="handlePan(1,0)">
                  <use xlink:href="#rim" fill="#404040">
                        <set attributeName="fill" to="#808080" begin="arrowRight.mouseover" end="arrowRight.mouseout"/>
                  </use>
                  <path fill="none" stroke="white" stroke-width="1.5" d="M0,-3.0v7 M-2.5,-0.5L0,-3.0L2.5,-0.5"/>
                </g>
                <g id="arrowDown" xlink:href="#dirArrow" transform="rotate(180) translate(-30 -48)" onmousedown="handlePan(0,1)">
                  <use xlink:href="#rim" fill="#404040">
                        <set attributeName="fill" to="#808080" begin="arrowDown.mouseover" end="arrowDown.mouseout"/>
                  </use>
                  <path fill="none" stroke="white" stroke-width="1.5" d="M0,-3.0v7 M-2.5,-0.5L0,-3.0L2.5,-0.5"/>
                </g>
                <g id="arrowLeft" xlink:href="#dirArrow" transform="rotate(270) translate(-36 17)" onmousedown="handlePan(-1,0)">
                  <use xlink:href="#rim" fill="#404040">
                        <set attributeName="fill" to="#808080" begin="arrowLeft.mouseover" end="arrowLeft.mouseout"/>
                  </use>
                  <path fill="none" stroke="white" stroke-width="1.5" d="M0,-3.0v7 M-2.5,-0.5L0,-3.0L2.5,-0.5"/>
                </g>
        </g>
        <svg viewBox="0 0 15 15" width="100%" height="30px" preserveAspectRatio="xMaxYMin meet">
         <g id="arrow_out" transform="scale(0.3 0.3)">
          <a xlink:href="class_system_1_1_reflection_1_1_runtime_constructor_info__coll__graph_org.svg" target="_base">
           <rect id="button" ry="5" rx="5" y="6" x="6" height="38" width="38"
                fill="#f2f5e9" fill-opacity="0.5" stroke="#606060" stroke-width="1.0"/>
           <path id="arrow"
             d="M 11.500037,31.436501 C 11.940474,20.09759 22.043105,11.32322 32.158766,21.979434 L 37.068811,17.246167 C 37.068811,17.246167 37.088388,32 37.088388,32 L 22.160133,31.978069 C 22.160133,31.978069 26.997745,27.140456 26.997745,27.140456 C 18.528582,18.264221 13.291696,25.230495 11.500037,31.436501 z"
             style="fill:#404040;"/>
          </a>
         </g>
        </svg>
</svg>
