<?xml version="1.0" encoding="UTF-8" standalone="no"?>
<!DOCTYPE svg PUBLIC "-//W3C//DTD SVG 1.1//EN"
 "http://www.w3.org/Graphics/SVG/1.1/DTD/svg11.dtd">
<!-- Generated by graphviz version 2.38.0 (20140413.2041)
 -->
<!-- Title: System.Net.CookieException Pages: 1 -->
<svg width="186pt" height="84pt"
 viewBox="0.00 0.00 186.00 84.00" xmlns="http://www.w3.org/2000/svg" xmlns:xlink="http://www.w3.org/1999/xlink">
<g id="graph0" class="graph" transform="scale(1 1) rotate(0) translate(4 80)">
<title>System.Net.CookieException</title>
<!-- Node0 -->
<g id="node1" class="node"><title>Node0</title>
<g id="a_node1"><a xlink:title="The exception that is thrown when an error is made adding a T:System.Net.Cookie to a T:System....">
<polygon fill="#bfbfbf" stroke="black" points="22,-0.5 22,-19.5 167,-19.5 167,-0.5 22,-0.5"/>
<text text-anchor="middle" x="94.5" y="-7.5" font-family="Helvetica,sans-Serif" font-size="10.00">System.Net.CookieException</text>
</a>
</g>
</g>
<!-- Node1 -->
<g id="node2" class="node"><title>Node1</title>
<g id="a_node2"><a xlink:href="class_system_1_1_format_exception.html" target="_top" xlink:title="The exception that is thrown when the format of an argument is invalid, or when a composite format st...">
<polygon fill="none" stroke="red" points="0,-56.5 0,-75.5 91,-75.5 91,-56.5 0,-56.5"/>
<text text-anchor="middle" x="45.5" y="-63.5" font-family="Helvetica,sans-Serif" font-size="10.00">FormatException</text>
</a>
</g>
</g>
<!-- Node1&#45;&gt;Node0 -->
<g id="edge1" class="edge"><title>Node1&#45;&gt;Node0</title>
<path fill="none" stroke="midnightblue" d="M60.5345,-48.4314C69.1222,-38.9673 79.5435,-27.4827 86.5592,-19.7511"/>
<polygon fill="midnightblue" stroke="midnightblue" points="57.7193,-46.3254 53.5914,-56.083 62.9033,-51.0293 57.7193,-46.3254"/>
</g>
<!-- Node4 -->
<g id="node3" class="node"><title>Node4</title>
<g id="a_node3"><a xlink:href="interface_system_1_1_runtime_1_1_serialization_1_1_i_serializable.html" target="_top" xlink:title="Allows an object to control its own serialization and deserialization.">
<polygon fill="none" stroke="red" points="109,-56.5 109,-75.5 178,-75.5 178,-56.5 109,-56.5"/>
<text text-anchor="middle" x="143.5" y="-63.5" font-family="Helvetica,sans-Serif" font-size="10.00">ISerializable</text>
</a>
</g>
</g>
<!-- Node4&#45;&gt;Node0 -->
<g id="edge2" class="edge"><title>Node4&#45;&gt;Node0</title>
<path fill="none" stroke="midnightblue" d="M128.466,-48.4314C119.878,-38.9673 109.457,-27.4827 102.441,-19.7511"/>
<polygon fill="midnightblue" stroke="midnightblue" points="126.097,-51.0293 135.409,-56.083 131.281,-46.3254 126.097,-51.0293"/>
</g>
</g>
</svg>
