<?xml version="1.0" encoding="UTF-8" standalone="no"?>
<!DOCTYPE svg PUBLIC "-//W3C//DTD SVG 1.1//EN"
 "http://www.w3.org/Graphics/SVG/1.1/DTD/svg11.dtd">
<!-- Generated by graphviz version 2.38.0 (20140413.2041)
 -->
<!-- Title: System.Xml.Schema.XmlSchemaException Pages: 1 -->
<svg width="500pt" height="88pt"
 viewBox="0.00 0.00 500.00 88.00" xmlns="http://www.w3.org/2000/svg" xmlns:xlink="http://www.w3.org/1999/xlink">
<g id="graph0" class="graph" transform="scale(1 1) rotate(0) translate(4 84)">
<title>System.Xml.Schema.XmlSchemaException</title>
<!-- Node0 -->
<g id="node1" class="node"><title>Node0</title>
<g id="a_node1"><a xlink:title="Returns detailed information about the schema exception.">
<polygon fill="#bfbfbf" stroke="black" points="130,-24.5 130,-54.5 293,-54.5 293,-24.5 130,-24.5"/>
<text text-anchor="start" x="138" y="-42.5" font-family="Helvetica,sans-Serif" font-size="10.00">System.Xml.Schema.XmlSchema</text>
<text text-anchor="middle" x="211.5" y="-31.5" font-family="Helvetica,sans-Serif" font-size="10.00">Exception</text>
</a>
</g>
</g>
<!-- Node5 -->
<g id="node3" class="node"><title>Node5</title>
<g id="a_node3"><a xlink:href="class_system_1_1_xml_1_1_schema_1_1_xml_schema_inference_exception.html" target="_top" xlink:title="Returns information about errors encountered by the T:System.Xml.Schema.XmlSchemaInference class whil...">
<polygon fill="none" stroke="black" points="329,-49.5 329,-79.5 492,-79.5 492,-49.5 329,-49.5"/>
<text text-anchor="start" x="337" y="-67.5" font-family="Helvetica,sans-Serif" font-size="10.00">System.Xml.Schema.XmlSchema</text>
<text text-anchor="middle" x="410.5" y="-56.5" font-family="Helvetica,sans-Serif" font-size="10.00">InferenceException</text>
</a>
</g>
</g>
<!-- Node0&#45;&gt;Node5 -->
<g id="edge2" class="edge"><title>Node0&#45;&gt;Node5</title>
<path fill="none" stroke="midnightblue" d="M303.215,-51.0121C311.795,-52.1009 320.454,-53.1998 328.93,-54.2753"/>
<polygon fill="midnightblue" stroke="midnightblue" points="303.557,-47.5275 293.196,-49.7406 302.676,-54.4718 303.557,-47.5275"/>
</g>
<!-- Node6 -->
<g id="node4" class="node"><title>Node6</title>
<g id="a_node4"><a xlink:href="class_system_1_1_xml_1_1_schema_1_1_xml_schema_validation_exception.html" target="_top" xlink:title="Represents the exception thrown when XML Schema Definition Language (XSD) schema validation errors an...">
<polygon fill="none" stroke="black" points="329,-0.5 329,-30.5 492,-30.5 492,-0.5 329,-0.5"/>
<text text-anchor="start" x="337" y="-18.5" font-family="Helvetica,sans-Serif" font-size="10.00">System.Xml.Schema.XmlSchema</text>
<text text-anchor="middle" x="410.5" y="-7.5" font-family="Helvetica,sans-Serif" font-size="10.00">ValidationException</text>
</a>
</g>
</g>
<!-- Node0&#45;&gt;Node6 -->
<g id="edge3" class="edge"><title>Node0&#45;&gt;Node6</title>
<path fill="none" stroke="midnightblue" d="M303.215,-28.4484C311.795,-27.4031 320.454,-26.3482 328.93,-25.3157"/>
<polygon fill="midnightblue" stroke="midnightblue" points="302.699,-24.9853 293.196,-29.669 303.546,-31.9339 302.699,-24.9853"/>
</g>
<!-- Node1 -->
<g id="node2" class="node"><title>Node1</title>
<g id="a_node2"><a xlink:href="class_system_1_1_system_exception.html" target="_top" xlink:title="Serves as the base class for system exceptions namespace.">
<polygon fill="none" stroke="red" points="0,-30 0,-49 94,-49 94,-30 0,-30"/>
<text text-anchor="middle" x="47" y="-37" font-family="Helvetica,sans-Serif" font-size="10.00">SystemException</text>
</a>
</g>
</g>
<!-- Node1&#45;&gt;Node0 -->
<g id="edge1" class="edge"><title>Node1&#45;&gt;Node0</title>
<path fill="none" stroke="midnightblue" d="M104.337,-39.5C112.576,-39.5 121.194,-39.5 129.804,-39.5"/>
<polygon fill="midnightblue" stroke="midnightblue" points="104.131,-36.0001 94.1313,-39.5 104.131,-43.0001 104.131,-36.0001"/>
</g>
</g>
</svg>
