<?xml version="1.0" encoding="UTF-8" standalone="no"?>
<!DOCTYPE svg PUBLIC "-//W3C//DTD SVG 1.1//EN"
 "http://www.w3.org/Graphics/SVG/1.1/DTD/svg11.dtd">
<!-- Generated by graphviz version 2.38.0 (20140413.2041)
 -->
<!-- Title: System.Net.Cache.HttpRequestCachePolicy Pages: 1 -->
<svg width="295pt" height="141pt"
 viewBox="0.00 0.00 295.00 141.00" xmlns="http://www.w3.org/2000/svg" xmlns:xlink="http://www.w3.org/1999/xlink">
<g id="graph0" class="graph" transform="scale(1 1) rotate(0) translate(4 137)">
<title>System.Net.Cache.HttpRequestCachePolicy</title>
<!-- Node2 -->
<g id="node1" class="node"><title>Node2</title>
<g id="a_node1"><a xlink:title="Defines an application&#39;s caching requirements for resources obtained by using T:System....">
<polygon fill="#bfbfbf" stroke="black" points="13.5,-0.5 13.5,-30.5 169.5,-30.5 169.5,-0.5 13.5,-0.5"/>
<text text-anchor="start" x="21.5" y="-18.5" font-family="Helvetica,sans-Serif" font-size="10.00">System.Net.Cache.HttpRequest</text>
<text text-anchor="middle" x="91.5" y="-7.5" font-family="Helvetica,sans-Serif" font-size="10.00">CachePolicy</text>
</a>
</g>
</g>
<!-- Node3 -->
<g id="node2" class="node"><title>Node3</title>
<g id="a_node2"><a xlink:href="class_system_1_1_net_1_1_cache_1_1_request_cache_policy.html" target="_top" xlink:title="Defines an application&#39;s caching requirements for resources obtained by using T:System....">
<polygon fill="none" stroke="black" points="0,-107 0,-126 107,-126 107,-107 0,-107"/>
<text text-anchor="middle" x="53.5" y="-114" font-family="Helvetica,sans-Serif" font-size="10.00">RequestCachePolicy</text>
</a>
</g>
</g>
<!-- Node3&#45;&gt;Node2 -->
<g id="edge1" class="edge"><title>Node3&#45;&gt;Node2</title>
<path fill="none" stroke="midnightblue" d="M60.4855,-97.3008C67.845,-78.1274 79.2825,-48.3297 86.0182,-30.7815"/>
<polygon fill="midnightblue" stroke="midnightblue" points="57.1882,-96.1243 56.8722,-106.714 63.7233,-98.6328 57.1882,-96.1243"/>
</g>
<!-- Node4 -->
<g id="node3" class="node"><title>Node4</title>
<g id="a_node3"><a xlink:href="struct_system_1_1_time_span.html" target="_top" xlink:title="Represents a time interval.To browse the .NET Framework source code for this type,...">
<polygon fill="none" stroke="red" points="125,-107 125,-126 222,-126 222,-107 125,-107"/>
<text text-anchor="middle" x="173.5" y="-114" font-family="Helvetica,sans-Serif" font-size="10.00">System.TimeSpan</text>
</a>
</g>
</g>
<!-- Node4&#45;&gt;Node2 -->
<g id="edge2" class="edge"><title>Node4&#45;&gt;Node2</title>
<path fill="none" stroke="#9a32cd" stroke-dasharray="5,2" d="M159.729,-98.8735C143.924,-79.7923 118.268,-48.8171 103.329,-30.7815"/>
<polygon fill="#9a32cd" stroke="#9a32cd" points="157.149,-101.246 166.223,-106.714 162.54,-96.7805 157.149,-101.246"/>
<text text-anchor="middle" x="167" y="-74" font-family="Helvetica,sans-Serif" font-size="10.00"> MaxStale</text>
<text text-anchor="middle" x="167" y="-63" font-family="Helvetica,sans-Serif" font-size="10.00">MinFresh</text>
<text text-anchor="middle" x="167" y="-52" font-family="Helvetica,sans-Serif" font-size="10.00">MaxAge</text>
</g>
<!-- Node4&#45;&gt;Node4 -->
<g id="edge3" class="edge"><title>Node4&#45;&gt;Node4</title>
<path fill="none" stroke="#9a32cd" stroke-dasharray="5,2" d="M232.38,-123.649C237.087,-122.087 240,-119.704 240,-116.5 240,-111.373 232.542,-108.349 222.214,-107.428"/>
<polygon fill="#9a32cd" stroke="#9a32cd" points="231.389,-120.274 222.214,-125.572 232.691,-127.152 231.389,-120.274"/>
<text text-anchor="middle" x="263.5" y="-125" font-family="Helvetica,sans-Serif" font-size="10.00"> MaxValue</text>
<text text-anchor="middle" x="263.5" y="-114" font-family="Helvetica,sans-Serif" font-size="10.00">Zero</text>
<text text-anchor="middle" x="263.5" y="-103" font-family="Helvetica,sans-Serif" font-size="10.00">MinValue</text>
</g>
</g>
</svg>
