<?xml version="1.0" encoding="UTF-8" standalone="no"?>
<!DOCTYPE svg PUBLIC "-//W3C//DTD SVG 1.1//EN"
 "http://www.w3.org/Graphics/SVG/1.1/DTD/svg11.dtd">
<!-- Generated by graphviz version 2.38.0 (20140413.2041)
 -->
<!-- Title: System.UnhandledExceptionEventArgs Pages: 1 -->
<svg width="179pt" height="163pt"
 viewBox="0.00 0.00 178.50 163.00" xmlns="http://www.w3.org/2000/svg" xmlns:xlink="http://www.w3.org/1999/xlink">
<g id="graph0" class="graph" transform="scale(1 1) rotate(0) translate(4 159)">
<title>System.UnhandledExceptionEventArgs</title>
<!-- Node2 -->
<g id="node1" class="node"><title>Node2</title>
<g id="a_node1"><a xlink:title="Provides data for the event that is raised when there is an exception that is not handled in any appl...">
<polygon fill="#bfbfbf" stroke="black" points="0,-0.5 0,-30.5 143,-30.5 143,-0.5 0,-0.5"/>
<text text-anchor="start" x="8" y="-18.5" font-family="Helvetica,sans-Serif" font-size="10.00">System.UnhandledException</text>
<text text-anchor="middle" x="71.5" y="-7.5" font-family="Helvetica,sans-Serif" font-size="10.00">EventArgs</text>
</a>
</g>
</g>
<!-- Node3 -->
<g id="node2" class="node"><title>Node3</title>
<g id="a_node2"><a xlink:href="class_system_1_1_event_args.html" target="_top" xlink:title="Represents the base class for classes that contain event data, and provides a value to use for events...">
<polygon fill="none" stroke="black" points="41,-68.5 41,-87.5 102,-87.5 102,-68.5 41,-68.5"/>
<text text-anchor="middle" x="71.5" y="-75.5" font-family="Helvetica,sans-Serif" font-size="10.00">EventArgs</text>
</a>
</g>
</g>
<!-- Node3&#45;&gt;Node2 -->
<g id="edge1" class="edge"><title>Node3&#45;&gt;Node2</title>
<path fill="none" stroke="midnightblue" d="M71.5,-58.2154C71.5,-49.3565 71.5,-38.9577 71.5,-30.7587"/>
<polygon fill="midnightblue" stroke="midnightblue" points="68.0001,-58.3318 71.5,-68.3318 75.0001,-58.3319 68.0001,-58.3318"/>
</g>
<!-- Node4 -->
<g id="node3" class="node"><title>Node4</title>
<g id="a_node3"><a xlink:href="class_system_1_1_event_args.html" target="_top" xlink:title="Represents the base class for classes that contain event data, and provides a value to use for events...">
<polygon fill="none" stroke="black" points="22.5,-135.5 22.5,-154.5 120.5,-154.5 120.5,-135.5 22.5,-135.5"/>
<text text-anchor="middle" x="71.5" y="-142.5" font-family="Helvetica,sans-Serif" font-size="10.00">System.EventArgs</text>
</a>
</g>
</g>
<!-- Node4&#45;&gt;Node3 -->
<g id="edge2" class="edge"><title>Node4&#45;&gt;Node3</title>
<path fill="none" stroke="#9a32cd" stroke-dasharray="5,2" d="M71.5,-125.037C71.5,-112.67 71.5,-97.1198 71.5,-87.6273"/>
<polygon fill="#9a32cd" stroke="#9a32cd" points="68.0001,-125.234 71.5,-135.234 75.0001,-125.234 68.0001,-125.234"/>
<text text-anchor="middle" x="87.5" y="-109" font-family="Helvetica,sans-Serif" font-size="10.00"> Empty</text>
</g>
<!-- Node4&#45;&gt;Node4 -->
<g id="edge3" class="edge"><title>Node4&#45;&gt;Node4</title>
<path fill="none" stroke="#9a32cd" stroke-dasharray="5,2" d="M130.823,-149.575C135.565,-148.576 138.5,-147.051 138.5,-145 138.5,-141.719 130.986,-139.783 120.58,-139.194"/>
<polygon fill="#9a32cd" stroke="#9a32cd" points="130.091,-146.138 120.58,-150.806 130.927,-153.088 130.091,-146.138"/>
<text text-anchor="middle" x="154.5" y="-142.5" font-family="Helvetica,sans-Serif" font-size="10.00"> Empty</text>
</g>
</g>
</svg>
