<?xml version="1.0" encoding="UTF-8" standalone="no"?>
<!DOCTYPE svg PUBLIC "-//W3C//DTD SVG 1.1//EN"
 "http://www.w3.org/Graphics/SVG/1.1/DTD/svg11.dtd">
<!-- Generated by graphviz version 2.38.0 (20140413.2041)
 -->
<!-- Title: System.Security.Principal.SecurityIdentifier Pages: 1 -->
<svg width="280pt" height="95pt"
 viewBox="0.00 0.00 279.50 95.00" xmlns="http://www.w3.org/2000/svg" xmlns:xlink="http://www.w3.org/1999/xlink">
<g id="graph0" class="graph" transform="scale(1 1) rotate(0) translate(4 91)">
<title>System.Security.Principal.SecurityIdentifier</title>
<!-- Node4 -->
<g id="node1" class="node"><title>Node4</title>
<g id="a_node1"><a xlink:title="Represents a security identifier (SID) and provides marshaling and comparison operations for SIDs.">
<polygon fill="#bfbfbf" stroke="black" points="51.5,-0.5 51.5,-30.5 184.5,-30.5 184.5,-0.5 51.5,-0.5"/>
<text text-anchor="start" x="59.5" y="-18.5" font-family="Helvetica,sans-Serif" font-size="10.00">System.Security.Principal.</text>
<text text-anchor="middle" x="118" y="-7.5" font-family="Helvetica,sans-Serif" font-size="10.00">SecurityIdentifier</text>
</a>
</g>
</g>
<!-- Node5 -->
<g id="node2" class="node"><title>Node5</title>
<g id="a_node2"><a xlink:href="class_system_1_1_security_1_1_principal_1_1_identity_reference.html" target="_top" xlink:title="Represents an identity and is the base class for the T:System.Security.Principal.NTAccount and T:Syst...">
<polygon fill="none" stroke="black" points="0,-67.5 0,-86.5 92,-86.5 92,-67.5 0,-67.5"/>
<text text-anchor="middle" x="46" y="-74.5" font-family="Helvetica,sans-Serif" font-size="10.00">IdentityReference</text>
</a>
</g>
</g>
<!-- Node5&#45;&gt;Node4 -->
<g id="edge1" class="edge"><title>Node5&#45;&gt;Node4</title>
<path fill="none" stroke="midnightblue" d="M64.2463,-60.9215C75.5515,-51.579 89.9725,-39.6616 101.031,-30.523"/>
<polygon fill="midnightblue" stroke="midnightblue" points="61.7948,-58.4069 56.3158,-67.4751 66.2539,-63.8028 61.7948,-58.4069"/>
</g>
<!-- Node6 -->
<g id="node3" class="node"><title>Node6</title>
<g id="a_node3"><a xlink:href="interface_system_1_1_i_comparable.html" target="_top" xlink:title=" ">
<polygon fill="none" stroke="red" points="110.5,-67.5 110.5,-86.5 271.5,-86.5 271.5,-67.5 110.5,-67.5"/>
<text text-anchor="middle" x="191" y="-74.5" font-family="Helvetica,sans-Serif" font-size="10.00">IComparable&lt; SecurityIdentifier &gt;</text>
</a>
</g>
</g>
<!-- Node6&#45;&gt;Node4 -->
<g id="edge2" class="edge"><title>Node6&#45;&gt;Node4</title>
<path fill="none" stroke="midnightblue" d="M172.5,-60.9215C161.038,-51.579 146.417,-39.6616 135.205,-30.523"/>
<polygon fill="midnightblue" stroke="midnightblue" points="170.578,-63.8701 180.541,-67.4751 175.001,-58.4442 170.578,-63.8701"/>
</g>
</g>
</svg>
