<?xml version="1.0" encoding="UTF-8" standalone="no"?>
<!DOCTYPE svg PUBLIC "-//W3C//DTD SVG 1.1//EN"
 "http://www.w3.org/Graphics/SVG/1.1/DTD/svg11.dtd">
<!-- Generated by graphviz version 2.38.0 (20140413.2041)
 -->
<!-- Title: System.Security.Policy.ApplicationTrust Pages: 1 -->
<svg width="934pt" height="140pt"
 viewBox="0.00 0.00 934.00 140.00" xmlns="http://www.w3.org/2000/svg" xmlns:xlink="http://www.w3.org/1999/xlink">
<g id="graph0" class="graph" transform="scale(1 1) rotate(0) translate(4 136)">
<title>System.Security.Policy.ApplicationTrust</title>
<!-- Node3 -->
<g id="node1" class="node"><title>Node3</title>
<g id="a_node1"><a xlink:title="Encapsulates security decisions about an application. This class cannot be inherited.">
<polygon fill="#bfbfbf" stroke="black" points="756,-69 756,-99 926,-99 926,-69 756,-69"/>
<text text-anchor="start" x="764" y="-87" font-family="Helvetica,sans-Serif" font-size="10.00">System.Security.Policy.Application</text>
<text text-anchor="middle" x="841" y="-76" font-family="Helvetica,sans-Serif" font-size="10.00">Trust</text>
</a>
</g>
</g>
<!-- Node4 -->
<g id="node2" class="node"><title>Node4</title>
<g id="a_node2"><a xlink:href="class_system_1_1_security_1_1_policy_1_1_evidence_base.html" target="_top" xlink:title="Provides a base class from which all objects to be used as evidence must derive.">
<polygon fill="none" stroke="black" points="509,-112.5 509,-131.5 587,-131.5 587,-112.5 509,-112.5"/>
<text text-anchor="middle" x="548" y="-119.5" font-family="Helvetica,sans-Serif" font-size="10.00">EvidenceBase</text>
</a>
</g>
</g>
<!-- Node4&#45;&gt;Node3 -->
<g id="edge1" class="edge"><title>Node4&#45;&gt;Node3</title>
<path fill="none" stroke="midnightblue" d="M597.343,-115.998C635.539,-111.222 690.193,-104.316 738,-98 743.848,-97.2274 749.883,-96.4214 755.96,-95.6034"/>
<polygon fill="midnightblue" stroke="midnightblue" points="596.515,-112.574 587.025,-117.286 597.382,-119.52 596.515,-112.574"/>
</g>
<!-- Node5 -->
<g id="node3" class="node"><title>Node5</title>
<g id="a_node3"><a xlink:href="interface_system_1_1_security_1_1_i_security_encodable.html" target="_top" xlink:title="Defines the methods that convert permission object state to and from XML element representation.">
<polygon fill="none" stroke="black" points="497.5,-74.5 497.5,-93.5 598.5,-93.5 598.5,-74.5 497.5,-74.5"/>
<text text-anchor="middle" x="548" y="-81.5" font-family="Helvetica,sans-Serif" font-size="10.00">ISecurityEncodable</text>
</a>
</g>
</g>
<!-- Node5&#45;&gt;Node3 -->
<g id="edge2" class="edge"><title>Node5&#45;&gt;Node3</title>
<path fill="none" stroke="midnightblue" d="M608.86,-84C651.258,-84 708.719,-84 755.741,-84"/>
<polygon fill="midnightblue" stroke="midnightblue" points="608.694,-80.5001 598.694,-84 608.694,-87.5001 608.694,-80.5001"/>
</g>
<!-- Node6 -->
<g id="node4" class="node"><title>Node6</title>
<g id="a_node4"><a xlink:href="interface_system_1_1_collections_1_1_i_list.html" target="_top" xlink:title=" ">
<polygon fill="none" stroke="black" points="468,-14.5 468,-55.5 628,-55.5 628,-14.5 468,-14.5"/>
<text text-anchor="start" x="476" y="-43.5" font-family="Helvetica,sans-Serif" font-size="10.00">System.Collections.IList</text>
<text text-anchor="start" x="476" y="-32.5" font-family="Helvetica,sans-Serif" font-size="10.00">&lt; System.Security.Policy.Strong</text>
<text text-anchor="middle" x="548" y="-21.5" font-family="Helvetica,sans-Serif" font-size="10.00">Name &gt;</text>
</a>
</g>
</g>
<!-- Node6&#45;&gt;Node3 -->
<g id="edge3" class="edge"><title>Node6&#45;&gt;Node3</title>
<path fill="none" stroke="#9a32cd" stroke-dasharray="5,2" d="M638.025,-49.9905C675.487,-56.2985 718.862,-63.6021 755.79,-69.8204"/>
<polygon fill="#9a32cd" stroke="#9a32cd" points="638.575,-46.5339 628.133,-48.3247 637.413,-53.4367 638.575,-46.5339"/>
<text text-anchor="middle" x="692" y="-69" font-family="Helvetica,sans-Serif" font-size="10.00"> FullTrustAssemblies</text>
</g>
<!-- Node7 -->
<g id="node5" class="node"><title>Node7</title>
<g id="a_node5"><a xlink:href="interface_system_1_1_collections_1_1_i_list.html" target="_top" xlink:title="Represents a non&#45;generic collection of objects that can be individually accessed by index.">
<polygon fill="none" stroke="black" points="207,-25.5 207,-44.5 329,-44.5 329,-25.5 207,-25.5"/>
<text text-anchor="middle" x="268" y="-32.5" font-family="Helvetica,sans-Serif" font-size="10.00">System.Collections.IList</text>
</a>
</g>
</g>
<!-- Node7&#45;&gt;Node6 -->
<g id="edge4" class="edge"><title>Node7&#45;&gt;Node6</title>
<path fill="none" stroke="orange" stroke-dasharray="5,2" d="M339.56,-35C378.658,-35 427.383,-35 467.784,-35"/>
<polygon fill="orange" stroke="orange" points="339.322,-31.5001 329.322,-35 339.322,-38.5001 339.322,-31.5001"/>
<text text-anchor="start" x="347" y="-49" font-family="Helvetica,sans-Serif" font-size="10.00"> &lt; System::Security</text>
<text text-anchor="middle" x="398.5" y="-38" font-family="Helvetica,sans-Serif" font-size="10.00">::Policy::StrongName &gt;</text>
</g>
<!-- Node8 -->
<g id="node6" class="node"><title>Node8</title>
<g id="a_node6"><a xlink:href="interface_system_1_1_collections_1_1_i_collection.html" target="_top" xlink:title="Defines size, enumerators, and synchronization methods for all nongeneric collections.">
<polygon fill="none" stroke="black" points="108,-0.5 108,-19.5 170,-19.5 170,-0.5 108,-0.5"/>
<text text-anchor="middle" x="139" y="-7.5" font-family="Helvetica,sans-Serif" font-size="10.00">ICollection</text>
</a>
</g>
</g>
<!-- Node8&#45;&gt;Node7 -->
<g id="edge5" class="edge"><title>Node8&#45;&gt;Node7</title>
<path fill="none" stroke="midnightblue" d="M179.943,-17.8627C192.096,-20.2551 205.591,-22.9115 218.256,-25.4047"/>
<polygon fill="midnightblue" stroke="midnightblue" points="180.585,-14.4221 170.097,-15.9247 179.233,-21.2903 180.585,-14.4221"/>
</g>
<!-- Node9 -->
<g id="node7" class="node"><title>Node9</title>
<g id="a_node7"><a xlink:href="interface_system_1_1_collections_1_1_i_enumerable.html" target="_top" xlink:title="Exposes an enumerator, which supports a simple iteration over a non&#45;generic collection....">
<polygon fill="none" stroke="black" points="0,-22.5 0,-41.5 71,-41.5 71,-22.5 0,-22.5"/>
<text text-anchor="middle" x="35.5" y="-29.5" font-family="Helvetica,sans-Serif" font-size="10.00">IEnumerable</text>
</a>
</g>
</g>
<!-- Node9&#45;&gt;Node7 -->
<g id="edge7" class="edge"><title>Node9&#45;&gt;Node7</title>
<path fill="none" stroke="midnightblue" d="M81.3013,-33.8042C83.9058,-33.8788 86.4866,-33.9451 89,-34 128.238,-34.8574 172.352,-35.1102 206.847,-35.1473"/>
<polygon fill="midnightblue" stroke="midnightblue" points="81.3373,-30.3037 71.2305,-33.4822 81.1135,-37.3001 81.3373,-30.3037"/>
</g>
<!-- Node9&#45;&gt;Node8 -->
<g id="edge6" class="edge"><title>Node9&#45;&gt;Node8</title>
<path fill="none" stroke="midnightblue" d="M81.181,-22.3154C90.2219,-20.3558 99.5235,-18.3397 107.916,-16.5207"/>
<polygon fill="midnightblue" stroke="midnightblue" points="80.1783,-18.9514 71.1467,-24.4904 81.6612,-25.7926 80.1783,-18.9514"/>
</g>
</g>
</svg>
