<?xml version="1.0" encoding="UTF-8" standalone="no"?>
<!DOCTYPE svg PUBLIC "-//W3C//DTD SVG 1.1//EN"
 "http://www.w3.org/Graphics/SVG/1.1/DTD/svg11.dtd">
<!-- Generated by graphviz version 2.38.0 (20140413.2041)
 -->
<!-- Title: System.Net.FtpWebResponse Pages: 1 -->
<svg width="157pt" height="140pt"
 viewBox="0.00 0.00 157.00 140.00" xmlns="http://www.w3.org/2000/svg" xmlns:xlink="http://www.w3.org/1999/xlink">
<g id="graph0" class="graph" transform="scale(1 1) rotate(0) translate(4 136)">
<title>System.Net.FtpWebResponse</title>
<!-- Node5 -->
<g id="node1" class="node"><title>Node5</title>
<g id="a_node1"><a xlink:title="Encapsulates a File Transfer Protocol (FTP) server&#39;s response to a request.">
<polygon fill="#bfbfbf" stroke="black" points="0,-0.5 0,-19.5 149,-19.5 149,-0.5 0,-0.5"/>
<text text-anchor="middle" x="74.5" y="-7.5" font-family="Helvetica,sans-Serif" font-size="10.00">System.Net.FtpWebResponse</text>
</a>
</g>
</g>
<!-- Node6 -->
<g id="node2" class="node"><title>Node6</title>
<g id="a_node2"><a xlink:href="class_system_1_1_net_1_1_web_response.html" target="_top" xlink:title="Provides a response from a Uniform Resource Identifier (URI). This is an abstract class.">
<polygon fill="none" stroke="red" points="68.5,-56.5 68.5,-75.5 148.5,-75.5 148.5,-56.5 68.5,-56.5"/>
<text text-anchor="middle" x="108.5" y="-63.5" font-family="Helvetica,sans-Serif" font-size="10.00">WebResponse</text>
</a>
</g>
</g>
<!-- Node6&#45;&gt;Node5 -->
<g id="edge1" class="edge"><title>Node6&#45;&gt;Node5</title>
<path fill="none" stroke="midnightblue" d="M97.5228,-47.5656C91.673,-38.2747 84.7305,-27.2484 80.0099,-19.7511"/>
<polygon fill="midnightblue" stroke="midnightblue" points="94.5956,-49.4855 102.886,-56.083 100.519,-45.7558 94.5956,-49.4855"/>
</g>
<!-- Node9 -->
<g id="node3" class="node"><title>Node9</title>
<g id="a_node3"><a xlink:href="interface_system_1_1_i_disposable.html" target="_top" xlink:title="Provides a mechanism for releasing unmanaged resources.To browse the .NET Framework source code for t...">
<polygon fill="none" stroke="black" points="41,-112.5 41,-131.5 108,-131.5 108,-112.5 41,-112.5"/>
<text text-anchor="middle" x="74.5" y="-119.5" font-family="Helvetica,sans-Serif" font-size="10.00">IDisposable</text>
</a>
</g>
</g>
<!-- Node9&#45;&gt;Node5 -->
<g id="edge3" class="edge"><title>Node9&#45;&gt;Node5</title>
<path fill="none" stroke="midnightblue" d="M66.9438,-102.782C63.9923,-94.725 60.9675,-85.0432 59.5,-76 56.1979,-55.6515 64.7397,-32.1752 70.2514,-19.7585"/>
<polygon fill="midnightblue" stroke="midnightblue" points="63.7436,-104.209 70.6443,-112.249 70.2632,-101.661 63.7436,-104.209"/>
</g>
<!-- Node9&#45;&gt;Node6 -->
<g id="edge2" class="edge"><title>Node9&#45;&gt;Node6</title>
<path fill="none" stroke="midnightblue" d="M85.4772,-103.566C91.327,-94.2747 98.2695,-83.2484 102.99,-75.7511"/>
<polygon fill="midnightblue" stroke="midnightblue" points="82.4808,-101.756 80.1144,-112.083 88.4044,-105.486 82.4808,-101.756"/>
</g>
</g>
</svg>
