<?xml version="1.0" encoding="UTF-8" standalone="no"?>
<!DOCTYPE svg PUBLIC "-//W3C//DTD SVG 1.1//EN"
 "http://www.w3.org/Graphics/SVG/1.1/DTD/svg11.dtd">
<!-- Generated by graphviz version 2.38.0 (20140413.2041)
 -->
<!-- Title: System.Collections.Stack Pages: 1 -->
<svg width="185pt" height="140pt"
 viewBox="0.00 0.00 184.50 140.00" xmlns="http://www.w3.org/2000/svg" xmlns:xlink="http://www.w3.org/1999/xlink">
<g id="graph0" class="graph" transform="scale(1 1) rotate(0) translate(4 136)">
<title>System.Collections.Stack</title>
<!-- Node4 -->
<g id="node1" class="node"><title>Node4</title>
<g id="a_node1"><a xlink:title="Represents a simple last&#45;in&#45;first&#45;out (LIFO) non&#45;generic collection of objects.">
<polygon fill="#bfbfbf" stroke="black" points="0.5,-0.5 0.5,-19.5 130.5,-19.5 130.5,-0.5 0.5,-0.5"/>
<text text-anchor="middle" x="65.5" y="-7.5" font-family="Helvetica,sans-Serif" font-size="10.00">System.Collections.Stack</text>
</a>
</g>
</g>
<!-- Node5 -->
<g id="node2" class="node"><title>Node5</title>
<g id="a_node2"><a xlink:href="interface_system_1_1_collections_1_1_i_collection.html" target="_top" xlink:title="Defines size, enumerators, and synchronization methods for all nongeneric collections.">
<polygon fill="none" stroke="black" points="34.5,-56.5 34.5,-75.5 96.5,-75.5 96.5,-56.5 34.5,-56.5"/>
<text text-anchor="middle" x="65.5" y="-63.5" font-family="Helvetica,sans-Serif" font-size="10.00">ICollection</text>
</a>
</g>
</g>
<!-- Node5&#45;&gt;Node4 -->
<g id="edge1" class="edge"><title>Node5&#45;&gt;Node4</title>
<path fill="none" stroke="midnightblue" d="M65.5,-45.8045C65.5,-36.9102 65.5,-26.7798 65.5,-19.7511"/>
<polygon fill="midnightblue" stroke="midnightblue" points="62.0001,-46.083 65.5,-56.083 69.0001,-46.083 62.0001,-46.083"/>
</g>
<!-- Node6 -->
<g id="node3" class="node"><title>Node6</title>
<g id="a_node3"><a xlink:href="interface_system_1_1_collections_1_1_i_enumerable.html" target="_top" xlink:title="Exposes an enumerator, which supports a simple iteration over a non&#45;generic collection....">
<polygon fill="none" stroke="black" points="0,-112.5 0,-131.5 71,-131.5 71,-112.5 0,-112.5"/>
<text text-anchor="middle" x="35.5" y="-119.5" font-family="Helvetica,sans-Serif" font-size="10.00">IEnumerable</text>
</a>
</g>
</g>
<!-- Node6&#45;&gt;Node4 -->
<g id="edge3" class="edge"><title>Node6&#45;&gt;Node4</title>
<path fill="none" stroke="midnightblue" d="M27.8923,-102.835C23.4469,-89.5041 19.737,-71.1578 25.5,-56 31.2207,-40.9535 44.5337,-27.7254 54.2344,-19.5728"/>
<polygon fill="midnightblue" stroke="midnightblue" points="24.6532,-104.165 31.4482,-112.294 31.2055,-101.702 24.6532,-104.165"/>
</g>
<!-- Node6&#45;&gt;Node5 -->
<g id="edge2" class="edge"><title>Node6&#45;&gt;Node5</title>
<path fill="none" stroke="midnightblue" d="M45.3474,-103.275C50.4748,-94.0454 56.5165,-83.1703 60.6383,-75.7511"/>
<polygon fill="midnightblue" stroke="midnightblue" points="42.2508,-101.642 40.4539,-112.083 48.3699,-105.041 42.2508,-101.642"/>
</g>
<!-- Node7 -->
<g id="node4" class="node"><title>Node7</title>
<g id="a_node4"><a xlink:href="interface_system_1_1_i_cloneable.html" target="_top" xlink:title="Supports cloning, which creates a new instance of a class with the same value as an existing instance...">
<polygon fill="none" stroke="black" points="114.5,-56.5 114.5,-75.5 176.5,-75.5 176.5,-56.5 114.5,-56.5"/>
<text text-anchor="middle" x="145.5" y="-63.5" font-family="Helvetica,sans-Serif" font-size="10.00">ICloneable</text>
</a>
</g>
</g>
<!-- Node7&#45;&gt;Node4 -->
<g id="edge4" class="edge"><title>Node7&#45;&gt;Node4</title>
<path fill="none" stroke="midnightblue" d="M124.199,-50.6221C109.585,-40.7574 90.6732,-27.9919 78.3215,-19.6545"/>
<polygon fill="midnightblue" stroke="midnightblue" points="122.4,-53.6302 132.647,-56.324 126.316,-47.8282 122.4,-53.6302"/>
</g>
</g>
</svg>
