<?xml version="1.0" encoding="UTF-8" standalone="no"?>
<!DOCTYPE svg PUBLIC "-//W3C//DTD SVG 1.1//EN"
 "http://www.w3.org/Graphics/SVG/1.1/DTD/svg11.dtd">
<!-- Generated by graphviz version 2.38.0 (20140413.2041)
 -->
<!-- Title: System.Xml.Schema.XmlSchemaContentModel Pages: 1 -->
<svg width="519pt" height="88pt"
 viewBox="0.00 0.00 519.00 88.00" xmlns="http://www.w3.org/2000/svg" xmlns:xlink="http://www.w3.org/1999/xlink">
<g id="graph0" class="graph" transform="scale(1 1) rotate(0) translate(4 84)">
<title>System.Xml.Schema.XmlSchemaContentModel</title>
<!-- Node0 -->
<g id="node1" class="node"><title>Node0</title>
<g id="a_node1"><a xlink:title="Specifies the order and structure of the child elements of a type.">
<polygon fill="#bfbfbf" stroke="black" points="149,-24.5 149,-54.5 312,-54.5 312,-24.5 149,-24.5"/>
<text text-anchor="start" x="157" y="-42.5" font-family="Helvetica,sans-Serif" font-size="10.00">System.Xml.Schema.XmlSchema</text>
<text text-anchor="middle" x="230.5" y="-31.5" font-family="Helvetica,sans-Serif" font-size="10.00">ContentModel</text>
</a>
</g>
</g>
<!-- Node3 -->
<g id="node3" class="node"><title>Node3</title>
<g id="a_node3"><a xlink:href="class_system_1_1_xml_1_1_schema_1_1_xml_schema_complex_content.html" target="_top" xlink:title="Represents the complexContent element from XML Schema as specified by the World Wide Web Consortium (...">
<polygon fill="none" stroke="black" points="348,-49.5 348,-79.5 511,-79.5 511,-49.5 348,-49.5"/>
<text text-anchor="start" x="356" y="-67.5" font-family="Helvetica,sans-Serif" font-size="10.00">System.Xml.Schema.XmlSchema</text>
<text text-anchor="middle" x="429.5" y="-56.5" font-family="Helvetica,sans-Serif" font-size="10.00">ComplexContent</text>
</a>
</g>
</g>
<!-- Node0&#45;&gt;Node3 -->
<g id="edge2" class="edge"><title>Node0&#45;&gt;Node3</title>
<path fill="none" stroke="midnightblue" d="M322.215,-51.0121C330.795,-52.1009 339.454,-53.1998 347.93,-54.2753"/>
<polygon fill="midnightblue" stroke="midnightblue" points="322.557,-47.5275 312.196,-49.7406 321.676,-54.4718 322.557,-47.5275"/>
</g>
<!-- Node4 -->
<g id="node4" class="node"><title>Node4</title>
<g id="a_node4"><a xlink:href="class_system_1_1_xml_1_1_schema_1_1_xml_schema_simple_content.html" target="_top" xlink:title="Represents the simpleContent element from XML Schema as specified by the World Wide Web Consortium (W...">
<polygon fill="none" stroke="black" points="348,-0.5 348,-30.5 511,-30.5 511,-0.5 348,-0.5"/>
<text text-anchor="start" x="356" y="-18.5" font-family="Helvetica,sans-Serif" font-size="10.00">System.Xml.Schema.XmlSchema</text>
<text text-anchor="middle" x="429.5" y="-7.5" font-family="Helvetica,sans-Serif" font-size="10.00">SimpleContent</text>
</a>
</g>
</g>
<!-- Node0&#45;&gt;Node4 -->
<g id="edge3" class="edge"><title>Node0&#45;&gt;Node4</title>
<path fill="none" stroke="midnightblue" d="M322.215,-28.4484C330.795,-27.4031 339.454,-26.3482 347.93,-25.3157"/>
<polygon fill="midnightblue" stroke="midnightblue" points="321.699,-24.9853 312.196,-29.669 322.546,-31.9339 321.699,-24.9853"/>
</g>
<!-- Node1 -->
<g id="node2" class="node"><title>Node1</title>
<g id="a_node2"><a xlink:href="class_system_1_1_xml_1_1_schema_1_1_xml_schema_annotated.html" target="_top" xlink:title="The base class for any element that can contain annotation elements.">
<polygon fill="none" stroke="red" points="0,-30 0,-49 113,-49 113,-30 0,-30"/>
<text text-anchor="middle" x="56.5" y="-37" font-family="Helvetica,sans-Serif" font-size="10.00">XmlSchemaAnnotated</text>
</a>
</g>
</g>
<!-- Node1&#45;&gt;Node0 -->
<g id="edge1" class="edge"><title>Node1&#45;&gt;Node0</title>
<path fill="none" stroke="midnightblue" d="M123.39,-39.5C131.755,-39.5 140.388,-39.5 148.949,-39.5"/>
<polygon fill="midnightblue" stroke="midnightblue" points="123.344,-36.0001 113.343,-39.5 123.343,-43.0001 123.344,-36.0001"/>
</g>
</g>
</svg>
