<?xml version="1.0" encoding="UTF-8" standalone="no"?>
<!DOCTYPE svg PUBLIC "-//W3C//DTD SVG 1.1//EN"
 "http://www.w3.org/Graphics/SVG/1.1/DTD/svg11.dtd">
<!-- Generated by graphviz version 2.38.0 (20140413.2041)
 -->
<!-- Title: System.Deployment.Internal.Isolation.Manifest.MuiResourceTypeIdIntEntry Pages: 1 -->
<svg width="233pt" height="185pt"
 viewBox="0.00 0.00 233.00 185.00" xmlns="http://www.w3.org/2000/svg" xmlns:xlink="http://www.w3.org/1999/xlink">
<g id="graph0" class="graph" transform="scale(1 1) rotate(0) translate(4 181)">
<title>System.Deployment.Internal.Isolation.Manifest.MuiResourceTypeIdIntEntry</title>
<!-- Node2 -->
<g id="node1" class="node"><title>Node2</title>
<g id="a_node1"><a xlink:title=" ">
<polygon fill="#bfbfbf" stroke="black" points="0,-0.5 0,-41.5 173,-41.5 173,-0.5 0,-0.5"/>
<text text-anchor="start" x="8" y="-29.5" font-family="Helvetica,sans-Serif" font-size="10.00">System.Deployment.Internal.</text>
<text text-anchor="start" x="8" y="-18.5" font-family="Helvetica,sans-Serif" font-size="10.00">Isolation.Manifest.MuiResourceType</text>
<text text-anchor="middle" x="86.5" y="-7.5" font-family="Helvetica,sans-Serif" font-size="10.00">IdIntEntry</text>
</a>
</g>
</g>
<!-- Node3 -->
<g id="node2" class="node"><title>Node3</title>
<g id="a_node2"><a xlink:href="interface_system_1_1_i_disposable.html" target="_top" xlink:title="Provides a mechanism for releasing unmanaged resources.To browse the .NET Framework source code for t...">
<polygon fill="none" stroke="black" points="23,-100.5 23,-119.5 90,-119.5 90,-100.5 23,-100.5"/>
<text text-anchor="middle" x="56.5" y="-107.5" font-family="Helvetica,sans-Serif" font-size="10.00">IDisposable</text>
</a>
</g>
</g>
<!-- Node3&#45;&gt;Node2 -->
<g id="edge1" class="edge"><title>Node3&#45;&gt;Node2</title>
<path fill="none" stroke="midnightblue" d="M62.8366,-90.6238C67.7867,-76.2685 74.6521,-56.3588 79.7136,-41.6805"/>
<polygon fill="midnightblue" stroke="midnightblue" points="59.4374,-89.7453 59.4862,-100.34 66.055,-92.0273 59.4374,-89.7453"/>
</g>
<!-- Node4 -->
<g id="node3" class="node"><title>Node4</title>
<g id="a_node3"><a xlink:href="struct_system_1_1_int_ptr.html" target="_top" xlink:title="A platform&#45;specific type that is used to represent a pointer or a handle.">
<polygon fill="none" stroke="black" points="108,-100.5 108,-119.5 185,-119.5 185,-100.5 108,-100.5"/>
<text text-anchor="middle" x="146.5" y="-107.5" font-family="Helvetica,sans-Serif" font-size="10.00">System.IntPtr</text>
</a>
</g>
</g>
<!-- Node4&#45;&gt;Node2 -->
<g id="edge2" class="edge"><title>Node4&#45;&gt;Node2</title>
<path fill="none" stroke="#9a32cd" stroke-dasharray="5,2" d="M134.69,-91.8757C124.737,-77.4442 110.493,-56.7905 100.073,-41.6805"/>
<polygon fill="#9a32cd" stroke="#9a32cd" points="131.969,-94.095 140.528,-100.34 137.731,-90.1208 131.969,-94.095"/>
<text text-anchor="middle" x="148" y="-74" font-family="Helvetica,sans-Serif" font-size="10.00"> StringIds</text>
<text text-anchor="middle" x="148" y="-63" font-family="Helvetica,sans-Serif" font-size="10.00">IntegerIds</text>
</g>
<!-- Node4&#45;&gt;Node4 -->
<g id="edge4" class="edge"><title>Node4&#45;&gt;Node4</title>
<path fill="none" stroke="#9a32cd" stroke-dasharray="5,2" d="M195.22,-114.263C199.979,-113.403 203,-111.982 203,-110 203,-106.828 195.266,-105.094 185.055,-104.796"/>
<polygon fill="#9a32cd" stroke="#9a32cd" points="194.69,-110.797 185.055,-115.204 195.335,-117.767 194.69,-110.797"/>
<text text-anchor="middle" x="214" y="-107.5" font-family="Helvetica,sans-Serif" font-size="10.00"> Zero</text>
</g>
<!-- Node5 -->
<g id="node4" class="node"><title>Node5</title>
<g id="a_node4"><a xlink:href="interface_system_1_1_runtime_1_1_serialization_1_1_i_serializable.html" target="_top" xlink:title="Allows an object to control its own serialization and deserialization.">
<polygon fill="none" stroke="black" points="112,-157.5 112,-176.5 181,-176.5 181,-157.5 112,-157.5"/>
<text text-anchor="middle" x="146.5" y="-164.5" font-family="Helvetica,sans-Serif" font-size="10.00">ISerializable</text>
</a>
</g>
</g>
<!-- Node5&#45;&gt;Node4 -->
<g id="edge3" class="edge"><title>Node5&#45;&gt;Node4</title>
<path fill="none" stroke="midnightblue" d="M146.5,-147.117C146.5,-137.817 146.5,-127.056 146.5,-119.715"/>
<polygon fill="midnightblue" stroke="midnightblue" points="143,-147.406 146.5,-157.406 150,-147.406 143,-147.406"/>
</g>
</g>
</svg>
