<?xml version="1.0" encoding="UTF-8" standalone="no"?>
<!DOCTYPE svg PUBLIC "-//W3C//DTD SVG 1.1//EN"
 "http://www.w3.org/Graphics/SVG/1.1/DTD/svg11.dtd">
<!-- Generated by graphviz version 2.38.0 (20140413.2041)
 -->
<!-- Title: System.Runtime.Remoting.Messaging.CRMDictionary Pages: 1 -->
<svg width="156pt" height="263pt"
 viewBox="0.00 0.00 155.50 263.00" xmlns="http://www.w3.org/2000/svg" xmlns:xlink="http://www.w3.org/1999/xlink">
<g id="graph0" class="graph" transform="scale(1 1) rotate(0) translate(4 259)">
<title>System.Runtime.Remoting.Messaging.CRMDictionary</title>
<!-- Node0 -->
<g id="node1" class="node"><title>Node0</title>
<g id="a_node1"><a xlink:title=" ">
<polygon fill="#bfbfbf" stroke="black" points="0,-0.5 0,-30.5 137,-30.5 137,-0.5 0,-0.5"/>
<text text-anchor="start" x="8" y="-18.5" font-family="Helvetica,sans-Serif" font-size="10.00">System.Runtime.Remoting.</text>
<text text-anchor="middle" x="68.5" y="-7.5" font-family="Helvetica,sans-Serif" font-size="10.00">Messaging.CRMDictionary</text>
</a>
</g>
</g>
<!-- Node1 -->
<g id="node2" class="node"><title>Node1</title>
<g id="a_node2"><a xlink:href="class_system_1_1_runtime_1_1_remoting_1_1_messaging_1_1_message_dictionary.html" target="_top" xlink:title=" ">
<polygon fill="none" stroke="black" points="18.5,-67.5 18.5,-86.5 118.5,-86.5 118.5,-67.5 18.5,-67.5"/>
<text text-anchor="middle" x="68.5" y="-74.5" font-family="Helvetica,sans-Serif" font-size="10.00">MessageDictionary</text>
</a>
</g>
</g>
<!-- Node1&#45;&gt;Node0 -->
<g id="edge1" class="edge"><title>Node1&#45;&gt;Node0</title>
<path fill="none" stroke="midnightblue" d="M68.5,-57.2349C68.5,-48.5864 68.5,-38.4969 68.5,-30.523"/>
<polygon fill="midnightblue" stroke="midnightblue" points="65.0001,-57.4751 68.5,-67.4751 72.0001,-57.4751 65.0001,-57.4751"/>
</g>
<!-- Node2 -->
<g id="node3" class="node"><title>Node2</title>
<g id="a_node3"><a xlink:href="interface_system_1_1_collections_1_1_i_dictionary.html" target="_top" xlink:title="Represents a nongeneric collection of key/value pairs.">
<polygon fill="none" stroke="black" points="37.5,-123.5 37.5,-142.5 99.5,-142.5 99.5,-123.5 37.5,-123.5"/>
<text text-anchor="middle" x="68.5" y="-130.5" font-family="Helvetica,sans-Serif" font-size="10.00">IDictionary</text>
</a>
</g>
</g>
<!-- Node2&#45;&gt;Node1 -->
<g id="edge2" class="edge"><title>Node2&#45;&gt;Node1</title>
<path fill="none" stroke="midnightblue" d="M68.5,-112.805C68.5,-103.91 68.5,-93.7798 68.5,-86.7511"/>
<polygon fill="midnightblue" stroke="midnightblue" points="65.0001,-113.083 68.5,-123.083 72.0001,-113.083 65.0001,-113.083"/>
</g>
<!-- Node3 -->
<g id="node4" class="node"><title>Node3</title>
<g id="a_node4"><a xlink:href="interface_system_1_1_collections_1_1_i_collection.html" target="_top" xlink:title="Defines size, enumerators, and synchronization methods for all nongeneric collections.">
<polygon fill="none" stroke="black" points="85.5,-179.5 85.5,-198.5 147.5,-198.5 147.5,-179.5 85.5,-179.5"/>
<text text-anchor="middle" x="116.5" y="-186.5" font-family="Helvetica,sans-Serif" font-size="10.00">ICollection</text>
</a>
</g>
</g>
<!-- Node3&#45;&gt;Node1 -->
<g id="edge6" class="edge"><title>Node3&#45;&gt;Node1</title>
<path fill="none" stroke="midnightblue" d="M117.095,-168.766C116.815,-155.383 115.02,-137.424 108.5,-123 101.869,-108.332 88.7411,-95.0268 79.3322,-86.753"/>
<polygon fill="midnightblue" stroke="midnightblue" points="113.593,-169.125 117.032,-179.146 120.593,-169.167 113.593,-169.125"/>
</g>
<!-- Node3&#45;&gt;Node2 -->
<g id="edge3" class="edge"><title>Node3&#45;&gt;Node2</title>
<path fill="none" stroke="midnightblue" d="M101.772,-171.431C93.3599,-161.967 83.1513,-150.483 76.2787,-142.751"/>
<polygon fill="midnightblue" stroke="midnightblue" points="99.3142,-173.934 108.574,-179.083 104.546,-169.284 99.3142,-173.934"/>
</g>
<!-- Node4 -->
<g id="node5" class="node"><title>Node4</title>
<g id="a_node5"><a xlink:href="interface_system_1_1_collections_1_1_i_enumerable.html" target="_top" xlink:title="Exposes an enumerator, which supports a simple iteration over a non&#45;generic collection....">
<polygon fill="none" stroke="black" points="22,-235.5 22,-254.5 93,-254.5 93,-235.5 22,-235.5"/>
<text text-anchor="middle" x="57.5" y="-242.5" font-family="Helvetica,sans-Serif" font-size="10.00">IEnumerable</text>
</a>
</g>
</g>
<!-- Node4&#45;&gt;Node1 -->
<g id="edge7" class="edge"><title>Node4&#45;&gt;Node1</title>
<path fill="none" stroke="midnightblue" d="M46.7877,-226.296C33.7358,-202.34 14.9983,-158.512 28.5,-123 34.2207,-107.954 47.5337,-94.7254 57.2344,-86.5728"/>
<polygon fill="midnightblue" stroke="midnightblue" points="43.9164,-228.326 51.9227,-235.265 49.9911,-224.847 43.9164,-228.326"/>
</g>
<!-- Node4&#45;&gt;Node2 -->
<g id="edge5" class="edge"><title>Node4&#45;&gt;Node2</title>
<path fill="none" stroke="midnightblue" d="M59.3652,-225.348C61.7746,-201.254 65.8692,-160.308 67.6409,-142.591"/>
<polygon fill="midnightblue" stroke="midnightblue" points="55.8756,-225.07 58.3632,-235.368 62.8409,-225.766 55.8756,-225.07"/>
</g>
<!-- Node4&#45;&gt;Node3 -->
<g id="edge4" class="edge"><title>Node4&#45;&gt;Node3</title>
<path fill="none" stroke="midnightblue" d="M74.3945,-228.537C84.9145,-218.909 98.0687,-206.869 106.848,-198.834"/>
<polygon fill="midnightblue" stroke="midnightblue" points="71.9931,-225.99 66.9794,-235.324 76.7192,-231.154 71.9931,-225.99"/>
</g>
</g>
</svg>
