<?xml version="1.0" encoding="UTF-8" standalone="no"?>
<!DOCTYPE svg PUBLIC "-//W3C//DTD SVG 1.1//EN"
 "http://www.w3.org/Graphics/SVG/1.1/DTD/svg11.dtd">
<!-- Generated by graphviz version 2.38.0 (20140413.2041)
 -->
<!-- Title: System.Reflection.Emit.MethodBuilder Pages: 1 -->
<svg width="463pt" height="221pt"
 viewBox="0.00 0.00 463.00 221.00" xmlns="http://www.w3.org/2000/svg" xmlns:xlink="http://www.w3.org/1999/xlink">
<g id="graph0" class="graph" transform="scale(1 1) rotate(0) translate(4 217)">
<title>System.Reflection.Emit.MethodBuilder</title>
<!-- Node9 -->
<g id="node1" class="node"><title>Node9</title>
<g id="a_node1"><a xlink:title="Defines and represents a method (or constructor) on a dynamic class.">
<polygon fill="#bfbfbf" stroke="black" points="300,-83 300,-113 455,-113 455,-83 300,-83"/>
<text text-anchor="start" x="308" y="-101" font-family="Helvetica,sans-Serif" font-size="10.00">System.Reflection.Emit.Method</text>
<text text-anchor="middle" x="377.5" y="-90" font-family="Helvetica,sans-Serif" font-size="10.00">Builder</text>
</a>
</g>
</g>
<!-- Node10 -->
<g id="node2" class="node"><title>Node10</title>
<g id="a_node2"><a xlink:href="class_system_1_1_reflection_1_1_method_info.html" target="_top" xlink:title="Discovers the attributes of a method and provides access to method metadata.">
<polygon fill="none" stroke="red" points="35.5,-193.5 35.5,-212.5 99.5,-212.5 99.5,-193.5 35.5,-193.5"/>
<text text-anchor="middle" x="67.5" y="-200.5" font-family="Helvetica,sans-Serif" font-size="10.00">MethodInfo</text>
</a>
</g>
</g>
<!-- Node10&#45;&gt;Node9 -->
<g id="edge1" class="edge"><title>Node10&#45;&gt;Node9</title>
<path fill="none" stroke="midnightblue" d="M109.699,-196.407C153.459,-188.619 224.16,-173.769 282,-151 307.73,-140.872 335.07,-124.899 353.687,-113.134"/>
<polygon fill="midnightblue" stroke="midnightblue" points="108.966,-192.982 99.7141,-198.145 110.166,-199.879 108.966,-192.982"/>
</g>
<!-- Node17 -->
<g id="node3" class="node"><title>Node17</title>
<g id="a_node3"><a xlink:href="interface_system_1_1_runtime_1_1_interop_services_1_1___method_builder.html" target="_top" xlink:title="Exposes the T:System.Reflection.Emit.MethodBuilder class to unmanaged code.">
<polygon fill="none" stroke="black" points="25.5,-155.5 25.5,-174.5 109.5,-174.5 109.5,-155.5 25.5,-155.5"/>
<text text-anchor="middle" x="67.5" y="-162.5" font-family="Helvetica,sans-Serif" font-size="10.00">_MethodBuilder</text>
</a>
</g>
</g>
<!-- Node17&#45;&gt;Node9 -->
<g id="edge2" class="edge"><title>Node17&#45;&gt;Node9</title>
<path fill="none" stroke="midnightblue" d="M119.661,-156.343C163.061,-148.72 226.873,-136.856 282,-124 295.92,-120.754 310.879,-116.839 324.697,-113.043"/>
<polygon fill="midnightblue" stroke="midnightblue" points="118.881,-152.926 109.632,-158.093 120.085,-159.822 118.881,-152.926"/>
</g>
<!-- Node18 -->
<g id="node4" class="node"><title>Node18</title>
<g id="a_node4"><a xlink:href="class_system_1_1_type.html" target="_top" xlink:title="Represents type declarations: class types, interface types, array types, value types,...">
<polygon fill="none" stroke="red" points="30.5,-88.5 30.5,-107.5 104.5,-107.5 104.5,-88.5 30.5,-88.5"/>
<text text-anchor="middle" x="67.5" y="-95.5" font-family="Helvetica,sans-Serif" font-size="10.00">System.Type</text>
</a>
</g>
</g>
<!-- Node18&#45;&gt;Node9 -->
<g id="edge3" class="edge"><title>Node18&#45;&gt;Node9</title>
<path fill="none" stroke="#9a32cd" stroke-dasharray="5,2" d="M115.026,-98C163.971,-98 241.804,-98 299.843,-98"/>
<polygon fill="#9a32cd" stroke="#9a32cd" points="114.737,-94.5001 104.737,-98 114.737,-101.5 114.737,-94.5001"/>
<text text-anchor="middle" x="217.5" y="-112" font-family="Helvetica,sans-Serif" font-size="10.00"> ReflectedType</text>
<text text-anchor="middle" x="217.5" y="-101" font-family="Helvetica,sans-Serif" font-size="10.00">ReturnType</text>
</g>
<!-- Node18&#45;&gt;Node18 -->
<g id="edge4" class="edge"><title>Node18&#45;&gt;Node18</title>
<path fill="none" stroke="#9a32cd" stroke-dasharray="5,2" d="M39.5009,-116.654C40.6712,-121.937 50.0043,-126 67.5,-126 94.1602,-126 101.867,-116.565 90.6194,-107.757"/>
<polygon fill="#9a32cd" stroke="#9a32cd" points="42.6403,-118.208 44.3806,-107.757 36.5029,-114.842 42.6403,-118.208"/>
<text text-anchor="middle" x="67.5" y="-129" font-family="Helvetica,sans-Serif" font-size="10.00"> EmptyTypes</text>
</g>
<!-- Node21 -->
<g id="node5" class="node"><title>Node21</title>
<g id="a_node5"><a xlink:href="interface_system_1_1_reflection_1_1_i_custom_attribute_provider.html" target="_top" xlink:title="Provides custom attributes for reflection objects that support them.">
<polygon fill="none" stroke="black" points="0,-39 0,-69 135,-69 135,-39 0,-39"/>
<text text-anchor="start" x="8" y="-57" font-family="Helvetica,sans-Serif" font-size="10.00">System.Reflection.ICustom</text>
<text text-anchor="middle" x="67.5" y="-46" font-family="Helvetica,sans-Serif" font-size="10.00">AttributeProvider</text>
</a>
</g>
</g>
<!-- Node21&#45;&gt;Node9 -->
<g id="edge5" class="edge"><title>Node21&#45;&gt;Node9</title>
<path fill="none" stroke="#9a32cd" stroke-dasharray="5,2" d="M145.492,-64.0341C186.123,-69.4366 236.796,-76.3432 282,-83 287.834,-83.8592 293.868,-84.7685 299.933,-85.6975"/>
<polygon fill="#9a32cd" stroke="#9a32cd" points="145.761,-60.5392 135.387,-62.6941 144.84,-67.4785 145.761,-60.5392"/>
<text text-anchor="middle" x="217.5" y="-86" font-family="Helvetica,sans-Serif" font-size="10.00"> ReturnTypeCustomAttributes</text>
</g>
<!-- Node22 -->
<g id="node6" class="node"><title>Node22</title>
<g id="a_node6"><a xlink:href="class_system_1_1_reflection_1_1_module.html" target="_top" xlink:title="Performs reflection on a module.">
<polygon fill="none" stroke="red" points="2,-0.5 2,-19.5 133,-19.5 133,-0.5 2,-0.5"/>
<text text-anchor="middle" x="67.5" y="-7.5" font-family="Helvetica,sans-Serif" font-size="10.00">System.Reflection.Module</text>
</a>
</g>
</g>
<!-- Node22&#45;&gt;Node9 -->
<g id="edge6" class="edge"><title>Node22&#45;&gt;Node9</title>
<path fill="none" stroke="#9a32cd" stroke-dasharray="5,2" d="M143.251,-19.2658C184.818,-25.6746 237.071,-35.8299 282,-51 306.305,-59.2064 332.288,-72.4935 350.846,-82.8499"/>
<polygon fill="#9a32cd" stroke="#9a32cd" points="143.606,-15.78 133.197,-17.7563 142.567,-22.7024 143.606,-15.78"/>
<text text-anchor="middle" x="217.5" y="-54" font-family="Helvetica,sans-Serif" font-size="10.00"> Module</text>
</g>
</g>
</svg>
