<?xml version="1.0" encoding="UTF-8" standalone="no"?>
<!DOCTYPE svg PUBLIC "-//W3C//DTD SVG 1.1//EN"
 "http://www.w3.org/Graphics/SVG/1.1/DTD/svg11.dtd">
<!-- Generated by graphviz version 2.38.0 (20140413.2041)
 -->
<!-- Title: System.Threading.Tasks.ContinuationResultTaskFromTask&lt; TResult &gt; Pages: 1 -->
<svg width="352pt" height="151pt"
 viewBox="0.00 0.00 351.50 151.00" xmlns="http://www.w3.org/2000/svg" xmlns:xlink="http://www.w3.org/1999/xlink">
<g id="graph0" class="graph" transform="scale(1 1) rotate(0) translate(4 147)">
<title>System.Threading.Tasks.ContinuationResultTaskFromTask&lt; TResult &gt;</title>
<!-- Node6 -->
<g id="node1" class="node"><title>Node6</title>
<g id="a_node1"><a xlink:title=" ">
<polygon fill="#bfbfbf" stroke="black" points="75,-0.5 75,-30.5 257,-30.5 257,-0.5 75,-0.5"/>
<text text-anchor="start" x="83" y="-18.5" font-family="Helvetica,sans-Serif" font-size="10.00">System.Threading.Tasks.Continuation</text>
<text text-anchor="middle" x="166" y="-7.5" font-family="Helvetica,sans-Serif" font-size="10.00">ResultTaskFromTask&lt; TResult &gt;</text>
</a>
</g>
</g>
<!-- Node7 -->
<g id="node2" class="node"><title>Node7</title>
<g id="a_node2"><a xlink:href="class_system_1_1_threading_1_1_tasks_1_1_task.html" target="_top" xlink:title="Represents an asynchronous operation that can return a value.">
<polygon fill="none" stroke="black" points="121.5,-67.5 121.5,-86.5 210.5,-86.5 210.5,-67.5 121.5,-67.5"/>
<text text-anchor="middle" x="166" y="-74.5" font-family="Helvetica,sans-Serif" font-size="10.00">Task&lt; TResult &gt;</text>
</a>
</g>
</g>
<!-- Node7&#45;&gt;Node6 -->
<g id="edge1" class="edge"><title>Node7&#45;&gt;Node6</title>
<path fill="none" stroke="midnightblue" d="M166,-57.2349C166,-48.5864 166,-38.4969 166,-30.523"/>
<polygon fill="midnightblue" stroke="midnightblue" points="162.5,-57.4751 166,-67.4751 169.5,-57.4751 162.5,-57.4751"/>
</g>
<!-- Node8 -->
<g id="node3" class="node"><title>Node8</title>
<g id="a_node3"><a xlink:title=" ">
<polygon fill="none" stroke="#bfbfbf" points="0,-123.5 0,-142.5 38,-142.5 38,-123.5 0,-123.5"/>
<text text-anchor="middle" x="19" y="-130.5" font-family="Helvetica,sans-Serif" font-size="10.00">Task</text>
</a>
</g>
</g>
<!-- Node8&#45;&gt;Node7 -->
<g id="edge2" class="edge"><title>Node8&#45;&gt;Node7</title>
<path fill="none" stroke="midnightblue" d="M47.7272,-121.447C75.3605,-111.296 116.634,-96.1344 142.402,-86.6685"/>
<polygon fill="midnightblue" stroke="midnightblue" points="46.3975,-118.207 38.2177,-124.94 48.8113,-124.778 46.3975,-118.207"/>
</g>
<!-- Node9 -->
<g id="node4" class="node"><title>Node9</title>
<g id="a_node4"><a xlink:href="interface_system_1_1_threading_1_1_i_thread_pool_work_item.html" target="_top" xlink:title=" ">
<polygon fill="none" stroke="black" points="56,-123.5 56,-142.5 166,-142.5 166,-123.5 56,-123.5"/>
<text text-anchor="middle" x="111" y="-130.5" font-family="Helvetica,sans-Serif" font-size="10.00">IThreadPoolWorkItem</text>
</a>
</g>
</g>
<!-- Node9&#45;&gt;Node7 -->
<g id="edge3" class="edge"><title>Node9&#45;&gt;Node7</title>
<path fill="none" stroke="midnightblue" d="M127.294,-116.002C137.041,-106.433 149.053,-94.6389 157.087,-86.7511"/>
<polygon fill="midnightblue" stroke="midnightblue" points="124.766,-113.58 120.082,-123.083 129.67,-118.575 124.766,-113.58"/>
</g>
<!-- Node10 -->
<g id="node5" class="node"><title>Node10</title>
<g id="a_node5"><a xlink:href="interface_system_1_1_i_async_result.html" target="_top" xlink:title="Represents the status of an asynchronous operation.">
<polygon fill="none" stroke="black" points="184,-123.5 184,-142.5 258,-142.5 258,-123.5 184,-123.5"/>
<text text-anchor="middle" x="221" y="-130.5" font-family="Helvetica,sans-Serif" font-size="10.00">IAsyncResult</text>
</a>
</g>
</g>
<!-- Node10&#45;&gt;Node7 -->
<g id="edge4" class="edge"><title>Node10&#45;&gt;Node7</title>
<path fill="none" stroke="midnightblue" d="M204.706,-116.002C194.959,-106.433 182.947,-94.6389 174.913,-86.7511"/>
<polygon fill="midnightblue" stroke="midnightblue" points="202.33,-118.575 211.918,-123.083 207.234,-113.58 202.33,-118.575"/>
</g>
<!-- Node11 -->
<g id="node6" class="node"><title>Node11</title>
<g id="a_node6"><a xlink:href="interface_system_1_1_i_disposable.html" target="_top" xlink:title="Provides a mechanism for releasing unmanaged resources.To browse the .NET Framework source code for t...">
<polygon fill="none" stroke="black" points="276.5,-123.5 276.5,-142.5 343.5,-142.5 343.5,-123.5 276.5,-123.5"/>
<text text-anchor="middle" x="310" y="-130.5" font-family="Helvetica,sans-Serif" font-size="10.00">IDisposable</text>
</a>
</g>
</g>
<!-- Node11&#45;&gt;Node7 -->
<g id="edge5" class="edge"><title>Node11&#45;&gt;Node7</title>
<path fill="none" stroke="midnightblue" d="M277.749,-119.906C250.676,-109.754 212.683,-95.5063 188.71,-86.5164"/>
<polygon fill="midnightblue" stroke="midnightblue" points="276.591,-123.209 287.183,-123.444 279.048,-116.655 276.591,-123.209"/>
</g>
</g>
</svg>
