<?xml version="1.0" encoding="UTF-8" standalone="no"?>
<!DOCTYPE svg PUBLIC "-//W3C//DTD SVG 1.1//EN"
 "http://www.w3.org/Graphics/SVG/1.1/DTD/svg11.dtd">
<!-- Generated by graphviz version 2.38.0 (20140413.2041)
 -->
<!-- Title: System.Text.EncodingNLS Pages: 1 -->
<svg width="887pt" height="173pt"
 viewBox="0.00 0.00 887.00 173.00" xmlns="http://www.w3.org/2000/svg" xmlns:xlink="http://www.w3.org/1999/xlink">
<g id="graph0" class="graph" transform="scale(1 1) rotate(0) translate(4 169)">
<title>System.Text.EncodingNLS</title>
<!-- Node0 -->
<g id="node1" class="node"><title>Node0</title>
<g id="a_node1"><a xlink:title=" ">
<polygon fill="#bfbfbf" stroke="black" points="191,-38.5 191,-57.5 325,-57.5 325,-38.5 191,-38.5"/>
<text text-anchor="middle" x="258" y="-45.5" font-family="Helvetica,sans-Serif" font-size="10.00">System.Text.EncodingNLS</text>
</a>
</g>
</g>
<!-- Node3 -->
<g id="node4" class="node"><title>Node3</title>
<g id="a_node4"><a xlink:href="class_system_1_1_text_1_1_base_code_page_encoding.html" target="_top" xlink:title=" ">
<polygon fill="none" stroke="black" points="361,-77 361,-107 504,-107 504,-77 361,-77"/>
<text text-anchor="start" x="369" y="-95" font-family="Helvetica,sans-Serif" font-size="10.00">System.Text.BaseCodePage</text>
<text text-anchor="middle" x="432.5" y="-84" font-family="Helvetica,sans-Serif" font-size="10.00">Encoding</text>
</a>
</g>
</g>
<!-- Node0&#45;&gt;Node3 -->
<g id="edge3" class="edge"><title>Node0&#45;&gt;Node3</title>
<path fill="none" stroke="midnightblue" d="M306.148,-60.0261C326.609,-65.2453 350.795,-71.4144 372.437,-76.9346"/>
<polygon fill="midnightblue" stroke="midnightblue" points="306.985,-56.6276 296.43,-57.5473 305.255,-63.4104 306.985,-56.6276"/>
</g>
<!-- Node9 -->
<g id="node10" class="node"><title>Node9</title>
<g id="a_node10"><a xlink:href="class_system_1_1_text_1_1_i_s_c_i_i_encoding.html" target="_top" xlink:title=" ">
<polygon fill="none" stroke="black" points="364.5,-38.5 364.5,-57.5 500.5,-57.5 500.5,-38.5 364.5,-38.5"/>
<text text-anchor="middle" x="432.5" y="-45.5" font-family="Helvetica,sans-Serif" font-size="10.00">System.Text.ISCIIEncoding</text>
</a>
</g>
</g>
<!-- Node0&#45;&gt;Node9 -->
<g id="edge9" class="edge"><title>Node0&#45;&gt;Node9</title>
<path fill="none" stroke="midnightblue" d="M335.224,-48C344.923,-48 354.794,-48 364.336,-48"/>
<polygon fill="midnightblue" stroke="midnightblue" points="335.2,-44.5001 325.2,-48 335.2,-51.5001 335.2,-44.5001"/>
</g>
<!-- Node10 -->
<g id="node11" class="node"><title>Node10</title>
<g id="a_node11"><a xlink:href="class_system_1_1_text_1_1_latin1_encoding.html" target="_top" xlink:title=" ">
<polygon fill="none" stroke="black" points="361.5,-0.5 361.5,-19.5 503.5,-19.5 503.5,-0.5 361.5,-0.5"/>
<text text-anchor="middle" x="432.5" y="-7.5" font-family="Helvetica,sans-Serif" font-size="10.00">System.Text.Latin1Encoding</text>
</a>
</g>
</g>
<!-- Node0&#45;&gt;Node10 -->
<g id="edge10" class="edge"><title>Node0&#45;&gt;Node10</title>
<path fill="none" stroke="midnightblue" d="M312.351,-36.2474C336.742,-30.8742 365.263,-24.5914 388.284,-19.5201"/>
<polygon fill="midnightblue" stroke="midnightblue" points="311.542,-32.8416 302.529,-38.411 313.048,-39.6776 311.542,-32.8416"/>
</g>
<!-- Node1 -->
<g id="node2" class="node"><title>Node1</title>
<g id="a_node2"><a xlink:href="class_system_1_1_text_1_1_encoding.html" target="_top" xlink:title="Represents a character encoding.To browse the .NET Framework source code for this type,...">
<polygon fill="none" stroke="black" points="98,-38.5 98,-57.5 155,-57.5 155,-38.5 98,-38.5"/>
<text text-anchor="middle" x="126.5" y="-45.5" font-family="Helvetica,sans-Serif" font-size="10.00">Encoding</text>
</a>
</g>
</g>
<!-- Node1&#45;&gt;Node0 -->
<g id="edge1" class="edge"><title>Node1&#45;&gt;Node0</title>
<path fill="none" stroke="midnightblue" d="M165.422,-48C173.472,-48 182.194,-48 190.947,-48"/>
<polygon fill="midnightblue" stroke="midnightblue" points="165.281,-44.5001 155.281,-48 165.281,-51.5001 165.281,-44.5001"/>
</g>
<!-- Node2 -->
<g id="node3" class="node"><title>Node2</title>
<g id="a_node3"><a xlink:href="interface_system_1_1_i_cloneable.html" target="_top" xlink:title="Supports cloning, which creates a new instance of a class with the same value as an existing instance...">
<polygon fill="none" stroke="black" points="0,-38.5 0,-57.5 62,-57.5 62,-38.5 0,-38.5"/>
<text text-anchor="middle" x="31" y="-45.5" font-family="Helvetica,sans-Serif" font-size="10.00">ICloneable</text>
</a>
</g>
</g>
<!-- Node2&#45;&gt;Node1 -->
<g id="edge2" class="edge"><title>Node2&#45;&gt;Node1</title>
<path fill="none" stroke="midnightblue" d="M72.1221,-48C80.8474,-48 89.8871,-48 97.992,-48"/>
<polygon fill="midnightblue" stroke="midnightblue" points="72.0987,-44.5001 62.0987,-48 72.0986,-51.5001 72.0987,-44.5001"/>
</g>
<!-- Node4 -->
<g id="node5" class="node"><title>Node4</title>
<g id="a_node5"><a xlink:href="class_system_1_1_text_1_1_d_b_c_s_code_page_encoding.html" target="_top" xlink:title=" ">
<polygon fill="none" stroke="black" points="540,-102 540,-132 687,-132 687,-102 540,-102"/>
<text text-anchor="start" x="548" y="-120" font-family="Helvetica,sans-Serif" font-size="10.00">System.Text.DBCSCodePage</text>
<text text-anchor="middle" x="613.5" y="-109" font-family="Helvetica,sans-Serif" font-size="10.00">Encoding</text>
</a>
</g>
</g>
<!-- Node3&#45;&gt;Node4 -->
<g id="edge4" class="edge"><title>Node3&#45;&gt;Node4</title>
<path fill="none" stroke="midnightblue" d="M514.228,-103.275C522.789,-104.471 531.459,-105.681 539.92,-106.863"/>
<polygon fill="midnightblue" stroke="midnightblue" points="514.634,-99.7976 504.246,-101.881 513.665,-106.73 514.634,-99.7976"/>
</g>
<!-- Node8 -->
<g id="node9" class="node"><title>Node8</title>
<g id="a_node9"><a xlink:href="class_system_1_1_text_1_1_s_b_c_s_code_page_encoding.html" target="_top" xlink:title=" ">
<polygon fill="none" stroke="black" points="540,-53 540,-83 687,-83 687,-53 540,-53"/>
<text text-anchor="start" x="548" y="-71" font-family="Helvetica,sans-Serif" font-size="10.00">System.Text.SBCSCodePage</text>
<text text-anchor="middle" x="613.5" y="-60" font-family="Helvetica,sans-Serif" font-size="10.00">Encoding</text>
</a>
</g>
</g>
<!-- Node3&#45;&gt;Node8 -->
<g id="edge8" class="edge"><title>Node3&#45;&gt;Node8</title>
<path fill="none" stroke="midnightblue" d="M514.228,-81.1762C522.789,-80.0282 531.459,-78.8658 539.92,-77.7314"/>
<polygon fill="midnightblue" stroke="midnightblue" points="513.692,-77.7166 504.246,-82.5146 514.622,-84.6545 513.692,-77.7166"/>
</g>
<!-- Node5 -->
<g id="node6" class="node"><title>Node5</title>
<g id="a_node6"><a xlink:href="class_system_1_1_text_1_1_e_u_c_j_p_encoding.html" target="_top" xlink:title=" ">
<polygon fill="none" stroke="black" points="727.5,-145.5 727.5,-164.5 874.5,-164.5 874.5,-145.5 727.5,-145.5"/>
<text text-anchor="middle" x="801" y="-152.5" font-family="Helvetica,sans-Serif" font-size="10.00">System.Text.EUCJPEncoding</text>
</a>
</g>
</g>
<!-- Node4&#45;&gt;Node5 -->
<g id="edge5" class="edge"><title>Node4&#45;&gt;Node5</title>
<path fill="none" stroke="midnightblue" d="M697.062,-133.913C716.412,-137.877 736.361,-141.963 753.484,-145.471"/>
<polygon fill="midnightblue" stroke="midnightblue" points="697.515,-130.433 687.016,-131.855 696.11,-137.291 697.515,-130.433"/>
</g>
<!-- Node6 -->
<g id="node7" class="node"><title>Node6</title>
<g id="a_node7"><a xlink:href="class_system_1_1_text_1_1_g_b18030_encoding.html" target="_top" xlink:title=" ">
<polygon fill="none" stroke="black" points="723,-107.5 723,-126.5 879,-126.5 879,-107.5 723,-107.5"/>
<text text-anchor="middle" x="801" y="-114.5" font-family="Helvetica,sans-Serif" font-size="10.00">System.Text.GB18030Encoding</text>
</a>
</g>
</g>
<!-- Node4&#45;&gt;Node6 -->
<g id="edge6" class="edge"><title>Node4&#45;&gt;Node6</title>
<path fill="none" stroke="midnightblue" d="M697.052,-117C705.664,-117 714.394,-117 722.941,-117"/>
<polygon fill="midnightblue" stroke="midnightblue" points="697.016,-113.5 687.016,-117 697.016,-120.5 697.016,-113.5"/>
</g>
<!-- Node7 -->
<g id="node8" class="node"><title>Node7</title>
<g id="a_node8"><a xlink:href="class_system_1_1_text_1_1_i_s_o2022_encoding.html" target="_top" xlink:title=" ">
<polygon fill="none" stroke="black" points="724.5,-69.5 724.5,-88.5 877.5,-88.5 877.5,-69.5 724.5,-69.5"/>
<text text-anchor="middle" x="801" y="-76.5" font-family="Helvetica,sans-Serif" font-size="10.00">System.Text.ISO2022Encoding</text>
</a>
</g>
</g>
<!-- Node4&#45;&gt;Node7 -->
<g id="edge7" class="edge"><title>Node4&#45;&gt;Node7</title>
<path fill="none" stroke="midnightblue" d="M697.062,-100.087C716.412,-96.1231 736.361,-92.0366 753.484,-88.5289"/>
<polygon fill="midnightblue" stroke="midnightblue" points="696.11,-96.7092 687.016,-102.145 697.515,-103.567 696.11,-96.7092"/>
</g>
</g>
</svg>
