<?xml version="1.0" encoding="UTF-8" standalone="no"?>
<!DOCTYPE svg PUBLIC "-//W3C//DTD SVG 1.1//EN"
 "http://www.w3.org/Graphics/SVG/1.1/DTD/svg11.dtd">
<!-- Generated by graphviz version 2.38.0 (20140413.2041)
 -->
<!-- Title: Microsoft.Win32.Registry Pages: 1 -->
<svg width="200pt" height="218pt"
 viewBox="0.00 0.00 199.50 218.00" xmlns="http://www.w3.org/2000/svg" xmlns:xlink="http://www.w3.org/1999/xlink">
<g id="graph0" class="graph" transform="scale(1 1) rotate(0) translate(4 214)">
<title>Microsoft.Win32.Registry</title>
<!-- Node1 -->
<g id="node1" class="node"><title>Node1</title>
<g id="a_node1"><a xlink:title="Provides T:Microsoft.Win32.RegistryKey objects that represent the root keys in the Windows registry,...">
<polygon fill="#bfbfbf" stroke="black" points="42,-0.5 42,-19.5 168,-19.5 168,-0.5 42,-0.5"/>
<text text-anchor="middle" x="105" y="-7.5" font-family="Helvetica,sans-Serif" font-size="10.00">Microsoft.Win32.Registry</text>
</a>
</g>
</g>
<!-- Node2 -->
<g id="node2" class="node"><title>Node2</title>
<g id="a_node2"><a xlink:href="class_microsoft_1_1_win32_1_1_registry_key.html" target="_top" xlink:title="Represents a key&#45;level node in the Windows registry. This class is a registry encapsulation.">
<polygon fill="none" stroke="black" points="33.5,-133.5 33.5,-152.5 176.5,-152.5 176.5,-133.5 33.5,-133.5"/>
<text text-anchor="middle" x="105" y="-140.5" font-family="Helvetica,sans-Serif" font-size="10.00">Microsoft.Win32.RegistryKey</text>
</a>
</g>
</g>
<!-- Node2&#45;&gt;Node1 -->
<g id="edge1" class="edge"><title>Node2&#45;&gt;Node1</title>
<path fill="none" stroke="#9a32cd" stroke-dasharray="5,2" d="M105,-123.09C105,-94.3564 105,-40.8221 105,-19.7987"/>
<polygon fill="#9a32cd" stroke="#9a32cd" points="101.5,-123.405 105,-133.405 108.5,-123.405 101.5,-123.405"/>
<text text-anchor="middle" x="143" y="-107" font-family="Helvetica,sans-Serif" font-size="10.00"> Users</text>
<text text-anchor="middle" x="143" y="-96" font-family="Helvetica,sans-Serif" font-size="10.00">CurrentConfig</text>
<text text-anchor="middle" x="143" y="-85" font-family="Helvetica,sans-Serif" font-size="10.00">PerformanceData</text>
<text text-anchor="middle" x="143" y="-74" font-family="Helvetica,sans-Serif" font-size="10.00">CurrentUser</text>
<text text-anchor="middle" x="143" y="-63" font-family="Helvetica,sans-Serif" font-size="10.00">ClassesRoot</text>
<text text-anchor="middle" x="143" y="-52" font-family="Helvetica,sans-Serif" font-size="10.00">LocalMachine</text>
<text text-anchor="middle" x="143" y="-41" font-family="Helvetica,sans-Serif" font-size="10.00">DynData</text>
</g>
<!-- Node3 -->
<g id="node3" class="node"><title>Node3</title>
<g id="a_node3"><a xlink:href="class_system_1_1_marshal_by_ref_object.html" target="_top" xlink:title="Enables access to objects across application domain boundaries in applications that support remoting.">
<polygon fill="none" stroke="black" points="0,-190.5 0,-209.5 106,-209.5 106,-190.5 0,-190.5"/>
<text text-anchor="middle" x="53" y="-197.5" font-family="Helvetica,sans-Serif" font-size="10.00">MarshalByRefObject</text>
</a>
</g>
</g>
<!-- Node3&#45;&gt;Node2 -->
<g id="edge2" class="edge"><title>Node3&#45;&gt;Node2</title>
<path fill="none" stroke="midnightblue" d="M68.0111,-183.123C77.3702,-173.224 89.0574,-160.862 96.7604,-152.715"/>
<polygon fill="midnightblue" stroke="midnightblue" points="65.4519,-180.735 61.125,-190.406 70.5384,-185.544 65.4519,-180.735"/>
</g>
<!-- Node4 -->
<g id="node4" class="node"><title>Node4</title>
<g id="a_node4"><a xlink:href="interface_system_1_1_i_disposable.html" target="_top" xlink:title="Provides a mechanism for releasing unmanaged resources.To browse the .NET Framework source code for t...">
<polygon fill="none" stroke="black" points="124.5,-190.5 124.5,-209.5 191.5,-209.5 191.5,-190.5 124.5,-190.5"/>
<text text-anchor="middle" x="158" y="-197.5" font-family="Helvetica,sans-Serif" font-size="10.00">IDisposable</text>
</a>
</g>
</g>
<!-- Node4&#45;&gt;Node2 -->
<g id="edge3" class="edge"><title>Node4&#45;&gt;Node2</title>
<path fill="none" stroke="midnightblue" d="M142.7,-183.123C133.161,-173.224 121.249,-160.862 113.398,-152.715"/>
<polygon fill="midnightblue" stroke="midnightblue" points="140.26,-185.634 149.719,-190.406 145.3,-180.777 140.26,-185.634"/>
</g>
</g>
</svg>
