<?xml version="1.0" encoding="UTF-8" standalone="no"?>
<!DOCTYPE svg PUBLIC "-//W3C//DTD SVG 1.1//EN"
 "http://www.w3.org/Graphics/SVG/1.1/DTD/svg11.dtd">
<!-- Generated by graphviz version 2.38.0 (20140413.2041)
 -->
<!-- Title: System.Threading.Tasks.TaskSchedulerAwaitTaskContinuation Pages: 1 -->
<svg width="228pt" height="151pt"
 viewBox="0.00 0.00 228.00 151.00" xmlns="http://www.w3.org/2000/svg" xmlns:xlink="http://www.w3.org/1999/xlink">
<g id="graph0" class="graph" transform="scale(1 1) rotate(0) translate(4 147)">
<title>System.Threading.Tasks.TaskSchedulerAwaitTaskContinuation</title>
<!-- Node4 -->
<g id="node1" class="node"><title>Node4</title>
<g id="a_node1"><a xlink:title=" ">
<polygon fill="#bfbfbf" stroke="black" points="25.5,-0.5 25.5,-30.5 184.5,-30.5 184.5,-0.5 25.5,-0.5"/>
<text text-anchor="start" x="33.5" y="-18.5" font-family="Helvetica,sans-Serif" font-size="10.00">System.Threading.Tasks.Task</text>
<text text-anchor="middle" x="105" y="-7.5" font-family="Helvetica,sans-Serif" font-size="10.00">SchedulerAwaitTaskContinuation</text>
</a>
</g>
</g>
<!-- Node5 -->
<g id="node2" class="node"><title>Node5</title>
<g id="a_node2"><a xlink:href="class_system_1_1_threading_1_1_tasks_1_1_await_task_continuation.html" target="_top" xlink:title=" ">
<polygon fill="none" stroke="black" points="47,-67.5 47,-86.5 163,-86.5 163,-67.5 47,-67.5"/>
<text text-anchor="middle" x="105" y="-74.5" font-family="Helvetica,sans-Serif" font-size="10.00">AwaitTaskContinuation</text>
</a>
</g>
</g>
<!-- Node5&#45;&gt;Node4 -->
<g id="edge1" class="edge"><title>Node5&#45;&gt;Node4</title>
<path fill="none" stroke="midnightblue" d="M105,-57.2349C105,-48.5864 105,-38.4969 105,-30.523"/>
<polygon fill="midnightblue" stroke="midnightblue" points="101.5,-57.4751 105,-67.4751 108.5,-57.4751 101.5,-57.4751"/>
</g>
<!-- Node6 -->
<g id="node3" class="node"><title>Node6</title>
<g id="a_node3"><a xlink:href="class_system_1_1_threading_1_1_tasks_1_1_task_continuation.html" target="_top" xlink:title=" ">
<polygon fill="none" stroke="black" points="0,-123.5 0,-142.5 92,-142.5 92,-123.5 0,-123.5"/>
<text text-anchor="middle" x="46" y="-130.5" font-family="Helvetica,sans-Serif" font-size="10.00">TaskContinuation</text>
</a>
</g>
</g>
<!-- Node6&#45;&gt;Node5 -->
<g id="edge2" class="edge"><title>Node6&#45;&gt;Node5</title>
<path fill="none" stroke="midnightblue" d="M62.8945,-116.537C73.4145,-106.909 86.5687,-94.8694 95.3481,-86.8339"/>
<polygon fill="midnightblue" stroke="midnightblue" points="60.4931,-113.99 55.4794,-123.324 65.2192,-119.154 60.4931,-113.99"/>
</g>
<!-- Node7 -->
<g id="node4" class="node"><title>Node7</title>
<g id="a_node4"><a xlink:href="interface_system_1_1_threading_1_1_i_thread_pool_work_item.html" target="_top" xlink:title=" ">
<polygon fill="none" stroke="black" points="110,-123.5 110,-142.5 220,-142.5 220,-123.5 110,-123.5"/>
<text text-anchor="middle" x="165" y="-130.5" font-family="Helvetica,sans-Serif" font-size="10.00">IThreadPoolWorkItem</text>
</a>
</g>
</g>
<!-- Node7&#45;&gt;Node5 -->
<g id="edge3" class="edge"><title>Node7&#45;&gt;Node5</title>
<path fill="none" stroke="midnightblue" d="M147.819,-116.537C137.121,-106.909 123.744,-94.8694 114.815,-86.8339"/>
<polygon fill="midnightblue" stroke="midnightblue" points="145.586,-119.236 155.36,-123.324 150.268,-114.033 145.586,-119.236"/>
</g>
</g>
</svg>
