<?xml version="1.0" encoding="UTF-8" standalone="no"?>
<!DOCTYPE svg PUBLIC "-//W3C//DTD SVG 1.1//EN"
 "http://www.w3.org/Graphics/SVG/1.1/DTD/svg11.dtd">
<!-- Generated by graphviz version 2.38.0 (20140413.2041)
 -->
<!-- Title: System.Security.Cryptography.AsymmetricAlgorithm Pages: 1 -->
<svg width="662pt" height="88pt"
 viewBox="0.00 0.00 662.00 88.00" xmlns="http://www.w3.org/2000/svg" xmlns:xlink="http://www.w3.org/1999/xlink">
<g id="graph0" class="graph" transform="scale(1 1) rotate(0) translate(4 84)">
<title>System.Security.Cryptography.AsymmetricAlgorithm</title>
<!-- Node0 -->
<g id="node1" class="node"><title>Node0</title>
<g id="a_node1"><a xlink:title="Represents the abstract base class from which all implementations of asymmetric algorithms must inher...">
<polygon fill="#bfbfbf" stroke="black" points="103,-22.5 103,-52.5 256,-52.5 256,-22.5 103,-22.5"/>
<text text-anchor="start" x="111" y="-40.5" font-family="Helvetica,sans-Serif" font-size="10.00">System.Security.Cryptography.</text>
<text text-anchor="middle" x="179.5" y="-29.5" font-family="Helvetica,sans-Serif" font-size="10.00">AsymmetricAlgorithm</text>
</a>
</g>
</g>
<!-- Node2 -->
<g id="node3" class="node"><title>Node2</title>
<g id="a_node3"><a xlink:href="class_system_1_1_security_1_1_cryptography_1_1_d_s_a.html" target="_top" xlink:title="Represents the abstract base class from which all implementations of the Digital Signature Algorithm ...">
<polygon fill="none" stroke="black" points="292,-52 292,-71 465,-71 465,-52 292,-52"/>
<text text-anchor="middle" x="378.5" y="-59" font-family="Helvetica,sans-Serif" font-size="10.00">System.Security.Cryptography.DSA</text>
</a>
</g>
</g>
<!-- Node0&#45;&gt;Node2 -->
<g id="edge2" class="edge"><title>Node0&#45;&gt;Node2</title>
<path fill="none" stroke="midnightblue" d="M266.191,-47.9395C277.262,-49.2882 288.552,-50.6637 299.49,-51.9963"/>
<polygon fill="midnightblue" stroke="midnightblue" points="266.452,-44.4455 256.102,-46.7104 265.605,-51.3941 266.452,-44.4455"/>
</g>
<!-- Node4 -->
<g id="node5" class="node"><title>Node4</title>
<g id="a_node5"><a xlink:href="class_system_1_1_security_1_1_cryptography_1_1_r_s_a.html" target="_top" xlink:title="Represents the base class from which all implementations of the T:System.Security....">
<polygon fill="none" stroke="black" points="292,-9 292,-28 465,-28 465,-9 292,-9"/>
<text text-anchor="middle" x="378.5" y="-16" font-family="Helvetica,sans-Serif" font-size="10.00">System.Security.Cryptography.RSA</text>
</a>
</g>
</g>
<!-- Node0&#45;&gt;Node4 -->
<g id="edge4" class="edge"><title>Node0&#45;&gt;Node4</title>
<path fill="none" stroke="midnightblue" d="M266.082,-29.2459C274.649,-28.4196 283.349,-27.5805 291.917,-26.7542"/>
<polygon fill="midnightblue" stroke="midnightblue" points="265.72,-25.7645 256.102,-30.2084 266.392,-32.7322 265.72,-25.7645"/>
</g>
<!-- Node1 -->
<g id="node2" class="node"><title>Node1</title>
<g id="a_node2"><a xlink:href="interface_system_1_1_i_disposable.html" target="_top" xlink:title="Provides a mechanism for releasing unmanaged resources.To browse the .NET Framework source code for t...">
<polygon fill="none" stroke="black" points="0,-28 0,-47 67,-47 67,-28 0,-28"/>
<text text-anchor="middle" x="33.5" y="-35" font-family="Helvetica,sans-Serif" font-size="10.00">IDisposable</text>
</a>
</g>
</g>
<!-- Node1&#45;&gt;Node0 -->
<g id="edge1" class="edge"><title>Node1&#45;&gt;Node0</title>
<path fill="none" stroke="midnightblue" d="M77.3832,-37.5C85.4367,-37.5 94.0747,-37.5 102.785,-37.5"/>
<polygon fill="midnightblue" stroke="midnightblue" points="77.1759,-34.0001 67.1758,-37.5 77.1758,-41.0001 77.1759,-34.0001"/>
</g>
<!-- Node3 -->
<g id="node4" class="node"><title>Node3</title>
<g id="a_node4"><a xlink:href="class_system_1_1_security_1_1_cryptography_1_1_d_s_a_crypto_service_provider.html" target="_top" xlink:title="Defines a wrapper object to access the cryptographic service provider (CSP) implementation of the T:S...">
<polygon fill="none" stroke="black" points="501,-49.5 501,-79.5 654,-79.5 654,-49.5 501,-49.5"/>
<text text-anchor="start" x="509" y="-67.5" font-family="Helvetica,sans-Serif" font-size="10.00">System.Security.Cryptography.</text>
<text text-anchor="middle" x="577.5" y="-56.5" font-family="Helvetica,sans-Serif" font-size="10.00">DSACryptoServiceProvider</text>
</a>
</g>
</g>
<!-- Node2&#45;&gt;Node3 -->
<g id="edge3" class="edge"><title>Node2&#45;&gt;Node3</title>
<path fill="none" stroke="midnightblue" d="M475.168,-62.9569C483.815,-63.0886 492.49,-63.2207 500.928,-63.3492"/>
<polygon fill="midnightblue" stroke="midnightblue" points="475.1,-59.4555 465.048,-62.8028 474.993,-66.4547 475.1,-59.4555"/>
</g>
<!-- Node5 -->
<g id="node6" class="node"><title>Node5</title>
<g id="a_node6"><a xlink:href="class_system_1_1_security_1_1_cryptography_1_1_r_s_a_crypto_service_provider.html" target="_top" xlink:title="Performs asymmetric encryption and decryption using the implementation of the T:System....">
<polygon fill="none" stroke="black" points="501,-0.5 501,-30.5 654,-30.5 654,-0.5 501,-0.5"/>
<text text-anchor="start" x="509" y="-18.5" font-family="Helvetica,sans-Serif" font-size="10.00">System.Security.Cryptography.</text>
<text text-anchor="middle" x="577.5" y="-7.5" font-family="Helvetica,sans-Serif" font-size="10.00">RSACryptoServiceProvider</text>
</a>
</g>
</g>
<!-- Node4&#45;&gt;Node5 -->
<g id="edge5" class="edge"><title>Node4&#45;&gt;Node5</title>
<path fill="none" stroke="midnightblue" d="M475.168,-17.0431C483.815,-16.9114 492.49,-16.7793 500.928,-16.6508"/>
<polygon fill="midnightblue" stroke="midnightblue" points="474.993,-13.5453 465.048,-17.1972 475.1,-20.5445 474.993,-13.5453"/>
</g>
</g>
</svg>
