<?xml version="1.0" encoding="UTF-8" standalone="no"?>
<!DOCTYPE svg PUBLIC "-//W3C//DTD SVG 1.1//EN"
 "http://www.w3.org/Graphics/SVG/1.1/DTD/svg11.dtd">
<!-- Generated by graphviz version 2.38.0 (20140413.2041)
 -->
<!-- Title: System.Security.Permissions.ZoneIdentityPermission Pages: 1 -->
<svg width="263pt" height="207pt"
 viewBox="0.00 0.00 263.00 207.00" xmlns="http://www.w3.org/2000/svg" xmlns:xlink="http://www.w3.org/1999/xlink">
<g id="graph0" class="graph" transform="scale(1 1) rotate(0) translate(4 203)">
<title>System.Security.Permissions.ZoneIdentityPermission</title>
<!-- Node6 -->
<g id="node1" class="node"><title>Node6</title>
<g id="a_node1"><a xlink:title="Defines the identity permission for the zone from which the code originates. This class cannot be inh...">
<polygon fill="#bfbfbf" stroke="black" points="70,-0.5 70,-30.5 219,-30.5 219,-0.5 70,-0.5"/>
<text text-anchor="start" x="78" y="-18.5" font-family="Helvetica,sans-Serif" font-size="10.00">System.Security.Permissions.</text>
<text text-anchor="middle" x="144.5" y="-7.5" font-family="Helvetica,sans-Serif" font-size="10.00">ZoneIdentityPermission</text>
</a>
</g>
</g>
<!-- Node7 -->
<g id="node2" class="node"><title>Node7</title>
<g id="a_node2"><a xlink:href="class_system_1_1_security_1_1_code_access_permission.html" target="_top" xlink:title="Defines the underlying structure of all code access permissions.">
<polygon fill="none" stroke="black" points="21,-67.5 21,-86.5 142,-86.5 142,-67.5 21,-67.5"/>
<text text-anchor="middle" x="81.5" y="-74.5" font-family="Helvetica,sans-Serif" font-size="10.00">CodeAccessPermission</text>
</a>
</g>
</g>
<!-- Node7&#45;&gt;Node6 -->
<g id="edge1" class="edge"><title>Node7&#45;&gt;Node6</title>
<path fill="none" stroke="midnightblue" d="M98.0505,-60.369C107.851,-51.1127 120.166,-39.4824 129.652,-30.523"/>
<polygon fill="midnightblue" stroke="midnightblue" points="95.3933,-58.0643 90.5264,-67.4751 100.2,-63.1534 95.3933,-58.0643"/>
</g>
<!-- Node8 -->
<g id="node3" class="node"><title>Node8</title>
<g id="a_node3"><a xlink:href="interface_system_1_1_security_1_1_i_permission.html" target="_top" xlink:title="Defines methods implemented by permission types.">
<polygon fill="none" stroke="black" points="47.5,-123.5 47.5,-142.5 115.5,-142.5 115.5,-123.5 47.5,-123.5"/>
<text text-anchor="middle" x="81.5" y="-130.5" font-family="Helvetica,sans-Serif" font-size="10.00">IPermission</text>
</a>
</g>
</g>
<!-- Node8&#45;&gt;Node7 -->
<g id="edge2" class="edge"><title>Node8&#45;&gt;Node7</title>
<path fill="none" stroke="midnightblue" d="M81.5,-112.805C81.5,-103.91 81.5,-93.7798 81.5,-86.7511"/>
<polygon fill="midnightblue" stroke="midnightblue" points="78.0001,-113.083 81.5,-123.083 85.0001,-113.083 78.0001,-113.083"/>
</g>
<!-- Node9 -->
<g id="node4" class="node"><title>Node9</title>
<g id="a_node4"><a xlink:href="interface_system_1_1_security_1_1_i_security_encodable.html" target="_top" xlink:title="Defines the methods that convert permission object state to and from XML element representation.">
<polygon fill="none" stroke="black" points="0,-179.5 0,-198.5 101,-198.5 101,-179.5 0,-179.5"/>
<text text-anchor="middle" x="50.5" y="-186.5" font-family="Helvetica,sans-Serif" font-size="10.00">ISecurityEncodable</text>
</a>
</g>
</g>
<!-- Node9&#45;&gt;Node7 -->
<g id="edge4" class="edge"><title>Node9&#45;&gt;Node7</title>
<path fill="none" stroke="midnightblue" d="M41.876,-169.817C36.7929,-156.477 32.4342,-138.128 38.5,-123 44.6127,-107.755 58.6257,-94.7492 69.0025,-86.698"/>
<polygon fill="midnightblue" stroke="midnightblue" points="38.7738,-171.465 45.9226,-179.284 45.2105,-168.713 38.7738,-171.465"/>
</g>
<!-- Node9&#45;&gt;Node8 -->
<g id="edge3" class="edge"><title>Node9&#45;&gt;Node8</title>
<path fill="none" stroke="midnightblue" d="M60.6756,-170.275C65.9739,-161.045 72.217,-150.17 76.4762,-142.751"/>
<polygon fill="midnightblue" stroke="midnightblue" points="57.5624,-168.668 55.619,-179.083 63.6331,-172.153 57.5624,-168.668"/>
</g>
<!-- Node10 -->
<g id="node5" class="node"><title>Node10</title>
<g id="a_node5"><a xlink:href="interface_system_1_1_security_1_1_i_stack_walk.html" target="_top" xlink:title="Manages the stack walk that determines whether all callers in the call stack have the required permis...">
<polygon fill="none" stroke="black" points="134,-123.5 134,-142.5 201,-142.5 201,-123.5 134,-123.5"/>
<text text-anchor="middle" x="167.5" y="-130.5" font-family="Helvetica,sans-Serif" font-size="10.00">IStackWalk</text>
</a>
</g>
</g>
<!-- Node10&#45;&gt;Node7 -->
<g id="edge5" class="edge"><title>Node10&#45;&gt;Node7</title>
<path fill="none" stroke="midnightblue" d="M145.045,-117.901C129.276,-107.999 108.686,-95.0705 95.2831,-86.6545"/>
<polygon fill="midnightblue" stroke="midnightblue" points="143.352,-120.97 153.683,-123.324 147.075,-115.042 143.352,-120.97"/>
</g>
<!-- Node11 -->
<g id="node6" class="node"><title>Node11</title>
<g id="a_node6"><a xlink:href="interface_system_1_1_security_1_1_permissions_1_1_i_built_in_permission.html" target="_top" xlink:title=" ">
<polygon fill="none" stroke="black" points="160,-67.5 160,-86.5 255,-86.5 255,-67.5 160,-67.5"/>
<text text-anchor="middle" x="207.5" y="-74.5" font-family="Helvetica,sans-Serif" font-size="10.00">IBuiltInPermission</text>
</a>
</g>
</g>
<!-- Node11&#45;&gt;Node6 -->
<g id="edge6" class="edge"><title>Node11&#45;&gt;Node6</title>
<path fill="none" stroke="midnightblue" d="M190.95,-60.369C181.149,-51.1127 168.834,-39.4824 159.348,-30.523"/>
<polygon fill="midnightblue" stroke="midnightblue" points="188.8,-63.1534 198.474,-67.4751 193.607,-58.0643 188.8,-63.1534"/>
</g>
</g>
</svg>
