<?xml version="1.0" encoding="UTF-8" standalone="no"?>
<!DOCTYPE svg PUBLIC "-//W3C//DTD SVG 1.1//EN"
 "http://www.w3.org/Graphics/SVG/1.1/DTD/svg11.dtd">
<!-- Generated by graphviz version 2.38.0 (20140413.2041)
 -->
<!-- Title: System.Runtime.Remoting.Messaging.MethodResponse Pages: 1 -->
<svg width="270pt" height="274pt"
 viewBox="0.00 0.00 270.12 274.00" xmlns="http://www.w3.org/2000/svg" xmlns:xlink="http://www.w3.org/1999/xlink">
<g id="graph0" class="graph" transform="scale(1 1) rotate(0) translate(4 270)">
<title>System.Runtime.Remoting.Messaging.MethodResponse</title>
<!-- Node0 -->
<g id="node1" class="node"><title>Node0</title>
<g id="a_node1"><a xlink:title="Implements the T:System.Runtime.Remoting.Messaging.IMethodReturnMessage interface to create a message...">
<polygon fill="#bfbfbf" stroke="black" points="49.1244,-67.5 49.1244,-97.5 192.124,-97.5 192.124,-67.5 49.1244,-67.5"/>
<text text-anchor="start" x="57.1244" y="-85.5" font-family="Helvetica,sans-Serif" font-size="10.00">System.Runtime.Remoting.</text>
<text text-anchor="middle" x="120.624" y="-74.5" font-family="Helvetica,sans-Serif" font-size="10.00">Messaging.MethodResponse</text>
</a>
</g>
</g>
<!-- Node5 -->
<g id="node6" class="node"><title>Node5</title>
<g id="a_node6"><a xlink:href="class_system_1_1_runtime_1_1_remoting_1_1_messaging_1_1_construction_response.html" target="_top" xlink:title="Implements the T:System.Runtime.Remoting.Activation.IConstructionReturnMessage interface to create a ...">
<polygon fill="none" stroke="black" points="38.1244,-0.5 38.1244,-30.5 203.124,-30.5 203.124,-0.5 38.1244,-0.5"/>
<text text-anchor="start" x="46.1244" y="-18.5" font-family="Helvetica,sans-Serif" font-size="10.00">System.Runtime.Remoting.</text>
<text text-anchor="middle" x="120.624" y="-7.5" font-family="Helvetica,sans-Serif" font-size="10.00">Messaging.ConstructionResponse</text>
</a>
</g>
</g>
<!-- Node0&#45;&gt;Node5 -->
<g id="edge8" class="edge"><title>Node0&#45;&gt;Node5</title>
<path fill="none" stroke="midnightblue" d="M120.624,-57.1081C120.624,-48.1539 120.624,-38.3227 120.624,-30.5765"/>
<polygon fill="midnightblue" stroke="midnightblue" points="117.124,-57.3959 120.624,-67.396 124.124,-57.396 117.124,-57.3959"/>
</g>
<!-- Node1 -->
<g id="node2" class="node"><title>Node1</title>
<g id="a_node2"><a xlink:href="interface_system_1_1_runtime_1_1_remoting_1_1_messaging_1_1_i_method_return_message.html" target="_top" xlink:title="Defines the method call return message interface.">
<polygon fill="none" stroke="black" points="17.1244,-134.5 17.1244,-153.5 136.124,-153.5 136.124,-134.5 17.1244,-134.5"/>
<text text-anchor="middle" x="76.6244" y="-141.5" font-family="Helvetica,sans-Serif" font-size="10.00">IMethodReturnMessage</text>
</a>
</g>
</g>
<!-- Node1&#45;&gt;Node0 -->
<g id="edge1" class="edge"><title>Node1&#45;&gt;Node0</title>
<path fill="none" stroke="midnightblue" d="M89.013,-126.247C95.7133,-117.187 103.894,-106.124 110.254,-97.523"/>
<polygon fill="midnightblue" stroke="midnightblue" points="86.0602,-124.354 82.9285,-134.475 91.6885,-128.516 86.0602,-124.354"/>
</g>
<!-- Node2 -->
<g id="node3" class="node"><title>Node2</title>
<g id="a_node3"><a xlink:href="interface_system_1_1_runtime_1_1_remoting_1_1_messaging_1_1_i_method_message.html" target="_top" xlink:title="Defines the method message interface.">
<polygon fill="none" stroke="black" points="80.1244,-190.5 80.1244,-209.5 171.124,-209.5 171.124,-190.5 80.1244,-190.5"/>
<text text-anchor="middle" x="125.624" y="-197.5" font-family="Helvetica,sans-Serif" font-size="10.00">IMethodMessage</text>
</a>
</g>
</g>
<!-- Node2&#45;&gt;Node0 -->
<g id="edge5" class="edge"><title>Node2&#45;&gt;Node0</title>
<path fill="none" stroke="midnightblue" d="M135.963,-181.073C142.185,-168.107 148.257,-150.108 144.624,-134 141.72,-121.122 135.128,-107.674 129.586,-97.8969"/>
<polygon fill="midnightblue" stroke="midnightblue" points="132.687,-179.781 131.123,-190.26 138.881,-183.044 132.687,-179.781"/>
</g>
<!-- Node2&#45;&gt;Node1 -->
<g id="edge2" class="edge"><title>Node2&#45;&gt;Node1</title>
<path fill="none" stroke="midnightblue" d="M110.59,-182.431C102.002,-172.967 91.5809,-161.483 84.5652,-153.751"/>
<polygon fill="midnightblue" stroke="midnightblue" points="108.221,-185.029 117.533,-190.083 113.405,-180.325 108.221,-185.029"/>
</g>
<!-- Node3 -->
<g id="node4" class="node"><title>Node3</title>
<g id="a_node4"><a xlink:href="interface_system_1_1_runtime_1_1_remoting_1_1_messaging_1_1_i_message.html" target="_top" xlink:title="Contains communication data sent between cooperating message sinks.">
<polygon fill="none" stroke="black" points="22.1244,-246.5 22.1244,-265.5 81.1244,-265.5 81.1244,-246.5 22.1244,-246.5"/>
<text text-anchor="middle" x="51.6244" y="-253.5" font-family="Helvetica,sans-Serif" font-size="10.00">IMessage</text>
</a>
</g>
</g>
<!-- Node3&#45;&gt;Node0 -->
<g id="edge6" class="edge"><title>Node3&#45;&gt;Node0</title>
<path fill="none" stroke="midnightblue" d="M37.0361,-238.907C16.9256,-214.68 -14.4589,-168.057 7.62437,-134 18.9643,-116.511 37.9341,-105.026 57.1236,-97.5044"/>
<polygon fill="midnightblue" stroke="midnightblue" points="34.3909,-241.199 43.5731,-246.484 39.6912,-236.626 34.3909,-241.199"/>
</g>
<!-- Node3&#45;&gt;Node1 -->
<g id="edge4" class="edge"><title>Node3&#45;&gt;Node1</title>
<path fill="none" stroke="midnightblue" d="M55.8634,-236.348C61.3394,-212.254 70.6453,-171.308 74.6718,-153.591"/>
<polygon fill="midnightblue" stroke="midnightblue" points="52.3894,-235.841 53.5861,-246.368 59.2153,-237.393 52.3894,-235.841"/>
</g>
<!-- Node3&#45;&gt;Node2 -->
<g id="edge3" class="edge"><title>Node3&#45;&gt;Node2</title>
<path fill="none" stroke="midnightblue" d="M71.6587,-240.38C85.0335,-230.62 102.183,-218.106 113.519,-209.834"/>
<polygon fill="midnightblue" stroke="midnightblue" points="69.5285,-237.602 63.5138,-246.324 73.6548,-243.257 69.5285,-237.602"/>
</g>
<!-- Node4 -->
<g id="node5" class="node"><title>Node4</title>
<g id="a_node5"><a xlink:href="interface_system_1_1_runtime_1_1_serialization_1_1_i_serializable.html" target="_top" xlink:title="Allows an object to control its own serialization and deserialization.">
<polygon fill="none" stroke="black" points="193.124,-134.5 193.124,-153.5 262.124,-153.5 262.124,-134.5 193.124,-134.5"/>
<text text-anchor="middle" x="227.624" y="-141.5" font-family="Helvetica,sans-Serif" font-size="10.00">ISerializable</text>
</a>
</g>
</g>
<!-- Node4&#45;&gt;Node0 -->
<g id="edge7" class="edge"><title>Node4&#45;&gt;Node0</title>
<path fill="none" stroke="midnightblue" d="M203.423,-129.542C186.246,-119.991 163.243,-107.199 145.842,-97.523"/>
<polygon fill="midnightblue" stroke="midnightblue" points="201.853,-132.674 212.294,-134.475 205.255,-126.556 201.853,-132.674"/>
</g>
</g>
</svg>
