<?xml version="1.0" encoding="UTF-8" standalone="no"?>
<!DOCTYPE svg PUBLIC "-//W3C//DTD SVG 1.1//EN"
 "http://www.w3.org/Graphics/SVG/1.1/DTD/svg11.dtd">
<!-- Generated by graphviz version 2.38.0 (20140413.2041)
 -->
<!-- Title: System.Security.CodeAccessPermission Pages: 1 -->
<!--zoomable 774 -->
<svg id="main" version="1.1" xmlns="http://www.w3.org/2000/svg" xmlns:xlink="http://www.w3.org/1999/xlink" xml:space="preserve" onload="init(evt)">
<style type="text/css"><![CDATA[
.edge:hover path { stroke: red; }
.edge:hover polygon { stroke: red; fill: red; }
]]></style>
<script type="text/javascript"><![CDATA[
var edges = document.getElementsByTagName('g');
if (edges && edges.length) {
  for (var i=0;i<edges.length;i++) {
    if (edges[i].id.substr(0,4)=='edge') {
      edges[i].setAttribute('class','edge');
    }
  }
}
]]></script>
        <defs>
                <circle id="rim" cx="0" cy="0" r="7"/>
                <circle id="rim2" cx="0" cy="0" r="3.5"/>
                <g id="zoomPlus">
                        <use xlink:href="#rim" fill="#404040">
                                <set attributeName="fill" to="#808080" begin="zoomplus.mouseover" end="zoomplus.mouseout"/>
                        </use>
                        <path d="M-4,0h8M0,-4v8" fill="none" stroke="white" stroke-width="1.5" pointer-events="none"/>
                </g>
                <g id="zoomMin">
                        <use xlink:href="#rim" fill="#404040">
                                <set attributeName="fill" to="#808080" begin="zoomminus.mouseover" end="zoomminus.mouseout"/>
                        </use>
                        <path d="M-4,0h8" fill="none" stroke="white" stroke-width="1.5" pointer-events="none"/>
                </g>
                <g id="dirArrow">
                        <path fill="none" stroke="white" stroke-width="1.5" d="M0,-3.0v7 M-2.5,-0.5L0,-3.0L2.5,-0.5"/>
                </g>
               <g id="resetDef">
                       <use xlink:href="#rim2" fill="#404040">
                               <set attributeName="fill" to="#808080" begin="reset.mouseover" end="reset.mouseout"/>
                       </use>
               </g>
        </defs>

<script type="text/javascript">
var viewWidth = 769;
var viewHeight = 774;
var sectionId = 'dynsection-0';
</script>
<script xlink:href="svgpan.js"/>
<svg id="graph" class="graph">
<g id="viewport">
<title>System.Security.CodeAccessPermission</title>
<!-- Node0 -->
<g id="node1" class="node"><title>Node0</title>
<g id="a_node1"><a xlink:title="Defines the underlying structure of all code access permissions.">
<polygon fill="#bfbfbf" stroke="black" points="241,-367.5 241,-397.5 389,-397.5 389,-367.5 241,-367.5"/>
<text text-anchor="start" x="249" y="-385.5" font-family="Helvetica,sans-Serif" font-size="10.00">System.Security.CodeAccess</text>
<text text-anchor="middle" x="315" y="-374.5" font-family="Helvetica,sans-Serif" font-size="10.00">Permission</text>
</a>
</g>
</g>
<!-- Node4 -->
<g id="node5" class="node"><title>Node4</title>
<g id="a_node5"><a xlink:href="class_system_1_1_security_1_1_permissions_1_1_environment_permission.html" target="_top" xlink:title="Controls access to system and user environment variables. This class cannot be inherited.">
<polygon fill="none" stroke="black" points="426,-735.5 426,-765.5 575,-765.5 575,-735.5 426,-735.5"/>
<text text-anchor="start" x="434" y="-753.5" font-family="Helvetica,sans-Serif" font-size="10.00">System.Security.Permissions.</text>
<text text-anchor="middle" x="500.5" y="-742.5" font-family="Helvetica,sans-Serif" font-size="10.00">EnvironmentPermission</text>
</a>
</g>
</g>
<!-- Node0&#45;&gt;Node4 -->
<g id="edge5" class="edge"><title>Node0&#45;&gt;Node4</title>
<path fill="none" stroke="midnightblue" d="M316.589,-407.742C319.426,-470.401 335.491,-634.541 425,-725.5 428.828,-729.39 433.278,-732.674 438.063,-735.448"/>
<polygon fill="midnightblue" stroke="midnightblue" points="320.08,-407.453 316.207,-397.591 313.085,-407.716 320.08,-407.453"/>
</g>
<!-- Node5 -->
<g id="node6" class="node"><title>Node5</title>
<g id="a_node6"><a xlink:href="class_system_1_1_security_1_1_permissions_1_1_file_dialog_permission.html" target="_top" xlink:title="Controls the ability to access files or folders through a File dialog box. This class cannot be inher...">
<polygon fill="none" stroke="black" points="426,-686.5 426,-716.5 575,-716.5 575,-686.5 426,-686.5"/>
<text text-anchor="start" x="434" y="-704.5" font-family="Helvetica,sans-Serif" font-size="10.00">System.Security.Permissions.</text>
<text text-anchor="middle" x="500.5" y="-693.5" font-family="Helvetica,sans-Serif" font-size="10.00">FileDialogPermission</text>
</a>
</g>
</g>
<!-- Node0&#45;&gt;Node5 -->
<g id="edge6" class="edge"><title>Node0&#45;&gt;Node5</title>
<path fill="none" stroke="midnightblue" d="M318.171,-407.937C324.339,-464.334 346.943,-600.846 425,-676.5 429.017,-680.393 433.658,-683.68 438.62,-686.456"/>
<polygon fill="midnightblue" stroke="midnightblue" points="321.632,-407.366 317.145,-397.768 314.667,-408.068 321.632,-407.366"/>
</g>
<!-- Node6 -->
<g id="node7" class="node"><title>Node6</title>
<g id="a_node7"><a xlink:href="class_system_1_1_security_1_1_permissions_1_1_file_i_o_permission.html" target="_top" xlink:title="Controls the ability to access files and folders. This class cannot be inherited.">
<polygon fill="none" stroke="black" points="426,-637.5 426,-667.5 575,-667.5 575,-637.5 426,-637.5"/>
<text text-anchor="start" x="434" y="-655.5" font-family="Helvetica,sans-Serif" font-size="10.00">System.Security.Permissions.</text>
<text text-anchor="middle" x="500.5" y="-644.5" font-family="Helvetica,sans-Serif" font-size="10.00">FileIOPermission</text>
</a>
</g>
</g>
<!-- Node0&#45;&gt;Node6 -->
<g id="edge7" class="edge"><title>Node0&#45;&gt;Node6</title>
<path fill="none" stroke="midnightblue" d="M320.28,-407.726C329.95,-457.025 358.077,-566.641 425,-627.5 429.239,-631.355 434.093,-634.618 439.245,-637.38"/>
<polygon fill="midnightblue" stroke="midnightblue" points="323.67,-406.81 318.394,-397.623 316.789,-408.095 323.67,-406.81"/>
</g>
<!-- Node7 -->
<g id="node8" class="node"><title>Node7</title>
<g id="a_node8"><a xlink:href="class_system_1_1_security_1_1_permissions_1_1_gac_identity_permission.html" target="_top" xlink:title="Defines the identity permission for files originating in the global assembly cache....">
<polygon fill="none" stroke="black" points="426,-588.5 426,-618.5 575,-618.5 575,-588.5 426,-588.5"/>
<text text-anchor="start" x="434" y="-606.5" font-family="Helvetica,sans-Serif" font-size="10.00">System.Security.Permissions.</text>
<text text-anchor="middle" x="500.5" y="-595.5" font-family="Helvetica,sans-Serif" font-size="10.00">GacIdentityPermission</text>
</a>
</g>
</g>
<!-- Node0&#45;&gt;Node7 -->
<g id="edge8" class="edge"><title>Node0&#45;&gt;Node7</title>
<path fill="none" stroke="midnightblue" d="M323.254,-407.304C336.608,-448.703 368.967,-531.922 425,-578.5 429.616,-582.337 434.846,-585.594 440.343,-588.356"/>
<polygon fill="midnightblue" stroke="midnightblue" points="326.586,-406.231 320.266,-397.727 319.904,-408.316 326.586,-406.231"/>
</g>
<!-- Node8 -->
<g id="node9" class="node"><title>Node8</title>
<g id="a_node9"><a xlink:href="class_system_1_1_security_1_1_permissions_1_1_host_protection_permission.html" target="_top" xlink:title=" ">
<polygon fill="none" stroke="black" points="426,-539.5 426,-569.5 575,-569.5 575,-539.5 426,-539.5"/>
<text text-anchor="start" x="434" y="-557.5" font-family="Helvetica,sans-Serif" font-size="10.00">System.Security.Permissions.</text>
<text text-anchor="middle" x="500.5" y="-546.5" font-family="Helvetica,sans-Serif" font-size="10.00">HostProtectionPermission</text>
</a>
</g>
</g>
<!-- Node0&#45;&gt;Node8 -->
<g id="edge9" class="edge"><title>Node0&#45;&gt;Node8</title>
<path fill="none" stroke="midnightblue" d="M328.082,-407.07C345.279,-439.601 379.808,-496.67 425,-529.5 430.298,-533.349 436.229,-536.633 442.368,-539.43"/>
<polygon fill="midnightblue" stroke="midnightblue" points="331.003,-405.099 323.309,-397.816 324.782,-408.308 331.003,-405.099"/>
</g>
<!-- Node9 -->
<g id="node10" class="node"><title>Node9</title>
<g id="a_node10"><a xlink:href="class_system_1_1_security_1_1_permissions_1_1_isolated_storage_permission.html" target="_top" xlink:title="Represents access to generic isolated storage capabilities.">
<polygon fill="none" stroke="black" points="426,-490.5 426,-520.5 575,-520.5 575,-490.5 426,-490.5"/>
<text text-anchor="start" x="434" y="-508.5" font-family="Helvetica,sans-Serif" font-size="10.00">System.Security.Permissions.</text>
<text text-anchor="middle" x="500.5" y="-497.5" font-family="Helvetica,sans-Serif" font-size="10.00">IsolatedStoragePermission</text>
</a>
</g>
</g>
<!-- Node0&#45;&gt;Node9 -->
<g id="edge10" class="edge"><title>Node0&#45;&gt;Node9</title>
<path fill="none" stroke="midnightblue" d="M335.872,-405.092C356.288,-427.072 389.957,-460.06 425,-480.5 431.482,-484.281 438.617,-487.591 445.826,-490.458"/>
<polygon fill="midnightblue" stroke="midnightblue" points="338.3,-402.56 328.972,-397.536 333.131,-407.28 338.3,-402.56"/>
</g>
<!-- Node11 -->
<g id="node12" class="node"><title>Node11</title>
<g id="a_node12"><a xlink:href="class_system_1_1_security_1_1_permissions_1_1_key_container_permission.html" target="_top" xlink:title="Controls the ability to access key containers. This class cannot be inherited.">
<polygon fill="none" stroke="black" points="426,-441.5 426,-471.5 575,-471.5 575,-441.5 426,-441.5"/>
<text text-anchor="start" x="434" y="-459.5" font-family="Helvetica,sans-Serif" font-size="10.00">System.Security.Permissions.</text>
<text text-anchor="middle" x="500.5" y="-448.5" font-family="Helvetica,sans-Serif" font-size="10.00">KeyContainerPermission</text>
</a>
</g>
</g>
<!-- Node0&#45;&gt;Node11 -->
<g id="edge12" class="edge"><title>Node0&#45;&gt;Node11</title>
<path fill="none" stroke="midnightblue" d="M356.861,-402.021C377.149,-411.417 402.15,-422.555 425,-431.5 433.766,-434.931 443.219,-438.329 452.351,-441.462"/>
<polygon fill="midnightblue" stroke="midnightblue" points="358.146,-398.758 347.603,-397.704 355.187,-405.102 358.146,-398.758"/>
</g>
<!-- Node12 -->
<g id="node13" class="node"><title>Node12</title>
<g id="a_node13"><a xlink:href="class_system_1_1_security_1_1_permissions_1_1_publisher_identity_permission.html" target="_top" xlink:title="Represents the identity of a software publisher. This class cannot be inherited.">
<polygon fill="none" stroke="black" points="426,-392.5 426,-422.5 575,-422.5 575,-392.5 426,-392.5"/>
<text text-anchor="start" x="434" y="-410.5" font-family="Helvetica,sans-Serif" font-size="10.00">System.Security.Permissions.</text>
<text text-anchor="middle" x="500.5" y="-399.5" font-family="Helvetica,sans-Serif" font-size="10.00">PublisherIdentityPermission</text>
</a>
</g>
</g>
<!-- Node0&#45;&gt;Node12 -->
<g id="edge13" class="edge"><title>Node0&#45;&gt;Node12</title>
<path fill="none" stroke="midnightblue" d="M399.055,-393.815C407.973,-395.03 417.002,-396.26 425.8,-397.459"/>
<polygon fill="midnightblue" stroke="midnightblue" points="399.432,-390.335 389.051,-392.452 398.487,-397.27 399.432,-390.335"/>
</g>
<!-- Node13 -->
<g id="node14" class="node"><title>Node13</title>
<g id="a_node14"><a xlink:href="class_system_1_1_security_1_1_permissions_1_1_reflection_permission.html" target="_top" xlink:title="Controls access to non&#45;public types and members through the N:System.Reflection APIs....">
<polygon fill="none" stroke="black" points="426,-343.5 426,-373.5 575,-373.5 575,-343.5 426,-343.5"/>
<text text-anchor="start" x="434" y="-361.5" font-family="Helvetica,sans-Serif" font-size="10.00">System.Security.Permissions.</text>
<text text-anchor="middle" x="500.5" y="-350.5" font-family="Helvetica,sans-Serif" font-size="10.00">ReflectionPermission</text>
</a>
</g>
</g>
<!-- Node0&#45;&gt;Node13 -->
<g id="edge14" class="edge"><title>Node0&#45;&gt;Node13</title>
<path fill="none" stroke="midnightblue" d="M399.055,-371.637C407.973,-370.471 417.002,-369.29 425.8,-368.139"/>
<polygon fill="midnightblue" stroke="midnightblue" points="398.513,-368.178 389.051,-372.946 399.421,-375.119 398.513,-368.178"/>
</g>
<!-- Node14 -->
<g id="node15" class="node"><title>Node14</title>
<g id="a_node15"><a xlink:href="class_system_1_1_security_1_1_permissions_1_1_registry_permission.html" target="_top" xlink:title="Controls the ability to access registry variables. This class cannot be inherited.">
<polygon fill="none" stroke="black" points="426,-294.5 426,-324.5 575,-324.5 575,-294.5 426,-294.5"/>
<text text-anchor="start" x="434" y="-312.5" font-family="Helvetica,sans-Serif" font-size="10.00">System.Security.Permissions.</text>
<text text-anchor="middle" x="500.5" y="-301.5" font-family="Helvetica,sans-Serif" font-size="10.00">RegistryPermission</text>
</a>
</g>
</g>
<!-- Node0&#45;&gt;Node14 -->
<g id="edge15" class="edge"><title>Node0&#45;&gt;Node14</title>
<path fill="none" stroke="midnightblue" d="M356.371,-363.065C376.726,-353.596 401.929,-342.37 425,-333.5 432.991,-330.428 441.56,-327.414 449.94,-324.616"/>
<polygon fill="midnightblue" stroke="midnightblue" points="354.661,-360.001 347.092,-367.415 357.632,-366.339 354.661,-360.001"/>
</g>
<!-- Node15 -->
<g id="node16" class="node"><title>Node15</title>
<g id="a_node16"><a xlink:href="class_system_1_1_security_1_1_permissions_1_1_security_permission.html" target="_top" xlink:title="Describes a set of security permissions applied to code. This class cannot be inherited.">
<polygon fill="none" stroke="black" points="426,-245.5 426,-275.5 575,-275.5 575,-245.5 426,-245.5"/>
<text text-anchor="start" x="434" y="-263.5" font-family="Helvetica,sans-Serif" font-size="10.00">System.Security.Permissions.</text>
<text text-anchor="middle" x="500.5" y="-252.5" font-family="Helvetica,sans-Serif" font-size="10.00">SecurityPermission</text>
</a>
</g>
</g>
<!-- Node0&#45;&gt;Node15 -->
<g id="edge16" class="edge"><title>Node0&#45;&gt;Node15</title>
<path fill="none" stroke="midnightblue" d="M335.82,-359.817C356.195,-337.767 389.834,-304.728 425,-284.5 430.89,-281.112 437.32,-278.133 443.857,-275.53"/>
<polygon fill="midnightblue" stroke="midnightblue" points="333.066,-357.643 328.935,-367.4 338.248,-362.349 333.066,-357.643"/>
</g>
<!-- Node16 -->
<g id="node17" class="node"><title>Node16</title>
<g id="a_node17"><a xlink:href="class_system_1_1_security_1_1_permissions_1_1_site_identity_permission.html" target="_top" xlink:title="Defines the identity permission for the Web site from which the code originates. This class cannot be...">
<polygon fill="none" stroke="black" points="426,-196.5 426,-226.5 575,-226.5 575,-196.5 426,-196.5"/>
<text text-anchor="start" x="434" y="-214.5" font-family="Helvetica,sans-Serif" font-size="10.00">System.Security.Permissions.</text>
<text text-anchor="middle" x="500.5" y="-203.5" font-family="Helvetica,sans-Serif" font-size="10.00">SiteIdentityPermission</text>
</a>
</g>
</g>
<!-- Node0&#45;&gt;Node16 -->
<g id="edge17" class="edge"><title>Node0&#45;&gt;Node16</title>
<path fill="none" stroke="midnightblue" d="M328.024,-357.849C345.155,-325.227 379.61,-268.056 425,-235.5 429.748,-232.094 435.003,-229.156 440.461,-226.623"/>
<polygon fill="midnightblue" stroke="midnightblue" points="324.713,-356.635 323.27,-367.131 330.944,-359.826 324.713,-356.635"/>
</g>
<!-- Node17 -->
<g id="node18" class="node"><title>Node17</title>
<g id="a_node18"><a xlink:href="class_system_1_1_security_1_1_permissions_1_1_strong_name_identity_permission.html" target="_top" xlink:title="Defines the identity permission for strong names. This class cannot be inherited.">
<polygon fill="none" stroke="black" points="425,-147.5 425,-177.5 576,-177.5 576,-147.5 425,-147.5"/>
<text text-anchor="start" x="433" y="-165.5" font-family="Helvetica,sans-Serif" font-size="10.00">System.Security.Permissions.</text>
<text text-anchor="middle" x="500.5" y="-154.5" font-family="Helvetica,sans-Serif" font-size="10.00">StrongNameIdentityPermission</text>
</a>
</g>
</g>
<!-- Node0&#45;&gt;Node17 -->
<g id="edge18" class="edge"><title>Node0&#45;&gt;Node17</title>
<path fill="none" stroke="midnightblue" d="M323.095,-357.928C336.298,-316.525 368.547,-232.852 425,-186.5 429.201,-183.051 433.908,-180.094 438.86,-177.559"/>
<polygon fill="midnightblue" stroke="midnightblue" points="319.747,-356.908 320.146,-367.495 326.437,-358.97 319.747,-356.908"/>
</g>
<!-- Node18 -->
<g id="node19" class="node"><title>Node18</title>
<g id="a_node19"><a xlink:href="class_system_1_1_security_1_1_permissions_1_1_u_i_permission.html" target="_top" xlink:title="Controls the permissions related to user interfaces and the Clipboard. This class cannot be inherited...">
<polygon fill="none" stroke="black" points="426,-98.5 426,-128.5 575,-128.5 575,-98.5 426,-98.5"/>
<text text-anchor="start" x="434" y="-116.5" font-family="Helvetica,sans-Serif" font-size="10.00">System.Security.Permissions.</text>
<text text-anchor="middle" x="500.5" y="-105.5" font-family="Helvetica,sans-Serif" font-size="10.00">UIPermission</text>
</a>
</g>
</g>
<!-- Node0&#45;&gt;Node18 -->
<g id="edge19" class="edge"><title>Node0&#45;&gt;Node18</title>
<path fill="none" stroke="midnightblue" d="M320.216,-357.203C329.773,-307.779 357.71,-197.953 425,-137.5 428.841,-134.049 433.184,-131.094 437.794,-128.563"/>
<polygon fill="midnightblue" stroke="midnightblue" points="316.72,-356.865 318.354,-367.333 323.604,-358.131 316.72,-356.865"/>
</g>
<!-- Node19 -->
<g id="node20" class="node"><title>Node19</title>
<g id="a_node20"><a xlink:href="class_system_1_1_security_1_1_permissions_1_1_url_identity_permission.html" target="_top" xlink:title="Defines the identity permission for the URL from which the code originates. This class cannot be inhe...">
<polygon fill="none" stroke="black" points="426,-49.5 426,-79.5 575,-79.5 575,-49.5 426,-49.5"/>
<text text-anchor="start" x="434" y="-67.5" font-family="Helvetica,sans-Serif" font-size="10.00">System.Security.Permissions.</text>
<text text-anchor="middle" x="500.5" y="-56.5" font-family="Helvetica,sans-Serif" font-size="10.00">UrlIdentityPermission</text>
</a>
</g>
</g>
<!-- Node0&#45;&gt;Node19 -->
<g id="edge20" class="edge"><title>Node0&#45;&gt;Node19</title>
<path fill="none" stroke="midnightblue" d="M318.105,-356.994C324.138,-300.458 346.486,-163.679 425,-88.5 428.631,-85.0228 432.769,-82.0493 437.192,-79.5067"/>
<polygon fill="midnightblue" stroke="midnightblue" points="314.598,-356.896 317.104,-367.19 321.564,-357.579 314.598,-356.896"/>
</g>
<!-- Node20 -->
<g id="node21" class="node"><title>Node20</title>
<g id="a_node21"><a xlink:href="class_system_1_1_security_1_1_permissions_1_1_zone_identity_permission.html" target="_top" xlink:title="Defines the identity permission for the zone from which the code originates. This class cannot be inh...">
<polygon fill="none" stroke="black" points="426,-0.5 426,-30.5 575,-30.5 575,-0.5 426,-0.5"/>
<text text-anchor="start" x="434" y="-18.5" font-family="Helvetica,sans-Serif" font-size="10.00">System.Security.Permissions.</text>
<text text-anchor="middle" x="500.5" y="-7.5" font-family="Helvetica,sans-Serif" font-size="10.00">ZoneIdentityPermission</text>
</a>
</g>
</g>
<!-- Node0&#45;&gt;Node20 -->
<g id="edge21" class="edge"><title>Node0&#45;&gt;Node20</title>
<path fill="none" stroke="midnightblue" d="M316.521,-357.191C319.204,-294.379 334.942,-129.915 425,-39.5 428.452,-36.0341 432.407,-33.0683 436.654,-30.5306"/>
<polygon fill="midnightblue" stroke="midnightblue" points="313.017,-357.251 316.166,-367.367 320.013,-357.496 313.017,-357.251"/>
</g>
<!-- Node1 -->
<g id="node2" class="node"><title>Node1</title>
<g id="a_node2"><a xlink:href="interface_system_1_1_security_1_1_i_permission.html" target="_top" xlink:title="Defines methods implemented by permission types.">
<polygon fill="none" stroke="black" points="137,-373 137,-392 205,-392 205,-373 137,-373"/>
<text text-anchor="middle" x="171" y="-380" font-family="Helvetica,sans-Serif" font-size="10.00">IPermission</text>
</a>
</g>
</g>
<!-- Node1&#45;&gt;Node0 -->
<g id="edge1" class="edge"><title>Node1&#45;&gt;Node0</title>
<path fill="none" stroke="midnightblue" d="M215.517,-382.5C223.571,-382.5 232.184,-382.5 240.84,-382.5"/>
<polygon fill="midnightblue" stroke="midnightblue" points="215.293,-379 205.293,-382.5 215.293,-386 215.293,-379"/>
</g>
<!-- Node2 -->
<g id="node3" class="node"><title>Node2</title>
<g id="a_node3"><a xlink:href="interface_system_1_1_security_1_1_i_security_encodable.html" target="_top" xlink:title="Defines the methods that convert permission object state to and from XML element representation.">
<polygon fill="none" stroke="black" points="0,-392 0,-411 101,-411 101,-392 0,-392"/>
<text text-anchor="middle" x="50.5" y="-399" font-family="Helvetica,sans-Serif" font-size="10.00">ISecurityEncodable</text>
</a>
</g>
</g>
<!-- Node2&#45;&gt;Node0 -->
<g id="edge3" class="edge"><title>Node2&#45;&gt;Node0</title>
<path fill="none" stroke="midnightblue" d="M111.212,-403.887C139.663,-404.415 174.142,-404.169 205,-401.5 216.674,-400.49 228.973,-398.883 240.937,-397.02"/>
<polygon fill="midnightblue" stroke="midnightblue" points="111.096,-400.384 101.021,-403.661 110.941,-407.382 111.096,-400.384"/>
</g>
<!-- Node2&#45;&gt;Node1 -->
<g id="edge2" class="edge"><title>Node2&#45;&gt;Node1</title>
<path fill="none" stroke="midnightblue" d="M111.034,-391.954C119.895,-390.534 128.748,-389.114 136.799,-387.823"/>
<polygon fill="midnightblue" stroke="midnightblue" points="110.388,-388.513 101.068,-393.552 111.496,-395.425 110.388,-388.513"/>
</g>
<!-- Node3 -->
<g id="node4" class="node"><title>Node3</title>
<g id="a_node4"><a xlink:href="interface_system_1_1_security_1_1_i_stack_walk.html" target="_top" xlink:title="Manages the stack walk that determines whether all callers in the call stack have the required permis...">
<polygon fill="none" stroke="black" points="137.5,-335 137.5,-354 204.5,-354 204.5,-335 137.5,-335"/>
<text text-anchor="middle" x="171" y="-342" font-family="Helvetica,sans-Serif" font-size="10.00">IStackWalk</text>
</a>
</g>
</g>
<!-- Node3&#45;&gt;Node0 -->
<g id="edge4" class="edge"><title>Node3&#45;&gt;Node0</title>
<path fill="none" stroke="midnightblue" d="M214.616,-355.904C228.221,-359.545 243.492,-363.632 257.904,-367.488"/>
<polygon fill="midnightblue" stroke="midnightblue" points="215.143,-352.422 204.578,-353.218 213.333,-359.184 215.143,-352.422"/>
</g>
<!-- Node10 -->
<g id="node11" class="node"><title>Node10</title>
<g id="a_node11"><a xlink:href="class_system_1_1_security_1_1_permissions_1_1_isolated_storage_file_permission.html" target="_top" xlink:title="Specifies the allowed usage of a private virtual file system. This class cannot be inherited.">
<polygon fill="none" stroke="black" points="612,-490.5 612,-520.5 761,-520.5 761,-490.5 612,-490.5"/>
<text text-anchor="start" x="620" y="-508.5" font-family="Helvetica,sans-Serif" font-size="10.00">System.Security.Permissions.</text>
<text text-anchor="middle" x="686.5" y="-497.5" font-family="Helvetica,sans-Serif" font-size="10.00">IsolatedStorageFilePermission</text>
</a>
</g>
</g>
<!-- Node9&#45;&gt;Node10 -->
<g id="edge11" class="edge"><title>Node9&#45;&gt;Node10</title>
<path fill="none" stroke="midnightblue" d="M585.033,-505.5C593.962,-505.5 602.998,-505.5 611.802,-505.5"/>
<polygon fill="midnightblue" stroke="midnightblue" points="585.015,-502 575.015,-505.5 585.015,-509 585.015,-502"/>
</g>
</g>
</svg>
        <g id="navigator" transform="translate(0 0)" fill="#404254">
                <rect fill="#f2f5e9" fill-opacity="0.5" stroke="#606060" stroke-width=".5" x="0" y="0" width="60" height="60"/>
                <use id="zoomplus" xlink:href="#zoomPlus" x="17" y="9" onmousedown="handleZoom(evt,'in')"/>
                <use id="zoomminus" xlink:href="#zoomMin" x="42" y="9" onmousedown="handleZoom(evt,'out')"/>
                <use id="reset" xlink:href="#resetDef" x="30" y="36" onmousedown="handleReset()"/>
                <g id="arrowUp" xlink:href="#dirArrow" transform="translate(30 24)" onmousedown="handlePan(0,-1)">
                  <use xlink:href="#rim" fill="#404040">
                        <set attributeName="fill" to="#808080" begin="arrowUp.mouseover" end="arrowUp.mouseout"/>
                  </use>
                  <path fill="none" stroke="white" stroke-width="1.5" d="M0,-3.0v7 M-2.5,-0.5L0,-3.0L2.5,-0.5"/>
                </g>
                <g id="arrowRight" xlink:href="#dirArrow" transform="rotate(90) translate(36 -43)" onmousedown="handlePan(1,0)">
                  <use xlink:href="#rim" fill="#404040">
                        <set attributeName="fill" to="#808080" begin="arrowRight.mouseover" end="arrowRight.mouseout"/>
                  </use>
                  <path fill="none" stroke="white" stroke-width="1.5" d="M0,-3.0v7 M-2.5,-0.5L0,-3.0L2.5,-0.5"/>
                </g>
                <g id="arrowDown" xlink:href="#dirArrow" transform="rotate(180) translate(-30 -48)" onmousedown="handlePan(0,1)">
                  <use xlink:href="#rim" fill="#404040">
                        <set attributeName="fill" to="#808080" begin="arrowDown.mouseover" end="arrowDown.mouseout"/>
                  </use>
                  <path fill="none" stroke="white" stroke-width="1.5" d="M0,-3.0v7 M-2.5,-0.5L0,-3.0L2.5,-0.5"/>
                </g>
                <g id="arrowLeft" xlink:href="#dirArrow" transform="rotate(270) translate(-36 17)" onmousedown="handlePan(-1,0)">
                  <use xlink:href="#rim" fill="#404040">
                        <set attributeName="fill" to="#808080" begin="arrowLeft.mouseover" end="arrowLeft.mouseout"/>
                  </use>
                  <path fill="none" stroke="white" stroke-width="1.5" d="M0,-3.0v7 M-2.5,-0.5L0,-3.0L2.5,-0.5"/>
                </g>
        </g>
        <svg viewBox="0 0 15 15" width="100%" height="30px" preserveAspectRatio="xMaxYMin meet">
         <g id="arrow_out" transform="scale(0.3 0.3)">
          <a xlink:href="class_system_1_1_security_1_1_code_access_permission__inherit__graph_org.svg" target="_base">
           <rect id="button" ry="5" rx="5" y="6" x="6" height="38" width="38"
                fill="#f2f5e9" fill-opacity="0.5" stroke="#606060" stroke-width="1.0"/>
           <path id="arrow"
             d="M 11.500037,31.436501 C 11.940474,20.09759 22.043105,11.32322 32.158766,21.979434 L 37.068811,17.246167 C 37.068811,17.246167 37.088388,32 37.088388,32 L 22.160133,31.978069 C 22.160133,31.978069 26.997745,27.140456 26.997745,27.140456 C 18.528582,18.264221 13.291696,25.230495 11.500037,31.436501 z"
             style="fill:#404040;"/>
          </a>
         </g>
        </svg>
</svg>
