<?xml version="1.0" encoding="UTF-8" standalone="no"?>
<!DOCTYPE svg PUBLIC "-//W3C//DTD SVG 1.1//EN"
 "http://www.w3.org/Graphics/SVG/1.1/DTD/svg11.dtd">
<!-- Generated by graphviz version 2.38.0 (20140413.2041)
 -->
<!-- Title: System.IO.DriveInfo Pages: 1 -->
<svg width="202pt" height="209pt"
 viewBox="0.00 0.00 201.50 209.00" xmlns="http://www.w3.org/2000/svg" xmlns:xlink="http://www.w3.org/1999/xlink">
<g id="graph0" class="graph" transform="scale(1 1) rotate(0) translate(4 205)">
<title>System.IO.DriveInfo</title>
<!-- Node2 -->
<g id="node1" class="node"><title>Node2</title>
<g id="a_node1"><a xlink:title="Provides access to information on a drive.">
<polygon fill="#bfbfbf" stroke="black" points="13.5,-0.5 13.5,-19.5 115.5,-19.5 115.5,-0.5 13.5,-0.5"/>
<text text-anchor="middle" x="64.5" y="-7.5" font-family="Helvetica,sans-Serif" font-size="10.00">System.IO.DriveInfo</text>
</a>
</g>
</g>
<!-- Node3 -->
<g id="node2" class="node"><title>Node3</title>
<g id="a_node2"><a xlink:href="interface_system_1_1_runtime_1_1_serialization_1_1_i_serializable.html" target="_top" xlink:title="Allows an object to control its own serialization and deserialization.">
<polygon fill="none" stroke="black" points="0,-181.5 0,-200.5 69,-200.5 69,-181.5 0,-181.5"/>
<text text-anchor="middle" x="34.5" y="-188.5" font-family="Helvetica,sans-Serif" font-size="10.00">ISerializable</text>
</a>
</g>
</g>
<!-- Node3&#45;&gt;Node2 -->
<g id="edge1" class="edge"><title>Node3&#45;&gt;Node2</title>
<path fill="none" stroke="midnightblue" d="M37.1291,-171.424C40.5976,-147.306 47.0235,-103.93 53.5,-67 56.4438,-50.2144 60.3974,-30.7052 62.6751,-19.7094"/>
<polygon fill="midnightblue" stroke="midnightblue" points="33.6632,-170.937 35.7153,-181.331 40.593,-171.926 33.6632,-170.937"/>
</g>
<!-- Node5 -->
<g id="node4" class="node"><title>Node5</title>
<g id="a_node4"><a xlink:href="class_system_1_1_i_o_1_1_file_system_info.html" target="_top" xlink:title="Provides the base class for both T:System.IO.FileInfo and T:System.IO.DirectoryInfo objects.">
<polygon fill="none" stroke="black" points="82,-124.5 82,-143.5 163,-143.5 163,-124.5 82,-124.5"/>
<text text-anchor="middle" x="122.5" y="-131.5" font-family="Helvetica,sans-Serif" font-size="10.00">FileSystemInfo</text>
</a>
</g>
</g>
<!-- Node3&#45;&gt;Node5 -->
<g id="edge5" class="edge"><title>Node3&#45;&gt;Node5</title>
<path fill="none" stroke="midnightblue" d="M57.181,-175.824C73.532,-165.605 95.0627,-152.148 108.847,-143.533"/>
<polygon fill="midnightblue" stroke="midnightblue" points="54.875,-173.138 48.25,-181.406 58.585,-179.074 54.875,-173.138"/>
</g>
<!-- Node4 -->
<g id="node3" class="node"><title>Node4</title>
<g id="a_node3"><a xlink:href="class_system_1_1_i_o_1_1_directory_info.html" target="_top" xlink:title="Exposes instance methods for creating, moving, and enumerating through directories and subdirectories...">
<polygon fill="none" stroke="black" points="62.5,-67.5 62.5,-86.5 182.5,-86.5 182.5,-67.5 62.5,-67.5"/>
<text text-anchor="middle" x="122.5" y="-74.5" font-family="Helvetica,sans-Serif" font-size="10.00">System.IO.DirectoryInfo</text>
</a>
</g>
</g>
<!-- Node4&#45;&gt;Node2 -->
<g id="edge2" class="edge"><title>Node4&#45;&gt;Node2</title>
<path fill="none" stroke="#9a32cd" stroke-dasharray="5,2" d="M107.897,-59.6348C96.5542,-46.9228 81.2734,-29.7978 72.1982,-19.6273"/>
<polygon fill="#9a32cd" stroke="#9a32cd" points="105.408,-62.1026 114.678,-67.2338 110.631,-57.4421 105.408,-62.1026"/>
<text text-anchor="middle" x="129" y="-41" font-family="Helvetica,sans-Serif" font-size="10.00"> RootDirectory</text>
</g>
<!-- Node5&#45;&gt;Node4 -->
<g id="edge3" class="edge"><title>Node5&#45;&gt;Node4</title>
<path fill="none" stroke="midnightblue" d="M122.5,-114.117C122.5,-104.817 122.5,-94.0557 122.5,-86.7149"/>
<polygon fill="midnightblue" stroke="midnightblue" points="119,-114.406 122.5,-124.406 126,-114.406 119,-114.406"/>
</g>
<!-- Node6 -->
<g id="node5" class="node"><title>Node6</title>
<g id="a_node5"><a xlink:href="class_system_1_1_marshal_by_ref_object.html" target="_top" xlink:title="Enables access to objects across application domain boundaries in applications that support remoting.">
<polygon fill="none" stroke="black" points="87.5,-181.5 87.5,-200.5 193.5,-200.5 193.5,-181.5 87.5,-181.5"/>
<text text-anchor="middle" x="140.5" y="-188.5" font-family="Helvetica,sans-Serif" font-size="10.00">MarshalByRefObject</text>
</a>
</g>
</g>
<!-- Node6&#45;&gt;Node5 -->
<g id="edge4" class="edge"><title>Node6&#45;&gt;Node5</title>
<path fill="none" stroke="midnightblue" d="M134.52,-171.728C131.432,-162.292 127.807,-151.217 125.352,-143.715"/>
<polygon fill="midnightblue" stroke="midnightblue" points="131.251,-172.991 137.688,-181.406 137.903,-170.814 131.251,-172.991"/>
</g>
</g>
</svg>
