<?xml version="1.0" encoding="UTF-8" standalone="no"?>
<!DOCTYPE svg PUBLIC "-//W3C//DTD SVG 1.1//EN"
 "http://www.w3.org/Graphics/SVG/1.1/DTD/svg11.dtd">
<!-- Generated by graphviz version 2.38.0 (20140413.2041)
 -->
<!-- Title: System.Xml.XPath.XPathItem Pages: 1 -->
<svg width="350pt" height="95pt"
 viewBox="0.00 0.00 350.00 95.00" xmlns="http://www.w3.org/2000/svg" xmlns:xlink="http://www.w3.org/1999/xlink">
<g id="graph0" class="graph" transform="scale(1 1) rotate(0) translate(4 91)">
<title>System.Xml.XPath.XPathItem</title>
<!-- Node0 -->
<g id="node1" class="node"><title>Node0</title>
<g id="a_node1"><a xlink:title="Represents an item in the XQuery 1.0 and XPath 2.0 Data Model.">
<polygon fill="#bfbfbf" stroke="black" points="96.5,-67.5 96.5,-86.5 241.5,-86.5 241.5,-67.5 96.5,-67.5"/>
<text text-anchor="middle" x="169" y="-74.5" font-family="Helvetica,sans-Serif" font-size="10.00">System.Xml.XPath.XPathItem</text>
</a>
</g>
</g>
<!-- Node1 -->
<g id="node2" class="node"><title>Node1</title>
<g id="a_node2"><a xlink:href="class_system_1_1_xml_1_1_schema_1_1_xml_atomic_value.html" target="_top" xlink:title="Represents the typed value of a validated XML element or attribute. The T:System.Xml....">
<polygon fill="none" stroke="black" points="0,-0.5 0,-30.5 158,-30.5 158,-0.5 0,-0.5"/>
<text text-anchor="start" x="8" y="-18.5" font-family="Helvetica,sans-Serif" font-size="10.00">System.Xml.Schema.XmlAtomic</text>
<text text-anchor="middle" x="79" y="-7.5" font-family="Helvetica,sans-Serif" font-size="10.00">Value</text>
</a>
</g>
</g>
<!-- Node0&#45;&gt;Node1 -->
<g id="edge1" class="edge"><title>Node0&#45;&gt;Node1</title>
<path fill="none" stroke="midnightblue" d="M147.429,-61.739C133.125,-52.2824 114.441,-39.9304 100.211,-30.523"/>
<polygon fill="midnightblue" stroke="midnightblue" points="145.833,-64.8798 156.105,-67.4751 149.694,-59.0405 145.833,-64.8798"/>
</g>
<!-- Node2 -->
<g id="node3" class="node"><title>Node2</title>
<g id="a_node3"><a xlink:href="class_system_1_1_xml_1_1_x_path_1_1_x_path_navigator.html" target="_top" xlink:title="Provides a cursor model for navigating and editing XML data.">
<polygon fill="none" stroke="black" points="176,-6 176,-25 342,-25 342,-6 176,-6"/>
<text text-anchor="middle" x="259" y="-13" font-family="Helvetica,sans-Serif" font-size="10.00">System.Xml.XPath.XPathNavigator</text>
</a>
</g>
</g>
<!-- Node0&#45;&gt;Node2 -->
<g id="edge2" class="edge"><title>Node0&#45;&gt;Node2</title>
<path fill="none" stroke="midnightblue" d="M190.283,-61.9295C207.634,-50.4589 231.57,-34.6343 246.129,-25.0091"/>
<polygon fill="midnightblue" stroke="midnightblue" points="188.306,-59.0405 181.895,-67.4751 192.167,-64.8798 188.306,-59.0405"/>
</g>
</g>
</svg>
