<?xml version="1.0" encoding="UTF-8" standalone="no"?>
<!DOCTYPE svg PUBLIC "-//W3C//DTD SVG 1.1//EN"
 "http://www.w3.org/Graphics/SVG/1.1/DTD/svg11.dtd">
<!-- Generated by graphviz version 2.38.0 (20140413.2041)
 -->
<!-- Title: System.Reflection.ParameterInfo Pages: 1 -->
<!--zoomable 189 -->
<svg id="main" version="1.1" xmlns="http://www.w3.org/2000/svg" xmlns:xlink="http://www.w3.org/1999/xlink" xml:space="preserve" onload="init(evt)">
<style type="text/css"><![CDATA[
.edge:hover path { stroke: red; }
.edge:hover polygon { stroke: red; fill: red; }
]]></style>
<script type="text/javascript"><![CDATA[
var edges = document.getElementsByTagName('g');
if (edges && edges.length) {
  for (var i=0;i<edges.length;i++) {
    if (edges[i].id.substr(0,4)=='edge') {
      edges[i].setAttribute('class','edge');
    }
  }
}
]]></script>
        <defs>
                <circle id="rim" cx="0" cy="0" r="7"/>
                <circle id="rim2" cx="0" cy="0" r="3.5"/>
                <g id="zoomPlus">
                        <use xlink:href="#rim" fill="#404040">
                                <set attributeName="fill" to="#808080" begin="zoomplus.mouseover" end="zoomplus.mouseout"/>
                        </use>
                        <path d="M-4,0h8M0,-4v8" fill="none" stroke="white" stroke-width="1.5" pointer-events="none"/>
                </g>
                <g id="zoomMin">
                        <use xlink:href="#rim" fill="#404040">
                                <set attributeName="fill" to="#808080" begin="zoomminus.mouseover" end="zoomminus.mouseout"/>
                        </use>
                        <path d="M-4,0h8" fill="none" stroke="white" stroke-width="1.5" pointer-events="none"/>
                </g>
                <g id="dirArrow">
                        <path fill="none" stroke="white" stroke-width="1.5" d="M0,-3.0v7 M-2.5,-0.5L0,-3.0L2.5,-0.5"/>
                </g>
               <g id="resetDef">
                       <use xlink:href="#rim2" fill="#404040">
                               <set attributeName="fill" to="#808080" begin="reset.mouseover" end="reset.mouseout"/>
                       </use>
               </g>
        </defs>

<script type="text/javascript">
var viewWidth = 687;
var viewHeight = 189;
var sectionId = 'dynsection-1';
</script>
<script xlink:href="svgpan.js"/>
<svg id="graph" class="graph">
<g id="viewport">
<title>System.Reflection.ParameterInfo</title>
<!-- Node5 -->
<g id="node1" class="node"><title>Node5</title>
<g id="a_node1"><a xlink:title="Discovers the attributes of a parameter and provides access to parameter metadata.">
<polygon fill="#bfbfbf" stroke="black" points="520,-56.3901 520,-75.3901 679,-75.3901 679,-56.3901 520,-56.3901"/>
<text text-anchor="middle" x="599.5" y="-63.3901" font-family="Helvetica,sans-Serif" font-size="10.00">System.Reflection.ParameterInfo</text>
</a>
</g>
</g>
<!-- Node6 -->
<g id="node2" class="node"><title>Node6</title>
<g id="a_node2"><a xlink:href="interface_system_1_1_runtime_1_1_interop_services_1_1___parameter_info.html" target="_top" xlink:title="Exposes the T:System.Reflection.ParameterInfo class to unmanaged code.">
<polygon fill="none" stroke="black" points="351.5,-161.39 351.5,-180.39 433.5,-180.39 433.5,-161.39 351.5,-161.39"/>
<text text-anchor="middle" x="392.5" y="-168.39" font-family="Helvetica,sans-Serif" font-size="10.00">_ParameterInfo</text>
</a>
</g>
</g>
<!-- Node6&#45;&gt;Node5 -->
<g id="edge1" class="edge"><title>Node6&#45;&gt;Node5</title>
<path fill="none" stroke="midnightblue" d="M426.665,-157.114C430.509,-155.404 434.356,-153.64 438,-151.89 491.574,-126.162 553.02,-91.8415 581.883,-75.4242"/>
<polygon fill="midnightblue" stroke="midnightblue" points="425.005,-154.019 417.231,-161.217 427.797,-160.438 425.005,-154.019"/>
</g>
<!-- Node7 -->
<g id="node3" class="node"><title>Node7</title>
<g id="a_node3"><a xlink:href="interface_system_1_1_reflection_1_1_i_custom_attribute_provider.html" target="_top" xlink:title="Provides custom attributes for reflection objects that support them.">
<polygon fill="none" stroke="black" points="0,-17.3901 0,-36.3901 124,-36.3901 124,-17.3901 0,-17.3901"/>
<text text-anchor="middle" x="62" y="-24.3901" font-family="Helvetica,sans-Serif" font-size="10.00">ICustomAttributeProvider</text>
</a>
</g>
</g>
<!-- Node7&#45;&gt;Node5 -->
<g id="edge2" class="edge"><title>Node7&#45;&gt;Node5</title>
<path fill="none" stroke="midnightblue" d="M112.649,-15.3522C128.055,-12.2892 145.15,-9.41237 161,-7.8901 312.299,6.64137 354.005,0.754359 502,-33.8901 526.92,-39.7236 554.569,-49.215 573.861,-56.349"/>
<polygon fill="midnightblue" stroke="midnightblue" points="111.888,-11.9353 102.799,-17.3796 113.3,-18.7916 111.888,-11.9353"/>
</g>
<!-- Node10 -->
<g id="node6" class="node"><title>Node10</title>
<g id="a_node6"><a xlink:href="class_system_1_1_reflection_1_1_member_info.html" target="_top" xlink:title="Obtains information about the attributes of a member and provides access to member metadata.">
<polygon fill="none" stroke="black" points="202,-93.3901 202,-112.39 269,-112.39 269,-93.3901 202,-93.3901"/>
<text text-anchor="middle" x="235.5" y="-100.39" font-family="Helvetica,sans-Serif" font-size="10.00">MemberInfo</text>
</a>
</g>
</g>
<!-- Node7&#45;&gt;Node10 -->
<g id="edge6" class="edge"><title>Node7&#45;&gt;Node10</title>
<path fill="none" stroke="midnightblue" d="M85.0328,-42.0714C104.325,-54.775 133.496,-72.5883 161,-83.8901 173.922,-89.2001 188.745,-93.3703 201.678,-96.4341"/>
<polygon fill="midnightblue" stroke="midnightblue" points="86.9135,-39.1186 76.656,-36.4664 83.0208,-44.9364 86.9135,-39.1186"/>
</g>
<!-- Node14 -->
<g id="node10" class="node"><title>Node14</title>
<g id="a_node10"><a xlink:href="class_system_1_1_reflection_1_1_member_info.html" target="_top" xlink:title="Obtains information about the attributes of a member and provides access to member metadata.">
<polygon fill="none" stroke="black" points="161,-17.3901 161,-36.3901 310,-36.3901 310,-17.3901 161,-17.3901"/>
<text text-anchor="middle" x="235.5" y="-24.3901" font-family="Helvetica,sans-Serif" font-size="10.00">System.Reflection.MemberInfo</text>
</a>
</g>
</g>
<!-- Node7&#45;&gt;Node14 -->
<g id="edge12" class="edge"><title>Node7&#45;&gt;Node14</title>
<path fill="none" stroke="midnightblue" d="M134.543,-26.8901C143.255,-26.8901 152.168,-26.8901 160.908,-26.8901"/>
<polygon fill="midnightblue" stroke="midnightblue" points="134.431,-23.3902 124.431,-26.8901 134.431,-30.3902 134.431,-23.3902"/>
</g>
<!-- Node8 -->
<g id="node4" class="node"><title>Node8</title>
<g id="a_node4"><a xlink:href="interface_system_1_1_runtime_1_1_serialization_1_1_i_object_reference.html" target="_top" xlink:title="Indicates that the current interface implementer is a reference to another object.">
<polygon fill="none" stroke="black" points="347,-56.3901 347,-75.3901 438,-75.3901 438,-56.3901 347,-56.3901"/>
<text text-anchor="middle" x="392.5" y="-63.3901" font-family="Helvetica,sans-Serif" font-size="10.00">IObjectReference</text>
</a>
</g>
</g>
<!-- Node8&#45;&gt;Node5 -->
<g id="edge3" class="edge"><title>Node8&#45;&gt;Node5</title>
<path fill="none" stroke="midnightblue" d="M448.371,-65.8901C470.347,-65.8901 496.079,-65.8901 519.97,-65.8901"/>
<polygon fill="midnightblue" stroke="midnightblue" points="448.235,-62.3902 438.235,-65.8901 448.235,-69.3902 448.235,-62.3902"/>
</g>
<!-- Node9 -->
<g id="node5" class="node"><title>Node9</title>
<g id="a_node5"><a xlink:href="class_system_1_1_type.html" target="_top" xlink:title="Represents type declarations: class types, interface types, array types, value types,...">
<polygon fill="none" stroke="black" points="355.5,-94.3901 355.5,-113.39 429.5,-113.39 429.5,-94.3901 355.5,-94.3901"/>
<text text-anchor="middle" x="392.5" y="-101.39" font-family="Helvetica,sans-Serif" font-size="10.00">System.Type</text>
</a>
</g>
</g>
<!-- Node9&#45;&gt;Node5 -->
<g id="edge4" class="edge"><title>Node9&#45;&gt;Node5</title>
<path fill="none" stroke="#9a32cd" stroke-dasharray="5,2" d="M439.63,-95.3393C471.5,-89.4315 513.925,-81.5675 546.916,-75.4521"/>
<polygon fill="#9a32cd" stroke="#9a32cd" points="438.873,-91.9199 429.678,-97.1839 440.148,-98.8026 438.873,-91.9199"/>
<text text-anchor="middle" x="479" y="-93.8901" font-family="Helvetica,sans-Serif" font-size="10.00"> ClassImpl</text>
</g>
<!-- Node9&#45;&gt;Node9 -->
<g id="edge10" class="edge"><title>Node9&#45;&gt;Node9</title>
<path fill="none" stroke="#9a32cd" stroke-dasharray="5,2" d="M380.714,-123.656C381.64,-128.387 385.568,-131.89 392.5,-131.89 403.875,-131.89 407.163,-122.455 402.364,-113.647"/>
<polygon fill="#9a32cd" stroke="#9a32cd" points="384.187,-124.128 382.636,-113.647 377.313,-122.808 384.187,-124.128"/>
<text text-anchor="middle" x="392.5" y="-134.89" font-family="Helvetica,sans-Serif" font-size="10.00"> EmptyTypes</text>
</g>
<!-- Node10&#45;&gt;Node9 -->
<g id="edge5" class="edge"><title>Node10&#45;&gt;Node9</title>
<path fill="none" stroke="midnightblue" d="M279.569,-103.168C303.439,-103.322 332.777,-103.511 355.428,-103.657"/>
<polygon fill="midnightblue" stroke="midnightblue" points="279.394,-99.6669 269.372,-103.102 279.349,-106.667 279.394,-99.6669"/>
</g>
<!-- Node11 -->
<g id="node7" class="node"><title>Node11</title>
<g id="a_node7"><a xlink:href="interface_system_1_1_runtime_1_1_interop_services_1_1___member_info.html" target="_top" xlink:title="Exposes the public members of the T:System.Reflection.MemberInfo class to unmanaged code.">
<polygon fill="none" stroke="black" points="26,-79.3901 26,-98.3901 98,-98.3901 98,-79.3901 26,-79.3901"/>
<text text-anchor="middle" x="62" y="-86.3901" font-family="Helvetica,sans-Serif" font-size="10.00">_MemberInfo</text>
</a>
</g>
</g>
<!-- Node11&#45;&gt;Node10 -->
<g id="edge7" class="edge"><title>Node11&#45;&gt;Node10</title>
<path fill="none" stroke="midnightblue" d="M108.141,-92.575C137.538,-94.9748 175.215,-98.0505 201.752,-100.217"/>
<polygon fill="midnightblue" stroke="midnightblue" points="108.371,-89.0823 98.1194,-91.757 107.801,-96.0591 108.371,-89.0823"/>
</g>
<!-- Node11&#45;&gt;Node14 -->
<g id="edge13" class="edge"><title>Node11&#45;&gt;Node14</title>
<path fill="none" stroke="midnightblue" d="M91.3007,-75.0261C110.619,-65.924 136.968,-54.2083 161,-45.8901 171.213,-42.3551 182.424,-39.1353 192.947,-36.3914"/>
<polygon fill="midnightblue" stroke="midnightblue" points="89.6761,-71.9232 82.1564,-79.3868 92.6892,-78.2416 89.6761,-71.9232"/>
</g>
<!-- Node12 -->
<g id="node8" class="node"><title>Node12</title>
<g id="a_node8"><a xlink:href="interface_system_1_1_runtime_1_1_interop_services_1_1___type.html" target="_top" xlink:title="Exposes the public members of the T:System.Type class to the unmanaged code.">
<polygon fill="none" stroke="black" points="214,-55.3901 214,-74.3901 257,-74.3901 257,-55.3901 214,-55.3901"/>
<text text-anchor="middle" x="235.5" y="-62.3901" font-family="Helvetica,sans-Serif" font-size="10.00">_Type</text>
</a>
</g>
</g>
<!-- Node12&#45;&gt;Node9 -->
<g id="edge8" class="edge"><title>Node12&#45;&gt;Node9</title>
<path fill="none" stroke="midnightblue" d="M266.901,-72.5394C292.279,-78.9248 328.511,-88.0412 355.367,-94.7986"/>
<polygon fill="midnightblue" stroke="midnightblue" points="267.635,-69.1149 257.083,-70.069 265.926,-75.9034 267.635,-69.1149"/>
</g>
<!-- Node13 -->
<g id="node9" class="node"><title>Node13</title>
<g id="a_node9"><a xlink:href="interface_system_1_1_reflection_1_1_i_reflect.html" target="_top" xlink:title="Interoperates with the IDispatch interface.">
<polygon fill="none" stroke="black" points="211,-131.39 211,-150.39 260,-150.39 260,-131.39 211,-131.39"/>
<text text-anchor="middle" x="235.5" y="-138.39" font-family="Helvetica,sans-Serif" font-size="10.00">IReflect</text>
</a>
</g>
</g>
<!-- Node13&#45;&gt;Node9 -->
<g id="edge9" class="edge"><title>Node13&#45;&gt;Node9</title>
<path fill="none" stroke="midnightblue" d="M269.864,-132.926C295.027,-126.919 329.5,-118.69 355.323,-112.526"/>
<polygon fill="midnightblue" stroke="midnightblue" points="268.955,-129.544 260.041,-135.271 270.581,-136.353 268.955,-129.544"/>
</g>
<!-- Node14&#45;&gt;Node5 -->
<g id="edge11" class="edge"><title>Node14&#45;&gt;Node5</title>
<path fill="none" stroke="#9a32cd" stroke-dasharray="5,2" d="M320.431,-28.012C356.684,-29.1747 399.525,-31.4571 438,-35.8901 478.552,-40.5623 524.266,-49.4704 556.504,-56.3708"/>
<polygon fill="#9a32cd" stroke="#9a32cd" points="320.489,-24.5123 310.39,-27.7129 320.281,-31.5092 320.489,-24.5123"/>
<text text-anchor="middle" x="392.5" y="-38.8901" font-family="Helvetica,sans-Serif" font-size="10.00"> MemberImpl</text>
</g>
</g>
</svg>
        <g id="navigator" transform="translate(0 0)" fill="#404254">
                <rect fill="#f2f5e9" fill-opacity="0.5" stroke="#606060" stroke-width=".5" x="0" y="0" width="60" height="60"/>
                <use id="zoomplus" xlink:href="#zoomPlus" x="17" y="9" onmousedown="handleZoom(evt,'in')"/>
                <use id="zoomminus" xlink:href="#zoomMin" x="42" y="9" onmousedown="handleZoom(evt,'out')"/>
                <use id="reset" xlink:href="#resetDef" x="30" y="36" onmousedown="handleReset()"/>
                <g id="arrowUp" xlink:href="#dirArrow" transform="translate(30 24)" onmousedown="handlePan(0,-1)">
                  <use xlink:href="#rim" fill="#404040">
                        <set attributeName="fill" to="#808080" begin="arrowUp.mouseover" end="arrowUp.mouseout"/>
                  </use>
                  <path fill="none" stroke="white" stroke-width="1.5" d="M0,-3.0v7 M-2.5,-0.5L0,-3.0L2.5,-0.5"/>
                </g>
                <g id="arrowRight" xlink:href="#dirArrow" transform="rotate(90) translate(36 -43)" onmousedown="handlePan(1,0)">
                  <use xlink:href="#rim" fill="#404040">
                        <set attributeName="fill" to="#808080" begin="arrowRight.mouseover" end="arrowRight.mouseout"/>
                  </use>
                  <path fill="none" stroke="white" stroke-width="1.5" d="M0,-3.0v7 M-2.5,-0.5L0,-3.0L2.5,-0.5"/>
                </g>
                <g id="arrowDown" xlink:href="#dirArrow" transform="rotate(180) translate(-30 -48)" onmousedown="handlePan(0,1)">
                  <use xlink:href="#rim" fill="#404040">
                        <set attributeName="fill" to="#808080" begin="arrowDown.mouseover" end="arrowDown.mouseout"/>
                  </use>
                  <path fill="none" stroke="white" stroke-width="1.5" d="M0,-3.0v7 M-2.5,-0.5L0,-3.0L2.5,-0.5"/>
                </g>
                <g id="arrowLeft" xlink:href="#dirArrow" transform="rotate(270) translate(-36 17)" onmousedown="handlePan(-1,0)">
                  <use xlink:href="#rim" fill="#404040">
                        <set attributeName="fill" to="#808080" begin="arrowLeft.mouseover" end="arrowLeft.mouseout"/>
                  </use>
                  <path fill="none" stroke="white" stroke-width="1.5" d="M0,-3.0v7 M-2.5,-0.5L0,-3.0L2.5,-0.5"/>
                </g>
        </g>
        <svg viewBox="0 0 15 15" width="100%" height="30px" preserveAspectRatio="xMaxYMin meet">
         <g id="arrow_out" transform="scale(0.3 0.3)">
          <a xlink:href="class_system_1_1_reflection_1_1_parameter_info__coll__graph_org.svg" target="_base">
           <rect id="button" ry="5" rx="5" y="6" x="6" height="38" width="38"
                fill="#f2f5e9" fill-opacity="0.5" stroke="#606060" stroke-width="1.0"/>
           <path id="arrow"
             d="M 11.500037,31.436501 C 11.940474,20.09759 22.043105,11.32322 32.158766,21.979434 L 37.068811,17.246167 C 37.068811,17.246167 37.088388,32 37.088388,32 L 22.160133,31.978069 C 22.160133,31.978069 26.997745,27.140456 26.997745,27.140456 C 18.528582,18.264221 13.291696,25.230495 11.500037,31.436501 z"
             style="fill:#404040;"/>
          </a>
         </g>
        </svg>
</svg>
