<?xml version="1.0" encoding="UTF-8" standalone="no"?>
<!DOCTYPE svg PUBLIC "-//W3C//DTD SVG 1.1//EN"
 "http://www.w3.org/Graphics/SVG/1.1/DTD/svg11.dtd">
<!-- Generated by graphviz version 2.38.0 (20140413.2041)
 -->
<!-- Title: System.Reflection.Emit.FieldOnTypeBuilderInstantiation Pages: 1 -->
<svg width="719pt" height="234pt"
 viewBox="0.00 0.00 719.00 234.00" xmlns="http://www.w3.org/2000/svg" xmlns:xlink="http://www.w3.org/1999/xlink">
<g id="graph0" class="graph" transform="scale(1 1) rotate(0) translate(4 230)">
<title>System.Reflection.Emit.FieldOnTypeBuilderInstantiation</title>
<!-- Node6 -->
<g id="node1" class="node"><title>Node6</title>
<g id="a_node1"><a xlink:title=" ">
<polygon fill="#bfbfbf" stroke="black" points="568,-116 568,-146 711,-146 711,-116 568,-116"/>
<text text-anchor="start" x="576" y="-134" font-family="Helvetica,sans-Serif" font-size="10.00">System.Reflection.Emit.Field</text>
<text text-anchor="middle" x="639.5" y="-123" font-family="Helvetica,sans-Serif" font-size="10.00">OnTypeBuilderInstantiation</text>
</a>
</g>
</g>
<!-- Node7 -->
<g id="node2" class="node"><title>Node7</title>
<g id="a_node2"><a xlink:href="class_system_1_1_reflection_1_1_field_info.html" target="_top" xlink:title="Discovers the attributes of a field and provides access to field metadata.">
<polygon fill="none" stroke="black" points="403.5,-188.5 403.5,-207.5 456.5,-207.5 456.5,-188.5 403.5,-188.5"/>
<text text-anchor="middle" x="430" y="-195.5" font-family="Helvetica,sans-Serif" font-size="10.00">FieldInfo</text>
</a>
</g>
</g>
<!-- Node7&#45;&gt;Node6 -->
<g id="edge1" class="edge"><title>Node7&#45;&gt;Node6</title>
<path fill="none" stroke="midnightblue" d="M466.531,-186.527C501.084,-175.37 553.769,-158.359 591.717,-146.106"/>
<polygon fill="midnightblue" stroke="midnightblue" points="465.301,-183.246 456.86,-189.65 467.452,-189.908 465.301,-183.246"/>
</g>
<!-- Node8 -->
<g id="node3" class="node"><title>Node8</title>
<g id="a_node3"><a xlink:href="class_system_1_1_reflection_1_1_member_info.html" target="_top" xlink:title="Obtains information about the attributes of a member and provides access to member metadata.">
<polygon fill="none" stroke="black" points="257,-168.5 257,-187.5 324,-187.5 324,-168.5 257,-168.5"/>
<text text-anchor="middle" x="290.5" y="-175.5" font-family="Helvetica,sans-Serif" font-size="10.00">MemberInfo</text>
</a>
</g>
</g>
<!-- Node8&#45;&gt;Node7 -->
<g id="edge2" class="edge"><title>Node8&#45;&gt;Node7</title>
<path fill="none" stroke="midnightblue" d="M334.102,-184.197C356.672,-187.48 383.661,-191.405 403.077,-194.229"/>
<polygon fill="midnightblue" stroke="midnightblue" points="334.485,-180.716 324.086,-182.74 333.478,-187.643 334.485,-180.716"/>
</g>
<!-- Node12 -->
<g id="node7" class="node"><title>Node12</title>
<g id="a_node7"><a xlink:href="class_system_1_1_type.html" target="_top" xlink:title="Represents type declarations: class types, interface types, array types, value types,...">
<polygon fill="none" stroke="black" points="393,-121.5 393,-140.5 467,-140.5 467,-121.5 393,-121.5"/>
<text text-anchor="middle" x="430" y="-128.5" font-family="Helvetica,sans-Serif" font-size="10.00">System.Type</text>
</a>
</g>
</g>
<!-- Node8&#45;&gt;Node12 -->
<g id="edge7" class="edge"><title>Node8&#45;&gt;Node12</title>
<path fill="none" stroke="midnightblue" d="M333.75,-166.08C341.196,-163.83 348.85,-161.42 356,-159 372.715,-153.343 391.278,-146.211 405.503,-140.56"/>
<polygon fill="midnightblue" stroke="midnightblue" points="332.731,-162.732 324.141,-168.934 334.723,-169.442 332.731,-162.732"/>
</g>
<!-- Node9 -->
<g id="node4" class="node"><title>Node9</title>
<g id="a_node4"><a xlink:href="interface_system_1_1_reflection_1_1_i_custom_attribute_provider.html" target="_top" xlink:title="Provides custom attributes for reflection objects that support them.">
<polygon fill="none" stroke="black" points="0,-143.5 0,-162.5 124,-162.5 124,-143.5 0,-143.5"/>
<text text-anchor="middle" x="62" y="-150.5" font-family="Helvetica,sans-Serif" font-size="10.00">ICustomAttributeProvider</text>
</a>
</g>
</g>
<!-- Node9&#45;&gt;Node8 -->
<g id="edge3" class="edge"><title>Node9&#45;&gt;Node8</title>
<path fill="none" stroke="midnightblue" d="M134.259,-160.865C175.308,-165.396 224.933,-170.873 256.843,-174.395"/>
<polygon fill="midnightblue" stroke="midnightblue" points="134.618,-157.384 124.294,-159.765 133.85,-164.341 134.618,-157.384"/>
</g>
<!-- Node15 -->
<g id="node10" class="node"><title>Node15</title>
<g id="a_node10"><a xlink:href="class_system_1_1_reflection_1_1_module.html" target="_top" xlink:title="Performs reflection on a module.">
<polygon fill="none" stroke="black" points="225,-54.5 225,-73.5 356,-73.5 356,-54.5 225,-54.5"/>
<text text-anchor="middle" x="290.5" y="-61.5" font-family="Helvetica,sans-Serif" font-size="10.00">System.Reflection.Module</text>
</a>
</g>
</g>
<!-- Node9&#45;&gt;Node15 -->
<g id="edge14" class="edge"><title>Node9&#45;&gt;Node15</title>
<path fill="none" stroke="midnightblue" d="M104.031,-140.431C110.717,-138.322 117.56,-136.127 124,-134 161.104,-121.744 174.985,-127.405 207,-105 217.351,-97.7565 214.473,-89.9843 225,-83 230.837,-79.1278 237.48,-76.027 244.232,-73.5487"/>
<polygon fill="midnightblue" stroke="midnightblue" points="102.91,-137.114 94.4116,-143.441 105,-143.795 102.91,-137.114"/>
</g>
<!-- Node10 -->
<g id="node5" class="node"><title>Node10</title>
<g id="a_node5"><a xlink:href="interface_system_1_1_runtime_1_1_interop_services_1_1___member_info.html" target="_top" xlink:title="Exposes the public members of the T:System.Reflection.MemberInfo class to unmanaged code.">
<polygon fill="none" stroke="black" points="26,-181.5 26,-200.5 98,-200.5 98,-181.5 26,-181.5"/>
<text text-anchor="middle" x="62" y="-188.5" font-family="Helvetica,sans-Serif" font-size="10.00">_MemberInfo</text>
</a>
</g>
</g>
<!-- Node10&#45;&gt;Node8 -->
<g id="edge4" class="edge"><title>Node10&#45;&gt;Node8</title>
<path fill="none" stroke="midnightblue" d="M108.523,-188.387C152.482,-185.864 217.959,-182.106 256.928,-179.87"/>
<polygon fill="midnightblue" stroke="midnightblue" points="108.174,-184.901 98.3906,-188.969 108.575,-191.89 108.174,-184.901"/>
</g>
<!-- Node11 -->
<g id="node6" class="node"><title>Node11</title>
<g id="a_node6"><a xlink:href="interface_system_1_1_runtime_1_1_interop_services_1_1___field_info.html" target="_top" xlink:title="Exposes the public members of the T:System.Reflection.FieldInfo class to unmanaged code.">
<polygon fill="none" stroke="black" points="261.5,-206.5 261.5,-225.5 319.5,-225.5 319.5,-206.5 261.5,-206.5"/>
<text text-anchor="middle" x="290.5" y="-213.5" font-family="Helvetica,sans-Serif" font-size="10.00">_FieldInfo</text>
</a>
</g>
</g>
<!-- Node11&#45;&gt;Node7 -->
<g id="edge5" class="edge"><title>Node11&#45;&gt;Node7</title>
<path fill="none" stroke="midnightblue" d="M329.624,-211.009C353.066,-207.94 382.478,-204.09 403.203,-201.377"/>
<polygon fill="midnightblue" stroke="midnightblue" points="329.118,-207.546 319.657,-212.314 330.027,-214.486 329.118,-207.546"/>
</g>
<!-- Node12&#45;&gt;Node6 -->
<g id="edge6" class="edge"><title>Node12&#45;&gt;Node6</title>
<path fill="none" stroke="#9a32cd" stroke-dasharray="5,2" d="M477.344,-131C504.005,-131 538.048,-131 567.969,-131"/>
<polygon fill="#9a32cd" stroke="#9a32cd" points="477.144,-127.5 467.144,-131 477.144,-134.5 477.144,-127.5"/>
<text text-anchor="middle" x="517.5" y="-145" font-family="Helvetica,sans-Serif" font-size="10.00"> ReflectedType</text>
<text text-anchor="middle" x="517.5" y="-134" font-family="Helvetica,sans-Serif" font-size="10.00">DeclaringType</text>
</g>
<!-- Node12&#45;&gt;Node12 -->
<g id="edge10" class="edge"><title>Node12&#45;&gt;Node12</title>
<path fill="none" stroke="#9a32cd" stroke-dasharray="5,2" d="M420.056,-150.766C420.837,-155.497 424.151,-159 430,-159 439.598,-159 442.372,-149.565 438.323,-140.757"/>
<polygon fill="#9a32cd" stroke="#9a32cd" points="423.533,-151.188 421.677,-140.757 416.623,-150.069 423.533,-151.188"/>
<text text-anchor="middle" x="430" y="-162" font-family="Helvetica,sans-Serif" font-size="10.00"> EmptyTypes</text>
</g>
<!-- Node13 -->
<g id="node8" class="node"><title>Node13</title>
<g id="a_node8"><a xlink:href="interface_system_1_1_runtime_1_1_interop_services_1_1___type.html" target="_top" xlink:title="Exposes the public members of the T:System.Type class to the unmanaged code.">
<polygon fill="none" stroke="black" points="269,-92.5 269,-111.5 312,-111.5 312,-92.5 269,-92.5"/>
<text text-anchor="middle" x="290.5" y="-99.5" font-family="Helvetica,sans-Serif" font-size="10.00">_Type</text>
</a>
</g>
</g>
<!-- Node13&#45;&gt;Node12 -->
<g id="edge8" class="edge"><title>Node13&#45;&gt;Node12</title>
<path fill="none" stroke="midnightblue" d="M322.024,-108.438C342.922,-112.845 370.728,-118.71 392.753,-123.355"/>
<polygon fill="midnightblue" stroke="midnightblue" points="322.592,-104.981 312.085,-106.342 321.148,-111.83 322.592,-104.981"/>
</g>
<!-- Node14 -->
<g id="node9" class="node"><title>Node14</title>
<g id="a_node9"><a xlink:href="interface_system_1_1_reflection_1_1_i_reflect.html" target="_top" xlink:title="Interoperates with the IDispatch interface.">
<polygon fill="none" stroke="black" points="266,-130.5 266,-149.5 315,-149.5 315,-130.5 266,-130.5"/>
<text text-anchor="middle" x="290.5" y="-137.5" font-family="Helvetica,sans-Serif" font-size="10.00">IReflect</text>
</a>
</g>
</g>
<!-- Node14&#45;&gt;Node12 -->
<g id="edge9" class="edge"><title>Node14&#45;&gt;Node12</title>
<path fill="none" stroke="midnightblue" d="M325.272,-137.789C345.746,-136.449 371.861,-134.74 392.765,-133.372"/>
<polygon fill="midnightblue" stroke="midnightblue" points="324.887,-134.307 315.137,-138.453 325.344,-141.292 324.887,-134.307"/>
</g>
<!-- Node15&#45;&gt;Node6 -->
<g id="edge11" class="edge"><title>Node15&#45;&gt;Node6</title>
<path fill="none" stroke="#9a32cd" stroke-dasharray="5,2" d="M350.949,-75.4785C411.116,-87.0959 504.139,-105.057 567.992,-117.386"/>
<polygon fill="#9a32cd" stroke="#9a32cd" points="351.33,-71.9877 340.848,-73.5283 350.003,-78.8607 351.33,-71.9877"/>
<text text-anchor="middle" x="430" y="-100" font-family="Helvetica,sans-Serif" font-size="10.00"> Module</text>
</g>
<!-- Node16 -->
<g id="node11" class="node"><title>Node16</title>
<g id="a_node11"><a xlink:href="interface_system_1_1_runtime_1_1_interop_services_1_1___module.html" target="_top" xlink:title="Exposes the T:System.Reflection.Module class to unmanaged code.">
<polygon fill="none" stroke="black" points="35.5,-0.5 35.5,-19.5 88.5,-19.5 88.5,-0.5 35.5,-0.5"/>
<text text-anchor="middle" x="62" y="-7.5" font-family="Helvetica,sans-Serif" font-size="10.00">_Module</text>
</a>
</g>
</g>
<!-- Node16&#45;&gt;Node15 -->
<g id="edge12" class="edge"><title>Node16&#45;&gt;Node15</title>
<path fill="none" stroke="midnightblue" d="M98.3655,-18.4315C139.364,-28.2061 206.774,-44.2773 249.608,-54.4893"/>
<polygon fill="midnightblue" stroke="midnightblue" points="99.0812,-15.0041 88.5421,-16.0895 97.4578,-21.8133 99.0812,-15.0041"/>
</g>
<!-- Node17 -->
<g id="node12" class="node"><title>Node17</title>
<g id="a_node12"><a xlink:href="interface_system_1_1_runtime_1_1_serialization_1_1_i_serializable.html" target="_top" xlink:title="Allows an object to control its own serialization and deserialization.">
<polygon fill="none" stroke="black" points="27.5,-105.5 27.5,-124.5 96.5,-124.5 96.5,-105.5 27.5,-105.5"/>
<text text-anchor="middle" x="62" y="-112.5" font-family="Helvetica,sans-Serif" font-size="10.00">ISerializable</text>
</a>
</g>
</g>
<!-- Node17&#45;&gt;Node15 -->
<g id="edge13" class="edge"><title>Node17&#45;&gt;Node15</title>
<path fill="none" stroke="midnightblue" d="M106.774,-105.144C147.311,-96.0161 207.201,-82.531 247.245,-73.5144"/>
<polygon fill="midnightblue" stroke="midnightblue" points="105.896,-101.754 96.9093,-107.365 107.434,-108.583 105.896,-101.754"/>
</g>
<!-- Node18 -->
<g id="node13" class="node"><title>Node18</title>
<g id="a_node13"><a xlink:href="struct_system_1_1_module_handle.html" target="_top" xlink:title="Represents a runtime handle for a module.">
<polygon fill="none" stroke="black" points="4.5,-38.5 4.5,-57.5 119.5,-57.5 119.5,-38.5 4.5,-38.5"/>
<text text-anchor="middle" x="62" y="-45.5" font-family="Helvetica,sans-Serif" font-size="10.00">System.ModuleHandle</text>
</a>
</g>
</g>
<!-- Node18&#45;&gt;Node15 -->
<g id="edge15" class="edge"><title>Node18&#45;&gt;Node15</title>
<path fill="none" stroke="#9a32cd" stroke-dasharray="5,2" d="M129.548,-52.701C159.615,-54.8249 195.007,-57.325 224.845,-59.4328"/>
<polygon fill="#9a32cd" stroke="#9a32cd" points="129.793,-49.2096 119.571,-51.9962 129.3,-56.1922 129.793,-49.2096"/>
<text text-anchor="middle" x="174.5" y="-61" font-family="Helvetica,sans-Serif" font-size="10.00"> ModuleHandle</text>
</g>
<!-- Node18&#45;&gt;Node18 -->
<g id="edge16" class="edge"><title>Node18&#45;&gt;Node18</title>
<path fill="none" stroke="#9a32cd" stroke-dasharray="5,2" d="M41.2603,-67.4C42.6454,-72.3146 49.5586,-76 62,-76 81.9063,-76 87.6604,-66.5653 79.2625,-57.7571"/>
<polygon fill="#9a32cd" stroke="#9a32cd" points="44.6378,-68.3514 44.7375,-57.7571 38.0528,-65.9768 44.6378,-68.3514"/>
<text text-anchor="middle" x="62" y="-79" font-family="Helvetica,sans-Serif" font-size="10.00"> EmptyHandle</text>
</g>
</g>
</svg>
