<?xml version="1.0" encoding="UTF-8" standalone="no"?>
<!DOCTYPE svg PUBLIC "-//W3C//DTD SVG 1.1//EN"
 "http://www.w3.org/Graphics/SVG/1.1/DTD/svg11.dtd">
<!-- Generated by graphviz version 2.38.0 (20140413.2041)
 -->
<!-- Title: System.Runtime.CompilerServices.StateMachineAttribute Pages: 1 -->
<svg width="473pt" height="88pt"
 viewBox="0.00 0.00 473.00 88.00" xmlns="http://www.w3.org/2000/svg" xmlns:xlink="http://www.w3.org/1999/xlink">
<g id="graph0" class="graph" transform="scale(1 1) rotate(0) translate(4 84)">
<title>System.Runtime.CompilerServices.StateMachineAttribute</title>
<!-- Node0 -->
<g id="node1" class="node"><title>Node0</title>
<g id="a_node1"><a xlink:title="Allows you to determine whether a method is a state machine method.">
<polygon fill="#bfbfbf" stroke="black" points="89,-24.5 89,-54.5 259,-54.5 259,-24.5 89,-24.5"/>
<text text-anchor="start" x="97" y="-42.5" font-family="Helvetica,sans-Serif" font-size="10.00">System.Runtime.CompilerServices.</text>
<text text-anchor="middle" x="174" y="-31.5" font-family="Helvetica,sans-Serif" font-size="10.00">StateMachineAttribute</text>
</a>
</g>
</g>
<!-- Node3 -->
<g id="node3" class="node"><title>Node3</title>
<g id="a_node3"><a xlink:href="class_system_1_1_runtime_1_1_compiler_services_1_1_async_state_machine_attribute.html" target="_top" xlink:title="Indicates whether a method is marked with either the Async (Visual Basic) or async (C# Reference) mod...">
<polygon fill="none" stroke="black" points="295,-49.5 295,-79.5 465,-79.5 465,-49.5 295,-49.5"/>
<text text-anchor="start" x="303" y="-67.5" font-family="Helvetica,sans-Serif" font-size="10.00">System.Runtime.CompilerServices.</text>
<text text-anchor="middle" x="380" y="-56.5" font-family="Helvetica,sans-Serif" font-size="10.00">AsyncStateMachineAttribute</text>
</a>
</g>
</g>
<!-- Node0&#45;&gt;Node3 -->
<g id="edge2" class="edge"><title>Node0&#45;&gt;Node3</title>
<path fill="none" stroke="midnightblue" d="M269.124,-51.0348C277.66,-52.0808 286.269,-53.1359 294.712,-54.1706"/>
<polygon fill="midnightblue" stroke="midnightblue" points="269.504,-47.5553 259.152,-49.8128 268.652,-54.5033 269.504,-47.5553"/>
</g>
<!-- Node4 -->
<g id="node4" class="node"><title>Node4</title>
<g id="a_node4"><a xlink:href="class_system_1_1_runtime_1_1_compiler_services_1_1_iterator_state_machine_attribute.html" target="_top" xlink:title="Indicates whether a method in Visual Basic is marked with the Iterator modifier.">
<polygon fill="none" stroke="black" points="295,-0.5 295,-30.5 465,-30.5 465,-0.5 295,-0.5"/>
<text text-anchor="start" x="303" y="-18.5" font-family="Helvetica,sans-Serif" font-size="10.00">System.Runtime.CompilerServices.</text>
<text text-anchor="middle" x="380" y="-7.5" font-family="Helvetica,sans-Serif" font-size="10.00">IteratorStateMachineAttribute</text>
</a>
</g>
</g>
<!-- Node0&#45;&gt;Node4 -->
<g id="edge3" class="edge"><title>Node0&#45;&gt;Node4</title>
<path fill="none" stroke="midnightblue" d="M269.124,-28.4266C277.66,-27.4224 286.269,-26.4095 294.712,-25.4163"/>
<polygon fill="midnightblue" stroke="midnightblue" points="268.675,-24.9552 259.152,-29.5997 269.493,-31.9072 268.675,-24.9552"/>
</g>
<!-- Node1 -->
<g id="node2" class="node"><title>Node1</title>
<g id="a_node2"><a xlink:href="class_system_1_1_attribute.html" target="_top" xlink:title="Represents the base class for custom attributes.">
<polygon fill="none" stroke="red" points="0,-30 0,-49 53,-49 53,-30 0,-30"/>
<text text-anchor="middle" x="26.5" y="-37" font-family="Helvetica,sans-Serif" font-size="10.00">Attribute</text>
</a>
</g>
</g>
<!-- Node1&#45;&gt;Node0 -->
<g id="edge1" class="edge"><title>Node1&#45;&gt;Node0</title>
<path fill="none" stroke="midnightblue" d="M63.4062,-39.5C71.303,-39.5 79.9867,-39.5 88.9036,-39.5"/>
<polygon fill="midnightblue" stroke="midnightblue" points="63.1776,-36.0001 53.1776,-39.5 63.1775,-43.0001 63.1776,-36.0001"/>
</g>
</g>
</svg>
