<?xml version="1.0" encoding="UTF-8" standalone="no"?>
<!DOCTYPE svg PUBLIC "-//W3C//DTD SVG 1.1//EN"
 "http://www.w3.org/Graphics/SVG/1.1/DTD/svg11.dtd">
<!-- Generated by graphviz version 2.38.0 (20140413.2041)
 -->
<!-- Title: System.Reflection.Emit.TypeBuilder Pages: 1 -->
<svg width="1114pt" height="396pt"
 viewBox="0.00 0.00 1114.00 396.00" xmlns="http://www.w3.org/2000/svg" xmlns:xlink="http://www.w3.org/1999/xlink">
<g id="graph0" class="graph" transform="scale(1 1) rotate(0) translate(4 392)">
<title>System.Reflection.Emit.TypeBuilder</title>
<!-- Node10 -->
<g id="node1" class="node"><title>Node10</title>
<g id="a_node1"><a xlink:title="Defines and creates new instances of classes during run time.">
<polygon fill="#bfbfbf" stroke="black" points="963,-191 963,-221 1106,-221 1106,-191 963,-191"/>
<text text-anchor="start" x="971" y="-209" font-family="Helvetica,sans-Serif" font-size="10.00">System.Reflection.Emit.Type</text>
<text text-anchor="middle" x="1034.5" y="-198" font-family="Helvetica,sans-Serif" font-size="10.00">Builder</text>
</a>
</g>
</g>
<!-- Node11 -->
<g id="node2" class="node"><title>Node11</title>
<g id="a_node2"><a xlink:href="class_system_1_1_reflection_1_1_type_info.html" target="_top" xlink:title="Represents type declarations for class types, interface types, array types, value types,...">
<polygon fill="none" stroke="black" points="863,-301.5 863,-320.5 916,-320.5 916,-301.5 863,-301.5"/>
<text text-anchor="middle" x="889.5" y="-308.5" font-family="Helvetica,sans-Serif" font-size="10.00">TypeInfo</text>
</a>
</g>
</g>
<!-- Node11&#45;&gt;Node10 -->
<g id="edge1" class="edge"><title>Node11&#45;&gt;Node10</title>
<path fill="none" stroke="midnightblue" d="M915.866,-296.036C925.185,-290.315 935.722,-283.581 945,-277 970.546,-258.88 998.499,-235.88 1016.01,-221.051"/>
<polygon fill="midnightblue" stroke="midnightblue" points="913.787,-293.203 907.044,-301.376 917.411,-299.192 913.787,-293.203"/>
</g>
<!-- Node12 -->
<g id="node3" class="node"><title>Node12</title>
<g id="a_node3"><a xlink:href="class_system_1_1_type.html" target="_top" xlink:title="Represents type declarations: class types, interface types, array types, value types,...">
<polygon fill="none" stroke="black" points="678,-332.5 678,-351.5 716,-351.5 716,-332.5 678,-332.5"/>
<text text-anchor="middle" x="697" y="-339.5" font-family="Helvetica,sans-Serif" font-size="10.00">Type</text>
</a>
</g>
</g>
<!-- Node12&#45;&gt;Node11 -->
<g id="edge2" class="edge"><title>Node12&#45;&gt;Node11</title>
<path fill="none" stroke="midnightblue" d="M726.369,-337.928C754.105,-333.881 797.514,-327.375 835,-321 844.129,-319.448 854.109,-317.618 862.95,-315.952"/>
<polygon fill="midnightblue" stroke="midnightblue" points="725.596,-334.503 716.202,-339.403 726.601,-341.431 725.596,-334.503"/>
</g>
<!-- Node13 -->
<g id="node4" class="node"><title>Node13</title>
<g id="a_node4"><a xlink:href="class_system_1_1_reflection_1_1_member_info.html" target="_top" xlink:title="Obtains information about the attributes of a member and provides access to member metadata.">
<polygon fill="none" stroke="black" points="263,-233.5 263,-252.5 330,-252.5 330,-233.5 263,-233.5"/>
<text text-anchor="middle" x="296.5" y="-240.5" font-family="Helvetica,sans-Serif" font-size="10.00">MemberInfo</text>
</a>
</g>
</g>
<!-- Node13&#45;&gt;Node12 -->
<g id="edge3" class="edge"><title>Node13&#45;&gt;Node12</title>
<path fill="none" stroke="midnightblue" d="M340.686,-239.655C393.248,-236.828 484.243,-235.961 559,-256 595.671,-265.83 606.882,-269.49 635,-295 645.957,-304.94 641.759,-313.382 653,-323 660.194,-329.155 669.697,-333.633 677.94,-336.69"/>
<polygon fill="midnightblue" stroke="midnightblue" points="340.165,-236.18 330.388,-240.262 340.576,-243.168 340.165,-236.18"/>
</g>
<!-- Node18 -->
<g id="node9" class="node"><title>Node18</title>
<g id="a_node9"><a xlink:href="class_system_1_1_type.html" target="_top" xlink:title="Represents type declarations: class types, interface types, array types, value types,...">
<polygon fill="none" stroke="black" points="445,-265.5 445,-284.5 519,-284.5 519,-265.5 445,-265.5"/>
<text text-anchor="middle" x="482" y="-272.5" font-family="Helvetica,sans-Serif" font-size="10.00">System.Type</text>
</a>
</g>
</g>
<!-- Node13&#45;&gt;Node18 -->
<g id="edge9" class="edge"><title>Node13&#45;&gt;Node18</title>
<path fill="none" stroke="midnightblue" d="M340.178,-250.443C371.876,-255.97 414.645,-263.429 444.705,-268.671"/>
<polygon fill="midnightblue" stroke="midnightblue" points="340.759,-246.991 330.306,-248.721 339.556,-253.887 340.759,-246.991"/>
</g>
<!-- Node28 -->
<g id="node19" class="node"><title>Node28</title>
<g id="a_node19"><a xlink:href="class_system_1_1_reflection_1_1_method_base.html" target="_top" xlink:title="Provides information about methods and constructors.">
<polygon fill="none" stroke="black" points="405,-177.5 405,-196.5 559,-196.5 559,-177.5 405,-177.5"/>
<text text-anchor="middle" x="482" y="-184.5" font-family="Helvetica,sans-Serif" font-size="10.00">System.Reflection.MethodBase</text>
</a>
</g>
</g>
<!-- Node13&#45;&gt;Node28 -->
<g id="edge28" class="edge"><title>Node13&#45;&gt;Node28</title>
<path fill="none" stroke="midnightblue" d="M339.038,-230.324C372.69,-220.054 419.366,-205.809 449.867,-196.501"/>
<polygon fill="midnightblue" stroke="midnightblue" points="337.588,-227.107 329.045,-233.373 339.631,-233.802 337.588,-227.107"/>
</g>
<!-- Node14 -->
<g id="node5" class="node"><title>Node14</title>
<g id="a_node5"><a xlink:href="interface_system_1_1_reflection_1_1_i_custom_attribute_provider.html" target="_top" xlink:title="Provides custom attributes for reflection objects that support them.">
<polygon fill="none" stroke="black" points="0,-219.5 0,-238.5 124,-238.5 124,-219.5 0,-219.5"/>
<text text-anchor="middle" x="62" y="-226.5" font-family="Helvetica,sans-Serif" font-size="10.00">ICustomAttributeProvider</text>
</a>
</g>
</g>
<!-- Node14&#45;&gt;Node13 -->
<g id="edge4" class="edge"><title>Node14&#45;&gt;Node13</title>
<path fill="none" stroke="midnightblue" d="M134.188,-233.287C177.027,-235.866 229.524,-239.027 262.751,-241.028"/>
<polygon fill="midnightblue" stroke="midnightblue" points="134.279,-229.786 124.087,-232.678 133.858,-236.773 134.279,-229.786"/>
</g>
<!-- Node21 -->
<g id="node12" class="node"><title>Node21</title>
<g id="a_node12"><a xlink:href="class_system_1_1_reflection_1_1_module.html" target="_top" xlink:title="Performs reflection on a module.">
<polygon fill="none" stroke="black" points="231,-138.5 231,-157.5 362,-157.5 362,-138.5 231,-138.5"/>
<text text-anchor="middle" x="296.5" y="-145.5" font-family="Helvetica,sans-Serif" font-size="10.00">System.Reflection.Module</text>
</a>
</g>
</g>
<!-- Node14&#45;&gt;Node21 -->
<g id="edge19" class="edge"><title>Node14&#45;&gt;Node21</title>
<path fill="none" stroke="midnightblue" d="M134.449,-229.47C159.413,-226.485 186.332,-219.373 207,-204 221.353,-193.324 211.224,-179.411 225,-168 230.291,-163.617 236.486,-160.194 242.97,-157.52"/>
<polygon fill="midnightblue" stroke="midnightblue" points="133.87,-226.01 124.264,-230.48 134.561,-232.976 133.87,-226.01"/>
</g>
<!-- Node25 -->
<g id="node16" class="node"><title>Node25</title>
<g id="a_node16"><a xlink:href="class_system_1_1_reflection_1_1_assembly.html" target="_top" xlink:title="Represents an assembly, which is a reusable, versionable, and self&#45;describing building block of a com...">
<polygon fill="none" stroke="black" points="225,-74.5 225,-93.5 368,-93.5 368,-74.5 225,-74.5"/>
<text text-anchor="middle" x="296.5" y="-81.5" font-family="Helvetica,sans-Serif" font-size="10.00">System.Reflection.Assembly</text>
</a>
</g>
</g>
<!-- Node14&#45;&gt;Node25 -->
<g id="edge25" class="edge"><title>Node14&#45;&gt;Node25</title>
<path fill="none" stroke="midnightblue" d="M109.413,-216.117C114.418,-214.265 119.369,-212.224 124,-210 164.113,-190.734 175.058,-184.983 207,-154 216.828,-144.467 215.052,-138.407 225,-129 240.509,-114.335 261.453,-101.674 276.476,-93.551"/>
<polygon fill="midnightblue" stroke="midnightblue" points="108.101,-212.867 99.793,-219.442 110.388,-219.483 108.101,-212.867"/>
</g>
<!-- Node15 -->
<g id="node6" class="node"><title>Node15</title>
<g id="a_node6"><a xlink:href="interface_system_1_1_runtime_1_1_interop_services_1_1___member_info.html" target="_top" xlink:title="Exposes the public members of the T:System.Reflection.MemberInfo class to unmanaged code.">
<polygon fill="none" stroke="black" points="26,-258.5 26,-277.5 98,-277.5 98,-258.5 26,-258.5"/>
<text text-anchor="middle" x="62" y="-265.5" font-family="Helvetica,sans-Serif" font-size="10.00">_MemberInfo</text>
</a>
</g>
</g>
<!-- Node15&#45;&gt;Node13 -->
<g id="edge5" class="edge"><title>Node15&#45;&gt;Node13</title>
<path fill="none" stroke="midnightblue" d="M108.216,-263.138C153.608,-258.257 222.433,-250.857 262.789,-246.517"/>
<polygon fill="midnightblue" stroke="midnightblue" points="107.628,-259.681 98.0593,-264.23 108.376,-266.641 107.628,-259.681"/>
</g>
<!-- Node16 -->
<g id="node7" class="node"><title>Node16</title>
<g id="a_node7"><a xlink:href="interface_system_1_1_runtime_1_1_interop_services_1_1___type.html" target="_top" xlink:title="Exposes the public members of the T:System.Type class to the unmanaged code.">
<polygon fill="none" stroke="black" points="275,-368.5 275,-387.5 318,-387.5 318,-368.5 275,-368.5"/>
<text text-anchor="middle" x="296.5" y="-375.5" font-family="Helvetica,sans-Serif" font-size="10.00">_Type</text>
</a>
</g>
</g>
<!-- Node16&#45;&gt;Node12 -->
<g id="edge6" class="edge"><title>Node16&#45;&gt;Node12</title>
<path fill="none" stroke="midnightblue" d="M328.331,-376.795C387.822,-374.232 522.513,-367.269 635,-353 649.519,-351.158 665.827,-348.169 677.926,-345.771"/>
<polygon fill="midnightblue" stroke="midnightblue" points="327.965,-373.307 318.12,-377.223 328.258,-380.301 327.965,-373.307"/>
</g>
<!-- Node16&#45;&gt;Node18 -->
<g id="edge10" class="edge"><title>Node16&#45;&gt;Node18</title>
<path fill="none" stroke="midnightblue" d="M327.681,-367.041C340.38,-362.059 355.158,-355.768 368,-349 405.965,-328.992 447.395,-299.775 467.936,-284.739"/>
<polygon fill="midnightblue" stroke="midnightblue" points="326.107,-363.895 318.019,-370.739 328.61,-370.433 326.107,-363.895"/>
</g>
<!-- Node17 -->
<g id="node8" class="node"><title>Node17</title>
<g id="a_node8"><a xlink:href="interface_system_1_1_reflection_1_1_i_reflect.html" target="_top" xlink:title="Interoperates with the IDispatch interface.">
<polygon fill="none" stroke="black" points="272,-320.5 272,-339.5 321,-339.5 321,-320.5 272,-320.5"/>
<text text-anchor="middle" x="296.5" y="-327.5" font-family="Helvetica,sans-Serif" font-size="10.00">IReflect</text>
</a>
</g>
</g>
<!-- Node17&#45;&gt;Node12 -->
<g id="edge7" class="edge"><title>Node17&#45;&gt;Node12</title>
<path fill="none" stroke="midnightblue" d="M331.394,-331.021C412.467,-333.462 615.459,-339.575 677.62,-341.447"/>
<polygon fill="midnightblue" stroke="midnightblue" points="331.335,-327.517 321.235,-330.715 331.125,-334.514 331.335,-327.517"/>
</g>
<!-- Node17&#45;&gt;Node18 -->
<g id="edge11" class="edge"><title>Node17&#45;&gt;Node18</title>
<path fill="none" stroke="midnightblue" d="M330.942,-319.976C364.59,-309.891 416.101,-294.452 449.165,-284.542"/>
<polygon fill="midnightblue" stroke="midnightblue" points="329.688,-316.699 321.114,-322.922 331.698,-323.404 329.688,-316.699"/>
</g>
<!-- Node18&#45;&gt;Node10 -->
<g id="edge15" class="edge"><title>Node18&#45;&gt;Node10</title>
<path fill="none" stroke="#9a32cd" stroke-dasharray="5,2" d="M529.431,-275.836C610.714,-276.396 783.682,-273.564 926,-244 950.808,-238.847 977.683,-229.347 998.356,-221.135"/>
<polygon fill="#9a32cd" stroke="#9a32cd" points="529.08,-272.332 519.049,-275.742 529.017,-279.332 529.08,-272.332"/>
<text text-anchor="middle" x="797" y="-291" font-family="Helvetica,sans-Serif" font-size="10.00"> ReflectedType</text>
<text text-anchor="middle" x="797" y="-280" font-family="Helvetica,sans-Serif" font-size="10.00">DeclaringType</text>
<text text-anchor="middle" x="797" y="-269" font-family="Helvetica,sans-Serif" font-size="10.00">BaseType</text>
</g>
<!-- Node18&#45;&gt;Node12 -->
<g id="edge8" class="edge"><title>Node18&#45;&gt;Node12</title>
<path fill="none" stroke="#9a32cd" stroke-dasharray="5,2" d="M529.187,-286.232C559.54,-293.987 599.97,-305.03 635,-317 649.621,-321.996 665.785,-328.675 677.799,-333.873"/>
<polygon fill="#9a32cd" stroke="#9a32cd" points="529.855,-282.791 519.302,-283.732 528.138,-289.577 529.855,-282.791"/>
<text text-anchor="middle" x="606" y="-320" font-family="Helvetica,sans-Serif" font-size="10.00"> EmptyTypes</text>
</g>
<!-- Node18&#45;&gt;Node18 -->
<g id="edge12" class="edge"><title>Node18&#45;&gt;Node18</title>
<path fill="none" stroke="#9a32cd" stroke-dasharray="5,2" d="M464.593,-294.4C465.756,-299.315 471.558,-303 482,-303 498.707,-303 503.536,-293.565 496.488,-284.757"/>
<polygon fill="#9a32cd" stroke="#9a32cd" points="467.965,-295.342 467.512,-284.757 461.265,-293.314 467.965,-295.342"/>
<text text-anchor="middle" x="482" y="-306" font-family="Helvetica,sans-Serif" font-size="10.00"> EmptyTypes</text>
</g>
<!-- Node19 -->
<g id="node10" class="node"><title>Node19</title>
<g id="a_node10"><a xlink:href="interface_system_1_1_reflection_1_1_i_reflectable_type.html" target="_top" xlink:title="Represents a type that you can reflect over.">
<polygon fill="none" stroke="black" points="653,-294.5 653,-313.5 741,-313.5 741,-294.5 653,-294.5"/>
<text text-anchor="middle" x="697" y="-301.5" font-family="Helvetica,sans-Serif" font-size="10.00">IReflectableType</text>
</a>
</g>
</g>
<!-- Node19&#45;&gt;Node11 -->
<g id="edge13" class="edge"><title>Node19&#45;&gt;Node11</title>
<path fill="none" stroke="midnightblue" d="M751.227,-305.956C787.735,-307.297 834.544,-309.017 862.991,-310.063"/>
<polygon fill="midnightblue" stroke="midnightblue" points="751.349,-302.458 741.227,-305.588 751.092,-309.453 751.349,-302.458"/>
</g>
<!-- Node20 -->
<g id="node11" class="node"><title>Node20</title>
<g id="a_node11"><a xlink:href="interface_system_1_1_runtime_1_1_interop_services_1_1___type_builder.html" target="_top" xlink:title="Exposes the T:System.Reflection.Emit.TypeBuilder class to unmanaged code.">
<polygon fill="none" stroke="black" points="853,-215.5 853,-234.5 926,-234.5 926,-215.5 853,-215.5"/>
<text text-anchor="middle" x="889.5" y="-222.5" font-family="Helvetica,sans-Serif" font-size="10.00">_TypeBuilder</text>
</a>
</g>
</g>
<!-- Node20&#45;&gt;Node10 -->
<g id="edge14" class="edge"><title>Node20&#45;&gt;Node10</title>
<path fill="none" stroke="midnightblue" d="M936.255,-218.921C944.745,-217.793 953.793,-216.59 962.824,-215.391"/>
<polygon fill="midnightblue" stroke="midnightblue" points="935.668,-215.468 926.216,-220.255 936.59,-222.407 935.668,-215.468"/>
</g>
<!-- Node21&#45;&gt;Node10 -->
<g id="edge16" class="edge"><title>Node21&#45;&gt;Node10</title>
<path fill="none" stroke="#9a32cd" stroke-dasharray="5,2" d="M372.161,-148C405.471,-148 445.2,-148 481,-148 481,-148 481,-148 890.5,-148 936.044,-148 984.16,-173.577 1011.35,-190.761"/>
<polygon fill="#9a32cd" stroke="#9a32cd" points="372.041,-144.5 362.041,-148 372.041,-151.5 372.041,-144.5"/>
<text text-anchor="middle" x="697" y="-151" font-family="Helvetica,sans-Serif" font-size="10.00"> Module</text>
</g>
<!-- Node22 -->
<g id="node13" class="node"><title>Node22</title>
<g id="a_node13"><a xlink:href="interface_system_1_1_runtime_1_1_interop_services_1_1___module.html" target="_top" xlink:title="Exposes the T:System.Reflection.Module class to unmanaged code.">
<polygon fill="none" stroke="black" points="35.5,-181.5 35.5,-200.5 88.5,-200.5 88.5,-181.5 35.5,-181.5"/>
<text text-anchor="middle" x="62" y="-188.5" font-family="Helvetica,sans-Serif" font-size="10.00">_Module</text>
</a>
</g>
</g>
<!-- Node22&#45;&gt;Node21 -->
<g id="edge17" class="edge"><title>Node22&#45;&gt;Node21</title>
<path fill="none" stroke="midnightblue" d="M99.0557,-184.332C137.827,-177.161 199.813,-165.697 243.777,-157.566"/>
<polygon fill="midnightblue" stroke="midnightblue" points="97.9666,-180.974 88.7699,-186.234 99.2397,-187.857 97.9666,-180.974"/>
</g>
<!-- Node23 -->
<g id="node14" class="node"><title>Node23</title>
<g id="a_node14"><a xlink:href="interface_system_1_1_runtime_1_1_serialization_1_1_i_serializable.html" target="_top" xlink:title="Allows an object to control its own serialization and deserialization.">
<polygon fill="none" stroke="black" points="27.5,-76.5 27.5,-95.5 96.5,-95.5 96.5,-76.5 27.5,-76.5"/>
<text text-anchor="middle" x="62" y="-83.5" font-family="Helvetica,sans-Serif" font-size="10.00">ISerializable</text>
</a>
</g>
</g>
<!-- Node23&#45;&gt;Node21 -->
<g id="edge18" class="edge"><title>Node23&#45;&gt;Node21</title>
<path fill="none" stroke="midnightblue" d="M106.7,-97.6533C150.953,-109.454 218.574,-127.486 259.742,-138.465"/>
<polygon fill="midnightblue" stroke="midnightblue" points="107.372,-94.2102 96.8075,-95.0153 105.568,-100.974 107.372,-94.2102"/>
</g>
<!-- Node23&#45;&gt;Node25 -->
<g id="edge26" class="edge"><title>Node23&#45;&gt;Node25</title>
<path fill="none" stroke="midnightblue" d="M107.093,-85.6207C140.258,-85.3354 186.383,-84.9386 224.693,-84.6091"/>
<polygon fill="midnightblue" stroke="midnightblue" points="106.777,-82.1232 96.8075,-85.7092 106.837,-89.1229 106.777,-82.1232"/>
</g>
<!-- Node24 -->
<g id="node15" class="node"><title>Node24</title>
<g id="a_node15"><a xlink:href="struct_system_1_1_module_handle.html" target="_top" xlink:title="Represents a runtime handle for a module.">
<polygon fill="none" stroke="black" points="4.5,-114.5 4.5,-133.5 119.5,-133.5 119.5,-114.5 4.5,-114.5"/>
<text text-anchor="middle" x="62" y="-121.5" font-family="Helvetica,sans-Serif" font-size="10.00">System.ModuleHandle</text>
</a>
</g>
</g>
<!-- Node24&#45;&gt;Node21 -->
<g id="edge20" class="edge"><title>Node24&#45;&gt;Node21</title>
<path fill="none" stroke="#9a32cd" stroke-dasharray="5,2" d="M129.669,-130.882C161.454,-134.163 199.324,-138.072 230.846,-141.326"/>
<polygon fill="#9a32cd" stroke="#9a32cd" points="129.885,-127.386 119.579,-129.84 129.166,-134.349 129.885,-127.386"/>
<text text-anchor="middle" x="174.5" y="-142" font-family="Helvetica,sans-Serif" font-size="10.00"> ModuleHandle</text>
</g>
<!-- Node24&#45;&gt;Node24 -->
<g id="edge21" class="edge"><title>Node24&#45;&gt;Node24</title>
<path fill="none" stroke="#9a32cd" stroke-dasharray="5,2" d="M41.2603,-143.4C42.6454,-148.315 49.5586,-152 62,-152 81.9063,-152 87.6604,-142.565 79.2625,-133.757"/>
<polygon fill="#9a32cd" stroke="#9a32cd" points="44.6378,-144.351 44.7375,-133.757 38.0528,-141.977 44.6378,-144.351"/>
<text text-anchor="middle" x="62" y="-155" font-family="Helvetica,sans-Serif" font-size="10.00"> EmptyHandle</text>
</g>
<!-- Node25&#45;&gt;Node10 -->
<g id="edge22" class="edge"><title>Node25&#45;&gt;Node10</title>
<path fill="none" stroke="#9a32cd" stroke-dasharray="5,2" d="M378.264,-87.1503C410.251,-88.1496 447.354,-89 481,-89 481,-89 481,-89 890.5,-89 954.013,-89 1004.82,-158.99 1024.59,-190.704"/>
<polygon fill="#9a32cd" stroke="#9a32cd" points="378.177,-83.6458 368.069,-86.8215 377.951,-90.6421 378.177,-83.6458"/>
<text text-anchor="middle" x="697" y="-92" font-family="Helvetica,sans-Serif" font-size="10.00"> Assembly</text>
</g>
<!-- Node26 -->
<g id="node17" class="node"><title>Node26</title>
<g id="a_node17"><a xlink:href="interface_system_1_1_runtime_1_1_interop_services_1_1___assembly.html" target="_top" xlink:title="Exposes the public members of the T:System.Reflection.Assembly class to unmanaged code.">
<polygon fill="none" stroke="black" points="29.5,-0.5 29.5,-19.5 94.5,-19.5 94.5,-0.5 29.5,-0.5"/>
<text text-anchor="middle" x="62" y="-7.5" font-family="Helvetica,sans-Serif" font-size="10.00">_Assembly</text>
</a>
</g>
</g>
<!-- Node26&#45;&gt;Node25 -->
<g id="edge23" class="edge"><title>Node26&#45;&gt;Node25</title>
<path fill="none" stroke="midnightblue" d="M103.543,-22.576C110.375,-24.7101 117.391,-26.9112 124,-29 173.939,-44.7847 231.948,-63.4594 266.087,-74.4847"/>
<polygon fill="midnightblue" stroke="midnightblue" points="104.324,-19.1533 93.7351,-19.5181 102.24,-25.836 104.324,-19.1533"/>
</g>
<!-- Node27 -->
<g id="node18" class="node"><title>Node27</title>
<g id="a_node18"><a xlink:href="interface_system_1_1_security_1_1_i_evidence_factory.html" target="_top" xlink:title="Gets an object&#39;s T:System.Security.Policy.Evidence.">
<polygon fill="none" stroke="black" points="16.5,-38.5 16.5,-57.5 107.5,-57.5 107.5,-38.5 16.5,-38.5"/>
<text text-anchor="middle" x="62" y="-45.5" font-family="Helvetica,sans-Serif" font-size="10.00">IEvidenceFactory</text>
</a>
</g>
</g>
<!-- Node27&#45;&gt;Node25 -->
<g id="edge24" class="edge"><title>Node27&#45;&gt;Node25</title>
<path fill="none" stroke="midnightblue" d="M117.563,-56.4484C152.457,-61.8515 197.791,-68.8709 233.967,-74.4722"/>
<polygon fill="midnightblue" stroke="midnightblue" points="117.971,-52.97 107.553,-54.8986 116.9,-59.8876 117.971,-52.97"/>
</g>
<!-- Node28&#45;&gt;Node10 -->
<g id="edge27" class="edge"><title>Node28&#45;&gt;Node10</title>
<path fill="none" stroke="#9a32cd" stroke-dasharray="5,2" d="M569.52,-189.986C678.081,-193.733 862.185,-200.087 962.752,-203.558"/>
<polygon fill="#9a32cd" stroke="#9a32cd" points="569.37,-186.479 559.255,-189.632 569.129,-193.475 569.37,-186.479"/>
<text text-anchor="middle" x="797" y="-202" font-family="Helvetica,sans-Serif" font-size="10.00"> DeclaringMethod</text>
</g>
<!-- Node29 -->
<g id="node20" class="node"><title>Node29</title>
<g id="a_node20"><a xlink:href="interface_system_1_1_runtime_1_1_interop_services_1_1___method_base.html" target="_top" xlink:title="Exposes the public members of the T:System.Reflection.MethodBase class to unmanaged code.">
<polygon fill="none" stroke="black" points="258,-177.5 258,-196.5 335,-196.5 335,-177.5 258,-177.5"/>
<text text-anchor="middle" x="296.5" y="-184.5" font-family="Helvetica,sans-Serif" font-size="10.00">_MethodBase</text>
</a>
</g>
</g>
<!-- Node29&#45;&gt;Node28 -->
<g id="edge29" class="edge"><title>Node29&#45;&gt;Node28</title>
<path fill="none" stroke="midnightblue" d="M345.138,-187C363.356,-187 384.618,-187 404.84,-187"/>
<polygon fill="midnightblue" stroke="midnightblue" points="345.077,-183.5 335.077,-187 345.077,-190.5 345.077,-183.5"/>
</g>
</g>
</svg>
