<?xml version="1.0" encoding="UTF-8" standalone="no"?>
<!DOCTYPE svg PUBLIC "-//W3C//DTD SVG 1.1//EN"
 "http://www.w3.org/Graphics/SVG/1.1/DTD/svg11.dtd">
<!-- Generated by graphviz version 2.38.0 (20140413.2041)
 -->
<!-- Title: System.Runtime.Remoting.Messaging.MethodCall Pages: 1 -->
<svg width="698pt" height="204pt"
 viewBox="0.00 0.00 698.00 204.42" xmlns="http://www.w3.org/2000/svg" xmlns:xlink="http://www.w3.org/1999/xlink">
<g id="graph0" class="graph" transform="scale(1 1) rotate(0) translate(4 200.416)">
<title>System.Runtime.Remoting.Messaging.MethodCall</title>
<!-- Node0 -->
<g id="node1" class="node"><title>Node0</title>
<g id="a_node1"><a xlink:title="Implements the T:System.Runtime.Remoting.Messaging.IMethodCallMessage interface to create a request m...">
<polygon fill="#bfbfbf" stroke="black" points="379,-90 379,-120 516,-120 516,-90 379,-90"/>
<text text-anchor="start" x="387" y="-108" font-family="Helvetica,sans-Serif" font-size="10.00">System.Runtime.Remoting.</text>
<text text-anchor="middle" x="447.5" y="-97" font-family="Helvetica,sans-Serif" font-size="10.00">Messaging.MethodCall</text>
</a>
</g>
</g>
<!-- Node7 -->
<g id="node8" class="node"><title>Node7</title>
<g id="a_node8"><a xlink:href="class_system_1_1_runtime_1_1_remoting_1_1_messaging_1_1_construction_call.html" target="_top" xlink:title="Implements the T:System.Runtime.Remoting.Activation.IConstructionCallMessage interface to create a re...">
<polygon fill="none" stroke="black" points="552,-90 552,-120 690,-120 690,-90 552,-90"/>
<text text-anchor="start" x="560" y="-108" font-family="Helvetica,sans-Serif" font-size="10.00">System.Runtime.Remoting.</text>
<text text-anchor="middle" x="621" y="-97" font-family="Helvetica,sans-Serif" font-size="10.00">Messaging.ConstructionCall</text>
</a>
</g>
</g>
<!-- Node0&#45;&gt;Node7 -->
<g id="edge10" class="edge"><title>Node0&#45;&gt;Node7</title>
<path fill="none" stroke="midnightblue" d="M526.525,-105C534.983,-105 543.541,-105 551.868,-105"/>
<polygon fill="midnightblue" stroke="midnightblue" points="526.281,-101.5 516.281,-105 526.281,-108.5 526.281,-101.5"/>
</g>
<!-- Node1 -->
<g id="node2" class="node"><title>Node1</title>
<g id="a_node2"><a xlink:href="interface_system_1_1_runtime_1_1_remoting_1_1_messaging_1_1_i_method_call_message.html" target="_top" xlink:title="Defines the method call message interface.">
<polygon fill="none" stroke="black" points="229,-152.5 229,-171.5 336,-171.5 336,-152.5 229,-152.5"/>
<text text-anchor="middle" x="282.5" y="-159.5" font-family="Helvetica,sans-Serif" font-size="10.00">IMethodCallMessage</text>
</a>
</g>
</g>
<!-- Node1&#45;&gt;Node0 -->
<g id="edge1" class="edge"><title>Node1&#45;&gt;Node0</title>
<path fill="none" stroke="midnightblue" d="M320.491,-149.065C345.151,-140.441 377.653,-129.075 403.471,-120.047"/>
<polygon fill="midnightblue" stroke="midnightblue" points="319.067,-145.855 310.783,-152.459 321.377,-152.462 319.067,-145.855"/>
</g>
<!-- Node2 -->
<g id="node3" class="node"><title>Node2</title>
<g id="a_node3"><a xlink:href="interface_system_1_1_runtime_1_1_remoting_1_1_messaging_1_1_i_method_message.html" target="_top" xlink:title="Defines the method message interface.">
<polygon fill="none" stroke="black" points="95,-114.5 95,-133.5 186,-133.5 186,-114.5 95,-114.5"/>
<text text-anchor="middle" x="140.5" y="-121.5" font-family="Helvetica,sans-Serif" font-size="10.00">IMethodMessage</text>
</a>
</g>
</g>
<!-- Node2&#45;&gt;Node0 -->
<g id="edge5" class="edge"><title>Node2&#45;&gt;Node0</title>
<path fill="none" stroke="midnightblue" d="M196.373,-120.582C247.524,-117.395 323.959,-112.634 378.863,-109.213"/>
<polygon fill="midnightblue" stroke="midnightblue" points="195.939,-117.102 186.176,-121.217 196.375,-124.088 195.939,-117.102"/>
</g>
<!-- Node2&#45;&gt;Node1 -->
<g id="edge2" class="edge"><title>Node2&#45;&gt;Node1</title>
<path fill="none" stroke="midnightblue" d="M186.618,-136.246C205.915,-141.484 228.112,-147.509 246.183,-152.414"/>
<polygon fill="midnightblue" stroke="midnightblue" points="187.396,-132.831 176.828,-133.589 185.562,-139.586 187.396,-132.831"/>
</g>
<!-- Node3 -->
<g id="node4" class="node"><title>Node3</title>
<g id="a_node4"><a xlink:href="interface_system_1_1_runtime_1_1_remoting_1_1_messaging_1_1_i_message.html" target="_top" xlink:title="Contains communication data sent between cooperating message sinks.">
<polygon fill="none" stroke="black" points="0,-152.5 0,-171.5 59,-171.5 59,-152.5 0,-152.5"/>
<text text-anchor="middle" x="29.5" y="-159.5" font-family="Helvetica,sans-Serif" font-size="10.00">IMessage</text>
</a>
</g>
</g>
<!-- Node3&#45;&gt;Node0 -->
<g id="edge6" class="edge"><title>Node3&#45;&gt;Node0</title>
<path fill="none" stroke="midnightblue" d="M69.2633,-173.331C129.512,-188.978 248.521,-211.962 343,-181 379.437,-169.059 413.633,-138.856 432.152,-120.321"/>
<polygon fill="midnightblue" stroke="midnightblue" points="69.9774,-169.899 59.413,-170.701 68.1717,-176.662 69.9774,-169.899"/>
</g>
<!-- Node3&#45;&gt;Node1 -->
<g id="edge4" class="edge"><title>Node3&#45;&gt;Node1</title>
<path fill="none" stroke="midnightblue" d="M69.2968,-162C112.008,-162 180.926,-162 228.576,-162"/>
<polygon fill="midnightblue" stroke="midnightblue" points="69.2929,-158.5 59.2929,-162 69.2929,-165.5 69.2929,-158.5"/>
</g>
<!-- Node3&#45;&gt;Node2 -->
<g id="edge3" class="edge"><title>Node3&#45;&gt;Node2</title>
<path fill="none" stroke="midnightblue" d="M67.7085,-149.028C82.2303,-143.966 98.5794,-138.266 112.003,-133.586"/>
<polygon fill="midnightblue" stroke="midnightblue" points="66.2957,-145.814 58.0053,-152.411 68.6001,-152.424 66.2957,-145.814"/>
</g>
<!-- Node4 -->
<g id="node5" class="node"><title>Node4</title>
<g id="a_node5"><a xlink:href="interface_system_1_1_runtime_1_1_serialization_1_1_i_serializable.html" target="_top" xlink:title="Allows an object to control its own serialization and deserialization.">
<polygon fill="none" stroke="black" points="248,-76.5 248,-95.5 317,-95.5 317,-76.5 248,-76.5"/>
<text text-anchor="middle" x="282.5" y="-83.5" font-family="Helvetica,sans-Serif" font-size="10.00">ISerializable</text>
</a>
</g>
</g>
<!-- Node4&#45;&gt;Node0 -->
<g id="edge7" class="edge"><title>Node4&#45;&gt;Node0</title>
<path fill="none" stroke="midnightblue" d="M327.295,-91.1049C343.131,-92.9508 361.403,-95.0807 378.81,-97.1097"/>
<polygon fill="midnightblue" stroke="midnightblue" points="327.612,-87.6182 317.274,-89.9368 326.801,-94.5712 327.612,-87.6182"/>
</g>
<!-- Node5 -->
<g id="node6" class="node"><title>Node5</title>
<g id="a_node6"><a xlink:href="interface_system_1_1_runtime_1_1_remoting_1_1_messaging_1_1_i_internal_message.html" target="_top" xlink:title=" ">
<polygon fill="none" stroke="black" points="237.5,-38.5 237.5,-57.5 327.5,-57.5 327.5,-38.5 237.5,-38.5"/>
<text text-anchor="middle" x="282.5" y="-45.5" font-family="Helvetica,sans-Serif" font-size="10.00">IInternalMessage</text>
</a>
</g>
</g>
<!-- Node5&#45;&gt;Node0 -->
<g id="edge8" class="edge"><title>Node5&#45;&gt;Node0</title>
<path fill="none" stroke="midnightblue" d="M323.994,-60.6746C330.369,-62.7437 336.875,-64.8986 343,-67 364.184,-74.2674 387.623,-82.8292 406.831,-89.9844"/>
<polygon fill="midnightblue" stroke="midnightblue" points="324.749,-57.2409 314.158,-57.5138 322.608,-63.9053 324.749,-57.2409"/>
</g>
<!-- Node6 -->
<g id="node7" class="node"><title>Node6</title>
<g id="a_node7"><a xlink:href="interface_system_1_1_runtime_1_1_remoting_1_1_messaging_1_1_i_serialization_root_object.html" target="_top" xlink:title=" ">
<polygon fill="none" stroke="black" points="222,-0.5 222,-19.5 343,-19.5 343,-0.5 222,-0.5"/>
<text text-anchor="middle" x="282.5" y="-7.5" font-family="Helvetica,sans-Serif" font-size="10.00">ISerializationRootObject</text>
</a>
</g>
</g>
<!-- Node6&#45;&gt;Node0 -->
<g id="edge9" class="edge"><title>Node6&#45;&gt;Node0</title>
<path fill="none" stroke="midnightblue" d="M329.418,-22.9876C334.091,-24.8033 338.697,-26.8078 343,-29 376.171,-45.9015 410.109,-73.0938 429.697,-89.9581"/>
<polygon fill="midnightblue" stroke="midnightblue" points="330.399,-19.621 319.804,-19.5261 328.027,-26.207 330.399,-19.621"/>
</g>
</g>
</svg>
