<?xml version="1.0" encoding="UTF-8" standalone="no"?>
<!DOCTYPE svg PUBLIC "-//W3C//DTD SVG 1.1//EN"
 "http://www.w3.org/Graphics/SVG/1.1/DTD/svg11.dtd">
<!-- Generated by graphviz version 2.38.0 (20140413.2041)
 -->
<!-- Title: System.Reflection.TypeInfo Pages: 1 -->
<svg width="161pt" height="84pt"
 viewBox="0.00 0.00 160.50 84.00" xmlns="http://www.w3.org/2000/svg" xmlns:xlink="http://www.w3.org/1999/xlink">
<g id="graph0" class="graph" transform="scale(1 1) rotate(0) translate(4 80)">
<title>System.Reflection.TypeInfo</title>
<!-- Node12 -->
<g id="node1" class="node"><title>Node12</title>
<g id="a_node1"><a xlink:title="Represents type declarations for class types, interface types, array types, value types,...">
<polygon fill="#bfbfbf" stroke="black" points="0,-0.5 0,-19.5 135,-19.5 135,-0.5 0,-0.5"/>
<text text-anchor="middle" x="67.5" y="-7.5" font-family="Helvetica,sans-Serif" font-size="10.00">System.Reflection.TypeInfo</text>
</a>
</g>
</g>
<!-- Node13 -->
<g id="node2" class="node"><title>Node13</title>
<g id="a_node2"><a xlink:href="class_system_1_1_type.html" target="_top" xlink:title="Represents type declarations: class types, interface types, array types, value types,...">
<polygon fill="none" stroke="red" points="8.5,-56.5 8.5,-75.5 46.5,-75.5 46.5,-56.5 8.5,-56.5"/>
<text text-anchor="middle" x="27.5" y="-63.5" font-family="Helvetica,sans-Serif" font-size="10.00">Type</text>
</a>
</g>
</g>
<!-- Node13&#45;&gt;Node12 -->
<g id="edge1" class="edge"><title>Node13&#45;&gt;Node12</title>
<path fill="none" stroke="midnightblue" d="M40.1997,-47.8554C47.126,-38.5048 55.4063,-27.3265 61.0177,-19.7511"/>
<polygon fill="midnightblue" stroke="midnightblue" points="37.245,-45.9641 34.1052,-56.083 42.87,-50.1307 37.245,-45.9641"/>
</g>
<!-- Node20 -->
<g id="node3" class="node"><title>Node20</title>
<g id="a_node3"><a xlink:href="interface_system_1_1_reflection_1_1_i_reflectable_type.html" target="_top" xlink:title="Represents a type that you can reflect over.">
<polygon fill="none" stroke="black" points="64.5,-56.5 64.5,-75.5 152.5,-75.5 152.5,-56.5 64.5,-56.5"/>
<text text-anchor="middle" x="108.5" y="-63.5" font-family="Helvetica,sans-Serif" font-size="10.00">IReflectableType</text>
</a>
</g>
</g>
<!-- Node20&#45;&gt;Node12 -->
<g id="edge2" class="edge"><title>Node20&#45;&gt;Node12</title>
<path fill="none" stroke="midnightblue" d="M95.4828,-47.8554C88.3833,-38.5048 79.896,-27.3265 74.1443,-19.7511"/>
<polygon fill="midnightblue" stroke="midnightblue" points="92.895,-50.235 101.73,-56.083 98.4701,-46.002 92.895,-50.235"/>
</g>
</g>
</svg>
