<?xml version="1.0" encoding="UTF-8" standalone="no"?>
<!DOCTYPE svg PUBLIC "-//W3C//DTD SVG 1.1//EN"
 "http://www.w3.org/Graphics/SVG/1.1/DTD/svg11.dtd">
<!-- Generated by graphviz version 2.38.0 (20140413.2041)
 -->
<!-- Title: System.Reflection.MethodBase Pages: 1 -->
<svg width="257pt" height="140pt"
 viewBox="0.00 0.00 256.50 140.00" xmlns="http://www.w3.org/2000/svg" xmlns:xlink="http://www.w3.org/1999/xlink">
<g id="graph0" class="graph" transform="scale(1 1) rotate(0) translate(4 136)">
<title>System.Reflection.MethodBase</title>
<!-- Node16 -->
<g id="node1" class="node"><title>Node16</title>
<g id="a_node1"><a xlink:title="Provides information about methods and constructors.">
<polygon fill="#bfbfbf" stroke="black" points="88,-0.5 88,-19.5 242,-19.5 242,-0.5 88,-0.5"/>
<text text-anchor="middle" x="165" y="-7.5" font-family="Helvetica,sans-Serif" font-size="10.00">System.Reflection.MethodBase</text>
</a>
</g>
</g>
<!-- Node17 -->
<g id="node2" class="node"><title>Node17</title>
<g id="a_node2"><a xlink:href="class_system_1_1_reflection_1_1_member_info.html" target="_top" xlink:title="Obtains information about the attributes of a member and provides access to member metadata.">
<polygon fill="none" stroke="black" points="86.5,-56.5 86.5,-75.5 153.5,-75.5 153.5,-56.5 86.5,-56.5"/>
<text text-anchor="middle" x="120" y="-63.5" font-family="Helvetica,sans-Serif" font-size="10.00">MemberInfo</text>
</a>
</g>
</g>
<!-- Node17&#45;&gt;Node16 -->
<g id="edge1" class="edge"><title>Node17&#45;&gt;Node16</title>
<path fill="none" stroke="midnightblue" d="M134.047,-48.144C141.887,-38.7357 151.329,-27.4046 157.707,-19.7511"/>
<polygon fill="midnightblue" stroke="midnightblue" points="131.144,-46.1601 127.431,-56.083 136.521,-50.6414 131.144,-46.1601"/>
</g>
<!-- Node18 -->
<g id="node3" class="node"><title>Node18</title>
<g id="a_node3"><a xlink:href="interface_system_1_1_reflection_1_1_i_custom_attribute_provider.html" target="_top" xlink:title="Provides custom attributes for reflection objects that support them.">
<polygon fill="none" stroke="black" points="0,-112.5 0,-131.5 124,-131.5 124,-112.5 0,-112.5"/>
<text text-anchor="middle" x="62" y="-119.5" font-family="Helvetica,sans-Serif" font-size="10.00">ICustomAttributeProvider</text>
</a>
</g>
</g>
<!-- Node18&#45;&gt;Node17 -->
<g id="edge2" class="edge"><title>Node18&#45;&gt;Node17</title>
<path fill="none" stroke="midnightblue" d="M78.9131,-105.253C89.203,-95.6731 101.966,-83.7906 110.512,-75.8339"/>
<polygon fill="midnightblue" stroke="midnightblue" points="76.2527,-102.948 71.3187,-112.324 81.0226,-108.071 76.2527,-102.948"/>
</g>
<!-- Node19 -->
<g id="node4" class="node"><title>Node19</title>
<g id="a_node4"><a xlink:href="interface_system_1_1_runtime_1_1_interop_services_1_1___member_info.html" target="_top" xlink:title="Exposes the public members of the T:System.Reflection.MemberInfo class to unmanaged code.">
<polygon fill="none" stroke="black" points="142,-112.5 142,-131.5 214,-131.5 214,-112.5 142,-112.5"/>
<text text-anchor="middle" x="178" y="-119.5" font-family="Helvetica,sans-Serif" font-size="10.00">_MemberInfo</text>
</a>
</g>
</g>
<!-- Node19&#45;&gt;Node17 -->
<g id="edge3" class="edge"><title>Node19&#45;&gt;Node17</title>
<path fill="none" stroke="midnightblue" d="M161.087,-105.253C150.797,-95.6731 138.034,-83.7906 129.488,-75.8339"/>
<polygon fill="midnightblue" stroke="midnightblue" points="158.977,-108.071 168.681,-112.324 163.747,-102.948 158.977,-108.071"/>
</g>
<!-- Node20 -->
<g id="node5" class="node"><title>Node20</title>
<g id="a_node5"><a xlink:href="interface_system_1_1_runtime_1_1_interop_services_1_1___method_base.html" target="_top" xlink:title="Exposes the public members of the T:System.Reflection.MethodBase class to unmanaged code.">
<polygon fill="none" stroke="black" points="171.5,-56.5 171.5,-75.5 248.5,-75.5 248.5,-56.5 171.5,-56.5"/>
<text text-anchor="middle" x="210" y="-63.5" font-family="Helvetica,sans-Serif" font-size="10.00">_MethodBase</text>
</a>
</g>
</g>
<!-- Node20&#45;&gt;Node16 -->
<g id="edge4" class="edge"><title>Node20&#45;&gt;Node16</title>
<path fill="none" stroke="midnightblue" d="M195.953,-48.144C188.113,-38.7357 178.671,-27.4046 172.293,-19.7511"/>
<polygon fill="midnightblue" stroke="midnightblue" points="193.479,-50.6414 202.569,-56.083 198.856,-46.1601 193.479,-50.6414"/>
</g>
</g>
</svg>
