<?xml version="1.0" encoding="UTF-8" standalone="no"?>
<!DOCTYPE svg PUBLIC "-//W3C//DTD SVG 1.1//EN"
 "http://www.w3.org/Graphics/SVG/1.1/DTD/svg11.dtd">
<!-- Generated by graphviz version 2.38.0 (20140413.2041)
 -->
<!-- Title: System.Reflection.TypeDelegator Pages: 1 -->
<svg width="326pt" height="252pt"
 viewBox="0.00 0.00 326.00 252.00" xmlns="http://www.w3.org/2000/svg" xmlns:xlink="http://www.w3.org/1999/xlink">
<g id="graph0" class="graph" transform="scale(1 1) rotate(0) translate(4 248)">
<title>System.Reflection.TypeDelegator</title>
<!-- Node0 -->
<g id="node1" class="node"><title>Node0</title>
<g id="a_node1"><a xlink:title="Wraps a T:System.Type object and delegates methods to that Type.">
<polygon fill="#bfbfbf" stroke="black" points="152.5,-0.5 152.5,-19.5 313.5,-19.5 313.5,-0.5 152.5,-0.5"/>
<text text-anchor="middle" x="233" y="-7.5" font-family="Helvetica,sans-Serif" font-size="10.00">System.Reflection.TypeDelegator</text>
</a>
</g>
</g>
<!-- Node1 -->
<g id="node2" class="node"><title>Node1</title>
<g id="a_node2"><a xlink:href="class_system_1_1_reflection_1_1_type_info.html" target="_top" xlink:title="Represents type declarations for class types, interface types, array types, value types,...">
<polygon fill="none" stroke="black" points="206.5,-56.5 206.5,-75.5 259.5,-75.5 259.5,-56.5 206.5,-56.5"/>
<text text-anchor="middle" x="233" y="-63.5" font-family="Helvetica,sans-Serif" font-size="10.00">TypeInfo</text>
</a>
</g>
</g>
<!-- Node1&#45;&gt;Node0 -->
<g id="edge1" class="edge"><title>Node1&#45;&gt;Node0</title>
<path fill="none" stroke="midnightblue" d="M233,-45.8045C233,-36.9102 233,-26.7798 233,-19.7511"/>
<polygon fill="midnightblue" stroke="midnightblue" points="229.5,-46.083 233,-56.083 236.5,-46.083 229.5,-46.083"/>
</g>
<!-- Node2 -->
<g id="node3" class="node"><title>Node2</title>
<g id="a_node3"><a xlink:href="class_system_1_1_type.html" target="_top" xlink:title="Represents type declarations: class types, interface types, array types, value types,...">
<polygon fill="none" stroke="black" points="174,-112.5 174,-131.5 212,-131.5 212,-112.5 174,-112.5"/>
<text text-anchor="middle" x="193" y="-119.5" font-family="Helvetica,sans-Serif" font-size="10.00">Type</text>
</a>
</g>
</g>
<!-- Node2&#45;&gt;Node1 -->
<g id="edge2" class="edge"><title>Node2&#45;&gt;Node1</title>
<path fill="none" stroke="midnightblue" d="M205.7,-103.855C212.626,-94.5048 220.906,-83.3265 226.518,-75.7511"/>
<polygon fill="midnightblue" stroke="midnightblue" points="202.745,-101.964 199.605,-112.083 208.37,-106.131 202.745,-101.964"/>
</g>
<!-- Node3 -->
<g id="node4" class="node"><title>Node3</title>
<g id="a_node4"><a xlink:href="class_system_1_1_reflection_1_1_member_info.html" target="_top" xlink:title="Obtains information about the attributes of a member and provides access to member metadata.">
<polygon fill="none" stroke="black" points="86.5,-168.5 86.5,-187.5 153.5,-187.5 153.5,-168.5 86.5,-168.5"/>
<text text-anchor="middle" x="120" y="-175.5" font-family="Helvetica,sans-Serif" font-size="10.00">MemberInfo</text>
</a>
</g>
</g>
<!-- Node3&#45;&gt;Node2 -->
<g id="edge3" class="edge"><title>Node3&#45;&gt;Node2</title>
<path fill="none" stroke="midnightblue" d="M140.142,-162.101C153.279,-152.382 169.982,-140.027 181.058,-131.834"/>
<polygon fill="midnightblue" stroke="midnightblue" points="137.687,-159.563 131.729,-168.324 141.85,-165.191 137.687,-159.563"/>
</g>
<!-- Node4 -->
<g id="node5" class="node"><title>Node4</title>
<g id="a_node5"><a xlink:href="interface_system_1_1_reflection_1_1_i_custom_attribute_provider.html" target="_top" xlink:title="Provides custom attributes for reflection objects that support them.">
<polygon fill="none" stroke="black" points="0,-224.5 0,-243.5 124,-243.5 124,-224.5 0,-224.5"/>
<text text-anchor="middle" x="62" y="-231.5" font-family="Helvetica,sans-Serif" font-size="10.00">ICustomAttributeProvider</text>
</a>
</g>
</g>
<!-- Node4&#45;&gt;Node3 -->
<g id="edge4" class="edge"><title>Node4&#45;&gt;Node3</title>
<path fill="none" stroke="midnightblue" d="M78.9131,-217.253C89.203,-207.673 101.966,-195.791 110.512,-187.834"/>
<polygon fill="midnightblue" stroke="midnightblue" points="76.2527,-214.948 71.3187,-224.324 81.0226,-220.071 76.2527,-214.948"/>
</g>
<!-- Node5 -->
<g id="node6" class="node"><title>Node5</title>
<g id="a_node6"><a xlink:href="interface_system_1_1_runtime_1_1_interop_services_1_1___member_info.html" target="_top" xlink:title="Exposes the public members of the T:System.Reflection.MemberInfo class to unmanaged code.">
<polygon fill="none" stroke="black" points="142,-224.5 142,-243.5 214,-243.5 214,-224.5 142,-224.5"/>
<text text-anchor="middle" x="178" y="-231.5" font-family="Helvetica,sans-Serif" font-size="10.00">_MemberInfo</text>
</a>
</g>
</g>
<!-- Node5&#45;&gt;Node3 -->
<g id="edge5" class="edge"><title>Node5&#45;&gt;Node3</title>
<path fill="none" stroke="midnightblue" d="M161.087,-217.253C150.797,-207.673 138.034,-195.791 129.488,-187.834"/>
<polygon fill="midnightblue" stroke="midnightblue" points="158.977,-220.071 168.681,-224.324 163.747,-214.948 158.977,-220.071"/>
</g>
<!-- Node6 -->
<g id="node7" class="node"><title>Node6</title>
<g id="a_node7"><a xlink:href="interface_system_1_1_runtime_1_1_interop_services_1_1___type.html" target="_top" xlink:title="Exposes the public members of the T:System.Type class to the unmanaged code.">
<polygon fill="none" stroke="black" points="171.5,-168.5 171.5,-187.5 214.5,-187.5 214.5,-168.5 171.5,-168.5"/>
<text text-anchor="middle" x="193" y="-175.5" font-family="Helvetica,sans-Serif" font-size="10.00">_Type</text>
</a>
</g>
</g>
<!-- Node6&#45;&gt;Node2 -->
<g id="edge6" class="edge"><title>Node6&#45;&gt;Node2</title>
<path fill="none" stroke="midnightblue" d="M193,-157.805C193,-148.91 193,-138.78 193,-131.751"/>
<polygon fill="midnightblue" stroke="midnightblue" points="189.5,-158.083 193,-168.083 196.5,-158.083 189.5,-158.083"/>
</g>
<!-- Node7 -->
<g id="node8" class="node"><title>Node7</title>
<g id="a_node8"><a xlink:href="interface_system_1_1_reflection_1_1_i_reflect.html" target="_top" xlink:title="Interoperates with the IDispatch interface.">
<polygon fill="none" stroke="black" points="232.5,-168.5 232.5,-187.5 281.5,-187.5 281.5,-168.5 232.5,-168.5"/>
<text text-anchor="middle" x="257" y="-175.5" font-family="Helvetica,sans-Serif" font-size="10.00">IReflect</text>
</a>
</g>
</g>
<!-- Node7&#45;&gt;Node2 -->
<g id="edge7" class="edge"><title>Node7&#45;&gt;Node2</title>
<path fill="none" stroke="midnightblue" d="M239.009,-161.82C227.542,-152.145 213.087,-139.948 203.47,-131.834"/>
<polygon fill="midnightblue" stroke="midnightblue" points="236.817,-164.55 246.717,-168.324 241.331,-159.2 236.817,-164.55"/>
</g>
<!-- Node8 -->
<g id="node9" class="node"><title>Node8</title>
<g id="a_node9"><a xlink:href="interface_system_1_1_reflection_1_1_i_reflectable_type.html" target="_top" xlink:title="Represents a type that you can reflect over.">
<polygon fill="none" stroke="black" points="230,-112.5 230,-131.5 318,-131.5 318,-112.5 230,-112.5"/>
<text text-anchor="middle" x="274" y="-119.5" font-family="Helvetica,sans-Serif" font-size="10.00">IReflectableType</text>
</a>
</g>
</g>
<!-- Node8&#45;&gt;Node1 -->
<g id="edge8" class="edge"><title>Node8&#45;&gt;Node1</title>
<path fill="none" stroke="midnightblue" d="M260.983,-103.855C253.883,-94.5048 245.396,-83.3265 239.644,-75.7511"/>
<polygon fill="midnightblue" stroke="midnightblue" points="258.395,-106.235 267.23,-112.083 263.97,-102.002 258.395,-106.235"/>
</g>
</g>
</svg>
