<?xml version="1.0" encoding="UTF-8" standalone="no"?>
<!DOCTYPE svg PUBLIC "-//W3C//DTD SVG 1.1//EN"
 "http://www.w3.org/Graphics/SVG/1.1/DTD/svg11.dtd">
<!-- Generated by graphviz version 2.38.0 (20140413.2041)
 -->
<!-- Title: System.Collections.Specialized.OrderedDictionary Pages: 1 -->
<!--zoomable 256 -->
<svg id="main" version="1.1" xmlns="http://www.w3.org/2000/svg" xmlns:xlink="http://www.w3.org/1999/xlink" xml:space="preserve" onload="init(evt)">
<style type="text/css"><![CDATA[
.edge:hover path { stroke: red; }
.edge:hover polygon { stroke: red; fill: red; }
]]></style>
<script type="text/javascript"><![CDATA[
var edges = document.getElementsByTagName('g');
if (edges && edges.length) {
  for (var i=0;i<edges.length;i++) {
    if (edges[i].id.substr(0,4)=='edge') {
      edges[i].setAttribute('class','edge');
    }
  }
}
]]></script>
        <defs>
                <circle id="rim" cx="0" cy="0" r="7"/>
                <circle id="rim2" cx="0" cy="0" r="3.5"/>
                <g id="zoomPlus">
                        <use xlink:href="#rim" fill="#404040">
                                <set attributeName="fill" to="#808080" begin="zoomplus.mouseover" end="zoomplus.mouseout"/>
                        </use>
                        <path d="M-4,0h8M0,-4v8" fill="none" stroke="white" stroke-width="1.5" pointer-events="none"/>
                </g>
                <g id="zoomMin">
                        <use xlink:href="#rim" fill="#404040">
                                <set attributeName="fill" to="#808080" begin="zoomminus.mouseover" end="zoomminus.mouseout"/>
                        </use>
                        <path d="M-4,0h8" fill="none" stroke="white" stroke-width="1.5" pointer-events="none"/>
                </g>
                <g id="dirArrow">
                        <path fill="none" stroke="white" stroke-width="1.5" d="M0,-3.0v7 M-2.5,-0.5L0,-3.0L2.5,-0.5"/>
                </g>
               <g id="resetDef">
                       <use xlink:href="#rim2" fill="#404040">
                               <set attributeName="fill" to="#808080" begin="reset.mouseover" end="reset.mouseout"/>
                       </use>
               </g>
        </defs>

<script type="text/javascript">
var viewWidth = 625;
var viewHeight = 256;
var sectionId = 'dynsection-0';
</script>
<script xlink:href="svgpan.js"/>
<svg id="graph" class="graph">
<g id="viewport">
<title>System.Collections.Specialized.OrderedDictionary</title>
<!-- Node0 -->
<g id="node1" class="node"><title>Node0</title>
<g id="a_node1"><a xlink:title="Represents a collection of key/value pairs that are accessible by the key or index.">
<polygon fill="#bfbfbf" stroke="black" points="459,-90 459,-120 617,-120 617,-90 459,-90"/>
<text text-anchor="start" x="467" y="-108" font-family="Helvetica,sans-Serif" font-size="10.00">System.Collections.Specialized.</text>
<text text-anchor="middle" x="538" y="-97" font-family="Helvetica,sans-Serif" font-size="10.00">OrderedDictionary</text>
</a>
</g>
</g>
<!-- Node1 -->
<g id="node2" class="node"><title>Node1</title>
<g id="a_node2"><a xlink:href="interface_system_1_1_collections_1_1_specialized_1_1_i_ordered_dictionary.html" target="_top" xlink:title="Represents an indexed collection of key/value pairs.">
<polygon fill="none" stroke="black" points="314.5,-162.5 314.5,-181.5 411.5,-181.5 411.5,-162.5 314.5,-162.5"/>
<text text-anchor="middle" x="363" y="-169.5" font-family="Helvetica,sans-Serif" font-size="10.00">IOrderedDictionary</text>
</a>
</g>
</g>
<!-- Node1&#45;&gt;Node0 -->
<g id="edge1" class="edge"><title>Node1&#45;&gt;Node0</title>
<path fill="none" stroke="midnightblue" d="M398.421,-158.669C427.211,-147.519 468.264,-131.62 498.212,-120.022"/>
<polygon fill="midnightblue" stroke="midnightblue" points="396.848,-155.525 388.787,-162.401 399.376,-162.053 396.848,-155.525"/>
</g>
<!-- Node2 -->
<g id="node3" class="node"><title>Node2</title>
<g id="a_node3"><a xlink:href="interface_system_1_1_collections_1_1_i_dictionary.html" target="_top" xlink:title="Represents a nongeneric collection of key/value pairs.">
<polygon fill="none" stroke="black" points="205,-228.5 205,-247.5 267,-247.5 267,-228.5 205,-228.5"/>
<text text-anchor="middle" x="236" y="-235.5" font-family="Helvetica,sans-Serif" font-size="10.00">IDictionary</text>
</a>
</g>
</g>
<!-- Node2&#45;&gt;Node0 -->
<g id="edge8" class="edge"><title>Node2&#45;&gt;Node0</title>
<path fill="none" stroke="midnightblue" d="M277.617,-232.515C316.406,-226.191 375.778,-213.631 423,-191 461.901,-172.357 500.586,-139.327 521.378,-120.08"/>
<polygon fill="midnightblue" stroke="midnightblue" points="276.588,-229.134 267.249,-234.137 277.67,-236.049 276.588,-229.134"/>
</g>
<!-- Node2&#45;&gt;Node1 -->
<g id="edge2" class="edge"><title>Node2&#45;&gt;Node1</title>
<path fill="none" stroke="midnightblue" d="M264.173,-223.653C288.295,-210.916 322.871,-192.66 343.802,-181.609"/>
<polygon fill="midnightblue" stroke="midnightblue" points="262.385,-220.639 255.176,-228.403 265.653,-226.829 262.385,-220.639"/>
</g>
<!-- Node3 -->
<g id="node4" class="node"><title>Node3</title>
<g id="a_node4"><a xlink:href="interface_system_1_1_collections_1_1_i_collection.html" target="_top" xlink:title="Defines size, enumerators, and synchronization methods for all nongeneric collections.">
<polygon fill="none" stroke="black" points="107,-152.5 107,-171.5 169,-171.5 169,-152.5 107,-152.5"/>
<text text-anchor="middle" x="138" y="-159.5" font-family="Helvetica,sans-Serif" font-size="10.00">ICollection</text>
</a>
</g>
</g>
<!-- Node3&#45;&gt;Node0 -->
<g id="edge9" class="edge"><title>Node3&#45;&gt;Node0</title>
<path fill="none" stroke="midnightblue" d="M179.148,-156.25C244.459,-146.897 374.853,-128.222 458.905,-116.184"/>
<polygon fill="midnightblue" stroke="midnightblue" points="178.644,-152.787 169.241,-157.669 179.637,-159.716 178.644,-152.787"/>
</g>
<!-- Node3&#45;&gt;Node1 -->
<g id="edge6" class="edge"><title>Node3&#45;&gt;Node1</title>
<path fill="none" stroke="midnightblue" d="M179.228,-163.804C217.108,-165.503 273.881,-168.048 314.086,-169.851"/>
<polygon fill="midnightblue" stroke="midnightblue" points="179.222,-160.3 169.075,-163.349 178.908,-167.293 179.222,-160.3"/>
</g>
<!-- Node3&#45;&gt;Node2 -->
<g id="edge3" class="edge"><title>Node3&#45;&gt;Node2</title>
<path fill="none" stroke="midnightblue" d="M159.049,-177.872C178.35,-193.152 206.906,-215.759 222.94,-228.453"/>
<polygon fill="midnightblue" stroke="midnightblue" points="161.171,-175.088 151.158,-171.625 156.826,-180.577 161.171,-175.088"/>
</g>
<!-- Node4 -->
<g id="node5" class="node"><title>Node4</title>
<g id="a_node5"><a xlink:href="interface_system_1_1_collections_1_1_i_enumerable.html" target="_top" xlink:title="Exposes an enumerator, which supports a simple iteration over a non&#45;generic collection....">
<polygon fill="none" stroke="black" points="0,-171.5 0,-190.5 71,-190.5 71,-171.5 0,-171.5"/>
<text text-anchor="middle" x="35.5" y="-178.5" font-family="Helvetica,sans-Serif" font-size="10.00">IEnumerable</text>
</a>
</g>
</g>
<!-- Node4&#45;&gt;Node0 -->
<g id="edge10" class="edge"><title>Node4&#45;&gt;Node0</title>
<path fill="none" stroke="midnightblue" d="M59.1883,-166.028C72.5633,-157.917 90.1257,-148.463 107,-143 225.357,-104.679 371.023,-100.078 458.815,-101.579"/>
<polygon fill="midnightblue" stroke="midnightblue" points="57.2802,-163.093 50.6577,-171.363 60.992,-169.028 57.2802,-163.093"/>
</g>
<!-- Node4&#45;&gt;Node1 -->
<g id="edge7" class="edge"><title>Node4&#45;&gt;Node1</title>
<path fill="none" stroke="midnightblue" d="M81.3199,-181.939C127.788,-182.646 202.523,-183.04 267,-180 282.376,-179.275 299.118,-178.021 314.204,-176.718"/>
<polygon fill="midnightblue" stroke="midnightblue" points="81.3344,-178.438 71.2784,-181.774 81.2197,-185.437 81.3344,-178.438"/>
</g>
<!-- Node4&#45;&gt;Node2 -->
<g id="edge5" class="edge"><title>Node4&#45;&gt;Node2</title>
<path fill="none" stroke="midnightblue" d="M62.9249,-195.311C75.892,-201.826 91.9317,-209.147 107,-214 139.712,-224.535 178.703,-231.021 204.985,-234.552"/>
<polygon fill="midnightblue" stroke="midnightblue" points="64.1668,-192.014 53.6749,-190.541 60.9584,-198.235 64.1668,-192.014"/>
</g>
<!-- Node4&#45;&gt;Node3 -->
<g id="edge4" class="edge"><title>Node4&#45;&gt;Node3</title>
<path fill="none" stroke="midnightblue" d="M81.0895,-172.57C89.7532,-170.932 98.6442,-169.251 106.715,-167.726"/>
<polygon fill="midnightblue" stroke="midnightblue" points="80.2621,-169.164 71.0864,-174.461 81.5625,-176.043 80.2621,-169.164"/>
</g>
<!-- Node5 -->
<g id="node6" class="node"><title>Node5</title>
<g id="a_node6"><a xlink:href="interface_system_1_1_runtime_1_1_serialization_1_1_i_serializable.html" target="_top" xlink:title="Allows an object to control its own serialization and deserialization.">
<polygon fill="none" stroke="black" points="328.5,-38.5 328.5,-57.5 397.5,-57.5 397.5,-38.5 328.5,-38.5"/>
<text text-anchor="middle" x="363" y="-45.5" font-family="Helvetica,sans-Serif" font-size="10.00">ISerializable</text>
</a>
</g>
</g>
<!-- Node5&#45;&gt;Node0 -->
<g id="edge11" class="edge"><title>Node5&#45;&gt;Node0</title>
<path fill="none" stroke="midnightblue" d="M402.564,-60.7061C428.82,-69.3567 463.686,-80.8445 491.331,-89.9532"/>
<polygon fill="midnightblue" stroke="midnightblue" points="403.549,-57.3457 392.956,-57.5405 401.359,-63.9941 403.549,-57.3457"/>
</g>
<!-- Node6 -->
<g id="node7" class="node"><title>Node6</title>
<g id="a_node7"><a xlink:href="interface_system_1_1_runtime_1_1_serialization_1_1_i_deserialization_callback.html" target="_top" xlink:title="Indicates that a class is to be notified when deserialization of the entire object graph has been com...">
<polygon fill="none" stroke="black" points="303,-0.5 303,-19.5 423,-19.5 423,-0.5 303,-0.5"/>
<text text-anchor="middle" x="363" y="-7.5" font-family="Helvetica,sans-Serif" font-size="10.00">IDeserializationCallback</text>
</a>
</g>
</g>
<!-- Node6&#45;&gt;Node0 -->
<g id="edge12" class="edge"><title>Node6&#45;&gt;Node0</title>
<path fill="none" stroke="midnightblue" d="M409.059,-23.0689C413.84,-24.8801 418.569,-26.861 423,-29 458.559,-46.1669 495.936,-73.0263 517.822,-89.79"/>
<polygon fill="midnightblue" stroke="midnightblue" points="409.848,-19.6353 399.253,-19.5935 407.509,-26.2332 409.848,-19.6353"/>
</g>
</g>
</svg>
        <g id="navigator" transform="translate(0 0)" fill="#404254">
                <rect fill="#f2f5e9" fill-opacity="0.5" stroke="#606060" stroke-width=".5" x="0" y="0" width="60" height="60"/>
                <use id="zoomplus" xlink:href="#zoomPlus" x="17" y="9" onmousedown="handleZoom(evt,'in')"/>
                <use id="zoomminus" xlink:href="#zoomMin" x="42" y="9" onmousedown="handleZoom(evt,'out')"/>
                <use id="reset" xlink:href="#resetDef" x="30" y="36" onmousedown="handleReset()"/>
                <g id="arrowUp" xlink:href="#dirArrow" transform="translate(30 24)" onmousedown="handlePan(0,-1)">
                  <use xlink:href="#rim" fill="#404040">
                        <set attributeName="fill" to="#808080" begin="arrowUp.mouseover" end="arrowUp.mouseout"/>
                  </use>
                  <path fill="none" stroke="white" stroke-width="1.5" d="M0,-3.0v7 M-2.5,-0.5L0,-3.0L2.5,-0.5"/>
                </g>
                <g id="arrowRight" xlink:href="#dirArrow" transform="rotate(90) translate(36 -43)" onmousedown="handlePan(1,0)">
                  <use xlink:href="#rim" fill="#404040">
                        <set attributeName="fill" to="#808080" begin="arrowRight.mouseover" end="arrowRight.mouseout"/>
                  </use>
                  <path fill="none" stroke="white" stroke-width="1.5" d="M0,-3.0v7 M-2.5,-0.5L0,-3.0L2.5,-0.5"/>
                </g>
                <g id="arrowDown" xlink:href="#dirArrow" transform="rotate(180) translate(-30 -48)" onmousedown="handlePan(0,1)">
                  <use xlink:href="#rim" fill="#404040">
                        <set attributeName="fill" to="#808080" begin="arrowDown.mouseover" end="arrowDown.mouseout"/>
                  </use>
                  <path fill="none" stroke="white" stroke-width="1.5" d="M0,-3.0v7 M-2.5,-0.5L0,-3.0L2.5,-0.5"/>
                </g>
                <g id="arrowLeft" xlink:href="#dirArrow" transform="rotate(270) translate(-36 17)" onmousedown="handlePan(-1,0)">
                  <use xlink:href="#rim" fill="#404040">
                        <set attributeName="fill" to="#808080" begin="arrowLeft.mouseover" end="arrowLeft.mouseout"/>
                  </use>
                  <path fill="none" stroke="white" stroke-width="1.5" d="M0,-3.0v7 M-2.5,-0.5L0,-3.0L2.5,-0.5"/>
                </g>
        </g>
        <svg viewBox="0 0 15 15" width="100%" height="30px" preserveAspectRatio="xMaxYMin meet">
         <g id="arrow_out" transform="scale(0.3 0.3)">
          <a xlink:href="class_system_1_1_collections_1_1_specialized_1_1_ordered_dictionary__inherit__graph_org.svg" target="_base">
           <rect id="button" ry="5" rx="5" y="6" x="6" height="38" width="38"
                fill="#f2f5e9" fill-opacity="0.5" stroke="#606060" stroke-width="1.0"/>
           <path id="arrow"
             d="M 11.500037,31.436501 C 11.940474,20.09759 22.043105,11.32322 32.158766,21.979434 L 37.068811,17.246167 C 37.068811,17.246167 37.088388,32 37.088388,32 L 22.160133,31.978069 C 22.160133,31.978069 26.997745,27.140456 26.997745,27.140456 C 18.528582,18.264221 13.291696,25.230495 11.500037,31.436501 z"
             style="fill:#404040;"/>
          </a>
         </g>
        </svg>
</svg>
