<?xml version="1.0" encoding="UTF-8" standalone="no"?>
<!DOCTYPE svg PUBLIC "-//W3C//DTD SVG 1.1//EN"
 "http://www.w3.org/Graphics/SVG/1.1/DTD/svg11.dtd">
<!-- Generated by graphviz version 2.38.0 (20140413.2041)
 -->
<!-- Title: System.Threading.PreAllocatedOverlapped Pages: 1 -->
<svg width="196pt" height="95pt"
 viewBox="0.00 0.00 196.00 95.00" xmlns="http://www.w3.org/2000/svg" xmlns:xlink="http://www.w3.org/1999/xlink">
<g id="graph0" class="graph" transform="scale(1 1) rotate(0) translate(4 91)">
<title>System.Threading.PreAllocatedOverlapped</title>
<!-- Node0 -->
<g id="node1" class="node"><title>Node0</title>
<g id="a_node1"><a xlink:title="Represents pre&#45;allocated state for native overlapped I/O operations.">
<polygon fill="#bfbfbf" stroke="black" points="7.5,-0.5 7.5,-30.5 161.5,-30.5 161.5,-0.5 7.5,-0.5"/>
<text text-anchor="start" x="15.5" y="-18.5" font-family="Helvetica,sans-Serif" font-size="10.00">System.Threading.PreAllocated</text>
<text text-anchor="middle" x="84.5" y="-7.5" font-family="Helvetica,sans-Serif" font-size="10.00">Overlapped</text>
</a>
</g>
</g>
<!-- Node1 -->
<g id="node2" class="node"><title>Node1</title>
<g id="a_node2"><a xlink:href="interface_system_1_1_i_disposable.html" target="_top" xlink:title="Provides a mechanism for releasing unmanaged resources.To browse the .NET Framework source code for t...">
<polygon fill="none" stroke="black" points="0,-67.5 0,-86.5 67,-86.5 67,-67.5 0,-67.5"/>
<text text-anchor="middle" x="33.5" y="-74.5" font-family="Helvetica,sans-Serif" font-size="10.00">IDisposable</text>
</a>
</g>
</g>
<!-- Node1&#45;&gt;Node0 -->
<g id="edge1" class="edge"><title>Node1&#45;&gt;Node0</title>
<path fill="none" stroke="midnightblue" d="M47.3765,-59.8108C55.2298,-50.6486 64.9544,-39.3032 72.4803,-30.523"/>
<polygon fill="midnightblue" stroke="midnightblue" points="44.6576,-57.6047 40.8071,-67.4751 49.9724,-62.1603 44.6576,-57.6047"/>
</g>
<!-- Node2 -->
<g id="node3" class="node"><title>Node2</title>
<g id="a_node3"><a xlink:href="interface_system_1_1_threading_1_1_i_deferred_disposable.html" target="_top" xlink:title=" ">
<polygon fill="none" stroke="black" points="85,-67.5 85,-86.5 188,-86.5 188,-67.5 85,-67.5"/>
<text text-anchor="middle" x="136.5" y="-74.5" font-family="Helvetica,sans-Serif" font-size="10.00">IDeferredDisposable</text>
</a>
</g>
</g>
<!-- Node2&#45;&gt;Node0 -->
<g id="edge2" class="edge"><title>Node2&#45;&gt;Node0</title>
<path fill="none" stroke="midnightblue" d="M122.351,-59.8108C114.344,-50.6486 104.429,-39.3032 96.7554,-30.523"/>
<polygon fill="midnightblue" stroke="midnightblue" points="119.834,-62.2486 129.05,-67.4751 125.104,-57.6422 119.834,-62.2486"/>
</g>
</g>
</svg>
