<?xml version="1.0" encoding="UTF-8" standalone="no"?>
<!DOCTYPE svg PUBLIC "-//W3C//DTD SVG 1.1//EN"
 "http://www.w3.org/Graphics/SVG/1.1/DTD/svg11.dtd">
<!-- Generated by graphviz version 2.38.0 (20140413.2041)
 -->
<!-- Title: System.Security.Policy.StrongNameMembershipCondition Pages: 1 -->
<svg width="676pt" height="130pt"
 viewBox="0.00 0.00 676.00 129.63" xmlns="http://www.w3.org/2000/svg" xmlns:xlink="http://www.w3.org/1999/xlink">
<g id="graph0" class="graph" transform="scale(1 1) rotate(0) translate(4 125.631)">
<title>System.Security.Policy.StrongNameMembershipCondition</title>
<!-- Node6 -->
<g id="node1" class="node"><title>Node6</title>
<g id="a_node1"><a xlink:title="Determines whether an assembly belongs to a code group by testing its strong name....">
<polygon fill="#bfbfbf" stroke="black" points="517,-57.5408 517,-87.5408 668,-87.5408 668,-57.5408 517,-57.5408"/>
<text text-anchor="start" x="525" y="-75.5408" font-family="Helvetica,sans-Serif" font-size="10.00">System.Security.Policy.Strong</text>
<text text-anchor="middle" x="592.5" y="-64.5408" font-family="Helvetica,sans-Serif" font-size="10.00">NameMembershipCondition</text>
</a>
</g>
</g>
<!-- Node7 -->
<g id="node2" class="node"><title>Node7</title>
<g id="a_node2"><a xlink:href="interface_system_1_1_security_1_1_policy_1_1_i_membership_condition.html" target="_top" xlink:title="Defines the test to determine whether a code assembly is a member of a code group.">
<polygon fill="none" stroke="black" points="164,-63.0408 164,-82.0408 277,-82.0408 277,-63.0408 164,-63.0408"/>
<text text-anchor="middle" x="220.5" y="-70.0408" font-family="Helvetica,sans-Serif" font-size="10.00">IMembershipCondition</text>
</a>
</g>
</g>
<!-- Node7&#45;&gt;Node6 -->
<g id="edge1" class="edge"><title>Node7&#45;&gt;Node6</title>
<path fill="none" stroke="midnightblue" d="M268.643,-84.2523C282.81,-87.2496 298.454,-90.0466 313,-91.5408 387.276,-99.1711 406.604,-97.8903 481,-91.5408 492.637,-90.5476 504.889,-88.9763 516.829,-87.1524"/>
<polygon fill="midnightblue" stroke="midnightblue" points="269.144,-80.7788 258.625,-82.0502 267.641,-87.6156 269.144,-80.7788"/>
</g>
<!-- Node11 -->
<g id="node6" class="node"><title>Node11</title>
<g id="a_node6"><a xlink:href="interface_system_1_1_security_1_1_policy_1_1_i_report_match_membership_condition.html" target="_top" xlink:title=" ">
<polygon fill="none" stroke="black" points="313,-63.0408 313,-82.0408 481,-82.0408 481,-63.0408 313,-63.0408"/>
<text text-anchor="middle" x="397" y="-70.0408" font-family="Helvetica,sans-Serif" font-size="10.00">IReportMatchMembershipCondition</text>
</a>
</g>
</g>
<!-- Node7&#45;&gt;Node11 -->
<g id="edge8" class="edge"><title>Node7&#45;&gt;Node11</title>
<path fill="none" stroke="midnightblue" d="M287.238,-72.5408C295.606,-72.5408 304.256,-72.5408 312.852,-72.5408"/>
<polygon fill="midnightblue" stroke="midnightblue" points="287.193,-69.0409 277.193,-72.5408 287.193,-76.0409 287.193,-69.0409"/>
</g>
<!-- Node8 -->
<g id="node3" class="node"><title>Node8</title>
<g id="a_node3"><a xlink:href="interface_system_1_1_security_1_1_i_security_encodable.html" target="_top" xlink:title="Defines the methods that convert permission object state to and from XML element representation.">
<polygon fill="none" stroke="black" points="13.5,-101.041 13.5,-120.041 114.5,-120.041 114.5,-101.041 13.5,-101.041"/>
<text text-anchor="middle" x="64" y="-108.041" font-family="Helvetica,sans-Serif" font-size="10.00">ISecurityEncodable</text>
</a>
</g>
</g>
<!-- Node8&#45;&gt;Node6 -->
<g id="edge4" class="edge"><title>Node8&#45;&gt;Node6</title>
<path fill="none" stroke="midnightblue" d="M124.76,-115.807C205.997,-121.675 355.543,-127.88 481,-107.541 505.731,-103.531 532.542,-95.1437 553.561,-87.5847"/>
<polygon fill="midnightblue" stroke="midnightblue" points="124.952,-112.312 114.719,-115.059 124.431,-119.293 124.952,-112.312"/>
</g>
<!-- Node8&#45;&gt;Node7 -->
<g id="edge2" class="edge"><title>Node8&#45;&gt;Node7</title>
<path fill="none" stroke="midnightblue" d="M113.952,-98.5008C135.536,-93.192 160.541,-87.0421 180.793,-82.0609"/>
<polygon fill="midnightblue" stroke="midnightblue" points="112.862,-95.1647 103.987,-100.952 114.533,-101.962 112.862,-95.1647"/>
</g>
<!-- Node8&#45;&gt;Node11 -->
<g id="edge9" class="edge"><title>Node8&#45;&gt;Node11</title>
<path fill="none" stroke="midnightblue" d="M124.973,-106.274C167.492,-102.979 225.846,-97.9091 277,-91.5408 298.073,-88.9174 321.142,-85.3875 341.312,-82.0823"/>
<polygon fill="midnightblue" stroke="midnightblue" points="124.496,-102.8 114.792,-107.053 125.03,-109.78 124.496,-102.8"/>
</g>
<!-- Node9 -->
<g id="node4" class="node"><title>Node9</title>
<g id="a_node4"><a xlink:href="interface_system_1_1_security_1_1_i_security_policy_encodable.html" target="_top" xlink:title="Supports the methods that convert permission object state to and from an XML element representation.">
<polygon fill="none" stroke="black" points="0,-25.0408 0,-44.0408 128,-44.0408 128,-25.0408 0,-25.0408"/>
<text text-anchor="middle" x="64" y="-32.0408" font-family="Helvetica,sans-Serif" font-size="10.00">ISecurityPolicyEncodable</text>
</a>
</g>
</g>
<!-- Node9&#45;&gt;Node6 -->
<g id="edge5" class="edge"><title>Node9&#45;&gt;Node6</title>
<path fill="none" stroke="midnightblue" d="M117.032,-22.9353C196.687,-7.2197 353.078,15.5087 481,-15.5408 514.143,-23.5855 548.467,-43.4125 569.889,-57.4136"/>
<polygon fill="midnightblue" stroke="midnightblue" points="115.887,-19.5958 106.777,-25.0042 117.271,-26.4575 115.887,-19.5958"/>
</g>
<!-- Node9&#45;&gt;Node7 -->
<g id="edge3" class="edge"><title>Node9&#45;&gt;Node7</title>
<path fill="none" stroke="midnightblue" d="M113.952,-46.5808C135.536,-51.8896 160.541,-58.0396 180.793,-63.0208"/>
<polygon fill="midnightblue" stroke="midnightblue" points="114.533,-43.1196 103.987,-44.1298 112.862,-49.917 114.533,-43.1196"/>
</g>
<!-- Node9&#45;&gt;Node11 -->
<g id="edge10" class="edge"><title>Node9&#45;&gt;Node11</title>
<path fill="none" stroke="midnightblue" d="M138.35,-39.8625C179.234,-43.1427 231.025,-47.8173 277,-53.5408 298.073,-56.1642 321.142,-59.6941 341.312,-62.9993"/>
<polygon fill="midnightblue" stroke="midnightblue" points="138.446,-36.3592 128.201,-39.0588 137.894,-43.3374 138.446,-36.3592"/>
</g>
<!-- Node10 -->
<g id="node5" class="node"><title>Node10</title>
<g id="a_node5"><a xlink:href="interface_system_1_1_security_1_1_policy_1_1_i_constant_membership_condition.html" target="_top" xlink:title=" ">
<polygon fill="none" stroke="black" points="321,-25.0408 321,-44.0408 473,-44.0408 473,-25.0408 321,-25.0408"/>
<text text-anchor="middle" x="397" y="-32.0408" font-family="Helvetica,sans-Serif" font-size="10.00">IConstantMembershipCondition</text>
</a>
</g>
</g>
<!-- Node10&#45;&gt;Node6 -->
<g id="edge6" class="edge"><title>Node10&#45;&gt;Node6</title>
<path fill="none" stroke="midnightblue" d="M456.763,-46.0809C475.64,-49.788 496.811,-53.9455 516.679,-57.8473"/>
<polygon fill="midnightblue" stroke="midnightblue" points="457.315,-42.6225 446.828,-44.1298 455.966,-49.4913 457.315,-42.6225"/>
</g>
<!-- Node11&#45;&gt;Node6 -->
<g id="edge7" class="edge"><title>Node11&#45;&gt;Node6</title>
<path fill="none" stroke="midnightblue" d="M491.26,-72.5408C499.871,-72.5408 508.519,-72.5408 516.93,-72.5408"/>
<polygon fill="midnightblue" stroke="midnightblue" points="491.184,-69.0409 481.184,-72.5408 491.184,-76.0409 491.184,-69.0409"/>
</g>
</g>
</svg>
