<?xml version="1.0" encoding="UTF-8" standalone="no"?>
<!DOCTYPE svg PUBLIC "-//W3C//DTD SVG 1.1//EN"
 "http://www.w3.org/Graphics/SVG/1.1/DTD/svg11.dtd">
<!-- Generated by graphviz version 2.38.0 (20140413.2041)
 -->
<!-- Title: System.Reflection.PropertyInfo Pages: 1 -->
<svg width="170pt" height="151pt"
 viewBox="0.00 0.00 169.50 151.00" xmlns="http://www.w3.org/2000/svg" xmlns:xlink="http://www.w3.org/1999/xlink">
<g id="graph0" class="graph" transform="scale(1 1) rotate(0) translate(4 147)">
<title>System.Reflection.PropertyInfo</title>
<!-- Node0 -->
<g id="node1" class="node"><title>Node0</title>
<g id="a_node1"><a xlink:title="Discovers the attributes of a property and provides access to property metadata.">
<polygon fill="#bfbfbf" stroke="black" points="4,-67.5 4,-86.5 155,-86.5 155,-67.5 4,-67.5"/>
<text text-anchor="middle" x="79.5" y="-74.5" font-family="Helvetica,sans-Serif" font-size="10.00">System.Reflection.PropertyInfo</text>
</a>
</g>
</g>
<!-- Node5 -->
<g id="node4" class="node"><title>Node5</title>
<g id="a_node4"><a xlink:href="class_system_1_1_reflection_1_1_emit_1_1_property_builder.html" target="_top" xlink:title="Defines the properties for a type.">
<polygon fill="none" stroke="black" points="0,-0.5 0,-30.5 159,-30.5 159,-0.5 0,-0.5"/>
<text text-anchor="start" x="8" y="-18.5" font-family="Helvetica,sans-Serif" font-size="10.00">System.Reflection.Emit.Property</text>
<text text-anchor="middle" x="79.5" y="-7.5" font-family="Helvetica,sans-Serif" font-size="10.00">Builder</text>
</a>
</g>
</g>
<!-- Node0&#45;&gt;Node5 -->
<g id="edge3" class="edge"><title>Node0&#45;&gt;Node5</title>
<path fill="none" stroke="midnightblue" d="M79.5,-57.2349C79.5,-48.5864 79.5,-38.4969 79.5,-30.523"/>
<polygon fill="midnightblue" stroke="midnightblue" points="76.0001,-57.4751 79.5,-67.4751 83.0001,-57.4751 76.0001,-57.4751"/>
</g>
<!-- Node1 -->
<g id="node2" class="node"><title>Node1</title>
<g id="a_node2"><a xlink:href="class_system_1_1_reflection_1_1_member_info.html" target="_top" xlink:title="Obtains information about the attributes of a member and provides access to member metadata.">
<polygon fill="none" stroke="red" points="2,-123.5 2,-142.5 69,-142.5 69,-123.5 2,-123.5"/>
<text text-anchor="middle" x="35.5" y="-130.5" font-family="Helvetica,sans-Serif" font-size="10.00">MemberInfo</text>
</a>
</g>
</g>
<!-- Node1&#45;&gt;Node0 -->
<g id="edge1" class="edge"><title>Node1&#45;&gt;Node0</title>
<path fill="none" stroke="midnightblue" d="M49.2345,-115.144C56.9005,-105.736 66.1333,-94.4046 72.3695,-86.7511"/>
<polygon fill="midnightblue" stroke="midnightblue" points="46.3691,-113.12 42.7657,-123.083 51.7958,-117.541 46.3691,-113.12"/>
</g>
<!-- Node4 -->
<g id="node3" class="node"><title>Node4</title>
<g id="a_node3"><a xlink:href="interface_system_1_1_runtime_1_1_interop_services_1_1___property_info.html" target="_top" xlink:title="Exposes the public members of the T:System.Reflection.PropertyInfo class to unmanaged code.">
<polygon fill="none" stroke="black" points="87.5,-123.5 87.5,-142.5 161.5,-142.5 161.5,-123.5 87.5,-123.5"/>
<text text-anchor="middle" x="124.5" y="-130.5" font-family="Helvetica,sans-Serif" font-size="10.00">_PropertyInfo</text>
</a>
</g>
</g>
<!-- Node4&#45;&gt;Node0 -->
<g id="edge2" class="edge"><title>Node4&#45;&gt;Node0</title>
<path fill="none" stroke="midnightblue" d="M110.453,-115.144C102.613,-105.736 93.1705,-94.4046 86.7926,-86.7511"/>
<polygon fill="midnightblue" stroke="midnightblue" points="107.979,-117.641 117.069,-123.083 113.356,-113.16 107.979,-117.641"/>
</g>
</g>
</svg>
