<?xml version="1.0" encoding="UTF-8" standalone="no"?>
<!DOCTYPE svg PUBLIC "-//W3C//DTD SVG 1.1//EN"
 "http://www.w3.org/Graphics/SVG/1.1/DTD/svg11.dtd">
<!-- Generated by graphviz version 2.38.0 (20140413.2041)
 -->
<!-- Title: System.Text.GB18030Encoding Pages: 1 -->
<svg width="231pt" height="308pt"
 viewBox="0.00 0.00 230.50 308.00" xmlns="http://www.w3.org/2000/svg" xmlns:xlink="http://www.w3.org/1999/xlink">
<g id="graph0" class="graph" transform="scale(1 1) rotate(0) translate(4 304)">
<title>System.Text.GB18030Encoding</title>
<!-- Node0 -->
<g id="node1" class="node"><title>Node0</title>
<g id="a_node1"><a xlink:title=" ">
<polygon fill="#bfbfbf" stroke="black" points="66.5,-0.5 66.5,-19.5 222.5,-19.5 222.5,-0.5 66.5,-0.5"/>
<text text-anchor="middle" x="144.5" y="-7.5" font-family="Helvetica,sans-Serif" font-size="10.00">System.Text.GB18030Encoding</text>
</a>
</g>
</g>
<!-- Node1 -->
<g id="node2" class="node"><title>Node1</title>
<g id="a_node2"><a xlink:href="class_system_1_1_text_1_1_d_b_c_s_code_page_encoding.html" target="_top" xlink:title=" ">
<polygon fill="none" stroke="black" points="34,-56.5 34,-75.5 163,-75.5 163,-56.5 34,-56.5"/>
<text text-anchor="middle" x="98.5" y="-63.5" font-family="Helvetica,sans-Serif" font-size="10.00">DBCSCodePageEncoding</text>
</a>
</g>
</g>
<!-- Node1&#45;&gt;Node0 -->
<g id="edge1" class="edge"><title>Node1&#45;&gt;Node0</title>
<path fill="none" stroke="midnightblue" d="M112.614,-48.4314C120.676,-38.9673 130.459,-27.4827 137.045,-19.7511"/>
<polygon fill="midnightblue" stroke="midnightblue" points="109.916,-46.2009 106.096,-56.083 115.245,-50.7402 109.916,-46.2009"/>
</g>
<!-- Node2 -->
<g id="node3" class="node"><title>Node2</title>
<g id="a_node3"><a xlink:href="class_system_1_1_text_1_1_base_code_page_encoding.html" target="_top" xlink:title=" ">
<polygon fill="none" stroke="black" points="0,-112.5 0,-131.5 125,-131.5 125,-112.5 0,-112.5"/>
<text text-anchor="middle" x="62.5" y="-119.5" font-family="Helvetica,sans-Serif" font-size="10.00">BaseCodePageEncoding</text>
</a>
</g>
</g>
<!-- Node2&#45;&gt;Node1 -->
<g id="edge2" class="edge"><title>Node2&#45;&gt;Node1</title>
<path fill="none" stroke="midnightblue" d="M74.1229,-103.566C80.3168,-94.2747 87.6677,-83.2484 92.6659,-75.7511"/>
<polygon fill="midnightblue" stroke="midnightblue" points="71.0795,-101.821 68.4447,-112.083 76.9039,-105.704 71.0795,-101.821"/>
</g>
<!-- Node3 -->
<g id="node4" class="node"><title>Node3</title>
<g id="a_node4"><a xlink:href="class_system_1_1_text_1_1_encoding_n_l_s.html" target="_top" xlink:title=" ">
<polygon fill="none" stroke="black" points="24.5,-168.5 24.5,-187.5 100.5,-187.5 100.5,-168.5 24.5,-168.5"/>
<text text-anchor="middle" x="62.5" y="-175.5" font-family="Helvetica,sans-Serif" font-size="10.00">EncodingNLS</text>
</a>
</g>
</g>
<!-- Node3&#45;&gt;Node2 -->
<g id="edge3" class="edge"><title>Node3&#45;&gt;Node2</title>
<path fill="none" stroke="midnightblue" d="M62.5,-157.805C62.5,-148.91 62.5,-138.78 62.5,-131.751"/>
<polygon fill="midnightblue" stroke="midnightblue" points="59.0001,-158.083 62.5,-168.083 66.0001,-158.083 59.0001,-158.083"/>
</g>
<!-- Node4 -->
<g id="node5" class="node"><title>Node4</title>
<g id="a_node5"><a xlink:href="class_system_1_1_text_1_1_encoding.html" target="_top" xlink:title="Represents a character encoding.To browse the .NET Framework source code for this type,...">
<polygon fill="none" stroke="black" points="34,-224.5 34,-243.5 91,-243.5 91,-224.5 34,-224.5"/>
<text text-anchor="middle" x="62.5" y="-231.5" font-family="Helvetica,sans-Serif" font-size="10.00">Encoding</text>
</a>
</g>
</g>
<!-- Node4&#45;&gt;Node3 -->
<g id="edge4" class="edge"><title>Node4&#45;&gt;Node3</title>
<path fill="none" stroke="midnightblue" d="M62.5,-213.805C62.5,-204.91 62.5,-194.78 62.5,-187.751"/>
<polygon fill="midnightblue" stroke="midnightblue" points="59.0001,-214.083 62.5,-224.083 66.0001,-214.083 59.0001,-214.083"/>
</g>
<!-- Node5 -->
<g id="node6" class="node"><title>Node5</title>
<g id="a_node6"><a xlink:href="interface_system_1_1_i_cloneable.html" target="_top" xlink:title="Supports cloning, which creates a new instance of a class with the same value as an existing instance...">
<polygon fill="none" stroke="black" points="31.5,-280.5 31.5,-299.5 93.5,-299.5 93.5,-280.5 31.5,-280.5"/>
<text text-anchor="middle" x="62.5" y="-287.5" font-family="Helvetica,sans-Serif" font-size="10.00">ICloneable</text>
</a>
</g>
</g>
<!-- Node5&#45;&gt;Node4 -->
<g id="edge5" class="edge"><title>Node5&#45;&gt;Node4</title>
<path fill="none" stroke="midnightblue" d="M62.5,-269.805C62.5,-260.91 62.5,-250.78 62.5,-243.751"/>
<polygon fill="midnightblue" stroke="midnightblue" points="59.0001,-270.083 62.5,-280.083 66.0001,-270.083 59.0001,-270.083"/>
</g>
<!-- Node6 -->
<g id="node7" class="node"><title>Node6</title>
<g id="a_node7"><a xlink:href="interface_system_1_1_runtime_1_1_serialization_1_1_i_serializable.html" target="_top" xlink:title="Allows an object to control its own serialization and deserialization.">
<polygon fill="none" stroke="black" points="119,-168.5 119,-187.5 188,-187.5 188,-168.5 119,-168.5"/>
<text text-anchor="middle" x="153.5" y="-175.5" font-family="Helvetica,sans-Serif" font-size="10.00">ISerializable</text>
</a>
</g>
</g>
<!-- Node6&#45;&gt;Node0 -->
<g id="edge8" class="edge"><title>Node6&#45;&gt;Node0</title>
<path fill="none" stroke="midnightblue" d="M160.848,-158.797C169.462,-134.865 181.382,-91.6758 171.5,-56 167.657,-42.1272 158.273,-28.2372 151.651,-19.6357"/>
<polygon fill="midnightblue" stroke="midnightblue" points="157.502,-157.75 157.213,-168.341 164.043,-160.242 157.502,-157.75"/>
</g>
<!-- Node6&#45;&gt;Node1 -->
<g id="edge7" class="edge"><title>Node6&#45;&gt;Node1</title>
<path fill="none" stroke="midnightblue" d="M149.645,-158.268C146.443,-144.89 141.164,-126.729 133.5,-112 126.282,-98.1277 114.641,-84.2376 106.787,-75.6359"/>
<polygon fill="midnightblue" stroke="midnightblue" points="146.266,-159.198 151.852,-168.2 153.099,-157.679 146.266,-159.198"/>
</g>
<!-- Node6&#45;&gt;Node2 -->
<g id="edge6" class="edge"><title>Node6&#45;&gt;Node2</title>
<path fill="none" stroke="midnightblue" d="M130.206,-163.177C113.461,-153.241 91.3996,-140.149 77.0844,-131.655"/>
<polygon fill="midnightblue" stroke="midnightblue" points="128.493,-166.231 138.879,-168.324 132.066,-160.211 128.493,-166.231"/>
</g>
</g>
</svg>
