<?xml version="1.0" encoding="UTF-8" standalone="no"?>
<!DOCTYPE svg PUBLIC "-//W3C//DTD SVG 1.1//EN"
 "http://www.w3.org/Graphics/SVG/1.1/DTD/svg11.dtd">
<!-- Generated by graphviz version 2.38.0 (20140413.2041)
 -->
<!-- Title: System.Runtime.Remoting.Channels.DictionaryEnumeratorByKeys Pages: 1 -->
<svg width="324pt" height="185pt"
 viewBox="0.00 0.00 323.50 185.00" xmlns="http://www.w3.org/2000/svg" xmlns:xlink="http://www.w3.org/1999/xlink">
<g id="graph0" class="graph" transform="scale(1 1) rotate(0) translate(4 181)">
<title>System.Runtime.Remoting.Channels.DictionaryEnumeratorByKeys</title>
<!-- Node3 -->
<g id="node1" class="node"><title>Node3</title>
<g id="a_node1"><a xlink:title=" ">
<polygon fill="#bfbfbf" stroke="black" points="15.5,-0.5 15.5,-41.5 169.5,-41.5 169.5,-0.5 15.5,-0.5"/>
<text text-anchor="start" x="23.5" y="-29.5" font-family="Helvetica,sans-Serif" font-size="10.00">System.Runtime.Remoting.</text>
<text text-anchor="start" x="23.5" y="-18.5" font-family="Helvetica,sans-Serif" font-size="10.00">Channels.DictionaryEnumerator</text>
<text text-anchor="middle" x="92.5" y="-7.5" font-family="Helvetica,sans-Serif" font-size="10.00">ByKeys</text>
</a>
</g>
</g>
<!-- Node4 -->
<g id="node2" class="node"><title>Node4</title>
<g id="a_node2"><a xlink:href="interface_system_1_1_collections_1_1_i_dictionary_enumerator.html" target="_top" xlink:title="Enumerates the elements of a nongeneric dictionary.">
<polygon fill="none" stroke="black" points="36,-95 36,-114 149,-114 149,-95 36,-95"/>
<text text-anchor="middle" x="92.5" y="-102" font-family="Helvetica,sans-Serif" font-size="10.00">IDictionaryEnumerator</text>
</a>
</g>
</g>
<!-- Node4&#45;&gt;Node3 -->
<g id="edge1" class="edge"><title>Node4&#45;&gt;Node3</title>
<path fill="none" stroke="midnightblue" d="M92.5,-84.752C92.5,-71.8856 92.5,-54.8398 92.5,-41.7614"/>
<polygon fill="midnightblue" stroke="midnightblue" points="89.0001,-84.778 92.5,-94.7781 96.0001,-84.7781 89.0001,-84.778"/>
</g>
<!-- Node5 -->
<g id="node3" class="node"><title>Node5</title>
<g id="a_node3"><a xlink:href="interface_system_1_1_collections_1_1_i_enumerator.html" target="_top" xlink:title="Supports a simple iteration over a non&#45;generic collection.">
<polygon fill="none" stroke="black" points="0,-157.5 0,-176.5 69,-176.5 69,-157.5 0,-157.5"/>
<text text-anchor="middle" x="34.5" y="-164.5" font-family="Helvetica,sans-Serif" font-size="10.00">IEnumerator</text>
</a>
</g>
</g>
<!-- Node5&#45;&gt;Node3 -->
<g id="edge3" class="edge"><title>Node5&#45;&gt;Node3</title>
<path fill="none" stroke="midnightblue" d="M27.6943,-147.282C22.9773,-131.233 18.7978,-107.794 26.5,-89 34.3014,-69.9636 50.4117,-53.4355 64.762,-41.5581"/>
<polygon fill="midnightblue" stroke="midnightblue" points="24.4615,-148.656 30.9064,-157.065 31.1122,-146.473 24.4615,-148.656"/>
</g>
<!-- Node5&#45;&gt;Node4 -->
<g id="edge2" class="edge"><title>Node5&#45;&gt;Node4</title>
<path fill="none" stroke="midnightblue" d="M49.7803,-150.061C60.7997,-138.567 75.2533,-123.49 84.2054,-114.152"/>
<polygon fill="midnightblue" stroke="midnightblue" points="47.2038,-147.691 42.81,-157.332 52.2569,-152.535 47.2038,-147.691"/>
</g>
<!-- Node6 -->
<g id="node4" class="node"><title>Node6</title>
<g id="a_node4"><a xlink:href="struct_system_1_1_collections_1_1_dictionary_entry.html" target="_top" xlink:title="Defines a dictionary key/value pair that can be set or retrieved.">
<polygon fill="none" stroke="black" points="167.5,-89.5 167.5,-119.5 315.5,-119.5 315.5,-89.5 167.5,-89.5"/>
<text text-anchor="start" x="175.5" y="-107.5" font-family="Helvetica,sans-Serif" font-size="10.00">System.Collections.Dictionary</text>
<text text-anchor="middle" x="241.5" y="-96.5" font-family="Helvetica,sans-Serif" font-size="10.00">Entry</text>
</a>
</g>
</g>
<!-- Node6&#45;&gt;Node3 -->
<g id="edge4" class="edge"><title>Node6&#45;&gt;Node3</title>
<path fill="none" stroke="#9a32cd" stroke-dasharray="5,2" d="M206.933,-84.5926C183.359,-71.6978 152.211,-54.661 128.365,-41.6177"/>
<polygon fill="#9a32cd" stroke="#9a32cd" points="205.433,-87.7614 215.886,-89.4897 208.792,-81.6201 205.433,-87.7614"/>
<text text-anchor="middle" x="194" y="-63" font-family="Helvetica,sans-Serif" font-size="10.00"> Entry</text>
</g>
</g>
</svg>
