<?xml version="1.0" encoding="UTF-8" standalone="no"?>
<!DOCTYPE svg PUBLIC "-//W3C//DTD SVG 1.1//EN"
 "http://www.w3.org/Graphics/SVG/1.1/DTD/svg11.dtd">
<!-- Generated by graphviz version 2.38.0 (20140413.2041)
 -->
<!-- Title: System.Collections.CaseInsensitiveHashCodeProvider Pages: 1 -->
<svg width="232pt" height="96pt"
 viewBox="0.00 0.00 232.00 96.00" xmlns="http://www.w3.org/2000/svg" xmlns:xlink="http://www.w3.org/1999/xlink">
<g id="graph0" class="graph" transform="scale(1 1) rotate(0) translate(4 92)">
<title>System.Collections.CaseInsensitiveHashCodeProvider</title>
<!-- Node2 -->
<g id="node1" class="node"><title>Node2</title>
<g id="a_node1"><a xlink:title="Supplies a hash code for an object, using a hashing algorithm that ignores the case of strings.">
<polygon fill="#bfbfbf" stroke="black" points="0,-0.5 0,-30.5 172,-30.5 172,-0.5 0,-0.5"/>
<text text-anchor="start" x="8" y="-18.5" font-family="Helvetica,sans-Serif" font-size="10.00">System.Collections.CaseInsensitive</text>
<text text-anchor="middle" x="86" y="-7.5" font-family="Helvetica,sans-Serif" font-size="10.00">HashCodeProvider</text>
</a>
</g>
</g>
<!-- Node2&#45;&gt;Node2 -->
<g id="edge2" class="edge"><title>Node2&#45;&gt;Node2</title>
<path fill="none" stroke="#9a32cd" stroke-dasharray="5,2" d="M182.14,-19.6589C187.081,-18.6305 190,-17.2442 190,-15.5 190,-12.7773 182.886,-10.9268 172.077,-9.94833"/>
<polygon fill="#9a32cd" stroke="#9a32cd" points="181.503,-16.2137 172.077,-21.0517 182.462,-23.1476 181.503,-16.2137"/>
<text text-anchor="middle" x="207" y="-13" font-family="Helvetica,sans-Serif" font-size="10.00"> Default</text>
</g>
<!-- Node3 -->
<g id="node2" class="node"><title>Node3</title>
<g id="a_node2"><a xlink:href="interface_system_1_1_collections_1_1_i_hash_code_provider.html" target="_top" xlink:title="Supplies a hash code for an object, using a custom hash function.">
<polygon fill="none" stroke="black" points="37,-68.5 37,-87.5 135,-87.5 135,-68.5 37,-68.5"/>
<text text-anchor="middle" x="86" y="-75.5" font-family="Helvetica,sans-Serif" font-size="10.00">IHashCodeProvider</text>
</a>
</g>
</g>
<!-- Node3&#45;&gt;Node2 -->
<g id="edge1" class="edge"><title>Node3&#45;&gt;Node2</title>
<path fill="none" stroke="midnightblue" d="M86,-58.2154C86,-49.3565 86,-38.9577 86,-30.7587"/>
<polygon fill="midnightblue" stroke="midnightblue" points="82.5001,-58.3318 86,-68.3318 89.5001,-58.3319 82.5001,-58.3318"/>
</g>
</g>
</svg>
