<?xml version="1.0" encoding="UTF-8" standalone="no"?>
<!DOCTYPE svg PUBLIC "-//W3C//DTD SVG 1.1//EN"
 "http://www.w3.org/Graphics/SVG/1.1/DTD/svg11.dtd">
<!-- Generated by graphviz version 2.38.0 (20140413.2041)
 -->
<!-- Title: System.Globalization.TaiwanLunisolarCalendar Pages: 1 -->
<svg width="151pt" height="207pt"
 viewBox="0.00 0.00 151.00 207.00" xmlns="http://www.w3.org/2000/svg" xmlns:xlink="http://www.w3.org/1999/xlink">
<g id="graph0" class="graph" transform="scale(1 1) rotate(0) translate(4 203)">
<title>System.Globalization.TaiwanLunisolarCalendar</title>
<!-- Node0 -->
<g id="node1" class="node"><title>Node0</title>
<g id="a_node1"><a xlink:title="Represents the Taiwan lunisolar calendar. As for the Taiwan calendar, years are calculated using the ...">
<polygon fill="#bfbfbf" stroke="black" points="0,-0.5 0,-30.5 143,-30.5 143,-0.5 0,-0.5"/>
<text text-anchor="start" x="8" y="-18.5" font-family="Helvetica,sans-Serif" font-size="10.00">System.Globalization.Taiwan</text>
<text text-anchor="middle" x="71.5" y="-7.5" font-family="Helvetica,sans-Serif" font-size="10.00">LunisolarCalendar</text>
</a>
</g>
</g>
<!-- Node1 -->
<g id="node2" class="node"><title>Node1</title>
<g id="a_node2"><a xlink:href="class_system_1_1_globalization_1_1_east_asian_lunisolar_calendar.html" target="_top" xlink:title="Represents a calendar that divides time into months, days, years, and eras, and has dates that are ba...">
<polygon fill="none" stroke="black" points="2,-67.5 2,-86.5 141,-86.5 141,-67.5 2,-67.5"/>
<text text-anchor="middle" x="71.5" y="-74.5" font-family="Helvetica,sans-Serif" font-size="10.00">EastAsianLunisolarCalendar</text>
</a>
</g>
</g>
<!-- Node1&#45;&gt;Node0 -->
<g id="edge1" class="edge"><title>Node1&#45;&gt;Node0</title>
<path fill="none" stroke="midnightblue" d="M71.5,-57.2349C71.5,-48.5864 71.5,-38.4969 71.5,-30.523"/>
<polygon fill="midnightblue" stroke="midnightblue" points="68.0001,-57.4751 71.5,-67.4751 75.0001,-57.4751 68.0001,-57.4751"/>
</g>
<!-- Node2 -->
<g id="node3" class="node"><title>Node2</title>
<g id="a_node3"><a xlink:href="class_system_1_1_globalization_1_1_calendar.html" target="_top" xlink:title="Represents time in divisions, such as weeks, months, and years.">
<polygon fill="none" stroke="black" points="44,-123.5 44,-142.5 99,-142.5 99,-123.5 44,-123.5"/>
<text text-anchor="middle" x="71.5" y="-130.5" font-family="Helvetica,sans-Serif" font-size="10.00">Calendar</text>
</a>
</g>
</g>
<!-- Node2&#45;&gt;Node1 -->
<g id="edge2" class="edge"><title>Node2&#45;&gt;Node1</title>
<path fill="none" stroke="midnightblue" d="M71.5,-112.805C71.5,-103.91 71.5,-93.7798 71.5,-86.7511"/>
<polygon fill="midnightblue" stroke="midnightblue" points="68.0001,-113.083 71.5,-123.083 75.0001,-113.083 68.0001,-113.083"/>
</g>
<!-- Node3 -->
<g id="node4" class="node"><title>Node3</title>
<g id="a_node4"><a xlink:href="interface_system_1_1_i_cloneable.html" target="_top" xlink:title="Supports cloning, which creates a new instance of a class with the same value as an existing instance...">
<polygon fill="none" stroke="black" points="40.5,-179.5 40.5,-198.5 102.5,-198.5 102.5,-179.5 40.5,-179.5"/>
<text text-anchor="middle" x="71.5" y="-186.5" font-family="Helvetica,sans-Serif" font-size="10.00">ICloneable</text>
</a>
</g>
</g>
<!-- Node3&#45;&gt;Node2 -->
<g id="edge3" class="edge"><title>Node3&#45;&gt;Node2</title>
<path fill="none" stroke="midnightblue" d="M71.5,-168.805C71.5,-159.91 71.5,-149.78 71.5,-142.751"/>
<polygon fill="midnightblue" stroke="midnightblue" points="68.0001,-169.083 71.5,-179.083 75.0001,-169.083 68.0001,-169.083"/>
</g>
</g>
</svg>
