<?xml version="1.0" encoding="UTF-8" standalone="no"?>
<!DOCTYPE svg PUBLIC "-//W3C//DTD SVG 1.1//EN"
 "http://www.w3.org/Graphics/SVG/1.1/DTD/svg11.dtd">
<!-- Generated by graphviz version 2.38.0 (20140413.2041)
 -->
<!-- Title: System.ComponentModel.TypeConverter.SimplePropertyDescriptor Pages: 1 -->
<svg width="277pt" height="117pt"
 viewBox="0.00 0.00 276.50 117.00" xmlns="http://www.w3.org/2000/svg" xmlns:xlink="http://www.w3.org/1999/xlink">
<g id="graph0" class="graph" transform="scale(1 1) rotate(0) translate(4 113)">
<title>System.ComponentModel.TypeConverter.SimplePropertyDescriptor</title>
<!-- Node3 -->
<g id="node1" class="node"><title>Node3</title>
<g id="a_node1"><a xlink:title="Represents an abstract class that provides properties for objects that do not have properties.">
<polygon fill="#bfbfbf" stroke="black" points="0,-0.5 0,-30.5 171,-30.5 171,-0.5 0,-0.5"/>
<text text-anchor="start" x="8" y="-18.5" font-family="Helvetica,sans-Serif" font-size="10.00">System.ComponentModel.Type</text>
<text text-anchor="middle" x="85.5" y="-7.5" font-family="Helvetica,sans-Serif" font-size="10.00">Converter.SimplePropertyDescriptor</text>
</a>
</g>
</g>
<!-- Node4 -->
<g id="node2" class="node"><title>Node4</title>
<g id="a_node2"><a xlink:href="class_system_1_1_component_model_1_1_property_descriptor.html" target="_top" xlink:title="Provides an abstraction of a property on a class.">
<polygon fill="none" stroke="red" points="2.5,-89.5 2.5,-108.5 100.5,-108.5 100.5,-89.5 2.5,-89.5"/>
<text text-anchor="middle" x="51.5" y="-96.5" font-family="Helvetica,sans-Serif" font-size="10.00">PropertyDescriptor</text>
</a>
</g>
</g>
<!-- Node4&#45;&gt;Node3 -->
<g id="edge1" class="edge"><title>Node4&#45;&gt;Node3</title>
<path fill="none" stroke="midnightblue" d="M59.1497,-79.6633C65.3472,-64.8073 73.9515,-44.1824 79.6189,-30.5974"/>
<polygon fill="midnightblue" stroke="midnightblue" points="55.7586,-78.7014 55.1386,-89.2781 62.219,-81.3966 55.7586,-78.7014"/>
</g>
<!-- Node6 -->
<g id="node3" class="node"><title>Node6</title>
<g id="a_node3"><a xlink:href="class_system_1_1_type.html" target="_top" xlink:title="Represents type declarations: class types, interface types, array types, value types,...">
<polygon fill="none" stroke="red" points="118.5,-89.5 118.5,-108.5 192.5,-108.5 192.5,-89.5 118.5,-89.5"/>
<text text-anchor="middle" x="155.5" y="-96.5" font-family="Helvetica,sans-Serif" font-size="10.00">System.Type</text>
</a>
</g>
</g>
<!-- Node6&#45;&gt;Node3 -->
<g id="edge2" class="edge"><title>Node6&#45;&gt;Node3</title>
<path fill="none" stroke="#9a32cd" stroke-dasharray="5,2" d="M141.214,-81.3673C128.376,-66.4199 109.729,-44.71 97.6082,-30.5974"/>
<polygon fill="#9a32cd" stroke="#9a32cd" points="138.838,-83.9725 148.009,-89.2781 144.148,-79.4116 138.838,-83.9725"/>
<text text-anchor="middle" x="167.5" y="-63" font-family="Helvetica,sans-Serif" font-size="10.00"> ComponentType</text>
<text text-anchor="middle" x="167.5" y="-52" font-family="Helvetica,sans-Serif" font-size="10.00">PropertyType</text>
</g>
<!-- Node6&#45;&gt;Node6 -->
<g id="edge3" class="edge"><title>Node6&#45;&gt;Node6</title>
<path fill="none" stroke="#9a32cd" stroke-dasharray="5,2" d="M202.686,-104.845C207.457,-103.685 210.5,-101.737 210.5,-99 210.5,-94.6211 202.71,-92.2606 192.515,-91.9185"/>
<polygon fill="#9a32cd" stroke="#9a32cd" points="202.02,-101.4 192.515,-106.082 202.865,-108.349 202.02,-101.4"/>
<text text-anchor="middle" x="239.5" y="-96.5" font-family="Helvetica,sans-Serif" font-size="10.00"> EmptyTypes</text>
</g>
</g>
</svg>
