<?xml version="1.0" encoding="UTF-8" standalone="no"?>
<!DOCTYPE svg PUBLIC "-//W3C//DTD SVG 1.1//EN"
 "http://www.w3.org/Graphics/SVG/1.1/DTD/svg11.dtd">
<!-- Generated by graphviz version 2.38.0 (20140413.2041)
 -->
<!-- Title: System.Reflection.Emit.FieldOnTypeBuilderInstantiation Pages: 1 -->
<svg width="240pt" height="207pt"
 viewBox="0.00 0.00 239.50 207.00" xmlns="http://www.w3.org/2000/svg" xmlns:xlink="http://www.w3.org/1999/xlink">
<g id="graph0" class="graph" transform="scale(1 1) rotate(0) translate(4 203)">
<title>System.Reflection.Emit.FieldOnTypeBuilderInstantiation</title>
<!-- Node0 -->
<g id="node1" class="node"><title>Node0</title>
<g id="a_node1"><a xlink:title=" ">
<polygon fill="#bfbfbf" stroke="black" points="88.5,-0.5 88.5,-30.5 231.5,-30.5 231.5,-0.5 88.5,-0.5"/>
<text text-anchor="start" x="96.5" y="-18.5" font-family="Helvetica,sans-Serif" font-size="10.00">System.Reflection.Emit.Field</text>
<text text-anchor="middle" x="160" y="-7.5" font-family="Helvetica,sans-Serif" font-size="10.00">OnTypeBuilderInstantiation</text>
</a>
</g>
</g>
<!-- Node1 -->
<g id="node2" class="node"><title>Node1</title>
<g id="a_node2"><a xlink:href="class_system_1_1_reflection_1_1_field_info.html" target="_top" xlink:title="Discovers the attributes of a field and provides access to field metadata.">
<polygon fill="none" stroke="black" points="133.5,-67.5 133.5,-86.5 186.5,-86.5 186.5,-67.5 133.5,-67.5"/>
<text text-anchor="middle" x="160" y="-74.5" font-family="Helvetica,sans-Serif" font-size="10.00">FieldInfo</text>
</a>
</g>
</g>
<!-- Node1&#45;&gt;Node0 -->
<g id="edge1" class="edge"><title>Node1&#45;&gt;Node0</title>
<path fill="none" stroke="midnightblue" d="M160,-57.2349C160,-48.5864 160,-38.4969 160,-30.523"/>
<polygon fill="midnightblue" stroke="midnightblue" points="156.5,-57.4751 160,-67.4751 163.5,-57.4751 156.5,-57.4751"/>
</g>
<!-- Node2 -->
<g id="node3" class="node"><title>Node2</title>
<g id="a_node3"><a xlink:href="class_system_1_1_reflection_1_1_member_info.html" target="_top" xlink:title="Obtains information about the attributes of a member and provides access to member metadata.">
<polygon fill="none" stroke="black" points="86.5,-123.5 86.5,-142.5 153.5,-142.5 153.5,-123.5 86.5,-123.5"/>
<text text-anchor="middle" x="120" y="-130.5" font-family="Helvetica,sans-Serif" font-size="10.00">MemberInfo</text>
</a>
</g>
</g>
<!-- Node2&#45;&gt;Node1 -->
<g id="edge2" class="edge"><title>Node2&#45;&gt;Node1</title>
<path fill="none" stroke="midnightblue" d="M132.7,-114.855C139.626,-105.505 147.906,-94.3265 153.518,-86.7511"/>
<polygon fill="midnightblue" stroke="midnightblue" points="129.745,-112.964 126.605,-123.083 135.37,-117.131 129.745,-112.964"/>
</g>
<!-- Node3 -->
<g id="node4" class="node"><title>Node3</title>
<g id="a_node4"><a xlink:href="interface_system_1_1_reflection_1_1_i_custom_attribute_provider.html" target="_top" xlink:title="Provides custom attributes for reflection objects that support them.">
<polygon fill="none" stroke="black" points="0,-179.5 0,-198.5 124,-198.5 124,-179.5 0,-179.5"/>
<text text-anchor="middle" x="62" y="-186.5" font-family="Helvetica,sans-Serif" font-size="10.00">ICustomAttributeProvider</text>
</a>
</g>
</g>
<!-- Node3&#45;&gt;Node2 -->
<g id="edge3" class="edge"><title>Node3&#45;&gt;Node2</title>
<path fill="none" stroke="midnightblue" d="M78.9131,-172.253C89.203,-162.673 101.966,-150.791 110.512,-142.834"/>
<polygon fill="midnightblue" stroke="midnightblue" points="76.2527,-169.948 71.3187,-179.324 81.0226,-175.071 76.2527,-169.948"/>
</g>
<!-- Node4 -->
<g id="node5" class="node"><title>Node4</title>
<g id="a_node5"><a xlink:href="interface_system_1_1_runtime_1_1_interop_services_1_1___member_info.html" target="_top" xlink:title="Exposes the public members of the T:System.Reflection.MemberInfo class to unmanaged code.">
<polygon fill="none" stroke="black" points="142,-179.5 142,-198.5 214,-198.5 214,-179.5 142,-179.5"/>
<text text-anchor="middle" x="178" y="-186.5" font-family="Helvetica,sans-Serif" font-size="10.00">_MemberInfo</text>
</a>
</g>
</g>
<!-- Node4&#45;&gt;Node2 -->
<g id="edge4" class="edge"><title>Node4&#45;&gt;Node2</title>
<path fill="none" stroke="midnightblue" d="M161.087,-172.253C150.797,-162.673 138.034,-150.791 129.488,-142.834"/>
<polygon fill="midnightblue" stroke="midnightblue" points="158.977,-175.071 168.681,-179.324 163.747,-169.948 158.977,-175.071"/>
</g>
<!-- Node5 -->
<g id="node6" class="node"><title>Node5</title>
<g id="a_node6"><a xlink:href="interface_system_1_1_runtime_1_1_interop_services_1_1___field_info.html" target="_top" xlink:title="Exposes the public members of the T:System.Reflection.FieldInfo class to unmanaged code.">
<polygon fill="none" stroke="black" points="172,-123.5 172,-142.5 230,-142.5 230,-123.5 172,-123.5"/>
<text text-anchor="middle" x="201" y="-130.5" font-family="Helvetica,sans-Serif" font-size="10.00">_FieldInfo</text>
</a>
</g>
</g>
<!-- Node5&#45;&gt;Node1 -->
<g id="edge5" class="edge"><title>Node5&#45;&gt;Node1</title>
<path fill="none" stroke="midnightblue" d="M187.983,-114.855C180.883,-105.505 172.396,-94.3265 166.644,-86.7511"/>
<polygon fill="midnightblue" stroke="midnightblue" points="185.395,-117.235 194.23,-123.083 190.97,-113.002 185.395,-117.235"/>
</g>
</g>
</svg>
