<?xml version="1.0" encoding="UTF-8" standalone="no"?>
<!DOCTYPE svg PUBLIC "-//W3C//DTD SVG 1.1//EN"
 "http://www.w3.org/Graphics/SVG/1.1/DTD/svg11.dtd">
<!-- Generated by graphviz version 2.38.0 (20140413.2041)
 -->
<!-- Title: System.Management.Instrumentation.InstrumentationBaseException Pages: 1 -->
<svg width="190pt" height="162pt"
 viewBox="0.00 0.00 190.00 162.00" xmlns="http://www.w3.org/2000/svg" xmlns:xlink="http://www.w3.org/1999/xlink">
<g id="graph0" class="graph" transform="scale(1 1) rotate(0) translate(4 158)">
<title>System.Management.Instrumentation.InstrumentationBaseException</title>
<!-- Node0 -->
<g id="node1" class="node"><title>Node0</title>
<g id="a_node1"><a xlink:title="Represents the base provider&#45;related exception.Note: the WMI .NET libraries are now considered in fin...">
<polygon fill="#bfbfbf" stroke="black" points="0,-67.5 0,-97.5 182,-97.5 182,-67.5 0,-67.5"/>
<text text-anchor="start" x="8" y="-85.5" font-family="Helvetica,sans-Serif" font-size="10.00">System.Management.Instrumentation.</text>
<text text-anchor="middle" x="91" y="-74.5" font-family="Helvetica,sans-Serif" font-size="10.00">InstrumentationBaseException</text>
</a>
</g>
</g>
<!-- Node4 -->
<g id="node3" class="node"><title>Node4</title>
<g id="a_node3"><a xlink:href="class_system_1_1_management_1_1_instrumentation_1_1_instrumentation_exception.html" target="_top" xlink:title="Represents a provider&#45;related exception.Note: the WMI .NET libraries are now considered in final stat...">
<polygon fill="none" stroke="red" points="0,-0.5 0,-30.5 182,-30.5 182,-0.5 0,-0.5"/>
<text text-anchor="start" x="8" y="-18.5" font-family="Helvetica,sans-Serif" font-size="10.00">System.Management.Instrumentation.</text>
<text text-anchor="middle" x="91" y="-7.5" font-family="Helvetica,sans-Serif" font-size="10.00">InstrumentationException</text>
</a>
</g>
</g>
<!-- Node0&#45;&gt;Node4 -->
<g id="edge2" class="edge"><title>Node0&#45;&gt;Node4</title>
<path fill="none" stroke="midnightblue" d="M91,-57.1081C91,-48.1539 91,-38.3227 91,-30.5765"/>
<polygon fill="midnightblue" stroke="midnightblue" points="87.5001,-57.3959 91,-67.396 94.5001,-57.396 87.5001,-57.3959"/>
</g>
<!-- Node1 -->
<g id="node2" class="node"><title>Node1</title>
<g id="a_node2"><a xlink:href="class_system_1_1_exception.html" target="_top" xlink:title="Represents errors that occur during application execution.To browse the .NET Framework source code fo...">
<polygon fill="none" stroke="red" points="61,-134.5 61,-153.5 121,-153.5 121,-134.5 61,-134.5"/>
<text text-anchor="middle" x="91" y="-141.5" font-family="Helvetica,sans-Serif" font-size="10.00">Exception</text>
</a>
</g>
</g>
<!-- Node1&#45;&gt;Node0 -->
<g id="edge1" class="edge"><title>Node1&#45;&gt;Node0</title>
<path fill="none" stroke="midnightblue" d="M91,-124.235C91,-115.586 91,-105.497 91,-97.523"/>
<polygon fill="midnightblue" stroke="midnightblue" points="87.5001,-124.475 91,-134.475 94.5001,-124.475 87.5001,-124.475"/>
</g>
</g>
</svg>
