<?xml version="1.0" encoding="UTF-8" standalone="no"?>
<!DOCTYPE svg PUBLIC "-//W3C//DTD SVG 1.1//EN"
 "http://www.w3.org/Graphics/SVG/1.1/DTD/svg11.dtd">
<!-- Generated by graphviz version 2.38.0 (20140413.2041)
 -->
<!-- Title: System.Runtime.InteropServices.WindowsRuntime.ICustomPropertyProviderProxy&lt; T1, T2 &gt; Pages: 1 -->
<svg width="495pt" height="256pt"
 viewBox="0.00 0.00 495.00 256.00" xmlns="http://www.w3.org/2000/svg" xmlns:xlink="http://www.w3.org/1999/xlink">
<g id="graph0" class="graph" transform="scale(1 1) rotate(0) translate(4 252)">
<title>System.Runtime.InteropServices.WindowsRuntime.ICustomPropertyProviderProxy&lt; T1, T2 &gt;</title>
<!-- Node8 -->
<g id="node1" class="node"><title>Node8</title>
<g id="a_node1"><a xlink:title=" ">
<polygon fill="#bfbfbf" stroke="black" points="284,-103.5 284,-144.5 487,-144.5 487,-103.5 284,-103.5"/>
<text text-anchor="start" x="292" y="-132.5" font-family="Helvetica,sans-Serif" font-size="10.00">System.Runtime.InteropServices.</text>
<text text-anchor="start" x="292" y="-121.5" font-family="Helvetica,sans-Serif" font-size="10.00">WindowsRuntime.ICustomPropertyProvider</text>
<text text-anchor="middle" x="385.5" y="-110.5" font-family="Helvetica,sans-Serif" font-size="10.00">Proxy&lt; T1, T2 &gt;</text>
</a>
</g>
</g>
<!-- Node9 -->
<g id="node2" class="node"><title>Node9</title>
<g id="a_node2"><a xlink:href="interface_system_1_1_runtime_1_1_interop_services_1_1_windows_runtime_1_1_i_get_proxy_target.html" target="_top" xlink:title=" ">
<polygon fill="none" stroke="black" points="142.5,-228.5 142.5,-247.5 229.5,-247.5 229.5,-228.5 142.5,-228.5"/>
<text text-anchor="middle" x="186" y="-235.5" font-family="Helvetica,sans-Serif" font-size="10.00">IGetProxyTarget</text>
</a>
</g>
</g>
<!-- Node9&#45;&gt;Node8 -->
<g id="edge1" class="edge"><title>Node9&#45;&gt;Node8</title>
<path fill="none" stroke="midnightblue" d="M233.643,-225.11C238.574,-223.266 243.446,-221.228 248,-219 290.015,-198.446 333.516,-165.862 359.798,-144.705"/>
<polygon fill="midnightblue" stroke="midnightblue" points="232.444,-221.822 224.154,-228.419 234.749,-228.431 232.444,-221.822"/>
</g>
<!-- Node10 -->
<g id="node3" class="node"><title>Node10</title>
<g id="a_node3"><a xlink:href="interface_system_1_1_runtime_1_1_interop_services_1_1_windows_runtime_1_1_i_custom_property_provider.html" target="_top" xlink:title=" ">
<polygon fill="none" stroke="black" points="124,-190.5 124,-209.5 248,-209.5 248,-190.5 124,-190.5"/>
<text text-anchor="middle" x="186" y="-197.5" font-family="Helvetica,sans-Serif" font-size="10.00">ICustomPropertyProvider</text>
</a>
</g>
</g>
<!-- Node10&#45;&gt;Node8 -->
<g id="edge2" class="edge"><title>Node10&#45;&gt;Node8</title>
<path fill="none" stroke="midnightblue" d="M229.472,-187.333C235.717,-185.308 242.048,-183.164 248,-181 278.41,-169.942 311.952,-155.961 338.176,-144.613"/>
<polygon fill="midnightblue" stroke="midnightblue" points="228.269,-184.043 219.796,-190.403 230.386,-190.715 228.269,-184.043"/>
</g>
<!-- Node11 -->
<g id="node4" class="node"><title>Node11</title>
<g id="a_node4"><a xlink:href="interface_system_1_1_runtime_1_1_interop_services_1_1_i_custom_query_interface.html" target="_top" xlink:title="Enables developers to provide a custom, managed implementation of the IUnknown::QueryInterface(REFIID...">
<polygon fill="none" stroke="black" points="128,-152.5 128,-171.5 244,-171.5 244,-152.5 128,-152.5"/>
<text text-anchor="middle" x="186" y="-159.5" font-family="Helvetica,sans-Serif" font-size="10.00">ICustomQueryInterface</text>
</a>
</g>
</g>
<!-- Node11&#45;&gt;Node8 -->
<g id="edge3" class="edge"><title>Node11&#45;&gt;Node8</title>
<path fill="none" stroke="midnightblue" d="M246.718,-150.51C258.535,-148.236 271.241,-145.792 283.987,-143.339"/>
<polygon fill="midnightblue" stroke="midnightblue" points="245.741,-147.134 236.583,-152.46 247.064,-154.008 245.741,-147.134"/>
</g>
<!-- Node12 -->
<g id="node5" class="node"><title>Node12</title>
<g id="a_node5"><a xlink:href="interface_system_1_1_collections_1_1_i_enumerable.html" target="_top" xlink:title="Exposes an enumerator, which supports a simple iteration over a non&#45;generic collection....">
<polygon fill="none" stroke="black" points="150.5,-114.5 150.5,-133.5 221.5,-133.5 221.5,-114.5 150.5,-114.5"/>
<text text-anchor="middle" x="186" y="-121.5" font-family="Helvetica,sans-Serif" font-size="10.00">IEnumerable</text>
</a>
</g>
</g>
<!-- Node12&#45;&gt;Node8 -->
<g id="edge4" class="edge"><title>Node12&#45;&gt;Node8</title>
<path fill="none" stroke="midnightblue" d="M232.161,-124C247.676,-124 265.722,-124 283.854,-124"/>
<polygon fill="midnightblue" stroke="midnightblue" points="231.854,-120.5 221.854,-124 231.854,-127.5 231.854,-120.5"/>
</g>
<!-- Node13 -->
<g id="node6" class="node"><title>Node13</title>
<g id="a_node6"><a xlink:href="interface_system_1_1_runtime_1_1_interop_services_1_1_windows_runtime_1_1_i_bindable_vector.html" target="_top" xlink:title=" ">
<polygon fill="none" stroke="black" points="143.5,-38.5 143.5,-57.5 228.5,-57.5 228.5,-38.5 143.5,-38.5"/>
<text text-anchor="middle" x="186" y="-45.5" font-family="Helvetica,sans-Serif" font-size="10.00">IBindableVector</text>
</a>
</g>
</g>
<!-- Node13&#45;&gt;Node8 -->
<g id="edge5" class="edge"><title>Node13&#45;&gt;Node8</title>
<path fill="none" stroke="midnightblue" d="M221.7,-61.3527C251.957,-72.9961 296.325,-90.0694 331.104,-103.453"/>
<polygon fill="midnightblue" stroke="midnightblue" points="222.603,-57.9504 212.014,-57.6255 220.089,-64.4834 222.603,-57.9504"/>
</g>
<!-- Node14 -->
<g id="node7" class="node"><title>Node14</title>
<g id="a_node7"><a xlink:href="interface_system_1_1_runtime_1_1_interop_services_1_1_windows_runtime_1_1_i_bindable_iterable.html" target="_top" xlink:title=" ">
<polygon fill="none" stroke="black" points="0,-38.5 0,-57.5 88,-57.5 88,-38.5 0,-38.5"/>
<text text-anchor="middle" x="44" y="-45.5" font-family="Helvetica,sans-Serif" font-size="10.00">IBindableIterable</text>
</a>
</g>
</g>
<!-- Node14&#45;&gt;Node8 -->
<g id="edge7" class="edge"><title>Node14&#45;&gt;Node8</title>
<path fill="none" stroke="midnightblue" d="M93.7422,-59.8892C103.742,-62.2815 114.204,-64.7506 124,-67 178.371,-79.4854 239.274,-92.846 288.512,-103.492"/>
<polygon fill="midnightblue" stroke="midnightblue" points="94.48,-56.467 83.939,-57.5336 92.8445,-63.2732 94.48,-56.467"/>
</g>
<!-- Node14&#45;&gt;Node13 -->
<g id="edge6" class="edge"><title>Node14&#45;&gt;Node13</title>
<path fill="none" stroke="midnightblue" d="M98.242,-48C113.123,-48 129.078,-48 143.195,-48"/>
<polygon fill="midnightblue" stroke="midnightblue" points="98.147,-44.5001 88.147,-48 98.1469,-51.5001 98.147,-44.5001"/>
</g>
<!-- Node15 -->
<g id="node8" class="node"><title>Node15</title>
<g id="a_node8"><a xlink:href="interface_system_1_1_runtime_1_1_interop_services_1_1_windows_runtime_1_1_i_bindable_vector_view.html" target="_top" xlink:title=" ">
<polygon fill="none" stroke="black" points="133,-0.5 133,-19.5 239,-19.5 239,-0.5 133,-0.5"/>
<text text-anchor="middle" x="186" y="-7.5" font-family="Helvetica,sans-Serif" font-size="10.00">IBindableVectorView</text>
</a>
</g>
</g>
<!-- Node14&#45;&gt;Node15 -->
<g id="edge9" class="edge"><title>Node14&#45;&gt;Node15</title>
<path fill="none" stroke="midnightblue" d="M90.1176,-35.7538C109.415,-30.516 131.612,-24.4909 149.683,-19.5859"/>
<polygon fill="midnightblue" stroke="midnightblue" points="89.0619,-32.4136 80.3279,-38.411 90.8956,-39.1692 89.0619,-32.4136"/>
</g>
<!-- Node15&#45;&gt;Node8 -->
<g id="edge8" class="edge"><title>Node15&#45;&gt;Node8</title>
<path fill="none" stroke="midnightblue" d="M233.643,-22.8895C238.574,-24.7344 243.446,-26.7722 248,-29 290.015,-49.5544 333.516,-82.1375 359.798,-103.295"/>
<polygon fill="midnightblue" stroke="midnightblue" points="234.749,-19.5686 224.154,-19.5807 232.444,-26.1782 234.749,-19.5686"/>
</g>
</g>
</svg>
