<?xml version="1.0" encoding="UTF-8" standalone="no"?>
<!DOCTYPE svg PUBLIC "-//W3C//DTD SVG 1.1//EN"
 "http://www.w3.org/Graphics/SVG/1.1/DTD/svg11.dtd">
<!-- Generated by graphviz version 2.38.0 (20140413.2041)
 -->
<!-- Title: System.Resources.ResourceSet Pages: 1 -->
<svg width="493pt" height="139pt"
 viewBox="0.00 0.00 493.00 139.00" xmlns="http://www.w3.org/2000/svg" xmlns:xlink="http://www.w3.org/1999/xlink">
<g id="graph0" class="graph" transform="scale(1 1) rotate(0) translate(4 135)">
<title>System.Resources.ResourceSet</title>
<!-- Node3 -->
<g id="node1" class="node"><title>Node3</title>
<g id="a_node1"><a xlink:title="Stores all the resources localized for one particular culture, ignoring all other cultures,...">
<polygon fill="#bfbfbf" stroke="black" points="326,-57.5 326,-76.5 485,-76.5 485,-57.5 326,-57.5"/>
<text text-anchor="middle" x="405.5" y="-64.5" font-family="Helvetica,sans-Serif" font-size="10.00">System.Resources.ResourceSet</text>
</a>
</g>
</g>
<!-- Node4 -->
<g id="node2" class="node"><title>Node4</title>
<g id="a_node2"><a xlink:href="interface_system_1_1_i_disposable.html" target="_top" xlink:title="Provides a mechanism for releasing unmanaged resources.To browse the .NET Framework source code for t...">
<polygon fill="none" stroke="black" points="2,-111.5 2,-130.5 69,-130.5 69,-111.5 2,-111.5"/>
<text text-anchor="middle" x="35.5" y="-118.5" font-family="Helvetica,sans-Serif" font-size="10.00">IDisposable</text>
</a>
</g>
</g>
<!-- Node4&#45;&gt;Node3 -->
<g id="edge1" class="edge"><title>Node4&#45;&gt;Node3</title>
<path fill="none" stroke="midnightblue" d="M79.239,-122.056C82.8789,-122.068 86.5037,-122.053 90,-122 163.803,-120.889 183.348,-130.029 256,-117 302.591,-108.645 354.45,-88.5487 382.893,-76.5319"/>
<polygon fill="midnightblue" stroke="midnightblue" points="79.0681,-118.555 69.0351,-121.959 79.0012,-125.554 79.0681,-118.555"/>
</g>
<!-- Node6 -->
<g id="node4" class="node"><title>Node6</title>
<g id="a_node4"><a xlink:href="interface_system_1_1_resources_1_1_i_resource_reader.html" target="_top" xlink:title="Provides the base functionality for reading data from resource files.">
<polygon fill="none" stroke="black" points="109,-77 109,-107 255,-107 255,-77 109,-77"/>
<text text-anchor="start" x="117" y="-95" font-family="Helvetica,sans-Serif" font-size="10.00">System.Resources.IResource</text>
<text text-anchor="middle" x="182" y="-84" font-family="Helvetica,sans-Serif" font-size="10.00">Reader</text>
</a>
</g>
</g>
<!-- Node4&#45;&gt;Node6 -->
<g id="edge5" class="edge"><title>Node4&#45;&gt;Node6</title>
<path fill="none" stroke="midnightblue" d="M79.104,-112.45C88.4753,-110.569 98.6517,-108.527 108.826,-106.485"/>
<polygon fill="midnightblue" stroke="midnightblue" points="78.4051,-109.02 69.2893,-114.419 79.7825,-115.883 78.4051,-109.02"/>
</g>
<!-- Node5 -->
<g id="node3" class="node"><title>Node5</title>
<g id="a_node3"><a xlink:href="interface_system_1_1_collections_1_1_i_enumerable.html" target="_top" xlink:title="Exposes an enumerator, which supports a simple iteration over a non&#45;generic collection....">
<polygon fill="none" stroke="black" points="0,-38.5 0,-57.5 71,-57.5 71,-38.5 0,-38.5"/>
<text text-anchor="middle" x="35.5" y="-45.5" font-family="Helvetica,sans-Serif" font-size="10.00">IEnumerable</text>
</a>
</g>
</g>
<!-- Node5&#45;&gt;Node3 -->
<g id="edge2" class="edge"><title>Node5&#45;&gt;Node3</title>
<path fill="none" stroke="midnightblue" d="M81.1384,-50.3047C141.773,-53.4353 251.147,-59.0823 325.746,-62.9339"/>
<polygon fill="midnightblue" stroke="midnightblue" points="81.2877,-46.8078 71.1205,-49.7875 80.9267,-53.7985 81.2877,-46.8078"/>
</g>
<!-- Node5&#45;&gt;Node6 -->
<g id="edge4" class="edge"><title>Node5&#45;&gt;Node6</title>
<path fill="none" stroke="midnightblue" d="M77.8769,-60.5992C94.6057,-65.6931 114.054,-71.6151 131.524,-76.9346"/>
<polygon fill="midnightblue" stroke="midnightblue" points="78.4402,-57.1121 67.8543,-57.5473 76.4011,-63.8086 78.4402,-57.1121"/>
</g>
<!-- Node7 -->
<g id="node5" class="node"><title>Node7</title>
<g id="a_node5"><a xlink:href="class_system_1_1_collections_1_1_hashtable.html" target="_top" xlink:title="Represents a collection of key/value pairs that are organized based on the hash code of the key....">
<polygon fill="none" stroke="red" points="108,-0.5 108,-19.5 256,-19.5 256,-0.5 108,-0.5"/>
<text text-anchor="middle" x="182" y="-7.5" font-family="Helvetica,sans-Serif" font-size="10.00">System.Collections.Hashtable</text>
</a>
</g>
</g>
<!-- Node5&#45;&gt;Node7 -->
<g id="edge7" class="edge"><title>Node5&#45;&gt;Node7</title>
<path fill="none" stroke="midnightblue" d="M81.0207,-36.1099C83.7203,-35.3945 86.3962,-34.6868 89,-34 107.195,-29.2007 127.429,-23.9165 144.278,-19.531"/>
<polygon fill="midnightblue" stroke="midnightblue" points="79.9947,-32.761 71.2282,-38.7107 81.7916,-39.5265 79.9947,-32.761"/>
</g>
<!-- Node6&#45;&gt;Node3 -->
<g id="edge3" class="edge"><title>Node6&#45;&gt;Node3</title>
<path fill="none" stroke="#9a32cd" stroke-dasharray="5,2" d="M265.159,-82.727C285.016,-80.4858 306.188,-78.0961 325.878,-75.8738"/>
<polygon fill="#9a32cd" stroke="#9a32cd" points="264.765,-79.2491 255.221,-83.8487 265.55,-86.2049 264.765,-79.2491"/>
<text text-anchor="middle" x="291" y="-84" font-family="Helvetica,sans-Serif" font-size="10.00"> Reader</text>
</g>
<!-- Node7&#45;&gt;Node3 -->
<g id="edge6" class="edge"><title>Node7&#45;&gt;Node3</title>
<path fill="none" stroke="#9a32cd" stroke-dasharray="5,2" d="M266.288,-14.8557C280.355,-16.7562 294.701,-19.3808 308,-23 337.493,-31.0263 369.312,-47.1443 388.041,-57.4851"/>
<polygon fill="#9a32cd" stroke="#9a32cd" points="266.467,-11.3512 256.113,-13.5959 265.607,-18.2982 266.467,-11.3512"/>
<text text-anchor="middle" x="291" y="-26" font-family="Helvetica,sans-Serif" font-size="10.00"> Table</text>
</g>
</g>
</svg>
