<?xml version="1.0" encoding="UTF-8" standalone="no"?>
<!DOCTYPE svg PUBLIC "-//W3C//DTD SVG 1.1//EN"
 "http://www.w3.org/Graphics/SVG/1.1/DTD/svg11.dtd">
<!-- Generated by graphviz version 2.38.0 (20140413.2041)
 -->
<!-- Title: System.TypeLoadException Pages: 1 -->
<svg width="464pt" height="116pt"
 viewBox="0.00 0.00 464.00 116.00" xmlns="http://www.w3.org/2000/svg" xmlns:xlink="http://www.w3.org/1999/xlink">
<g id="graph0" class="graph" transform="scale(1 1) rotate(0) translate(4 112)">
<title>System.TypeLoadException</title>
<!-- Node0 -->
<g id="node1" class="node"><title>Node0</title>
<g id="a_node1"><a xlink:title="The exception that is thrown when type&#45;loading failures occur.">
<polygon fill="#bfbfbf" stroke="black" points="130,-44.5 130,-63.5 269,-63.5 269,-44.5 130,-44.5"/>
<text text-anchor="middle" x="199.5" y="-51.5" font-family="Helvetica,sans-Serif" font-size="10.00">System.TypeLoadException</text>
</a>
</g>
</g>
<!-- Node5 -->
<g id="node4" class="node"><title>Node5</title>
<g id="a_node4"><a xlink:href="class_system_1_1_dll_not_found_exception.html" target="_top" xlink:title="The exception that is thrown when a DLL specified in a DLL import cannot be found.">
<polygon fill="none" stroke="black" points="305.5,-88.5 305.5,-107.5 455.5,-107.5 455.5,-88.5 305.5,-88.5"/>
<text text-anchor="middle" x="380.5" y="-95.5" font-family="Helvetica,sans-Serif" font-size="10.00">System.DllNotFoundException</text>
</a>
</g>
</g>
<!-- Node0&#45;&gt;Node5 -->
<g id="edge3" class="edge"><title>Node0&#45;&gt;Node5</title>
<path fill="none" stroke="midnightblue" d="M249.192,-65.969C277.964,-73.0414 313.895,-81.8736 340.735,-88.4713"/>
<polygon fill="midnightblue" stroke="midnightblue" points="249.887,-62.5356 239.34,-63.5473 248.216,-69.3333 249.887,-62.5356"/>
</g>
<!-- Node6 -->
<g id="node5" class="node"><title>Node6</title>
<g id="a_node5"><a xlink:href="class_system_1_1_entry_point_not_found_exception.html" target="_top" xlink:title="The exception that is thrown when an attempt to load a class fails due to the absence of an entry met...">
<polygon fill="none" stroke="black" points="310,-39 310,-69 451,-69 451,-39 310,-39"/>
<text text-anchor="start" x="318" y="-57" font-family="Helvetica,sans-Serif" font-size="10.00">System.EntryPointNotFound</text>
<text text-anchor="middle" x="380.5" y="-46" font-family="Helvetica,sans-Serif" font-size="10.00">Exception</text>
</a>
</g>
</g>
<!-- Node0&#45;&gt;Node6 -->
<g id="edge4" class="edge"><title>Node0&#45;&gt;Node6</title>
<path fill="none" stroke="midnightblue" d="M279.279,-54C289.445,-54 299.799,-54 309.805,-54"/>
<polygon fill="midnightblue" stroke="midnightblue" points="279.194,-50.5001 269.194,-54 279.194,-57.5001 279.194,-50.5001"/>
</g>
<!-- Node7 -->
<g id="node6" class="node"><title>Node7</title>
<g id="a_node6"><a xlink:href="class_system_1_1_type_access_exception.html" target="_top" xlink:title="The exception that is thrown when a method attempts to use a type that it does not have access to.">
<polygon fill="none" stroke="black" points="305,-0.5 305,-19.5 456,-19.5 456,-0.5 305,-0.5"/>
<text text-anchor="middle" x="380.5" y="-7.5" font-family="Helvetica,sans-Serif" font-size="10.00">System.TypeAccessException</text>
</a>
</g>
</g>
<!-- Node0&#45;&gt;Node7 -->
<g id="edge5" class="edge"><title>Node0&#45;&gt;Node7</title>
<path fill="none" stroke="midnightblue" d="M249.192,-42.031C277.964,-34.9586 313.895,-26.1264 340.735,-19.5287"/>
<polygon fill="midnightblue" stroke="midnightblue" points="248.216,-38.6667 239.34,-44.4527 249.887,-45.4644 248.216,-38.6667"/>
</g>
<!-- Node1 -->
<g id="node2" class="node"><title>Node1</title>
<g id="a_node2"><a xlink:href="class_system_1_1_system_exception.html" target="_top" xlink:title="Serves as the base class for system exceptions namespace.">
<polygon fill="none" stroke="red" points="0,-63.5 0,-82.5 94,-82.5 94,-63.5 0,-63.5"/>
<text text-anchor="middle" x="47" y="-70.5" font-family="Helvetica,sans-Serif" font-size="10.00">SystemException</text>
</a>
</g>
</g>
<!-- Node1&#45;&gt;Node0 -->
<g id="edge1" class="edge"><title>Node1&#45;&gt;Node0</title>
<path fill="none" stroke="midnightblue" d="M104.343,-65.8869C112.667,-64.836 121.322,-63.7435 129.861,-62.6653"/>
<polygon fill="midnightblue" stroke="midnightblue" points="103.866,-62.4193 94.383,-67.1443 104.743,-69.3642 103.866,-62.4193"/>
</g>
<!-- Node3 -->
<g id="node3" class="node"><title>Node3</title>
<g id="a_node3"><a xlink:href="interface_system_1_1_runtime_1_1_serialization_1_1_i_serializable.html" target="_top" xlink:title="Allows an object to control its own serialization and deserialization.">
<polygon fill="none" stroke="red" points="12.5,-25.5 12.5,-44.5 81.5,-44.5 81.5,-25.5 12.5,-25.5"/>
<text text-anchor="middle" x="47" y="-32.5" font-family="Helvetica,sans-Serif" font-size="10.00">ISerializable</text>
</a>
</g>
</g>
<!-- Node3&#45;&gt;Node0 -->
<g id="edge2" class="edge"><title>Node3&#45;&gt;Node0</title>
<path fill="none" stroke="midnightblue" d="M91.8393,-40.5345C103.707,-42.0328 116.846,-43.6915 129.729,-45.318"/>
<polygon fill="midnightblue" stroke="midnightblue" points="92.1348,-37.0441 81.7751,-39.264 91.258,-43.989 92.1348,-37.0441"/>
</g>
</g>
</svg>
