<?xml version="1.0" encoding="UTF-8" standalone="no"?>
<!DOCTYPE svg PUBLIC "-//W3C//DTD SVG 1.1//EN"
 "http://www.w3.org/Graphics/SVG/1.1/DTD/svg11.dtd">
<!-- Generated by graphviz version 2.38.0 (20140413.2041)
 -->
<!-- Title: System.TimeZoneInfo.AdjustmentRule Pages: 1 -->
<!--zoomable 307 -->
<svg id="main" version="1.1" xmlns="http://www.w3.org/2000/svg" xmlns:xlink="http://www.w3.org/1999/xlink" xml:space="preserve" onload="init(evt)">
<style type="text/css"><![CDATA[
.edge:hover path { stroke: red; }
.edge:hover polygon { stroke: red; fill: red; }
]]></style>
<script type="text/javascript"><![CDATA[
var edges = document.getElementsByTagName('g');
if (edges && edges.length) {
  for (var i=0;i<edges.length;i++) {
    if (edges[i].id.substr(0,4)=='edge') {
      edges[i].setAttribute('class','edge');
    }
  }
}
]]></script>
        <defs>
                <circle id="rim" cx="0" cy="0" r="7"/>
                <circle id="rim2" cx="0" cy="0" r="3.5"/>
                <g id="zoomPlus">
                        <use xlink:href="#rim" fill="#404040">
                                <set attributeName="fill" to="#808080" begin="zoomplus.mouseover" end="zoomplus.mouseout"/>
                        </use>
                        <path d="M-4,0h8M0,-4v8" fill="none" stroke="white" stroke-width="1.5" pointer-events="none"/>
                </g>
                <g id="zoomMin">
                        <use xlink:href="#rim" fill="#404040">
                                <set attributeName="fill" to="#808080" begin="zoomminus.mouseover" end="zoomminus.mouseout"/>
                        </use>
                        <path d="M-4,0h8" fill="none" stroke="white" stroke-width="1.5" pointer-events="none"/>
                </g>
                <g id="dirArrow">
                        <path fill="none" stroke="white" stroke-width="1.5" d="M0,-3.0v7 M-2.5,-0.5L0,-3.0L2.5,-0.5"/>
                </g>
               <g id="resetDef">
                       <use xlink:href="#rim2" fill="#404040">
                               <set attributeName="fill" to="#808080" begin="reset.mouseover" end="reset.mouseout"/>
                       </use>
               </g>
        </defs>

<script type="text/javascript">
var viewWidth = 815;
var viewHeight = 307;
var sectionId = 'dynsection-1';
</script>
<script xlink:href="svgpan.js"/>
<svg id="graph" class="graph">
<g id="viewport">
<title>System.TimeZoneInfo.AdjustmentRule</title>
<!-- Node5 -->
<g id="node1" class="node"><title>Node5</title>
<g id="a_node1"><a xlink:title="Provides information about a time zone adjustment, such as the transition to and from daylight saving...">
<polygon fill="#bfbfbf" stroke="black" points="625,-182.5 625,-201.5 807,-201.5 807,-182.5 625,-182.5"/>
<text text-anchor="middle" x="716" y="-189.5" font-family="Helvetica,sans-Serif" font-size="10.00">System.TimeZoneInfo.AdjustmentRule</text>
</a>
</g>
</g>
<!-- Node6 -->
<g id="node2" class="node"><title>Node6</title>
<g id="a_node2"><a xlink:href="interface_system_1_1_i_equatable.html" target="_top" xlink:title=" ">
<polygon fill="none" stroke="red" points="327.5,-279.5 327.5,-298.5 476.5,-298.5 476.5,-279.5 327.5,-279.5"/>
<text text-anchor="middle" x="402" y="-286.5" font-family="Helvetica,sans-Serif" font-size="10.00">IEquatable&lt; AdjustmentRule &gt;</text>
</a>
</g>
</g>
<!-- Node6&#45;&gt;Node5 -->
<g id="edge1" class="edge"><title>Node6&#45;&gt;Node5</title>
<path fill="none" stroke="midnightblue" d="M487.146,-288.063C524.784,-285.394 569.111,-279.078 607,-265 646.883,-250.181 686.433,-217.758 704.63,-201.579"/>
<polygon fill="midnightblue" stroke="midnightblue" points="486.477,-284.598 476.718,-288.722 486.919,-291.584 486.477,-284.598"/>
</g>
<!-- Node8 -->
<g id="node3" class="node"><title>Node8</title>
<g id="a_node3"><a xlink:href="interface_system_1_1_runtime_1_1_serialization_1_1_i_serializable.html" target="_top" xlink:title="Allows an object to control its own serialization and deserialization.">
<polygon fill="none" stroke="black" points="0,-156.5 0,-175.5 69,-175.5 69,-156.5 0,-156.5"/>
<text text-anchor="middle" x="34.5" y="-163.5" font-family="Helvetica,sans-Serif" font-size="10.00">ISerializable</text>
</a>
</g>
</g>
<!-- Node8&#45;&gt;Node5 -->
<g id="edge2" class="edge"><title>Node8&#45;&gt;Node5</title>
<path fill="none" stroke="midnightblue" d="M48.9566,-183.797C61.7188,-199.069 82.4124,-219.996 106,-229 316.785,-309.458 598.407,-230.415 687.067,-201.591"/>
<polygon fill="midnightblue" stroke="midnightblue" points="51.375,-181.217 42.3971,-175.591 45.9072,-185.588 51.375,-181.217"/>
</g>
<!-- Node10 -->
<g id="node5" class="node"><title>Node10</title>
<g id="a_node5"><a xlink:href="struct_system_1_1_time_zone_info_1_1_transition_time.html" target="_top" xlink:title="Provides information about a specific time change, such as the change from daylight saving time to st...">
<polygon fill="none" stroke="red" points="314,-156.5 314,-175.5 490,-175.5 490,-156.5 314,-156.5"/>
<text text-anchor="middle" x="402" y="-163.5" font-family="Helvetica,sans-Serif" font-size="10.00">System.TimeZoneInfo.TransitionTime</text>
</a>
</g>
</g>
<!-- Node8&#45;&gt;Node10 -->
<g id="edge5" class="edge"><title>Node8&#45;&gt;Node10</title>
<path fill="none" stroke="midnightblue" d="M79.4814,-166C137.28,-166 240.1,-166 313.918,-166"/>
<polygon fill="midnightblue" stroke="midnightblue" points="79.2303,-162.5 69.2302,-166 79.2302,-169.5 79.2303,-162.5"/>
</g>
<!-- Node12 -->
<g id="node6" class="node"><title>Node12</title>
<g id="a_node6"><a xlink:href="struct_system_1_1_date_time.html" target="_top" xlink:title="Represents an instant in time, typically expressed as a date and time of day. To browse the ....">
<polygon fill="none" stroke="red" points="118.5,-78.5 118.5,-97.5 213.5,-97.5 213.5,-78.5 118.5,-78.5"/>
<text text-anchor="middle" x="166" y="-85.5" font-family="Helvetica,sans-Serif" font-size="10.00">System.DateTime</text>
</a>
</g>
</g>
<!-- Node8&#45;&gt;Node12 -->
<g id="edge8" class="edge"><title>Node8&#45;&gt;Node12</title>
<path fill="none" stroke="midnightblue" d="M59.956,-151.27C86.0668,-135.543 126.686,-111.077 148.991,-97.6426"/>
<polygon fill="midnightblue" stroke="midnightblue" points="58.1396,-148.278 51.3792,-156.436 61.7513,-154.274 58.1396,-148.278"/>
</g>
<!-- Node9 -->
<g id="node4" class="node"><title>Node9</title>
<g id="a_node4"><a xlink:href="interface_system_1_1_runtime_1_1_serialization_1_1_i_deserialization_callback.html" target="_top" xlink:title="Indicates that a class is to be notified when deserialization of the entire object graph has been com...">
<polygon fill="none" stroke="black" points="106,-200.5 106,-219.5 226,-219.5 226,-200.5 106,-200.5"/>
<text text-anchor="middle" x="166" y="-207.5" font-family="Helvetica,sans-Serif" font-size="10.00">IDeserializationCallback</text>
</a>
</g>
</g>
<!-- Node9&#45;&gt;Node5 -->
<g id="edge3" class="edge"><title>Node9&#45;&gt;Node5</title>
<path fill="none" stroke="midnightblue" d="M236.337,-209.117C323.056,-207.817 476.063,-204.878 607,-199 612.819,-198.739 618.812,-198.438 624.852,-198.112"/>
<polygon fill="midnightblue" stroke="midnightblue" points="236.044,-205.621 226.096,-209.268 236.146,-212.62 236.044,-205.621"/>
</g>
<!-- Node9&#45;&gt;Node10 -->
<g id="edge6" class="edge"><title>Node9&#45;&gt;Node10</title>
<path fill="none" stroke="midnightblue" d="M227.717,-198.583C265.796,-191.423 314.318,-182.299 350.325,-175.529"/>
<polygon fill="midnightblue" stroke="midnightblue" points="226.955,-195.165 217.775,-200.453 228.249,-202.044 226.955,-195.165"/>
</g>
<!-- Node10&#45;&gt;Node5 -->
<g id="edge4" class="edge"><title>Node10&#45;&gt;Node5</title>
<path fill="none" stroke="#9a32cd" stroke-dasharray="5,2" d="M500.56,-169.588C534.318,-171.273 572.365,-173.667 607,-177 621.98,-178.442 638.072,-180.434 653.14,-182.497"/>
<polygon fill="#9a32cd" stroke="#9a32cd" points="500.387,-166.076 490.229,-169.088 500.048,-173.067 500.387,-166.076"/>
<text text-anchor="middle" x="557.5" y="-191" font-family="Helvetica,sans-Serif" font-size="10.00"> DaylightTransitionEnd</text>
<text text-anchor="middle" x="557.5" y="-180" font-family="Helvetica,sans-Serif" font-size="10.00">DaylightTransitionStart</text>
</g>
<!-- Node12&#45;&gt;Node5 -->
<g id="edge10" class="edge"><title>Node12&#45;&gt;Node5</title>
<path fill="none" stroke="#9a32cd" stroke-dasharray="5,2" d="M223.692,-91.473C288.564,-96.1432 397.748,-106.133 490,-125 563.074,-139.945 646.65,-167.76 688.373,-182.409"/>
<polygon fill="#9a32cd" stroke="#9a32cd" points="223.891,-87.9784 213.671,-90.7685 223.4,-94.9612 223.891,-87.9784"/>
<text text-anchor="middle" x="402" y="-139" font-family="Helvetica,sans-Serif" font-size="10.00"> DateStart</text>
<text text-anchor="middle" x="402" y="-128" font-family="Helvetica,sans-Serif" font-size="10.00">DateEnd</text>
</g>
<!-- Node12&#45;&gt;Node10 -->
<g id="edge7" class="edge"><title>Node12&#45;&gt;Node10</title>
<path fill="none" stroke="#9a32cd" stroke-dasharray="5,2" d="M199.534,-101.297C213.183,-106.714 229.276,-112.889 244,-118 286.005,-132.581 335.116,-147.216 367.075,-156.424"/>
<polygon fill="#9a32cd" stroke="#9a32cd" points="200.666,-97.9808 190.082,-97.5139 198.065,-104.48 200.666,-97.9808"/>
<text text-anchor="middle" x="270" y="-137" font-family="Helvetica,sans-Serif" font-size="10.00"> TimeOfDay</text>
</g>
<!-- Node12&#45;&gt;Node12 -->
<g id="edge9" class="edge"><title>Node12&#45;&gt;Node12</title>
<path fill="none" stroke="#9a32cd" stroke-dasharray="5,2" d="M151.636,-107.766C152.764,-112.497 157.552,-116 166,-116 179.863,-116 183.871,-106.565 178.022,-97.7571"/>
<polygon fill="#9a32cd" stroke="#9a32cd" points="155.107,-108.292 153.978,-97.7571 148.292,-106.697 155.107,-108.292"/>
<text text-anchor="middle" x="166" y="-130" font-family="Helvetica,sans-Serif" font-size="10.00"> MaxValue</text>
<text text-anchor="middle" x="166" y="-119" font-family="Helvetica,sans-Serif" font-size="10.00">MinValue</text>
</g>
<!-- Node19 -->
<g id="node7" class="node"><title>Node19</title>
<g id="a_node7"><a xlink:href="struct_system_1_1_time_span.html" target="_top" xlink:title="Represents a time interval.To browse the .NET Framework source code for this type,...">
<polygon fill="none" stroke="red" points="353.5,-0.5 353.5,-19.5 450.5,-19.5 450.5,-0.5 353.5,-0.5"/>
<text text-anchor="middle" x="402" y="-7.5" font-family="Helvetica,sans-Serif" font-size="10.00">System.TimeSpan</text>
</a>
</g>
</g>
<!-- Node19&#45;&gt;Node5 -->
<g id="edge11" class="edge"><title>Node19&#45;&gt;Node5</title>
<path fill="none" stroke="#9a32cd" stroke-dasharray="5,2" d="M457.493,-22.0122C500.419,-33.1206 560.56,-52.4339 607,-82 651.926,-110.602 692.267,-161.206 708.004,-182.322"/>
<polygon fill="#9a32cd" stroke="#9a32cd" points="458.342,-18.6168 447.79,-19.5647 456.63,-25.4042 458.342,-18.6168"/>
<text text-anchor="middle" x="557.5" y="-85" font-family="Helvetica,sans-Serif" font-size="10.00"> DaylightDelta</text>
</g>
<!-- Node19&#45;&gt;Node19 -->
<g id="edge12" class="edge"><title>Node19&#45;&gt;Node19</title>
<path fill="none" stroke="#9a32cd" stroke-dasharray="5,2" d="M377.447,-29.0292C378.786,-34.128 386.97,-38 402,-38 425.461,-38 432.243,-28.5653 422.345,-19.7571"/>
<polygon fill="#9a32cd" stroke="#9a32cd" points="380.709,-30.3096 381.655,-19.7571 374.335,-27.4164 380.709,-30.3096"/>
<text text-anchor="middle" x="402" y="-63" font-family="Helvetica,sans-Serif" font-size="10.00"> MaxValue</text>
<text text-anchor="middle" x="402" y="-52" font-family="Helvetica,sans-Serif" font-size="10.00">Zero</text>
<text text-anchor="middle" x="402" y="-41" font-family="Helvetica,sans-Serif" font-size="10.00">MinValue</text>
</g>
</g>
</svg>
        <g id="navigator" transform="translate(0 0)" fill="#404254">
                <rect fill="#f2f5e9" fill-opacity="0.5" stroke="#606060" stroke-width=".5" x="0" y="0" width="60" height="60"/>
                <use id="zoomplus" xlink:href="#zoomPlus" x="17" y="9" onmousedown="handleZoom(evt,'in')"/>
                <use id="zoomminus" xlink:href="#zoomMin" x="42" y="9" onmousedown="handleZoom(evt,'out')"/>
                <use id="reset" xlink:href="#resetDef" x="30" y="36" onmousedown="handleReset()"/>
                <g id="arrowUp" xlink:href="#dirArrow" transform="translate(30 24)" onmousedown="handlePan(0,-1)">
                  <use xlink:href="#rim" fill="#404040">
                        <set attributeName="fill" to="#808080" begin="arrowUp.mouseover" end="arrowUp.mouseout"/>
                  </use>
                  <path fill="none" stroke="white" stroke-width="1.5" d="M0,-3.0v7 M-2.5,-0.5L0,-3.0L2.5,-0.5"/>
                </g>
                <g id="arrowRight" xlink:href="#dirArrow" transform="rotate(90) translate(36 -43)" onmousedown="handlePan(1,0)">
                  <use xlink:href="#rim" fill="#404040">
                        <set attributeName="fill" to="#808080" begin="arrowRight.mouseover" end="arrowRight.mouseout"/>
                  </use>
                  <path fill="none" stroke="white" stroke-width="1.5" d="M0,-3.0v7 M-2.5,-0.5L0,-3.0L2.5,-0.5"/>
                </g>
                <g id="arrowDown" xlink:href="#dirArrow" transform="rotate(180) translate(-30 -48)" onmousedown="handlePan(0,1)">
                  <use xlink:href="#rim" fill="#404040">
                        <set attributeName="fill" to="#808080" begin="arrowDown.mouseover" end="arrowDown.mouseout"/>
                  </use>
                  <path fill="none" stroke="white" stroke-width="1.5" d="M0,-3.0v7 M-2.5,-0.5L0,-3.0L2.5,-0.5"/>
                </g>
                <g id="arrowLeft" xlink:href="#dirArrow" transform="rotate(270) translate(-36 17)" onmousedown="handlePan(-1,0)">
                  <use xlink:href="#rim" fill="#404040">
                        <set attributeName="fill" to="#808080" begin="arrowLeft.mouseover" end="arrowLeft.mouseout"/>
                  </use>
                  <path fill="none" stroke="white" stroke-width="1.5" d="M0,-3.0v7 M-2.5,-0.5L0,-3.0L2.5,-0.5"/>
                </g>
        </g>
        <svg viewBox="0 0 15 15" width="100%" height="30px" preserveAspectRatio="xMaxYMin meet">
         <g id="arrow_out" transform="scale(0.3 0.3)">
          <a xlink:href="class_system_1_1_time_zone_info_1_1_adjustment_rule__coll__graph_org.svg" target="_base">
           <rect id="button" ry="5" rx="5" y="6" x="6" height="38" width="38"
                fill="#f2f5e9" fill-opacity="0.5" stroke="#606060" stroke-width="1.0"/>
           <path id="arrow"
             d="M 11.500037,31.436501 C 11.940474,20.09759 22.043105,11.32322 32.158766,21.979434 L 37.068811,17.246167 C 37.068811,17.246167 37.088388,32 37.088388,32 L 22.160133,31.978069 C 22.160133,31.978069 26.997745,27.140456 26.997745,27.140456 C 18.528582,18.264221 13.291696,25.230495 11.500037,31.436501 z"
             style="fill:#404040;"/>
          </a>
         </g>
        </svg>
</svg>
