<?xml version="1.0" encoding="UTF-8" standalone="no"?>
<!DOCTYPE svg PUBLIC "-//W3C//DTD SVG 1.1//EN"
 "http://www.w3.org/Graphics/SVG/1.1/DTD/svg11.dtd">
<!-- Generated by graphviz version 2.38.0 (20140413.2041)
 -->
<!-- Title: System.Security.Principal.IdentityReferenceEnumerator Pages: 1 -->
<svg width="673pt" height="155pt"
 viewBox="0.00 0.00 673.00 154.50" xmlns="http://www.w3.org/2000/svg" xmlns:xlink="http://www.w3.org/1999/xlink">
<g id="graph0" class="graph" transform="scale(1 1) rotate(0) translate(4 150.5)">
<title>System.Security.Principal.IdentityReferenceEnumerator</title>
<!-- Node5 -->
<g id="node1" class="node"><title>Node5</title>
<g id="a_node1"><a xlink:title=" ">
<polygon fill="#bfbfbf" stroke="black" points="523,-63.5 523,-93.5 665,-93.5 665,-63.5 523,-63.5"/>
<text text-anchor="start" x="531" y="-81.5" font-family="Helvetica,sans-Serif" font-size="10.00">System.Security.Principal.</text>
<text text-anchor="middle" x="594" y="-70.5" font-family="Helvetica,sans-Serif" font-size="10.00">IdentityReferenceEnumerator</text>
</a>
</g>
</g>
<!-- Node6 -->
<g id="node2" class="node"><title>Node6</title>
<g id="a_node2"><a xlink:href="interface_system_1_1_collections_1_1_i_enumerator.html" target="_top" xlink:title=" ">
<polygon fill="none" stroke="black" points="290,-126 290,-145 452,-145 452,-126 290,-126"/>
<text text-anchor="middle" x="371" y="-133" font-family="Helvetica,sans-Serif" font-size="10.00">IEnumerator&lt; IdentityReference &gt;</text>
</a>
</g>
</g>
<!-- Node6&#45;&gt;Node5 -->
<g id="edge1" class="edge"><title>Node6&#45;&gt;Node5</title>
<path fill="none" stroke="midnightblue" d="M423.038,-123.621C432.671,-121.31 442.654,-118.869 452,-116.5 480.631,-109.244 512.403,-100.722 538.529,-93.5897"/>
<polygon fill="midnightblue" stroke="midnightblue" points="422.084,-120.25 413.167,-125.973 423.706,-127.059 422.084,-120.25"/>
</g>
<!-- Node7 -->
<g id="node3" class="node"><title>Node7</title>
<g id="a_node3"><a xlink:href="interface_system_1_1_collections_1_1_i_enumerator.html" target="_top" xlink:title="Supports a simple iteration over a non&#45;generic collection.">
<polygon fill="none" stroke="black" points="0,-126 0,-145 157,-145 157,-126 0,-126"/>
<text text-anchor="middle" x="78.5" y="-133" font-family="Helvetica,sans-Serif" font-size="10.00">System.Collections.IEnumerator</text>
</a>
</g>
</g>
<!-- Node7&#45;&gt;Node6 -->
<g id="edge2" class="edge"><title>Node7&#45;&gt;Node6</title>
<path fill="none" stroke="orange" stroke-dasharray="5,2" d="M167.616,-135.5C206.536,-135.5 251.965,-135.5 289.911,-135.5"/>
<polygon fill="orange" stroke="orange" points="167.349,-132 157.349,-135.5 167.349,-139 167.349,-132"/>
<text text-anchor="middle" x="223.5" y="-138.5" font-family="Helvetica,sans-Serif" font-size="10.00"> &lt; IdentityReference &gt;</text>
</g>
<!-- Node8 -->
<g id="node4" class="node"><title>Node8</title>
<g id="a_node4"><a xlink:href="interface_system_1_1_i_disposable.html" target="_top" xlink:title="Provides a mechanism for releasing unmanaged resources.To browse the .NET Framework source code for t...">
<polygon fill="none" stroke="black" points="337.5,-88 337.5,-107 404.5,-107 404.5,-88 337.5,-88"/>
<text text-anchor="middle" x="371" y="-95" font-family="Helvetica,sans-Serif" font-size="10.00">IDisposable</text>
</a>
</g>
</g>
<!-- Node8&#45;&gt;Node5 -->
<g id="edge3" class="edge"><title>Node8&#45;&gt;Node5</title>
<path fill="none" stroke="midnightblue" d="M414.936,-93.8086C445.537,-91.1778 487.358,-87.5824 522.78,-84.537"/>
<polygon fill="midnightblue" stroke="midnightblue" points="414.273,-90.3527 404.609,-94.6965 414.872,-97.327 414.273,-90.3527"/>
</g>
<!-- Node9 -->
<g id="node5" class="node"><title>Node9</title>
<g id="a_node5"><a xlink:href="interface_system_1_1_collections_1_1_i_enumerator.html" target="_top" xlink:title="Supports a simple iteration over a non&#45;generic collection.">
<polygon fill="none" stroke="black" points="336.5,-50 336.5,-69 405.5,-69 405.5,-50 336.5,-50"/>
<text text-anchor="middle" x="371" y="-57" font-family="Helvetica,sans-Serif" font-size="10.00">IEnumerator</text>
</a>
</g>
</g>
<!-- Node9&#45;&gt;Node5 -->
<g id="edge4" class="edge"><title>Node9&#45;&gt;Node5</title>
<path fill="none" stroke="midnightblue" d="M415.892,-63.2735C446.446,-65.9004 487.839,-69.459 522.925,-72.4754"/>
<polygon fill="midnightblue" stroke="midnightblue" points="415.828,-59.7552 405.565,-62.3857 415.229,-66.7295 415.828,-59.7552"/>
</g>
<!-- Node10 -->
<g id="node6" class="node"><title>Node10</title>
<g id="a_node6"><a xlink:href="class_system_1_1_security_1_1_principal_1_1_identity_reference.html" target="_top" xlink:title="Represents an identity and is the base class for the T:System.Security.Principal.NTAccount and T:Syst...">
<polygon fill="none" stroke="black" points="304.5,-0.5 304.5,-30.5 437.5,-30.5 437.5,-0.5 304.5,-0.5"/>
<text text-anchor="start" x="312.5" y="-18.5" font-family="Helvetica,sans-Serif" font-size="10.00">System.Security.Principal.</text>
<text text-anchor="middle" x="371" y="-7.5" font-family="Helvetica,sans-Serif" font-size="10.00">IdentityReference</text>
</a>
</g>
</g>
<!-- Node10&#45;&gt;Node5 -->
<g id="edge5" class="edge"><title>Node10&#45;&gt;Node5</title>
<path fill="none" stroke="#9a32cd" stroke-dasharray="5,2" d="M434.328,-33.2677C467.77,-42.801 508.532,-54.4208 540.367,-63.4959"/>
<polygon fill="#9a32cd" stroke="#9a32cd" points="435.231,-29.8857 424.654,-30.51 433.312,-36.6175 435.231,-29.8857"/>
<text text-anchor="middle" x="487.5" y="-56.5" font-family="Helvetica,sans-Serif" font-size="10.00"> Current</text>
</g>
</g>
</svg>
