<?xml version="1.0" encoding="UTF-8" standalone="no"?>
<!DOCTYPE svg PUBLIC "-//W3C//DTD SVG 1.1//EN"
 "http://www.w3.org/Graphics/SVG/1.1/DTD/svg11.dtd">
<!-- Generated by graphviz version 2.38.0 (20140413.2041)
 -->
<!-- Title: System.Xml.Schema.XmlSchemaFacet Pages: 1 -->
<svg width="519pt" height="382pt"
 viewBox="0.00 0.00 519.00 382.00" xmlns="http://www.w3.org/2000/svg" xmlns:xlink="http://www.w3.org/1999/xlink">
<g id="graph0" class="graph" transform="scale(1 1) rotate(0) translate(4 378)">
<title>System.Xml.Schema.XmlSchemaFacet</title>
<!-- Node0 -->
<g id="node1" class="node"><title>Node0</title>
<g id="a_node1"><a xlink:title="Abstract class for all facets that are used when simple types are derived by restriction.">
<polygon fill="#bfbfbf" stroke="black" points="149,-171.5 149,-201.5 312,-201.5 312,-171.5 149,-171.5"/>
<text text-anchor="start" x="157" y="-189.5" font-family="Helvetica,sans-Serif" font-size="10.00">System.Xml.Schema.XmlSchema</text>
<text text-anchor="middle" x="230.5" y="-178.5" font-family="Helvetica,sans-Serif" font-size="10.00">Facet</text>
</a>
</g>
</g>
<!-- Node3 -->
<g id="node3" class="node"><title>Node3</title>
<g id="a_node3"><a xlink:href="class_system_1_1_xml_1_1_schema_1_1_xml_schema_enumeration_facet.html" target="_top" xlink:title="Represents the enumeration facet from XML Schema as specified by the World Wide Web Consortium (W3C)....">
<polygon fill="none" stroke="black" points="348,-343.5 348,-373.5 511,-373.5 511,-343.5 348,-343.5"/>
<text text-anchor="start" x="356" y="-361.5" font-family="Helvetica,sans-Serif" font-size="10.00">System.Xml.Schema.XmlSchema</text>
<text text-anchor="middle" x="429.5" y="-350.5" font-family="Helvetica,sans-Serif" font-size="10.00">EnumerationFacet</text>
</a>
</g>
</g>
<!-- Node0&#45;&gt;Node3 -->
<g id="edge2" class="edge"><title>Node0&#45;&gt;Node3</title>
<path fill="none" stroke="midnightblue" d="M244.109,-210.523C262.559,-243.356 299.998,-301.882 348,-334.5 353.066,-337.943 358.637,-340.901 364.41,-343.443"/>
<polygon fill="midnightblue" stroke="midnightblue" points="247.09,-208.68 239.208,-201.6 240.954,-212.05 247.09,-208.68"/>
</g>
<!-- Node4 -->
<g id="node4" class="node"><title>Node4</title>
<g id="a_node4"><a xlink:href="class_system_1_1_xml_1_1_schema_1_1_xml_schema_max_exclusive_facet.html" target="_top" xlink:title="Represents the maxExclusive element from XML Schema as specified by the World Wide Web Consortium (W3...">
<polygon fill="none" stroke="black" points="348,-294.5 348,-324.5 511,-324.5 511,-294.5 348,-294.5"/>
<text text-anchor="start" x="356" y="-312.5" font-family="Helvetica,sans-Serif" font-size="10.00">System.Xml.Schema.XmlSchema</text>
<text text-anchor="middle" x="429.5" y="-301.5" font-family="Helvetica,sans-Serif" font-size="10.00">MaxExclusiveFacet</text>
</a>
</g>
</g>
<!-- Node0&#45;&gt;Node4 -->
<g id="edge3" class="edge"><title>Node0&#45;&gt;Node4</title>
<path fill="none" stroke="midnightblue" d="M252.564,-209.23C274.441,-231.59 310.643,-265.234 348,-285.5 354.281,-288.907 361.107,-291.89 368.039,-294.485"/>
<polygon fill="midnightblue" stroke="midnightblue" points="254.901,-206.611 245.444,-201.833 249.857,-211.465 254.901,-206.611"/>
</g>
<!-- Node5 -->
<g id="node5" class="node"><title>Node5</title>
<g id="a_node5"><a xlink:href="class_system_1_1_xml_1_1_schema_1_1_xml_schema_max_inclusive_facet.html" target="_top" xlink:title="Represents the maxInclusive element from XML Schema as specified by the World Wide Web Consortium (W3...">
<polygon fill="none" stroke="black" points="348,-245.5 348,-275.5 511,-275.5 511,-245.5 348,-245.5"/>
<text text-anchor="start" x="356" y="-263.5" font-family="Helvetica,sans-Serif" font-size="10.00">System.Xml.Schema.XmlSchema</text>
<text text-anchor="middle" x="429.5" y="-252.5" font-family="Helvetica,sans-Serif" font-size="10.00">MaxInclusiveFacet</text>
</a>
</g>
</g>
<!-- Node0&#45;&gt;Node5 -->
<g id="edge4" class="edge"><title>Node0&#45;&gt;Node5</title>
<path fill="none" stroke="midnightblue" d="M273.117,-205.75C295.133,-215.578 322.763,-227.357 348,-236.5 356.638,-239.63 365.9,-242.672 374.955,-245.481"/>
<polygon fill="midnightblue" stroke="midnightblue" points="274.293,-202.441 263.737,-201.53 271.421,-208.825 274.293,-202.441"/>
</g>
<!-- Node6 -->
<g id="node6" class="node"><title>Node6</title>
<g id="a_node6"><a xlink:href="class_system_1_1_xml_1_1_schema_1_1_xml_schema_min_exclusive_facet.html" target="_top" xlink:title="Represents the minExclusive element from XML Schema as specified by the World Wide Web Consortium (W3...">
<polygon fill="none" stroke="black" points="348,-196.5 348,-226.5 511,-226.5 511,-196.5 348,-196.5"/>
<text text-anchor="start" x="356" y="-214.5" font-family="Helvetica,sans-Serif" font-size="10.00">System.Xml.Schema.XmlSchema</text>
<text text-anchor="middle" x="429.5" y="-203.5" font-family="Helvetica,sans-Serif" font-size="10.00">MinExclusiveFacet</text>
</a>
</g>
</g>
<!-- Node0&#45;&gt;Node6 -->
<g id="edge5" class="edge"><title>Node0&#45;&gt;Node6</title>
<path fill="none" stroke="midnightblue" d="M322.215,-198.012C330.795,-199.101 339.454,-200.2 347.93,-201.275"/>
<polygon fill="midnightblue" stroke="midnightblue" points="322.557,-194.527 312.196,-196.741 321.676,-201.472 322.557,-194.527"/>
</g>
<!-- Node7 -->
<g id="node7" class="node"><title>Node7</title>
<g id="a_node7"><a xlink:href="class_system_1_1_xml_1_1_schema_1_1_xml_schema_min_inclusive_facet.html" target="_top" xlink:title="Represents the minInclusive element from XML Schema as specified by the World Wide Web Consortium (W3...">
<polygon fill="none" stroke="black" points="348,-147.5 348,-177.5 511,-177.5 511,-147.5 348,-147.5"/>
<text text-anchor="start" x="356" y="-165.5" font-family="Helvetica,sans-Serif" font-size="10.00">System.Xml.Schema.XmlSchema</text>
<text text-anchor="middle" x="429.5" y="-154.5" font-family="Helvetica,sans-Serif" font-size="10.00">MinInclusiveFacet</text>
</a>
</g>
</g>
<!-- Node0&#45;&gt;Node7 -->
<g id="edge6" class="edge"><title>Node0&#45;&gt;Node7</title>
<path fill="none" stroke="midnightblue" d="M322.215,-175.448C330.795,-174.403 339.454,-173.348 347.93,-172.316"/>
<polygon fill="midnightblue" stroke="midnightblue" points="321.699,-171.985 312.196,-176.669 322.546,-178.934 321.699,-171.985"/>
</g>
<!-- Node8 -->
<g id="node8" class="node"><title>Node8</title>
<g id="a_node8"><a xlink:href="class_system_1_1_xml_1_1_schema_1_1_xml_schema_numeric_facet.html" target="_top" xlink:title="Abstract class for defining numeric facets. This class is the base class for numeric facet classes su...">
<polygon fill="none" stroke="red" points="348,-98.5 348,-128.5 511,-128.5 511,-98.5 348,-98.5"/>
<text text-anchor="start" x="356" y="-116.5" font-family="Helvetica,sans-Serif" font-size="10.00">System.Xml.Schema.XmlSchema</text>
<text text-anchor="middle" x="429.5" y="-105.5" font-family="Helvetica,sans-Serif" font-size="10.00">NumericFacet</text>
</a>
</g>
</g>
<!-- Node0&#45;&gt;Node8 -->
<g id="edge7" class="edge"><title>Node0&#45;&gt;Node8</title>
<path fill="none" stroke="midnightblue" d="M273.864,-167.377C295.772,-157.822 323.078,-146.426 348,-137.5 356.65,-134.402 365.917,-131.375 374.975,-128.572"/>
<polygon fill="midnightblue" stroke="midnightblue" points="272.264,-164.257 264.517,-171.484 275.08,-170.665 272.264,-164.257"/>
</g>
<!-- Node14 -->
<g id="node9" class="node"><title>Node14</title>
<g id="a_node9"><a xlink:href="class_system_1_1_xml_1_1_schema_1_1_xml_schema_pattern_facet.html" target="_top" xlink:title="Represents the pattern element from XML Schema as specified by the World Wide Web Consortium (W3C)....">
<polygon fill="none" stroke="black" points="348,-49.5 348,-79.5 511,-79.5 511,-49.5 348,-49.5"/>
<text text-anchor="start" x="356" y="-67.5" font-family="Helvetica,sans-Serif" font-size="10.00">System.Xml.Schema.XmlSchema</text>
<text text-anchor="middle" x="429.5" y="-56.5" font-family="Helvetica,sans-Serif" font-size="10.00">PatternFacet</text>
</a>
</g>
</g>
<!-- Node0&#45;&gt;Node14 -->
<g id="edge8" class="edge"><title>Node0&#45;&gt;Node14</title>
<path fill="none" stroke="midnightblue" d="M252.609,-164.01C274.521,-141.885 310.751,-108.587 348,-88.5 354.29,-85.1082 361.121,-82.1356 368.056,-79.5459"/>
<polygon fill="midnightblue" stroke="midnightblue" points="249.949,-161.725 245.477,-171.33 254.962,-166.61 249.949,-161.725"/>
</g>
<!-- Node15 -->
<g id="node10" class="node"><title>Node15</title>
<g id="a_node10"><a xlink:href="class_system_1_1_xml_1_1_schema_1_1_xml_schema_white_space_facet.html" target="_top" xlink:title="Represents the World Wide Web Consortium (W3C) whiteSpace facet.">
<polygon fill="none" stroke="black" points="348,-0.5 348,-30.5 511,-30.5 511,-0.5 348,-0.5"/>
<text text-anchor="start" x="356" y="-18.5" font-family="Helvetica,sans-Serif" font-size="10.00">System.Xml.Schema.XmlSchema</text>
<text text-anchor="middle" x="429.5" y="-7.5" font-family="Helvetica,sans-Serif" font-size="10.00">WhiteSpaceFacet</text>
</a>
</g>
</g>
<!-- Node0&#45;&gt;Node15 -->
<g id="edge9" class="edge"><title>Node0&#45;&gt;Node15</title>
<path fill="none" stroke="midnightblue" d="M244.436,-162.137C263.034,-129.436 300.389,-71.7371 348,-39.5 353.072,-36.0659 358.646,-33.1125 364.422,-30.5747"/>
<polygon fill="midnightblue" stroke="midnightblue" points="241.286,-160.601 239.485,-171.042 247.404,-164.003 241.286,-160.601"/>
</g>
<!-- Node1 -->
<g id="node2" class="node"><title>Node1</title>
<g id="a_node2"><a xlink:href="class_system_1_1_xml_1_1_schema_1_1_xml_schema_annotated.html" target="_top" xlink:title="The base class for any element that can contain annotation elements.">
<polygon fill="none" stroke="red" points="0,-177 0,-196 113,-196 113,-177 0,-177"/>
<text text-anchor="middle" x="56.5" y="-184" font-family="Helvetica,sans-Serif" font-size="10.00">XmlSchemaAnnotated</text>
</a>
</g>
</g>
<!-- Node1&#45;&gt;Node0 -->
<g id="edge1" class="edge"><title>Node1&#45;&gt;Node0</title>
<path fill="none" stroke="midnightblue" d="M123.39,-186.5C131.755,-186.5 140.388,-186.5 148.949,-186.5"/>
<polygon fill="midnightblue" stroke="midnightblue" points="123.344,-183 113.343,-186.5 123.343,-190 123.344,-183"/>
</g>
</g>
</svg>
