<?xml version="1.0" encoding="UTF-8" standalone="no"?>
<!DOCTYPE svg PUBLIC "-//W3C//DTD SVG 1.1//EN"
 "http://www.w3.org/Graphics/SVG/1.1/DTD/svg11.dtd">
<!-- Generated by graphviz version 2.38.0 (20140413.2041)
 -->
<!-- Title: System.FormatException Pages: 1 -->
<svg width="447pt" height="116pt"
 viewBox="0.00 0.00 447.00 116.00" xmlns="http://www.w3.org/2000/svg" xmlns:xlink="http://www.w3.org/1999/xlink">
<g id="graph0" class="graph" transform="scale(1 1) rotate(0) translate(4 112)">
<title>System.FormatException</title>
<!-- Node0 -->
<g id="node1" class="node"><title>Node0</title>
<g id="a_node1"><a xlink:title="The exception that is thrown when the format of an argument is invalid, or when a composite format st...">
<polygon fill="#bfbfbf" stroke="black" points="130,-44.5 130,-63.5 258,-63.5 258,-44.5 130,-44.5"/>
<text text-anchor="middle" x="194" y="-51.5" font-family="Helvetica,sans-Serif" font-size="10.00">System.FormatException</text>
</a>
</g>
</g>
<!-- Node5 -->
<g id="node3" class="node"><title>Node5</title>
<g id="a_node3"><a xlink:href="class_system_1_1_net_1_1_cookie_exception.html" target="_top" xlink:title="The exception that is thrown when an error is made adding a T:System.Net.Cookie to a T:System....">
<polygon fill="none" stroke="black" points="294,-88.5 294,-107.5 439,-107.5 439,-88.5 294,-88.5"/>
<text text-anchor="middle" x="366.5" y="-95.5" font-family="Helvetica,sans-Serif" font-size="10.00">System.Net.CookieException</text>
</a>
</g>
</g>
<!-- Node0&#45;&gt;Node5 -->
<g id="edge2" class="edge"><title>Node0&#45;&gt;Node5</title>
<path fill="none" stroke="midnightblue" d="M241.739,-66.0617C269.084,-73.1185 303.122,-81.9024 328.576,-88.4713"/>
<polygon fill="midnightblue" stroke="midnightblue" points="242.553,-62.6572 231.996,-63.5473 240.804,-69.4352 242.553,-62.6572"/>
</g>
<!-- Node6 -->
<g id="node4" class="node"><title>Node6</title>
<g id="a_node4"><a xlink:href="class_system_1_1_reflection_1_1_custom_attribute_format_exception.html" target="_top" xlink:title="The exception that is thrown when the binary format of a custom attribute is invalid.">
<polygon fill="none" stroke="black" points="300,-39 300,-69 433,-69 433,-39 300,-39"/>
<text text-anchor="start" x="308" y="-57" font-family="Helvetica,sans-Serif" font-size="10.00">System.Reflection.Custom</text>
<text text-anchor="middle" x="366.5" y="-46" font-family="Helvetica,sans-Serif" font-size="10.00">AttributeFormatException</text>
</a>
</g>
</g>
<!-- Node0&#45;&gt;Node6 -->
<g id="edge3" class="edge"><title>Node0&#45;&gt;Node6</title>
<path fill="none" stroke="midnightblue" d="M268.051,-54C278.635,-54 289.475,-54 299.9,-54"/>
<polygon fill="midnightblue" stroke="midnightblue" points="268.004,-50.5001 258.003,-54 268.003,-57.5001 268.004,-50.5001"/>
</g>
<!-- Node7 -->
<g id="node5" class="node"><title>Node7</title>
<g id="a_node5"><a xlink:href="class_system_1_1_uri_format_exception.html" target="_top" xlink:title="The exception that is thrown when an invalid Uniform Resource Identifier (URI) is detected.">
<polygon fill="none" stroke="black" points="296.5,-0.5 296.5,-19.5 436.5,-19.5 436.5,-0.5 296.5,-0.5"/>
<text text-anchor="middle" x="366.5" y="-7.5" font-family="Helvetica,sans-Serif" font-size="10.00">System.UriFormatException</text>
</a>
</g>
</g>
<!-- Node0&#45;&gt;Node7 -->
<g id="edge4" class="edge"><title>Node0&#45;&gt;Node7</title>
<path fill="none" stroke="midnightblue" d="M241.739,-41.9383C269.084,-34.8815 303.122,-26.0976 328.576,-19.5287"/>
<polygon fill="midnightblue" stroke="midnightblue" points="240.804,-38.5648 231.996,-44.4527 242.553,-45.3428 240.804,-38.5648"/>
</g>
<!-- Node1 -->
<g id="node2" class="node"><title>Node1</title>
<g id="a_node2"><a xlink:href="class_system_1_1_system_exception.html" target="_top" xlink:title="Serves as the base class for system exceptions namespace.">
<polygon fill="none" stroke="red" points="0,-44.5 0,-63.5 94,-63.5 94,-44.5 0,-44.5"/>
<text text-anchor="middle" x="47" y="-51.5" font-family="Helvetica,sans-Serif" font-size="10.00">SystemException</text>
</a>
</g>
</g>
<!-- Node1&#45;&gt;Node0 -->
<g id="edge1" class="edge"><title>Node1&#45;&gt;Node0</title>
<path fill="none" stroke="midnightblue" d="M104.34,-54C112.741,-54 121.446,-54 129.973,-54"/>
<polygon fill="midnightblue" stroke="midnightblue" points="104.278,-50.5001 94.2776,-54 104.278,-57.5001 104.278,-50.5001"/>
</g>
</g>
</svg>
