<?xml version="1.0" encoding="UTF-8" standalone="no"?>
<!DOCTYPE svg PUBLIC "-//W3C//DTD SVG 1.1//EN"
 "http://www.w3.org/Graphics/SVG/1.1/DTD/svg11.dtd">
<!-- Generated by graphviz version 2.38.0 (20140413.2041)
 -->
<!-- Title: System.Collections.Generic.EnumEqualityComparer&lt; T &gt; Pages: 1 -->
<svg width="253pt" height="231pt"
 viewBox="0.00 0.00 252.50 231.00" xmlns="http://www.w3.org/2000/svg" xmlns:xlink="http://www.w3.org/1999/xlink">
<g id="graph0" class="graph" transform="scale(1 1) rotate(0) translate(4 227)">
<title>System.Collections.Generic.EnumEqualityComparer&lt; T &gt;</title>
<!-- Node8 -->
<g id="node1" class="node"><title>Node8</title>
<g id="a_node1"><a xlink:title=" ">
<polygon fill="#bfbfbf" stroke="black" points="71.5,-0.5 71.5,-30.5 214.5,-30.5 214.5,-0.5 71.5,-0.5"/>
<text text-anchor="start" x="79.5" y="-18.5" font-family="Helvetica,sans-Serif" font-size="10.00">System.Collections.Generic.</text>
<text text-anchor="middle" x="143" y="-7.5" font-family="Helvetica,sans-Serif" font-size="10.00">EnumEqualityComparer&lt; T &gt;</text>
</a>
</g>
</g>
<!-- Node9 -->
<g id="node2" class="node"><title>Node9</title>
<g id="a_node2"><a xlink:href="class_system_1_1_collections_1_1_generic_1_1_equality_comparer.html" target="_top" xlink:title="Provides a base class for implementations of the T:System.Collections.Generic.IEqualityComparer`1 gen...">
<polygon fill="none" stroke="black" points="1.5,-68.5 1.5,-87.5 118.5,-87.5 118.5,-68.5 1.5,-68.5"/>
<text text-anchor="middle" x="60" y="-75.5" font-family="Helvetica,sans-Serif" font-size="10.00">EqualityComparer&lt; T &gt;</text>
</a>
</g>
</g>
<!-- Node9&#45;&gt;Node8 -->
<g id="edge1" class="edge"><title>Node9&#45;&gt;Node8</title>
<path fill="none" stroke="midnightblue" d="M80.3322,-62.1795C93.5731,-52.528 110.74,-40.0147 123.758,-30.526"/>
<polygon fill="midnightblue" stroke="midnightblue" points="77.9113,-59.613 71.8919,-68.3318 82.0346,-65.2698 77.9113,-59.613"/>
</g>
<!-- Node10 -->
<g id="node3" class="node"><title>Node10</title>
<g id="a_node3"><a xlink:href="interface_system_1_1_collections_1_1_generic_1_1_i_equality_comparer.html" target="_top" xlink:title="Defines methods to support the comparison of objects for equality.">
<polygon fill="none" stroke="black" points="0,-125.5 0,-144.5 96,-144.5 96,-125.5 0,-125.5"/>
<text text-anchor="middle" x="48" y="-132.5" font-family="Helvetica,sans-Serif" font-size="10.00">IEqualityComparer</text>
</a>
</g>
</g>
<!-- Node10&#45;&gt;Node9 -->
<g id="edge2" class="edge"><title>Node10&#45;&gt;Node9</title>
<path fill="none" stroke="midnightblue" d="M52.0532,-115.423C54.0973,-106.054 56.4793,-95.1364 58.0986,-87.7149"/>
<polygon fill="midnightblue" stroke="midnightblue" points="48.5872,-114.89 49.875,-125.406 55.4263,-116.382 48.5872,-114.89"/>
</g>
<!-- Node11 -->
<g id="node4" class="node"><title>Node11</title>
<g id="a_node4"><a xlink:href="interface_system_1_1_collections_1_1_generic_1_1_i_equality_comparer.html" target="_top" xlink:title=" ">
<polygon fill="none" stroke="black" points="114.5,-125.5 114.5,-144.5 233.5,-144.5 233.5,-125.5 114.5,-125.5"/>
<text text-anchor="middle" x="174" y="-132.5" font-family="Helvetica,sans-Serif" font-size="10.00">IEqualityComparer&lt; T &gt;</text>
</a>
</g>
</g>
<!-- Node11&#45;&gt;Node9 -->
<g id="edge3" class="edge"><title>Node11&#45;&gt;Node9</title>
<path fill="none" stroke="midnightblue" d="M146.964,-120.957C125.535,-110.618 96.2113,-96.4704 77.6874,-87.5334"/>
<polygon fill="midnightblue" stroke="midnightblue" points="145.66,-124.213 156.188,-125.406 148.702,-117.909 145.66,-124.213"/>
</g>
<!-- Node12 -->
<g id="node5" class="node"><title>Node12</title>
<g id="a_node5"><a xlink:href="interface_system_1_1_collections_1_1_generic_1_1_i_equality_comparer.html" target="_top" xlink:title="Defines methods to support the comparison of objects for equality.">
<polygon fill="none" stroke="black" points="103.5,-192.5 103.5,-222.5 244.5,-222.5 244.5,-192.5 103.5,-192.5"/>
<text text-anchor="start" x="111.5" y="-210.5" font-family="Helvetica,sans-Serif" font-size="10.00">System.Collections.Generic.</text>
<text text-anchor="middle" x="174" y="-199.5" font-family="Helvetica,sans-Serif" font-size="10.00">IEqualityComparer&lt; in in T &gt;</text>
</a>
</g>
</g>
<!-- Node12&#45;&gt;Node11 -->
<g id="edge4" class="edge"><title>Node12&#45;&gt;Node11</title>
<path fill="none" stroke="orange" stroke-dasharray="5,2" d="M174,-182.091C174,-169.214 174,-154.197 174,-144.893"/>
<polygon fill="orange" stroke="orange" points="170.5,-182.233 174,-192.233 177.5,-182.233 170.5,-182.233"/>
<text text-anchor="middle" x="187.5" y="-166" font-family="Helvetica,sans-Serif" font-size="10.00"> &lt; T &gt;</text>
</g>
<!-- Node13 -->
<g id="node6" class="node"><title>Node13</title>
<g id="a_node6"><a xlink:href="interface_system_1_1_runtime_1_1_serialization_1_1_i_serializable.html" target="_top" xlink:title="Allows an object to control its own serialization and deserialization.">
<polygon fill="none" stroke="black" points="136.5,-68.5 136.5,-87.5 205.5,-87.5 205.5,-68.5 136.5,-68.5"/>
<text text-anchor="middle" x="171" y="-75.5" font-family="Helvetica,sans-Serif" font-size="10.00">ISerializable</text>
</a>
</g>
</g>
<!-- Node13&#45;&gt;Node8 -->
<g id="edge5" class="edge"><title>Node13&#45;&gt;Node8</title>
<path fill="none" stroke="midnightblue" d="M162.714,-59.0961C158.528,-50.0521 153.52,-39.231 149.599,-30.7587"/>
<polygon fill="midnightblue" stroke="midnightblue" points="159.612,-60.7267 166.988,-68.3318 165.964,-57.7866 159.612,-60.7267"/>
</g>
</g>
</svg>
