<?xml version="1.0" encoding="UTF-8" standalone="no"?>
<!DOCTYPE svg PUBLIC "-//W3C//DTD SVG 1.1//EN"
 "http://www.w3.org/Graphics/SVG/1.1/DTD/svg11.dtd">
<!-- Generated by graphviz version 2.38.0 (20140413.2041)
 -->
<!-- Title: System.Globalization.PersianCalendar Pages: 1 -->
<svg width="781pt" height="256pt"
 viewBox="0.00 0.00 781.00 256.00" xmlns="http://www.w3.org/2000/svg" xmlns:xlink="http://www.w3.org/1999/xlink">
<g id="graph0" class="graph" transform="scale(1 1) rotate(0) translate(4 252)">
<title>System.Globalization.PersianCalendar</title>
<!-- Node3 -->
<g id="node1" class="node"><title>Node3</title>
<g id="a_node1"><a xlink:title="Represents the Persian calendar.">
<polygon fill="#bfbfbf" stroke="black" points="627,-164 627,-194 773,-194 773,-164 627,-164"/>
<text text-anchor="start" x="635" y="-182" font-family="Helvetica,sans-Serif" font-size="10.00">System.Globalization.Persian</text>
<text text-anchor="middle" x="700" y="-171" font-family="Helvetica,sans-Serif" font-size="10.00">Calendar</text>
</a>
</g>
</g>
<!-- Node4 -->
<g id="node2" class="node"><title>Node4</title>
<g id="a_node2"><a xlink:href="class_system_1_1_globalization_1_1_calendar.html" target="_top" xlink:title="Represents time in divisions, such as weeks, months, and years.">
<polygon fill="none" stroke="black" points="408,-210.5 408,-229.5 463,-229.5 463,-210.5 408,-210.5"/>
<text text-anchor="middle" x="435.5" y="-217.5" font-family="Helvetica,sans-Serif" font-size="10.00">Calendar</text>
</a>
</g>
</g>
<!-- Node4&#45;&gt;Node3 -->
<g id="edge1" class="edge"><title>Node4&#45;&gt;Node3</title>
<path fill="none" stroke="midnightblue" d="M473.125,-214.279C512.769,-208.088 577,-198.055 626.853,-190.269"/>
<polygon fill="midnightblue" stroke="midnightblue" points="472.455,-210.842 463.114,-215.843 473.535,-217.758 472.455,-210.842"/>
</g>
<!-- Node5 -->
<g id="node3" class="node"><title>Node5</title>
<g id="a_node3"><a xlink:href="interface_system_1_1_i_cloneable.html" target="_top" xlink:title="Supports cloning, which creates a new instance of a class with the same value as an existing instance...">
<polygon fill="none" stroke="black" points="255,-228.5 255,-247.5 317,-247.5 317,-228.5 255,-228.5"/>
<text text-anchor="middle" x="286" y="-235.5" font-family="Helvetica,sans-Serif" font-size="10.00">ICloneable</text>
</a>
</g>
</g>
<!-- Node5&#45;&gt;Node4 -->
<g id="edge2" class="edge"><title>Node5&#45;&gt;Node4</title>
<path fill="none" stroke="midnightblue" d="M327.356,-233.075C352.958,-229.951 385.367,-225.996 407.802,-223.258"/>
<polygon fill="midnightblue" stroke="midnightblue" points="326.707,-229.628 317.205,-234.314 327.555,-236.577 326.707,-229.628"/>
</g>
<!-- Node6 -->
<g id="node4" class="node"><title>Node6</title>
<g id="a_node4"><a xlink:href="struct_system_1_1_date_time.html" target="_top" xlink:title="Represents an instant in time, typically expressed as a date and time of day. To browse the ....">
<polygon fill="none" stroke="black" points="388,-114.5 388,-133.5 483,-133.5 483,-114.5 388,-114.5"/>
<text text-anchor="middle" x="435.5" y="-121.5" font-family="Helvetica,sans-Serif" font-size="10.00">System.DateTime</text>
</a>
</g>
</g>
<!-- Node6&#45;&gt;Node3 -->
<g id="edge3" class="edge"><title>Node6&#45;&gt;Node3</title>
<path fill="none" stroke="#9a32cd" stroke-dasharray="5,2" d="M491.878,-135.603C531.266,-143.856 584.537,-155.017 627.19,-163.954"/>
<polygon fill="#9a32cd" stroke="#9a32cd" points="492.43,-132.143 481.924,-133.517 490.994,-138.994 492.43,-132.143"/>
<text text-anchor="middle" x="555" y="-173" font-family="Helvetica,sans-Serif" font-size="10.00"> MaxSupportedDateTime</text>
<text text-anchor="middle" x="555" y="-162" font-family="Helvetica,sans-Serif" font-size="10.00">MinSupportedDateTime</text>
</g>
<!-- Node6&#45;&gt;Node6 -->
<g id="edge12" class="edge"><title>Node6&#45;&gt;Node6</title>
<path fill="none" stroke="#9a32cd" stroke-dasharray="5,2" d="M423.346,-143.766C424.3,-148.497 428.352,-152 435.5,-152 447.23,-152 450.621,-142.565 445.673,-133.757"/>
<polygon fill="#9a32cd" stroke="#9a32cd" points="426.818,-144.246 425.327,-133.757 419.952,-142.887 426.818,-144.246"/>
<text text-anchor="middle" x="435.5" y="-166" font-family="Helvetica,sans-Serif" font-size="10.00"> MaxValue</text>
<text text-anchor="middle" x="435.5" y="-155" font-family="Helvetica,sans-Serif" font-size="10.00">MinValue</text>
</g>
<!-- Node7 -->
<g id="node5" class="node"><title>Node7</title>
<g id="a_node5"><a xlink:href="interface_system_1_1_i_comparable.html" target="_top" xlink:title="Defines a generalized type&#45;specific comparison method that a value type or class implements to order ...">
<polygon fill="none" stroke="black" points="250.5,-190.5 250.5,-209.5 321.5,-209.5 321.5,-190.5 250.5,-190.5"/>
<text text-anchor="middle" x="286" y="-197.5" font-family="Helvetica,sans-Serif" font-size="10.00">IComparable</text>
</a>
</g>
</g>
<!-- Node7&#45;&gt;Node6 -->
<g id="edge4" class="edge"><title>Node7&#45;&gt;Node6</title>
<path fill="none" stroke="midnightblue" d="M331.354,-188.793C338.067,-186.539 344.811,-183.942 351,-181 378.741,-167.812 407.574,-146.018 423.043,-133.547"/>
<polygon fill="midnightblue" stroke="midnightblue" points="330.104,-185.517 321.61,-191.85 332.2,-192.196 330.104,-185.517"/>
</g>
<!-- Node8 -->
<g id="node6" class="node"><title>Node8</title>
<g id="a_node6"><a xlink:href="interface_system_1_1_i_formattable.html" target="_top" xlink:title="Provides functionality to format the value of an object into a string representation.">
<polygon fill="none" stroke="black" points="250.5,-152.5 250.5,-171.5 321.5,-171.5 321.5,-152.5 250.5,-152.5"/>
<text text-anchor="middle" x="286" y="-159.5" font-family="Helvetica,sans-Serif" font-size="10.00">IFormattable</text>
</a>
</g>
</g>
<!-- Node8&#45;&gt;Node6 -->
<g id="edge5" class="edge"><title>Node8&#45;&gt;Node6</title>
<path fill="none" stroke="midnightblue" d="M331.302,-150.587C352.446,-145.139 377.454,-138.697 397.556,-133.518"/>
<polygon fill="midnightblue" stroke="midnightblue" points="330.393,-147.206 321.582,-153.091 332.139,-153.985 330.393,-147.206"/>
</g>
<!-- Node9 -->
<g id="node7" class="node"><title>Node9</title>
<g id="a_node7"><a xlink:href="interface_system_1_1_i_convertible.html" target="_top" xlink:title="Defines methods that convert the value of the implementing reference or value type to a common langua...">
<polygon fill="none" stroke="black" points="253,-114.5 253,-133.5 319,-133.5 319,-114.5 253,-114.5"/>
<text text-anchor="middle" x="286" y="-121.5" font-family="Helvetica,sans-Serif" font-size="10.00">IConvertible</text>
</a>
</g>
</g>
<!-- Node9&#45;&gt;Node6 -->
<g id="edge6" class="edge"><title>Node9&#45;&gt;Node6</title>
<path fill="none" stroke="midnightblue" d="M329.13,-124C347.518,-124 369.141,-124 387.998,-124"/>
<polygon fill="midnightblue" stroke="midnightblue" points="329.005,-120.5 319.005,-124 329.005,-127.5 329.005,-120.5"/>
</g>
<!-- Node10 -->
<g id="node8" class="node"><title>Node10</title>
<g id="a_node8"><a xlink:href="interface_system_1_1_runtime_1_1_serialization_1_1_i_serializable.html" target="_top" xlink:title="Allows an object to control its own serialization and deserialization.">
<polygon fill="none" stroke="black" points="251.5,-76.5 251.5,-95.5 320.5,-95.5 320.5,-76.5 251.5,-76.5"/>
<text text-anchor="middle" x="286" y="-83.5" font-family="Helvetica,sans-Serif" font-size="10.00">ISerializable</text>
</a>
</g>
</g>
<!-- Node10&#45;&gt;Node6 -->
<g id="edge7" class="edge"><title>Node10&#45;&gt;Node6</title>
<path fill="none" stroke="midnightblue" d="M330.599,-97.2323C351.855,-102.708 377.147,-109.224 397.456,-114.456"/>
<polygon fill="midnightblue" stroke="midnightblue" points="331.396,-93.8235 320.839,-94.718 329.65,-100.602 331.396,-93.8235"/>
</g>
<!-- Node11 -->
<g id="node9" class="node"><title>Node11</title>
<g id="a_node9"><a xlink:href="interface_system_1_1_i_comparable.html" target="_top" xlink:title=" ">
<polygon fill="none" stroke="black" points="221,-38.5 221,-57.5 351,-57.5 351,-38.5 221,-38.5"/>
<text text-anchor="middle" x="286" y="-45.5" font-family="Helvetica,sans-Serif" font-size="10.00">IComparable&lt; DateTime &gt;</text>
</a>
</g>
</g>
<!-- Node11&#45;&gt;Node6 -->
<g id="edge8" class="edge"><title>Node11&#45;&gt;Node6</title>
<path fill="none" stroke="midnightblue" d="M336.131,-60.8697C341.237,-62.7129 346.28,-64.7559 351,-67 378.741,-80.1882 407.574,-101.982 423.043,-114.453"/>
<polygon fill="midnightblue" stroke="midnightblue" points="336.897,-57.4352 326.303,-57.5712 334.67,-64.0713 336.897,-57.4352"/>
</g>
<!-- Node12 -->
<g id="node10" class="node"><title>Node12</title>
<g id="a_node10"><a xlink:href="interface_system_1_1_i_comparable.html" target="_top" xlink:title="Defines a generalized type&#45;specific comparison method that a value type or class implements to order ...">
<polygon fill="none" stroke="black" points="7.5,-38.5 7.5,-57.5 114.5,-57.5 114.5,-38.5 7.5,-38.5"/>
<text text-anchor="middle" x="61" y="-45.5" font-family="Helvetica,sans-Serif" font-size="10.00">System.IComparable</text>
</a>
</g>
</g>
<!-- Node12&#45;&gt;Node11 -->
<g id="edge9" class="edge"><title>Node12&#45;&gt;Node11</title>
<path fill="none" stroke="orange" stroke-dasharray="5,2" d="M124.91,-48C154.895,-48 190.708,-48 220.851,-48"/>
<polygon fill="orange" stroke="orange" points="124.566,-44.5001 114.566,-48 124.565,-51.5001 124.566,-44.5001"/>
<text text-anchor="middle" x="171.5" y="-51" font-family="Helvetica,sans-Serif" font-size="10.00"> &lt; DateTime &gt;</text>
</g>
<!-- Node13 -->
<g id="node11" class="node"><title>Node13</title>
<g id="a_node11"><a xlink:href="interface_system_1_1_i_equatable.html" target="_top" xlink:title=" ">
<polygon fill="none" stroke="black" points="225,-0.5 225,-19.5 347,-19.5 347,-0.5 225,-0.5"/>
<text text-anchor="middle" x="286" y="-7.5" font-family="Helvetica,sans-Serif" font-size="10.00">IEquatable&lt; DateTime &gt;</text>
</a>
</g>
</g>
<!-- Node13&#45;&gt;Node6 -->
<g id="edge10" class="edge"><title>Node13&#45;&gt;Node6</title>
<path fill="none" stroke="midnightblue" d="M340.455,-23.3063C344.134,-24.9919 347.69,-26.8821 351,-29 387.069,-52.0762 416.637,-95.1177 428.68,-114.319"/>
<polygon fill="midnightblue" stroke="midnightblue" points="341.71,-20.0386 331.128,-19.5244 339.08,-26.5256 341.71,-20.0386"/>
</g>
<!-- Node14 -->
<g id="node12" class="node"><title>Node14</title>
<g id="a_node12"><a xlink:href="interface_system_1_1_i_equatable.html" target="_top" xlink:title="Defines a generalized method that a value type or class implements to create a type&#45;specific method f...">
<polygon fill="none" stroke="black" points="0,-0.5 0,-19.5 122,-19.5 122,-0.5 0,-0.5"/>
<text text-anchor="middle" x="61" y="-7.5" font-family="Helvetica,sans-Serif" font-size="10.00">System.IEquatable&lt; T &gt;</text>
</a>
</g>
</g>
<!-- Node14&#45;&gt;Node13 -->
<g id="edge11" class="edge"><title>Node14&#45;&gt;Node13</title>
<path fill="none" stroke="orange" stroke-dasharray="5,2" d="M132.358,-10C162.073,-10 196.322,-10 224.84,-10"/>
<polygon fill="orange" stroke="orange" points="132.053,-6.5001 122.053,-10 132.053,-13.5001 132.053,-6.5001"/>
<text text-anchor="middle" x="171.5" y="-13" font-family="Helvetica,sans-Serif" font-size="10.00"> &lt; DateTime &gt;</text>
</g>
</g>
</svg>
