<?xml version="1.0" encoding="UTF-8" standalone="no"?>
<!DOCTYPE svg PUBLIC "-//W3C//DTD SVG 1.1//EN"
 "http://www.w3.org/Graphics/SVG/1.1/DTD/svg11.dtd">
<!-- Generated by graphviz version 2.38.0 (20140413.2041)
 -->
<!-- Title: System.Text.ISO2022Encoding Pages: 1 -->
<!--zoomable 214 -->
<svg id="main" version="1.1" xmlns="http://www.w3.org/2000/svg" xmlns:xlink="http://www.w3.org/1999/xlink" xml:space="preserve" onload="init(evt)">
<style type="text/css"><![CDATA[
.edge:hover path { stroke: red; }
.edge:hover polygon { stroke: red; fill: red; }
]]></style>
<script type="text/javascript"><![CDATA[
var edges = document.getElementsByTagName('g');
if (edges && edges.length) {
  for (var i=0;i<edges.length;i++) {
    if (edges[i].id.substr(0,4)=='edge') {
      edges[i].setAttribute('class','edge');
    }
  }
}
]]></script>
        <defs>
                <circle id="rim" cx="0" cy="0" r="7"/>
                <circle id="rim2" cx="0" cy="0" r="3.5"/>
                <g id="zoomPlus">
                        <use xlink:href="#rim" fill="#404040">
                                <set attributeName="fill" to="#808080" begin="zoomplus.mouseover" end="zoomplus.mouseout"/>
                        </use>
                        <path d="M-4,0h8M0,-4v8" fill="none" stroke="white" stroke-width="1.5" pointer-events="none"/>
                </g>
                <g id="zoomMin">
                        <use xlink:href="#rim" fill="#404040">
                                <set attributeName="fill" to="#808080" begin="zoomminus.mouseover" end="zoomminus.mouseout"/>
                        </use>
                        <path d="M-4,0h8" fill="none" stroke="white" stroke-width="1.5" pointer-events="none"/>
                </g>
                <g id="dirArrow">
                        <path fill="none" stroke="white" stroke-width="1.5" d="M0,-3.0v7 M-2.5,-0.5L0,-3.0L2.5,-0.5"/>
                </g>
               <g id="resetDef">
                       <use xlink:href="#rim2" fill="#404040">
                               <set attributeName="fill" to="#808080" begin="reset.mouseover" end="reset.mouseout"/>
                       </use>
               </g>
        </defs>

<script type="text/javascript">
var viewWidth = 1073;
var viewHeight = 214;
var sectionId = 'dynsection-1';
</script>
<script xlink:href="svgpan.js"/>
<svg id="graph" class="graph">
<g id="viewport">
<title>System.Text.ISO2022Encoding</title>
<!-- Node7 -->
<g id="node1" class="node"><title>Node7</title>
<g id="a_node1"><a xlink:title=" ">
<polygon fill="#bfbfbf" stroke="black" points="912,-158 912,-177 1065,-177 1065,-158 912,-158"/>
<text text-anchor="middle" x="988.5" y="-165" font-family="Helvetica,sans-Serif" font-size="10.00">System.Text.ISO2022Encoding</text>
</a>
</g>
</g>
<!-- Node8 -->
<g id="node2" class="node"><title>Node8</title>
<g id="a_node2"><a xlink:href="class_system_1_1_text_1_1_d_b_c_s_code_page_encoding.html" target="_top" xlink:title=" ">
<polygon fill="none" stroke="black" points="746,-158 746,-177 875,-177 875,-158 746,-158"/>
<text text-anchor="middle" x="810.5" y="-165" font-family="Helvetica,sans-Serif" font-size="10.00">DBCSCodePageEncoding</text>
</a>
</g>
</g>
<!-- Node8&#45;&gt;Node7 -->
<g id="edge1" class="edge"><title>Node8&#45;&gt;Node7</title>
<path fill="none" stroke="midnightblue" d="M885.225,-167.5C893.996,-167.5 902.961,-167.5 911.759,-167.5"/>
<polygon fill="midnightblue" stroke="midnightblue" points="885.04,-164 875.04,-167.5 885.04,-171 885.04,-164"/>
</g>
<!-- Node9 -->
<g id="node3" class="node"><title>Node9</title>
<g id="a_node3"><a xlink:href="class_system_1_1_text_1_1_base_code_page_encoding.html" target="_top" xlink:title=" ">
<polygon fill="none" stroke="black" points="584,-118 584,-137 709,-137 709,-118 584,-118"/>
<text text-anchor="middle" x="646.5" y="-125" font-family="Helvetica,sans-Serif" font-size="10.00">BaseCodePageEncoding</text>
</a>
</g>
</g>
<!-- Node9&#45;&gt;Node8 -->
<g id="edge2" class="edge"><title>Node9&#45;&gt;Node8</title>
<path fill="none" stroke="midnightblue" d="M696.257,-139.539C720.198,-145.45 748.628,-152.47 771.014,-157.997"/>
<polygon fill="midnightblue" stroke="midnightblue" points="696.851,-136.08 686.303,-137.081 695.172,-142.876 696.851,-136.08"/>
</g>
<!-- Node10 -->
<g id="node4" class="node"><title>Node10</title>
<g id="a_node4"><a xlink:href="class_system_1_1_text_1_1_encoding_n_l_s.html" target="_top" xlink:title=" ">
<polygon fill="none" stroke="black" points="316,-148 316,-167 392,-167 392,-148 316,-148"/>
<text text-anchor="middle" x="354" y="-155" font-family="Helvetica,sans-Serif" font-size="10.00">EncodingNLS</text>
</a>
</g>
</g>
<!-- Node10&#45;&gt;Node9 -->
<g id="edge3" class="edge"><title>Node10&#45;&gt;Node9</title>
<path fill="none" stroke="midnightblue" d="M402.185,-152.627C451.619,-147.522 529.485,-139.481 583.773,-133.875"/>
<polygon fill="midnightblue" stroke="midnightblue" points="401.675,-149.161 392.087,-153.67 402.394,-156.124 401.675,-149.161"/>
</g>
<!-- Node11 -->
<g id="node5" class="node"><title>Node11</title>
<g id="a_node5"><a xlink:href="class_system_1_1_text_1_1_encoding.html" target="_top" xlink:title="Represents a character encoding.To browse the .NET Framework source code for this type,...">
<polygon fill="none" stroke="black" points="144.5,-148 144.5,-167 201.5,-167 201.5,-148 144.5,-148"/>
<text text-anchor="middle" x="173" y="-155" font-family="Helvetica,sans-Serif" font-size="10.00">Encoding</text>
</a>
</g>
</g>
<!-- Node11&#45;&gt;Node10 -->
<g id="edge4" class="edge"><title>Node11&#45;&gt;Node10</title>
<path fill="none" stroke="midnightblue" d="M211.849,-157.5C242.45,-157.5 285.299,-157.5 315.741,-157.5"/>
<polygon fill="midnightblue" stroke="midnightblue" points="211.577,-154 201.576,-157.5 211.576,-161 211.577,-154"/>
</g>
<!-- Node12 -->
<g id="node6" class="node"><title>Node12</title>
<g id="a_node6"><a xlink:href="interface_system_1_1_i_cloneable.html" target="_top" xlink:title="Supports cloning, which creates a new instance of a class with the same value as an existing instance...">
<polygon fill="none" stroke="black" points="2,-148 2,-167 64,-167 64,-148 2,-148"/>
<text text-anchor="middle" x="33" y="-155" font-family="Helvetica,sans-Serif" font-size="10.00">ICloneable</text>
</a>
</g>
</g>
<!-- Node12&#45;&gt;Node11 -->
<g id="edge5" class="edge"><title>Node12&#45;&gt;Node11</title>
<path fill="none" stroke="midnightblue" d="M74.5089,-157.5C96.8984,-157.5 124.143,-157.5 144.133,-157.5"/>
<polygon fill="midnightblue" stroke="midnightblue" points="74.2847,-154 64.2847,-157.5 74.2847,-161 74.2847,-154"/>
</g>
<!-- Node13 -->
<g id="node7" class="node"><title>Node13</title>
<g id="a_node7"><a xlink:href="interface_system_1_1_runtime_1_1_serialization_1_1_i_serializable.html" target="_top" xlink:title="Allows an object to control its own serialization and deserialization.">
<polygon fill="none" stroke="black" points="319.5,-186 319.5,-205 388.5,-205 388.5,-186 319.5,-186"/>
<text text-anchor="middle" x="354" y="-193" font-family="Helvetica,sans-Serif" font-size="10.00">ISerializable</text>
</a>
</g>
</g>
<!-- Node13&#45;&gt;Node8 -->
<g id="edge13" class="edge"><title>Node13&#45;&gt;Node8</title>
<path fill="none" stroke="midnightblue" d="M399.12,-192.782C480.032,-187.797 652.414,-177.177 745.95,-171.415"/>
<polygon fill="midnightblue" stroke="midnightblue" points="398.556,-189.31 388.79,-193.418 398.986,-196.297 398.556,-189.31"/>
</g>
<!-- Node13&#45;&gt;Node9 -->
<g id="edge6" class="edge"><title>Node13&#45;&gt;Node9</title>
<path fill="none" stroke="midnightblue" d="M398.681,-188.789C441.627,-181.775 508.858,-169.68 566,-154.5 584.455,-149.597 604.84,-142.642 620.347,-137.019"/>
<polygon fill="midnightblue" stroke="midnightblue" points="397.888,-185.371 388.573,-190.419 399.003,-192.282 397.888,-185.371"/>
</g>
<!-- Node14 -->
<g id="node8" class="node"><title>Node14</title>
<g id="a_node8"><a xlink:title=" ">
<polygon fill="none" stroke="#bfbfbf" points="282.5,-49.5 282.5,-79.5 425.5,-79.5 425.5,-49.5 282.5,-49.5"/>
<text text-anchor="start" x="290.5" y="-67.5" font-family="Helvetica,sans-Serif" font-size="10.00">System.Text.BaseCodePage</text>
<text text-anchor="middle" x="354" y="-56.5" font-family="Helvetica,sans-Serif" font-size="10.00">Encoding.CodePageHeader</text>
</a>
</g>
</g>
<!-- Node14&#45;&gt;Node9 -->
<g id="edge7" class="edge"><title>Node14&#45;&gt;Node9</title>
<path fill="none" stroke="#9a32cd" stroke-dasharray="5,2" d="M435.69,-73.8393C475.319,-79.3509 523.555,-87.4459 566,-98.5 585.62,-103.61 607.189,-111.638 622.904,-117.953"/>
<polygon fill="#9a32cd" stroke="#9a32cd" points="435.927,-70.3393 425.547,-72.4584 434.983,-77.2754 435.927,-70.3393"/>
<text text-anchor="middle" x="506" y="-101.5" font-family="Helvetica,sans-Serif" font-size="10.00"> pCodePage</text>
</g>
<!-- Node15 -->
<g id="node9" class="node"><title>Node15</title>
<g id="a_node9"><a xlink:href="class_microsoft_1_1_win32_1_1_safe_handles_1_1_safe_view_of_file_handle.html" target="_top" xlink:title=" ">
<polygon fill="none" stroke="black" points="280,-98.5 280,-128.5 428,-128.5 428,-98.5 280,-98.5"/>
<text text-anchor="start" x="288" y="-116.5" font-family="Helvetica,sans-Serif" font-size="10.00">Microsoft.Win32.SafeHandles.</text>
<text text-anchor="middle" x="354" y="-105.5" font-family="Helvetica,sans-Serif" font-size="10.00">SafeViewOfFileHandle</text>
</a>
</g>
</g>
<!-- Node15&#45;&gt;Node9 -->
<g id="edge8" class="edge"><title>Node15&#45;&gt;Node9</title>
<path fill="none" stroke="#9a32cd" stroke-dasharray="5,2" d="M438.528,-113.046C477.334,-113.357 524.068,-114.474 566,-117.5 571.827,-117.921 577.883,-118.472 583.934,-119.101"/>
<polygon fill="#9a32cd" stroke="#9a32cd" points="438.346,-109.544 428.324,-112.981 438.302,-116.544 438.346,-109.544"/>
<text text-anchor="middle" x="506" y="-120.5" font-family="Helvetica,sans-Serif" font-size="10.00"> safeMemorySectionHandle</text>
</g>
<!-- Node16 -->
<g id="node10" class="node"><title>Node16</title>
<g id="a_node10"><a xlink:href="class_microsoft_1_1_win32_1_1_safe_handles_1_1_safe_handle_zero_or_minus_one_is_invalid.html" target="_top" xlink:title="Provides a base class for Win32 safe handle implementations in which the value of either 0 or &#45;1 indi...">
<polygon fill="none" stroke="black" points="103,-61.5 103,-91.5 243,-91.5 243,-61.5 103,-61.5"/>
<text text-anchor="start" x="111" y="-79.5" font-family="Helvetica,sans-Serif" font-size="10.00">SafeHandleZeroOrMinusOne</text>
<text text-anchor="middle" x="173" y="-68.5" font-family="Helvetica,sans-Serif" font-size="10.00">IsInvalid</text>
</a>
</g>
</g>
<!-- Node16&#45;&gt;Node15 -->
<g id="edge9" class="edge"><title>Node16&#45;&gt;Node15</title>
<path fill="none" stroke="midnightblue" d="M253.021,-92.834C262.137,-94.7182 271.399,-96.6328 280.424,-98.4982"/>
<polygon fill="midnightblue" stroke="midnightblue" points="253.708,-89.4019 243.206,-90.8052 252.291,-96.257 253.708,-89.4019"/>
</g>
<!-- Node21 -->
<g id="node12" class="node"><title>Node21</title>
<g id="a_node12"><a xlink:href="class_microsoft_1_1_win32_1_1_safe_handles_1_1_safe_file_mapping_handle.html" target="_top" xlink:title=" ">
<polygon fill="none" stroke="black" points="280,-0.5 280,-30.5 428,-30.5 428,-0.5 280,-0.5"/>
<text text-anchor="start" x="288" y="-18.5" font-family="Helvetica,sans-Serif" font-size="10.00">Microsoft.Win32.SafeHandles.</text>
<text text-anchor="middle" x="354" y="-7.5" font-family="Helvetica,sans-Serif" font-size="10.00">SafeFileMappingHandle</text>
</a>
</g>
</g>
<!-- Node16&#45;&gt;Node21 -->
<g id="edge12" class="edge"><title>Node16&#45;&gt;Node21</title>
<path fill="none" stroke="midnightblue" d="M226.298,-58.0332C243.393,-52.0537 262.485,-45.4355 280,-39.5 288.592,-36.5884 297.77,-33.5302 306.617,-30.6087"/>
<polygon fill="midnightblue" stroke="midnightblue" points="224.771,-54.8597 216.491,-61.4701 227.086,-61.4658 224.771,-54.8597"/>
</g>
<!-- Node17 -->
<g id="node11" class="node"><title>Node17</title>
<g id="a_node11"><a xlink:href="class_system_1_1_runtime_1_1_interop_services_1_1_safe_handle.html" target="_top" xlink:title="Represents a wrapper class for operating system handles. This class must be inherited.">
<polygon fill="none" stroke="red" points="0,-67 0,-86 66,-86 66,-67 0,-67"/>
<text text-anchor="middle" x="33" y="-74" font-family="Helvetica,sans-Serif" font-size="10.00">SafeHandle</text>
</a>
</g>
</g>
<!-- Node17&#45;&gt;Node16 -->
<g id="edge10" class="edge"><title>Node17&#45;&gt;Node16</title>
<path fill="none" stroke="midnightblue" d="M76.013,-76.5C84.5157,-76.5 93.6673,-76.5 102.823,-76.5"/>
<polygon fill="midnightblue" stroke="midnightblue" points="76.0069,-73.0001 66.0068,-76.5 76.0068,-80.0001 76.0069,-73.0001"/>
</g>
<!-- Node21&#45;&gt;Node9 -->
<g id="edge11" class="edge"><title>Node21&#45;&gt;Node9</title>
<path fill="none" stroke="#9a32cd" stroke-dasharray="5,2" d="M438.231,-23.6919C478.372,-29.9898 526.303,-41.0687 566,-60.5 595.506,-74.9426 623.24,-102.714 636.808,-117.562"/>
<polygon fill="#9a32cd" stroke="#9a32cd" points="438.612,-20.2099 428.204,-22.1915 437.576,-27.1328 438.612,-20.2099"/>
<text text-anchor="middle" x="506" y="-63.5" font-family="Helvetica,sans-Serif" font-size="10.00"> safeFileMappingHandle</text>
</g>
</g>
</svg>
        <g id="navigator" transform="translate(0 0)" fill="#404254">
                <rect fill="#f2f5e9" fill-opacity="0.5" stroke="#606060" stroke-width=".5" x="0" y="0" width="60" height="60"/>
                <use id="zoomplus" xlink:href="#zoomPlus" x="17" y="9" onmousedown="handleZoom(evt,'in')"/>
                <use id="zoomminus" xlink:href="#zoomMin" x="42" y="9" onmousedown="handleZoom(evt,'out')"/>
                <use id="reset" xlink:href="#resetDef" x="30" y="36" onmousedown="handleReset()"/>
                <g id="arrowUp" xlink:href="#dirArrow" transform="translate(30 24)" onmousedown="handlePan(0,-1)">
                  <use xlink:href="#rim" fill="#404040">
                        <set attributeName="fill" to="#808080" begin="arrowUp.mouseover" end="arrowUp.mouseout"/>
                  </use>
                  <path fill="none" stroke="white" stroke-width="1.5" d="M0,-3.0v7 M-2.5,-0.5L0,-3.0L2.5,-0.5"/>
                </g>
                <g id="arrowRight" xlink:href="#dirArrow" transform="rotate(90) translate(36 -43)" onmousedown="handlePan(1,0)">
                  <use xlink:href="#rim" fill="#404040">
                        <set attributeName="fill" to="#808080" begin="arrowRight.mouseover" end="arrowRight.mouseout"/>
                  </use>
                  <path fill="none" stroke="white" stroke-width="1.5" d="M0,-3.0v7 M-2.5,-0.5L0,-3.0L2.5,-0.5"/>
                </g>
                <g id="arrowDown" xlink:href="#dirArrow" transform="rotate(180) translate(-30 -48)" onmousedown="handlePan(0,1)">
                  <use xlink:href="#rim" fill="#404040">
                        <set attributeName="fill" to="#808080" begin="arrowDown.mouseover" end="arrowDown.mouseout"/>
                  </use>
                  <path fill="none" stroke="white" stroke-width="1.5" d="M0,-3.0v7 M-2.5,-0.5L0,-3.0L2.5,-0.5"/>
                </g>
                <g id="arrowLeft" xlink:href="#dirArrow" transform="rotate(270) translate(-36 17)" onmousedown="handlePan(-1,0)">
                  <use xlink:href="#rim" fill="#404040">
                        <set attributeName="fill" to="#808080" begin="arrowLeft.mouseover" end="arrowLeft.mouseout"/>
                  </use>
                  <path fill="none" stroke="white" stroke-width="1.5" d="M0,-3.0v7 M-2.5,-0.5L0,-3.0L2.5,-0.5"/>
                </g>
        </g>
        <svg viewBox="0 0 15 15" width="100%" height="30px" preserveAspectRatio="xMaxYMin meet">
         <g id="arrow_out" transform="scale(0.3 0.3)">
          <a xlink:href="class_system_1_1_text_1_1_i_s_o2022_encoding__coll__graph_org.svg" target="_base">
           <rect id="button" ry="5" rx="5" y="6" x="6" height="38" width="38"
                fill="#f2f5e9" fill-opacity="0.5" stroke="#606060" stroke-width="1.0"/>
           <path id="arrow"
             d="M 11.500037,31.436501 C 11.940474,20.09759 22.043105,11.32322 32.158766,21.979434 L 37.068811,17.246167 C 37.068811,17.246167 37.088388,32 37.088388,32 L 22.160133,31.978069 C 22.160133,31.978069 26.997745,27.140456 26.997745,27.140456 C 18.528582,18.264221 13.291696,25.230495 11.500037,31.436501 z"
             style="fill:#404040;"/>
          </a>
         </g>
        </svg>
</svg>
