<?xml version="1.0" encoding="UTF-8" standalone="no"?>
<!DOCTYPE svg PUBLIC "-//W3C//DTD SVG 1.1//EN"
 "http://www.w3.org/Graphics/SVG/1.1/DTD/svg11.dtd">
<!-- Generated by graphviz version 2.38.0 (20140413.2041)
 -->
<!-- Title: System.Runtime.InteropServices.WindowsRuntime.DictionaryKeyCollection&lt; TKey, TValue &gt; Pages: 1 -->
<svg width="1137pt" height="129pt"
 viewBox="0.00 0.00 1137.00 129.00" xmlns="http://www.w3.org/2000/svg" xmlns:xlink="http://www.w3.org/1999/xlink">
<g id="graph0" class="graph" transform="scale(1 1) rotate(0) translate(4 125)">
<title>System.Runtime.InteropServices.WindowsRuntime.DictionaryKeyCollection&lt; TKey, TValue &gt;</title>
<!-- Node0 -->
<g id="node1" class="node"><title>Node0</title>
<g id="a_node1"><a xlink:title=" ">
<polygon fill="#bfbfbf" stroke="black" points="930,-43.5 930,-84.5 1129,-84.5 1129,-43.5 930,-43.5"/>
<text text-anchor="start" x="938" y="-72.5" font-family="Helvetica,sans-Serif" font-size="10.00">System.Runtime.InteropServices.</text>
<text text-anchor="start" x="938" y="-61.5" font-family="Helvetica,sans-Serif" font-size="10.00">WindowsRuntime.DictionaryKeyCollection</text>
<text text-anchor="middle" x="1029.5" y="-50.5" font-family="Helvetica,sans-Serif" font-size="10.00">&lt; TKey, TValue &gt;</text>
</a>
</g>
</g>
<!-- Node1 -->
<g id="node2" class="node"><title>Node1</title>
<g id="a_node2"><a xlink:href="interface_system_1_1_collections_1_1_generic_1_1_i_collection.html" target="_top" xlink:title=" ">
<polygon fill="none" stroke="black" points="791,-54.5 791,-73.5 893,-73.5 893,-54.5 791,-54.5"/>
<text text-anchor="middle" x="842" y="-61.5" font-family="Helvetica,sans-Serif" font-size="10.00">ICollection&lt; TKey &gt;</text>
</a>
</g>
</g>
<!-- Node1&#45;&gt;Node0 -->
<g id="edge1" class="edge"><title>Node1&#45;&gt;Node0</title>
<path fill="none" stroke="midnightblue" d="M903.313,-64C911.791,-64 920.682,-64 929.651,-64"/>
<polygon fill="midnightblue" stroke="midnightblue" points="903.199,-60.5001 893.199,-64 903.199,-67.5001 903.199,-60.5001"/>
</g>
<!-- Node2 -->
<g id="node3" class="node"><title>Node2</title>
<g id="a_node3"><a xlink:href="interface_system_1_1_collections_1_1_generic_1_1_i_collection.html" target="_top" xlink:title="Defines methods to manipulate generic collections.">
<polygon fill="none" stroke="black" points="570,-49 570,-79 711,-79 711,-49 570,-49"/>
<text text-anchor="start" x="578" y="-67" font-family="Helvetica,sans-Serif" font-size="10.00">System.Collections.Generic.</text>
<text text-anchor="middle" x="640.5" y="-56" font-family="Helvetica,sans-Serif" font-size="10.00">ICollection&lt; T &gt;</text>
</a>
</g>
</g>
<!-- Node2&#45;&gt;Node1 -->
<g id="edge2" class="edge"><title>Node2&#45;&gt;Node1</title>
<path fill="none" stroke="orange" stroke-dasharray="5,2" d="M721.534,-64C744.903,-64 769.776,-64 790.742,-64"/>
<polygon fill="orange" stroke="orange" points="721.275,-60.5001 711.275,-64 721.275,-67.5001 721.275,-60.5001"/>
<text text-anchor="middle" x="751" y="-67" font-family="Helvetica,sans-Serif" font-size="10.00"> &lt; TKey &gt;</text>
</g>
<!-- Node3 -->
<g id="node4" class="node"><title>Node3</title>
<g id="a_node4"><a xlink:href="interface_system_1_1_collections_1_1_generic_1_1_i_enumerable.html" target="_top" xlink:title=" ">
<polygon fill="none" stroke="black" points="329,-35.5 329,-54.5 423,-54.5 423,-35.5 329,-35.5"/>
<text text-anchor="middle" x="376" y="-42.5" font-family="Helvetica,sans-Serif" font-size="10.00">IEnumerable&lt; T &gt;</text>
</a>
</g>
</g>
<!-- Node3&#45;&gt;Node2 -->
<g id="edge3" class="edge"><title>Node3&#45;&gt;Node2</title>
<path fill="none" stroke="midnightblue" d="M433.126,-49.0624C473.089,-51.955 527.061,-55.8616 569.788,-58.9541"/>
<polygon fill="midnightblue" stroke="midnightblue" points="433.251,-45.5624 423.024,-48.3313 432.746,-52.5442 433.251,-45.5624"/>
</g>
<!-- Node4 -->
<g id="node5" class="node"><title>Node4</title>
<g id="a_node5"><a xlink:href="interface_system_1_1_collections_1_1_generic_1_1_i_enumerable.html" target="_top" xlink:title="Exposes the enumerator, which supports a simple iteration over a collection of a specified type....">
<polygon fill="none" stroke="black" points="108,-24 108,-54 249,-54 249,-24 108,-24"/>
<text text-anchor="start" x="116" y="-42" font-family="Helvetica,sans-Serif" font-size="10.00">System.Collections.Generic.</text>
<text text-anchor="middle" x="178.5" y="-31" font-family="Helvetica,sans-Serif" font-size="10.00">IEnumerable&lt; out out T &gt;</text>
</a>
</g>
</g>
<!-- Node4&#45;&gt;Node3 -->
<g id="edge4" class="edge"><title>Node4&#45;&gt;Node3</title>
<path fill="none" stroke="orange" stroke-dasharray="5,2" d="M259.285,-41.4487C282.943,-42.1747 308.055,-42.9454 328.818,-43.5826"/>
<polygon fill="orange" stroke="orange" points="259.355,-37.9492 249.252,-41.1407 259.14,-44.9459 259.355,-37.9492"/>
<text text-anchor="middle" x="289" y="-46" font-family="Helvetica,sans-Serif" font-size="10.00"> &lt; T &gt;</text>
</g>
<!-- Node6 -->
<g id="node7" class="node"><title>Node6</title>
<g id="a_node7"><a xlink:href="interface_system_1_1_collections_1_1_generic_1_1_i_enumerable.html" target="_top" xlink:title=" ">
<polygon fill="none" stroke="black" points="441,-0.5 441,-19.5 552,-19.5 552,-0.5 441,-0.5"/>
<text text-anchor="middle" x="496.5" y="-7.5" font-family="Helvetica,sans-Serif" font-size="10.00">IEnumerable&lt; TKey &gt;</text>
</a>
</g>
</g>
<!-- Node4&#45;&gt;Node6 -->
<g id="edge8" class="edge"><title>Node4&#45;&gt;Node6</title>
<path fill="none" stroke="orange" stroke-dasharray="5,2" d="M259.291,-27.8479C261.89,-27.5516 264.465,-27.2679 267,-27 326.339,-20.7298 394.59,-15.971 440.936,-13.1051"/>
<polygon fill="orange" stroke="orange" points="258.701,-24.3933 249.183,-29.0467 259.526,-31.3445 258.701,-24.3933"/>
<text text-anchor="middle" x="289" y="-30" font-family="Helvetica,sans-Serif" font-size="10.00"> &lt; TKey &gt;</text>
</g>
<!-- Node5 -->
<g id="node6" class="node"><title>Node5</title>
<g id="a_node6"><a xlink:href="interface_system_1_1_collections_1_1_i_enumerable.html" target="_top" xlink:title="Exposes an enumerator, which supports a simple iteration over a non&#45;generic collection....">
<polygon fill="none" stroke="black" points="0,-73.5 0,-92.5 71,-92.5 71,-73.5 0,-73.5"/>
<text text-anchor="middle" x="35.5" y="-80.5" font-family="Helvetica,sans-Serif" font-size="10.00">IEnumerable</text>
</a>
</g>
</g>
<!-- Node5&#45;&gt;Node0 -->
<g id="edge9" class="edge"><title>Node5&#45;&gt;Node0</title>
<path fill="none" stroke="midnightblue" d="M67.2976,-96.3206C95.4416,-107.274 138.493,-121 177.5,-121 177.5,-121 177.5,-121 843,-121 894.21,-121 950.004,-100.905 986.885,-84.5783"/>
<polygon fill="midnightblue" stroke="midnightblue" points="68.5797,-93.0638 57.9955,-92.589 65.9734,-99.5606 68.5797,-93.0638"/>
</g>
<!-- Node5&#45;&gt;Node2 -->
<g id="edge6" class="edge"><title>Node5&#45;&gt;Node2</title>
<path fill="none" stroke="midnightblue" d="M81.2632,-81.9474C170.718,-79.7886 377.935,-74.5106 552,-68 557.775,-67.784 563.763,-67.544 569.774,-67.2919"/>
<polygon fill="midnightblue" stroke="midnightblue" points="81.1139,-78.4499 71.2008,-82.189 81.282,-85.4479 81.1139,-78.4499"/>
</g>
<!-- Node5&#45;&gt;Node4 -->
<g id="edge5" class="edge"><title>Node5&#45;&gt;Node4</title>
<path fill="none" stroke="midnightblue" d="M76.8747,-70.4008C93.1983,-65.3069 112.176,-59.3849 129.222,-54.0654"/>
<polygon fill="midnightblue" stroke="midnightblue" points="75.5983,-67.1326 67.0949,-73.4527 77.6835,-73.8148 75.5983,-67.1326"/>
</g>
<!-- Node6&#45;&gt;Node0 -->
<g id="edge7" class="edge"><title>Node6&#45;&gt;Node0</title>
<path fill="none" stroke="midnightblue" d="M562.503,-14.7295C640.956,-20.6738 776.825,-31.7232 893,-45 904.918,-46.3621 917.407,-47.9261 929.778,-49.5595"/>
<polygon fill="midnightblue" stroke="midnightblue" points="562.525,-11.2213 552.29,-13.96 561.999,-18.2016 562.525,-11.2213"/>
</g>
</g>
</svg>
