<?xml version="1.0" encoding="UTF-8" standalone="no"?>
<!DOCTYPE svg PUBLIC "-//W3C//DTD SVG 1.1//EN"
 "http://www.w3.org/Graphics/SVG/1.1/DTD/svg11.dtd">
<!-- Generated by graphviz version 2.38.0 (20140413.2041)
 -->
<!-- Title: System.Reflection.Emit.SymbolMethod Pages: 1 -->
<!--zoomable 266 -->
<svg id="main" version="1.1" xmlns="http://www.w3.org/2000/svg" xmlns:xlink="http://www.w3.org/1999/xlink" xml:space="preserve" onload="init(evt)">
<style type="text/css"><![CDATA[
.edge:hover path { stroke: red; }
.edge:hover polygon { stroke: red; fill: red; }
]]></style>
<script type="text/javascript"><![CDATA[
var edges = document.getElementsByTagName('g');
if (edges && edges.length) {
  for (var i=0;i<edges.length;i++) {
    if (edges[i].id.substr(0,4)=='edge') {
      edges[i].setAttribute('class','edge');
    }
  }
}
]]></script>
        <defs>
                <circle id="rim" cx="0" cy="0" r="7"/>
                <circle id="rim2" cx="0" cy="0" r="3.5"/>
                <g id="zoomPlus">
                        <use xlink:href="#rim" fill="#404040">
                                <set attributeName="fill" to="#808080" begin="zoomplus.mouseover" end="zoomplus.mouseout"/>
                        </use>
                        <path d="M-4,0h8M0,-4v8" fill="none" stroke="white" stroke-width="1.5" pointer-events="none"/>
                </g>
                <g id="zoomMin">
                        <use xlink:href="#rim" fill="#404040">
                                <set attributeName="fill" to="#808080" begin="zoomminus.mouseover" end="zoomminus.mouseout"/>
                        </use>
                        <path d="M-4,0h8" fill="none" stroke="white" stroke-width="1.5" pointer-events="none"/>
                </g>
                <g id="dirArrow">
                        <path fill="none" stroke="white" stroke-width="1.5" d="M0,-3.0v7 M-2.5,-0.5L0,-3.0L2.5,-0.5"/>
                </g>
               <g id="resetDef">
                       <use xlink:href="#rim2" fill="#404040">
                               <set attributeName="fill" to="#808080" begin="reset.mouseover" end="reset.mouseout"/>
                       </use>
               </g>
        </defs>

<script type="text/javascript">
var viewWidth = 1001;
var viewHeight = 266;
var sectionId = 'dynsection-1';
</script>
<script xlink:href="svgpan.js"/>
<svg id="graph" class="graph">
<g id="viewport">
<title>System.Reflection.Emit.SymbolMethod</title>
<!-- Node8 -->
<g id="node1" class="node"><title>Node8</title>
<g id="a_node1"><a xlink:title=" ">
<polygon fill="#bfbfbf" stroke="black" points="838,-105 838,-135 993,-135 993,-105 838,-105"/>
<text text-anchor="start" x="846" y="-123" font-family="Helvetica,sans-Serif" font-size="10.00">System.Reflection.Emit.Symbol</text>
<text text-anchor="middle" x="915.5" y="-112" font-family="Helvetica,sans-Serif" font-size="10.00">Method</text>
</a>
</g>
</g>
<!-- Node9 -->
<g id="node2" class="node"><title>Node9</title>
<g id="a_node2"><a xlink:href="class_system_1_1_reflection_1_1_method_info.html" target="_top" xlink:title="Discovers the attributes of a method and provides access to method metadata.">
<polygon fill="none" stroke="black" points="573.5,-200.5 573.5,-219.5 637.5,-219.5 637.5,-200.5 573.5,-200.5"/>
<text text-anchor="middle" x="605.5" y="-207.5" font-family="Helvetica,sans-Serif" font-size="10.00">MethodInfo</text>
</a>
</g>
</g>
<!-- Node9&#45;&gt;Node8 -->
<g id="edge1" class="edge"><title>Node9&#45;&gt;Node8</title>
<path fill="none" stroke="midnightblue" d="M647.62,-202.534C691.035,-194.152 761.196,-179.176 820,-160 841.341,-153.041 864.567,-143.242 882.653,-135.085"/>
<polygon fill="midnightblue" stroke="midnightblue" points="646.882,-199.112 637.714,-204.422 648.192,-205.988 646.882,-199.112"/>
</g>
<!-- Node10 -->
<g id="node3" class="node"><title>Node10</title>
<g id="a_node3"><a xlink:href="class_system_1_1_reflection_1_1_method_base.html" target="_top" xlink:title="Provides information about methods and constructors.">
<polygon fill="none" stroke="black" points="394.5,-238.5 394.5,-257.5 465.5,-257.5 465.5,-238.5 394.5,-238.5"/>
<text text-anchor="middle" x="430" y="-245.5" font-family="Helvetica,sans-Serif" font-size="10.00">MethodBase</text>
</a>
</g>
</g>
<!-- Node10&#45;&gt;Node9 -->
<g id="edge2" class="edge"><title>Node10&#45;&gt;Node9</title>
<path fill="none" stroke="midnightblue" d="M475.691,-238.212C506.309,-231.506 546.146,-222.781 573.361,-216.82"/>
<polygon fill="midnightblue" stroke="midnightblue" points="474.713,-234.843 465.693,-240.401 476.211,-241.681 474.713,-234.843"/>
</g>
<!-- Node11 -->
<g id="node4" class="node"><title>Node11</title>
<g id="a_node4"><a xlink:href="class_system_1_1_reflection_1_1_member_info.html" target="_top" xlink:title="Obtains information about the attributes of a member and provides access to member metadata.">
<polygon fill="none" stroke="black" points="257,-175.5 257,-194.5 324,-194.5 324,-175.5 257,-175.5"/>
<text text-anchor="middle" x="290.5" y="-182.5" font-family="Helvetica,sans-Serif" font-size="10.00">MemberInfo</text>
</a>
</g>
</g>
<!-- Node11&#45;&gt;Node10 -->
<g id="edge3" class="edge"><title>Node11&#45;&gt;Node10</title>
<path fill="none" stroke="midnightblue" d="M321.804,-198.885C347.912,-210.847 384.924,-227.805 407.92,-238.342"/>
<polygon fill="midnightblue" stroke="midnightblue" points="322.932,-195.552 312.383,-194.568 320.017,-201.916 322.932,-195.552"/>
</g>
<!-- Node16 -->
<g id="node9" class="node"><title>Node16</title>
<g id="a_node9"><a xlink:href="class_system_1_1_type.html" target="_top" xlink:title="Represents type declarations: class types, interface types, array types, value types,...">
<polygon fill="none" stroke="black" points="393,-133.5 393,-152.5 467,-152.5 467,-133.5 393,-133.5"/>
<text text-anchor="middle" x="430" y="-140.5" font-family="Helvetica,sans-Serif" font-size="10.00">System.Type</text>
</a>
</g>
</g>
<!-- Node11&#45;&gt;Node16 -->
<g id="edge9" class="edge"><title>Node11&#45;&gt;Node16</title>
<path fill="none" stroke="midnightblue" d="M332.538,-172.465C353.327,-166.115 378.176,-158.524 397.447,-152.638"/>
<polygon fill="midnightblue" stroke="midnightblue" points="331.242,-169.201 322.701,-175.47 333.287,-175.896 331.242,-169.201"/>
</g>
<!-- Node12 -->
<g id="node5" class="node"><title>Node12</title>
<g id="a_node5"><a xlink:href="interface_system_1_1_reflection_1_1_i_custom_attribute_provider.html" target="_top" xlink:title="Provides custom attributes for reflection objects that support them.">
<polygon fill="none" stroke="black" points="0,-143.5 0,-162.5 124,-162.5 124,-143.5 0,-143.5"/>
<text text-anchor="middle" x="62" y="-150.5" font-family="Helvetica,sans-Serif" font-size="10.00">ICustomAttributeProvider</text>
</a>
</g>
</g>
<!-- Node12&#45;&gt;Node11 -->
<g id="edge4" class="edge"><title>Node12&#45;&gt;Node11</title>
<path fill="none" stroke="midnightblue" d="M134.259,-163.067C175.308,-168.867 224.933,-175.878 256.843,-180.386"/>
<polygon fill="midnightblue" stroke="midnightblue" points="134.685,-159.593 124.294,-161.66 133.706,-166.524 134.685,-159.593"/>
</g>
<!-- Node20 -->
<g id="node13" class="node"><title>Node20</title>
<g id="a_node13"><a xlink:href="class_system_1_1_reflection_1_1_module.html" target="_top" xlink:title="Performs reflection on a module.">
<polygon fill="none" stroke="black" points="225,-40.5 225,-59.5 356,-59.5 356,-40.5 225,-40.5"/>
<text text-anchor="middle" x="290.5" y="-47.5" font-family="Helvetica,sans-Serif" font-size="10.00">System.Reflection.Module</text>
</a>
</g>
</g>
<!-- Node12&#45;&gt;Node20 -->
<g id="edge17" class="edge"><title>Node12&#45;&gt;Node20</title>
<path fill="none" stroke="midnightblue" d="M105.499,-140.407C111.741,-138.371 118.063,-136.205 124,-134 161.694,-120.001 171.314,-116.529 207,-98 215.321,-93.6797 216.933,-91.7775 225,-87 240.995,-77.5273 259.404,-67.0043 272.45,-59.6099"/>
<polygon fill="midnightblue" stroke="midnightblue" points="104.294,-137.117 95.8257,-143.484 106.416,-143.788 104.294,-137.117"/>
</g>
<!-- Node13 -->
<g id="node6" class="node"><title>Node13</title>
<g id="a_node6"><a xlink:href="interface_system_1_1_runtime_1_1_interop_services_1_1___member_info.html" target="_top" xlink:title="Exposes the public members of the T:System.Reflection.MemberInfo class to unmanaged code.">
<polygon fill="none" stroke="black" points="26,-181.5 26,-200.5 98,-200.5 98,-181.5 26,-181.5"/>
<text text-anchor="middle" x="62" y="-188.5" font-family="Helvetica,sans-Serif" font-size="10.00">_MemberInfo</text>
</a>
</g>
</g>
<!-- Node13&#45;&gt;Node11 -->
<g id="edge5" class="edge"><title>Node13&#45;&gt;Node11</title>
<path fill="none" stroke="midnightblue" d="M108.523,-189.794C152.482,-188.63 217.959,-186.895 256.928,-185.863"/>
<polygon fill="midnightblue" stroke="midnightblue" points="108.294,-186.299 98.3906,-190.063 108.48,-193.296 108.294,-186.299"/>
</g>
<!-- Node14 -->
<g id="node7" class="node"><title>Node14</title>
<g id="a_node7"><a xlink:href="interface_system_1_1_runtime_1_1_interop_services_1_1___method_base.html" target="_top" xlink:title="Exposes the public members of the T:System.Reflection.MethodBase class to unmanaged code.">
<polygon fill="none" stroke="black" points="252,-238.5 252,-257.5 329,-257.5 329,-238.5 252,-238.5"/>
<text text-anchor="middle" x="290.5" y="-245.5" font-family="Helvetica,sans-Serif" font-size="10.00">_MethodBase</text>
</a>
</g>
</g>
<!-- Node14&#45;&gt;Node10 -->
<g id="edge6" class="edge"><title>Node14&#45;&gt;Node10</title>
<path fill="none" stroke="midnightblue" d="M339.169,-248C357.3,-248 377.596,-248 394.303,-248"/>
<polygon fill="midnightblue" stroke="midnightblue" points="339.073,-244.5 329.072,-248 339.072,-251.5 339.073,-244.5"/>
</g>
<!-- Node15 -->
<g id="node8" class="node"><title>Node15</title>
<g id="a_node8"><a xlink:href="interface_system_1_1_runtime_1_1_interop_services_1_1___method_info.html" target="_top" xlink:title="Exposes the public members of the T:System.Reflection.MethodInfo class to unmanaged code.">
<polygon fill="none" stroke="black" points="395.5,-200.5 395.5,-219.5 464.5,-219.5 464.5,-200.5 395.5,-200.5"/>
<text text-anchor="middle" x="430" y="-207.5" font-family="Helvetica,sans-Serif" font-size="10.00">_MethodInfo</text>
</a>
</g>
</g>
<!-- Node15&#45;&gt;Node9 -->
<g id="edge7" class="edge"><title>Node15&#45;&gt;Node9</title>
<path fill="none" stroke="midnightblue" d="M474.881,-210C505.597,-210 545.89,-210 573.345,-210"/>
<polygon fill="midnightblue" stroke="midnightblue" points="474.864,-206.5 464.864,-210 474.864,-213.5 474.864,-206.5"/>
</g>
<!-- Node16&#45;&gt;Node8 -->
<g id="edge8" class="edge"><title>Node16&#45;&gt;Node8</title>
<path fill="none" stroke="#9a32cd" stroke-dasharray="5,2" d="M477.445,-141.583C550.414,-139.245 696.351,-134.121 820,-127 825.831,-126.664 831.861,-126.287 837.924,-125.886"/>
<polygon fill="#9a32cd" stroke="#9a32cd" points="477.104,-138.092 467.22,-141.907 477.326,-145.088 477.104,-138.092"/>
<text text-anchor="middle" x="605.5" y="-165" font-family="Helvetica,sans-Serif" font-size="10.00"> ReflectedType</text>
<text text-anchor="middle" x="605.5" y="-154" font-family="Helvetica,sans-Serif" font-size="10.00">DeclaringType</text>
<text text-anchor="middle" x="605.5" y="-143" font-family="Helvetica,sans-Serif" font-size="10.00">ReturnType</text>
</g>
<!-- Node16&#45;&gt;Node16 -->
<g id="edge12" class="edge"><title>Node16&#45;&gt;Node16</title>
<path fill="none" stroke="#9a32cd" stroke-dasharray="5,2" d="M420.056,-162.766C420.837,-167.497 424.151,-171 430,-171 439.598,-171 442.372,-161.565 438.323,-152.757"/>
<polygon fill="#9a32cd" stroke="#9a32cd" points="423.533,-163.188 421.677,-152.757 416.623,-162.069 423.533,-163.188"/>
<text text-anchor="middle" x="430" y="-174" font-family="Helvetica,sans-Serif" font-size="10.00"> EmptyTypes</text>
</g>
<!-- Node17 -->
<g id="node10" class="node"><title>Node17</title>
<g id="a_node10"><a xlink:href="interface_system_1_1_runtime_1_1_interop_services_1_1___type.html" target="_top" xlink:title="Exposes the public members of the T:System.Type class to the unmanaged code.">
<polygon fill="none" stroke="black" points="269,-96.5 269,-115.5 312,-115.5 312,-96.5 269,-96.5"/>
<text text-anchor="middle" x="290.5" y="-103.5" font-family="Helvetica,sans-Serif" font-size="10.00">_Type</text>
</a>
</g>
</g>
<!-- Node17&#45;&gt;Node16 -->
<g id="edge10" class="edge"><title>Node17&#45;&gt;Node16</title>
<path fill="none" stroke="midnightblue" d="M321.847,-114.166C343.022,-119.864 371.354,-127.488 393.566,-133.465"/>
<polygon fill="midnightblue" stroke="midnightblue" points="322.651,-110.758 312.085,-111.539 320.832,-117.518 322.651,-110.758"/>
</g>
<!-- Node18 -->
<g id="node11" class="node"><title>Node18</title>
<g id="a_node11"><a xlink:href="interface_system_1_1_reflection_1_1_i_reflect.html" target="_top" xlink:title="Interoperates with the IDispatch interface.">
<polygon fill="none" stroke="black" points="266,-134.5 266,-153.5 315,-153.5 315,-134.5 266,-134.5"/>
<text text-anchor="middle" x="290.5" y="-141.5" font-family="Helvetica,sans-Serif" font-size="10.00">IReflect</text>
</a>
</g>
</g>
<!-- Node18&#45;&gt;Node16 -->
<g id="edge11" class="edge"><title>Node18&#45;&gt;Node16</title>
<path fill="none" stroke="midnightblue" d="M325.272,-143.754C345.746,-143.605 371.861,-143.416 392.765,-143.264"/>
<polygon fill="midnightblue" stroke="midnightblue" points="325.111,-140.255 315.137,-143.828 325.162,-147.255 325.111,-140.255"/>
</g>
<!-- Node19 -->
<g id="node12" class="node"><title>Node19</title>
<g id="a_node12"><a xlink:href="interface_system_1_1_reflection_1_1_i_custom_attribute_provider.html" target="_top" xlink:title="Provides custom attributes for reflection objects that support them.">
<polygon fill="none" stroke="black" points="538,-79 538,-109 673,-109 673,-79 538,-79"/>
<text text-anchor="start" x="546" y="-97" font-family="Helvetica,sans-Serif" font-size="10.00">System.Reflection.ICustom</text>
<text text-anchor="middle" x="605.5" y="-86" font-family="Helvetica,sans-Serif" font-size="10.00">AttributeProvider</text>
</a>
</g>
</g>
<!-- Node19&#45;&gt;Node8 -->
<g id="edge13" class="edge"><title>Node19&#45;&gt;Node8</title>
<path fill="none" stroke="#9a32cd" stroke-dasharray="5,2" d="M683.485,-100.499C730.607,-104.477 790.684,-109.548 837.761,-113.522"/>
<polygon fill="#9a32cd" stroke="#9a32cd" points="683.59,-96.9953 673.331,-99.6416 683.002,-103.97 683.59,-96.9953"/>
<text text-anchor="middle" x="755.5" y="-115" font-family="Helvetica,sans-Serif" font-size="10.00"> ReturnTypeCustomAttributes</text>
</g>
<!-- Node20&#45;&gt;Node8 -->
<g id="edge14" class="edge"><title>Node20&#45;&gt;Node8</title>
<path fill="none" stroke="#9a32cd" stroke-dasharray="5,2" d="M366.309,-50.5273C443.427,-51.8193 567.017,-55.9765 673,-69 739.095,-77.122 754.895,-84.0039 820,-98 830.128,-100.177 840.844,-102.578 851.281,-104.97"/>
<polygon fill="#9a32cd" stroke="#9a32cd" points="366.262,-47.0263 356.208,-50.3701 366.153,-54.0254 366.262,-47.0263"/>
<text text-anchor="middle" x="502.5" y="-59" font-family="Helvetica,sans-Serif" font-size="10.00"> Module</text>
</g>
<!-- Node21 -->
<g id="node14" class="node"><title>Node21</title>
<g id="a_node14"><a xlink:href="interface_system_1_1_runtime_1_1_interop_services_1_1___module.html" target="_top" xlink:title="Exposes the T:System.Reflection.Module class to unmanaged code.">
<polygon fill="none" stroke="black" points="35.5,-0.5 35.5,-19.5 88.5,-19.5 88.5,-0.5 35.5,-0.5"/>
<text text-anchor="middle" x="62" y="-7.5" font-family="Helvetica,sans-Serif" font-size="10.00">_Module</text>
</a>
</g>
</g>
<!-- Node21&#45;&gt;Node20 -->
<g id="edge15" class="edge"><title>Node21&#45;&gt;Node20</title>
<path fill="none" stroke="midnightblue" d="M98.763,-16.3158C135.452,-22.795 192.985,-32.9555 235.277,-40.4242"/>
<polygon fill="midnightblue" stroke="midnightblue" points="98.9985,-12.8033 88.5421,-14.5108 97.7811,-19.6966 98.9985,-12.8033"/>
</g>
<!-- Node22 -->
<g id="node15" class="node"><title>Node22</title>
<g id="a_node15"><a xlink:href="interface_system_1_1_runtime_1_1_serialization_1_1_i_serializable.html" target="_top" xlink:title="Allows an object to control its own serialization and deserialization.">
<polygon fill="none" stroke="black" points="27.5,-105.5 27.5,-124.5 96.5,-124.5 96.5,-105.5 27.5,-105.5"/>
<text text-anchor="middle" x="62" y="-112.5" font-family="Helvetica,sans-Serif" font-size="10.00">ISerializable</text>
</a>
</g>
</g>
<!-- Node22&#45;&gt;Node20 -->
<g id="edge16" class="edge"><title>Node22&#45;&gt;Node20</title>
<path fill="none" stroke="midnightblue" d="M106.196,-102.604C149.915,-90.0574 216.572,-70.9285 256.311,-59.5244"/>
<polygon fill="midnightblue" stroke="midnightblue" points="105.067,-99.2863 96.4209,-105.409 106.998,-106.015 105.067,-99.2863"/>
</g>
<!-- Node23 -->
<g id="node16" class="node"><title>Node23</title>
<g id="a_node16"><a xlink:href="struct_system_1_1_module_handle.html" target="_top" xlink:title="Represents a runtime handle for a module.">
<polygon fill="none" stroke="black" points="4.5,-38.5 4.5,-57.5 119.5,-57.5 119.5,-38.5 4.5,-38.5"/>
<text text-anchor="middle" x="62" y="-45.5" font-family="Helvetica,sans-Serif" font-size="10.00">System.ModuleHandle</text>
</a>
</g>
</g>
<!-- Node23&#45;&gt;Node20 -->
<g id="edge18" class="edge"><title>Node23&#45;&gt;Node20</title>
<path fill="none" stroke="#9a32cd" stroke-dasharray="5,2" d="M129.941,-48.5911C159.923,-48.8558 195.137,-49.1668 224.845,-49.4291"/>
<polygon fill="#9a32cd" stroke="#9a32cd" points="129.602,-45.0881 119.571,-48.4995 129.54,-52.0878 129.602,-45.0881"/>
<text text-anchor="middle" x="174.5" y="-53" font-family="Helvetica,sans-Serif" font-size="10.00"> ModuleHandle</text>
</g>
<!-- Node23&#45;&gt;Node23 -->
<g id="edge19" class="edge"><title>Node23&#45;&gt;Node23</title>
<path fill="none" stroke="#9a32cd" stroke-dasharray="5,2" d="M41.2603,-67.4C42.6454,-72.3146 49.5586,-76 62,-76 81.9063,-76 87.6604,-66.5653 79.2625,-57.7571"/>
<polygon fill="#9a32cd" stroke="#9a32cd" points="44.6378,-68.3514 44.7375,-57.7571 38.0528,-65.9768 44.6378,-68.3514"/>
<text text-anchor="middle" x="62" y="-79" font-family="Helvetica,sans-Serif" font-size="10.00"> EmptyHandle</text>
</g>
</g>
</svg>
        <g id="navigator" transform="translate(0 0)" fill="#404254">
                <rect fill="#f2f5e9" fill-opacity="0.5" stroke="#606060" stroke-width=".5" x="0" y="0" width="60" height="60"/>
                <use id="zoomplus" xlink:href="#zoomPlus" x="17" y="9" onmousedown="handleZoom(evt,'in')"/>
                <use id="zoomminus" xlink:href="#zoomMin" x="42" y="9" onmousedown="handleZoom(evt,'out')"/>
                <use id="reset" xlink:href="#resetDef" x="30" y="36" onmousedown="handleReset()"/>
                <g id="arrowUp" xlink:href="#dirArrow" transform="translate(30 24)" onmousedown="handlePan(0,-1)">
                  <use xlink:href="#rim" fill="#404040">
                        <set attributeName="fill" to="#808080" begin="arrowUp.mouseover" end="arrowUp.mouseout"/>
                  </use>
                  <path fill="none" stroke="white" stroke-width="1.5" d="M0,-3.0v7 M-2.5,-0.5L0,-3.0L2.5,-0.5"/>
                </g>
                <g id="arrowRight" xlink:href="#dirArrow" transform="rotate(90) translate(36 -43)" onmousedown="handlePan(1,0)">
                  <use xlink:href="#rim" fill="#404040">
                        <set attributeName="fill" to="#808080" begin="arrowRight.mouseover" end="arrowRight.mouseout"/>
                  </use>
                  <path fill="none" stroke="white" stroke-width="1.5" d="M0,-3.0v7 M-2.5,-0.5L0,-3.0L2.5,-0.5"/>
                </g>
                <g id="arrowDown" xlink:href="#dirArrow" transform="rotate(180) translate(-30 -48)" onmousedown="handlePan(0,1)">
                  <use xlink:href="#rim" fill="#404040">
                        <set attributeName="fill" to="#808080" begin="arrowDown.mouseover" end="arrowDown.mouseout"/>
                  </use>
                  <path fill="none" stroke="white" stroke-width="1.5" d="M0,-3.0v7 M-2.5,-0.5L0,-3.0L2.5,-0.5"/>
                </g>
                <g id="arrowLeft" xlink:href="#dirArrow" transform="rotate(270) translate(-36 17)" onmousedown="handlePan(-1,0)">
                  <use xlink:href="#rim" fill="#404040">
                        <set attributeName="fill" to="#808080" begin="arrowLeft.mouseover" end="arrowLeft.mouseout"/>
                  </use>
                  <path fill="none" stroke="white" stroke-width="1.5" d="M0,-3.0v7 M-2.5,-0.5L0,-3.0L2.5,-0.5"/>
                </g>
        </g>
        <svg viewBox="0 0 15 15" width="100%" height="30px" preserveAspectRatio="xMaxYMin meet">
         <g id="arrow_out" transform="scale(0.3 0.3)">
          <a xlink:href="class_system_1_1_reflection_1_1_emit_1_1_symbol_method__coll__graph_org.svg" target="_base">
           <rect id="button" ry="5" rx="5" y="6" x="6" height="38" width="38"
                fill="#f2f5e9" fill-opacity="0.5" stroke="#606060" stroke-width="1.0"/>
           <path id="arrow"
             d="M 11.500037,31.436501 C 11.940474,20.09759 22.043105,11.32322 32.158766,21.979434 L 37.068811,17.246167 C 37.068811,17.246167 37.088388,32 37.088388,32 L 22.160133,31.978069 C 22.160133,31.978069 26.997745,27.140456 26.997745,27.140456 C 18.528582,18.264221 13.291696,25.230495 11.500037,31.436501 z"
             style="fill:#404040;"/>
          </a>
         </g>
        </svg>
</svg>
