<?xml version="1.0" encoding="UTF-8" standalone="no"?>
<!DOCTYPE svg PUBLIC "-//W3C//DTD SVG 1.1//EN"
 "http://www.w3.org/Graphics/SVG/1.1/DTD/svg11.dtd">
<!-- Generated by graphviz version 2.38.0 (20140413.2041)
 -->
<!-- Title: System.Net.Sockets.SocketAsyncEventArgs Pages: 1 -->
<svg width="154pt" height="95pt"
 viewBox="0.00 0.00 154.00 95.00" xmlns="http://www.w3.org/2000/svg" xmlns:xlink="http://www.w3.org/1999/xlink">
<g id="graph0" class="graph" transform="scale(1 1) rotate(0) translate(4 91)">
<title>System.Net.Sockets.SocketAsyncEventArgs</title>
<!-- Node0 -->
<g id="node1" class="node"><title>Node0</title>
<g id="a_node1"><a xlink:title="Represents an asynchronous socket operation.">
<polygon fill="#bfbfbf" stroke="black" points="1,-0.5 1,-30.5 142,-30.5 142,-0.5 1,-0.5"/>
<text text-anchor="start" x="9" y="-18.5" font-family="Helvetica,sans-Serif" font-size="10.00">System.Net.Sockets.Socket</text>
<text text-anchor="middle" x="71.5" y="-7.5" font-family="Helvetica,sans-Serif" font-size="10.00">AsyncEventArgs</text>
</a>
</g>
</g>
<!-- Node1 -->
<g id="node2" class="node"><title>Node1</title>
<g id="a_node2"><a xlink:href="class_system_1_1_event_args.html" target="_top" xlink:title="Represents the base class for classes that contain event data, and provides a value to use for events...">
<polygon fill="none" stroke="black" points="0,-67.5 0,-86.5 61,-86.5 61,-67.5 0,-67.5"/>
<text text-anchor="middle" x="30.5" y="-74.5" font-family="Helvetica,sans-Serif" font-size="10.00">EventArgs</text>
</a>
</g>
</g>
<!-- Node1&#45;&gt;Node0 -->
<g id="edge1" class="edge"><title>Node1&#45;&gt;Node0</title>
<path fill="none" stroke="midnightblue" d="M42.2395,-58.9634C48.446,-49.9564 55.9721,-39.0344 61.8371,-30.523"/>
<polygon fill="midnightblue" stroke="midnightblue" points="39.1664,-57.2548 36.3743,-67.4751 44.9305,-61.2267 39.1664,-57.2548"/>
</g>
<!-- Node2 -->
<g id="node3" class="node"><title>Node2</title>
<g id="a_node3"><a xlink:href="interface_system_1_1_i_disposable.html" target="_top" xlink:title="Provides a mechanism for releasing unmanaged resources.To browse the .NET Framework source code for t...">
<polygon fill="none" stroke="black" points="79,-67.5 79,-86.5 146,-86.5 146,-67.5 79,-67.5"/>
<text text-anchor="middle" x="112.5" y="-74.5" font-family="Helvetica,sans-Serif" font-size="10.00">IDisposable</text>
</a>
</g>
</g>
<!-- Node2&#45;&gt;Node0 -->
<g id="edge2" class="edge"><title>Node2&#45;&gt;Node0</title>
<path fill="none" stroke="midnightblue" d="M100.76,-58.9634C94.554,-49.9564 87.0279,-39.0344 81.1629,-30.523"/>
<polygon fill="midnightblue" stroke="midnightblue" points="98.0695,-61.2267 106.626,-67.4751 103.834,-57.2548 98.0695,-61.2267"/>
</g>
</g>
</svg>
