<?xml version="1.0" encoding="UTF-8" standalone="no"?>
<!DOCTYPE svg PUBLIC "-//W3C//DTD SVG 1.1//EN"
 "http://www.w3.org/Graphics/SVG/1.1/DTD/svg11.dtd">
<!-- Generated by graphviz version 2.38.0 (20140413.2041)
 -->
<!-- Title: System.Runtime.Remoting.Messaging.MethodCall Pages: 1 -->
<svg width="258pt" height="274pt"
 viewBox="0.00 0.00 257.96 274.00" xmlns="http://www.w3.org/2000/svg" xmlns:xlink="http://www.w3.org/1999/xlink">
<g id="graph0" class="graph" transform="scale(1 1) rotate(0) translate(4 270)">
<title>System.Runtime.Remoting.Messaging.MethodCall</title>
<!-- Node0 -->
<g id="node1" class="node"><title>Node0</title>
<g id="a_node1"><a xlink:title="Implements the T:System.Runtime.Remoting.Messaging.IMethodCallMessage interface to create a request m...">
<polygon fill="#bfbfbf" stroke="black" points="42.961,-67.5 42.961,-97.5 179.961,-97.5 179.961,-67.5 42.961,-67.5"/>
<text text-anchor="start" x="50.961" y="-85.5" font-family="Helvetica,sans-Serif" font-size="10.00">System.Runtime.Remoting.</text>
<text text-anchor="middle" x="111.461" y="-74.5" font-family="Helvetica,sans-Serif" font-size="10.00">Messaging.MethodCall</text>
</a>
</g>
</g>
<!-- Node5 -->
<g id="node6" class="node"><title>Node5</title>
<g id="a_node6"><a xlink:href="class_system_1_1_runtime_1_1_remoting_1_1_messaging_1_1_construction_call.html" target="_top" xlink:title="Implements the T:System.Runtime.Remoting.Activation.IConstructionCallMessage interface to create a re...">
<polygon fill="none" stroke="black" points="42.461,-0.5 42.461,-30.5 180.461,-30.5 180.461,-0.5 42.461,-0.5"/>
<text text-anchor="start" x="50.461" y="-18.5" font-family="Helvetica,sans-Serif" font-size="10.00">System.Runtime.Remoting.</text>
<text text-anchor="middle" x="111.461" y="-7.5" font-family="Helvetica,sans-Serif" font-size="10.00">Messaging.ConstructionCall</text>
</a>
</g>
</g>
<!-- Node0&#45;&gt;Node5 -->
<g id="edge8" class="edge"><title>Node0&#45;&gt;Node5</title>
<path fill="none" stroke="midnightblue" d="M111.461,-57.1081C111.461,-48.1539 111.461,-38.3227 111.461,-30.5765"/>
<polygon fill="midnightblue" stroke="midnightblue" points="107.961,-57.3959 111.461,-67.396 114.961,-57.396 107.961,-57.3959"/>
</g>
<!-- Node1 -->
<g id="node2" class="node"><title>Node1</title>
<g id="a_node2"><a xlink:href="interface_system_1_1_runtime_1_1_remoting_1_1_messaging_1_1_i_method_call_message.html" target="_top" xlink:title="Defines the method call message interface.">
<polygon fill="none" stroke="black" points="16.961,-134.5 16.961,-153.5 123.961,-153.5 123.961,-134.5 16.961,-134.5"/>
<text text-anchor="middle" x="70.461" y="-141.5" font-family="Helvetica,sans-Serif" font-size="10.00">IMethodCallMessage</text>
</a>
</g>
</g>
<!-- Node1&#45;&gt;Node0 -->
<g id="edge1" class="edge"><title>Node1&#45;&gt;Node0</title>
<path fill="none" stroke="midnightblue" d="M82.2005,-125.963C88.407,-116.956 95.9331,-106.034 101.798,-97.523"/>
<polygon fill="midnightblue" stroke="midnightblue" points="79.1274,-124.255 76.3353,-134.475 84.8915,-128.227 79.1274,-124.255"/>
</g>
<!-- Node2 -->
<g id="node3" class="node"><title>Node2</title>
<g id="a_node3"><a xlink:href="interface_system_1_1_runtime_1_1_remoting_1_1_messaging_1_1_i_method_message.html" target="_top" xlink:title="Defines the method message interface.">
<polygon fill="none" stroke="black" points="76.961,-190.5 76.961,-209.5 167.961,-209.5 167.961,-190.5 76.961,-190.5"/>
<text text-anchor="middle" x="122.461" y="-197.5" font-family="Helvetica,sans-Serif" font-size="10.00">IMethodMessage</text>
</a>
</g>
</g>
<!-- Node2&#45;&gt;Node0 -->
<g id="edge5" class="edge"><title>Node2&#45;&gt;Node0</title>
<path fill="none" stroke="midnightblue" d="M128.76,-180.449C132.35,-167.405 135.569,-149.57 132.461,-134 129.896,-121.15 123.994,-107.479 119.098,-97.6067"/>
<polygon fill="midnightblue" stroke="midnightblue" points="125.379,-179.538 125.788,-190.125 132.07,-181.593 125.379,-179.538"/>
</g>
<!-- Node2&#45;&gt;Node1 -->
<g id="edge2" class="edge"><title>Node2&#45;&gt;Node1</title>
<path fill="none" stroke="midnightblue" d="M106.782,-182.718C97.6163,-173.2 86.4084,-161.561 78.888,-153.751"/>
<polygon fill="midnightblue" stroke="midnightblue" points="104.417,-185.308 113.874,-190.083 109.459,-180.452 104.417,-185.308"/>
</g>
<!-- Node3 -->
<g id="node4" class="node"><title>Node3</title>
<g id="a_node4"><a xlink:href="interface_system_1_1_runtime_1_1_remoting_1_1_messaging_1_1_i_message.html" target="_top" xlink:title="Contains communication data sent between cooperating message sinks.">
<polygon fill="none" stroke="black" points="18.961,-246.5 18.961,-265.5 77.961,-265.5 77.961,-246.5 18.961,-246.5"/>
<text text-anchor="middle" x="48.461" y="-253.5" font-family="Helvetica,sans-Serif" font-size="10.00">IMessage</text>
</a>
</g>
</g>
<!-- Node3&#45;&gt;Node0 -->
<g id="edge6" class="edge"><title>Node3&#45;&gt;Node0</title>
<path fill="none" stroke="midnightblue" d="M34.4162,-238.609C15.4082,-214.321 -13.8189,-167.989 7.46099,-134 18.2719,-116.732 36.8589,-105.219 55.3563,-97.6111"/>
<polygon fill="midnightblue" stroke="midnightblue" points="31.8135,-240.955 40.8443,-246.496 37.2397,-236.533 31.8135,-240.955"/>
</g>
<!-- Node3&#45;&gt;Node1 -->
<g id="edge4" class="edge"><title>Node3&#45;&gt;Node1</title>
<path fill="none" stroke="midnightblue" d="M52.1914,-236.348C57.0102,-212.254 65.1994,-171.308 68.7427,-153.591"/>
<polygon fill="midnightblue" stroke="midnightblue" points="48.7165,-235.876 50.1873,-246.368 55.5806,-237.249 48.7165,-235.876"/>
</g>
<!-- Node3&#45;&gt;Node2 -->
<g id="edge3" class="edge"><title>Node3&#45;&gt;Node2</title>
<path fill="none" stroke="midnightblue" d="M68.4953,-240.38C81.8701,-230.62 99.0198,-218.106 110.355,-209.834"/>
<polygon fill="midnightblue" stroke="midnightblue" points="66.3651,-237.602 60.3504,-246.324 70.4915,-243.257 66.3651,-237.602"/>
</g>
<!-- Node4 -->
<g id="node5" class="node"><title>Node4</title>
<g id="a_node5"><a xlink:href="interface_system_1_1_runtime_1_1_serialization_1_1_i_serializable.html" target="_top" xlink:title="Allows an object to control its own serialization and deserialization.">
<polygon fill="none" stroke="black" points="180.961,-134.5 180.961,-153.5 249.961,-153.5 249.961,-134.5 180.961,-134.5"/>
<text text-anchor="middle" x="215.461" y="-141.5" font-family="Helvetica,sans-Serif" font-size="10.00">ISerializable</text>
</a>
</g>
</g>
<!-- Node4&#45;&gt;Node0 -->
<g id="edge7" class="edge"><title>Node4&#45;&gt;Node0</title>
<path fill="none" stroke="midnightblue" d="M191.473,-129.276C174.829,-119.754 152.728,-107.11 135.972,-97.523"/>
<polygon fill="midnightblue" stroke="midnightblue" points="190.142,-132.547 200.56,-134.475 193.619,-126.471 190.142,-132.547"/>
</g>
</g>
</svg>
