<?xml version="1.0" encoding="UTF-8" standalone="no"?>
<!DOCTYPE svg PUBLIC "-//W3C//DTD SVG 1.1//EN"
 "http://www.w3.org/Graphics/SVG/1.1/DTD/svg11.dtd">
<!-- Generated by graphviz version 2.38.0 (20140413.2041)
 -->
<!-- Title: System.Runtime.InteropServices.SafeHandle Pages: 1 -->
<svg width="341pt" height="163pt"
 viewBox="0.00 0.00 340.50 163.00" xmlns="http://www.w3.org/2000/svg" xmlns:xlink="http://www.w3.org/1999/xlink">
<g id="graph0" class="graph" transform="scale(1 1) rotate(0) translate(4 159)">
<title>System.Runtime.InteropServices.SafeHandle</title>
<!-- Node36 -->
<g id="node1" class="node"><title>Node36</title>
<g id="a_node1"><a xlink:title="Represents a wrapper class for operating system handles. This class must be inherited.">
<polygon fill="#bfbfbf" stroke="black" points="83.5,-0.5 83.5,-30.5 244.5,-30.5 244.5,-0.5 83.5,-0.5"/>
<text text-anchor="start" x="91.5" y="-18.5" font-family="Helvetica,sans-Serif" font-size="10.00">System.Runtime.InteropServices.</text>
<text text-anchor="middle" x="164" y="-7.5" font-family="Helvetica,sans-Serif" font-size="10.00">SafeHandle</text>
</a>
</g>
</g>
<!-- Node37 -->
<g id="node2" class="node"><title>Node37</title>
<g id="a_node2"><a xlink:href="class_system_1_1_runtime_1_1_constrained_execution_1_1_critical_finalizer_object.html" target="_top" xlink:title="Ensures that all finalization code in derived classes is marked as critical.">
<polygon fill="none" stroke="black" points="0,-78.5 0,-97.5 112,-97.5 112,-78.5 0,-78.5"/>
<text text-anchor="middle" x="56" y="-85.5" font-family="Helvetica,sans-Serif" font-size="10.00">CriticalFinalizerObject</text>
</a>
</g>
</g>
<!-- Node37&#45;&gt;Node36 -->
<g id="edge1" class="edge"><title>Node37&#45;&gt;Node36</title>
<path fill="none" stroke="midnightblue" d="M77.7503,-72.8019C96.579,-60.5109 123.663,-42.8312 142.437,-30.5762"/>
<polygon fill="midnightblue" stroke="midnightblue" points="75.7035,-69.9582 69.2429,-78.3553 79.5299,-75.8199 75.7035,-69.9582"/>
</g>
<!-- Node38 -->
<g id="node3" class="node"><title>Node38</title>
<g id="a_node3"><a xlink:href="interface_system_1_1_i_disposable.html" target="_top" xlink:title="Provides a mechanism for releasing unmanaged resources.To browse the .NET Framework source code for t...">
<polygon fill="none" stroke="black" points="130.5,-78.5 130.5,-97.5 197.5,-97.5 197.5,-78.5 130.5,-78.5"/>
<text text-anchor="middle" x="164" y="-85.5" font-family="Helvetica,sans-Serif" font-size="10.00">IDisposable</text>
</a>
</g>
</g>
<!-- Node38&#45;&gt;Node36 -->
<g id="edge2" class="edge"><title>Node38&#45;&gt;Node36</title>
<path fill="none" stroke="midnightblue" d="M164,-68.2362C164,-56.4079 164,-41.3829 164,-30.5762"/>
<polygon fill="midnightblue" stroke="midnightblue" points="160.5,-68.3553 164,-78.3553 167.5,-68.3554 160.5,-68.3553"/>
</g>
<!-- Node39 -->
<g id="node4" class="node"><title>Node39</title>
<g id="a_node4"><a xlink:href="struct_system_1_1_int_ptr.html" target="_top" xlink:title="A platform&#45;specific type that is used to represent a pointer or a handle.">
<polygon fill="none" stroke="black" points="215.5,-78.5 215.5,-97.5 292.5,-97.5 292.5,-78.5 215.5,-78.5"/>
<text text-anchor="middle" x="254" y="-85.5" font-family="Helvetica,sans-Serif" font-size="10.00">System.IntPtr</text>
</a>
</g>
</g>
<!-- Node39&#45;&gt;Node36 -->
<g id="edge3" class="edge"><title>Node39&#45;&gt;Node36</title>
<path fill="none" stroke="#9a32cd" stroke-dasharray="5,2" d="M235.012,-72.1262C219.366,-59.8698 197.33,-42.6084 181.97,-30.5762"/>
<polygon fill="#9a32cd" stroke="#9a32cd" points="232.934,-74.944 242.964,-78.3553 237.25,-69.4334 232.934,-74.944"/>
<text text-anchor="middle" x="233" y="-52" font-family="Helvetica,sans-Serif" font-size="10.00"> handle</text>
</g>
<!-- Node39&#45;&gt;Node39 -->
<g id="edge5" class="edge"><title>Node39&#45;&gt;Node39</title>
<path fill="none" stroke="#9a32cd" stroke-dasharray="5,2" d="M302.72,-92.263C307.479,-91.4034 310.5,-89.9824 310.5,-88 310.5,-84.8281 302.766,-83.0935 292.555,-82.7961"/>
<polygon fill="#9a32cd" stroke="#9a32cd" points="302.19,-88.797 292.555,-93.2039 302.835,-95.7672 302.19,-88.797"/>
<text text-anchor="middle" x="321.5" y="-85.5" font-family="Helvetica,sans-Serif" font-size="10.00"> Zero</text>
</g>
<!-- Node40 -->
<g id="node5" class="node"><title>Node40</title>
<g id="a_node5"><a xlink:href="interface_system_1_1_runtime_1_1_serialization_1_1_i_serializable.html" target="_top" xlink:title="Allows an object to control its own serialization and deserialization.">
<polygon fill="none" stroke="black" points="219.5,-135.5 219.5,-154.5 288.5,-154.5 288.5,-135.5 219.5,-135.5"/>
<text text-anchor="middle" x="254" y="-142.5" font-family="Helvetica,sans-Serif" font-size="10.00">ISerializable</text>
</a>
</g>
</g>
<!-- Node40&#45;&gt;Node39 -->
<g id="edge4" class="edge"><title>Node40&#45;&gt;Node39</title>
<path fill="none" stroke="midnightblue" d="M254,-125.117C254,-115.817 254,-105.056 254,-97.7149"/>
<polygon fill="midnightblue" stroke="midnightblue" points="250.5,-125.406 254,-135.406 257.5,-125.406 250.5,-125.406"/>
</g>
</g>
</svg>
