<?xml version="1.0" encoding="UTF-8" standalone="no"?>
<!DOCTYPE svg PUBLIC "-//W3C//DTD SVG 1.1//EN"
 "http://www.w3.org/Graphics/SVG/1.1/DTD/svg11.dtd">
<!-- Generated by graphviz version 2.38.0 (20140413.2041)
 -->
<!-- Title: System.Runtime.Remoting.Contexts.ContextAttribute Pages: 1 -->
<svg width="275pt" height="95pt"
 viewBox="0.00 0.00 275.00 95.00" xmlns="http://www.w3.org/2000/svg" xmlns:xlink="http://www.w3.org/1999/xlink">
<g id="graph0" class="graph" transform="scale(1 1) rotate(0) translate(4 91)">
<title>System.Runtime.Remoting.Contexts.ContextAttribute</title>
<!-- Node7 -->
<g id="node1" class="node"><title>Node7</title>
<g id="a_node1"><a xlink:title="Provides the default implementations of the T:System.Runtime.Remoting.Contexts.IContextAttribute and ...">
<polygon fill="#bfbfbf" stroke="black" points="47,-0.5 47,-30.5 184,-30.5 184,-0.5 47,-0.5"/>
<text text-anchor="start" x="55" y="-18.5" font-family="Helvetica,sans-Serif" font-size="10.00">System.Runtime.Remoting.</text>
<text text-anchor="middle" x="115.5" y="-7.5" font-family="Helvetica,sans-Serif" font-size="10.00">Contexts.ContextAttribute</text>
</a>
</g>
</g>
<!-- Node8 -->
<g id="node2" class="node"><title>Node8</title>
<g id="a_node2"><a xlink:href="class_system_1_1_attribute.html" target="_top" xlink:title="Represents the base class for custom attributes.">
<polygon fill="none" stroke="red" points="0,-67.5 0,-86.5 53,-86.5 53,-67.5 0,-67.5"/>
<text text-anchor="middle" x="26.5" y="-74.5" font-family="Helvetica,sans-Serif" font-size="10.00">Attribute</text>
</a>
</g>
</g>
<!-- Node8&#45;&gt;Node7 -->
<g id="edge1" class="edge"><title>Node8&#45;&gt;Node7</title>
<path fill="none" stroke="midnightblue" d="M47.8316,-61.739C61.9767,-52.2824 80.4529,-39.9304 94.5245,-30.523"/>
<polygon fill="midnightblue" stroke="midnightblue" points="45.6196,-59.0076 39.2515,-67.4751 49.5101,-64.8269 45.6196,-59.0076"/>
</g>
<!-- Node10 -->
<g id="node3" class="node"><title>Node10</title>
<g id="a_node3"><a xlink:href="interface_system_1_1_runtime_1_1_remoting_1_1_contexts_1_1_i_context_attribute.html" target="_top" xlink:title="Identifies a context attribute.">
<polygon fill="none" stroke="black" points="71,-67.5 71,-86.5 160,-86.5 160,-67.5 71,-67.5"/>
<text text-anchor="middle" x="115.5" y="-74.5" font-family="Helvetica,sans-Serif" font-size="10.00">IContextAttribute</text>
</a>
</g>
</g>
<!-- Node10&#45;&gt;Node7 -->
<g id="edge2" class="edge"><title>Node10&#45;&gt;Node7</title>
<path fill="none" stroke="midnightblue" d="M115.5,-57.2349C115.5,-48.5864 115.5,-38.4969 115.5,-30.523"/>
<polygon fill="midnightblue" stroke="midnightblue" points="112,-57.4751 115.5,-67.4751 119,-57.4751 112,-57.4751"/>
</g>
<!-- Node11 -->
<g id="node4" class="node"><title>Node11</title>
<g id="a_node4"><a xlink:href="interface_system_1_1_runtime_1_1_remoting_1_1_contexts_1_1_i_context_property.html" target="_top" xlink:title="Gathers naming information from the context property and determines whether the new context is ok for...">
<polygon fill="none" stroke="black" points="178,-67.5 178,-86.5 267,-86.5 267,-67.5 178,-67.5"/>
<text text-anchor="middle" x="222.5" y="-74.5" font-family="Helvetica,sans-Serif" font-size="10.00">IContextProperty</text>
</a>
</g>
</g>
<!-- Node11&#45;&gt;Node7 -->
<g id="edge3" class="edge"><title>Node11&#45;&gt;Node7</title>
<path fill="none" stroke="midnightblue" d="M198.299,-62.5423C181.122,-52.9907 158.119,-40.1992 140.718,-30.523"/>
<polygon fill="midnightblue" stroke="midnightblue" points="196.729,-65.674 207.17,-67.4751 200.131,-59.5563 196.729,-65.674"/>
</g>
</g>
</svg>
