<?xml version="1.0" encoding="UTF-8" standalone="no"?>
<!DOCTYPE svg PUBLIC "-//W3C//DTD SVG 1.1//EN"
 "http://www.w3.org/Graphics/SVG/1.1/DTD/svg11.dtd">
<!-- Generated by graphviz version 2.38.0 (20140413.2041)
 -->
<!-- Title: System.Runtime.Remoting.Channels.ClientChannelSinkStack Pages: 1 -->
<svg width="198pt" height="162pt"
 viewBox="0.00 0.00 197.50 162.00" xmlns="http://www.w3.org/2000/svg" xmlns:xlink="http://www.w3.org/1999/xlink">
<g id="graph0" class="graph" transform="scale(1 1) rotate(0) translate(4 158)">
<title>System.Runtime.Remoting.Channels.ClientChannelSinkStack</title>
<!-- Node3 -->
<g id="node1" class="node"><title>Node3</title>
<g id="a_node1"><a xlink:title="Holds the stack of client channel sinks that must be invoked during an asynchronous message response ...">
<polygon fill="#bfbfbf" stroke="black" points="0,-0.5 0,-30.5 165,-30.5 165,-0.5 0,-0.5"/>
<text text-anchor="start" x="8" y="-18.5" font-family="Helvetica,sans-Serif" font-size="10.00">System.Runtime.Remoting.</text>
<text text-anchor="middle" x="82.5" y="-7.5" font-family="Helvetica,sans-Serif" font-size="10.00">Channels.ClientChannelSinkStack</text>
</a>
</g>
</g>
<!-- Node4 -->
<g id="node2" class="node"><title>Node4</title>
<g id="a_node2"><a xlink:href="interface_system_1_1_runtime_1_1_remoting_1_1_channels_1_1_i_client_channel_sink_stack.html" target="_top" xlink:title="Provides functionality for a stack of client channel sinks that must be invoked during an asynchronou...">
<polygon fill="none" stroke="black" points="65.5,-67.5 65.5,-86.5 189.5,-86.5 189.5,-67.5 65.5,-67.5"/>
<text text-anchor="middle" x="127.5" y="-74.5" font-family="Helvetica,sans-Serif" font-size="10.00">IClientChannelSinkStack</text>
</a>
</g>
</g>
<!-- Node4&#45;&gt;Node3 -->
<g id="edge1" class="edge"><title>Node4&#45;&gt;Node3</title>
<path fill="none" stroke="midnightblue" d="M114.83,-59.2472C107.977,-50.1866 99.6106,-39.124 93.1056,-30.523"/>
<polygon fill="midnightblue" stroke="midnightblue" points="112.229,-61.6105 121.053,-67.4751 117.812,-57.388 112.229,-61.6105"/>
</g>
<!-- Node5 -->
<g id="node3" class="node"><title>Node5</title>
<g id="a_node3"><a xlink:href="interface_system_1_1_runtime_1_1_remoting_1_1_channels_1_1_i_client_response_channel_sink_stack.html" target="_top" xlink:title="Provides the stack functionality for a stack of client response channel sinks that must be invoked du...">
<polygon fill="none" stroke="black" points="11.5,-123.5 11.5,-153.5 153.5,-153.5 153.5,-123.5 11.5,-123.5"/>
<text text-anchor="start" x="19.5" y="-141.5" font-family="Helvetica,sans-Serif" font-size="10.00">IClientResponseChannelSink</text>
<text text-anchor="middle" x="82.5" y="-130.5" font-family="Helvetica,sans-Serif" font-size="10.00">Stack</text>
</a>
</g>
</g>
<!-- Node5&#45;&gt;Node3 -->
<g id="edge3" class="edge"><title>Node5&#45;&gt;Node3</title>
<path fill="none" stroke="midnightblue" d="M66.7593,-114.798C59.1892,-101.181 52.5312,-83.379 56.5,-67 59.6583,-53.9661 66.7988,-40.5282 72.799,-30.7942"/>
<polygon fill="midnightblue" stroke="midnightblue" points="63.8499,-116.75 72.0264,-123.488 69.8361,-113.122 63.8499,-116.75"/>
</g>
<!-- Node5&#45;&gt;Node4 -->
<g id="edge2" class="edge"><title>Node5&#45;&gt;Node4</title>
<path fill="none" stroke="midnightblue" d="M99.2111,-115.404C106.769,-105.411 115.262,-94.1815 120.952,-86.6578"/>
<polygon fill="midnightblue" stroke="midnightblue" points="96.405,-113.312 93.1644,-123.399 101.988,-117.535 96.405,-113.312"/>
</g>
</g>
</svg>
