<?xml version="1.0" encoding="UTF-8" standalone="no"?>
<!DOCTYPE svg PUBLIC "-//W3C//DTD SVG 1.1//EN"
 "http://www.w3.org/Graphics/SVG/1.1/DTD/svg11.dtd">
<!-- Generated by graphviz version 2.38.0 (20140413.2041)
 -->
<!-- Title: System.Net.WebResponse Pages: 1 -->
<svg width="497pt" height="140pt"
 viewBox="0.00 0.00 497.00 140.00" xmlns="http://www.w3.org/2000/svg" xmlns:xlink="http://www.w3.org/1999/xlink">
<g id="graph0" class="graph" transform="scale(1 1) rotate(0) translate(4 136)">
<title>System.Net.WebResponse</title>
<!-- Node0 -->
<g id="node1" class="node"><title>Node0</title>
<g id="a_node1"><a xlink:title="Provides a response from a Uniform Resource Identifier (URI). This is an abstract class.">
<polygon fill="#bfbfbf" stroke="black" points="176,-56.5 176,-75.5 311,-75.5 311,-56.5 176,-56.5"/>
<text text-anchor="middle" x="243.5" y="-63.5" font-family="Helvetica,sans-Serif" font-size="10.00">System.Net.WebResponse</text>
</a>
</g>
</g>
<!-- Node4 -->
<g id="node5" class="node"><title>Node4</title>
<g id="a_node5"><a xlink:href="class_system_1_1_net_1_1_file_web_response.html" target="_top" xlink:title="Provides a file system implementation of the T:System.Net.WebResponse class.">
<polygon fill="none" stroke="black" points="0,-0.5 0,-19.5 151,-19.5 151,-0.5 0,-0.5"/>
<text text-anchor="middle" x="75.5" y="-7.5" font-family="Helvetica,sans-Serif" font-size="10.00">System.Net.FileWebResponse</text>
</a>
</g>
</g>
<!-- Node0&#45;&gt;Node4 -->
<g id="edge4" class="edge"><title>Node0&#45;&gt;Node4</title>
<path fill="none" stroke="midnightblue" d="M207.114,-53.3044C175.458,-43.1294 130.332,-28.6246 101.996,-19.5164"/>
<polygon fill="midnightblue" stroke="midnightblue" points="206.289,-56.7155 216.88,-56.4435 208.431,-50.0513 206.289,-56.7155"/>
</g>
<!-- Node5 -->
<g id="node6" class="node"><title>Node5</title>
<g id="a_node6"><a xlink:href="class_system_1_1_net_1_1_ftp_web_response.html" target="_top" xlink:title="Encapsulates a File Transfer Protocol (FTP) server&#39;s response to a request.">
<polygon fill="none" stroke="black" points="169,-0.5 169,-19.5 318,-19.5 318,-0.5 169,-0.5"/>
<text text-anchor="middle" x="243.5" y="-7.5" font-family="Helvetica,sans-Serif" font-size="10.00">System.Net.FtpWebResponse</text>
</a>
</g>
</g>
<!-- Node0&#45;&gt;Node5 -->
<g id="edge5" class="edge"><title>Node0&#45;&gt;Node5</title>
<path fill="none" stroke="midnightblue" d="M243.5,-45.8045C243.5,-36.9102 243.5,-26.7798 243.5,-19.7511"/>
<polygon fill="midnightblue" stroke="midnightblue" points="240,-46.083 243.5,-56.083 247,-46.083 240,-46.083"/>
</g>
<!-- Node6 -->
<g id="node7" class="node"><title>Node6</title>
<g id="a_node7"><a xlink:href="class_system_1_1_net_1_1_http_web_response.html" target="_top" xlink:title="Provides an HTTP&#45;specific implementation of the T:System.Net.WebResponse class.">
<polygon fill="none" stroke="black" points="336,-0.5 336,-19.5 489,-19.5 489,-0.5 336,-0.5"/>
<text text-anchor="middle" x="412.5" y="-7.5" font-family="Helvetica,sans-Serif" font-size="10.00">System.Net.HttpWebResponse</text>
</a>
</g>
</g>
<!-- Node0&#45;&gt;Node6 -->
<g id="edge6" class="edge"><title>Node0&#45;&gt;Node6</title>
<path fill="none" stroke="midnightblue" d="M280.103,-53.3044C311.947,-43.1294 357.342,-28.6246 385.847,-19.5164"/>
<polygon fill="midnightblue" stroke="midnightblue" points="278.739,-50.0659 270.279,-56.4435 280.869,-56.7337 278.739,-50.0659"/>
</g>
<!-- Node1 -->
<g id="node2" class="node"><title>Node1</title>
<g id="a_node2"><a xlink:href="class_system_1_1_marshal_by_ref_object.html" target="_top" xlink:title="Enables access to objects across application domain boundaries in applications that support remoting.">
<polygon fill="none" stroke="black" points="84.5,-112.5 84.5,-131.5 190.5,-131.5 190.5,-112.5 84.5,-112.5"/>
<text text-anchor="middle" x="137.5" y="-119.5" font-family="Helvetica,sans-Serif" font-size="10.00">MarshalByRefObject</text>
</a>
</g>
</g>
<!-- Node1&#45;&gt;Node0 -->
<g id="edge1" class="edge"><title>Node1&#45;&gt;Node0</title>
<path fill="none" stroke="midnightblue" d="M163.556,-107.726C183.184,-97.7271 209.528,-84.3065 226.512,-75.6545"/>
<polygon fill="midnightblue" stroke="midnightblue" points="161.852,-104.666 154.531,-112.324 165.03,-110.903 161.852,-104.666"/>
</g>
<!-- Node2 -->
<g id="node3" class="node"><title>Node2</title>
<g id="a_node3"><a xlink:href="interface_system_1_1_runtime_1_1_serialization_1_1_i_serializable.html" target="_top" xlink:title="Allows an object to control its own serialization and deserialization.">
<polygon fill="none" stroke="black" points="209,-112.5 209,-131.5 278,-131.5 278,-112.5 209,-112.5"/>
<text text-anchor="middle" x="243.5" y="-119.5" font-family="Helvetica,sans-Serif" font-size="10.00">ISerializable</text>
</a>
</g>
</g>
<!-- Node2&#45;&gt;Node0 -->
<g id="edge2" class="edge"><title>Node2&#45;&gt;Node0</title>
<path fill="none" stroke="midnightblue" d="M243.5,-101.805C243.5,-92.9102 243.5,-82.7798 243.5,-75.7511"/>
<polygon fill="midnightblue" stroke="midnightblue" points="240,-102.083 243.5,-112.083 247,-102.083 240,-102.083"/>
</g>
<!-- Node3 -->
<g id="node4" class="node"><title>Node3</title>
<g id="a_node4"><a xlink:href="interface_system_1_1_i_disposable.html" target="_top" xlink:title="Provides a mechanism for releasing unmanaged resources.To browse the .NET Framework source code for t...">
<polygon fill="none" stroke="black" points="296,-112.5 296,-131.5 363,-131.5 363,-112.5 296,-112.5"/>
<text text-anchor="middle" x="329.5" y="-119.5" font-family="Helvetica,sans-Serif" font-size="10.00">IDisposable</text>
</a>
</g>
</g>
<!-- Node3&#45;&gt;Node0 -->
<g id="edge3" class="edge"><title>Node3&#45;&gt;Node0</title>
<path fill="none" stroke="midnightblue" d="M307.045,-106.901C291.276,-96.9986 270.686,-84.0705 257.283,-75.6545"/>
<polygon fill="midnightblue" stroke="midnightblue" points="305.352,-109.97 315.683,-112.324 309.075,-104.042 305.352,-109.97"/>
</g>
</g>
</svg>
