<?xml version="1.0" encoding="UTF-8" standalone="no"?>
<!DOCTYPE svg PUBLIC "-//W3C//DTD SVG 1.1//EN"
 "http://www.w3.org/Graphics/SVG/1.1/DTD/svg11.dtd">
<!-- Generated by graphviz version 2.38.0 (20140413.2041)
 -->
<!-- Title: System.Security.Cryptography.X509Certificates.X509CertificateCollection Pages: 1 -->
<svg width="167pt" height="184pt"
 viewBox="0.00 0.00 167.00 184.00" xmlns="http://www.w3.org/2000/svg" xmlns:xlink="http://www.w3.org/1999/xlink">
<g id="graph0" class="graph" transform="scale(1 1) rotate(0) translate(4 180)">
<title>System.Security.Cryptography.X509Certificates.X509CertificateCollection</title>
<!-- Node0 -->
<g id="node1" class="node"><title>Node0</title>
<g id="a_node1"><a xlink:title="Defines a collection that stores T:System.Security.Cryptography.X509Certificates.X509Certificate obje...">
<polygon fill="#bfbfbf" stroke="black" points="2.5,-78.5 2.5,-119.5 156.5,-119.5 156.5,-78.5 2.5,-78.5"/>
<text text-anchor="start" x="10.5" y="-107.5" font-family="Helvetica,sans-Serif" font-size="10.00">System.Security.Cryptography.</text>
<text text-anchor="start" x="10.5" y="-96.5" font-family="Helvetica,sans-Serif" font-size="10.00">X509Certificates.X509Certificate</text>
<text text-anchor="middle" x="79.5" y="-85.5" font-family="Helvetica,sans-Serif" font-size="10.00">Collection</text>
</a>
</g>
</g>
<!-- Node5 -->
<g id="node3" class="node"><title>Node5</title>
<g id="a_node3"><a xlink:href="class_system_1_1_security_1_1_cryptography_1_1_x509_certificates_1_1_x509_certificate2_collection.html" target="_top" xlink:title="Represents a collection of T:System.Security.Cryptography.X509Certificates.X509Certificate2 objects....">
<polygon fill="none" stroke="black" points="0,-0.5 0,-41.5 159,-41.5 159,-0.5 0,-0.5"/>
<text text-anchor="start" x="8" y="-29.5" font-family="Helvetica,sans-Serif" font-size="10.00">System.Security.Cryptography.</text>
<text text-anchor="start" x="8" y="-18.5" font-family="Helvetica,sans-Serif" font-size="10.00">X509Certificates.X509Certificate2</text>
<text text-anchor="middle" x="79.5" y="-7.5" font-family="Helvetica,sans-Serif" font-size="10.00">Collection</text>
</a>
</g>
</g>
<!-- Node0&#45;&gt;Node5 -->
<g id="edge2" class="edge"><title>Node0&#45;&gt;Node5</title>
<path fill="none" stroke="midnightblue" d="M79.5,-68.2965C79.5,-59.3009 79.5,-49.6532 79.5,-41.5056"/>
<polygon fill="midnightblue" stroke="midnightblue" points="76.0001,-68.4281 79.5,-78.4281 83.0001,-68.4281 76.0001,-68.4281"/>
</g>
<!-- Node1 -->
<g id="node2" class="node"><title>Node1</title>
<g id="a_node2"><a xlink:href="class_system_1_1_collections_1_1_collection_base.html" target="_top" xlink:title="Provides the abstract base class for a strongly typed collection.">
<polygon fill="none" stroke="red" points="38.5,-156.5 38.5,-175.5 120.5,-175.5 120.5,-156.5 38.5,-156.5"/>
<text text-anchor="middle" x="79.5" y="-163.5" font-family="Helvetica,sans-Serif" font-size="10.00">CollectionBase</text>
</a>
</g>
</g>
<!-- Node1&#45;&gt;Node0 -->
<g id="edge1" class="edge"><title>Node1&#45;&gt;Node0</title>
<path fill="none" stroke="midnightblue" d="M79.5,-146.037C79.5,-137.708 79.5,-127.936 79.5,-119.542"/>
<polygon fill="midnightblue" stroke="midnightblue" points="76.0001,-146.234 79.5,-156.234 83.0001,-146.234 76.0001,-146.234"/>
</g>
</g>
</svg>
