<?xml version="1.0" encoding="UTF-8" standalone="no"?>
<!DOCTYPE svg PUBLIC "-//W3C//DTD SVG 1.1//EN"
 "http://www.w3.org/Graphics/SVG/1.1/DTD/svg11.dtd">
<!-- Generated by graphviz version 2.38.0 (20140413.2041)
 -->
<!-- Title: System.Xml.Schema.XmlSchemaCollection Pages: 1 -->
<svg width="276pt" height="163pt"
 viewBox="0.00 0.00 276.00 163.00" xmlns="http://www.w3.org/2000/svg" xmlns:xlink="http://www.w3.org/1999/xlink">
<g id="graph0" class="graph" transform="scale(1 1) rotate(0) translate(4 159)">
<title>System.Xml.Schema.XmlSchemaCollection</title>
<!-- Node3 -->
<g id="node1" class="node"><title>Node3</title>
<g id="a_node1"><a xlink:title="Contains a cache of XML Schema definition language (XSD) and XML&#45;Data Reduced (XDR) schemas....">
<polygon fill="#bfbfbf" stroke="black" points="0,-0.5 0,-30.5 163,-30.5 163,-0.5 0,-0.5"/>
<text text-anchor="start" x="8" y="-18.5" font-family="Helvetica,sans-Serif" font-size="10.00">System.Xml.Schema.XmlSchema</text>
<text text-anchor="middle" x="81.5" y="-7.5" font-family="Helvetica,sans-Serif" font-size="10.00">Collection</text>
</a>
</g>
</g>
<!-- Node4 -->
<g id="node2" class="node"><title>Node4</title>
<g id="a_node2"><a xlink:href="interface_system_1_1_collections_1_1_i_collection.html" target="_top" xlink:title="Defines size, enumerators, and synchronization methods for all nongeneric collections.">
<polygon fill="none" stroke="black" points="50.5,-78.5 50.5,-97.5 112.5,-97.5 112.5,-78.5 50.5,-78.5"/>
<text text-anchor="middle" x="81.5" y="-85.5" font-family="Helvetica,sans-Serif" font-size="10.00">ICollection</text>
</a>
</g>
</g>
<!-- Node4&#45;&gt;Node3 -->
<g id="edge1" class="edge"><title>Node4&#45;&gt;Node3</title>
<path fill="none" stroke="midnightblue" d="M81.5,-68.2362C81.5,-56.4079 81.5,-41.3829 81.5,-30.5762"/>
<polygon fill="midnightblue" stroke="midnightblue" points="78.0001,-68.3553 81.5,-78.3553 85.0001,-68.3554 78.0001,-68.3553"/>
</g>
<!-- Node5 -->
<g id="node3" class="node"><title>Node5</title>
<g id="a_node3"><a xlink:href="interface_system_1_1_collections_1_1_i_enumerable.html" target="_top" xlink:title="Exposes an enumerator, which supports a simple iteration over a non&#45;generic collection....">
<polygon fill="none" stroke="black" points="8,-135.5 8,-154.5 79,-154.5 79,-135.5 8,-135.5"/>
<text text-anchor="middle" x="43.5" y="-142.5" font-family="Helvetica,sans-Serif" font-size="10.00">IEnumerable</text>
</a>
</g>
</g>
<!-- Node5&#45;&gt;Node3 -->
<g id="edge3" class="edge"><title>Node5&#45;&gt;Node3</title>
<path fill="none" stroke="midnightblue" d="M39.8543,-125.284C37.9717,-111.846 36.9161,-93.4552 41.5,-78 46.7877,-60.1719 59.0544,-42.6757 68.6198,-30.9316"/>
<polygon fill="midnightblue" stroke="midnightblue" points="36.4172,-125.951 41.5245,-135.234 43.3206,-124.792 36.4172,-125.951"/>
</g>
<!-- Node5&#45;&gt;Node4 -->
<g id="edge2" class="edge"><title>Node5&#45;&gt;Node4</title>
<path fill="none" stroke="midnightblue" d="M55.29,-126.936C61.9809,-117.251 70.0726,-105.54 75.4788,-97.7149"/>
<polygon fill="midnightblue" stroke="midnightblue" points="52.2423,-125.189 49.4375,-135.406 58.0014,-129.168 52.2423,-125.189"/>
</g>
<!-- Node6 -->
<g id="node4" class="node"><title>Node6</title>
<g id="a_node4"><a xlink:href="class_system_1_1_xml_1_1_xml_name_table.html" target="_top" xlink:title="Table of atomized string objects.">
<polygon fill="none" stroke="black" points="131,-78.5 131,-97.5 268,-97.5 268,-78.5 131,-78.5"/>
<text text-anchor="middle" x="199.5" y="-85.5" font-family="Helvetica,sans-Serif" font-size="10.00">System.Xml.XmlNameTable</text>
</a>
</g>
</g>
<!-- Node6&#45;&gt;Node3 -->
<g id="edge4" class="edge"><title>Node6&#45;&gt;Node3</title>
<path fill="none" stroke="#9a32cd" stroke-dasharray="5,2" d="M176.295,-73.1357C155.702,-60.8328 125.759,-42.9427 105.06,-30.5762"/>
<polygon fill="#9a32cd" stroke="#9a32cd" points="174.651,-76.231 185.031,-78.3553 178.241,-70.2218 174.651,-76.231"/>
<text text-anchor="middle" x="177.5" y="-52" font-family="Helvetica,sans-Serif" font-size="10.00"> NameTable</text>
</g>
</g>
</svg>
