<?xml version="1.0" encoding="UTF-8" standalone="no"?>
<!DOCTYPE svg PUBLIC "-//W3C//DTD SVG 1.1//EN"
 "http://www.w3.org/Graphics/SVG/1.1/DTD/svg11.dtd">
<!-- Generated by graphviz version 2.38.0 (20140413.2041)
 -->
<!-- Title: System.Security.Cryptography.SymmetricAlgorithm Pages: 1 -->
<svg width="664pt" height="206pt"
 viewBox="0.00 0.00 664.00 205.50" xmlns="http://www.w3.org/2000/svg" xmlns:xlink="http://www.w3.org/1999/xlink">
<g id="graph0" class="graph" transform="scale(1 1) rotate(0) translate(4 201.5)">
<title>System.Security.Cryptography.SymmetricAlgorithm</title>
<!-- Node0 -->
<g id="node1" class="node"><title>Node0</title>
<g id="a_node1"><a xlink:title="Represents the abstract base class from which all implementations of symmetric algorithms must inheri...">
<polygon fill="#bfbfbf" stroke="black" points="103,-96.5 103,-126.5 256,-126.5 256,-96.5 103,-96.5"/>
<text text-anchor="start" x="111" y="-114.5" font-family="Helvetica,sans-Serif" font-size="10.00">System.Security.Cryptography.</text>
<text text-anchor="middle" x="179.5" y="-103.5" font-family="Helvetica,sans-Serif" font-size="10.00">SymmetricAlgorithm</text>
</a>
</g>
</g>
<!-- Node2 -->
<g id="node3" class="node"><title>Node2</title>
<g id="a_node3"><a xlink:href="class_system_1_1_security_1_1_cryptography_1_1_aes.html" target="_top" xlink:title="Represents the abstract base class from which all implementations of the Advanced Encryption Standard...">
<polygon fill="none" stroke="black" points="293.5,-178 293.5,-197 463.5,-197 463.5,-178 293.5,-178"/>
<text text-anchor="middle" x="378.5" y="-185" font-family="Helvetica,sans-Serif" font-size="10.00">System.Security.Cryptography.Aes</text>
</a>
</g>
</g>
<!-- Node0&#45;&gt;Node2 -->
<g id="edge2" class="edge"><title>Node0&#45;&gt;Node2</title>
<path fill="none" stroke="midnightblue" d="M214.144,-131.547C235.763,-143.702 264.795,-158.704 292,-168.5 302.301,-172.209 313.571,-175.335 324.449,-177.912"/>
<polygon fill="midnightblue" stroke="midnightblue" points="215.78,-128.451 205.36,-126.535 212.312,-134.531 215.78,-128.451"/>
</g>
<!-- Node3 -->
<g id="node4" class="node"><title>Node3</title>
<g id="a_node4"><a xlink:href="class_system_1_1_security_1_1_cryptography_1_1_d_e_s.html" target="_top" xlink:title="Represents the base class for the Data Encryption Standard (DES) algorithm from which all T:System....">
<polygon fill="none" stroke="black" points="292,-140 292,-159 465,-159 465,-140 292,-140"/>
<text text-anchor="middle" x="378.5" y="-147" font-family="Helvetica,sans-Serif" font-size="10.00">System.Security.Cryptography.DES</text>
</a>
</g>
</g>
<!-- Node0&#45;&gt;Node3 -->
<g id="edge3" class="edge"><title>Node0&#45;&gt;Node3</title>
<path fill="none" stroke="midnightblue" d="M266.075,-128.007C287.226,-132.087 309.186,-136.323 327.963,-139.945"/>
<polygon fill="midnightblue" stroke="midnightblue" points="266.584,-124.541 256.102,-126.083 265.258,-131.414 266.584,-124.541"/>
</g>
<!-- Node5 -->
<g id="node6" class="node"><title>Node5</title>
<g id="a_node6"><a xlink:href="class_system_1_1_security_1_1_cryptography_1_1_r_c2.html" target="_top" xlink:title="Represents the base class from which all implementations of the T:System.Security....">
<polygon fill="none" stroke="black" points="292.5,-102 292.5,-121 464.5,-121 464.5,-102 292.5,-102"/>
<text text-anchor="middle" x="378.5" y="-109" font-family="Helvetica,sans-Serif" font-size="10.00">System.Security.Cryptography.RC2</text>
</a>
</g>
</g>
<!-- Node0&#45;&gt;Node5 -->
<g id="edge5" class="edge"><title>Node0&#45;&gt;Node5</title>
<path fill="none" stroke="midnightblue" d="M266.175,-111.5C274.823,-111.5 283.605,-111.5 292.248,-111.5"/>
<polygon fill="midnightblue" stroke="midnightblue" points="266.102,-108 256.102,-111.5 266.102,-115 266.102,-108"/>
</g>
<!-- Node7 -->
<g id="node8" class="node"><title>Node7</title>
<g id="a_node8"><a xlink:href="class_system_1_1_security_1_1_cryptography_1_1_rijndael.html" target="_top" xlink:title="Represents the base class from which all implementations of the T:System.Security....">
<polygon fill="none" stroke="black" points="302,-50.5 302,-80.5 455,-80.5 455,-50.5 302,-50.5"/>
<text text-anchor="start" x="310" y="-68.5" font-family="Helvetica,sans-Serif" font-size="10.00">System.Security.Cryptography.</text>
<text text-anchor="middle" x="378.5" y="-57.5" font-family="Helvetica,sans-Serif" font-size="10.00">Rijndael</text>
</a>
</g>
</g>
<!-- Node0&#45;&gt;Node7 -->
<g id="edge7" class="edge"><title>Node0&#45;&gt;Node7</title>
<path fill="none" stroke="midnightblue" d="M254.901,-94.1271C274.084,-89.6479 294.566,-84.8654 313.187,-80.5174"/>
<polygon fill="midnightblue" stroke="midnightblue" points="253.947,-90.7556 245.005,-96.4379 255.539,-97.5723 253.947,-90.7556"/>
</g>
<!-- Node9 -->
<g id="node10" class="node"><title>Node9</title>
<g id="a_node10"><a xlink:href="class_system_1_1_security_1_1_cryptography_1_1_triple_d_e_s.html" target="_top" xlink:title="Represents the base class for Triple Data Encryption Standard algorithms from which all T:System....">
<polygon fill="none" stroke="black" points="302,-1.5 302,-31.5 455,-31.5 455,-1.5 302,-1.5"/>
<text text-anchor="start" x="310" y="-19.5" font-family="Helvetica,sans-Serif" font-size="10.00">System.Security.Cryptography.</text>
<text text-anchor="middle" x="378.5" y="-8.5" font-family="Helvetica,sans-Serif" font-size="10.00">TripleDES</text>
</a>
</g>
</g>
<!-- Node0&#45;&gt;Node9 -->
<g id="edge9" class="edge"><title>Node0&#45;&gt;Node9</title>
<path fill="none" stroke="midnightblue" d="M208.573,-90.3321C230.366,-74.7352 261.851,-53.9758 292,-40.5 299.46,-37.1656 307.496,-34.1831 315.549,-31.5498"/>
<polygon fill="midnightblue" stroke="midnightblue" points="206.469,-87.5344 200.433,-96.2412 210.582,-93.1993 206.469,-87.5344"/>
</g>
<!-- Node1 -->
<g id="node2" class="node"><title>Node1</title>
<g id="a_node2"><a xlink:href="interface_system_1_1_i_disposable.html" target="_top" xlink:title="Provides a mechanism for releasing unmanaged resources.To browse the .NET Framework source code for t...">
<polygon fill="none" stroke="black" points="0,-102 0,-121 67,-121 67,-102 0,-102"/>
<text text-anchor="middle" x="33.5" y="-109" font-family="Helvetica,sans-Serif" font-size="10.00">IDisposable</text>
</a>
</g>
</g>
<!-- Node1&#45;&gt;Node0 -->
<g id="edge1" class="edge"><title>Node1&#45;&gt;Node0</title>
<path fill="none" stroke="midnightblue" d="M77.3832,-111.5C85.4367,-111.5 94.0747,-111.5 102.785,-111.5"/>
<polygon fill="midnightblue" stroke="midnightblue" points="77.1759,-108 67.1758,-111.5 77.1758,-115 77.1759,-108"/>
</g>
<!-- Node4 -->
<g id="node5" class="node"><title>Node4</title>
<g id="a_node5"><a xlink:href="class_system_1_1_security_1_1_cryptography_1_1_d_e_s_crypto_service_provider.html" target="_top" xlink:title="Defines a wrapper object to access the cryptographic service provider (CSP) version of the Data Encry...">
<polygon fill="none" stroke="black" points="502,-147.5 502,-177.5 655,-177.5 655,-147.5 502,-147.5"/>
<text text-anchor="start" x="510" y="-165.5" font-family="Helvetica,sans-Serif" font-size="10.00">System.Security.Cryptography.</text>
<text text-anchor="middle" x="578.5" y="-154.5" font-family="Helvetica,sans-Serif" font-size="10.00">DESCryptoServiceProvider</text>
</a>
</g>
</g>
<!-- Node3&#45;&gt;Node4 -->
<g id="edge4" class="edge"><title>Node3&#45;&gt;Node4</title>
<path fill="none" stroke="midnightblue" d="M475.271,-155.788C484.224,-156.376 493.212,-156.966 501.942,-157.539"/>
<polygon fill="midnightblue" stroke="midnightblue" points="475.402,-152.289 465.194,-155.126 474.943,-159.274 475.402,-152.289"/>
</g>
<!-- Node6 -->
<g id="node7" class="node"><title>Node6</title>
<g id="a_node7"><a xlink:href="class_system_1_1_security_1_1_cryptography_1_1_r_c2_crypto_service_provider.html" target="_top" xlink:title="Defines a wrapper object to access the cryptographic service provider (CSP) implementation of the T:S...">
<polygon fill="none" stroke="black" points="502,-98.5 502,-128.5 655,-128.5 655,-98.5 502,-98.5"/>
<text text-anchor="start" x="510" y="-116.5" font-family="Helvetica,sans-Serif" font-size="10.00">System.Security.Cryptography.</text>
<text text-anchor="middle" x="578.5" y="-105.5" font-family="Helvetica,sans-Serif" font-size="10.00">RC2CryptoServiceProvider</text>
</a>
</g>
</g>
<!-- Node5&#45;&gt;Node6 -->
<g id="edge6" class="edge"><title>Node5&#45;&gt;Node6</title>
<path fill="none" stroke="midnightblue" d="M474.815,-112.463C483.875,-112.554 492.976,-112.646 501.815,-112.736"/>
<polygon fill="midnightblue" stroke="midnightblue" points="474.654,-108.961 464.619,-112.36 474.583,-115.961 474.654,-108.961"/>
</g>
<!-- Node8 -->
<g id="node9" class="node"><title>Node8</title>
<g id="a_node9"><a xlink:href="class_system_1_1_security_1_1_cryptography_1_1_rijndael_managed.html" target="_top" xlink:title="Accesses the managed version of the T:System.Security.Cryptography.Rijndael algorithm....">
<polygon fill="none" stroke="black" points="502,-49.5 502,-79.5 655,-79.5 655,-49.5 502,-49.5"/>
<text text-anchor="start" x="510" y="-67.5" font-family="Helvetica,sans-Serif" font-size="10.00">System.Security.Cryptography.</text>
<text text-anchor="middle" x="578.5" y="-56.5" font-family="Helvetica,sans-Serif" font-size="10.00">RijndaelManaged</text>
</a>
</g>
</g>
<!-- Node7&#45;&gt;Node8 -->
<g id="edge8" class="edge"><title>Node7&#45;&gt;Node8</title>
<path fill="none" stroke="midnightblue" d="M465.329,-65.0665C477.48,-65.0052 489.9,-64.9424 501.839,-64.8821"/>
<polygon fill="midnightblue" stroke="midnightblue" points="465.185,-61.5671 455.203,-65.1177 465.22,-68.567 465.185,-61.5671"/>
</g>
<!-- Node10 -->
<g id="node11" class="node"><title>Node10</title>
<g id="a_node11"><a xlink:href="class_system_1_1_security_1_1_cryptography_1_1_triple_d_e_s_crypto_service_provider.html" target="_top" xlink:title="Defines a wrapper object to access the cryptographic service provider (CSP) version of the T:System....">
<polygon fill="none" stroke="black" points="501,-0.5 501,-30.5 656,-30.5 656,-0.5 501,-0.5"/>
<text text-anchor="start" x="509" y="-18.5" font-family="Helvetica,sans-Serif" font-size="10.00">System.Security.Cryptography.</text>
<text text-anchor="middle" x="578.5" y="-7.5" font-family="Helvetica,sans-Serif" font-size="10.00">TripleDESCryptoServiceProvider</text>
</a>
</g>
</g>
<!-- Node9&#45;&gt;Node10 -->
<g id="edge10" class="edge"><title>Node9&#45;&gt;Node10</title>
<path fill="none" stroke="midnightblue" d="M465.467,-16.0658C477.24,-16.0064 489.264,-15.9456 500.856,-15.8871"/>
<polygon fill="midnightblue" stroke="midnightblue" points="465.185,-12.5671 455.203,-16.1177 465.22,-19.567 465.185,-12.5671"/>
</g>
</g>
</svg>
