<?xml version="1.0" encoding="UTF-8" standalone="no"?>
<!DOCTYPE svg PUBLIC "-//W3C//DTD SVG 1.1//EN"
 "http://www.w3.org/Graphics/SVG/1.1/DTD/svg11.dtd">
<!-- Generated by graphviz version 2.38.0 (20140413.2041)
 -->
<!-- Title: System.Collections.Generic.Comparer&lt; T &gt; Pages: 1 -->
<svg width="211pt" height="174pt"
 viewBox="0.00 0.00 211.00 174.00" xmlns="http://www.w3.org/2000/svg" xmlns:xlink="http://www.w3.org/1999/xlink">
<g id="graph0" class="graph" transform="scale(1 1) rotate(0) translate(4 170)">
<title>System.Collections.Generic.Comparer&lt; T &gt;</title>
<!-- Node9 -->
<g id="node1" class="node"><title>Node9</title>
<g id="a_node1"><a xlink:title="Provides a base class for implementations of the T:System.Collections.Generic.IComparer`1 generic int...">
<polygon fill="#bfbfbf" stroke="black" points="0,-0.5 0,-30.5 141,-30.5 141,-0.5 0,-0.5"/>
<text text-anchor="start" x="8" y="-18.5" font-family="Helvetica,sans-Serif" font-size="10.00">System.Collections.Generic.</text>
<text text-anchor="middle" x="70.5" y="-7.5" font-family="Helvetica,sans-Serif" font-size="10.00">Comparer&lt; T &gt;</text>
</a>
</g>
</g>
<!-- Node10 -->
<g id="node2" class="node"><title>Node10</title>
<g id="a_node2"><a xlink:href="interface_system_1_1_collections_1_1_generic_1_1_i_comparer.html" target="_top" xlink:title="Defines a method that a type implements to compare two objects.">
<polygon fill="none" stroke="black" points="11,-68.5 11,-87.5 72,-87.5 72,-68.5 11,-68.5"/>
<text text-anchor="middle" x="41.5" y="-75.5" font-family="Helvetica,sans-Serif" font-size="10.00">IComparer</text>
</a>
</g>
</g>
<!-- Node10&#45;&gt;Node9 -->
<g id="edge1" class="edge"><title>Node10&#45;&gt;Node9</title>
<path fill="none" stroke="midnightblue" d="M50.0821,-59.0961C54.4172,-50.0521 59.6042,-39.231 63.6653,-30.7587"/>
<polygon fill="midnightblue" stroke="midnightblue" points="46.8214,-57.8014 45.655,-68.3318 53.1337,-60.8271 46.8214,-57.8014"/>
</g>
<!-- Node11 -->
<g id="node3" class="node"><title>Node11</title>
<g id="a_node3"><a xlink:href="interface_system_1_1_collections_1_1_generic_1_1_i_comparer.html" target="_top" xlink:title=" ">
<polygon fill="none" stroke="black" points="90.5,-68.5 90.5,-87.5 174.5,-87.5 174.5,-68.5 90.5,-68.5"/>
<text text-anchor="middle" x="132.5" y="-75.5" font-family="Helvetica,sans-Serif" font-size="10.00">IComparer&lt; T &gt;</text>
</a>
</g>
</g>
<!-- Node11&#45;&gt;Node9 -->
<g id="edge2" class="edge"><title>Node11&#45;&gt;Node9</title>
<path fill="none" stroke="midnightblue" d="M116.212,-61.1063C106.567,-51.6944 94.4481,-39.8687 85.1122,-30.7587"/>
<polygon fill="midnightblue" stroke="midnightblue" points="114.015,-63.8528 123.617,-68.3318 118.904,-58.8428 114.015,-63.8528"/>
</g>
<!-- Node12 -->
<g id="node4" class="node"><title>Node12</title>
<g id="a_node4"><a xlink:href="interface_system_1_1_collections_1_1_generic_1_1_i_comparer.html" target="_top" xlink:title="Defines a method that a type implements to compare two objects.">
<polygon fill="none" stroke="black" points="62,-135.5 62,-165.5 203,-165.5 203,-135.5 62,-135.5"/>
<text text-anchor="start" x="70" y="-153.5" font-family="Helvetica,sans-Serif" font-size="10.00">System.Collections.Generic.</text>
<text text-anchor="middle" x="132.5" y="-142.5" font-family="Helvetica,sans-Serif" font-size="10.00">IComparer&lt; in in T &gt;</text>
</a>
</g>
</g>
<!-- Node12&#45;&gt;Node11 -->
<g id="edge3" class="edge"><title>Node12&#45;&gt;Node11</title>
<path fill="none" stroke="orange" stroke-dasharray="5,2" d="M132.5,-125.091C132.5,-112.214 132.5,-97.1974 132.5,-87.8932"/>
<polygon fill="orange" stroke="orange" points="129,-125.233 132.5,-135.233 136,-125.233 129,-125.233"/>
<text text-anchor="middle" x="146" y="-109" font-family="Helvetica,sans-Serif" font-size="10.00"> &lt; T &gt;</text>
</g>
</g>
</svg>
