<?xml version="1.0" encoding="UTF-8" standalone="no"?>
<!DOCTYPE svg PUBLIC "-//W3C//DTD SVG 1.1//EN"
 "http://www.w3.org/Graphics/SVG/1.1/DTD/svg11.dtd">
<!-- Generated by graphviz version 2.38.0 (20140413.2041)
 -->
<!-- Title: System.Collections.ObjectModel.ReadOnlyDictionary&lt; TKey, TValue &gt; Pages: 1 -->
<svg width="967pt" height="205pt"
 viewBox="0.00 0.00 967.00 205.00" xmlns="http://www.w3.org/2000/svg" xmlns:xlink="http://www.w3.org/1999/xlink">
<g id="graph0" class="graph" transform="scale(1 1) rotate(0) translate(4 201)">
<title>System.Collections.ObjectModel.ReadOnlyDictionary&lt; TKey, TValue &gt;</title>
<!-- Node0 -->
<g id="node1" class="node"><title>Node0</title>
<g id="a_node1"><a xlink:title="Represents a read&#45;only, generic collection of key/value pairs.">
<polygon fill="#bfbfbf" stroke="black" points="445,-73 445,-114 578,-114 578,-73 445,-73"/>
<text text-anchor="start" x="453" y="-102" font-family="Helvetica,sans-Serif" font-size="10.00">System.Collections.Object</text>
<text text-anchor="start" x="453" y="-91" font-family="Helvetica,sans-Serif" font-size="10.00">Model.ReadOnlyDictionary</text>
<text text-anchor="middle" x="511.5" y="-80" font-family="Helvetica,sans-Serif" font-size="10.00">&lt; TKey, TValue &gt;</text>
</a>
</g>
</g>
<!-- Node7 -->
<g id="node7" class="node"><title>Node7</title>
<g id="a_node7"><a xlink:href="class_system_1_1_collections_1_1_object_model_1_1_read_only_dictionary.html" target="_top" xlink:title=" ">
<polygon fill="none" stroke="black" points="744,-73 744,-114 959,-114 959,-73 744,-73"/>
<text text-anchor="start" x="752" y="-102" font-family="Helvetica,sans-Serif" font-size="10.00">System.Collections.Object</text>
<text text-anchor="start" x="752" y="-91" font-family="Helvetica,sans-Serif" font-size="10.00">Model.ReadOnlyDictionary</text>
<text text-anchor="middle" x="851.5" y="-80" font-family="Helvetica,sans-Serif" font-size="10.00">&lt; System.Linq.Expressions.Expression, int &gt;</text>
</a>
</g>
</g>
<!-- Node0&#45;&gt;Node7 -->
<g id="edge10" class="edge"><title>Node0&#45;&gt;Node7</title>
<path fill="none" stroke="orange" stroke-dasharray="5,2" d="M588.24,-93.5C634.112,-93.5 693.33,-93.5 743.884,-93.5"/>
<polygon fill="orange" stroke="orange" points="588.071,-90.0001 578.071,-93.5 588.071,-97.0001 588.071,-90.0001"/>
<text text-anchor="start" x="596" y="-107.5" font-family="Helvetica,sans-Serif" font-size="10.00"> &lt; System::Linq::Expressions</text>
<text text-anchor="middle" x="661" y="-96.5" font-family="Helvetica,sans-Serif" font-size="10.00">::Expression, int &gt;</text>
</g>
<!-- Node1 -->
<g id="node2" class="node"><title>Node1</title>
<g id="a_node2"><a xlink:href="interface_system_1_1_collections_1_1_i_dictionary.html" target="_top" xlink:title=" ">
<polygon fill="none" stroke="red" points="311,-166.5 311,-196.5 408,-196.5 408,-166.5 311,-166.5"/>
<text text-anchor="start" x="319" y="-184.5" font-family="Helvetica,sans-Serif" font-size="10.00">IDictionary&lt; TKey,</text>
<text text-anchor="middle" x="359.5" y="-173.5" font-family="Helvetica,sans-Serif" font-size="10.00"> TValue &gt;</text>
</a>
</g>
</g>
<!-- Node1&#45;&gt;Node0 -->
<g id="edge1" class="edge"><title>Node1&#45;&gt;Node0</title>
<path fill="none" stroke="midnightblue" d="M406.436,-162.111C413.431,-158.778 420.484,-155.191 427,-151.5 446.657,-140.364 467.532,-125.864 483.493,-114.148"/>
<polygon fill="midnightblue" stroke="midnightblue" points="404.594,-159.107 396.99,-166.485 407.535,-165.459 404.594,-159.107"/>
</g>
<!-- Node4 -->
<g id="node3" class="node"><title>Node4</title>
<g id="a_node3"><a xlink:href="interface_system_1_1_collections_1_1_i_enumerable.html" target="_top" xlink:title="Exposes an enumerator, which supports a simple iteration over a non&#45;generic collection....">
<polygon fill="none" stroke="red" points="0,-74 0,-93 71,-93 71,-74 0,-74"/>
<text text-anchor="middle" x="35.5" y="-81" font-family="Helvetica,sans-Serif" font-size="10.00">IEnumerable</text>
</a>
</g>
</g>
<!-- Node4&#45;&gt;Node0 -->
<g id="edge2" class="edge"><title>Node4&#45;&gt;Node0</title>
<path fill="none" stroke="midnightblue" d="M74.2298,-95.9362C79.1618,-97.2848 84.1764,-98.5205 89,-99.5 97.3213,-101.19 99.5357,-100.826 108,-101.5 241.001,-112.097 275.137,-124.71 408,-112.5 419.985,-111.399 432.66,-109.587 444.857,-107.509"/>
<polygon fill="midnightblue" stroke="midnightblue" points="74.8889,-92.4831 64.3096,-93.0554 72.9367,-99.2054 74.8889,-92.4831"/>
</g>
<!-- Node5 -->
<g id="node4" class="node"><title>Node5</title>
<g id="a_node4"><a xlink:href="interface_system_1_1_collections_1_1_i_dictionary.html" target="_top" xlink:title="Represents a nongeneric collection of key/value pairs.">
<polygon fill="none" stroke="black" points="328.5,-84 328.5,-103 390.5,-103 390.5,-84 328.5,-84"/>
<text text-anchor="middle" x="359.5" y="-91" font-family="Helvetica,sans-Serif" font-size="10.00">IDictionary</text>
</a>
</g>
</g>
<!-- Node4&#45;&gt;Node5 -->
<g id="edge6" class="edge"><title>Node4&#45;&gt;Node5</title>
<path fill="none" stroke="midnightblue" d="M81.3033,-85.232C83.9073,-85.3249 86.4874,-85.4149 89,-85.5 175.781,-88.4409 278.3,-91.3203 328.185,-92.6831"/>
<polygon fill="midnightblue" stroke="midnightblue" points="81.3548,-81.7317 71.2338,-84.8644 81.0994,-88.727 81.3548,-81.7317"/>
</g>
<!-- Node3 -->
<g id="node5" class="node"><title>Node3</title>
<g id="a_node5"><a xlink:href="interface_system_1_1_collections_1_1_i_collection.html" target="_top" xlink:title="Defines size, enumerators, and synchronization methods for all nongeneric collections.">
<polygon fill="none" stroke="red" points="108,-52 108,-71 170,-71 170,-52 108,-52"/>
<text text-anchor="middle" x="139" y="-59" font-family="Helvetica,sans-Serif" font-size="10.00">ICollection</text>
</a>
</g>
</g>
<!-- Node4&#45;&gt;Node3 -->
<g id="edge5" class="edge"><title>Node4&#45;&gt;Node3</title>
<path fill="none" stroke="midnightblue" d="M81.181,-73.8154C90.2219,-71.8558 99.5235,-69.8397 107.916,-68.0207"/>
<polygon fill="midnightblue" stroke="midnightblue" points="80.1783,-70.4514 71.1467,-75.9904 81.6612,-77.2926 80.1783,-70.4514"/>
</g>
<!-- Node6 -->
<g id="node6" class="node"><title>Node6</title>
<g id="a_node6"><a xlink:href="interface_system_1_1_collections_1_1_generic_1_1_i_read_only_dictionary.html" target="_top" xlink:title="Represents a generic read&#45;only collection of key/value pairs.">
<polygon fill="none" stroke="black" points="188,-0.5 188,-30.5 293,-30.5 293,-0.5 188,-0.5"/>
<text text-anchor="start" x="196" y="-18.5" font-family="Helvetica,sans-Serif" font-size="10.00">IReadOnlyDictionary</text>
<text text-anchor="middle" x="240.5" y="-7.5" font-family="Helvetica,sans-Serif" font-size="10.00">&lt; TKey, TValue &gt;</text>
</a>
</g>
</g>
<!-- Node4&#45;&gt;Node6 -->
<g id="edge9" class="edge"><title>Node4&#45;&gt;Node6</title>
<path fill="none" stroke="midnightblue" d="M58.7674,-68.2628C72.4347,-59.5505 90.6008,-49.0805 108,-42.5 133.505,-32.8538 163.164,-26.3852 187.853,-22.2044"/>
<polygon fill="midnightblue" stroke="midnightblue" points="56.5385,-65.5386 50.0889,-73.9441 60.3725,-71.3953 56.5385,-65.5386"/>
</g>
<!-- Node5&#45;&gt;Node0 -->
<g id="edge3" class="edge"><title>Node5&#45;&gt;Node0</title>
<path fill="none" stroke="midnightblue" d="M401.208,-93.5C414.677,-93.5 430.027,-93.5 444.878,-93.5"/>
<polygon fill="midnightblue" stroke="midnightblue" points="400.855,-90.0001 390.855,-93.5 400.855,-97.0001 400.855,-90.0001"/>
</g>
<!-- Node3&#45;&gt;Node0 -->
<g id="edge7" class="edge"><title>Node3&#45;&gt;Node0</title>
<path fill="none" stroke="midnightblue" d="M180.554,-61.3983C233.206,-61.739 327.848,-63.9646 408,-74.5 419.933,-76.0685 432.583,-78.1042 444.772,-80.2585"/>
<polygon fill="midnightblue" stroke="midnightblue" points="180.304,-57.8972 170.288,-61.3526 180.273,-64.8972 180.304,-57.8972"/>
</g>
<!-- Node3&#45;&gt;Node5 -->
<g id="edge4" class="edge"><title>Node3&#45;&gt;Node5</title>
<path fill="none" stroke="midnightblue" d="M180.464,-67.4261C223.306,-73.7004 289.937,-83.4587 328.377,-89.0883"/>
<polygon fill="midnightblue" stroke="midnightblue" points="180.783,-63.9356 170.381,-65.9495 179.769,-70.8617 180.783,-63.9356"/>
</g>
<!-- Node6&#45;&gt;Node0 -->
<g id="edge8" class="edge"><title>Node6&#45;&gt;Node0</title>
<path fill="none" stroke="midnightblue" d="M303.19,-14.5565C340.146,-15.8279 387.473,-20.7457 427,-35.5 449.489,-43.8945 471.65,-59.739 487.483,-72.7487"/>
<polygon fill="midnightblue" stroke="midnightblue" points="303.145,-11.0542 293.056,-14.2894 302.961,-18.0517 303.145,-11.0542"/>
</g>
</g>
</svg>
