<?xml version="1.0" encoding="UTF-8" standalone="no"?>
<!DOCTYPE svg PUBLIC "-//W3C//DTD SVG 1.1//EN"
 "http://www.w3.org/Graphics/SVG/1.1/DTD/svg11.dtd">
<!-- Generated by graphviz version 2.38.0 (20140413.2041)
 -->
<!-- Title: System.Net.NetworkInformation.GatewayIPAddressInformationCollection Pages: 1 -->
<svg width="397pt" height="127pt"
 viewBox="0.00 0.00 397.00 126.50" xmlns="http://www.w3.org/2000/svg" xmlns:xlink="http://www.w3.org/1999/xlink">
<g id="graph0" class="graph" transform="scale(1 1) rotate(0) translate(4 122.5)">
<title>System.Net.NetworkInformation.GatewayIPAddressInformationCollection</title>
<!-- Node6 -->
<g id="node1" class="node"><title>Node6</title>
<g id="a_node1"><a xlink:title="Stores a set of T:System.Net.NetworkInformation.GatewayIPAddressInformation types.">
<polygon fill="#bfbfbf" stroke="black" points="199,-39 199,-69 389,-69 389,-39 199,-39"/>
<text text-anchor="start" x="207" y="-57" font-family="Helvetica,sans-Serif" font-size="10.00">System.Net.NetworkInformation.</text>
<text text-anchor="middle" x="294" y="-46" font-family="Helvetica,sans-Serif" font-size="10.00">GatewayIPAddressInformationCollection</text>
</a>
</g>
</g>
<!-- Node7 -->
<g id="node2" class="node"><title>Node7</title>
<g id="a_node2"><a xlink:href="interface_system_1_1_collections_1_1_i_collection.html" target="_top" xlink:title=" ">
<polygon fill="none" stroke="red" points="4.5,-88 4.5,-118 158.5,-118 158.5,-88 4.5,-88"/>
<text text-anchor="start" x="12.5" y="-106" font-family="Helvetica,sans-Serif" font-size="10.00">ICollection&lt; GatewayIPAddress</text>
<text text-anchor="middle" x="81.5" y="-95" font-family="Helvetica,sans-Serif" font-size="10.00">Information &gt;</text>
</a>
</g>
</g>
<!-- Node7&#45;&gt;Node6 -->
<g id="edge1" class="edge"><title>Node7&#45;&gt;Node6</title>
<path fill="none" stroke="midnightblue" d="M156.952,-85.6691C180.323,-80.2288 205.915,-74.2715 228.535,-69.0062"/>
<polygon fill="midnightblue" stroke="midnightblue" points="156.034,-82.2893 147.087,-87.9654 157.621,-89.107 156.034,-82.2893"/>
</g>
<!-- Node10 -->
<g id="node3" class="node"><title>Node10</title>
<g id="a_node3"><a xlink:href="interface_system_1_1_collections_1_1_i_enumerable.html" target="_top" xlink:title=" ">
<polygon fill="none" stroke="red" points="0,-39 0,-69 163,-69 163,-39 0,-39"/>
<text text-anchor="start" x="8" y="-57" font-family="Helvetica,sans-Serif" font-size="10.00">IEnumerable&lt; GatewayIPAddress</text>
<text text-anchor="middle" x="81.5" y="-46" font-family="Helvetica,sans-Serif" font-size="10.00">Information &gt;</text>
</a>
</g>
</g>
<!-- Node10&#45;&gt;Node6 -->
<g id="edge2" class="edge"><title>Node10&#45;&gt;Node6</title>
<path fill="none" stroke="midnightblue" d="M173.428,-54C181.807,-54 190.309,-54 198.717,-54"/>
<polygon fill="midnightblue" stroke="midnightblue" points="173.283,-50.5001 163.283,-54 173.283,-57.5001 173.283,-50.5001"/>
</g>
<!-- Node9 -->
<g id="node4" class="node"><title>Node9</title>
<g id="a_node4"><a xlink:href="interface_system_1_1_collections_1_1_i_enumerable.html" target="_top" xlink:title="Exposes an enumerator, which supports a simple iteration over a non&#45;generic collection....">
<polygon fill="none" stroke="black" points="46,-0.5 46,-19.5 117,-19.5 117,-0.5 46,-0.5"/>
<text text-anchor="middle" x="81.5" y="-7.5" font-family="Helvetica,sans-Serif" font-size="10.00">IEnumerable</text>
</a>
</g>
</g>
<!-- Node9&#45;&gt;Node6 -->
<g id="edge3" class="edge"><title>Node9&#45;&gt;Node6</title>
<path fill="none" stroke="midnightblue" d="M127.277,-19.3595C154.527,-25.0555 189.962,-32.4624 221.068,-38.9644"/>
<polygon fill="midnightblue" stroke="midnightblue" points="127.764,-15.8859 117.26,-17.2657 126.332,-22.7378 127.764,-15.8859"/>
</g>
</g>
</svg>
