<?xml version="1.0" encoding="UTF-8" standalone="no"?>
<!DOCTYPE svg PUBLIC "-//W3C//DTD SVG 1.1//EN"
 "http://www.w3.org/Graphics/SVG/1.1/DTD/svg11.dtd">
<!-- Generated by graphviz version 2.38.0 (20140413.2041)
 -->
<!-- Title: System.Security.Policy.Hash Pages: 1 -->
<svg width="174pt" height="84pt"
 viewBox="0.00 0.00 173.50 84.00" xmlns="http://www.w3.org/2000/svg" xmlns:xlink="http://www.w3.org/1999/xlink">
<g id="graph0" class="graph" transform="scale(1 1) rotate(0) translate(4 80)">
<title>System.Security.Policy.Hash</title>
<!-- Node0 -->
<g id="node1" class="node"><title>Node0</title>
<g id="a_node1"><a xlink:title="Provides evidence about the hash value for an assembly. This class cannot be inherited.">
<polygon fill="#bfbfbf" stroke="black" points="12.5,-0.5 12.5,-19.5 157.5,-19.5 157.5,-0.5 12.5,-0.5"/>
<text text-anchor="middle" x="85" y="-7.5" font-family="Helvetica,sans-Serif" font-size="10.00">System.Security.Policy.Hash</text>
</a>
</g>
</g>
<!-- Node1 -->
<g id="node2" class="node"><title>Node1</title>
<g id="a_node2"><a xlink:href="class_system_1_1_security_1_1_policy_1_1_evidence_base.html" target="_top" xlink:title="Provides a base class from which all objects to be used as evidence must derive.">
<polygon fill="none" stroke="black" points="0,-56.5 0,-75.5 78,-75.5 78,-56.5 0,-56.5"/>
<text text-anchor="middle" x="39" y="-63.5" font-family="Helvetica,sans-Serif" font-size="10.00">EvidenceBase</text>
</a>
</g>
</g>
<!-- Node1&#45;&gt;Node0 -->
<g id="edge1" class="edge"><title>Node1&#45;&gt;Node0</title>
<path fill="none" stroke="midnightblue" d="M53.114,-48.4314C61.176,-38.9673 70.9592,-27.4827 77.5454,-19.7511"/>
<polygon fill="midnightblue" stroke="midnightblue" points="50.4163,-46.2009 46.596,-56.083 55.745,-50.7402 50.4163,-46.2009"/>
</g>
<!-- Node2 -->
<g id="node3" class="node"><title>Node2</title>
<g id="a_node3"><a xlink:href="interface_system_1_1_runtime_1_1_serialization_1_1_i_serializable.html" target="_top" xlink:title="Allows an object to control its own serialization and deserialization.">
<polygon fill="none" stroke="black" points="96.5,-56.5 96.5,-75.5 165.5,-75.5 165.5,-56.5 96.5,-56.5"/>
<text text-anchor="middle" x="131" y="-63.5" font-family="Helvetica,sans-Serif" font-size="10.00">ISerializable</text>
</a>
</g>
</g>
<!-- Node2&#45;&gt;Node0 -->
<g id="edge2" class="edge"><title>Node2&#45;&gt;Node0</title>
<path fill="none" stroke="midnightblue" d="M116.886,-48.4314C108.824,-38.9673 99.0408,-27.4827 92.4546,-19.7511"/>
<polygon fill="midnightblue" stroke="midnightblue" points="114.255,-50.7402 123.404,-56.083 119.584,-46.2009 114.255,-50.7402"/>
</g>
</g>
</svg>
