<?xml version="1.0" encoding="UTF-8" standalone="no"?>
<!DOCTYPE svg PUBLIC "-//W3C//DTD SVG 1.1//EN"
 "http://www.w3.org/Graphics/SVG/1.1/DTD/svg11.dtd">
<!-- Generated by graphviz version 2.38.0 (20140413.2041)
 -->
<!-- Title: System.Reflection.RtFieldInfo Pages: 1 -->
<svg width="1446pt" height="546pt"
 viewBox="0.00 0.00 1446.00 546.00" xmlns="http://www.w3.org/2000/svg" xmlns:xlink="http://www.w3.org/1999/xlink">
<g id="graph0" class="graph" transform="scale(1 1) rotate(0) translate(4 542)">
<title>System.Reflection.RtFieldInfo</title>
<!-- Node9 -->
<g id="node1" class="node"><title>Node9</title>
<g id="a_node1"><a xlink:title=" ">
<polygon fill="#bfbfbf" stroke="black" points="1293,-194.5 1293,-213.5 1438,-213.5 1438,-194.5 1293,-194.5"/>
<text text-anchor="middle" x="1365.5" y="-201.5" font-family="Helvetica,sans-Serif" font-size="10.00">System.Reflection.RtFieldInfo</text>
</a>
</g>
</g>
<!-- Node10 -->
<g id="node2" class="node"><title>Node10</title>
<g id="a_node2"><a xlink:href="class_system_1_1_reflection_1_1_runtime_field_info.html" target="_top" xlink:title=" ">
<polygon fill="none" stroke="black" points="1166,-217.5 1166,-236.5 1255,-236.5 1255,-217.5 1166,-217.5"/>
<text text-anchor="middle" x="1210.5" y="-224.5" font-family="Helvetica,sans-Serif" font-size="10.00">RuntimeFieldInfo</text>
</a>
</g>
</g>
<!-- Node10&#45;&gt;Node9 -->
<g id="edge1" class="edge"><title>Node10&#45;&gt;Node9</title>
<path fill="none" stroke="midnightblue" d="M1265.33,-218.909C1276.94,-217.162 1289.33,-215.301 1301.27,-213.506"/>
<polygon fill="midnightblue" stroke="midnightblue" points="1264.71,-215.461 1255.34,-220.409 1265.75,-222.384 1264.71,-215.461"/>
</g>
<!-- Node11 -->
<g id="node3" class="node"><title>Node11</title>
<g id="a_node3"><a xlink:href="class_system_1_1_reflection_1_1_field_info.html" target="_top" xlink:title="Discovers the attributes of a field and provides access to field metadata.">
<polygon fill="none" stroke="black" points="275.5,-506.5 275.5,-525.5 328.5,-525.5 328.5,-506.5 275.5,-506.5"/>
<text text-anchor="middle" x="302" y="-513.5" font-family="Helvetica,sans-Serif" font-size="10.00">FieldInfo</text>
</a>
</g>
</g>
<!-- Node11&#45;&gt;Node10 -->
<g id="edge2" class="edge"><title>Node11&#45;&gt;Node10</title>
<path fill="none" stroke="midnightblue" d="M339.05,-513.845C376.604,-511.788 437.155,-509 489.5,-509 489.5,-509 489.5,-509 975,-509 1119.86,-509 1192.45,-286.294 1206.81,-236.707"/>
<polygon fill="midnightblue" stroke="midnightblue" points="338.419,-510.374 328.631,-514.429 338.811,-517.363 338.419,-510.374"/>
</g>
<!-- Node12 -->
<g id="node4" class="node"><title>Node12</title>
<g id="a_node4"><a xlink:href="class_system_1_1_reflection_1_1_member_info.html" target="_top" xlink:title="Obtains information about the attributes of a member and provides access to member metadata.">
<polygon fill="none" stroke="black" points="161,-449.5 161,-468.5 228,-468.5 228,-449.5 161,-449.5"/>
<text text-anchor="middle" x="194.5" y="-456.5" font-family="Helvetica,sans-Serif" font-size="10.00">MemberInfo</text>
</a>
</g>
</g>
<!-- Node12&#45;&gt;Node11 -->
<g id="edge3" class="edge"><title>Node12&#45;&gt;Node11</title>
<path fill="none" stroke="midnightblue" d="M219.585,-473.838C227.875,-478.803 237.269,-484.273 246,-489 257.225,-495.077 270.012,-501.389 280.429,-506.381"/>
<polygon fill="midnightblue" stroke="midnightblue" points="221.156,-470.697 210.788,-468.514 217.531,-476.686 221.156,-470.697"/>
</g>
<!-- Node19 -->
<g id="node11" class="node"><title>Node19</title>
<g id="a_node11"><a xlink:href="class_system_1_1_type.html" target="_top" xlink:title="Represents type declarations: class types, interface types, array types, value types,...">
<polygon fill="none" stroke="black" points="471.5,-363.5 471.5,-382.5 509.5,-382.5 509.5,-363.5 471.5,-363.5"/>
<text text-anchor="middle" x="490.5" y="-370.5" font-family="Helvetica,sans-Serif" font-size="10.00">Type</text>
</a>
</g>
</g>
<!-- Node12&#45;&gt;Node19 -->
<g id="edge11" class="edge"><title>Node12&#45;&gt;Node19</title>
<path fill="none" stroke="midnightblue" d="M238.428,-457.84C283.818,-455.329 356.766,-447.588 415,-424 439.988,-413.879 465.029,-394.336 478.772,-382.6"/>
<polygon fill="midnightblue" stroke="midnightblue" points="238.159,-454.349 228.343,-458.336 238.503,-461.34 238.159,-454.349"/>
</g>
<!-- Node22 -->
<g id="node14" class="node"><title>Node22</title>
<g id="a_node14"><a xlink:href="class_system_1_1_type.html" target="_top" xlink:title="Represents type declarations: class types, interface types, array types, value types,...">
<polygon fill="none" stroke="black" points="265,-363.5 265,-382.5 339,-382.5 339,-363.5 265,-363.5"/>
<text text-anchor="middle" x="302" y="-370.5" font-family="Helvetica,sans-Serif" font-size="10.00">System.Type</text>
</a>
</g>
</g>
<!-- Node12&#45;&gt;Node22 -->
<g id="edge15" class="edge"><title>Node12&#45;&gt;Node22</title>
<path fill="none" stroke="midnightblue" d="M215.128,-443C236.901,-425.251 271.319,-397.195 289.254,-382.575"/>
<polygon fill="midnightblue" stroke="midnightblue" points="212.733,-440.437 207.193,-449.468 217.156,-445.862 212.733,-440.437"/>
</g>
<!-- Node13 -->
<g id="node5" class="node"><title>Node13</title>
<g id="a_node5"><a xlink:href="interface_system_1_1_reflection_1_1_i_custom_attribute_provider.html" target="_top" xlink:title="Provides custom attributes for reflection objects that support them.">
<polygon fill="none" stroke="black" points="0,-287.5 0,-306.5 124,-306.5 124,-287.5 0,-287.5"/>
<text text-anchor="middle" x="62" y="-294.5" font-family="Helvetica,sans-Serif" font-size="10.00">ICustomAttributeProvider</text>
</a>
</g>
</g>
<!-- Node13&#45;&gt;Node12 -->
<g id="edge4" class="edge"><title>Node13&#45;&gt;Node12</title>
<path fill="none" stroke="midnightblue" d="M74.6198,-315.154C91.9477,-341.634 126.259,-391.848 161,-430 167.313,-436.933 175.136,-443.954 181.524,-449.35"/>
<polygon fill="midnightblue" stroke="midnightblue" points="77.4113,-313.026 69.0349,-306.539 71.5374,-316.834 77.4113,-313.026"/>
</g>
<!-- Node26 -->
<g id="node18" class="node"><title>Node26</title>
<g id="a_node18"><a xlink:href="class_system_1_1_reflection_1_1_module.html" target="_top" xlink:title="Performs reflection on a module.">
<polygon fill="none" stroke="black" points="691,-42.5 691,-61.5 822,-61.5 822,-42.5 691,-42.5"/>
<text text-anchor="middle" x="756.5" y="-49.5" font-family="Helvetica,sans-Serif" font-size="10.00">System.Reflection.Module</text>
</a>
</g>
</g>
<!-- Node13&#45;&gt;Node26 -->
<g id="edge29" class="edge"><title>Node13&#45;&gt;Node26</title>
<path fill="none" stroke="midnightblue" d="M64.1074,-276.966C68.5582,-217.807 90.3202,-48 193.5,-48 193.5,-48 193.5,-48 491.5,-48 559.57,-48 637.502,-49.346 690.949,-50.4764"/>
<polygon fill="midnightblue" stroke="midnightblue" points="60.5956,-277.03 63.4291,-287.239 67.5804,-277.491 60.5956,-277.03"/>
</g>
<!-- Node29 -->
<g id="node21" class="node"><title>Node29</title>
<g id="a_node21"><a xlink:href="class_system_1_1_reflection_1_1_assembly.html" target="_top" xlink:title="Represents an assembly, which is a reusable, versionable, and self&#45;describing building block of a com...">
<polygon fill="none" stroke="black" points="685,-265.5 685,-284.5 828,-284.5 828,-265.5 685,-265.5"/>
<text text-anchor="middle" x="756.5" y="-272.5" font-family="Helvetica,sans-Serif" font-size="10.00">System.Reflection.Assembly</text>
</a>
</g>
</g>
<!-- Node13&#45;&gt;Node29 -->
<g id="edge35" class="edge"><title>Node13&#45;&gt;Node29</title>
<path fill="none" stroke="midnightblue" d="M134.275,-297C153.501,-297 174.295,-297 193.5,-297 193.5,-297 193.5,-297 491.5,-297 557.154,-297 631.676,-290.159 684.761,-284.107"/>
<polygon fill="midnightblue" stroke="midnightblue" points="134.079,-293.5 124.079,-297 134.079,-300.5 134.079,-293.5"/>
</g>
<!-- Node14 -->
<g id="node6" class="node"><title>Node14</title>
<g id="a_node6"><a xlink:href="interface_system_1_1_runtime_1_1_interop_services_1_1___member_info.html" target="_top" xlink:title="Exposes the public members of the T:System.Reflection.MemberInfo class to unmanaged code.">
<polygon fill="none" stroke="black" points="26,-449.5 26,-468.5 98,-468.5 98,-449.5 26,-449.5"/>
<text text-anchor="middle" x="62" y="-456.5" font-family="Helvetica,sans-Serif" font-size="10.00">_MemberInfo</text>
</a>
</g>
</g>
<!-- Node14&#45;&gt;Node12 -->
<g id="edge5" class="edge"><title>Node14&#45;&gt;Node12</title>
<path fill="none" stroke="midnightblue" d="M108.711,-459C125.899,-459 145.079,-459 160.844,-459"/>
<polygon fill="midnightblue" stroke="midnightblue" points="108.315,-455.5 98.3152,-459 108.315,-462.5 108.315,-455.5"/>
</g>
<!-- Node15 -->
<g id="node7" class="node"><title>Node15</title>
<g id="a_node7"><a xlink:href="interface_system_1_1_runtime_1_1_interop_services_1_1___field_info.html" target="_top" xlink:title="Exposes the public members of the T:System.Reflection.FieldInfo class to unmanaged code.">
<polygon fill="none" stroke="black" points="165.5,-518.5 165.5,-537.5 223.5,-537.5 223.5,-518.5 165.5,-518.5"/>
<text text-anchor="middle" x="194.5" y="-525.5" font-family="Helvetica,sans-Serif" font-size="10.00">_FieldInfo</text>
</a>
</g>
</g>
<!-- Node15&#45;&gt;Node11 -->
<g id="edge6" class="edge"><title>Node15&#45;&gt;Node11</title>
<path fill="none" stroke="midnightblue" d="M233.926,-523.629C247.65,-522.068 262.774,-520.348 275.181,-518.937"/>
<polygon fill="midnightblue" stroke="midnightblue" points="233.312,-520.176 223.772,-524.784 234.104,-527.132 233.312,-520.176"/>
</g>
<!-- Node16 -->
<g id="node8" class="node"><title>Node16</title>
<g id="a_node8"><a xlink:href="interface_system_1_1_runtime_1_1_serialization_1_1_i_serializable.html" target="_top" xlink:title="Allows an object to control its own serialization and deserialization.">
<polygon fill="none" stroke="black" points="456,-160.5 456,-179.5 525,-179.5 525,-160.5 456,-160.5"/>
<text text-anchor="middle" x="490.5" y="-167.5" font-family="Helvetica,sans-Serif" font-size="10.00">ISerializable</text>
</a>
</g>
</g>
<!-- Node16&#45;&gt;Node10 -->
<g id="edge7" class="edge"><title>Node16&#45;&gt;Node10</title>
<path fill="none" stroke="midnightblue" d="M535.304,-178.438C571.088,-185.758 622.793,-197.316 667,-211 675.2,-213.538 676.589,-216.287 685,-218 755.149,-232.291 774.426,-221.495 846,-223 961.468,-225.428 1097.6,-226.429 1165.85,-226.802"/>
<polygon fill="midnightblue" stroke="midnightblue" points="535.69,-174.945 525.194,-176.396 534.304,-181.806 535.69,-174.945"/>
</g>
<!-- Node17 -->
<g id="node9" class="node"><title>Node17</title>
<g id="a_node9"><a xlink:href="class_system_1_1_runtime_type.html" target="_top" xlink:title=" ">
<polygon fill="none" stroke="black" points="919,-169.5 919,-188.5 1029,-188.5 1029,-169.5 919,-169.5"/>
<text text-anchor="middle" x="974" y="-176.5" font-family="Helvetica,sans-Serif" font-size="10.00">System.RuntimeType</text>
</a>
</g>
</g>
<!-- Node16&#45;&gt;Node17 -->
<g id="edge20" class="edge"><title>Node16&#45;&gt;Node17</title>
<path fill="none" stroke="midnightblue" d="M535.671,-163.245C600.066,-154.364 723.442,-140.997 828,-151 864.497,-154.492 905.464,-162.819 934.519,-169.491"/>
<polygon fill="midnightblue" stroke="midnightblue" points="534.892,-159.821 525.478,-164.682 535.869,-166.752 534.892,-159.821"/>
</g>
<!-- Node25 -->
<g id="node17" class="node"><title>Node25</title>
<g id="a_node17"><a xlink:href="struct_system_1_1_runtime_type_handle.html" target="_top" xlink:title="Represents a type using an internal metadata token.">
<polygon fill="none" stroke="black" points="686.5,-160.5 686.5,-179.5 826.5,-179.5 826.5,-160.5 686.5,-160.5"/>
<text text-anchor="middle" x="756.5" y="-167.5" font-family="Helvetica,sans-Serif" font-size="10.00">System.RuntimeTypeHandle</text>
</a>
</g>
</g>
<!-- Node16&#45;&gt;Node25 -->
<g id="edge24" class="edge"><title>Node16&#45;&gt;Node25</title>
<path fill="none" stroke="midnightblue" d="M535.445,-170C576.575,-170 638.674,-170 686.429,-170"/>
<polygon fill="midnightblue" stroke="midnightblue" points="535.204,-166.5 525.204,-170 535.204,-173.5 535.204,-166.5"/>
</g>
<!-- Node16&#45;&gt;Node26 -->
<g id="edge28" class="edge"><title>Node16&#45;&gt;Node26</title>
<path fill="none" stroke="midnightblue" d="M515.696,-155.016C525.772,-148.665 537.538,-141.102 548,-134 556.165,-128.457 557.145,-125.355 566,-121 608.02,-100.333 626.079,-113.765 667,-91 676.354,-85.7964 675.716,-80.3277 685,-75 694.715,-69.4249 705.969,-64.9827 716.594,-61.5474"/>
<polygon fill="midnightblue" stroke="midnightblue" points="513.621,-152.186 507.004,-160.46 517.337,-158.118 513.621,-152.186"/>
</g>
<!-- Node16&#45;&gt;Node29 -->
<g id="edge36" class="edge"><title>Node16&#45;&gt;Node29</title>
<path fill="none" stroke="midnightblue" d="M517.006,-184.625C531.127,-192.306 549.179,-201.455 566,-208 609.412,-224.89 625.738,-214.383 667,-236 676.224,-240.833 675.919,-245.903 685,-251 695.599,-256.948 707.919,-261.764 719.268,-265.477"/>
<polygon fill="midnightblue" stroke="midnightblue" points="518.365,-181.377 507.922,-179.593 514.973,-187.5 518.365,-181.377"/>
</g>
<!-- Node17&#45;&gt;Node10 -->
<g id="edge8" class="edge"><title>Node17&#45;&gt;Node10</title>
<path fill="none" stroke="#9a32cd" stroke-dasharray="5,2" d="M1039.49,-183.145C1072.11,-186.271 1112.09,-191.687 1147,-201 1151.17,-202.113 1171.16,-210.521 1187.43,-217.479"/>
<polygon fill="#9a32cd" stroke="#9a32cd" points="1039.45,-179.626 1029.17,-182.208 1038.81,-186.598 1039.45,-179.626"/>
<text text-anchor="middle" x="1097" y="-215" font-family="Helvetica,sans-Serif" font-size="10.00"> m_declaringType</text>
<text text-anchor="middle" x="1097" y="-204" font-family="Helvetica,sans-Serif" font-size="10.00">m_reflectedTypeCache</text>
</g>
<!-- Node18 -->
<g id="node10" class="node"><title>Node18</title>
<g id="a_node10"><a xlink:href="class_system_1_1_reflection_1_1_type_info.html" target="_top" xlink:title="Represents type declarations for class types, interface types, array types, value types,...">
<polygon fill="none" stroke="black" points="707,-320 707,-350 806,-350 806,-320 707,-320"/>
<text text-anchor="start" x="715" y="-338" font-family="Helvetica,sans-Serif" font-size="10.00">System::Reflection</text>
<text text-anchor="middle" x="756.5" y="-327" font-family="Helvetica,sans-Serif" font-size="10.00">::TypeInfo</text>
</a>
</g>
</g>
<!-- Node18&#45;&gt;Node17 -->
<g id="edge9" class="edge"><title>Node18&#45;&gt;Node17</title>
<path fill="none" stroke="midnightblue" d="M792.824,-314.785C804.113,-308.238 816.628,-300.887 828,-294 860.803,-274.135 870.78,-271.609 901,-248 925.558,-228.814 951.177,-202.496 964.224,-188.56"/>
<polygon fill="midnightblue" stroke="midnightblue" points="790.985,-311.806 784.079,-319.84 794.488,-317.866 790.985,-311.806"/>
</g>
<!-- Node19&#45;&gt;Node18 -->
<g id="edge10" class="edge"><title>Node19&#45;&gt;Node18</title>
<path fill="none" stroke="midnightblue" d="M520.044,-369.284C554.794,-364.716 615.252,-356.63 667,-349 679.927,-347.094 693.899,-344.931 706.839,-342.886"/>
<polygon fill="midnightblue" stroke="midnightblue" points="519.169,-365.868 509.709,-370.638 520.079,-372.809 519.169,-365.868"/>
</g>
<!-- Node20 -->
<g id="node12" class="node"><title>Node20</title>
<g id="a_node12"><a xlink:href="interface_system_1_1_runtime_1_1_interop_services_1_1___type.html" target="_top" xlink:title="Exposes the public members of the T:System.Type class to the unmanaged code.">
<polygon fill="none" stroke="black" points="173,-341.5 173,-360.5 216,-360.5 216,-341.5 173,-341.5"/>
<text text-anchor="middle" x="194.5" y="-348.5" font-family="Helvetica,sans-Serif" font-size="10.00">_Type</text>
</a>
</g>
</g>
<!-- Node20&#45;&gt;Node19 -->
<g id="edge12" class="edge"><title>Node20&#45;&gt;Node19</title>
<path fill="none" stroke="midnightblue" d="M226.798,-350.713C255.898,-350.669 300.436,-351.17 339,-354 387.065,-357.527 443.318,-365.72 471.491,-370.107"/>
<polygon fill="midnightblue" stroke="midnightblue" points="226.432,-347.214 216.446,-350.753 226.459,-354.214 226.432,-347.214"/>
</g>
<!-- Node20&#45;&gt;Node22 -->
<g id="edge16" class="edge"><title>Node20&#45;&gt;Node22</title>
<path fill="none" stroke="midnightblue" d="M226.115,-357.384C238.165,-359.897 252.097,-362.802 264.653,-365.42"/>
<polygon fill="midnightblue" stroke="midnightblue" points="226.596,-353.909 216.092,-355.294 225.167,-360.762 226.596,-353.909"/>
</g>
<!-- Node21 -->
<g id="node13" class="node"><title>Node21</title>
<g id="a_node13"><a xlink:href="interface_system_1_1_reflection_1_1_i_reflect.html" target="_top" xlink:title="Interoperates with the IDispatch interface.">
<polygon fill="none" stroke="black" points="170,-401.5 170,-420.5 219,-420.5 219,-401.5 170,-401.5"/>
<text text-anchor="middle" x="194.5" y="-408.5" font-family="Helvetica,sans-Serif" font-size="10.00">IReflect</text>
</a>
</g>
</g>
<!-- Node21&#45;&gt;Node19 -->
<g id="edge13" class="edge"><title>Node21&#45;&gt;Node19</title>
<path fill="none" stroke="midnightblue" d="M229.165,-416.832C240.512,-418.534 253.27,-420.16 265,-421 297.805,-423.348 306.502,-426.057 339,-421 388.32,-413.325 443.581,-392.302 471.407,-380.79"/>
<polygon fill="midnightblue" stroke="midnightblue" points="229.634,-413.363 219.212,-415.269 228.548,-420.278 229.634,-413.363"/>
</g>
<!-- Node21&#45;&gt;Node22 -->
<g id="edge17" class="edge"><title>Node21&#45;&gt;Node22</title>
<path fill="none" stroke="midnightblue" d="M228.91,-398.966C243.605,-393.673 260.624,-387.543 274.434,-382.569"/>
<polygon fill="midnightblue" stroke="midnightblue" points="227.398,-395.79 219.176,-402.472 229.771,-402.376 227.398,-395.79"/>
</g>
<!-- Node22&#45;&gt;Node17 -->
<g id="edge22" class="edge"><title>Node22&#45;&gt;Node17</title>
<path fill="none" stroke="#9a32cd" stroke-dasharray="5,2" d="M342.51,-385.036C347.356,-386.197 352.268,-387.228 357,-388 390.383,-393.448 399.187,-391.111 433,-392 609.106,-396.631 671.022,-438.954 828,-359 904.521,-320.026 954.433,-220.429 968.751,-188.798"/>
<polygon fill="#9a32cd" stroke="#9a32cd" points="343.289,-381.622 332.732,-382.51 341.539,-388.4 343.289,-381.622"/>
<text text-anchor="middle" x="616.5" y="-444" font-family="Helvetica,sans-Serif" font-size="10.00"> ReflectedType</text>
<text text-anchor="middle" x="616.5" y="-433" font-family="Helvetica,sans-Serif" font-size="10.00">DeclaringType</text>
<text text-anchor="middle" x="616.5" y="-422" font-family="Helvetica,sans-Serif" font-size="10.00">BaseType</text>
<text text-anchor="middle" x="616.5" y="-411" font-family="Helvetica,sans-Serif" font-size="10.00">UnderlyingSystemType</text>
</g>
<!-- Node22&#45;&gt;Node19 -->
<g id="edge14" class="edge"><title>Node22&#45;&gt;Node19</title>
<path fill="none" stroke="#9a32cd" stroke-dasharray="5,2" d="M349.576,-373C388.978,-373 443.361,-373 471.306,-373"/>
<polygon fill="#9a32cd" stroke="#9a32cd" points="349.402,-369.5 339.402,-373 349.402,-376.5 349.402,-369.5"/>
<text text-anchor="middle" x="386" y="-376" font-family="Helvetica,sans-Serif" font-size="10.00"> EmptyTypes</text>
</g>
<!-- Node22&#45;&gt;Node22 -->
<g id="edge18" class="edge"><title>Node22&#45;&gt;Node22</title>
<path fill="none" stroke="#9a32cd" stroke-dasharray="5,2" d="M292.056,-392.766C292.837,-397.497 296.151,-401 302,-401 311.598,-401 314.372,-391.565 310.323,-382.757"/>
<polygon fill="#9a32cd" stroke="#9a32cd" points="295.533,-393.188 293.677,-382.757 288.623,-392.069 295.533,-393.188"/>
<text text-anchor="middle" x="302" y="-404" font-family="Helvetica,sans-Serif" font-size="10.00"> EmptyTypes</text>
</g>
<!-- Node23 -->
<g id="node15" class="node"><title>Node23</title>
<g id="a_node15"><a xlink:href="interface_system_1_1_reflection_1_1_i_reflectable_type.html" target="_top" xlink:title="Represents a type that you can reflect over.">
<polygon fill="none" stroke="black" points="446.5,-325.5 446.5,-344.5 534.5,-344.5 534.5,-325.5 446.5,-325.5"/>
<text text-anchor="middle" x="490.5" y="-332.5" font-family="Helvetica,sans-Serif" font-size="10.00">IReflectableType</text>
</a>
</g>
</g>
<!-- Node23&#45;&gt;Node18 -->
<g id="edge19" class="edge"><title>Node23&#45;&gt;Node18</title>
<path fill="none" stroke="midnightblue" d="M544.563,-335C591.91,-335 660.674,-335 706.683,-335"/>
<polygon fill="midnightblue" stroke="midnightblue" points="544.504,-331.5 534.504,-335 544.504,-338.5 544.504,-331.5"/>
</g>
<!-- Node24 -->
<g id="node16" class="node"><title>Node24</title>
<g id="a_node16"><a xlink:href="interface_system_1_1_i_cloneable.html" target="_top" xlink:title="Supports cloning, which creates a new instance of a class with the same value as an existing instance...">
<polygon fill="none" stroke="black" points="725.5,-84.5 725.5,-103.5 787.5,-103.5 787.5,-84.5 725.5,-84.5"/>
<text text-anchor="middle" x="756.5" y="-91.5" font-family="Helvetica,sans-Serif" font-size="10.00">ICloneable</text>
</a>
</g>
</g>
<!-- Node24&#45;&gt;Node17 -->
<g id="edge21" class="edge"><title>Node24&#45;&gt;Node17</title>
<path fill="none" stroke="midnightblue" d="M797.654,-96.2849C827.346,-99.2046 868.154,-105.855 901,-121 926.946,-132.964 951.62,-156.331 964.247,-169.46"/>
<polygon fill="midnightblue" stroke="midnightblue" points="797.916,-92.7944 787.647,-95.3999 797.299,-99.7672 797.916,-92.7944"/>
</g>
<!-- Node25&#45;&gt;Node17 -->
<g id="edge23" class="edge"><title>Node25&#45;&gt;Node17</title>
<path fill="none" stroke="#9a32cd" stroke-dasharray="5,2" d="M836.94,-172.475C857.786,-173.204 880.241,-174.062 901,-175 906.753,-175.26 912.763,-175.556 918.752,-175.866"/>
<polygon fill="#9a32cd" stroke="#9a32cd" points="836.966,-168.974 826.851,-172.127 836.724,-175.97 836.966,-168.974"/>
<text text-anchor="middle" x="873.5" y="-178" font-family="Helvetica,sans-Serif" font-size="10.00"> TypeHandle</text>
</g>
<!-- Node25&#45;&gt;Node25 -->
<g id="edge25" class="edge"><title>Node25&#45;&gt;Node25</title>
<path fill="none" stroke="#9a32cd" stroke-dasharray="5,2" d="M735.02,-189.4C736.454,-194.315 743.614,-198 756.5,-198 777.117,-198 783.077,-188.565 774.379,-179.757"/>
<polygon fill="#9a32cd" stroke="#9a32cd" points="738.401,-190.35 738.621,-179.757 731.843,-187.9 738.401,-190.35"/>
<text text-anchor="middle" x="756.5" y="-201" font-family="Helvetica,sans-Serif" font-size="10.00"> EmptyHandle</text>
</g>
<!-- Node26&#45;&gt;Node10 -->
<g id="edge37" class="edge"><title>Node26&#45;&gt;Node10</title>
<path fill="none" stroke="#9a32cd" stroke-dasharray="5,2" d="M832.402,-53.1605C854.759,-54.867 879.128,-58.095 901,-64 1017.88,-95.5558 1055.45,-101.774 1147,-181 1157.91,-190.438 1153.91,-198.785 1165,-208 1169.52,-211.757 1174.9,-214.881 1180.33,-217.435"/>
<polygon fill="#9a32cd" stroke="#9a32cd" points="832.5,-49.6593 822.287,-52.4794 832.029,-56.6435 832.5,-49.6593"/>
<text text-anchor="middle" x="974" y="-106" font-family="Helvetica,sans-Serif" font-size="10.00"> Module</text>
</g>
<!-- Node26&#45;&gt;Node17 -->
<g id="edge26" class="edge"><title>Node26&#45;&gt;Node17</title>
<path fill="none" stroke="#9a32cd" stroke-dasharray="5,2" d="M832.045,-62.4035C855.424,-68.0377 880.464,-76.6994 901,-90 933.195,-110.852 957.769,-150.848 967.914,-169.271"/>
<polygon fill="#9a32cd" stroke="#9a32cd" points="832.67,-58.9567 822.145,-60.1695 831.129,-65.785 832.67,-58.9567"/>
<text text-anchor="middle" x="873.5" y="-93" font-family="Helvetica,sans-Serif" font-size="10.00"> Module</text>
</g>
<!-- Node27 -->
<g id="node19" class="node"><title>Node27</title>
<g id="a_node19"><a xlink:href="interface_system_1_1_runtime_1_1_interop_services_1_1___module.html" target="_top" xlink:title="Exposes the T:System.Reflection.Module class to unmanaged code.">
<polygon fill="none" stroke="black" points="464,-0.5 464,-19.5 517,-19.5 517,-0.5 464,-0.5"/>
<text text-anchor="middle" x="490.5" y="-7.5" font-family="Helvetica,sans-Serif" font-size="10.00">_Module</text>
</a>
</g>
</g>
<!-- Node27&#45;&gt;Node26 -->
<g id="edge27" class="edge"><title>Node27&#45;&gt;Node26</title>
<path fill="none" stroke="midnightblue" d="M527.506,-14.2319C563.055,-18.5729 618.918,-25.8314 667,-34 681.53,-36.4685 697.322,-39.5511 711.49,-42.464"/>
<polygon fill="midnightblue" stroke="midnightblue" points="527.504,-10.7063 517.156,-12.9805 526.664,-17.6556 527.504,-10.7063"/>
</g>
<!-- Node28 -->
<g id="node20" class="node"><title>Node28</title>
<g id="a_node20"><a xlink:href="struct_system_1_1_module_handle.html" target="_top" xlink:title="Represents a runtime handle for a module.">
<polygon fill="none" stroke="black" points="433,-76.5 433,-95.5 548,-95.5 548,-76.5 433,-76.5"/>
<text text-anchor="middle" x="490.5" y="-83.5" font-family="Helvetica,sans-Serif" font-size="10.00">System.ModuleHandle</text>
</a>
</g>
</g>
<!-- Node28&#45;&gt;Node26 -->
<g id="edge30" class="edge"><title>Node28&#45;&gt;Node26</title>
<path fill="none" stroke="#9a32cd" stroke-dasharray="5,2" d="M558.2,-77.4099C598.774,-72.1844 650.352,-65.5417 690.596,-60.3588"/>
<polygon fill="#9a32cd" stroke="#9a32cd" points="557.606,-73.9574 548.135,-78.7061 558.5,-80.9001 557.606,-73.9574"/>
<text text-anchor="middle" x="616.5" y="-79" font-family="Helvetica,sans-Serif" font-size="10.00"> ModuleHandle</text>
</g>
<!-- Node28&#45;&gt;Node28 -->
<g id="edge31" class="edge"><title>Node28&#45;&gt;Node28</title>
<path fill="none" stroke="#9a32cd" stroke-dasharray="5,2" d="M471.242,-105.4C472.528,-110.315 478.947,-114 490.5,-114 508.984,-114 514.328,-104.565 506.529,-95.7571"/>
<polygon fill="#9a32cd" stroke="#9a32cd" points="474.614,-106.351 474.471,-95.7571 467.976,-104.128 474.614,-106.351"/>
<text text-anchor="middle" x="490.5" y="-117" font-family="Helvetica,sans-Serif" font-size="10.00"> EmptyHandle</text>
</g>
<!-- Node29&#45;&gt;Node17 -->
<g id="edge32" class="edge"><title>Node29&#45;&gt;Node17</title>
<path fill="none" stroke="#9a32cd" stroke-dasharray="5,2" d="M788.354,-261.255C832.692,-241.504 913.297,-205.596 951.636,-188.517"/>
<polygon fill="#9a32cd" stroke="#9a32cd" points="786.661,-258.178 778.951,-265.444 789.51,-264.572 786.661,-258.178"/>
<text text-anchor="middle" x="873.5" y="-236" font-family="Helvetica,sans-Serif" font-size="10.00"> Assembly</text>
</g>
<!-- Node30 -->
<g id="node22" class="node"><title>Node30</title>
<g id="a_node22"><a xlink:href="interface_system_1_1_runtime_1_1_interop_services_1_1___assembly.html" target="_top" xlink:title="Exposes the public members of the T:System.Reflection.Assembly class to unmanaged code.">
<polygon fill="none" stroke="black" points="458,-249.5 458,-268.5 523,-268.5 523,-249.5 458,-249.5"/>
<text text-anchor="middle" x="490.5" y="-256.5" font-family="Helvetica,sans-Serif" font-size="10.00">_Assembly</text>
</a>
</g>
</g>
<!-- Node30&#45;&gt;Node29 -->
<g id="edge33" class="edge"><title>Node30&#45;&gt;Node29</title>
<path fill="none" stroke="midnightblue" d="M533.181,-261.526C573.858,-263.991 636.521,-267.789 684.964,-270.725"/>
<polygon fill="midnightblue" stroke="midnightblue" points="533.276,-258.026 523.082,-260.914 532.852,-265.013 533.276,-258.026"/>
</g>
<!-- Node31 -->
<g id="node23" class="node"><title>Node31</title>
<g id="a_node23"><a xlink:href="interface_system_1_1_security_1_1_i_evidence_factory.html" target="_top" xlink:title="Gets an object&#39;s T:System.Security.Policy.Evidence.">
<polygon fill="none" stroke="black" points="445,-211.5 445,-230.5 536,-230.5 536,-211.5 445,-211.5"/>
<text text-anchor="middle" x="490.5" y="-218.5" font-family="Helvetica,sans-Serif" font-size="10.00">IEvidenceFactory</text>
</a>
</g>
</g>
<!-- Node31&#45;&gt;Node29 -->
<g id="edge34" class="edge"><title>Node31&#45;&gt;Node29</title>
<path fill="none" stroke="midnightblue" d="M546.19,-232.187C594.184,-242.004 663.236,-256.128 708.715,-265.43"/>
<polygon fill="midnightblue" stroke="midnightblue" points="546.783,-228.735 536.284,-230.16 545.38,-235.593 546.783,-228.735"/>
</g>
<!-- Node32 -->
<g id="node24" class="node"><title>Node32</title>
<g id="a_node24"><a xlink:href="interface_system_1_1_i_runtime_field_info.html" target="_top" xlink:title=" ">
<polygon fill="none" stroke="black" points="1165,-179.5 1165,-198.5 1256,-198.5 1256,-179.5 1165,-179.5"/>
<text text-anchor="middle" x="1210.5" y="-186.5" font-family="Helvetica,sans-Serif" font-size="10.00">IRuntimeFieldInfo</text>
</a>
</g>
</g>
<!-- Node32&#45;&gt;Node9 -->
<g id="edge38" class="edge"><title>Node32&#45;&gt;Node9</title>
<path fill="none" stroke="midnightblue" d="M1266.37,-194.379C1274.92,-195.217 1283.86,-196.094 1292.72,-196.963"/>
<polygon fill="midnightblue" stroke="midnightblue" points="1266.46,-190.871 1256.17,-193.379 1265.78,-197.838 1266.46,-190.871"/>
</g>
</g>
</svg>
