<?xml version="1.0" encoding="UTF-8" standalone="no"?>
<!DOCTYPE svg PUBLIC "-//W3C//DTD SVG 1.1//EN"
 "http://www.w3.org/Graphics/SVG/1.1/DTD/svg11.dtd">
<!-- Generated by graphviz version 2.38.0 (20140413.2041)
 -->
<!-- Title: System.Runtime.Remoting.Messaging.ErrorMessage Pages: 1 -->
<svg width="174pt" height="207pt"
 viewBox="0.00 0.00 174.14 207.00" xmlns="http://www.w3.org/2000/svg" xmlns:xlink="http://www.w3.org/1999/xlink">
<g id="graph0" class="graph" transform="scale(1 1) rotate(0) translate(4 203)">
<title>System.Runtime.Remoting.Messaging.ErrorMessage</title>
<!-- Node0 -->
<g id="node1" class="node"><title>Node0</title>
<g id="a_node1"><a xlink:title=" ">
<polygon fill="#bfbfbf" stroke="black" points="0.14095,-0.5 0.14095,-30.5 137.141,-30.5 137.141,-0.5 0.14095,-0.5"/>
<text text-anchor="start" x="8.14095" y="-18.5" font-family="Helvetica,sans-Serif" font-size="10.00">System.Runtime.Remoting.</text>
<text text-anchor="middle" x="68.6409" y="-7.5" font-family="Helvetica,sans-Serif" font-size="10.00">Messaging.ErrorMessage</text>
</a>
</g>
</g>
<!-- Node1 -->
<g id="node2" class="node"><title>Node1</title>
<g id="a_node2"><a xlink:href="interface_system_1_1_runtime_1_1_remoting_1_1_messaging_1_1_i_method_call_message.html" target="_top" xlink:title="Defines the method call message interface.">
<polygon fill="none" stroke="black" points="15.1409,-67.5 15.1409,-86.5 122.141,-86.5 122.141,-67.5 15.1409,-67.5"/>
<text text-anchor="middle" x="68.6409" y="-74.5" font-family="Helvetica,sans-Serif" font-size="10.00">IMethodCallMessage</text>
</a>
</g>
</g>
<!-- Node1&#45;&gt;Node0 -->
<g id="edge1" class="edge"><title>Node1&#45;&gt;Node0</title>
<path fill="none" stroke="midnightblue" d="M68.6409,-57.2349C68.6409,-48.5864 68.6409,-38.4969 68.6409,-30.523"/>
<polygon fill="midnightblue" stroke="midnightblue" points="65.141,-57.4751 68.6409,-67.4751 72.141,-57.4751 65.141,-57.4751"/>
</g>
<!-- Node2 -->
<g id="node3" class="node"><title>Node2</title>
<g id="a_node3"><a xlink:href="interface_system_1_1_runtime_1_1_remoting_1_1_messaging_1_1_i_method_message.html" target="_top" xlink:title="Defines the method message interface.">
<polygon fill="none" stroke="black" points="75.1409,-123.5 75.1409,-142.5 166.141,-142.5 166.141,-123.5 75.1409,-123.5"/>
<text text-anchor="middle" x="120.641" y="-130.5" font-family="Helvetica,sans-Serif" font-size="10.00">IMethodMessage</text>
</a>
</g>
</g>
<!-- Node2&#45;&gt;Node0 -->
<g id="edge5" class="edge"><title>Node2&#45;&gt;Node0</title>
<path fill="none" stroke="midnightblue" d="M129.423,-113.536C134.519,-100.056 138.676,-81.6547 131.641,-67 124.18,-51.4563 109.345,-39.1912 95.9439,-30.6424"/>
<polygon fill="midnightblue" stroke="midnightblue" points="126.036,-112.554 125.331,-123.126 132.475,-115.302 126.036,-112.554"/>
</g>
<!-- Node2&#45;&gt;Node1 -->
<g id="edge2" class="edge"><title>Node2&#45;&gt;Node1</title>
<path fill="none" stroke="midnightblue" d="M104.962,-115.718C95.7963,-106.2 84.5884,-94.5608 77.0679,-86.7511"/>
<polygon fill="midnightblue" stroke="midnightblue" points="102.597,-118.308 112.054,-123.083 107.639,-113.452 102.597,-118.308"/>
</g>
<!-- Node3 -->
<g id="node4" class="node"><title>Node3</title>
<g id="a_node4"><a xlink:href="interface_system_1_1_runtime_1_1_remoting_1_1_messaging_1_1_i_message.html" target="_top" xlink:title="Contains communication data sent between cooperating message sinks.">
<polygon fill="none" stroke="black" points="17.1409,-179.5 17.1409,-198.5 76.1409,-198.5 76.1409,-179.5 17.1409,-179.5"/>
<text text-anchor="middle" x="46.6409" y="-186.5" font-family="Helvetica,sans-Serif" font-size="10.00">IMessage</text>
</a>
</g>
</g>
<!-- Node3&#45;&gt;Node0 -->
<g id="edge6" class="edge"><title>Node3&#45;&gt;Node0</title>
<path fill="none" stroke="midnightblue" d="M32.8522,-171.151C15.1201,-147.303 -11.4665,-102.638 5.64095,-67 13.1024,-51.4563 27.9374,-39.1912 41.338,-30.6424"/>
<polygon fill="midnightblue" stroke="midnightblue" points="30.2096,-173.455 39.1051,-179.21 35.74,-169.164 30.2096,-173.455"/>
</g>
<!-- Node3&#45;&gt;Node1 -->
<g id="edge4" class="edge"><title>Node3&#45;&gt;Node1</title>
<path fill="none" stroke="midnightblue" d="M50.3713,-169.348C55.1902,-145.254 63.3794,-104.308 66.9227,-86.5914"/>
<polygon fill="midnightblue" stroke="midnightblue" points="46.8965,-168.876 48.3673,-179.368 53.7605,-170.249 46.8965,-168.876"/>
</g>
<!-- Node3&#45;&gt;Node2 -->
<g id="edge3" class="edge"><title>Node3&#45;&gt;Node2</title>
<path fill="none" stroke="midnightblue" d="M66.6753,-173.38C80.05,-163.62 97.1998,-151.106 108.535,-142.834"/>
<polygon fill="midnightblue" stroke="midnightblue" points="64.5451,-170.602 58.5303,-179.324 68.6714,-176.257 64.5451,-170.602"/>
</g>
</g>
</svg>
