<?xml version="1.0" encoding="UTF-8" standalone="no"?>
<!DOCTYPE svg PUBLIC "-//W3C//DTD SVG 1.1//EN"
 "http://www.w3.org/Graphics/SVG/1.1/DTD/svg11.dtd">
<!-- Generated by graphviz version 2.38.0 (20140413.2041)
 -->
<!-- Title: System.Diagnostics.Eventing.Reader.EventLogException Pages: 1 -->
<svg width="155pt" height="151pt"
 viewBox="0.00 0.00 155.00 151.00" xmlns="http://www.w3.org/2000/svg" xmlns:xlink="http://www.w3.org/1999/xlink">
<g id="graph0" class="graph" transform="scale(1 1) rotate(0) translate(4 147)">
<title>System.Diagnostics.Eventing.Reader.EventLogException</title>
<!-- Node8 -->
<g id="node1" class="node"><title>Node8</title>
<g id="a_node1"><a xlink:title="Represents the base class for all the exceptions that are thrown when an error occurs while reading e...">
<polygon fill="#bfbfbf" stroke="black" points="0,-0.5 0,-30.5 147,-30.5 147,-0.5 0,-0.5"/>
<text text-anchor="start" x="8" y="-18.5" font-family="Helvetica,sans-Serif" font-size="10.00">System.Diagnostics.Eventing.</text>
<text text-anchor="middle" x="73.5" y="-7.5" font-family="Helvetica,sans-Serif" font-size="10.00">Reader.EventLogException</text>
</a>
</g>
</g>
<!-- Node9 -->
<g id="node2" class="node"><title>Node9</title>
<g id="a_node2"><a xlink:href="class_system_1_1_exception.html" target="_top" xlink:title="Represents errors that occur during application execution.To browse the .NET Framework source code fo...">
<polygon fill="none" stroke="red" points="72.5,-67.5 72.5,-86.5 132.5,-86.5 132.5,-67.5 72.5,-67.5"/>
<text text-anchor="middle" x="102.5" y="-74.5" font-family="Helvetica,sans-Serif" font-size="10.00">Exception</text>
</a>
</g>
</g>
<!-- Node9&#45;&gt;Node8 -->
<g id="edge1" class="edge"><title>Node9&#45;&gt;Node8</title>
<path fill="none" stroke="midnightblue" d="M93.9179,-58.392C89.5828,-49.4976 84.3958,-38.8553 80.3347,-30.523"/>
<polygon fill="midnightblue" stroke="midnightblue" points="90.8175,-60.0194 98.345,-67.4751 97.1099,-56.9525 90.8175,-60.0194"/>
</g>
<!-- Node10 -->
<g id="node3" class="node"><title>Node10</title>
<g id="a_node3"><a xlink:href="interface_system_1_1_runtime_1_1_serialization_1_1_i_serializable.html" target="_top" xlink:title="Allows an object to control its own serialization and deserialization.">
<polygon fill="none" stroke="black" points="39,-123.5 39,-142.5 108,-142.5 108,-123.5 39,-123.5"/>
<text text-anchor="middle" x="73.5" y="-130.5" font-family="Helvetica,sans-Serif" font-size="10.00">ISerializable</text>
</a>
</g>
</g>
<!-- Node10&#45;&gt;Node8 -->
<g id="edge3" class="edge"><title>Node10&#45;&gt;Node8</title>
<path fill="none" stroke="midnightblue" d="M68.4626,-113.625C66.4917,-105.528 64.4726,-95.8602 63.5,-87 61.3417,-67.3387 65.7876,-44.715 69.4254,-30.512"/>
<polygon fill="midnightblue" stroke="midnightblue" points="65.1171,-114.667 71.0176,-123.467 71.8926,-112.908 65.1171,-114.667"/>
</g>
<!-- Node10&#45;&gt;Node9 -->
<g id="edge2" class="edge"><title>Node10&#45;&gt;Node9</title>
<path fill="none" stroke="midnightblue" d="M83.1759,-113.983C88.0984,-104.817 93.8579,-94.0922 97.8003,-86.7511"/>
<polygon fill="midnightblue" stroke="midnightblue" points="79.9366,-112.617 78.2888,-123.083 86.1036,-115.929 79.9366,-112.617"/>
</g>
</g>
</svg>
