<?xml version="1.0" encoding="UTF-8" standalone="no"?>
<!DOCTYPE svg PUBLIC "-//W3C//DTD SVG 1.1//EN"
 "http://www.w3.org/Graphics/SVG/1.1/DTD/svg11.dtd">
<!-- Generated by graphviz version 2.38.0 (20140413.2041)
 -->
<!-- Title: System.IO.BinaryWriter Pages: 1 -->
<svg width="206pt" height="152pt"
 viewBox="0.00 0.00 205.50 152.00" xmlns="http://www.w3.org/2000/svg" xmlns:xlink="http://www.w3.org/1999/xlink">
<g id="graph0" class="graph" transform="scale(1 1) rotate(0) translate(4 148)">
<title>System.IO.BinaryWriter</title>
<!-- Node2 -->
<g id="node1" class="node"><title>Node2</title>
<g id="a_node1"><a xlink:title="Writes primitive types in binary to a stream and supports writing strings in a specific encoding.">
<polygon fill="#bfbfbf" stroke="black" points="0.5,-0.5 0.5,-19.5 120.5,-19.5 120.5,-0.5 0.5,-0.5"/>
<text text-anchor="middle" x="60.5" y="-7.5" font-family="Helvetica,sans-Serif" font-size="10.00">System.IO.BinaryWriter</text>
</a>
</g>
</g>
<!-- Node2&#45;&gt;Node2 -->
<g id="edge2" class="edge"><title>Node2&#45;&gt;Node2</title>
<path fill="none" stroke="#9a32cd" stroke-dasharray="5,2" d="M130.935,-14.3066C135.644,-13.3105 138.5,-11.875 138.5,-10 138.5,-7 131.188,-5.125 120.676,-4.375"/>
<polygon fill="#9a32cd" stroke="#9a32cd" points="130.148,-10.8789 120.676,-15.625 131.04,-17.8218 130.148,-10.8789"/>
<text text-anchor="middle" x="148.5" y="-7.5" font-family="Helvetica,sans-Serif" font-size="10.00"> Null</text>
</g>
<!-- Node3 -->
<g id="node2" class="node"><title>Node3</title>
<g id="a_node2"><a xlink:href="interface_system_1_1_i_disposable.html" target="_top" xlink:title="Provides a mechanism for releasing unmanaged resources.To browse the .NET Framework source code for t...">
<polygon fill="none" stroke="black" points="0,-124.5 0,-143.5 67,-143.5 67,-124.5 0,-124.5"/>
<text text-anchor="middle" x="33.5" y="-131.5" font-family="Helvetica,sans-Serif" font-size="10.00">IDisposable</text>
</a>
</g>
</g>
<!-- Node3&#45;&gt;Node2 -->
<g id="edge1" class="edge"><title>Node3&#45;&gt;Node2</title>
<path fill="none" stroke="midnightblue" d="M37.6626,-114.191C43.5924,-87.3972 54.2338,-39.314 58.5758,-19.6944"/>
<polygon fill="midnightblue" stroke="midnightblue" points="34.1854,-113.706 35.4418,-124.226 41.02,-115.219 34.1854,-113.706"/>
</g>
<!-- Node4 -->
<g id="node3" class="node"><title>Node4</title>
<g id="a_node3"><a xlink:href="class_system_1_1_i_o_1_1_stream.html" target="_top" xlink:title="Provides a generic view of a sequence of bytes. This is an abstract class.To browse the ....">
<polygon fill="none" stroke="black" points="61.5,-67.5 61.5,-86.5 159.5,-86.5 159.5,-67.5 61.5,-67.5"/>
<text text-anchor="middle" x="110.5" y="-74.5" font-family="Helvetica,sans-Serif" font-size="10.00">System.IO.Stream</text>
</a>
</g>
</g>
<!-- Node3&#45;&gt;Node4 -->
<g id="edge5" class="edge"><title>Node3&#45;&gt;Node4</title>
<path fill="none" stroke="midnightblue" d="M53.7481,-118.537C68.0045,-108.354 86.6051,-95.0678 98.5532,-86.5334"/>
<polygon fill="midnightblue" stroke="midnightblue" points="51.6343,-115.746 45.5313,-124.406 55.703,-121.442 51.6343,-115.746"/>
</g>
<!-- Node4&#45;&gt;Node2 -->
<g id="edge3" class="edge"><title>Node4&#45;&gt;Node2</title>
<path fill="none" stroke="#9a32cd" stroke-dasharray="5,2" d="M97.6311,-59.2705C87.8825,-46.5972 74.8853,-29.701 67.1364,-19.6273"/>
<polygon fill="#9a32cd" stroke="#9a32cd" points="94.8854,-61.4416 103.757,-67.2338 100.434,-57.1735 94.8854,-61.4416"/>
<text text-anchor="middle" x="114" y="-41" font-family="Helvetica,sans-Serif" font-size="10.00"> OutStream</text>
</g>
<!-- Node4&#45;&gt;Node4 -->
<g id="edge6" class="edge"><title>Node4&#45;&gt;Node4</title>
<path fill="none" stroke="#9a32cd" stroke-dasharray="5,2" d="M169.823,-81.0033C174.565,-80.1289 177.5,-78.7944 177.5,-77 177.5,-74.1289 169.986,-72.4354 159.58,-71.9195"/>
<polygon fill="#9a32cd" stroke="#9a32cd" points="169.159,-77.5537 159.58,-82.0805 169.892,-84.5153 169.159,-77.5537"/>
<text text-anchor="middle" x="187.5" y="-74.5" font-family="Helvetica,sans-Serif" font-size="10.00"> Null</text>
</g>
<!-- Node5 -->
<g id="node4" class="node"><title>Node5</title>
<g id="a_node4"><a xlink:href="class_system_1_1_marshal_by_ref_object.html" target="_top" xlink:title="Enables access to objects across application domain boundaries in applications that support remoting.">
<polygon fill="none" stroke="black" points="85.5,-124.5 85.5,-143.5 191.5,-143.5 191.5,-124.5 85.5,-124.5"/>
<text text-anchor="middle" x="138.5" y="-131.5" font-family="Helvetica,sans-Serif" font-size="10.00">MarshalByRefObject</text>
</a>
</g>
</g>
<!-- Node5&#45;&gt;Node4 -->
<g id="edge4" class="edge"><title>Node5&#45;&gt;Node4</title>
<path fill="none" stroke="midnightblue" d="M129.506,-115.334C124.637,-105.77 118.838,-94.3784 114.937,-86.7149"/>
<polygon fill="midnightblue" stroke="midnightblue" points="126.469,-117.083 134.125,-124.406 132.707,-113.907 126.469,-117.083"/>
</g>
</g>
</svg>
