<?xml version="1.0" encoding="UTF-8" standalone="no"?>
<!DOCTYPE svg PUBLIC "-//W3C//DTD SVG 1.1//EN"
 "http://www.w3.org/Graphics/SVG/1.1/DTD/svg11.dtd">
<!-- Generated by graphviz version 2.38.0 (20140413.2041)
 -->
<!-- Title: System.Diagnostics.Tracing.EventSourceCreatedEventArgs Pages: 1 -->
<svg width="182pt" height="163pt"
 viewBox="0.00 0.00 181.50 163.00" xmlns="http://www.w3.org/2000/svg" xmlns:xlink="http://www.w3.org/1999/xlink">
<g id="graph0" class="graph" transform="scale(1 1) rotate(0) translate(4 159)">
<title>System.Diagnostics.Tracing.EventSourceCreatedEventArgs</title>
<!-- Node2 -->
<g id="node1" class="node"><title>Node2</title>
<g id="a_node1"><a xlink:title="Provides data for the E:System.Diagnostics.Tracing.EventListener.EventSourceCreated event.">
<polygon fill="#bfbfbf" stroke="black" points="0,-0.5 0,-30.5 149,-30.5 149,-0.5 0,-0.5"/>
<text text-anchor="start" x="8" y="-18.5" font-family="Helvetica,sans-Serif" font-size="10.00">System.Diagnostics.Tracing.</text>
<text text-anchor="middle" x="74.5" y="-7.5" font-family="Helvetica,sans-Serif" font-size="10.00">EventSourceCreatedEventArgs</text>
</a>
</g>
</g>
<!-- Node3 -->
<g id="node2" class="node"><title>Node3</title>
<g id="a_node2"><a xlink:href="class_system_1_1_event_args.html" target="_top" xlink:title="Represents the base class for classes that contain event data, and provides a value to use for events...">
<polygon fill="none" stroke="black" points="44,-68.5 44,-87.5 105,-87.5 105,-68.5 44,-68.5"/>
<text text-anchor="middle" x="74.5" y="-75.5" font-family="Helvetica,sans-Serif" font-size="10.00">EventArgs</text>
</a>
</g>
</g>
<!-- Node3&#45;&gt;Node2 -->
<g id="edge1" class="edge"><title>Node3&#45;&gt;Node2</title>
<path fill="none" stroke="midnightblue" d="M74.5,-58.2154C74.5,-49.3565 74.5,-38.9577 74.5,-30.7587"/>
<polygon fill="midnightblue" stroke="midnightblue" points="71.0001,-58.3318 74.5,-68.3318 78.0001,-58.3319 71.0001,-58.3318"/>
</g>
<!-- Node4 -->
<g id="node3" class="node"><title>Node4</title>
<g id="a_node3"><a xlink:href="class_system_1_1_event_args.html" target="_top" xlink:title="Represents the base class for classes that contain event data, and provides a value to use for events...">
<polygon fill="none" stroke="black" points="25.5,-135.5 25.5,-154.5 123.5,-154.5 123.5,-135.5 25.5,-135.5"/>
<text text-anchor="middle" x="74.5" y="-142.5" font-family="Helvetica,sans-Serif" font-size="10.00">System.EventArgs</text>
</a>
</g>
</g>
<!-- Node4&#45;&gt;Node3 -->
<g id="edge2" class="edge"><title>Node4&#45;&gt;Node3</title>
<path fill="none" stroke="#9a32cd" stroke-dasharray="5,2" d="M74.5,-125.037C74.5,-112.67 74.5,-97.1198 74.5,-87.6273"/>
<polygon fill="#9a32cd" stroke="#9a32cd" points="71.0001,-125.234 74.5,-135.234 78.0001,-125.234 71.0001,-125.234"/>
<text text-anchor="middle" x="90.5" y="-109" font-family="Helvetica,sans-Serif" font-size="10.00"> Empty</text>
</g>
<!-- Node4&#45;&gt;Node4 -->
<g id="edge3" class="edge"><title>Node4&#45;&gt;Node4</title>
<path fill="none" stroke="#9a32cd" stroke-dasharray="5,2" d="M133.823,-149.575C138.565,-148.576 141.5,-147.051 141.5,-145 141.5,-141.719 133.986,-139.783 123.58,-139.194"/>
<polygon fill="#9a32cd" stroke="#9a32cd" points="133.091,-146.138 123.58,-150.806 133.927,-153.088 133.091,-146.138"/>
<text text-anchor="middle" x="157.5" y="-142.5" font-family="Helvetica,sans-Serif" font-size="10.00"> Empty</text>
</g>
</g>
</svg>
