<?xml version="1.0" encoding="UTF-8" standalone="no"?>
<!DOCTYPE svg PUBLIC "-//W3C//DTD SVG 1.1//EN"
 "http://www.w3.org/Graphics/SVG/1.1/DTD/svg11.dtd">
<!-- Generated by graphviz version 2.38.0 (20140413.2041)
 -->
<!-- Title: System.Runtime.Remoting.Messaging.MethodCall Pages: 1 -->
<svg width="636pt" height="160pt"
 viewBox="0.00 0.00 636.00 160.40" xmlns="http://www.w3.org/2000/svg" xmlns:xlink="http://www.w3.org/1999/xlink">
<g id="graph0" class="graph" transform="scale(1 1) rotate(0) translate(4 156.395)">
<title>System.Runtime.Remoting.Messaging.MethodCall</title>
<!-- Node6 -->
<g id="node1" class="node"><title>Node6</title>
<g id="a_node1"><a xlink:title="Implements the T:System.Runtime.Remoting.Messaging.IMethodCallMessage interface to create a request m...">
<polygon fill="#bfbfbf" stroke="black" points="491,-71 491,-101 628,-101 628,-71 491,-71"/>
<text text-anchor="start" x="499" y="-89" font-family="Helvetica,sans-Serif" font-size="10.00">System.Runtime.Remoting.</text>
<text text-anchor="middle" x="559.5" y="-78" font-family="Helvetica,sans-Serif" font-size="10.00">Messaging.MethodCall</text>
</a>
</g>
</g>
<!-- Node7 -->
<g id="node2" class="node"><title>Node7</title>
<g id="a_node2"><a xlink:href="interface_system_1_1_runtime_1_1_remoting_1_1_messaging_1_1_i_method_call_message.html" target="_top" xlink:title="Defines the method call message interface.">
<polygon fill="none" stroke="black" points="245.5,-114.5 245.5,-133.5 352.5,-133.5 352.5,-114.5 245.5,-114.5"/>
<text text-anchor="middle" x="299" y="-121.5" font-family="Helvetica,sans-Serif" font-size="10.00">IMethodCallMessage</text>
</a>
</g>
</g>
<!-- Node7&#45;&gt;Node6 -->
<g id="edge1" class="edge"><title>Node7&#45;&gt;Node6</title>
<path fill="none" stroke="midnightblue" d="M362.601,-115.691C395.491,-111.231 436.455,-105.526 473,-100 478.8,-99.1229 484.818,-98.1882 490.851,-97.2337"/>
<polygon fill="midnightblue" stroke="midnightblue" points="362.108,-112.226 352.667,-117.034 363.045,-119.163 362.108,-112.226"/>
</g>
<!-- Node8 -->
<g id="node3" class="node"><title>Node8</title>
<g id="a_node3"><a xlink:href="interface_system_1_1_runtime_1_1_remoting_1_1_messaging_1_1_i_method_message.html" target="_top" xlink:title="Defines the method message interface.">
<polygon fill="none" stroke="black" points="96,-88.5 96,-107.5 187,-107.5 187,-88.5 96,-88.5"/>
<text text-anchor="middle" x="141.5" y="-95.5" font-family="Helvetica,sans-Serif" font-size="10.00">IMethodMessage</text>
</a>
</g>
</g>
<!-- Node8&#45;&gt;Node6 -->
<g id="edge5" class="edge"><title>Node8&#45;&gt;Node6</title>
<path fill="none" stroke="midnightblue" d="M197.261,-96.4204C272.772,-94.2422 408.795,-90.3184 490.657,-87.957"/>
<polygon fill="midnightblue" stroke="midnightblue" points="196.914,-92.9288 187.019,-96.7158 197.116,-99.9259 196.914,-92.9288"/>
</g>
<!-- Node8&#45;&gt;Node7 -->
<g id="edge2" class="edge"><title>Node8&#45;&gt;Node7</title>
<path fill="none" stroke="midnightblue" d="M197.14,-107.136C212.829,-109.759 229.898,-112.613 245.457,-115.215"/>
<polygon fill="midnightblue" stroke="midnightblue" points="197.5,-103.648 187.06,-105.451 196.346,-110.552 197.5,-103.648"/>
</g>
<!-- Node9 -->
<g id="node4" class="node"><title>Node9</title>
<g id="a_node4"><a xlink:href="interface_system_1_1_runtime_1_1_remoting_1_1_messaging_1_1_i_message.html" target="_top" xlink:title="Contains communication data sent between cooperating message sinks.">
<polygon fill="none" stroke="black" points="0,-126.5 0,-145.5 59,-145.5 59,-126.5 0,-126.5"/>
<text text-anchor="middle" x="29.5" y="-133.5" font-family="Helvetica,sans-Serif" font-size="10.00">IMessage</text>
</a>
</g>
</g>
<!-- Node9&#45;&gt;Node6 -->
<g id="edge6" class="edge"><title>Node9&#45;&gt;Node6</title>
<path fill="none" stroke="midnightblue" d="M69.2954,-145.881C71.8914,-146.324 74.4766,-146.706 77,-147 77.4415,-147.052 77.5556,-147.003 78,-147 253.992,-145.811 305.026,-171.53 473,-119 489.552,-113.824 507.51,-107.073 522.675,-101.026"/>
<polygon fill="midnightblue" stroke="midnightblue" points="69.825,-142.418 59.3367,-143.917 68.4704,-149.286 69.825,-142.418"/>
</g>
<!-- Node9&#45;&gt;Node7 -->
<g id="edge4" class="edge"><title>Node9&#45;&gt;Node7</title>
<path fill="none" stroke="midnightblue" d="M69.3659,-134.256C115.74,-132.176 193.49,-128.688 245.26,-126.366"/>
<polygon fill="midnightblue" stroke="midnightblue" points="68.9603,-130.771 59.1272,-134.716 69.274,-137.764 68.9603,-130.771"/>
</g>
<!-- Node9&#45;&gt;Node8 -->
<g id="edge3" class="edge"><title>Node9&#45;&gt;Node8</title>
<path fill="none" stroke="midnightblue" d="M68.0499,-123.028C82.7049,-117.966 99.2039,-112.266 112.751,-107.586"/>
<polygon fill="midnightblue" stroke="midnightblue" points="66.5667,-119.838 58.2576,-126.411 68.8524,-126.454 66.5667,-119.838"/>
</g>
<!-- Node10 -->
<g id="node5" class="node"><title>Node10</title>
<g id="a_node5"><a xlink:href="interface_system_1_1_runtime_1_1_serialization_1_1_i_serializable.html" target="_top" xlink:title="Allows an object to control its own serialization and deserialization.">
<polygon fill="none" stroke="black" points="264.5,-38.5 264.5,-57.5 333.5,-57.5 333.5,-38.5 264.5,-38.5"/>
<text text-anchor="middle" x="299" y="-45.5" font-family="Helvetica,sans-Serif" font-size="10.00">ISerializable</text>
</a>
</g>
</g>
<!-- Node10&#45;&gt;Node6 -->
<g id="edge7" class="edge"><title>Node10&#45;&gt;Node6</title>
<path fill="none" stroke="midnightblue" d="M343.87,-53.7846C378.866,-58.4718 429.119,-65.3647 473,-72 478.8,-72.8771 484.818,-73.8118 490.851,-74.7663"/>
<polygon fill="midnightblue" stroke="midnightblue" points="343.899,-50.2574 333.523,-52.4035 342.972,-57.1959 343.899,-50.2574"/>
</g>
<!-- Node11 -->
<g id="node6" class="node"><title>Node11</title>
<g id="a_node6"><a xlink:href="interface_system_1_1_collections_1_1_i_dictionary.html" target="_top" xlink:title="Represents a nongeneric collection of key/value pairs.">
<polygon fill="none" stroke="red" points="224,-0.5 224,-19.5 374,-19.5 374,-0.5 224,-0.5"/>
<text text-anchor="middle" x="299" y="-7.5" font-family="Helvetica,sans-Serif" font-size="10.00">System.Collections.IDictionary</text>
</a>
</g>
</g>
<!-- Node11&#45;&gt;Node6 -->
<g id="edge8" class="edge"><title>Node11&#45;&gt;Node6</title>
<path fill="none" stroke="#9a32cd" stroke-dasharray="5,2" d="M384.364,-15.4641C413.079,-19.0766 444.983,-25.0682 473,-35 497.11,-43.5469 521.919,-59.2571 538.561,-70.9914"/>
<polygon fill="#9a32cd" stroke="#9a32cd" points="384.693,-11.9787 374.352,-14.283 383.873,-18.9305 384.693,-11.9787"/>
<text text-anchor="middle" x="432.5" y="-49" font-family="Helvetica,sans-Serif" font-size="10.00"> InternalProperties</text>
<text text-anchor="middle" x="432.5" y="-38" font-family="Helvetica,sans-Serif" font-size="10.00">ExternalProperties</text>
</g>
</g>
</svg>
