<?xml version="1.0" encoding="UTF-8" standalone="no"?>
<!DOCTYPE svg PUBLIC "-//W3C//DTD SVG 1.1//EN"
 "http://www.w3.org/Graphics/SVG/1.1/DTD/svg11.dtd">
<!-- Generated by graphviz version 2.38.0 (20140413.2041)
 -->
<!-- Title: System.CodeDom.CodeDelegateInvokeExpression Pages: 1 -->
<svg width="284pt" height="117pt"
 viewBox="0.00 0.00 284.00 117.00" xmlns="http://www.w3.org/2000/svg" xmlns:xlink="http://www.w3.org/1999/xlink">
<g id="graph0" class="graph" transform="scale(1 1) rotate(0) translate(4 113)">
<title>System.CodeDom.CodeDelegateInvokeExpression</title>
<!-- Node3 -->
<g id="node1" class="node"><title>Node3</title>
<g id="a_node1"><a xlink:title="Represents an expression that raises an event.">
<polygon fill="#bfbfbf" stroke="black" points="37,-0.5 37,-30.5 197,-30.5 197,-0.5 37,-0.5"/>
<text text-anchor="start" x="45" y="-18.5" font-family="Helvetica,sans-Serif" font-size="10.00">System.CodeDom.CodeDelegate</text>
<text text-anchor="middle" x="117" y="-7.5" font-family="Helvetica,sans-Serif" font-size="10.00">InvokeExpression</text>
</a>
</g>
</g>
<!-- Node4 -->
<g id="node2" class="node"><title>Node4</title>
<g id="a_node2"><a xlink:href="class_system_1_1_code_dom_1_1_code_expression.html" target="_top" xlink:title="Represents a code expression. This is a base class for other code expression objects that is never in...">
<polygon fill="none" stroke="red" points="0,-84 0,-103 88,-103 88,-84 0,-84"/>
<text text-anchor="middle" x="44" y="-91" font-family="Helvetica,sans-Serif" font-size="10.00">CodeExpression</text>
</a>
</g>
</g>
<!-- Node4&#45;&gt;Node3 -->
<g id="edge1" class="edge"><title>Node4&#45;&gt;Node3</title>
<path fill="none" stroke="midnightblue" d="M59.3456,-76.5238C72.421,-62.911 91.0276,-43.5398 103.534,-30.5198"/>
<polygon fill="midnightblue" stroke="midnightblue" points="56.7772,-74.1453 52.374,-83.7818 61.8256,-78.9944 56.7772,-74.1453"/>
</g>
<!-- Node6 -->
<g id="node3" class="node"><title>Node6</title>
<g id="a_node3"><a xlink:href="class_system_1_1_code_dom_1_1_code_expression_collection.html" target="_top" xlink:title="Represents a collection of T:System.CodeDom.CodeExpression objects.">
<polygon fill="none" stroke="red" points="106,-78.5 106,-108.5 276,-108.5 276,-78.5 106,-78.5"/>
<text text-anchor="start" x="114" y="-96.5" font-family="Helvetica,sans-Serif" font-size="10.00">System.CodeDom.CodeExpression</text>
<text text-anchor="middle" x="191" y="-85.5" font-family="Helvetica,sans-Serif" font-size="10.00">Collection</text>
</a>
</g>
</g>
<!-- Node6&#45;&gt;Node3 -->
<g id="edge2" class="edge"><title>Node6&#45;&gt;Node3</title>
<path fill="none" stroke="#9a32cd" stroke-dasharray="5,2" d="M170.098,-71.0332C157.536,-58.1316 141.899,-42.0716 130.856,-30.7309"/>
<polygon fill="#9a32cd" stroke="#9a32cd" points="167.597,-73.4819 177.081,-78.205 172.613,-68.5986 167.597,-73.4819"/>
<text text-anchor="middle" x="185" y="-52" font-family="Helvetica,sans-Serif" font-size="10.00"> Parameters</text>
</g>
</g>
</svg>
