<?xml version="1.0" encoding="UTF-8" standalone="no"?>
<!DOCTYPE svg PUBLIC "-//W3C//DTD SVG 1.1//EN"
 "http://www.w3.org/Graphics/SVG/1.1/DTD/svg11.dtd">
<!-- Generated by graphviz version 2.38.0 (20140413.2041)
 -->
<!-- Title: System.ArgumentOutOfRangeException Pages: 1 -->
<svg width="174pt" height="151pt"
 viewBox="0.00 0.00 173.50 151.00" xmlns="http://www.w3.org/2000/svg" xmlns:xlink="http://www.w3.org/1999/xlink">
<g id="graph0" class="graph" transform="scale(1 1) rotate(0) translate(4 147)">
<title>System.ArgumentOutOfRangeException</title>
<!-- Node0 -->
<g id="node1" class="node"><title>Node0</title>
<g id="a_node1"><a xlink:title="The exception that is thrown when the value of an argument is outside the allowable range of values a...">
<polygon fill="#bfbfbf" stroke="black" points="0,-0.5 0,-30.5 149,-30.5 149,-0.5 0,-0.5"/>
<text text-anchor="start" x="8" y="-18.5" font-family="Helvetica,sans-Serif" font-size="10.00">System.ArgumentOutOfRange</text>
<text text-anchor="middle" x="74.5" y="-7.5" font-family="Helvetica,sans-Serif" font-size="10.00">Exception</text>
</a>
</g>
</g>
<!-- Node1 -->
<g id="node2" class="node"><title>Node1</title>
<g id="a_node2"><a xlink:href="class_system_1_1_argument_exception.html" target="_top" xlink:title="The exception that is thrown when one of the arguments provided to a method is not valid.">
<polygon fill="none" stroke="red" points="63.5,-67.5 63.5,-86.5 165.5,-86.5 165.5,-67.5 63.5,-67.5"/>
<text text-anchor="middle" x="114.5" y="-74.5" font-family="Helvetica,sans-Serif" font-size="10.00">ArgumentException</text>
</a>
</g>
</g>
<!-- Node1&#45;&gt;Node0 -->
<g id="edge1" class="edge"><title>Node1&#45;&gt;Node0</title>
<path fill="none" stroke="midnightblue" d="M103.047,-58.9634C96.9917,-49.9564 89.6492,-39.0344 83.9272,-30.523"/>
<polygon fill="midnightblue" stroke="midnightblue" points="100.285,-61.1288 108.769,-67.4751 106.094,-57.2234 100.285,-61.1288"/>
</g>
<!-- Node4 -->
<g id="node3" class="node"><title>Node4</title>
<g id="a_node3"><a xlink:href="interface_system_1_1_runtime_1_1_serialization_1_1_i_serializable.html" target="_top" xlink:title="Allows an object to control its own serialization and deserialization.">
<polygon fill="none" stroke="red" points="40,-123.5 40,-142.5 109,-142.5 109,-123.5 40,-123.5"/>
<text text-anchor="middle" x="74.5" y="-130.5" font-family="Helvetica,sans-Serif" font-size="10.00">ISerializable</text>
</a>
</g>
</g>
<!-- Node4&#45;&gt;Node0 -->
<g id="edge3" class="edge"><title>Node4&#45;&gt;Node0</title>
<path fill="none" stroke="midnightblue" d="M64.5746,-114.302C60.6008,-106.238 56.4966,-96.4085 54.5,-87 50.3007,-67.2118 59.0328,-44.8083 66.2531,-30.6717"/>
<polygon fill="midnightblue" stroke="midnightblue" points="61.6131,-116.19 69.3698,-123.407 67.8067,-112.928 61.6131,-116.19"/>
</g>
<!-- Node4&#45;&gt;Node1 -->
<g id="edge2" class="edge"><title>Node4&#45;&gt;Node1</title>
<path fill="none" stroke="midnightblue" d="M87.1997,-114.855C94.126,-105.505 102.406,-94.3265 108.018,-86.7511"/>
<polygon fill="midnightblue" stroke="midnightblue" points="84.245,-112.964 81.1052,-123.083 89.87,-117.131 84.245,-112.964"/>
</g>
</g>
</svg>
