<?xml version="1.0" encoding="UTF-8" standalone="no"?>
<!DOCTYPE svg PUBLIC "-//W3C//DTD SVG 1.1//EN"
 "http://www.w3.org/Graphics/SVG/1.1/DTD/svg11.dtd">
<!-- Generated by graphviz version 2.38.0 (20140413.2041)
 -->
<!-- Title: System.IO.TextWriter Pages: 1 -->
<svg width="207pt" height="85pt"
 viewBox="0.00 0.00 206.50 85.00" xmlns="http://www.w3.org/2000/svg" xmlns:xlink="http://www.w3.org/1999/xlink">
<g id="graph0" class="graph" transform="scale(1 1) rotate(0) translate(4 81)">
<title>System.IO.TextWriter</title>
<!-- Node6 -->
<g id="node1" class="node"><title>Node6</title>
<g id="a_node1"><a xlink:title="Represents a writer that can write a sequential series of characters. This class is abstract.">
<polygon fill="#bfbfbf" stroke="black" points="49.5,-0.5 49.5,-19.5 160.5,-19.5 160.5,-0.5 49.5,-0.5"/>
<text text-anchor="middle" x="105" y="-7.5" font-family="Helvetica,sans-Serif" font-size="10.00">System.IO.TextWriter</text>
</a>
</g>
</g>
<!-- Node6&#45;&gt;Node6 -->
<g id="edge3" class="edge"><title>Node6&#45;&gt;Node6</title>
<path fill="none" stroke="#9a32cd" stroke-dasharray="5,2" d="M170.95,-13.8489C175.637,-12.9749 178.5,-11.6919 178.5,-10 178.5,-7.29297 171.172,-5.6328 160.767,-5.01949"/>
<polygon fill="#9a32cd" stroke="#9a32cd" points="170.319,-10.3974 160.767,-14.9805 171.092,-17.3546 170.319,-10.3974"/>
<text text-anchor="middle" x="188.5" y="-7.5" font-family="Helvetica,sans-Serif" font-size="10.00"> Null</text>
</g>
<!-- Node7 -->
<g id="node2" class="node"><title>Node7</title>
<g id="a_node2"><a xlink:href="class_system_1_1_marshal_by_ref_object.html" target="_top" xlink:title="Enables access to objects across application domain boundaries in applications that support remoting.">
<polygon fill="none" stroke="black" points="0,-57.5 0,-76.5 106,-76.5 106,-57.5 0,-57.5"/>
<text text-anchor="middle" x="53" y="-64.5" font-family="Helvetica,sans-Serif" font-size="10.00">MarshalByRefObject</text>
</a>
</g>
</g>
<!-- Node7&#45;&gt;Node6 -->
<g id="edge1" class="edge"><title>Node7&#45;&gt;Node6</title>
<path fill="none" stroke="midnightblue" d="M68.0111,-50.1229C77.3702,-40.2238 89.0574,-27.8624 96.7604,-19.7149"/>
<polygon fill="midnightblue" stroke="midnightblue" points="65.4519,-47.7352 61.125,-57.4063 70.5384,-52.5443 65.4519,-47.7352"/>
</g>
<!-- Node8 -->
<g id="node3" class="node"><title>Node8</title>
<g id="a_node3"><a xlink:href="interface_system_1_1_i_disposable.html" target="_top" xlink:title="Provides a mechanism for releasing unmanaged resources.To browse the .NET Framework source code for t...">
<polygon fill="none" stroke="black" points="124.5,-57.5 124.5,-76.5 191.5,-76.5 191.5,-57.5 124.5,-57.5"/>
<text text-anchor="middle" x="158" y="-64.5" font-family="Helvetica,sans-Serif" font-size="10.00">IDisposable</text>
</a>
</g>
</g>
<!-- Node8&#45;&gt;Node6 -->
<g id="edge2" class="edge"><title>Node8&#45;&gt;Node6</title>
<path fill="none" stroke="midnightblue" d="M142.7,-50.1229C133.161,-40.2238 121.249,-27.8624 113.398,-19.7149"/>
<polygon fill="midnightblue" stroke="midnightblue" points="140.26,-52.6341 149.719,-57.4063 145.3,-47.7768 140.26,-52.6341"/>
</g>
</g>
</svg>
