<?xml version="1.0" encoding="UTF-8" standalone="no"?>
<!DOCTYPE svg PUBLIC "-//W3C//DTD SVG 1.1//EN"
 "http://www.w3.org/Graphics/SVG/1.1/DTD/svg11.dtd">
<!-- Generated by graphviz version 2.38.0 (20140413.2041)
 -->
<!-- Title: System.Security.Permissions.IsolatedStoragePermissionAttribute Pages: 1 -->
<svg width="193pt" height="330pt"
 viewBox="0.00 0.00 193.00 330.00" xmlns="http://www.w3.org/2000/svg" xmlns:xlink="http://www.w3.org/1999/xlink">
<g id="graph0" class="graph" transform="scale(1 1) rotate(0) translate(4 326)">
<title>System.Security.Permissions.IsolatedStoragePermissionAttribute</title>
<!-- Node0 -->
<g id="node1" class="node"><title>Node0</title>
<g id="a_node1"><a xlink:title="Allows security actions for T:System.Security.Permissions.IsolatedStoragePermission to be applied to ...">
<polygon fill="#bfbfbf" stroke="black" points="7.5,-67.5 7.5,-97.5 177.5,-97.5 177.5,-67.5 7.5,-67.5"/>
<text text-anchor="start" x="15.5" y="-85.5" font-family="Helvetica,sans-Serif" font-size="10.00">System.Security.Permissions.</text>
<text text-anchor="middle" x="92.5" y="-74.5" font-family="Helvetica,sans-Serif" font-size="10.00">IsolatedStoragePermissionAttribute</text>
</a>
</g>
</g>
<!-- Node5 -->
<g id="node6" class="node"><title>Node5</title>
<g id="a_node6"><a xlink:href="class_system_1_1_security_1_1_permissions_1_1_isolated_storage_file_permission_attribute.html" target="_top" xlink:title="Allows security actions for T:System.Security.Permissions.IsolatedStorageFilePermission to be applied...">
<polygon fill="none" stroke="black" points="0,-0.5 0,-30.5 185,-30.5 185,-0.5 0,-0.5"/>
<text text-anchor="start" x="8" y="-18.5" font-family="Helvetica,sans-Serif" font-size="10.00">System.Security.Permissions.</text>
<text text-anchor="middle" x="92.5" y="-7.5" font-family="Helvetica,sans-Serif" font-size="10.00">IsolatedStorageFilePermissionAttribute</text>
</a>
</g>
</g>
<!-- Node0&#45;&gt;Node5 -->
<g id="edge5" class="edge"><title>Node0&#45;&gt;Node5</title>
<path fill="none" stroke="midnightblue" d="M92.5,-57.1081C92.5,-48.1539 92.5,-38.3227 92.5,-30.5765"/>
<polygon fill="midnightblue" stroke="midnightblue" points="89.0001,-57.3959 92.5,-67.396 96.0001,-57.396 89.0001,-57.3959"/>
</g>
<!-- Node1 -->
<g id="node2" class="node"><title>Node1</title>
<g id="a_node2"><a xlink:href="class_system_1_1_security_1_1_permissions_1_1_code_access_security_attribute.html" target="_top" xlink:title="Specifies the base attribute class for code access security.">
<polygon fill="none" stroke="black" points="20,-134.5 20,-153.5 165,-153.5 165,-134.5 20,-134.5"/>
<text text-anchor="middle" x="92.5" y="-141.5" font-family="Helvetica,sans-Serif" font-size="10.00">CodeAccessSecurityAttribute</text>
</a>
</g>
</g>
<!-- Node1&#45;&gt;Node0 -->
<g id="edge1" class="edge"><title>Node1&#45;&gt;Node0</title>
<path fill="none" stroke="midnightblue" d="M92.5,-124.235C92.5,-115.586 92.5,-105.497 92.5,-97.523"/>
<polygon fill="midnightblue" stroke="midnightblue" points="89.0001,-124.475 92.5,-134.475 96.0001,-124.475 89.0001,-124.475"/>
</g>
<!-- Node2 -->
<g id="node3" class="node"><title>Node2</title>
<g id="a_node3"><a xlink:href="class_system_1_1_security_1_1_permissions_1_1_security_attribute.html" target="_top" xlink:title="Specifies the base attribute class for declarative security from which T:System.Security....">
<polygon fill="none" stroke="black" points="48,-190.5 48,-209.5 137,-209.5 137,-190.5 48,-190.5"/>
<text text-anchor="middle" x="92.5" y="-197.5" font-family="Helvetica,sans-Serif" font-size="10.00">SecurityAttribute</text>
</a>
</g>
</g>
<!-- Node2&#45;&gt;Node1 -->
<g id="edge2" class="edge"><title>Node2&#45;&gt;Node1</title>
<path fill="none" stroke="midnightblue" d="M92.5,-179.805C92.5,-170.91 92.5,-160.78 92.5,-153.751"/>
<polygon fill="midnightblue" stroke="midnightblue" points="89.0001,-180.083 92.5,-190.083 96.0001,-180.083 89.0001,-180.083"/>
</g>
<!-- Node3 -->
<g id="node4" class="node"><title>Node3</title>
<g id="a_node4"><a xlink:href="class_system_1_1_attribute.html" target="_top" xlink:title="Represents the base class for custom attributes.">
<polygon fill="none" stroke="black" points="66,-246.5 66,-265.5 119,-265.5 119,-246.5 66,-246.5"/>
<text text-anchor="middle" x="92.5" y="-253.5" font-family="Helvetica,sans-Serif" font-size="10.00">Attribute</text>
</a>
</g>
</g>
<!-- Node3&#45;&gt;Node2 -->
<g id="edge3" class="edge"><title>Node3&#45;&gt;Node2</title>
<path fill="none" stroke="midnightblue" d="M92.5,-235.805C92.5,-226.91 92.5,-216.78 92.5,-209.751"/>
<polygon fill="midnightblue" stroke="midnightblue" points="89.0001,-236.083 92.5,-246.083 96.0001,-236.083 89.0001,-236.083"/>
</g>
<!-- Node4 -->
<g id="node5" class="node"><title>Node4</title>
<g id="a_node5"><a xlink:href="interface_system_1_1_runtime_1_1_interop_services_1_1___attribute.html" target="_top" xlink:title="Exposes the T:System.Attribute class to unmanaged code.">
<polygon fill="none" stroke="black" points="63,-302.5 63,-321.5 122,-321.5 122,-302.5 63,-302.5"/>
<text text-anchor="middle" x="92.5" y="-309.5" font-family="Helvetica,sans-Serif" font-size="10.00">_Attribute</text>
</a>
</g>
</g>
<!-- Node4&#45;&gt;Node3 -->
<g id="edge4" class="edge"><title>Node4&#45;&gt;Node3</title>
<path fill="none" stroke="midnightblue" d="M92.5,-291.805C92.5,-282.91 92.5,-272.78 92.5,-265.751"/>
<polygon fill="midnightblue" stroke="midnightblue" points="89.0001,-292.083 92.5,-302.083 96.0001,-292.083 89.0001,-292.083"/>
</g>
</g>
</svg>
