<?xml version="1.0" encoding="UTF-8" standalone="no"?>
<!DOCTYPE svg PUBLIC "-//W3C//DTD SVG 1.1//EN"
 "http://www.w3.org/Graphics/SVG/1.1/DTD/svg11.dtd">
<!-- Generated by graphviz version 2.38.0 (20140413.2041)
 -->
<!-- Title: System.Runtime.CompilerServices.CustomConstantAttribute Pages: 1 -->
<svg width="473pt" height="137pt"
 viewBox="0.00 0.00 473.00 137.00" xmlns="http://www.w3.org/2000/svg" xmlns:xlink="http://www.w3.org/1999/xlink">
<g id="graph0" class="graph" transform="scale(1 1) rotate(0) translate(4 133)">
<title>System.Runtime.CompilerServices.CustomConstantAttribute</title>
<!-- Node0 -->
<g id="node1" class="node"><title>Node0</title>
<g id="a_node1"><a xlink:title="Defines a constant value that a compiler can persist for a field or method parameter.">
<polygon fill="#bfbfbf" stroke="black" points="89,-49.5 89,-79.5 259,-79.5 259,-49.5 89,-49.5"/>
<text text-anchor="start" x="97" y="-67.5" font-family="Helvetica,sans-Serif" font-size="10.00">System.Runtime.CompilerServices.</text>
<text text-anchor="middle" x="174" y="-56.5" font-family="Helvetica,sans-Serif" font-size="10.00">CustomConstantAttribute</text>
</a>
</g>
</g>
<!-- Node3 -->
<g id="node3" class="node"><title>Node3</title>
<g id="a_node3"><a xlink:href="class_system_1_1_runtime_1_1_compiler_services_1_1_date_time_constant_attribute.html" target="_top" xlink:title="Persists an 8&#45;byte T:System.DateTime constant for a field or parameter.">
<polygon fill="none" stroke="black" points="295,-98.5 295,-128.5 465,-128.5 465,-98.5 295,-98.5"/>
<text text-anchor="start" x="303" y="-116.5" font-family="Helvetica,sans-Serif" font-size="10.00">System.Runtime.CompilerServices.</text>
<text text-anchor="middle" x="380" y="-105.5" font-family="Helvetica,sans-Serif" font-size="10.00">DateTimeConstantAttribute</text>
</a>
</g>
</g>
<!-- Node0&#45;&gt;Node3 -->
<g id="edge2" class="edge"><title>Node0&#45;&gt;Node3</title>
<path fill="none" stroke="midnightblue" d="M247.457,-81.9038C270.024,-87.3243 294.702,-93.252 316.525,-98.4938"/>
<polygon fill="midnightblue" stroke="midnightblue" points="248.134,-78.467 237.593,-79.5346 246.499,-85.2734 248.134,-78.467"/>
</g>
<!-- Node4 -->
<g id="node4" class="node"><title>Node4</title>
<g id="a_node4"><a xlink:href="class_system_1_1_runtime_1_1_compiler_services_1_1_i_dispatch_constant_attribute.html" target="_top" xlink:title="Indicates that the default value for the attributed field or parameter is an instance of T:System....">
<polygon fill="none" stroke="black" points="295,-49.5 295,-79.5 465,-79.5 465,-49.5 295,-49.5"/>
<text text-anchor="start" x="303" y="-67.5" font-family="Helvetica,sans-Serif" font-size="10.00">System.Runtime.CompilerServices.</text>
<text text-anchor="middle" x="380" y="-56.5" font-family="Helvetica,sans-Serif" font-size="10.00">IDispatchConstantAttribute</text>
</a>
</g>
</g>
<!-- Node0&#45;&gt;Node4 -->
<g id="edge3" class="edge"><title>Node0&#45;&gt;Node4</title>
<path fill="none" stroke="midnightblue" d="M269.402,-64.5C277.847,-64.5 286.361,-64.5 294.712,-64.5"/>
<polygon fill="midnightblue" stroke="midnightblue" points="269.152,-61.0001 259.152,-64.5 269.152,-68.0001 269.152,-61.0001"/>
</g>
<!-- Node5 -->
<g id="node5" class="node"><title>Node5</title>
<g id="a_node5"><a xlink:href="class_system_1_1_runtime_1_1_compiler_services_1_1_i_unknown_constant_attribute.html" target="_top" xlink:title="Indicates that the default value for the attributed field or parameter is an instance of T:System....">
<polygon fill="none" stroke="black" points="295,-0.5 295,-30.5 465,-30.5 465,-0.5 295,-0.5"/>
<text text-anchor="start" x="303" y="-18.5" font-family="Helvetica,sans-Serif" font-size="10.00">System.Runtime.CompilerServices.</text>
<text text-anchor="middle" x="380" y="-7.5" font-family="Helvetica,sans-Serif" font-size="10.00">IUnknownConstantAttribute</text>
</a>
</g>
</g>
<!-- Node0&#45;&gt;Node5 -->
<g id="edge4" class="edge"><title>Node0&#45;&gt;Node5</title>
<path fill="none" stroke="midnightblue" d="M247.457,-47.0962C270.024,-41.6757 294.702,-35.748 316.525,-30.5062"/>
<polygon fill="midnightblue" stroke="midnightblue" points="246.499,-43.7266 237.593,-49.4654 248.134,-50.533 246.499,-43.7266"/>
</g>
<!-- Node1 -->
<g id="node2" class="node"><title>Node1</title>
<g id="a_node2"><a xlink:href="class_system_1_1_attribute.html" target="_top" xlink:title="Represents the base class for custom attributes.">
<polygon fill="none" stroke="red" points="0,-55 0,-74 53,-74 53,-55 0,-55"/>
<text text-anchor="middle" x="26.5" y="-62" font-family="Helvetica,sans-Serif" font-size="10.00">Attribute</text>
</a>
</g>
</g>
<!-- Node1&#45;&gt;Node0 -->
<g id="edge1" class="edge"><title>Node1&#45;&gt;Node0</title>
<path fill="none" stroke="midnightblue" d="M63.4062,-64.5C71.303,-64.5 79.9867,-64.5 88.9036,-64.5"/>
<polygon fill="midnightblue" stroke="midnightblue" points="63.1776,-61.0001 53.1776,-64.5 63.1775,-68.0001 63.1776,-61.0001"/>
</g>
</g>
</svg>
