<?xml version="1.0" encoding="UTF-8" standalone="no"?>
<!DOCTYPE svg PUBLIC "-//W3C//DTD SVG 1.1//EN"
 "http://www.w3.org/Graphics/SVG/1.1/DTD/svg11.dtd">
<!-- Generated by graphviz version 2.38.0 (20140413.2041)
 -->
<!-- Title: System.Collections.ListDictionaryInternal Pages: 1 -->
<svg width="279pt" height="231pt"
 viewBox="0.00 0.00 279.09 231.00" xmlns="http://www.w3.org/2000/svg" xmlns:xlink="http://www.w3.org/1999/xlink">
<g id="graph0" class="graph" transform="scale(1 1) rotate(0) translate(4 227)">
<title>System.Collections.ListDictionaryInternal</title>
<!-- Node4 -->
<g id="node1" class="node"><title>Node4</title>
<g id="a_node1"><a xlink:title=" ">
<polygon fill="#bfbfbf" stroke="black" points="9.58507,-0.5 9.58507,-30.5 173.585,-30.5 173.585,-0.5 9.58507,-0.5"/>
<text text-anchor="start" x="17.5851" y="-18.5" font-family="Helvetica,sans-Serif" font-size="10.00">System.Collections.ListDictionary</text>
<text text-anchor="middle" x="91.5851" y="-7.5" font-family="Helvetica,sans-Serif" font-size="10.00">Internal</text>
</a>
</g>
</g>
<!-- Node5 -->
<g id="node2" class="node"><title>Node5</title>
<g id="a_node2"><a xlink:href="interface_system_1_1_collections_1_1_i_dictionary.html" target="_top" xlink:title="Represents a nongeneric collection of key/value pairs.">
<polygon fill="none" stroke="black" points="16.5851,-69.5 16.5851,-88.5 78.5851,-88.5 78.5851,-69.5 16.5851,-69.5"/>
<text text-anchor="middle" x="47.5851" y="-76.5" font-family="Helvetica,sans-Serif" font-size="10.00">IDictionary</text>
</a>
</g>
</g>
<!-- Node5&#45;&gt;Node4 -->
<g id="edge1" class="edge"><title>Node5&#45;&gt;Node4</title>
<path fill="none" stroke="midnightblue" d="M59.6512,-61.1348C66.4968,-51.5666 74.9666,-39.7281 81.463,-30.6479"/>
<polygon fill="midnightblue" stroke="midnightblue" points="56.6752,-59.2793 53.7031,-69.4487 62.3683,-63.3523 56.6752,-59.2793"/>
</g>
<!-- Node6 -->
<g id="node3" class="node"><title>Node6</title>
<g id="a_node3"><a xlink:href="interface_system_1_1_collections_1_1_i_collection.html" target="_top" xlink:title="Defines size, enumerators, and synchronization methods for all nongeneric collections.">
<polygon fill="none" stroke="black" points="75.5851,-146.5 75.5851,-165.5 137.585,-165.5 137.585,-146.5 75.5851,-146.5"/>
<text text-anchor="middle" x="106.585" y="-153.5" font-family="Helvetica,sans-Serif" font-size="10.00">ICollection</text>
</a>
</g>
</g>
<!-- Node6&#45;&gt;Node4 -->
<g id="edge5" class="edge"><title>Node6&#45;&gt;Node4</title>
<path fill="none" stroke="midnightblue" d="M104.555,-136.253C101.516,-108.192 95.8502,-55.8812 93.126,-30.7275"/>
<polygon fill="midnightblue" stroke="midnightblue" points="101.09,-136.771 105.647,-146.336 108.05,-136.017 101.09,-136.771"/>
</g>
<!-- Node6&#45;&gt;Node5 -->
<g id="edge2" class="edge"><title>Node6&#45;&gt;Node5</title>
<path fill="none" stroke="midnightblue" d="M93.392,-138.229C81.2533,-122.799 63.7434,-100.54 54.2742,-88.5031"/>
<polygon fill="midnightblue" stroke="midnightblue" points="90.8833,-140.701 99.817,-146.397 96.385,-136.373 90.8833,-140.701"/>
</g>
<!-- Node7 -->
<g id="node4" class="node"><title>Node7</title>
<g id="a_node4"><a xlink:href="interface_system_1_1_collections_1_1_i_enumerable.html" target="_top" xlink:title="Exposes an enumerator, which supports a simple iteration over a non&#45;generic collection....">
<polygon fill="none" stroke="black" points="33.0851,-203.5 33.0851,-222.5 104.085,-222.5 104.085,-203.5 33.0851,-203.5"/>
<text text-anchor="middle" x="68.5851" y="-210.5" font-family="Helvetica,sans-Serif" font-size="10.00">IEnumerable</text>
</a>
</g>
</g>
<!-- Node7&#45;&gt;Node4 -->
<g id="edge6" class="edge"><title>Node7&#45;&gt;Node4</title>
<path fill="none" stroke="midnightblue" d="M52.1458,-195.774C26.6164,-168.528 -17.1768,-112.227 7.58507,-68 17.1953,-50.8353 35.1224,-38.6995 51.9547,-30.5381"/>
<polygon fill="midnightblue" stroke="midnightblue" points="49.9154,-198.502 59.3862,-203.251 54.9441,-193.633 49.9154,-198.502"/>
</g>
<!-- Node7&#45;&gt;Node5 -->
<g id="edge4" class="edge"><title>Node7&#45;&gt;Node5</title>
<path fill="none" stroke="midnightblue" d="M65.6061,-193.275C60.9879,-164.246 52.2843,-109.538 48.9407,-88.5212"/>
<polygon fill="midnightblue" stroke="midnightblue" points="62.1794,-194.013 67.2072,-203.339 69.0925,-192.913 62.1794,-194.013"/>
</g>
<!-- Node7&#45;&gt;Node6 -->
<g id="edge3" class="edge"><title>Node7&#45;&gt;Node6</title>
<path fill="none" stroke="midnightblue" d="M80.375,-194.936C87.066,-185.251 95.1576,-173.54 100.564,-165.715"/>
<polygon fill="midnightblue" stroke="midnightblue" points="77.3274,-193.189 74.5226,-203.406 83.0865,-197.168 77.3274,-193.189"/>
</g>
<!-- Node8 -->
<g id="node5" class="node"><title>Node8</title>
<g id="a_node5"><a xlink:href="interface_system_1_1_collections_1_1_i_collection.html" target="_top" xlink:title="Defines size, enumerators, and synchronization methods for all nongeneric collections.">
<polygon fill="none" stroke="black" points="122.085,-108.5 122.085,-127.5 271.085,-127.5 271.085,-108.5 122.085,-108.5"/>
<text text-anchor="middle" x="196.585" y="-115.5" font-family="Helvetica,sans-Serif" font-size="10.00">System.Collections.ICollection</text>
</a>
</g>
</g>
<!-- Node7&#45;&gt;Node8 -->
<g id="edge8" class="edge"><title>Node7&#45;&gt;Node8</title>
<path fill="none" stroke="midnightblue" d="M94.4872,-198.618C110.12,-190.087 130.131,-178.345 146.585,-166 162.595,-153.989 179.125,-137.501 188.598,-127.585"/>
<polygon fill="midnightblue" stroke="midnightblue" points="92.5521,-195.684 85.39,-203.491 95.8576,-201.855 92.5521,-195.684"/>
</g>
<!-- Node8&#45;&gt;Node4 -->
<g id="edge7" class="edge"><title>Node8&#45;&gt;Node4</title>
<path fill="none" stroke="#9a32cd" stroke-dasharray="5,2" d="M180.142,-101.262C159.943,-81.9286 125.968,-49.4095 106.497,-30.7725"/>
<polygon fill="#9a32cd" stroke="#9a32cd" points="177.989,-104.045 187.633,-108.431 182.829,-98.9884 177.989,-104.045"/>
<text text-anchor="middle" x="185.585" y="-82" font-family="Helvetica,sans-Serif" font-size="10.00"> Values</text>
<text text-anchor="middle" x="185.585" y="-71" font-family="Helvetica,sans-Serif" font-size="10.00">Keys</text>
</g>
</g>
</svg>
