<?xml version="1.0" encoding="UTF-8" standalone="no"?>
<!DOCTYPE svg PUBLIC "-//W3C//DTD SVG 1.1//EN"
 "http://www.w3.org/Graphics/SVG/1.1/DTD/svg11.dtd">
<!-- Generated by graphviz version 2.38.0 (20140413.2041)
 -->
<!-- Title: System.ComponentModel.DataObjectAttribute Pages: 1 -->
<svg width="248pt" height="98pt"
 viewBox="0.00 0.00 248.00 98.00" xmlns="http://www.w3.org/2000/svg" xmlns:xlink="http://www.w3.org/1999/xlink">
<g id="graph0" class="graph" transform="scale(1 1) rotate(0) translate(4 94)">
<title>System.ComponentModel.DataObjectAttribute</title>
<!-- Node3 -->
<g id="node1" class="node"><title>Node3</title>
<g id="a_node1"><a xlink:title="Identifies a type as an object suitable for binding to an T:System.Web.UI.WebControls....">
<polygon fill="#bfbfbf" stroke="black" points="0,-1.5 0,-31.5 152,-31.5 152,-1.5 0,-1.5"/>
<text text-anchor="start" x="8" y="-19.5" font-family="Helvetica,sans-Serif" font-size="10.00">System.ComponentModel.Data</text>
<text text-anchor="middle" x="76" y="-8.5" font-family="Helvetica,sans-Serif" font-size="10.00">ObjectAttribute</text>
</a>
</g>
</g>
<!-- Node3&#45;&gt;Node3 -->
<g id="edge2" class="edge"><title>Node3&#45;&gt;Node3</title>
<path fill="none" stroke="#9a32cd" stroke-dasharray="5,2" d="M162.582,-20.7299C167.237,-19.6946 170,-18.2847 170,-16.5 170,-13.6445 162.928,-11.7483 152.347,-10.8114"/>
<polygon fill="#9a32cd" stroke="#9a32cd" points="161.753,-17.3126 152.347,-22.1886 162.741,-24.2425 161.753,-17.3126"/>
<text text-anchor="middle" x="205" y="-25" font-family="Helvetica,sans-Serif" font-size="10.00"> NonDataObject</text>
<text text-anchor="middle" x="205" y="-14" font-family="Helvetica,sans-Serif" font-size="10.00">DataObject</text>
<text text-anchor="middle" x="205" y="-3" font-family="Helvetica,sans-Serif" font-size="10.00">Default</text>
</g>
<!-- Node4 -->
<g id="node2" class="node"><title>Node4</title>
<g id="a_node2"><a xlink:href="class_system_1_1_attribute.html" target="_top" xlink:title="Represents the base class for custom attributes.">
<polygon fill="none" stroke="red" points="49.5,-70.5 49.5,-89.5 102.5,-89.5 102.5,-70.5 49.5,-70.5"/>
<text text-anchor="middle" x="76" y="-77.5" font-family="Helvetica,sans-Serif" font-size="10.00">Attribute</text>
</a>
</g>
</g>
<!-- Node4&#45;&gt;Node3 -->
<g id="edge1" class="edge"><title>Node4&#45;&gt;Node3</title>
<path fill="none" stroke="midnightblue" d="M76,-60.3344C76,-51.1126 76,-40.1664 76,-31.6479"/>
<polygon fill="midnightblue" stroke="midnightblue" points="72.5001,-60.4487 76,-70.4487 79.5001,-60.4487 72.5001,-60.4487"/>
</g>
</g>
</svg>
