<?xml version="1.0" encoding="UTF-8" standalone="no"?>
<!DOCTYPE svg PUBLIC "-//W3C//DTD SVG 1.1//EN"
 "http://www.w3.org/Graphics/SVG/1.1/DTD/svg11.dtd">
<!-- Generated by graphviz version 2.38.0 (20140413.2041)
 -->
<!-- Title: System.Security.Permissions.ReflectionPermissionAttribute Pages: 1 -->
<svg width="157pt" height="263pt"
 viewBox="0.00 0.00 157.00 263.00" xmlns="http://www.w3.org/2000/svg" xmlns:xlink="http://www.w3.org/1999/xlink">
<g id="graph0" class="graph" transform="scale(1 1) rotate(0) translate(4 259)">
<title>System.Security.Permissions.ReflectionPermissionAttribute</title>
<!-- Node0 -->
<g id="node1" class="node"><title>Node0</title>
<g id="a_node1"><a xlink:title="Allows security actions for T:System.Security.Permissions.ReflectionPermission to be applied to code ...">
<polygon fill="#bfbfbf" stroke="black" points="0,-0.5 0,-30.5 149,-30.5 149,-0.5 0,-0.5"/>
<text text-anchor="start" x="8" y="-18.5" font-family="Helvetica,sans-Serif" font-size="10.00">System.Security.Permissions.</text>
<text text-anchor="middle" x="74.5" y="-7.5" font-family="Helvetica,sans-Serif" font-size="10.00">ReflectionPermissionAttribute</text>
</a>
</g>
</g>
<!-- Node1 -->
<g id="node2" class="node"><title>Node1</title>
<g id="a_node2"><a xlink:href="class_system_1_1_security_1_1_permissions_1_1_code_access_security_attribute.html" target="_top" xlink:title="Specifies the base attribute class for code access security.">
<polygon fill="none" stroke="black" points="2,-67.5 2,-86.5 147,-86.5 147,-67.5 2,-67.5"/>
<text text-anchor="middle" x="74.5" y="-74.5" font-family="Helvetica,sans-Serif" font-size="10.00">CodeAccessSecurityAttribute</text>
</a>
</g>
</g>
<!-- Node1&#45;&gt;Node0 -->
<g id="edge1" class="edge"><title>Node1&#45;&gt;Node0</title>
<path fill="none" stroke="midnightblue" d="M74.5,-57.2349C74.5,-48.5864 74.5,-38.4969 74.5,-30.523"/>
<polygon fill="midnightblue" stroke="midnightblue" points="71.0001,-57.4751 74.5,-67.4751 78.0001,-57.4751 71.0001,-57.4751"/>
</g>
<!-- Node2 -->
<g id="node3" class="node"><title>Node2</title>
<g id="a_node3"><a xlink:href="class_system_1_1_security_1_1_permissions_1_1_security_attribute.html" target="_top" xlink:title="Specifies the base attribute class for declarative security from which T:System.Security....">
<polygon fill="none" stroke="black" points="30,-123.5 30,-142.5 119,-142.5 119,-123.5 30,-123.5"/>
<text text-anchor="middle" x="74.5" y="-130.5" font-family="Helvetica,sans-Serif" font-size="10.00">SecurityAttribute</text>
</a>
</g>
</g>
<!-- Node2&#45;&gt;Node1 -->
<g id="edge2" class="edge"><title>Node2&#45;&gt;Node1</title>
<path fill="none" stroke="midnightblue" d="M74.5,-112.805C74.5,-103.91 74.5,-93.7798 74.5,-86.7511"/>
<polygon fill="midnightblue" stroke="midnightblue" points="71.0001,-113.083 74.5,-123.083 78.0001,-113.083 71.0001,-113.083"/>
</g>
<!-- Node3 -->
<g id="node4" class="node"><title>Node3</title>
<g id="a_node4"><a xlink:href="class_system_1_1_attribute.html" target="_top" xlink:title="Represents the base class for custom attributes.">
<polygon fill="none" stroke="black" points="48,-179.5 48,-198.5 101,-198.5 101,-179.5 48,-179.5"/>
<text text-anchor="middle" x="74.5" y="-186.5" font-family="Helvetica,sans-Serif" font-size="10.00">Attribute</text>
</a>
</g>
</g>
<!-- Node3&#45;&gt;Node2 -->
<g id="edge3" class="edge"><title>Node3&#45;&gt;Node2</title>
<path fill="none" stroke="midnightblue" d="M74.5,-168.805C74.5,-159.91 74.5,-149.78 74.5,-142.751"/>
<polygon fill="midnightblue" stroke="midnightblue" points="71.0001,-169.083 74.5,-179.083 78.0001,-169.083 71.0001,-169.083"/>
</g>
<!-- Node4 -->
<g id="node5" class="node"><title>Node4</title>
<g id="a_node5"><a xlink:href="interface_system_1_1_runtime_1_1_interop_services_1_1___attribute.html" target="_top" xlink:title="Exposes the T:System.Attribute class to unmanaged code.">
<polygon fill="none" stroke="black" points="45,-235.5 45,-254.5 104,-254.5 104,-235.5 45,-235.5"/>
<text text-anchor="middle" x="74.5" y="-242.5" font-family="Helvetica,sans-Serif" font-size="10.00">_Attribute</text>
</a>
</g>
</g>
<!-- Node4&#45;&gt;Node3 -->
<g id="edge4" class="edge"><title>Node4&#45;&gt;Node3</title>
<path fill="none" stroke="midnightblue" d="M74.5,-224.805C74.5,-215.91 74.5,-205.78 74.5,-198.751"/>
<polygon fill="midnightblue" stroke="midnightblue" points="71.0001,-225.083 74.5,-235.083 78.0001,-225.083 71.0001,-225.083"/>
</g>
</g>
</svg>
