<?xml version="1.0" encoding="UTF-8" standalone="no"?>
<!DOCTYPE svg PUBLIC "-//W3C//DTD SVG 1.1//EN"
 "http://www.w3.org/Graphics/SVG/1.1/DTD/svg11.dtd">
<!-- Generated by graphviz version 2.38.0 (20140413.2041)
 -->
<!-- Title: System.Collections.DictionaryBase Pages: 1 -->
<svg width="178pt" height="196pt"
 viewBox="0.00 0.00 178.00 196.00" xmlns="http://www.w3.org/2000/svg" xmlns:xlink="http://www.w3.org/1999/xlink">
<g id="graph0" class="graph" transform="scale(1 1) rotate(0) translate(4 192)">
<title>System.Collections.DictionaryBase</title>
<!-- Node0 -->
<g id="node1" class="node"><title>Node0</title>
<g id="a_node1"><a xlink:title="Provides the abstract base class for a strongly typed collection of key/value pairs.">
<polygon fill="#bfbfbf" stroke="black" points="0,-0.5 0,-19.5 170,-19.5 170,-0.5 0,-0.5"/>
<text text-anchor="middle" x="85" y="-7.5" font-family="Helvetica,sans-Serif" font-size="10.00">System.Collections.DictionaryBase</text>
</a>
</g>
</g>
<!-- Node1 -->
<g id="node2" class="node"><title>Node1</title>
<g id="a_node2"><a xlink:href="interface_system_1_1_collections_1_1_i_dictionary.html" target="_top" xlink:title="Represents a nongeneric collection of key/value pairs.">
<polygon fill="none" stroke="black" points="54,-56.5 54,-75.5 116,-75.5 116,-56.5 54,-56.5"/>
<text text-anchor="middle" x="85" y="-63.5" font-family="Helvetica,sans-Serif" font-size="10.00">IDictionary</text>
</a>
</g>
</g>
<!-- Node1&#45;&gt;Node0 -->
<g id="edge1" class="edge"><title>Node1&#45;&gt;Node0</title>
<path fill="none" stroke="midnightblue" d="M85,-45.8045C85,-36.9102 85,-26.7798 85,-19.7511"/>
<polygon fill="midnightblue" stroke="midnightblue" points="81.5001,-46.083 85,-56.083 88.5001,-46.083 81.5001,-46.083"/>
</g>
<!-- Node2 -->
<g id="node3" class="node"><title>Node2</title>
<g id="a_node3"><a xlink:href="interface_system_1_1_collections_1_1_i_collection.html" target="_top" xlink:title="Defines size, enumerators, and synchronization methods for all nongeneric collections.">
<polygon fill="none" stroke="black" points="102,-112.5 102,-131.5 164,-131.5 164,-112.5 102,-112.5"/>
<text text-anchor="middle" x="133" y="-119.5" font-family="Helvetica,sans-Serif" font-size="10.00">ICollection</text>
</a>
</g>
</g>
<!-- Node2&#45;&gt;Node0 -->
<g id="edge5" class="edge"><title>Node2&#45;&gt;Node0</title>
<path fill="none" stroke="midnightblue" d="M133.595,-101.766C133.315,-88.3829 131.52,-70.4237 125,-56 118.369,-41.3318 105.241,-28.0268 95.8322,-19.753"/>
<polygon fill="midnightblue" stroke="midnightblue" points="130.093,-102.125 133.532,-112.146 137.093,-102.167 130.093,-102.125"/>
</g>
<!-- Node2&#45;&gt;Node1 -->
<g id="edge2" class="edge"><title>Node2&#45;&gt;Node1</title>
<path fill="none" stroke="midnightblue" d="M118.272,-104.431C109.86,-94.9673 99.6513,-83.4827 92.7787,-75.7511"/>
<polygon fill="midnightblue" stroke="midnightblue" points="115.814,-106.934 125.074,-112.083 121.046,-102.284 115.814,-106.934"/>
</g>
<!-- Node3 -->
<g id="node4" class="node"><title>Node3</title>
<g id="a_node4"><a xlink:href="interface_system_1_1_collections_1_1_i_enumerable.html" target="_top" xlink:title="Exposes an enumerator, which supports a simple iteration over a non&#45;generic collection....">
<polygon fill="none" stroke="black" points="38.5,-168.5 38.5,-187.5 109.5,-187.5 109.5,-168.5 38.5,-168.5"/>
<text text-anchor="middle" x="74" y="-175.5" font-family="Helvetica,sans-Serif" font-size="10.00">IEnumerable</text>
</a>
</g>
</g>
<!-- Node3&#45;&gt;Node0 -->
<g id="edge6" class="edge"><title>Node3&#45;&gt;Node0</title>
<path fill="none" stroke="midnightblue" d="M63.2877,-159.296C50.2358,-135.34 31.4983,-91.5122 45,-56 50.7207,-40.9535 64.0337,-27.7254 73.7344,-19.5728"/>
<polygon fill="midnightblue" stroke="midnightblue" points="60.4164,-161.326 68.4227,-168.265 66.4911,-157.847 60.4164,-161.326"/>
</g>
<!-- Node3&#45;&gt;Node1 -->
<g id="edge4" class="edge"><title>Node3&#45;&gt;Node1</title>
<path fill="none" stroke="midnightblue" d="M75.8652,-158.348C78.2746,-134.254 82.3692,-93.3079 84.1409,-75.5914"/>
<polygon fill="midnightblue" stroke="midnightblue" points="72.3756,-158.07 74.8632,-168.368 79.3409,-158.766 72.3756,-158.07"/>
</g>
<!-- Node3&#45;&gt;Node2 -->
<g id="edge3" class="edge"><title>Node3&#45;&gt;Node2</title>
<path fill="none" stroke="midnightblue" d="M90.8945,-161.537C101.415,-151.909 114.569,-139.869 123.348,-131.834"/>
<polygon fill="midnightblue" stroke="midnightblue" points="88.4931,-158.99 83.4794,-168.324 93.2192,-164.154 88.4931,-158.99"/>
</g>
</g>
</svg>
