<?xml version="1.0" encoding="UTF-8" standalone="no"?>
<!DOCTYPE svg PUBLIC "-//W3C//DTD SVG 1.1//EN"
 "http://www.w3.org/Graphics/SVG/1.1/DTD/svg11.dtd">
<!-- Generated by graphviz version 2.38.0 (20140413.2041)
 -->
<!-- Title: System.StringComparer Pages: 1 -->
<svg width="426pt" height="95pt"
 viewBox="0.00 0.00 425.50 95.00" xmlns="http://www.w3.org/2000/svg" xmlns:xlink="http://www.w3.org/1999/xlink">
<g id="graph0" class="graph" transform="scale(1 1) rotate(0) translate(4 91)">
<title>System.StringComparer</title>
<!-- Node0 -->
<g id="node1" class="node"><title>Node0</title>
<g id="a_node1"><a xlink:title="Represents a string comparison operation that uses specific case and culture&#45;based or ordinal compari...">
<polygon fill="#bfbfbf" stroke="black" points="126,-0.5 126,-19.5 247,-19.5 247,-0.5 126,-0.5"/>
<text text-anchor="middle" x="186.5" y="-7.5" font-family="Helvetica,sans-Serif" font-size="10.00">System.StringComparer</text>
</a>
</g>
</g>
<!-- Node1 -->
<g id="node2" class="node"><title>Node1</title>
<g id="a_node2"><a xlink:href="interface_system_1_1_collections_1_1_i_comparer.html" target="_top" xlink:title="Exposes a method that compares two objects.">
<polygon fill="none" stroke="black" points="0,-62 0,-81 61,-81 61,-62 0,-62"/>
<text text-anchor="middle" x="30.5" y="-69" font-family="Helvetica,sans-Serif" font-size="10.00">IComparer</text>
</a>
</g>
</g>
<!-- Node1&#45;&gt;Node0 -->
<g id="edge1" class="edge"><title>Node1&#45;&gt;Node0</title>
<path fill="none" stroke="midnightblue" d="M62.5327,-58.2824C92.8479,-46.7199 137.566,-29.6641 164.19,-19.5091"/>
<polygon fill="midnightblue" stroke="midnightblue" points="60.9471,-55.1411 52.851,-61.9751 63.4418,-61.6816 60.9471,-55.1411"/>
</g>
<!-- Node2 -->
<g id="node3" class="node"><title>Node2</title>
<g id="a_node3"><a xlink:href="interface_system_1_1_collections_1_1_i_equality_comparer.html" target="_top" xlink:title="Defines methods to support the comparison of objects for equality.">
<polygon fill="none" stroke="black" points="79.5,-62 79.5,-81 175.5,-81 175.5,-62 79.5,-62"/>
<text text-anchor="middle" x="127.5" y="-69" font-family="Helvetica,sans-Serif" font-size="10.00">IEqualityComparer</text>
</a>
</g>
</g>
<!-- Node2&#45;&gt;Node0 -->
<g id="edge2" class="edge"><title>Node2&#45;&gt;Node0</title>
<path fill="none" stroke="midnightblue" d="M143.044,-54.8245C154.253,-43.5202 168.956,-28.6928 178.062,-19.5091"/>
<polygon fill="midnightblue" stroke="midnightblue" points="140.509,-52.4098 135.953,-61.9751 145.48,-57.3387 140.509,-52.4098"/>
</g>
<!-- Node3 -->
<g id="node4" class="node"><title>Node3</title>
<g id="a_node4"><a xlink:href="interface_system_1_1_collections_1_1_i_comparer.html" target="_top" xlink:title=" ">
<polygon fill="none" stroke="red" points="194,-62 194,-81 297,-81 297,-62 194,-62"/>
<text text-anchor="middle" x="245.5" y="-69" font-family="Helvetica,sans-Serif" font-size="10.00">IComparer&lt; string &gt;</text>
</a>
</g>
</g>
<!-- Node3&#45;&gt;Node0 -->
<g id="edge3" class="edge"><title>Node3&#45;&gt;Node0</title>
<path fill="none" stroke="midnightblue" d="M229.956,-54.8245C218.747,-43.5202 204.044,-28.6928 194.938,-19.5091"/>
<polygon fill="midnightblue" stroke="midnightblue" points="227.52,-57.3387 237.047,-61.9751 232.491,-52.4098 227.52,-57.3387"/>
</g>
<!-- Node5 -->
<g id="node5" class="node"><title>Node5</title>
<g id="a_node5"><a xlink:href="interface_system_1_1_collections_1_1_generic_1_1_i_equality_comparer.html" target="_top" xlink:title=" ">
<polygon fill="none" stroke="red" points="315.5,-56.5 315.5,-86.5 417.5,-86.5 417.5,-56.5 315.5,-56.5"/>
<text text-anchor="start" x="323.5" y="-74.5" font-family="Helvetica,sans-Serif" font-size="10.00">IEqualityComparer&lt;</text>
<text text-anchor="middle" x="366.5" y="-63.5" font-family="Helvetica,sans-Serif" font-size="10.00"> string &gt;</text>
</a>
</g>
</g>
<!-- Node5&#45;&gt;Node0 -->
<g id="edge4" class="edge"><title>Node5&#45;&gt;Node0</title>
<path fill="none" stroke="midnightblue" d="M314.218,-53.2179C280.805,-42.173 238.924,-28.3289 212.429,-19.5709"/>
<polygon fill="midnightblue" stroke="midnightblue" points="313.249,-56.5839 323.843,-56.3993 315.446,-49.9376 313.249,-56.5839"/>
</g>
</g>
</svg>
