<?xml version="1.0" encoding="UTF-8" standalone="no"?>
<!DOCTYPE svg PUBLIC "-//W3C//DTD SVG 1.1//EN"
 "http://www.w3.org/Graphics/SVG/1.1/DTD/svg11.dtd">
<!-- Generated by graphviz version 2.38.0 (20140413.2041)
 -->
<!-- Title: System.ComponentModel.ComplexBindingPropertiesAttribute Pages: 1 -->
<svg width="230pt" height="96pt"
 viewBox="0.00 0.00 230.00 96.00" xmlns="http://www.w3.org/2000/svg" xmlns:xlink="http://www.w3.org/1999/xlink">
<g id="graph0" class="graph" transform="scale(1 1) rotate(0) translate(4 92)">
<title>System.ComponentModel.ComplexBindingPropertiesAttribute</title>
<!-- Node3 -->
<g id="node1" class="node"><title>Node3</title>
<g id="a_node1"><a xlink:title="Specifies the data source and data member properties for a component that supports complex data bindi...">
<polygon fill="#bfbfbf" stroke="black" points="0,-0.5 0,-30.5 170,-30.5 170,-0.5 0,-0.5"/>
<text text-anchor="start" x="8" y="-18.5" font-family="Helvetica,sans-Serif" font-size="10.00">System.ComponentModel.Complex</text>
<text text-anchor="middle" x="85" y="-7.5" font-family="Helvetica,sans-Serif" font-size="10.00">BindingPropertiesAttribute</text>
</a>
</g>
</g>
<!-- Node3&#45;&gt;Node3 -->
<g id="edge2" class="edge"><title>Node3&#45;&gt;Node3</title>
<path fill="none" stroke="#9a32cd" stroke-dasharray="5,2" d="M180.216,-19.6589C185.109,-18.6305 188,-17.2442 188,-15.5 188,-12.7773 180.955,-10.9268 170.249,-9.94833"/>
<polygon fill="#9a32cd" stroke="#9a32cd" points="179.669,-16.2012 170.249,-21.0517 180.638,-23.1339 179.669,-16.2012"/>
<text text-anchor="middle" x="205" y="-13" font-family="Helvetica,sans-Serif" font-size="10.00"> Default</text>
</g>
<!-- Node4 -->
<g id="node2" class="node"><title>Node4</title>
<g id="a_node2"><a xlink:href="class_system_1_1_attribute.html" target="_top" xlink:title="Represents the base class for custom attributes.">
<polygon fill="none" stroke="red" points="58.5,-68.5 58.5,-87.5 111.5,-87.5 111.5,-68.5 58.5,-68.5"/>
<text text-anchor="middle" x="85" y="-75.5" font-family="Helvetica,sans-Serif" font-size="10.00">Attribute</text>
</a>
</g>
</g>
<!-- Node4&#45;&gt;Node3 -->
<g id="edge1" class="edge"><title>Node4&#45;&gt;Node3</title>
<path fill="none" stroke="midnightblue" d="M85,-58.2154C85,-49.3565 85,-38.9577 85,-30.7587"/>
<polygon fill="midnightblue" stroke="midnightblue" points="81.5001,-58.3318 85,-68.3318 88.5001,-58.3319 81.5001,-58.3318"/>
</g>
</g>
</svg>
