<?xml version="1.0" encoding="UTF-8" standalone="no"?>
<!DOCTYPE svg PUBLIC "-//W3C//DTD SVG 1.1//EN"
 "http://www.w3.org/Graphics/SVG/1.1/DTD/svg11.dtd">
<!-- Generated by graphviz version 2.38.0 (20140413.2041)
 -->
<!-- Title: System.Text.RegularExpressions.Regex Pages: 1 -->
<!--zoomable 191 -->
<svg id="main" version="1.1" xmlns="http://www.w3.org/2000/svg" xmlns:xlink="http://www.w3.org/1999/xlink" xml:space="preserve" onload="init(evt)">
<style type="text/css"><![CDATA[
.edge:hover path { stroke: red; }
.edge:hover polygon { stroke: red; fill: red; }
]]></style>
<script type="text/javascript"><![CDATA[
var edges = document.getElementsByTagName('g');
if (edges && edges.length) {
  for (var i=0;i<edges.length;i++) {
    if (edges[i].id.substr(0,4)=='edge') {
      edges[i].setAttribute('class','edge');
    }
  }
}
]]></script>
        <defs>
                <circle id="rim" cx="0" cy="0" r="7"/>
                <circle id="rim2" cx="0" cy="0" r="3.5"/>
                <g id="zoomPlus">
                        <use xlink:href="#rim" fill="#404040">
                                <set attributeName="fill" to="#808080" begin="zoomplus.mouseover" end="zoomplus.mouseout"/>
                        </use>
                        <path d="M-4,0h8M0,-4v8" fill="none" stroke="white" stroke-width="1.5" pointer-events="none"/>
                </g>
                <g id="zoomMin">
                        <use xlink:href="#rim" fill="#404040">
                                <set attributeName="fill" to="#808080" begin="zoomminus.mouseover" end="zoomminus.mouseout"/>
                        </use>
                        <path d="M-4,0h8" fill="none" stroke="white" stroke-width="1.5" pointer-events="none"/>
                </g>
                <g id="dirArrow">
                        <path fill="none" stroke="white" stroke-width="1.5" d="M0,-3.0v7 M-2.5,-0.5L0,-3.0L2.5,-0.5"/>
                </g>
               <g id="resetDef">
                       <use xlink:href="#rim2" fill="#404040">
                               <set attributeName="fill" to="#808080" begin="reset.mouseover" end="reset.mouseout"/>
                       </use>
               </g>
        </defs>

<script type="text/javascript">
var viewWidth = 577;
var viewHeight = 191;
var sectionId = 'dynsection-1';
</script>
<script xlink:href="svgpan.js"/>
<svg id="graph" class="graph">
<g id="viewport">
<title>System.Text.RegularExpressions.Regex</title>
<!-- Node2 -->
<g id="node1" class="node"><title>Node2</title>
<g id="a_node1"><a xlink:title="Represents an immutable regular expression.To browse the .NET Framework source code for this type,...">
<polygon fill="#bfbfbf" stroke="black" points="404,-109 404,-139 569,-139 569,-109 404,-109"/>
<text text-anchor="start" x="412" y="-127" font-family="Helvetica,sans-Serif" font-size="10.00">System.Text.RegularExpressions.</text>
<text text-anchor="middle" x="486.5" y="-116" font-family="Helvetica,sans-Serif" font-size="10.00">Regex</text>
</a>
</g>
</g>
<!-- Node3 -->
<g id="node2" class="node"><title>Node3</title>
<g id="a_node2"><a xlink:href="interface_system_1_1_runtime_1_1_serialization_1_1_i_serializable.html" target="_top" xlink:title="Allows an object to control its own serialization and deserialization.">
<polygon fill="none" stroke="black" points="0,-161.5 0,-180.5 69,-180.5 69,-161.5 0,-161.5"/>
<text text-anchor="middle" x="34.5" y="-168.5" font-family="Helvetica,sans-Serif" font-size="10.00">ISerializable</text>
</a>
</g>
</g>
<!-- Node3&#45;&gt;Node2 -->
<g id="edge1" class="edge"><title>Node3&#45;&gt;Node2</title>
<path fill="none" stroke="midnightblue" d="M79.5474,-176.112C146.601,-182.641 277.905,-190.495 386,-167 411.745,-161.404 439.089,-149.069 458.583,-139.039"/>
<polygon fill="midnightblue" stroke="midnightblue" points="79.6523,-172.604 69.3508,-175.08 78.9477,-179.569 79.6523,-172.604"/>
</g>
<!-- Node12 -->
<g id="node5" class="node"><title>Node12</title>
<g id="a_node5"><a xlink:href="class_system_1_1_collections_1_1_hashtable.html" target="_top" xlink:title="Represents a collection of key/value pairs that are organized based on the hash code of the key....">
<polygon fill="none" stroke="red" points="114.5,-139.5 114.5,-158.5 262.5,-158.5 262.5,-139.5 114.5,-139.5"/>
<text text-anchor="middle" x="188.5" y="-146.5" font-family="Helvetica,sans-Serif" font-size="10.00">System.Collections.Hashtable</text>
</a>
</g>
</g>
<!-- Node3&#45;&gt;Node12 -->
<g id="edge6" class="edge"><title>Node3&#45;&gt;Node12</title>
<path fill="none" stroke="midnightblue" d="M79.4484,-164.639C92.6575,-162.727 107.448,-160.586 121.746,-158.517"/>
<polygon fill="midnightblue" stroke="midnightblue" points="78.6292,-161.221 69.2337,-166.117 79.632,-168.149 78.6292,-161.221"/>
</g>
<!-- Node4 -->
<g id="node3" class="node"><title>Node4</title>
<g id="a_node3"><a xlink:href="class_system_1_1_text_1_1_regular_expressions_1_1_regex_runner_factory.html" target="_top" xlink:title="Creates a T:System.Text.RegularExpressions.RegexRunner class for a compiled regular expression.">
<polygon fill="none" stroke="black" points="106,-90 106,-120 271,-120 271,-90 106,-90"/>
<text text-anchor="start" x="114" y="-108" font-family="Helvetica,sans-Serif" font-size="10.00">System.Text.RegularExpressions.</text>
<text text-anchor="middle" x="188.5" y="-97" font-family="Helvetica,sans-Serif" font-size="10.00">RegexRunnerFactory</text>
</a>
</g>
</g>
<!-- Node4&#45;&gt;Node2 -->
<g id="edge2" class="edge"><title>Node4&#45;&gt;Node2</title>
<path fill="none" stroke="#9a32cd" stroke-dasharray="5,2" d="M281.435,-105.918C314.448,-106.747 351.931,-108.261 386,-111 391.817,-111.468 397.816,-112.036 403.849,-112.669"/>
<polygon fill="#9a32cd" stroke="#9a32cd" points="281.421,-102.417 271.342,-105.683 281.258,-109.415 281.421,-102.417"/>
<text text-anchor="middle" x="337.5" y="-114" font-family="Helvetica,sans-Serif" font-size="10.00"> factory</text>
</g>
<!-- Node5 -->
<g id="node4" class="node"><title>Node5</title>
<g id="a_node4"><a xlink:href="struct_system_1_1_time_span.html" target="_top" xlink:title="Represents a time interval.To browse the .NET Framework source code for this type,...">
<polygon fill="none" stroke="red" points="140,-0.5 140,-19.5 237,-19.5 237,-0.5 140,-0.5"/>
<text text-anchor="middle" x="188.5" y="-7.5" font-family="Helvetica,sans-Serif" font-size="10.00">System.TimeSpan</text>
</a>
</g>
</g>
<!-- Node5&#45;&gt;Node2 -->
<g id="edge3" class="edge"><title>Node5&#45;&gt;Node2</title>
<path fill="none" stroke="#9a32cd" stroke-dasharray="5,2" d="M227.244,-22.8676C266.995,-36.5986 331.287,-59.3165 386,-81 408.218,-89.8053 432.88,-100.457 452.092,-108.956"/>
<polygon fill="#9a32cd" stroke="#9a32cd" points="228.282,-19.5234 217.687,-19.5763 226.003,-26.1419 228.282,-19.5234"/>
<text text-anchor="middle" x="337.5" y="-95" font-family="Helvetica,sans-Serif" font-size="10.00"> internalMatchTimeout</text>
<text text-anchor="middle" x="337.5" y="-84" font-family="Helvetica,sans-Serif" font-size="10.00">InfiniteMatchTimeout</text>
</g>
<!-- Node5&#45;&gt;Node5 -->
<g id="edge4" class="edge"><title>Node5&#45;&gt;Node5</title>
<path fill="none" stroke="#9a32cd" stroke-dasharray="5,2" d="M169.982,-29.4C171.219,-34.3146 177.392,-38 188.5,-38 206.273,-38 211.411,-28.5653 203.913,-19.7571"/>
<polygon fill="#9a32cd" stroke="#9a32cd" points="173.354,-30.3485 173.087,-19.7571 166.691,-28.2032 173.354,-30.3485"/>
<text text-anchor="middle" x="188.5" y="-63" font-family="Helvetica,sans-Serif" font-size="10.00"> MaxValue</text>
<text text-anchor="middle" x="188.5" y="-52" font-family="Helvetica,sans-Serif" font-size="10.00">Zero</text>
<text text-anchor="middle" x="188.5" y="-41" font-family="Helvetica,sans-Serif" font-size="10.00">MinValue</text>
</g>
<!-- Node12&#45;&gt;Node2 -->
<g id="edge5" class="edge"><title>Node12&#45;&gt;Node2</title>
<path fill="none" stroke="#9a32cd" stroke-dasharray="5,2" d="M272.637,-141.978C313.657,-138.514 362.965,-134.349 403.79,-130.901"/>
<polygon fill="#9a32cd" stroke="#9a32cd" points="272.338,-138.491 262.669,-142.82 272.928,-145.466 272.338,-138.491"/>
<text text-anchor="middle" x="337.5" y="-155" font-family="Helvetica,sans-Serif" font-size="10.00"> capnames</text>
<text text-anchor="middle" x="337.5" y="-144" font-family="Helvetica,sans-Serif" font-size="10.00">caps</text>
</g>
</g>
</svg>
        <g id="navigator" transform="translate(0 0)" fill="#404254">
                <rect fill="#f2f5e9" fill-opacity="0.5" stroke="#606060" stroke-width=".5" x="0" y="0" width="60" height="60"/>
                <use id="zoomplus" xlink:href="#zoomPlus" x="17" y="9" onmousedown="handleZoom(evt,'in')"/>
                <use id="zoomminus" xlink:href="#zoomMin" x="42" y="9" onmousedown="handleZoom(evt,'out')"/>
                <use id="reset" xlink:href="#resetDef" x="30" y="36" onmousedown="handleReset()"/>
                <g id="arrowUp" xlink:href="#dirArrow" transform="translate(30 24)" onmousedown="handlePan(0,-1)">
                  <use xlink:href="#rim" fill="#404040">
                        <set attributeName="fill" to="#808080" begin="arrowUp.mouseover" end="arrowUp.mouseout"/>
                  </use>
                  <path fill="none" stroke="white" stroke-width="1.5" d="M0,-3.0v7 M-2.5,-0.5L0,-3.0L2.5,-0.5"/>
                </g>
                <g id="arrowRight" xlink:href="#dirArrow" transform="rotate(90) translate(36 -43)" onmousedown="handlePan(1,0)">
                  <use xlink:href="#rim" fill="#404040">
                        <set attributeName="fill" to="#808080" begin="arrowRight.mouseover" end="arrowRight.mouseout"/>
                  </use>
                  <path fill="none" stroke="white" stroke-width="1.5" d="M0,-3.0v7 M-2.5,-0.5L0,-3.0L2.5,-0.5"/>
                </g>
                <g id="arrowDown" xlink:href="#dirArrow" transform="rotate(180) translate(-30 -48)" onmousedown="handlePan(0,1)">
                  <use xlink:href="#rim" fill="#404040">
                        <set attributeName="fill" to="#808080" begin="arrowDown.mouseover" end="arrowDown.mouseout"/>
                  </use>
                  <path fill="none" stroke="white" stroke-width="1.5" d="M0,-3.0v7 M-2.5,-0.5L0,-3.0L2.5,-0.5"/>
                </g>
                <g id="arrowLeft" xlink:href="#dirArrow" transform="rotate(270) translate(-36 17)" onmousedown="handlePan(-1,0)">
                  <use xlink:href="#rim" fill="#404040">
                        <set attributeName="fill" to="#808080" begin="arrowLeft.mouseover" end="arrowLeft.mouseout"/>
                  </use>
                  <path fill="none" stroke="white" stroke-width="1.5" d="M0,-3.0v7 M-2.5,-0.5L0,-3.0L2.5,-0.5"/>
                </g>
        </g>
        <svg viewBox="0 0 15 15" width="100%" height="30px" preserveAspectRatio="xMaxYMin meet">
         <g id="arrow_out" transform="scale(0.3 0.3)">
          <a xlink:href="class_system_1_1_text_1_1_regular_expressions_1_1_regex__coll__graph_org.svg" target="_base">
           <rect id="button" ry="5" rx="5" y="6" x="6" height="38" width="38"
                fill="#f2f5e9" fill-opacity="0.5" stroke="#606060" stroke-width="1.0"/>
           <path id="arrow"
             d="M 11.500037,31.436501 C 11.940474,20.09759 22.043105,11.32322 32.158766,21.979434 L 37.068811,17.246167 C 37.068811,17.246167 37.088388,32 37.088388,32 L 22.160133,31.978069 C 22.160133,31.978069 26.997745,27.140456 26.997745,27.140456 C 18.528582,18.264221 13.291696,25.230495 11.500037,31.436501 z"
             style="fill:#404040;"/>
          </a>
         </g>
        </svg>
</svg>
