<?xml version="1.0" encoding="UTF-8" standalone="no"?>
<!DOCTYPE svg PUBLIC "-//W3C//DTD SVG 1.1//EN"
 "http://www.w3.org/Graphics/SVG/1.1/DTD/svg11.dtd">
<!-- Generated by graphviz version 2.38.0 (20140413.2041)
 -->
<!-- Title: System.Text.DecoderNLS Pages: 1 -->
<svg width="283pt" height="152pt"
 viewBox="0.00 0.00 282.50 152.00" xmlns="http://www.w3.org/2000/svg" xmlns:xlink="http://www.w3.org/1999/xlink">
<g id="graph0" class="graph" transform="scale(1 1) rotate(0) translate(4 148)">
<title>System.Text.DecoderNLS</title>
<!-- Node3 -->
<g id="node1" class="node"><title>Node3</title>
<g id="a_node1"><a xlink:title=" ">
<polygon fill="#bfbfbf" stroke="black" points="40.5,-0.5 40.5,-19.5 170.5,-19.5 170.5,-0.5 40.5,-0.5"/>
<text text-anchor="middle" x="105.5" y="-7.5" font-family="Helvetica,sans-Serif" font-size="10.00">System.Text.DecoderNLS</text>
</a>
</g>
</g>
<!-- Node4 -->
<g id="node2" class="node"><title>Node4</title>
<g id="a_node2"><a xlink:href="class_system_1_1_text_1_1_decoder.html" target="_top" xlink:title="Converts a sequence of encoded bytes into a set of characters.">
<polygon fill="none" stroke="black" points="0,-67.5 0,-86.5 53,-86.5 53,-67.5 0,-67.5"/>
<text text-anchor="middle" x="26.5" y="-74.5" font-family="Helvetica,sans-Serif" font-size="10.00">Decoder</text>
</a>
</g>
</g>
<!-- Node4&#45;&gt;Node3 -->
<g id="edge1" class="edge"><title>Node4&#45;&gt;Node3</title>
<path fill="none" stroke="midnightblue" d="M45.0791,-60.7134C60.6438,-47.907 82.3003,-30.0884 95.0145,-19.6273"/>
<polygon fill="midnightblue" stroke="midnightblue" points="42.6526,-58.1774 37.1543,-67.2338 47.1002,-63.5829 42.6526,-58.1774"/>
</g>
<!-- Node5 -->
<g id="node3" class="node"><title>Node5</title>
<g id="a_node3"><a xlink:href="interface_system_1_1_runtime_1_1_serialization_1_1_i_serializable.html" target="_top" xlink:title="Allows an object to control its own serialization and deserialization.">
<polygon fill="none" stroke="black" points="71,-67.5 71,-86.5 140,-86.5 140,-67.5 71,-67.5"/>
<text text-anchor="middle" x="105.5" y="-74.5" font-family="Helvetica,sans-Serif" font-size="10.00">ISerializable</text>
</a>
</g>
</g>
<!-- Node5&#45;&gt;Node3 -->
<g id="edge2" class="edge"><title>Node5&#45;&gt;Node3</title>
<path fill="none" stroke="midnightblue" d="M105.5,-57.037C105.5,-44.6703 105.5,-29.1198 105.5,-19.6273"/>
<polygon fill="midnightblue" stroke="midnightblue" points="102,-57.2338 105.5,-67.2338 109,-57.2338 102,-57.2338"/>
</g>
<!-- Node6 -->
<g id="node4" class="node"><title>Node6</title>
<g id="a_node4"><a xlink:href="class_system_1_1_text_1_1_encoding.html" target="_top" xlink:title="Represents a character encoding.To browse the .NET Framework source code for this type,...">
<polygon fill="none" stroke="black" points="158.5,-67.5 158.5,-86.5 274.5,-86.5 274.5,-67.5 158.5,-67.5"/>
<text text-anchor="middle" x="216.5" y="-74.5" font-family="Helvetica,sans-Serif" font-size="10.00">System.Text.Encoding</text>
</a>
</g>
</g>
<!-- Node6&#45;&gt;Node3 -->
<g id="edge3" class="edge"><title>Node6&#45;&gt;Node3</title>
<path fill="none" stroke="#9a32cd" stroke-dasharray="5,2" d="M192.789,-62.1151C170.797,-49.237 138.759,-30.4758 120.233,-19.6273"/>
<polygon fill="#9a32cd" stroke="#9a32cd" points="191.132,-65.2008 201.53,-67.2338 194.669,-59.1603 191.132,-65.2008"/>
<text text-anchor="middle" x="195.5" y="-41" font-family="Helvetica,sans-Serif" font-size="10.00"> m_encoding</text>
</g>
<!-- Node7 -->
<g id="node5" class="node"><title>Node7</title>
<g id="a_node5"><a xlink:href="interface_system_1_1_i_cloneable.html" target="_top" xlink:title="Supports cloning, which creates a new instance of a class with the same value as an existing instance...">
<polygon fill="none" stroke="black" points="185.5,-124.5 185.5,-143.5 247.5,-143.5 247.5,-124.5 185.5,-124.5"/>
<text text-anchor="middle" x="216.5" y="-131.5" font-family="Helvetica,sans-Serif" font-size="10.00">ICloneable</text>
</a>
</g>
</g>
<!-- Node7&#45;&gt;Node6 -->
<g id="edge4" class="edge"><title>Node7&#45;&gt;Node6</title>
<path fill="none" stroke="midnightblue" d="M216.5,-114.117C216.5,-104.817 216.5,-94.0557 216.5,-86.7149"/>
<polygon fill="midnightblue" stroke="midnightblue" points="213,-114.406 216.5,-124.406 220,-114.406 213,-114.406"/>
</g>
</g>
</svg>
