<?xml version="1.0" encoding="UTF-8" standalone="no"?>
<!DOCTYPE svg PUBLIC "-//W3C//DTD SVG 1.1//EN"
 "http://www.w3.org/Graphics/SVG/1.1/DTD/svg11.dtd">
<!-- Generated by graphviz version 2.38.0 (20140413.2041)
 -->
<!-- Title: System.Security.Cryptography.DSA Pages: 1 -->
<svg width="516pt" height="88pt"
 viewBox="0.00 0.00 516.00 88.00" xmlns="http://www.w3.org/2000/svg" xmlns:xlink="http://www.w3.org/1999/xlink">
<g id="graph0" class="graph" transform="scale(1 1) rotate(0) translate(4 84)">
<title>System.Security.Cryptography.DSA</title>
<!-- Node0 -->
<g id="node1" class="node"><title>Node0</title>
<g id="a_node1"><a xlink:title="Represents the abstract base class from which all implementations of the Digital Signature Algorithm ...">
<polygon fill="#bfbfbf" stroke="black" points="146,-30 146,-49 319,-49 319,-30 146,-30"/>
<text text-anchor="middle" x="232.5" y="-37" font-family="Helvetica,sans-Serif" font-size="10.00">System.Security.Cryptography.DSA</text>
</a>
</g>
</g>
<!-- Node3 -->
<g id="node3" class="node"><title>Node3</title>
<g id="a_node3"><a xlink:href="class_system_1_1_security_1_1_cryptography_1_1_d_s_a_cng.html" target="_top" xlink:title="Provides a Cryptography Next Generation (CNG) implementation of the Digital Signature Algorithm (DSA)...">
<polygon fill="none" stroke="black" points="355,-49.5 355,-79.5 508,-79.5 508,-49.5 355,-49.5"/>
<text text-anchor="start" x="363" y="-67.5" font-family="Helvetica,sans-Serif" font-size="10.00">System.Security.Cryptography.</text>
<text text-anchor="middle" x="431.5" y="-56.5" font-family="Helvetica,sans-Serif" font-size="10.00">DSACng</text>
</a>
</g>
</g>
<!-- Node0&#45;&gt;Node3 -->
<g id="edge2" class="edge"><title>Node0&#45;&gt;Node3</title>
<path fill="none" stroke="midnightblue" d="M318.554,-50.2937C330.572,-51.8188 342.862,-53.3784 354.69,-54.8795"/>
<polygon fill="midnightblue" stroke="midnightblue" points="318.9,-46.8096 308.539,-49.0227 318.019,-53.7539 318.9,-46.8096"/>
</g>
<!-- Node4 -->
<g id="node4" class="node"><title>Node4</title>
<g id="a_node4"><a xlink:href="class_system_1_1_security_1_1_cryptography_1_1_d_s_a_crypto_service_provider.html" target="_top" xlink:title="Defines a wrapper object to access the cryptographic service provider (CSP) implementation of the T:S...">
<polygon fill="none" stroke="black" points="355,-0.5 355,-30.5 508,-30.5 508,-0.5 355,-0.5"/>
<text text-anchor="start" x="363" y="-18.5" font-family="Helvetica,sans-Serif" font-size="10.00">System.Security.Cryptography.</text>
<text text-anchor="middle" x="431.5" y="-7.5" font-family="Helvetica,sans-Serif" font-size="10.00">DSACryptoServiceProvider</text>
</a>
</g>
</g>
<!-- Node0&#45;&gt;Node4 -->
<g id="edge3" class="edge"><title>Node0&#45;&gt;Node4</title>
<path fill="none" stroke="midnightblue" d="M321.694,-28.7556C332.709,-27.4136 343.898,-26.0504 354.702,-24.7342"/>
<polygon fill="midnightblue" stroke="midnightblue" points="321.146,-25.2964 311.643,-29.9801 321.992,-32.245 321.146,-25.2964"/>
</g>
<!-- Node1 -->
<g id="node2" class="node"><title>Node1</title>
<g id="a_node2"><a xlink:href="class_system_1_1_security_1_1_cryptography_1_1_asymmetric_algorithm.html" target="_top" xlink:title="Represents the abstract base class from which all implementations of asymmetric algorithms must inher...">
<polygon fill="none" stroke="red" points="0,-30 0,-49 110,-49 110,-30 0,-30"/>
<text text-anchor="middle" x="55" y="-37" font-family="Helvetica,sans-Serif" font-size="10.00">AsymmetricAlgorithm</text>
</a>
</g>
</g>
<!-- Node1&#45;&gt;Node0 -->
<g id="edge1" class="edge"><title>Node1&#45;&gt;Node0</title>
<path fill="none" stroke="midnightblue" d="M120.157,-39.5C128.558,-39.5 137.27,-39.5 145.954,-39.5"/>
<polygon fill="midnightblue" stroke="midnightblue" points="120.088,-36.0001 110.088,-39.5 120.088,-43.0001 120.088,-36.0001"/>
</g>
</g>
</svg>
