<?xml version="1.0" encoding="UTF-8" standalone="no"?>
<!DOCTYPE svg PUBLIC "-//W3C//DTD SVG 1.1//EN"
 "http://www.w3.org/Graphics/SVG/1.1/DTD/svg11.dtd">
<!-- Generated by graphviz version 2.38.0 (20140413.2041)
 -->
<!-- Title: System.TimeZoneInfo Pages: 1 -->
<svg width="371pt" height="152pt"
 viewBox="0.00 0.00 370.50 152.00" xmlns="http://www.w3.org/2000/svg" xmlns:xlink="http://www.w3.org/1999/xlink">
<g id="graph0" class="graph" transform="scale(1 1) rotate(0) translate(4 148)">
<title>System.TimeZoneInfo</title>
<!-- Node0 -->
<g id="node1" class="node"><title>Node0</title>
<g id="a_node1"><a xlink:title="Represents any time zone in the world.">
<polygon fill="#bfbfbf" stroke="black" points="134.5,-0.5 134.5,-19.5 244.5,-19.5 244.5,-0.5 134.5,-0.5"/>
<text text-anchor="middle" x="189.5" y="-7.5" font-family="Helvetica,sans-Serif" font-size="10.00">System.TimeZoneInfo</text>
</a>
</g>
</g>
<!-- Node1 -->
<g id="node2" class="node"><title>Node1</title>
<g id="a_node2"><a xlink:href="interface_system_1_1_i_equatable.html" target="_top" xlink:title=" ">
<polygon fill="none" stroke="black" points="0,-57.5 0,-76.5 137,-76.5 137,-57.5 0,-57.5"/>
<text text-anchor="middle" x="68.5" y="-64.5" font-family="Helvetica,sans-Serif" font-size="10.00">IEquatable&lt; TimeZoneInfo &gt;</text>
</a>
</g>
</g>
<!-- Node1&#45;&gt;Node0 -->
<g id="edge1" class="edge"><title>Node1&#45;&gt;Node0</title>
<path fill="none" stroke="midnightblue" d="M96.583,-53.235C119.379,-42.8732 150.888,-28.5509 170.727,-19.5334"/>
<polygon fill="midnightblue" stroke="midnightblue" points="95.0616,-50.0819 87.4063,-57.4063 97.9583,-56.4544 95.0616,-50.0819"/>
</g>
<!-- Node2 -->
<g id="node3" class="node"><title>Node2</title>
<g id="a_node3"><a xlink:href="interface_system_1_1_i_equatable.html" target="_top" xlink:title="Defines a generalized method that a value type or class implements to create a type&#45;specific method f...">
<polygon fill="none" stroke="black" points="7.5,-124.5 7.5,-143.5 129.5,-143.5 129.5,-124.5 7.5,-124.5"/>
<text text-anchor="middle" x="68.5" y="-131.5" font-family="Helvetica,sans-Serif" font-size="10.00">System.IEquatable&lt; T &gt;</text>
</a>
</g>
</g>
<!-- Node2&#45;&gt;Node1 -->
<g id="edge2" class="edge"><title>Node2&#45;&gt;Node1</title>
<path fill="none" stroke="orange" stroke-dasharray="5,2" d="M68.5,-114.037C68.5,-101.67 68.5,-86.1198 68.5,-76.6273"/>
<polygon fill="orange" stroke="orange" points="65.0001,-114.234 68.5,-124.234 72.0001,-114.234 65.0001,-114.234"/>
<text text-anchor="middle" x="108" y="-98" font-family="Helvetica,sans-Serif" font-size="10.00"> &lt; TimeZoneInfo &gt;</text>
</g>
<!-- Node3 -->
<g id="node4" class="node"><title>Node3</title>
<g id="a_node4"><a xlink:href="interface_system_1_1_runtime_1_1_serialization_1_1_i_serializable.html" target="_top" xlink:title="Allows an object to control its own serialization and deserialization.">
<polygon fill="none" stroke="black" points="155,-57.5 155,-76.5 224,-76.5 224,-57.5 155,-57.5"/>
<text text-anchor="middle" x="189.5" y="-64.5" font-family="Helvetica,sans-Serif" font-size="10.00">ISerializable</text>
</a>
</g>
</g>
<!-- Node3&#45;&gt;Node0 -->
<g id="edge3" class="edge"><title>Node3&#45;&gt;Node0</title>
<path fill="none" stroke="midnightblue" d="M189.5,-47.1166C189.5,-37.8173 189.5,-27.0557 189.5,-19.7149"/>
<polygon fill="midnightblue" stroke="midnightblue" points="186,-47.4062 189.5,-57.4063 193,-47.4063 186,-47.4062"/>
</g>
<!-- Node4 -->
<g id="node5" class="node"><title>Node4</title>
<g id="a_node5"><a xlink:href="interface_system_1_1_runtime_1_1_serialization_1_1_i_deserialization_callback.html" target="_top" xlink:title="Indicates that a class is to be notified when deserialization of the entire object graph has been com...">
<polygon fill="none" stroke="black" points="242.5,-57.5 242.5,-76.5 362.5,-76.5 362.5,-57.5 242.5,-57.5"/>
<text text-anchor="middle" x="302.5" y="-64.5" font-family="Helvetica,sans-Serif" font-size="10.00">IDeserializationCallback</text>
</a>
</g>
</g>
<!-- Node4&#45;&gt;Node0 -->
<g id="edge4" class="edge"><title>Node4&#45;&gt;Node0</title>
<path fill="none" stroke="midnightblue" d="M275.702,-52.9565C254.46,-42.6179 225.394,-28.4704 207.032,-19.5334"/>
<polygon fill="midnightblue" stroke="midnightblue" points="274.32,-56.1768 284.844,-57.4063 277.384,-49.8828 274.32,-56.1768"/>
</g>
</g>
</svg>
