<?xml version="1.0" encoding="UTF-8" standalone="no"?>
<!DOCTYPE svg PUBLIC "-//W3C//DTD SVG 1.1//EN"
 "http://www.w3.org/Graphics/SVG/1.1/DTD/svg11.dtd">
<!-- Generated by graphviz version 2.38.0 (20140413.2041)
 -->
<!-- Title: System.Resources.ResourceSet Pages: 1 -->
<svg width="851pt" height="388pt"
 viewBox="0.00 0.00 851.00 388.00" xmlns="http://www.w3.org/2000/svg" xmlns:xlink="http://www.w3.org/1999/xlink">
<g id="graph0" class="graph" transform="scale(1 1) rotate(0) translate(4 384)">
<title>System.Resources.ResourceSet</title>
<!-- Node4 -->
<g id="node1" class="node"><title>Node4</title>
<g id="a_node1"><a xlink:title="Stores all the resources localized for one particular culture, ignoring all other cultures,...">
<polygon fill="#bfbfbf" stroke="black" points="684,-297.5 684,-316.5 843,-316.5 843,-297.5 684,-297.5"/>
<text text-anchor="middle" x="763.5" y="-304.5" font-family="Helvetica,sans-Serif" font-size="10.00">System.Resources.ResourceSet</text>
</a>
</g>
</g>
<!-- Node5 -->
<g id="node2" class="node"><title>Node5</title>
<g id="a_node2"><a xlink:href="interface_system_1_1_i_disposable.html" target="_top" xlink:title="Provides a mechanism for releasing unmanaged resources.To browse the .NET Framework source code for t...">
<polygon fill="none" stroke="black" points="244.5,-360.5 244.5,-379.5 311.5,-379.5 311.5,-360.5 244.5,-360.5"/>
<text text-anchor="middle" x="278" y="-367.5" font-family="Helvetica,sans-Serif" font-size="10.00">IDisposable</text>
</a>
</g>
</g>
<!-- Node5&#45;&gt;Node4 -->
<g id="edge1" class="edge"><title>Node5&#45;&gt;Node4</title>
<path fill="none" stroke="midnightblue" d="M321.81,-372.213C385.925,-374.659 510.429,-376.038 614,-357 660.286,-348.492 711.831,-328.649 740.389,-316.677"/>
<polygon fill="midnightblue" stroke="midnightblue" points="321.812,-368.711 311.677,-371.798 321.526,-375.705 321.812,-368.711"/>
</g>
<!-- Node7 -->
<g id="node4" class="node"><title>Node7</title>
<g id="a_node4"><a xlink:href="interface_system_1_1_resources_1_1_i_resource_reader.html" target="_top" xlink:title="Provides the base functionality for reading data from resource files.">
<polygon fill="none" stroke="black" points="467,-317 467,-347 613,-347 613,-317 467,-317"/>
<text text-anchor="start" x="475" y="-335" font-family="Helvetica,sans-Serif" font-size="10.00">System.Resources.IResource</text>
<text text-anchor="middle" x="540" y="-324" font-family="Helvetica,sans-Serif" font-size="10.00">Reader</text>
</a>
</g>
</g>
<!-- Node5&#45;&gt;Node7 -->
<g id="edge5" class="edge"><title>Node5&#45;&gt;Node7</title>
<path fill="none" stroke="midnightblue" d="M321.72,-363.756C361.08,-358.004 420.28,-349.351 466.95,-342.53"/>
<polygon fill="midnightblue" stroke="midnightblue" points="321.055,-360.316 311.666,-365.226 322.067,-367.243 321.055,-360.316"/>
</g>
<!-- Node6 -->
<g id="node3" class="node"><title>Node6</title>
<g id="a_node3"><a xlink:href="interface_system_1_1_collections_1_1_i_enumerable.html" target="_top" xlink:title="Exposes an enumerator, which supports a simple iteration over a non&#45;generic collection....">
<polygon fill="none" stroke="black" points="0,-76.5 0,-95.5 71,-95.5 71,-76.5 0,-76.5"/>
<text text-anchor="middle" x="35.5" y="-83.5" font-family="Helvetica,sans-Serif" font-size="10.00">IEnumerable</text>
</a>
</g>
</g>
<!-- Node6&#45;&gt;Node4 -->
<g id="edge2" class="edge"><title>Node6&#45;&gt;Node4</title>
<path fill="none" stroke="midnightblue" d="M37.3318,-105.817C40.6322,-156.704 56.9964,-288 138,-288 138,-288 138,-288 541,-288 590.306,-288 645.562,-292.731 688.55,-297.472"/>
<polygon fill="midnightblue" stroke="midnightblue" points="40.8219,-105.538 36.7849,-95.7429 33.8322,-105.918 40.8219,-105.538"/>
</g>
<!-- Node6&#45;&gt;Node7 -->
<g id="edge4" class="edge"><title>Node6&#45;&gt;Node7</title>
<path fill="none" stroke="midnightblue" d="M38.3802,-105.883C43.4051,-154.381 58.8596,-276.641 89,-302 144.344,-348.566 354.177,-343.545 466.691,-337.143"/>
<polygon fill="midnightblue" stroke="midnightblue" points="41.8429,-105.333 37.3705,-95.7287 34.8772,-106.026 41.8429,-105.333"/>
</g>
<!-- Node8 -->
<g id="node5" class="node"><title>Node8</title>
<g id="a_node5"><a xlink:href="class_system_1_1_collections_1_1_hashtable.html" target="_top" xlink:title="Represents a collection of key/value pairs that are organized based on the hash code of the key....">
<polygon fill="none" stroke="black" points="466,-142.5 466,-161.5 614,-161.5 614,-142.5 466,-142.5"/>
<text text-anchor="middle" x="540" y="-149.5" font-family="Helvetica,sans-Serif" font-size="10.00">System.Collections.Hashtable</text>
</a>
</g>
</g>
<!-- Node6&#45;&gt;Node8 -->
<g id="edge12" class="edge"><title>Node6&#45;&gt;Node8</title>
<path fill="none" stroke="midnightblue" d="M81.4533,-86.1763C142.411,-86.9964 254.527,-90.566 349,-105 405.768,-113.673 470.388,-131.378 507.753,-142.41"/>
<polygon fill="midnightblue" stroke="midnightblue" points="81.4406,-82.676 71.4008,-86.06 81.3596,-89.6755 81.4406,-82.676"/>
</g>
<!-- Node9 -->
<g id="node6" class="node"><title>Node9</title>
<g id="a_node6"><a xlink:href="interface_system_1_1_collections_1_1_i_dictionary.html" target="_top" xlink:title="Represents a nongeneric collection of key/value pairs.">
<polygon fill="none" stroke="black" points="247,-38.5 247,-57.5 309,-57.5 309,-38.5 247,-38.5"/>
<text text-anchor="middle" x="278" y="-45.5" font-family="Helvetica,sans-Serif" font-size="10.00">IDictionary</text>
</a>
</g>
</g>
<!-- Node6&#45;&gt;Node9 -->
<g id="edge10" class="edge"><title>Node6&#45;&gt;Node9</title>
<path fill="none" stroke="midnightblue" d="M79.672,-73.9985C82.8177,-73.2745 85.9511,-72.5983 89,-72 144.212,-61.1646 209.547,-54.0962 246.846,-50.5969"/>
<polygon fill="midnightblue" stroke="midnightblue" points="78.5574,-70.6676 69.6713,-76.4372 80.2158,-77.4683 78.5574,-70.6676"/>
</g>
<!-- Node10 -->
<g id="node7" class="node"><title>Node10</title>
<g id="a_node7"><a xlink:href="interface_system_1_1_collections_1_1_i_collection.html" target="_top" xlink:title="Defines size, enumerators, and synchronization methods for all nongeneric collections.">
<polygon fill="none" stroke="black" points="108,-0.5 108,-19.5 170,-19.5 170,-0.5 108,-0.5"/>
<text text-anchor="middle" x="139" y="-7.5" font-family="Helvetica,sans-Serif" font-size="10.00">ICollection</text>
</a>
</g>
</g>
<!-- Node6&#45;&gt;Node10 -->
<g id="edge9" class="edge"><title>Node6&#45;&gt;Node10</title>
<path fill="none" stroke="midnightblue" d="M51.3874,-68.583C61.2874,-57.7154 75.0025,-43.9514 89,-34 96.8747,-28.4015 106.253,-23.4543 114.687,-19.5281"/>
<polygon fill="midnightblue" stroke="midnightblue" points="48.6338,-66.413 44.619,-76.2177 53.8718,-71.0567 48.6338,-66.413"/>
</g>
<!-- Node7&#45;&gt;Node4 -->
<g id="edge3" class="edge"><title>Node7&#45;&gt;Node4</title>
<path fill="none" stroke="#9a32cd" stroke-dasharray="5,2" d="M623.159,-322.727C643.016,-320.486 664.188,-318.096 683.878,-315.874"/>
<polygon fill="#9a32cd" stroke="#9a32cd" points="622.765,-319.249 613.221,-323.849 623.55,-326.205 622.765,-319.249"/>
<text text-anchor="middle" x="649" y="-323" font-family="Helvetica,sans-Serif" font-size="10.00"> Reader</text>
</g>
<!-- Node8&#45;&gt;Node4 -->
<g id="edge6" class="edge"><title>Node8&#45;&gt;Node4</title>
<path fill="none" stroke="#9a32cd" stroke-dasharray="5,2" d="M563.151,-167.5C608.624,-199.321 711.363,-271.216 748.649,-297.308"/>
<polygon fill="#9a32cd" stroke="#9a32cd" points="565.056,-164.562 554.856,-161.696 561.042,-170.297 565.056,-164.562"/>
<text text-anchor="middle" x="649" y="-242" font-family="Helvetica,sans-Serif" font-size="10.00"> Table</text>
</g>
<!-- Node9&#45;&gt;Node8 -->
<g id="edge7" class="edge"><title>Node9&#45;&gt;Node8</title>
<path fill="none" stroke="midnightblue" d="M319.576,-47.3403C355,-48.2289 407.01,-53.1456 448,-72 484.502,-88.7897 517.192,-125.058 531.439,-142.394"/>
<polygon fill="midnightblue" stroke="midnightblue" points="319.198,-43.8343 309.146,-47.183 319.092,-50.8335 319.198,-43.8343"/>
</g>
<!-- Node10&#45;&gt;Node8 -->
<g id="edge11" class="edge"><title>Node10&#45;&gt;Node8</title>
<path fill="none" stroke="midnightblue" d="M180.53,-5.35298C242.515,-0.235826 362.645,1.67616 448,-47 489.7,-70.7805 521.557,-121.037 533.677,-142.238"/>
<polygon fill="midnightblue" stroke="midnightblue" points="180.021,-1.88448 170.374,-6.26408 180.646,-8.85648 180.021,-1.88448"/>
</g>
<!-- Node10&#45;&gt;Node9 -->
<g id="edge8" class="edge"><title>Node10&#45;&gt;Node9</title>
<path fill="none" stroke="midnightblue" d="M179.793,-21.0376C201.073,-26.9398 226.864,-34.0936 246.531,-39.5489"/>
<polygon fill="midnightblue" stroke="midnightblue" points="180.637,-17.6395 170.065,-18.3393 178.766,-24.3848 180.637,-17.6395"/>
</g>
<!-- Node11 -->
<g id="node8" class="node"><title>Node11</title>
<g id="a_node8"><a xlink:href="interface_system_1_1_runtime_1_1_serialization_1_1_i_serializable.html" target="_top" xlink:title="Allows an object to control its own serialization and deserialization.">
<polygon fill="none" stroke="black" points="243.5,-240.5 243.5,-259.5 312.5,-259.5 312.5,-240.5 243.5,-240.5"/>
<text text-anchor="middle" x="278" y="-247.5" font-family="Helvetica,sans-Serif" font-size="10.00">ISerializable</text>
</a>
</g>
</g>
<!-- Node11&#45;&gt;Node8 -->
<g id="edge13" class="edge"><title>Node11&#45;&gt;Node8</title>
<path fill="none" stroke="midnightblue" d="M322.313,-238.523C331.159,-236.1 340.394,-233.514 349,-231 393.257,-218.07 405.433,-217.718 448,-200 475.209,-188.675 505.147,-172.008 522.993,-161.59"/>
<polygon fill="midnightblue" stroke="midnightblue" points="321.276,-235.177 312.543,-241.176 323.111,-241.933 321.276,-235.177"/>
</g>
<!-- Node12 -->
<g id="node9" class="node"><title>Node12</title>
<g id="a_node9"><a xlink:href="interface_system_1_1_runtime_1_1_serialization_1_1_i_deserialization_callback.html" target="_top" xlink:title="Indicates that a class is to be notified when deserialization of the entire object graph has been com...">
<polygon fill="none" stroke="black" points="218,-202.5 218,-221.5 338,-221.5 338,-202.5 218,-202.5"/>
<text text-anchor="middle" x="278" y="-209.5" font-family="Helvetica,sans-Serif" font-size="10.00">IDeserializationCallback</text>
</a>
</g>
</g>
<!-- Node12&#45;&gt;Node8 -->
<g id="edge14" class="edge"><title>Node12&#45;&gt;Node8</title>
<path fill="none" stroke="midnightblue" d="M339.301,-200.484C371.644,-194.063 412.119,-185.635 448,-177 467.434,-172.323 489.012,-166.426 506.277,-161.534"/>
<polygon fill="midnightblue" stroke="midnightblue" points="338.235,-197.127 329.102,-202.496 339.59,-203.994 338.235,-197.127"/>
</g>
<!-- Node13 -->
<g id="node10" class="node"><title>Node13</title>
<g id="a_node10"><a xlink:href="interface_system_1_1_i_cloneable.html" target="_top" xlink:title="Supports cloning, which creates a new instance of a class with the same value as an existing instance...">
<polygon fill="none" stroke="black" points="247,-164.5 247,-183.5 309,-183.5 309,-164.5 247,-164.5"/>
<text text-anchor="middle" x="278" y="-171.5" font-family="Helvetica,sans-Serif" font-size="10.00">ICloneable</text>
</a>
</g>
</g>
<!-- Node13&#45;&gt;Node8 -->
<g id="edge15" class="edge"><title>Node13&#45;&gt;Node8</title>
<path fill="none" stroke="midnightblue" d="M319.512,-170.572C358.567,-167.267 418.557,-162.191 465.956,-158.181"/>
<polygon fill="midnightblue" stroke="midnightblue" points="318.749,-167.124 309.079,-171.455 319.339,-174.099 318.749,-167.124"/>
</g>
<!-- Node14 -->
<g id="node11" class="node"><title>Node14</title>
<g id="a_node11"><a xlink:href="interface_system_1_1_collections_1_1_i_equality_comparer.html" target="_top" xlink:title="Defines methods to support the comparison of objects for equality.">
<polygon fill="none" stroke="black" points="207,-115 207,-145 349,-145 349,-115 207,-115"/>
<text text-anchor="start" x="215" y="-133" font-family="Helvetica,sans-Serif" font-size="10.00">System.Collections.IEquality</text>
<text text-anchor="middle" x="278" y="-122" font-family="Helvetica,sans-Serif" font-size="10.00">Comparer</text>
</a>
</g>
</g>
<!-- Node14&#45;&gt;Node8 -->
<g id="edge16" class="edge"><title>Node14&#45;&gt;Node8</title>
<path fill="none" stroke="#9a32cd" stroke-dasharray="5,2" d="M359.365,-136.8C393.299,-139.671 432.543,-142.992 465.678,-145.796"/>
<polygon fill="#9a32cd" stroke="#9a32cd" points="359.277,-133.28 349.017,-135.925 358.687,-140.255 359.277,-133.28"/>
<text text-anchor="middle" x="407.5" y="-148" font-family="Helvetica,sans-Serif" font-size="10.00"> EqualityComparer</text>
</g>
</g>
</svg>
