<?xml version="1.0" encoding="UTF-8" standalone="no"?>
<!DOCTYPE svg PUBLIC "-//W3C//DTD SVG 1.1//EN"
 "http://www.w3.org/Graphics/SVG/1.1/DTD/svg11.dtd">
<!-- Generated by graphviz version 2.38.0 (20140413.2041)
 -->
<!-- Title: System.Security.FrameSecurityDescriptorWithResolver Pages: 1 -->
<svg width="312pt" height="174pt"
 viewBox="0.00 0.00 312.00 174.00" xmlns="http://www.w3.org/2000/svg" xmlns:xlink="http://www.w3.org/1999/xlink">
<g id="graph0" class="graph" transform="scale(1 1) rotate(0) translate(4 170)">
<title>System.Security.FrameSecurityDescriptorWithResolver</title>
<!-- Node2 -->
<g id="node1" class="node"><title>Node2</title>
<g id="a_node1"><a xlink:title=" ">
<polygon fill="#bfbfbf" stroke="black" points="32.5,-0.5 32.5,-30.5 188.5,-30.5 188.5,-0.5 32.5,-0.5"/>
<text text-anchor="start" x="40.5" y="-18.5" font-family="Helvetica,sans-Serif" font-size="10.00">System.Security.FrameSecurity</text>
<text text-anchor="middle" x="110.5" y="-7.5" font-family="Helvetica,sans-Serif" font-size="10.00">DescriptorWithResolver</text>
</a>
</g>
</g>
<!-- Node3 -->
<g id="node2" class="node"><title>Node3</title>
<g id="a_node2"><a xlink:href="class_system_1_1_security_1_1_frame_security_descriptor.html" target="_top" xlink:title=" ">
<polygon fill="none" stroke="black" points="0,-84 0,-103 125,-103 125,-84 0,-84"/>
<text text-anchor="middle" x="62.5" y="-91" font-family="Helvetica,sans-Serif" font-size="10.00">FrameSecurityDescriptor</text>
</a>
</g>
</g>
<!-- Node3&#45;&gt;Node2 -->
<g id="edge1" class="edge"><title>Node3&#45;&gt;Node2</title>
<path fill="none" stroke="midnightblue" d="M73.5693,-74.9736C82.0969,-61.4715 93.7296,-43.0531 101.645,-30.5198"/>
<polygon fill="midnightblue" stroke="midnightblue" points="70.387,-73.4579 68.0062,-83.7818 76.3054,-77.1959 70.387,-73.4579"/>
</g>
<!-- Node4 -->
<g id="node3" class="node"><title>Node4</title>
<g id="a_node3"><a xlink:href="class_system_1_1_reflection_1_1_emit_1_1_dynamic_resolver.html" target="_top" xlink:title=" ">
<polygon fill="none" stroke="black" points="143,-78.5 143,-108.5 304,-108.5 304,-78.5 143,-78.5"/>
<text text-anchor="start" x="151" y="-96.5" font-family="Helvetica,sans-Serif" font-size="10.00">System.Reflection.Emit.Dynamic</text>
<text text-anchor="middle" x="223.5" y="-85.5" font-family="Helvetica,sans-Serif" font-size="10.00">Resolver</text>
</a>
</g>
</g>
<!-- Node4&#45;&gt;Node2 -->
<g id="edge2" class="edge"><title>Node4&#45;&gt;Node2</title>
<path fill="none" stroke="#9a32cd" stroke-dasharray="5,2" d="M194.193,-72.789C174.502,-59.5455 149.024,-42.4101 131.377,-30.5413"/>
<polygon fill="#9a32cd" stroke="#9a32cd" points="192.259,-75.7065 202.51,-78.3831 196.166,-69.898 192.259,-75.7065"/>
<text text-anchor="middle" x="193.5" y="-52" font-family="Helvetica,sans-Serif" font-size="10.00"> Resolver</text>
</g>
<!-- Node5 -->
<g id="node4" class="node"><title>Node5</title>
<g id="a_node4"><a xlink:href="class_system_1_1_resolver.html" target="_top" xlink:title=" ">
<polygon fill="none" stroke="black" points="197,-146.5 197,-165.5 250,-165.5 250,-146.5 197,-146.5"/>
<text text-anchor="middle" x="223.5" y="-153.5" font-family="Helvetica,sans-Serif" font-size="10.00">Resolver</text>
</a>
</g>
</g>
<!-- Node5&#45;&gt;Node4 -->
<g id="edge3" class="edge"><title>Node5&#45;&gt;Node4</title>
<path fill="none" stroke="midnightblue" d="M223.5,-136.215C223.5,-127.356 223.5,-116.958 223.5,-108.759"/>
<polygon fill="midnightblue" stroke="midnightblue" points="220,-136.332 223.5,-146.332 227,-136.332 220,-136.332"/>
</g>
</g>
</svg>
