<?xml version="1.0" encoding="UTF-8" standalone="no"?>
<!DOCTYPE svg PUBLIC "-//W3C//DTD SVG 1.1//EN"
 "http://www.w3.org/Graphics/SVG/1.1/DTD/svg11.dtd">
<!-- Generated by graphviz version 2.38.0 (20140413.2041)
 -->
<!-- Title: System.Security.Cryptography.DESCryptoServiceProvider Pages: 1 -->
<svg width="161pt" height="207pt"
 viewBox="0.00 0.00 161.00 207.00" xmlns="http://www.w3.org/2000/svg" xmlns:xlink="http://www.w3.org/1999/xlink">
<g id="graph0" class="graph" transform="scale(1 1) rotate(0) translate(4 203)">
<title>System.Security.Cryptography.DESCryptoServiceProvider</title>
<!-- Node0 -->
<g id="node1" class="node"><title>Node0</title>
<g id="a_node1"><a xlink:title="Defines a wrapper object to access the cryptographic service provider (CSP) version of the Data Encry...">
<polygon fill="#bfbfbf" stroke="black" points="0,-0.5 0,-30.5 153,-30.5 153,-0.5 0,-0.5"/>
<text text-anchor="start" x="8" y="-18.5" font-family="Helvetica,sans-Serif" font-size="10.00">System.Security.Cryptography.</text>
<text text-anchor="middle" x="76.5" y="-7.5" font-family="Helvetica,sans-Serif" font-size="10.00">DESCryptoServiceProvider</text>
</a>
</g>
</g>
<!-- Node1 -->
<g id="node2" class="node"><title>Node1</title>
<g id="a_node2"><a xlink:href="class_system_1_1_security_1_1_cryptography_1_1_d_e_s.html" target="_top" xlink:title="Represents the base class for the Data Encryption Standard (DES) algorithm from which all T:System....">
<polygon fill="none" stroke="black" points="58,-67.5 58,-86.5 95,-86.5 95,-67.5 58,-67.5"/>
<text text-anchor="middle" x="76.5" y="-74.5" font-family="Helvetica,sans-Serif" font-size="10.00">DES</text>
</a>
</g>
</g>
<!-- Node1&#45;&gt;Node0 -->
<g id="edge1" class="edge"><title>Node1&#45;&gt;Node0</title>
<path fill="none" stroke="midnightblue" d="M76.5,-57.2349C76.5,-48.5864 76.5,-38.4969 76.5,-30.523"/>
<polygon fill="midnightblue" stroke="midnightblue" points="73.0001,-57.4751 76.5,-67.4751 80.0001,-57.4751 73.0001,-57.4751"/>
</g>
<!-- Node2 -->
<g id="node3" class="node"><title>Node2</title>
<g id="a_node3"><a xlink:href="class_system_1_1_security_1_1_cryptography_1_1_symmetric_algorithm.html" target="_top" xlink:title="Represents the abstract base class from which all implementations of symmetric algorithms must inheri...">
<polygon fill="none" stroke="black" points="24,-123.5 24,-142.5 129,-142.5 129,-123.5 24,-123.5"/>
<text text-anchor="middle" x="76.5" y="-130.5" font-family="Helvetica,sans-Serif" font-size="10.00">SymmetricAlgorithm</text>
</a>
</g>
</g>
<!-- Node2&#45;&gt;Node1 -->
<g id="edge2" class="edge"><title>Node2&#45;&gt;Node1</title>
<path fill="none" stroke="midnightblue" d="M76.5,-112.805C76.5,-103.91 76.5,-93.7798 76.5,-86.7511"/>
<polygon fill="midnightblue" stroke="midnightblue" points="73.0001,-113.083 76.5,-123.083 80.0001,-113.083 73.0001,-113.083"/>
</g>
<!-- Node3 -->
<g id="node4" class="node"><title>Node3</title>
<g id="a_node4"><a xlink:href="interface_system_1_1_i_disposable.html" target="_top" xlink:title="Provides a mechanism for releasing unmanaged resources.To browse the .NET Framework source code for t...">
<polygon fill="none" stroke="black" points="43,-179.5 43,-198.5 110,-198.5 110,-179.5 43,-179.5"/>
<text text-anchor="middle" x="76.5" y="-186.5" font-family="Helvetica,sans-Serif" font-size="10.00">IDisposable</text>
</a>
</g>
</g>
<!-- Node3&#45;&gt;Node2 -->
<g id="edge3" class="edge"><title>Node3&#45;&gt;Node2</title>
<path fill="none" stroke="midnightblue" d="M76.5,-168.805C76.5,-159.91 76.5,-149.78 76.5,-142.751"/>
<polygon fill="midnightblue" stroke="midnightblue" points="73.0001,-169.083 76.5,-179.083 80.0001,-169.083 73.0001,-169.083"/>
</g>
</g>
</svg>
