<?xml version="1.0" encoding="UTF-8" standalone="no"?>
<!DOCTYPE svg PUBLIC "-//W3C//DTD SVG 1.1//EN"
 "http://www.w3.org/Graphics/SVG/1.1/DTD/svg11.dtd">
<!-- Generated by graphviz version 2.38.0 (20140413.2041)
 -->
<!-- Title: System.Diagnostics.Eventing.Reader.EventLogException Pages: 1 -->
<svg width="572pt" height="198pt"
 viewBox="0.00 0.00 572.00 198.00" xmlns="http://www.w3.org/2000/svg" xmlns:xlink="http://www.w3.org/1999/xlink">
<g id="graph0" class="graph" transform="scale(1 1) rotate(0) translate(4 194)">
<title>System.Diagnostics.Eventing.Reader.EventLogException</title>
<!-- Node0 -->
<g id="node1" class="node"><title>Node0</title>
<g id="a_node1"><a xlink:title="Represents the base class for all the exceptions that are thrown when an error occurs while reading e...">
<polygon fill="#bfbfbf" stroke="black" points="201,-82.5 201,-112.5 348,-112.5 348,-82.5 201,-82.5"/>
<text text-anchor="start" x="209" y="-100.5" font-family="Helvetica,sans-Serif" font-size="10.00">System.Diagnostics.Eventing.</text>
<text text-anchor="middle" x="274.5" y="-89.5" font-family="Helvetica,sans-Serif" font-size="10.00">Reader.EventLogException</text>
</a>
</g>
</g>
<!-- Node4 -->
<g id="node4" class="node"><title>Node4</title>
<g id="a_node4"><a xlink:href="class_system_1_1_diagnostics_1_1_eventing_1_1_reader_1_1_event_log_invalid_data_exception.html" target="_top" xlink:title="Represents the exception thrown when an event provider publishes invalid data in an event.">
<polygon fill="none" stroke="black" points="384,-159.5 384,-189.5 564,-189.5 564,-159.5 384,-159.5"/>
<text text-anchor="start" x="392" y="-177.5" font-family="Helvetica,sans-Serif" font-size="10.00">System.Diagnostics.Eventing.</text>
<text text-anchor="middle" x="474" y="-166.5" font-family="Helvetica,sans-Serif" font-size="10.00">Reader.EventLogInvalidDataException</text>
</a>
</g>
</g>
<!-- Node0&#45;&gt;Node4 -->
<g id="edge4" class="edge"><title>Node0&#45;&gt;Node4</title>
<path fill="none" stroke="midnightblue" d="M312.016,-117.51C332.707,-128.291 359.319,-141.241 384,-150.5 392.691,-153.76 402.012,-156.775 411.231,-159.488"/>
<polygon fill="midnightblue" stroke="midnightblue" points="313.431,-114.3 302.954,-112.73 310.166,-120.491 313.431,-114.3"/>
</g>
<!-- Node5 -->
<g id="node5" class="node"><title>Node5</title>
<g id="a_node5"><a xlink:href="class_system_1_1_diagnostics_1_1_eventing_1_1_reader_1_1_event_log_not_found_exception.html" target="_top" xlink:title="Represents the exception that is thrown when a requested event log (usually specified by the name of ...">
<polygon fill="none" stroke="black" points="386,-110.5 386,-140.5 562,-140.5 562,-110.5 386,-110.5"/>
<text text-anchor="start" x="394" y="-128.5" font-family="Helvetica,sans-Serif" font-size="10.00">System.Diagnostics.Eventing.</text>
<text text-anchor="middle" x="474" y="-117.5" font-family="Helvetica,sans-Serif" font-size="10.00">Reader.EventLogNotFoundException</text>
</a>
</g>
</g>
<!-- Node0&#45;&gt;Node5 -->
<g id="edge5" class="edge"><title>Node0&#45;&gt;Node5</title>
<path fill="none" stroke="midnightblue" d="M358.327,-109.243C367.38,-110.526 376.616,-111.835 385.721,-113.126"/>
<polygon fill="midnightblue" stroke="midnightblue" points="358.593,-105.745 348.2,-107.807 357.61,-112.676 358.593,-105.745"/>
</g>
<!-- Node6 -->
<g id="node6" class="node"><title>Node6</title>
<g id="a_node6"><a xlink:href="class_system_1_1_diagnostics_1_1_eventing_1_1_reader_1_1_event_log_provider_disabled_exception.html" target="_top" xlink:title="Represents the exception that is thrown when a specified event provider name references a disabled ev...">
<polygon fill="none" stroke="black" points="393,-50 393,-91 555,-91 555,-50 393,-50"/>
<text text-anchor="start" x="401" y="-79" font-family="Helvetica,sans-Serif" font-size="10.00">System.Diagnostics.Eventing.</text>
<text text-anchor="start" x="401" y="-68" font-family="Helvetica,sans-Serif" font-size="10.00">Reader.EventLogProviderDisabled</text>
<text text-anchor="middle" x="474" y="-57" font-family="Helvetica,sans-Serif" font-size="10.00">Exception</text>
</a>
</g>
</g>
<!-- Node0&#45;&gt;Node6 -->
<g id="edge6" class="edge"><title>Node0&#45;&gt;Node6</title>
<path fill="none" stroke="midnightblue" d="M358.177,-86.1974C369.635,-84.631 381.389,-83.024 392.8,-81.464"/>
<polygon fill="midnightblue" stroke="midnightblue" points="357.634,-82.7389 348.2,-87.5612 358.582,-89.6744 357.634,-82.7389"/>
</g>
<!-- Node7 -->
<g id="node7" class="node"><title>Node7</title>
<g id="a_node7"><a xlink:href="class_system_1_1_diagnostics_1_1_eventing_1_1_reader_1_1_event_log_reading_exception.html" target="_top" xlink:title="Represents an exception that is thrown when an error occurred while reading, querying,...">
<polygon fill="none" stroke="black" points="389.5,-0.5 389.5,-30.5 558.5,-30.5 558.5,-0.5 389.5,-0.5"/>
<text text-anchor="start" x="397.5" y="-18.5" font-family="Helvetica,sans-Serif" font-size="10.00">System.Diagnostics.Eventing.</text>
<text text-anchor="middle" x="474" y="-7.5" font-family="Helvetica,sans-Serif" font-size="10.00">Reader.EventLogReadingException</text>
</a>
</g>
</g>
<!-- Node0&#45;&gt;Node7 -->
<g id="edge7" class="edge"><title>Node0&#45;&gt;Node7</title>
<path fill="none" stroke="midnightblue" d="M309.481,-77.2828C330.44,-65.4164 358.168,-50.7811 384,-40.5 393.096,-36.8797 402.911,-33.5653 412.585,-30.6165"/>
<polygon fill="midnightblue" stroke="midnightblue" points="307.584,-74.336 300.649,-82.3458 311.065,-80.4089 307.584,-74.336"/>
</g>
<!-- Node1 -->
<g id="node2" class="node"><title>Node1</title>
<g id="a_node2"><a xlink:href="class_system_1_1_exception.html" target="_top" xlink:title="Represents errors that occur during application execution.To browse the .NET Framework source code fo...">
<polygon fill="none" stroke="red" points="105,-69 105,-88 165,-88 165,-69 105,-69"/>
<text text-anchor="middle" x="135" y="-76" font-family="Helvetica,sans-Serif" font-size="10.00">Exception</text>
</a>
</g>
</g>
<!-- Node1&#45;&gt;Node0 -->
<g id="edge1" class="edge"><title>Node1&#45;&gt;Node0</title>
<path fill="none" stroke="midnightblue" d="M175.294,-83.9297C183.33,-85.0401 192.028,-86.242 200.812,-87.4558"/>
<polygon fill="midnightblue" stroke="midnightblue" points="175.545,-80.4313 165.16,-82.5294 174.587,-87.3654 175.545,-80.4313"/>
</g>
<!-- Node2 -->
<g id="node3" class="node"><title>Node2</title>
<g id="a_node3"><a xlink:href="interface_system_1_1_runtime_1_1_serialization_1_1_i_serializable.html" target="_top" xlink:title="Allows an object to control its own serialization and deserialization.">
<polygon fill="none" stroke="black" points="0,-88 0,-107 69,-107 69,-88 0,-88"/>
<text text-anchor="middle" x="34.5" y="-95" font-family="Helvetica,sans-Serif" font-size="10.00">ISerializable</text>
</a>
</g>
</g>
<!-- Node2&#45;&gt;Node0 -->
<g id="edge3" class="edge"><title>Node2&#45;&gt;Node0</title>
<path fill="none" stroke="midnightblue" d="M79.1773,-97.5C113.186,-97.5 161.131,-97.5 200.888,-97.5"/>
<polygon fill="midnightblue" stroke="midnightblue" points="79.0948,-94.0001 69.0948,-97.5 79.0948,-101 79.0948,-94.0001"/>
</g>
<!-- Node2&#45;&gt;Node1 -->
<g id="edge2" class="edge"><title>Node2&#45;&gt;Node1</title>
<path fill="none" stroke="midnightblue" d="M79.1435,-89.0815C87.8281,-87.4063 96.7483,-85.6856 104.805,-84.1315"/>
<polygon fill="midnightblue" stroke="midnightblue" points="78.2787,-85.6837 69.1226,-91.0144 79.6046,-92.557 78.2787,-85.6837"/>
</g>
</g>
</svg>
