<?xml version="1.0" encoding="UTF-8" standalone="no"?>
<!DOCTYPE svg PUBLIC "-//W3C//DTD SVG 1.1//EN"
 "http://www.w3.org/Graphics/SVG/1.1/DTD/svg11.dtd">
<!-- Generated by graphviz version 2.38.0 (20140413.2041)
 -->
<!-- Title: System.Net.WebException Pages: 1 -->
<svg width="224pt" height="84pt"
 viewBox="0.00 0.00 223.50 84.00" xmlns="http://www.w3.org/2000/svg" xmlns:xlink="http://www.w3.org/1999/xlink">
<g id="graph0" class="graph" transform="scale(1 1) rotate(0) translate(4 80)">
<title>System.Net.WebException</title>
<!-- Node6 -->
<g id="node1" class="node"><title>Node6</title>
<g id="a_node1"><a xlink:title="The exception that is thrown when an error occurs while accessing the network through a pluggable pro...">
<polygon fill="#bfbfbf" stroke="black" points="54.5,-0.5 54.5,-19.5 189.5,-19.5 189.5,-0.5 54.5,-0.5"/>
<text text-anchor="middle" x="122" y="-7.5" font-family="Helvetica,sans-Serif" font-size="10.00">System.Net.WebException</text>
</a>
</g>
</g>
<!-- Node7 -->
<g id="node2" class="node"><title>Node7</title>
<g id="a_node2"><a xlink:href="class_system_1_1_invalid_operation_exception.html" target="_top" xlink:title="The exception that is thrown when a method call is invalid for the object&#39;s current state.">
<polygon fill="none" stroke="red" points="0,-56.5 0,-75.5 128,-75.5 128,-56.5 0,-56.5"/>
<text text-anchor="middle" x="64" y="-63.5" font-family="Helvetica,sans-Serif" font-size="10.00">InvalidOperationException</text>
</a>
</g>
</g>
<!-- Node7&#45;&gt;Node6 -->
<g id="edge1" class="edge"><title>Node7&#45;&gt;Node6</title>
<path fill="none" stroke="midnightblue" d="M80.9131,-49.2533C91.203,-39.6731 103.966,-27.7906 112.512,-19.8339"/>
<polygon fill="midnightblue" stroke="midnightblue" points="78.2527,-46.9481 73.3187,-56.324 83.0226,-52.0714 78.2527,-46.9481"/>
</g>
<!-- Node10 -->
<g id="node3" class="node"><title>Node10</title>
<g id="a_node3"><a xlink:href="interface_system_1_1_runtime_1_1_serialization_1_1_i_serializable.html" target="_top" xlink:title="Allows an object to control its own serialization and deserialization.">
<polygon fill="none" stroke="black" points="146.5,-56.5 146.5,-75.5 215.5,-75.5 215.5,-56.5 146.5,-56.5"/>
<text text-anchor="middle" x="181" y="-63.5" font-family="Helvetica,sans-Serif" font-size="10.00">ISerializable</text>
</a>
</g>
</g>
<!-- Node10&#45;&gt;Node6 -->
<g id="edge2" class="edge"><title>Node10&#45;&gt;Node6</title>
<path fill="none" stroke="midnightblue" d="M164.105,-49.5372C153.585,-39.9087 140.431,-27.8694 131.652,-19.8339"/>
<polygon fill="midnightblue" stroke="midnightblue" points="161.781,-52.1542 171.521,-56.324 166.507,-46.9905 161.781,-52.1542"/>
</g>
</g>
</svg>
