<?xml version="1.0" encoding="UTF-8" standalone="no"?>
<!DOCTYPE svg PUBLIC "-//W3C//DTD SVG 1.1//EN"
 "http://www.w3.org/Graphics/SVG/1.1/DTD/svg11.dtd">
<!-- Generated by graphviz version 2.38.0 (20140413.2041)
 -->
<!-- Title: System.OutOfMemoryException Pages: 1 -->
<svg width="166pt" height="263pt"
 viewBox="0.00 0.00 166.00 263.00" xmlns="http://www.w3.org/2000/svg" xmlns:xlink="http://www.w3.org/1999/xlink">
<g id="graph0" class="graph" transform="scale(1 1) rotate(0) translate(4 259)">
<title>System.OutOfMemoryException</title>
<!-- Node0 -->
<g id="node1" class="node"><title>Node0</title>
<g id="a_node1"><a xlink:title="The exception that is thrown when there is not enough memory to continue the execution of a program.">
<polygon fill="#bfbfbf" stroke="black" points="0,-67.5 0,-86.5 158,-86.5 158,-67.5 0,-67.5"/>
<text text-anchor="middle" x="79" y="-74.5" font-family="Helvetica,sans-Serif" font-size="10.00">System.OutOfMemoryException</text>
</a>
</g>
</g>
<!-- Node5 -->
<g id="node6" class="node"><title>Node5</title>
<g id="a_node6"><a xlink:href="class_system_1_1_insufficient_memory_exception.html" target="_top" xlink:title="The exception that is thrown when a check for sufficient available memory fails. This class cannot be...">
<polygon fill="none" stroke="black" points="12,-0.5 12,-30.5 146,-30.5 146,-0.5 12,-0.5"/>
<text text-anchor="start" x="20" y="-18.5" font-family="Helvetica,sans-Serif" font-size="10.00">System.InsufficientMemory</text>
<text text-anchor="middle" x="79" y="-7.5" font-family="Helvetica,sans-Serif" font-size="10.00">Exception</text>
</a>
</g>
</g>
<!-- Node0&#45;&gt;Node5 -->
<g id="edge5" class="edge"><title>Node0&#45;&gt;Node5</title>
<path fill="none" stroke="midnightblue" d="M79,-57.2349C79,-48.5864 79,-38.4969 79,-30.523"/>
<polygon fill="midnightblue" stroke="midnightblue" points="75.5001,-57.4751 79,-67.4751 82.5001,-57.4751 75.5001,-57.4751"/>
</g>
<!-- Node1 -->
<g id="node2" class="node"><title>Node1</title>
<g id="a_node2"><a xlink:href="class_system_1_1_system_exception.html" target="_top" xlink:title="Serves as the base class for system exceptions namespace.">
<polygon fill="none" stroke="black" points="32,-123.5 32,-142.5 126,-142.5 126,-123.5 32,-123.5"/>
<text text-anchor="middle" x="79" y="-130.5" font-family="Helvetica,sans-Serif" font-size="10.00">SystemException</text>
</a>
</g>
</g>
<!-- Node1&#45;&gt;Node0 -->
<g id="edge1" class="edge"><title>Node1&#45;&gt;Node0</title>
<path fill="none" stroke="midnightblue" d="M79,-112.805C79,-103.91 79,-93.7798 79,-86.7511"/>
<polygon fill="midnightblue" stroke="midnightblue" points="75.5001,-113.083 79,-123.083 82.5001,-113.083 75.5001,-113.083"/>
</g>
<!-- Node2 -->
<g id="node3" class="node"><title>Node2</title>
<g id="a_node3"><a xlink:href="class_system_1_1_exception.html" target="_top" xlink:title="Represents errors that occur during application execution.To browse the .NET Framework source code fo...">
<polygon fill="none" stroke="black" points="49,-179.5 49,-198.5 109,-198.5 109,-179.5 49,-179.5"/>
<text text-anchor="middle" x="79" y="-186.5" font-family="Helvetica,sans-Serif" font-size="10.00">Exception</text>
</a>
</g>
</g>
<!-- Node2&#45;&gt;Node1 -->
<g id="edge2" class="edge"><title>Node2&#45;&gt;Node1</title>
<path fill="none" stroke="midnightblue" d="M79,-168.805C79,-159.91 79,-149.78 79,-142.751"/>
<polygon fill="midnightblue" stroke="midnightblue" points="75.5001,-169.083 79,-179.083 82.5001,-169.083 75.5001,-169.083"/>
</g>
<!-- Node3 -->
<g id="node4" class="node"><title>Node3</title>
<g id="a_node4"><a xlink:href="interface_system_1_1_runtime_1_1_serialization_1_1_i_serializable.html" target="_top" xlink:title="Allows an object to control its own serialization and deserialization.">
<polygon fill="none" stroke="black" points="2.5,-235.5 2.5,-254.5 71.5,-254.5 71.5,-235.5 2.5,-235.5"/>
<text text-anchor="middle" x="37" y="-242.5" font-family="Helvetica,sans-Serif" font-size="10.00">ISerializable</text>
</a>
</g>
</g>
<!-- Node3&#45;&gt;Node2 -->
<g id="edge3" class="edge"><title>Node3&#45;&gt;Node2</title>
<path fill="none" stroke="midnightblue" d="M50.1102,-227.144C57.4278,-217.736 66.2409,-206.405 72.1936,-198.751"/>
<polygon fill="midnightblue" stroke="midnightblue" points="47.3122,-225.041 43.9354,-235.083 52.8376,-229.338 47.3122,-225.041"/>
</g>
<!-- Node4 -->
<g id="node5" class="node"><title>Node4</title>
<g id="a_node5"><a xlink:href="interface_system_1_1_runtime_1_1_interop_services_1_1___exception.html" target="_top" xlink:title="Exposes the public members of the T:System.Exception class to unmanaged code.">
<polygon fill="none" stroke="black" points="89.5,-235.5 89.5,-254.5 154.5,-254.5 154.5,-235.5 89.5,-235.5"/>
<text text-anchor="middle" x="122" y="-242.5" font-family="Helvetica,sans-Serif" font-size="10.00">_Exception</text>
</a>
</g>
</g>
<!-- Node4&#45;&gt;Node2 -->
<g id="edge4" class="edge"><title>Node4&#45;&gt;Node2</title>
<path fill="none" stroke="midnightblue" d="M108.578,-227.144C101.086,-217.736 92.0629,-206.405 85.9685,-198.751"/>
<polygon fill="midnightblue" stroke="midnightblue" points="105.932,-229.44 114.899,-235.083 111.408,-225.08 105.932,-229.44"/>
</g>
</g>
</svg>
