<?xml version="1.0" encoding="UTF-8" standalone="no"?>
<!DOCTYPE svg PUBLIC "-//W3C//DTD SVG 1.1//EN"
 "http://www.w3.org/Graphics/SVG/1.1/DTD/svg11.dtd">
<!-- Generated by graphviz version 2.38.0 (20140413.2041)
 -->
<!-- Title: System.Collections.Generic.LinkedList&lt; T &gt; Pages: 1 -->
<svg width="796pt" height="244pt"
 viewBox="0.00 0.00 796.00 244.49" xmlns="http://www.w3.org/2000/svg" xmlns:xlink="http://www.w3.org/1999/xlink">
<g id="graph0" class="graph" transform="scale(1 1) rotate(0) translate(4 240.487)">
<title>System.Collections.Generic.LinkedList&lt; T &gt;</title>
<!-- Node0 -->
<g id="node1" class="node"><title>Node0</title>
<g id="a_node1"><a xlink:title="Represents a doubly linked list.">
<polygon fill="#bfbfbf" stroke="black" points="296,-109 296,-139 437,-139 437,-109 296,-109"/>
<text text-anchor="start" x="304" y="-127" font-family="Helvetica,sans-Serif" font-size="10.00">System.Collections.Generic.</text>
<text text-anchor="middle" x="366.5" y="-116" font-family="Helvetica,sans-Serif" font-size="10.00">LinkedList&lt; T &gt;</text>
</a>
</g>
</g>
<!-- Node10 -->
<g id="node9" class="node"><title>Node10</title>
<g id="a_node9"><a xlink:href="class_system_1_1_collections_1_1_generic_1_1_linked_list.html" target="_top" xlink:title=" ">
<polygon fill="none" stroke="black" points="622.5,-158 622.5,-188 768.5,-188 768.5,-158 622.5,-158"/>
<text text-anchor="start" x="630.5" y="-176" font-family="Helvetica,sans-Serif" font-size="10.00">System.Collections.Generic.</text>
<text text-anchor="middle" x="695.5" y="-165" font-family="Helvetica,sans-Serif" font-size="10.00">LinkedList&lt; PrefixValuePair &gt;</text>
</a>
</g>
</g>
<!-- Node0&#45;&gt;Node10 -->
<g id="edge12" class="edge"><title>Node0&#45;&gt;Node10</title>
<path fill="none" stroke="orange" stroke-dasharray="5,2" d="M447.301,-137.778C449.897,-138.195 452.469,-138.603 455,-139 511.116,-147.791 574.788,-156.784 622.368,-163.31"/>
<polygon fill="orange" stroke="orange" points="447.633,-134.286 437.201,-136.135 446.509,-141.195 447.633,-134.286"/>
<text text-anchor="middle" x="520" y="-160" font-family="Helvetica,sans-Serif" font-size="10.00"> &lt; PrefixValuePair &gt;</text>
</g>
<!-- Node11 -->
<g id="node10" class="node"><title>Node11</title>
<g id="a_node10"><a xlink:href="class_system_1_1_collections_1_1_generic_1_1_linked_list.html" target="_top" xlink:title=" ">
<polygon fill="none" stroke="black" points="616.5,-109 616.5,-139 774.5,-139 774.5,-109 616.5,-109"/>
<text text-anchor="start" x="624.5" y="-127" font-family="Helvetica,sans-Serif" font-size="10.00">System.Collections.Generic.</text>
<text text-anchor="middle" x="695.5" y="-116" font-family="Helvetica,sans-Serif" font-size="10.00">LinkedList&lt; CachedCodeEntry &gt;</text>
</a>
</g>
</g>
<!-- Node0&#45;&gt;Node11 -->
<g id="edge13" class="edge"><title>Node0&#45;&gt;Node11</title>
<path fill="none" stroke="orange" stroke-dasharray="5,2" d="M447.315,-124C498.702,-124 565.186,-124 616.26,-124"/>
<polygon fill="orange" stroke="orange" points="447.249,-120.5 437.249,-124 447.249,-127.5 447.249,-120.5"/>
<text text-anchor="middle" x="520" y="-127" font-family="Helvetica,sans-Serif" font-size="10.00"> &lt; CachedCodeEntry &gt;</text>
</g>
<!-- Node12 -->
<g id="node11" class="node"><title>Node12</title>
<g id="a_node11"><a xlink:href="class_system_1_1_collections_1_1_generic_1_1_linked_list.html" target="_top" xlink:title=" ">
<polygon fill="none" stroke="black" points="603,-60 603,-90 788,-90 788,-60 603,-60"/>
<text text-anchor="start" x="611" y="-78" font-family="Helvetica,sans-Serif" font-size="10.00">System.Collections.Generic.</text>
<text text-anchor="middle" x="695.5" y="-67" font-family="Helvetica,sans-Serif" font-size="10.00">LinkedList&lt; System.WeakReference &gt;</text>
</a>
</g>
</g>
<!-- Node0&#45;&gt;Node12 -->
<g id="edge14" class="edge"><title>Node0&#45;&gt;Node12</title>
<path fill="none" stroke="orange" stroke-dasharray="5,2" d="M447.301,-110.222C449.897,-109.805 452.469,-109.397 455,-109 503.752,-101.362 558.205,-93.5733 602.857,-87.3806"/>
<polygon fill="orange" stroke="orange" points="446.509,-106.805 437.201,-111.865 447.633,-113.714 446.509,-106.805"/>
<text text-anchor="middle" x="520" y="-112" font-family="Helvetica,sans-Serif" font-size="10.00"> &lt; System::WeakReference &gt;</text>
</g>
<!-- Node1 -->
<g id="node2" class="node"><title>Node1</title>
<g id="a_node2"><a xlink:href="interface_system_1_1_collections_1_1_generic_1_1_i_collection.html" target="_top" xlink:title="Defines methods to manipulate generic collections.">
<polygon fill="none" stroke="black" points="152.5,-190.5 152.5,-209.5 237.5,-209.5 237.5,-190.5 152.5,-190.5"/>
<text text-anchor="middle" x="195" y="-197.5" font-family="Helvetica,sans-Serif" font-size="10.00">ICollection&lt; T &gt;</text>
</a>
</g>
</g>
<!-- Node1&#45;&gt;Node0 -->
<g id="edge1" class="edge"><title>Node1&#45;&gt;Node0</title>
<path fill="none" stroke="midnightblue" d="M241.837,-187.346C247.676,-185.393 253.522,-183.266 259,-181 288.069,-168.978 319.636,-151.474 340.795,-139.041"/>
<polygon fill="midnightblue" stroke="midnightblue" points="240.544,-184.085 232.082,-190.461 242.673,-190.753 240.544,-184.085"/>
</g>
<!-- Node2 -->
<g id="node3" class="node"><title>Node2</title>
<g id="a_node3"><a xlink:href="interface_system_1_1_collections_1_1_generic_1_1_i_enumerable.html" target="_top" xlink:title=" ">
<polygon fill="none" stroke="red" points="0,-214.5 0,-233.5 94,-233.5 94,-214.5 0,-214.5"/>
<text text-anchor="middle" x="47" y="-221.5" font-family="Helvetica,sans-Serif" font-size="10.00">IEnumerable&lt; T &gt;</text>
</a>
</g>
</g>
<!-- Node2&#45;&gt;Node0 -->
<g id="edge4" class="edge"><title>Node2&#45;&gt;Node0</title>
<path fill="none" stroke="midnightblue" d="M104.593,-233.397C148.427,-238.182 209.772,-239.325 259,-219 300.452,-201.885 336.527,-161.482 354.107,-139.277"/>
<polygon fill="midnightblue" stroke="midnightblue" points="104.747,-229.891 94.4031,-232.185 103.92,-236.842 104.747,-229.891"/>
</g>
<!-- Node2&#45;&gt;Node1 -->
<g id="edge2" class="edge"><title>Node2&#45;&gt;Node1</title>
<path fill="none" stroke="midnightblue" d="M104.419,-214.726C120.269,-212.12 137.22,-209.334 152.064,-206.894"/>
<polygon fill="midnightblue" stroke="midnightblue" points="103.495,-211.33 94.1953,-216.406 104.631,-218.238 103.495,-211.33"/>
</g>
<!-- Node5 -->
<g id="node5" class="node"><title>Node5</title>
<g id="a_node5"><a xlink:href="interface_system_1_1_collections_1_1_generic_1_1_i_collection.html" target="_top" xlink:title="Defines methods to manipulate generic collections.">
<polygon fill="none" stroke="black" points="164,-152.5 164,-171.5 226,-171.5 226,-152.5 164,-152.5"/>
<text text-anchor="middle" x="195" y="-159.5" font-family="Helvetica,sans-Serif" font-size="10.00">ICollection</text>
</a>
</g>
</g>
<!-- Node2&#45;&gt;Node5 -->
<g id="edge7" class="edge"><title>Node2&#45;&gt;Node5</title>
<path fill="none" stroke="midnightblue" d="M73.2496,-209.362C89.406,-200.39 111.012,-189.11 131,-181 141.48,-176.748 153.276,-172.943 163.803,-169.875"/>
<polygon fill="midnightblue" stroke="midnightblue" points="71.4146,-206.378 64.4202,-214.336 74.8506,-212.477 71.4146,-206.378"/>
</g>
<!-- Node4 -->
<g id="node4" class="node"><title>Node4</title>
<g id="a_node4"><a xlink:href="interface_system_1_1_collections_1_1_i_enumerable.html" target="_top" xlink:title="Exposes an enumerator, which supports a simple iteration over a non&#45;generic collection....">
<polygon fill="none" stroke="red" points="11.5,-139.5 11.5,-158.5 82.5,-158.5 82.5,-139.5 11.5,-139.5"/>
<text text-anchor="middle" x="47" y="-146.5" font-family="Helvetica,sans-Serif" font-size="10.00">IEnumerable</text>
</a>
</g>
</g>
<!-- Node4&#45;&gt;Node0 -->
<g id="edge5" class="edge"><title>Node4&#45;&gt;Node0</title>
<path fill="none" stroke="midnightblue" d="M92.6484,-145.484C145.451,-141.327 233.966,-134.357 295.816,-129.487"/>
<polygon fill="midnightblue" stroke="midnightblue" points="92.2768,-142.003 82.5825,-146.277 92.8264,-148.981 92.2768,-142.003"/>
</g>
<!-- Node4&#45;&gt;Node1 -->
<g id="edge3" class="edge"><title>Node4&#45;&gt;Node1</title>
<path fill="none" stroke="midnightblue" d="M80.9006,-162.338C96.0587,-168.314 114.343,-175.286 131,-181 140.509,-184.262 150.925,-187.526 160.501,-190.406"/>
<polygon fill="midnightblue" stroke="midnightblue" points="82.0253,-159.019 71.4397,-158.578 79.44,-165.524 82.0253,-159.019"/>
</g>
<!-- Node4&#45;&gt;Node5 -->
<g id="edge8" class="edge"><title>Node4&#45;&gt;Node5</title>
<path fill="none" stroke="midnightblue" d="M92.8012,-152.989C115.766,-155.034 143.13,-157.471 163.61,-159.294"/>
<polygon fill="midnightblue" stroke="midnightblue" points="92.871,-149.482 82.6,-152.081 92.2501,-156.454 92.871,-149.482"/>
</g>
<!-- Node5&#45;&gt;Node0 -->
<g id="edge6" class="edge"><title>Node5&#45;&gt;Node0</title>
<path fill="none" stroke="midnightblue" d="M236.205,-152.987C254.834,-148.81 277.474,-143.734 298.572,-139.005"/>
<polygon fill="midnightblue" stroke="midnightblue" points="235.295,-149.603 226.303,-155.206 236.827,-156.434 235.295,-149.603"/>
</g>
<!-- Node6 -->
<g id="node6" class="node"><title>Node6</title>
<g id="a_node6"><a xlink:href="interface_system_1_1_collections_1_1_generic_1_1_i_read_only_collection.html" target="_top" xlink:title=" ">
<polygon fill="none" stroke="red" points="131,-76.5 131,-95.5 259,-95.5 259,-76.5 131,-76.5"/>
<text text-anchor="middle" x="195" y="-83.5" font-family="Helvetica,sans-Serif" font-size="10.00">IReadOnlyCollection&lt; T &gt;</text>
</a>
</g>
</g>
<!-- Node6&#45;&gt;Node0 -->
<g id="edge9" class="edge"><title>Node6&#45;&gt;Node0</title>
<path fill="none" stroke="midnightblue" d="M248.801,-97.8374C264.479,-101.352 281.865,-105.25 298.327,-108.94"/>
<polygon fill="midnightblue" stroke="midnightblue" points="249.295,-94.3614 238.772,-95.589 247.764,-101.192 249.295,-94.3614"/>
</g>
<!-- Node8 -->
<g id="node7" class="node"><title>Node8</title>
<g id="a_node7"><a xlink:href="interface_system_1_1_runtime_1_1_serialization_1_1_i_serializable.html" target="_top" xlink:title="Allows an object to control its own serialization and deserialization.">
<polygon fill="none" stroke="black" points="160.5,-38.5 160.5,-57.5 229.5,-57.5 229.5,-38.5 160.5,-38.5"/>
<text text-anchor="middle" x="195" y="-45.5" font-family="Helvetica,sans-Serif" font-size="10.00">ISerializable</text>
</a>
</g>
</g>
<!-- Node8&#45;&gt;Node0 -->
<g id="edge10" class="edge"><title>Node8&#45;&gt;Node0</title>
<path fill="none" stroke="midnightblue" d="M239.396,-59.8474C246.039,-62.0159 252.758,-64.4185 259,-67 288.069,-79.0225 319.636,-96.5255 340.795,-108.959"/>
<polygon fill="midnightblue" stroke="midnightblue" points="240.371,-56.4852 229.782,-56.844 238.284,-63.1667 240.371,-56.4852"/>
</g>
<!-- Node9 -->
<g id="node8" class="node"><title>Node9</title>
<g id="a_node8"><a xlink:href="interface_system_1_1_runtime_1_1_serialization_1_1_i_deserialization_callback.html" target="_top" xlink:title="Indicates that a class is to be notified when deserialization of the entire object graph has been com...">
<polygon fill="none" stroke="black" points="135,-0.5 135,-19.5 255,-19.5 255,-0.5 135,-0.5"/>
<text text-anchor="middle" x="195" y="-7.5" font-family="Helvetica,sans-Serif" font-size="10.00">IDeserializationCallback</text>
</a>
</g>
</g>
<!-- Node9&#45;&gt;Node0 -->
<g id="edge11" class="edge"><title>Node9&#45;&gt;Node0</title>
<path fill="none" stroke="midnightblue" d="M246.578,-23.0756C250.881,-24.8361 255.082,-26.805 259,-29 297.476,-50.5549 333.935,-88.0637 352.58,-108.92"/>
<polygon fill="midnightblue" stroke="midnightblue" points="247.654,-19.7419 237.061,-19.5476 245.221,-26.3054 247.654,-19.7419"/>
</g>
</g>
</svg>
