<?xml version="1.0" encoding="UTF-8" standalone="no"?>
<!DOCTYPE svg PUBLIC "-//W3C//DTD SVG 1.1//EN"
 "http://www.w3.org/Graphics/SVG/1.1/DTD/svg11.dtd">
<!-- Generated by graphviz version 2.38.0 (20140413.2041)
 -->
<!-- Title: System.Collections.Concurrent.ConcurrentDictionary&lt; TKey, TValue &gt; Pages: 1 -->
<svg width="803pt" height="352pt"
 viewBox="0.00 0.00 803.00 351.50" xmlns="http://www.w3.org/2000/svg" xmlns:xlink="http://www.w3.org/1999/xlink">
<g id="graph0" class="graph" transform="scale(1 1) rotate(0) translate(4 347.5)">
<title>System.Collections.Concurrent.ConcurrentDictionary&lt; TKey, TValue &gt;</title>
<!-- Node15 -->
<g id="node1" class="node"><title>Node15</title>
<g id="a_node1"><a xlink:title="Represents a thread&#45;safe collection of key/value pairs that can be accessed by multiple threads concu...">
<polygon fill="#bfbfbf" stroke="black" points="640,-159.5 640,-200.5 795,-200.5 795,-159.5 640,-159.5"/>
<text text-anchor="start" x="648" y="-188.5" font-family="Helvetica,sans-Serif" font-size="10.00">System.Collections.Concurrent.</text>
<text text-anchor="start" x="648" y="-177.5" font-family="Helvetica,sans-Serif" font-size="10.00">ConcurrentDictionary&lt; TKey,</text>
<text text-anchor="middle" x="717.5" y="-166.5" font-family="Helvetica,sans-Serif" font-size="10.00"> TValue &gt;</text>
</a>
</g>
</g>
<!-- Node16 -->
<g id="node2" class="node"><title>Node16</title>
<g id="a_node2"><a xlink:href="interface_system_1_1_collections_1_1_i_dictionary.html" target="_top" xlink:title=" ">
<polygon fill="none" stroke="black" points="489.5,-313 489.5,-343 586.5,-343 586.5,-313 489.5,-313"/>
<text text-anchor="start" x="497.5" y="-331" font-family="Helvetica,sans-Serif" font-size="10.00">IDictionary&lt; TKey,</text>
<text text-anchor="middle" x="538" y="-320" font-family="Helvetica,sans-Serif" font-size="10.00"> TValue &gt;</text>
</a>
</g>
</g>
<!-- Node16&#45;&gt;Node15 -->
<g id="edge1" class="edge"><title>Node16&#45;&gt;Node15</title>
<path fill="none" stroke="midnightblue" d="M596.295,-312.015C605.325,-308.19 614.232,-303.559 622,-298 658.923,-271.574 689.099,-226.976 704.784,-200.835"/>
<polygon fill="midnightblue" stroke="midnightblue" points="594.909,-308.799 586.882,-315.715 597.469,-315.314 594.909,-308.799"/>
</g>
<!-- Node17 -->
<g id="node3" class="node"><title>Node17</title>
<g id="a_node3"><a xlink:href="interface_system_1_1_collections_1_1_i_dictionary.html" target="_top" xlink:title="Represents a nongeneric collection of key/value pairs.">
<polygon fill="none" stroke="black" points="207,-318.5 207,-337.5 357,-337.5 357,-318.5 207,-318.5"/>
<text text-anchor="middle" x="282" y="-325.5" font-family="Helvetica,sans-Serif" font-size="10.00">System.Collections.IDictionary</text>
</a>
</g>
</g>
<!-- Node17&#45;&gt;Node16 -->
<g id="edge2" class="edge"><title>Node17&#45;&gt;Node16</title>
<path fill="none" stroke="orange" stroke-dasharray="5,2" d="M367.302,-328C407.836,-328 454.938,-328 489.219,-328"/>
<polygon fill="orange" stroke="orange" points="367.15,-324.5 357.15,-328 367.15,-331.5 367.15,-324.5"/>
<text text-anchor="middle" x="415" y="-331" font-family="Helvetica,sans-Serif" font-size="10.00"> &lt; TKey, TValue &gt;</text>
</g>
<!-- Node18 -->
<g id="node4" class="node"><title>Node18</title>
<g id="a_node4"><a xlink:href="interface_system_1_1_collections_1_1_i_collection.html" target="_top" xlink:title="Defines size, enumerators, and synchronization methods for all nongeneric collections.">
<polygon fill="none" stroke="black" points="108,-268.5 108,-287.5 170,-287.5 170,-268.5 108,-268.5"/>
<text text-anchor="middle" x="139" y="-275.5" font-family="Helvetica,sans-Serif" font-size="10.00">ICollection</text>
</a>
</g>
</g>
<!-- Node18&#45;&gt;Node15 -->
<g id="edge12" class="edge"><title>Node18&#45;&gt;Node15</title>
<path fill="none" stroke="midnightblue" d="M180.345,-282.188C262.323,-289.277 453.286,-298.521 603,-250 636.035,-239.294 669.324,-217.101 691.228,-200.559"/>
<polygon fill="midnightblue" stroke="midnightblue" points="180.479,-278.686 170.205,-281.273 179.85,-285.657 180.479,-278.686"/>
</g>
<!-- Node18&#45;&gt;Node17 -->
<g id="edge3" class="edge"><title>Node18&#45;&gt;Node17</title>
<path fill="none" stroke="midnightblue" d="M176.395,-290.906C200.553,-299.473 231.75,-310.535 253.767,-318.343"/>
<polygon fill="midnightblue" stroke="midnightblue" points="177.448,-287.566 166.853,-287.522 175.108,-294.163 177.448,-287.566"/>
</g>
<!-- Node22 -->
<g id="node8" class="node"><title>Node22</title>
<g id="a_node8"><a xlink:href="interface_system_1_1_collections_1_1_i_dictionary.html" target="_top" xlink:title="Represents a nongeneric collection of key/value pairs.">
<polygon fill="none" stroke="black" points="251,-236.5 251,-255.5 313,-255.5 313,-236.5 251,-236.5"/>
<text text-anchor="middle" x="282" y="-243.5" font-family="Helvetica,sans-Serif" font-size="10.00">IDictionary</text>
</a>
</g>
</g>
<!-- Node18&#45;&gt;Node22 -->
<g id="edge10" class="edge"><title>Node18&#45;&gt;Node22</title>
<path fill="none" stroke="midnightblue" d="M180.17,-268.883C202.638,-263.784 230.183,-257.533 250.802,-252.853"/>
<polygon fill="midnightblue" stroke="midnightblue" points="179.225,-265.509 170.248,-271.135 180.775,-272.335 179.225,-265.509"/>
</g>
<!-- Node19 -->
<g id="node5" class="node"><title>Node19</title>
<g id="a_node5"><a xlink:href="interface_system_1_1_collections_1_1_i_enumerable.html" target="_top" xlink:title="Exposes an enumerator, which supports a simple iteration over a non&#45;generic collection....">
<polygon fill="none" stroke="black" points="0,-224.5 0,-243.5 71,-243.5 71,-224.5 0,-224.5"/>
<text text-anchor="middle" x="35.5" y="-231.5" font-family="Helvetica,sans-Serif" font-size="10.00">IEnumerable</text>
</a>
</g>
</g>
<!-- Node19&#45;&gt;Node15 -->
<g id="edge8" class="edge"><title>Node19&#45;&gt;Node15</title>
<path fill="none" stroke="midnightblue" d="M48.784,-216.25C65.9319,-193.791 99.3261,-158 138,-158 138,-158 138,-158 539,-158 572.225,-158 608.685,-161.843 639.871,-166.317"/>
<polygon fill="midnightblue" stroke="midnightblue" points="45.92,-214.237 42.8396,-224.375 51.5693,-218.371 45.92,-214.237"/>
</g>
<!-- Node19&#45;&gt;Node17 -->
<g id="edge5" class="edge"><title>Node19&#45;&gt;Node17</title>
<path fill="none" stroke="midnightblue" d="M51.5047,-251.773C64.8159,-266.312 85.582,-286.176 108,-297 138.501,-311.726 175.076,-319.51 206.724,-323.603"/>
<polygon fill="midnightblue" stroke="midnightblue" points="53.82,-249.108 44.5726,-243.937 48.5771,-253.746 53.82,-249.108"/>
</g>
<!-- Node19&#45;&gt;Node18 -->
<g id="edge4" class="edge"><title>Node19&#45;&gt;Node18</title>
<path fill="none" stroke="midnightblue" d="M67.8071,-247.572C83.4216,-254.34 101.929,-262.363 116.019,-268.471"/>
<polygon fill="midnightblue" stroke="midnightblue" points="69.0911,-244.313 58.524,-243.547 66.3069,-250.736 69.0911,-244.313"/>
</g>
<!-- Node19&#45;&gt;Node22 -->
<g id="edge11" class="edge"><title>Node19&#45;&gt;Node22</title>
<path fill="none" stroke="midnightblue" d="M81.0665,-236.187C130.336,-238.605 208.346,-242.434 250.892,-244.522"/>
<polygon fill="midnightblue" stroke="midnightblue" points="81.1719,-232.688 71.0123,-235.694 80.8287,-239.68 81.1719,-232.688"/>
</g>
<!-- Node23 -->
<g id="node9" class="node"><title>Node23</title>
<g id="a_node9"><a xlink:href="interface_system_1_1_collections_1_1_generic_1_1_i_read_only_dictionary.html" target="_top" xlink:title="Represents a generic read&#45;only collection of key/value pairs.">
<polygon fill="none" stroke="black" points="485.5,-58 485.5,-88 590.5,-88 590.5,-58 485.5,-58"/>
<text text-anchor="start" x="493.5" y="-76" font-family="Helvetica,sans-Serif" font-size="10.00">IReadOnlyDictionary</text>
<text text-anchor="middle" x="538" y="-65" font-family="Helvetica,sans-Serif" font-size="10.00">&lt; TKey, TValue &gt;</text>
</a>
</g>
</g>
<!-- Node19&#45;&gt;Node23 -->
<g id="edge16" class="edge"><title>Node19&#45;&gt;Node23</title>
<path fill="none" stroke="midnightblue" d="M43.6647,-214.772C51.9348,-194.828 67.2484,-163.839 89,-144 131.751,-105.009 150.829,-102.883 207,-89 303.054,-65.2592 419.495,-66.2481 485.235,-69.419"/>
<polygon fill="midnightblue" stroke="midnightblue" points="40.3095,-213.739 39.8917,-224.326 46.8202,-216.31 40.3095,-213.739"/>
</g>
<!-- Node20 -->
<g id="node6" class="node"><title>Node20</title>
<g id="a_node6"><a xlink:title=" ">
<polygon fill="none" stroke="#bfbfbf" points="473,-187 473,-217 603,-217 603,-187 473,-187"/>
<text text-anchor="start" x="481" y="-205" font-family="Helvetica,sans-Serif" font-size="10.00">ICollection&lt; KeyValuePair</text>
<text text-anchor="middle" x="538" y="-194" font-family="Helvetica,sans-Serif" font-size="10.00">&lt; TKey, TValue &gt;&gt;</text>
</a>
</g>
</g>
<!-- Node20&#45;&gt;Node15 -->
<g id="edge6" class="edge"><title>Node20&#45;&gt;Node15</title>
<path fill="none" stroke="midnightblue" d="M613.268,-192.795C622.039,-191.708 631.004,-190.597 639.807,-189.506"/>
<polygon fill="midnightblue" stroke="midnightblue" points="612.575,-189.354 603.082,-194.057 613.436,-196.301 612.575,-189.354"/>
</g>
<!-- Node21 -->
<g id="node7" class="node"><title>Node21</title>
<g id="a_node7"><a xlink:title=" ">
<polygon fill="none" stroke="#bfbfbf" points="212.5,-99 212.5,-129 351.5,-129 351.5,-99 212.5,-99"/>
<text text-anchor="start" x="220.5" y="-117" font-family="Helvetica,sans-Serif" font-size="10.00">IEnumerable&lt; KeyValuePair</text>
<text text-anchor="middle" x="282" y="-106" font-family="Helvetica,sans-Serif" font-size="10.00">&lt; TKey, TValue &gt;&gt;</text>
</a>
</g>
</g>
<!-- Node21&#45;&gt;Node15 -->
<g id="edge7" class="edge"><title>Node21&#45;&gt;Node15</title>
<path fill="none" stroke="midnightblue" d="M362.122,-114.864C431.446,-117.069 534.507,-123.872 622,-144 638.083,-147.7 655.096,-153.537 670.188,-159.442"/>
<polygon fill="midnightblue" stroke="midnightblue" points="361.817,-111.353 351.719,-114.559 361.613,-118.35 361.817,-111.353"/>
</g>
<!-- Node21&#45;&gt;Node23 -->
<g id="edge15" class="edge"><title>Node21&#45;&gt;Node23</title>
<path fill="none" stroke="midnightblue" d="M361.771,-101.285C401.93,-94.8026 449.646,-87.1004 485.137,-81.3715"/>
<polygon fill="midnightblue" stroke="midnightblue" points="361.051,-97.8559 351.736,-102.905 362.166,-104.766 361.051,-97.8559"/>
</g>
<!-- Node22&#45;&gt;Node15 -->
<g id="edge9" class="edge"><title>Node22&#45;&gt;Node15</title>
<path fill="none" stroke="midnightblue" d="M323.022,-247.588C384.189,-249.103 504.232,-248.474 603,-226 627.671,-220.386 653.93,-210.052 674.971,-200.599"/>
<polygon fill="midnightblue" stroke="midnightblue" points="323.107,-244.089 313.013,-247.307 322.911,-251.086 323.107,-244.089"/>
</g>
<!-- Node23&#45;&gt;Node15 -->
<g id="edge13" class="edge"><title>Node23&#45;&gt;Node15</title>
<path fill="none" stroke="midnightblue" d="M592.993,-91.8574C602.879,-96.0358 612.931,-100.791 622,-106 648.562,-121.257 675.778,-143.392 694.139,-159.476"/>
<polygon fill="midnightblue" stroke="midnightblue" points="594.183,-88.5631 583.602,-88.0319 591.542,-95.0459 594.183,-88.5631"/>
</g>
<!-- Node24 -->
<g id="node10" class="node"><title>Node24</title>
<g id="a_node10"><a xlink:title=" ">
<polygon fill="none" stroke="#bfbfbf" points="222.5,-0.5 222.5,-41.5 341.5,-41.5 341.5,-0.5 222.5,-0.5"/>
<text text-anchor="start" x="230.5" y="-29.5" font-family="Helvetica,sans-Serif" font-size="10.00">IReadOnlyCollection</text>
<text text-anchor="start" x="230.5" y="-18.5" font-family="Helvetica,sans-Serif" font-size="10.00">&lt; KeyValuePair&lt; TKey,</text>
<text text-anchor="middle" x="282" y="-7.5" font-family="Helvetica,sans-Serif" font-size="10.00"> TValue &gt;&gt;</text>
</a>
</g>
</g>
<!-- Node24&#45;&gt;Node15 -->
<g id="edge17" class="edge"><title>Node24&#45;&gt;Node15</title>
<path fill="none" stroke="midnightblue" d="M351.905,-12.3267C419.627,-7.0166 524.02,-7.64262 603,-48 651.848,-72.9603 688.483,-128.879 705.668,-159.311"/>
<polygon fill="midnightblue" stroke="midnightblue" points="351.442,-8.85339 341.774,-13.1869 352.034,-15.8283 351.442,-8.85339"/>
</g>
<!-- Node24&#45;&gt;Node23 -->
<g id="edge14" class="edge"><title>Node24&#45;&gt;Node23</title>
<path fill="none" stroke="midnightblue" d="M351.485,-35.0206C393.554,-43.6331 446.586,-54.49 485.164,-62.3879"/>
<polygon fill="midnightblue" stroke="midnightblue" points="352.09,-31.572 341.592,-32.9951 350.686,-38.4297 352.09,-31.572"/>
</g>
</g>
</svg>
