<?xml version="1.0" encoding="UTF-8" standalone="no"?>
<!DOCTYPE svg PUBLIC "-//W3C//DTD SVG 1.1//EN"
 "http://www.w3.org/Graphics/SVG/1.1/DTD/svg11.dtd">
<!-- Generated by graphviz version 2.38.0 (20140413.2041)
 -->
<!-- Title: System.Security.Cryptography.HashAlgorithm Pages: 1 -->
<svg width="1012pt" height="549pt"
 viewBox="0.00 0.00 1012.00 549.00" xmlns="http://www.w3.org/2000/svg" xmlns:xlink="http://www.w3.org/1999/xlink">
<g id="graph0" class="graph" transform="scale(1 1) rotate(0) translate(4 545)">
<title>System.Security.Cryptography.HashAlgorithm</title>
<!-- Node0 -->
<g id="node1" class="node"><title>Node0</title>
<g id="a_node1"><a xlink:title="Represents the base class from which all implementations of cryptographic hash algorithms must derive...">
<polygon fill="#bfbfbf" stroke="black" points="229,-160.5 229,-190.5 382,-190.5 382,-160.5 229,-160.5"/>
<text text-anchor="start" x="237" y="-178.5" font-family="Helvetica,sans-Serif" font-size="10.00">System.Security.Cryptography.</text>
<text text-anchor="middle" x="305.5" y="-167.5" font-family="Helvetica,sans-Serif" font-size="10.00">HashAlgorithm</text>
</a>
</g>
</g>
<!-- Node3 -->
<g id="node4" class="node"><title>Node3</title>
<g id="a_node4"><a xlink:href="class_system_1_1_security_1_1_cryptography_1_1_keyed_hash_algorithm.html" target="_top" xlink:title="Represents the abstract class from which all implementations of keyed hash algorithms must derive.">
<polygon fill="none" stroke="black" points="431,-343.5 431,-373.5 584,-373.5 584,-343.5 431,-343.5"/>
<text text-anchor="start" x="439" y="-361.5" font-family="Helvetica,sans-Serif" font-size="10.00">System.Security.Cryptography.</text>
<text text-anchor="middle" x="507.5" y="-350.5" font-family="Helvetica,sans-Serif" font-size="10.00">KeyedHashAlgorithm</text>
</a>
</g>
</g>
<!-- Node0&#45;&gt;Node3 -->
<g id="edge4" class="edge"><title>Node0&#45;&gt;Node3</title>
<path fill="none" stroke="midnightblue" d="M321.363,-199.216C340.749,-228.687 377.058,-279.154 418,-312.5 433.44,-325.076 452.868,-335.635 469.584,-343.453"/>
<polygon fill="midnightblue" stroke="midnightblue" points="324.277,-197.277 315.903,-190.786 318.402,-201.082 324.277,-197.277"/>
</g>
<!-- Node12 -->
<g id="node13" class="node"><title>Node12</title>
<g id="a_node13"><a xlink:href="class_system_1_1_security_1_1_cryptography_1_1_m_d5.html" target="_top" xlink:title="Represents the abstract class from which all implementations of the T:System.Security....">
<polygon fill="none" stroke="black" points="421,-284 421,-303 594,-303 594,-284 421,-284"/>
<text text-anchor="middle" x="507.5" y="-291" font-family="Helvetica,sans-Serif" font-size="10.00">System.Security.Cryptography.MD5</text>
</a>
</g>
</g>
<!-- Node0&#45;&gt;Node12 -->
<g id="edge13" class="edge"><title>Node0&#45;&gt;Node12</title>
<path fill="none" stroke="midnightblue" d="M331.904,-197.031C353.736,-214.819 386.578,-239.914 418,-257.5 437.106,-268.193 460.039,-277.43 477.772,-283.87"/>
<polygon fill="midnightblue" stroke="midnightblue" points="334.045,-194.261 324.102,-190.603 329.594,-199.663 334.045,-194.261"/>
</g>
<!-- Node14 -->
<g id="node15" class="node"><title>Node14</title>
<g id="a_node15"><a xlink:href="class_system_1_1_security_1_1_cryptography_1_1_r_i_p_e_m_d160.html" target="_top" xlink:title="Represents the abstract class from which all implementations of the MD160 hash algorithm inherit.">
<polygon fill="none" stroke="black" points="431,-218.5 431,-248.5 584,-248.5 584,-218.5 431,-218.5"/>
<text text-anchor="start" x="439" y="-236.5" font-family="Helvetica,sans-Serif" font-size="10.00">System.Security.Cryptography.</text>
<text text-anchor="middle" x="507.5" y="-225.5" font-family="Helvetica,sans-Serif" font-size="10.00">RIPEMD160</text>
</a>
</g>
</g>
<!-- Node0&#45;&gt;Node14 -->
<g id="edge15" class="edge"><title>Node0&#45;&gt;Node14</title>
<path fill="none" stroke="midnightblue" d="M367.871,-193.297C395.629,-201.348 428.081,-210.758 454.605,-218.45"/>
<polygon fill="midnightblue" stroke="midnightblue" points="368.844,-189.936 358.265,-190.512 366.895,-196.659 368.844,-189.936"/>
</g>
<!-- Node16 -->
<g id="node17" class="node"><title>Node16</title>
<g id="a_node17"><a xlink:href="class_system_1_1_security_1_1_cryptography_1_1_s_h_a1.html" target="_top" xlink:title="Computes the T:System.Security.Cryptography.SHA1 hash for the input data.">
<polygon fill="none" stroke="black" points="418,-166 418,-185 597,-185 597,-166 418,-166"/>
<text text-anchor="middle" x="507.5" y="-173" font-family="Helvetica,sans-Serif" font-size="10.00">System.Security.Cryptography.SHA1</text>
</a>
</g>
</g>
<!-- Node0&#45;&gt;Node16 -->
<g id="edge17" class="edge"><title>Node0&#45;&gt;Node16</title>
<path fill="none" stroke="midnightblue" d="M392.284,-175.5C400.694,-175.5 409.24,-175.5 417.678,-175.5"/>
<polygon fill="midnightblue" stroke="midnightblue" points="392.111,-172 382.111,-175.5 392.111,-179 392.111,-172"/>
</g>
<!-- Node19 -->
<g id="node20" class="node"><title>Node19</title>
<g id="a_node20"><a xlink:href="class_system_1_1_security_1_1_cryptography_1_1_s_h_a256.html" target="_top" xlink:title="Computes the T:System.Security.Cryptography.SHA256 hash for the input data.">
<polygon fill="none" stroke="black" points="431,-115.5 431,-145.5 584,-145.5 584,-115.5 431,-115.5"/>
<text text-anchor="start" x="439" y="-133.5" font-family="Helvetica,sans-Serif" font-size="10.00">System.Security.Cryptography.</text>
<text text-anchor="middle" x="507.5" y="-122.5" font-family="Helvetica,sans-Serif" font-size="10.00">SHA256</text>
</a>
</g>
</g>
<!-- Node0&#45;&gt;Node19 -->
<g id="edge20" class="edge"><title>Node0&#45;&gt;Node19</title>
<path fill="none" stroke="midnightblue" d="M383.274,-158.226C401.868,-154.042 421.595,-149.604 439.688,-145.533"/>
<polygon fill="midnightblue" stroke="midnightblue" points="382.363,-154.843 373.375,-160.453 383.9,-161.673 382.363,-154.843"/>
</g>
<!-- Node21 -->
<g id="node22" class="node"><title>Node21</title>
<g id="a_node22"><a xlink:href="class_system_1_1_security_1_1_cryptography_1_1_s_h_a384.html" target="_top" xlink:title="Computes the T:System.Security.Cryptography.SHA384 hash for the input data.">
<polygon fill="none" stroke="black" points="431,-65.5 431,-95.5 584,-95.5 584,-65.5 431,-65.5"/>
<text text-anchor="start" x="439" y="-83.5" font-family="Helvetica,sans-Serif" font-size="10.00">System.Security.Cryptography.</text>
<text text-anchor="middle" x="507.5" y="-72.5" font-family="Helvetica,sans-Serif" font-size="10.00">SHA384</text>
</a>
</g>
</g>
<!-- Node0&#45;&gt;Node21 -->
<g id="edge22" class="edge"><title>Node0&#45;&gt;Node21</title>
<path fill="none" stroke="midnightblue" d="M334.625,-154.667C356.445,-139.309 387.941,-118.85 418,-105.5 426.317,-101.806 435.318,-98.5177 444.286,-95.6375"/>
<polygon fill="midnightblue" stroke="midnightblue" points="332.58,-151.827 326.473,-160.485 336.646,-157.525 332.58,-151.827"/>
</g>
<!-- Node23 -->
<g id="node24" class="node"><title>Node23</title>
<g id="a_node24"><a xlink:href="class_system_1_1_security_1_1_cryptography_1_1_s_h_a512.html" target="_top" xlink:title="Computes the T:System.Security.Cryptography.SHA512 hash for the input data.">
<polygon fill="none" stroke="black" points="431,-14.5 431,-44.5 584,-44.5 584,-14.5 431,-14.5"/>
<text text-anchor="start" x="439" y="-32.5" font-family="Helvetica,sans-Serif" font-size="10.00">System.Security.Cryptography.</text>
<text text-anchor="middle" x="507.5" y="-21.5" font-family="Helvetica,sans-Serif" font-size="10.00">SHA512</text>
</a>
</g>
</g>
<!-- Node0&#45;&gt;Node23 -->
<g id="edge24" class="edge"><title>Node0&#45;&gt;Node23</title>
<path fill="none" stroke="midnightblue" d="M322.561,-151.622C342.043,-124.462 377.366,-80.633 418,-55.5 424.946,-51.2039 432.637,-47.5876 440.5,-44.5508"/>
<polygon fill="midnightblue" stroke="midnightblue" points="319.46,-149.948 316.577,-160.143 325.189,-153.971 319.46,-149.948"/>
</g>
<!-- Node1 -->
<g id="node2" class="node"><title>Node1</title>
<g id="a_node2"><a xlink:href="interface_system_1_1_i_disposable.html" target="_top" xlink:title="Provides a mechanism for releasing unmanaged resources.To browse the .NET Framework source code for t...">
<polygon fill="none" stroke="black" points="0,-166 0,-185 67,-185 67,-166 0,-166"/>
<text text-anchor="middle" x="33.5" y="-173" font-family="Helvetica,sans-Serif" font-size="10.00">IDisposable</text>
</a>
</g>
</g>
<!-- Node1&#45;&gt;Node0 -->
<g id="edge1" class="edge"><title>Node1&#45;&gt;Node0</title>
<path fill="none" stroke="midnightblue" d="M77.1701,-175.5C117.805,-175.5 179.864,-175.5 228.88,-175.5"/>
<polygon fill="midnightblue" stroke="midnightblue" points="77.0683,-172 67.0683,-175.5 77.0683,-179 77.0683,-172"/>
</g>
<!-- Node2 -->
<g id="node3" class="node"><title>Node2</title>
<g id="a_node3"><a xlink:href="interface_system_1_1_security_1_1_cryptography_1_1_i_crypto_transform.html" target="_top" xlink:title="Defines the basic operations of cryptographic transformations.">
<polygon fill="none" stroke="black" points="103,-147 103,-166 193,-166 193,-147 103,-147"/>
<text text-anchor="middle" x="148" y="-154" font-family="Helvetica,sans-Serif" font-size="10.00">ICryptoTransform</text>
</a>
</g>
</g>
<!-- Node1&#45;&gt;Node2 -->
<g id="edge3" class="edge"><title>Node1&#45;&gt;Node2</title>
<path fill="none" stroke="midnightblue" d="M77.046,-168.314C85.4722,-166.891 94.3353,-165.394 102.815,-163.962"/>
<polygon fill="midnightblue" stroke="midnightblue" points="76.3171,-164.888 67.0397,-170.004 77.4829,-171.79 76.3171,-164.888"/>
</g>
<!-- Node2&#45;&gt;Node0 -->
<g id="edge2" class="edge"><title>Node2&#45;&gt;Node0</title>
<path fill="none" stroke="midnightblue" d="M203.33,-163.138C211.559,-164.144 220.174,-165.197 228.757,-166.245"/>
<polygon fill="midnightblue" stroke="midnightblue" points="203.495,-159.633 193.144,-161.894 202.646,-166.581 203.495,-159.633"/>
</g>
<!-- Node4 -->
<g id="node5" class="node"><title>Node4</title>
<g id="a_node5"><a xlink:href="class_system_1_1_security_1_1_cryptography_1_1_h_m_a_c.html" target="_top" xlink:title="Represents the abstract class from which all implementations of Hash&#45;based Message Authentication Cod...">
<polygon fill="none" stroke="black" points="633,-393 633,-412 815,-412 815,-393 633,-393"/>
<text text-anchor="middle" x="724" y="-400" font-family="Helvetica,sans-Serif" font-size="10.00">System.Security.Cryptography.HMAC</text>
</a>
</g>
</g>
<!-- Node3&#45;&gt;Node4 -->
<g id="edge5" class="edge"><title>Node3&#45;&gt;Node4</title>
<path fill="none" stroke="midnightblue" d="M591.795,-375.586C620.611,-381.497 651.857,-387.907 676.627,-392.988"/>
<polygon fill="midnightblue" stroke="midnightblue" points="592.218,-372.1 581.719,-373.519 590.811,-378.957 592.218,-372.1"/>
</g>
<!-- Node11 -->
<g id="node12" class="node"><title>Node11</title>
<g id="a_node12"><a xlink:href="class_system_1_1_security_1_1_cryptography_1_1_m_a_c_triple_d_e_s.html" target="_top" xlink:title="Computes a Message Authentication Code (MAC) using T:System.Security.Cryptography....">
<polygon fill="none" stroke="black" points="647.5,-343.5 647.5,-373.5 800.5,-373.5 800.5,-343.5 647.5,-343.5"/>
<text text-anchor="start" x="655.5" y="-361.5" font-family="Helvetica,sans-Serif" font-size="10.00">System.Security.Cryptography.</text>
<text text-anchor="middle" x="724" y="-350.5" font-family="Helvetica,sans-Serif" font-size="10.00">MACTripleDES</text>
</a>
</g>
</g>
<!-- Node3&#45;&gt;Node11 -->
<g id="edge12" class="edge"><title>Node3&#45;&gt;Node11</title>
<path fill="none" stroke="midnightblue" d="M594.339,-358.5C611.868,-358.5 630.193,-358.5 647.335,-358.5"/>
<polygon fill="midnightblue" stroke="midnightblue" points="594.125,-355 584.125,-358.5 594.125,-362 594.125,-355"/>
</g>
<!-- Node5 -->
<g id="node6" class="node"><title>Node5</title>
<g id="a_node6"><a xlink:href="class_system_1_1_security_1_1_cryptography_1_1_h_m_a_c_m_d5.html" target="_top" xlink:title="Computes a Hash&#45;based Message Authentication Code (HMAC) by using the T:System.Security....">
<polygon fill="none" stroke="black" points="851,-510.5 851,-540.5 1004,-540.5 1004,-510.5 851,-510.5"/>
<text text-anchor="start" x="859" y="-528.5" font-family="Helvetica,sans-Serif" font-size="10.00">System.Security.Cryptography.</text>
<text text-anchor="middle" x="927.5" y="-517.5" font-family="Helvetica,sans-Serif" font-size="10.00">HMACMD5</text>
</a>
</g>
</g>
<!-- Node4&#45;&gt;Node5 -->
<g id="edge6" class="edge"><title>Node4&#45;&gt;Node5</title>
<path fill="none" stroke="midnightblue" d="M742.236,-419.073C765.327,-440.492 808.357,-477.733 851,-500.5 857.943,-504.207 865.537,-507.502 873.148,-510.386"/>
<polygon fill="midnightblue" stroke="midnightblue" points="744.616,-416.506 734.933,-412.206 739.82,-421.606 744.616,-416.506"/>
</g>
<!-- Node6 -->
<g id="node7" class="node"><title>Node6</title>
<g id="a_node7"><a xlink:href="class_system_1_1_security_1_1_cryptography_1_1_h_m_a_c_r_i_p_e_m_d160.html" target="_top" xlink:title="Computes a Hash&#45;based Message Authentication Code (HMAC) by using the T:System.Security....">
<polygon fill="none" stroke="black" points="851,-461.5 851,-491.5 1004,-491.5 1004,-461.5 851,-461.5"/>
<text text-anchor="start" x="859" y="-479.5" font-family="Helvetica,sans-Serif" font-size="10.00">System.Security.Cryptography.</text>
<text text-anchor="middle" x="927.5" y="-468.5" font-family="Helvetica,sans-Serif" font-size="10.00">HMACRIPEMD160</text>
</a>
</g>
</g>
<!-- Node4&#45;&gt;Node6 -->
<g id="edge7" class="edge"><title>Node4&#45;&gt;Node6</title>
<path fill="none" stroke="midnightblue" d="M758.041,-415.882C783.356,-426.005 819.22,-440.067 851,-451.5 860.225,-454.818 870.14,-458.219 879.653,-461.401"/>
<polygon fill="midnightblue" stroke="midnightblue" points="759.136,-412.55 748.551,-412.074 756.529,-419.047 759.136,-412.55"/>
</g>
<!-- Node7 -->
<g id="node8" class="node"><title>Node7</title>
<g id="a_node8"><a xlink:href="class_system_1_1_security_1_1_cryptography_1_1_h_m_a_c_s_h_a1.html" target="_top" xlink:title="Computes a Hash&#45;based Message Authentication Code (HMAC) using the T:System.Security....">
<polygon fill="none" stroke="black" points="851,-412.5 851,-442.5 1004,-442.5 1004,-412.5 851,-412.5"/>
<text text-anchor="start" x="859" y="-430.5" font-family="Helvetica,sans-Serif" font-size="10.00">System.Security.Cryptography.</text>
<text text-anchor="middle" x="927.5" y="-419.5" font-family="Helvetica,sans-Serif" font-size="10.00">HMACSHA1</text>
</a>
</g>
</g>
<!-- Node4&#45;&gt;Node7 -->
<g id="edge8" class="edge"><title>Node4&#45;&gt;Node7</title>
<path fill="none" stroke="midnightblue" d="M812.058,-413.301C825.01,-414.908 838.27,-416.553 850.959,-418.128"/>
<polygon fill="midnightblue" stroke="midnightblue" points="812.108,-409.781 801.753,-412.023 811.246,-416.727 812.108,-409.781"/>
</g>
<!-- Node8 -->
<g id="node9" class="node"><title>Node8</title>
<g id="a_node9"><a xlink:href="class_system_1_1_security_1_1_cryptography_1_1_h_m_a_c_s_h_a256.html" target="_top" xlink:title="Computes a Hash&#45;based Message Authentication Code (HMAC) by using the T:System.Security....">
<polygon fill="none" stroke="black" points="851,-363.5 851,-393.5 1004,-393.5 1004,-363.5 851,-363.5"/>
<text text-anchor="start" x="859" y="-381.5" font-family="Helvetica,sans-Serif" font-size="10.00">System.Security.Cryptography.</text>
<text text-anchor="middle" x="927.5" y="-370.5" font-family="Helvetica,sans-Serif" font-size="10.00">HMACSHA256</text>
</a>
</g>
</g>
<!-- Node4&#45;&gt;Node8 -->
<g id="edge9" class="edge"><title>Node4&#45;&gt;Node8</title>
<path fill="none" stroke="midnightblue" d="M814.958,-391.785C826.974,-390.354 839.198,-388.898 850.935,-387.5"/>
<polygon fill="midnightblue" stroke="midnightblue" points="814.443,-388.322 804.928,-392.98 815.271,-395.273 814.443,-388.322"/>
</g>
<!-- Node9 -->
<g id="node10" class="node"><title>Node9</title>
<g id="a_node10"><a xlink:href="class_system_1_1_security_1_1_cryptography_1_1_h_m_a_c_s_h_a384.html" target="_top" xlink:title="Computes a Hash&#45;based Message Authentication Code (HMAC) using the T:System.Security....">
<polygon fill="none" stroke="black" points="851,-314.5 851,-344.5 1004,-344.5 1004,-314.5 851,-314.5"/>
<text text-anchor="start" x="859" y="-332.5" font-family="Helvetica,sans-Serif" font-size="10.00">System.Security.Cryptography.</text>
<text text-anchor="middle" x="927.5" y="-321.5" font-family="Helvetica,sans-Serif" font-size="10.00">HMACSHA384</text>
</a>
</g>
</g>
<!-- Node4&#45;&gt;Node9 -->
<g id="edge10" class="edge"><title>Node4&#45;&gt;Node9</title>
<path fill="none" stroke="midnightblue" d="M795.672,-390.098C802.348,-387.95 808.895,-385.437 815,-382.5 833.515,-373.593 832.901,-363.223 851,-353.5 857.179,-350.181 863.893,-347.231 870.683,-344.636"/>
<polygon fill="midnightblue" stroke="midnightblue" points="794.442,-386.812 785.836,-392.992 796.418,-393.527 794.442,-386.812"/>
</g>
<!-- Node10 -->
<g id="node11" class="node"><title>Node10</title>
<g id="a_node11"><a xlink:href="class_system_1_1_security_1_1_cryptography_1_1_h_m_a_c_s_h_a512.html" target="_top" xlink:title="Computes a Hash&#45;based Message Authentication Code (HMAC) using the T:System.Security....">
<polygon fill="none" stroke="black" points="851,-265.5 851,-295.5 1004,-295.5 1004,-265.5 851,-265.5"/>
<text text-anchor="start" x="859" y="-283.5" font-family="Helvetica,sans-Serif" font-size="10.00">System.Security.Cryptography.</text>
<text text-anchor="middle" x="927.5" y="-272.5" font-family="Helvetica,sans-Serif" font-size="10.00">HMACSHA512</text>
</a>
</g>
</g>
<!-- Node4&#45;&gt;Node10 -->
<g id="edge11" class="edge"><title>Node4&#45;&gt;Node10</title>
<path fill="none" stroke="midnightblue" d="M806.177,-388.499C809.278,-386.719 812.237,-384.727 815,-382.5 844.724,-358.536 822.373,-329.764 851,-304.5 854.919,-301.042 859.338,-298.081 864.022,-295.547"/>
<polygon fill="midnightblue" stroke="midnightblue" points="804.526,-385.411 797.107,-392.975 807.624,-391.688 804.526,-385.411"/>
</g>
<!-- Node13 -->
<g id="node14" class="node"><title>Node13</title>
<g id="a_node14"><a xlink:href="class_system_1_1_security_1_1_cryptography_1_1_m_d5_crypto_service_provider.html" target="_top" xlink:title="Computes the T:System.Security.Cryptography.MD5 hash value for the input data using the implementatio...">
<polygon fill="none" stroke="black" points="647.5,-294.5 647.5,-324.5 800.5,-324.5 800.5,-294.5 647.5,-294.5"/>
<text text-anchor="start" x="655.5" y="-312.5" font-family="Helvetica,sans-Serif" font-size="10.00">System.Security.Cryptography.</text>
<text text-anchor="middle" x="724" y="-301.5" font-family="Helvetica,sans-Serif" font-size="10.00">MD5CryptoServiceProvider</text>
</a>
</g>
</g>
<!-- Node12&#45;&gt;Node13 -->
<g id="edge14" class="edge"><title>Node12&#45;&gt;Node13</title>
<path fill="none" stroke="midnightblue" d="M604.185,-300.637C618.69,-301.719 633.482,-302.823 647.481,-303.867"/>
<polygon fill="midnightblue" stroke="midnightblue" points="604.434,-297.146 594.201,-299.893 603.913,-304.127 604.434,-297.146"/>
</g>
<!-- Node15 -->
<g id="node16" class="node"><title>Node15</title>
<g id="a_node16"><a xlink:href="class_system_1_1_security_1_1_cryptography_1_1_r_i_p_e_m_d160_managed.html" target="_top" xlink:title="Computes the T:System.Security.Cryptography.RIPEMD160 hash for the input data using the managed libra...">
<polygon fill="none" stroke="black" points="647.5,-245.5 647.5,-275.5 800.5,-275.5 800.5,-245.5 647.5,-245.5"/>
<text text-anchor="start" x="655.5" y="-263.5" font-family="Helvetica,sans-Serif" font-size="10.00">System.Security.Cryptography.</text>
<text text-anchor="middle" x="724" y="-252.5" font-family="Helvetica,sans-Serif" font-size="10.00">RIPEMD160Managed</text>
</a>
</g>
</g>
<!-- Node14&#45;&gt;Node15 -->
<g id="edge16" class="edge"><title>Node14&#45;&gt;Node15</title>
<path fill="none" stroke="midnightblue" d="M594.339,-244.305C611.868,-246.511 630.193,-248.818 647.335,-250.976"/>
<polygon fill="midnightblue" stroke="midnightblue" points="594.484,-240.796 584.125,-243.019 593.609,-247.741 594.484,-240.796"/>
</g>
<!-- Node17 -->
<g id="node18" class="node"><title>Node17</title>
<g id="a_node18"><a xlink:href="class_system_1_1_security_1_1_cryptography_1_1_s_h_a1_crypto_service_provider.html" target="_top" xlink:title="Computes the T:System.Security.Cryptography.SHA1 hash value for the input data using the implementati...">
<polygon fill="none" stroke="black" points="647.5,-196.5 647.5,-226.5 800.5,-226.5 800.5,-196.5 647.5,-196.5"/>
<text text-anchor="start" x="655.5" y="-214.5" font-family="Helvetica,sans-Serif" font-size="10.00">System.Security.Cryptography.</text>
<text text-anchor="middle" x="724" y="-203.5" font-family="Helvetica,sans-Serif" font-size="10.00">SHA1CryptoServiceProvider</text>
</a>
</g>
</g>
<!-- Node16&#45;&gt;Node17 -->
<g id="edge18" class="edge"><title>Node16&#45;&gt;Node17</title>
<path fill="none" stroke="midnightblue" d="M575.106,-186.679C598.028,-190.526 623.857,-194.861 647.44,-198.819"/>
<polygon fill="midnightblue" stroke="midnightblue" points="575.579,-183.209 565.138,-185.006 574.421,-190.113 575.579,-183.209"/>
</g>
<!-- Node18 -->
<g id="node19" class="node"><title>Node18</title>
<g id="a_node19"><a xlink:href="class_system_1_1_security_1_1_cryptography_1_1_s_h_a1_managed.html" target="_top" xlink:title="Computes the T:System.Security.Cryptography.SHA1 hash for the input data using the managed library.">
<polygon fill="none" stroke="black" points="647.5,-147.5 647.5,-177.5 800.5,-177.5 800.5,-147.5 647.5,-147.5"/>
<text text-anchor="start" x="655.5" y="-165.5" font-family="Helvetica,sans-Serif" font-size="10.00">System.Security.Cryptography.</text>
<text text-anchor="middle" x="724" y="-154.5" font-family="Helvetica,sans-Serif" font-size="10.00">SHA1Managed</text>
</a>
</g>
</g>
<!-- Node16&#45;&gt;Node18 -->
<g id="edge19" class="edge"><title>Node16&#45;&gt;Node18</title>
<path fill="none" stroke="midnightblue" d="M607.469,-169.502C620.837,-168.692 634.377,-167.871 647.253,-167.091"/>
<polygon fill="midnightblue" stroke="midnightblue" points="607.064,-166.02 597.294,-170.119 607.487,-173.007 607.064,-166.02"/>
</g>
<!-- Node20 -->
<g id="node21" class="node"><title>Node20</title>
<g id="a_node21"><a xlink:href="class_system_1_1_security_1_1_cryptography_1_1_s_h_a256_managed.html" target="_top" xlink:title="Computes the T:System.Security.Cryptography.SHA256 hash for the input data using the managed library.">
<polygon fill="none" stroke="black" points="647.5,-98.5 647.5,-128.5 800.5,-128.5 800.5,-98.5 647.5,-98.5"/>
<text text-anchor="start" x="655.5" y="-116.5" font-family="Helvetica,sans-Serif" font-size="10.00">System.Security.Cryptography.</text>
<text text-anchor="middle" x="724" y="-105.5" font-family="Helvetica,sans-Serif" font-size="10.00">SHA256Managed</text>
</a>
</g>
</g>
<!-- Node19&#45;&gt;Node20 -->
<g id="edge21" class="edge"><title>Node19&#45;&gt;Node20</title>
<path fill="none" stroke="midnightblue" d="M594.339,-123.697C611.868,-122.308 630.193,-120.855 647.335,-119.497"/>
<polygon fill="midnightblue" stroke="midnightblue" points="593.817,-120.227 584.125,-124.506 594.37,-127.205 593.817,-120.227"/>
</g>
<!-- Node22 -->
<g id="node23" class="node"><title>Node22</title>
<g id="a_node23"><a xlink:href="class_system_1_1_security_1_1_cryptography_1_1_s_h_a384_managed.html" target="_top" xlink:title="Computes the T:System.Security.Cryptography.SHA384 hash for the input data using the managed library.">
<polygon fill="none" stroke="black" points="647.5,-49.5 647.5,-79.5 800.5,-79.5 800.5,-49.5 647.5,-49.5"/>
<text text-anchor="start" x="655.5" y="-67.5" font-family="Helvetica,sans-Serif" font-size="10.00">System.Security.Cryptography.</text>
<text text-anchor="middle" x="724" y="-56.5" font-family="Helvetica,sans-Serif" font-size="10.00">SHA384Managed</text>
</a>
</g>
</g>
<!-- Node21&#45;&gt;Node22 -->
<g id="edge23" class="edge"><title>Node21&#45;&gt;Node22</title>
<path fill="none" stroke="midnightblue" d="M594.339,-74.0971C611.868,-72.7896 630.193,-71.4227 647.335,-70.144"/>
<polygon fill="midnightblue" stroke="midnightblue" points="593.837,-70.6248 584.125,-74.859 594.357,-77.6054 593.837,-70.6248"/>
</g>
<!-- Node24 -->
<g id="node25" class="node"><title>Node24</title>
<g id="a_node25"><a xlink:href="class_system_1_1_security_1_1_cryptography_1_1_s_h_a512_managed.html" target="_top" xlink:title="Computes the T:System.Security.Cryptography.SHA512 hash algorithm for the input data using the manage...">
<polygon fill="none" stroke="black" points="647.5,-0.5 647.5,-30.5 800.5,-30.5 800.5,-0.5 647.5,-0.5"/>
<text text-anchor="start" x="655.5" y="-18.5" font-family="Helvetica,sans-Serif" font-size="10.00">System.Security.Cryptography.</text>
<text text-anchor="middle" x="724" y="-7.5" font-family="Helvetica,sans-Serif" font-size="10.00">SHA512Managed</text>
</a>
</g>
</g>
<!-- Node23&#45;&gt;Node24 -->
<g id="edge25" class="edge"><title>Node23&#45;&gt;Node24</title>
<path fill="none" stroke="midnightblue" d="M594.339,-23.8975C611.868,-22.7534 630.193,-21.5574 647.335,-20.4385"/>
<polygon fill="midnightblue" stroke="midnightblue" points="593.875,-20.4202 584.125,-24.5641 594.331,-27.4053 593.875,-20.4202"/>
</g>
</g>
</svg>
