<?xml version="1.0" encoding="UTF-8" standalone="no"?>
<!DOCTYPE svg PUBLIC "-//W3C//DTD SVG 1.1//EN"
 "http://www.w3.org/Graphics/SVG/1.1/DTD/svg11.dtd">
<!-- Generated by graphviz version 2.38.0 (20140413.2041)
 -->
<!-- Title: System.Reflection.Emit.ConstructorBuilder Pages: 1 -->
<svg width="210pt" height="95pt"
 viewBox="0.00 0.00 210.00 95.00" xmlns="http://www.w3.org/2000/svg" xmlns:xlink="http://www.w3.org/1999/xlink">
<g id="graph0" class="graph" transform="scale(1 1) rotate(0) translate(4 91)">
<title>System.Reflection.Emit.ConstructorBuilder</title>
<!-- Node0 -->
<g id="node1" class="node"><title>Node0</title>
<g id="a_node1"><a xlink:title="Defines and represents a constructor of a dynamic class.">
<polygon fill="#bfbfbf" stroke="black" points="9.5,-0.5 9.5,-30.5 182.5,-30.5 182.5,-0.5 9.5,-0.5"/>
<text text-anchor="start" x="17.5" y="-18.5" font-family="Helvetica,sans-Serif" font-size="10.00">System.Reflection.Emit.Constructor</text>
<text text-anchor="middle" x="96" y="-7.5" font-family="Helvetica,sans-Serif" font-size="10.00">Builder</text>
</a>
</g>
</g>
<!-- Node1 -->
<g id="node2" class="node"><title>Node1</title>
<g id="a_node2"><a xlink:href="class_system_1_1_reflection_1_1_constructor_info.html" target="_top" xlink:title="Discovers the attributes of a class constructor and provides access to constructor metadata.">
<polygon fill="none" stroke="red" points="0,-67.5 0,-86.5 82,-86.5 82,-67.5 0,-67.5"/>
<text text-anchor="middle" x="41" y="-74.5" font-family="Helvetica,sans-Serif" font-size="10.00">ConstructorInfo</text>
</a>
</g>
</g>
<!-- Node1&#45;&gt;Node0 -->
<g id="edge1" class="edge"><title>Node1&#45;&gt;Node0</title>
<path fill="none" stroke="midnightblue" d="M55.7062,-60.0906C64.2198,-50.8804 74.8386,-39.3928 83.0376,-30.523"/>
<polygon fill="midnightblue" stroke="midnightblue" points="53.098,-57.756 48.8802,-67.4751 58.2383,-62.5076 53.098,-57.756"/>
</g>
<!-- Node8 -->
<g id="node3" class="node"><title>Node8</title>
<g id="a_node3"><a xlink:href="interface_system_1_1_runtime_1_1_interop_services_1_1___constructor_builder.html" target="_top" xlink:title="Exposes the T:System.Reflection.Emit.ConstructorBuilder class to unmanaged code.">
<polygon fill="none" stroke="black" points="100,-67.5 100,-86.5 202,-86.5 202,-67.5 100,-67.5"/>
<text text-anchor="middle" x="151" y="-74.5" font-family="Helvetica,sans-Serif" font-size="10.00">_ConstructorBuilder</text>
</a>
</g>
</g>
<!-- Node8&#45;&gt;Node0 -->
<g id="edge2" class="edge"><title>Node8&#45;&gt;Node0</title>
<path fill="none" stroke="midnightblue" d="M136.294,-60.0906C127.78,-50.8804 117.161,-39.3928 108.962,-30.523"/>
<polygon fill="midnightblue" stroke="midnightblue" points="133.762,-62.5076 143.12,-67.4751 138.902,-57.756 133.762,-62.5076"/>
</g>
</g>
</svg>
