<?xml version="1.0" encoding="UTF-8" standalone="no"?>
<!DOCTYPE svg PUBLIC "-//W3C//DTD SVG 1.1//EN"
 "http://www.w3.org/Graphics/SVG/1.1/DTD/svg11.dtd">
<!-- Generated by graphviz version 2.38.0 (20140413.2041)
 -->
<!-- Title: System.IO.FileSystemEventArgs Pages: 1 -->
<svg width="168pt" height="140pt"
 viewBox="0.00 0.00 168.00 140.00" xmlns="http://www.w3.org/2000/svg" xmlns:xlink="http://www.w3.org/1999/xlink">
<g id="graph0" class="graph" transform="scale(1 1) rotate(0) translate(4 136)">
<title>System.IO.FileSystemEventArgs</title>
<!-- Node0 -->
<g id="node1" class="node"><title>Node0</title>
<g id="a_node1"><a xlink:title="Provides data for the directory events: E:System.IO.FileSystemWatcher.Changed, E:System....">
<polygon fill="#bfbfbf" stroke="black" points="0,-56.5 0,-75.5 160,-75.5 160,-56.5 0,-56.5"/>
<text text-anchor="middle" x="80" y="-63.5" font-family="Helvetica,sans-Serif" font-size="10.00">System.IO.FileSystemEventArgs</text>
</a>
</g>
</g>
<!-- Node2 -->
<g id="node3" class="node"><title>Node2</title>
<g id="a_node3"><a xlink:href="class_system_1_1_i_o_1_1_renamed_event_args.html" target="_top" xlink:title="Provides data for the E:System.IO.FileSystemWatcher.Renamed event.">
<polygon fill="none" stroke="black" points="4,-0.5 4,-19.5 156,-19.5 156,-0.5 4,-0.5"/>
<text text-anchor="middle" x="80" y="-7.5" font-family="Helvetica,sans-Serif" font-size="10.00">System.IO.RenamedEventArgs</text>
</a>
</g>
</g>
<!-- Node0&#45;&gt;Node2 -->
<g id="edge2" class="edge"><title>Node0&#45;&gt;Node2</title>
<path fill="none" stroke="midnightblue" d="M80,-45.8045C80,-36.9102 80,-26.7798 80,-19.7511"/>
<polygon fill="midnightblue" stroke="midnightblue" points="76.5001,-46.083 80,-56.083 83.5001,-46.083 76.5001,-46.083"/>
</g>
<!-- Node1 -->
<g id="node2" class="node"><title>Node1</title>
<g id="a_node2"><a xlink:href="class_system_1_1_event_args.html" target="_top" xlink:title="Represents the base class for classes that contain event data, and provides a value to use for events...">
<polygon fill="none" stroke="black" points="49.5,-112.5 49.5,-131.5 110.5,-131.5 110.5,-112.5 49.5,-112.5"/>
<text text-anchor="middle" x="80" y="-119.5" font-family="Helvetica,sans-Serif" font-size="10.00">EventArgs</text>
</a>
</g>
</g>
<!-- Node1&#45;&gt;Node0 -->
<g id="edge1" class="edge"><title>Node1&#45;&gt;Node0</title>
<path fill="none" stroke="midnightblue" d="M80,-101.805C80,-92.9102 80,-82.7798 80,-75.7511"/>
<polygon fill="midnightblue" stroke="midnightblue" points="76.5001,-102.083 80,-112.083 83.5001,-102.083 76.5001,-102.083"/>
</g>
</g>
</svg>
