<?xml version="1.0" encoding="UTF-8" standalone="no"?>
<!DOCTYPE svg PUBLIC "-//W3C//DTD SVG 1.1//EN"
 "http://www.w3.org/Graphics/SVG/1.1/DTD/svg11.dtd">
<!-- Generated by graphviz version 2.38.0 (20140413.2041)
 -->
<!-- Title: System.Text.RegularExpressions.Regex Pages: 1 -->
<svg width="577pt" height="191pt"
 viewBox="0.00 0.00 577.00 190.89" xmlns="http://www.w3.org/2000/svg" xmlns:xlink="http://www.w3.org/1999/xlink">
<g id="graph0" class="graph" transform="scale(1 1) rotate(0) translate(4 186.894)">
<title>System.Text.RegularExpressions.Regex</title>
<!-- Node2 -->
<g id="node1" class="node"><title>Node2</title>
<g id="a_node1"><a xlink:title="Represents an immutable regular expression.To browse the .NET Framework source code for this type,...">
<polygon fill="#bfbfbf" stroke="black" points="404,-109 404,-139 569,-139 569,-109 404,-109"/>
<text text-anchor="start" x="412" y="-127" font-family="Helvetica,sans-Serif" font-size="10.00">System.Text.RegularExpressions.</text>
<text text-anchor="middle" x="486.5" y="-116" font-family="Helvetica,sans-Serif" font-size="10.00">Regex</text>
</a>
</g>
</g>
<!-- Node3 -->
<g id="node2" class="node"><title>Node3</title>
<g id="a_node2"><a xlink:href="interface_system_1_1_runtime_1_1_serialization_1_1_i_serializable.html" target="_top" xlink:title="Allows an object to control its own serialization and deserialization.">
<polygon fill="none" stroke="black" points="0,-161.5 0,-180.5 69,-180.5 69,-161.5 0,-161.5"/>
<text text-anchor="middle" x="34.5" y="-168.5" font-family="Helvetica,sans-Serif" font-size="10.00">ISerializable</text>
</a>
</g>
</g>
<!-- Node3&#45;&gt;Node2 -->
<g id="edge1" class="edge"><title>Node3&#45;&gt;Node2</title>
<path fill="none" stroke="midnightblue" d="M79.5474,-176.112C146.601,-182.641 277.905,-190.495 386,-167 411.745,-161.404 439.089,-149.069 458.583,-139.039"/>
<polygon fill="midnightblue" stroke="midnightblue" points="79.6523,-172.604 69.3508,-175.08 78.9477,-179.569 79.6523,-172.604"/>
</g>
<!-- Node12 -->
<g id="node5" class="node"><title>Node12</title>
<g id="a_node5"><a xlink:href="class_system_1_1_collections_1_1_hashtable.html" target="_top" xlink:title="Represents a collection of key/value pairs that are organized based on the hash code of the key....">
<polygon fill="none" stroke="red" points="114.5,-139.5 114.5,-158.5 262.5,-158.5 262.5,-139.5 114.5,-139.5"/>
<text text-anchor="middle" x="188.5" y="-146.5" font-family="Helvetica,sans-Serif" font-size="10.00">System.Collections.Hashtable</text>
</a>
</g>
</g>
<!-- Node3&#45;&gt;Node12 -->
<g id="edge6" class="edge"><title>Node3&#45;&gt;Node12</title>
<path fill="none" stroke="midnightblue" d="M79.4484,-164.639C92.6575,-162.727 107.448,-160.586 121.746,-158.517"/>
<polygon fill="midnightblue" stroke="midnightblue" points="78.6292,-161.221 69.2337,-166.117 79.632,-168.149 78.6292,-161.221"/>
</g>
<!-- Node4 -->
<g id="node3" class="node"><title>Node4</title>
<g id="a_node3"><a xlink:href="class_system_1_1_text_1_1_regular_expressions_1_1_regex_runner_factory.html" target="_top" xlink:title="Creates a T:System.Text.RegularExpressions.RegexRunner class for a compiled regular expression.">
<polygon fill="none" stroke="black" points="106,-90 106,-120 271,-120 271,-90 106,-90"/>
<text text-anchor="start" x="114" y="-108" font-family="Helvetica,sans-Serif" font-size="10.00">System.Text.RegularExpressions.</text>
<text text-anchor="middle" x="188.5" y="-97" font-family="Helvetica,sans-Serif" font-size="10.00">RegexRunnerFactory</text>
</a>
</g>
</g>
<!-- Node4&#45;&gt;Node2 -->
<g id="edge2" class="edge"><title>Node4&#45;&gt;Node2</title>
<path fill="none" stroke="#9a32cd" stroke-dasharray="5,2" d="M281.435,-105.918C314.448,-106.747 351.931,-108.261 386,-111 391.817,-111.468 397.816,-112.036 403.849,-112.669"/>
<polygon fill="#9a32cd" stroke="#9a32cd" points="281.421,-102.417 271.342,-105.683 281.258,-109.415 281.421,-102.417"/>
<text text-anchor="middle" x="337.5" y="-114" font-family="Helvetica,sans-Serif" font-size="10.00"> factory</text>
</g>
<!-- Node5 -->
<g id="node4" class="node"><title>Node5</title>
<g id="a_node4"><a xlink:href="struct_system_1_1_time_span.html" target="_top" xlink:title="Represents a time interval.To browse the .NET Framework source code for this type,...">
<polygon fill="none" stroke="red" points="140,-0.5 140,-19.5 237,-19.5 237,-0.5 140,-0.5"/>
<text text-anchor="middle" x="188.5" y="-7.5" font-family="Helvetica,sans-Serif" font-size="10.00">System.TimeSpan</text>
</a>
</g>
</g>
<!-- Node5&#45;&gt;Node2 -->
<g id="edge3" class="edge"><title>Node5&#45;&gt;Node2</title>
<path fill="none" stroke="#9a32cd" stroke-dasharray="5,2" d="M227.244,-22.8676C266.995,-36.5986 331.287,-59.3165 386,-81 408.218,-89.8053 432.88,-100.457 452.092,-108.956"/>
<polygon fill="#9a32cd" stroke="#9a32cd" points="228.282,-19.5234 217.687,-19.5763 226.003,-26.1419 228.282,-19.5234"/>
<text text-anchor="middle" x="337.5" y="-95" font-family="Helvetica,sans-Serif" font-size="10.00"> internalMatchTimeout</text>
<text text-anchor="middle" x="337.5" y="-84" font-family="Helvetica,sans-Serif" font-size="10.00">InfiniteMatchTimeout</text>
</g>
<!-- Node5&#45;&gt;Node5 -->
<g id="edge4" class="edge"><title>Node5&#45;&gt;Node5</title>
<path fill="none" stroke="#9a32cd" stroke-dasharray="5,2" d="M169.982,-29.4C171.219,-34.3146 177.392,-38 188.5,-38 206.273,-38 211.411,-28.5653 203.913,-19.7571"/>
<polygon fill="#9a32cd" stroke="#9a32cd" points="173.354,-30.3485 173.087,-19.7571 166.691,-28.2032 173.354,-30.3485"/>
<text text-anchor="middle" x="188.5" y="-63" font-family="Helvetica,sans-Serif" font-size="10.00"> MaxValue</text>
<text text-anchor="middle" x="188.5" y="-52" font-family="Helvetica,sans-Serif" font-size="10.00">Zero</text>
<text text-anchor="middle" x="188.5" y="-41" font-family="Helvetica,sans-Serif" font-size="10.00">MinValue</text>
</g>
<!-- Node12&#45;&gt;Node2 -->
<g id="edge5" class="edge"><title>Node12&#45;&gt;Node2</title>
<path fill="none" stroke="#9a32cd" stroke-dasharray="5,2" d="M272.637,-141.978C313.657,-138.514 362.965,-134.349 403.79,-130.901"/>
<polygon fill="#9a32cd" stroke="#9a32cd" points="272.338,-138.491 262.669,-142.82 272.928,-145.466 272.338,-138.491"/>
<text text-anchor="middle" x="337.5" y="-155" font-family="Helvetica,sans-Serif" font-size="10.00"> capnames</text>
<text text-anchor="middle" x="337.5" y="-144" font-family="Helvetica,sans-Serif" font-size="10.00">caps</text>
</g>
</g>
</svg>
