<?xml version="1.0" encoding="UTF-8" standalone="no"?>
<!DOCTYPE svg PUBLIC "-//W3C//DTD SVG 1.1//EN"
 "http://www.w3.org/Graphics/SVG/1.1/DTD/svg11.dtd">
<!-- Generated by graphviz version 2.38.0 (20140413.2041)
 -->
<!-- Title: System.Runtime.Remoting.Messaging.AsyncResult Pages: 1 -->
<svg width="178pt" height="95pt"
 viewBox="0.00 0.00 178.00 95.00" xmlns="http://www.w3.org/2000/svg" xmlns:xlink="http://www.w3.org/1999/xlink">
<g id="graph0" class="graph" transform="scale(1 1) rotate(0) translate(4 91)">
<title>System.Runtime.Remoting.Messaging.AsyncResult</title>
<!-- Node0 -->
<g id="node1" class="node"><title>Node0</title>
<g id="a_node1"><a xlink:title="Encapsulates the results of an asynchronous operation on a delegate.">
<polygon fill="#bfbfbf" stroke="black" points="15.5,-0.5 15.5,-30.5 152.5,-30.5 152.5,-0.5 15.5,-0.5"/>
<text text-anchor="start" x="23.5" y="-18.5" font-family="Helvetica,sans-Serif" font-size="10.00">System.Runtime.Remoting.</text>
<text text-anchor="middle" x="84" y="-7.5" font-family="Helvetica,sans-Serif" font-size="10.00">Messaging.AsyncResult</text>
</a>
</g>
</g>
<!-- Node1 -->
<g id="node2" class="node"><title>Node1</title>
<g id="a_node2"><a xlink:href="interface_system_1_1_i_async_result.html" target="_top" xlink:title="Represents the status of an asynchronous operation.">
<polygon fill="none" stroke="black" points="0,-67.5 0,-86.5 74,-86.5 74,-67.5 0,-67.5"/>
<text text-anchor="middle" x="37" y="-74.5" font-family="Helvetica,sans-Serif" font-size="10.00">IAsyncResult</text>
</a>
</g>
</g>
<!-- Node1&#45;&gt;Node0 -->
<g id="edge1" class="edge"><title>Node1&#45;&gt;Node0</title>
<path fill="none" stroke="midnightblue" d="M50.0102,-59.5296C57.2082,-50.4173 66.0581,-39.2136 72.923,-30.523"/>
<polygon fill="midnightblue" stroke="midnightblue" points="47.1861,-57.4584 43.734,-67.4751 52.6791,-61.7975 47.1861,-57.4584"/>
</g>
<!-- Node2 -->
<g id="node3" class="node"><title>Node2</title>
<g id="a_node3"><a xlink:href="interface_system_1_1_runtime_1_1_remoting_1_1_messaging_1_1_i_message_sink.html" target="_top" xlink:title="Defines the interface for a message sink.">
<polygon fill="none" stroke="black" points="92,-67.5 92,-86.5 170,-86.5 170,-67.5 92,-67.5"/>
<text text-anchor="middle" x="131" y="-74.5" font-family="Helvetica,sans-Serif" font-size="10.00">IMessageSink</text>
</a>
</g>
</g>
<!-- Node2&#45;&gt;Node0 -->
<g id="edge2" class="edge"><title>Node2&#45;&gt;Node0</title>
<path fill="none" stroke="midnightblue" d="M117.99,-59.5296C110.792,-50.4173 101.942,-39.2136 95.077,-30.523"/>
<polygon fill="midnightblue" stroke="midnightblue" points="115.321,-61.7975 124.266,-67.4751 120.814,-57.4584 115.321,-61.7975"/>
</g>
</g>
</svg>
