<?xml version="1.0" encoding="UTF-8" standalone="no"?>
<!DOCTYPE svg PUBLIC "-//W3C//DTD SVG 1.1//EN"
 "http://www.w3.org/Graphics/SVG/1.1/DTD/svg11.dtd">
<!-- Generated by graphviz version 2.38.0 (20140413.2041)
 -->
<!-- Title: System.Runtime.Remoting.Messaging.ConstructionCall Pages: 1 -->
<!--zoomable 263 -->
<svg id="main" version="1.1" xmlns="http://www.w3.org/2000/svg" xmlns:xlink="http://www.w3.org/1999/xlink" xml:space="preserve" onload="init(evt)">
<style type="text/css"><![CDATA[
.edge:hover path { stroke: red; }
.edge:hover polygon { stroke: red; fill: red; }
]]></style>
<script type="text/javascript"><![CDATA[
var edges = document.getElementsByTagName('g');
if (edges && edges.length) {
  for (var i=0;i<edges.length;i++) {
    if (edges[i].id.substr(0,4)=='edge') {
      edges[i].setAttribute('class','edge');
    }
  }
}
]]></script>
        <defs>
                <circle id="rim" cx="0" cy="0" r="7"/>
                <circle id="rim2" cx="0" cy="0" r="3.5"/>
                <g id="zoomPlus">
                        <use xlink:href="#rim" fill="#404040">
                                <set attributeName="fill" to="#808080" begin="zoomplus.mouseover" end="zoomplus.mouseout"/>
                        </use>
                        <path d="M-4,0h8M0,-4v8" fill="none" stroke="white" stroke-width="1.5" pointer-events="none"/>
                </g>
                <g id="zoomMin">
                        <use xlink:href="#rim" fill="#404040">
                                <set attributeName="fill" to="#808080" begin="zoomminus.mouseover" end="zoomminus.mouseout"/>
                        </use>
                        <path d="M-4,0h8" fill="none" stroke="white" stroke-width="1.5" pointer-events="none"/>
                </g>
                <g id="dirArrow">
                        <path fill="none" stroke="white" stroke-width="1.5" d="M0,-3.0v7 M-2.5,-0.5L0,-3.0L2.5,-0.5"/>
                </g>
               <g id="resetDef">
                       <use xlink:href="#rim2" fill="#404040">
                               <set attributeName="fill" to="#808080" begin="reset.mouseover" end="reset.mouseout"/>
                       </use>
               </g>
        </defs>

<script type="text/javascript">
var viewWidth = 607;
var viewHeight = 263;
var sectionId = 'dynsection-0';
</script>
<script xlink:href="svgpan.js"/>
<svg id="graph" class="graph">
<g id="viewport">
<title>System.Runtime.Remoting.Messaging.ConstructionCall</title>
<!-- Node0 -->
<g id="node1" class="node"><title>Node0</title>
<g id="a_node1"><a xlink:title="Implements the T:System.Runtime.Remoting.Activation.IConstructionCallMessage interface to create a re...">
<polygon fill="#bfbfbf" stroke="black" points="117.513,-0.5 117.513,-30.5 255.513,-30.5 255.513,-0.5 117.513,-0.5"/>
<text text-anchor="start" x="125.513" y="-18.5" font-family="Helvetica,sans-Serif" font-size="10.00">System.Runtime.Remoting.</text>
<text text-anchor="middle" x="186.513" y="-7.5" font-family="Helvetica,sans-Serif" font-size="10.00">Messaging.ConstructionCall</text>
</a>
</g>
</g>
<!-- Node1 -->
<g id="node2" class="node"><title>Node1</title>
<g id="a_node2"><a xlink:href="class_system_1_1_runtime_1_1_remoting_1_1_messaging_1_1_method_call.html" target="_top" xlink:title="Implements the T:System.Runtime.Remoting.Messaging.IMethodCallMessage interface to create a request m...">
<polygon fill="none" stroke="black" points="255.013,-67.5 255.013,-86.5 320.013,-86.5 320.013,-67.5 255.013,-67.5"/>
<text text-anchor="middle" x="287.513" y="-74.5" font-family="Helvetica,sans-Serif" font-size="10.00">MethodCall</text>
</a>
</g>
</g>
<!-- Node1&#45;&gt;Node0 -->
<g id="edge1" class="edge"><title>Node1&#45;&gt;Node0</title>
<path fill="none" stroke="midnightblue" d="M264.217,-62.2762C248.054,-52.7541 226.59,-40.1096 210.317,-30.523"/>
<polygon fill="midnightblue" stroke="midnightblue" points="262.65,-65.4149 273.042,-67.4751 266.203,-59.3836 262.65,-65.4149"/>
</g>
<!-- Node2 -->
<g id="node3" class="node"><title>Node2</title>
<g id="a_node3"><a xlink:href="interface_system_1_1_runtime_1_1_remoting_1_1_messaging_1_1_i_method_call_message.html" target="_top" xlink:title="Defines the method call message interface.">
<polygon fill="none" stroke="black" points="13.0131,-123.5 13.0131,-142.5 120.013,-142.5 120.013,-123.5 13.0131,-123.5"/>
<text text-anchor="middle" x="66.5131" y="-130.5" font-family="Helvetica,sans-Serif" font-size="10.00">IMethodCallMessage</text>
</a>
</g>
</g>
<!-- Node2&#45;&gt;Node0 -->
<g id="edge15" class="edge"><title>Node2&#45;&gt;Node0</title>
<path fill="none" stroke="midnightblue" d="M43.9278,-117.423C26.2914,-104.199 6.74467,-84.2005 19.5131,-67 41.9905,-36.7203 82.1031,-23.9484 117.382,-18.8167"/>
<polygon fill="midnightblue" stroke="midnightblue" points="42.096,-120.414 52.2822,-123.328 46.1365,-114.698 42.096,-120.414"/>
</g>
<!-- Node2&#45;&gt;Node1 -->
<g id="edge2" class="edge"><title>Node2&#45;&gt;Node1</title>
<path fill="none" stroke="midnightblue" d="M111.347,-121.045C153.893,-110.649 216.819,-95.2737 254.82,-85.9883"/>
<polygon fill="midnightblue" stroke="midnightblue" points="110.415,-117.67 101.531,-123.444 112.076,-124.47 110.415,-117.67"/>
</g>
<!-- Node8 -->
<g id="node9" class="node"><title>Node8</title>
<g id="a_node9"><a xlink:href="interface_system_1_1_runtime_1_1_remoting_1_1_activation_1_1_i_construction_call_message.html" target="_top" xlink:title="Represents the construction call request of an object.">
<polygon fill="none" stroke="black" points="28.5131,-67.5 28.5131,-86.5 158.513,-86.5 158.513,-67.5 28.5131,-67.5"/>
<text text-anchor="middle" x="93.5131" y="-74.5" font-family="Helvetica,sans-Serif" font-size="10.00">IConstructionCallMessage</text>
</a>
</g>
</g>
<!-- Node2&#45;&gt;Node8 -->
<g id="edge12" class="edge"><title>Node2&#45;&gt;Node8</title>
<path fill="none" stroke="midnightblue" d="M75.5217,-113.983C80.1046,-104.817 85.467,-94.0922 89.1375,-86.7511"/>
<polygon fill="midnightblue" stroke="midnightblue" points="72.3133,-112.573 70.9716,-123.083 78.5742,-115.704 72.3133,-112.573"/>
</g>
<!-- Node3 -->
<g id="node4" class="node"><title>Node3</title>
<g id="a_node4"><a xlink:href="interface_system_1_1_runtime_1_1_remoting_1_1_messaging_1_1_i_method_message.html" target="_top" xlink:title="Defines the method message interface.">
<polygon fill="none" stroke="black" points="122.013,-179.5 122.013,-198.5 213.013,-198.5 213.013,-179.5 122.013,-179.5"/>
<text text-anchor="middle" x="167.513" y="-186.5" font-family="Helvetica,sans-Serif" font-size="10.00">IMethodMessage</text>
</a>
</g>
</g>
<!-- Node3&#45;&gt;Node0 -->
<g id="edge16" class="edge"><title>Node3&#45;&gt;Node0</title>
<path fill="none" stroke="midnightblue" d="M169.607,-169.095C173.445,-134.454 181.524,-61.534 184.937,-30.7228"/>
<polygon fill="midnightblue" stroke="midnightblue" points="166.104,-168.935 168.481,-179.26 173.061,-169.706 166.104,-168.935"/>
</g>
<!-- Node3&#45;&gt;Node1 -->
<g id="edge6" class="edge"><title>Node3&#45;&gt;Node1</title>
<path fill="none" stroke="midnightblue" d="M184.409,-172.512C210.051,-149.007 257.939,-105.11 278.141,-86.5914"/>
<polygon fill="midnightblue" stroke="midnightblue" points="181.936,-170.031 176.929,-179.368 186.666,-175.191 181.936,-170.031"/>
</g>
<!-- Node3&#45;&gt;Node2 -->
<g id="edge3" class="edge"><title>Node3&#45;&gt;Node2</title>
<path fill="none" stroke="midnightblue" d="M142.431,-174.59C123.756,-164.605 98.8091,-151.267 82.7002,-142.655"/>
<polygon fill="midnightblue" stroke="midnightblue" points="140.817,-177.696 151.286,-179.324 144.117,-171.522 140.817,-177.696"/>
</g>
<!-- Node3&#45;&gt;Node8 -->
<g id="edge13" class="edge"><title>Node3&#45;&gt;Node8</title>
<path fill="none" stroke="midnightblue" d="M157.712,-170.383C150.14,-157.1 139.183,-138.572 128.513,-123 119.562,-109.937 108.128,-95.6244 100.811,-86.7272"/>
<polygon fill="midnightblue" stroke="midnightblue" points="154.824,-172.388 162.782,-179.382 160.923,-168.951 154.824,-172.388"/>
</g>
<!-- Node4 -->
<g id="node5" class="node"><title>Node4</title>
<g id="a_node5"><a xlink:href="interface_system_1_1_runtime_1_1_remoting_1_1_messaging_1_1_i_message.html" target="_top" xlink:title="Contains communication data sent between cooperating message sinks.">
<polygon fill="none" stroke="black" points="138.013,-235.5 138.013,-254.5 197.013,-254.5 197.013,-235.5 138.013,-235.5"/>
<text text-anchor="middle" x="167.513" y="-242.5" font-family="Helvetica,sans-Serif" font-size="10.00">IMessage</text>
</a>
</g>
</g>
<!-- Node4&#45;&gt;Node0 -->
<g id="edge17" class="edge"><title>Node4&#45;&gt;Node0</title>
<path fill="none" stroke="midnightblue" d="M207.24,-244.153C271.909,-243.222 403.11,-236.37 506.513,-199 550.465,-183.116 572.92,-183.91 595.513,-143 630.098,-80.377 381.408,-40.4058 255.907,-24.4293"/>
<polygon fill="midnightblue" stroke="midnightblue" points="207.038,-240.655 197.075,-244.258 207.11,-247.655 207.038,-240.655"/>
</g>
<!-- Node4&#45;&gt;Node1 -->
<g id="edge7" class="edge"><title>Node4&#45;&gt;Node1</title>
<path fill="none" stroke="midnightblue" d="M207.058,-240.387C301.035,-230.9 533.345,-201.852 579.513,-143 584.999,-136.006 585.3,-129.747 579.513,-123 546.37,-84.3582 389.065,-78.586 320.073,-77.9425"/>
<polygon fill="midnightblue" stroke="midnightblue" points="206.697,-236.905 197.09,-241.372 207.385,-243.871 206.697,-236.905"/>
</g>
<!-- Node4&#45;&gt;Node2 -->
<g id="edge5" class="edge"><title>Node4&#45;&gt;Node2</title>
<path fill="none" stroke="midnightblue" d="M146.807,-229.188C135.983,-220.937 122.87,-210.107 112.513,-199 95.3537,-180.598 79.3429,-155.508 71.5205,-142.541"/>
<polygon fill="midnightblue" stroke="midnightblue" points="144.788,-232.048 154.901,-235.209 148.966,-226.432 144.788,-232.048"/>
</g>
<!-- Node4&#45;&gt;Node3 -->
<g id="edge4" class="edge"><title>Node4&#45;&gt;Node3</title>
<path fill="none" stroke="midnightblue" d="M167.513,-224.805C167.513,-215.91 167.513,-205.78 167.513,-198.751"/>
<polygon fill="midnightblue" stroke="midnightblue" points="164.013,-225.083 167.513,-235.083 171.013,-225.083 164.013,-225.083"/>
</g>
<!-- Node4&#45;&gt;Node8 -->
<g id="edge14" class="edge"><title>Node4&#45;&gt;Node8</title>
<path fill="none" stroke="midnightblue" d="M128.24,-232.366C88.6879,-218.307 29.8611,-190.427 3.51306,-143 -11.791,-115.453 29.1647,-96.5792 60.7596,-86.5366"/>
<polygon fill="midnightblue" stroke="midnightblue" points="127.255,-235.728 137.849,-235.647 129.516,-229.104 127.255,-235.728"/>
</g>
<!-- Node5 -->
<g id="node6" class="node"><title>Node5</title>
<g id="a_node6"><a xlink:href="interface_system_1_1_runtime_1_1_serialization_1_1_i_serializable.html" target="_top" xlink:title="Allows an object to control its own serialization and deserialization.">
<polygon fill="none" stroke="black" points="253.013,-123.5 253.013,-142.5 322.013,-142.5 322.013,-123.5 253.013,-123.5"/>
<text text-anchor="middle" x="287.513" y="-130.5" font-family="Helvetica,sans-Serif" font-size="10.00">ISerializable</text>
</a>
</g>
</g>
<!-- Node5&#45;&gt;Node1 -->
<g id="edge8" class="edge"><title>Node5&#45;&gt;Node1</title>
<path fill="none" stroke="midnightblue" d="M287.513,-112.805C287.513,-103.91 287.513,-93.7798 287.513,-86.7511"/>
<polygon fill="midnightblue" stroke="midnightblue" points="284.013,-113.083 287.513,-123.083 291.013,-113.083 284.013,-113.083"/>
</g>
<!-- Node6 -->
<g id="node7" class="node"><title>Node6</title>
<g id="a_node7"><a xlink:href="interface_system_1_1_runtime_1_1_remoting_1_1_messaging_1_1_i_internal_message.html" target="_top" xlink:title=" ">
<polygon fill="none" stroke="black" points="340.513,-123.5 340.513,-142.5 430.513,-142.5 430.513,-123.5 340.513,-123.5"/>
<text text-anchor="middle" x="385.513" y="-130.5" font-family="Helvetica,sans-Serif" font-size="10.00">IInternalMessage</text>
</a>
</g>
</g>
<!-- Node6&#45;&gt;Node1 -->
<g id="edge9" class="edge"><title>Node6&#45;&gt;Node1</title>
<path fill="none" stroke="midnightblue" d="M360.927,-118.453C342.835,-108.483 318.778,-95.2279 303.219,-86.6545"/>
<polygon fill="midnightblue" stroke="midnightblue" points="359.32,-121.563 369.768,-123.324 362.698,-115.432 359.32,-121.563"/>
</g>
<!-- Node7 -->
<g id="node8" class="node"><title>Node7</title>
<g id="a_node8"><a xlink:href="interface_system_1_1_runtime_1_1_remoting_1_1_messaging_1_1_i_serialization_root_object.html" target="_top" xlink:title=" ">
<polygon fill="none" stroke="black" points="449.013,-123.5 449.013,-142.5 570.013,-142.5 570.013,-123.5 449.013,-123.5"/>
<text text-anchor="middle" x="509.513" y="-130.5" font-family="Helvetica,sans-Serif" font-size="10.00">ISerializationRootObject</text>
</a>
</g>
</g>
<!-- Node7&#45;&gt;Node1 -->
<g id="edge10" class="edge"><title>Node7&#45;&gt;Node1</title>
<path fill="none" stroke="midnightblue" d="M464.476,-121.045C421.738,-110.649 358.527,-95.2737 320.354,-85.9883"/>
<polygon fill="midnightblue" stroke="midnightblue" points="463.793,-124.481 474.336,-123.444 465.447,-117.679 463.793,-124.481"/>
</g>
<!-- Node8&#45;&gt;Node0 -->
<g id="edge11" class="edge"><title>Node8&#45;&gt;Node0</title>
<path fill="none" stroke="midnightblue" d="M115.382,-62.0084C130.216,-52.518 149.751,-40.02 164.595,-30.523"/>
<polygon fill="midnightblue" stroke="midnightblue" points="113.375,-59.1376 106.838,-67.4751 117.147,-65.034 113.375,-59.1376"/>
</g>
</g>
</svg>
        <g id="navigator" transform="translate(0 0)" fill="#404254">
                <rect fill="#f2f5e9" fill-opacity="0.5" stroke="#606060" stroke-width=".5" x="0" y="0" width="60" height="60"/>
                <use id="zoomplus" xlink:href="#zoomPlus" x="17" y="9" onmousedown="handleZoom(evt,'in')"/>
                <use id="zoomminus" xlink:href="#zoomMin" x="42" y="9" onmousedown="handleZoom(evt,'out')"/>
                <use id="reset" xlink:href="#resetDef" x="30" y="36" onmousedown="handleReset()"/>
                <g id="arrowUp" xlink:href="#dirArrow" transform="translate(30 24)" onmousedown="handlePan(0,-1)">
                  <use xlink:href="#rim" fill="#404040">
                        <set attributeName="fill" to="#808080" begin="arrowUp.mouseover" end="arrowUp.mouseout"/>
                  </use>
                  <path fill="none" stroke="white" stroke-width="1.5" d="M0,-3.0v7 M-2.5,-0.5L0,-3.0L2.5,-0.5"/>
                </g>
                <g id="arrowRight" xlink:href="#dirArrow" transform="rotate(90) translate(36 -43)" onmousedown="handlePan(1,0)">
                  <use xlink:href="#rim" fill="#404040">
                        <set attributeName="fill" to="#808080" begin="arrowRight.mouseover" end="arrowRight.mouseout"/>
                  </use>
                  <path fill="none" stroke="white" stroke-width="1.5" d="M0,-3.0v7 M-2.5,-0.5L0,-3.0L2.5,-0.5"/>
                </g>
                <g id="arrowDown" xlink:href="#dirArrow" transform="rotate(180) translate(-30 -48)" onmousedown="handlePan(0,1)">
                  <use xlink:href="#rim" fill="#404040">
                        <set attributeName="fill" to="#808080" begin="arrowDown.mouseover" end="arrowDown.mouseout"/>
                  </use>
                  <path fill="none" stroke="white" stroke-width="1.5" d="M0,-3.0v7 M-2.5,-0.5L0,-3.0L2.5,-0.5"/>
                </g>
                <g id="arrowLeft" xlink:href="#dirArrow" transform="rotate(270) translate(-36 17)" onmousedown="handlePan(-1,0)">
                  <use xlink:href="#rim" fill="#404040">
                        <set attributeName="fill" to="#808080" begin="arrowLeft.mouseover" end="arrowLeft.mouseout"/>
                  </use>
                  <path fill="none" stroke="white" stroke-width="1.5" d="M0,-3.0v7 M-2.5,-0.5L0,-3.0L2.5,-0.5"/>
                </g>
        </g>
        <svg viewBox="0 0 15 15" width="100%" height="30px" preserveAspectRatio="xMaxYMin meet">
         <g id="arrow_out" transform="scale(0.3 0.3)">
          <a xlink:href="class_system_1_1_runtime_1_1_remoting_1_1_messaging_1_1_construction_call__inherit__graph_org.svg" target="_base">
           <rect id="button" ry="5" rx="5" y="6" x="6" height="38" width="38"
                fill="#f2f5e9" fill-opacity="0.5" stroke="#606060" stroke-width="1.0"/>
           <path id="arrow"
             d="M 11.500037,31.436501 C 11.940474,20.09759 22.043105,11.32322 32.158766,21.979434 L 37.068811,17.246167 C 37.068811,17.246167 37.088388,32 37.088388,32 L 22.160133,31.978069 C 22.160133,31.978069 26.997745,27.140456 26.997745,27.140456 C 18.528582,18.264221 13.291696,25.230495 11.500037,31.436501 z"
             style="fill:#404040;"/>
          </a>
         </g>
        </svg>
</svg>
