<?xml version="1.0" encoding="UTF-8" standalone="no"?>
<!DOCTYPE svg PUBLIC "-//W3C//DTD SVG 1.1//EN"
 "http://www.w3.org/Graphics/SVG/1.1/DTD/svg11.dtd">
<!-- Generated by graphviz version 2.38.0 (20140413.2041)
 -->
<!-- Title: System.Security.Permissions.PrincipalPermission Pages: 1 -->
<svg width="262pt" height="151pt"
 viewBox="0.00 0.00 261.50 151.00" xmlns="http://www.w3.org/2000/svg" xmlns:xlink="http://www.w3.org/1999/xlink">
<g id="graph0" class="graph" transform="scale(1 1) rotate(0) translate(4 147)">
<title>System.Security.Permissions.PrincipalPermission</title>
<!-- Node4 -->
<g id="node1" class="node"><title>Node4</title>
<g id="a_node1"><a xlink:title="Allows checks against the active principal (see T:System.Security.Principal.IPrincipal) using the lan...">
<polygon fill="#bfbfbf" stroke="black" points="7,-0.5 7,-30.5 156,-30.5 156,-0.5 7,-0.5"/>
<text text-anchor="start" x="15" y="-18.5" font-family="Helvetica,sans-Serif" font-size="10.00">System.Security.Permissions.</text>
<text text-anchor="middle" x="81.5" y="-7.5" font-family="Helvetica,sans-Serif" font-size="10.00">PrincipalPermission</text>
</a>
</g>
</g>
<!-- Node5 -->
<g id="node2" class="node"><title>Node5</title>
<g id="a_node2"><a xlink:href="interface_system_1_1_security_1_1_i_permission.html" target="_top" xlink:title="Defines methods implemented by permission types.">
<polygon fill="none" stroke="black" points="47.5,-67.5 47.5,-86.5 115.5,-86.5 115.5,-67.5 47.5,-67.5"/>
<text text-anchor="middle" x="81.5" y="-74.5" font-family="Helvetica,sans-Serif" font-size="10.00">IPermission</text>
</a>
</g>
</g>
<!-- Node5&#45;&gt;Node4 -->
<g id="edge1" class="edge"><title>Node5&#45;&gt;Node4</title>
<path fill="none" stroke="midnightblue" d="M81.5,-57.2349C81.5,-48.5864 81.5,-38.4969 81.5,-30.523"/>
<polygon fill="midnightblue" stroke="midnightblue" points="78.0001,-57.4751 81.5,-67.4751 85.0001,-57.4751 78.0001,-57.4751"/>
</g>
<!-- Node6 -->
<g id="node3" class="node"><title>Node6</title>
<g id="a_node3"><a xlink:href="interface_system_1_1_security_1_1_i_security_encodable.html" target="_top" xlink:title="Defines the methods that convert permission object state to and from XML element representation.">
<polygon fill="none" stroke="black" points="0,-123.5 0,-142.5 101,-142.5 101,-123.5 0,-123.5"/>
<text text-anchor="middle" x="50.5" y="-130.5" font-family="Helvetica,sans-Serif" font-size="10.00">ISecurityEncodable</text>
</a>
</g>
</g>
<!-- Node6&#45;&gt;Node4 -->
<g id="edge3" class="edge"><title>Node6&#45;&gt;Node4</title>
<path fill="none" stroke="midnightblue" d="M42.1353,-113.917C37.1811,-100.627 32.8702,-82.2955 38.5,-67 43.7502,-52.7356 55.0185,-39.755 64.7029,-30.5267"/>
<polygon fill="midnightblue" stroke="midnightblue" points="38.9867,-115.46 46.0687,-123.34 45.4466,-112.764 38.9867,-115.46"/>
</g>
<!-- Node6&#45;&gt;Node5 -->
<g id="edge2" class="edge"><title>Node6&#45;&gt;Node5</title>
<path fill="none" stroke="midnightblue" d="M60.6756,-114.275C65.9739,-105.045 72.217,-94.1703 76.4762,-86.7511"/>
<polygon fill="midnightblue" stroke="midnightblue" points="57.5624,-112.668 55.619,-123.083 63.6331,-116.153 57.5624,-112.668"/>
</g>
<!-- Node7 -->
<g id="node4" class="node"><title>Node7</title>
<g id="a_node4"><a xlink:href="interface_system_1_1_security_1_1_permissions_1_1_i_unrestricted_permission.html" target="_top" xlink:title="Allows a permission to expose an unrestricted state.">
<polygon fill="none" stroke="black" points="133.5,-67.5 133.5,-86.5 253.5,-86.5 253.5,-67.5 133.5,-67.5"/>
<text text-anchor="middle" x="193.5" y="-74.5" font-family="Helvetica,sans-Serif" font-size="10.00">IUnrestrictedPermission</text>
</a>
</g>
</g>
<!-- Node7&#45;&gt;Node4 -->
<g id="edge4" class="edge"><title>Node7&#45;&gt;Node4</title>
<path fill="none" stroke="midnightblue" d="M168.168,-62.5423C150.188,-52.9907 126.11,-40.1992 107.896,-30.523"/>
<polygon fill="midnightblue" stroke="midnightblue" points="166.98,-65.8744 177.453,-67.4751 170.264,-59.6926 166.98,-65.8744"/>
</g>
</g>
</svg>
