<?xml version="1.0" encoding="UTF-8" standalone="no"?>
<!DOCTYPE svg PUBLIC "-//W3C//DTD SVG 1.1//EN"
 "http://www.w3.org/Graphics/SVG/1.1/DTD/svg11.dtd">
<!-- Generated by graphviz version 2.38.0 (20140413.2041)
 -->
<!-- Title: System.Type Pages: 1 -->
<svg width="314pt" height="142pt"
 viewBox="0.00 0.00 314.00 142.00" xmlns="http://www.w3.org/2000/svg" xmlns:xlink="http://www.w3.org/1999/xlink">
<g id="graph0" class="graph" transform="scale(1 1) rotate(0) translate(4 138)">
<title>System.Type</title>
<!-- Node15 -->
<g id="node1" class="node"><title>Node15</title>
<g id="a_node1"><a xlink:title="Represents type declarations: class types, interface types, array types, value types,...">
<polygon fill="#bfbfbf" stroke="black" points="156,-0.5 156,-19.5 230,-19.5 230,-0.5 156,-0.5"/>
<text text-anchor="middle" x="193" y="-7.5" font-family="Helvetica,sans-Serif" font-size="10.00">System.Type</text>
</a>
</g>
</g>
<!-- Node15&#45;&gt;Node15 -->
<g id="edge6" class="edge"><title>Node15&#45;&gt;Node15</title>
<path fill="none" stroke="#9a32cd" stroke-dasharray="5,2" d="M240.186,-14.3069C244.957,-13.4522 248,-12.0166 248,-10 248,-6.77344 240.21,-5.03412 230.015,-4.78204"/>
<polygon fill="#9a32cd" stroke="#9a32cd" points="239.663,-10.8396 230.015,-15.218 240.288,-17.8117 239.663,-10.8396"/>
<text text-anchor="middle" x="277" y="-7.5" font-family="Helvetica,sans-Serif" font-size="10.00"> EmptyTypes</text>
</g>
<!-- Node16 -->
<g id="node2" class="node"><title>Node16</title>
<g id="a_node2"><a xlink:href="class_system_1_1_reflection_1_1_member_info.html" target="_top" xlink:title="Obtains information about the attributes of a member and provides access to member metadata.">
<polygon fill="none" stroke="black" points="86.5,-57.5 86.5,-76.5 153.5,-76.5 153.5,-57.5 86.5,-57.5"/>
<text text-anchor="middle" x="120" y="-64.5" font-family="Helvetica,sans-Serif" font-size="10.00">MemberInfo</text>
</a>
</g>
</g>
<!-- Node16&#45;&gt;Node15 -->
<g id="edge1" class="edge"><title>Node16&#45;&gt;Node15</title>
<path fill="none" stroke="midnightblue" d="M139.528,-51.287C152.904,-41.2095 170.191,-28.1851 181.433,-19.7149"/>
<polygon fill="midnightblue" stroke="midnightblue" points="137.287,-48.5933 131.406,-57.4063 141.499,-54.1841 137.287,-48.5933"/>
</g>
<!-- Node17 -->
<g id="node3" class="node"><title>Node17</title>
<g id="a_node3"><a xlink:href="interface_system_1_1_reflection_1_1_i_custom_attribute_provider.html" target="_top" xlink:title="Provides custom attributes for reflection objects that support them.">
<polygon fill="none" stroke="black" points="0,-114.5 0,-133.5 124,-133.5 124,-114.5 0,-114.5"/>
<text text-anchor="middle" x="62" y="-121.5" font-family="Helvetica,sans-Serif" font-size="10.00">ICustomAttributeProvider</text>
</a>
</g>
</g>
<!-- Node17&#45;&gt;Node16 -->
<g id="edge2" class="edge"><title>Node17&#45;&gt;Node16</title>
<path fill="none" stroke="midnightblue" d="M78.4339,-107.416C88.9236,-97.469 102.133,-84.9431 110.81,-76.7149"/>
<polygon fill="midnightblue" stroke="midnightblue" points="75.9104,-104.986 71.0625,-114.406 80.7271,-110.065 75.9104,-104.986"/>
</g>
<!-- Node18 -->
<g id="node4" class="node"><title>Node18</title>
<g id="a_node4"><a xlink:href="interface_system_1_1_runtime_1_1_interop_services_1_1___member_info.html" target="_top" xlink:title="Exposes the public members of the T:System.Reflection.MemberInfo class to unmanaged code.">
<polygon fill="none" stroke="black" points="142,-114.5 142,-133.5 214,-133.5 214,-114.5 142,-114.5"/>
<text text-anchor="middle" x="178" y="-121.5" font-family="Helvetica,sans-Serif" font-size="10.00">_MemberInfo</text>
</a>
</g>
</g>
<!-- Node18&#45;&gt;Node16 -->
<g id="edge3" class="edge"><title>Node18&#45;&gt;Node16</title>
<path fill="none" stroke="midnightblue" d="M161.566,-107.416C151.076,-97.469 137.867,-84.9431 129.19,-76.7149"/>
<polygon fill="midnightblue" stroke="midnightblue" points="159.273,-110.065 168.938,-114.406 164.09,-104.986 159.273,-110.065"/>
</g>
<!-- Node19 -->
<g id="node5" class="node"><title>Node19</title>
<g id="a_node5"><a xlink:href="interface_system_1_1_runtime_1_1_interop_services_1_1___type.html" target="_top" xlink:title="Exposes the public members of the T:System.Type class to the unmanaged code.">
<polygon fill="none" stroke="black" points="171.5,-57.5 171.5,-76.5 214.5,-76.5 214.5,-57.5 171.5,-57.5"/>
<text text-anchor="middle" x="193" y="-64.5" font-family="Helvetica,sans-Serif" font-size="10.00">_Type</text>
</a>
</g>
</g>
<!-- Node19&#45;&gt;Node15 -->
<g id="edge4" class="edge"><title>Node19&#45;&gt;Node15</title>
<path fill="none" stroke="midnightblue" d="M193,-47.1166C193,-37.8173 193,-27.0557 193,-19.7149"/>
<polygon fill="midnightblue" stroke="midnightblue" points="189.5,-47.4062 193,-57.4063 196.5,-47.4063 189.5,-47.4062"/>
</g>
<!-- Node20 -->
<g id="node6" class="node"><title>Node20</title>
<g id="a_node6"><a xlink:href="interface_system_1_1_reflection_1_1_i_reflect.html" target="_top" xlink:title="Interoperates with the IDispatch interface.">
<polygon fill="none" stroke="black" points="232.5,-57.5 232.5,-76.5 281.5,-76.5 281.5,-57.5 232.5,-57.5"/>
<text text-anchor="middle" x="257" y="-64.5" font-family="Helvetica,sans-Serif" font-size="10.00">IReflect</text>
</a>
</g>
</g>
<!-- Node20&#45;&gt;Node15 -->
<g id="edge5" class="edge"><title>Node20&#45;&gt;Node15</title>
<path fill="none" stroke="midnightblue" d="M239.206,-50.708C227.577,-40.715 212.809,-28.0237 203.141,-19.7149"/>
<polygon fill="midnightblue" stroke="midnightblue" points="237.135,-53.543 247,-57.4063 241.697,-48.2341 237.135,-53.543"/>
</g>
</g>
</svg>
