<?xml version="1.0" encoding="UTF-8" standalone="no"?>
<!DOCTYPE svg PUBLIC "-//W3C//DTD SVG 1.1//EN"
 "http://www.w3.org/Graphics/SVG/1.1/DTD/svg11.dtd">
<!-- Generated by graphviz version 2.38.0 (20140413.2041)
 -->
<!-- Title: System.Runtime.Serialization.SerializationInfo Pages: 1 -->
<svg width="196pt" height="106pt"
 viewBox="0.00 0.00 195.50 106.00" xmlns="http://www.w3.org/2000/svg" xmlns:xlink="http://www.w3.org/1999/xlink">
<g id="graph0" class="graph" transform="scale(1 1) rotate(0) translate(4 102)">
<title>System.Runtime.Serialization.SerializationInfo</title>
<!-- Node1 -->
<g id="node1" class="node"><title>Node1</title>
<g id="a_node1"><a xlink:title="Stores all the data needed to serialize or deserialize an object. This class cannot be inherited.">
<polygon fill="#bfbfbf" stroke="black" points="0,-0.5 0,-30.5 149,-30.5 149,-0.5 0,-0.5"/>
<text text-anchor="start" x="8" y="-18.5" font-family="Helvetica,sans-Serif" font-size="10.00">System.Runtime.Serialization.</text>
<text text-anchor="middle" x="74.5" y="-7.5" font-family="Helvetica,sans-Serif" font-size="10.00">SerializationInfo</text>
</a>
</g>
</g>
<!-- Node2 -->
<g id="node2" class="node"><title>Node2</title>
<g id="a_node2"><a xlink:href="class_system_1_1_type.html" target="_top" xlink:title="Represents type declarations: class types, interface types, array types, value types,...">
<polygon fill="none" stroke="red" points="37.5,-78.5 37.5,-97.5 111.5,-97.5 111.5,-78.5 37.5,-78.5"/>
<text text-anchor="middle" x="74.5" y="-85.5" font-family="Helvetica,sans-Serif" font-size="10.00">System.Type</text>
</a>
</g>
</g>
<!-- Node2&#45;&gt;Node1 -->
<g id="edge1" class="edge"><title>Node2&#45;&gt;Node1</title>
<path fill="none" stroke="#9a32cd" stroke-dasharray="5,2" d="M74.5,-68.2362C74.5,-56.4079 74.5,-41.3829 74.5,-30.5762"/>
<polygon fill="#9a32cd" stroke="#9a32cd" points="71.0001,-68.3553 74.5,-78.3553 78.0001,-68.3554 71.0001,-68.3553"/>
<text text-anchor="middle" x="101" y="-52" font-family="Helvetica,sans-Serif" font-size="10.00"> ObjectType</text>
</g>
<!-- Node2&#45;&gt;Node2 -->
<g id="edge2" class="edge"><title>Node2&#45;&gt;Node2</title>
<path fill="none" stroke="#9a32cd" stroke-dasharray="5,2" d="M121.686,-92.9222C126.457,-91.9454 129.5,-90.3047 129.5,-88 129.5,-84.3125 121.71,-82.3247 111.515,-82.0366"/>
<polygon fill="#9a32cd" stroke="#9a32cd" points="121.107,-89.4631 111.515,-93.9634 121.82,-96.4267 121.107,-89.4631"/>
<text text-anchor="middle" x="158.5" y="-85.5" font-family="Helvetica,sans-Serif" font-size="10.00"> EmptyTypes</text>
</g>
</g>
</svg>
