<?xml version="1.0" encoding="UTF-8" standalone="no"?>
<!DOCTYPE svg PUBLIC "-//W3C//DTD SVG 1.1//EN"
 "http://www.w3.org/Graphics/SVG/1.1/DTD/svg11.dtd">
<!-- Generated by graphviz version 2.38.0 (20140413.2041)
 -->
<!-- Title: System.Deployment.Internal.Isolation.Manifest.COMServerEntry Pages: 1 -->
<svg width="432pt" height="263pt"
 viewBox="0.00 0.00 431.50 263.00" xmlns="http://www.w3.org/2000/svg" xmlns:xlink="http://www.w3.org/1999/xlink">
<g id="graph0" class="graph" transform="scale(1 1) rotate(0) translate(4 259)">
<title>System.Deployment.Internal.Isolation.Manifest.COMServerEntry</title>
<!-- Node1 -->
<g id="node1" class="node"><title>Node1</title>
<g id="a_node1"><a xlink:title=" ">
<polygon fill="#bfbfbf" stroke="black" points="73.5,-0.5 73.5,-30.5 241.5,-30.5 241.5,-0.5 73.5,-0.5"/>
<text text-anchor="start" x="81.5" y="-18.5" font-family="Helvetica,sans-Serif" font-size="10.00">System.Deployment.Internal.</text>
<text text-anchor="middle" x="157.5" y="-7.5" font-family="Helvetica,sans-Serif" font-size="10.00">Isolation.Manifest.COMServerEntry</text>
</a>
</g>
</g>
<!-- Node2 -->
<g id="node2" class="node"><title>Node2</title>
<g id="a_node2"><a xlink:href="struct_system_1_1_guid.html" target="_top" xlink:title="Represents a globally unique identifier (GUID).To browse the .NET Framework source code for this type...">
<polygon fill="none" stroke="black" points="120.5,-111.5 120.5,-130.5 194.5,-130.5 194.5,-111.5 120.5,-111.5"/>
<text text-anchor="middle" x="157.5" y="-118.5" font-family="Helvetica,sans-Serif" font-size="10.00">System.Guid</text>
</a>
</g>
</g>
<!-- Node2&#45;&gt;Node1 -->
<g id="edge1" class="edge"><title>Node2&#45;&gt;Node1</title>
<path fill="none" stroke="#9a32cd" stroke-dasharray="5,2" d="M157.5,-100.996C157.5,-80.7355 157.5,-49.1085 157.5,-30.8403"/>
<polygon fill="#9a32cd" stroke="#9a32cd" points="154,-101.176 157.5,-111.176 161,-101.176 154,-101.176"/>
<text text-anchor="middle" x="196.5" y="-85" font-family="Helvetica,sans-Serif" font-size="10.00"> Clsid</text>
<text text-anchor="middle" x="196.5" y="-74" font-family="Helvetica,sans-Serif" font-size="10.00">TypeLibrary</text>
<text text-anchor="middle" x="196.5" y="-63" font-family="Helvetica,sans-Serif" font-size="10.00">ConfiguredGuid</text>
<text text-anchor="middle" x="196.5" y="-52" font-family="Helvetica,sans-Serif" font-size="10.00">ImplementedClsid</text>
</g>
<!-- Node2&#45;&gt;Node2 -->
<g id="edge8" class="edge"><title>Node2&#45;&gt;Node2</title>
<path fill="none" stroke="#9a32cd" stroke-dasharray="5,2" d="M204.686,-125.307C209.457,-124.452 212.5,-123.017 212.5,-121 212.5,-117.773 204.71,-116.034 194.515,-115.782"/>
<polygon fill="#9a32cd" stroke="#9a32cd" points="204.163,-121.84 194.515,-126.218 204.788,-128.812 204.163,-121.84"/>
<text text-anchor="middle" x="228.5" y="-118.5" font-family="Helvetica,sans-Serif" font-size="10.00"> Empty</text>
</g>
<!-- Node3 -->
<g id="node3" class="node"><title>Node3</title>
<g id="a_node3"><a xlink:href="interface_system_1_1_i_formattable.html" target="_top" xlink:title="Provides functionality to format the value of an object into a string representation.">
<polygon fill="none" stroke="black" points="0,-168.5 0,-187.5 71,-187.5 71,-168.5 0,-168.5"/>
<text text-anchor="middle" x="35.5" y="-175.5" font-family="Helvetica,sans-Serif" font-size="10.00">IFormattable</text>
</a>
</g>
</g>
<!-- Node3&#45;&gt;Node2 -->
<g id="edge2" class="edge"><title>Node3&#45;&gt;Node2</title>
<path fill="none" stroke="midnightblue" d="M63.8151,-164.235C86.7994,-153.873 118.569,-139.551 138.571,-130.533"/>
<polygon fill="midnightblue" stroke="midnightblue" points="62.2405,-161.106 54.5625,-168.406 65.1174,-167.487 62.2405,-161.106"/>
</g>
<!-- Node4 -->
<g id="node4" class="node"><title>Node4</title>
<g id="a_node4"><a xlink:href="interface_system_1_1_i_comparable.html" target="_top" xlink:title="Defines a generalized type&#45;specific comparison method that a value type or class implements to order ...">
<polygon fill="none" stroke="black" points="89,-168.5 89,-187.5 160,-187.5 160,-168.5 89,-168.5"/>
<text text-anchor="middle" x="124.5" y="-175.5" font-family="Helvetica,sans-Serif" font-size="10.00">IComparable</text>
</a>
</g>
</g>
<!-- Node4&#45;&gt;Node2 -->
<g id="edge3" class="edge"><title>Node4&#45;&gt;Node2</title>
<path fill="none" stroke="midnightblue" d="M134.919,-159.635C140.694,-150.01 147.625,-138.459 152.271,-130.715"/>
<polygon fill="midnightblue" stroke="midnightblue" points="131.8,-158.031 129.656,-168.406 137.802,-161.632 131.8,-158.031"/>
</g>
<!-- Node5 -->
<g id="node5" class="node"><title>Node5</title>
<g id="a_node5"><a xlink:href="interface_system_1_1_i_comparable.html" target="_top" xlink:title=" ">
<polygon fill="none" stroke="black" points="178,-168.5 178,-187.5 287,-187.5 287,-168.5 178,-168.5"/>
<text text-anchor="middle" x="232.5" y="-175.5" font-family="Helvetica,sans-Serif" font-size="10.00">IComparable&lt; Guid &gt;</text>
</a>
</g>
</g>
<!-- Node5&#45;&gt;Node2 -->
<g id="edge4" class="edge"><title>Node5&#45;&gt;Node2</title>
<path fill="none" stroke="midnightblue" d="M212.437,-162.287C198.695,-152.21 180.934,-139.185 169.384,-130.715"/>
<polygon fill="midnightblue" stroke="midnightblue" points="210.647,-165.315 220.781,-168.406 214.787,-159.67 210.647,-165.315"/>
</g>
<!-- Node6 -->
<g id="node6" class="node"><title>Node6</title>
<g id="a_node6"><a xlink:href="interface_system_1_1_i_comparable.html" target="_top" xlink:title="Defines a generalized type&#45;specific comparison method that a value type or class implements to order ...">
<polygon fill="none" stroke="black" points="176,-235.5 176,-254.5 283,-254.5 283,-235.5 176,-235.5"/>
<text text-anchor="middle" x="229.5" y="-242.5" font-family="Helvetica,sans-Serif" font-size="10.00">System.IComparable</text>
</a>
</g>
</g>
<!-- Node6&#45;&gt;Node5 -->
<g id="edge5" class="edge"><title>Node6&#45;&gt;Node5</title>
<path fill="none" stroke="orange" stroke-dasharray="5,2" d="M230.375,-225.037C230.946,-212.67 231.664,-197.12 232.102,-187.627"/>
<polygon fill="orange" stroke="orange" points="226.869,-225.083 229.905,-235.234 233.862,-225.406 226.869,-225.083"/>
<text text-anchor="middle" x="252.5" y="-209" font-family="Helvetica,sans-Serif" font-size="10.00"> &lt; Guid &gt;</text>
</g>
<!-- Node7 -->
<g id="node7" class="node"><title>Node7</title>
<g id="a_node7"><a xlink:href="interface_system_1_1_i_equatable.html" target="_top" xlink:title=" ">
<polygon fill="none" stroke="black" points="310,-168.5 310,-187.5 411,-187.5 411,-168.5 310,-168.5"/>
<text text-anchor="middle" x="360.5" y="-175.5" font-family="Helvetica,sans-Serif" font-size="10.00">IEquatable&lt; Guid &gt;</text>
</a>
</g>
</g>
<!-- Node7&#45;&gt;Node2 -->
<g id="edge6" class="edge"><title>Node7&#45;&gt;Node2</title>
<path fill="none" stroke="midnightblue" d="M318.91,-165.732C280.38,-155.293 223.913,-139.994 188.996,-130.533"/>
<polygon fill="midnightblue" stroke="midnightblue" points="318.214,-169.169 328.781,-168.406 320.045,-162.413 318.214,-169.169"/>
</g>
<!-- Node8 -->
<g id="node8" class="node"><title>Node8</title>
<g id="a_node8"><a xlink:href="interface_system_1_1_i_equatable.html" target="_top" xlink:title="Defines a generalized method that a value type or class implements to create a type&#45;specific method f...">
<polygon fill="none" stroke="black" points="301.5,-235.5 301.5,-254.5 423.5,-254.5 423.5,-235.5 301.5,-235.5"/>
<text text-anchor="middle" x="362.5" y="-242.5" font-family="Helvetica,sans-Serif" font-size="10.00">System.IEquatable&lt; T &gt;</text>
</a>
</g>
</g>
<!-- Node8&#45;&gt;Node7 -->
<g id="edge7" class="edge"><title>Node8&#45;&gt;Node7</title>
<path fill="none" stroke="orange" stroke-dasharray="5,2" d="M361.917,-225.037C361.536,-212.67 361.058,-197.12 360.765,-187.627"/>
<polygon fill="orange" stroke="orange" points="358.424,-225.346 362.23,-235.234 365.421,-225.131 358.424,-225.346"/>
<text text-anchor="middle" x="382.5" y="-209" font-family="Helvetica,sans-Serif" font-size="10.00"> &lt; Guid &gt;</text>
</g>
</g>
</svg>
