<?xml version="1.0" encoding="UTF-8" standalone="no"?>
<!DOCTYPE svg PUBLIC "-//W3C//DTD SVG 1.1//EN"
 "http://www.w3.org/Graphics/SVG/1.1/DTD/svg11.dtd">
<!-- Generated by graphviz version 2.38.0 (20140413.2041)
 -->
<!-- Title: System.Collections.Generic.Comparer&lt; T &gt; Pages: 1 -->
<svg width="172pt" height="95pt"
 viewBox="0.00 0.00 171.50 95.00" xmlns="http://www.w3.org/2000/svg" xmlns:xlink="http://www.w3.org/1999/xlink">
<g id="graph0" class="graph" transform="scale(1 1) rotate(0) translate(4 91)">
<title>System.Collections.Generic.Comparer&lt; T &gt;</title>
<!-- Node10 -->
<g id="node1" class="node"><title>Node10</title>
<g id="a_node1"><a xlink:title="Provides a base class for implementations of the T:System.Collections.Generic.IComparer`1 generic int...">
<polygon fill="#bfbfbf" stroke="black" points="5,-0.5 5,-30.5 146,-30.5 146,-0.5 5,-0.5"/>
<text text-anchor="start" x="13" y="-18.5" font-family="Helvetica,sans-Serif" font-size="10.00">System.Collections.Generic.</text>
<text text-anchor="middle" x="75.5" y="-7.5" font-family="Helvetica,sans-Serif" font-size="10.00">Comparer&lt; T &gt;</text>
</a>
</g>
</g>
<!-- Node11 -->
<g id="node2" class="node"><title>Node11</title>
<g id="a_node2"><a xlink:href="interface_system_1_1_collections_1_1_generic_1_1_i_comparer.html" target="_top" xlink:title="Defines a method that a type implements to compare two objects.">
<polygon fill="none" stroke="black" points="0,-67.5 0,-86.5 61,-86.5 61,-67.5 0,-67.5"/>
<text text-anchor="middle" x="30.5" y="-74.5" font-family="Helvetica,sans-Serif" font-size="10.00">IComparer</text>
</a>
</g>
</g>
<!-- Node11&#45;&gt;Node10 -->
<g id="edge1" class="edge"><title>Node11&#45;&gt;Node10</title>
<path fill="none" stroke="midnightblue" d="M43.1702,-59.2472C50.0228,-50.1866 58.3894,-39.124 64.8944,-30.523"/>
<polygon fill="midnightblue" stroke="midnightblue" points="40.188,-57.388 36.9474,-67.4751 45.7711,-61.6105 40.188,-57.388"/>
</g>
<!-- Node12 -->
<g id="node3" class="node"><title>Node12</title>
<g id="a_node3"><a xlink:href="interface_system_1_1_collections_1_1_generic_1_1_i_comparer.html" target="_top" xlink:title=" ">
<polygon fill="none" stroke="red" points="79.5,-67.5 79.5,-86.5 163.5,-86.5 163.5,-67.5 79.5,-67.5"/>
<text text-anchor="middle" x="121.5" y="-74.5" font-family="Helvetica,sans-Serif" font-size="10.00">IComparer&lt; T &gt;</text>
</a>
</g>
</g>
<!-- Node12&#45;&gt;Node10 -->
<g id="edge2" class="edge"><title>Node12&#45;&gt;Node10</title>
<path fill="none" stroke="midnightblue" d="M108.767,-59.5296C101.722,-50.4173 93.0601,-39.2136 86.3413,-30.523"/>
<polygon fill="midnightblue" stroke="midnightblue" points="106.024,-61.7044 114.909,-67.4751 111.562,-57.423 106.024,-61.7044"/>
</g>
</g>
</svg>
