<?xml version="1.0" encoding="UTF-8" standalone="no"?>
<!DOCTYPE svg PUBLIC "-//W3C//DTD SVG 1.1//EN"
 "http://www.w3.org/Graphics/SVG/1.1/DTD/svg11.dtd">
<!-- Generated by graphviz version 2.38.0 (20140413.2041)
 -->
<!-- Title: System.Security.Policy.AllMembershipCondition Pages: 1 -->
<!--zoomable 132 -->
<svg id="main" version="1.1" xmlns="http://www.w3.org/2000/svg" xmlns:xlink="http://www.w3.org/1999/xlink" xml:space="preserve" onload="init(evt)">
<style type="text/css"><![CDATA[
.edge:hover path { stroke: red; }
.edge:hover polygon { stroke: red; fill: red; }
]]></style>
<script type="text/javascript"><![CDATA[
var edges = document.getElementsByTagName('g');
if (edges && edges.length) {
  for (var i=0;i<edges.length;i++) {
    if (edges[i].id.substr(0,4)=='edge') {
      edges[i].setAttribute('class','edge');
    }
  }
}
]]></script>
        <defs>
                <circle id="rim" cx="0" cy="0" r="7"/>
                <circle id="rim2" cx="0" cy="0" r="3.5"/>
                <g id="zoomPlus">
                        <use xlink:href="#rim" fill="#404040">
                                <set attributeName="fill" to="#808080" begin="zoomplus.mouseover" end="zoomplus.mouseout"/>
                        </use>
                        <path d="M-4,0h8M0,-4v8" fill="none" stroke="white" stroke-width="1.5" pointer-events="none"/>
                </g>
                <g id="zoomMin">
                        <use xlink:href="#rim" fill="#404040">
                                <set attributeName="fill" to="#808080" begin="zoomminus.mouseover" end="zoomminus.mouseout"/>
                        </use>
                        <path d="M-4,0h8" fill="none" stroke="white" stroke-width="1.5" pointer-events="none"/>
                </g>
                <g id="dirArrow">
                        <path fill="none" stroke="white" stroke-width="1.5" d="M0,-3.0v7 M-2.5,-0.5L0,-3.0L2.5,-0.5"/>
                </g>
               <g id="resetDef">
                       <use xlink:href="#rim2" fill="#404040">
                               <set attributeName="fill" to="#808080" begin="reset.mouseover" end="reset.mouseout"/>
                       </use>
               </g>
        </defs>

<script type="text/javascript">
var viewWidth = 659;
var viewHeight = 132;
var sectionId = 'dynsection-0';
</script>
<script xlink:href="svgpan.js"/>
<svg id="graph" class="graph">
<g id="viewport">
<title>System.Security.Policy.AllMembershipCondition</title>
<!-- Node0 -->
<g id="node1" class="node"><title>Node0</title>
<g id="a_node1"><a xlink:title="Represents a membership condition that matches all code. This class cannot be inherited.">
<polygon fill="#bfbfbf" stroke="black" points="517,-58.8131 517,-88.8131 651,-88.8131 651,-58.8131 517,-58.8131"/>
<text text-anchor="start" x="525" y="-76.8131" font-family="Helvetica,sans-Serif" font-size="10.00">System.Security.Policy.All</text>
<text text-anchor="middle" x="584" y="-65.8131" font-family="Helvetica,sans-Serif" font-size="10.00">MembershipCondition</text>
</a>
</g>
</g>
<!-- Node1 -->
<g id="node2" class="node"><title>Node1</title>
<g id="a_node2"><a xlink:href="interface_system_1_1_security_1_1_policy_1_1_i_membership_condition.html" target="_top" xlink:title="Defines the test to determine whether a code assembly is a member of a code group.">
<polygon fill="none" stroke="black" points="164,-64.3131 164,-83.3131 277,-83.3131 277,-64.3131 164,-64.3131"/>
<text text-anchor="middle" x="220.5" y="-71.3131" font-family="Helvetica,sans-Serif" font-size="10.00">IMembershipCondition</text>
</a>
</g>
</g>
<!-- Node1&#45;&gt;Node0 -->
<g id="edge1" class="edge"><title>Node1&#45;&gt;Node0</title>
<path fill="none" stroke="midnightblue" d="M268.643,-85.5246C282.81,-88.5218 298.454,-91.3188 313,-92.8131 387.276,-100.443 406.65,-99.6788 481,-92.8131 492.659,-91.7365 504.973,-89.9817 516.858,-87.9625"/>
<polygon fill="midnightblue" stroke="midnightblue" points="269.144,-82.0511 258.625,-83.3224 267.641,-88.8879 269.144,-82.0511"/>
</g>
<!-- Node5 -->
<g id="node6" class="node"><title>Node5</title>
<g id="a_node6"><a xlink:href="interface_system_1_1_security_1_1_policy_1_1_i_report_match_membership_condition.html" target="_top" xlink:title=" ">
<polygon fill="none" stroke="black" points="313,-64.3131 313,-83.3131 481,-83.3131 481,-64.3131 313,-64.3131"/>
<text text-anchor="middle" x="397" y="-71.3131" font-family="Helvetica,sans-Serif" font-size="10.00">IReportMatchMembershipCondition</text>
</a>
</g>
</g>
<!-- Node1&#45;&gt;Node5 -->
<g id="edge8" class="edge"><title>Node1&#45;&gt;Node5</title>
<path fill="none" stroke="midnightblue" d="M287.238,-73.8131C295.606,-73.8131 304.256,-73.8131 312.852,-73.8131"/>
<polygon fill="midnightblue" stroke="midnightblue" points="287.193,-70.3132 277.193,-73.8131 287.193,-77.3132 287.193,-70.3132"/>
</g>
<!-- Node2 -->
<g id="node3" class="node"><title>Node2</title>
<g id="a_node3"><a xlink:href="interface_system_1_1_security_1_1_i_security_encodable.html" target="_top" xlink:title="Defines the methods that convert permission object state to and from XML element representation.">
<polygon fill="none" stroke="black" points="13.5,-102.313 13.5,-121.313 114.5,-121.313 114.5,-102.313 13.5,-102.313"/>
<text text-anchor="middle" x="64" y="-109.313" font-family="Helvetica,sans-Serif" font-size="10.00">ISecurityEncodable</text>
</a>
</g>
</g>
<!-- Node2&#45;&gt;Node0 -->
<g id="edge4" class="edge"><title>Node2&#45;&gt;Node0</title>
<path fill="none" stroke="midnightblue" d="M124.834,-117.517C206.154,-123.88 355.794,-130.644 481,-108.813 503.87,-104.825 528.516,-96.4892 547.851,-88.9526"/>
<polygon fill="midnightblue" stroke="midnightblue" points="125.031,-114.022 114.782,-116.705 124.468,-120.999 125.031,-114.022"/>
</g>
<!-- Node2&#45;&gt;Node1 -->
<g id="edge2" class="edge"><title>Node2&#45;&gt;Node1</title>
<path fill="none" stroke="midnightblue" d="M113.952,-99.7731C135.536,-94.4643 160.541,-88.3144 180.793,-83.3332"/>
<polygon fill="midnightblue" stroke="midnightblue" points="112.862,-96.437 103.987,-102.224 114.533,-103.234 112.862,-96.437"/>
</g>
<!-- Node2&#45;&gt;Node5 -->
<g id="edge9" class="edge"><title>Node2&#45;&gt;Node5</title>
<path fill="none" stroke="midnightblue" d="M124.973,-107.546C167.492,-104.251 225.846,-99.1814 277,-92.8131 298.073,-90.1897 321.142,-86.6598 341.312,-83.3546"/>
<polygon fill="midnightblue" stroke="midnightblue" points="124.496,-104.073 114.792,-108.325 125.03,-111.052 124.496,-104.073"/>
</g>
<!-- Node3 -->
<g id="node4" class="node"><title>Node3</title>
<g id="a_node4"><a xlink:href="interface_system_1_1_security_1_1_i_security_policy_encodable.html" target="_top" xlink:title="Supports the methods that convert permission object state to and from an XML element representation.">
<polygon fill="none" stroke="black" points="0,-26.3131 0,-45.3131 128,-45.3131 128,-26.3131 0,-26.3131"/>
<text text-anchor="middle" x="64" y="-33.3131" font-family="Helvetica,sans-Serif" font-size="10.00">ISecurityPolicyEncodable</text>
</a>
</g>
</g>
<!-- Node3&#45;&gt;Node0 -->
<g id="edge5" class="edge"><title>Node3&#45;&gt;Node0</title>
<path fill="none" stroke="midnightblue" d="M114.983,-24.1261C194.113,-7.70187 352.442,16.6706 481,-16.8131 512.017,-24.8916 543.601,-44.7107 563.237,-58.7008"/>
<polygon fill="midnightblue" stroke="midnightblue" points="113.869,-20.7844 104.813,-26.2843 115.322,-27.6319 113.869,-20.7844"/>
</g>
<!-- Node3&#45;&gt;Node1 -->
<g id="edge3" class="edge"><title>Node3&#45;&gt;Node1</title>
<path fill="none" stroke="midnightblue" d="M113.952,-47.8531C135.536,-53.1619 160.541,-59.3119 180.793,-64.2931"/>
<polygon fill="midnightblue" stroke="midnightblue" points="114.533,-44.3918 103.987,-45.4021 112.862,-51.1893 114.533,-44.3918"/>
</g>
<!-- Node3&#45;&gt;Node5 -->
<g id="edge10" class="edge"><title>Node3&#45;&gt;Node5</title>
<path fill="none" stroke="midnightblue" d="M138.35,-41.1348C179.234,-44.415 231.025,-49.0895 277,-54.8131 298.073,-57.4365 321.142,-60.9664 341.312,-64.2716"/>
<polygon fill="midnightblue" stroke="midnightblue" points="138.446,-37.6315 128.201,-40.3311 137.894,-44.6097 138.446,-37.6315"/>
</g>
<!-- Node4 -->
<g id="node5" class="node"><title>Node4</title>
<g id="a_node5"><a xlink:href="interface_system_1_1_security_1_1_policy_1_1_i_constant_membership_condition.html" target="_top" xlink:title=" ">
<polygon fill="none" stroke="black" points="321,-26.3131 321,-45.3131 473,-45.3131 473,-26.3131 321,-26.3131"/>
<text text-anchor="middle" x="397" y="-33.3131" font-family="Helvetica,sans-Serif" font-size="10.00">IConstantMembershipCondition</text>
</a>
</g>
</g>
<!-- Node4&#45;&gt;Node0 -->
<g id="edge6" class="edge"><title>Node4&#45;&gt;Node0</title>
<path fill="none" stroke="midnightblue" d="M454.685,-47.4566C474.299,-51.4854 496.454,-56.0361 516.766,-60.2083"/>
<polygon fill="midnightblue" stroke="midnightblue" points="455.183,-43.9858 444.683,-45.4021 453.775,-50.8427 455.183,-43.9858"/>
</g>
<!-- Node5&#45;&gt;Node0 -->
<g id="edge7" class="edge"><title>Node5&#45;&gt;Node0</title>
<path fill="none" stroke="midnightblue" d="M491.194,-73.8131C499.864,-73.8131 508.526,-73.8131 516.876,-73.8131"/>
<polygon fill="midnightblue" stroke="midnightblue" points="491.03,-70.3132 481.03,-73.8131 491.03,-77.3132 491.03,-70.3132"/>
</g>
</g>
</svg>
        <g id="navigator" transform="translate(0 0)" fill="#404254">
                <rect fill="#f2f5e9" fill-opacity="0.5" stroke="#606060" stroke-width=".5" x="0" y="0" width="60" height="60"/>
                <use id="zoomplus" xlink:href="#zoomPlus" x="17" y="9" onmousedown="handleZoom(evt,'in')"/>
                <use id="zoomminus" xlink:href="#zoomMin" x="42" y="9" onmousedown="handleZoom(evt,'out')"/>
                <use id="reset" xlink:href="#resetDef" x="30" y="36" onmousedown="handleReset()"/>
                <g id="arrowUp" xlink:href="#dirArrow" transform="translate(30 24)" onmousedown="handlePan(0,-1)">
                  <use xlink:href="#rim" fill="#404040">
                        <set attributeName="fill" to="#808080" begin="arrowUp.mouseover" end="arrowUp.mouseout"/>
                  </use>
                  <path fill="none" stroke="white" stroke-width="1.5" d="M0,-3.0v7 M-2.5,-0.5L0,-3.0L2.5,-0.5"/>
                </g>
                <g id="arrowRight" xlink:href="#dirArrow" transform="rotate(90) translate(36 -43)" onmousedown="handlePan(1,0)">
                  <use xlink:href="#rim" fill="#404040">
                        <set attributeName="fill" to="#808080" begin="arrowRight.mouseover" end="arrowRight.mouseout"/>
                  </use>
                  <path fill="none" stroke="white" stroke-width="1.5" d="M0,-3.0v7 M-2.5,-0.5L0,-3.0L2.5,-0.5"/>
                </g>
                <g id="arrowDown" xlink:href="#dirArrow" transform="rotate(180) translate(-30 -48)" onmousedown="handlePan(0,1)">
                  <use xlink:href="#rim" fill="#404040">
                        <set attributeName="fill" to="#808080" begin="arrowDown.mouseover" end="arrowDown.mouseout"/>
                  </use>
                  <path fill="none" stroke="white" stroke-width="1.5" d="M0,-3.0v7 M-2.5,-0.5L0,-3.0L2.5,-0.5"/>
                </g>
                <g id="arrowLeft" xlink:href="#dirArrow" transform="rotate(270) translate(-36 17)" onmousedown="handlePan(-1,0)">
                  <use xlink:href="#rim" fill="#404040">
                        <set attributeName="fill" to="#808080" begin="arrowLeft.mouseover" end="arrowLeft.mouseout"/>
                  </use>
                  <path fill="none" stroke="white" stroke-width="1.5" d="M0,-3.0v7 M-2.5,-0.5L0,-3.0L2.5,-0.5"/>
                </g>
        </g>
        <svg viewBox="0 0 15 15" width="100%" height="30px" preserveAspectRatio="xMaxYMin meet">
         <g id="arrow_out" transform="scale(0.3 0.3)">
          <a xlink:href="class_system_1_1_security_1_1_policy_1_1_all_membership_condition__inherit__graph_org.svg" target="_base">
           <rect id="button" ry="5" rx="5" y="6" x="6" height="38" width="38"
                fill="#f2f5e9" fill-opacity="0.5" stroke="#606060" stroke-width="1.0"/>
           <path id="arrow"
             d="M 11.500037,31.436501 C 11.940474,20.09759 22.043105,11.32322 32.158766,21.979434 L 37.068811,17.246167 C 37.068811,17.246167 37.088388,32 37.088388,32 L 22.160133,31.978069 C 22.160133,31.978069 26.997745,27.140456 26.997745,27.140456 C 18.528582,18.264221 13.291696,25.230495 11.500037,31.436501 z"
             style="fill:#404040;"/>
          </a>
         </g>
        </svg>
</svg>
