<?xml version="1.0" encoding="UTF-8" standalone="no"?>
<!DOCTYPE svg PUBLIC "-//W3C//DTD SVG 1.1//EN"
 "http://www.w3.org/Graphics/SVG/1.1/DTD/svg11.dtd">
<!-- Generated by graphviz version 2.38.0 (20140413.2041)
 -->
<!-- Title: System.Security.Principal.SecurityIdentifier Pages: 1 -->
<svg width="293pt" height="163pt"
 viewBox="0.00 0.00 293.00 163.00" xmlns="http://www.w3.org/2000/svg" xmlns:xlink="http://www.w3.org/1999/xlink">
<g id="graph0" class="graph" transform="scale(1 1) rotate(0) translate(4 159)">
<title>System.Security.Principal.SecurityIdentifier</title>
<!-- Node0 -->
<g id="node1" class="node"><title>Node0</title>
<g id="a_node1"><a xlink:title="Represents a security identifier (SID) and provides marshaling and comparison operations for SIDs.">
<polygon fill="#bfbfbf" stroke="black" points="21.5,-0.5 21.5,-30.5 154.5,-30.5 154.5,-0.5 21.5,-0.5"/>
<text text-anchor="start" x="29.5" y="-18.5" font-family="Helvetica,sans-Serif" font-size="10.00">System.Security.Principal.</text>
<text text-anchor="middle" x="88" y="-7.5" font-family="Helvetica,sans-Serif" font-size="10.00">SecurityIdentifier</text>
</a>
</g>
</g>
<!-- Node1 -->
<g id="node2" class="node"><title>Node1</title>
<g id="a_node2"><a xlink:href="class_system_1_1_security_1_1_principal_1_1_identity_reference.html" target="_top" xlink:title="Represents an identity and is the base class for the T:System.Security.Principal.NTAccount and T:Syst...">
<polygon fill="none" stroke="black" points="0,-68.5 0,-87.5 92,-87.5 92,-68.5 0,-68.5"/>
<text text-anchor="middle" x="46" y="-75.5" font-family="Helvetica,sans-Serif" font-size="10.00">IdentityReference</text>
</a>
</g>
</g>
<!-- Node1&#45;&gt;Node0 -->
<g id="edge1" class="edge"><title>Node1&#45;&gt;Node0</title>
<path fill="none" stroke="midnightblue" d="M57.8255,-59.9656C64.2212,-50.7527 72.0301,-39.5043 78.1014,-30.7587"/>
<polygon fill="midnightblue" stroke="midnightblue" points="54.8452,-58.1213 52.0176,-68.3318 60.5954,-62.1132 54.8452,-58.1213"/>
</g>
<!-- Node2 -->
<g id="node3" class="node"><title>Node2</title>
<g id="a_node3"><a xlink:href="interface_system_1_1_i_comparable.html" target="_top" xlink:title=" ">
<polygon fill="none" stroke="black" points="110.5,-68.5 110.5,-87.5 271.5,-87.5 271.5,-68.5 110.5,-68.5"/>
<text text-anchor="middle" x="191" y="-75.5" font-family="Helvetica,sans-Serif" font-size="10.00">IComparable&lt; SecurityIdentifier &gt;</text>
</a>
</g>
</g>
<!-- Node2&#45;&gt;Node0 -->
<g id="edge2" class="edge"><title>Node2&#45;&gt;Node0</title>
<path fill="none" stroke="midnightblue" d="M167.178,-63.0075C150.57,-53.2524 128.499,-40.2884 111.879,-30.526"/>
<polygon fill="midnightblue" stroke="midnightblue" points="165.847,-66.285 176.243,-68.3318 169.393,-60.2492 165.847,-66.285"/>
</g>
<!-- Node3 -->
<g id="node4" class="node"><title>Node3</title>
<g id="a_node4"><a xlink:href="interface_system_1_1_i_comparable.html" target="_top" xlink:title="Defines a generalized type&#45;specific comparison method that a value type or class implements to order ...">
<polygon fill="none" stroke="black" points="137.5,-135.5 137.5,-154.5 244.5,-154.5 244.5,-135.5 137.5,-135.5"/>
<text text-anchor="middle" x="191" y="-142.5" font-family="Helvetica,sans-Serif" font-size="10.00">System.IComparable</text>
</a>
</g>
</g>
<!-- Node3&#45;&gt;Node2 -->
<g id="edge3" class="edge"><title>Node3&#45;&gt;Node2</title>
<path fill="none" stroke="orange" stroke-dasharray="5,2" d="M191,-125.037C191,-112.67 191,-97.1198 191,-87.6273"/>
<polygon fill="orange" stroke="orange" points="187.5,-125.234 191,-135.234 194.5,-125.234 187.5,-125.234"/>
<text text-anchor="middle" x="238" y="-109" font-family="Helvetica,sans-Serif" font-size="10.00"> &lt; SecurityIdentifier &gt;</text>
</g>
</g>
</svg>
