<?xml version="1.0" encoding="UTF-8" standalone="no"?>
<!DOCTYPE svg PUBLIC "-//W3C//DTD SVG 1.1//EN"
 "http://www.w3.org/Graphics/SVG/1.1/DTD/svg11.dtd">
<!-- Generated by graphviz version 2.38.0 (20140413.2041)
 -->
<!-- Title: System.Threading.Tasks.AwaitTaskContinuation Pages: 1 -->
<svg width="228pt" height="95pt"
 viewBox="0.00 0.00 228.00 95.00" xmlns="http://www.w3.org/2000/svg" xmlns:xlink="http://www.w3.org/1999/xlink">
<g id="graph0" class="graph" transform="scale(1 1) rotate(0) translate(4 91)">
<title>System.Threading.Tasks.AwaitTaskContinuation</title>
<!-- Node5 -->
<g id="node1" class="node"><title>Node5</title>
<g id="a_node1"><a xlink:title=" ">
<polygon fill="#bfbfbf" stroke="black" points="29,-0.5 29,-30.5 181,-30.5 181,-0.5 29,-0.5"/>
<text text-anchor="start" x="37" y="-18.5" font-family="Helvetica,sans-Serif" font-size="10.00">System.Threading.Tasks.Await</text>
<text text-anchor="middle" x="105" y="-7.5" font-family="Helvetica,sans-Serif" font-size="10.00">TaskContinuation</text>
</a>
</g>
</g>
<!-- Node6 -->
<g id="node2" class="node"><title>Node6</title>
<g id="a_node2"><a xlink:href="class_system_1_1_threading_1_1_tasks_1_1_task_continuation.html" target="_top" xlink:title=" ">
<polygon fill="none" stroke="black" points="0,-67.5 0,-86.5 92,-86.5 92,-67.5 0,-67.5"/>
<text text-anchor="middle" x="46" y="-74.5" font-family="Helvetica,sans-Serif" font-size="10.00">TaskContinuation</text>
</a>
</g>
</g>
<!-- Node6&#45;&gt;Node5 -->
<g id="edge1" class="edge"><title>Node6&#45;&gt;Node5</title>
<path fill="none" stroke="midnightblue" d="M61.4997,-60.369C70.6781,-51.1127 82.2107,-39.4824 91.0949,-30.523"/>
<polygon fill="midnightblue" stroke="midnightblue" points="59.0092,-57.9098 54.4533,-67.4751 63.9798,-62.8387 59.0092,-57.9098"/>
</g>
<!-- Node7 -->
<g id="node3" class="node"><title>Node7</title>
<g id="a_node3"><a xlink:href="interface_system_1_1_threading_1_1_i_thread_pool_work_item.html" target="_top" xlink:title=" ">
<polygon fill="none" stroke="black" points="110,-67.5 110,-86.5 220,-86.5 220,-67.5 110,-67.5"/>
<text text-anchor="middle" x="165" y="-74.5" font-family="Helvetica,sans-Serif" font-size="10.00">IThreadPoolWorkItem</text>
</a>
</g>
</g>
<!-- Node7&#45;&gt;Node5 -->
<g id="edge2" class="edge"><title>Node7&#45;&gt;Node5</title>
<path fill="none" stroke="midnightblue" d="M149.238,-60.369C139.904,-51.1127 128.176,-39.4824 119.141,-30.523"/>
<polygon fill="midnightblue" stroke="midnightblue" points="146.838,-62.9189 156.403,-67.4751 151.767,-57.9484 146.838,-62.9189"/>
</g>
</g>
</svg>
