<?xml version="1.0" encoding="UTF-8" standalone="no"?>
<!DOCTYPE svg PUBLIC "-//W3C//DTD SVG 1.1//EN"
 "http://www.w3.org/Graphics/SVG/1.1/DTD/svg11.dtd">
<!-- Generated by graphviz version 2.38.0 (20140413.2041)
 -->
<!-- Title: System.Globalization.PersianCalendar Pages: 1 -->
<svg width="256pt" height="119pt"
 viewBox="0.00 0.00 255.50 119.00" xmlns="http://www.w3.org/2000/svg" xmlns:xlink="http://www.w3.org/1999/xlink">
<g id="graph0" class="graph" transform="scale(1 1) rotate(0) translate(4 115)">
<title>System.Globalization.PersianCalendar</title>
<!-- Node3 -->
<g id="node1" class="node"><title>Node3</title>
<g id="a_node1"><a xlink:title="Represents the Persian calendar.">
<polygon fill="#bfbfbf" stroke="black" points="0,-0.5 0,-30.5 146,-30.5 146,-0.5 0,-0.5"/>
<text text-anchor="start" x="8" y="-18.5" font-family="Helvetica,sans-Serif" font-size="10.00">System.Globalization.Persian</text>
<text text-anchor="middle" x="73" y="-7.5" font-family="Helvetica,sans-Serif" font-size="10.00">Calendar</text>
</a>
</g>
</g>
<!-- Node4 -->
<g id="node2" class="node"><title>Node4</title>
<g id="a_node2"><a xlink:href="class_system_1_1_globalization_1_1_calendar.html" target="_top" xlink:title="Represents time in divisions, such as weeks, months, and years.">
<polygon fill="none" stroke="red" points="14.5,-90.5 14.5,-109.5 69.5,-109.5 69.5,-90.5 14.5,-90.5"/>
<text text-anchor="middle" x="42" y="-97.5" font-family="Helvetica,sans-Serif" font-size="10.00">Calendar</text>
</a>
</g>
</g>
<!-- Node4&#45;&gt;Node3 -->
<g id="edge1" class="edge"><title>Node4&#45;&gt;Node3</title>
<path fill="none" stroke="midnightblue" d="M48.8647,-80.731C54.5473,-65.608 62.5041,-44.4325 67.7039,-30.5944"/>
<polygon fill="midnightblue" stroke="midnightblue" points="45.442,-79.8897 45.2008,-90.4818 51.9946,-82.3519 45.442,-79.8897"/>
</g>
<!-- Node6 -->
<g id="node3" class="node"><title>Node6</title>
<g id="a_node3"><a xlink:href="struct_system_1_1_date_time.html" target="_top" xlink:title="Represents an instant in time, typically expressed as a date and time of day. To browse the ....">
<polygon fill="none" stroke="red" points="87.5,-90.5 87.5,-109.5 182.5,-109.5 182.5,-90.5 87.5,-90.5"/>
<text text-anchor="middle" x="135" y="-97.5" font-family="Helvetica,sans-Serif" font-size="10.00">System.DateTime</text>
</a>
</g>
</g>
<!-- Node6&#45;&gt;Node3 -->
<g id="edge2" class="edge"><title>Node6&#45;&gt;Node3</title>
<path fill="none" stroke="#9a32cd" stroke-dasharray="5,2" d="M122.574,-82.4648C111.15,-67.2637 94.3956,-44.9699 83.5921,-30.5944"/>
<polygon fill="#9a32cd" stroke="#9a32cd" points="119.793,-84.5903 128.598,-90.4818 125.389,-80.3849 119.793,-84.5903"/>
<text text-anchor="middle" x="167" y="-63" font-family="Helvetica,sans-Serif" font-size="10.00"> MaxSupportedDateTime</text>
<text text-anchor="middle" x="167" y="-52" font-family="Helvetica,sans-Serif" font-size="10.00">MinSupportedDateTime</text>
</g>
<!-- Node6&#45;&gt;Node6 -->
<g id="edge3" class="edge"><title>Node6&#45;&gt;Node6</title>
<path fill="none" stroke="#9a32cd" stroke-dasharray="5,2" d="M192.862,-105.755C197.576,-104.506 200.5,-102.588 200.5,-100 200.5,-95.8594 193.013,-93.4332 182.69,-92.7216"/>
<polygon fill="#9a32cd" stroke="#9a32cd" points="192.061,-102.335 182.69,-107.278 193.098,-109.258 192.061,-102.335"/>
<text text-anchor="middle" x="224" y="-103" font-family="Helvetica,sans-Serif" font-size="10.00"> MaxValue</text>
<text text-anchor="middle" x="224" y="-92" font-family="Helvetica,sans-Serif" font-size="10.00">MinValue</text>
</g>
</g>
</svg>
