<?xml version="1.0" encoding="UTF-8" standalone="no"?>
<!DOCTYPE svg PUBLIC "-//W3C//DTD SVG 1.1//EN"
 "http://www.w3.org/Graphics/SVG/1.1/DTD/svg11.dtd">
<!-- Generated by graphviz version 2.38.0 (20140413.2041)
 -->
<!-- Title: System.OrdinalRandomizedComparer Pages: 1 -->
<!--zoomable 154 -->
<svg id="main" version="1.1" xmlns="http://www.w3.org/2000/svg" xmlns:xlink="http://www.w3.org/1999/xlink" xml:space="preserve" onload="init(evt)">
<style type="text/css"><![CDATA[
.edge:hover path { stroke: red; }
.edge:hover polygon { stroke: red; fill: red; }
]]></style>
<script type="text/javascript"><![CDATA[
var edges = document.getElementsByTagName('g');
if (edges && edges.length) {
  for (var i=0;i<edges.length;i++) {
    if (edges[i].id.substr(0,4)=='edge') {
      edges[i].setAttribute('class','edge');
    }
  }
}
]]></script>
        <defs>
                <circle id="rim" cx="0" cy="0" r="7"/>
                <circle id="rim2" cx="0" cy="0" r="3.5"/>
                <g id="zoomPlus">
                        <use xlink:href="#rim" fill="#404040">
                                <set attributeName="fill" to="#808080" begin="zoomplus.mouseover" end="zoomplus.mouseout"/>
                        </use>
                        <path d="M-4,0h8M0,-4v8" fill="none" stroke="white" stroke-width="1.5" pointer-events="none"/>
                </g>
                <g id="zoomMin">
                        <use xlink:href="#rim" fill="#404040">
                                <set attributeName="fill" to="#808080" begin="zoomminus.mouseover" end="zoomminus.mouseout"/>
                        </use>
                        <path d="M-4,0h8" fill="none" stroke="white" stroke-width="1.5" pointer-events="none"/>
                </g>
                <g id="dirArrow">
                        <path fill="none" stroke="white" stroke-width="1.5" d="M0,-3.0v7 M-2.5,-0.5L0,-3.0L2.5,-0.5"/>
                </g>
               <g id="resetDef">
                       <use xlink:href="#rim2" fill="#404040">
                               <set attributeName="fill" to="#808080" begin="reset.mouseover" end="reset.mouseout"/>
                       </use>
               </g>
        </defs>

<script type="text/javascript">
var viewWidth = 682;
var viewHeight = 154;
var sectionId = 'dynsection-0';
</script>
<script xlink:href="svgpan.js"/>
<svg id="graph" class="graph">
<g id="viewport">
<title>System.OrdinalRandomizedComparer</title>
<!-- Node0 -->
<g id="node1" class="node"><title>Node0</title>
<g id="a_node1"><a xlink:title=" ">
<polygon fill="#bfbfbf" stroke="black" points="536,-42.5 536,-72.5 674,-72.5 674,-42.5 536,-42.5"/>
<text text-anchor="start" x="544" y="-60.5" font-family="Helvetica,sans-Serif" font-size="10.00">System.OrdinalRandomized</text>
<text text-anchor="middle" x="605" y="-49.5" font-family="Helvetica,sans-Serif" font-size="10.00">Comparer</text>
</a>
</g>
</g>
<!-- Node1 -->
<g id="node2" class="node"><title>Node1</title>
<g id="a_node2"><a xlink:href="class_system_1_1_string_comparer.html" target="_top" xlink:title="Represents a string comparison operation that uses specific case and culture&#45;based or ordinal compari...">
<polygon fill="none" stroke="black" points="393,-75 393,-94 477,-94 477,-75 393,-75"/>
<text text-anchor="middle" x="435" y="-82" font-family="Helvetica,sans-Serif" font-size="10.00">StringComparer</text>
</a>
</g>
</g>
<!-- Node1&#45;&gt;Node0 -->
<g id="edge1" class="edge"><title>Node1&#45;&gt;Node0</title>
<path fill="none" stroke="midnightblue" d="M487.377,-76.243C502.663,-73.7862 519.657,-71.0552 535.836,-68.4549"/>
<polygon fill="midnightblue" stroke="midnightblue" points="486.415,-72.8525 477.097,-77.8951 487.526,-79.7639 486.415,-72.8525"/>
</g>
<!-- Node2 -->
<g id="node3" class="node"><title>Node2</title>
<g id="a_node3"><a xlink:href="interface_system_1_1_collections_1_1_i_comparer.html" target="_top" xlink:title="Exposes a method that compares two objects.">
<polygon fill="none" stroke="black" points="252,-126 252,-145 313,-145 313,-126 252,-126"/>
<text text-anchor="middle" x="282.5" y="-133" font-family="Helvetica,sans-Serif" font-size="10.00">IComparer</text>
</a>
</g>
</g>
<!-- Node2&#45;&gt;Node1 -->
<g id="edge2" class="edge"><title>Node2&#45;&gt;Node1</title>
<path fill="none" stroke="midnightblue" d="M321.427,-122.648C347.66,-113.758 381.997,-102.122 405.819,-94.0497"/>
<polygon fill="midnightblue" stroke="midnightblue" points="320.156,-119.383 311.808,-125.907 322.402,-126.013 320.156,-119.383"/>
</g>
<!-- Node3 -->
<g id="node4" class="node"><title>Node3</title>
<g id="a_node4"><a xlink:href="interface_system_1_1_collections_1_1_i_equality_comparer.html" target="_top" xlink:title="Defines methods to support the comparison of objects for equality.">
<polygon fill="none" stroke="black" points="234.5,-88 234.5,-107 330.5,-107 330.5,-88 234.5,-88"/>
<text text-anchor="middle" x="282.5" y="-95" font-family="Helvetica,sans-Serif" font-size="10.00">IEqualityComparer</text>
</a>
</g>
</g>
<!-- Node3&#45;&gt;Node1 -->
<g id="edge3" class="edge"><title>Node3&#45;&gt;Node1</title>
<path fill="none" stroke="midnightblue" d="M340.724,-92.5571C358.056,-91.06 376.743,-89.4458 392.806,-88.0583"/>
<polygon fill="midnightblue" stroke="midnightblue" points="340.368,-89.0747 330.706,-93.4224 340.97,-96.0487 340.368,-89.0747"/>
</g>
<!-- Node4 -->
<g id="node5" class="node"><title>Node4</title>
<g id="a_node5"><a xlink:href="interface_system_1_1_collections_1_1_i_comparer.html" target="_top" xlink:title=" ">
<polygon fill="none" stroke="black" points="231,-50 231,-69 334,-69 334,-50 231,-50"/>
<text text-anchor="middle" x="282.5" y="-57" font-family="Helvetica,sans-Serif" font-size="10.00">IComparer&lt; string &gt;</text>
</a>
</g>
</g>
<!-- Node4&#45;&gt;Node1 -->
<g id="edge4" class="edge"><title>Node4&#45;&gt;Node1</title>
<path fill="none" stroke="midnightblue" d="M344.079,-69.563C360.461,-72.2843 377.809,-75.1659 392.85,-77.6645"/>
<polygon fill="midnightblue" stroke="midnightblue" points="344.471,-66.0803 334.033,-67.8942 343.324,-72.9856 344.471,-66.0803"/>
</g>
<!-- Node5 -->
<g id="node6" class="node"><title>Node5</title>
<g id="a_node6"><a xlink:href="interface_system_1_1_collections_1_1_i_comparer.html" target="_top" xlink:title="Exposes a method that compares two objects.">
<polygon fill="none" stroke="black" points="0,-50 0,-69 149,-69 149,-50 0,-50"/>
<text text-anchor="middle" x="74.5" y="-57" font-family="Helvetica,sans-Serif" font-size="10.00">System.Collections.IComparer</text>
</a>
</g>
</g>
<!-- Node5&#45;&gt;Node4 -->
<g id="edge5" class="edge"><title>Node5&#45;&gt;Node4</title>
<path fill="none" stroke="orange" stroke-dasharray="5,2" d="M159.54,-59.5C183.704,-59.5 209.31,-59.5 230.787,-59.5"/>
<polygon fill="orange" stroke="orange" points="159.289,-56.0001 149.289,-59.5 159.289,-63.0001 159.289,-56.0001"/>
<text text-anchor="middle" x="190" y="-62.5" font-family="Helvetica,sans-Serif" font-size="10.00"> &lt; string &gt;</text>
</g>
<!-- Node6 -->
<g id="node7" class="node"><title>Node6</title>
<g id="a_node7"><a xlink:href="interface_system_1_1_collections_1_1_generic_1_1_i_equality_comparer.html" target="_top" xlink:title=" ">
<polygon fill="none" stroke="black" points="231.5,-0.5 231.5,-30.5 333.5,-30.5 333.5,-0.5 231.5,-0.5"/>
<text text-anchor="start" x="239.5" y="-18.5" font-family="Helvetica,sans-Serif" font-size="10.00">IEqualityComparer&lt;</text>
<text text-anchor="middle" x="282.5" y="-7.5" font-family="Helvetica,sans-Serif" font-size="10.00"> string &gt;</text>
</a>
</g>
</g>
<!-- Node6&#45;&gt;Node1 -->
<g id="edge6" class="edge"><title>Node6&#45;&gt;Node1</title>
<path fill="none" stroke="midnightblue" d="M324.479,-35.282C327.724,-37.0017 330.931,-38.753 334,-40.5 351.034,-50.1977 353.278,-56.1262 371,-64.5 379.508,-68.52 389.029,-72.0167 398.042,-74.9129"/>
<polygon fill="midnightblue" stroke="midnightblue" points="325.804,-32.0273 315.313,-30.549 322.592,-38.247 325.804,-32.0273"/>
</g>
<!-- Node7 -->
<g id="node8" class="node"><title>Node7</title>
<g id="a_node8"><a xlink:href="interface_system_1_1_collections_1_1_generic_1_1_i_equality_comparer.html" target="_top" xlink:title="Defines methods to support the comparison of objects for equality.">
<polygon fill="none" stroke="black" points="4,-0.5 4,-30.5 145,-30.5 145,-0.5 4,-0.5"/>
<text text-anchor="start" x="12" y="-18.5" font-family="Helvetica,sans-Serif" font-size="10.00">System.Collections.Generic.</text>
<text text-anchor="middle" x="74.5" y="-7.5" font-family="Helvetica,sans-Serif" font-size="10.00">IEqualityComparer&lt; in in T &gt;</text>
</a>
</g>
</g>
<!-- Node7&#45;&gt;Node6 -->
<g id="edge7" class="edge"><title>Node7&#45;&gt;Node6</title>
<path fill="none" stroke="orange" stroke-dasharray="5,2" d="M155.311,-15.5C180.902,-15.5 208.507,-15.5 231.354,-15.5"/>
<polygon fill="orange" stroke="orange" points="155.242,-12.0001 145.242,-15.5 155.242,-19.0001 155.242,-12.0001"/>
<text text-anchor="middle" x="190" y="-18.5" font-family="Helvetica,sans-Serif" font-size="10.00"> &lt; string &gt;</text>
</g>
<!-- Node8 -->
<g id="node9" class="node"><title>Node8</title>
<g id="a_node9"><a xlink:href="interface_system_1_1_i_well_known_string_equality_comparer.html" target="_top" xlink:title=" ">
<polygon fill="none" stroke="black" points="371,-25.5 371,-55.5 499,-55.5 499,-25.5 371,-25.5"/>
<text text-anchor="start" x="379" y="-43.5" font-family="Helvetica,sans-Serif" font-size="10.00">IWellKnownStringEquality</text>
<text text-anchor="middle" x="435" y="-32.5" font-family="Helvetica,sans-Serif" font-size="10.00">Comparer</text>
</a>
</g>
</g>
<!-- Node8&#45;&gt;Node0 -->
<g id="edge8" class="edge"><title>Node8&#45;&gt;Node0</title>
<path fill="none" stroke="midnightblue" d="M509.003,-47.8872C517.914,-48.7889 526.993,-49.7076 535.83,-50.6018"/>
<polygon fill="midnightblue" stroke="midnightblue" points="509.337,-44.4032 499.035,-46.8785 508.632,-51.3676 509.337,-44.4032"/>
</g>
</g>
</svg>
        <g id="navigator" transform="translate(0 0)" fill="#404254">
                <rect fill="#f2f5e9" fill-opacity="0.5" stroke="#606060" stroke-width=".5" x="0" y="0" width="60" height="60"/>
                <use id="zoomplus" xlink:href="#zoomPlus" x="17" y="9" onmousedown="handleZoom(evt,'in')"/>
                <use id="zoomminus" xlink:href="#zoomMin" x="42" y="9" onmousedown="handleZoom(evt,'out')"/>
                <use id="reset" xlink:href="#resetDef" x="30" y="36" onmousedown="handleReset()"/>
                <g id="arrowUp" xlink:href="#dirArrow" transform="translate(30 24)" onmousedown="handlePan(0,-1)">
                  <use xlink:href="#rim" fill="#404040">
                        <set attributeName="fill" to="#808080" begin="arrowUp.mouseover" end="arrowUp.mouseout"/>
                  </use>
                  <path fill="none" stroke="white" stroke-width="1.5" d="M0,-3.0v7 M-2.5,-0.5L0,-3.0L2.5,-0.5"/>
                </g>
                <g id="arrowRight" xlink:href="#dirArrow" transform="rotate(90) translate(36 -43)" onmousedown="handlePan(1,0)">
                  <use xlink:href="#rim" fill="#404040">
                        <set attributeName="fill" to="#808080" begin="arrowRight.mouseover" end="arrowRight.mouseout"/>
                  </use>
                  <path fill="none" stroke="white" stroke-width="1.5" d="M0,-3.0v7 M-2.5,-0.5L0,-3.0L2.5,-0.5"/>
                </g>
                <g id="arrowDown" xlink:href="#dirArrow" transform="rotate(180) translate(-30 -48)" onmousedown="handlePan(0,1)">
                  <use xlink:href="#rim" fill="#404040">
                        <set attributeName="fill" to="#808080" begin="arrowDown.mouseover" end="arrowDown.mouseout"/>
                  </use>
                  <path fill="none" stroke="white" stroke-width="1.5" d="M0,-3.0v7 M-2.5,-0.5L0,-3.0L2.5,-0.5"/>
                </g>
                <g id="arrowLeft" xlink:href="#dirArrow" transform="rotate(270) translate(-36 17)" onmousedown="handlePan(-1,0)">
                  <use xlink:href="#rim" fill="#404040">
                        <set attributeName="fill" to="#808080" begin="arrowLeft.mouseover" end="arrowLeft.mouseout"/>
                  </use>
                  <path fill="none" stroke="white" stroke-width="1.5" d="M0,-3.0v7 M-2.5,-0.5L0,-3.0L2.5,-0.5"/>
                </g>
        </g>
        <svg viewBox="0 0 15 15" width="100%" height="30px" preserveAspectRatio="xMaxYMin meet">
         <g id="arrow_out" transform="scale(0.3 0.3)">
          <a xlink:href="class_system_1_1_ordinal_randomized_comparer__inherit__graph_org.svg" target="_base">
           <rect id="button" ry="5" rx="5" y="6" x="6" height="38" width="38"
                fill="#f2f5e9" fill-opacity="0.5" stroke="#606060" stroke-width="1.0"/>
           <path id="arrow"
             d="M 11.500037,31.436501 C 11.940474,20.09759 22.043105,11.32322 32.158766,21.979434 L 37.068811,17.246167 C 37.068811,17.246167 37.088388,32 37.088388,32 L 22.160133,31.978069 C 22.160133,31.978069 26.997745,27.140456 26.997745,27.140456 C 18.528582,18.264221 13.291696,25.230495 11.500037,31.436501 z"
             style="fill:#404040;"/>
          </a>
         </g>
        </svg>
</svg>
