<?xml version="1.0" encoding="UTF-8" standalone="no"?>
<!DOCTYPE svg PUBLIC "-//W3C//DTD SVG 1.1//EN"
 "http://www.w3.org/Graphics/SVG/1.1/DTD/svg11.dtd">
<!-- Generated by graphviz version 2.38.0 (20140413.2041)
 -->
<!-- Title: System.Net.WebResponse Pages: 1 -->
<svg width="287pt" height="84pt"
 viewBox="0.00 0.00 286.50 84.00" xmlns="http://www.w3.org/2000/svg" xmlns:xlink="http://www.w3.org/1999/xlink">
<g id="graph0" class="graph" transform="scale(1 1) rotate(0) translate(4 80)">
<title>System.Net.WebResponse</title>
<!-- Node7 -->
<g id="node1" class="node"><title>Node7</title>
<g id="a_node1"><a xlink:title="Provides a response from a Uniform Resource Identifier (URI). This is an abstract class.">
<polygon fill="#bfbfbf" stroke="black" points="91.5,-0.5 91.5,-19.5 226.5,-19.5 226.5,-0.5 91.5,-0.5"/>
<text text-anchor="middle" x="159" y="-7.5" font-family="Helvetica,sans-Serif" font-size="10.00">System.Net.WebResponse</text>
</a>
</g>
</g>
<!-- Node8 -->
<g id="node2" class="node"><title>Node8</title>
<g id="a_node2"><a xlink:href="class_system_1_1_marshal_by_ref_object.html" target="_top" xlink:title="Enables access to objects across application domain boundaries in applications that support remoting.">
<polygon fill="none" stroke="black" points="0,-56.5 0,-75.5 106,-75.5 106,-56.5 0,-56.5"/>
<text text-anchor="middle" x="53" y="-63.5" font-family="Helvetica,sans-Serif" font-size="10.00">MarshalByRefObject</text>
</a>
</g>
</g>
<!-- Node8&#45;&gt;Node7 -->
<g id="edge1" class="edge"><title>Node8&#45;&gt;Node7</title>
<path fill="none" stroke="midnightblue" d="M79.0562,-51.7261C98.6838,-41.7271 125.028,-28.3065 142.012,-19.6545"/>
<polygon fill="midnightblue" stroke="midnightblue" points="77.3524,-48.666 70.0307,-56.324 80.5299,-54.9033 77.3524,-48.666"/>
</g>
<!-- Node9 -->
<g id="node3" class="node"><title>Node9</title>
<g id="a_node3"><a xlink:href="interface_system_1_1_runtime_1_1_serialization_1_1_i_serializable.html" target="_top" xlink:title="Allows an object to control its own serialization and deserialization.">
<polygon fill="none" stroke="black" points="124.5,-56.5 124.5,-75.5 193.5,-75.5 193.5,-56.5 124.5,-56.5"/>
<text text-anchor="middle" x="159" y="-63.5" font-family="Helvetica,sans-Serif" font-size="10.00">ISerializable</text>
</a>
</g>
</g>
<!-- Node9&#45;&gt;Node7 -->
<g id="edge2" class="edge"><title>Node9&#45;&gt;Node7</title>
<path fill="none" stroke="midnightblue" d="M159,-45.8045C159,-36.9102 159,-26.7798 159,-19.7511"/>
<polygon fill="midnightblue" stroke="midnightblue" points="155.5,-46.083 159,-56.083 162.5,-46.083 155.5,-46.083"/>
</g>
<!-- Node10 -->
<g id="node4" class="node"><title>Node10</title>
<g id="a_node4"><a xlink:href="interface_system_1_1_i_disposable.html" target="_top" xlink:title="Provides a mechanism for releasing unmanaged resources.To browse the .NET Framework source code for t...">
<polygon fill="none" stroke="black" points="211.5,-56.5 211.5,-75.5 278.5,-75.5 278.5,-56.5 211.5,-56.5"/>
<text text-anchor="middle" x="245" y="-63.5" font-family="Helvetica,sans-Serif" font-size="10.00">IDisposable</text>
</a>
</g>
</g>
<!-- Node10&#45;&gt;Node7 -->
<g id="edge3" class="edge"><title>Node10&#45;&gt;Node7</title>
<path fill="none" stroke="midnightblue" d="M222.545,-50.9005C206.776,-40.9986 186.186,-28.0705 172.783,-19.6545"/>
<polygon fill="midnightblue" stroke="midnightblue" points="220.852,-53.9704 231.183,-56.324 224.575,-48.0421 220.852,-53.9704"/>
</g>
</g>
</svg>
