<?xml version="1.0" encoding="UTF-8" standalone="no"?>
<!DOCTYPE svg PUBLIC "-//W3C//DTD SVG 1.1//EN"
 "http://www.w3.org/Graphics/SVG/1.1/DTD/svg11.dtd">
<!-- Generated by graphviz version 2.38.0 (20140413.2041)
 -->
<!-- Title: System.Reflection.Emit.SymbolType Pages: 1 -->
<svg width="427pt" height="344pt"
 viewBox="0.00 0.00 427.00 344.00" xmlns="http://www.w3.org/2000/svg" xmlns:xlink="http://www.w3.org/1999/xlink">
<g id="graph0" class="graph" transform="scale(1 1) rotate(0) translate(4 340)">
<title>System.Reflection.Emit.SymbolType</title>
<!-- Node9 -->
<g id="node1" class="node"><title>Node9</title>
<g id="a_node1"><a xlink:title=" ">
<polygon fill="#bfbfbf" stroke="black" points="242,-0.5 242,-19.5 418,-19.5 418,-0.5 242,-0.5"/>
<text text-anchor="middle" x="330" y="-7.5" font-family="Helvetica,sans-Serif" font-size="10.00">System.Reflection.Emit.SymbolType</text>
</a>
</g>
</g>
<!-- Node10 -->
<g id="node2" class="node"><title>Node10</title>
<g id="a_node2"><a xlink:href="class_system_1_1_reflection_1_1_type_info.html" target="_top" xlink:title="Represents type declarations for class types, interface types, array types, value types,...">
<polygon fill="none" stroke="black" points="185.5,-57.5 185.5,-76.5 238.5,-76.5 238.5,-57.5 185.5,-57.5"/>
<text text-anchor="middle" x="212" y="-64.5" font-family="Helvetica,sans-Serif" font-size="10.00">TypeInfo</text>
</a>
</g>
</g>
<!-- Node10&#45;&gt;Node9 -->
<g id="edge1" class="edge"><title>Node10&#45;&gt;Node9</title>
<path fill="none" stroke="midnightblue" d="M239.685,-53.096C261.892,-42.7455 292.432,-28.5106 311.692,-19.5334"/>
<polygon fill="midnightblue" stroke="midnightblue" points="238.023,-50.0092 230.438,-57.4063 240.98,-56.3539 238.023,-50.0092"/>
</g>
<!-- Node11 -->
<g id="node3" class="node"><title>Node11</title>
<g id="a_node3"><a xlink:href="class_system_1_1_type.html" target="_top" xlink:title="Represents type declarations: class types, interface types, array types, value types,...">
<polygon fill="none" stroke="black" points="193,-135.5 193,-154.5 231,-154.5 231,-135.5 193,-135.5"/>
<text text-anchor="middle" x="212" y="-142.5" font-family="Helvetica,sans-Serif" font-size="10.00">Type</text>
</a>
</g>
</g>
<!-- Node11&#45;&gt;Node10 -->
<g id="edge2" class="edge"><title>Node11&#45;&gt;Node10</title>
<path fill="none" stroke="midnightblue" d="M212,-125.224C212,-109.697 212,-88.3582 212,-76.6165"/>
<polygon fill="midnightblue" stroke="midnightblue" points="208.5,-125.282 212,-135.282 215.5,-125.282 208.5,-125.282"/>
</g>
<!-- Node12 -->
<g id="node4" class="node"><title>Node12</title>
<g id="a_node4"><a xlink:href="class_system_1_1_reflection_1_1_member_info.html" target="_top" xlink:title="Obtains information about the attributes of a member and provides access to member metadata.">
<polygon fill="none" stroke="black" points="86.5,-259.5 86.5,-278.5 153.5,-278.5 153.5,-259.5 86.5,-259.5"/>
<text text-anchor="middle" x="120" y="-266.5" font-family="Helvetica,sans-Serif" font-size="10.00">MemberInfo</text>
</a>
</g>
</g>
<!-- Node12&#45;&gt;Node11 -->
<g id="edge3" class="edge"><title>Node12&#45;&gt;Node11</title>
<path fill="none" stroke="midnightblue" d="M126.831,-249.919C135.185,-229.528 150.864,-196.197 172,-173 178.659,-165.692 187.677,-159.385 195.466,-154.708"/>
<polygon fill="midnightblue" stroke="midnightblue" points="123.552,-248.693 123.14,-259.28 130.064,-251.261 123.552,-248.693"/>
</g>
<!-- Node17 -->
<g id="node9" class="node"><title>Node17</title>
<g id="a_node9"><a xlink:href="class_system_1_1_type.html" target="_top" xlink:title="Represents type declarations: class types, interface types, array types, value types,...">
<polygon fill="none" stroke="black" points="175,-202.5 175,-221.5 249,-221.5 249,-202.5 175,-202.5"/>
<text text-anchor="middle" x="212" y="-209.5" font-family="Helvetica,sans-Serif" font-size="10.00">System.Type</text>
</a>
</g>
</g>
<!-- Node12&#45;&gt;Node17 -->
<g id="edge9" class="edge"><title>Node12&#45;&gt;Node17</title>
<path fill="none" stroke="midnightblue" d="M143.234,-254.11C160.385,-243.857 183.181,-230.229 197.726,-221.533"/>
<polygon fill="midnightblue" stroke="midnightblue" points="141.162,-251.271 134.375,-259.406 144.754,-257.279 141.162,-251.271"/>
</g>
<!-- Node13 -->
<g id="node5" class="node"><title>Node13</title>
<g id="a_node5"><a xlink:href="interface_system_1_1_reflection_1_1_i_custom_attribute_provider.html" target="_top" xlink:title="Provides custom attributes for reflection objects that support them.">
<polygon fill="none" stroke="black" points="0,-316.5 0,-335.5 124,-335.5 124,-316.5 0,-316.5"/>
<text text-anchor="middle" x="62" y="-323.5" font-family="Helvetica,sans-Serif" font-size="10.00">ICustomAttributeProvider</text>
</a>
</g>
</g>
<!-- Node13&#45;&gt;Node12 -->
<g id="edge4" class="edge"><title>Node13&#45;&gt;Node12</title>
<path fill="none" stroke="midnightblue" d="M78.4339,-309.416C88.9236,-299.469 102.133,-286.943 110.81,-278.715"/>
<polygon fill="midnightblue" stroke="midnightblue" points="75.9104,-306.986 71.0625,-316.406 80.7271,-312.065 75.9104,-306.986"/>
</g>
<!-- Node14 -->
<g id="node6" class="node"><title>Node14</title>
<g id="a_node6"><a xlink:href="interface_system_1_1_runtime_1_1_interop_services_1_1___member_info.html" target="_top" xlink:title="Exposes the public members of the T:System.Reflection.MemberInfo class to unmanaged code.">
<polygon fill="none" stroke="black" points="142,-316.5 142,-335.5 214,-335.5 214,-316.5 142,-316.5"/>
<text text-anchor="middle" x="178" y="-323.5" font-family="Helvetica,sans-Serif" font-size="10.00">_MemberInfo</text>
</a>
</g>
</g>
<!-- Node14&#45;&gt;Node12 -->
<g id="edge5" class="edge"><title>Node14&#45;&gt;Node12</title>
<path fill="none" stroke="midnightblue" d="M161.566,-309.416C151.076,-299.469 137.867,-286.943 129.19,-278.715"/>
<polygon fill="midnightblue" stroke="midnightblue" points="159.273,-312.065 168.938,-316.406 164.09,-306.986 159.273,-312.065"/>
</g>
<!-- Node15 -->
<g id="node7" class="node"><title>Node15</title>
<g id="a_node7"><a xlink:href="interface_system_1_1_runtime_1_1_interop_services_1_1___type.html" target="_top" xlink:title="Exposes the public members of the T:System.Type class to the unmanaged code.">
<polygon fill="none" stroke="black" points="278.5,-259.5 278.5,-278.5 321.5,-278.5 321.5,-259.5 278.5,-259.5"/>
<text text-anchor="middle" x="300" y="-266.5" font-family="Helvetica,sans-Serif" font-size="10.00">_Type</text>
</a>
</g>
</g>
<!-- Node15&#45;&gt;Node11 -->
<g id="edge6" class="edge"><title>Node15&#45;&gt;Node11</title>
<path fill="none" stroke="midnightblue" d="M317.824,-251.975C330.752,-238.346 344.307,-218.429 334,-202 311.459,-166.07 259.306,-152.924 231.038,-148.326"/>
<polygon fill="midnightblue" stroke="midnightblue" points="315.151,-249.695 310.471,-259.2 320.057,-254.688 315.151,-249.695"/>
</g>
<!-- Node15&#45;&gt;Node17 -->
<g id="edge10" class="edge"><title>Node15&#45;&gt;Node17</title>
<path fill="none" stroke="midnightblue" d="M277.319,-253.824C260.968,-243.605 239.437,-230.148 225.653,-221.533"/>
<polygon fill="midnightblue" stroke="midnightblue" points="275.915,-257.074 286.25,-259.406 279.625,-251.138 275.915,-257.074"/>
</g>
<!-- Node16 -->
<g id="node8" class="node"><title>Node16</title>
<g id="a_node8"><a xlink:href="interface_system_1_1_reflection_1_1_i_reflect.html" target="_top" xlink:title="Interoperates with the IDispatch interface.">
<polygon fill="none" stroke="black" points="177.5,-259.5 177.5,-278.5 226.5,-278.5 226.5,-259.5 177.5,-259.5"/>
<text text-anchor="middle" x="202" y="-266.5" font-family="Helvetica,sans-Serif" font-size="10.00">IReflect</text>
</a>
</g>
</g>
<!-- Node16&#45;&gt;Node11 -->
<g id="edge7" class="edge"><title>Node16&#45;&gt;Node11</title>
<path fill="none" stroke="midnightblue" d="M184.561,-252.225C172.434,-239.25 159.514,-220.113 166,-202 173.041,-182.337 190.292,-164.628 201.552,-154.607"/>
<polygon fill="midnightblue" stroke="midnightblue" points="182.268,-254.88 191.829,-259.444 187.201,-249.914 182.268,-254.88"/>
</g>
<!-- Node16&#45;&gt;Node17 -->
<g id="edge11" class="edge"><title>Node16&#45;&gt;Node17</title>
<path fill="none" stroke="midnightblue" d="M205.378,-249.423C207.081,-240.054 209.066,-229.136 210.415,-221.715"/>
<polygon fill="midnightblue" stroke="midnightblue" points="201.908,-248.941 203.563,-259.406 208.795,-250.194 201.908,-248.941"/>
</g>
<!-- Node17&#45;&gt;Node9 -->
<g id="edge14" class="edge"><title>Node17&#45;&gt;Node9</title>
<path fill="none" stroke="#9a32cd" stroke-dasharray="5,2" d="M254.459,-198.304C261.708,-194.619 268.621,-189.932 274,-184 319.17,-134.188 327.942,-47.5027 329.614,-19.787"/>
<polygon fill="#9a32cd" stroke="#9a32cd" points="252.886,-195.174 245.188,-202.454 255.746,-201.563 252.886,-195.174"/>
<text text-anchor="middle" x="368.5" y="-109" font-family="Helvetica,sans-Serif" font-size="10.00"> BaseType</text>
<text text-anchor="middle" x="368.5" y="-98" font-family="Helvetica,sans-Serif" font-size="10.00">UnderlyingSystemType</text>
</g>
<!-- Node17&#45;&gt;Node11 -->
<g id="edge8" class="edge"><title>Node17&#45;&gt;Node11</title>
<path fill="none" stroke="#9a32cd" stroke-dasharray="5,2" d="M212,-192.037C212,-179.67 212,-164.12 212,-154.627"/>
<polygon fill="#9a32cd" stroke="#9a32cd" points="208.5,-192.234 212,-202.234 215.5,-192.234 208.5,-192.234"/>
<text text-anchor="middle" x="241" y="-176" font-family="Helvetica,sans-Serif" font-size="10.00"> EmptyTypes</text>
</g>
<!-- Node17&#45;&gt;Node17 -->
<g id="edge12" class="edge"><title>Node17&#45;&gt;Node17</title>
<path fill="none" stroke="#9a32cd" stroke-dasharray="5,2" d="M259.186,-216.307C263.957,-215.452 267,-214.017 267,-212 267,-208.773 259.21,-207.034 249.015,-206.782"/>
<polygon fill="#9a32cd" stroke="#9a32cd" points="258.663,-212.84 249.015,-217.218 259.288,-219.812 258.663,-212.84"/>
<text text-anchor="middle" x="296" y="-209.5" font-family="Helvetica,sans-Serif" font-size="10.00"> EmptyTypes</text>
</g>
<!-- Node18 -->
<g id="node10" class="node"><title>Node18</title>
<g id="a_node10"><a xlink:href="interface_system_1_1_reflection_1_1_i_reflectable_type.html" target="_top" xlink:title="Represents a type that you can reflect over.">
<polygon fill="none" stroke="black" points="87,-135.5 87,-154.5 175,-154.5 175,-135.5 87,-135.5"/>
<text text-anchor="middle" x="131" y="-142.5" font-family="Helvetica,sans-Serif" font-size="10.00">IReflectableType</text>
</a>
</g>
</g>
<!-- Node18&#45;&gt;Node10 -->
<g id="edge13" class="edge"><title>Node18&#45;&gt;Node10</title>
<path fill="none" stroke="midnightblue" d="M147.729,-128.304C164.421,-112.642 189.452,-89.1562 202.817,-76.6165"/>
<polygon fill="midnightblue" stroke="midnightblue" points="145.189,-125.887 140.292,-135.282 149.979,-130.992 145.189,-125.887"/>
</g>
</g>
</svg>
