<?xml version="1.0" encoding="UTF-8" standalone="no"?>
<!DOCTYPE svg PUBLIC "-//W3C//DTD SVG 1.1//EN"
 "http://www.w3.org/Graphics/SVG/1.1/DTD/svg11.dtd">
<!-- Generated by graphviz version 2.38.0 (20140413.2041)
 -->
<!-- Title: System.Security.Policy.StrongName Pages: 1 -->
<svg width="380pt" height="84pt"
 viewBox="0.00 0.00 379.50 84.00" xmlns="http://www.w3.org/2000/svg" xmlns:xlink="http://www.w3.org/1999/xlink">
<g id="graph0" class="graph" transform="scale(1 1) rotate(0) translate(4 80)">
<title>System.Security.Policy.StrongName</title>
<!-- Node0 -->
<g id="node1" class="node"><title>Node0</title>
<g id="a_node1"><a xlink:title="Provides the strong name of a code assembly as evidence for policy evaluation. This class cannot be i...">
<polygon fill="#bfbfbf" stroke="black" points="74,-0.5 74,-19.5 250,-19.5 250,-0.5 74,-0.5"/>
<text text-anchor="middle" x="162" y="-7.5" font-family="Helvetica,sans-Serif" font-size="10.00">System.Security.Policy.StrongName</text>
</a>
</g>
</g>
<!-- Node1 -->
<g id="node2" class="node"><title>Node1</title>
<g id="a_node2"><a xlink:href="class_system_1_1_security_1_1_policy_1_1_evidence_base.html" target="_top" xlink:title="Provides a base class from which all objects to be used as evidence must derive.">
<polygon fill="none" stroke="black" points="0,-56.5 0,-75.5 78,-75.5 78,-56.5 0,-56.5"/>
<text text-anchor="middle" x="39" y="-63.5" font-family="Helvetica,sans-Serif" font-size="10.00">EvidenceBase</text>
</a>
</g>
</g>
<!-- Node1&#45;&gt;Node0 -->
<g id="edge1" class="edge"><title>Node1&#45;&gt;Node0</title>
<path fill="none" stroke="midnightblue" d="M67.7734,-52.3678C90.8074,-42.2553 122.484,-28.3486 142.601,-19.5164"/>
<polygon fill="midnightblue" stroke="midnightblue" points="66.2392,-49.2188 58.4897,-56.4435 69.0532,-55.6283 66.2392,-49.2188"/>
</g>
<!-- Node2 -->
<g id="node3" class="node"><title>Node2</title>
<g id="a_node3"><a xlink:href="interface_system_1_1_security_1_1_policy_1_1_i_identity_permission_factory.html" target="_top" xlink:title="Defines the method that creates a new identity permission.">
<polygon fill="none" stroke="black" points="96,-56.5 96,-75.5 228,-75.5 228,-56.5 96,-56.5"/>
<text text-anchor="middle" x="162" y="-63.5" font-family="Helvetica,sans-Serif" font-size="10.00">IIdentityPermissionFactory</text>
</a>
</g>
</g>
<!-- Node2&#45;&gt;Node0 -->
<g id="edge2" class="edge"><title>Node2&#45;&gt;Node0</title>
<path fill="none" stroke="midnightblue" d="M162,-45.8045C162,-36.9102 162,-26.7798 162,-19.7511"/>
<polygon fill="midnightblue" stroke="midnightblue" points="158.5,-46.083 162,-56.083 165.5,-46.083 158.5,-46.083"/>
</g>
<!-- Node3 -->
<g id="node4" class="node"><title>Node3</title>
<g id="a_node4"><a xlink:href="interface_system_1_1_security_1_1_policy_1_1_i_delay_evaluated_evidence.html" target="_top" xlink:title=" ">
<polygon fill="none" stroke="black" points="246.5,-56.5 246.5,-75.5 371.5,-75.5 371.5,-56.5 246.5,-56.5"/>
<text text-anchor="middle" x="309" y="-63.5" font-family="Helvetica,sans-Serif" font-size="10.00">IDelayEvaluatedEvidence</text>
</a>
</g>
</g>
<!-- Node3&#45;&gt;Node0 -->
<g id="edge3" class="edge"><title>Node3&#45;&gt;Node0</title>
<path fill="none" stroke="midnightblue" d="M276.077,-52.9058C248.44,-42.7536 209.656,-28.5063 185.184,-19.5164"/>
<polygon fill="midnightblue" stroke="midnightblue" points="275.114,-56.2806 285.707,-56.4435 277.528,-49.71 275.114,-56.2806"/>
</g>
</g>
</svg>
