<?xml version="1.0" encoding="UTF-8" standalone="no"?>
<!DOCTYPE svg PUBLIC "-//W3C//DTD SVG 1.1//EN"
 "http://www.w3.org/Graphics/SVG/1.1/DTD/svg11.dtd">
<!-- Generated by graphviz version 2.38.0 (20140413.2041)
 -->
<!-- Title: System.Threading.ManualResetEvent Pages: 1 -->
<svg width="200pt" height="207pt"
 viewBox="0.00 0.00 199.50 207.00" xmlns="http://www.w3.org/2000/svg" xmlns:xlink="http://www.w3.org/1999/xlink">
<g id="graph0" class="graph" transform="scale(1 1) rotate(0) translate(4 203)">
<title>System.Threading.ManualResetEvent</title>
<!-- Node0 -->
<g id="node1" class="node"><title>Node0</title>
<g id="a_node1"><a xlink:title="Notifies one or more waiting threads that an event has occurred. This class cannot be inherited.">
<polygon fill="#bfbfbf" stroke="black" points="27.5,-0.5 27.5,-30.5 182.5,-30.5 182.5,-0.5 27.5,-0.5"/>
<text text-anchor="start" x="35.5" y="-18.5" font-family="Helvetica,sans-Serif" font-size="10.00">System.Threading.ManualReset</text>
<text text-anchor="middle" x="105" y="-7.5" font-family="Helvetica,sans-Serif" font-size="10.00">Event</text>
</a>
</g>
</g>
<!-- Node1 -->
<g id="node2" class="node"><title>Node1</title>
<g id="a_node2"><a xlink:href="class_system_1_1_threading_1_1_event_wait_handle.html" target="_top" xlink:title="Represents a thread synchronization event.">
<polygon fill="none" stroke="black" points="59.5,-67.5 59.5,-86.5 150.5,-86.5 150.5,-67.5 59.5,-67.5"/>
<text text-anchor="middle" x="105" y="-74.5" font-family="Helvetica,sans-Serif" font-size="10.00">EventWaitHandle</text>
</a>
</g>
</g>
<!-- Node1&#45;&gt;Node0 -->
<g id="edge1" class="edge"><title>Node1&#45;&gt;Node0</title>
<path fill="none" stroke="midnightblue" d="M105,-57.2349C105,-48.5864 105,-38.4969 105,-30.523"/>
<polygon fill="midnightblue" stroke="midnightblue" points="101.5,-57.4751 105,-67.4751 108.5,-57.4751 101.5,-57.4751"/>
</g>
<!-- Node2 -->
<g id="node3" class="node"><title>Node2</title>
<g id="a_node3"><a xlink:href="class_system_1_1_threading_1_1_wait_handle.html" target="_top" xlink:title="Encapsulates operating system–specific objects that wait for exclusive access to shared resources.">
<polygon fill="none" stroke="black" points="71.5,-123.5 71.5,-142.5 138.5,-142.5 138.5,-123.5 71.5,-123.5"/>
<text text-anchor="middle" x="105" y="-130.5" font-family="Helvetica,sans-Serif" font-size="10.00">WaitHandle</text>
</a>
</g>
</g>
<!-- Node2&#45;&gt;Node1 -->
<g id="edge2" class="edge"><title>Node2&#45;&gt;Node1</title>
<path fill="none" stroke="midnightblue" d="M105,-112.805C105,-103.91 105,-93.7798 105,-86.7511"/>
<polygon fill="midnightblue" stroke="midnightblue" points="101.5,-113.083 105,-123.083 108.5,-113.083 101.5,-113.083"/>
</g>
<!-- Node3 -->
<g id="node4" class="node"><title>Node3</title>
<g id="a_node4"><a xlink:href="class_system_1_1_marshal_by_ref_object.html" target="_top" xlink:title="Enables access to objects across application domain boundaries in applications that support remoting.">
<polygon fill="none" stroke="black" points="0,-179.5 0,-198.5 106,-198.5 106,-179.5 0,-179.5"/>
<text text-anchor="middle" x="53" y="-186.5" font-family="Helvetica,sans-Serif" font-size="10.00">MarshalByRefObject</text>
</a>
</g>
</g>
<!-- Node3&#45;&gt;Node2 -->
<g id="edge3" class="edge"><title>Node3&#45;&gt;Node2</title>
<path fill="none" stroke="midnightblue" d="M68.6794,-171.718C77.8447,-162.2 89.0526,-150.561 96.573,-142.751"/>
<polygon fill="midnightblue" stroke="midnightblue" points="66.0021,-169.452 61.5867,-179.083 71.0443,-174.308 66.0021,-169.452"/>
</g>
<!-- Node4 -->
<g id="node5" class="node"><title>Node4</title>
<g id="a_node5"><a xlink:href="interface_system_1_1_i_disposable.html" target="_top" xlink:title="Provides a mechanism for releasing unmanaged resources.To browse the .NET Framework source code for t...">
<polygon fill="none" stroke="black" points="124.5,-179.5 124.5,-198.5 191.5,-198.5 191.5,-179.5 124.5,-179.5"/>
<text text-anchor="middle" x="158" y="-186.5" font-family="Helvetica,sans-Serif" font-size="10.00">IDisposable</text>
</a>
</g>
</g>
<!-- Node4&#45;&gt;Node2 -->
<g id="edge4" class="edge"><title>Node4&#45;&gt;Node2</title>
<path fill="none" stroke="midnightblue" d="M142.019,-171.718C132.678,-162.2 121.254,-150.561 113.589,-142.751"/>
<polygon fill="midnightblue" stroke="midnightblue" points="139.746,-174.398 149.248,-179.083 144.741,-169.494 139.746,-174.398"/>
</g>
</g>
</svg>
