<?xml version="1.0" encoding="UTF-8" standalone="no"?>
<!DOCTYPE svg PUBLIC "-//W3C//DTD SVG 1.1//EN"
 "http://www.w3.org/Graphics/SVG/1.1/DTD/svg11.dtd">
<!-- Generated by graphviz version 2.38.0 (20140413.2041)
 -->
<!-- Title: System.Net.Mail.SmtpClient Pages: 1 -->
<svg width="415pt" height="88pt"
 viewBox="0.00 0.00 415.00 88.00" xmlns="http://www.w3.org/2000/svg" xmlns:xlink="http://www.w3.org/1999/xlink">
<g id="graph0" class="graph" transform="scale(1 1) rotate(0) translate(4 84)">
<title>System.Net.Mail.SmtpClient</title>
<!-- Node2 -->
<g id="node1" class="node"><title>Node2</title>
<g id="a_node1"><a xlink:title="Allows applications to send e&#45;mail by using the Simple Mail Transfer Protocol (SMTP).">
<polygon fill="#bfbfbf" stroke="black" points="267,-35.5 267,-54.5 407,-54.5 407,-35.5 267,-35.5"/>
<text text-anchor="middle" x="337" y="-42.5" font-family="Helvetica,sans-Serif" font-size="10.00">System.Net.Mail.SmtpClient</text>
</a>
</g>
</g>
<!-- Node3 -->
<g id="node2" class="node"><title>Node3</title>
<g id="a_node2"><a xlink:href="interface_system_1_1_i_disposable.html" target="_top" xlink:title="Provides a mechanism for releasing unmanaged resources.To browse the .NET Framework source code for t...">
<polygon fill="none" stroke="black" points="43.5,-60.5 43.5,-79.5 110.5,-79.5 110.5,-60.5 43.5,-60.5"/>
<text text-anchor="middle" x="77" y="-67.5" font-family="Helvetica,sans-Serif" font-size="10.00">IDisposable</text>
</a>
</g>
</g>
<!-- Node3&#45;&gt;Node2 -->
<g id="edge1" class="edge"><title>Node3&#45;&gt;Node2</title>
<path fill="none" stroke="midnightblue" d="M120.815,-65.8513C160.517,-62.0042 220.293,-56.2119 266.776,-51.7078"/>
<polygon fill="midnightblue" stroke="midnightblue" points="120.292,-62.3855 110.676,-66.8337 120.967,-69.3529 120.292,-62.3855"/>
</g>
<!-- Node4 -->
<g id="node3" class="node"><title>Node4</title>
<g id="a_node3"><a xlink:href="class_system_1_1_security_1_1_cryptography_1_1_x509_certificates_1_1_x509_certificate_collection.html" target="_top" xlink:title="Defines a collection that stores T:System.Security.Cryptography.X509Certificates.X509Certificate obje...">
<polygon fill="none" stroke="red" points="0,-0.5 0,-41.5 154,-41.5 154,-0.5 0,-0.5"/>
<text text-anchor="start" x="8" y="-29.5" font-family="Helvetica,sans-Serif" font-size="10.00">System.Security.Cryptography.</text>
<text text-anchor="start" x="8" y="-18.5" font-family="Helvetica,sans-Serif" font-size="10.00">X509Certificates.X509Certificate</text>
<text text-anchor="middle" x="77" y="-7.5" font-family="Helvetica,sans-Serif" font-size="10.00">Collection</text>
</a>
</g>
</g>
<!-- Node4&#45;&gt;Node2 -->
<g id="edge2" class="edge"><title>Node4&#45;&gt;Node2</title>
<path fill="none" stroke="#9a32cd" stroke-dasharray="5,2" d="M164.207,-29.0193C197.537,-32.1197 235.165,-35.62 266.691,-38.5527"/>
<polygon fill="#9a32cd" stroke="#9a32cd" points="164.294,-25.5124 154.013,-28.071 163.646,-32.4823 164.294,-25.5124"/>
<text text-anchor="middle" x="210.5" y="-39" font-family="Helvetica,sans-Serif" font-size="10.00"> ClientCertificates</text>
</g>
</g>
</svg>
