<?xml version="1.0" encoding="UTF-8" standalone="no"?>
<!DOCTYPE svg PUBLIC "-//W3C//DTD SVG 1.1//EN"
 "http://www.w3.org/Graphics/SVG/1.1/DTD/svg11.dtd">
<!-- Generated by graphviz version 2.38.0 (20140413.2041)
 -->
<!-- Title: System.Runtime.Remoting.Messaging.MethodCallMessageWrapper Pages: 1 -->
<svg width="348pt" height="231pt"
 viewBox="0.00 0.00 348.00 231.00" xmlns="http://www.w3.org/2000/svg" xmlns:xlink="http://www.w3.org/1999/xlink">
<g id="graph0" class="graph" transform="scale(1 1) rotate(0) translate(4 227)">
<title>System.Runtime.Remoting.Messaging.MethodCallMessageWrapper</title>
<!-- Node5 -->
<g id="node1" class="node"><title>Node5</title>
<g id="a_node1"><a xlink:title="Implements the T:System.Runtime.Remoting.Messaging.IMethodCallMessage interface to create a request m...">
<polygon fill="#bfbfbf" stroke="black" points="96.5,-0.5 96.5,-30.5 288.5,-30.5 288.5,-0.5 96.5,-0.5"/>
<text text-anchor="start" x="104.5" y="-18.5" font-family="Helvetica,sans-Serif" font-size="10.00">System.Runtime.Remoting.</text>
<text text-anchor="middle" x="192.5" y="-7.5" font-family="Helvetica,sans-Serif" font-size="10.00">Messaging.MethodCallMessageWrapper</text>
</a>
</g>
</g>
<!-- Node6 -->
<g id="node2" class="node"><title>Node6</title>
<g id="a_node2"><a xlink:href="class_system_1_1_runtime_1_1_remoting_1_1_messaging_1_1_internal_message_wrapper.html" target="_top" xlink:title="Wraps remoting data for passing between message sinks, either for requests from client to server or f...">
<polygon fill="none" stroke="black" points="9,-68.5 9,-87.5 134,-87.5 134,-68.5 9,-68.5"/>
<text text-anchor="middle" x="71.5" y="-75.5" font-family="Helvetica,sans-Serif" font-size="10.00">InternalMessageWrapper</text>
</a>
</g>
</g>
<!-- Node6&#45;&gt;Node5 -->
<g id="edge1" class="edge"><title>Node6&#45;&gt;Node5</title>
<path fill="none" stroke="midnightblue" d="M97.586,-63.957C117.246,-54.1268 144.171,-40.6644 164.323,-30.5885"/>
<polygon fill="midnightblue" stroke="midnightblue" points="95.9587,-60.8575 88.5797,-68.4601 99.0893,-67.1185 95.9587,-60.8575"/>
</g>
<!-- Node7 -->
<g id="node3" class="node"><title>Node7</title>
<g id="a_node3"><a xlink:href="interface_system_1_1_runtime_1_1_remoting_1_1_messaging_1_1_i_message.html" target="_top" xlink:title="Contains communication data sent between cooperating message sinks.">
<polygon fill="none" stroke="black" points="0,-135.5 0,-165.5 137,-165.5 137,-135.5 0,-135.5"/>
<text text-anchor="start" x="8" y="-153.5" font-family="Helvetica,sans-Serif" font-size="10.00">System.Runtime.Remoting.</text>
<text text-anchor="middle" x="68.5" y="-142.5" font-family="Helvetica,sans-Serif" font-size="10.00">Messaging.IMessage</text>
</a>
</g>
</g>
<!-- Node7&#45;&gt;Node6 -->
<g id="edge2" class="edge"><title>Node7&#45;&gt;Node6</title>
<path fill="none" stroke="#9a32cd" stroke-dasharray="5,2" d="M68.8461,-124.934C68.9933,-118.751 69.2027,-112.13 69.5,-106 69.8006,-99.8028 70.3229,-92.818 70.7584,-87.5055"/>
<polygon fill="#9a32cd" stroke="#9a32cd" points="65.338,-125.322 68.6426,-135.388 72.3367,-125.458 65.338,-125.322"/>
<text text-anchor="middle" x="110.5" y="-109" font-family="Helvetica,sans-Serif" font-size="10.00"> WrappedMessage</text>
</g>
<!-- Node8 -->
<g id="node4" class="node"><title>Node8</title>
<g id="a_node4"><a xlink:href="interface_system_1_1_runtime_1_1_remoting_1_1_messaging_1_1_i_method_call_message.html" target="_top" xlink:title="Defines the method call message interface.">
<polygon fill="none" stroke="black" points="194,-68.5 194,-87.5 301,-87.5 301,-68.5 194,-68.5"/>
<text text-anchor="middle" x="247.5" y="-75.5" font-family="Helvetica,sans-Serif" font-size="10.00">IMethodCallMessage</text>
</a>
</g>
</g>
<!-- Node8&#45;&gt;Node5 -->
<g id="edge3" class="edge"><title>Node8&#45;&gt;Node5</title>
<path fill="none" stroke="midnightblue" d="M232.794,-60.8232C224.28,-51.4582 213.661,-39.7776 205.462,-30.7587"/>
<polygon fill="midnightblue" stroke="midnightblue" points="230.303,-63.2868 239.62,-68.3318 235.483,-58.578 230.303,-63.2868"/>
</g>
<!-- Node9 -->
<g id="node5" class="node"><title>Node9</title>
<g id="a_node5"><a xlink:href="interface_system_1_1_runtime_1_1_remoting_1_1_messaging_1_1_i_method_message.html" target="_top" xlink:title="Defines the method message interface.">
<polygon fill="none" stroke="black" points="249,-141 249,-160 340,-160 340,-141 249,-141"/>
<text text-anchor="middle" x="294.5" y="-148" font-family="Helvetica,sans-Serif" font-size="10.00">IMethodMessage</text>
</a>
</g>
</g>
<!-- Node9&#45;&gt;Node5 -->
<g id="edge7" class="edge"><title>Node9&#45;&gt;Node5</title>
<path fill="none" stroke="midnightblue" d="M304.949,-131.746C313.767,-114.2 323.11,-87.2621 310.5,-68 298.686,-49.9533 279.011,-38.1943 259.081,-30.547"/>
<polygon fill="midnightblue" stroke="midnightblue" points="301.694,-130.405 299.988,-140.862 307.842,-133.751 301.694,-130.405"/>
</g>
<!-- Node9&#45;&gt;Node8 -->
<g id="edge4" class="edge"><title>Node9&#45;&gt;Node8</title>
<path fill="none" stroke="midnightblue" d="M283.163,-132.495C273.747,-118.371 260.734,-98.8505 253.31,-87.7154"/>
<polygon fill="midnightblue" stroke="midnightblue" points="280.278,-134.476 288.737,-140.855 286.102,-130.593 280.278,-134.476"/>
</g>
<!-- Node10 -->
<g id="node6" class="node"><title>Node10</title>
<g id="a_node6"><a xlink:href="interface_system_1_1_runtime_1_1_remoting_1_1_messaging_1_1_i_message.html" target="_top" xlink:title="Contains communication data sent between cooperating message sinks.">
<polygon fill="none" stroke="black" points="191,-203.5 191,-222.5 250,-222.5 250,-203.5 191,-203.5"/>
<text text-anchor="middle" x="220.5" y="-210.5" font-family="Helvetica,sans-Serif" font-size="10.00">IMessage</text>
</a>
</g>
</g>
<!-- Node10&#45;&gt;Node5 -->
<g id="edge8" class="edge"><title>Node10&#45;&gt;Node5</title>
<path fill="none" stroke="midnightblue" d="M212.112,-194.127C200.387,-167.22 180.91,-114.498 184.5,-68 185.475,-55.3701 187.776,-41.1519 189.661,-30.8599"/>
<polygon fill="midnightblue" stroke="midnightblue" points="208.994,-195.729 216.299,-203.403 215.375,-192.849 208.994,-195.729"/>
</g>
<!-- Node10&#45;&gt;Node8 -->
<g id="edge6" class="edge"><title>Node10&#45;&gt;Node8</title>
<path fill="none" stroke="midnightblue" d="M224.33,-193.133C230.268,-163.884 241.458,-108.762 245.757,-87.5857"/>
<polygon fill="midnightblue" stroke="midnightblue" points="220.831,-192.777 222.272,-203.273 227.691,-194.17 220.831,-192.777"/>
</g>
<!-- Node10&#45;&gt;Node9 -->
<g id="edge5" class="edge"><title>Node10&#45;&gt;Node9</title>
<path fill="none" stroke="midnightblue" d="M239.189,-196.72C253.343,-185.149 272.276,-169.67 283.917,-160.152"/>
<polygon fill="midnightblue" stroke="midnightblue" points="236.629,-194.293 231.102,-203.332 241.06,-199.712 236.629,-194.293"/>
</g>
</g>
</svg>
