<?xml version="1.0" encoding="UTF-8" standalone="no"?>
<!DOCTYPE svg PUBLIC "-//W3C//DTD SVG 1.1//EN"
 "http://www.w3.org/Graphics/SVG/1.1/DTD/svg11.dtd">
<!-- Generated by graphviz version 2.38.0 (20140413.2041)
 -->
<!-- Title: System.Runtime.CompilerServices.ReadOnlyCollectionBuilder&lt; T &gt; Pages: 1 -->
<svg width="438pt" height="207pt"
 viewBox="0.00 0.00 438.00 207.00" xmlns="http://www.w3.org/2000/svg" xmlns:xlink="http://www.w3.org/1999/xlink">
<g id="graph0" class="graph" transform="scale(1 1) rotate(0) translate(4 203)">
<title>System.Runtime.CompilerServices.ReadOnlyCollectionBuilder&lt; T &gt;</title>
<!-- Node0 -->
<g id="node1" class="node"><title>Node0</title>
<g id="a_node1"><a xlink:title="The builder for read only collection.">
<polygon fill="#bfbfbf" stroke="black" points="179,-0.5 179,-30.5 349,-30.5 349,-0.5 179,-0.5"/>
<text text-anchor="start" x="187" y="-18.5" font-family="Helvetica,sans-Serif" font-size="10.00">System.Runtime.CompilerServices.</text>
<text text-anchor="middle" x="264" y="-7.5" font-family="Helvetica,sans-Serif" font-size="10.00">ReadOnlyCollectionBuilder&lt; T &gt;</text>
</a>
</g>
</g>
<!-- Node1 -->
<g id="node2" class="node"><title>Node1</title>
<g id="a_node2"><a xlink:href="interface_system_1_1_collections_1_1_i_list.html" target="_top" xlink:title=" ">
<polygon fill="none" stroke="red" points="0,-67.5 0,-86.5 58,-86.5 58,-67.5 0,-67.5"/>
<text text-anchor="middle" x="29" y="-74.5" font-family="Helvetica,sans-Serif" font-size="10.00">IList&lt; T &gt;</text>
</a>
</g>
</g>
<!-- Node1&#45;&gt;Node0 -->
<g id="edge1" class="edge"><title>Node1&#45;&gt;Node0</title>
<path fill="none" stroke="midnightblue" d="M68.0343,-66.1169C106.315,-56.4245 165.06,-41.5508 208.252,-30.6148"/>
<polygon fill="midnightblue" stroke="midnightblue" points="67.1228,-62.7371 58.2878,-68.5846 68.841,-69.523 67.1228,-62.7371"/>
</g>
<!-- Node5 -->
<g id="node3" class="node"><title>Node5</title>
<g id="a_node3"><a xlink:href="interface_system_1_1_collections_1_1_i_collection.html" target="_top" xlink:title=" ">
<polygon fill="none" stroke="red" points="76.5,-67.5 76.5,-86.5 161.5,-86.5 161.5,-67.5 76.5,-67.5"/>
<text text-anchor="middle" x="119" y="-74.5" font-family="Helvetica,sans-Serif" font-size="10.00">ICollection&lt; T &gt;</text>
</a>
</g>
</g>
<!-- Node5&#45;&gt;Node0 -->
<g id="edge2" class="edge"><title>Node5&#45;&gt;Node0</title>
<path fill="none" stroke="midnightblue" d="M149.243,-63.5899C172.754,-53.9425 205.372,-40.5575 229.826,-30.523"/>
<polygon fill="midnightblue" stroke="midnightblue" points="147.698,-60.4408 139.775,-67.4751 150.355,-66.9168 147.698,-60.4408"/>
</g>
<!-- Node7 -->
<g id="node4" class="node"><title>Node7</title>
<g id="a_node4"><a xlink:href="interface_system_1_1_collections_1_1_i_enumerable.html" target="_top" xlink:title=" ">
<polygon fill="none" stroke="red" points="180,-67.5 180,-86.5 274,-86.5 274,-67.5 180,-67.5"/>
<text text-anchor="middle" x="227" y="-74.5" font-family="Helvetica,sans-Serif" font-size="10.00">IEnumerable&lt; T &gt;</text>
</a>
</g>
</g>
<!-- Node7&#45;&gt;Node0 -->
<g id="edge3" class="edge"><title>Node7&#45;&gt;Node0</title>
<path fill="none" stroke="midnightblue" d="M237.594,-58.9634C243.195,-49.9564 249.987,-39.0344 255.28,-30.523"/>
<polygon fill="midnightblue" stroke="midnightblue" points="234.61,-57.1348 232.301,-67.4751 240.554,-60.8314 234.61,-57.1348"/>
</g>
<!-- Node4 -->
<g id="node5" class="node"><title>Node4</title>
<g id="a_node5"><a xlink:href="interface_system_1_1_collections_1_1_i_enumerable.html" target="_top" xlink:title="Exposes an enumerator, which supports a simple iteration over a non&#45;generic collection....">
<polygon fill="none" stroke="red" points="304.5,-179.5 304.5,-198.5 375.5,-198.5 375.5,-179.5 304.5,-179.5"/>
<text text-anchor="middle" x="340" y="-186.5" font-family="Helvetica,sans-Serif" font-size="10.00">IEnumerable</text>
</a>
</g>
</g>
<!-- Node4&#45;&gt;Node0 -->
<g id="edge4" class="edge"><title>Node4&#45;&gt;Node0</title>
<path fill="none" stroke="midnightblue" d="M332.019,-169.99C316.835,-135.725 284.075,-61.8019 270.303,-30.7228"/>
<polygon fill="midnightblue" stroke="midnightblue" points="328.875,-171.535 336.127,-179.26 335.275,-168.699 328.875,-171.535"/>
</g>
<!-- Node9 -->
<g id="node6" class="node"><title>Node9</title>
<g id="a_node6"><a xlink:href="interface_system_1_1_collections_1_1_i_list.html" target="_top" xlink:title="Represents a non&#45;generic collection of objects that can be individually accessed by index.">
<polygon fill="none" stroke="black" points="330.5,-67.5 330.5,-86.5 365.5,-86.5 365.5,-67.5 330.5,-67.5"/>
<text text-anchor="middle" x="348" y="-74.5" font-family="Helvetica,sans-Serif" font-size="10.00">IList</text>
</a>
</g>
</g>
<!-- Node4&#45;&gt;Node9 -->
<g id="edge8" class="edge"><title>Node4&#45;&gt;Node9</title>
<path fill="none" stroke="midnightblue" d="M341.357,-169.348C343.109,-145.254 346.087,-104.308 347.375,-86.5914"/>
<polygon fill="midnightblue" stroke="midnightblue" points="337.862,-169.141 340.628,-179.368 344.844,-169.649 337.862,-169.141"/>
</g>
<!-- Node3 -->
<g id="node7" class="node"><title>Node3</title>
<g id="a_node7"><a xlink:href="interface_system_1_1_collections_1_1_i_collection.html" target="_top" xlink:title="Defines size, enumerators, and synchronization methods for all nongeneric collections.">
<polygon fill="none" stroke="red" points="368,-123.5 368,-142.5 430,-142.5 430,-123.5 368,-123.5"/>
<text text-anchor="middle" x="399" y="-130.5" font-family="Helvetica,sans-Serif" font-size="10.00">ICollection</text>
</a>
</g>
</g>
<!-- Node4&#45;&gt;Node3 -->
<g id="edge7" class="edge"><title>Node4&#45;&gt;Node3</title>
<path fill="none" stroke="midnightblue" d="M356.895,-172.537C367.415,-162.909 380.569,-150.869 389.348,-142.834"/>
<polygon fill="midnightblue" stroke="midnightblue" points="354.493,-169.99 349.479,-179.324 359.219,-175.154 354.493,-169.99"/>
</g>
<!-- Node9&#45;&gt;Node0 -->
<g id="edge5" class="edge"><title>Node9&#45;&gt;Node0</title>
<path fill="none" stroke="midnightblue" d="M327.484,-61.468C314.185,-52.0474 296.952,-39.8408 283.797,-30.523"/>
<polygon fill="midnightblue" stroke="midnightblue" points="325.782,-64.551 335.965,-67.4751 329.828,-58.8388 325.782,-64.551"/>
</g>
<!-- Node3&#45;&gt;Node0 -->
<g id="edge9" class="edge"><title>Node3&#45;&gt;Node0</title>
<path fill="none" stroke="midnightblue" d="M395.756,-113.201C392.442,-98.9871 386.014,-79.7987 374,-67 358.18,-50.1469 335.646,-38.4531 315.088,-30.5963"/>
<polygon fill="midnightblue" stroke="midnightblue" points="392.388,-114.204 397.793,-123.316 399.25,-112.822 392.388,-114.204"/>
</g>
<!-- Node3&#45;&gt;Node9 -->
<g id="edge6" class="edge"><title>Node3&#45;&gt;Node9</title>
<path fill="none" stroke="midnightblue" d="M383.622,-115.718C374.633,-106.2 363.641,-94.5608 356.265,-86.7511"/>
<polygon fill="midnightblue" stroke="midnightblue" points="381.168,-118.216 390.578,-123.083 386.257,-113.41 381.168,-118.216"/>
</g>
</g>
</svg>
