<?xml version="1.0" encoding="UTF-8" standalone="no"?>
<!DOCTYPE svg PUBLIC "-//W3C//DTD SVG 1.1//EN"
 "http://www.w3.org/Graphics/SVG/1.1/DTD/svg11.dtd">
<!-- Generated by graphviz version 2.38.0 (20140413.2041)
 -->
<!-- Title: System.Net.WebSockets.ClientWebSocket Pages: 1 -->
<svg width="250pt" height="117pt"
 viewBox="0.00 0.00 249.50 117.00" xmlns="http://www.w3.org/2000/svg" xmlns:xlink="http://www.w3.org/1999/xlink">
<g id="graph0" class="graph" transform="scale(1 1) rotate(0) translate(4 113)">
<title>System.Net.WebSockets.ClientWebSocket</title>
<!-- Node3 -->
<g id="node1" class="node"><title>Node3</title>
<g id="a_node1"><a xlink:title="Provides a client for connecting to WebSocket services.">
<polygon fill="#bfbfbf" stroke="black" points="21.5,-0.5 21.5,-30.5 176.5,-30.5 176.5,-0.5 21.5,-0.5"/>
<text text-anchor="start" x="29.5" y="-18.5" font-family="Helvetica,sans-Serif" font-size="10.00">System.Net.WebSockets.Client</text>
<text text-anchor="middle" x="99" y="-7.5" font-family="Helvetica,sans-Serif" font-size="10.00">WebSocket</text>
</a>
</g>
</g>
<!-- Node4 -->
<g id="node2" class="node"><title>Node4</title>
<g id="a_node2"><a xlink:href="class_system_1_1_net_1_1_web_sockets_1_1_web_socket.html" target="_top" xlink:title="The WebSocket class allows applications to send and receive data after the WebSocket upgrade has comp...">
<polygon fill="none" stroke="red" points="0,-84 0,-103 68,-103 68,-84 0,-84"/>
<text text-anchor="middle" x="34" y="-91" font-family="Helvetica,sans-Serif" font-size="10.00">WebSocket</text>
</a>
</g>
</g>
<!-- Node4&#45;&gt;Node3 -->
<g id="edge1" class="edge"><title>Node4&#45;&gt;Node3</title>
<path fill="none" stroke="midnightblue" d="M47.9916,-76.1406C59.6156,-62.5495 75.9779,-43.4181 87.0094,-30.5198"/>
<polygon fill="midnightblue" stroke="midnightblue" points="45.2962,-73.9073 41.4563,-83.7818 50.6159,-78.4571 45.2962,-73.9073"/>
</g>
<!-- Node6 -->
<g id="node3" class="node"><title>Node6</title>
<g id="a_node3"><a xlink:href="class_system_1_1_net_1_1_web_sockets_1_1_client_web_socket_options.html" target="_top" xlink:title="Options to use with a T:System.Net.WebSockets.ClientWebSocket object.">
<polygon fill="none" stroke="black" points="86.5,-78.5 86.5,-108.5 241.5,-108.5 241.5,-78.5 86.5,-78.5"/>
<text text-anchor="start" x="94.5" y="-96.5" font-family="Helvetica,sans-Serif" font-size="10.00">System.Net.WebSockets.Client</text>
<text text-anchor="middle" x="164" y="-85.5" font-family="Helvetica,sans-Serif" font-size="10.00">WebSocketOptions</text>
</a>
</g>
</g>
<!-- Node6&#45;&gt;Node3 -->
<g id="edge2" class="edge"><title>Node6&#45;&gt;Node3</title>
<path fill="none" stroke="#9a32cd" stroke-dasharray="5,2" d="M145.019,-70.3065C134.094,-57.5329 120.689,-41.8596 111.171,-30.7309"/>
<polygon fill="#9a32cd" stroke="#9a32cd" points="142.614,-72.8802 151.774,-78.205 147.934,-68.3304 142.614,-72.8802"/>
<text text-anchor="middle" x="154.5" y="-52" font-family="Helvetica,sans-Serif" font-size="10.00"> Options</text>
</g>
</g>
</svg>
