<?xml version="1.0" encoding="UTF-8" standalone="no"?>
<!DOCTYPE svg PUBLIC "-//W3C//DTD SVG 1.1//EN"
 "http://www.w3.org/Graphics/SVG/1.1/DTD/svg11.dtd">
<!-- Generated by graphviz version 2.38.0 (20140413.2041)
 -->
<!-- Title: System.CharEnumerator Pages: 1 -->
<svg width="367pt" height="84pt"
 viewBox="0.00 0.00 367.00 84.00" xmlns="http://www.w3.org/2000/svg" xmlns:xlink="http://www.w3.org/1999/xlink">
<g id="graph0" class="graph" transform="scale(1 1) rotate(0) translate(4 80)">
<title>System.CharEnumerator</title>
<!-- Node0 -->
<g id="node1" class="node"><title>Node0</title>
<g id="a_node1"><a xlink:title="Supports iterating over a T:System.String object and reading its individual characters....">
<polygon fill="#bfbfbf" stroke="black" points="107.5,-0.5 107.5,-19.5 231.5,-19.5 231.5,-0.5 107.5,-0.5"/>
<text text-anchor="middle" x="169.5" y="-7.5" font-family="Helvetica,sans-Serif" font-size="10.00">System.CharEnumerator</text>
</a>
</g>
</g>
<!-- Node1 -->
<g id="node2" class="node"><title>Node1</title>
<g id="a_node2"><a xlink:href="interface_system_1_1_collections_1_1_i_enumerator.html" target="_top" xlink:title="Supports a simple iteration over a non&#45;generic collection.">
<polygon fill="none" stroke="black" points="0,-56.5 0,-75.5 69,-75.5 69,-56.5 0,-56.5"/>
<text text-anchor="middle" x="34.5" y="-63.5" font-family="Helvetica,sans-Serif" font-size="10.00">IEnumerator</text>
</a>
</g>
</g>
<!-- Node1&#45;&gt;Node0 -->
<g id="edge1" class="edge"><title>Node1&#45;&gt;Node0</title>
<path fill="none" stroke="midnightblue" d="M65.4057,-52.6377C90.74,-42.504 125.931,-28.4274 148.209,-19.5164"/>
<polygon fill="midnightblue" stroke="midnightblue" points="63.876,-49.4799 55.8912,-56.4435 66.4758,-55.9792 63.876,-49.4799"/>
</g>
<!-- Node2 -->
<g id="node3" class="node"><title>Node2</title>
<g id="a_node3"><a xlink:href="interface_system_1_1_i_cloneable.html" target="_top" xlink:title="Supports cloning, which creates a new instance of a class with the same value as an existing instance...">
<polygon fill="none" stroke="black" points="87.5,-56.5 87.5,-75.5 149.5,-75.5 149.5,-56.5 87.5,-56.5"/>
<text text-anchor="middle" x="118.5" y="-63.5" font-family="Helvetica,sans-Serif" font-size="10.00">ICloneable</text>
</a>
</g>
</g>
<!-- Node2&#45;&gt;Node0 -->
<g id="edge2" class="edge"><title>Node2&#45;&gt;Node0</title>
<path fill="none" stroke="midnightblue" d="M133.878,-48.7175C142.867,-39.1997 153.859,-27.5608 161.235,-19.7511"/>
<polygon fill="midnightblue" stroke="midnightblue" points="131.243,-46.4096 126.922,-56.083 136.332,-51.216 131.243,-46.4096"/>
</g>
<!-- Node3 -->
<g id="node4" class="node"><title>Node3</title>
<g id="a_node4"><a xlink:href="interface_system_1_1_collections_1_1_i_enumerator.html" target="_top" xlink:title=" ">
<polygon fill="none" stroke="red" points="167.5,-56.5 167.5,-75.5 273.5,-75.5 273.5,-56.5 167.5,-56.5"/>
<text text-anchor="middle" x="220.5" y="-63.5" font-family="Helvetica,sans-Serif" font-size="10.00">IEnumerator&lt; char &gt;</text>
</a>
</g>
</g>
<!-- Node3&#45;&gt;Node0 -->
<g id="edge3" class="edge"><title>Node3&#45;&gt;Node0</title>
<path fill="none" stroke="midnightblue" d="M205.122,-48.7175C196.133,-39.1997 185.141,-27.5608 177.765,-19.7511"/>
<polygon fill="midnightblue" stroke="midnightblue" points="202.668,-51.216 212.078,-56.083 207.757,-46.4096 202.668,-51.216"/>
</g>
<!-- Node5 -->
<g id="node5" class="node"><title>Node5</title>
<g id="a_node5"><a xlink:href="interface_system_1_1_i_disposable.html" target="_top" xlink:title="Provides a mechanism for releasing unmanaged resources.To browse the .NET Framework source code for t...">
<polygon fill="none" stroke="black" points="292,-56.5 292,-75.5 359,-75.5 359,-56.5 292,-56.5"/>
<text text-anchor="middle" x="325.5" y="-63.5" font-family="Helvetica,sans-Serif" font-size="10.00">IDisposable</text>
</a>
</g>
</g>
<!-- Node5&#45;&gt;Node0 -->
<g id="edge4" class="edge"><title>Node5&#45;&gt;Node0</title>
<path fill="none" stroke="midnightblue" d="M291.33,-53.172C261.956,-43.0039 220.302,-28.5852 194.103,-19.5164"/>
<polygon fill="midnightblue" stroke="midnightblue" points="290.187,-56.4798 300.781,-56.4435 292.476,-49.8649 290.187,-56.4798"/>
</g>
</g>
</svg>
