<?xml version="1.0" encoding="UTF-8" standalone="no"?>
<!DOCTYPE svg PUBLIC "-//W3C//DTD SVG 1.1//EN"
 "http://www.w3.org/Graphics/SVG/1.1/DTD/svg11.dtd">
<!-- Generated by graphviz version 2.38.0 (20140413.2041)
 -->
<!-- Title: System.Runtime.Remoting.Channels.BaseChannelSinkWithProperties Pages: 1 -->
<svg width="175pt" height="274pt"
 viewBox="0.00 0.00 175.00 274.00" xmlns="http://www.w3.org/2000/svg" xmlns:xlink="http://www.w3.org/1999/xlink">
<g id="graph0" class="graph" transform="scale(1 1) rotate(0) translate(4 270)">
<title>System.Runtime.Remoting.Channels.BaseChannelSinkWithProperties</title>
<!-- Node0 -->
<g id="node1" class="node"><title>Node0</title>
<g id="a_node1"><a xlink:title="Provides a base implementation for channel sinks that want to expose a dictionary interface to their ...">
<polygon fill="#bfbfbf" stroke="black" points="4.5,-0.5 4.5,-41.5 162.5,-41.5 162.5,-0.5 4.5,-0.5"/>
<text text-anchor="start" x="12.5" y="-29.5" font-family="Helvetica,sans-Serif" font-size="10.00">System.Runtime.Remoting.</text>
<text text-anchor="start" x="12.5" y="-18.5" font-family="Helvetica,sans-Serif" font-size="10.00">Channels.BaseChannelSinkWith</text>
<text text-anchor="middle" x="83.5" y="-7.5" font-family="Helvetica,sans-Serif" font-size="10.00">Properties</text>
</a>
</g>
</g>
<!-- Node1 -->
<g id="node2" class="node"><title>Node1</title>
<g id="a_node2"><a xlink:href="class_system_1_1_runtime_1_1_remoting_1_1_channels_1_1_base_channel_object_with_properties.html" target="_top" xlink:title="Provides a base implementation of a channel object that exposes a dictionary interface to its propert...">
<polygon fill="none" stroke="black" points="0,-78.5 0,-97.5 167,-97.5 167,-78.5 0,-78.5"/>
<text text-anchor="middle" x="83.5" y="-85.5" font-family="Helvetica,sans-Serif" font-size="10.00">BaseChannelObjectWithProperties</text>
</a>
</g>
</g>
<!-- Node1&#45;&gt;Node0 -->
<g id="edge1" class="edge"><title>Node1&#45;&gt;Node0</title>
<path fill="none" stroke="midnightblue" d="M83.5,-68.037C83.5,-59.7084 83.5,-49.9358 83.5,-41.5421"/>
<polygon fill="midnightblue" stroke="midnightblue" points="80.0001,-68.2338 83.5,-78.2338 87.0001,-68.2338 80.0001,-68.2338"/>
</g>
<!-- Node2 -->
<g id="node3" class="node"><title>Node2</title>
<g id="a_node3"><a xlink:href="interface_system_1_1_collections_1_1_i_dictionary.html" target="_top" xlink:title="Represents a nongeneric collection of key/value pairs.">
<polygon fill="none" stroke="black" points="52.5,-134.5 52.5,-153.5 114.5,-153.5 114.5,-134.5 52.5,-134.5"/>
<text text-anchor="middle" x="83.5" y="-141.5" font-family="Helvetica,sans-Serif" font-size="10.00">IDictionary</text>
</a>
</g>
</g>
<!-- Node2&#45;&gt;Node1 -->
<g id="edge2" class="edge"><title>Node2&#45;&gt;Node1</title>
<path fill="none" stroke="midnightblue" d="M83.5,-123.805C83.5,-114.91 83.5,-104.78 83.5,-97.7511"/>
<polygon fill="midnightblue" stroke="midnightblue" points="80.0001,-124.083 83.5,-134.083 87.0001,-124.083 80.0001,-124.083"/>
</g>
<!-- Node3 -->
<g id="node4" class="node"><title>Node3</title>
<g id="a_node4"><a xlink:href="interface_system_1_1_collections_1_1_i_collection.html" target="_top" xlink:title="Defines size, enumerators, and synchronization methods for all nongeneric collections.">
<polygon fill="none" stroke="black" points="100.5,-190.5 100.5,-209.5 162.5,-209.5 162.5,-190.5 100.5,-190.5"/>
<text text-anchor="middle" x="131.5" y="-197.5" font-family="Helvetica,sans-Serif" font-size="10.00">ICollection</text>
</a>
</g>
</g>
<!-- Node3&#45;&gt;Node1 -->
<g id="edge6" class="edge"><title>Node3&#45;&gt;Node1</title>
<path fill="none" stroke="midnightblue" d="M132.095,-179.766C131.815,-166.383 130.02,-148.424 123.5,-134 116.869,-119.332 103.741,-106.027 94.3322,-97.753"/>
<polygon fill="midnightblue" stroke="midnightblue" points="128.593,-180.125 132.032,-190.146 135.593,-180.167 128.593,-180.125"/>
</g>
<!-- Node3&#45;&gt;Node2 -->
<g id="edge3" class="edge"><title>Node3&#45;&gt;Node2</title>
<path fill="none" stroke="midnightblue" d="M116.772,-182.431C108.36,-172.967 98.1513,-161.483 91.2787,-153.751"/>
<polygon fill="midnightblue" stroke="midnightblue" points="114.314,-184.934 123.574,-190.083 119.546,-180.284 114.314,-184.934"/>
</g>
<!-- Node4 -->
<g id="node5" class="node"><title>Node4</title>
<g id="a_node5"><a xlink:href="interface_system_1_1_collections_1_1_i_enumerable.html" target="_top" xlink:title="Exposes an enumerator, which supports a simple iteration over a non&#45;generic collection....">
<polygon fill="none" stroke="black" points="37,-246.5 37,-265.5 108,-265.5 108,-246.5 37,-246.5"/>
<text text-anchor="middle" x="72.5" y="-253.5" font-family="Helvetica,sans-Serif" font-size="10.00">IEnumerable</text>
</a>
</g>
</g>
<!-- Node4&#45;&gt;Node1 -->
<g id="edge7" class="edge"><title>Node4&#45;&gt;Node1</title>
<path fill="none" stroke="midnightblue" d="M61.7877,-237.296C48.7358,-213.34 29.9983,-169.512 43.5,-134 49.2207,-118.954 62.5337,-105.725 72.2344,-97.5728"/>
<polygon fill="midnightblue" stroke="midnightblue" points="58.9164,-239.326 66.9227,-246.265 64.9911,-235.847 58.9164,-239.326"/>
</g>
<!-- Node4&#45;&gt;Node2 -->
<g id="edge5" class="edge"><title>Node4&#45;&gt;Node2</title>
<path fill="none" stroke="midnightblue" d="M74.3652,-236.348C76.7746,-212.254 80.8692,-171.308 82.6409,-153.591"/>
<polygon fill="midnightblue" stroke="midnightblue" points="70.8756,-236.07 73.3632,-246.368 77.8409,-236.766 70.8756,-236.07"/>
</g>
<!-- Node4&#45;&gt;Node3 -->
<g id="edge4" class="edge"><title>Node4&#45;&gt;Node3</title>
<path fill="none" stroke="midnightblue" d="M89.3945,-239.537C99.9145,-229.909 113.069,-217.869 121.848,-209.834"/>
<polygon fill="midnightblue" stroke="midnightblue" points="86.9931,-236.99 81.9794,-246.324 91.7192,-242.154 86.9931,-236.99"/>
</g>
</g>
</svg>
