<?xml version="1.0" encoding="UTF-8" standalone="no"?>
<!DOCTYPE svg PUBLIC "-//W3C//DTD SVG 1.1//EN"
 "http://www.w3.org/Graphics/SVG/1.1/DTD/svg11.dtd">
<!-- Generated by graphviz version 2.38.0 (20140413.2041)
 -->
<!-- Title: System.Runtime.Remoting.Messaging.InternalSink Pages: 1 -->
<svg width="379pt" height="382pt"
 viewBox="0.00 0.00 379.00 382.00" xmlns="http://www.w3.org/2000/svg" xmlns:xlink="http://www.w3.org/1999/xlink">
<g id="graph0" class="graph" transform="scale(1 1) rotate(0) translate(4 378)">
<title>System.Runtime.Remoting.Messaging.InternalSink</title>
<!-- Node0 -->
<g id="node1" class="node"><title>Node0</title>
<g id="a_node1"><a xlink:title=" ">
<polygon fill="#bfbfbf" stroke="black" points="0,-171.5 0,-201.5 137,-201.5 137,-171.5 0,-171.5"/>
<text text-anchor="start" x="8" y="-189.5" font-family="Helvetica,sans-Serif" font-size="10.00">System.Runtime.Remoting.</text>
<text text-anchor="middle" x="68.5" y="-178.5" font-family="Helvetica,sans-Serif" font-size="10.00">Messaging.InternalSink</text>
</a>
</g>
</g>
<!-- Node1 -->
<g id="node2" class="node"><title>Node1</title>
<g id="a_node2"><a xlink:href="class_system_1_1_runtime_1_1_remoting_1_1_channels_1_1_cross_app_domain_sink.html" target="_top" xlink:title=" ">
<polygon fill="none" stroke="black" points="194.5,-343.5 194.5,-373.5 349.5,-373.5 349.5,-343.5 194.5,-343.5"/>
<text text-anchor="start" x="202.5" y="-361.5" font-family="Helvetica,sans-Serif" font-size="10.00">System.Runtime.Remoting.</text>
<text text-anchor="middle" x="272" y="-350.5" font-family="Helvetica,sans-Serif" font-size="10.00">Channels.CrossAppDomainSink</text>
</a>
</g>
</g>
<!-- Node0&#45;&gt;Node1 -->
<g id="edge1" class="edge"><title>Node0&#45;&gt;Node1</title>
<path fill="none" stroke="midnightblue" d="M79.9766,-211.285C95.3615,-244.586 127.28,-303.198 173,-334.5 179.504,-338.953 186.75,-342.582 194.275,-345.539"/>
<polygon fill="midnightblue" stroke="midnightblue" points="83.0191,-209.516 75.7358,-201.821 76.6311,-212.378 83.0191,-209.516"/>
</g>
<!-- Node2 -->
<g id="node3" class="node"><title>Node2</title>
<g id="a_node3"><a xlink:href="class_system_1_1_runtime_1_1_remoting_1_1_channels_1_1_cross_context_channel.html" target="_top" xlink:title=" ">
<polygon fill="none" stroke="black" points="194.5,-294.5 194.5,-324.5 349.5,-324.5 349.5,-294.5 194.5,-294.5"/>
<text text-anchor="start" x="202.5" y="-312.5" font-family="Helvetica,sans-Serif" font-size="10.00">System.Runtime.Remoting.</text>
<text text-anchor="middle" x="272" y="-301.5" font-family="Helvetica,sans-Serif" font-size="10.00">Channels.CrossContextChannel</text>
</a>
</g>
</g>
<!-- Node0&#45;&gt;Node2 -->
<g id="edge2" class="edge"><title>Node0&#45;&gt;Node2</title>
<path fill="none" stroke="midnightblue" d="M87.4216,-209.62C106.285,-232.347 138.05,-266.33 173,-285.5 179.681,-289.164 186.921,-292.276 194.337,-294.918"/>
<polygon fill="midnightblue" stroke="midnightblue" points="90.0952,-207.36 81.0738,-201.804 84.6617,-211.773 90.0952,-207.36"/>
</g>
<!-- Node3 -->
<g id="node4" class="node"><title>Node3</title>
<g id="a_node4"><a xlink:href="class_system_1_1_runtime_1_1_remoting_1_1_contexts_1_1_synchronized_client_context_sink.html" target="_top" xlink:title=" ">
<polygon fill="none" stroke="black" points="174,-245.5 174,-275.5 370,-275.5 370,-245.5 174,-245.5"/>
<text text-anchor="start" x="182" y="-263.5" font-family="Helvetica,sans-Serif" font-size="10.00">System.Runtime.Remoting.</text>
<text text-anchor="middle" x="272" y="-252.5" font-family="Helvetica,sans-Serif" font-size="10.00">Contexts.SynchronizedClientContextSink</text>
</a>
</g>
</g>
<!-- Node0&#45;&gt;Node3 -->
<g id="edge3" class="edge"><title>Node0&#45;&gt;Node3</title>
<path fill="none" stroke="midnightblue" d="M106.04,-206.479C125.497,-216.516 150.084,-228.262 173,-236.5 182.149,-239.789 191.936,-242.78 201.656,-245.447"/>
<polygon fill="midnightblue" stroke="midnightblue" points="107.413,-203.247 96.9296,-201.712 104.167,-209.45 107.413,-203.247"/>
</g>
<!-- Node4 -->
<g id="node5" class="node"><title>Node4</title>
<g id="a_node5"><a xlink:href="class_system_1_1_runtime_1_1_remoting_1_1_contexts_1_1_synchronized_server_context_sink.html" target="_top" xlink:title=" ">
<polygon fill="none" stroke="black" points="173,-196.5 173,-226.5 371,-226.5 371,-196.5 173,-196.5"/>
<text text-anchor="start" x="181" y="-214.5" font-family="Helvetica,sans-Serif" font-size="10.00">System.Runtime.Remoting.</text>
<text text-anchor="middle" x="272" y="-203.5" font-family="Helvetica,sans-Serif" font-size="10.00">Contexts.SynchronizedServerContextSink</text>
</a>
</g>
</g>
<!-- Node0&#45;&gt;Node4 -->
<g id="edge4" class="edge"><title>Node0&#45;&gt;Node4</title>
<path fill="none" stroke="midnightblue" d="M147.216,-196.142C155.566,-197.178 164.139,-198.242 172.69,-199.303"/>
<polygon fill="midnightblue" stroke="midnightblue" points="147.512,-192.652 137.157,-194.894 146.65,-199.599 147.512,-192.652"/>
</g>
<!-- Node5 -->
<g id="node6" class="node"><title>Node5</title>
<g id="a_node6"><a xlink:href="class_system_1_1_runtime_1_1_remoting_1_1_messaging_1_1_client_context_terminator_sink.html" target="_top" xlink:title=" ">
<polygon fill="none" stroke="black" points="176.5,-147.5 176.5,-177.5 367.5,-177.5 367.5,-147.5 176.5,-147.5"/>
<text text-anchor="start" x="184.5" y="-165.5" font-family="Helvetica,sans-Serif" font-size="10.00">System.Runtime.Remoting.</text>
<text text-anchor="middle" x="272" y="-154.5" font-family="Helvetica,sans-Serif" font-size="10.00">Messaging.ClientContextTerminatorSink</text>
</a>
</g>
</g>
<!-- Node0&#45;&gt;Node5 -->
<g id="edge5" class="edge"><title>Node0&#45;&gt;Node5</title>
<path fill="none" stroke="midnightblue" d="M147.326,-177.23C156.816,-176.1 166.593,-174.936 176.295,-173.78"/>
<polygon fill="midnightblue" stroke="midnightblue" points="146.673,-173.783 137.157,-178.442 147.501,-180.734 146.673,-173.783"/>
</g>
<!-- Node6 -->
<g id="node7" class="node"><title>Node6</title>
<g id="a_node7"><a xlink:href="class_system_1_1_runtime_1_1_remoting_1_1_messaging_1_1_envoy_terminator_sink.html" target="_top" xlink:title=" ">
<polygon fill="none" stroke="black" points="193,-98.5 193,-128.5 351,-128.5 351,-98.5 193,-98.5"/>
<text text-anchor="start" x="201" y="-116.5" font-family="Helvetica,sans-Serif" font-size="10.00">System.Runtime.Remoting.</text>
<text text-anchor="middle" x="272" y="-105.5" font-family="Helvetica,sans-Serif" font-size="10.00">Messaging.EnvoyTerminatorSink</text>
</a>
</g>
</g>
<!-- Node0&#45;&gt;Node6 -->
<g id="edge6" class="edge"><title>Node0&#45;&gt;Node6</title>
<path fill="none" stroke="midnightblue" d="M107.401,-166.872C126.687,-157.416 150.71,-146.435 173,-138.5 183.256,-134.849 194.292,-131.5 205.13,-128.521"/>
<polygon fill="midnightblue" stroke="midnightblue" points="105.741,-163.789 98.3424,-171.372 108.855,-170.058 105.741,-163.789"/>
</g>
<!-- Node7 -->
<g id="node8" class="node"><title>Node7</title>
<g id="a_node8"><a xlink:href="class_system_1_1_runtime_1_1_remoting_1_1_messaging_1_1_server_context_terminator_sink.html" target="_top" xlink:title=" ">
<polygon fill="none" stroke="black" points="175.5,-49.5 175.5,-79.5 368.5,-79.5 368.5,-49.5 175.5,-49.5"/>
<text text-anchor="start" x="183.5" y="-67.5" font-family="Helvetica,sans-Serif" font-size="10.00">System.Runtime.Remoting.</text>
<text text-anchor="middle" x="272" y="-56.5" font-family="Helvetica,sans-Serif" font-size="10.00">Messaging.ServerContextTerminatorSink</text>
</a>
</g>
</g>
<!-- Node0&#45;&gt;Node7 -->
<g id="edge7" class="edge"><title>Node0&#45;&gt;Node7</title>
<path fill="none" stroke="midnightblue" d="M88.1282,-163.264C107.163,-141.066 138.723,-108.287 173,-89.5 180.083,-85.6179 187.785,-82.3237 195.654,-79.5315"/>
<polygon fill="midnightblue" stroke="midnightblue" points="85.2136,-161.293 81.4664,-171.203 90.5757,-165.793 85.2136,-161.293"/>
</g>
<!-- Node8 -->
<g id="node9" class="node"><title>Node8</title>
<g id="a_node9"><a xlink:href="class_system_1_1_runtime_1_1_remoting_1_1_messaging_1_1_server_object_terminator_sink.html" target="_top" xlink:title=" ">
<polygon fill="none" stroke="black" points="178,-0.5 178,-30.5 366,-30.5 366,-0.5 178,-0.5"/>
<text text-anchor="start" x="186" y="-18.5" font-family="Helvetica,sans-Serif" font-size="10.00">System.Runtime.Remoting.</text>
<text text-anchor="middle" x="272" y="-7.5" font-family="Helvetica,sans-Serif" font-size="10.00">Messaging.ServerObjectTerminatorSink</text>
</a>
</g>
</g>
<!-- Node0&#45;&gt;Node8 -->
<g id="edge8" class="edge"><title>Node0&#45;&gt;Node8</title>
<path fill="none" stroke="midnightblue" d="M80.11,-162.111C95.6487,-129.33 127.744,-71.5909 173,-40.5 178.644,-36.6224 184.843,-33.346 191.297,-30.5777"/>
<polygon fill="midnightblue" stroke="midnightblue" points="76.8244,-160.878 75.8229,-171.425 83.1833,-163.805 76.8244,-160.878"/>
</g>
</g>
</svg>
