<?xml version="1.0" encoding="UTF-8" standalone="no"?>
<!DOCTYPE svg PUBLIC "-//W3C//DTD SVG 1.1//EN"
 "http://www.w3.org/Graphics/SVG/1.1/DTD/svg11.dtd">
<!-- Generated by graphviz version 2.38.0 (20140413.2041)
 -->
<!-- Title: System.Diagnostics.TraceListener Pages: 1 -->
<svg width="200pt" height="95pt"
 viewBox="0.00 0.00 199.50 95.00" xmlns="http://www.w3.org/2000/svg" xmlns:xlink="http://www.w3.org/1999/xlink">
<g id="graph0" class="graph" transform="scale(1 1) rotate(0) translate(4 91)">
<title>System.Diagnostics.TraceListener</title>
<!-- Node11 -->
<g id="node1" class="node"><title>Node11</title>
<g id="a_node1"><a xlink:title="Provides the abstract base class for the listeners who monitor trace and debug output.">
<polygon fill="#bfbfbf" stroke="black" points="39.5,-0.5 39.5,-30.5 170.5,-30.5 170.5,-0.5 39.5,-0.5"/>
<text text-anchor="start" x="47.5" y="-18.5" font-family="Helvetica,sans-Serif" font-size="10.00">System.Diagnostics.Trace</text>
<text text-anchor="middle" x="105" y="-7.5" font-family="Helvetica,sans-Serif" font-size="10.00">Listener</text>
</a>
</g>
</g>
<!-- Node12 -->
<g id="node2" class="node"><title>Node12</title>
<g id="a_node2"><a xlink:href="class_system_1_1_marshal_by_ref_object.html" target="_top" xlink:title="Enables access to objects across application domain boundaries in applications that support remoting.">
<polygon fill="none" stroke="black" points="0,-67.5 0,-86.5 106,-86.5 106,-67.5 0,-67.5"/>
<text text-anchor="middle" x="53" y="-74.5" font-family="Helvetica,sans-Serif" font-size="10.00">MarshalByRefObject</text>
</a>
</g>
</g>
<!-- Node12&#45;&gt;Node11 -->
<g id="edge1" class="edge"><title>Node12&#45;&gt;Node11</title>
<path fill="none" stroke="midnightblue" d="M67.1486,-59.8108C75.1559,-50.6486 85.0711,-39.3032 92.7446,-30.523"/>
<polygon fill="midnightblue" stroke="midnightblue" points="64.3955,-57.6422 60.4503,-67.4751 69.6663,-62.2486 64.3955,-57.6422"/>
</g>
<!-- Node13 -->
<g id="node3" class="node"><title>Node13</title>
<g id="a_node3"><a xlink:href="interface_system_1_1_i_disposable.html" target="_top" xlink:title="Provides a mechanism for releasing unmanaged resources.To browse the .NET Framework source code for t...">
<polygon fill="none" stroke="black" points="124.5,-67.5 124.5,-86.5 191.5,-86.5 191.5,-67.5 124.5,-67.5"/>
<text text-anchor="middle" x="158" y="-74.5" font-family="Helvetica,sans-Serif" font-size="10.00">IDisposable</text>
</a>
</g>
</g>
<!-- Node13&#45;&gt;Node11 -->
<g id="edge2" class="edge"><title>Node13&#45;&gt;Node11</title>
<path fill="none" stroke="midnightblue" d="M143.579,-59.8108C135.418,-50.6486 125.312,-39.3032 117.491,-30.523"/>
<polygon fill="midnightblue" stroke="midnightblue" points="141.141,-62.3359 150.406,-67.4751 146.368,-57.6799 141.141,-62.3359"/>
</g>
</g>
</svg>
