<?xml version="1.0" encoding="UTF-8" standalone="no"?>
<!DOCTYPE svg PUBLIC "-//W3C//DTD SVG 1.1//EN"
 "http://www.w3.org/Graphics/SVG/1.1/DTD/svg11.dtd">
<!-- Generated by graphviz version 2.38.0 (20140413.2041)
 -->
<!-- Title: System.Runtime.Remoting.Channels.CrossAppDomainChannel Pages: 1 -->
<svg width="245pt" height="151pt"
 viewBox="0.00 0.00 245.00 151.00" xmlns="http://www.w3.org/2000/svg" xmlns:xlink="http://www.w3.org/1999/xlink">
<g id="graph0" class="graph" transform="scale(1 1) rotate(0) translate(4 147)">
<title>System.Runtime.Remoting.Channels.CrossAppDomainChannel</title>
<!-- Node4 -->
<g id="node1" class="node"><title>Node4</title>
<g id="a_node1"><a xlink:title=" ">
<polygon fill="#bfbfbf" stroke="black" points="0,-0.5 0,-30.5 171,-30.5 171,-0.5 0,-0.5"/>
<text text-anchor="start" x="8" y="-18.5" font-family="Helvetica,sans-Serif" font-size="10.00">System.Runtime.Remoting.</text>
<text text-anchor="middle" x="85.5" y="-7.5" font-family="Helvetica,sans-Serif" font-size="10.00">Channels.CrossAppDomainChannel</text>
</a>
</g>
</g>
<!-- Node5 -->
<g id="node2" class="node"><title>Node5</title>
<g id="a_node2"><a xlink:href="interface_system_1_1_runtime_1_1_remoting_1_1_channels_1_1_i_channel.html" target="_top" xlink:title="Provides conduits for messages that cross remoting boundaries.">
<polygon fill="none" stroke="black" points="58.5,-123.5 58.5,-142.5 112.5,-142.5 112.5,-123.5 58.5,-123.5"/>
<text text-anchor="middle" x="85.5" y="-130.5" font-family="Helvetica,sans-Serif" font-size="10.00">IChannel</text>
</a>
</g>
</g>
<!-- Node5&#45;&gt;Node4 -->
<g id="edge1" class="edge"><title>Node5&#45;&gt;Node4</title>
<path fill="none" stroke="midnightblue" d="M61.1569,-117.616C43.8955,-105.39 25.1611,-86.7226 33.5,-67 39.773,-52.1636 52.773,-39.5386 64.2048,-30.6227"/>
<polygon fill="midnightblue" stroke="midnightblue" points="59.6259,-120.8 69.8981,-123.394 63.4859,-114.96 59.6259,-120.8"/>
</g>
<!-- Node6 -->
<g id="node3" class="node"><title>Node6</title>
<g id="a_node3"><a xlink:href="interface_system_1_1_runtime_1_1_remoting_1_1_channels_1_1_i_channel_sender.html" target="_top" xlink:title="Provides required functions and properties for the sender channels.">
<polygon fill="none" stroke="black" points="43,-67.5 43,-86.5 128,-86.5 128,-67.5 43,-67.5"/>
<text text-anchor="middle" x="85.5" y="-74.5" font-family="Helvetica,sans-Serif" font-size="10.00">IChannelSender</text>
</a>
</g>
</g>
<!-- Node5&#45;&gt;Node6 -->
<g id="edge3" class="edge"><title>Node5&#45;&gt;Node6</title>
<path fill="none" stroke="midnightblue" d="M85.5,-112.805C85.5,-103.91 85.5,-93.7798 85.5,-86.7511"/>
<polygon fill="midnightblue" stroke="midnightblue" points="82.0001,-113.083 85.5,-123.083 89.0001,-113.083 82.0001,-113.083"/>
</g>
<!-- Node7 -->
<g id="node4" class="node"><title>Node7</title>
<g id="a_node4"><a xlink:href="interface_system_1_1_runtime_1_1_remoting_1_1_channels_1_1_i_channel_receiver.html" target="_top" xlink:title="Provides required functions and properties for the receiver channels.">
<polygon fill="none" stroke="black" points="146,-67.5 146,-86.5 237,-86.5 237,-67.5 146,-67.5"/>
<text text-anchor="middle" x="191.5" y="-74.5" font-family="Helvetica,sans-Serif" font-size="10.00">IChannelReceiver</text>
</a>
</g>
</g>
<!-- Node5&#45;&gt;Node7 -->
<g id="edge5" class="edge"><title>Node5&#45;&gt;Node7</title>
<path fill="none" stroke="midnightblue" d="M111.556,-118.726C131.184,-108.727 157.528,-95.3065 174.512,-86.6545"/>
<polygon fill="midnightblue" stroke="midnightblue" points="109.852,-115.666 102.531,-123.324 113.03,-121.903 109.852,-115.666"/>
</g>
<!-- Node6&#45;&gt;Node4 -->
<g id="edge2" class="edge"><title>Node6&#45;&gt;Node4</title>
<path fill="none" stroke="midnightblue" d="M85.5,-57.2349C85.5,-48.5864 85.5,-38.4969 85.5,-30.523"/>
<polygon fill="midnightblue" stroke="midnightblue" points="82.0001,-57.4751 85.5,-67.4751 89.0001,-57.4751 82.0001,-57.4751"/>
</g>
<!-- Node7&#45;&gt;Node4 -->
<g id="edge4" class="edge"><title>Node7&#45;&gt;Node4</title>
<path fill="none" stroke="midnightblue" d="M167.525,-62.5423C150.509,-52.9907 127.72,-40.1992 110.482,-30.523"/>
<polygon fill="midnightblue" stroke="midnightblue" points="165.879,-65.6323 176.313,-67.4751 169.306,-59.5282 165.879,-65.6323"/>
</g>
</g>
</svg>
