<?xml version="1.0" encoding="UTF-8" standalone="no"?>
<!DOCTYPE svg PUBLIC "-//W3C//DTD SVG 1.1//EN"
 "http://www.w3.org/Graphics/SVG/1.1/DTD/svg11.dtd">
<!-- Generated by graphviz version 2.38.0 (20140413.2041)
 -->
<!-- Title: System.Net.NetworkCredential Pages: 1 -->
<svg width="194pt" height="84pt"
 viewBox="0.00 0.00 194.00 84.00" xmlns="http://www.w3.org/2000/svg" xmlns:xlink="http://www.w3.org/1999/xlink">
<g id="graph0" class="graph" transform="scale(1 1) rotate(0) translate(4 80)">
<title>System.Net.NetworkCredential</title>
<!-- Node0 -->
<g id="node1" class="node"><title>Node0</title>
<g id="a_node1"><a xlink:title="Provides credentials for password&#45;based authentication schemes such as basic, digest,...">
<polygon fill="#bfbfbf" stroke="black" points="10,-0.5 10,-19.5 160,-19.5 160,-0.5 10,-0.5"/>
<text text-anchor="middle" x="85" y="-7.5" font-family="Helvetica,sans-Serif" font-size="10.00">System.Net.NetworkCredential</text>
</a>
</g>
</g>
<!-- Node1 -->
<g id="node2" class="node"><title>Node1</title>
<g id="a_node2"><a xlink:href="interface_system_1_1_net_1_1_i_credentials.html" target="_top" xlink:title="Provides the base authentication interface for retrieving credentials for Web client authentication.">
<polygon fill="none" stroke="black" points="0,-56.5 0,-75.5 68,-75.5 68,-56.5 0,-56.5"/>
<text text-anchor="middle" x="34" y="-63.5" font-family="Helvetica,sans-Serif" font-size="10.00">ICredentials</text>
</a>
</g>
</g>
<!-- Node1&#45;&gt;Node0 -->
<g id="edge1" class="edge"><title>Node1&#45;&gt;Node0</title>
<path fill="none" stroke="midnightblue" d="M49.3779,-48.7175C58.3669,-39.1997 69.3592,-27.5608 76.7351,-19.7511"/>
<polygon fill="midnightblue" stroke="midnightblue" points="46.7433,-46.4096 42.4216,-56.083 51.8324,-51.216 46.7433,-46.4096"/>
</g>
<!-- Node2 -->
<g id="node3" class="node"><title>Node2</title>
<g id="a_node3"><a xlink:href="interface_system_1_1_net_1_1_i_credentials_by_host.html" target="_top" xlink:title="Provides the interface for retrieving credentials for a host, port, and authentication type.">
<polygon fill="none" stroke="black" points="86,-56.5 86,-75.5 186,-75.5 186,-56.5 86,-56.5"/>
<text text-anchor="middle" x="136" y="-63.5" font-family="Helvetica,sans-Serif" font-size="10.00">ICredentialsByHost</text>
</a>
</g>
</g>
<!-- Node2&#45;&gt;Node0 -->
<g id="edge2" class="edge"><title>Node2&#45;&gt;Node0</title>
<path fill="none" stroke="midnightblue" d="M120.622,-48.7175C111.633,-39.1997 100.641,-27.5608 93.2649,-19.7511"/>
<polygon fill="midnightblue" stroke="midnightblue" points="118.168,-51.216 127.578,-56.083 123.257,-46.4096 118.168,-51.216"/>
</g>
</g>
</svg>
