<?xml version="1.0" encoding="UTF-8" standalone="no"?>
<!DOCTYPE svg PUBLIC "-//W3C//DTD SVG 1.1//EN"
 "http://www.w3.org/Graphics/SVG/1.1/DTD/svg11.dtd">
<!-- Generated by graphviz version 2.38.0 (20140413.2041)
 -->
<!-- Title: System.ComponentModel.EnumConverter Pages: 1 -->
<svg width="422pt" height="106pt"
 viewBox="0.00 0.00 421.50 106.00" xmlns="http://www.w3.org/2000/svg" xmlns:xlink="http://www.w3.org/1999/xlink">
<g id="graph0" class="graph" transform="scale(1 1) rotate(0) translate(4 102)">
<title>System.ComponentModel.EnumConverter</title>
<!-- Node2 -->
<g id="node1" class="node"><title>Node2</title>
<g id="a_node1"><a xlink:title="Provides a type converter to convert T:System.Enum objects to and from various other representations.">
<polygon fill="#bfbfbf" stroke="black" points="54,-0.5 54,-30.5 212,-30.5 212,-0.5 54,-0.5"/>
<text text-anchor="start" x="62" y="-18.5" font-family="Helvetica,sans-Serif" font-size="10.00">System.ComponentModel.Enum</text>
<text text-anchor="middle" x="133" y="-7.5" font-family="Helvetica,sans-Serif" font-size="10.00">Converter</text>
</a>
</g>
</g>
<!-- Node3 -->
<g id="node2" class="node"><title>Node3</title>
<g id="a_node2"><a xlink:href="class_system_1_1_component_model_1_1_type_converter.html" target="_top" xlink:title="Provides a unified way of converting types of values to other types, as well as for accessing standar...">
<polygon fill="none" stroke="black" points="0,-78.5 0,-97.5 78,-97.5 78,-78.5 0,-78.5"/>
<text text-anchor="middle" x="39" y="-85.5" font-family="Helvetica,sans-Serif" font-size="10.00">TypeConverter</text>
</a>
</g>
</g>
<!-- Node3&#45;&gt;Node2 -->
<g id="edge1" class="edge"><title>Node3&#45;&gt;Node2</title>
<path fill="none" stroke="midnightblue" d="M58.8318,-72.1262C75.1735,-59.8698 98.1888,-42.6084 114.232,-30.5762"/>
<polygon fill="midnightblue" stroke="midnightblue" points="56.4263,-69.5553 50.5262,-78.3553 60.6263,-75.1553 56.4263,-69.5553"/>
</g>
<!-- Node4 -->
<g id="node3" class="node"><title>Node4</title>
<g id="a_node3"><a xlink:href="class_system_1_1_type.html" target="_top" xlink:title="Represents type declarations: class types, interface types, array types, value types,...">
<polygon fill="none" stroke="red" points="96,-78.5 96,-97.5 170,-97.5 170,-78.5 96,-78.5"/>
<text text-anchor="middle" x="133" y="-85.5" font-family="Helvetica,sans-Serif" font-size="10.00">System.Type</text>
</a>
</g>
</g>
<!-- Node4&#45;&gt;Node2 -->
<g id="edge2" class="edge"><title>Node4&#45;&gt;Node2</title>
<path fill="none" stroke="#9a32cd" stroke-dasharray="5,2" d="M133,-68.2362C133,-56.4079 133,-41.3829 133,-30.5762"/>
<polygon fill="#9a32cd" stroke="#9a32cd" points="129.5,-68.3553 133,-78.3553 136.5,-68.3554 129.5,-68.3553"/>
<text text-anchor="middle" x="158" y="-52" font-family="Helvetica,sans-Serif" font-size="10.00"> EnumType</text>
</g>
<!-- Node4&#45;&gt;Node4 -->
<g id="edge3" class="edge"><title>Node4&#45;&gt;Node4</title>
<path fill="none" stroke="#9a32cd" stroke-dasharray="5,2" d="M180.186,-92.9222C184.957,-91.9454 188,-90.3047 188,-88 188,-84.3125 180.21,-82.3247 170.015,-82.0366"/>
<polygon fill="#9a32cd" stroke="#9a32cd" points="179.607,-89.4631 170.015,-93.9634 180.32,-96.4267 179.607,-89.4631"/>
<text text-anchor="middle" x="217" y="-85.5" font-family="Helvetica,sans-Serif" font-size="10.00"> EmptyTypes</text>
</g>
<!-- Node10 -->
<g id="node4" class="node"><title>Node10</title>
<g id="a_node4"><a xlink:href="interface_system_1_1_collections_1_1_i_comparer.html" target="_top" xlink:title="Exposes a method that compares two objects.">
<polygon fill="none" stroke="black" points="264.5,-78.5 264.5,-97.5 413.5,-97.5 413.5,-78.5 264.5,-78.5"/>
<text text-anchor="middle" x="339" y="-85.5" font-family="Helvetica,sans-Serif" font-size="10.00">System.Collections.IComparer</text>
</a>
</g>
</g>
<!-- Node10&#45;&gt;Node2 -->
<g id="edge4" class="edge"><title>Node10&#45;&gt;Node2</title>
<path fill="none" stroke="#9a32cd" stroke-dasharray="5,2" d="M304.578,-75.2198C268.6,-62.9067 212.161,-43.5915 173.925,-30.5059"/>
<polygon fill="#9a32cd" stroke="#9a32cd" points="303.557,-78.5695 314.152,-78.4961 305.824,-71.9466 303.557,-78.5695"/>
<text text-anchor="middle" x="278" y="-52" font-family="Helvetica,sans-Serif" font-size="10.00"> Comparer</text>
</g>
</g>
</svg>
