<?xml version="1.0" encoding="UTF-8" standalone="no"?>
<!DOCTYPE svg PUBLIC "-//W3C//DTD SVG 1.1//EN"
 "http://www.w3.org/Graphics/SVG/1.1/DTD/svg11.dtd">
<!-- Generated by graphviz version 2.38.0 (20140413.2041)
 -->
<!-- Title: System.Runtime.Remoting.Channels.BaseChannelObjectWithProperties Pages: 1 -->
<svg width="175pt" height="218pt"
 viewBox="0.00 0.00 175.00 218.00" xmlns="http://www.w3.org/2000/svg" xmlns:xlink="http://www.w3.org/1999/xlink">
<g id="graph0" class="graph" transform="scale(1 1) rotate(0) translate(4 214)">
<title>System.Runtime.Remoting.Channels.BaseChannelObjectWithProperties</title>
<!-- Node6 -->
<g id="node1" class="node"><title>Node6</title>
<g id="a_node1"><a xlink:title="Provides a base implementation of a channel object that exposes a dictionary interface to its propert...">
<polygon fill="#bfbfbf" stroke="black" points="0,-0.5 0,-41.5 167,-41.5 167,-0.5 0,-0.5"/>
<text text-anchor="start" x="8" y="-29.5" font-family="Helvetica,sans-Serif" font-size="10.00">System.Runtime.Remoting.</text>
<text text-anchor="start" x="8" y="-18.5" font-family="Helvetica,sans-Serif" font-size="10.00">Channels.BaseChannelObjectWith</text>
<text text-anchor="middle" x="83.5" y="-7.5" font-family="Helvetica,sans-Serif" font-size="10.00">Properties</text>
</a>
</g>
</g>
<!-- Node7 -->
<g id="node2" class="node"><title>Node7</title>
<g id="a_node2"><a xlink:href="interface_system_1_1_collections_1_1_i_dictionary.html" target="_top" xlink:title="Represents a nongeneric collection of key/value pairs.">
<polygon fill="none" stroke="black" points="52.5,-78.5 52.5,-97.5 114.5,-97.5 114.5,-78.5 52.5,-78.5"/>
<text text-anchor="middle" x="83.5" y="-85.5" font-family="Helvetica,sans-Serif" font-size="10.00">IDictionary</text>
</a>
</g>
</g>
<!-- Node7&#45;&gt;Node6 -->
<g id="edge1" class="edge"><title>Node7&#45;&gt;Node6</title>
<path fill="none" stroke="midnightblue" d="M83.5,-68.037C83.5,-59.7084 83.5,-49.9358 83.5,-41.5421"/>
<polygon fill="midnightblue" stroke="midnightblue" points="80.0001,-68.2338 83.5,-78.2338 87.0001,-68.2338 80.0001,-68.2338"/>
</g>
<!-- Node8 -->
<g id="node3" class="node"><title>Node8</title>
<g id="a_node3"><a xlink:href="interface_system_1_1_collections_1_1_i_collection.html" target="_top" xlink:title="Defines size, enumerators, and synchronization methods for all nongeneric collections.">
<polygon fill="none" stroke="black" points="100.5,-134.5 100.5,-153.5 162.5,-153.5 162.5,-134.5 100.5,-134.5"/>
<text text-anchor="middle" x="131.5" y="-141.5" font-family="Helvetica,sans-Serif" font-size="10.00">ICollection</text>
</a>
</g>
</g>
<!-- Node8&#45;&gt;Node6 -->
<g id="edge5" class="edge"><title>Node8&#45;&gt;Node6</title>
<path fill="none" stroke="midnightblue" d="M131.61,-123.97C131.107,-110.681 129.244,-92.75 123.5,-78 118.341,-64.7514 109.335,-51.7194 101.173,-41.5654"/>
<polygon fill="midnightblue" stroke="midnightblue" points="128.115,-124.312 131.767,-134.258 135.114,-124.205 128.115,-124.312"/>
</g>
<!-- Node8&#45;&gt;Node7 -->
<g id="edge2" class="edge"><title>Node8&#45;&gt;Node7</title>
<path fill="none" stroke="midnightblue" d="M116.772,-126.431C108.36,-116.967 98.1513,-105.483 91.2787,-97.7511"/>
<polygon fill="midnightblue" stroke="midnightblue" points="114.314,-128.934 123.574,-134.083 119.546,-124.284 114.314,-128.934"/>
</g>
<!-- Node9 -->
<g id="node4" class="node"><title>Node9</title>
<g id="a_node4"><a xlink:href="interface_system_1_1_collections_1_1_i_enumerable.html" target="_top" xlink:title="Exposes an enumerator, which supports a simple iteration over a non&#45;generic collection....">
<polygon fill="none" stroke="black" points="37,-190.5 37,-209.5 108,-209.5 108,-190.5 37,-190.5"/>
<text text-anchor="middle" x="72.5" y="-197.5" font-family="Helvetica,sans-Serif" font-size="10.00">IEnumerable</text>
</a>
</g>
</g>
<!-- Node9&#45;&gt;Node6 -->
<g id="edge6" class="edge"><title>Node9&#45;&gt;Node6</title>
<path fill="none" stroke="midnightblue" d="M62.3483,-181.493C49.9298,-157.758 31.9056,-114.18 43.5,-78 47.8025,-64.5743 56.6371,-51.6275 64.9118,-41.5705"/>
<polygon fill="midnightblue" stroke="midnightblue" points="59.3425,-183.29 67.2246,-190.37 65.4779,-179.92 59.3425,-183.29"/>
</g>
<!-- Node9&#45;&gt;Node7 -->
<g id="edge4" class="edge"><title>Node9&#45;&gt;Node7</title>
<path fill="none" stroke="midnightblue" d="M74.3652,-180.348C76.7746,-156.254 80.8692,-115.308 82.6409,-97.5914"/>
<polygon fill="midnightblue" stroke="midnightblue" points="70.8756,-180.07 73.3632,-190.368 77.8409,-180.766 70.8756,-180.07"/>
</g>
<!-- Node9&#45;&gt;Node8 -->
<g id="edge3" class="edge"><title>Node9&#45;&gt;Node8</title>
<path fill="none" stroke="midnightblue" d="M89.3945,-183.537C99.9145,-173.909 113.069,-161.869 121.848,-153.834"/>
<polygon fill="midnightblue" stroke="midnightblue" points="86.9931,-180.99 81.9794,-190.324 91.7192,-186.154 86.9931,-180.99"/>
</g>
</g>
</svg>
