<?xml version="1.0" encoding="UTF-8" standalone="no"?>
<!DOCTYPE svg PUBLIC "-//W3C//DTD SVG 1.1//EN"
 "http://www.w3.org/Graphics/SVG/1.1/DTD/svg11.dtd">
<!-- Generated by graphviz version 2.38.0 (20140413.2041)
 -->
<!-- Title: System.ArgumentException Pages: 1 -->
<svg width="669pt" height="274pt"
 viewBox="0.00 0.00 669.00 273.50" xmlns="http://www.w3.org/2000/svg" xmlns:xlink="http://www.w3.org/1999/xlink">
<g id="graph0" class="graph" transform="scale(1 1) rotate(0) translate(4 269.5)">
<title>System.ArgumentException</title>
<!-- Node0 -->
<g id="node1" class="node"><title>Node0</title>
<g id="a_node1"><a xlink:title="The exception that is thrown when one of the arguments provided to a method is not valid.">
<polygon fill="#bfbfbf" stroke="black" points="331,-128 331,-147 470,-147 470,-128 331,-128"/>
<text text-anchor="middle" x="400.5" y="-135" font-family="Helvetica,sans-Serif" font-size="10.00">System.ArgumentException</text>
</a>
</g>
</g>
<!-- Node5 -->
<g id="node6" class="node"><title>Node5</title>
<g id="a_node6"><a xlink:href="class_system_1_1_argument_null_exception.html" target="_top" xlink:title="The exception that is thrown when a null reference (Nothing in Visual Basic) is passed to a method th...">
<polygon fill="none" stroke="black" points="506,-246 506,-265 661,-265 661,-246 506,-246"/>
<text text-anchor="middle" x="583.5" y="-253" font-family="Helvetica,sans-Serif" font-size="10.00">System.ArgumentNullException</text>
</a>
</g>
</g>
<!-- Node0&#45;&gt;Node5 -->
<g id="edge6" class="edge"><title>Node0&#45;&gt;Node5</title>
<path fill="none" stroke="midnightblue" d="M415.083,-155.071C433.323,-177.425 467.877,-215.628 506,-236.5 513.082,-240.377 520.963,-243.477 528.899,-245.951"/>
<polygon fill="midnightblue" stroke="midnightblue" points="417.684,-152.719 408.712,-147.084 412.212,-157.084 417.684,-152.719"/>
</g>
<!-- Node6 -->
<g id="node7" class="node"><title>Node6</title>
<g id="a_node7"><a xlink:href="class_system_1_1_argument_out_of_range_exception.html" target="_top" xlink:title="The exception that is thrown when the value of an argument is outside the allowable range of values a...">
<polygon fill="none" stroke="black" points="509,-196.5 509,-226.5 658,-226.5 658,-196.5 509,-196.5"/>
<text text-anchor="start" x="517" y="-214.5" font-family="Helvetica,sans-Serif" font-size="10.00">System.ArgumentOutOfRange</text>
<text text-anchor="middle" x="583.5" y="-203.5" font-family="Helvetica,sans-Serif" font-size="10.00">Exception</text>
</a>
</g>
</g>
<!-- Node0&#45;&gt;Node6 -->
<g id="edge7" class="edge"><title>Node0&#45;&gt;Node6</title>
<path fill="none" stroke="midnightblue" d="M428.551,-151.754C449.376,-162.404 479.061,-176.892 506,-187.5 514.03,-190.662 522.657,-193.7 531.122,-196.489"/>
<polygon fill="midnightblue" stroke="midnightblue" points="430.139,-148.635 419.648,-147.159 426.928,-154.855 430.139,-148.635"/>
</g>
<!-- Node7 -->
<g id="node8" class="node"><title>Node7</title>
<g id="a_node8"><a xlink:href="class_system_1_1_duplicate_wait_object_exception.html" target="_top" xlink:title="The exception that is thrown when an object appears more than once in an array of synchronization obj...">
<polygon fill="none" stroke="black" points="512,-147.5 512,-177.5 655,-177.5 655,-147.5 512,-147.5"/>
<text text-anchor="start" x="520" y="-165.5" font-family="Helvetica,sans-Serif" font-size="10.00">System.DuplicateWaitObject</text>
<text text-anchor="middle" x="583.5" y="-154.5" font-family="Helvetica,sans-Serif" font-size="10.00">Exception</text>
</a>
</g>
</g>
<!-- Node0&#45;&gt;Node7 -->
<g id="edge8" class="edge"><title>Node0&#45;&gt;Node7</title>
<path fill="none" stroke="midnightblue" d="M480.172,-148.366C490.677,-149.817 501.397,-151.298 511.755,-152.729"/>
<polygon fill="midnightblue" stroke="midnightblue" points="480.571,-144.888 470.186,-146.987 479.613,-151.822 480.571,-144.888"/>
</g>
<!-- Node8 -->
<g id="node9" class="node"><title>Node8</title>
<g id="a_node9"><a xlink:href="class_system_1_1_globalization_1_1_culture_not_found_exception.html" target="_top" xlink:title="The exception that is thrown when a method attempts to construct a culture that is not available.">
<polygon fill="none" stroke="black" points="512,-98.5 512,-128.5 655,-128.5 655,-98.5 512,-98.5"/>
<text text-anchor="start" x="520" y="-116.5" font-family="Helvetica,sans-Serif" font-size="10.00">System.Globalization.Culture</text>
<text text-anchor="middle" x="583.5" y="-105.5" font-family="Helvetica,sans-Serif" font-size="10.00">NotFoundException</text>
</a>
</g>
</g>
<!-- Node0&#45;&gt;Node8 -->
<g id="edge9" class="edge"><title>Node0&#45;&gt;Node8</title>
<path fill="none" stroke="midnightblue" d="M480.172,-127.068C490.677,-125.675 501.397,-124.254 511.755,-122.881"/>
<polygon fill="midnightblue" stroke="midnightblue" points="479.64,-123.608 470.186,-128.392 480.56,-130.547 479.64,-123.608"/>
</g>
<!-- Node9 -->
<g id="node10" class="node"><title>Node9</title>
<g id="a_node10"><a xlink:href="class_system_1_1_text_1_1_decoder_fallback_exception.html" target="_top" xlink:title="The exception that is thrown when a decoder fallback operation fails. This class cannot be inherited.">
<polygon fill="none" stroke="black" points="509.5,-49.5 509.5,-79.5 657.5,-79.5 657.5,-49.5 509.5,-49.5"/>
<text text-anchor="start" x="517.5" y="-67.5" font-family="Helvetica,sans-Serif" font-size="10.00">System.Text.DecoderFallback</text>
<text text-anchor="middle" x="583.5" y="-56.5" font-family="Helvetica,sans-Serif" font-size="10.00">Exception</text>
</a>
</g>
</g>
<!-- Node0&#45;&gt;Node9 -->
<g id="edge10" class="edge"><title>Node0&#45;&gt;Node9</title>
<path fill="none" stroke="midnightblue" d="M429.244,-123.241C450.05,-112.856 479.402,-98.854 506,-88.5 514.042,-85.3693 522.676,-82.3474 531.143,-79.5651"/>
<polygon fill="midnightblue" stroke="midnightblue" points="427.403,-120.249 420.046,-127.874 430.552,-126.501 427.403,-120.249"/>
</g>
<!-- Node10 -->
<g id="node11" class="node"><title>Node10</title>
<g id="a_node11"><a xlink:href="class_system_1_1_text_1_1_encoder_fallback_exception.html" target="_top" xlink:title="The exception that is thrown when an encoder fallback operation fails. This class cannot be inherited...">
<polygon fill="none" stroke="black" points="509.5,-0.5 509.5,-30.5 657.5,-30.5 657.5,-0.5 509.5,-0.5"/>
<text text-anchor="start" x="517.5" y="-18.5" font-family="Helvetica,sans-Serif" font-size="10.00">System.Text.EncoderFallback</text>
<text text-anchor="middle" x="583.5" y="-7.5" font-family="Helvetica,sans-Serif" font-size="10.00">Exception</text>
</a>
</g>
</g>
<!-- Node0&#45;&gt;Node10 -->
<g id="edge11" class="edge"><title>Node0&#45;&gt;Node10</title>
<path fill="none" stroke="midnightblue" d="M415.605,-120.131C434.172,-98.3408 468.839,-61.2064 506,-39.5 511.769,-36.1301 518.065,-33.1802 524.486,-30.6112"/>
<polygon fill="midnightblue" stroke="midnightblue" points="412.818,-118.007 409.093,-127.925 418.191,-122.495 412.818,-118.007"/>
</g>
<!-- Node1 -->
<g id="node2" class="node"><title>Node1</title>
<g id="a_node2"><a xlink:href="class_system_1_1_system_exception.html" target="_top" xlink:title="Serves as the base class for system exceptions namespace.">
<polygon fill="none" stroke="black" points="201,-109 201,-128 295,-128 295,-109 201,-109"/>
<text text-anchor="middle" x="248" y="-116" font-family="Helvetica,sans-Serif" font-size="10.00">SystemException</text>
</a>
</g>
</g>
<!-- Node1&#45;&gt;Node0 -->
<g id="edge1" class="edge"><title>Node1&#45;&gt;Node0</title>
<path fill="none" stroke="midnightblue" d="M305.343,-125.613C313.667,-126.664 322.322,-127.757 330.861,-128.835"/>
<polygon fill="midnightblue" stroke="midnightblue" points="305.743,-122.136 295.383,-124.356 304.866,-129.081 305.743,-122.136"/>
</g>
<!-- Node2 -->
<g id="node3" class="node"><title>Node2</title>
<g id="a_node3"><a xlink:href="class_system_1_1_exception.html" target="_top" xlink:title="Represents errors that occur during application execution.To browse the .NET Framework source code fo...">
<polygon fill="none" stroke="black" points="105,-109 105,-128 165,-128 165,-109 105,-109"/>
<text text-anchor="middle" x="135" y="-116" font-family="Helvetica,sans-Serif" font-size="10.00">Exception</text>
</a>
</g>
</g>
<!-- Node2&#45;&gt;Node1 -->
<g id="edge2" class="edge"><title>Node2&#45;&gt;Node1</title>
<path fill="none" stroke="midnightblue" d="M175.295,-118.5C183.565,-118.5 192.361,-118.5 200.855,-118.5"/>
<polygon fill="midnightblue" stroke="midnightblue" points="175.164,-115 165.164,-118.5 175.164,-122 175.164,-115"/>
</g>
<!-- Node3 -->
<g id="node4" class="node"><title>Node3</title>
<g id="a_node4"><a xlink:href="interface_system_1_1_runtime_1_1_serialization_1_1_i_serializable.html" target="_top" xlink:title="Allows an object to control its own serialization and deserialization.">
<polygon fill="none" stroke="black" points="0,-147 0,-166 69,-166 69,-147 0,-147"/>
<text text-anchor="middle" x="34.5" y="-154" font-family="Helvetica,sans-Serif" font-size="10.00">ISerializable</text>
</a>
</g>
</g>
<!-- Node3&#45;&gt;Node0 -->
<g id="edge5" class="edge"><title>Node3&#45;&gt;Node0</title>
<path fill="none" stroke="midnightblue" d="M79.3882,-154.209C141.869,-150.948 257.051,-144.936 330.874,-141.082"/>
<polygon fill="midnightblue" stroke="midnightblue" points="78.8957,-150.73 69.0918,-154.747 79.2607,-157.72 78.8957,-150.73"/>
</g>
<!-- Node3&#45;&gt;Node2 -->
<g id="edge3" class="edge"><title>Node3&#45;&gt;Node2</title>
<path fill="none" stroke="midnightblue" d="M69.8831,-143.235C82.8144,-138.247 97.2546,-132.676 109.152,-128.086"/>
<polygon fill="midnightblue" stroke="midnightblue" points="68.4257,-140.046 60.3557,-146.911 70.9453,-146.577 68.4257,-140.046"/>
</g>
<!-- Node4 -->
<g id="node5" class="node"><title>Node4</title>
<g id="a_node5"><a xlink:href="interface_system_1_1_runtime_1_1_interop_services_1_1___exception.html" target="_top" xlink:title="Exposes the public members of the T:System.Exception class to unmanaged code.">
<polygon fill="none" stroke="black" points="2,-109 2,-128 67,-128 67,-109 2,-109"/>
<text text-anchor="middle" x="34.5" y="-116" font-family="Helvetica,sans-Serif" font-size="10.00">_Exception</text>
</a>
</g>
</g>
<!-- Node4&#45;&gt;Node2 -->
<g id="edge4" class="edge"><title>Node4&#45;&gt;Node2</title>
<path fill="none" stroke="midnightblue" d="M77.371,-118.5C86.567,-118.5 96.1141,-118.5 104.691,-118.5"/>
<polygon fill="midnightblue" stroke="midnightblue" points="77.2082,-115 67.2082,-118.5 77.2082,-122 77.2082,-115"/>
</g>
</g>
</svg>
