<?xml version="1.0" encoding="UTF-8" standalone="no"?>
<!DOCTYPE svg PUBLIC "-//W3C//DTD SVG 1.1//EN"
 "http://www.w3.org/Graphics/SVG/1.1/DTD/svg11.dtd">
<!-- Generated by graphviz version 2.38.0 (20140413.2041)
 -->
<!-- Title: System.Enum Pages: 1 -->
<svg width="253pt" height="84pt"
 viewBox="0.00 0.00 252.50 84.00" xmlns="http://www.w3.org/2000/svg" xmlns:xlink="http://www.w3.org/1999/xlink">
<g id="graph0" class="graph" transform="scale(1 1) rotate(0) translate(4 80)">
<title>System.Enum</title>
<!-- Node4 -->
<g id="node1" class="node"><title>Node4</title>
<g id="a_node1"><a xlink:title="Provides the base class for enumerations.">
<polygon fill="#bfbfbf" stroke="black" points="85,-0.5 85,-19.5 164,-19.5 164,-0.5 85,-0.5"/>
<text text-anchor="middle" x="124.5" y="-7.5" font-family="Helvetica,sans-Serif" font-size="10.00">System.Enum</text>
</a>
</g>
</g>
<!-- Node5 -->
<g id="node2" class="node"><title>Node5</title>
<g id="a_node2"><a xlink:href="interface_system_1_1_i_comparable.html" target="_top" xlink:title="Defines a generalized type&#45;specific comparison method that a value type or class implements to order ...">
<polygon fill="none" stroke="black" points="0,-56.5 0,-75.5 71,-75.5 71,-56.5 0,-56.5"/>
<text text-anchor="middle" x="35.5" y="-63.5" font-family="Helvetica,sans-Serif" font-size="10.00">IComparable</text>
</a>
</g>
</g>
<!-- Node5&#45;&gt;Node4 -->
<g id="edge1" class="edge"><title>Node5&#45;&gt;Node4</title>
<path fill="none" stroke="midnightblue" d="M58.738,-50.9005C75.0578,-40.9986 96.3652,-28.0705 110.236,-19.6545"/>
<polygon fill="midnightblue" stroke="midnightblue" points="56.5332,-48.1444 49.7994,-56.324 60.1644,-54.1289 56.5332,-48.1444"/>
</g>
<!-- Node6 -->
<g id="node3" class="node"><title>Node6</title>
<g id="a_node3"><a xlink:href="interface_system_1_1_i_formattable.html" target="_top" xlink:title="Provides functionality to format the value of an object into a string representation.">
<polygon fill="none" stroke="black" points="89,-56.5 89,-75.5 160,-75.5 160,-56.5 89,-56.5"/>
<text text-anchor="middle" x="124.5" y="-63.5" font-family="Helvetica,sans-Serif" font-size="10.00">IFormattable</text>
</a>
</g>
</g>
<!-- Node6&#45;&gt;Node4 -->
<g id="edge2" class="edge"><title>Node6&#45;&gt;Node4</title>
<path fill="none" stroke="midnightblue" d="M124.5,-45.8045C124.5,-36.9102 124.5,-26.7798 124.5,-19.7511"/>
<polygon fill="midnightblue" stroke="midnightblue" points="121,-46.083 124.5,-56.083 128,-46.083 121,-46.083"/>
</g>
<!-- Node7 -->
<g id="node4" class="node"><title>Node7</title>
<g id="a_node4"><a xlink:href="interface_system_1_1_i_convertible.html" target="_top" xlink:title="Defines methods that convert the value of the implementing reference or value type to a common langua...">
<polygon fill="none" stroke="black" points="178.5,-56.5 178.5,-75.5 244.5,-75.5 244.5,-56.5 178.5,-56.5"/>
<text text-anchor="middle" x="211.5" y="-63.5" font-family="Helvetica,sans-Serif" font-size="10.00">IConvertible</text>
</a>
</g>
</g>
<!-- Node7&#45;&gt;Node4 -->
<g id="edge3" class="edge"><title>Node7&#45;&gt;Node4</title>
<path fill="none" stroke="midnightblue" d="M188.784,-50.9005C172.831,-40.9986 152.003,-28.0705 138.443,-19.6545"/>
<polygon fill="midnightblue" stroke="midnightblue" points="187.18,-54.024 197.522,-56.324 190.871,-48.0765 187.18,-54.024"/>
</g>
</g>
</svg>
