<?xml version="1.0" encoding="UTF-8" standalone="no"?>
<!DOCTYPE svg PUBLIC "-//W3C//DTD SVG 1.1//EN"
 "http://www.w3.org/Graphics/SVG/1.1/DTD/svg11.dtd">
<!-- Generated by graphviz version 2.38.0 (20140413.2041)
 -->
<!-- Title: System.ComponentModel.Container Pages: 1 -->
<svg width="181pt" height="140pt"
 viewBox="0.00 0.00 181.00 140.00" xmlns="http://www.w3.org/2000/svg" xmlns:xlink="http://www.w3.org/1999/xlink">
<g id="graph0" class="graph" transform="scale(1 1) rotate(0) translate(4 136)">
<title>System.ComponentModel.Container</title>
<!-- Node4 -->
<g id="node1" class="node"><title>Node4</title>
<g id="a_node1"><a xlink:title="Encapsulates zero or more components.">
<polygon fill="#bfbfbf" stroke="black" points="0,-0.5 0,-19.5 173,-19.5 173,-0.5 0,-0.5"/>
<text text-anchor="middle" x="86.5" y="-7.5" font-family="Helvetica,sans-Serif" font-size="10.00">System.ComponentModel.Container</text>
</a>
</g>
</g>
<!-- Node5 -->
<g id="node2" class="node"><title>Node5</title>
<g id="a_node2"><a xlink:href="interface_system_1_1_component_model_1_1_i_container.html" target="_top" xlink:title="Provides functionality for containers. Containers are objects that logically contain zero or more com...">
<polygon fill="none" stroke="black" points="85.5,-56.5 85.5,-75.5 145.5,-75.5 145.5,-56.5 85.5,-56.5"/>
<text text-anchor="middle" x="115.5" y="-63.5" font-family="Helvetica,sans-Serif" font-size="10.00">IContainer</text>
</a>
</g>
</g>
<!-- Node5&#45;&gt;Node4 -->
<g id="edge1" class="edge"><title>Node5&#45;&gt;Node4</title>
<path fill="none" stroke="midnightblue" d="M105.824,-46.9827C100.902,-37.8168 95.1421,-27.0922 91.1997,-19.7511"/>
<polygon fill="midnightblue" stroke="midnightblue" points="102.896,-48.929 110.711,-56.083 109.063,-45.6171 102.896,-48.929"/>
</g>
<!-- Node6 -->
<g id="node3" class="node"><title>Node6</title>
<g id="a_node3"><a xlink:href="interface_system_1_1_i_disposable.html" target="_top" xlink:title="Provides a mechanism for releasing unmanaged resources.To browse the .NET Framework source code for t...">
<polygon fill="none" stroke="black" points="53,-112.5 53,-131.5 120,-131.5 120,-112.5 53,-112.5"/>
<text text-anchor="middle" x="86.5" y="-119.5" font-family="Helvetica,sans-Serif" font-size="10.00">IDisposable</text>
</a>
</g>
</g>
<!-- Node6&#45;&gt;Node4 -->
<g id="edge3" class="edge"><title>Node6&#45;&gt;Node4</title>
<path fill="none" stroke="midnightblue" d="M80.9663,-102.191C77.8065,-89.2427 74.7848,-71.6248 76.5,-56 77.9147,-43.1124 81.5434,-28.5154 84.0176,-19.5332"/>
<polygon fill="midnightblue" stroke="midnightblue" points="77.6821,-103.455 83.6631,-112.201 84.4411,-101.634 77.6821,-103.455"/>
</g>
<!-- Node6&#45;&gt;Node5 -->
<g id="edge2" class="edge"><title>Node6&#45;&gt;Node5</title>
<path fill="none" stroke="midnightblue" d="M96.1759,-102.983C101.098,-93.8168 106.858,-83.0922 110.8,-75.7511"/>
<polygon fill="midnightblue" stroke="midnightblue" points="92.9366,-101.617 91.2888,-112.083 99.1036,-104.929 92.9366,-101.617"/>
</g>
</g>
</svg>
