<?xml version="1.0" encoding="UTF-8" standalone="no"?>
<!DOCTYPE svg PUBLIC "-//W3C//DTD SVG 1.1//EN"
 "http://www.w3.org/Graphics/SVG/1.1/DTD/svg11.dtd">
<!-- Generated by graphviz version 2.38.0 (20140413.2041)
 -->
<!-- Title: System.Reflection.PropertyInfo Pages: 1 -->
<svg width="168pt" height="84pt"
 viewBox="0.00 0.00 167.50 84.00" xmlns="http://www.w3.org/2000/svg" xmlns:xlink="http://www.w3.org/1999/xlink">
<g id="graph0" class="graph" transform="scale(1 1) rotate(0) translate(4 80)">
<title>System.Reflection.PropertyInfo</title>
<!-- Node6 -->
<g id="node1" class="node"><title>Node6</title>
<g id="a_node1"><a xlink:title="Discovers the attributes of a property and provides access to property metadata.">
<polygon fill="#bfbfbf" stroke="black" points="2,-0.5 2,-19.5 153,-19.5 153,-0.5 2,-0.5"/>
<text text-anchor="middle" x="77.5" y="-7.5" font-family="Helvetica,sans-Serif" font-size="10.00">System.Reflection.PropertyInfo</text>
</a>
</g>
</g>
<!-- Node7 -->
<g id="node2" class="node"><title>Node7</title>
<g id="a_node2"><a xlink:href="class_system_1_1_reflection_1_1_member_info.html" target="_top" xlink:title="Obtains information about the attributes of a member and provides access to member metadata.">
<polygon fill="none" stroke="red" points="0,-56.5 0,-75.5 67,-75.5 67,-56.5 0,-56.5"/>
<text text-anchor="middle" x="33.5" y="-63.5" font-family="Helvetica,sans-Serif" font-size="10.00">MemberInfo</text>
</a>
</g>
</g>
<!-- Node7&#45;&gt;Node6 -->
<g id="edge1" class="edge"><title>Node7&#45;&gt;Node6</title>
<path fill="none" stroke="midnightblue" d="M47.2345,-48.144C54.9005,-38.7357 64.1333,-27.4046 70.3695,-19.7511"/>
<polygon fill="midnightblue" stroke="midnightblue" points="44.3691,-46.1198 40.7657,-56.083 49.7958,-50.5415 44.3691,-46.1198"/>
</g>
<!-- Node10 -->
<g id="node3" class="node"><title>Node10</title>
<g id="a_node3"><a xlink:href="interface_system_1_1_runtime_1_1_interop_services_1_1___property_info.html" target="_top" xlink:title="Exposes the public members of the T:System.Reflection.PropertyInfo class to unmanaged code.">
<polygon fill="none" stroke="black" points="85.5,-56.5 85.5,-75.5 159.5,-75.5 159.5,-56.5 85.5,-56.5"/>
<text text-anchor="middle" x="122.5" y="-63.5" font-family="Helvetica,sans-Serif" font-size="10.00">_PropertyInfo</text>
</a>
</g>
</g>
<!-- Node10&#45;&gt;Node6 -->
<g id="edge2" class="edge"><title>Node10&#45;&gt;Node6</title>
<path fill="none" stroke="midnightblue" d="M108.453,-48.144C100.613,-38.7357 91.1705,-27.4046 84.7926,-19.7511"/>
<polygon fill="midnightblue" stroke="midnightblue" points="105.979,-50.6414 115.069,-56.083 111.356,-46.1601 105.979,-50.6414"/>
</g>
</g>
</svg>
