<?xml version="1.0" encoding="UTF-8" standalone="no"?>
<!DOCTYPE svg PUBLIC "-//W3C//DTD SVG 1.1//EN"
 "http://www.w3.org/Graphics/SVG/1.1/DTD/svg11.dtd">
<!-- Generated by graphviz version 2.38.0 (20140413.2041)
 -->
<!-- Title: System.Security.PermissionSet Pages: 1 -->
<svg width="452pt" height="140pt"
 viewBox="0.00 0.00 451.50 140.00" xmlns="http://www.w3.org/2000/svg" xmlns:xlink="http://www.w3.org/1999/xlink">
<g id="graph0" class="graph" transform="scale(1 1) rotate(0) translate(4 136)">
<title>System.Security.PermissionSet</title>
<!-- Node8 -->
<g id="node1" class="node"><title>Node8</title>
<g id="a_node1"><a xlink:title="Represents a collection that can contain many different types of permissions.">
<polygon fill="#bfbfbf" stroke="black" points="110.5,-0.5 110.5,-19.5 266.5,-19.5 266.5,-0.5 110.5,-0.5"/>
<text text-anchor="middle" x="188.5" y="-7.5" font-family="Helvetica,sans-Serif" font-size="10.00">System.Security.PermissionSet</text>
</a>
</g>
</g>
<!-- Node9 -->
<g id="node2" class="node"><title>Node9</title>
<g id="a_node2"><a xlink:href="interface_system_1_1_security_1_1_i_security_encodable.html" target="_top" xlink:title="Defines the methods that convert permission object state to and from XML element representation.">
<polygon fill="none" stroke="black" points="0,-56.5 0,-75.5 101,-75.5 101,-56.5 0,-56.5"/>
<text text-anchor="middle" x="50.5" y="-63.5" font-family="Helvetica,sans-Serif" font-size="10.00">ISecurityEncodable</text>
</a>
</g>
</g>
<!-- Node9&#45;&gt;Node8 -->
<g id="edge1" class="edge"><title>Node9&#45;&gt;Node8</title>
<path fill="none" stroke="midnightblue" d="M81.7493,-52.772C107.671,-42.6287 143.862,-28.4669 166.736,-19.5164"/>
<polygon fill="midnightblue" stroke="midnightblue" points="80.4035,-49.5401 72.3665,-56.4435 82.9544,-56.0588 80.4035,-49.5401"/>
</g>
<!-- Node10 -->
<g id="node3" class="node"><title>Node10</title>
<g id="a_node3"><a xlink:href="interface_system_1_1_collections_1_1_i_collection.html" target="_top" xlink:title="Defines size, enumerators, and synchronization methods for all nongeneric collections.">
<polygon fill="none" stroke="black" points="157.5,-56.5 157.5,-75.5 219.5,-75.5 219.5,-56.5 157.5,-56.5"/>
<text text-anchor="middle" x="188.5" y="-63.5" font-family="Helvetica,sans-Serif" font-size="10.00">ICollection</text>
</a>
</g>
</g>
<!-- Node10&#45;&gt;Node8 -->
<g id="edge2" class="edge"><title>Node10&#45;&gt;Node8</title>
<path fill="none" stroke="midnightblue" d="M188.5,-45.8045C188.5,-36.9102 188.5,-26.7798 188.5,-19.7511"/>
<polygon fill="midnightblue" stroke="midnightblue" points="185,-46.083 188.5,-56.083 192,-46.083 185,-46.083"/>
</g>
<!-- Node11 -->
<g id="node4" class="node"><title>Node11</title>
<g id="a_node4"><a xlink:href="interface_system_1_1_collections_1_1_i_enumerable.html" target="_top" xlink:title="Exposes an enumerator, which supports a simple iteration over a non&#45;generic collection....">
<polygon fill="none" stroke="black" points="123,-112.5 123,-131.5 194,-131.5 194,-112.5 123,-112.5"/>
<text text-anchor="middle" x="158.5" y="-119.5" font-family="Helvetica,sans-Serif" font-size="10.00">IEnumerable</text>
</a>
</g>
</g>
<!-- Node11&#45;&gt;Node8 -->
<g id="edge4" class="edge"><title>Node11&#45;&gt;Node8</title>
<path fill="none" stroke="midnightblue" d="M150.892,-102.835C146.447,-89.5041 142.737,-71.1578 148.5,-56 154.221,-40.9535 167.534,-27.7254 177.234,-19.5728"/>
<polygon fill="midnightblue" stroke="midnightblue" points="147.653,-104.165 154.448,-112.294 154.205,-101.702 147.653,-104.165"/>
</g>
<!-- Node11&#45;&gt;Node10 -->
<g id="edge3" class="edge"><title>Node11&#45;&gt;Node10</title>
<path fill="none" stroke="midnightblue" d="M168.347,-103.275C173.475,-94.0454 179.516,-83.1703 183.638,-75.7511"/>
<polygon fill="midnightblue" stroke="midnightblue" points="165.251,-101.642 163.454,-112.083 171.37,-105.041 165.251,-101.642"/>
</g>
<!-- Node12 -->
<g id="node5" class="node"><title>Node12</title>
<g id="a_node5"><a xlink:href="interface_system_1_1_security_1_1_i_stack_walk.html" target="_top" xlink:title="Manages the stack walk that determines whether all callers in the call stack have the required permis...">
<polygon fill="none" stroke="black" points="238,-56.5 238,-75.5 305,-75.5 305,-56.5 238,-56.5"/>
<text text-anchor="middle" x="271.5" y="-63.5" font-family="Helvetica,sans-Serif" font-size="10.00">IStackWalk</text>
</a>
</g>
</g>
<!-- Node12&#45;&gt;Node8 -->
<g id="edge5" class="edge"><title>Node12&#45;&gt;Node8</title>
<path fill="none" stroke="midnightblue" d="M249.401,-50.6221C234.238,-40.7574 214.617,-27.9919 201.802,-19.6545"/>
<polygon fill="midnightblue" stroke="midnightblue" points="247.874,-53.8042 258.165,-56.324 251.691,-47.9367 247.874,-53.8042"/>
</g>
<!-- Node13 -->
<g id="node6" class="node"><title>Node13</title>
<g id="a_node6"><a xlink:href="interface_system_1_1_runtime_1_1_serialization_1_1_i_deserialization_callback.html" target="_top" xlink:title="Indicates that a class is to be notified when deserialization of the entire object graph has been com...">
<polygon fill="none" stroke="black" points="323.5,-56.5 323.5,-75.5 443.5,-75.5 443.5,-56.5 323.5,-56.5"/>
<text text-anchor="middle" x="383.5" y="-63.5" font-family="Helvetica,sans-Serif" font-size="10.00">IDeserializationCallback</text>
</a>
</g>
</g>
<!-- Node13&#45;&gt;Node8 -->
<g id="edge6" class="edge"><title>Node13&#45;&gt;Node8</title>
<path fill="none" stroke="midnightblue" d="M342.69,-53.6986C305.887,-43.507 252.571,-28.7429 219.254,-19.5164"/>
<polygon fill="midnightblue" stroke="midnightblue" points="342.03,-57.1477 352.602,-56.4435 343.898,-50.4016 342.03,-57.1477"/>
</g>
</g>
</svg>
