<?xml version="1.0" encoding="UTF-8" standalone="no"?>
<!DOCTYPE svg PUBLIC "-//W3C//DTD SVG 1.1//EN"
 "http://www.w3.org/Graphics/SVG/1.1/DTD/svg11.dtd">
<!-- Generated by graphviz version 2.38.0 (20140413.2041)
 -->
<!-- Title: System.Xml.Schema.XmlSchemaType Pages: 1 -->
<svg width="352pt" height="151pt"
 viewBox="0.00 0.00 352.00 151.00" xmlns="http://www.w3.org/2000/svg" xmlns:xlink="http://www.w3.org/1999/xlink">
<g id="graph0" class="graph" transform="scale(1 1) rotate(0) translate(4 147)">
<title>System.Xml.Schema.XmlSchemaType</title>
<!-- Node0 -->
<g id="node1" class="node"><title>Node0</title>
<g id="a_node1"><a xlink:title="The base class for all simple types and complex types.">
<polygon fill="#bfbfbf" stroke="black" points="79.5,-67.5 79.5,-86.5 263.5,-86.5 263.5,-67.5 79.5,-67.5"/>
<text text-anchor="middle" x="171.5" y="-74.5" font-family="Helvetica,sans-Serif" font-size="10.00">System.Xml.Schema.XmlSchemaType</text>
</a>
</g>
</g>
<!-- Node3 -->
<g id="node3" class="node"><title>Node3</title>
<g id="a_node3"><a xlink:href="class_system_1_1_xml_1_1_schema_1_1_xml_schema_complex_type.html" target="_top" xlink:title="Represents the complexType element from XML Schema as specified by the World Wide Web Consortium (W3C...">
<polygon fill="none" stroke="black" points="0,-0.5 0,-30.5 163,-30.5 163,-0.5 0,-0.5"/>
<text text-anchor="start" x="8" y="-18.5" font-family="Helvetica,sans-Serif" font-size="10.00">System.Xml.Schema.XmlSchema</text>
<text text-anchor="middle" x="81.5" y="-7.5" font-family="Helvetica,sans-Serif" font-size="10.00">ComplexType</text>
</a>
</g>
</g>
<!-- Node0&#45;&gt;Node3 -->
<g id="edge2" class="edge"><title>Node0&#45;&gt;Node3</title>
<path fill="none" stroke="midnightblue" d="M149.929,-61.739C135.625,-52.2824 116.941,-39.9304 102.711,-30.523"/>
<polygon fill="midnightblue" stroke="midnightblue" points="148.333,-64.8798 158.605,-67.4751 152.194,-59.0405 148.333,-64.8798"/>
</g>
<!-- Node4 -->
<g id="node4" class="node"><title>Node4</title>
<g id="a_node4"><a xlink:href="class_system_1_1_xml_1_1_schema_1_1_xml_schema_simple_type.html" target="_top" xlink:title="Represents the simpleType element for simple content from XML Schema as specified by the World Wide W...">
<polygon fill="none" stroke="black" points="181,-0.5 181,-30.5 344,-30.5 344,-0.5 181,-0.5"/>
<text text-anchor="start" x="189" y="-18.5" font-family="Helvetica,sans-Serif" font-size="10.00">System.Xml.Schema.XmlSchema</text>
<text text-anchor="middle" x="262.5" y="-7.5" font-family="Helvetica,sans-Serif" font-size="10.00">SimpleType</text>
</a>
</g>
</g>
<!-- Node0&#45;&gt;Node4 -->
<g id="edge3" class="edge"><title>Node0&#45;&gt;Node4</title>
<path fill="none" stroke="midnightblue" d="M193.311,-61.739C207.774,-52.2824 226.665,-39.9304 241.053,-30.523"/>
<polygon fill="midnightblue" stroke="midnightblue" points="190.992,-59.0732 184.538,-67.4751 194.823,-64.932 190.992,-59.0732"/>
</g>
<!-- Node1 -->
<g id="node2" class="node"><title>Node1</title>
<g id="a_node2"><a xlink:href="class_system_1_1_xml_1_1_schema_1_1_xml_schema_annotated.html" target="_top" xlink:title="The base class for any element that can contain annotation elements.">
<polygon fill="none" stroke="red" points="115,-123.5 115,-142.5 228,-142.5 228,-123.5 115,-123.5"/>
<text text-anchor="middle" x="171.5" y="-130.5" font-family="Helvetica,sans-Serif" font-size="10.00">XmlSchemaAnnotated</text>
</a>
</g>
</g>
<!-- Node1&#45;&gt;Node0 -->
<g id="edge1" class="edge"><title>Node1&#45;&gt;Node0</title>
<path fill="none" stroke="midnightblue" d="M171.5,-112.805C171.5,-103.91 171.5,-93.7798 171.5,-86.7511"/>
<polygon fill="midnightblue" stroke="midnightblue" points="168,-113.083 171.5,-123.083 175,-113.083 168,-113.083"/>
</g>
</g>
</svg>
