<?xml version="1.0" encoding="UTF-8" standalone="no"?>
<!DOCTYPE svg PUBLIC "-//W3C//DTD SVG 1.1//EN"
 "http://www.w3.org/Graphics/SVG/1.1/DTD/svg11.dtd">
<!-- Generated by graphviz version 2.38.0 (20140413.2041)
 -->
<!-- Title: System.Diagnostics.SymbolStore.SymLanguageType Pages: 1 -->
<svg width="432pt" height="340pt"
 viewBox="0.00 0.00 431.50 340.00" xmlns="http://www.w3.org/2000/svg" xmlns:xlink="http://www.w3.org/1999/xlink">
<g id="graph0" class="graph" transform="scale(1 1) rotate(0) translate(4 336)">
<title>System.Diagnostics.SymbolStore.SymLanguageType</title>
<!-- Node1 -->
<g id="node1" class="node"><title>Node1</title>
<g id="a_node1"><a xlink:title="Holds the public GUIDs for language types to be used with the symbol store.">
<polygon fill="#bfbfbf" stroke="black" points="87.5,-0.5 87.5,-30.5 227.5,-30.5 227.5,-0.5 87.5,-0.5"/>
<text text-anchor="start" x="95.5" y="-18.5" font-family="Helvetica,sans-Serif" font-size="10.00">System.Diagnostics.Symbol</text>
<text text-anchor="middle" x="157.5" y="-7.5" font-family="Helvetica,sans-Serif" font-size="10.00">Store.SymLanguageType</text>
</a>
</g>
</g>
<!-- Node2 -->
<g id="node2" class="node"><title>Node2</title>
<g id="a_node2"><a xlink:href="struct_system_1_1_guid.html" target="_top" xlink:title="Represents a globally unique identifier (GUID).To browse the .NET Framework source code for this type...">
<polygon fill="none" stroke="black" points="120.5,-188.5 120.5,-207.5 194.5,-207.5 194.5,-188.5 120.5,-188.5"/>
<text text-anchor="middle" x="157.5" y="-195.5" font-family="Helvetica,sans-Serif" font-size="10.00">System.Guid</text>
</a>
</g>
</g>
<!-- Node2&#45;&gt;Node1 -->
<g id="edge1" class="edge"><title>Node2&#45;&gt;Node1</title>
<path fill="none" stroke="#9a32cd" stroke-dasharray="5,2" d="M157.5,-178.09C157.5,-141.701 157.5,-62.6941 157.5,-30.5391"/>
<polygon fill="#9a32cd" stroke="#9a32cd" points="154,-178.294 157.5,-188.294 161,-178.294 154,-178.294"/>
<text text-anchor="middle" x="185" y="-162" font-family="Helvetica,sans-Serif" font-size="10.00"> Cobol</text>
<text text-anchor="middle" x="185" y="-151" font-family="Helvetica,sans-Serif" font-size="10.00">Java</text>
<text text-anchor="middle" x="185" y="-140" font-family="Helvetica,sans-Serif" font-size="10.00">SMC</text>
<text text-anchor="middle" x="185" y="-129" font-family="Helvetica,sans-Serif" font-size="10.00">CSharp</text>
<text text-anchor="middle" x="185" y="-118" font-family="Helvetica,sans-Serif" font-size="10.00">JScript</text>
<text text-anchor="middle" x="185" y="-107" font-family="Helvetica,sans-Serif" font-size="10.00">Basic</text>
<text text-anchor="middle" x="185" y="-96" font-family="Helvetica,sans-Serif" font-size="10.00">ILAssembly</text>
<text text-anchor="middle" x="185" y="-85" font-family="Helvetica,sans-Serif" font-size="10.00">Pascal</text>
<text text-anchor="middle" x="185" y="-74" font-family="Helvetica,sans-Serif" font-size="10.00">MCPlusPlus</text>
<text text-anchor="middle" x="185" y="-63" font-family="Helvetica,sans-Serif" font-size="10.00">CPlusPlus</text>
<text text-anchor="middle" x="185" y="-52" font-family="Helvetica,sans-Serif" font-size="10.00">...</text>
</g>
<!-- Node2&#45;&gt;Node2 -->
<g id="edge8" class="edge"><title>Node2&#45;&gt;Node2</title>
<path fill="none" stroke="#9a32cd" stroke-dasharray="5,2" d="M204.686,-202.307C209.457,-201.452 212.5,-200.017 212.5,-198 212.5,-194.773 204.71,-193.034 194.515,-192.782"/>
<polygon fill="#9a32cd" stroke="#9a32cd" points="204.163,-198.84 194.515,-203.218 204.788,-205.812 204.163,-198.84"/>
<text text-anchor="middle" x="228.5" y="-195.5" font-family="Helvetica,sans-Serif" font-size="10.00"> Empty</text>
</g>
<!-- Node3 -->
<g id="node3" class="node"><title>Node3</title>
<g id="a_node3"><a xlink:href="interface_system_1_1_i_formattable.html" target="_top" xlink:title="Provides functionality to format the value of an object into a string representation.">
<polygon fill="none" stroke="black" points="0,-245.5 0,-264.5 71,-264.5 71,-245.5 0,-245.5"/>
<text text-anchor="middle" x="35.5" y="-252.5" font-family="Helvetica,sans-Serif" font-size="10.00">IFormattable</text>
</a>
</g>
</g>
<!-- Node3&#45;&gt;Node2 -->
<g id="edge2" class="edge"><title>Node3&#45;&gt;Node2</title>
<path fill="none" stroke="midnightblue" d="M63.8151,-241.235C86.7994,-230.873 118.569,-216.551 138.571,-207.533"/>
<polygon fill="midnightblue" stroke="midnightblue" points="62.2405,-238.106 54.5625,-245.406 65.1174,-244.487 62.2405,-238.106"/>
</g>
<!-- Node4 -->
<g id="node4" class="node"><title>Node4</title>
<g id="a_node4"><a xlink:href="interface_system_1_1_i_comparable.html" target="_top" xlink:title="Defines a generalized type&#45;specific comparison method that a value type or class implements to order ...">
<polygon fill="none" stroke="black" points="89,-245.5 89,-264.5 160,-264.5 160,-245.5 89,-245.5"/>
<text text-anchor="middle" x="124.5" y="-252.5" font-family="Helvetica,sans-Serif" font-size="10.00">IComparable</text>
</a>
</g>
</g>
<!-- Node4&#45;&gt;Node2 -->
<g id="edge3" class="edge"><title>Node4&#45;&gt;Node2</title>
<path fill="none" stroke="midnightblue" d="M134.919,-236.635C140.694,-227.01 147.625,-215.459 152.271,-207.715"/>
<polygon fill="midnightblue" stroke="midnightblue" points="131.8,-235.031 129.656,-245.406 137.802,-238.632 131.8,-235.031"/>
</g>
<!-- Node5 -->
<g id="node5" class="node"><title>Node5</title>
<g id="a_node5"><a xlink:href="interface_system_1_1_i_comparable.html" target="_top" xlink:title=" ">
<polygon fill="none" stroke="black" points="178,-245.5 178,-264.5 287,-264.5 287,-245.5 178,-245.5"/>
<text text-anchor="middle" x="232.5" y="-252.5" font-family="Helvetica,sans-Serif" font-size="10.00">IComparable&lt; Guid &gt;</text>
</a>
</g>
</g>
<!-- Node5&#45;&gt;Node2 -->
<g id="edge4" class="edge"><title>Node5&#45;&gt;Node2</title>
<path fill="none" stroke="midnightblue" d="M212.437,-239.287C198.695,-229.21 180.934,-216.185 169.384,-207.715"/>
<polygon fill="midnightblue" stroke="midnightblue" points="210.647,-242.315 220.781,-245.406 214.787,-236.67 210.647,-242.315"/>
</g>
<!-- Node6 -->
<g id="node6" class="node"><title>Node6</title>
<g id="a_node6"><a xlink:href="interface_system_1_1_i_comparable.html" target="_top" xlink:title="Defines a generalized type&#45;specific comparison method that a value type or class implements to order ...">
<polygon fill="none" stroke="black" points="176,-312.5 176,-331.5 283,-331.5 283,-312.5 176,-312.5"/>
<text text-anchor="middle" x="229.5" y="-319.5" font-family="Helvetica,sans-Serif" font-size="10.00">System.IComparable</text>
</a>
</g>
</g>
<!-- Node6&#45;&gt;Node5 -->
<g id="edge5" class="edge"><title>Node6&#45;&gt;Node5</title>
<path fill="none" stroke="orange" stroke-dasharray="5,2" d="M230.375,-302.037C230.946,-289.67 231.664,-274.12 232.102,-264.627"/>
<polygon fill="orange" stroke="orange" points="226.869,-302.083 229.905,-312.234 233.862,-302.406 226.869,-302.083"/>
<text text-anchor="middle" x="252.5" y="-286" font-family="Helvetica,sans-Serif" font-size="10.00"> &lt; Guid &gt;</text>
</g>
<!-- Node7 -->
<g id="node7" class="node"><title>Node7</title>
<g id="a_node7"><a xlink:href="interface_system_1_1_i_equatable.html" target="_top" xlink:title=" ">
<polygon fill="none" stroke="black" points="310,-245.5 310,-264.5 411,-264.5 411,-245.5 310,-245.5"/>
<text text-anchor="middle" x="360.5" y="-252.5" font-family="Helvetica,sans-Serif" font-size="10.00">IEquatable&lt; Guid &gt;</text>
</a>
</g>
</g>
<!-- Node7&#45;&gt;Node2 -->
<g id="edge6" class="edge"><title>Node7&#45;&gt;Node2</title>
<path fill="none" stroke="midnightblue" d="M318.91,-242.732C280.38,-232.293 223.913,-216.994 188.996,-207.533"/>
<polygon fill="midnightblue" stroke="midnightblue" points="318.214,-246.169 328.781,-245.406 320.045,-239.413 318.214,-246.169"/>
</g>
<!-- Node8 -->
<g id="node8" class="node"><title>Node8</title>
<g id="a_node8"><a xlink:href="interface_system_1_1_i_equatable.html" target="_top" xlink:title="Defines a generalized method that a value type or class implements to create a type&#45;specific method f...">
<polygon fill="none" stroke="black" points="301.5,-312.5 301.5,-331.5 423.5,-331.5 423.5,-312.5 301.5,-312.5"/>
<text text-anchor="middle" x="362.5" y="-319.5" font-family="Helvetica,sans-Serif" font-size="10.00">System.IEquatable&lt; T &gt;</text>
</a>
</g>
</g>
<!-- Node8&#45;&gt;Node7 -->
<g id="edge7" class="edge"><title>Node8&#45;&gt;Node7</title>
<path fill="none" stroke="orange" stroke-dasharray="5,2" d="M361.917,-302.037C361.536,-289.67 361.058,-274.12 360.765,-264.627"/>
<polygon fill="orange" stroke="orange" points="358.424,-302.346 362.23,-312.234 365.421,-302.131 358.424,-302.346"/>
<text text-anchor="middle" x="382.5" y="-286" font-family="Helvetica,sans-Serif" font-size="10.00"> &lt; Guid &gt;</text>
</g>
</g>
</svg>
