<?xml version="1.0" encoding="UTF-8" standalone="no"?>
<!DOCTYPE svg PUBLIC "-//W3C//DTD SVG 1.1//EN"
 "http://www.w3.org/Graphics/SVG/1.1/DTD/svg11.dtd">
<!-- Generated by graphviz version 2.38.0 (20140413.2041)
 -->
<!-- Title: System.Runtime.InteropServices.ComEventsSink Pages: 1 -->
<svg width="270pt" height="95pt"
 viewBox="0.00 0.00 269.50 95.00" xmlns="http://www.w3.org/2000/svg" xmlns:xlink="http://www.w3.org/1999/xlink">
<g id="graph0" class="graph" transform="scale(1 1) rotate(0) translate(4 91)">
<title>System.Runtime.InteropServices.ComEventsSink</title>
<!-- Node0 -->
<g id="node1" class="node"><title>Node0</title>
<g id="a_node1"><a xlink:title=" ">
<polygon fill="#bfbfbf" stroke="black" points="53,-0.5 53,-30.5 214,-30.5 214,-0.5 53,-0.5"/>
<text text-anchor="start" x="61" y="-18.5" font-family="Helvetica,sans-Serif" font-size="10.00">System.Runtime.InteropServices.</text>
<text text-anchor="middle" x="133.5" y="-7.5" font-family="Helvetica,sans-Serif" font-size="10.00">ComEventsSink</text>
</a>
</g>
</g>
<!-- Node1 -->
<g id="node2" class="node"><title>Node1</title>
<g id="a_node2"><a xlink:title=" ">
<polygon fill="none" stroke="#bfbfbf" points="0,-67.5 0,-86.5 127,-86.5 127,-67.5 0,-67.5"/>
<text text-anchor="middle" x="63.5" y="-74.5" font-family="Helvetica,sans-Serif" font-size="10.00">NativeMethods::IDispatch</text>
</a>
</g>
</g>
<!-- Node1&#45;&gt;Node0 -->
<g id="edge1" class="edge"><title>Node1&#45;&gt;Node0</title>
<path fill="none" stroke="midnightblue" d="M81.2395,-60.9215C92.2306,-51.579 106.251,-39.6616 117.002,-30.523"/>
<polygon fill="midnightblue" stroke="midnightblue" points="78.8819,-58.3318 73.5293,-67.4751 83.4155,-63.6654 78.8819,-58.3318"/>
</g>
<!-- Node2 -->
<g id="node3" class="node"><title>Node2</title>
<g id="a_node3"><a xlink:href="interface_system_1_1_runtime_1_1_interop_services_1_1_i_custom_query_interface.html" target="_top" xlink:title="Enables developers to provide a custom, managed implementation of the IUnknown::QueryInterface(REFIID...">
<polygon fill="none" stroke="black" points="145.5,-67.5 145.5,-86.5 261.5,-86.5 261.5,-67.5 145.5,-67.5"/>
<text text-anchor="middle" x="203.5" y="-74.5" font-family="Helvetica,sans-Serif" font-size="10.00">ICustomQueryInterface</text>
</a>
</g>
</g>
<!-- Node2&#45;&gt;Node0 -->
<g id="edge2" class="edge"><title>Node2&#45;&gt;Node0</title>
<path fill="none" stroke="midnightblue" d="M185.761,-60.9215C174.769,-51.579 160.749,-39.6616 149.998,-30.523"/>
<polygon fill="midnightblue" stroke="midnightblue" points="183.585,-63.6654 193.471,-67.4751 188.118,-58.3318 183.585,-63.6654"/>
</g>
</g>
</svg>
