<?xml version="1.0" encoding="UTF-8" standalone="no"?>
<!DOCTYPE svg PUBLIC "-//W3C//DTD SVG 1.1//EN"
 "http://www.w3.org/Graphics/SVG/1.1/DTD/svg11.dtd">
<!-- Generated by graphviz version 2.38.0 (20140413.2041)
 -->
<!-- Title: System.Runtime.Remoting.Messaging.MethodResponse Pages: 1 -->
<!--zoomable 160 -->
<svg id="main" version="1.1" xmlns="http://www.w3.org/2000/svg" xmlns:xlink="http://www.w3.org/1999/xlink" xml:space="preserve" onload="init(evt)">
<style type="text/css"><![CDATA[
.edge:hover path { stroke: red; }
.edge:hover polygon { stroke: red; fill: red; }
]]></style>
<script type="text/javascript"><![CDATA[
var edges = document.getElementsByTagName('g');
if (edges && edges.length) {
  for (var i=0;i<edges.length;i++) {
    if (edges[i].id.substr(0,4)=='edge') {
      edges[i].setAttribute('class','edge');
    }
  }
}
]]></script>
        <defs>
                <circle id="rim" cx="0" cy="0" r="7"/>
                <circle id="rim2" cx="0" cy="0" r="3.5"/>
                <g id="zoomPlus">
                        <use xlink:href="#rim" fill="#404040">
                                <set attributeName="fill" to="#808080" begin="zoomplus.mouseover" end="zoomplus.mouseout"/>
                        </use>
                        <path d="M-4,0h8M0,-4v8" fill="none" stroke="white" stroke-width="1.5" pointer-events="none"/>
                </g>
                <g id="zoomMin">
                        <use xlink:href="#rim" fill="#404040">
                                <set attributeName="fill" to="#808080" begin="zoomminus.mouseover" end="zoomminus.mouseout"/>
                        </use>
                        <path d="M-4,0h8" fill="none" stroke="white" stroke-width="1.5" pointer-events="none"/>
                </g>
                <g id="dirArrow">
                        <path fill="none" stroke="white" stroke-width="1.5" d="M0,-3.0v7 M-2.5,-0.5L0,-3.0L2.5,-0.5"/>
                </g>
               <g id="resetDef">
                       <use xlink:href="#rim2" fill="#404040">
                               <set attributeName="fill" to="#808080" begin="reset.mouseover" end="reset.mouseout"/>
                       </use>
               </g>
        </defs>

<script type="text/javascript">
var viewWidth = 642;
var viewHeight = 160;
var sectionId = 'dynsection-1';
</script>
<script xlink:href="svgpan.js"/>
<svg id="graph" class="graph">
<g id="viewport">
<title>System.Runtime.Remoting.Messaging.MethodResponse</title>
<!-- Node6 -->
<g id="node1" class="node"><title>Node6</title>
<g id="a_node1"><a xlink:title="Implements the T:System.Runtime.Remoting.Messaging.IMethodReturnMessage interface to create a message...">
<polygon fill="#bfbfbf" stroke="black" points="491,-71 491,-101 634,-101 634,-71 491,-71"/>
<text text-anchor="start" x="499" y="-89" font-family="Helvetica,sans-Serif" font-size="10.00">System.Runtime.Remoting.</text>
<text text-anchor="middle" x="562.5" y="-78" font-family="Helvetica,sans-Serif" font-size="10.00">Messaging.MethodResponse</text>
</a>
</g>
</g>
<!-- Node7 -->
<g id="node2" class="node"><title>Node7</title>
<g id="a_node2"><a xlink:href="interface_system_1_1_runtime_1_1_remoting_1_1_messaging_1_1_i_method_return_message.html" target="_top" xlink:title="Defines the method call return message interface.">
<polygon fill="none" stroke="black" points="239.5,-114.5 239.5,-133.5 358.5,-133.5 358.5,-114.5 239.5,-114.5"/>
<text text-anchor="middle" x="299" y="-121.5" font-family="Helvetica,sans-Serif" font-size="10.00">IMethodReturnMessage</text>
</a>
</g>
</g>
<!-- Node7&#45;&gt;Node6 -->
<g id="edge1" class="edge"><title>Node7&#45;&gt;Node6</title>
<path fill="none" stroke="midnightblue" d="M368.952,-114.741C400.663,-110.404 438.763,-105.082 473,-100 478.847,-99.132 484.908,-98.2133 490.991,-97.2779"/>
<polygon fill="midnightblue" stroke="midnightblue" points="368.328,-111.293 358.893,-116.113 369.274,-118.229 368.328,-111.293"/>
</g>
<!-- Node8 -->
<g id="node3" class="node"><title>Node8</title>
<g id="a_node3"><a xlink:href="interface_system_1_1_runtime_1_1_remoting_1_1_messaging_1_1_i_method_message.html" target="_top" xlink:title="Defines the method message interface.">
<polygon fill="none" stroke="black" points="96,-88.5 96,-107.5 187,-107.5 187,-88.5 96,-88.5"/>
<text text-anchor="middle" x="141.5" y="-95.5" font-family="Helvetica,sans-Serif" font-size="10.00">IMethodMessage</text>
</a>
</g>
</g>
<!-- Node8&#45;&gt;Node6 -->
<g id="edge5" class="edge"><title>Node8&#45;&gt;Node6</title>
<path fill="none" stroke="midnightblue" d="M197.563,-96.423C272.913,-94.265 408.21,-90.3902 490.918,-88.0214"/>
<polygon fill="midnightblue" stroke="midnightblue" points="197.236,-92.9309 187.34,-96.7158 197.436,-99.928 197.236,-92.9309"/>
</g>
<!-- Node8&#45;&gt;Node7 -->
<g id="edge2" class="edge"><title>Node8&#45;&gt;Node7</title>
<path fill="none" stroke="midnightblue" d="M197.154,-107.138C211.331,-109.509 226.635,-112.068 240.933,-114.458"/>
<polygon fill="midnightblue" stroke="midnightblue" points="197.5,-103.648 187.06,-105.451 196.346,-110.552 197.5,-103.648"/>
</g>
<!-- Node9 -->
<g id="node4" class="node"><title>Node9</title>
<g id="a_node4"><a xlink:href="interface_system_1_1_runtime_1_1_remoting_1_1_messaging_1_1_i_message.html" target="_top" xlink:title="Contains communication data sent between cooperating message sinks.">
<polygon fill="none" stroke="black" points="0,-126.5 0,-145.5 59,-145.5 59,-126.5 0,-126.5"/>
<text text-anchor="middle" x="29.5" y="-133.5" font-family="Helvetica,sans-Serif" font-size="10.00">IMessage</text>
</a>
</g>
</g>
<!-- Node9&#45;&gt;Node6 -->
<g id="edge6" class="edge"><title>Node9&#45;&gt;Node6</title>
<path fill="none" stroke="midnightblue" d="M69.2954,-145.881C71.8914,-146.324 74.4766,-146.706 77,-147 77.4415,-147.052 77.5556,-147.003 78,-147 253.992,-145.811 304.729,-170.569 473,-119 489.933,-113.811 508.329,-107.127 523.941,-101.133"/>
<polygon fill="midnightblue" stroke="midnightblue" points="69.825,-142.418 59.3367,-143.917 68.4704,-149.286 69.825,-142.418"/>
</g>
<!-- Node9&#45;&gt;Node7 -->
<g id="edge4" class="edge"><title>Node9&#45;&gt;Node7</title>
<path fill="none" stroke="midnightblue" d="M69.2698,-134.261C113.887,-132.259 187.639,-128.951 239.301,-126.633"/>
<polygon fill="midnightblue" stroke="midnightblue" points="68.9603,-130.771 59.1272,-134.716 69.274,-137.764 68.9603,-130.771"/>
</g>
<!-- Node9&#45;&gt;Node8 -->
<g id="edge3" class="edge"><title>Node9&#45;&gt;Node8</title>
<path fill="none" stroke="midnightblue" d="M68.0499,-123.028C82.7049,-117.966 99.2039,-112.266 112.751,-107.586"/>
<polygon fill="midnightblue" stroke="midnightblue" points="66.5667,-119.838 58.2576,-126.411 68.8524,-126.454 66.5667,-119.838"/>
</g>
<!-- Node10 -->
<g id="node5" class="node"><title>Node10</title>
<g id="a_node5"><a xlink:href="interface_system_1_1_runtime_1_1_serialization_1_1_i_serializable.html" target="_top" xlink:title="Allows an object to control its own serialization and deserialization.">
<polygon fill="none" stroke="black" points="264.5,-38.5 264.5,-57.5 333.5,-57.5 333.5,-38.5 264.5,-38.5"/>
<text text-anchor="middle" x="299" y="-45.5" font-family="Helvetica,sans-Serif" font-size="10.00">ISerializable</text>
</a>
</g>
</g>
<!-- Node10&#45;&gt;Node6 -->
<g id="edge7" class="edge"><title>Node10&#45;&gt;Node6</title>
<path fill="none" stroke="midnightblue" d="M343.861,-53.85C378.851,-58.5735 429.101,-65.4834 473,-72 478.847,-72.868 484.908,-73.7867 490.991,-74.7221"/>
<polygon fill="midnightblue" stroke="midnightblue" points="343.893,-50.3228 333.515,-52.4571 342.959,-57.2602 343.893,-50.3228"/>
</g>
<!-- Node11 -->
<g id="node6" class="node"><title>Node11</title>
<g id="a_node6"><a xlink:href="interface_system_1_1_collections_1_1_i_dictionary.html" target="_top" xlink:title="Represents a nongeneric collection of key/value pairs.">
<polygon fill="none" stroke="red" points="224,-0.5 224,-19.5 374,-19.5 374,-0.5 224,-0.5"/>
<text text-anchor="middle" x="299" y="-7.5" font-family="Helvetica,sans-Serif" font-size="10.00">System.Collections.IDictionary</text>
</a>
</g>
</g>
<!-- Node11&#45;&gt;Node6 -->
<g id="edge8" class="edge"><title>Node11&#45;&gt;Node6</title>
<path fill="none" stroke="#9a32cd" stroke-dasharray="5,2" d="M384.279,-15.7055C412.988,-19.3372 444.909,-25.2792 473,-35 497.635,-43.5248 523.159,-59.0755 540.428,-70.7724"/>
<polygon fill="#9a32cd" stroke="#9a32cd" points="384.614,-12.2206 374.27,-14.5148 383.787,-19.1716 384.614,-12.2206"/>
<text text-anchor="middle" x="432.5" y="-49" font-family="Helvetica,sans-Serif" font-size="10.00"> InternalProperties</text>
<text text-anchor="middle" x="432.5" y="-38" font-family="Helvetica,sans-Serif" font-size="10.00">ExternalProperties</text>
</g>
</g>
</svg>
        <g id="navigator" transform="translate(0 0)" fill="#404254">
                <rect fill="#f2f5e9" fill-opacity="0.5" stroke="#606060" stroke-width=".5" x="0" y="0" width="60" height="60"/>
                <use id="zoomplus" xlink:href="#zoomPlus" x="17" y="9" onmousedown="handleZoom(evt,'in')"/>
                <use id="zoomminus" xlink:href="#zoomMin" x="42" y="9" onmousedown="handleZoom(evt,'out')"/>
                <use id="reset" xlink:href="#resetDef" x="30" y="36" onmousedown="handleReset()"/>
                <g id="arrowUp" xlink:href="#dirArrow" transform="translate(30 24)" onmousedown="handlePan(0,-1)">
                  <use xlink:href="#rim" fill="#404040">
                        <set attributeName="fill" to="#808080" begin="arrowUp.mouseover" end="arrowUp.mouseout"/>
                  </use>
                  <path fill="none" stroke="white" stroke-width="1.5" d="M0,-3.0v7 M-2.5,-0.5L0,-3.0L2.5,-0.5"/>
                </g>
                <g id="arrowRight" xlink:href="#dirArrow" transform="rotate(90) translate(36 -43)" onmousedown="handlePan(1,0)">
                  <use xlink:href="#rim" fill="#404040">
                        <set attributeName="fill" to="#808080" begin="arrowRight.mouseover" end="arrowRight.mouseout"/>
                  </use>
                  <path fill="none" stroke="white" stroke-width="1.5" d="M0,-3.0v7 M-2.5,-0.5L0,-3.0L2.5,-0.5"/>
                </g>
                <g id="arrowDown" xlink:href="#dirArrow" transform="rotate(180) translate(-30 -48)" onmousedown="handlePan(0,1)">
                  <use xlink:href="#rim" fill="#404040">
                        <set attributeName="fill" to="#808080" begin="arrowDown.mouseover" end="arrowDown.mouseout"/>
                  </use>
                  <path fill="none" stroke="white" stroke-width="1.5" d="M0,-3.0v7 M-2.5,-0.5L0,-3.0L2.5,-0.5"/>
                </g>
                <g id="arrowLeft" xlink:href="#dirArrow" transform="rotate(270) translate(-36 17)" onmousedown="handlePan(-1,0)">
                  <use xlink:href="#rim" fill="#404040">
                        <set attributeName="fill" to="#808080" begin="arrowLeft.mouseover" end="arrowLeft.mouseout"/>
                  </use>
                  <path fill="none" stroke="white" stroke-width="1.5" d="M0,-3.0v7 M-2.5,-0.5L0,-3.0L2.5,-0.5"/>
                </g>
        </g>
        <svg viewBox="0 0 15 15" width="100%" height="30px" preserveAspectRatio="xMaxYMin meet">
         <g id="arrow_out" transform="scale(0.3 0.3)">
          <a xlink:href="class_system_1_1_runtime_1_1_remoting_1_1_messaging_1_1_method_response__coll__graph_org.svg" target="_base">
           <rect id="button" ry="5" rx="5" y="6" x="6" height="38" width="38"
                fill="#f2f5e9" fill-opacity="0.5" stroke="#606060" stroke-width="1.0"/>
           <path id="arrow"
             d="M 11.500037,31.436501 C 11.940474,20.09759 22.043105,11.32322 32.158766,21.979434 L 37.068811,17.246167 C 37.068811,17.246167 37.088388,32 37.088388,32 L 22.160133,31.978069 C 22.160133,31.978069 26.997745,27.140456 26.997745,27.140456 C 18.528582,18.264221 13.291696,25.230495 11.500037,31.436501 z"
             style="fill:#404040;"/>
          </a>
         </g>
        </svg>
</svg>
