<?xml version="1.0" encoding="UTF-8" standalone="no"?>
<!DOCTYPE svg PUBLIC "-//W3C//DTD SVG 1.1//EN"
 "http://www.w3.org/Graphics/SVG/1.1/DTD/svg11.dtd">
<!-- Generated by graphviz version 2.38.0 (20140413.2041)
 -->
<!-- Title: System.CodeDom.Compiler.CodeCompiler Pages: 1 -->
<svg width="188pt" height="95pt"
 viewBox="0.00 0.00 188.00 95.00" xmlns="http://www.w3.org/2000/svg" xmlns:xlink="http://www.w3.org/1999/xlink">
<g id="graph0" class="graph" transform="scale(1 1) rotate(0) translate(4 91)">
<title>System.CodeDom.Compiler.CodeCompiler</title>
<!-- Node0 -->
<g id="node1" class="node"><title>Node0</title>
<g id="a_node1"><a xlink:title="Provides an example implementation of the T:System.CodeDom.Compiler.ICodeCompiler interface.">
<polygon fill="#bfbfbf" stroke="black" points="20,-0.5 20,-30.5 160,-30.5 160,-0.5 20,-0.5"/>
<text text-anchor="start" x="28" y="-18.5" font-family="Helvetica,sans-Serif" font-size="10.00">System.CodeDom.Compiler.</text>
<text text-anchor="middle" x="90" y="-7.5" font-family="Helvetica,sans-Serif" font-size="10.00">CodeCompiler</text>
</a>
</g>
</g>
<!-- Node1 -->
<g id="node2" class="node"><title>Node1</title>
<g id="a_node2"><a xlink:href="class_system_1_1_code_dom_1_1_compiler_1_1_code_generator.html" target="_top" xlink:title="Provides an example implementation of the T:System.CodeDom.Compiler.ICodeGenerator interface....">
<polygon fill="none" stroke="red" points="0,-67.5 0,-86.5 82,-86.5 82,-67.5 0,-67.5"/>
<text text-anchor="middle" x="41" y="-74.5" font-family="Helvetica,sans-Serif" font-size="10.00">CodeGenerator</text>
</a>
</g>
</g>
<!-- Node1&#45;&gt;Node0 -->
<g id="edge1" class="edge"><title>Node1&#45;&gt;Node0</title>
<path fill="none" stroke="midnightblue" d="M54.5638,-59.5296C62.0681,-50.4173 71.2947,-39.2136 78.4517,-30.523"/>
<polygon fill="midnightblue" stroke="midnightblue" points="51.6758,-57.5308 48.0205,-67.4751 57.0794,-61.9808 51.6758,-57.5308"/>
</g>
<!-- Node3 -->
<g id="node3" class="node"><title>Node3</title>
<g id="a_node3"><a xlink:href="interface_system_1_1_code_dom_1_1_compiler_1_1_i_code_compiler.html" target="_top" xlink:title="Defines an interface for invoking compilation of source code or a CodeDOM tree using a specific compi...">
<polygon fill="none" stroke="black" points="100,-67.5 100,-86.5 180,-86.5 180,-67.5 100,-67.5"/>
<text text-anchor="middle" x="140" y="-74.5" font-family="Helvetica,sans-Serif" font-size="10.00">ICodeCompiler</text>
</a>
</g>
</g>
<!-- Node3&#45;&gt;Node0 -->
<g id="edge2" class="edge"><title>Node3&#45;&gt;Node0</title>
<path fill="none" stroke="midnightblue" d="M126.396,-59.8108C118.696,-50.6486 109.162,-39.3032 101.784,-30.523"/>
<polygon fill="midnightblue" stroke="midnightblue" points="123.723,-62.071 132.836,-67.4751 129.082,-57.5676 123.723,-62.071"/>
</g>
</g>
</svg>
