<?xml version="1.0" encoding="UTF-8" standalone="no"?>
<!DOCTYPE svg PUBLIC "-//W3C//DTD SVG 1.1//EN"
 "http://www.w3.org/Graphics/SVG/1.1/DTD/svg11.dtd">
<!-- Generated by graphviz version 2.38.0 (20140413.2041)
 -->
<!-- Title: System.Security.Cryptography.X509Certificates.X509ExtensionEnumerator Pages: 1 -->
<svg width="252pt" height="117pt"
 viewBox="0.00 0.00 252.00 117.00" xmlns="http://www.w3.org/2000/svg" xmlns:xlink="http://www.w3.org/1999/xlink">
<g id="graph0" class="graph" transform="scale(1 1) rotate(0) translate(4 113)">
<title>System.Security.Cryptography.X509Certificates.X509ExtensionEnumerator</title>
<!-- Node2 -->
<g id="node1" class="node"><title>Node2</title>
<g id="a_node1"><a xlink:title="Supports a simple iteration over a T:System.Security.Cryptography.X509Certificates....">
<polygon fill="#bfbfbf" stroke="black" points="0,-0.5 0,-30.5 204,-30.5 204,-0.5 0,-0.5"/>
<text text-anchor="start" x="8" y="-18.5" font-family="Helvetica,sans-Serif" font-size="10.00">System.Security.Cryptography.</text>
<text text-anchor="middle" x="102" y="-7.5" font-family="Helvetica,sans-Serif" font-size="10.00">X509Certificates.X509ExtensionEnumerator</text>
</a>
</g>
</g>
<!-- Node3 -->
<g id="node2" class="node"><title>Node3</title>
<g id="a_node2"><a xlink:href="interface_system_1_1_collections_1_1_i_enumerator.html" target="_top" xlink:title="Supports a simple iteration over a non&#45;generic collection.">
<polygon fill="none" stroke="black" points="2.5,-84 2.5,-103 71.5,-103 71.5,-84 2.5,-84"/>
<text text-anchor="middle" x="37" y="-91" font-family="Helvetica,sans-Serif" font-size="10.00">IEnumerator</text>
</a>
</g>
</g>
<!-- Node3&#45;&gt;Node2 -->
<g id="edge1" class="edge"><title>Node3&#45;&gt;Node2</title>
<path fill="none" stroke="midnightblue" d="M50.9916,-76.1406C62.6156,-62.5495 78.9779,-43.4181 90.0094,-30.5198"/>
<polygon fill="midnightblue" stroke="midnightblue" points="48.2962,-73.9073 44.4563,-83.7818 53.6159,-78.4571 48.2962,-73.9073"/>
</g>
<!-- Node4 -->
<g id="node3" class="node"><title>Node4</title>
<g id="a_node3"><a xlink:href="class_system_1_1_security_1_1_cryptography_1_1_x509_certificates_1_1_x509_extension.html" target="_top" xlink:title="Represents an X509 extension.">
<polygon fill="none" stroke="red" points="90,-78.5 90,-108.5 244,-108.5 244,-78.5 90,-78.5"/>
<text text-anchor="start" x="98" y="-96.5" font-family="Helvetica,sans-Serif" font-size="10.00">System.Security.Cryptography.</text>
<text text-anchor="middle" x="167" y="-85.5" font-family="Helvetica,sans-Serif" font-size="10.00">X509Certificates.X509Extension</text>
</a>
</g>
</g>
<!-- Node4&#45;&gt;Node2 -->
<g id="edge2" class="edge"><title>Node4&#45;&gt;Node2</title>
<path fill="none" stroke="#9a32cd" stroke-dasharray="5,2" d="M148.019,-70.3065C137.094,-57.5329 123.689,-41.8596 114.171,-30.7309"/>
<polygon fill="#9a32cd" stroke="#9a32cd" points="145.614,-72.8802 154.774,-78.205 150.934,-68.3304 145.614,-72.8802"/>
<text text-anchor="middle" x="156.5" y="-52" font-family="Helvetica,sans-Serif" font-size="10.00"> Current</text>
</g>
</g>
</svg>
