<?xml version="1.0" encoding="UTF-8" standalone="no"?>
<!DOCTYPE svg PUBLIC "-//W3C//DTD SVG 1.1//EN"
 "http://www.w3.org/Graphics/SVG/1.1/DTD/svg11.dtd">
<!-- Generated by graphviz version 2.38.0 (20140413.2041)
 -->
<!-- Title: System.Configuration.SettingAttribute Pages: 1 -->
<svg width="437pt" height="88pt"
 viewBox="0.00 0.00 437.00 88.00" xmlns="http://www.w3.org/2000/svg" xmlns:xlink="http://www.w3.org/1999/xlink">
<g id="graph0" class="graph" transform="scale(1 1) rotate(0) translate(4 84)">
<title>System.Configuration.SettingAttribute</title>
<!-- Node0 -->
<g id="node1" class="node"><title>Node0</title>
<g id="a_node1"><a xlink:title="Represents a custom settings attribute used to associate settings information with a settings propert...">
<polygon fill="#bfbfbf" stroke="black" points="89,-24.5 89,-54.5 232,-54.5 232,-24.5 89,-24.5"/>
<text text-anchor="start" x="97" y="-42.5" font-family="Helvetica,sans-Serif" font-size="10.00">System.Configuration.Setting</text>
<text text-anchor="middle" x="160.5" y="-31.5" font-family="Helvetica,sans-Serif" font-size="10.00">Attribute</text>
</a>
</g>
</g>
<!-- Node3 -->
<g id="node3" class="node"><title>Node3</title>
<g id="a_node3"><a xlink:href="class_system_1_1_configuration_1_1_application_scoped_setting_attribute.html" target="_top" xlink:title="Specifies that an application settings property has a common value for all users of an application....">
<polygon fill="none" stroke="black" points="268,-49.5 268,-79.5 429,-79.5 429,-49.5 268,-49.5"/>
<text text-anchor="start" x="276" y="-67.5" font-family="Helvetica,sans-Serif" font-size="10.00">System.Configuration.Application</text>
<text text-anchor="middle" x="348.5" y="-56.5" font-family="Helvetica,sans-Serif" font-size="10.00">ScopedSettingAttribute</text>
</a>
</g>
</g>
<!-- Node0&#45;&gt;Node3 -->
<g id="edge2" class="edge"><title>Node0&#45;&gt;Node3</title>
<path fill="none" stroke="midnightblue" d="M242.071,-50.3294C250.65,-51.4825 259.372,-52.6549 267.94,-53.8064"/>
<polygon fill="midnightblue" stroke="midnightblue" points="242.461,-46.8505 232.084,-48.9871 241.528,-53.7881 242.461,-46.8505"/>
</g>
<!-- Node4 -->
<g id="node4" class="node"><title>Node4</title>
<g id="a_node4"><a xlink:href="class_system_1_1_configuration_1_1_user_scoped_setting_attribute.html" target="_top" xlink:title="Specifies that an application settings group or property contains distinct values for each user of an...">
<polygon fill="none" stroke="black" points="282,-0.5 282,-30.5 415,-30.5 415,-0.5 282,-0.5"/>
<text text-anchor="start" x="290" y="-18.5" font-family="Helvetica,sans-Serif" font-size="10.00">System.Configuration.User</text>
<text text-anchor="middle" x="348.5" y="-7.5" font-family="Helvetica,sans-Serif" font-size="10.00">ScopedSettingAttribute</text>
</a>
</g>
</g>
<!-- Node0&#45;&gt;Node4 -->
<g id="edge3" class="edge"><title>Node0&#45;&gt;Node4</title>
<path fill="none" stroke="midnightblue" d="M242.144,-29.0943C255.412,-27.3824 269.02,-25.6264 281.865,-23.9691"/>
<polygon fill="midnightblue" stroke="midnightblue" points="241.554,-25.6414 232.084,-30.3924 242.45,-32.5838 241.554,-25.6414"/>
</g>
<!-- Node1 -->
<g id="node2" class="node"><title>Node1</title>
<g id="a_node2"><a xlink:href="class_system_1_1_attribute.html" target="_top" xlink:title="Represents the base class for custom attributes.">
<polygon fill="none" stroke="red" points="0,-30 0,-49 53,-49 53,-30 0,-30"/>
<text text-anchor="middle" x="26.5" y="-37" font-family="Helvetica,sans-Serif" font-size="10.00">Attribute</text>
</a>
</g>
</g>
<!-- Node1&#45;&gt;Node0 -->
<g id="edge1" class="edge"><title>Node1&#45;&gt;Node0</title>
<path fill="none" stroke="midnightblue" d="M63.2695,-39.5C71.251,-39.5 79.9848,-39.5 88.8311,-39.5"/>
<polygon fill="midnightblue" stroke="midnightblue" points="63.2643,-36.0001 53.2643,-39.5 63.2643,-43.0001 63.2643,-36.0001"/>
</g>
</g>
</svg>
