<?xml version="1.0" encoding="UTF-8" standalone="no"?>
<!DOCTYPE svg PUBLIC "-//W3C//DTD SVG 1.1//EN"
 "http://www.w3.org/Graphics/SVG/1.1/DTD/svg11.dtd">
<!-- Generated by graphviz version 2.38.0 (20140413.2041)
 -->
<!-- Title: System.Security.Cryptography.AsymmetricSignatureDeformatter Pages: 1 -->
<svg width="366pt" height="88pt"
 viewBox="0.00 0.00 366.00 88.00" xmlns="http://www.w3.org/2000/svg" xmlns:xlink="http://www.w3.org/1999/xlink">
<g id="graph0" class="graph" transform="scale(1 1) rotate(0) translate(4 84)">
<title>System.Security.Cryptography.AsymmetricSignatureDeformatter</title>
<!-- Node0 -->
<g id="node1" class="node"><title>Node0</title>
<g id="a_node1"><a xlink:title="Represents the abstract base class from which all implementations of asymmetric signature deformatter...">
<polygon fill="#bfbfbf" stroke="black" points="0,-24.5 0,-54.5 161,-54.5 161,-24.5 0,-24.5"/>
<text text-anchor="start" x="8" y="-42.5" font-family="Helvetica,sans-Serif" font-size="10.00">System.Security.Cryptography.</text>
<text text-anchor="middle" x="80.5" y="-31.5" font-family="Helvetica,sans-Serif" font-size="10.00">AsymmetricSignatureDeformatter</text>
</a>
</g>
</g>
<!-- Node1 -->
<g id="node2" class="node"><title>Node1</title>
<g id="a_node2"><a xlink:href="class_system_1_1_security_1_1_cryptography_1_1_d_s_a_signature_deformatter.html" target="_top" xlink:title="Verifies a Digital Signature Algorithm (T:System.Security.Cryptography.DSA) PKCS#1 v1....">
<polygon fill="none" stroke="black" points="201,-49.5 201,-79.5 354,-79.5 354,-49.5 201,-49.5"/>
<text text-anchor="start" x="209" y="-67.5" font-family="Helvetica,sans-Serif" font-size="10.00">System.Security.Cryptography.</text>
<text text-anchor="middle" x="277.5" y="-56.5" font-family="Helvetica,sans-Serif" font-size="10.00">DSASignatureDeformatter</text>
</a>
</g>
</g>
<!-- Node0&#45;&gt;Node1 -->
<g id="edge1" class="edge"><title>Node0&#45;&gt;Node1</title>
<path fill="none" stroke="midnightblue" d="M171.037,-50.9791C181.032,-52.2605 191.139,-53.5563 200.935,-54.8122"/>
<polygon fill="midnightblue" stroke="midnightblue" points="171.459,-47.5047 161.095,-49.7045 170.569,-54.4478 171.459,-47.5047"/>
</g>
<!-- Node2 -->
<g id="node3" class="node"><title>Node2</title>
<g id="a_node3"><a xlink:href="class_system_1_1_security_1_1_cryptography_1_1_r_s_a_p_k_c_s1_signature_deformatter.html" target="_top" xlink:title="Verifies an T:System.Security.Cryptography.RSA PKCS #1 version 1.5 signature.">
<polygon fill="none" stroke="black" points="197,-0.5 197,-30.5 358,-30.5 358,-0.5 197,-0.5"/>
<text text-anchor="start" x="205" y="-18.5" font-family="Helvetica,sans-Serif" font-size="10.00">System.Security.Cryptography.</text>
<text text-anchor="middle" x="277.5" y="-7.5" font-family="Helvetica,sans-Serif" font-size="10.00">RSAPKCS1SignatureDeformatter</text>
</a>
</g>
</g>
<!-- Node0&#45;&gt;Node2 -->
<g id="edge2" class="edge"><title>Node0&#45;&gt;Node2</title>
<path fill="none" stroke="midnightblue" d="M171.117,-28.4702C179.7,-27.4139 188.365,-26.3474 196.843,-25.3039"/>
<polygon fill="midnightblue" stroke="midnightblue" points="170.593,-25.0082 161.095,-29.7037 171.448,-31.9558 170.593,-25.0082"/>
</g>
</g>
</svg>
