<?xml version="1.0" encoding="UTF-8" standalone="no"?>
<!DOCTYPE svg PUBLIC "-//W3C//DTD SVG 1.1//EN"
 "http://www.w3.org/Graphics/SVG/1.1/DTD/svg11.dtd">
<!-- Generated by graphviz version 2.38.0 (20140413.2041)
 -->
<!-- Title: System.Xml.Serialization.XmlSchemas Pages: 1 -->
<svg width="278pt" height="151pt"
 viewBox="0.00 0.00 277.50 151.00" xmlns="http://www.w3.org/2000/svg" xmlns:xlink="http://www.w3.org/1999/xlink">
<g id="graph0" class="graph" transform="scale(1 1) rotate(0) translate(4 147)">
<title>System.Xml.Serialization.XmlSchemas</title>
<!-- Node0 -->
<g id="node1" class="node"><title>Node0</title>
<g id="a_node1"><a xlink:title="Represents the collection of XML schemas.">
<polygon fill="#bfbfbf" stroke="black" points="6.5,-0.5 6.5,-30.5 134.5,-30.5 134.5,-0.5 6.5,-0.5"/>
<text text-anchor="start" x="14.5" y="-18.5" font-family="Helvetica,sans-Serif" font-size="10.00">System.Xml.Serialization.</text>
<text text-anchor="middle" x="70.5" y="-7.5" font-family="Helvetica,sans-Serif" font-size="10.00">XmlSchemas</text>
</a>
</g>
</g>
<!-- Node1 -->
<g id="node2" class="node"><title>Node1</title>
<g id="a_node2"><a xlink:href="class_system_1_1_collections_1_1_collection_base.html" target="_top" xlink:title="Provides the abstract base class for a strongly typed collection.">
<polygon fill="none" stroke="red" points="29.5,-67.5 29.5,-86.5 111.5,-86.5 111.5,-67.5 29.5,-67.5"/>
<text text-anchor="middle" x="70.5" y="-74.5" font-family="Helvetica,sans-Serif" font-size="10.00">CollectionBase</text>
</a>
</g>
</g>
<!-- Node1&#45;&gt;Node0 -->
<g id="edge1" class="edge"><title>Node1&#45;&gt;Node0</title>
<path fill="none" stroke="midnightblue" d="M70.5,-57.2349C70.5,-48.5864 70.5,-38.4969 70.5,-30.523"/>
<polygon fill="midnightblue" stroke="midnightblue" points="67.0001,-57.4751 70.5,-67.4751 74.0001,-57.4751 67.0001,-57.4751"/>
</g>
<!-- Node4 -->
<g id="node3" class="node"><title>Node4</title>
<g id="a_node3"><a xlink:href="interface_system_1_1_collections_1_1_i_enumerable.html" target="_top" xlink:title="Exposes an enumerator, which supports a simple iteration over a non&#45;generic collection....">
<polygon fill="none" stroke="red" points="0,-123.5 0,-142.5 71,-142.5 71,-123.5 0,-123.5"/>
<text text-anchor="middle" x="35.5" y="-130.5" font-family="Helvetica,sans-Serif" font-size="10.00">IEnumerable</text>
</a>
</g>
</g>
<!-- Node4&#45;&gt;Node0 -->
<g id="edge4" class="edge"><title>Node4&#45;&gt;Node0</title>
<path fill="none" stroke="midnightblue" d="M25.6853,-114.262C19.6523,-100.916 14.1811,-82.3632 20.5,-67 26.554,-52.2808 39.2028,-39.5727 50.2628,-30.5865"/>
<polygon fill="midnightblue" stroke="midnightblue" points="22.6121,-115.941 30.2223,-123.313 28.8699,-112.805 22.6121,-115.941"/>
</g>
<!-- Node4&#45;&gt;Node1 -->
<g id="edge2" class="edge"><title>Node4&#45;&gt;Node1</title>
<path fill="none" stroke="midnightblue" d="M46.8001,-114.566C52.8219,-105.275 59.9686,-94.2484 64.828,-86.7511"/>
<polygon fill="midnightblue" stroke="midnightblue" points="43.7815,-112.788 41.2795,-123.083 49.6556,-116.595 43.7815,-112.788"/>
</g>
<!-- Node5 -->
<g id="node4" class="node"><title>Node5</title>
<g id="a_node4"><a xlink:href="interface_system_1_1_collections_1_1_i_enumerable.html" target="_top" xlink:title=" ">
<polygon fill="none" stroke="red" points="129.5,-67.5 129.5,-86.5 269.5,-86.5 269.5,-67.5 129.5,-67.5"/>
<text text-anchor="middle" x="199.5" y="-74.5" font-family="Helvetica,sans-Serif" font-size="10.00">IEnumerable&lt; XmlSchema &gt;</text>
</a>
</g>
</g>
<!-- Node5&#45;&gt;Node0 -->
<g id="edge3" class="edge"><title>Node5&#45;&gt;Node0</title>
<path fill="none" stroke="midnightblue" d="M171.749,-63.2003C150.902,-53.5845 122.367,-40.4232 100.903,-30.523"/>
<polygon fill="midnightblue" stroke="midnightblue" points="170.471,-66.4649 181.017,-67.4751 173.403,-60.1085 170.471,-66.4649"/>
</g>
</g>
</svg>
