<?xml version="1.0" encoding="UTF-8" standalone="no"?>
<!DOCTYPE svg PUBLIC "-//W3C//DTD SVG 1.1//EN"
 "http://www.w3.org/Graphics/SVG/1.1/DTD/svg11.dtd">
<!-- Generated by graphviz version 2.38.0 (20140413.2041)
 -->
<!-- Title: System.Resources.ResourceFallbackManager Pages: 1 -->
<svg width="249pt" height="163pt"
 viewBox="0.00 0.00 249.00 163.00" xmlns="http://www.w3.org/2000/svg" xmlns:xlink="http://www.w3.org/1999/xlink">
<g id="graph0" class="graph" transform="scale(1 1) rotate(0) translate(4 159)">
<title>System.Resources.ResourceFallbackManager</title>
<!-- Node4 -->
<g id="node1" class="node"><title>Node4</title>
<g id="a_node1"><a xlink:title=" ">
<polygon fill="#bfbfbf" stroke="black" points="97,-0.5 97,-30.5 241,-30.5 241,-0.5 97,-0.5"/>
<text text-anchor="start" x="105" y="-18.5" font-family="Helvetica,sans-Serif" font-size="10.00">System.Resources.Resource</text>
<text text-anchor="middle" x="169" y="-7.5" font-family="Helvetica,sans-Serif" font-size="10.00">FallbackManager</text>
</a>
</g>
</g>
<!-- Node5 -->
<g id="node2" class="node"><title>Node5</title>
<g id="a_node2"><a xlink:href="interface_system_1_1_collections_1_1_i_enumerable.html" target="_top" xlink:title=" ">
<polygon fill="none" stroke="black" points="12,-68.5 12,-87.5 146,-87.5 146,-68.5 12,-68.5"/>
<text text-anchor="middle" x="79" y="-75.5" font-family="Helvetica,sans-Serif" font-size="10.00">IEnumerable&lt; CultureInfo &gt;</text>
</a>
</g>
</g>
<!-- Node5&#45;&gt;Node4 -->
<g id="edge1" class="edge"><title>Node5&#45;&gt;Node4</title>
<path fill="none" stroke="midnightblue" d="M100.223,-62.7331C114.687,-53.0104 133.748,-40.1972 148.135,-30.526"/>
<polygon fill="midnightblue" stroke="midnightblue" points="98.2414,-59.8482 91.8948,-68.3318 102.147,-65.6576 98.2414,-59.8482"/>
</g>
<!-- Node6 -->
<g id="node3" class="node"><title>Node6</title>
<g id="a_node3"><a xlink:href="interface_system_1_1_collections_1_1_i_enumerable.html" target="_top" xlink:title="Exposes an enumerator, which supports a simple iteration over a non&#45;generic collection....">
<polygon fill="none" stroke="black" points="0,-135.5 0,-154.5 158,-154.5 158,-135.5 0,-135.5"/>
<text text-anchor="middle" x="79" y="-142.5" font-family="Helvetica,sans-Serif" font-size="10.00">System.Collections.IEnumerable</text>
</a>
</g>
</g>
<!-- Node6&#45;&gt;Node5 -->
<g id="edge2" class="edge"><title>Node6&#45;&gt;Node5</title>
<path fill="none" stroke="orange" stroke-dasharray="5,2" d="M79,-125.037C79,-112.67 79,-97.1198 79,-87.6273"/>
<polygon fill="orange" stroke="orange" points="75.5001,-125.234 79,-135.234 82.5001,-125.234 75.5001,-125.234"/>
<text text-anchor="middle" x="112.5" y="-109" font-family="Helvetica,sans-Serif" font-size="10.00"> &lt; CultureInfo &gt;</text>
</g>
<!-- Node7 -->
<g id="node4" class="node"><title>Node7</title>
<g id="a_node4"><a xlink:href="interface_system_1_1_collections_1_1_i_enumerable.html" target="_top" xlink:title="Exposes an enumerator, which supports a simple iteration over a non&#45;generic collection....">
<polygon fill="none" stroke="black" points="164.5,-68.5 164.5,-87.5 235.5,-87.5 235.5,-68.5 164.5,-68.5"/>
<text text-anchor="middle" x="200" y="-75.5" font-family="Helvetica,sans-Serif" font-size="10.00">IEnumerable</text>
</a>
</g>
</g>
<!-- Node7&#45;&gt;Node4 -->
<g id="edge3" class="edge"><title>Node7&#45;&gt;Node4</title>
<path fill="none" stroke="midnightblue" d="M190.975,-59.3872C186.311,-50.2851 180.694,-39.3221 176.306,-30.7587"/>
<polygon fill="midnightblue" stroke="midnightblue" points="187.883,-61.0282 195.558,-68.3318 194.113,-57.836 187.883,-61.0282"/>
</g>
</g>
</svg>
