<?xml version="1.0" encoding="UTF-8" standalone="no"?>
<!DOCTYPE svg PUBLIC "-//W3C//DTD SVG 1.1//EN"
 "http://www.w3.org/Graphics/SVG/1.1/DTD/svg11.dtd">
<!-- Generated by graphviz version 2.38.0 (20140413.2041)
 -->
<!-- Title: System.Security.AccessControl.FileSystemSecurity Pages: 1 -->
<svg width="778pt" height="88pt"
 viewBox="0.00 0.00 778.00 88.00" xmlns="http://www.w3.org/2000/svg" xmlns:xlink="http://www.w3.org/1999/xlink">
<g id="graph0" class="graph" transform="scale(1 1) rotate(0) translate(4 84)">
<title>System.Security.AccessControl.FileSystemSecurity</title>
<!-- Node0 -->
<g id="node1" class="node"><title>Node0</title>
<g id="a_node1"><a xlink:title="Represents the access control and audit security for a file or directory.">
<polygon fill="#bfbfbf" stroke="black" points="416,-24.5 416,-54.5 575,-54.5 575,-24.5 416,-24.5"/>
<text text-anchor="start" x="424" y="-42.5" font-family="Helvetica,sans-Serif" font-size="10.00">System.Security.AccessControl.</text>
<text text-anchor="middle" x="495.5" y="-31.5" font-family="Helvetica,sans-Serif" font-size="10.00">FileSystemSecurity</text>
</a>
</g>
</g>
<!-- Node4 -->
<g id="node5" class="node"><title>Node4</title>
<g id="a_node5"><a xlink:href="class_system_1_1_security_1_1_access_control_1_1_directory_security.html" target="_top" xlink:title="Represents the access control and audit security for a directory. This class cannot be inherited.">
<polygon fill="none" stroke="black" points="611,-49.5 611,-79.5 770,-79.5 770,-49.5 611,-49.5"/>
<text text-anchor="start" x="619" y="-67.5" font-family="Helvetica,sans-Serif" font-size="10.00">System.Security.AccessControl.</text>
<text text-anchor="middle" x="690.5" y="-56.5" font-family="Helvetica,sans-Serif" font-size="10.00">DirectorySecurity</text>
</a>
</g>
</g>
<!-- Node0&#45;&gt;Node4 -->
<g id="edge4" class="edge"><title>Node0&#45;&gt;Node4</title>
<path fill="none" stroke="midnightblue" d="M585.023,-50.9666C593.607,-52.0786 602.276,-53.2016 610.756,-54.3"/>
<polygon fill="midnightblue" stroke="midnightblue" points="585.367,-47.4821 575,-49.6685 584.468,-54.4241 585.367,-47.4821"/>
</g>
<!-- Node5 -->
<g id="node6" class="node"><title>Node5</title>
<g id="a_node6"><a xlink:href="class_system_1_1_security_1_1_access_control_1_1_file_security.html" target="_top" xlink:title="Represents the access control and audit security for a file. This class cannot be inherited.">
<polygon fill="none" stroke="black" points="611,-0.5 611,-30.5 770,-30.5 770,-0.5 611,-0.5"/>
<text text-anchor="start" x="619" y="-18.5" font-family="Helvetica,sans-Serif" font-size="10.00">System.Security.AccessControl.</text>
<text text-anchor="middle" x="690.5" y="-7.5" font-family="Helvetica,sans-Serif" font-size="10.00">FileSecurity</text>
</a>
</g>
</g>
<!-- Node0&#45;&gt;Node5 -->
<g id="edge5" class="edge"><title>Node0&#45;&gt;Node5</title>
<path fill="none" stroke="midnightblue" d="M585.023,-28.492C593.607,-27.4245 602.276,-26.3465 610.756,-25.292"/>
<polygon fill="midnightblue" stroke="midnightblue" points="584.492,-25.0309 575,-29.7383 585.356,-31.9774 584.492,-25.0309"/>
</g>
<!-- Node1 -->
<g id="node2" class="node"><title>Node1</title>
<g id="a_node2"><a xlink:href="class_system_1_1_security_1_1_access_control_1_1_native_object_security.html" target="_top" xlink:title="Provides the ability to control access to native objects without direct manipulation of Access Contro...">
<polygon fill="none" stroke="black" points="273,-30 273,-49 380,-49 380,-30 273,-30"/>
<text text-anchor="middle" x="326.5" y="-37" font-family="Helvetica,sans-Serif" font-size="10.00">NativeObjectSecurity</text>
</a>
</g>
</g>
<!-- Node1&#45;&gt;Node0 -->
<g id="edge1" class="edge"><title>Node1&#45;&gt;Node0</title>
<path fill="none" stroke="midnightblue" d="M390.585,-39.5C398.813,-39.5 407.323,-39.5 415.768,-39.5"/>
<polygon fill="midnightblue" stroke="midnightblue" points="390.34,-36.0001 380.34,-39.5 390.34,-43.0001 390.34,-36.0001"/>
</g>
<!-- Node2 -->
<g id="node3" class="node"><title>Node2</title>
<g id="a_node3"><a xlink:href="class_system_1_1_security_1_1_access_control_1_1_common_object_security.html" target="_top" xlink:title="Controls access to objects without direct manipulation of access control lists (ACLs)....">
<polygon fill="none" stroke="black" points="117,-30 117,-49 237,-49 237,-30 117,-30"/>
<text text-anchor="middle" x="177" y="-37" font-family="Helvetica,sans-Serif" font-size="10.00">CommonObjectSecurity</text>
</a>
</g>
</g>
<!-- Node2&#45;&gt;Node1 -->
<g id="edge2" class="edge"><title>Node2&#45;&gt;Node1</title>
<path fill="none" stroke="midnightblue" d="M247.39,-39.5C255.845,-39.5 264.377,-39.5 272.539,-39.5"/>
<polygon fill="midnightblue" stroke="midnightblue" points="247.144,-36.0001 237.144,-39.5 247.144,-43.0001 247.144,-36.0001"/>
</g>
<!-- Node3 -->
<g id="node4" class="node"><title>Node3</title>
<g id="a_node4"><a xlink:href="class_system_1_1_security_1_1_access_control_1_1_object_security.html" target="_top" xlink:title="Provides the ability to control access to objects without direct manipulation of Access Control Lists...">
<polygon fill="none" stroke="black" points="0,-30 0,-49 81,-49 81,-30 0,-30"/>
<text text-anchor="middle" x="40.5" y="-37" font-family="Helvetica,sans-Serif" font-size="10.00">ObjectSecurity</text>
</a>
</g>
</g>
<!-- Node3&#45;&gt;Node2 -->
<g id="edge3" class="edge"><title>Node3&#45;&gt;Node2</title>
<path fill="none" stroke="midnightblue" d="M91.1439,-39.5C99.5482,-39.5 108.347,-39.5 116.964,-39.5"/>
<polygon fill="midnightblue" stroke="midnightblue" points="91.127,-36.0001 81.127,-39.5 91.1269,-43.0001 91.127,-36.0001"/>
</g>
</g>
</svg>
