<?xml version="1.0" encoding="UTF-8" standalone="no"?>
<!DOCTYPE svg PUBLIC "-//W3C//DTD SVG 1.1//EN"
 "http://www.w3.org/Graphics/SVG/1.1/DTD/svg11.dtd">
<!-- Generated by graphviz version 2.38.0 (20140413.2041)
 -->
<!-- Title: System.Collections.Generic.RandomizedObjectEqualityComparer Pages: 1 -->
<svg width="250pt" height="106pt"
 viewBox="0.00 0.00 250.00 106.00" xmlns="http://www.w3.org/2000/svg" xmlns:xlink="http://www.w3.org/1999/xlink">
<g id="graph0" class="graph" transform="scale(1 1) rotate(0) translate(4 102)">
<title>System.Collections.Generic.RandomizedObjectEqualityComparer</title>
<!-- Node3 -->
<g id="node1" class="node"><title>Node3</title>
<g id="a_node1"><a xlink:title=" ">
<polygon fill="#bfbfbf" stroke="black" points="25,-0.5 25,-30.5 201,-30.5 201,-0.5 25,-0.5"/>
<text text-anchor="start" x="33" y="-18.5" font-family="Helvetica,sans-Serif" font-size="10.00">System.Collections.Generic.</text>
<text text-anchor="middle" x="113" y="-7.5" font-family="Helvetica,sans-Serif" font-size="10.00">RandomizedObjectEqualityComparer</text>
</a>
</g>
</g>
<!-- Node4 -->
<g id="node2" class="node"><title>Node4</title>
<g id="a_node2"><a xlink:href="interface_system_1_1_collections_1_1_generic_1_1_i_equality_comparer.html" target="_top" xlink:title="Defines methods to support the comparison of objects for equality.">
<polygon fill="none" stroke="black" points="0,-73 0,-92 96,-92 96,-73 0,-73"/>
<text text-anchor="middle" x="48" y="-80" font-family="Helvetica,sans-Serif" font-size="10.00">IEqualityComparer</text>
</a>
</g>
</g>
<!-- Node4&#45;&gt;Node3 -->
<g id="edge1" class="edge"><title>Node4&#45;&gt;Node3</title>
<path fill="none" stroke="midnightblue" d="M63.883,-65.617C74.5935,-54.9065 88.5978,-40.9022 98.911,-30.589"/>
<polygon fill="midnightblue" stroke="midnightblue" points="61.3624,-63.1878 56.7662,-72.7338 66.3122,-68.1376 61.3624,-63.1878"/>
</g>
<!-- Node5 -->
<g id="node3" class="node"><title>Node5</title>
<g id="a_node3"><a xlink:href="interface_system_1_1_i_well_known_string_equality_comparer.html" target="_top" xlink:title=" ">
<polygon fill="none" stroke="black" points="114,-67.5 114,-97.5 242,-97.5 242,-67.5 114,-67.5"/>
<text text-anchor="start" x="122" y="-85.5" font-family="Helvetica,sans-Serif" font-size="10.00">IWellKnownStringEquality</text>
<text text-anchor="middle" x="178" y="-74.5" font-family="Helvetica,sans-Serif" font-size="10.00">Comparer</text>
</a>
</g>
</g>
<!-- Node5&#45;&gt;Node3 -->
<g id="edge2" class="edge"><title>Node5&#45;&gt;Node3</title>
<path fill="none" stroke="midnightblue" d="M156.811,-60.3115C147.061,-50.5612 135.759,-39.259 127.077,-30.5765"/>
<polygon fill="midnightblue" stroke="midnightblue" points="154.35,-62.7998 163.896,-67.396 159.3,-57.85 154.35,-62.7998"/>
</g>
</g>
</svg>
