<?xml version="1.0" encoding="UTF-8" standalone="no"?>
<!DOCTYPE svg PUBLIC "-//W3C//DTD SVG 1.1//EN"
 "http://www.w3.org/Graphics/SVG/1.1/DTD/svg11.dtd">
<!-- Generated by graphviz version 2.38.0 (20140413.2041)
 -->
<!-- Title: System.Collections.Generic.KeyNotFoundException Pages: 1 -->
<svg width="165pt" height="207pt"
 viewBox="0.00 0.00 164.50 207.00" xmlns="http://www.w3.org/2000/svg" xmlns:xlink="http://www.w3.org/1999/xlink">
<g id="graph0" class="graph" transform="scale(1 1) rotate(0) translate(4 203)">
<title>System.Collections.Generic.KeyNotFoundException</title>
<!-- Node5 -->
<g id="node1" class="node"><title>Node5</title>
<g id="a_node1"><a xlink:title="The exception that is thrown when the key specified for accessing an element in a collection does not...">
<polygon fill="#bfbfbf" stroke="black" points="1,-0.5 1,-30.5 142,-30.5 142,-0.5 1,-0.5"/>
<text text-anchor="start" x="9" y="-18.5" font-family="Helvetica,sans-Serif" font-size="10.00">System.Collections.Generic.</text>
<text text-anchor="middle" x="71.5" y="-7.5" font-family="Helvetica,sans-Serif" font-size="10.00">KeyNotFoundException</text>
</a>
</g>
</g>
<!-- Node6 -->
<g id="node2" class="node"><title>Node6</title>
<g id="a_node2"><a xlink:href="class_system_1_1_system_exception.html" target="_top" xlink:title="Serves as the base class for system exceptions namespace.">
<polygon fill="none" stroke="black" points="62.5,-67.5 62.5,-86.5 156.5,-86.5 156.5,-67.5 62.5,-67.5"/>
<text text-anchor="middle" x="109.5" y="-74.5" font-family="Helvetica,sans-Serif" font-size="10.00">SystemException</text>
</a>
</g>
</g>
<!-- Node6&#45;&gt;Node5 -->
<g id="edge1" class="edge"><title>Node6&#45;&gt;Node5</title>
<path fill="none" stroke="midnightblue" d="M98.6195,-58.9634C92.8671,-49.9564 85.8917,-39.0344 80.4558,-30.523"/>
<polygon fill="midnightblue" stroke="midnightblue" points="95.7232,-60.9311 104.056,-67.4751 101.623,-57.1633 95.7232,-60.9311"/>
</g>
<!-- Node7 -->
<g id="node3" class="node"><title>Node7</title>
<g id="a_node3"><a xlink:href="class_system_1_1_exception.html" target="_top" xlink:title="Represents errors that occur during application execution.To browse the .NET Framework source code fo...">
<polygon fill="none" stroke="black" points="79.5,-123.5 79.5,-142.5 139.5,-142.5 139.5,-123.5 79.5,-123.5"/>
<text text-anchor="middle" x="109.5" y="-130.5" font-family="Helvetica,sans-Serif" font-size="10.00">Exception</text>
</a>
</g>
</g>
<!-- Node7&#45;&gt;Node6 -->
<g id="edge2" class="edge"><title>Node7&#45;&gt;Node6</title>
<path fill="none" stroke="midnightblue" d="M109.5,-112.805C109.5,-103.91 109.5,-93.7798 109.5,-86.7511"/>
<polygon fill="midnightblue" stroke="midnightblue" points="106,-113.083 109.5,-123.083 113,-113.083 106,-113.083"/>
</g>
<!-- Node8 -->
<g id="node4" class="node"><title>Node8</title>
<g id="a_node4"><a xlink:href="interface_system_1_1_runtime_1_1_serialization_1_1_i_serializable.html" target="_top" xlink:title="Allows an object to control its own serialization and deserialization.">
<polygon fill="none" stroke="black" points="0,-179.5 0,-198.5 69,-198.5 69,-179.5 0,-179.5"/>
<text text-anchor="middle" x="34.5" y="-186.5" font-family="Helvetica,sans-Serif" font-size="10.00">ISerializable</text>
</a>
</g>
</g>
<!-- Node8&#45;&gt;Node5 -->
<g id="edge5" class="edge"><title>Node8&#45;&gt;Node5</title>
<path fill="none" stroke="midnightblue" d="M36.3489,-169.222C38.9597,-145.245 44.4456,-102.597 53.5,-67 56.6663,-54.5518 61.6495,-40.8496 65.5707,-30.8627"/>
<polygon fill="midnightblue" stroke="midnightblue" points="32.8458,-169.073 35.2952,-179.38 39.8084,-169.795 32.8458,-169.073"/>
</g>
<!-- Node8&#45;&gt;Node7 -->
<g id="edge3" class="edge"><title>Node8&#45;&gt;Node7</title>
<path fill="none" stroke="midnightblue" d="M54.8051,-173.38C68.3606,-163.62 85.7421,-151.106 97.2307,-142.834"/>
<polygon fill="midnightblue" stroke="midnightblue" points="52.6203,-170.641 46.55,-179.324 56.7105,-176.321 52.6203,-170.641"/>
</g>
<!-- Node9 -->
<g id="node5" class="node"><title>Node9</title>
<g id="a_node5"><a xlink:href="interface_system_1_1_runtime_1_1_interop_services_1_1___exception.html" target="_top" xlink:title="Exposes the public members of the T:System.Exception class to unmanaged code.">
<polygon fill="none" stroke="black" points="87,-179.5 87,-198.5 152,-198.5 152,-179.5 87,-179.5"/>
<text text-anchor="middle" x="119.5" y="-186.5" font-family="Helvetica,sans-Serif" font-size="10.00">_Exception</text>
</a>
</g>
</g>
<!-- Node9&#45;&gt;Node7 -->
<g id="edge4" class="edge"><title>Node9&#45;&gt;Node7</title>
<path fill="none" stroke="midnightblue" d="M116,-169.101C114.34,-160.136 112.437,-149.858 111.121,-142.751"/>
<polygon fill="midnightblue" stroke="midnightblue" points="112.586,-169.888 117.849,-179.083 119.469,-168.613 112.586,-169.888"/>
</g>
</g>
</svg>
