<?xml version="1.0" encoding="UTF-8" standalone="no"?>
<!DOCTYPE svg PUBLIC "-//W3C//DTD SVG 1.1//EN"
 "http://www.w3.org/Graphics/SVG/1.1/DTD/svg11.dtd">
<!-- Generated by graphviz version 2.38.0 (20140413.2041)
 -->
<!-- Title: System.Collections.Concurrent.BlockingCollection&lt; T &gt; Pages: 1 -->
<svg width="452pt" height="151pt"
 viewBox="0.00 0.00 452.00 151.00" xmlns="http://www.w3.org/2000/svg" xmlns:xlink="http://www.w3.org/1999/xlink">
<g id="graph0" class="graph" transform="scale(1 1) rotate(0) translate(4 147)">
<title>System.Collections.Concurrent.BlockingCollection&lt; T &gt;</title>
<!-- Node0 -->
<g id="node1" class="node"><title>Node0</title>
<g id="a_node1"><a xlink:title="Provides blocking and bounding capabilities for thread&#45;safe collections that implement T:System....">
<polygon fill="#bfbfbf" stroke="black" points="103.5,-0.5 103.5,-30.5 258.5,-30.5 258.5,-0.5 103.5,-0.5"/>
<text text-anchor="start" x="111.5" y="-18.5" font-family="Helvetica,sans-Serif" font-size="10.00">System.Collections.Concurrent.</text>
<text text-anchor="middle" x="181" y="-7.5" font-family="Helvetica,sans-Serif" font-size="10.00">BlockingCollection&lt; T &gt;</text>
</a>
</g>
</g>
<!-- Node1 -->
<g id="node2" class="node"><title>Node1</title>
<g id="a_node2"><a xlink:href="interface_system_1_1_collections_1_1_i_enumerable.html" target="_top" xlink:title=" ">
<polygon fill="none" stroke="red" points="0,-67.5 0,-86.5 94,-86.5 94,-67.5 0,-67.5"/>
<text text-anchor="middle" x="47" y="-74.5" font-family="Helvetica,sans-Serif" font-size="10.00">IEnumerable&lt; T &gt;</text>
</a>
</g>
</g>
<!-- Node1&#45;&gt;Node0 -->
<g id="edge1" class="edge"><title>Node1&#45;&gt;Node0</title>
<path fill="none" stroke="midnightblue" d="M75.5327,-63.3306C97.2135,-53.7037 127.022,-40.468 149.419,-30.523"/>
<polygon fill="midnightblue" stroke="midnightblue" points="73.9181,-60.218 66.1989,-67.4751 76.7589,-66.6157 73.9181,-60.218"/>
</g>
<!-- Node3 -->
<g id="node3" class="node"><title>Node3</title>
<g id="a_node3"><a xlink:href="interface_system_1_1_collections_1_1_i_enumerable.html" target="_top" xlink:title="Exposes an enumerator, which supports a simple iteration over a non&#45;generic collection....">
<polygon fill="none" stroke="red" points="115.5,-123.5 115.5,-142.5 186.5,-142.5 186.5,-123.5 115.5,-123.5"/>
<text text-anchor="middle" x="151" y="-130.5" font-family="Helvetica,sans-Serif" font-size="10.00">IEnumerable</text>
</a>
</g>
</g>
<!-- Node3&#45;&gt;Node0 -->
<g id="edge2" class="edge"><title>Node3&#45;&gt;Node0</title>
<path fill="none" stroke="midnightblue" d="M143.649,-113.929C139.332,-100.644 135.669,-82.3152 141,-67 145.853,-53.057 156.336,-40.0663 165.353,-30.7529"/>
<polygon fill="midnightblue" stroke="midnightblue" points="140.372,-115.157 147.093,-123.347 146.946,-112.753 140.372,-115.157"/>
</g>
<!-- Node4 -->
<g id="node4" class="node"><title>Node4</title>
<g id="a_node4"><a xlink:href="interface_system_1_1_collections_1_1_i_collection.html" target="_top" xlink:title="Defines size, enumerators, and synchronization methods for all nongeneric collections.">
<polygon fill="none" stroke="black" points="150,-67.5 150,-86.5 212,-86.5 212,-67.5 150,-67.5"/>
<text text-anchor="middle" x="181" y="-74.5" font-family="Helvetica,sans-Serif" font-size="10.00">ICollection</text>
</a>
</g>
</g>
<!-- Node3&#45;&gt;Node4 -->
<g id="edge4" class="edge"><title>Node3&#45;&gt;Node4</title>
<path fill="none" stroke="midnightblue" d="M160.847,-114.275C165.975,-105.045 172.016,-94.1703 176.138,-86.7511"/>
<polygon fill="midnightblue" stroke="midnightblue" points="157.751,-112.642 155.954,-123.083 163.87,-116.041 157.751,-112.642"/>
</g>
<!-- Node4&#45;&gt;Node0 -->
<g id="edge3" class="edge"><title>Node4&#45;&gt;Node0</title>
<path fill="none" stroke="midnightblue" d="M181,-57.2349C181,-48.5864 181,-38.4969 181,-30.523"/>
<polygon fill="midnightblue" stroke="midnightblue" points="177.5,-57.4751 181,-67.4751 184.5,-57.4751 177.5,-57.4751"/>
</g>
<!-- Node5 -->
<g id="node5" class="node"><title>Node5</title>
<g id="a_node5"><a xlink:href="interface_system_1_1_i_disposable.html" target="_top" xlink:title="Provides a mechanism for releasing unmanaged resources.To browse the .NET Framework source code for t...">
<polygon fill="none" stroke="black" points="230.5,-67.5 230.5,-86.5 297.5,-86.5 297.5,-67.5 230.5,-67.5"/>
<text text-anchor="middle" x="264" y="-74.5" font-family="Helvetica,sans-Serif" font-size="10.00">IDisposable</text>
</a>
</g>
</g>
<!-- Node5&#45;&gt;Node0 -->
<g id="edge5" class="edge"><title>Node5&#45;&gt;Node0</title>
<path fill="none" stroke="midnightblue" d="M243.728,-61.468C230.587,-52.0474 213.559,-39.8408 200.561,-30.523"/>
<polygon fill="midnightblue" stroke="midnightblue" points="241.941,-64.4934 252.108,-67.4751 246.02,-58.8042 241.941,-64.4934"/>
</g>
<!-- Node6 -->
<g id="node6" class="node"><title>Node6</title>
<g id="a_node6"><a xlink:href="interface_system_1_1_collections_1_1_generic_1_1_i_read_only_collection.html" target="_top" xlink:title=" ">
<polygon fill="none" stroke="red" points="316,-67.5 316,-86.5 444,-86.5 444,-67.5 316,-67.5"/>
<text text-anchor="middle" x="380" y="-74.5" font-family="Helvetica,sans-Serif" font-size="10.00">IReadOnlyCollection&lt; T &gt;</text>
</a>
</g>
</g>
<!-- Node6&#45;&gt;Node0 -->
<g id="edge6" class="edge"><title>Node6&#45;&gt;Node0</title>
<path fill="none" stroke="midnightblue" d="M341.902,-64.609C309.44,-54.9028 262.66,-40.9159 227.9,-30.523"/>
<polygon fill="midnightblue" stroke="midnightblue" points="340.905,-67.9637 351.488,-67.4751 342.91,-61.2571 340.905,-67.9637"/>
</g>
</g>
</svg>
