<?xml version="1.0" encoding="UTF-8" standalone="no"?>
<!DOCTYPE svg PUBLIC "-//W3C//DTD SVG 1.1//EN"
 "http://www.w3.org/Graphics/SVG/1.1/DTD/svg11.dtd">
<!-- Generated by graphviz version 2.38.0 (20140413.2041)
 -->
<!-- Title: System.StringComparer Pages: 1 -->
<svg width="702pt" height="166pt"
 viewBox="0.00 0.00 702.00 165.50" xmlns="http://www.w3.org/2000/svg" xmlns:xlink="http://www.w3.org/1999/xlink">
<g id="graph0" class="graph" transform="scale(1 1) rotate(0) translate(4 161.5)">
<title>System.StringComparer</title>
<!-- Node0 -->
<g id="node1" class="node"><title>Node0</title>
<g id="a_node1"><a xlink:title="Represents a string comparison operation that uses specific case and culture&#45;based or ordinal compari...">
<polygon fill="#bfbfbf" stroke="black" points="371,-72 371,-91 492,-91 492,-72 371,-72"/>
<text text-anchor="middle" x="431.5" y="-79" font-family="Helvetica,sans-Serif" font-size="10.00">System.StringComparer</text>
</a>
</g>
</g>
<!-- Node7 -->
<g id="node8" class="node"><title>Node7</title>
<g id="a_node8"><a xlink:href="class_system_1_1_culture_aware_comparer.html" target="_top" xlink:title=" ">
<polygon fill="none" stroke="black" points="535,-138 535,-157 688,-157 688,-138 535,-138"/>
<text text-anchor="middle" x="611.5" y="-145" font-family="Helvetica,sans-Serif" font-size="10.00">System.CultureAwareComparer</text>
</a>
</g>
</g>
<!-- Node0&#45;&gt;Node7 -->
<g id="edge7" class="edge"><title>Node0&#45;&gt;Node7</title>
<path fill="none" stroke="midnightblue" d="M458.027,-95.8915C477.097,-106.153 504.062,-119.647 529,-128.5 539.269,-132.146 550.516,-135.286 561.287,-137.904"/>
<polygon fill="midnightblue" stroke="midnightblue" points="459.54,-92.7294 449.086,-91.0052 456.183,-98.8721 459.54,-92.7294"/>
</g>
<!-- Node8 -->
<g id="node9" class="node"><title>Node8</title>
<g id="a_node9"><a xlink:href="class_system_1_1_culture_aware_randomized_comparer.html" target="_top" xlink:title=" ">
<polygon fill="none" stroke="black" points="529,-88.5 529,-118.5 694,-118.5 694,-88.5 529,-88.5"/>
<text text-anchor="start" x="537" y="-106.5" font-family="Helvetica,sans-Serif" font-size="10.00">System.CultureAwareRandomized</text>
<text text-anchor="middle" x="611.5" y="-95.5" font-family="Helvetica,sans-Serif" font-size="10.00">Comparer</text>
</a>
</g>
</g>
<!-- Node0&#45;&gt;Node8 -->
<g id="edge8" class="edge"><title>Node0&#45;&gt;Node8</title>
<path fill="none" stroke="midnightblue" d="M502.311,-90.1283C510.985,-91.2004 519.915,-92.3041 528.749,-93.3959"/>
<polygon fill="midnightblue" stroke="midnightblue" points="502.62,-86.64 492.267,-88.8869 501.762,-93.5872 502.62,-86.64"/>
</g>
<!-- Node9 -->
<g id="node10" class="node"><title>Node9</title>
<g id="a_node10"><a xlink:href="class_system_1_1_ordinal_comparer.html" target="_top" xlink:title=" ">
<polygon fill="none" stroke="black" points="548.5,-50 548.5,-69 674.5,-69 674.5,-50 548.5,-50"/>
<text text-anchor="middle" x="611.5" y="-57" font-family="Helvetica,sans-Serif" font-size="10.00">System.OrdinalComparer</text>
</a>
</g>
</g>
<!-- Node0&#45;&gt;Node9 -->
<g id="edge9" class="edge"><title>Node0&#45;&gt;Node9</title>
<path fill="none" stroke="midnightblue" d="M502.604,-72.8355C517.745,-70.9641 533.651,-68.9982 548.458,-67.1681"/>
<polygon fill="midnightblue" stroke="midnightblue" points="501.762,-69.4128 492.267,-74.1131 502.62,-76.36 501.762,-69.4128"/>
</g>
<!-- Node10 -->
<g id="node11" class="node"><title>Node10</title>
<g id="a_node11"><a xlink:href="class_system_1_1_ordinal_randomized_comparer.html" target="_top" xlink:title=" ">
<polygon fill="none" stroke="black" points="542.5,-0.5 542.5,-30.5 680.5,-30.5 680.5,-0.5 542.5,-0.5"/>
<text text-anchor="start" x="550.5" y="-18.5" font-family="Helvetica,sans-Serif" font-size="10.00">System.OrdinalRandomized</text>
<text text-anchor="middle" x="611.5" y="-7.5" font-family="Helvetica,sans-Serif" font-size="10.00">Comparer</text>
</a>
</g>
</g>
<!-- Node0&#45;&gt;Node10 -->
<g id="edge10" class="edge"><title>Node0&#45;&gt;Node10</title>
<path fill="none" stroke="midnightblue" d="M462.604,-67.7535C481.478,-59.3744 506.428,-48.7318 529,-40.5 538.455,-37.0519 548.637,-33.6717 558.493,-30.5666"/>
<polygon fill="midnightblue" stroke="midnightblue" points="461.029,-64.6236 453.332,-71.9041 463.889,-71.0127 461.029,-64.6236"/>
</g>
<!-- Node1 -->
<g id="node2" class="node"><title>Node1</title>
<g id="a_node2"><a xlink:href="interface_system_1_1_collections_1_1_i_comparer.html" target="_top" xlink:title="Exposes a method that compares two objects.">
<polygon fill="none" stroke="black" points="252,-126 252,-145 313,-145 313,-126 252,-126"/>
<text text-anchor="middle" x="282.5" y="-133" font-family="Helvetica,sans-Serif" font-size="10.00">IComparer</text>
</a>
</g>
</g>
<!-- Node1&#45;&gt;Node0 -->
<g id="edge1" class="edge"><title>Node1&#45;&gt;Node0</title>
<path fill="none" stroke="midnightblue" d="M319.04,-122.444C345.336,-112.785 380.567,-99.8429 404.323,-91.1162"/>
<polygon fill="midnightblue" stroke="midnightblue" points="317.622,-119.237 309.442,-125.97 320.036,-125.807 317.622,-119.237"/>
</g>
<!-- Node2 -->
<g id="node3" class="node"><title>Node2</title>
<g id="a_node3"><a xlink:href="interface_system_1_1_collections_1_1_i_equality_comparer.html" target="_top" xlink:title="Defines methods to support the comparison of objects for equality.">
<polygon fill="none" stroke="black" points="234.5,-88 234.5,-107 330.5,-107 330.5,-88 234.5,-88"/>
<text text-anchor="middle" x="282.5" y="-95" font-family="Helvetica,sans-Serif" font-size="10.00">IEqualityComparer</text>
</a>
</g>
</g>
<!-- Node2&#45;&gt;Node0 -->
<g id="edge2" class="edge"><title>Node2&#45;&gt;Node0</title>
<path fill="none" stroke="midnightblue" d="M340.898,-91.2526C350.739,-90.1815 360.984,-89.0663 370.882,-87.9891"/>
<polygon fill="midnightblue" stroke="midnightblue" points="340.383,-87.7878 330.821,-92.3494 341.141,-94.7467 340.383,-87.7878"/>
</g>
<!-- Node3 -->
<g id="node4" class="node"><title>Node3</title>
<g id="a_node4"><a xlink:href="interface_system_1_1_collections_1_1_i_comparer.html" target="_top" xlink:title=" ">
<polygon fill="none" stroke="black" points="231,-50 231,-69 334,-69 334,-50 231,-50"/>
<text text-anchor="middle" x="282.5" y="-57" font-family="Helvetica,sans-Serif" font-size="10.00">IComparer&lt; string &gt;</text>
</a>
</g>
</g>
<!-- Node3&#45;&gt;Node0 -->
<g id="edge3" class="edge"><title>Node3&#45;&gt;Node0</title>
<path fill="none" stroke="midnightblue" d="M344.001,-68.5546C352.905,-69.8871 362.072,-71.259 370.956,-72.5887"/>
<polygon fill="midnightblue" stroke="midnightblue" points="344.497,-65.0899 334.089,-67.0712 343.461,-72.0128 344.497,-65.0899"/>
</g>
<!-- Node4 -->
<g id="node5" class="node"><title>Node4</title>
<g id="a_node5"><a xlink:href="interface_system_1_1_collections_1_1_i_comparer.html" target="_top" xlink:title="Exposes a method that compares two objects.">
<polygon fill="none" stroke="black" points="0,-50 0,-69 149,-69 149,-50 0,-50"/>
<text text-anchor="middle" x="74.5" y="-57" font-family="Helvetica,sans-Serif" font-size="10.00">System.Collections.IComparer</text>
</a>
</g>
</g>
<!-- Node4&#45;&gt;Node3 -->
<g id="edge4" class="edge"><title>Node4&#45;&gt;Node3</title>
<path fill="none" stroke="orange" stroke-dasharray="5,2" d="M159.54,-59.5C183.704,-59.5 209.31,-59.5 230.787,-59.5"/>
<polygon fill="orange" stroke="orange" points="159.289,-56.0001 149.289,-59.5 159.289,-63.0001 159.289,-56.0001"/>
<text text-anchor="middle" x="190" y="-62.5" font-family="Helvetica,sans-Serif" font-size="10.00"> &lt; string &gt;</text>
</g>
<!-- Node5 -->
<g id="node6" class="node"><title>Node5</title>
<g id="a_node6"><a xlink:href="interface_system_1_1_collections_1_1_generic_1_1_i_equality_comparer.html" target="_top" xlink:title=" ">
<polygon fill="none" stroke="black" points="231.5,-0.5 231.5,-30.5 333.5,-30.5 333.5,-0.5 231.5,-0.5"/>
<text text-anchor="start" x="239.5" y="-18.5" font-family="Helvetica,sans-Serif" font-size="10.00">IEqualityComparer&lt;</text>
<text text-anchor="middle" x="282.5" y="-7.5" font-family="Helvetica,sans-Serif" font-size="10.00"> string &gt;</text>
</a>
</g>
</g>
<!-- Node5&#45;&gt;Node0 -->
<g id="edge5" class="edge"><title>Node5&#45;&gt;Node0</title>
<path fill="none" stroke="midnightblue" d="M326.527,-34.8184C353.712,-47.024 387.656,-62.264 409.212,-71.9422"/>
<polygon fill="midnightblue" stroke="midnightblue" points="327.781,-31.5447 317.225,-30.6417 324.914,-37.9306 327.781,-31.5447"/>
</g>
<!-- Node6 -->
<g id="node7" class="node"><title>Node6</title>
<g id="a_node7"><a xlink:href="interface_system_1_1_collections_1_1_generic_1_1_i_equality_comparer.html" target="_top" xlink:title="Defines methods to support the comparison of objects for equality.">
<polygon fill="none" stroke="black" points="4,-0.5 4,-30.5 145,-30.5 145,-0.5 4,-0.5"/>
<text text-anchor="start" x="12" y="-18.5" font-family="Helvetica,sans-Serif" font-size="10.00">System.Collections.Generic.</text>
<text text-anchor="middle" x="74.5" y="-7.5" font-family="Helvetica,sans-Serif" font-size="10.00">IEqualityComparer&lt; in in T &gt;</text>
</a>
</g>
</g>
<!-- Node6&#45;&gt;Node5 -->
<g id="edge6" class="edge"><title>Node6&#45;&gt;Node5</title>
<path fill="none" stroke="orange" stroke-dasharray="5,2" d="M155.311,-15.5C180.902,-15.5 208.507,-15.5 231.354,-15.5"/>
<polygon fill="orange" stroke="orange" points="155.242,-12.0001 145.242,-15.5 155.242,-19.0001 155.242,-12.0001"/>
<text text-anchor="middle" x="190" y="-18.5" font-family="Helvetica,sans-Serif" font-size="10.00"> &lt; string &gt;</text>
</g>
</g>
</svg>
