<?xml version="1.0" encoding="UTF-8" standalone="no"?>
<!DOCTYPE svg PUBLIC "-//W3C//DTD SVG 1.1//EN"
 "http://www.w3.org/Graphics/SVG/1.1/DTD/svg11.dtd">
<!-- Generated by graphviz version 2.38.0 (20140413.2041)
 -->
<!-- Title: System.IO.TextWriter Pages: 1 -->
<svg width="437pt" height="116pt"
 viewBox="0.00 0.00 437.00 115.50" xmlns="http://www.w3.org/2000/svg" xmlns:xlink="http://www.w3.org/1999/xlink">
<g id="graph0" class="graph" transform="scale(1 1) rotate(0) translate(4 111.5)">
<title>System.IO.TextWriter</title>
<!-- Node0 -->
<g id="node1" class="node"><title>Node0</title>
<g id="a_node1"><a xlink:title="Represents a writer that can write a sequential series of characters. This class is abstract.">
<polygon fill="#bfbfbf" stroke="black" points="142,-38.5 142,-57.5 253,-57.5 253,-38.5 142,-38.5"/>
<text text-anchor="middle" x="197.5" y="-45.5" font-family="Helvetica,sans-Serif" font-size="10.00">System.IO.TextWriter</text>
</a>
</g>
</g>
<!-- Node3 -->
<g id="node4" class="node"><title>Node3</title>
<g id="a_node4"><a xlink:href="class_system_1_1_code_dom_1_1_compiler_1_1_indented_text_writer.html" target="_top" xlink:title="Provides a text writer that can indent new lines by a tab string token.">
<polygon fill="none" stroke="black" points="289,-77 289,-107 429,-107 429,-77 289,-77"/>
<text text-anchor="start" x="297" y="-95" font-family="Helvetica,sans-Serif" font-size="10.00">System.CodeDom.Compiler.</text>
<text text-anchor="middle" x="359" y="-84" font-family="Helvetica,sans-Serif" font-size="10.00">IndentedTextWriter</text>
</a>
</g>
</g>
<!-- Node0&#45;&gt;Node3 -->
<g id="edge3" class="edge"><title>Node0&#45;&gt;Node3</title>
<path fill="none" stroke="midnightblue" d="M242.871,-60.2402C261.624,-65.4134 283.65,-71.4897 303.388,-76.9346"/>
<polygon fill="midnightblue" stroke="midnightblue" points="243.68,-56.8327 233.109,-57.5473 241.818,-63.5807 243.68,-56.8327"/>
</g>
<!-- Node4 -->
<g id="node5" class="node"><title>Node4</title>
<g id="a_node5"><a xlink:href="class_system_1_1_i_o_1_1_stream_writer.html" target="_top" xlink:title="Implements a T:System.IO.TextWriter for writing characters to a stream in a particular encoding....">
<polygon fill="none" stroke="black" points="297,-38.5 297,-57.5 421,-57.5 421,-38.5 297,-38.5"/>
<text text-anchor="middle" x="359" y="-45.5" font-family="Helvetica,sans-Serif" font-size="10.00">System.IO.StreamWriter</text>
</a>
</g>
</g>
<!-- Node0&#45;&gt;Node4 -->
<g id="edge4" class="edge"><title>Node0&#45;&gt;Node4</title>
<path fill="none" stroke="midnightblue" d="M263.438,-48C274.528,-48 286.013,-48 296.996,-48"/>
<polygon fill="midnightblue" stroke="midnightblue" points="263.391,-44.5001 253.391,-48 263.391,-51.5001 263.391,-44.5001"/>
</g>
<!-- Node5 -->
<g id="node6" class="node"><title>Node5</title>
<g id="a_node6"><a xlink:href="class_system_1_1_i_o_1_1_string_writer.html" target="_top" xlink:title="Implements a T:System.IO.TextWriter for writing information to a string. The information is stored in...">
<polygon fill="none" stroke="black" points="300,-0.5 300,-19.5 418,-19.5 418,-0.5 300,-0.5"/>
<text text-anchor="middle" x="359" y="-7.5" font-family="Helvetica,sans-Serif" font-size="10.00">System.IO.StringWriter</text>
</a>
</g>
</g>
<!-- Node0&#45;&gt;Node5 -->
<g id="edge5" class="edge"><title>Node0&#45;&gt;Node5</title>
<path fill="none" stroke="midnightblue" d="M248.734,-36.032C271.086,-30.7069 297.038,-24.5238 318.041,-19.5201"/>
<polygon fill="midnightblue" stroke="midnightblue" points="247.665,-32.6886 238.749,-38.411 249.288,-39.498 247.665,-32.6886"/>
</g>
<!-- Node1 -->
<g id="node2" class="node"><title>Node1</title>
<g id="a_node2"><a xlink:href="class_system_1_1_marshal_by_ref_object.html" target="_top" xlink:title="Enables access to objects across application domain boundaries in applications that support remoting.">
<polygon fill="none" stroke="black" points="0,-57.5 0,-76.5 106,-76.5 106,-57.5 0,-57.5"/>
<text text-anchor="middle" x="53" y="-64.5" font-family="Helvetica,sans-Serif" font-size="10.00">MarshalByRefObject</text>
</a>
</g>
</g>
<!-- Node1&#45;&gt;Node0 -->
<g id="edge1" class="edge"><title>Node1&#45;&gt;Node0</title>
<path fill="none" stroke="midnightblue" d="M116.179,-58.7094C124.731,-57.5693 133.459,-56.4055 141.861,-55.2852"/>
<polygon fill="midnightblue" stroke="midnightblue" points="115.702,-55.242 106.253,-60.033 116.627,-62.1806 115.702,-55.242"/>
</g>
<!-- Node2 -->
<g id="node3" class="node"><title>Node2</title>
<g id="a_node3"><a xlink:href="interface_system_1_1_i_disposable.html" target="_top" xlink:title="Provides a mechanism for releasing unmanaged resources.To browse the .NET Framework source code for t...">
<polygon fill="none" stroke="black" points="19.5,-19.5 19.5,-38.5 86.5,-38.5 86.5,-19.5 19.5,-19.5"/>
<text text-anchor="middle" x="53" y="-26.5" font-family="Helvetica,sans-Serif" font-size="10.00">IDisposable</text>
</a>
</g>
</g>
<!-- Node2&#45;&gt;Node0 -->
<g id="edge2" class="edge"><title>Node2&#45;&gt;Node0</title>
<path fill="none" stroke="midnightblue" d="M96.6763,-34.6902C110.885,-36.5846 126.91,-38.7214 141.895,-40.7194"/>
<polygon fill="midnightblue" stroke="midnightblue" points="97.0673,-31.2114 86.6924,-33.359 96.1421,-38.15 97.0673,-31.2114"/>
</g>
</g>
</svg>
