<?xml version="1.0" encoding="UTF-8" standalone="no"?>
<!DOCTYPE svg PUBLIC "-//W3C//DTD SVG 1.1//EN"
 "http://www.w3.org/Graphics/SVG/1.1/DTD/svg11.dtd">
<!-- Generated by graphviz version 2.38.0 (20140413.2041)
 -->
<!-- Title: System.Security.AccessControl.ObjectAce Pages: 1 -->
<svg width="167pt" height="207pt"
 viewBox="0.00 0.00 167.00 207.00" xmlns="http://www.w3.org/2000/svg" xmlns:xlink="http://www.w3.org/1999/xlink">
<g id="graph0" class="graph" transform="scale(1 1) rotate(0) translate(4 203)">
<title>System.Security.AccessControl.ObjectAce</title>
<!-- Node0 -->
<g id="node1" class="node"><title>Node0</title>
<g id="a_node1"><a xlink:title="Controls access to Directory Services objects. This class represents an Access Control Entry (ACE) as...">
<polygon fill="#bfbfbf" stroke="black" points="0,-0.5 0,-30.5 159,-30.5 159,-0.5 0,-0.5"/>
<text text-anchor="start" x="8" y="-18.5" font-family="Helvetica,sans-Serif" font-size="10.00">System.Security.AccessControl.</text>
<text text-anchor="middle" x="79.5" y="-7.5" font-family="Helvetica,sans-Serif" font-size="10.00">ObjectAce</text>
</a>
</g>
</g>
<!-- Node1 -->
<g id="node2" class="node"><title>Node1</title>
<g id="a_node2"><a xlink:href="class_system_1_1_security_1_1_access_control_1_1_qualified_ace.html" target="_top" xlink:title="Represents an Access Control Entry (ACE) that contains a qualifier. The qualifier,...">
<polygon fill="none" stroke="black" points="44,-67.5 44,-86.5 115,-86.5 115,-67.5 44,-67.5"/>
<text text-anchor="middle" x="79.5" y="-74.5" font-family="Helvetica,sans-Serif" font-size="10.00">QualifiedAce</text>
</a>
</g>
</g>
<!-- Node1&#45;&gt;Node0 -->
<g id="edge1" class="edge"><title>Node1&#45;&gt;Node0</title>
<path fill="none" stroke="midnightblue" d="M79.5,-57.2349C79.5,-48.5864 79.5,-38.4969 79.5,-30.523"/>
<polygon fill="midnightblue" stroke="midnightblue" points="76.0001,-57.4751 79.5,-67.4751 83.0001,-57.4751 76.0001,-57.4751"/>
</g>
<!-- Node2 -->
<g id="node3" class="node"><title>Node2</title>
<g id="a_node3"><a xlink:href="class_system_1_1_security_1_1_access_control_1_1_known_ace.html" target="_top" xlink:title="Encapsulates all Access Control Entry (ACE) types currently defined by Microsoft Corporation....">
<polygon fill="none" stroke="black" points="48,-123.5 48,-142.5 111,-142.5 111,-123.5 48,-123.5"/>
<text text-anchor="middle" x="79.5" y="-130.5" font-family="Helvetica,sans-Serif" font-size="10.00">KnownAce</text>
</a>
</g>
</g>
<!-- Node2&#45;&gt;Node1 -->
<g id="edge2" class="edge"><title>Node2&#45;&gt;Node1</title>
<path fill="none" stroke="midnightblue" d="M79.5,-112.805C79.5,-103.91 79.5,-93.7798 79.5,-86.7511"/>
<polygon fill="midnightblue" stroke="midnightblue" points="76.0001,-113.083 79.5,-123.083 83.0001,-113.083 76.0001,-113.083"/>
</g>
<!-- Node3 -->
<g id="node4" class="node"><title>Node3</title>
<g id="a_node4"><a xlink:href="class_system_1_1_security_1_1_access_control_1_1_generic_ace.html" target="_top" xlink:title="Represents an Access Control Entry (ACE), and is the base class for all other ACE classes.">
<polygon fill="none" stroke="black" points="45.5,-179.5 45.5,-198.5 113.5,-198.5 113.5,-179.5 45.5,-179.5"/>
<text text-anchor="middle" x="79.5" y="-186.5" font-family="Helvetica,sans-Serif" font-size="10.00">GenericAce</text>
</a>
</g>
</g>
<!-- Node3&#45;&gt;Node2 -->
<g id="edge3" class="edge"><title>Node3&#45;&gt;Node2</title>
<path fill="none" stroke="midnightblue" d="M79.5,-168.805C79.5,-159.91 79.5,-149.78 79.5,-142.751"/>
<polygon fill="midnightblue" stroke="midnightblue" points="76.0001,-169.083 79.5,-179.083 83.0001,-169.083 76.0001,-169.083"/>
</g>
</g>
</svg>
