<?xml version="1.0" encoding="UTF-8" standalone="no"?>
<!DOCTYPE svg PUBLIC "-//W3C//DTD SVG 1.1//EN"
 "http://www.w3.org/Graphics/SVG/1.1/DTD/svg11.dtd">
<!-- Generated by graphviz version 2.38.0 (20140413.2041)
 -->
<!-- Title: System.ComponentModel.RefreshEventArgs Pages: 1 -->
<svg width="261pt" height="106pt"
 viewBox="0.00 0.00 260.50 106.00" xmlns="http://www.w3.org/2000/svg" xmlns:xlink="http://www.w3.org/1999/xlink">
<g id="graph0" class="graph" transform="scale(1 1) rotate(0) translate(4 102)">
<title>System.ComponentModel.RefreshEventArgs</title>
<!-- Node2 -->
<g id="node1" class="node"><title>Node2</title>
<g id="a_node1"><a xlink:title="Provides data for the E:System.ComponentModel.TypeDescriptor.Refreshed event.">
<polygon fill="#bfbfbf" stroke="black" points="0,-0.5 0,-30.5 165,-30.5 165,-0.5 0,-0.5"/>
<text text-anchor="start" x="8" y="-18.5" font-family="Helvetica,sans-Serif" font-size="10.00">System.ComponentModel.Refresh</text>
<text text-anchor="middle" x="82.5" y="-7.5" font-family="Helvetica,sans-Serif" font-size="10.00">EventArgs</text>
</a>
</g>
</g>
<!-- Node3 -->
<g id="node2" class="node"><title>Node3</title>
<g id="a_node2"><a xlink:href="class_system_1_1_event_args.html" target="_top" xlink:title="Represents the base class for classes that contain event data, and provides a value to use for events...">
<polygon fill="none" stroke="red" points="23,-78.5 23,-97.5 84,-97.5 84,-78.5 23,-78.5"/>
<text text-anchor="middle" x="53.5" y="-85.5" font-family="Helvetica,sans-Serif" font-size="10.00">EventArgs</text>
</a>
</g>
</g>
<!-- Node3&#45;&gt;Node2 -->
<g id="edge1" class="edge"><title>Node3&#45;&gt;Node2</title>
<path fill="none" stroke="midnightblue" d="M60.9192,-68.9637C65.8284,-57.0293 72.1728,-41.6057 76.7098,-30.5762"/>
<polygon fill="midnightblue" stroke="midnightblue" points="57.6234,-67.7757 57.056,-78.3553 64.0971,-70.4387 57.6234,-67.7757"/>
</g>
<!-- Node5 -->
<g id="node3" class="node"><title>Node5</title>
<g id="a_node3"><a xlink:href="class_system_1_1_type.html" target="_top" xlink:title="Represents type declarations: class types, interface types, array types, value types,...">
<polygon fill="none" stroke="red" points="102.5,-78.5 102.5,-97.5 176.5,-97.5 176.5,-78.5 102.5,-78.5"/>
<text text-anchor="middle" x="139.5" y="-85.5" font-family="Helvetica,sans-Serif" font-size="10.00">System.Type</text>
</a>
</g>
</g>
<!-- Node5&#45;&gt;Node2 -->
<g id="edge2" class="edge"><title>Node5&#45;&gt;Node2</title>
<path fill="none" stroke="#9a32cd" stroke-dasharray="5,2" d="M126.073,-70.3927C116.282,-58.2828 103.159,-42.0514 93.8807,-30.5762"/>
<polygon fill="#9a32cd" stroke="#9a32cd" points="123.502,-72.7795 132.511,-78.3553 128.945,-68.3785 123.502,-72.7795"/>
<text text-anchor="middle" x="147" y="-52" font-family="Helvetica,sans-Serif" font-size="10.00"> TypeChanged</text>
</g>
<!-- Node5&#45;&gt;Node5 -->
<g id="edge3" class="edge"><title>Node5&#45;&gt;Node5</title>
<path fill="none" stroke="#9a32cd" stroke-dasharray="5,2" d="M186.686,-92.9222C191.457,-91.9454 194.5,-90.3047 194.5,-88 194.5,-84.3125 186.71,-82.3247 176.515,-82.0366"/>
<polygon fill="#9a32cd" stroke="#9a32cd" points="186.107,-89.4631 176.515,-93.9634 186.82,-96.4267 186.107,-89.4631"/>
<text text-anchor="middle" x="223.5" y="-85.5" font-family="Helvetica,sans-Serif" font-size="10.00"> EmptyTypes</text>
</g>
</g>
</svg>
