<?xml version="1.0" encoding="UTF-8" standalone="no"?>
<!DOCTYPE svg PUBLIC "-//W3C//DTD SVG 1.1//EN"
 "http://www.w3.org/Graphics/SVG/1.1/DTD/svg11.dtd">
<!-- Generated by graphviz version 2.38.0 (20140413.2041)
 -->
<!-- Title: System.Reflection.RtFieldInfo Pages: 1 -->
<svg width="361pt" height="252pt"
 viewBox="0.00 0.00 360.50 252.00" xmlns="http://www.w3.org/2000/svg" xmlns:xlink="http://www.w3.org/1999/xlink">
<g id="graph0" class="graph" transform="scale(1 1) rotate(0) translate(4 248)">
<title>System.Reflection.RtFieldInfo</title>
<!-- Node0 -->
<g id="node1" class="node"><title>Node0</title>
<g id="a_node1"><a xlink:title=" ">
<polygon fill="#bfbfbf" stroke="black" points="180.5,-0.5 180.5,-19.5 325.5,-19.5 325.5,-0.5 180.5,-0.5"/>
<text text-anchor="middle" x="253" y="-7.5" font-family="Helvetica,sans-Serif" font-size="10.00">System.Reflection.RtFieldInfo</text>
</a>
</g>
</g>
<!-- Node1 -->
<g id="node2" class="node"><title>Node1</title>
<g id="a_node2"><a xlink:href="class_system_1_1_reflection_1_1_runtime_field_info.html" target="_top" xlink:title=" ">
<polygon fill="none" stroke="black" points="154.5,-56.5 154.5,-75.5 243.5,-75.5 243.5,-56.5 154.5,-56.5"/>
<text text-anchor="middle" x="199" y="-63.5" font-family="Helvetica,sans-Serif" font-size="10.00">RuntimeFieldInfo</text>
</a>
</g>
</g>
<!-- Node1&#45;&gt;Node0 -->
<g id="edge1" class="edge"><title>Node1&#45;&gt;Node0</title>
<path fill="none" stroke="midnightblue" d="M214.998,-49.0024C224.567,-39.4329 236.361,-27.6389 244.249,-19.7511"/>
<polygon fill="midnightblue" stroke="midnightblue" points="212.513,-46.537 207.917,-56.083 217.463,-51.4868 212.513,-46.537"/>
</g>
<!-- Node2 -->
<g id="node3" class="node"><title>Node2</title>
<g id="a_node3"><a xlink:href="class_system_1_1_reflection_1_1_field_info.html" target="_top" xlink:title="Discovers the attributes of a field and provides access to field metadata.">
<polygon fill="none" stroke="black" points="133.5,-112.5 133.5,-131.5 186.5,-131.5 186.5,-112.5 133.5,-112.5"/>
<text text-anchor="middle" x="160" y="-119.5" font-family="Helvetica,sans-Serif" font-size="10.00">FieldInfo</text>
</a>
</g>
</g>
<!-- Node2&#45;&gt;Node1 -->
<g id="edge2" class="edge"><title>Node2&#45;&gt;Node1</title>
<path fill="none" stroke="midnightblue" d="M172.382,-103.855C179.135,-94.5048 187.209,-83.3265 192.68,-75.7511"/>
<polygon fill="midnightblue" stroke="midnightblue" points="169.458,-101.927 166.44,-112.083 175.132,-106.025 169.458,-101.927"/>
</g>
<!-- Node3 -->
<g id="node4" class="node"><title>Node3</title>
<g id="a_node4"><a xlink:href="class_system_1_1_reflection_1_1_member_info.html" target="_top" xlink:title="Obtains information about the attributes of a member and provides access to member metadata.">
<polygon fill="none" stroke="black" points="86.5,-168.5 86.5,-187.5 153.5,-187.5 153.5,-168.5 86.5,-168.5"/>
<text text-anchor="middle" x="120" y="-175.5" font-family="Helvetica,sans-Serif" font-size="10.00">MemberInfo</text>
</a>
</g>
</g>
<!-- Node3&#45;&gt;Node2 -->
<g id="edge3" class="edge"><title>Node3&#45;&gt;Node2</title>
<path fill="none" stroke="midnightblue" d="M132.7,-159.855C139.626,-150.505 147.906,-139.327 153.518,-131.751"/>
<polygon fill="midnightblue" stroke="midnightblue" points="129.745,-157.964 126.605,-168.083 135.37,-162.131 129.745,-157.964"/>
</g>
<!-- Node4 -->
<g id="node5" class="node"><title>Node4</title>
<g id="a_node5"><a xlink:href="interface_system_1_1_reflection_1_1_i_custom_attribute_provider.html" target="_top" xlink:title="Provides custom attributes for reflection objects that support them.">
<polygon fill="none" stroke="black" points="0,-224.5 0,-243.5 124,-243.5 124,-224.5 0,-224.5"/>
<text text-anchor="middle" x="62" y="-231.5" font-family="Helvetica,sans-Serif" font-size="10.00">ICustomAttributeProvider</text>
</a>
</g>
</g>
<!-- Node4&#45;&gt;Node3 -->
<g id="edge4" class="edge"><title>Node4&#45;&gt;Node3</title>
<path fill="none" stroke="midnightblue" d="M78.9131,-217.253C89.203,-207.673 101.966,-195.791 110.512,-187.834"/>
<polygon fill="midnightblue" stroke="midnightblue" points="76.2527,-214.948 71.3187,-224.324 81.0226,-220.071 76.2527,-214.948"/>
</g>
<!-- Node5 -->
<g id="node6" class="node"><title>Node5</title>
<g id="a_node6"><a xlink:href="interface_system_1_1_runtime_1_1_interop_services_1_1___member_info.html" target="_top" xlink:title="Exposes the public members of the T:System.Reflection.MemberInfo class to unmanaged code.">
<polygon fill="none" stroke="black" points="142,-224.5 142,-243.5 214,-243.5 214,-224.5 142,-224.5"/>
<text text-anchor="middle" x="178" y="-231.5" font-family="Helvetica,sans-Serif" font-size="10.00">_MemberInfo</text>
</a>
</g>
</g>
<!-- Node5&#45;&gt;Node3 -->
<g id="edge5" class="edge"><title>Node5&#45;&gt;Node3</title>
<path fill="none" stroke="midnightblue" d="M161.087,-217.253C150.797,-207.673 138.034,-195.791 129.488,-187.834"/>
<polygon fill="midnightblue" stroke="midnightblue" points="158.977,-220.071 168.681,-224.324 163.747,-214.948 158.977,-220.071"/>
</g>
<!-- Node6 -->
<g id="node7" class="node"><title>Node6</title>
<g id="a_node7"><a xlink:href="interface_system_1_1_runtime_1_1_interop_services_1_1___field_info.html" target="_top" xlink:title="Exposes the public members of the T:System.Reflection.FieldInfo class to unmanaged code.">
<polygon fill="none" stroke="black" points="172,-168.5 172,-187.5 230,-187.5 230,-168.5 172,-168.5"/>
<text text-anchor="middle" x="201" y="-175.5" font-family="Helvetica,sans-Serif" font-size="10.00">_FieldInfo</text>
</a>
</g>
</g>
<!-- Node6&#45;&gt;Node2 -->
<g id="edge6" class="edge"><title>Node6&#45;&gt;Node2</title>
<path fill="none" stroke="midnightblue" d="M187.983,-159.855C180.883,-150.505 172.396,-139.327 166.644,-131.751"/>
<polygon fill="midnightblue" stroke="midnightblue" points="185.395,-162.235 194.23,-168.083 190.97,-158.002 185.395,-162.235"/>
</g>
<!-- Node7 -->
<g id="node8" class="node"><title>Node7</title>
<g id="a_node8"><a xlink:href="interface_system_1_1_runtime_1_1_serialization_1_1_i_serializable.html" target="_top" xlink:title="Allows an object to control its own serialization and deserialization.">
<polygon fill="none" stroke="black" points="204.5,-112.5 204.5,-131.5 273.5,-131.5 273.5,-112.5 204.5,-112.5"/>
<text text-anchor="middle" x="239" y="-119.5" font-family="Helvetica,sans-Serif" font-size="10.00">ISerializable</text>
</a>
</g>
</g>
<!-- Node7&#45;&gt;Node1 -->
<g id="edge7" class="edge"><title>Node7&#45;&gt;Node1</title>
<path fill="none" stroke="midnightblue" d="M226.3,-103.855C219.374,-94.5048 211.094,-83.3265 205.482,-75.7511"/>
<polygon fill="midnightblue" stroke="midnightblue" points="223.63,-106.131 232.395,-112.083 229.255,-101.964 223.63,-106.131"/>
</g>
<!-- Node8 -->
<g id="node9" class="node"><title>Node8</title>
<g id="a_node9"><a xlink:href="interface_system_1_1_i_runtime_field_info.html" target="_top" xlink:title=" ">
<polygon fill="none" stroke="black" points="261.5,-56.5 261.5,-75.5 352.5,-75.5 352.5,-56.5 261.5,-56.5"/>
<text text-anchor="middle" x="307" y="-63.5" font-family="Helvetica,sans-Serif" font-size="10.00">IRuntimeFieldInfo</text>
</a>
</g>
</g>
<!-- Node8&#45;&gt;Node0 -->
<g id="edge8" class="edge"><title>Node8&#45;&gt;Node0</title>
<path fill="none" stroke="midnightblue" d="M291.002,-49.0024C281.433,-39.4329 269.639,-27.6389 261.751,-19.7511"/>
<polygon fill="midnightblue" stroke="midnightblue" points="288.537,-51.4868 298.083,-56.083 293.487,-46.537 288.537,-51.4868"/>
</g>
</g>
</svg>
