<?xml version="1.0" encoding="UTF-8" standalone="no"?>
<!DOCTYPE svg PUBLIC "-//W3C//DTD SVG 1.1//EN"
 "http://www.w3.org/Graphics/SVG/1.1/DTD/svg11.dtd">
<!-- Generated by graphviz version 2.38.0 (20140413.2041)
 -->
<!-- Title: System.Globalization.KoreanLunisolarCalendar Pages: 1 -->
<svg width="325pt" height="119pt"
 viewBox="0.00 0.00 325.00 119.00" xmlns="http://www.w3.org/2000/svg" xmlns:xlink="http://www.w3.org/1999/xlink">
<g id="graph0" class="graph" transform="scale(1 1) rotate(0) translate(4 115)">
<title>System.Globalization.KoreanLunisolarCalendar</title>
<!-- Node4 -->
<g id="node1" class="node"><title>Node4</title>
<g id="a_node1"><a xlink:title="Represents time in divisions, such as months, days, and years. Years are calculated using the Gregori...">
<polygon fill="#bfbfbf" stroke="black" points="40,-0.5 40,-30.5 183,-30.5 183,-0.5 40,-0.5"/>
<text text-anchor="start" x="48" y="-18.5" font-family="Helvetica,sans-Serif" font-size="10.00">System.Globalization.Korean</text>
<text text-anchor="middle" x="111.5" y="-7.5" font-family="Helvetica,sans-Serif" font-size="10.00">LunisolarCalendar</text>
</a>
</g>
</g>
<!-- Node5 -->
<g id="node2" class="node"><title>Node5</title>
<g id="a_node2"><a xlink:href="class_system_1_1_globalization_1_1_east_asian_lunisolar_calendar.html" target="_top" xlink:title="Represents a calendar that divides time into months, days, years, and eras, and has dates that are ba...">
<polygon fill="none" stroke="red" points="0,-90.5 0,-109.5 139,-109.5 139,-90.5 0,-90.5"/>
<text text-anchor="middle" x="69.5" y="-97.5" font-family="Helvetica,sans-Serif" font-size="10.00">EastAsianLunisolarCalendar</text>
</a>
</g>
</g>
<!-- Node5&#45;&gt;Node4 -->
<g id="edge1" class="edge"><title>Node5&#45;&gt;Node4</title>
<path fill="none" stroke="midnightblue" d="M78.5772,-81.1698C86.2899,-66.0198 97.2114,-44.5669 104.325,-30.5944"/>
<polygon fill="midnightblue" stroke="midnightblue" points="75.2544,-79.9822 73.8365,-90.4818 81.4925,-83.1581 75.2544,-79.9822"/>
</g>
<!-- Node8 -->
<g id="node3" class="node"><title>Node8</title>
<g id="a_node3"><a xlink:href="struct_system_1_1_date_time.html" target="_top" xlink:title="Represents an instant in time, typically expressed as a date and time of day. To browse the ....">
<polygon fill="none" stroke="red" points="157,-90.5 157,-109.5 252,-109.5 252,-90.5 157,-90.5"/>
<text text-anchor="middle" x="204.5" y="-97.5" font-family="Helvetica,sans-Serif" font-size="10.00">System.DateTime</text>
</a>
</g>
</g>
<!-- Node8&#45;&gt;Node4 -->
<g id="edge2" class="edge"><title>Node8&#45;&gt;Node4</title>
<path fill="none" stroke="#9a32cd" stroke-dasharray="5,2" d="M187.282,-83.7263C170.141,-68.5201 144.048,-45.373 127.388,-30.5944"/>
<polygon fill="#9a32cd" stroke="#9a32cd" points="185.094,-86.4639 194.898,-90.4818 189.74,-81.2273 185.094,-86.4639"/>
<text text-anchor="middle" x="225.5" y="-63" font-family="Helvetica,sans-Serif" font-size="10.00"> MaxSupportedDateTime</text>
<text text-anchor="middle" x="225.5" y="-52" font-family="Helvetica,sans-Serif" font-size="10.00">MinSupportedDateTime</text>
</g>
<!-- Node8&#45;&gt;Node8 -->
<g id="edge3" class="edge"><title>Node8&#45;&gt;Node8</title>
<path fill="none" stroke="#9a32cd" stroke-dasharray="5,2" d="M262.362,-105.755C267.076,-104.506 270,-102.588 270,-100 270,-95.8594 262.513,-93.4332 252.19,-92.7216"/>
<polygon fill="#9a32cd" stroke="#9a32cd" points="261.561,-102.335 252.19,-107.278 262.598,-109.258 261.561,-102.335"/>
<text text-anchor="middle" x="293.5" y="-103" font-family="Helvetica,sans-Serif" font-size="10.00"> MaxValue</text>
<text text-anchor="middle" x="293.5" y="-92" font-family="Helvetica,sans-Serif" font-size="10.00">MinValue</text>
</g>
</g>
</svg>
