<?xml version="1.0" encoding="UTF-8" standalone="no"?>
<!DOCTYPE svg PUBLIC "-//W3C//DTD SVG 1.1//EN"
 "http://www.w3.org/Graphics/SVG/1.1/DTD/svg11.dtd">
<!-- Generated by graphviz version 2.38.0 (20140413.2041)
 -->
<!-- Title: System.Collections.Generic.ObjectEqualityComparer&lt; T &gt; Pages: 1 -->
<svg width="253pt" height="231pt"
 viewBox="0.00 0.00 252.50 231.00" xmlns="http://www.w3.org/2000/svg" xmlns:xlink="http://www.w3.org/1999/xlink">
<g id="graph0" class="graph" transform="scale(1 1) rotate(0) translate(4 227)">
<title>System.Collections.Generic.ObjectEqualityComparer&lt; T &gt;</title>
<!-- Node0 -->
<g id="node1" class="node"><title>Node0</title>
<g id="a_node1"><a xlink:title=" ">
<polygon fill="#bfbfbf" stroke="black" points="12,-0.5 12,-30.5 158,-30.5 158,-0.5 12,-0.5"/>
<text text-anchor="start" x="20" y="-18.5" font-family="Helvetica,sans-Serif" font-size="10.00">System.Collections.Generic.</text>
<text text-anchor="middle" x="85" y="-7.5" font-family="Helvetica,sans-Serif" font-size="10.00">ObjectEqualityComparer&lt; T &gt;</text>
</a>
</g>
</g>
<!-- Node1 -->
<g id="node2" class="node"><title>Node1</title>
<g id="a_node2"><a xlink:href="class_system_1_1_collections_1_1_generic_1_1_equality_comparer.html" target="_top" xlink:title="Provides a base class for implementations of the T:System.Collections.Generic.IEqualityComparer`1 gen...">
<polygon fill="none" stroke="black" points="26.5,-68.5 26.5,-87.5 143.5,-87.5 143.5,-68.5 26.5,-68.5"/>
<text text-anchor="middle" x="85" y="-75.5" font-family="Helvetica,sans-Serif" font-size="10.00">EqualityComparer&lt; T &gt;</text>
</a>
</g>
</g>
<!-- Node1&#45;&gt;Node0 -->
<g id="edge1" class="edge"><title>Node1&#45;&gt;Node0</title>
<path fill="none" stroke="midnightblue" d="M85,-58.2154C85,-49.3565 85,-38.9577 85,-30.7587"/>
<polygon fill="midnightblue" stroke="midnightblue" points="81.5001,-58.3318 85,-68.3318 88.5001,-58.3319 81.5001,-58.3318"/>
</g>
<!-- Node2 -->
<g id="node3" class="node"><title>Node2</title>
<g id="a_node3"><a xlink:href="interface_system_1_1_collections_1_1_generic_1_1_i_equality_comparer.html" target="_top" xlink:title="Defines methods to support the comparison of objects for equality.">
<polygon fill="none" stroke="black" points="0,-125.5 0,-144.5 96,-144.5 96,-125.5 0,-125.5"/>
<text text-anchor="middle" x="48" y="-132.5" font-family="Helvetica,sans-Serif" font-size="10.00">IEqualityComparer</text>
</a>
</g>
</g>
<!-- Node2&#45;&gt;Node1 -->
<g id="edge2" class="edge"><title>Node2&#45;&gt;Node1</title>
<path fill="none" stroke="midnightblue" d="M59.4797,-116.936C65.9946,-107.251 73.8733,-95.5397 79.1372,-87.7149"/>
<polygon fill="midnightblue" stroke="midnightblue" points="56.459,-115.155 53.7813,-125.406 62.2671,-119.063 56.459,-115.155"/>
</g>
<!-- Node3 -->
<g id="node4" class="node"><title>Node3</title>
<g id="a_node4"><a xlink:href="interface_system_1_1_collections_1_1_generic_1_1_i_equality_comparer.html" target="_top" xlink:title=" ">
<polygon fill="none" stroke="black" points="114.5,-125.5 114.5,-144.5 233.5,-144.5 233.5,-125.5 114.5,-125.5"/>
<text text-anchor="middle" x="174" y="-132.5" font-family="Helvetica,sans-Serif" font-size="10.00">IEqualityComparer&lt; T &gt;</text>
</a>
</g>
</g>
<!-- Node3&#45;&gt;Node1 -->
<g id="edge3" class="edge"><title>Node3&#45;&gt;Node1</title>
<path fill="none" stroke="midnightblue" d="M151.524,-120.11C134.932,-109.857 112.879,-96.2288 98.8086,-87.5334"/>
<polygon fill="midnightblue" stroke="midnightblue" points="149.747,-123.127 160.094,-125.406 153.427,-117.172 149.747,-123.127"/>
</g>
<!-- Node4 -->
<g id="node5" class="node"><title>Node4</title>
<g id="a_node5"><a xlink:href="interface_system_1_1_collections_1_1_generic_1_1_i_equality_comparer.html" target="_top" xlink:title="Defines methods to support the comparison of objects for equality.">
<polygon fill="none" stroke="black" points="103.5,-192.5 103.5,-222.5 244.5,-222.5 244.5,-192.5 103.5,-192.5"/>
<text text-anchor="start" x="111.5" y="-210.5" font-family="Helvetica,sans-Serif" font-size="10.00">System.Collections.Generic.</text>
<text text-anchor="middle" x="174" y="-199.5" font-family="Helvetica,sans-Serif" font-size="10.00">IEqualityComparer&lt; in in T &gt;</text>
</a>
</g>
</g>
<!-- Node4&#45;&gt;Node3 -->
<g id="edge4" class="edge"><title>Node4&#45;&gt;Node3</title>
<path fill="none" stroke="orange" stroke-dasharray="5,2" d="M174,-182.091C174,-169.214 174,-154.197 174,-144.893"/>
<polygon fill="orange" stroke="orange" points="170.5,-182.233 174,-192.233 177.5,-182.233 170.5,-182.233"/>
<text text-anchor="middle" x="187.5" y="-166" font-family="Helvetica,sans-Serif" font-size="10.00"> &lt; T &gt;</text>
</g>
</g>
</svg>
