<?xml version="1.0" encoding="UTF-8" standalone="no"?>
<!DOCTYPE svg PUBLIC "-//W3C//DTD SVG 1.1//EN"
 "http://www.w3.org/Graphics/SVG/1.1/DTD/svg11.dtd">
<!-- Generated by graphviz version 2.38.0 (20140413.2041)
 -->
<!-- Title: System.Security.Policy.PermissionRequestEvidence Pages: 1 -->
<svg width="265pt" height="128pt"
 viewBox="0.00 0.00 265.00 128.00" xmlns="http://www.w3.org/2000/svg" xmlns:xlink="http://www.w3.org/1999/xlink">
<g id="graph0" class="graph" transform="scale(1 1) rotate(0) translate(4 124)">
<title>System.Security.Policy.PermissionRequestEvidence</title>
<!-- Node2 -->
<g id="node1" class="node"><title>Node2</title>
<g id="a_node1"><a xlink:title="Defines evidence that represents permission requests. This class cannot be inherited.">
<polygon fill="#bfbfbf" stroke="black" points="20.5,-0.5 20.5,-30.5 191.5,-30.5 191.5,-0.5 20.5,-0.5"/>
<text text-anchor="start" x="28.5" y="-18.5" font-family="Helvetica,sans-Serif" font-size="10.00">System.Security.Policy.Permission</text>
<text text-anchor="middle" x="106" y="-7.5" font-family="Helvetica,sans-Serif" font-size="10.00">RequestEvidence</text>
</a>
</g>
</g>
<!-- Node3 -->
<g id="node2" class="node"><title>Node3</title>
<g id="a_node2"><a xlink:href="class_system_1_1_security_1_1_policy_1_1_evidence_base.html" target="_top" xlink:title="Provides a base class from which all objects to be used as evidence must derive.">
<polygon fill="none" stroke="black" points="0,-100.5 0,-119.5 78,-119.5 78,-100.5 0,-100.5"/>
<text text-anchor="middle" x="39" y="-107.5" font-family="Helvetica,sans-Serif" font-size="10.00">EvidenceBase</text>
</a>
</g>
</g>
<!-- Node3&#45;&gt;Node2 -->
<g id="edge1" class="edge"><title>Node3&#45;&gt;Node2</title>
<path fill="none" stroke="midnightblue" d="M51.1232,-92.2628C63.8694,-74.6653 83.7065,-47.2783 95.7147,-30.6999"/>
<polygon fill="midnightblue" stroke="midnightblue" points="48.2147,-90.3118 45.1831,-100.464 53.8838,-94.418 48.2147,-90.3118"/>
</g>
<!-- Node4 -->
<g id="node3" class="node"><title>Node4</title>
<g id="a_node3"><a xlink:href="class_system_1_1_security_1_1_permission_set.html" target="_top" xlink:title="Represents a collection that can contain many different types of permissions.">
<polygon fill="none" stroke="red" points="96,-100.5 96,-119.5 252,-119.5 252,-100.5 96,-100.5"/>
<text text-anchor="middle" x="174" y="-107.5" font-family="Helvetica,sans-Serif" font-size="10.00">System.Security.PermissionSet</text>
</a>
</g>
</g>
<!-- Node4&#45;&gt;Node2 -->
<g id="edge2" class="edge"><title>Node4&#45;&gt;Node2</title>
<path fill="none" stroke="#9a32cd" stroke-dasharray="5,2" d="M161.696,-92.2628C148.759,-74.6653 128.626,-47.2783 116.439,-30.6999"/>
<polygon fill="#9a32cd" stroke="#9a32cd" points="158.981,-94.4796 167.725,-100.464 164.621,-90.3334 158.981,-94.4796"/>
<text text-anchor="middle" x="205" y="-74" font-family="Helvetica,sans-Serif" font-size="10.00"> RequestedPermissions</text>
<text text-anchor="middle" x="205" y="-63" font-family="Helvetica,sans-Serif" font-size="10.00">DeniedPermissions</text>
<text text-anchor="middle" x="205" y="-52" font-family="Helvetica,sans-Serif" font-size="10.00">OptionalPermissions</text>
</g>
</g>
</svg>
