<?xml version="1.0" encoding="UTF-8" standalone="no"?>
<!DOCTYPE svg PUBLIC "-//W3C//DTD SVG 1.1//EN"
 "http://www.w3.org/Graphics/SVG/1.1/DTD/svg11.dtd">
<!-- Generated by graphviz version 2.38.0 (20140413.2041)
 -->
<!-- Title: System.Collections.CollectionBase Pages: 1 -->
<svg width="261pt" height="209pt"
 viewBox="0.00 0.00 261.00 209.00" xmlns="http://www.w3.org/2000/svg" xmlns:xlink="http://www.w3.org/1999/xlink">
<g id="graph0" class="graph" transform="scale(1 1) rotate(0) translate(4 205)">
<title>System.Collections.CollectionBase</title>
<!-- Node30 -->
<g id="node1" class="node"><title>Node30</title>
<g id="a_node1"><a xlink:title="Provides the abstract base class for a strongly typed collection.">
<polygon fill="#bfbfbf" stroke="black" points="0,-0.5 0,-19.5 170,-19.5 170,-0.5 0,-0.5"/>
<text text-anchor="middle" x="85" y="-7.5" font-family="Helvetica,sans-Serif" font-size="10.00">System.Collections.CollectionBase</text>
</a>
</g>
</g>
<!-- Node31 -->
<g id="node2" class="node"><title>Node31</title>
<g id="a_node2"><a xlink:href="interface_system_1_1_collections_1_1_i_list.html" target="_top" xlink:title="Represents a non&#45;generic collection of objects that can be individually accessed by index.">
<polygon fill="none" stroke="black" points="39.5,-67.5 39.5,-86.5 74.5,-86.5 74.5,-67.5 39.5,-67.5"/>
<text text-anchor="middle" x="57" y="-74.5" font-family="Helvetica,sans-Serif" font-size="10.00">IList</text>
</a>
</g>
</g>
<!-- Node31&#45;&gt;Node30 -->
<g id="edge1" class="edge"><title>Node31&#45;&gt;Node30</title>
<path fill="none" stroke="midnightblue" d="M64.8443,-57.79C70.2213,-45.3076 77.1111,-29.3135 81.2836,-19.6273"/>
<polygon fill="midnightblue" stroke="midnightblue" points="61.5181,-56.665 60.7762,-67.2338 67.9469,-59.4344 61.5181,-56.665"/>
</g>
<!-- Node32 -->
<g id="node3" class="node"><title>Node32</title>
<g id="a_node3"><a xlink:href="interface_system_1_1_collections_1_1_i_collection.html" target="_top" xlink:title="Defines size, enumerators, and synchronization methods for all nongeneric collections.">
<polygon fill="none" stroke="black" points="79,-124.5 79,-143.5 141,-143.5 141,-124.5 79,-124.5"/>
<text text-anchor="middle" x="110" y="-131.5" font-family="Helvetica,sans-Serif" font-size="10.00">ICollection</text>
</a>
</g>
</g>
<!-- Node32&#45;&gt;Node30 -->
<g id="edge5" class="edge"><title>Node32&#45;&gt;Node30</title>
<path fill="none" stroke="midnightblue" d="M106.146,-114.191C100.655,-87.3972 90.802,-39.314 86.7816,-19.6944"/>
<polygon fill="midnightblue" stroke="midnightblue" points="102.766,-115.132 108.202,-124.226 109.623,-113.727 102.766,-115.132"/>
</g>
<!-- Node32&#45;&gt;Node31 -->
<g id="edge2" class="edge"><title>Node32&#45;&gt;Node31</title>
<path fill="none" stroke="midnightblue" d="M94.7002,-117.123C85.1611,-107.224 73.2492,-94.8624 65.398,-86.7149"/>
<polygon fill="midnightblue" stroke="midnightblue" points="92.2595,-119.634 101.719,-124.406 97.3001,-114.777 92.2595,-119.634"/>
</g>
<!-- Node34 -->
<g id="node5" class="node"><title>Node34</title>
<g id="a_node5"><a xlink:href="interface_system_1_1_collections_1_1_i_list.html" target="_top" xlink:title="Represents a non&#45;generic collection of objects that can be individually accessed by index.">
<polygon fill="none" stroke="black" points="131,-67.5 131,-86.5 253,-86.5 253,-67.5 131,-67.5"/>
<text text-anchor="middle" x="192" y="-74.5" font-family="Helvetica,sans-Serif" font-size="10.00">System.Collections.IList</text>
</a>
</g>
</g>
<!-- Node32&#45;&gt;Node34 -->
<g id="edge8" class="edge"><title>Node32&#45;&gt;Node34</title>
<path fill="none" stroke="midnightblue" d="M131.135,-118.824C146.371,-108.605 166.433,-95.1483 179.277,-86.5334"/>
<polygon fill="midnightblue" stroke="midnightblue" points="129.168,-115.929 122.813,-124.406 133.067,-121.743 129.168,-115.929"/>
</g>
<!-- Node33 -->
<g id="node4" class="node"><title>Node33</title>
<g id="a_node4"><a xlink:href="interface_system_1_1_collections_1_1_i_enumerable.html" target="_top" xlink:title="Exposes an enumerator, which supports a simple iteration over a non&#45;generic collection....">
<polygon fill="none" stroke="black" points="36.5,-181.5 36.5,-200.5 107.5,-200.5 107.5,-181.5 36.5,-181.5"/>
<text text-anchor="middle" x="72" y="-188.5" font-family="Helvetica,sans-Serif" font-size="10.00">IEnumerable</text>
</a>
</g>
</g>
<!-- Node33&#45;&gt;Node30 -->
<g id="edge6" class="edge"><title>Node33&#45;&gt;Node30</title>
<path fill="none" stroke="midnightblue" d="M58.5122,-173.149C41.1088,-149.236 14.777,-104.225 30,-67 38.3561,-46.5667 58.1614,-29.569 71.5792,-19.8413"/>
<polygon fill="midnightblue" stroke="midnightblue" points="55.8055,-175.372 64.6398,-181.22 61.3808,-171.139 55.8055,-175.372"/>
</g>
<!-- Node33&#45;&gt;Node31 -->
<g id="edge4" class="edge"><title>Node33&#45;&gt;Node31</title>
<path fill="none" stroke="midnightblue" d="M69.4566,-171.009C66.171,-146.477 60.5874,-104.786 58.1716,-86.7476"/>
<polygon fill="midnightblue" stroke="midnightblue" points="66.0264,-171.765 70.823,-181.212 72.9645,-170.835 66.0264,-171.765"/>
</g>
<!-- Node33&#45;&gt;Node32 -->
<g id="edge3" class="edge"><title>Node33&#45;&gt;Node32</title>
<path fill="none" stroke="midnightblue" d="M83.79,-172.936C90.4809,-163.251 98.5726,-151.54 103.979,-143.715"/>
<polygon fill="midnightblue" stroke="midnightblue" points="80.7423,-171.189 77.9375,-181.406 86.5014,-175.168 80.7423,-171.189"/>
</g>
<!-- Node33&#45;&gt;Node34 -->
<g id="edge9" class="edge"><title>Node33&#45;&gt;Node34</title>
<path fill="none" stroke="midnightblue" d="M101.254,-176.93C116.929,-168.954 135.866,-157.663 150,-144 167.968,-126.631 181.804,-100.134 188.166,-86.6037"/>
<polygon fill="midnightblue" stroke="midnightblue" points="99.4347,-173.923 91.9875,-181.459 102.509,-180.212 99.4347,-173.923"/>
</g>
<!-- Node34&#45;&gt;Node30 -->
<g id="edge7" class="edge"><title>Node34&#45;&gt;Node30</title>
<path fill="none" stroke="#9a32cd" stroke-dasharray="5,2" d="M168.859,-61.9422C147.669,-49.0696 116.981,-30.4274 99.2019,-19.6273"/>
<polygon fill="#9a32cd" stroke="#9a32cd" points="167.206,-65.0332 177.57,-67.2338 170.84,-59.0506 167.206,-65.0332"/>
<text text-anchor="middle" x="154.5" y="-41" font-family="Helvetica,sans-Serif" font-size="10.00"> List</text>
</g>
</g>
</svg>
