<?xml version="1.0" encoding="UTF-8" standalone="no"?>
<!DOCTYPE svg PUBLIC "-//W3C//DTD SVG 1.1//EN"
 "http://www.w3.org/Graphics/SVG/1.1/DTD/svg11.dtd">
<!-- Generated by graphviz version 2.38.0 (20140413.2041)
 -->
<!-- Title: System.Security.AccessControl.ObjectSecurity Pages: 1 -->
<!--zoomable 284 -->
<svg id="main" version="1.1" xmlns="http://www.w3.org/2000/svg" xmlns:xlink="http://www.w3.org/1999/xlink" xml:space="preserve" onload="init(evt)">
<style type="text/css"><![CDATA[
.edge:hover path { stroke: red; }
.edge:hover polygon { stroke: red; fill: red; }
]]></style>
<script type="text/javascript"><![CDATA[
var edges = document.getElementsByTagName('g');
if (edges && edges.length) {
  for (var i=0;i<edges.length;i++) {
    if (edges[i].id.substr(0,4)=='edge') {
      edges[i].setAttribute('class','edge');
    }
  }
}
]]></script>
        <defs>
                <circle id="rim" cx="0" cy="0" r="7"/>
                <circle id="rim2" cx="0" cy="0" r="3.5"/>
                <g id="zoomPlus">
                        <use xlink:href="#rim" fill="#404040">
                                <set attributeName="fill" to="#808080" begin="zoomplus.mouseover" end="zoomplus.mouseout"/>
                        </use>
                        <path d="M-4,0h8M0,-4v8" fill="none" stroke="white" stroke-width="1.5" pointer-events="none"/>
                </g>
                <g id="zoomMin">
                        <use xlink:href="#rim" fill="#404040">
                                <set attributeName="fill" to="#808080" begin="zoomminus.mouseover" end="zoomminus.mouseout"/>
                        </use>
                        <path d="M-4,0h8" fill="none" stroke="white" stroke-width="1.5" pointer-events="none"/>
                </g>
                <g id="dirArrow">
                        <path fill="none" stroke="white" stroke-width="1.5" d="M0,-3.0v7 M-2.5,-0.5L0,-3.0L2.5,-0.5"/>
                </g>
               <g id="resetDef">
                       <use xlink:href="#rim2" fill="#404040">
                               <set attributeName="fill" to="#808080" begin="reset.mouseover" end="reset.mouseout"/>
                       </use>
               </g>
        </defs>

<script type="text/javascript">
var viewWidth = 947;
var viewHeight = 284;
var sectionId = 'dynsection-0';
</script>
<script xlink:href="svgpan.js"/>
<svg id="graph" class="graph">
<g id="viewport">
<title>System.Security.AccessControl.ObjectSecurity</title>
<!-- Node0 -->
<g id="node1" class="node"><title>Node0</title>
<g id="a_node1"><a xlink:title="Provides the ability to control access to objects without direct manipulation of Access Control Lists...">
<polygon fill="#bfbfbf" stroke="black" points="0,-97.5 0,-127.5 159,-127.5 159,-97.5 0,-97.5"/>
<text text-anchor="start" x="8" y="-115.5" font-family="Helvetica,sans-Serif" font-size="10.00">System.Security.AccessControl.</text>
<text text-anchor="middle" x="79.5" y="-104.5" font-family="Helvetica,sans-Serif" font-size="10.00">ObjectSecurity</text>
</a>
</g>
</g>
<!-- Node1 -->
<g id="node2" class="node"><title>Node1</title>
<g id="a_node2"><a xlink:href="class_system_1_1_security_1_1_access_control_1_1_common_object_security.html" target="_top" xlink:title="Controls access to objects without direct manipulation of access control lists (ACLs)....">
<polygon fill="none" stroke="black" points="195,-122.5 195,-152.5 354,-152.5 354,-122.5 195,-122.5"/>
<text text-anchor="start" x="203" y="-140.5" font-family="Helvetica,sans-Serif" font-size="10.00">System.Security.AccessControl.</text>
<text text-anchor="middle" x="274.5" y="-129.5" font-family="Helvetica,sans-Serif" font-size="10.00">CommonObjectSecurity</text>
</a>
</g>
</g>
<!-- Node0&#45;&gt;Node1 -->
<g id="edge1" class="edge"><title>Node0&#45;&gt;Node1</title>
<path fill="none" stroke="midnightblue" d="M169.023,-123.967C177.607,-125.079 186.276,-126.202 194.756,-127.3"/>
<polygon fill="midnightblue" stroke="midnightblue" points="169.367,-120.482 159,-122.668 168.468,-127.424 169.367,-120.482"/>
</g>
<!-- Node11 -->
<g id="node12" class="node"><title>Node11</title>
<g id="a_node12"><a xlink:href="class_system_1_1_security_1_1_access_control_1_1_directory_object_security.html" target="_top" xlink:title="Provides the ability to control access to directory objects without direct manipulation of Access Con...">
<polygon fill="none" stroke="black" points="195,-73.5 195,-103.5 354,-103.5 354,-73.5 195,-73.5"/>
<text text-anchor="start" x="203" y="-91.5" font-family="Helvetica,sans-Serif" font-size="10.00">System.Security.AccessControl.</text>
<text text-anchor="middle" x="274.5" y="-80.5" font-family="Helvetica,sans-Serif" font-size="10.00">DirectoryObjectSecurity</text>
</a>
</g>
</g>
<!-- Node0&#45;&gt;Node11 -->
<g id="edge11" class="edge"><title>Node0&#45;&gt;Node11</title>
<path fill="none" stroke="midnightblue" d="M169.023,-101.492C177.607,-100.425 186.276,-99.3465 194.756,-98.292"/>
<polygon fill="midnightblue" stroke="midnightblue" points="168.492,-98.0309 159,-102.738 169.356,-104.977 168.492,-98.0309"/>
</g>
<!-- Node2 -->
<g id="node3" class="node"><title>Node2</title>
<g id="a_node3"><a xlink:href="class_system_1_1_security_1_1_access_control_1_1_native_object_security.html" target="_top" xlink:title="Provides the ability to control access to native objects without direct manipulation of Access Contro...">
<polygon fill="none" stroke="black" points="390,-122.5 390,-152.5 549,-152.5 549,-122.5 390,-122.5"/>
<text text-anchor="start" x="398" y="-140.5" font-family="Helvetica,sans-Serif" font-size="10.00">System.Security.AccessControl.</text>
<text text-anchor="middle" x="469.5" y="-129.5" font-family="Helvetica,sans-Serif" font-size="10.00">NativeObjectSecurity</text>
</a>
</g>
</g>
<!-- Node1&#45;&gt;Node2 -->
<g id="edge2" class="edge"><title>Node1&#45;&gt;Node2</title>
<path fill="none" stroke="midnightblue" d="M364.023,-137.5C372.607,-137.5 381.276,-137.5 389.756,-137.5"/>
<polygon fill="midnightblue" stroke="midnightblue" points="364.001,-134 354,-137.5 364,-141 364.001,-134"/>
</g>
<!-- Node3 -->
<g id="node4" class="node"><title>Node3</title>
<g id="a_node4"><a xlink:href="class_system_1_1_security_1_1_access_control_1_1_crypto_key_security.html" target="_top" xlink:title="Provides the ability to control access to a cryptographic key object without direct manipulation of a...">
<polygon fill="none" stroke="black" points="585,-245.5 585,-275.5 744,-275.5 744,-245.5 585,-245.5"/>
<text text-anchor="start" x="593" y="-263.5" font-family="Helvetica,sans-Serif" font-size="10.00">System.Security.AccessControl.</text>
<text text-anchor="middle" x="664.5" y="-252.5" font-family="Helvetica,sans-Serif" font-size="10.00">CryptoKeySecurity</text>
</a>
</g>
</g>
<!-- Node2&#45;&gt;Node3 -->
<g id="edge3" class="edge"><title>Node2&#45;&gt;Node3</title>
<path fill="none" stroke="midnightblue" d="M491.154,-160.195C512.619,-182.526 548.171,-216.149 585,-236.5 591.112,-239.877 597.76,-242.841 604.515,-245.426"/>
<polygon fill="midnightblue" stroke="midnightblue" points="493.584,-157.67 484.171,-152.807 488.497,-162.478 493.584,-157.67"/>
</g>
<!-- Node4 -->
<g id="node5" class="node"><title>Node4</title>
<g id="a_node5"><a xlink:href="class_system_1_1_security_1_1_access_control_1_1_event_wait_handle_security.html" target="_top" xlink:title="Represents the Windows access control security applied to a named system wait handle....">
<polygon fill="none" stroke="black" points="585,-196.5 585,-226.5 744,-226.5 744,-196.5 585,-196.5"/>
<text text-anchor="start" x="593" y="-214.5" font-family="Helvetica,sans-Serif" font-size="10.00">System.Security.AccessControl.</text>
<text text-anchor="middle" x="664.5" y="-203.5" font-family="Helvetica,sans-Serif" font-size="10.00">EventWaitHandleSecurity</text>
</a>
</g>
</g>
<!-- Node2&#45;&gt;Node4 -->
<g id="edge4" class="edge"><title>Node2&#45;&gt;Node4</title>
<path fill="none" stroke="midnightblue" d="M511.396,-156.723C533.033,-166.544 560.189,-178.325 585,-187.5 593.421,-190.614 602.451,-193.649 611.281,-196.455"/>
<polygon fill="midnightblue" stroke="midnightblue" points="512.728,-153.484 502.179,-152.507 509.816,-159.849 512.728,-153.484"/>
</g>
<!-- Node5 -->
<g id="node6" class="node"><title>Node5</title>
<g id="a_node6"><a xlink:href="class_system_1_1_security_1_1_access_control_1_1_file_system_security.html" target="_top" xlink:title="Represents the access control and audit security for a file or directory.">
<polygon fill="none" stroke="black" points="585,-147.5 585,-177.5 744,-177.5 744,-147.5 585,-147.5"/>
<text text-anchor="start" x="593" y="-165.5" font-family="Helvetica,sans-Serif" font-size="10.00">System.Security.AccessControl.</text>
<text text-anchor="middle" x="664.5" y="-154.5" font-family="Helvetica,sans-Serif" font-size="10.00">FileSystemSecurity</text>
</a>
</g>
</g>
<!-- Node2&#45;&gt;Node5 -->
<g id="edge5" class="edge"><title>Node2&#45;&gt;Node5</title>
<path fill="none" stroke="midnightblue" d="M559.023,-148.967C567.607,-150.079 576.276,-151.202 584.756,-152.3"/>
<polygon fill="midnightblue" stroke="midnightblue" points="559.367,-145.482 549,-147.668 558.468,-152.424 559.367,-145.482"/>
</g>
<!-- Node8 -->
<g id="node9" class="node"><title>Node8</title>
<g id="a_node9"><a xlink:href="class_system_1_1_security_1_1_access_control_1_1_mutex_security.html" target="_top" xlink:title="Represents the Windows access control security for a named mutex. This class cannot be inherited.">
<polygon fill="none" stroke="black" points="585,-98.5 585,-128.5 744,-128.5 744,-98.5 585,-98.5"/>
<text text-anchor="start" x="593" y="-116.5" font-family="Helvetica,sans-Serif" font-size="10.00">System.Security.AccessControl.</text>
<text text-anchor="middle" x="664.5" y="-105.5" font-family="Helvetica,sans-Serif" font-size="10.00">MutexSecurity</text>
</a>
</g>
</g>
<!-- Node2&#45;&gt;Node8 -->
<g id="edge8" class="edge"><title>Node2&#45;&gt;Node8</title>
<path fill="none" stroke="midnightblue" d="M559.023,-126.492C567.607,-125.425 576.276,-124.346 584.756,-123.292"/>
<polygon fill="midnightblue" stroke="midnightblue" points="558.492,-123.031 549,-127.738 559.356,-129.977 558.492,-123.031"/>
</g>
<!-- Node9 -->
<g id="node10" class="node"><title>Node9</title>
<g id="a_node10"><a xlink:href="class_system_1_1_security_1_1_access_control_1_1_object_security.html" target="_top" xlink:title="Provides the ability to control access to objects without direct manipulation of Access Control Lists...">
<polygon fill="none" stroke="black" points="585,-49.5 585,-79.5 744,-79.5 744,-49.5 585,-49.5"/>
<text text-anchor="start" x="593" y="-67.5" font-family="Helvetica,sans-Serif" font-size="10.00">System.Security.AccessControl.</text>
<text text-anchor="middle" x="664.5" y="-56.5" font-family="Helvetica,sans-Serif" font-size="10.00">ObjectSecurity&lt; T &gt;</text>
</a>
</g>
</g>
<!-- Node2&#45;&gt;Node9 -->
<g id="edge9" class="edge"><title>Node2&#45;&gt;Node9</title>
<path fill="none" stroke="midnightblue" d="M513.671,-118.337C534.967,-109.157 561.143,-98.2797 585,-89.5 594.262,-86.0915 604.234,-82.7042 613.86,-79.5743"/>
<polygon fill="midnightblue" stroke="midnightblue" points="512.037,-115.23 504.256,-122.421 514.822,-121.652 512.037,-115.23"/>
</g>
<!-- Node10 -->
<g id="node11" class="node"><title>Node10</title>
<g id="a_node11"><a xlink:href="class_system_1_1_security_1_1_access_control_1_1_registry_security.html" target="_top" xlink:title="Represents the Windows access control security for a registry key. This class cannot be inherited.">
<polygon fill="none" stroke="black" points="585,-0.5 585,-30.5 744,-30.5 744,-0.5 585,-0.5"/>
<text text-anchor="start" x="593" y="-18.5" font-family="Helvetica,sans-Serif" font-size="10.00">System.Security.AccessControl.</text>
<text text-anchor="middle" x="664.5" y="-7.5" font-family="Helvetica,sans-Serif" font-size="10.00">RegistrySecurity</text>
</a>
</g>
</g>
<!-- Node2&#45;&gt;Node10 -->
<g id="edge10" class="edge"><title>Node2&#45;&gt;Node10</title>
<path fill="none" stroke="midnightblue" d="M491.657,-115.009C513.266,-93.2147 548.707,-60.5908 585,-40.5 591.757,-36.7594 599.157,-33.4844 606.627,-30.6452"/>
<polygon fill="midnightblue" stroke="midnightblue" points="489.091,-112.626 484.612,-122.228 494.101,-117.515 489.091,-112.626"/>
</g>
<!-- Node6 -->
<g id="node7" class="node"><title>Node6</title>
<g id="a_node7"><a xlink:href="class_system_1_1_security_1_1_access_control_1_1_directory_security.html" target="_top" xlink:title="Represents the access control and audit security for a directory. This class cannot be inherited.">
<polygon fill="none" stroke="black" points="780,-171.5 780,-201.5 939,-201.5 939,-171.5 780,-171.5"/>
<text text-anchor="start" x="788" y="-189.5" font-family="Helvetica,sans-Serif" font-size="10.00">System.Security.AccessControl.</text>
<text text-anchor="middle" x="859.5" y="-178.5" font-family="Helvetica,sans-Serif" font-size="10.00">DirectorySecurity</text>
</a>
</g>
</g>
<!-- Node5&#45;&gt;Node6 -->
<g id="edge6" class="edge"><title>Node5&#45;&gt;Node6</title>
<path fill="none" stroke="midnightblue" d="M754.023,-173.508C762.607,-174.575 771.276,-175.654 779.756,-176.708"/>
<polygon fill="midnightblue" stroke="midnightblue" points="754.356,-170.023 744,-172.262 753.492,-176.969 754.356,-170.023"/>
</g>
<!-- Node7 -->
<g id="node8" class="node"><title>Node7</title>
<g id="a_node8"><a xlink:href="class_system_1_1_security_1_1_access_control_1_1_file_security.html" target="_top" xlink:title="Represents the access control and audit security for a file. This class cannot be inherited.">
<polygon fill="none" stroke="black" points="780,-122.5 780,-152.5 939,-152.5 939,-122.5 780,-122.5"/>
<text text-anchor="start" x="788" y="-140.5" font-family="Helvetica,sans-Serif" font-size="10.00">System.Security.AccessControl.</text>
<text text-anchor="middle" x="859.5" y="-129.5" font-family="Helvetica,sans-Serif" font-size="10.00">FileSecurity</text>
</a>
</g>
</g>
<!-- Node5&#45;&gt;Node7 -->
<g id="edge7" class="edge"><title>Node5&#45;&gt;Node7</title>
<path fill="none" stroke="midnightblue" d="M754.023,-151.033C762.607,-149.921 771.276,-148.798 779.756,-147.7"/>
<polygon fill="midnightblue" stroke="midnightblue" points="753.468,-147.576 744,-152.332 754.367,-154.518 753.468,-147.576"/>
</g>
</g>
</svg>
        <g id="navigator" transform="translate(0 0)" fill="#404254">
                <rect fill="#f2f5e9" fill-opacity="0.5" stroke="#606060" stroke-width=".5" x="0" y="0" width="60" height="60"/>
                <use id="zoomplus" xlink:href="#zoomPlus" x="17" y="9" onmousedown="handleZoom(evt,'in')"/>
                <use id="zoomminus" xlink:href="#zoomMin" x="42" y="9" onmousedown="handleZoom(evt,'out')"/>
                <use id="reset" xlink:href="#resetDef" x="30" y="36" onmousedown="handleReset()"/>
                <g id="arrowUp" xlink:href="#dirArrow" transform="translate(30 24)" onmousedown="handlePan(0,-1)">
                  <use xlink:href="#rim" fill="#404040">
                        <set attributeName="fill" to="#808080" begin="arrowUp.mouseover" end="arrowUp.mouseout"/>
                  </use>
                  <path fill="none" stroke="white" stroke-width="1.5" d="M0,-3.0v7 M-2.5,-0.5L0,-3.0L2.5,-0.5"/>
                </g>
                <g id="arrowRight" xlink:href="#dirArrow" transform="rotate(90) translate(36 -43)" onmousedown="handlePan(1,0)">
                  <use xlink:href="#rim" fill="#404040">
                        <set attributeName="fill" to="#808080" begin="arrowRight.mouseover" end="arrowRight.mouseout"/>
                  </use>
                  <path fill="none" stroke="white" stroke-width="1.5" d="M0,-3.0v7 M-2.5,-0.5L0,-3.0L2.5,-0.5"/>
                </g>
                <g id="arrowDown" xlink:href="#dirArrow" transform="rotate(180) translate(-30 -48)" onmousedown="handlePan(0,1)">
                  <use xlink:href="#rim" fill="#404040">
                        <set attributeName="fill" to="#808080" begin="arrowDown.mouseover" end="arrowDown.mouseout"/>
                  </use>
                  <path fill="none" stroke="white" stroke-width="1.5" d="M0,-3.0v7 M-2.5,-0.5L0,-3.0L2.5,-0.5"/>
                </g>
                <g id="arrowLeft" xlink:href="#dirArrow" transform="rotate(270) translate(-36 17)" onmousedown="handlePan(-1,0)">
                  <use xlink:href="#rim" fill="#404040">
                        <set attributeName="fill" to="#808080" begin="arrowLeft.mouseover" end="arrowLeft.mouseout"/>
                  </use>
                  <path fill="none" stroke="white" stroke-width="1.5" d="M0,-3.0v7 M-2.5,-0.5L0,-3.0L2.5,-0.5"/>
                </g>
        </g>
        <svg viewBox="0 0 15 15" width="100%" height="30px" preserveAspectRatio="xMaxYMin meet">
         <g id="arrow_out" transform="scale(0.3 0.3)">
          <a xlink:href="class_system_1_1_security_1_1_access_control_1_1_object_security__inherit__graph_org.svg" target="_base">
           <rect id="button" ry="5" rx="5" y="6" x="6" height="38" width="38"
                fill="#f2f5e9" fill-opacity="0.5" stroke="#606060" stroke-width="1.0"/>
           <path id="arrow"
             d="M 11.500037,31.436501 C 11.940474,20.09759 22.043105,11.32322 32.158766,21.979434 L 37.068811,17.246167 C 37.068811,17.246167 37.088388,32 37.088388,32 L 22.160133,31.978069 C 22.160133,31.978069 26.997745,27.140456 26.997745,27.140456 C 18.528582,18.264221 13.291696,25.230495 11.500037,31.436501 z"
             style="fill:#404040;"/>
          </a>
         </g>
        </svg>
</svg>
