<?xml version="1.0" encoding="UTF-8" standalone="no"?>
<!DOCTYPE svg PUBLIC "-//W3C//DTD SVG 1.1//EN"
 "http://www.w3.org/Graphics/SVG/1.1/DTD/svg11.dtd">
<!-- Generated by graphviz version 2.38.0 (20140413.2041)
 -->
<!-- Title: System.Collections.ObjectModel.ReadOnlyDictionary&lt; TKey, TValue &gt;.KeyCollection Pages: 1 -->
<svg width="1112pt" height="182pt"
 viewBox="0.00 0.00 1112.00 182.00" xmlns="http://www.w3.org/2000/svg" xmlns:xlink="http://www.w3.org/1999/xlink">
<g id="graph0" class="graph" transform="scale(1 1) rotate(0) translate(4 178)">
<title>System.Collections.ObjectModel.ReadOnlyDictionary&lt; TKey, TValue &gt;.KeyCollection</title>
<!-- Node9 -->
<g id="node1" class="node"><title>Node9</title>
<g id="a_node1"><a xlink:title="Represents a read&#45;only collection of the keys of a T:System.Collections.ObjectModel....">
<polygon fill="#bfbfbf" stroke="black" points="948,-77.5 948,-118.5 1104,-118.5 1104,-77.5 948,-77.5"/>
<text text-anchor="start" x="956" y="-106.5" font-family="Helvetica,sans-Serif" font-size="10.00">System.Collections.Object</text>
<text text-anchor="start" x="956" y="-95.5" font-family="Helvetica,sans-Serif" font-size="10.00">Model.ReadOnlyDictionary</text>
<text text-anchor="middle" x="1026" y="-84.5" font-family="Helvetica,sans-Serif" font-size="10.00">&lt; TKey, TValue &gt;.KeyCollection</text>
</a>
</g>
</g>
<!-- Node10 -->
<g id="node2" class="node"><title>Node10</title>
<g id="a_node2"><a xlink:href="interface_system_1_1_collections_1_1_i_collection.html" target="_top" xlink:title="Defines size, enumerators, and synchronization methods for all nongeneric collections.">
<polygon fill="none" stroke="black" points="267,-126.5 267,-145.5 369,-145.5 369,-126.5 267,-126.5"/>
<text text-anchor="middle" x="318" y="-133.5" font-family="Helvetica,sans-Serif" font-size="10.00">ICollection&lt; TKey &gt;</text>
</a>
</g>
</g>
<!-- Node10&#45;&gt;Node9 -->
<g id="edge1" class="edge"><title>Node10&#45;&gt;Node9</title>
<path fill="none" stroke="midnightblue" d="M379.129,-136C421.119,-136 478.478,-136 529,-136 529,-136 529,-136 856.5,-136 892.786,-136 932.414,-127.511 964.118,-118.557"/>
<polygon fill="midnightblue" stroke="midnightblue" points="379.068,-132.5 369.068,-136 379.068,-139.5 379.068,-132.5"/>
</g>
<!-- Node11 -->
<g id="node3" class="node"><title>Node11</title>
<g id="a_node3"><a xlink:href="interface_system_1_1_collections_1_1_i_enumerable.html" target="_top" xlink:title="Exposes an enumerator, which supports a simple iteration over a non&#45;generic collection....">
<polygon fill="none" stroke="black" points="0,-88.5 0,-107.5 71,-107.5 71,-88.5 0,-88.5"/>
<text text-anchor="middle" x="35.5" y="-95.5" font-family="Helvetica,sans-Serif" font-size="10.00">IEnumerable</text>
</a>
</g>
</g>
<!-- Node11&#45;&gt;Node9 -->
<g id="edge4" class="edge"><title>Node11&#45;&gt;Node9</title>
<path fill="none" stroke="midnightblue" d="M53.6735,-114.57C78.7356,-136.931 127.781,-174 177.5,-174 177.5,-174 177.5,-174 856.5,-174 910.574,-174 966.464,-141.074 998.353,-118.567"/>
<polygon fill="midnightblue" stroke="midnightblue" points="55.8557,-111.822 46.1273,-107.625 51.1156,-116.973 55.8557,-111.822"/>
</g>
<!-- Node11&#45;&gt;Node10 -->
<g id="edge2" class="edge"><title>Node11&#45;&gt;Node10</title>
<path fill="none" stroke="midnightblue" d="M79.0657,-109.945C82.4132,-110.702 85.7534,-111.4 89,-112 149.666,-123.211 220.452,-129.645 266.864,-132.976"/>
<polygon fill="midnightblue" stroke="midnightblue" points="79.6301,-106.481 69.0875,-107.532 77.9845,-113.285 79.6301,-106.481"/>
</g>
<!-- Node13 -->
<g id="node5" class="node"><title>Node13</title>
<g id="a_node5"><a xlink:href="interface_system_1_1_collections_1_1_i_collection.html" target="_top" xlink:title="Defines size, enumerators, and synchronization methods for all nongeneric collections.">
<polygon fill="none" stroke="black" points="499,-88.5 499,-107.5 561,-107.5 561,-88.5 499,-88.5"/>
<text text-anchor="middle" x="530" y="-95.5" font-family="Helvetica,sans-Serif" font-size="10.00">ICollection</text>
</a>
</g>
</g>
<!-- Node11&#45;&gt;Node13 -->
<g id="edge6" class="edge"><title>Node11&#45;&gt;Node13</title>
<path fill="none" stroke="midnightblue" d="M81.3996,-98C180.412,-98 415.329,-98 498.87,-98"/>
<polygon fill="midnightblue" stroke="midnightblue" points="81.1317,-94.5001 71.1316,-98 81.1316,-101.5 81.1317,-94.5001"/>
</g>
<!-- Node15 -->
<g id="node7" class="node"><title>Node15</title>
<g id="a_node7"><a xlink:href="interface_system_1_1_collections_1_1_generic_1_1_i_read_only_collection.html" target="_top" xlink:title="Represents a strongly&#45;typed, read&#45;only collection of elements.">
<polygon fill="none" stroke="black" points="579,-28.5 579,-69.5 720,-69.5 720,-28.5 579,-28.5"/>
<text text-anchor="start" x="587" y="-57.5" font-family="Helvetica,sans-Serif" font-size="10.00">System.Collections.Generic.</text>
<text text-anchor="start" x="587" y="-46.5" font-family="Helvetica,sans-Serif" font-size="10.00">IReadOnlyCollection&lt; out</text>
<text text-anchor="middle" x="649.5" y="-35.5" font-family="Helvetica,sans-Serif" font-size="10.00"> out T &gt;</text>
</a>
</g>
</g>
<!-- Node11&#45;&gt;Node15 -->
<g id="edge12" class="edge"><title>Node11&#45;&gt;Node15</title>
<path fill="none" stroke="midnightblue" d="M81.1533,-94.4248C186.646,-85.9785 451.93,-64.7385 578.802,-54.5804"/>
<polygon fill="midnightblue" stroke="midnightblue" points="80.846,-90.9381 71.1573,-95.2252 81.4047,-97.9158 80.846,-90.9381"/>
</g>
<!-- Node17 -->
<g id="node9" class="node"><title>Node17</title>
<g id="a_node9"><a xlink:href="interface_system_1_1_collections_1_1_generic_1_1_i_enumerable.html" target="_top" xlink:title="Exposes the enumerator, which supports a simple iteration over a collection of a specified type....">
<polygon fill="none" stroke="black" points="108,-1 108,-31 249,-31 249,-1 108,-1"/>
<text text-anchor="start" x="116" y="-19" font-family="Helvetica,sans-Serif" font-size="10.00">System.Collections.Generic.</text>
<text text-anchor="middle" x="178.5" y="-8" font-family="Helvetica,sans-Serif" font-size="10.00">IEnumerable&lt; out out T &gt;</text>
</a>
</g>
</g>
<!-- Node11&#45;&gt;Node17 -->
<g id="edge11" class="edge"><title>Node11&#45;&gt;Node17</title>
<path fill="none" stroke="midnightblue" d="M50.6246,-80.3506C60.3791,-69.1669 74.2179,-55.1388 89,-46 98.6594,-40.0282 109.653,-35.0792 120.53,-31.0401"/>
<polygon fill="midnightblue" stroke="midnightblue" points="47.7658,-78.3123 44.0134,-88.2203 53.1256,-82.8149 47.7658,-78.3123"/>
</g>
<!-- Node12 -->
<g id="node4" class="node"><title>Node12</title>
<g id="a_node4"><a xlink:href="interface_system_1_1_collections_1_1_i_enumerable.html" target="_top" xlink:title="Exposes an enumerator, which supports a simple iteration over a non&#45;generic collection....">
<polygon fill="none" stroke="black" points="800,-0.5 800,-19.5 911,-19.5 911,-0.5 800,-0.5"/>
<text text-anchor="middle" x="855.5" y="-7.5" font-family="Helvetica,sans-Serif" font-size="10.00">IEnumerable&lt; TKey &gt;</text>
</a>
</g>
</g>
<!-- Node12&#45;&gt;Node9 -->
<g id="edge3" class="edge"><title>Node12&#45;&gt;Node9</title>
<path fill="none" stroke="midnightblue" d="M897.151,-23.1126C901.879,-24.9481 906.586,-26.9226 911,-29 940.724,-42.9886 972.548,-62.6884 994.997,-77.4595"/>
<polygon fill="midnightblue" stroke="midnightblue" points="898.097,-19.7308 887.503,-19.5516 895.673,-26.2977 898.097,-19.7308"/>
</g>
<!-- Node13&#45;&gt;Node9 -->
<g id="edge5" class="edge"><title>Node13&#45;&gt;Node9</title>
<path fill="none" stroke="midnightblue" d="M571.34,-98C653.528,-98 841.572,-98 947.958,-98"/>
<polygon fill="midnightblue" stroke="midnightblue" points="571.158,-94.5001 561.158,-98 571.158,-101.5 571.158,-94.5001"/>
</g>
<!-- Node14 -->
<g id="node6" class="node"><title>Node14</title>
<g id="a_node6"><a xlink:href="interface_system_1_1_collections_1_1_generic_1_1_i_read_only_collection.html" target="_top" xlink:title=" ">
<polygon fill="none" stroke="black" points="803.5,-39 803.5,-69 907.5,-69 907.5,-39 803.5,-39"/>
<text text-anchor="start" x="811.5" y="-57" font-family="Helvetica,sans-Serif" font-size="10.00">IReadOnlyCollection</text>
<text text-anchor="middle" x="855.5" y="-46" font-family="Helvetica,sans-Serif" font-size="10.00">&lt; TKey &gt;</text>
</a>
</g>
</g>
<!-- Node14&#45;&gt;Node9 -->
<g id="edge7" class="edge"><title>Node14&#45;&gt;Node9</title>
<path fill="none" stroke="midnightblue" d="M917.232,-69.8587C927.13,-72.4435 937.499,-75.1511 947.73,-77.8227"/>
<polygon fill="midnightblue" stroke="midnightblue" points="918.073,-66.461 907.513,-67.3209 916.304,-73.2339 918.073,-66.461"/>
</g>
<!-- Node15&#45;&gt;Node14 -->
<g id="edge8" class="edge"><title>Node15&#45;&gt;Node14</title>
<path fill="none" stroke="orange" stroke-dasharray="5,2" d="M730.166,-50.9526C754.723,-51.5545 781.097,-52.2009 803.207,-52.7428"/>
<polygon fill="orange" stroke="orange" points="730.217,-47.4529 720.135,-50.7067 730.046,-54.4508 730.217,-47.4529"/>
<text text-anchor="middle" x="760" y="-56" font-family="Helvetica,sans-Serif" font-size="10.00"> &lt; TKey &gt;</text>
</g>
<!-- Node16 -->
<g id="node8" class="node"><title>Node16</title>
<g id="a_node8"><a xlink:href="interface_system_1_1_collections_1_1_generic_1_1_i_enumerable.html" target="_top" xlink:title=" ">
<polygon fill="none" stroke="black" points="387,-10.5 387,-29.5 481,-29.5 481,-10.5 387,-10.5"/>
<text text-anchor="middle" x="434" y="-17.5" font-family="Helvetica,sans-Serif" font-size="10.00">IEnumerable&lt; T &gt;</text>
</a>
</g>
</g>
<!-- Node16&#45;&gt;Node15 -->
<g id="edge9" class="edge"><title>Node16&#45;&gt;Node15</title>
<path fill="none" stroke="midnightblue" d="M491.084,-27.618C517.997,-31.2736 550.504,-35.6891 578.973,-39.5561"/>
<polygon fill="midnightblue" stroke="midnightblue" points="491.444,-24.1348 481.063,-26.2569 490.501,-31.0711 491.444,-24.1348"/>
</g>
<!-- Node17&#45;&gt;Node16 -->
<g id="edge10" class="edge"><title>Node17&#45;&gt;Node16</title>
<path fill="none" stroke="orange" stroke-dasharray="5,2" d="M259.308,-17.2593C301.266,-17.9214 351.215,-18.7095 386.756,-19.2703"/>
<polygon fill="orange" stroke="orange" points="259.159,-13.7566 249.105,-17.0983 259.049,-20.7557 259.159,-13.7566"/>
<text text-anchor="middle" x="318" y="-22" font-family="Helvetica,sans-Serif" font-size="10.00"> &lt; T &gt;</text>
</g>
</g>
</svg>
