<?xml version="1.0" encoding="UTF-8" standalone="no"?>
<!DOCTYPE svg PUBLIC "-//W3C//DTD SVG 1.1//EN"
 "http://www.w3.org/Graphics/SVG/1.1/DTD/svg11.dtd">
<!-- Generated by graphviz version 2.38.0 (20140413.2041)
 -->
<!-- Title: System.Reflection.FieldInfo Pages: 1 -->
<svg width="238pt" height="140pt"
 viewBox="0.00 0.00 238.00 140.00" xmlns="http://www.w3.org/2000/svg" xmlns:xlink="http://www.w3.org/1999/xlink">
<g id="graph0" class="graph" transform="scale(1 1) rotate(0) translate(4 136)">
<title>System.Reflection.FieldInfo</title>
<!-- Node11 -->
<g id="node1" class="node"><title>Node11</title>
<g id="a_node1"><a xlink:title="Discovers the attributes of a field and provides access to field metadata.">
<polygon fill="#bfbfbf" stroke="black" points="92.5,-0.5 92.5,-19.5 227.5,-19.5 227.5,-0.5 92.5,-0.5"/>
<text text-anchor="middle" x="160" y="-7.5" font-family="Helvetica,sans-Serif" font-size="10.00">System.Reflection.FieldInfo</text>
</a>
</g>
</g>
<!-- Node12 -->
<g id="node2" class="node"><title>Node12</title>
<g id="a_node2"><a xlink:href="class_system_1_1_reflection_1_1_member_info.html" target="_top" xlink:title="Obtains information about the attributes of a member and provides access to member metadata.">
<polygon fill="none" stroke="black" points="86.5,-56.5 86.5,-75.5 153.5,-75.5 153.5,-56.5 86.5,-56.5"/>
<text text-anchor="middle" x="120" y="-63.5" font-family="Helvetica,sans-Serif" font-size="10.00">MemberInfo</text>
</a>
</g>
</g>
<!-- Node12&#45;&gt;Node11 -->
<g id="edge1" class="edge"><title>Node12&#45;&gt;Node11</title>
<path fill="none" stroke="midnightblue" d="M132.7,-47.8554C139.626,-38.5048 147.906,-27.3265 153.518,-19.7511"/>
<polygon fill="midnightblue" stroke="midnightblue" points="129.745,-45.9641 126.605,-56.083 135.37,-50.1307 129.745,-45.9641"/>
</g>
<!-- Node13 -->
<g id="node3" class="node"><title>Node13</title>
<g id="a_node3"><a xlink:href="interface_system_1_1_reflection_1_1_i_custom_attribute_provider.html" target="_top" xlink:title="Provides custom attributes for reflection objects that support them.">
<polygon fill="none" stroke="black" points="0,-112.5 0,-131.5 124,-131.5 124,-112.5 0,-112.5"/>
<text text-anchor="middle" x="62" y="-119.5" font-family="Helvetica,sans-Serif" font-size="10.00">ICustomAttributeProvider</text>
</a>
</g>
</g>
<!-- Node13&#45;&gt;Node12 -->
<g id="edge2" class="edge"><title>Node13&#45;&gt;Node12</title>
<path fill="none" stroke="midnightblue" d="M78.9131,-105.253C89.203,-95.6731 101.966,-83.7906 110.512,-75.8339"/>
<polygon fill="midnightblue" stroke="midnightblue" points="76.2527,-102.948 71.3187,-112.324 81.0226,-108.071 76.2527,-102.948"/>
</g>
<!-- Node14 -->
<g id="node4" class="node"><title>Node14</title>
<g id="a_node4"><a xlink:href="interface_system_1_1_runtime_1_1_interop_services_1_1___member_info.html" target="_top" xlink:title="Exposes the public members of the T:System.Reflection.MemberInfo class to unmanaged code.">
<polygon fill="none" stroke="black" points="142,-112.5 142,-131.5 214,-131.5 214,-112.5 142,-112.5"/>
<text text-anchor="middle" x="178" y="-119.5" font-family="Helvetica,sans-Serif" font-size="10.00">_MemberInfo</text>
</a>
</g>
</g>
<!-- Node14&#45;&gt;Node12 -->
<g id="edge3" class="edge"><title>Node14&#45;&gt;Node12</title>
<path fill="none" stroke="midnightblue" d="M161.087,-105.253C150.797,-95.6731 138.034,-83.7906 129.488,-75.8339"/>
<polygon fill="midnightblue" stroke="midnightblue" points="158.977,-108.071 168.681,-112.324 163.747,-102.948 158.977,-108.071"/>
</g>
<!-- Node15 -->
<g id="node5" class="node"><title>Node15</title>
<g id="a_node5"><a xlink:href="interface_system_1_1_runtime_1_1_interop_services_1_1___field_info.html" target="_top" xlink:title="Exposes the public members of the T:System.Reflection.FieldInfo class to unmanaged code.">
<polygon fill="none" stroke="black" points="172,-56.5 172,-75.5 230,-75.5 230,-56.5 172,-56.5"/>
<text text-anchor="middle" x="201" y="-63.5" font-family="Helvetica,sans-Serif" font-size="10.00">_FieldInfo</text>
</a>
</g>
</g>
<!-- Node15&#45;&gt;Node11 -->
<g id="edge4" class="edge"><title>Node15&#45;&gt;Node11</title>
<path fill="none" stroke="midnightblue" d="M187.983,-47.8554C180.883,-38.5048 172.396,-27.3265 166.644,-19.7511"/>
<polygon fill="midnightblue" stroke="midnightblue" points="185.395,-50.235 194.23,-56.083 190.97,-46.002 185.395,-50.235"/>
</g>
</g>
</svg>
