<?xml version="1.0" encoding="UTF-8" standalone="no"?>
<!DOCTYPE svg PUBLIC "-//W3C//DTD SVG 1.1//EN"
 "http://www.w3.org/Graphics/SVG/1.1/DTD/svg11.dtd">
<!-- Generated by graphviz version 2.38.0 (20140413.2041)
 -->
<!-- Title: System.Security.Policy.Publisher Pages: 1 -->
<svg width="236pt" height="84pt"
 viewBox="0.00 0.00 236.00 84.00" xmlns="http://www.w3.org/2000/svg" xmlns:xlink="http://www.w3.org/1999/xlink">
<g id="graph0" class="graph" transform="scale(1 1) rotate(0) translate(4 80)">
<title>System.Security.Policy.Publisher</title>
<!-- Node0 -->
<g id="node1" class="node"><title>Node0</title>
<g id="a_node1"><a xlink:title="Provides the Authenticode X.509v3 digital signature of a code assembly as evidence for policy evaluat...">
<polygon fill="#bfbfbf" stroke="black" points="18.5,-0.5 18.5,-19.5 181.5,-19.5 181.5,-0.5 18.5,-0.5"/>
<text text-anchor="middle" x="100" y="-7.5" font-family="Helvetica,sans-Serif" font-size="10.00">System.Security.Policy.Publisher</text>
</a>
</g>
</g>
<!-- Node1 -->
<g id="node2" class="node"><title>Node1</title>
<g id="a_node2"><a xlink:href="class_system_1_1_security_1_1_policy_1_1_evidence_base.html" target="_top" xlink:title="Provides a base class from which all objects to be used as evidence must derive.">
<polygon fill="none" stroke="black" points="0,-56.5 0,-75.5 78,-75.5 78,-56.5 0,-56.5"/>
<text text-anchor="middle" x="39" y="-63.5" font-family="Helvetica,sans-Serif" font-size="10.00">EvidenceBase</text>
</a>
</g>
</g>
<!-- Node1&#45;&gt;Node0 -->
<g id="edge1" class="edge"><title>Node1&#45;&gt;Node0</title>
<path fill="none" stroke="midnightblue" d="M56.4672,-49.5372C67.3438,-39.9087 80.9439,-27.8694 90.021,-19.8339"/>
<polygon fill="midnightblue" stroke="midnightblue" points="53.9684,-47.0749 48.8007,-56.324 58.6083,-52.3162 53.9684,-47.0749"/>
</g>
<!-- Node2 -->
<g id="node3" class="node"><title>Node2</title>
<g id="a_node3"><a xlink:href="interface_system_1_1_security_1_1_policy_1_1_i_identity_permission_factory.html" target="_top" xlink:title="Defines the method that creates a new identity permission.">
<polygon fill="none" stroke="black" points="96,-56.5 96,-75.5 228,-75.5 228,-56.5 96,-56.5"/>
<text text-anchor="middle" x="162" y="-63.5" font-family="Helvetica,sans-Serif" font-size="10.00">IIdentityPermissionFactory</text>
</a>
</g>
</g>
<!-- Node2&#45;&gt;Node0 -->
<g id="edge2" class="edge"><title>Node2&#45;&gt;Node0</title>
<path fill="none" stroke="midnightblue" d="M144.246,-49.5372C133.192,-39.9087 119.369,-27.8694 110.143,-19.8339"/>
<polygon fill="midnightblue" stroke="midnightblue" points="142.199,-52.3954 152.039,-56.324 146.797,-47.1168 142.199,-52.3954"/>
</g>
</g>
</svg>
