<?xml version="1.0" encoding="UTF-8" standalone="no"?>
<!DOCTYPE svg PUBLIC "-//W3C//DTD SVG 1.1//EN"
 "http://www.w3.org/Graphics/SVG/1.1/DTD/svg11.dtd">
<!-- Generated by graphviz version 2.38.0 (20140413.2041)
 -->
<!-- Title: System.Xml.Serialization.XmlAttributeEventArgs Pages: 1 -->
<svg width="212pt" height="106pt"
 viewBox="0.00 0.00 212.00 106.00" xmlns="http://www.w3.org/2000/svg" xmlns:xlink="http://www.w3.org/1999/xlink">
<g id="graph0" class="graph" transform="scale(1 1) rotate(0) translate(4 102)">
<title>System.Xml.Serialization.XmlAttributeEventArgs</title>
<!-- Node2 -->
<g id="node1" class="node"><title>Node2</title>
<g id="a_node1"><a xlink:title="Provides data for the E:System.Xml.Serialization.XmlSerializer.UnknownAttribute event.">
<polygon fill="#bfbfbf" stroke="black" points="21.5,-0.5 21.5,-30.5 149.5,-30.5 149.5,-0.5 21.5,-0.5"/>
<text text-anchor="start" x="29.5" y="-18.5" font-family="Helvetica,sans-Serif" font-size="10.00">System.Xml.Serialization.</text>
<text text-anchor="middle" x="85.5" y="-7.5" font-family="Helvetica,sans-Serif" font-size="10.00">XmlAttributeEventArgs</text>
</a>
</g>
</g>
<!-- Node3 -->
<g id="node2" class="node"><title>Node3</title>
<g id="a_node2"><a xlink:href="class_system_1_1_event_args.html" target="_top" xlink:title="Represents the base class for classes that contain event data, and provides a value to use for events...">
<polygon fill="none" stroke="red" points="0,-78.5 0,-97.5 61,-97.5 61,-78.5 0,-78.5"/>
<text text-anchor="middle" x="30.5" y="-85.5" font-family="Helvetica,sans-Serif" font-size="10.00">EventArgs</text>
</a>
</g>
</g>
<!-- Node3&#45;&gt;Node2 -->
<g id="edge1" class="edge"><title>Node3&#45;&gt;Node2</title>
<path fill="none" stroke="midnightblue" d="M43.456,-70.3927C52.9035,-58.2828 65.5663,-42.0514 74.5186,-30.5762"/>
<polygon fill="midnightblue" stroke="midnightblue" points="40.6356,-68.3179 37.2441,-78.3553 46.1547,-72.6237 40.6356,-68.3179"/>
</g>
<!-- Node5 -->
<g id="node3" class="node"><title>Node5</title>
<g id="a_node3"><a xlink:href="class_system_1_1_xml_1_1_xml_attribute.html" target="_top" xlink:title="Represents an attribute. Valid and default values for the attribute are defined in a document type de...">
<polygon fill="none" stroke="red" points="79,-78.5 79,-97.5 204,-97.5 204,-78.5 79,-78.5"/>
<text text-anchor="middle" x="141.5" y="-85.5" font-family="Helvetica,sans-Serif" font-size="10.00">System.Xml.XmlAttribute</text>
</a>
</g>
</g>
<!-- Node5&#45;&gt;Node2 -->
<g id="edge2" class="edge"><title>Node5&#45;&gt;Node2</title>
<path fill="none" stroke="#9a32cd" stroke-dasharray="5,2" d="M128.308,-70.3927C118.689,-58.2828 105.796,-42.0514 96.6811,-30.5762"/>
<polygon fill="#9a32cd" stroke="#9a32cd" points="125.673,-72.7019 134.633,-78.3553 131.154,-68.348 125.673,-72.7019"/>
<text text-anchor="middle" x="128" y="-52" font-family="Helvetica,sans-Serif" font-size="10.00"> Attr</text>
</g>
</g>
</svg>
