<?xml version="1.0" encoding="UTF-8" standalone="no"?>
<!DOCTYPE svg PUBLIC "-//W3C//DTD SVG 1.1//EN"
 "http://www.w3.org/Graphics/SVG/1.1/DTD/svg11.dtd">
<!-- Generated by graphviz version 2.38.0 (20140413.2041)
 -->
<!-- Title: System.Reflection.Emit.FieldBuilder Pages: 1 -->
<svg width="157pt" height="95pt"
 viewBox="0.00 0.00 157.00 95.00" xmlns="http://www.w3.org/2000/svg" xmlns:xlink="http://www.w3.org/1999/xlink">
<g id="graph0" class="graph" transform="scale(1 1) rotate(0) translate(4 91)">
<title>System.Reflection.Emit.FieldBuilder</title>
<!-- Node0 -->
<g id="node1" class="node"><title>Node0</title>
<g id="a_node1"><a xlink:title="Defines and represents a field. This class cannot be inherited.">
<polygon fill="#bfbfbf" stroke="black" points="0,-0.5 0,-30.5 143,-30.5 143,-0.5 0,-0.5"/>
<text text-anchor="start" x="8" y="-18.5" font-family="Helvetica,sans-Serif" font-size="10.00">System.Reflection.Emit.Field</text>
<text text-anchor="middle" x="71.5" y="-7.5" font-family="Helvetica,sans-Serif" font-size="10.00">Builder</text>
</a>
</g>
</g>
<!-- Node1 -->
<g id="node2" class="node"><title>Node1</title>
<g id="a_node2"><a xlink:href="class_system_1_1_reflection_1_1_field_info.html" target="_top" xlink:title="Discovers the attributes of a field and provides access to field metadata.">
<polygon fill="none" stroke="red" points="5,-67.5 5,-86.5 58,-86.5 58,-67.5 5,-67.5"/>
<text text-anchor="middle" x="31.5" y="-74.5" font-family="Helvetica,sans-Serif" font-size="10.00">FieldInfo</text>
</a>
</g>
</g>
<!-- Node1&#45;&gt;Node0 -->
<g id="edge1" class="edge"><title>Node1&#45;&gt;Node0</title>
<path fill="none" stroke="midnightblue" d="M42.9532,-58.9634C49.0083,-49.9564 56.3508,-39.0344 62.0728,-30.523"/>
<polygon fill="midnightblue" stroke="midnightblue" points="39.9056,-57.2234 37.231,-67.4751 45.7149,-61.1288 39.9056,-57.2234"/>
</g>
<!-- Node6 -->
<g id="node3" class="node"><title>Node6</title>
<g id="a_node3"><a xlink:href="interface_system_1_1_runtime_1_1_interop_services_1_1___field_builder.html" target="_top" xlink:title="Exposes the T:System.Reflection.Emit.FieldBuilder class to unmanaged code.">
<polygon fill="none" stroke="black" points="76,-67.5 76,-86.5 149,-86.5 149,-67.5 76,-67.5"/>
<text text-anchor="middle" x="112.5" y="-74.5" font-family="Helvetica,sans-Serif" font-size="10.00">_FieldBuilder</text>
</a>
</g>
</g>
<!-- Node6&#45;&gt;Node0 -->
<g id="edge2" class="edge"><title>Node6&#45;&gt;Node0</title>
<path fill="none" stroke="midnightblue" d="M100.76,-58.9634C94.554,-49.9564 87.0279,-39.0344 81.1629,-30.523"/>
<polygon fill="midnightblue" stroke="midnightblue" points="98.0695,-61.2267 106.626,-67.4751 103.834,-57.2548 98.0695,-61.2267"/>
</g>
</g>
</svg>
