<?xml version="1.0" encoding="UTF-8" standalone="no"?>
<!DOCTYPE svg PUBLIC "-//W3C//DTD SVG 1.1//EN"
 "http://www.w3.org/Graphics/SVG/1.1/DTD/svg11.dtd">
<!-- Generated by graphviz version 2.38.0 (20140413.2041)
 -->
<!-- Title: System.NotFiniteNumberException Pages: 1 -->
<svg width="178pt" height="252pt"
 viewBox="0.00 0.00 178.00 252.00" xmlns="http://www.w3.org/2000/svg" xmlns:xlink="http://www.w3.org/1999/xlink">
<g id="graph0" class="graph" transform="scale(1 1) rotate(0) translate(4 248)">
<title>System.NotFiniteNumberException</title>
<!-- Node6 -->
<g id="node1" class="node"><title>Node6</title>
<g id="a_node1"><a xlink:title="The exception that is thrown when a floating&#45;point value is positive infinity, negative infinity,...">
<polygon fill="#bfbfbf" stroke="black" points="0,-0.5 0,-19.5 170,-19.5 170,-0.5 0,-0.5"/>
<text text-anchor="middle" x="85" y="-7.5" font-family="Helvetica,sans-Serif" font-size="10.00">System.NotFiniteNumberException</text>
</a>
</g>
</g>
<!-- Node7 -->
<g id="node2" class="node"><title>Node7</title>
<g id="a_node2"><a xlink:href="class_system_1_1_arithmetic_exception.html" target="_top" xlink:title="The exception that is thrown for errors in an arithmetic, casting, or conversion operation.">
<polygon fill="none" stroke="black" points="33,-56.5 33,-75.5 137,-75.5 137,-56.5 33,-56.5"/>
<text text-anchor="middle" x="85" y="-63.5" font-family="Helvetica,sans-Serif" font-size="10.00">ArithmeticException</text>
</a>
</g>
</g>
<!-- Node7&#45;&gt;Node6 -->
<g id="edge1" class="edge"><title>Node7&#45;&gt;Node6</title>
<path fill="none" stroke="midnightblue" d="M85,-45.8045C85,-36.9102 85,-26.7798 85,-19.7511"/>
<polygon fill="midnightblue" stroke="midnightblue" points="81.5001,-46.083 85,-56.083 88.5001,-46.083 81.5001,-46.083"/>
</g>
<!-- Node8 -->
<g id="node3" class="node"><title>Node8</title>
<g id="a_node3"><a xlink:href="class_system_1_1_system_exception.html" target="_top" xlink:title="Serves as the base class for system exceptions namespace.">
<polygon fill="none" stroke="black" points="38,-112.5 38,-131.5 132,-131.5 132,-112.5 38,-112.5"/>
<text text-anchor="middle" x="85" y="-119.5" font-family="Helvetica,sans-Serif" font-size="10.00">SystemException</text>
</a>
</g>
</g>
<!-- Node8&#45;&gt;Node7 -->
<g id="edge2" class="edge"><title>Node8&#45;&gt;Node7</title>
<path fill="none" stroke="midnightblue" d="M85,-101.805C85,-92.9102 85,-82.7798 85,-75.7511"/>
<polygon fill="midnightblue" stroke="midnightblue" points="81.5001,-102.083 85,-112.083 88.5001,-102.083 81.5001,-102.083"/>
</g>
<!-- Node9 -->
<g id="node4" class="node"><title>Node9</title>
<g id="a_node4"><a xlink:href="class_system_1_1_exception.html" target="_top" xlink:title="Represents errors that occur during application execution.To browse the .NET Framework source code fo...">
<polygon fill="none" stroke="black" points="55,-168.5 55,-187.5 115,-187.5 115,-168.5 55,-168.5"/>
<text text-anchor="middle" x="85" y="-175.5" font-family="Helvetica,sans-Serif" font-size="10.00">Exception</text>
</a>
</g>
</g>
<!-- Node9&#45;&gt;Node8 -->
<g id="edge3" class="edge"><title>Node9&#45;&gt;Node8</title>
<path fill="none" stroke="midnightblue" d="M85,-157.805C85,-148.91 85,-138.78 85,-131.751"/>
<polygon fill="midnightblue" stroke="midnightblue" points="81.5001,-158.083 85,-168.083 88.5001,-158.083 81.5001,-158.083"/>
</g>
<!-- Node10 -->
<g id="node5" class="node"><title>Node10</title>
<g id="a_node5"><a xlink:href="interface_system_1_1_runtime_1_1_serialization_1_1_i_serializable.html" target="_top" xlink:title="Allows an object to control its own serialization and deserialization.">
<polygon fill="none" stroke="black" points="8.5,-224.5 8.5,-243.5 77.5,-243.5 77.5,-224.5 8.5,-224.5"/>
<text text-anchor="middle" x="43" y="-231.5" font-family="Helvetica,sans-Serif" font-size="10.00">ISerializable</text>
</a>
</g>
</g>
<!-- Node10&#45;&gt;Node9 -->
<g id="edge4" class="edge"><title>Node10&#45;&gt;Node9</title>
<path fill="none" stroke="midnightblue" d="M56.1102,-216.144C63.4278,-206.736 72.2409,-195.405 78.1936,-187.751"/>
<polygon fill="midnightblue" stroke="midnightblue" points="53.3122,-214.041 49.9354,-224.083 58.8376,-218.338 53.3122,-214.041"/>
</g>
<!-- Node11 -->
<g id="node6" class="node"><title>Node11</title>
<g id="a_node6"><a xlink:href="interface_system_1_1_runtime_1_1_interop_services_1_1___exception.html" target="_top" xlink:title="Exposes the public members of the T:System.Exception class to unmanaged code.">
<polygon fill="none" stroke="black" points="95.5,-224.5 95.5,-243.5 160.5,-243.5 160.5,-224.5 95.5,-224.5"/>
<text text-anchor="middle" x="128" y="-231.5" font-family="Helvetica,sans-Serif" font-size="10.00">_Exception</text>
</a>
</g>
</g>
<!-- Node11&#45;&gt;Node9 -->
<g id="edge5" class="edge"><title>Node11&#45;&gt;Node9</title>
<path fill="none" stroke="midnightblue" d="M114.578,-216.144C107.086,-206.736 98.0629,-195.405 91.9685,-187.751"/>
<polygon fill="midnightblue" stroke="midnightblue" points="111.932,-218.44 120.899,-224.083 117.408,-214.08 111.932,-218.44"/>
</g>
</g>
</svg>
