<?xml version="1.0" encoding="UTF-8" standalone="no"?>
<!DOCTYPE svg PUBLIC "-//W3C//DTD SVG 1.1//EN"
 "http://www.w3.org/Graphics/SVG/1.1/DTD/svg11.dtd">
<!-- Generated by graphviz version 2.38.0 (20140413.2041)
 -->
<!-- Title: System.Xml.XmlDocument Pages: 1 -->
<!--zoomable 261 -->
<svg id="main" version="1.1" xmlns="http://www.w3.org/2000/svg" xmlns:xlink="http://www.w3.org/1999/xlink" xml:space="preserve" onload="init(evt)">
<style type="text/css"><![CDATA[
.edge:hover path { stroke: red; }
.edge:hover polygon { stroke: red; fill: red; }
]]></style>
<script type="text/javascript"><![CDATA[
var edges = document.getElementsByTagName('g');
if (edges && edges.length) {
  for (var i=0;i<edges.length;i++) {
    if (edges[i].id.substr(0,4)=='edge') {
      edges[i].setAttribute('class','edge');
    }
  }
}
]]></script>
        <defs>
                <circle id="rim" cx="0" cy="0" r="7"/>
                <circle id="rim2" cx="0" cy="0" r="3.5"/>
                <g id="zoomPlus">
                        <use xlink:href="#rim" fill="#404040">
                                <set attributeName="fill" to="#808080" begin="zoomplus.mouseover" end="zoomplus.mouseout"/>
                        </use>
                        <path d="M-4,0h8M0,-4v8" fill="none" stroke="white" stroke-width="1.5" pointer-events="none"/>
                </g>
                <g id="zoomMin">
                        <use xlink:href="#rim" fill="#404040">
                                <set attributeName="fill" to="#808080" begin="zoomminus.mouseover" end="zoomminus.mouseout"/>
                        </use>
                        <path d="M-4,0h8" fill="none" stroke="white" stroke-width="1.5" pointer-events="none"/>
                </g>
                <g id="dirArrow">
                        <path fill="none" stroke="white" stroke-width="1.5" d="M0,-3.0v7 M-2.5,-0.5L0,-3.0L2.5,-0.5"/>
                </g>
               <g id="resetDef">
                       <use xlink:href="#rim2" fill="#404040">
                               <set attributeName="fill" to="#808080" begin="reset.mouseover" end="reset.mouseout"/>
                       </use>
               </g>
        </defs>

<script type="text/javascript">
var viewWidth = 860;
var viewHeight = 261;
var sectionId = 'dynsection-1';
</script>
<script xlink:href="svgpan.js"/>
<svg id="graph" class="graph">
<g id="viewport">
<title>System.Xml.XmlDocument</title>
<!-- Node6 -->
<g id="node1" class="node"><title>Node6</title>
<g id="a_node1"><a xlink:title="Represents an XML document. You can use this class to load, validate, edit, add, and position XML in ...">
<polygon fill="#bfbfbf" stroke="black" points="476,-92.5 476,-111.5 608,-111.5 608,-92.5 476,-92.5"/>
<text text-anchor="middle" x="542" y="-99.5" font-family="Helvetica,sans-Serif" font-size="10.00">System.Xml.XmlDocument</text>
</a>
</g>
</g>
<!-- Node6&#45;&gt;Node6 -->
<g id="edge9" class="edge"><title>Node6&#45;&gt;Node6</title>
<path fill="none" stroke="#9a32cd" stroke-dasharray="5,2" d="M520.051,-121.029C521.248,-126.128 528.564,-130 542,-130 562.973,-130 569.035,-120.565 560.187,-111.757"/>
<polygon fill="#9a32cd" stroke="#9a32cd" points="523.296,-122.339 523.813,-111.757 516.81,-119.707 523.296,-122.339"/>
<text text-anchor="middle" x="542" y="-133" font-family="Helvetica,sans-Serif" font-size="10.00"> OwnerDocument</text>
</g>
<!-- Node20 -->
<g id="node6" class="node"><title>Node20</title>
<g id="a_node6"><a xlink:href="class_system_1_1_xml_1_1_xml_element.html" target="_top" xlink:title="Represents an element.">
<polygon fill="none" stroke="red" points="728,-126.5 728,-145.5 852,-145.5 852,-126.5 728,-126.5"/>
<text text-anchor="middle" x="790" y="-133.5" font-family="Helvetica,sans-Serif" font-size="10.00">System.Xml.XmlElement</text>
</a>
</g>
</g>
<!-- Node6&#45;&gt;Node20 -->
<g id="edge7" class="edge"><title>Node6&#45;&gt;Node20</title>
<path fill="none" stroke="#9a32cd" stroke-dasharray="5,2" d="M618.319,-112.921C620.91,-113.287 623.477,-113.647 626,-114 659.654,-118.704 697.241,-123.788 727.833,-127.883"/>
<polygon fill="#9a32cd" stroke="#9a32cd" points="618.628,-109.43 608.236,-111.491 617.645,-116.361 618.628,-109.43"/>
<text text-anchor="middle" x="668" y="-127" font-family="Helvetica,sans-Serif" font-size="10.00"> OwnerDocument</text>
</g>
<!-- Node7 -->
<g id="node2" class="node"><title>Node7</title>
<g id="a_node2"><a xlink:href="class_system_1_1_xml_1_1_xml_node.html" target="_top" xlink:title="Represents a single node in the XML document.">
<polygon fill="none" stroke="red" points="265.5,-114.5 265.5,-133.5 320.5,-133.5 320.5,-114.5 265.5,-114.5"/>
<text text-anchor="middle" x="293" y="-121.5" font-family="Helvetica,sans-Serif" font-size="10.00">XmlNode</text>
</a>
</g>
</g>
<!-- Node7&#45;&gt;Node6 -->
<g id="edge1" class="edge"><title>Node7&#45;&gt;Node6</title>
<path fill="none" stroke="midnightblue" d="M331.06,-120.699C369.256,-117.297 429.579,-111.924 475.782,-107.809"/>
<polygon fill="midnightblue" stroke="midnightblue" points="330.554,-117.23 320.904,-121.604 331.175,-124.203 330.554,-117.23"/>
</g>
<!-- Node17 -->
<g id="node3" class="node"><title>Node17</title>
<g id="a_node3"><a xlink:href="class_system_1_1_xml_1_1_xml_node.html" target="_top" xlink:title="Represents a single node in the XML document.">
<polygon fill="none" stroke="red" points="0,-160.5 0,-179.5 110,-179.5 110,-160.5 0,-160.5"/>
<text text-anchor="middle" x="55" y="-167.5" font-family="Helvetica,sans-Serif" font-size="10.00">System.Xml.XmlNode</text>
</a>
</g>
</g>
<!-- Node17&#45;&gt;Node6 -->
<g id="edge10" class="edge"><title>Node17&#45;&gt;Node6</title>
<path fill="none" stroke="#9a32cd" stroke-dasharray="5,2" d="M120.487,-167.979C200.617,-164.322 341.065,-154.14 458,-126 475.5,-121.789 494.832,-116.252 510.432,-111.558"/>
<polygon fill="#9a32cd" stroke="#9a32cd" points="119.904,-164.501 110.066,-168.433 120.209,-171.494 119.904,-164.501"/>
<text text-anchor="middle" x="293" y="-164" font-family="Helvetica,sans-Serif" font-size="10.00"> ParentNode</text>
</g>
<!-- Node17&#45;&gt;Node7 -->
<g id="edge2" class="edge"><title>Node17&#45;&gt;Node7</title>
<path fill="none" stroke="#9a32cd" stroke-dasharray="5,2" d="M68.4693,-151.821C81.1996,-135.026 102.652,-111.185 128,-101 156.868,-89.4007 167.113,-97.2761 198,-101 201.399,-101.41 238.578,-110.622 265.142,-117.261"/>
<polygon fill="#9a32cd" stroke="#9a32cd" points="65.3615,-150.145 62.3249,-160.295 71.0285,-154.254 65.3615,-150.145"/>
<text text-anchor="middle" x="163" y="-148" font-family="Helvetica,sans-Serif" font-size="10.00"> PreviousSibling</text>
<text text-anchor="middle" x="163" y="-137" font-family="Helvetica,sans-Serif" font-size="10.00">FirstChild</text>
<text text-anchor="middle" x="163" y="-126" font-family="Helvetica,sans-Serif" font-size="10.00">LastChild</text>
<text text-anchor="middle" x="163" y="-115" font-family="Helvetica,sans-Serif" font-size="10.00">PreviousText</text>
<text text-anchor="middle" x="163" y="-104" font-family="Helvetica,sans-Serif" font-size="10.00">NextSibling</text>
</g>
<!-- Node17&#45;&gt;Node17 -->
<g id="edge3" class="edge"><title>Node17&#45;&gt;Node17</title>
<path fill="none" stroke="#9a32cd" stroke-dasharray="5,2" d="M35.001,-189.4C36.3366,-194.315 43.0029,-198 55,-198 74.1953,-198 79.744,-188.565 71.6459,-179.757"/>
<polygon fill="#9a32cd" stroke="#9a32cd" points="38.3755,-190.352 38.3541,-179.757 31.7638,-188.053 38.3755,-190.352"/>
<text text-anchor="middle" x="55" y="-245" font-family="Helvetica,sans-Serif" font-size="10.00"> PreviousSibling</text>
<text text-anchor="middle" x="55" y="-234" font-family="Helvetica,sans-Serif" font-size="10.00">FirstChild</text>
<text text-anchor="middle" x="55" y="-223" font-family="Helvetica,sans-Serif" font-size="10.00">LastChild</text>
<text text-anchor="middle" x="55" y="-212" font-family="Helvetica,sans-Serif" font-size="10.00">PreviousText</text>
<text text-anchor="middle" x="55" y="-201" font-family="Helvetica,sans-Serif" font-size="10.00">NextSibling</text>
</g>
<!-- Node17&#45;&gt;Node20 -->
<g id="edge8" class="edge"><title>Node17&#45;&gt;Node20</title>
<path fill="none" stroke="#9a32cd" stroke-dasharray="5,2" d="M120.291,-178.441C122.892,-178.654 125.47,-178.842 128,-179 159.051,-180.933 166.89,-179.271 198,-179 274.453,-178.333 293.665,-180.303 370,-176 497.494,-168.813 646.169,-152.8 727.7,-143.358"/>
<polygon fill="#9a32cd" stroke="#9a32cd" points="120.466,-174.942 110.186,-177.506 119.821,-181.912 120.466,-174.942"/>
<text text-anchor="middle" x="423" y="-177" font-family="Helvetica,sans-Serif" font-size="10.00"> ParentNode</text>
</g>
<!-- Node18 -->
<g id="node4" class="node"><title>Node18</title>
<g id="a_node4"><a xlink:href="class_system_1_1_xml_1_1_xml_implementation.html" target="_top" xlink:title="Defines the context for a set of T:System.Xml.XmlDocument objects.">
<polygon fill="none" stroke="black" points="216,-38.5 216,-57.5 370,-57.5 370,-38.5 216,-38.5"/>
<text text-anchor="middle" x="293" y="-45.5" font-family="Helvetica,sans-Serif" font-size="10.00">System.Xml.XmlImplementation</text>
</a>
</g>
</g>
<!-- Node18&#45;&gt;Node6 -->
<g id="edge4" class="edge"><title>Node18&#45;&gt;Node6</title>
<path fill="none" stroke="#9a32cd" stroke-dasharray="5,2" d="M376.621,-59.104C402.813,-63.2897 431.772,-68.6139 458,-75 477.434,-79.7319 498.894,-86.7625 515.124,-92.4632"/>
<polygon fill="#9a32cd" stroke="#9a32cd" points="377.151,-55.6443 366.73,-57.5557 376.069,-62.5601 377.151,-55.6443"/>
<text text-anchor="middle" x="423" y="-78" font-family="Helvetica,sans-Serif" font-size="10.00"> Implementation</text>
</g>
<!-- Node19 -->
<g id="node5" class="node"><title>Node19</title>
<g id="a_node5"><a xlink:href="class_system_1_1_xml_1_1_xml_name_table.html" target="_top" xlink:title="Table of atomized string objects.">
<polygon fill="none" stroke="black" points="224.5,-0.5 224.5,-19.5 361.5,-19.5 361.5,-0.5 224.5,-0.5"/>
<text text-anchor="middle" x="293" y="-7.5" font-family="Helvetica,sans-Serif" font-size="10.00">System.Xml.XmlNameTable</text>
</a>
</g>
</g>
<!-- Node19&#45;&gt;Node6 -->
<g id="edge5" class="edge"><title>Node19&#45;&gt;Node6</title>
<path fill="none" stroke="#9a32cd" stroke-dasharray="5,2" d="M371.673,-21.5207C399.589,-27.2085 430.865,-35.4137 458,-47 485.662,-58.8114 514.065,-79.9753 529.422,-92.3216"/>
<polygon fill="#9a32cd" stroke="#9a32cd" points="372.04,-18.0262 361.553,-19.5375 370.694,-24.8955 372.04,-18.0262"/>
<text text-anchor="middle" x="423" y="-50" font-family="Helvetica,sans-Serif" font-size="10.00"> NameTable</text>
</g>
<!-- Node20&#45;&gt;Node6 -->
<g id="edge6" class="edge"><title>Node20&#45;&gt;Node6</title>
<path fill="none" stroke="#9a32cd" stroke-dasharray="5,2" d="M762.596,-121.919C747.625,-114.726 728.28,-106.722 710,-103 676.901,-96.2617 639.343,-95.4492 608.238,-96.5646"/>
<polygon fill="#9a32cd" stroke="#9a32cd" points="761.236,-125.152 771.747,-126.476 764.356,-118.885 761.236,-125.152"/>
<text text-anchor="middle" x="668" y="-106" font-family="Helvetica,sans-Serif" font-size="10.00"> DocumentElement</text>
</g>
<!-- Node22 -->
<g id="node7" class="node"><title>Node22</title>
<g id="a_node7"><a xlink:href="class_system_1_1_xml_1_1_xml_document_type.html" target="_top" xlink:title="Represents the document type declaration.">
<polygon fill="none" stroke="red" points="216.5,-76.5 216.5,-95.5 369.5,-95.5 369.5,-76.5 216.5,-76.5"/>
<text text-anchor="middle" x="293" y="-83.5" font-family="Helvetica,sans-Serif" font-size="10.00">System.Xml.XmlDocumentType</text>
</a>
</g>
</g>
<!-- Node22&#45;&gt;Node6 -->
<g id="edge11" class="edge"><title>Node22&#45;&gt;Node6</title>
<path fill="none" stroke="#9a32cd" stroke-dasharray="5,2" d="M379.851,-88.6057C405.051,-89.6567 432.649,-91.0866 458,-93 463.781,-93.4364 469.782,-93.9561 475.793,-94.5224"/>
<polygon fill="#9a32cd" stroke="#9a32cd" points="379.716,-85.0975 369.584,-88.1926 379.435,-92.0919 379.716,-85.0975"/>
<text text-anchor="middle" x="423" y="-96" font-family="Helvetica,sans-Serif" font-size="10.00"> DocumentType</text>
</g>
</g>
</svg>
        <g id="navigator" transform="translate(0 0)" fill="#404254">
                <rect fill="#f2f5e9" fill-opacity="0.5" stroke="#606060" stroke-width=".5" x="0" y="0" width="60" height="60"/>
                <use id="zoomplus" xlink:href="#zoomPlus" x="17" y="9" onmousedown="handleZoom(evt,'in')"/>
                <use id="zoomminus" xlink:href="#zoomMin" x="42" y="9" onmousedown="handleZoom(evt,'out')"/>
                <use id="reset" xlink:href="#resetDef" x="30" y="36" onmousedown="handleReset()"/>
                <g id="arrowUp" xlink:href="#dirArrow" transform="translate(30 24)" onmousedown="handlePan(0,-1)">
                  <use xlink:href="#rim" fill="#404040">
                        <set attributeName="fill" to="#808080" begin="arrowUp.mouseover" end="arrowUp.mouseout"/>
                  </use>
                  <path fill="none" stroke="white" stroke-width="1.5" d="M0,-3.0v7 M-2.5,-0.5L0,-3.0L2.5,-0.5"/>
                </g>
                <g id="arrowRight" xlink:href="#dirArrow" transform="rotate(90) translate(36 -43)" onmousedown="handlePan(1,0)">
                  <use xlink:href="#rim" fill="#404040">
                        <set attributeName="fill" to="#808080" begin="arrowRight.mouseover" end="arrowRight.mouseout"/>
                  </use>
                  <path fill="none" stroke="white" stroke-width="1.5" d="M0,-3.0v7 M-2.5,-0.5L0,-3.0L2.5,-0.5"/>
                </g>
                <g id="arrowDown" xlink:href="#dirArrow" transform="rotate(180) translate(-30 -48)" onmousedown="handlePan(0,1)">
                  <use xlink:href="#rim" fill="#404040">
                        <set attributeName="fill" to="#808080" begin="arrowDown.mouseover" end="arrowDown.mouseout"/>
                  </use>
                  <path fill="none" stroke="white" stroke-width="1.5" d="M0,-3.0v7 M-2.5,-0.5L0,-3.0L2.5,-0.5"/>
                </g>
                <g id="arrowLeft" xlink:href="#dirArrow" transform="rotate(270) translate(-36 17)" onmousedown="handlePan(-1,0)">
                  <use xlink:href="#rim" fill="#404040">
                        <set attributeName="fill" to="#808080" begin="arrowLeft.mouseover" end="arrowLeft.mouseout"/>
                  </use>
                  <path fill="none" stroke="white" stroke-width="1.5" d="M0,-3.0v7 M-2.5,-0.5L0,-3.0L2.5,-0.5"/>
                </g>
        </g>
        <svg viewBox="0 0 15 15" width="100%" height="30px" preserveAspectRatio="xMaxYMin meet">
         <g id="arrow_out" transform="scale(0.3 0.3)">
          <a xlink:href="class_system_1_1_xml_1_1_xml_document__coll__graph_org.svg" target="_base">
           <rect id="button" ry="5" rx="5" y="6" x="6" height="38" width="38"
                fill="#f2f5e9" fill-opacity="0.5" stroke="#606060" stroke-width="1.0"/>
           <path id="arrow"
             d="M 11.500037,31.436501 C 11.940474,20.09759 22.043105,11.32322 32.158766,21.979434 L 37.068811,17.246167 C 37.068811,17.246167 37.088388,32 37.088388,32 L 22.160133,31.978069 C 22.160133,31.978069 26.997745,27.140456 26.997745,27.140456 C 18.528582,18.264221 13.291696,25.230495 11.500037,31.436501 z"
             style="fill:#404040;"/>
          </a>
         </g>
        </svg>
</svg>
