<?xml version="1.0" encoding="UTF-8" standalone="no"?>
<!DOCTYPE svg PUBLIC "-//W3C//DTD SVG 1.1//EN"
 "http://www.w3.org/Graphics/SVG/1.1/DTD/svg11.dtd">
<!-- Generated by graphviz version 2.38.0 (20140413.2041)
 -->
<!-- Title: System.Runtime.InteropServices.WindowsRuntime.ReadOnlyDictionaryValueCollection&lt; TKey, TValue &gt; Pages: 1 -->
<svg width="253pt" height="242pt"
 viewBox="0.00 0.00 252.50 242.00" xmlns="http://www.w3.org/2000/svg" xmlns:xlink="http://www.w3.org/1999/xlink">
<g id="graph0" class="graph" transform="scale(1 1) rotate(0) translate(4 238)">
<title>System.Runtime.InteropServices.WindowsRuntime.ReadOnlyDictionaryValueCollection&lt; TKey, TValue &gt;</title>
<!-- Node4 -->
<g id="node1" class="node"><title>Node4</title>
<g id="a_node1"><a xlink:title=" ">
<polygon fill="#bfbfbf" stroke="black" points="0,-0.5 0,-41.5 206,-41.5 206,-0.5 0,-0.5"/>
<text text-anchor="start" x="8" y="-29.5" font-family="Helvetica,sans-Serif" font-size="10.00">System.Runtime.InteropServices.</text>
<text text-anchor="start" x="8" y="-18.5" font-family="Helvetica,sans-Serif" font-size="10.00">WindowsRuntime.ReadOnlyDictionaryValue</text>
<text text-anchor="middle" x="103" y="-7.5" font-family="Helvetica,sans-Serif" font-size="10.00">Collection&lt; TKey, TValue &gt;</text>
</a>
</g>
</g>
<!-- Node5 -->
<g id="node2" class="node"><title>Node5</title>
<g id="a_node2"><a xlink:href="interface_system_1_1_collections_1_1_generic_1_1_i_enumerable.html" target="_top" xlink:title=" ">
<polygon fill="none" stroke="black" points="108.5,-79.5 108.5,-98.5 227.5,-98.5 227.5,-79.5 108.5,-79.5"/>
<text text-anchor="middle" x="168" y="-86.5" font-family="Helvetica,sans-Serif" font-size="10.00">IEnumerable&lt; TValue &gt;</text>
</a>
</g>
</g>
<!-- Node5&#45;&gt;Node4 -->
<g id="edge1" class="edge"><title>Node5&#45;&gt;Node4</title>
<path fill="none" stroke="midnightblue" d="M152.321,-72.0799C143.336,-62.957 131.984,-51.4299 122.436,-41.7351"/>
<polygon fill="midnightblue" stroke="midnightblue" points="149.992,-74.7027 159.502,-79.3717 154.979,-69.7909 149.992,-74.7027"/>
</g>
<!-- Node6 -->
<g id="node3" class="node"><title>Node6</title>
<g id="a_node3"><a xlink:href="interface_system_1_1_collections_1_1_generic_1_1_i_enumerable.html" target="_top" xlink:title="Exposes the enumerator, which supports a simple iteration over a collection of a specified type....">
<polygon fill="none" stroke="black" points="103.5,-146.5 103.5,-176.5 244.5,-176.5 244.5,-146.5 103.5,-146.5"/>
<text text-anchor="start" x="111.5" y="-164.5" font-family="Helvetica,sans-Serif" font-size="10.00">System.Collections.Generic.</text>
<text text-anchor="middle" x="174" y="-153.5" font-family="Helvetica,sans-Serif" font-size="10.00">IEnumerable&lt; out out T &gt;</text>
</a>
</g>
</g>
<!-- Node6&#45;&gt;Node5 -->
<g id="edge2" class="edge"><title>Node6&#45;&gt;Node5</title>
<path fill="none" stroke="orange" stroke-dasharray="5,2" d="M171.923,-136.091C170.827,-123.214 169.549,-108.197 168.757,-98.8932"/>
<polygon fill="orange" stroke="orange" points="168.45,-136.566 172.786,-146.233 175.425,-135.972 168.45,-136.566"/>
<text text-anchor="middle" x="197" y="-120" font-family="Helvetica,sans-Serif" font-size="10.00"> &lt; TValue &gt;</text>
</g>
<!-- Node7 -->
<g id="node4" class="node"><title>Node7</title>
<g id="a_node4"><a xlink:href="interface_system_1_1_collections_1_1_i_enumerable.html" target="_top" xlink:title="Exposes an enumerator, which supports a simple iteration over a non&#45;generic collection....">
<polygon fill="none" stroke="black" points="70.5,-214.5 70.5,-233.5 141.5,-233.5 141.5,-214.5 70.5,-214.5"/>
<text text-anchor="middle" x="106" y="-221.5" font-family="Helvetica,sans-Serif" font-size="10.00">IEnumerable</text>
</a>
</g>
</g>
<!-- Node7&#45;&gt;Node4 -->
<g id="edge4" class="edge"><title>Node7&#45;&gt;Node4</title>
<path fill="none" stroke="midnightblue" d="M100.038,-204.555C97.6481,-196.233 95.183,-186.221 94,-177 87.7919,-128.608 94.8615,-71.1618 99.5367,-41.6555"/>
<polygon fill="midnightblue" stroke="midnightblue" points="96.7507,-205.774 103.023,-214.313 103.445,-203.726 96.7507,-205.774"/>
</g>
<!-- Node7&#45;&gt;Node6 -->
<g id="edge3" class="edge"><title>Node7&#45;&gt;Node6</title>
<path fill="none" stroke="midnightblue" d="M123.287,-207.62C134.045,-198.048 147.775,-185.832 158.235,-176.526"/>
<polygon fill="midnightblue" stroke="midnightblue" points="120.887,-205.07 115.743,-214.332 125.54,-210.3 120.887,-205.07"/>
</g>
</g>
</svg>
