<?xml version="1.0" encoding="UTF-8" standalone="no"?>
<!DOCTYPE svg PUBLIC "-//W3C//DTD SVG 1.1//EN"
 "http://www.w3.org/Graphics/SVG/1.1/DTD/svg11.dtd">
<!-- Generated by graphviz version 2.38.0 (20140413.2041)
 -->
<!-- Title: System.Runtime.Remoting.Messaging.ConstructionCall Pages: 1 -->
<svg width="816pt" height="401pt"
 viewBox="0.00 0.00 816.00 401.00" xmlns="http://www.w3.org/2000/svg" xmlns:xlink="http://www.w3.org/1999/xlink">
<g id="graph0" class="graph" transform="scale(1 1) rotate(0) translate(4 397)">
<title>System.Runtime.Remoting.Messaging.ConstructionCall</title>
<!-- Node9 -->
<g id="node1" class="node"><title>Node9</title>
<g id="a_node1"><a xlink:title="Implements the T:System.Runtime.Remoting.Activation.IConstructionCallMessage interface to create a re...">
<polygon fill="#bfbfbf" stroke="black" points="670,-275 670,-305 808,-305 808,-275 670,-275"/>
<text text-anchor="start" x="678" y="-293" font-family="Helvetica,sans-Serif" font-size="10.00">System.Runtime.Remoting.</text>
<text text-anchor="middle" x="739" y="-282" font-family="Helvetica,sans-Serif" font-size="10.00">Messaging.ConstructionCall</text>
</a>
</g>
</g>
<!-- Node10 -->
<g id="node2" class="node"><title>Node10</title>
<g id="a_node2"><a xlink:href="class_system_1_1_runtime_1_1_remoting_1_1_messaging_1_1_method_call.html" target="_top" xlink:title="Implements the T:System.Runtime.Remoting.Messaging.IMethodCallMessage interface to create a request m...">
<polygon fill="none" stroke="black" points="535.5,-136.5 535.5,-155.5 600.5,-155.5 600.5,-136.5 535.5,-136.5"/>
<text text-anchor="middle" x="568" y="-143.5" font-family="Helvetica,sans-Serif" font-size="10.00">MethodCall</text>
</a>
</g>
</g>
<!-- Node10&#45;&gt;Node9 -->
<g id="edge1" class="edge"><title>Node10&#45;&gt;Node9</title>
<path fill="none" stroke="midnightblue" d="M588.364,-162.499C621.462,-190.701 688.427,-247.76 720.329,-274.943"/>
<polygon fill="midnightblue" stroke="midnightblue" points="590.233,-159.493 580.351,-155.672 585.693,-164.822 590.233,-159.493"/>
</g>
<!-- Node11 -->
<g id="node3" class="node"><title>Node11</title>
<g id="a_node3"><a xlink:href="interface_system_1_1_runtime_1_1_remoting_1_1_messaging_1_1_i_method_call_message.html" target="_top" xlink:title="Defines the method call message interface.">
<polygon fill="none" stroke="black" points="257.5,-231.5 257.5,-250.5 364.5,-250.5 364.5,-231.5 257.5,-231.5"/>
<text text-anchor="middle" x="311" y="-238.5" font-family="Helvetica,sans-Serif" font-size="10.00">IMethodCallMessage</text>
</a>
</g>
</g>
<!-- Node11&#45;&gt;Node9 -->
<g id="edge19" class="edge"><title>Node11&#45;&gt;Node9</title>
<path fill="none" stroke="midnightblue" d="M374.698,-246.341C443.02,-252.421 555.484,-263.188 652,-276 657.848,-276.776 663.911,-277.641 669.986,-278.549"/>
<polygon fill="midnightblue" stroke="midnightblue" points="374.803,-242.837 364.533,-245.442 374.186,-249.81 374.803,-242.837"/>
</g>
<!-- Node11&#45;&gt;Node10 -->
<g id="edge2" class="edge"><title>Node11&#45;&gt;Node10</title>
<path fill="none" stroke="midnightblue" d="M374.821,-232.144C408.442,-226.015 450.012,-216.166 485,-201 512.366,-189.138 540.414,-167.992 555.573,-155.663"/>
<polygon fill="midnightblue" stroke="midnightblue" points="373.902,-228.752 364.658,-233.929 375.113,-235.647 373.902,-228.752"/>
</g>
<!-- Node20 -->
<g id="node12" class="node"><title>Node20</title>
<g id="a_node12"><a xlink:href="interface_system_1_1_runtime_1_1_remoting_1_1_activation_1_1_i_construction_call_message.html" target="_top" xlink:title="Represents the construction call request of an object.">
<polygon fill="none" stroke="black" points="503,-318.5 503,-337.5 633,-337.5 633,-318.5 503,-318.5"/>
<text text-anchor="middle" x="568" y="-325.5" font-family="Helvetica,sans-Serif" font-size="10.00">IConstructionCallMessage</text>
</a>
</g>
</g>
<!-- Node11&#45;&gt;Node20 -->
<g id="edge16" class="edge"><title>Node11&#45;&gt;Node20</title>
<path fill="none" stroke="midnightblue" d="M349.734,-253.874C401.406,-271.503 493.001,-302.753 538.998,-318.446"/>
<polygon fill="midnightblue" stroke="midnightblue" points="350.858,-250.559 340.264,-250.643 348.598,-257.185 350.858,-250.559"/>
</g>
<!-- Node12 -->
<g id="node4" class="node"><title>Node12</title>
<g id="a_node4"><a xlink:href="interface_system_1_1_runtime_1_1_remoting_1_1_messaging_1_1_i_method_message.html" target="_top" xlink:title="Defines the method message interface.">
<polygon fill="none" stroke="black" points="108,-256.5 108,-275.5 199,-275.5 199,-256.5 108,-256.5"/>
<text text-anchor="middle" x="153.5" y="-263.5" font-family="Helvetica,sans-Serif" font-size="10.00">IMethodMessage</text>
</a>
</g>
</g>
<!-- Node12&#45;&gt;Node9 -->
<g id="edge20" class="edge"><title>Node12&#45;&gt;Node9</title>
<path fill="none" stroke="midnightblue" d="M209.582,-268.266C316.719,-272.672 552.878,-282.386 669.745,-287.193"/>
<polygon fill="midnightblue" stroke="midnightblue" points="209.453,-264.757 199.317,-267.843 209.165,-271.751 209.453,-264.757"/>
</g>
<!-- Node12&#45;&gt;Node10 -->
<g id="edge6" class="edge"><title>Node12&#45;&gt;Node10</title>
<path fill="none" stroke="midnightblue" d="M177.459,-251.083C193.313,-241.426 215.209,-229.328 236,-222 342.14,-184.591 376.44,-205.66 485,-176 505.326,-170.447 527.754,-162.079 544.009,-155.591"/>
<polygon fill="midnightblue" stroke="midnightblue" points="175.511,-248.173 168.876,-256.433 179.213,-254.114 175.511,-248.173"/>
</g>
<!-- Node12&#45;&gt;Node11 -->
<g id="edge3" class="edge"><title>Node12&#45;&gt;Node11</title>
<path fill="none" stroke="midnightblue" d="M209.14,-257.215C224.829,-254.693 241.898,-251.949 257.457,-249.447"/>
<polygon fill="midnightblue" stroke="midnightblue" points="208.378,-253.793 199.06,-258.836 209.489,-260.704 208.378,-253.793"/>
</g>
<!-- Node12&#45;&gt;Node20 -->
<g id="edge17" class="edge"><title>Node12&#45;&gt;Node20</title>
<path fill="none" stroke="midnightblue" d="M181.813,-279.971C192.525,-284.868 205.087,-289.911 217,-293 314.534,-318.292 431.738,-325.521 502.738,-327.464"/>
<polygon fill="midnightblue" stroke="midnightblue" points="183.101,-276.709 172.567,-275.576 180.096,-283.031 183.101,-276.709"/>
</g>
<!-- Node13 -->
<g id="node5" class="node"><title>Node13</title>
<g id="a_node5"><a xlink:href="interface_system_1_1_runtime_1_1_remoting_1_1_messaging_1_1_i_message.html" target="_top" xlink:title="Contains communication data sent between cooperating message sinks.">
<polygon fill="none" stroke="black" points="6,-256.5 6,-275.5 65,-275.5 65,-256.5 6,-256.5"/>
<text text-anchor="middle" x="35.5" y="-263.5" font-family="Helvetica,sans-Serif" font-size="10.00">IMessage</text>
</a>
</g>
</g>
<!-- Node13&#45;&gt;Node9 -->
<g id="edge21" class="edge"><title>Node13&#45;&gt;Node9</title>
<path fill="none" stroke="midnightblue" d="M43.6397,-285.271C58.1905,-320.793 94.8577,-393 152.5,-393 152.5,-393 152.5,-393 569,-393 635.659,-393 698.341,-333.849 724.793,-305.198"/>
<polygon fill="midnightblue" stroke="midnightblue" points="46.7378,-283.583 39.8353,-275.546 40.2188,-286.134 46.7378,-283.583"/>
</g>
<!-- Node13&#45;&gt;Node10 -->
<g id="edge7" class="edge"><title>Node13&#45;&gt;Node10</title>
<path fill="none" stroke="midnightblue" d="M66.8071,-252.349C79.463,-246.782 94.3672,-240.399 108,-235 164.205,-212.743 177.24,-203.199 236,-189 343.866,-162.935 475.574,-151.804 535.094,-147.85"/>
<polygon fill="midnightblue" stroke="midnightblue" points="65.3506,-249.166 57.6257,-256.417 68.1863,-255.566 65.3506,-249.166"/>
</g>
<!-- Node13&#45;&gt;Node11 -->
<g id="edge5" class="edge"><title>Node13&#45;&gt;Node11</title>
<path fill="none" stroke="midnightblue" d="M74.8906,-254.063C85.5135,-251.237 97.1163,-248.586 108,-247 158.341,-239.664 216.46,-238.713 257.396,-239.268"/>
<polygon fill="midnightblue" stroke="midnightblue" points="73.7577,-250.745 65.0614,-256.797 75.6336,-257.489 73.7577,-250.745"/>
</g>
<!-- Node13&#45;&gt;Node12 -->
<g id="edge4" class="edge"><title>Node13&#45;&gt;Node12</title>
<path fill="none" stroke="midnightblue" d="M75.2674,-266C85.7338,-266 97.1423,-266 107.9,-266"/>
<polygon fill="midnightblue" stroke="midnightblue" points="75.1742,-262.5 65.1742,-266 75.1741,-269.5 75.1742,-262.5"/>
</g>
<!-- Node13&#45;&gt;Node20 -->
<g id="edge18" class="edge"><title>Node13&#45;&gt;Node20</title>
<path fill="none" stroke="midnightblue" d="M73.3758,-278.814C113.041,-292.057 178.212,-312.265 236,-323 309.703,-336.692 329.111,-334.663 404,-338 439.964,-339.602 449.066,-340.183 485,-338 490.726,-337.652 496.665,-337.169 502.61,-336.601"/>
<polygon fill="midnightblue" stroke="midnightblue" points="74.4552,-275.485 63.861,-275.607 72.2194,-282.118 74.4552,-275.485"/>
</g>
<!-- Node14 -->
<g id="node6" class="node"><title>Node14</title>
<g id="a_node6"><a xlink:href="interface_system_1_1_runtime_1_1_serialization_1_1_i_serializable.html" target="_top" xlink:title="Allows an object to control its own serialization and deserialization.">
<polygon fill="none" stroke="black" points="276.5,-79.5 276.5,-98.5 345.5,-98.5 345.5,-79.5 276.5,-79.5"/>
<text text-anchor="middle" x="311" y="-86.5" font-family="Helvetica,sans-Serif" font-size="10.00">ISerializable</text>
</a>
</g>
</g>
<!-- Node14&#45;&gt;Node10 -->
<g id="edge8" class="edge"><title>Node14&#45;&gt;Node10</title>
<path fill="none" stroke="midnightblue" d="M355.675,-98.7627C406.759,-110.181 490.082,-128.807 535.333,-138.921"/>
<polygon fill="midnightblue" stroke="midnightblue" points="356.122,-95.2762 345.599,-96.5104 354.595,-102.108 356.122,-95.2762"/>
</g>
<!-- Node15 -->
<g id="node7" class="node"><title>Node15</title>
<g id="a_node7"><a xlink:href="interface_system_1_1_runtime_1_1_remoting_1_1_messaging_1_1_i_internal_message.html" target="_top" xlink:title=" ">
<polygon fill="none" stroke="black" points="266,-41.5 266,-60.5 356,-60.5 356,-41.5 266,-41.5"/>
<text text-anchor="middle" x="311" y="-48.5" font-family="Helvetica,sans-Serif" font-size="10.00">IInternalMessage</text>
</a>
</g>
</g>
<!-- Node15&#45;&gt;Node10 -->
<g id="edge9" class="edge"><title>Node15&#45;&gt;Node10</title>
<path fill="none" stroke="midnightblue" d="M361.887,-63.1002C369.985,-65.2673 378.253,-67.6031 386,-70 430.727,-83.8381 441.901,-87.7115 485,-106 507.309,-115.467 532.242,-127.905 548.693,-136.382"/>
<polygon fill="midnightblue" stroke="midnightblue" points="362.701,-59.6954 352.141,-60.5476 360.928,-66.467 362.701,-59.6954"/>
</g>
<!-- Node16 -->
<g id="node8" class="node"><title>Node16</title>
<g id="a_node8"><a xlink:href="interface_system_1_1_runtime_1_1_remoting_1_1_messaging_1_1_i_serialization_root_object.html" target="_top" xlink:title=" ">
<polygon fill="none" stroke="black" points="250.5,-117.5 250.5,-136.5 371.5,-136.5 371.5,-117.5 250.5,-117.5"/>
<text text-anchor="middle" x="311" y="-124.5" font-family="Helvetica,sans-Serif" font-size="10.00">ISerializationRootObject</text>
</a>
</g>
</g>
<!-- Node16&#45;&gt;Node10 -->
<g id="edge10" class="edge"><title>Node16&#45;&gt;Node10</title>
<path fill="none" stroke="midnightblue" d="M381.904,-132.209C431.958,-135.938 497.005,-140.785 535.16,-143.628"/>
<polygon fill="midnightblue" stroke="midnightblue" points="382.019,-128.707 371.786,-131.455 381.498,-135.688 382.019,-128.707"/>
</g>
<!-- Node17 -->
<g id="node9" class="node"><title>Node17</title>
<g id="a_node9"><a xlink:href="interface_system_1_1_collections_1_1_i_dictionary.html" target="_top" xlink:title="Represents a nongeneric collection of key/value pairs.">
<polygon fill="none" stroke="black" points="236,-3.5 236,-22.5 386,-22.5 386,-3.5 236,-3.5"/>
<text text-anchor="middle" x="311" y="-10.5" font-family="Helvetica,sans-Serif" font-size="10.00">System.Collections.IDictionary</text>
</a>
</g>
</g>
<!-- Node17&#45;&gt;Node10 -->
<g id="edge11" class="edge"><title>Node17&#45;&gt;Node10</title>
<path fill="none" stroke="#9a32cd" stroke-dasharray="5,2" d="M396.119,-19.1652C425.786,-24.1864 458.358,-33.1355 485,-49 522.325,-71.2259 550.763,-116.686 561.889,-136.46"/>
<polygon fill="#9a32cd" stroke="#9a32cd" points="396.604,-15.6984 386.182,-17.6085 395.52,-22.6141 396.604,-15.6984"/>
<text text-anchor="middle" x="444.5" y="-63" font-family="Helvetica,sans-Serif" font-size="10.00"> InternalProperties</text>
<text text-anchor="middle" x="444.5" y="-52" font-family="Helvetica,sans-Serif" font-size="10.00">ExternalProperties</text>
</g>
<!-- Node18 -->
<g id="node10" class="node"><title>Node18</title>
<g id="a_node10"><a xlink:href="interface_system_1_1_collections_1_1_i_collection.html" target="_top" xlink:title="Defines size, enumerators, and synchronization methods for all nongeneric collections.">
<polygon fill="none" stroke="black" points="122.5,-25.5 122.5,-44.5 184.5,-44.5 184.5,-25.5 122.5,-25.5"/>
<text text-anchor="middle" x="153.5" y="-32.5" font-family="Helvetica,sans-Serif" font-size="10.00">ICollection</text>
</a>
</g>
</g>
<!-- Node18&#45;&gt;Node17 -->
<g id="edge12" class="edge"><title>Node18&#45;&gt;Node17</title>
<path fill="none" stroke="midnightblue" d="M195.023,-29.2669C209.604,-27.2039 226.472,-24.8175 242.718,-22.5189"/>
<polygon fill="midnightblue" stroke="midnightblue" points="194.262,-25.8395 184.851,-30.706 195.243,-32.7705 194.262,-25.8395"/>
</g>
<!-- Node19 -->
<g id="node11" class="node"><title>Node19</title>
<g id="a_node11"><a xlink:href="interface_system_1_1_collections_1_1_i_enumerable.html" target="_top" xlink:title="Exposes an enumerator, which supports a simple iteration over a non&#45;generic collection....">
<polygon fill="none" stroke="black" points="0,-0.5 0,-19.5 71,-19.5 71,-0.5 0,-0.5"/>
<text text-anchor="middle" x="35.5" y="-7.5" font-family="Helvetica,sans-Serif" font-size="10.00">IEnumerable</text>
</a>
</g>
</g>
<!-- Node19&#45;&gt;Node17 -->
<g id="edge14" class="edge"><title>Node19&#45;&gt;Node17</title>
<path fill="none" stroke="midnightblue" d="M81.295,-10.4914C123.141,-10.9504 186.391,-11.6441 235.777,-12.1859"/>
<polygon fill="midnightblue" stroke="midnightblue" points="81.1768,-6.98994 71.139,-10.38 81.0999,-13.9895 81.1768,-6.98994"/>
</g>
<!-- Node19&#45;&gt;Node18 -->
<g id="edge13" class="edge"><title>Node19&#45;&gt;Node18</title>
<path fill="none" stroke="midnightblue" d="M81.1308,-19.6187C94.9529,-22.5976 109.846,-25.8074 122.434,-28.5202"/>
<polygon fill="midnightblue" stroke="midnightblue" points="81.8168,-16.1863 71.3038,-17.5008 80.342,-23.0291 81.8168,-16.1863"/>
</g>
<!-- Node20&#45;&gt;Node9 -->
<g id="edge15" class="edge"><title>Node20&#45;&gt;Node9</title>
<path fill="none" stroke="midnightblue" d="M621.645,-316.163C637.277,-312.648 654.612,-308.75 671.025,-305.06"/>
<polygon fill="midnightblue" stroke="midnightblue" points="620.634,-312.802 611.646,-318.411 622.17,-319.632 620.634,-312.802"/>
</g>
</g>
</svg>
