<?xml version="1.0" encoding="UTF-8" standalone="no"?>
<!DOCTYPE svg PUBLIC "-//W3C//DTD SVG 1.1//EN"
 "http://www.w3.org/Graphics/SVG/1.1/DTD/svg11.dtd">
<!-- Generated by graphviz version 2.38.0 (20140413.2041)
 -->
<!-- Title: System.Runtime.InteropServices.SafeBuffer Pages: 1 -->
<svg width="798pt" height="225pt"
 viewBox="0.00 0.00 798.00 224.50" xmlns="http://www.w3.org/2000/svg" xmlns:xlink="http://www.w3.org/1999/xlink">
<g id="graph0" class="graph" transform="scale(1 1) rotate(0) translate(4 220.5)">
<title>System.Runtime.InteropServices.SafeBuffer</title>
<!-- Node0 -->
<g id="node1" class="node"><title>Node0</title>
<g id="a_node1"><a xlink:title="Provides a controlled memory buffer that can be used for reading and writing. Attempts to access memo...">
<polygon fill="#bfbfbf" stroke="black" points="426,-88 426,-118 587,-118 587,-88 426,-88"/>
<text text-anchor="start" x="434" y="-106" font-family="Helvetica,sans-Serif" font-size="10.00">System.Runtime.InteropServices.</text>
<text text-anchor="middle" x="506.5" y="-95" font-family="Helvetica,sans-Serif" font-size="10.00">SafeBuffer</text>
</a>
</g>
</g>
<!-- Node5 -->
<g id="node6" class="node"><title>Node5</title>
<g id="a_node6"><a xlink:href="class_microsoft_1_1_win32_1_1_safe_handles_1_1_safe_local_alloc_handle.html" target="_top" xlink:title=" ">
<polygon fill="none" stroke="black" points="632.5,-186 632.5,-216 780.5,-216 780.5,-186 632.5,-186"/>
<text text-anchor="start" x="640.5" y="-204" font-family="Helvetica,sans-Serif" font-size="10.00">Microsoft.Win32.SafeHandles.</text>
<text text-anchor="middle" x="706.5" y="-193" font-family="Helvetica,sans-Serif" font-size="10.00">SafeLocalAllocHandle</text>
</a>
</g>
</g>
<!-- Node0&#45;&gt;Node5 -->
<g id="edge5" class="edge"><title>Node0&#45;&gt;Node5</title>
<path fill="none" stroke="midnightblue" d="M535.472,-124.177C558.089,-140.478 591.278,-162.588 623,-177 630.334,-180.332 638.244,-183.326 646.162,-185.977"/>
<polygon fill="midnightblue" stroke="midnightblue" points="537.486,-121.314 527.346,-118.243 533.357,-126.967 537.486,-121.314"/>
</g>
<!-- Node6 -->
<g id="node7" class="node"><title>Node6</title>
<g id="a_node7"><a xlink:href="class_microsoft_1_1_win32_1_1_safe_handles_1_1_safe_lsa_memory_handle.html" target="_top" xlink:title=" ">
<polygon fill="none" stroke="black" points="632.5,-137 632.5,-167 780.5,-167 780.5,-137 632.5,-137"/>
<text text-anchor="start" x="640.5" y="-155" font-family="Helvetica,sans-Serif" font-size="10.00">Microsoft.Win32.SafeHandles.</text>
<text text-anchor="middle" x="706.5" y="-144" font-family="Helvetica,sans-Serif" font-size="10.00">SafeLsaMemoryHandle</text>
</a>
</g>
</g>
<!-- Node0&#45;&gt;Node6 -->
<g id="edge6" class="edge"><title>Node0&#45;&gt;Node6</title>
<path fill="none" stroke="midnightblue" d="M578.121,-120.477C599.944,-125.877 623.777,-131.776 644.863,-136.994"/>
<polygon fill="midnightblue" stroke="midnightblue" points="578.8,-117.039 568.252,-118.035 577.118,-123.834 578.8,-117.039"/>
</g>
<!-- Node7 -->
<g id="node8" class="node"><title>Node7</title>
<g id="a_node8"><a xlink:href="class_microsoft_1_1_win32_1_1_safe_handles_1_1_safe_lsa_return_buffer_handle.html" target="_top" xlink:title=" ">
<polygon fill="none" stroke="black" points="632.5,-88 632.5,-118 780.5,-118 780.5,-88 632.5,-88"/>
<text text-anchor="start" x="640.5" y="-106" font-family="Helvetica,sans-Serif" font-size="10.00">Microsoft.Win32.SafeHandles.</text>
<text text-anchor="middle" x="706.5" y="-95" font-family="Helvetica,sans-Serif" font-size="10.00">SafeLsaReturnBufferHandle</text>
</a>
</g>
</g>
<!-- Node0&#45;&gt;Node7 -->
<g id="edge7" class="edge"><title>Node0&#45;&gt;Node7</title>
<path fill="none" stroke="midnightblue" d="M597.408,-103C609.118,-103 620.999,-103 632.388,-103"/>
<polygon fill="midnightblue" stroke="midnightblue" points="597.178,-99.5001 587.178,-103 597.178,-106.5 597.178,-99.5001"/>
</g>
<!-- Node8 -->
<g id="node9" class="node"><title>Node8</title>
<g id="a_node9"><a xlink:href="class_system_1_1_runtime_1_1_interop_services_1_1_safe_heap_handle.html" target="_top" xlink:title=" ">
<polygon fill="none" stroke="black" points="626,-39 626,-69 787,-69 787,-39 626,-39"/>
<text text-anchor="start" x="634" y="-57" font-family="Helvetica,sans-Serif" font-size="10.00">System.Runtime.InteropServices.</text>
<text text-anchor="middle" x="706.5" y="-46" font-family="Helvetica,sans-Serif" font-size="10.00">SafeHeapHandle</text>
</a>
</g>
</g>
<!-- Node0&#45;&gt;Node8 -->
<g id="edge8" class="edge"><title>Node0&#45;&gt;Node8</title>
<path fill="none" stroke="midnightblue" d="M578.121,-85.5232C599.944,-80.1225 623.777,-74.2245 644.863,-69.0062"/>
<polygon fill="midnightblue" stroke="midnightblue" points="577.118,-82.1655 568.252,-87.9654 578.8,-88.9605 577.118,-82.1655"/>
</g>
<!-- Node9 -->
<g id="node10" class="node"><title>Node9</title>
<g id="a_node10"><a xlink:href="class_system_1_1_security_1_1_safe_b_s_t_r_handle.html" target="_top" xlink:title=" ">
<polygon fill="none" stroke="black" points="623,-0.5 623,-19.5 790,-19.5 790,-0.5 623,-0.5"/>
<text text-anchor="middle" x="706.5" y="-7.5" font-family="Helvetica,sans-Serif" font-size="10.00">System.Security.SafeBSTRHandle</text>
</a>
</g>
</g>
<!-- Node0&#45;&gt;Node9 -->
<g id="edge9" class="edge"><title>Node0&#45;&gt;Node9</title>
<path fill="none" stroke="midnightblue" d="M534.44,-81.9241C556.946,-65.2861 590.492,-42.6705 623,-29 632.078,-25.1826 642.055,-22.0619 651.838,-19.5348"/>
<polygon fill="midnightblue" stroke="midnightblue" points="532.275,-79.1732 526.38,-87.977 536.478,-84.7706 532.275,-79.1732"/>
</g>
<!-- Node1 -->
<g id="node2" class="node"><title>Node1</title>
<g id="a_node2"><a xlink:href="class_microsoft_1_1_win32_1_1_safe_handles_1_1_safe_handle_zero_or_minus_one_is_invalid.html" target="_top" xlink:title="Provides a base class for Win32 safe handle implementations in which the value of either 0 or &#45;1 indi...">
<polygon fill="none" stroke="black" points="250,-88 250,-118 390,-118 390,-88 250,-88"/>
<text text-anchor="start" x="258" y="-106" font-family="Helvetica,sans-Serif" font-size="10.00">SafeHandleZeroOrMinusOne</text>
<text text-anchor="middle" x="320" y="-95" font-family="Helvetica,sans-Serif" font-size="10.00">IsInvalid</text>
</a>
</g>
</g>
<!-- Node1&#45;&gt;Node0 -->
<g id="edge1" class="edge"><title>Node1&#45;&gt;Node0</title>
<path fill="none" stroke="midnightblue" d="M400.446,-103C408.9,-103 417.501,-103 425.956,-103"/>
<polygon fill="midnightblue" stroke="midnightblue" points="400.226,-99.5001 390.226,-103 400.226,-106.5 400.226,-99.5001"/>
</g>
<!-- Node2 -->
<g id="node3" class="node"><title>Node2</title>
<g id="a_node3"><a xlink:href="class_system_1_1_runtime_1_1_interop_services_1_1_safe_handle.html" target="_top" xlink:title="Represents a wrapper class for operating system handles. This class must be inherited.">
<polygon fill="none" stroke="black" points="148,-93.5 148,-112.5 214,-112.5 214,-93.5 148,-93.5"/>
<text text-anchor="middle" x="181" y="-100.5" font-family="Helvetica,sans-Serif" font-size="10.00">SafeHandle</text>
</a>
</g>
</g>
<!-- Node2&#45;&gt;Node1 -->
<g id="edge2" class="edge"><title>Node2&#45;&gt;Node1</title>
<path fill="none" stroke="midnightblue" d="M224.375,-103C232.461,-103 241.119,-103 249.791,-103"/>
<polygon fill="midnightblue" stroke="midnightblue" points="224.12,-99.5001 214.12,-103 224.12,-106.5 224.12,-99.5001"/>
</g>
<!-- Node3 -->
<g id="node4" class="node"><title>Node3</title>
<g id="a_node4"><a xlink:href="class_system_1_1_runtime_1_1_constrained_execution_1_1_critical_finalizer_object.html" target="_top" xlink:title="Ensures that all finalization code in derived classes is marked as critical.">
<polygon fill="none" stroke="black" points="0,-112.5 0,-131.5 112,-131.5 112,-112.5 0,-112.5"/>
<text text-anchor="middle" x="56" y="-119.5" font-family="Helvetica,sans-Serif" font-size="10.00">CriticalFinalizerObject</text>
</a>
</g>
</g>
<!-- Node3&#45;&gt;Node2 -->
<g id="edge3" class="edge"><title>Node3&#45;&gt;Node2</title>
<path fill="none" stroke="midnightblue" d="M122.136,-111.938C131.089,-110.555 139.94,-109.188 147.924,-107.955"/>
<polygon fill="midnightblue" stroke="midnightblue" points="121.373,-108.515 112.024,-113.5 122.441,-115.433 121.373,-108.515"/>
</g>
<!-- Node4 -->
<g id="node5" class="node"><title>Node4</title>
<g id="a_node5"><a xlink:href="interface_system_1_1_i_disposable.html" target="_top" xlink:title="Provides a mechanism for releasing unmanaged resources.To browse the .NET Framework source code for t...">
<polygon fill="none" stroke="black" points="22.5,-74.5 22.5,-93.5 89.5,-93.5 89.5,-74.5 22.5,-74.5"/>
<text text-anchor="middle" x="56" y="-81.5" font-family="Helvetica,sans-Serif" font-size="10.00">IDisposable</text>
</a>
</g>
</g>
<!-- Node4&#45;&gt;Node2 -->
<g id="edge4" class="edge"><title>Node4&#45;&gt;Node2</title>
<path fill="none" stroke="midnightblue" d="M99.6677,-90.591C115.403,-93.0216 132.959,-95.7335 147.635,-98.0006"/>
<polygon fill="midnightblue" stroke="midnightblue" points="100.056,-87.1095 89.6388,-89.0418 98.9873,-94.0274 100.056,-87.1095"/>
</g>
</g>
</svg>
