<?xml version="1.0" encoding="UTF-8" standalone="no"?>
<!DOCTYPE svg PUBLIC "-//W3C//DTD SVG 1.1//EN"
 "http://www.w3.org/Graphics/SVG/1.1/DTD/svg11.dtd">
<!-- Generated by graphviz version 2.38.0 (20140413.2041)
 -->
<!-- Title: System.ComponentModel.RefreshPropertiesAttribute Pages: 1 -->
<svg width="225pt" height="98pt"
 viewBox="0.00 0.00 225.00 98.00" xmlns="http://www.w3.org/2000/svg" xmlns:xlink="http://www.w3.org/1999/xlink">
<g id="graph0" class="graph" transform="scale(1 1) rotate(0) translate(4 94)">
<title>System.ComponentModel.RefreshPropertiesAttribute</title>
<!-- Node3 -->
<g id="node1" class="node"><title>Node3</title>
<g id="a_node1"><a xlink:title="Indicates that the property grid should refresh when the associated property value changes....">
<polygon fill="#bfbfbf" stroke="black" points="0,-1.5 0,-31.5 165,-31.5 165,-1.5 0,-1.5"/>
<text text-anchor="start" x="8" y="-19.5" font-family="Helvetica,sans-Serif" font-size="10.00">System.ComponentModel.Refresh</text>
<text text-anchor="middle" x="82.5" y="-8.5" font-family="Helvetica,sans-Serif" font-size="10.00">PropertiesAttribute</text>
</a>
</g>
</g>
<!-- Node3&#45;&gt;Node3 -->
<g id="edge2" class="edge"><title>Node3&#45;&gt;Node3</title>
<path fill="none" stroke="#9a32cd" stroke-dasharray="5,2" d="M175.229,-20.6963C180.11,-19.6643 183,-18.2655 183,-16.5 183,-13.7441 175.957,-11.8818 165.296,-10.9129"/>
<polygon fill="#9a32cd" stroke="#9a32cd" points="174.715,-17.2342 165.296,-22.0871 175.685,-24.1666 174.715,-17.2342"/>
<text text-anchor="middle" x="200" y="-25" font-family="Helvetica,sans-Serif" font-size="10.00"> Default</text>
<text text-anchor="middle" x="200" y="-14" font-family="Helvetica,sans-Serif" font-size="10.00">All</text>
<text text-anchor="middle" x="200" y="-3" font-family="Helvetica,sans-Serif" font-size="10.00">Repaint</text>
</g>
<!-- Node4 -->
<g id="node2" class="node"><title>Node4</title>
<g id="a_node2"><a xlink:href="class_system_1_1_attribute.html" target="_top" xlink:title="Represents the base class for custom attributes.">
<polygon fill="none" stroke="red" points="56,-70.5 56,-89.5 109,-89.5 109,-70.5 56,-70.5"/>
<text text-anchor="middle" x="82.5" y="-77.5" font-family="Helvetica,sans-Serif" font-size="10.00">Attribute</text>
</a>
</g>
</g>
<!-- Node4&#45;&gt;Node3 -->
<g id="edge1" class="edge"><title>Node4&#45;&gt;Node3</title>
<path fill="none" stroke="midnightblue" d="M82.5,-60.3344C82.5,-51.1126 82.5,-40.1664 82.5,-31.6479"/>
<polygon fill="midnightblue" stroke="midnightblue" points="79.0001,-60.4487 82.5,-70.4487 86.0001,-60.4487 79.0001,-60.4487"/>
</g>
</g>
</svg>
