<?xml version="1.0" encoding="UTF-8" standalone="no"?>
<!DOCTYPE svg PUBLIC "-//W3C//DTD SVG 1.1//EN"
 "http://www.w3.org/Graphics/SVG/1.1/DTD/svg11.dtd">
<!-- Generated by graphviz version 2.38.0 (20140413.2041)
 -->
<!-- Title: System.Diagnostics.Tracing.PropertyAccessor&lt; ContainerType &gt; Pages: 1 -->
<svg width="368pt" height="170pt"
 viewBox="0.00 0.00 368.00 170.00" xmlns="http://www.w3.org/2000/svg" xmlns:xlink="http://www.w3.org/1999/xlink">
<g id="graph0" class="graph" transform="scale(1 1) rotate(0) translate(4 166)">
<title>System.Diagnostics.Tracing.PropertyAccessor&lt; ContainerType &gt;</title>
<!-- Node0 -->
<g id="node1" class="node"><title>Node0</title>
<g id="a_node1"><a xlink:title=" ">
<polygon fill="#bfbfbf" stroke="black" points="0,-66 0,-96 175,-96 175,-66 0,-66"/>
<text text-anchor="start" x="8" y="-84" font-family="Helvetica,sans-Serif" font-size="10.00">System.Diagnostics.Tracing.</text>
<text text-anchor="middle" x="87.5" y="-73" font-family="Helvetica,sans-Serif" font-size="10.00">PropertyAccessor&lt; ContainerType &gt;</text>
</a>
</g>
</g>
<!-- Node1 -->
<g id="node2" class="node"><title>Node1</title>
<g id="a_node2"><a xlink:href="class_system_1_1_diagnostics_1_1_tracing_1_1_class_property_writer.html" target="_top" xlink:title=" ">
<polygon fill="none" stroke="black" points="211.5,-120.5 211.5,-161.5 359.5,-161.5 359.5,-120.5 211.5,-120.5"/>
<text text-anchor="start" x="219.5" y="-149.5" font-family="Helvetica,sans-Serif" font-size="10.00">System::Diagnostics</text>
<text text-anchor="start" x="219.5" y="-138.5" font-family="Helvetica,sans-Serif" font-size="10.00">::Tracing::ClassPropertyWriter</text>
<text text-anchor="middle" x="285.5" y="-127.5" font-family="Helvetica,sans-Serif" font-size="10.00">&lt; ContainerType &gt;</text>
</a>
</g>
</g>
<!-- Node0&#45;&gt;Node1 -->
<g id="edge1" class="edge"><title>Node0&#45;&gt;Node1</title>
<path fill="none" stroke="midnightblue" d="M147.293,-98.9978C169.401,-105.766 194.696,-113.509 217.496,-120.489"/>
<polygon fill="midnightblue" stroke="midnightblue" points="148.293,-95.6436 137.706,-96.0631 146.244,-102.337 148.293,-95.6436"/>
</g>
<!-- Node2 -->
<g id="node3" class="node"><title>Node2</title>
<g id="a_node3"><a xlink:href="class_system_1_1_diagnostics_1_1_tracing_1_1_non_generic_properyt_writer.html" target="_top" xlink:title=" ">
<polygon fill="none" stroke="black" points="211.5,-60.5 211.5,-101.5 359.5,-101.5 359.5,-60.5 211.5,-60.5"/>
<text text-anchor="start" x="219.5" y="-89.5" font-family="Helvetica,sans-Serif" font-size="10.00">System::Diagnostics</text>
<text text-anchor="start" x="219.5" y="-78.5" font-family="Helvetica,sans-Serif" font-size="10.00">::Tracing::NonGenericProperyt</text>
<text text-anchor="middle" x="285.5" y="-67.5" font-family="Helvetica,sans-Serif" font-size="10.00">Writer&lt; ContainerType &gt;</text>
</a>
</g>
</g>
<!-- Node0&#45;&gt;Node2 -->
<g id="edge2" class="edge"><title>Node0&#45;&gt;Node2</title>
<path fill="none" stroke="midnightblue" d="M185.289,-81C194.039,-81 202.802,-81 211.299,-81"/>
<polygon fill="midnightblue" stroke="midnightblue" points="185.039,-77.5001 175.039,-81 185.039,-84.5001 185.039,-77.5001"/>
</g>
<!-- Node3 -->
<g id="node4" class="node"><title>Node3</title>
<g id="a_node4"><a xlink:href="class_system_1_1_diagnostics_1_1_tracing_1_1_struct_property_writer.html" target="_top" xlink:title=" ">
<polygon fill="none" stroke="black" points="211,-0.5 211,-41.5 360,-41.5 360,-0.5 211,-0.5"/>
<text text-anchor="start" x="219" y="-29.5" font-family="Helvetica,sans-Serif" font-size="10.00">System::Diagnostics</text>
<text text-anchor="start" x="219" y="-18.5" font-family="Helvetica,sans-Serif" font-size="10.00">::Tracing::StructPropertyWriter</text>
<text text-anchor="middle" x="285.5" y="-7.5" font-family="Helvetica,sans-Serif" font-size="10.00">&lt; ContainerType &gt;</text>
</a>
</g>
</g>
<!-- Node0&#45;&gt;Node3 -->
<g id="edge3" class="edge"><title>Node0&#45;&gt;Node3</title>
<path fill="none" stroke="midnightblue" d="M147.293,-63.0022C169.401,-56.2345 194.696,-48.491 217.496,-41.5114"/>
<polygon fill="midnightblue" stroke="midnightblue" points="146.244,-59.663 137.706,-65.9369 148.293,-66.3564 146.244,-59.663"/>
</g>
</g>
</svg>
