<?xml version="1.0" encoding="UTF-8" standalone="no"?>
<!DOCTYPE svg PUBLIC "-//W3C//DTD SVG 1.1//EN"
 "http://www.w3.org/Graphics/SVG/1.1/DTD/svg11.dtd">
<!-- Generated by graphviz version 2.38.0 (20140413.2041)
 -->
<!-- Title: System.Threading.CdsSyncEtwBCLProvider Pages: 1 -->
<svg width="183pt" height="153pt"
 viewBox="0.00 0.00 183.00 153.00" xmlns="http://www.w3.org/2000/svg" xmlns:xlink="http://www.w3.org/1999/xlink">
<g id="graph0" class="graph" transform="scale(1 1) rotate(0) translate(4 149)">
<title>System.Threading.CdsSyncEtwBCLProvider</title>
<!-- Node3 -->
<g id="node1" class="node"><title>Node3</title>
<g id="a_node1"><a xlink:title=" ">
<polygon fill="#bfbfbf" stroke="black" points="0,-0.5 0,-30.5 138,-30.5 138,-0.5 0,-0.5"/>
<text text-anchor="start" x="8" y="-18.5" font-family="Helvetica,sans-Serif" font-size="10.00">System.Threading.CdsSync</text>
<text text-anchor="middle" x="69" y="-7.5" font-family="Helvetica,sans-Serif" font-size="10.00">EtwBCLProvider</text>
</a>
</g>
</g>
<!-- Node3&#45;&gt;Node3 -->
<g id="edge3" class="edge"><title>Node3&#45;&gt;Node3</title>
<path fill="none" stroke="#9a32cd" stroke-dasharray="5,2" d="M148.522,-19.8719C153.2,-18.825 156,-17.3677 156,-15.5 156,-12.5117 148.831,-10.574 138.275,-9.68686"/>
<polygon fill="#9a32cd" stroke="#9a32cd" points="147.69,-16.4545 138.275,-21.3131 148.665,-23.3862 147.69,-16.4545"/>
<text text-anchor="middle" x="165.5" y="-13" font-family="Helvetica,sans-Serif" font-size="10.00"> Log</text>
</g>
<!-- Node4 -->
<g id="node2" class="node"><title>Node4</title>
<g id="a_node2"><a xlink:href="class_system_1_1_diagnostics_1_1_tracing_1_1_event_source.html" target="_top" xlink:title="Provides the ability to create events for event tracing for Windows (ETW).">
<polygon fill="none" stroke="black" points="33.5,-68.5 33.5,-87.5 104.5,-87.5 104.5,-68.5 33.5,-68.5"/>
<text text-anchor="middle" x="69" y="-75.5" font-family="Helvetica,sans-Serif" font-size="10.00">EventSource</text>
</a>
</g>
</g>
<!-- Node4&#45;&gt;Node3 -->
<g id="edge1" class="edge"><title>Node4&#45;&gt;Node3</title>
<path fill="none" stroke="midnightblue" d="M69,-58.2154C69,-49.3565 69,-38.9577 69,-30.7587"/>
<polygon fill="midnightblue" stroke="midnightblue" points="65.5001,-58.3318 69,-68.3318 72.5001,-58.3319 65.5001,-58.3318"/>
</g>
<!-- Node5 -->
<g id="node3" class="node"><title>Node5</title>
<g id="a_node3"><a xlink:href="interface_system_1_1_i_disposable.html" target="_top" xlink:title="Provides a mechanism for releasing unmanaged resources.To browse the .NET Framework source code for t...">
<polygon fill="none" stroke="black" points="35.5,-125.5 35.5,-144.5 102.5,-144.5 102.5,-125.5 35.5,-125.5"/>
<text text-anchor="middle" x="69" y="-132.5" font-family="Helvetica,sans-Serif" font-size="10.00">IDisposable</text>
</a>
</g>
</g>
<!-- Node5&#45;&gt;Node4 -->
<g id="edge2" class="edge"><title>Node5&#45;&gt;Node4</title>
<path fill="none" stroke="midnightblue" d="M69,-115.117C69,-105.817 69,-95.0557 69,-87.7149"/>
<polygon fill="midnightblue" stroke="midnightblue" points="65.5001,-115.406 69,-125.406 72.5001,-115.406 65.5001,-115.406"/>
</g>
</g>
</svg>
