<?xml version="1.0" encoding="UTF-8" standalone="no"?>
<!DOCTYPE svg PUBLIC "-//W3C//DTD SVG 1.1//EN"
 "http://www.w3.org/Graphics/SVG/1.1/DTD/svg11.dtd">
<!-- Generated by graphviz version 2.38.0 (20140413.2041)
 -->
<!-- Title: System.Security.Policy.EvidenceBase Pages: 1 -->
<!--zoomable 465 -->
<svg id="main" version="1.1" xmlns="http://www.w3.org/2000/svg" xmlns:xlink="http://www.w3.org/1999/xlink" xml:space="preserve" onload="init(evt)">
<style type="text/css"><![CDATA[
.edge:hover path { stroke: red; }
.edge:hover polygon { stroke: red; fill: red; }
]]></style>
<script type="text/javascript"><![CDATA[
var edges = document.getElementsByTagName('g');
if (edges && edges.length) {
  for (var i=0;i<edges.length;i++) {
    if (edges[i].id.substr(0,4)=='edge') {
      edges[i].setAttribute('class','edge');
    }
  }
}
]]></script>
        <defs>
                <circle id="rim" cx="0" cy="0" r="7"/>
                <circle id="rim2" cx="0" cy="0" r="3.5"/>
                <g id="zoomPlus">
                        <use xlink:href="#rim" fill="#404040">
                                <set attributeName="fill" to="#808080" begin="zoomplus.mouseover" end="zoomplus.mouseout"/>
                        </use>
                        <path d="M-4,0h8M0,-4v8" fill="none" stroke="white" stroke-width="1.5" pointer-events="none"/>
                </g>
                <g id="zoomMin">
                        <use xlink:href="#rim" fill="#404040">
                                <set attributeName="fill" to="#808080" begin="zoomminus.mouseover" end="zoomminus.mouseout"/>
                        </use>
                        <path d="M-4,0h8" fill="none" stroke="white" stroke-width="1.5" pointer-events="none"/>
                </g>
                <g id="dirArrow">
                        <path fill="none" stroke="white" stroke-width="1.5" d="M0,-3.0v7 M-2.5,-0.5L0,-3.0L2.5,-0.5"/>
                </g>
               <g id="resetDef">
                       <use xlink:href="#rim2" fill="#404040">
                               <set attributeName="fill" to="#808080" begin="reset.mouseover" end="reset.mouseout"/>
                       </use>
               </g>
        </defs>

<script type="text/javascript">
var viewWidth = 404;
var viewHeight = 465;
var sectionId = 'dynsection-0';
</script>
<script xlink:href="svgpan.js"/>
<svg id="graph" class="graph">
<g id="viewport">
<title>System.Security.Policy.EvidenceBase</title>
<!-- Node0 -->
<g id="node1" class="node"><title>Node0</title>
<g id="a_node1"><a xlink:title="Provides a base class from which all objects to be used as evidence must derive.">
<polygon fill="#bfbfbf" stroke="black" points="0,-196.5 0,-215.5 184,-215.5 184,-196.5 0,-196.5"/>
<text text-anchor="middle" x="92" y="-203.5" font-family="Helvetica,sans-Serif" font-size="10.00">System.Security.Policy.EvidenceBase</text>
</a>
</g>
</g>
<!-- Node1 -->
<g id="node2" class="node"><title>Node1</title>
<g id="a_node2"><a xlink:href="class_system_1_1_runtime_1_1_hosting_1_1_activation_arguments.html" target="_top" xlink:title="Provides data for manifest&#45;based activation of an application. This class cannot be inherited.">
<polygon fill="none" stroke="black" points="223,-426 223,-456 393,-456 393,-426 223,-426"/>
<text text-anchor="start" x="231" y="-444" font-family="Helvetica,sans-Serif" font-size="10.00">System.Runtime.Hosting.Activation</text>
<text text-anchor="middle" x="308" y="-433" font-family="Helvetica,sans-Serif" font-size="10.00">Arguments</text>
</a>
</g>
</g>
<!-- Node0&#45;&gt;Node1 -->
<g id="edge1" class="edge"><title>Node0&#45;&gt;Node1</title>
<path fill="none" stroke="midnightblue" d="M99.0668,-225.261C113.192,-266.894 152.32,-365.648 220,-417 224.494,-420.409 229.444,-423.335 234.633,-425.844"/>
<polygon fill="midnightblue" stroke="midnightblue" points="102.391,-224.164 95.9443,-215.756 95.7403,-226.349 102.391,-224.164"/>
</g>
<!-- Node2 -->
<g id="node3" class="node"><title>Node2</title>
<g id="a_node3"><a xlink:href="class_system_1_1_security_1_1_policy_1_1_application_directory.html" target="_top" xlink:title="Provides the application directory as evidence for policy evaluation. This class cannot be inherited.">
<polygon fill="none" stroke="black" points="223,-377 223,-407 393,-407 393,-377 223,-377"/>
<text text-anchor="start" x="231" y="-395" font-family="Helvetica,sans-Serif" font-size="10.00">System.Security.Policy.Application</text>
<text text-anchor="middle" x="308" y="-384" font-family="Helvetica,sans-Serif" font-size="10.00">Directory</text>
</a>
</g>
</g>
<!-- Node0&#45;&gt;Node2 -->
<g id="edge2" class="edge"><title>Node0&#45;&gt;Node2</title>
<path fill="none" stroke="midnightblue" d="M102.613,-225.078C120.763,-259.122 163.393,-330.299 220,-368 225.216,-371.474 230.927,-374.448 236.849,-376.994"/>
<polygon fill="midnightblue" stroke="midnightblue" points="105.497,-223.039 97.7776,-215.782 99.2874,-226.269 105.497,-223.039"/>
</g>
<!-- Node3 -->
<g id="node4" class="node"><title>Node3</title>
<g id="a_node4"><a xlink:href="class_system_1_1_security_1_1_policy_1_1_application_trust.html" target="_top" xlink:title="Encapsulates security decisions about an application. This class cannot be inherited.">
<polygon fill="none" stroke="black" points="223,-328 223,-358 393,-358 393,-328 223,-328"/>
<text text-anchor="start" x="231" y="-346" font-family="Helvetica,sans-Serif" font-size="10.00">System.Security.Policy.Application</text>
<text text-anchor="middle" x="308" y="-335" font-family="Helvetica,sans-Serif" font-size="10.00">Trust</text>
</a>
</g>
</g>
<!-- Node0&#45;&gt;Node3 -->
<g id="edge3" class="edge"><title>Node0&#45;&gt;Node3</title>
<path fill="none" stroke="midnightblue" d="M107.709,-223.383C129.657,-248.222 173.414,-293.662 220,-319 226.332,-322.444 233.197,-325.425 240.199,-327.998"/>
<polygon fill="midnightblue" stroke="midnightblue" points="110.329,-221.062 101.129,-215.807 105.044,-225.652 110.329,-221.062"/>
</g>
<!-- Node4 -->
<g id="node5" class="node"><title>Node4</title>
<g id="a_node5"><a xlink:href="class_system_1_1_security_1_1_policy_1_1_gac_installed.html" target="_top" xlink:title="Confirms that a code assembly originates in the global assembly cache (GAC) as evidence for policy ev...">
<polygon fill="none" stroke="black" points="238,-279 238,-309 378,-309 378,-279 238,-279"/>
<text text-anchor="start" x="246" y="-297" font-family="Helvetica,sans-Serif" font-size="10.00">System.Security.Policy.Gac</text>
<text text-anchor="middle" x="308" y="-286" font-family="Helvetica,sans-Serif" font-size="10.00">Installed</text>
</a>
</g>
</g>
<!-- Node0&#45;&gt;Node4 -->
<g id="edge4" class="edge"><title>Node0&#45;&gt;Node4</title>
<path fill="none" stroke="midnightblue" d="M118.725,-220.487C143.949,-234.274 183.784,-254.947 220,-269 229.23,-272.582 239.186,-275.915 248.952,-278.904"/>
<polygon fill="midnightblue" stroke="midnightblue" points="120.257,-217.335 109.811,-215.568 116.875,-223.464 120.257,-217.335"/>
</g>
<!-- Node5 -->
<g id="node6" class="node"><title>Node5</title>
<g id="a_node6"><a xlink:href="class_system_1_1_security_1_1_policy_1_1_hash.html" target="_top" xlink:title="Provides evidence about the hash value for an assembly. This class cannot be inherited.">
<polygon fill="none" stroke="black" points="235.5,-240.5 235.5,-259.5 380.5,-259.5 380.5,-240.5 235.5,-240.5"/>
<text text-anchor="middle" x="308" y="-247.5" font-family="Helvetica,sans-Serif" font-size="10.00">System.Security.Policy.Hash</text>
</a>
</g>
</g>
<!-- Node0&#45;&gt;Node5 -->
<g id="edge5" class="edge"><title>Node0&#45;&gt;Node5</title>
<path fill="none" stroke="midnightblue" d="M149.418,-217.6C184.106,-224.732 228.007,-233.758 260.656,-240.471"/>
<polygon fill="midnightblue" stroke="midnightblue" points="149.935,-214.133 139.435,-215.547 148.525,-220.99 149.935,-214.133"/>
</g>
<!-- Node6 -->
<g id="node7" class="node"><title>Node6</title>
<g id="a_node7"><a xlink:href="class_system_1_1_security_1_1_policy_1_1_permission_request_evidence.html" target="_top" xlink:title="Defines evidence that represents permission requests. This class cannot be inherited.">
<polygon fill="none" stroke="black" points="222.5,-191 222.5,-221 393.5,-221 393.5,-191 222.5,-191"/>
<text text-anchor="start" x="230.5" y="-209" font-family="Helvetica,sans-Serif" font-size="10.00">System.Security.Policy.Permission</text>
<text text-anchor="middle" x="308" y="-198" font-family="Helvetica,sans-Serif" font-size="10.00">RequestEvidence</text>
</a>
</g>
</g>
<!-- Node0&#45;&gt;Node6 -->
<g id="edge6" class="edge"><title>Node0&#45;&gt;Node6</title>
<path fill="none" stroke="midnightblue" d="M194.27,-206C203.709,-206 213.207,-206 222.47,-206"/>
<polygon fill="midnightblue" stroke="midnightblue" points="194.066,-202.5 184.066,-206 194.066,-209.5 194.066,-202.5"/>
</g>
<!-- Node7 -->
<g id="node8" class="node"><title>Node7</title>
<g id="a_node8"><a xlink:href="class_system_1_1_security_1_1_policy_1_1_publisher.html" target="_top" xlink:title="Provides the Authenticode X.509v3 digital signature of a code assembly as evidence for policy evaluat...">
<polygon fill="none" stroke="black" points="226.5,-152.5 226.5,-171.5 389.5,-171.5 389.5,-152.5 226.5,-152.5"/>
<text text-anchor="middle" x="308" y="-159.5" font-family="Helvetica,sans-Serif" font-size="10.00">System.Security.Policy.Publisher</text>
</a>
</g>
</g>
<!-- Node0&#45;&gt;Node7 -->
<g id="edge7" class="edge"><title>Node0&#45;&gt;Node7</title>
<path fill="none" stroke="midnightblue" d="M149.418,-194.4C184.106,-187.268 228.007,-178.242 260.656,-171.529"/>
<polygon fill="midnightblue" stroke="midnightblue" points="148.525,-191.01 139.435,-196.453 149.935,-197.867 148.525,-191.01"/>
</g>
<!-- Node8 -->
<g id="node9" class="node"><title>Node8</title>
<g id="a_node9"><a xlink:href="class_system_1_1_security_1_1_policy_1_1_site.html" target="_top" xlink:title="Provides the Web site from which a code assembly originates as evidence for policy evaluation....">
<polygon fill="none" stroke="black" points="238,-114.5 238,-133.5 378,-133.5 378,-114.5 238,-114.5"/>
<text text-anchor="middle" x="308" y="-121.5" font-family="Helvetica,sans-Serif" font-size="10.00">System.Security.Policy.Site</text>
</a>
</g>
</g>
<!-- Node0&#45;&gt;Node8 -->
<g id="edge8" class="edge"><title>Node0&#45;&gt;Node8</title>
<path fill="none" stroke="midnightblue" d="M118.111,-191.231C143.168,-177.056 183.142,-155.945 220,-143 230.648,-139.26 242.298,-136.108 253.512,-133.513"/>
<polygon fill="midnightblue" stroke="midnightblue" points="116.213,-188.284 109.275,-196.292 119.692,-194.358 116.213,-188.284"/>
</g>
<!-- Node9 -->
<g id="node10" class="node"><title>Node9</title>
<g id="a_node10"><a xlink:href="class_system_1_1_security_1_1_policy_1_1_strong_name.html" target="_top" xlink:title="Provides the strong name of a code assembly as evidence for policy evaluation. This class cannot be i...">
<polygon fill="none" stroke="black" points="220,-76.5 220,-95.5 396,-95.5 396,-76.5 220,-76.5"/>
<text text-anchor="middle" x="308" y="-83.5" font-family="Helvetica,sans-Serif" font-size="10.00">System.Security.Policy.StrongName</text>
</a>
</g>
</g>
<!-- Node0&#45;&gt;Node9 -->
<g id="edge9" class="edge"><title>Node0&#45;&gt;Node9</title>
<path fill="none" stroke="midnightblue" d="M108.906,-189.238C131.433,-166.539 174.93,-126.407 220,-105 228.1,-101.153 236.995,-98.0736 245.909,-95.6118"/>
<polygon fill="midnightblue" stroke="midnightblue" points="106.319,-186.878 101.844,-196.481 111.331,-191.765 106.319,-186.878"/>
</g>
<!-- Node10 -->
<g id="node11" class="node"><title>Node10</title>
<g id="a_node11"><a xlink:href="class_system_1_1_security_1_1_policy_1_1_url.html" target="_top" xlink:title="Provides the URL from which a code assembly originates as evidence for policy evaluation....">
<polygon fill="none" stroke="black" points="241,-38.5 241,-57.5 375,-57.5 375,-38.5 241,-38.5"/>
<text text-anchor="middle" x="308" y="-45.5" font-family="Helvetica,sans-Serif" font-size="10.00">System.Security.Policy.Url</text>
</a>
</g>
</g>
<!-- Node0&#45;&gt;Node10 -->
<g id="edge10" class="edge"><title>Node0&#45;&gt;Node10</title>
<path fill="none" stroke="midnightblue" d="M104.23,-187.697C123.784,-157.481 167.098,-97.483 220,-67 226.698,-63.1407 234.098,-60.0641 241.671,-57.6117"/>
<polygon fill="midnightblue" stroke="midnightblue" points="101.122,-186.063 98.7336,-196.385 107.037,-189.805 101.122,-186.063"/>
</g>
<!-- Node11 -->
<g id="node12" class="node"><title>Node11</title>
<g id="a_node12"><a xlink:href="class_system_1_1_security_1_1_policy_1_1_zone.html" target="_top" xlink:title="Provides the security zone of a code assembly as evidence for policy evaluation. This class cannot be...">
<polygon fill="none" stroke="black" points="236.5,-0.5 236.5,-19.5 379.5,-19.5 379.5,-0.5 236.5,-0.5"/>
<text text-anchor="middle" x="308" y="-7.5" font-family="Helvetica,sans-Serif" font-size="10.00">System.Security.Policy.Zone</text>
</a>
</g>
</g>
<!-- Node0&#45;&gt;Node11 -->
<g id="edge11" class="edge"><title>Node0&#45;&gt;Node11</title>
<path fill="none" stroke="midnightblue" d="M100.987,-186.899C117.43,-150.061 158.739,-69.2866 220,-29 225.813,-25.1774 232.27,-22.1116 238.966,-19.6546"/>
<polygon fill="midnightblue" stroke="midnightblue" points="97.6156,-185.876 96.8486,-196.443 104.038,-188.66 97.6156,-185.876"/>
</g>
</g>
</svg>
        <g id="navigator" transform="translate(0 0)" fill="#404254">
                <rect fill="#f2f5e9" fill-opacity="0.5" stroke="#606060" stroke-width=".5" x="0" y="0" width="60" height="60"/>
                <use id="zoomplus" xlink:href="#zoomPlus" x="17" y="9" onmousedown="handleZoom(evt,'in')"/>
                <use id="zoomminus" xlink:href="#zoomMin" x="42" y="9" onmousedown="handleZoom(evt,'out')"/>
                <use id="reset" xlink:href="#resetDef" x="30" y="36" onmousedown="handleReset()"/>
                <g id="arrowUp" xlink:href="#dirArrow" transform="translate(30 24)" onmousedown="handlePan(0,-1)">
                  <use xlink:href="#rim" fill="#404040">
                        <set attributeName="fill" to="#808080" begin="arrowUp.mouseover" end="arrowUp.mouseout"/>
                  </use>
                  <path fill="none" stroke="white" stroke-width="1.5" d="M0,-3.0v7 M-2.5,-0.5L0,-3.0L2.5,-0.5"/>
                </g>
                <g id="arrowRight" xlink:href="#dirArrow" transform="rotate(90) translate(36 -43)" onmousedown="handlePan(1,0)">
                  <use xlink:href="#rim" fill="#404040">
                        <set attributeName="fill" to="#808080" begin="arrowRight.mouseover" end="arrowRight.mouseout"/>
                  </use>
                  <path fill="none" stroke="white" stroke-width="1.5" d="M0,-3.0v7 M-2.5,-0.5L0,-3.0L2.5,-0.5"/>
                </g>
                <g id="arrowDown" xlink:href="#dirArrow" transform="rotate(180) translate(-30 -48)" onmousedown="handlePan(0,1)">
                  <use xlink:href="#rim" fill="#404040">
                        <set attributeName="fill" to="#808080" begin="arrowDown.mouseover" end="arrowDown.mouseout"/>
                  </use>
                  <path fill="none" stroke="white" stroke-width="1.5" d="M0,-3.0v7 M-2.5,-0.5L0,-3.0L2.5,-0.5"/>
                </g>
                <g id="arrowLeft" xlink:href="#dirArrow" transform="rotate(270) translate(-36 17)" onmousedown="handlePan(-1,0)">
                  <use xlink:href="#rim" fill="#404040">
                        <set attributeName="fill" to="#808080" begin="arrowLeft.mouseover" end="arrowLeft.mouseout"/>
                  </use>
                  <path fill="none" stroke="white" stroke-width="1.5" d="M0,-3.0v7 M-2.5,-0.5L0,-3.0L2.5,-0.5"/>
                </g>
        </g>
        <svg viewBox="0 0 15 15" width="100%" height="30px" preserveAspectRatio="xMaxYMin meet">
         <g id="arrow_out" transform="scale(0.3 0.3)">
          <a xlink:href="class_system_1_1_security_1_1_policy_1_1_evidence_base__inherit__graph_org.svg" target="_base">
           <rect id="button" ry="5" rx="5" y="6" x="6" height="38" width="38"
                fill="#f2f5e9" fill-opacity="0.5" stroke="#606060" stroke-width="1.0"/>
           <path id="arrow"
             d="M 11.500037,31.436501 C 11.940474,20.09759 22.043105,11.32322 32.158766,21.979434 L 37.068811,17.246167 C 37.068811,17.246167 37.088388,32 37.088388,32 L 22.160133,31.978069 C 22.160133,31.978069 26.997745,27.140456 26.997745,27.140456 C 18.528582,18.264221 13.291696,25.230495 11.500037,31.436501 z"
             style="fill:#404040;"/>
          </a>
         </g>
        </svg>
</svg>
