<?xml version="1.0" encoding="UTF-8" standalone="no"?>
<!DOCTYPE svg PUBLIC "-//W3C//DTD SVG 1.1//EN"
 "http://www.w3.org/Graphics/SVG/1.1/DTD/svg11.dtd">
<!-- Generated by graphviz version 2.38.0 (20140413.2041)
 -->
<!-- Title: System.Runtime.Remoting.Messaging.MethodCallMessageWrapper Pages: 1 -->
<svg width="341pt" height="207pt"
 viewBox="0.00 0.00 341.00 207.00" xmlns="http://www.w3.org/2000/svg" xmlns:xlink="http://www.w3.org/1999/xlink">
<g id="graph0" class="graph" transform="scale(1 1) rotate(0) translate(4 203)">
<title>System.Runtime.Remoting.Messaging.MethodCallMessageWrapper</title>
<!-- Node0 -->
<g id="node1" class="node"><title>Node0</title>
<g id="a_node1"><a xlink:title="Implements the T:System.Runtime.Remoting.Messaging.IMethodCallMessage interface to create a request m...">
<polygon fill="#bfbfbf" stroke="black" points="98.5,-0.5 98.5,-30.5 290.5,-30.5 290.5,-0.5 98.5,-0.5"/>
<text text-anchor="start" x="106.5" y="-18.5" font-family="Helvetica,sans-Serif" font-size="10.00">System.Runtime.Remoting.</text>
<text text-anchor="middle" x="194.5" y="-7.5" font-family="Helvetica,sans-Serif" font-size="10.00">Messaging.MethodCallMessageWrapper</text>
</a>
</g>
</g>
<!-- Node1 -->
<g id="node2" class="node"><title>Node1</title>
<g id="a_node2"><a xlink:href="class_system_1_1_runtime_1_1_remoting_1_1_messaging_1_1_internal_message_wrapper.html" target="_top" xlink:title="Wraps remoting data for passing between message sinks, either for requests from client to server or f...">
<polygon fill="none" stroke="black" points="0,-67.5 0,-86.5 125,-86.5 125,-67.5 0,-67.5"/>
<text text-anchor="middle" x="62.5" y="-74.5" font-family="Helvetica,sans-Serif" font-size="10.00">InternalMessageWrapper</text>
</a>
</g>
</g>
<!-- Node1&#45;&gt;Node0 -->
<g id="edge1" class="edge"><title>Node1&#45;&gt;Node0</title>
<path fill="none" stroke="midnightblue" d="M90.6068,-63.3306C111.964,-53.7037 141.327,-40.468 163.39,-30.523"/>
<polygon fill="midnightblue" stroke="midnightblue" points="89.0907,-60.1748 81.4124,-67.4751 91.9673,-66.5565 89.0907,-60.1748"/>
</g>
<!-- Node2 -->
<g id="node3" class="node"><title>Node2</title>
<g id="a_node3"><a xlink:href="interface_system_1_1_runtime_1_1_remoting_1_1_messaging_1_1_i_method_call_message.html" target="_top" xlink:title="Defines the method call message interface.">
<polygon fill="none" stroke="black" points="182,-67.5 182,-86.5 289,-86.5 289,-67.5 182,-67.5"/>
<text text-anchor="middle" x="235.5" y="-74.5" font-family="Helvetica,sans-Serif" font-size="10.00">IMethodCallMessage</text>
</a>
</g>
</g>
<!-- Node2&#45;&gt;Node0 -->
<g id="edge2" class="edge"><title>Node2&#45;&gt;Node0</title>
<path fill="none" stroke="midnightblue" d="M223.76,-58.9634C217.554,-49.9564 210.028,-39.0344 204.163,-30.523"/>
<polygon fill="midnightblue" stroke="midnightblue" points="221.07,-61.2267 229.626,-67.4751 226.834,-57.2548 221.07,-61.2267"/>
</g>
<!-- Node3 -->
<g id="node4" class="node"><title>Node3</title>
<g id="a_node4"><a xlink:href="interface_system_1_1_runtime_1_1_remoting_1_1_messaging_1_1_i_method_message.html" target="_top" xlink:title="Defines the method message interface.">
<polygon fill="none" stroke="black" points="242,-123.5 242,-142.5 333,-142.5 333,-123.5 242,-123.5"/>
<text text-anchor="middle" x="287.5" y="-130.5" font-family="Helvetica,sans-Serif" font-size="10.00">IMethodMessage</text>
</a>
</g>
</g>
<!-- Node3&#45;&gt;Node0 -->
<g id="edge6" class="edge"><title>Node3&#45;&gt;Node0</title>
<path fill="none" stroke="midnightblue" d="M296.874,-113.879C302.606,-100.059 307.308,-81.0691 298.5,-67 287.689,-49.7324 269.102,-38.2189 250.605,-30.6111"/>
<polygon fill="midnightblue" stroke="midnightblue" points="293.548,-112.729 292.497,-123.272 299.893,-115.686 293.548,-112.729"/>
</g>
<!-- Node3&#45;&gt;Node2 -->
<g id="edge3" class="edge"><title>Node3&#45;&gt;Node2</title>
<path fill="none" stroke="midnightblue" d="M271.821,-115.718C262.655,-106.2 251.447,-94.5608 243.927,-86.7511"/>
<polygon fill="midnightblue" stroke="midnightblue" points="269.456,-118.308 278.913,-123.083 274.498,-113.452 269.456,-118.308"/>
</g>
<!-- Node4 -->
<g id="node5" class="node"><title>Node4</title>
<g id="a_node5"><a xlink:href="interface_system_1_1_runtime_1_1_remoting_1_1_messaging_1_1_i_message.html" target="_top" xlink:title="Contains communication data sent between cooperating message sinks.">
<polygon fill="none" stroke="black" points="184,-179.5 184,-198.5 243,-198.5 243,-179.5 184,-179.5"/>
<text text-anchor="middle" x="213.5" y="-186.5" font-family="Helvetica,sans-Serif" font-size="10.00">IMessage</text>
</a>
</g>
</g>
<!-- Node4&#45;&gt;Node0 -->
<g id="edge7" class="edge"><title>Node4&#45;&gt;Node0</title>
<path fill="none" stroke="midnightblue" d="M203.947,-170.477C193.824,-150.827 178.491,-117.684 172.5,-87 168.594,-66.9913 178.026,-44.6412 185.735,-30.5768"/>
<polygon fill="midnightblue" stroke="midnightblue" points="200.918,-172.236 208.688,-179.438 207.105,-168.962 200.918,-172.236"/>
</g>
<!-- Node4&#45;&gt;Node2 -->
<g id="edge5" class="edge"><title>Node4&#45;&gt;Node2</title>
<path fill="none" stroke="midnightblue" d="M217.23,-169.348C222.049,-145.254 230.238,-104.308 233.782,-86.5914"/>
<polygon fill="midnightblue" stroke="midnightblue" points="213.756,-168.876 215.226,-179.368 220.62,-170.249 213.756,-168.876"/>
</g>
<!-- Node4&#45;&gt;Node3 -->
<g id="edge4" class="edge"><title>Node4&#45;&gt;Node3</title>
<path fill="none" stroke="midnightblue" d="M233.534,-173.38C246.909,-163.62 264.059,-151.106 275.394,-142.834"/>
<polygon fill="midnightblue" stroke="midnightblue" points="231.404,-170.602 225.389,-179.324 235.53,-176.257 231.404,-170.602"/>
</g>
</g>
</svg>
