<?xml version="1.0" encoding="UTF-8" standalone="no"?>
<!DOCTYPE svg PUBLIC "-//W3C//DTD SVG 1.1//EN"
 "http://www.w3.org/Graphics/SVG/1.1/DTD/svg11.dtd">
<!-- Generated by graphviz version 2.38.0 (20140413.2041)
 -->
<!-- Title: System.Security.SafeBSTRHandle Pages: 1 -->
<svg width="341pt" height="334pt"
 viewBox="0.00 0.00 340.50 334.00" xmlns="http://www.w3.org/2000/svg" xmlns:xlink="http://www.w3.org/1999/xlink">
<g id="graph0" class="graph" transform="scale(1 1) rotate(0) translate(4 330)">
<title>System.Security.SafeBSTRHandle</title>
<!-- Node6 -->
<g id="node1" class="node"><title>Node6</title>
<g id="a_node1"><a xlink:title=" ">
<polygon fill="#bfbfbf" stroke="black" points="80.5,-0.5 80.5,-19.5 247.5,-19.5 247.5,-0.5 80.5,-0.5"/>
<text text-anchor="middle" x="164" y="-7.5" font-family="Helvetica,sans-Serif" font-size="10.00">System.Security.SafeBSTRHandle</text>
</a>
</g>
</g>
<!-- Node7 -->
<g id="node2" class="node"><title>Node7</title>
<g id="a_node2"><a xlink:href="class_system_1_1_runtime_1_1_interop_services_1_1_safe_buffer.html" target="_top" xlink:title="Provides a controlled memory buffer that can be used for reading and writing. Attempts to access memo...">
<polygon fill="none" stroke="black" points="133.5,-57.5 133.5,-76.5 194.5,-76.5 194.5,-57.5 133.5,-57.5"/>
<text text-anchor="middle" x="164" y="-64.5" font-family="Helvetica,sans-Serif" font-size="10.00">SafeBuffer</text>
</a>
</g>
</g>
<!-- Node7&#45;&gt;Node6 -->
<g id="edge1" class="edge"><title>Node7&#45;&gt;Node6</title>
<path fill="none" stroke="midnightblue" d="M164,-47.1166C164,-37.8173 164,-27.0557 164,-19.7149"/>
<polygon fill="midnightblue" stroke="midnightblue" points="160.5,-47.4062 164,-57.4063 167.5,-47.4063 160.5,-47.4062"/>
</g>
<!-- Node8 -->
<g id="node3" class="node"><title>Node8</title>
<g id="a_node3"><a xlink:href="class_microsoft_1_1_win32_1_1_safe_handles_1_1_safe_handle_zero_or_minus_one_is_invalid.html" target="_top" xlink:title="Provides a base class for Win32 safe handle implementations in which the value of either 0 or &#45;1 indi...">
<polygon fill="none" stroke="black" points="94,-114.5 94,-144.5 234,-144.5 234,-114.5 94,-114.5"/>
<text text-anchor="start" x="102" y="-132.5" font-family="Helvetica,sans-Serif" font-size="10.00">SafeHandleZeroOrMinusOne</text>
<text text-anchor="middle" x="164" y="-121.5" font-family="Helvetica,sans-Serif" font-size="10.00">IsInvalid</text>
</a>
</g>
</g>
<!-- Node8&#45;&gt;Node7 -->
<g id="edge2" class="edge"><title>Node8&#45;&gt;Node7</title>
<path fill="none" stroke="midnightblue" d="M164,-104.352C164,-94.5132 164,-83.7753 164,-76.5399"/>
<polygon fill="midnightblue" stroke="midnightblue" points="160.5,-104.468 164,-114.468 167.5,-104.468 160.5,-104.468"/>
</g>
<!-- Node9 -->
<g id="node4" class="node"><title>Node9</title>
<g id="a_node4"><a xlink:href="class_system_1_1_runtime_1_1_interop_services_1_1_safe_handle.html" target="_top" xlink:title="Represents a wrapper class for operating system handles. This class must be inherited.">
<polygon fill="none" stroke="black" points="131,-182.5 131,-201.5 197,-201.5 197,-182.5 131,-182.5"/>
<text text-anchor="middle" x="164" y="-189.5" font-family="Helvetica,sans-Serif" font-size="10.00">SafeHandle</text>
</a>
</g>
</g>
<!-- Node9&#45;&gt;Node8 -->
<g id="edge3" class="edge"><title>Node9&#45;&gt;Node8</title>
<path fill="none" stroke="midnightblue" d="M164,-172.215C164,-163.356 164,-152.958 164,-144.759"/>
<polygon fill="midnightblue" stroke="midnightblue" points="160.5,-172.332 164,-182.332 167.5,-172.332 160.5,-172.332"/>
</g>
<!-- Node10 -->
<g id="node5" class="node"><title>Node10</title>
<g id="a_node5"><a xlink:href="class_system_1_1_runtime_1_1_constrained_execution_1_1_critical_finalizer_object.html" target="_top" xlink:title="Ensures that all finalization code in derived classes is marked as critical.">
<polygon fill="none" stroke="black" points="0,-249.5 0,-268.5 112,-268.5 112,-249.5 0,-249.5"/>
<text text-anchor="middle" x="56" y="-256.5" font-family="Helvetica,sans-Serif" font-size="10.00">CriticalFinalizerObject</text>
</a>
</g>
</g>
<!-- Node10&#45;&gt;Node9 -->
<g id="edge4" class="edge"><title>Node10&#45;&gt;Node9</title>
<path fill="none" stroke="midnightblue" d="M79.3575,-243.942C100.746,-231.07 131.721,-212.427 149.665,-201.627"/>
<polygon fill="midnightblue" stroke="midnightblue" points="77.3285,-241.078 70.5654,-249.234 80.9381,-247.076 77.3285,-241.078"/>
</g>
<!-- Node11 -->
<g id="node6" class="node"><title>Node11</title>
<g id="a_node6"><a xlink:href="interface_system_1_1_i_disposable.html" target="_top" xlink:title="Provides a mechanism for releasing unmanaged resources.To browse the .NET Framework source code for t...">
<polygon fill="none" stroke="black" points="130.5,-249.5 130.5,-268.5 197.5,-268.5 197.5,-249.5 130.5,-249.5"/>
<text text-anchor="middle" x="164" y="-256.5" font-family="Helvetica,sans-Serif" font-size="10.00">IDisposable</text>
</a>
</g>
</g>
<!-- Node11&#45;&gt;Node9 -->
<g id="edge5" class="edge"><title>Node11&#45;&gt;Node9</title>
<path fill="none" stroke="midnightblue" d="M164,-239.037C164,-226.67 164,-211.12 164,-201.627"/>
<polygon fill="midnightblue" stroke="midnightblue" points="160.5,-239.234 164,-249.234 167.5,-239.234 160.5,-239.234"/>
</g>
<!-- Node12 -->
<g id="node7" class="node"><title>Node12</title>
<g id="a_node7"><a xlink:href="struct_system_1_1_int_ptr.html" target="_top" xlink:title="A platform&#45;specific type that is used to represent a pointer or a handle.">
<polygon fill="none" stroke="black" points="215.5,-249.5 215.5,-268.5 292.5,-268.5 292.5,-249.5 215.5,-249.5"/>
<text text-anchor="middle" x="254" y="-256.5" font-family="Helvetica,sans-Serif" font-size="10.00">System.IntPtr</text>
</a>
</g>
</g>
<!-- Node12&#45;&gt;Node9 -->
<g id="edge6" class="edge"><title>Node12&#45;&gt;Node9</title>
<path fill="none" stroke="#9a32cd" stroke-dasharray="5,2" d="M233.325,-243.068C215.56,-230.238 190.564,-212.185 175.945,-201.627"/>
<polygon fill="#9a32cd" stroke="#9a32cd" points="231.706,-246.216 241.862,-249.234 235.805,-240.541 231.706,-246.216"/>
<text text-anchor="middle" x="230" y="-223" font-family="Helvetica,sans-Serif" font-size="10.00"> handle</text>
</g>
<!-- Node12&#45;&gt;Node12 -->
<g id="edge8" class="edge"><title>Node12&#45;&gt;Node12</title>
<path fill="none" stroke="#9a32cd" stroke-dasharray="5,2" d="M302.72,-263.263C307.479,-262.403 310.5,-260.982 310.5,-259 310.5,-255.828 302.766,-254.094 292.555,-253.796"/>
<polygon fill="#9a32cd" stroke="#9a32cd" points="302.19,-259.797 292.555,-264.204 302.835,-266.767 302.19,-259.797"/>
<text text-anchor="middle" x="321.5" y="-256.5" font-family="Helvetica,sans-Serif" font-size="10.00"> Zero</text>
</g>
<!-- Node13 -->
<g id="node8" class="node"><title>Node13</title>
<g id="a_node8"><a xlink:href="interface_system_1_1_runtime_1_1_serialization_1_1_i_serializable.html" target="_top" xlink:title="Allows an object to control its own serialization and deserialization.">
<polygon fill="none" stroke="black" points="219.5,-306.5 219.5,-325.5 288.5,-325.5 288.5,-306.5 219.5,-306.5"/>
<text text-anchor="middle" x="254" y="-313.5" font-family="Helvetica,sans-Serif" font-size="10.00">ISerializable</text>
</a>
</g>
</g>
<!-- Node13&#45;&gt;Node12 -->
<g id="edge7" class="edge"><title>Node13&#45;&gt;Node12</title>
<path fill="none" stroke="midnightblue" d="M254,-296.117C254,-286.817 254,-276.056 254,-268.715"/>
<polygon fill="midnightblue" stroke="midnightblue" points="250.5,-296.406 254,-306.406 257.5,-296.406 250.5,-296.406"/>
</g>
</g>
</svg>
