<?xml version="1.0" encoding="UTF-8" standalone="no"?>
<!DOCTYPE svg PUBLIC "-//W3C//DTD SVG 1.1//EN"
 "http://www.w3.org/Graphics/SVG/1.1/DTD/svg11.dtd">
<!-- Generated by graphviz version 2.38.0 (20140413.2041)
 -->
<!-- Title: System.DBNull Pages: 1 -->
<svg width="162pt" height="84pt"
 viewBox="0.00 0.00 161.50 84.00" xmlns="http://www.w3.org/2000/svg" xmlns:xlink="http://www.w3.org/1999/xlink">
<g id="graph0" class="graph" transform="scale(1 1) rotate(0) translate(4 80)">
<title>System.DBNull</title>
<!-- Node0 -->
<g id="node1" class="node"><title>Node0</title>
<g id="a_node1"><a xlink:title="Represents a nonexistent value. This class cannot be inherited.">
<polygon fill="#bfbfbf" stroke="black" points="36,-0.5 36,-19.5 119,-19.5 119,-0.5 36,-0.5"/>
<text text-anchor="middle" x="77.5" y="-7.5" font-family="Helvetica,sans-Serif" font-size="10.00">System.DBNull</text>
</a>
</g>
</g>
<!-- Node1 -->
<g id="node2" class="node"><title>Node1</title>
<g id="a_node2"><a xlink:href="interface_system_1_1_runtime_1_1_serialization_1_1_i_serializable.html" target="_top" xlink:title="Allows an object to control its own serialization and deserialization.">
<polygon fill="none" stroke="black" points="0,-56.5 0,-75.5 69,-75.5 69,-56.5 0,-56.5"/>
<text text-anchor="middle" x="34.5" y="-63.5" font-family="Helvetica,sans-Serif" font-size="10.00">ISerializable</text>
</a>
</g>
</g>
<!-- Node1&#45;&gt;Node0 -->
<g id="edge1" class="edge"><title>Node1&#45;&gt;Node0</title>
<path fill="none" stroke="midnightblue" d="M47.9224,-48.144C55.4142,-38.7357 64.4371,-27.4046 70.5315,-19.7511"/>
<polygon fill="midnightblue" stroke="midnightblue" points="45.0919,-46.0799 41.6006,-56.083 50.5679,-50.4404 45.0919,-46.0799"/>
</g>
<!-- Node2 -->
<g id="node3" class="node"><title>Node2</title>
<g id="a_node3"><a xlink:href="interface_system_1_1_i_convertible.html" target="_top" xlink:title="Defines methods that convert the value of the implementing reference or value type to a common langua...">
<polygon fill="none" stroke="black" points="87.5,-56.5 87.5,-75.5 153.5,-75.5 153.5,-56.5 87.5,-56.5"/>
<text text-anchor="middle" x="120.5" y="-63.5" font-family="Helvetica,sans-Serif" font-size="10.00">IConvertible</text>
</a>
</g>
</g>
<!-- Node2&#45;&gt;Node0 -->
<g id="edge2" class="edge"><title>Node2&#45;&gt;Node0</title>
<path fill="none" stroke="midnightblue" d="M107.078,-48.144C99.5858,-38.7357 90.5629,-27.4046 84.4685,-19.7511"/>
<polygon fill="midnightblue" stroke="midnightblue" points="104.432,-50.4404 113.399,-56.083 109.908,-46.0799 104.432,-50.4404"/>
</g>
</g>
</svg>
