<?xml version="1.0" encoding="UTF-8" standalone="no"?>
<!DOCTYPE svg PUBLIC "-//W3C//DTD SVG 1.1//EN"
 "http://www.w3.org/Graphics/SVG/1.1/DTD/svg11.dtd">
<!-- Generated by graphviz version 2.38.0 (20140413.2041)
 -->
<!-- Title: System.Xml.XmlTextReader Pages: 1 -->
<svg width="299pt" height="84pt"
 viewBox="0.00 0.00 299.00 84.00" xmlns="http://www.w3.org/2000/svg" xmlns:xlink="http://www.w3.org/1999/xlink">
<g id="graph0" class="graph" transform="scale(1 1) rotate(0) translate(4 80)">
<title>System.Xml.XmlTextReader</title>
<!-- Node0 -->
<g id="node1" class="node"><title>Node0</title>
<g id="a_node1"><a xlink:title="Represents a reader that provides fast, non&#45;cached, forward&#45;only access to XML data....">
<polygon fill="#bfbfbf" stroke="black" points="47,-0.5 47,-19.5 184,-19.5 184,-0.5 47,-0.5"/>
<text text-anchor="middle" x="115.5" y="-7.5" font-family="Helvetica,sans-Serif" font-size="10.00">System.Xml.XmlTextReader</text>
</a>
</g>
</g>
<!-- Node1 -->
<g id="node2" class="node"><title>Node1</title>
<g id="a_node2"><a xlink:href="class_system_1_1_xml_1_1_xml_reader.html" target="_top" xlink:title="Represents a reader that provides fast, noncached, forward&#45;only access to XML data....">
<polygon fill="none" stroke="red" points="0,-56.5 0,-75.5 63,-75.5 63,-56.5 0,-56.5"/>
<text text-anchor="middle" x="31.5" y="-63.5" font-family="Helvetica,sans-Serif" font-size="10.00">XmlReader</text>
</a>
</g>
</g>
<!-- Node1&#45;&gt;Node0 -->
<g id="edge1" class="edge"><title>Node1&#45;&gt;Node0</title>
<path fill="none" stroke="midnightblue" d="M53.4325,-50.9005C68.8355,-40.9986 88.9458,-28.0705 102.037,-19.6545"/>
<polygon fill="midnightblue" stroke="midnightblue" points="51.5152,-47.9722 44.9961,-56.324 55.3005,-53.8605 51.5152,-47.9722"/>
</g>
<!-- Node3 -->
<g id="node3" class="node"><title>Node3</title>
<g id="a_node3"><a xlink:href="interface_system_1_1_xml_1_1_i_xml_line_info.html" target="_top" xlink:title="Provides an interface to enable a class to return line and position information.">
<polygon fill="none" stroke="black" points="81.5,-56.5 81.5,-75.5 149.5,-75.5 149.5,-56.5 81.5,-56.5"/>
<text text-anchor="middle" x="115.5" y="-63.5" font-family="Helvetica,sans-Serif" font-size="10.00">IXmlLineInfo</text>
</a>
</g>
</g>
<!-- Node3&#45;&gt;Node0 -->
<g id="edge2" class="edge"><title>Node3&#45;&gt;Node0</title>
<path fill="none" stroke="midnightblue" d="M115.5,-45.8045C115.5,-36.9102 115.5,-26.7798 115.5,-19.7511"/>
<polygon fill="midnightblue" stroke="midnightblue" points="112,-46.083 115.5,-56.083 119,-46.083 112,-46.083"/>
</g>
<!-- Node4 -->
<g id="node4" class="node"><title>Node4</title>
<g id="a_node4"><a xlink:href="interface_system_1_1_xml_1_1_i_xml_namespace_resolver.html" target="_top" xlink:title="Provides read&#45;only access to a set of prefix and namespace mappings.">
<polygon fill="none" stroke="black" points="168,-56.5 168,-75.5 291,-75.5 291,-56.5 168,-56.5"/>
<text text-anchor="middle" x="229.5" y="-63.5" font-family="Helvetica,sans-Serif" font-size="10.00">IXmlNamespaceResolver</text>
</a>
</g>
</g>
<!-- Node4&#45;&gt;Node0 -->
<g id="edge3" class="edge"><title>Node4&#45;&gt;Node0</title>
<path fill="none" stroke="midnightblue" d="M202.258,-52.096C180.96,-42.0073 151.958,-28.2697 133.479,-19.5164"/>
<polygon fill="midnightblue" stroke="midnightblue" points="200.901,-55.3257 211.436,-56.4435 203.897,-48.9995 200.901,-55.3257"/>
</g>
</g>
</svg>
