<?xml version="1.0" encoding="UTF-8" standalone="no"?>
<!DOCTYPE svg PUBLIC "-//W3C//DTD SVG 1.1//EN"
 "http://www.w3.org/Graphics/SVG/1.1/DTD/svg11.dtd">
<!-- Generated by graphviz version 2.38.0 (20140413.2041)
 -->
<!-- Title: System.CodeDom.CodeTypeMember Pages: 1 -->
<!--zoomable 274 -->
<svg id="main" version="1.1" xmlns="http://www.w3.org/2000/svg" xmlns:xlink="http://www.w3.org/1999/xlink" xml:space="preserve" onload="init(evt)">
<style type="text/css"><![CDATA[
.edge:hover path { stroke: red; }
.edge:hover polygon { stroke: red; fill: red; }
]]></style>
<script type="text/javascript"><![CDATA[
var edges = document.getElementsByTagName('g');
if (edges && edges.length) {
  for (var i=0;i<edges.length;i++) {
    if (edges[i].id.substr(0,4)=='edge') {
      edges[i].setAttribute('class','edge');
    }
  }
}
]]></script>
        <defs>
                <circle id="rim" cx="0" cy="0" r="7"/>
                <circle id="rim2" cx="0" cy="0" r="3.5"/>
                <g id="zoomPlus">
                        <use xlink:href="#rim" fill="#404040">
                                <set attributeName="fill" to="#808080" begin="zoomplus.mouseover" end="zoomplus.mouseout"/>
                        </use>
                        <path d="M-4,0h8M0,-4v8" fill="none" stroke="white" stroke-width="1.5" pointer-events="none"/>
                </g>
                <g id="zoomMin">
                        <use xlink:href="#rim" fill="#404040">
                                <set attributeName="fill" to="#808080" begin="zoomminus.mouseover" end="zoomminus.mouseout"/>
                        </use>
                        <path d="M-4,0h8" fill="none" stroke="white" stroke-width="1.5" pointer-events="none"/>
                </g>
                <g id="dirArrow">
                        <path fill="none" stroke="white" stroke-width="1.5" d="M0,-3.0v7 M-2.5,-0.5L0,-3.0L2.5,-0.5"/>
                </g>
               <g id="resetDef">
                       <use xlink:href="#rim2" fill="#404040">
                               <set attributeName="fill" to="#808080" begin="reset.mouseover" end="reset.mouseout"/>
                       </use>
               </g>
        </defs>

<script type="text/javascript">
var viewWidth = 517;
var viewHeight = 274;
var sectionId = 'dynsection-0';
</script>
<script xlink:href="svgpan.js"/>
<svg id="graph" class="graph">
<g id="viewport">
<title>System.CodeDom.CodeTypeMember</title>
<!-- Node0 -->
<g id="node1" class="node"><title>Node0</title>
<g id="a_node1"><a xlink:title="Provides a base class for a member of a type. Type members include fields, methods,...">
<polygon fill="#bfbfbf" stroke="black" points="104,-117.5 104,-136.5 282,-136.5 282,-117.5 104,-117.5"/>
<text text-anchor="middle" x="193" y="-124.5" font-family="Helvetica,sans-Serif" font-size="10.00">System.CodeDom.CodeTypeMember</text>
</a>
</g>
</g>
<!-- Node2 -->
<g id="node3" class="node"><title>Node2</title>
<g id="a_node3"><a xlink:href="class_system_1_1_code_dom_1_1_code_member_event.html" target="_top" xlink:title="Represents a declaration for an event of a type.">
<polygon fill="none" stroke="black" points="335,-235 335,-265 492,-265 492,-235 335,-235"/>
<text text-anchor="start" x="343" y="-253" font-family="Helvetica,sans-Serif" font-size="10.00">System.CodeDom.CodeMember</text>
<text text-anchor="middle" x="413.5" y="-242" font-family="Helvetica,sans-Serif" font-size="10.00">Event</text>
</a>
</g>
</g>
<!-- Node0&#45;&gt;Node2 -->
<g id="edge2" class="edge"><title>Node0&#45;&gt;Node2</title>
<path fill="none" stroke="midnightblue" d="M210.248,-143.846C232.518,-165.961 274.718,-204.489 318,-226 324.821,-229.39 332.164,-232.33 339.635,-234.873"/>
<polygon fill="midnightblue" stroke="midnightblue" points="212.502,-141.148 202.979,-136.503 207.527,-146.072 212.502,-141.148"/>
</g>
<!-- Node3 -->
<g id="node4" class="node"><title>Node3</title>
<g id="a_node4"><a xlink:href="class_system_1_1_code_dom_1_1_code_member_field.html" target="_top" xlink:title="Represents a declaration for a field of a type.">
<polygon fill="none" stroke="black" points="335,-186 335,-216 492,-216 492,-186 335,-186"/>
<text text-anchor="start" x="343" y="-204" font-family="Helvetica,sans-Serif" font-size="10.00">System.CodeDom.CodeMember</text>
<text text-anchor="middle" x="413.5" y="-193" font-family="Helvetica,sans-Serif" font-size="10.00">Field</text>
</a>
</g>
</g>
<!-- Node0&#45;&gt;Node3 -->
<g id="edge3" class="edge"><title>Node0&#45;&gt;Node3</title>
<path fill="none" stroke="midnightblue" d="M224.44,-140.613C249.285,-151.397 285.473,-166.365 318,-177 327.734,-180.183 338.145,-183.201 348.369,-185.956"/>
<polygon fill="midnightblue" stroke="midnightblue" points="225.746,-137.364 215.181,-136.56 222.938,-143.776 225.746,-137.364"/>
</g>
<!-- Node4 -->
<g id="node5" class="node"><title>Node4</title>
<g id="a_node5"><a xlink:href="class_system_1_1_code_dom_1_1_code_member_method.html" target="_top" xlink:title="Represents a declaration for a method of a type.">
<polygon fill="none" stroke="red" points="335,-137 335,-167 492,-167 492,-137 335,-137"/>
<text text-anchor="start" x="343" y="-155" font-family="Helvetica,sans-Serif" font-size="10.00">System.CodeDom.CodeMember</text>
<text text-anchor="middle" x="413.5" y="-144" font-family="Helvetica,sans-Serif" font-size="10.00">Method</text>
</a>
</g>
</g>
<!-- Node0&#45;&gt;Node4 -->
<g id="edge4" class="edge"><title>Node0&#45;&gt;Node4</title>
<path fill="none" stroke="midnightblue" d="M287.529,-137.701C303.322,-139.508 319.563,-141.366 334.894,-143.121"/>
<polygon fill="midnightblue" stroke="midnightblue" points="287.562,-134.182 277.229,-136.523 286.766,-141.137 287.562,-134.182"/>
</g>
<!-- Node8 -->
<g id="node6" class="node"><title>Node8</title>
<g id="a_node6"><a xlink:href="class_system_1_1_code_dom_1_1_code_member_property.html" target="_top" xlink:title="Represents a declaration for a property of a type.">
<polygon fill="none" stroke="black" points="335,-88 335,-118 492,-118 492,-88 335,-88"/>
<text text-anchor="start" x="343" y="-106" font-family="Helvetica,sans-Serif" font-size="10.00">System.CodeDom.CodeMember</text>
<text text-anchor="middle" x="413.5" y="-95" font-family="Helvetica,sans-Serif" font-size="10.00">Property</text>
</a>
</g>
</g>
<!-- Node0&#45;&gt;Node8 -->
<g id="edge5" class="edge"><title>Node0&#45;&gt;Node8</title>
<path fill="none" stroke="midnightblue" d="M290.799,-116.368C305.52,-114.751 320.545,-113.1 334.789,-111.536"/>
<polygon fill="midnightblue" stroke="midnightblue" points="290.229,-112.909 280.671,-117.48 290.993,-119.867 290.229,-112.909"/>
</g>
<!-- Node9 -->
<g id="node7" class="node"><title>Node9</title>
<g id="a_node7"><a xlink:href="class_system_1_1_code_dom_1_1_code_snippet_type_member.html" target="_top" xlink:title="Represents a member of a type using a literal code fragment.">
<polygon fill="none" stroke="black" points="336,-39 336,-69 491,-69 491,-39 336,-39"/>
<text text-anchor="start" x="344" y="-57" font-family="Helvetica,sans-Serif" font-size="10.00">System.CodeDom.CodeSnippet</text>
<text text-anchor="middle" x="413.5" y="-46" font-family="Helvetica,sans-Serif" font-size="10.00">TypeMember</text>
</a>
</g>
</g>
<!-- Node0&#45;&gt;Node9 -->
<g id="edge6" class="edge"><title>Node0&#45;&gt;Node9</title>
<path fill="none" stroke="midnightblue" d="M224.917,-113.507C249.764,-102.976 285.721,-88.4296 318,-78 327.825,-74.8253 338.334,-71.8009 348.642,-69.0354"/>
<polygon fill="midnightblue" stroke="midnightblue" points="223.464,-110.322 215.644,-117.47 226.215,-116.759 223.464,-110.322"/>
</g>
<!-- Node10 -->
<g id="node8" class="node"><title>Node10</title>
<g id="a_node8"><a xlink:href="class_system_1_1_code_dom_1_1_code_type_declaration.html" target="_top" xlink:title="Represents a type declaration for a class, structure, interface, or enumeration.">
<polygon fill="none" stroke="red" points="318,-0.5 318,-19.5 509,-19.5 509,-0.5 318,-0.5"/>
<text text-anchor="middle" x="413.5" y="-7.5" font-family="Helvetica,sans-Serif" font-size="10.00">System.CodeDom.CodeTypeDeclaration</text>
</a>
</g>
</g>
<!-- Node0&#45;&gt;Node10 -->
<g id="edge7" class="edge"><title>Node0&#45;&gt;Node10</title>
<path fill="none" stroke="midnightblue" d="M210.127,-110.007C232.263,-87.7615 274.312,-49.2274 318,-29 326.428,-25.0978 335.643,-21.9945 344.909,-19.5272"/>
<polygon fill="midnightblue" stroke="midnightblue" points="207.389,-107.802 202.907,-117.402 212.397,-112.692 207.389,-107.802"/>
</g>
<!-- Node1 -->
<g id="node2" class="node"><title>Node1</title>
<g id="a_node2"><a xlink:href="class_system_1_1_code_dom_1_1_code_object.html" target="_top" xlink:title="Provides a common base class for most Code Document Object Model (CodeDOM) objects.">
<polygon fill="none" stroke="black" points="0,-117.5 0,-136.5 68,-136.5 68,-117.5 0,-117.5"/>
<text text-anchor="middle" x="34" y="-124.5" font-family="Helvetica,sans-Serif" font-size="10.00">CodeObject</text>
</a>
</g>
</g>
<!-- Node1&#45;&gt;Node0 -->
<g id="edge1" class="edge"><title>Node1&#45;&gt;Node0</title>
<path fill="none" stroke="midnightblue" d="M78.4329,-127C86.4415,-127 95.063,-127 103.848,-127"/>
<polygon fill="midnightblue" stroke="midnightblue" points="78.2957,-123.5 68.2957,-127 78.2956,-130.5 78.2957,-123.5"/>
</g>
</g>
</svg>
        <g id="navigator" transform="translate(0 0)" fill="#404254">
                <rect fill="#f2f5e9" fill-opacity="0.5" stroke="#606060" stroke-width=".5" x="0" y="0" width="60" height="60"/>
                <use id="zoomplus" xlink:href="#zoomPlus" x="17" y="9" onmousedown="handleZoom(evt,'in')"/>
                <use id="zoomminus" xlink:href="#zoomMin" x="42" y="9" onmousedown="handleZoom(evt,'out')"/>
                <use id="reset" xlink:href="#resetDef" x="30" y="36" onmousedown="handleReset()"/>
                <g id="arrowUp" xlink:href="#dirArrow" transform="translate(30 24)" onmousedown="handlePan(0,-1)">
                  <use xlink:href="#rim" fill="#404040">
                        <set attributeName="fill" to="#808080" begin="arrowUp.mouseover" end="arrowUp.mouseout"/>
                  </use>
                  <path fill="none" stroke="white" stroke-width="1.5" d="M0,-3.0v7 M-2.5,-0.5L0,-3.0L2.5,-0.5"/>
                </g>
                <g id="arrowRight" xlink:href="#dirArrow" transform="rotate(90) translate(36 -43)" onmousedown="handlePan(1,0)">
                  <use xlink:href="#rim" fill="#404040">
                        <set attributeName="fill" to="#808080" begin="arrowRight.mouseover" end="arrowRight.mouseout"/>
                  </use>
                  <path fill="none" stroke="white" stroke-width="1.5" d="M0,-3.0v7 M-2.5,-0.5L0,-3.0L2.5,-0.5"/>
                </g>
                <g id="arrowDown" xlink:href="#dirArrow" transform="rotate(180) translate(-30 -48)" onmousedown="handlePan(0,1)">
                  <use xlink:href="#rim" fill="#404040">
                        <set attributeName="fill" to="#808080" begin="arrowDown.mouseover" end="arrowDown.mouseout"/>
                  </use>
                  <path fill="none" stroke="white" stroke-width="1.5" d="M0,-3.0v7 M-2.5,-0.5L0,-3.0L2.5,-0.5"/>
                </g>
                <g id="arrowLeft" xlink:href="#dirArrow" transform="rotate(270) translate(-36 17)" onmousedown="handlePan(-1,0)">
                  <use xlink:href="#rim" fill="#404040">
                        <set attributeName="fill" to="#808080" begin="arrowLeft.mouseover" end="arrowLeft.mouseout"/>
                  </use>
                  <path fill="none" stroke="white" stroke-width="1.5" d="M0,-3.0v7 M-2.5,-0.5L0,-3.0L2.5,-0.5"/>
                </g>
        </g>
        <svg viewBox="0 0 15 15" width="100%" height="30px" preserveAspectRatio="xMaxYMin meet">
         <g id="arrow_out" transform="scale(0.3 0.3)">
          <a xlink:href="class_system_1_1_code_dom_1_1_code_type_member__inherit__graph_org.svg" target="_base">
           <rect id="button" ry="5" rx="5" y="6" x="6" height="38" width="38"
                fill="#f2f5e9" fill-opacity="0.5" stroke="#606060" stroke-width="1.0"/>
           <path id="arrow"
             d="M 11.500037,31.436501 C 11.940474,20.09759 22.043105,11.32322 32.158766,21.979434 L 37.068811,17.246167 C 37.068811,17.246167 37.088388,32 37.088388,32 L 22.160133,31.978069 C 22.160133,31.978069 26.997745,27.140456 26.997745,27.140456 C 18.528582,18.264221 13.291696,25.230495 11.500037,31.436501 z"
             style="fill:#404040;"/>
          </a>
         </g>
        </svg>
</svg>
