<?xml version="1.0" encoding="UTF-8" standalone="no"?>
<!DOCTYPE svg PUBLIC "-//W3C//DTD SVG 1.1//EN"
 "http://www.w3.org/Graphics/SVG/1.1/DTD/svg11.dtd">
<!-- Generated by graphviz version 2.38.0 (20140413.2041)
 -->
<!-- Title: System.Security.Policy.ApplicationTrust Pages: 1 -->
<svg width="206pt" height="95pt"
 viewBox="0.00 0.00 205.50 95.00" xmlns="http://www.w3.org/2000/svg" xmlns:xlink="http://www.w3.org/1999/xlink">
<g id="graph0" class="graph" transform="scale(1 1) rotate(0) translate(4 91)">
<title>System.Security.Policy.ApplicationTrust</title>
<!-- Node0 -->
<g id="node1" class="node"><title>Node0</title>
<g id="a_node1"><a xlink:title="Encapsulates security decisions about an application. This class cannot be inherited.">
<polygon fill="#bfbfbf" stroke="black" points="8,-0.5 8,-30.5 178,-30.5 178,-0.5 8,-0.5"/>
<text text-anchor="start" x="16" y="-18.5" font-family="Helvetica,sans-Serif" font-size="10.00">System.Security.Policy.Application</text>
<text text-anchor="middle" x="93" y="-7.5" font-family="Helvetica,sans-Serif" font-size="10.00">Trust</text>
</a>
</g>
</g>
<!-- Node1 -->
<g id="node2" class="node"><title>Node1</title>
<g id="a_node2"><a xlink:href="class_system_1_1_security_1_1_policy_1_1_evidence_base.html" target="_top" xlink:title="Provides a base class from which all objects to be used as evidence must derive.">
<polygon fill="none" stroke="black" points="0,-67.5 0,-86.5 78,-86.5 78,-67.5 0,-67.5"/>
<text text-anchor="middle" x="39" y="-74.5" font-family="Helvetica,sans-Serif" font-size="10.00">EvidenceBase</text>
</a>
</g>
</g>
<!-- Node1&#45;&gt;Node0 -->
<g id="edge1" class="edge"><title>Node1&#45;&gt;Node0</title>
<path fill="none" stroke="midnightblue" d="M53.6927,-59.8108C62.008,-50.6486 72.3046,-39.3032 80.2733,-30.523"/>
<polygon fill="midnightblue" stroke="midnightblue" points="50.8657,-57.7178 46.7369,-67.4751 56.0492,-62.4222 50.8657,-57.7178"/>
</g>
<!-- Node2 -->
<g id="node3" class="node"><title>Node2</title>
<g id="a_node3"><a xlink:href="interface_system_1_1_security_1_1_i_security_encodable.html" target="_top" xlink:title="Defines the methods that convert permission object state to and from XML element representation.">
<polygon fill="none" stroke="black" points="96.5,-67.5 96.5,-86.5 197.5,-86.5 197.5,-67.5 96.5,-67.5"/>
<text text-anchor="middle" x="147" y="-74.5" font-family="Helvetica,sans-Serif" font-size="10.00">ISecurityEncodable</text>
</a>
</g>
</g>
<!-- Node2&#45;&gt;Node0 -->
<g id="edge2" class="edge"><title>Node2&#45;&gt;Node0</title>
<path fill="none" stroke="midnightblue" d="M132.307,-59.8108C123.992,-50.6486 113.695,-39.3032 105.727,-30.523"/>
<polygon fill="midnightblue" stroke="midnightblue" points="129.951,-62.4222 139.263,-67.4751 135.134,-57.7178 129.951,-62.4222"/>
</g>
</g>
</svg>
