<?xml version="1.0" encoding="UTF-8" standalone="no"?>
<!DOCTYPE svg PUBLIC "-//W3C//DTD SVG 1.1//EN"
 "http://www.w3.org/Graphics/SVG/1.1/DTD/svg11.dtd">
<!-- Generated by graphviz version 2.38.0 (20140413.2041)
 -->
<!-- Title: System.Security.Policy.FileCodeGroup Pages: 1 -->
<svg width="226pt" height="95pt"
 viewBox="0.00 0.00 225.50 95.00" xmlns="http://www.w3.org/2000/svg" xmlns:xlink="http://www.w3.org/1999/xlink">
<g id="graph0" class="graph" transform="scale(1 1) rotate(0) translate(4 91)">
<title>System.Security.Policy.FileCodeGroup</title>
<!-- Node0 -->
<g id="node1" class="node"><title>Node0</title>
<g id="a_node1"><a xlink:title="Grants permission to manipulate files located in the code assemblies to code assemblies that match th...">
<polygon fill="#bfbfbf" stroke="black" points="22.5,-0.5 22.5,-30.5 160.5,-30.5 160.5,-0.5 22.5,-0.5"/>
<text text-anchor="start" x="30.5" y="-18.5" font-family="Helvetica,sans-Serif" font-size="10.00">System.Security.Policy.File</text>
<text text-anchor="middle" x="91.5" y="-7.5" font-family="Helvetica,sans-Serif" font-size="10.00">CodeGroup</text>
</a>
</g>
</g>
<!-- Node1 -->
<g id="node2" class="node"><title>Node1</title>
<g id="a_node2"><a xlink:href="class_system_1_1_security_1_1_policy_1_1_code_group.html" target="_top" xlink:title="Represents the abstract base class from which all implementations of code groups must derive.">
<polygon fill="none" stroke="black" points="0,-67.5 0,-86.5 65,-86.5 65,-67.5 0,-67.5"/>
<text text-anchor="middle" x="32.5" y="-74.5" font-family="Helvetica,sans-Serif" font-size="10.00">CodeGroup</text>
</a>
</g>
</g>
<!-- Node1&#45;&gt;Node0 -->
<g id="edge1" class="edge"><title>Node1&#45;&gt;Node0</title>
<path fill="none" stroke="midnightblue" d="M47.9997,-60.369C57.1781,-51.1127 68.7107,-39.4824 77.5949,-30.523"/>
<polygon fill="midnightblue" stroke="midnightblue" points="45.5092,-57.9098 40.9533,-67.4751 50.4798,-62.8387 45.5092,-57.9098"/>
</g>
<!-- Node2 -->
<g id="node3" class="node"><title>Node2</title>
<g id="a_node3"><a xlink:href="interface_system_1_1_security_1_1_policy_1_1_i_union_semantic_code_group.html" target="_top" xlink:title=" ">
<polygon fill="none" stroke="black" points="83.5,-67.5 83.5,-86.5 217.5,-86.5 217.5,-67.5 83.5,-67.5"/>
<text text-anchor="middle" x="150.5" y="-74.5" font-family="Helvetica,sans-Serif" font-size="10.00">IUnionSemanticCodeGroup</text>
</a>
</g>
</g>
<!-- Node2&#45;&gt;Node0 -->
<g id="edge2" class="edge"><title>Node2&#45;&gt;Node0</title>
<path fill="none" stroke="midnightblue" d="M135,-60.369C125.822,-51.1127 114.289,-39.4824 105.405,-30.523"/>
<polygon fill="midnightblue" stroke="midnightblue" points="132.52,-62.8387 142.047,-67.4751 137.491,-57.9098 132.52,-62.8387"/>
</g>
</g>
</svg>
