<?xml version="1.0" encoding="UTF-8" standalone="no"?>
<!DOCTYPE svg PUBLIC "-//W3C//DTD SVG 1.1//EN"
 "http://www.w3.org/Graphics/SVG/1.1/DTD/svg11.dtd">
<!-- Generated by graphviz version 2.38.0 (20140413.2041)
 -->
<!-- Title: System.ComponentModel.EventDescriptorCollection Pages: 1 -->
<svg width="214pt" height="210pt"
 viewBox="0.00 0.00 214.00 210.00" xmlns="http://www.w3.org/2000/svg" xmlns:xlink="http://www.w3.org/1999/xlink">
<g id="graph0" class="graph" transform="scale(1 1) rotate(0) translate(4 206)">
<title>System.ComponentModel.EventDescriptorCollection</title>
<!-- Node4 -->
<g id="node1" class="node"><title>Node4</title>
<g id="a_node1"><a xlink:title="Represents a collection of T:System.ComponentModel.EventDescriptor objects.">
<polygon fill="#bfbfbf" stroke="black" points="0,-0.5 0,-30.5 156,-30.5 156,-0.5 0,-0.5"/>
<text text-anchor="start" x="8" y="-18.5" font-family="Helvetica,sans-Serif" font-size="10.00">System.ComponentModel.Event</text>
<text text-anchor="middle" x="78" y="-7.5" font-family="Helvetica,sans-Serif" font-size="10.00">DescriptorCollection</text>
</a>
</g>
</g>
<!-- Node4&#45;&gt;Node4 -->
<g id="edge7" class="edge"><title>Node4&#45;&gt;Node4</title>
<path fill="none" stroke="#9a32cd" stroke-dasharray="5,2" d="M166.59,-19.6936C171.244,-18.6618 174,-17.2639 174,-15.5 174,-12.6777 166.944,-10.7925 156.347,-9.84444"/>
<polygon fill="#9a32cd" stroke="#9a32cd" points="165.752,-16.2776 156.347,-21.1556 166.741,-23.2073 165.752,-16.2776"/>
<text text-anchor="middle" x="190" y="-13" font-family="Helvetica,sans-Serif" font-size="10.00"> Empty</text>
</g>
<!-- Node5 -->
<g id="node2" class="node"><title>Node5</title>
<g id="a_node2"><a xlink:href="interface_system_1_1_collections_1_1_i_collection.html" target="_top" xlink:title="Defines size, enumerators, and synchronization methods for all nongeneric collections.">
<polygon fill="none" stroke="black" points="59,-125.5 59,-144.5 121,-144.5 121,-125.5 59,-125.5"/>
<text text-anchor="middle" x="90" y="-132.5" font-family="Helvetica,sans-Serif" font-size="10.00">ICollection</text>
</a>
</g>
</g>
<!-- Node5&#45;&gt;Node4 -->
<g id="edge1" class="edge"><title>Node5&#45;&gt;Node4</title>
<path fill="none" stroke="midnightblue" d="M88.0659,-115.062C85.6631,-91.5345 81.6173,-51.9199 79.4593,-30.7885"/>
<polygon fill="midnightblue" stroke="midnightblue" points="84.6001,-115.576 89.098,-125.168 91.5639,-114.865 84.6001,-115.576"/>
</g>
<!-- Node7 -->
<g id="node4" class="node"><title>Node7</title>
<g id="a_node4"><a xlink:href="interface_system_1_1_collections_1_1_i_list.html" target="_top" xlink:title="Represents a non&#45;generic collection of objects that can be individually accessed by index.">
<polygon fill="none" stroke="black" points="106.5,-68.5 106.5,-87.5 141.5,-87.5 141.5,-68.5 106.5,-68.5"/>
<text text-anchor="middle" x="124" y="-75.5" font-family="Helvetica,sans-Serif" font-size="10.00">IList</text>
</a>
</g>
</g>
<!-- Node5&#45;&gt;Node7 -->
<g id="edge5" class="edge"><title>Node5&#45;&gt;Node7</title>
<path fill="none" stroke="midnightblue" d="M100.734,-116.635C106.685,-107.01 113.825,-95.459 118.613,-87.7149"/>
<polygon fill="midnightblue" stroke="midnightblue" points="97.5937,-115.06 95.3125,-125.406 103.548,-118.741 97.5937,-115.06"/>
</g>
<!-- Node6 -->
<g id="node3" class="node"><title>Node6</title>
<g id="a_node3"><a xlink:href="interface_system_1_1_collections_1_1_i_enumerable.html" target="_top" xlink:title="Exposes an enumerator, which supports a simple iteration over a non&#45;generic collection....">
<polygon fill="none" stroke="black" points="54.5,-182.5 54.5,-201.5 125.5,-201.5 125.5,-182.5 54.5,-182.5"/>
<text text-anchor="middle" x="90" y="-189.5" font-family="Helvetica,sans-Serif" font-size="10.00">IEnumerable</text>
</a>
</g>
</g>
<!-- Node6&#45;&gt;Node4 -->
<g id="edge3" class="edge"><title>Node6&#45;&gt;Node4</title>
<path fill="none" stroke="midnightblue" d="M71.2019,-175.238C63.0209,-167.149 54.3263,-156.568 50,-145 35.0441,-105.008 56.8782,-54.8764 69.7347,-30.7574"/>
<polygon fill="midnightblue" stroke="midnightblue" points="69.0054,-177.974 78.7289,-182.182 73.7517,-172.829 69.0054,-177.974"/>
</g>
<!-- Node6&#45;&gt;Node5 -->
<g id="edge2" class="edge"><title>Node6&#45;&gt;Node5</title>
<path fill="none" stroke="midnightblue" d="M90,-172.117C90,-162.817 90,-152.056 90,-144.715"/>
<polygon fill="midnightblue" stroke="midnightblue" points="86.5001,-172.406 90,-182.406 93.5001,-172.406 86.5001,-172.406"/>
</g>
<!-- Node6&#45;&gt;Node7 -->
<g id="edge6" class="edge"><title>Node6&#45;&gt;Node7</title>
<path fill="none" stroke="midnightblue" d="M108.798,-175.238C116.979,-167.149 125.674,-156.568 130,-145 137.254,-125.602 131.341,-100.853 127.191,-87.868"/>
<polygon fill="midnightblue" stroke="midnightblue" points="106.248,-172.829 101.271,-182.182 110.995,-177.974 106.248,-172.829"/>
</g>
<!-- Node7&#45;&gt;Node4 -->
<g id="edge4" class="edge"><title>Node7&#45;&gt;Node4</title>
<path fill="none" stroke="midnightblue" d="M111.267,-60.2528C104.222,-50.9873 95.5601,-39.5954 88.8413,-30.7587"/>
<polygon fill="midnightblue" stroke="midnightblue" points="108.571,-62.4898 117.409,-68.3318 114.143,-58.2531 108.571,-62.4898"/>
</g>
</g>
</svg>
