<?xml version="1.0" encoding="UTF-8" standalone="no"?>
<!DOCTYPE svg PUBLIC "-//W3C//DTD SVG 1.1//EN"
 "http://www.w3.org/Graphics/SVG/1.1/DTD/svg11.dtd">
<!-- Generated by graphviz version 2.38.0 (20140413.2041)
 -->
<!-- Title: System.Threading.Tasks.TaskContinuation Pages: 1 -->
<svg width="593pt" height="112pt"
 viewBox="0.00 0.00 593.00 112.00" xmlns="http://www.w3.org/2000/svg" xmlns:xlink="http://www.w3.org/1999/xlink">
<g id="graph0" class="graph" transform="scale(1 1) rotate(0) translate(4 108)">
<title>System.Threading.Tasks.TaskContinuation</title>
<!-- Node0 -->
<g id="node1" class="node"><title>Node0</title>
<g id="a_node1"><a xlink:title=" ">
<polygon fill="#bfbfbf" stroke="black" points="0,-24.5 0,-54.5 149,-54.5 149,-24.5 0,-24.5"/>
<text text-anchor="start" x="8" y="-42.5" font-family="Helvetica,sans-Serif" font-size="10.00">System.Threading.Tasks.Task</text>
<text text-anchor="middle" x="74.5" y="-31.5" font-family="Helvetica,sans-Serif" font-size="10.00">Continuation</text>
</a>
</g>
</g>
<!-- Node1 -->
<g id="node2" class="node"><title>Node1</title>
<g id="a_node2"><a xlink:href="class_system_1_1_threading_1_1_tasks_1_1_await_task_continuation.html" target="_top" xlink:title=" ">
<polygon fill="none" stroke="black" points="192.5,-49.5 192.5,-79.5 344.5,-79.5 344.5,-49.5 192.5,-49.5"/>
<text text-anchor="start" x="200.5" y="-67.5" font-family="Helvetica,sans-Serif" font-size="10.00">System.Threading.Tasks.Await</text>
<text text-anchor="middle" x="268.5" y="-56.5" font-family="Helvetica,sans-Serif" font-size="10.00">TaskContinuation</text>
</a>
</g>
</g>
<!-- Node0&#45;&gt;Node1 -->
<g id="edge1" class="edge"><title>Node0&#45;&gt;Node1</title>
<path fill="none" stroke="midnightblue" d="M159.243,-50.404C170.283,-51.8415 181.543,-53.3077 192.426,-54.7247"/>
<polygon fill="midnightblue" stroke="midnightblue" points="159.551,-46.9147 149.183,-49.0942 158.647,-53.8561 159.551,-46.9147"/>
</g>
<!-- Node4 -->
<g id="node5" class="node"><title>Node4</title>
<g id="a_node5"><a xlink:href="class_system_1_1_threading_1_1_tasks_1_1_standard_task_continuation.html" target="_top" xlink:title=" ">
<polygon fill="none" stroke="black" points="185,-0.5 185,-30.5 352,-30.5 352,-0.5 185,-0.5"/>
<text text-anchor="start" x="193" y="-18.5" font-family="Helvetica,sans-Serif" font-size="10.00">System.Threading.Tasks.Standard</text>
<text text-anchor="middle" x="268.5" y="-7.5" font-family="Helvetica,sans-Serif" font-size="10.00">TaskContinuation</text>
</a>
</g>
</g>
<!-- Node0&#45;&gt;Node4 -->
<g id="edge4" class="edge"><title>Node0&#45;&gt;Node4</title>
<path fill="none" stroke="midnightblue" d="M159.369,-29.0164C167.786,-27.9643 176.329,-26.8964 184.734,-25.8458"/>
<polygon fill="midnightblue" stroke="midnightblue" points="158.672,-25.5762 149.183,-30.2896 159.54,-32.5222 158.672,-25.5762"/>
</g>
<!-- Node2 -->
<g id="node3" class="node"><title>Node2</title>
<g id="a_node3"><a xlink:href="class_system_1_1_threading_1_1_tasks_1_1_synchronization_context_await_task_continuation.html" target="_top" xlink:title=" ">
<polygon fill="none" stroke="black" points="388,-73.5 388,-103.5 585,-103.5 585,-73.5 388,-73.5"/>
<text text-anchor="start" x="396" y="-91.5" font-family="Helvetica,sans-Serif" font-size="10.00">System.Threading.Tasks.Synchronization</text>
<text text-anchor="middle" x="486.5" y="-80.5" font-family="Helvetica,sans-Serif" font-size="10.00">ContextAwaitTaskContinuation</text>
</a>
</g>
</g>
<!-- Node1&#45;&gt;Node2 -->
<g id="edge2" class="edge"><title>Node1&#45;&gt;Node2</title>
<path fill="none" stroke="midnightblue" d="M354.953,-73.9948C365.718,-75.1909 376.795,-76.4217 387.731,-77.6368"/>
<polygon fill="midnightblue" stroke="midnightblue" points="355.068,-70.4862 344.743,-72.8603 354.295,-77.4433 355.068,-70.4862"/>
</g>
<!-- Node3 -->
<g id="node4" class="node"><title>Node3</title>
<g id="a_node4"><a xlink:href="class_system_1_1_threading_1_1_tasks_1_1_task_scheduler_await_task_continuation.html" target="_top" xlink:title=" ">
<polygon fill="none" stroke="black" points="407,-24.5 407,-54.5 566,-54.5 566,-24.5 407,-24.5"/>
<text text-anchor="start" x="415" y="-42.5" font-family="Helvetica,sans-Serif" font-size="10.00">System.Threading.Tasks.Task</text>
<text text-anchor="middle" x="486.5" y="-31.5" font-family="Helvetica,sans-Serif" font-size="10.00">SchedulerAwaitTaskContinuation</text>
</a>
</g>
</g>
<!-- Node1&#45;&gt;Node3 -->
<g id="edge3" class="edge"><title>Node1&#45;&gt;Node3</title>
<path fill="none" stroke="midnightblue" d="M354.752,-54.6329C371.932,-52.6445 389.917,-50.5629 406.858,-48.602"/>
<polygon fill="midnightblue" stroke="midnightblue" points="354.274,-51.1647 344.743,-55.7913 355.079,-58.1183 354.274,-51.1647"/>
</g>
</g>
</svg>
