<?xml version="1.0" encoding="UTF-8" standalone="no"?>
<!DOCTYPE svg PUBLIC "-//W3C//DTD SVG 1.1//EN"
 "http://www.w3.org/Graphics/SVG/1.1/DTD/svg11.dtd">
<!-- Generated by graphviz version 2.38.0 (20140413.2041)
 -->
<!-- Title: System.TimeZoneInfo Pages: 1 -->
<svg width="371pt" height="84pt"
 viewBox="0.00 0.00 370.50 84.00" xmlns="http://www.w3.org/2000/svg" xmlns:xlink="http://www.w3.org/1999/xlink">
<g id="graph0" class="graph" transform="scale(1 1) rotate(0) translate(4 80)">
<title>System.TimeZoneInfo</title>
<!-- Node5 -->
<g id="node1" class="node"><title>Node5</title>
<g id="a_node1"><a xlink:title="Represents any time zone in the world.">
<polygon fill="#bfbfbf" stroke="black" points="134.5,-0.5 134.5,-19.5 244.5,-19.5 244.5,-0.5 134.5,-0.5"/>
<text text-anchor="middle" x="189.5" y="-7.5" font-family="Helvetica,sans-Serif" font-size="10.00">System.TimeZoneInfo</text>
</a>
</g>
</g>
<!-- Node6 -->
<g id="node2" class="node"><title>Node6</title>
<g id="a_node2"><a xlink:href="interface_system_1_1_i_equatable.html" target="_top" xlink:title=" ">
<polygon fill="none" stroke="red" points="0,-56.5 0,-75.5 137,-75.5 137,-56.5 0,-56.5"/>
<text text-anchor="middle" x="68.5" y="-63.5" font-family="Helvetica,sans-Serif" font-size="10.00">IEquatable&lt; TimeZoneInfo &gt;</text>
</a>
</g>
</g>
<!-- Node6&#45;&gt;Node5 -->
<g id="edge1" class="edge"><title>Node6&#45;&gt;Node5</title>
<path fill="none" stroke="midnightblue" d="M96.8056,-52.3678C119.465,-42.2553 150.626,-28.3486 170.417,-19.5164"/>
<polygon fill="midnightblue" stroke="midnightblue" points="95.3783,-49.1719 87.6728,-56.4435 98.2311,-55.5643 95.3783,-49.1719"/>
</g>
<!-- Node8 -->
<g id="node3" class="node"><title>Node8</title>
<g id="a_node3"><a xlink:href="interface_system_1_1_runtime_1_1_serialization_1_1_i_serializable.html" target="_top" xlink:title="Allows an object to control its own serialization and deserialization.">
<polygon fill="none" stroke="black" points="155,-56.5 155,-75.5 224,-75.5 224,-56.5 155,-56.5"/>
<text text-anchor="middle" x="189.5" y="-63.5" font-family="Helvetica,sans-Serif" font-size="10.00">ISerializable</text>
</a>
</g>
</g>
<!-- Node8&#45;&gt;Node5 -->
<g id="edge2" class="edge"><title>Node8&#45;&gt;Node5</title>
<path fill="none" stroke="midnightblue" d="M189.5,-45.8045C189.5,-36.9102 189.5,-26.7798 189.5,-19.7511"/>
<polygon fill="midnightblue" stroke="midnightblue" points="186,-46.083 189.5,-56.083 193,-46.083 186,-46.083"/>
</g>
<!-- Node9 -->
<g id="node4" class="node"><title>Node9</title>
<g id="a_node4"><a xlink:href="interface_system_1_1_runtime_1_1_serialization_1_1_i_deserialization_callback.html" target="_top" xlink:title="Indicates that a class is to be notified when deserialization of the entire object graph has been com...">
<polygon fill="none" stroke="black" points="242.5,-56.5 242.5,-75.5 362.5,-75.5 362.5,-56.5 242.5,-56.5"/>
<text text-anchor="middle" x="302.5" y="-63.5" font-family="Helvetica,sans-Serif" font-size="10.00">IDeserializationCallback</text>
</a>
</g>
</g>
<!-- Node9&#45;&gt;Node5 -->
<g id="edge3" class="edge"><title>Node9&#45;&gt;Node5</title>
<path fill="none" stroke="midnightblue" d="M275.497,-52.096C254.386,-42.0073 225.638,-28.2697 207.321,-19.5164"/>
<polygon fill="midnightblue" stroke="midnightblue" points="274.063,-55.2897 284.595,-56.4435 277.081,-48.9738 274.063,-55.2897"/>
</g>
</g>
</svg>
