<?xml version="1.0" encoding="UTF-8" standalone="no"?>
<!DOCTYPE svg PUBLIC "-//W3C//DTD SVG 1.1//EN"
 "http://www.w3.org/Graphics/SVG/1.1/DTD/svg11.dtd">
<!-- Generated by graphviz version 2.38.0 (20140413.2041)
 -->
<!-- Title: System.Collections.Generic.SortedSet&lt; T &gt; Pages: 1 -->
<svg width="564pt" height="289pt"
 viewBox="0.00 0.00 564.00 288.75" xmlns="http://www.w3.org/2000/svg" xmlns:xlink="http://www.w3.org/1999/xlink">
<g id="graph0" class="graph" transform="scale(1 1) rotate(0) translate(4 284.754)">
<title>System.Collections.Generic.SortedSet&lt; T &gt;</title>
<!-- Node12 -->
<g id="node1" class="node"><title>Node12</title>
<g id="a_node1"><a xlink:title="Represents a collection of objects that is maintained in sorted order.">
<polygon fill="#bfbfbf" stroke="black" points="415,-128 415,-158 556,-158 556,-128 415,-128"/>
<text text-anchor="start" x="423" y="-146" font-family="Helvetica,sans-Serif" font-size="10.00">System.Collections.Generic.</text>
<text text-anchor="middle" x="485.5" y="-135" font-family="Helvetica,sans-Serif" font-size="10.00">SortedSet&lt; T &gt;</text>
</a>
</g>
</g>
<!-- Node13 -->
<g id="node2" class="node"><title>Node13</title>
<g id="a_node2"><a xlink:href="interface_system_1_1_collections_1_1_generic_1_1_i_set.html" target="_top" xlink:title="Provides the base interface for the abstraction of sets.">
<polygon fill="none" stroke="black" points="286.5,-152.5 286.5,-171.5 343.5,-171.5 343.5,-152.5 286.5,-152.5"/>
<text text-anchor="middle" x="315" y="-159.5" font-family="Helvetica,sans-Serif" font-size="10.00">ISet&lt; T &gt;</text>
</a>
</g>
</g>
<!-- Node13&#45;&gt;Node12 -->
<g id="edge1" class="edge"><title>Node13&#45;&gt;Node12</title>
<path fill="none" stroke="midnightblue" d="M353.901,-157.726C371.886,-155.698 393.963,-153.209 414.813,-150.858"/>
<polygon fill="midnightblue" stroke="midnightblue" points="353.369,-154.264 343.824,-158.863 354.154,-161.22 353.369,-154.264"/>
</g>
<!-- Node14 -->
<g id="node3" class="node"><title>Node14</title>
<g id="a_node3"><a xlink:href="interface_system_1_1_collections_1_1_generic_1_1_i_collection.html" target="_top" xlink:title="Defines methods to manipulate generic collections.">
<polygon fill="none" stroke="black" points="130,-190.5 130,-209.5 215,-209.5 215,-190.5 130,-190.5"/>
<text text-anchor="middle" x="172.5" y="-197.5" font-family="Helvetica,sans-Serif" font-size="10.00">ICollection&lt; T &gt;</text>
</a>
</g>
</g>
<!-- Node14&#45;&gt;Node12 -->
<g id="edge7" class="edge"><title>Node14&#45;&gt;Node12</title>
<path fill="none" stroke="midnightblue" d="M225.546,-198.823C267.429,-197.009 327.575,-192.443 379,-181 403.134,-175.63 429.287,-166.235 449.516,-158.132"/>
<polygon fill="midnightblue" stroke="midnightblue" points="225.161,-195.336 215.307,-199.228 225.438,-202.33 225.161,-195.336"/>
</g>
<!-- Node14&#45;&gt;Node13 -->
<g id="edge2" class="edge"><title>Node14&#45;&gt;Node13</title>
<path fill="none" stroke="midnightblue" d="M218.819,-187.743C240.954,-181.756 266.884,-174.743 286.084,-169.55"/>
<polygon fill="midnightblue" stroke="midnightblue" points="217.693,-184.421 208.954,-190.411 219.521,-191.179 217.693,-184.421"/>
</g>
<!-- Node15 -->
<g id="node4" class="node"><title>Node15</title>
<g id="a_node4"><a xlink:href="interface_system_1_1_collections_1_1_generic_1_1_i_enumerable.html" target="_top" xlink:title=" ">
<polygon fill="none" stroke="red" points="0,-247.5 0,-266.5 94,-266.5 94,-247.5 0,-247.5"/>
<text text-anchor="middle" x="47" y="-254.5" font-family="Helvetica,sans-Serif" font-size="10.00">IEnumerable&lt; T &gt;</text>
</a>
</g>
</g>
<!-- Node15&#45;&gt;Node12 -->
<g id="edge8" class="edge"><title>Node15&#45;&gt;Node12</title>
<path fill="none" stroke="midnightblue" d="M89.5587,-269.176C102.407,-272.387 116.683,-275.399 130,-277 167.508,-281.508 177.589,-282.255 215,-277 290.086,-266.453 311.898,-265.306 379,-230 415.557,-210.766 451.158,-177.486 470.214,-158.14"/>
<polygon fill="midnightblue" stroke="midnightblue" points="90.1663,-265.718 79.6068,-266.582 88.4007,-272.491 90.1663,-265.718"/>
</g>
<!-- Node15&#45;&gt;Node13 -->
<g id="edge5" class="edge"><title>Node15&#45;&gt;Node13</title>
<path fill="none" stroke="midnightblue" d="M104.094,-267.217C137.482,-270.844 180.019,-271.069 215,-257 258.759,-239.401 294.051,-192.196 307.796,-171.709"/>
<polygon fill="midnightblue" stroke="midnightblue" points="104.393,-263.728 94.0439,-265.994 103.548,-270.677 104.393,-263.728"/>
</g>
<!-- Node15&#45;&gt;Node14 -->
<g id="edge3" class="edge"><title>Node15&#45;&gt;Node14</title>
<path fill="none" stroke="midnightblue" d="M77.6915,-243.201C93.2599,-235.975 112.651,-226.991 130,-219 136.621,-215.95 143.843,-212.638 150.379,-209.647"/>
<polygon fill="midnightblue" stroke="midnightblue" points="76.1405,-240.062 68.5444,-247.448 79.0884,-246.411 76.1405,-240.062"/>
</g>
<!-- Node18 -->
<g id="node6" class="node"><title>Node18</title>
<g id="a_node6"><a xlink:href="interface_system_1_1_collections_1_1_generic_1_1_i_collection.html" target="_top" xlink:title="Defines methods to manipulate generic collections.">
<polygon fill="none" stroke="black" points="141.5,-228.5 141.5,-247.5 203.5,-247.5 203.5,-228.5 141.5,-228.5"/>
<text text-anchor="middle" x="172.5" y="-235.5" font-family="Helvetica,sans-Serif" font-size="10.00">ICollection</text>
</a>
</g>
</g>
<!-- Node15&#45;&gt;Node18 -->
<g id="edge11" class="edge"><title>Node15&#45;&gt;Node18</title>
<path fill="none" stroke="midnightblue" d="M104.449,-248.316C117.189,-246.356 130.233,-244.349 141.388,-242.633"/>
<polygon fill="midnightblue" stroke="midnightblue" points="103.69,-244.891 94.3382,-249.871 104.754,-251.81 103.69,-244.891"/>
</g>
<!-- Node17 -->
<g id="node5" class="node"><title>Node17</title>
<g id="a_node5"><a xlink:href="interface_system_1_1_collections_1_1_i_enumerable.html" target="_top" xlink:title="Exposes an enumerator, which supports a simple iteration over a non&#45;generic collection....">
<polygon fill="none" stroke="black" points="11.5,-171.5 11.5,-190.5 82.5,-190.5 82.5,-171.5 11.5,-171.5"/>
<text text-anchor="middle" x="47" y="-178.5" font-family="Helvetica,sans-Serif" font-size="10.00">IEnumerable</text>
</a>
</g>
</g>
<!-- Node17&#45;&gt;Node12 -->
<g id="edge9" class="edge"><title>Node17&#45;&gt;Node12</title>
<path fill="none" stroke="midnightblue" d="M92.5989,-172.19C104.726,-169.824 117.862,-167.288 130,-165 183.714,-154.877 196.561,-147.909 251,-143 305.909,-138.049 368.377,-138.358 414.876,-139.736"/>
<polygon fill="midnightblue" stroke="midnightblue" points="91.8351,-168.773 82.6934,-174.128 93.1795,-175.642 91.8351,-168.773"/>
</g>
<!-- Node17&#45;&gt;Node13 -->
<g id="edge6" class="edge"><title>Node17&#45;&gt;Node13</title>
<path fill="none" stroke="midnightblue" d="M92.7129,-177.806C148.035,-173.855 240.523,-167.248 286.424,-163.97"/>
<polygon fill="midnightblue" stroke="midnightblue" points="92.2273,-174.332 82.5022,-178.536 92.7261,-181.314 92.2273,-174.332"/>
</g>
<!-- Node17&#45;&gt;Node14 -->
<g id="edge4" class="edge"><title>Node17&#45;&gt;Node14</title>
<path fill="none" stroke="midnightblue" d="M92.9568,-187.916C104.917,-189.756 117.787,-191.736 129.578,-193.55"/>
<polygon fill="midnightblue" stroke="midnightblue" points="93.1462,-184.404 82.7303,-186.343 92.0818,-191.323 93.1462,-184.404"/>
</g>
<!-- Node17&#45;&gt;Node18 -->
<g id="edge12" class="edge"><title>Node17&#45;&gt;Node18</title>
<path fill="none" stroke="midnightblue" d="M77.6915,-194.799C93.2599,-202.025 112.651,-211.009 130,-219 136.621,-222.05 143.843,-225.362 150.379,-228.353"/>
<polygon fill="midnightblue" stroke="midnightblue" points="79.0884,-191.589 68.5444,-190.552 76.1405,-197.938 79.0884,-191.589"/>
</g>
<!-- Node18&#45;&gt;Node12 -->
<g id="edge10" class="edge"><title>Node18&#45;&gt;Node12</title>
<path fill="none" stroke="midnightblue" d="M213.744,-235.299C255.949,-231.519 323.699,-222.743 379,-203 409.957,-191.948 442.361,-172.086 462.953,-158.254"/>
<polygon fill="midnightblue" stroke="midnightblue" points="213.258,-231.828 203.588,-236.156 213.847,-238.803 213.258,-231.828"/>
</g>
<!-- Node19 -->
<g id="node7" class="node"><title>Node19</title>
<g id="a_node7"><a xlink:href="interface_system_1_1_runtime_1_1_serialization_1_1_i_serializable.html" target="_top" xlink:title="Allows an object to control its own serialization and deserialization.">
<polygon fill="none" stroke="black" points="280.5,-76.5 280.5,-95.5 349.5,-95.5 349.5,-76.5 280.5,-76.5"/>
<text text-anchor="middle" x="315" y="-83.5" font-family="Helvetica,sans-Serif" font-size="10.00">ISerializable</text>
</a>
</g>
</g>
<!-- Node19&#45;&gt;Node12 -->
<g id="edge13" class="edge"><title>Node19&#45;&gt;Node12</title>
<path fill="none" stroke="midnightblue" d="M353.9,-98.8206C379.433,-107.458 413.212,-118.885 440.019,-127.953"/>
<polygon fill="midnightblue" stroke="midnightblue" points="354.797,-95.4296 344.203,-95.5405 352.554,-102.06 354.797,-95.4296"/>
</g>
<!-- Node20 -->
<g id="node8" class="node"><title>Node20</title>
<g id="a_node8"><a xlink:href="interface_system_1_1_runtime_1_1_serialization_1_1_i_deserialization_callback.html" target="_top" xlink:title="Indicates that a class is to be notified when deserialization of the entire object graph has been com...">
<polygon fill="none" stroke="black" points="255,-38.5 255,-57.5 375,-57.5 375,-38.5 255,-38.5"/>
<text text-anchor="middle" x="315" y="-45.5" font-family="Helvetica,sans-Serif" font-size="10.00">IDeserializationCallback</text>
</a>
</g>
</g>
<!-- Node20&#45;&gt;Node12 -->
<g id="edge14" class="edge"><title>Node20&#45;&gt;Node12</title>
<path fill="none" stroke="midnightblue" d="M364.622,-60.8709C369.568,-62.7087 374.443,-64.7503 379,-67 412.803,-83.6884 447.399,-110.946 467.369,-127.881"/>
<polygon fill="midnightblue" stroke="midnightblue" points="365.684,-57.5351 355.09,-57.5866 363.404,-64.1533 365.684,-57.5351"/>
</g>
<!-- Node21 -->
<g id="node9" class="node"><title>Node21</title>
<g id="a_node9"><a xlink:href="interface_system_1_1_collections_1_1_generic_1_1_i_read_only_collection.html" target="_top" xlink:title=" ">
<polygon fill="none" stroke="red" points="251,-0.5 251,-19.5 379,-19.5 379,-0.5 251,-0.5"/>
<text text-anchor="middle" x="315" y="-7.5" font-family="Helvetica,sans-Serif" font-size="10.00">IReadOnlyCollection&lt; T &gt;</text>
</a>
</g>
</g>
<!-- Node21&#45;&gt;Node12 -->
<g id="edge15" class="edge"><title>Node21&#45;&gt;Node12</title>
<path fill="none" stroke="midnightblue" d="M368.384,-23.3739C372.082,-25.0458 375.662,-26.9143 379,-29 421.307,-55.4366 457.563,-103.199 474.419,-127.658"/>
<polygon fill="midnightblue" stroke="midnightblue" points="369.608,-20.0937 359.024,-19.6111 366.997,-26.5886 369.608,-20.0937"/>
</g>
</g>
</svg>
