<?xml version="1.0" encoding="UTF-8" standalone="no"?>
<!DOCTYPE svg PUBLIC "-//W3C//DTD SVG 1.1//EN"
 "http://www.w3.org/Graphics/SVG/1.1/DTD/svg11.dtd">
<!-- Generated by graphviz version 2.38.0 (20140413.2041)
 -->
<!-- Title: System.Reflection.Emit.AssemblyBuilder Pages: 1 -->
<svg width="443pt" height="180pt"
 viewBox="0.00 0.00 443.00 180.00" xmlns="http://www.w3.org/2000/svg" xmlns:xlink="http://www.w3.org/1999/xlink">
<g id="graph0" class="graph" transform="scale(1 1) rotate(0) translate(4 176)">
<title>System.Reflection.Emit.AssemblyBuilder</title>
<!-- Node7 -->
<g id="node1" class="node"><title>Node7</title>
<g id="a_node1"><a xlink:title="Defines and represents a dynamic assembly.">
<polygon fill="#bfbfbf" stroke="black" points="269,-71 269,-101 435,-101 435,-71 269,-71"/>
<text text-anchor="start" x="277" y="-89" font-family="Helvetica,sans-Serif" font-size="10.00">System.Reflection.Emit.Assembly</text>
<text text-anchor="middle" x="352" y="-78" font-family="Helvetica,sans-Serif" font-size="10.00">Builder</text>
</a>
</g>
</g>
<!-- Node8 -->
<g id="node2" class="node"><title>Node8</title>
<g id="a_node2"><a xlink:href="class_system_1_1_reflection_1_1_assembly.html" target="_top" xlink:title="Represents an assembly, which is a reusable, versionable, and self&#45;describing building block of a com...">
<polygon fill="none" stroke="red" points="50.5,-152.5 50.5,-171.5 110.5,-171.5 110.5,-152.5 50.5,-152.5"/>
<text text-anchor="middle" x="80.5" y="-159.5" font-family="Helvetica,sans-Serif" font-size="10.00">Assembly</text>
</a>
</g>
</g>
<!-- Node8&#45;&gt;Node7 -->
<g id="edge1" class="edge"><title>Node8&#45;&gt;Node7</title>
<path fill="none" stroke="midnightblue" d="M120.58,-152.874C133.469,-149.807 147.864,-146.321 161,-143 201.135,-132.854 211.327,-130.825 251,-119 269.572,-113.465 289.908,-106.855 307.364,-101.011"/>
<polygon fill="midnightblue" stroke="midnightblue" points="119.544,-149.522 110.619,-155.232 121.157,-156.334 119.544,-149.522"/>
</g>
<!-- Node13 -->
<g id="node3" class="node"><title>Node13</title>
<g id="a_node3"><a xlink:href="interface_system_1_1_runtime_1_1_interop_services_1_1___assembly_builder.html" target="_top" xlink:title="Exposes the T:System.Reflection.Emit.AssemblyBuilder class to unmanaged code.">
<polygon fill="none" stroke="black" points="33,-114.5 33,-133.5 128,-133.5 128,-114.5 33,-114.5"/>
<text text-anchor="middle" x="80.5" y="-121.5" font-family="Helvetica,sans-Serif" font-size="10.00">_AssemblyBuilder</text>
</a>
</g>
</g>
<!-- Node13&#45;&gt;Node7 -->
<g id="edge2" class="edge"><title>Node13&#45;&gt;Node7</title>
<path fill="none" stroke="midnightblue" d="M138.623,-116.452C171.504,-112.056 213.596,-106.343 251,-101 256.822,-100.168 262.833,-99.2976 268.883,-98.412"/>
<polygon fill="midnightblue" stroke="midnightblue" points="137.738,-113.039 128.289,-117.83 138.664,-119.977 137.738,-113.039"/>
</g>
<!-- Node14 -->
<g id="node4" class="node"><title>Node14</title>
<g id="a_node4"><a xlink:href="class_system_1_1_reflection_1_1_method_info.html" target="_top" xlink:title="Discovers the attributes of a method and provides access to method metadata.">
<polygon fill="none" stroke="red" points="7.5,-76.5 7.5,-95.5 153.5,-95.5 153.5,-76.5 7.5,-76.5"/>
<text text-anchor="middle" x="80.5" y="-83.5" font-family="Helvetica,sans-Serif" font-size="10.00">System.Reflection.MethodInfo</text>
</a>
</g>
</g>
<!-- Node14&#45;&gt;Node7 -->
<g id="edge3" class="edge"><title>Node14&#45;&gt;Node7</title>
<path fill="none" stroke="#9a32cd" stroke-dasharray="5,2" d="M163.859,-86C197.083,-86 235.34,-86 268.571,-86"/>
<polygon fill="#9a32cd" stroke="#9a32cd" points="163.721,-82.5001 153.721,-86 163.721,-89.5001 163.721,-82.5001"/>
<text text-anchor="middle" x="215" y="-89" font-family="Helvetica,sans-Serif" font-size="10.00"> EntryPoint</text>
</g>
<!-- Node20 -->
<g id="node5" class="node"><title>Node20</title>
<g id="a_node5"><a xlink:href="class_system_1_1_security_1_1_policy_1_1_evidence.html" target="_top" xlink:title="Defines the set of information that constitutes input to security policy decisions....">
<polygon fill="none" stroke="red" points="0,-38.5 0,-57.5 161,-57.5 161,-38.5 0,-38.5"/>
<text text-anchor="middle" x="80.5" y="-45.5" font-family="Helvetica,sans-Serif" font-size="10.00">System.Security.Policy.Evidence</text>
</a>
</g>
</g>
<!-- Node20&#45;&gt;Node7 -->
<g id="edge4" class="edge"><title>Node20&#45;&gt;Node7</title>
<path fill="none" stroke="#9a32cd" stroke-dasharray="5,2" d="M163.368,-58.8731C191.192,-62.6312 222.461,-66.9235 251,-71 256.822,-71.8316 262.833,-72.7024 268.883,-73.588"/>
<polygon fill="#9a32cd" stroke="#9a32cd" points="163.662,-55.3812 153.284,-57.5141 162.727,-62.3185 163.662,-55.3812"/>
<text text-anchor="middle" x="215" y="-74" font-family="Helvetica,sans-Serif" font-size="10.00"> Evidence</text>
</g>
<!-- Node23 -->
<g id="node6" class="node"><title>Node23</title>
<g id="a_node6"><a xlink:href="class_system_1_1_reflection_1_1_module.html" target="_top" xlink:title="Performs reflection on a module.">
<polygon fill="none" stroke="red" points="15,-0.5 15,-19.5 146,-19.5 146,-0.5 15,-0.5"/>
<text text-anchor="middle" x="80.5" y="-7.5" font-family="Helvetica,sans-Serif" font-size="10.00">System.Reflection.Module</text>
</a>
</g>
</g>
<!-- Node23&#45;&gt;Node7 -->
<g id="edge5" class="edge"><title>Node23&#45;&gt;Node7</title>
<path fill="none" stroke="#9a32cd" stroke-dasharray="5,2" d="M148.214,-21.4317C179.709,-27.5223 217.624,-35.8619 251,-46 273.543,-52.8474 298.12,-62.6444 317.268,-70.8286"/>
<polygon fill="#9a32cd" stroke="#9a32cd" points="148.706,-17.9625 138.228,-19.5338 147.399,-24.8394 148.706,-17.9625"/>
<text text-anchor="middle" x="215" y="-49" font-family="Helvetica,sans-Serif" font-size="10.00"> ManifestModule</text>
</g>
</g>
</svg>
