<?xml version="1.0" encoding="UTF-8" standalone="no"?>
<!DOCTYPE svg PUBLIC "-//W3C//DTD SVG 1.1//EN"
 "http://www.w3.org/Graphics/SVG/1.1/DTD/svg11.dtd">
<!-- Generated by graphviz version 2.38.0 (20140413.2041)
 -->
<!-- Title: System.IO.UnmanagedMemoryStream Pages: 1 -->
<svg width="200pt" height="218pt"
 viewBox="0.00 0.00 199.50 218.00" xmlns="http://www.w3.org/2000/svg" xmlns:xlink="http://www.w3.org/1999/xlink">
<g id="graph0" class="graph" transform="scale(1 1) rotate(0) translate(4 214)">
<title>System.IO.UnmanagedMemoryStream</title>
<!-- Node0 -->
<g id="node1" class="node"><title>Node0</title>
<g id="a_node1"><a xlink:title="Provides access to unmanaged blocks of memory from managed code.">
<polygon fill="#bfbfbf" stroke="black" points="28.5,-67.5 28.5,-97.5 181.5,-97.5 181.5,-67.5 28.5,-67.5"/>
<text text-anchor="start" x="36.5" y="-85.5" font-family="Helvetica,sans-Serif" font-size="10.00">System.IO.UnmanagedMemory</text>
<text text-anchor="middle" x="105" y="-74.5" font-family="Helvetica,sans-Serif" font-size="10.00">Stream</text>
</a>
</g>
</g>
<!-- Node4 -->
<g id="node5" class="node"><title>Node4</title>
<g id="a_node5"><a xlink:href="class_system_1_1_i_o_1_1_pinned_buffer_memory_stream.html" target="_top" xlink:title=" ">
<polygon fill="none" stroke="black" points="27,-0.5 27,-30.5 183,-30.5 183,-0.5 27,-0.5"/>
<text text-anchor="start" x="35" y="-18.5" font-family="Helvetica,sans-Serif" font-size="10.00">System.IO.PinnedBufferMemory</text>
<text text-anchor="middle" x="105" y="-7.5" font-family="Helvetica,sans-Serif" font-size="10.00">Stream</text>
</a>
</g>
</g>
<!-- Node0&#45;&gt;Node4 -->
<g id="edge4" class="edge"><title>Node0&#45;&gt;Node4</title>
<path fill="none" stroke="midnightblue" d="M105,-57.1081C105,-48.1539 105,-38.3227 105,-30.5765"/>
<polygon fill="midnightblue" stroke="midnightblue" points="101.5,-57.3959 105,-67.396 108.5,-57.396 101.5,-57.3959"/>
</g>
<!-- Node1 -->
<g id="node2" class="node"><title>Node1</title>
<g id="a_node2"><a xlink:href="class_system_1_1_i_o_1_1_stream.html" target="_top" xlink:title="Provides a generic view of a sequence of bytes. This is an abstract class.To browse the ....">
<polygon fill="none" stroke="black" points="81,-134.5 81,-153.5 129,-153.5 129,-134.5 81,-134.5"/>
<text text-anchor="middle" x="105" y="-141.5" font-family="Helvetica,sans-Serif" font-size="10.00">Stream</text>
</a>
</g>
</g>
<!-- Node1&#45;&gt;Node0 -->
<g id="edge1" class="edge"><title>Node1&#45;&gt;Node0</title>
<path fill="none" stroke="midnightblue" d="M105,-124.235C105,-115.586 105,-105.497 105,-97.523"/>
<polygon fill="midnightblue" stroke="midnightblue" points="101.5,-124.475 105,-134.475 108.5,-124.475 101.5,-124.475"/>
</g>
<!-- Node2 -->
<g id="node3" class="node"><title>Node2</title>
<g id="a_node3"><a xlink:href="class_system_1_1_marshal_by_ref_object.html" target="_top" xlink:title="Enables access to objects across application domain boundaries in applications that support remoting.">
<polygon fill="none" stroke="black" points="0,-190.5 0,-209.5 106,-209.5 106,-190.5 0,-190.5"/>
<text text-anchor="middle" x="53" y="-197.5" font-family="Helvetica,sans-Serif" font-size="10.00">MarshalByRefObject</text>
</a>
</g>
</g>
<!-- Node2&#45;&gt;Node1 -->
<g id="edge2" class="edge"><title>Node2&#45;&gt;Node1</title>
<path fill="none" stroke="midnightblue" d="M68.6794,-182.718C77.8447,-173.2 89.0526,-161.561 96.573,-153.751"/>
<polygon fill="midnightblue" stroke="midnightblue" points="66.0021,-180.452 61.5867,-190.083 71.0443,-185.308 66.0021,-180.452"/>
</g>
<!-- Node3 -->
<g id="node4" class="node"><title>Node3</title>
<g id="a_node4"><a xlink:href="interface_system_1_1_i_disposable.html" target="_top" xlink:title="Provides a mechanism for releasing unmanaged resources.To browse the .NET Framework source code for t...">
<polygon fill="none" stroke="black" points="124.5,-190.5 124.5,-209.5 191.5,-209.5 191.5,-190.5 124.5,-190.5"/>
<text text-anchor="middle" x="158" y="-197.5" font-family="Helvetica,sans-Serif" font-size="10.00">IDisposable</text>
</a>
</g>
</g>
<!-- Node3&#45;&gt;Node1 -->
<g id="edge3" class="edge"><title>Node3&#45;&gt;Node1</title>
<path fill="none" stroke="midnightblue" d="M142.019,-182.718C132.678,-173.2 121.254,-161.561 113.589,-153.751"/>
<polygon fill="midnightblue" stroke="midnightblue" points="139.746,-185.398 149.248,-190.083 144.741,-180.494 139.746,-185.398"/>
</g>
</g>
</svg>
