<?xml version="1.0" encoding="UTF-8" standalone="no"?>
<!DOCTYPE svg PUBLIC "-//W3C//DTD SVG 1.1//EN"
 "http://www.w3.org/Graphics/SVG/1.1/DTD/svg11.dtd">
<!-- Generated by graphviz version 2.38.0 (20140413.2041)
 -->
<!-- Title: System.NotSupportedException Pages: 1 -->
<svg width="164pt" height="263pt"
 viewBox="0.00 0.00 164.00 263.00" xmlns="http://www.w3.org/2000/svg" xmlns:xlink="http://www.w3.org/1999/xlink">
<g id="graph0" class="graph" transform="scale(1 1) rotate(0) translate(4 259)">
<title>System.NotSupportedException</title>
<!-- Node0 -->
<g id="node1" class="node"><title>Node0</title>
<g id="a_node1"><a xlink:title="The exception that is thrown when an invoked method is not supported, or when there is an attempt to ...">
<polygon fill="#bfbfbf" stroke="black" points="0,-67.5 0,-86.5 156,-86.5 156,-67.5 0,-67.5"/>
<text text-anchor="middle" x="78" y="-74.5" font-family="Helvetica,sans-Serif" font-size="10.00">System.NotSupportedException</text>
</a>
</g>
</g>
<!-- Node5 -->
<g id="node6" class="node"><title>Node5</title>
<g id="a_node6"><a xlink:href="class_system_1_1_platform_not_supported_exception.html" target="_top" xlink:title="The exception that is thrown when a feature does not run on a particular platform.">
<polygon fill="none" stroke="black" points="3.5,-0.5 3.5,-30.5 152.5,-30.5 152.5,-0.5 3.5,-0.5"/>
<text text-anchor="start" x="11.5" y="-18.5" font-family="Helvetica,sans-Serif" font-size="10.00">System.PlatformNotSupported</text>
<text text-anchor="middle" x="78" y="-7.5" font-family="Helvetica,sans-Serif" font-size="10.00">Exception</text>
</a>
</g>
</g>
<!-- Node0&#45;&gt;Node5 -->
<g id="edge5" class="edge"><title>Node0&#45;&gt;Node5</title>
<path fill="none" stroke="midnightblue" d="M78,-57.2349C78,-48.5864 78,-38.4969 78,-30.523"/>
<polygon fill="midnightblue" stroke="midnightblue" points="74.5001,-57.4751 78,-67.4751 81.5001,-57.4751 74.5001,-57.4751"/>
</g>
<!-- Node1 -->
<g id="node2" class="node"><title>Node1</title>
<g id="a_node2"><a xlink:href="class_system_1_1_system_exception.html" target="_top" xlink:title="Serves as the base class for system exceptions namespace.">
<polygon fill="none" stroke="black" points="31,-123.5 31,-142.5 125,-142.5 125,-123.5 31,-123.5"/>
<text text-anchor="middle" x="78" y="-130.5" font-family="Helvetica,sans-Serif" font-size="10.00">SystemException</text>
</a>
</g>
</g>
<!-- Node1&#45;&gt;Node0 -->
<g id="edge1" class="edge"><title>Node1&#45;&gt;Node0</title>
<path fill="none" stroke="midnightblue" d="M78,-112.805C78,-103.91 78,-93.7798 78,-86.7511"/>
<polygon fill="midnightblue" stroke="midnightblue" points="74.5001,-113.083 78,-123.083 81.5001,-113.083 74.5001,-113.083"/>
</g>
<!-- Node2 -->
<g id="node3" class="node"><title>Node2</title>
<g id="a_node3"><a xlink:href="class_system_1_1_exception.html" target="_top" xlink:title="Represents errors that occur during application execution.To browse the .NET Framework source code fo...">
<polygon fill="none" stroke="black" points="48,-179.5 48,-198.5 108,-198.5 108,-179.5 48,-179.5"/>
<text text-anchor="middle" x="78" y="-186.5" font-family="Helvetica,sans-Serif" font-size="10.00">Exception</text>
</a>
</g>
</g>
<!-- Node2&#45;&gt;Node1 -->
<g id="edge2" class="edge"><title>Node2&#45;&gt;Node1</title>
<path fill="none" stroke="midnightblue" d="M78,-168.805C78,-159.91 78,-149.78 78,-142.751"/>
<polygon fill="midnightblue" stroke="midnightblue" points="74.5001,-169.083 78,-179.083 81.5001,-169.083 74.5001,-169.083"/>
</g>
<!-- Node3 -->
<g id="node4" class="node"><title>Node3</title>
<g id="a_node4"><a xlink:href="interface_system_1_1_runtime_1_1_serialization_1_1_i_serializable.html" target="_top" xlink:title="Allows an object to control its own serialization and deserialization.">
<polygon fill="none" stroke="black" points="1.5,-235.5 1.5,-254.5 70.5,-254.5 70.5,-235.5 1.5,-235.5"/>
<text text-anchor="middle" x="36" y="-242.5" font-family="Helvetica,sans-Serif" font-size="10.00">ISerializable</text>
</a>
</g>
</g>
<!-- Node3&#45;&gt;Node2 -->
<g id="edge3" class="edge"><title>Node3&#45;&gt;Node2</title>
<path fill="none" stroke="midnightblue" d="M49.1102,-227.144C56.4278,-217.736 65.2409,-206.405 71.1936,-198.751"/>
<polygon fill="midnightblue" stroke="midnightblue" points="46.3122,-225.041 42.9354,-235.083 51.8376,-229.338 46.3122,-225.041"/>
</g>
<!-- Node4 -->
<g id="node5" class="node"><title>Node4</title>
<g id="a_node5"><a xlink:href="interface_system_1_1_runtime_1_1_interop_services_1_1___exception.html" target="_top" xlink:title="Exposes the public members of the T:System.Exception class to unmanaged code.">
<polygon fill="none" stroke="black" points="88.5,-235.5 88.5,-254.5 153.5,-254.5 153.5,-235.5 88.5,-235.5"/>
<text text-anchor="middle" x="121" y="-242.5" font-family="Helvetica,sans-Serif" font-size="10.00">_Exception</text>
</a>
</g>
</g>
<!-- Node4&#45;&gt;Node2 -->
<g id="edge4" class="edge"><title>Node4&#45;&gt;Node2</title>
<path fill="none" stroke="midnightblue" d="M107.578,-227.144C100.086,-217.736 91.0629,-206.405 84.9685,-198.751"/>
<polygon fill="midnightblue" stroke="midnightblue" points="104.932,-229.44 113.899,-235.083 110.408,-225.08 104.932,-229.44"/>
</g>
</g>
</svg>
