<?xml version="1.0" encoding="UTF-8" standalone="no"?>
<!DOCTYPE svg PUBLIC "-//W3C//DTD SVG 1.1//EN"
 "http://www.w3.org/Graphics/SVG/1.1/DTD/svg11.dtd">
<!-- Generated by graphviz version 2.38.0 (20140413.2041)
 -->
<!-- Title: System.Diagnostics.TraceListener Pages: 1 -->
<svg width="469pt" height="186pt"
 viewBox="0.00 0.00 469.00 186.00" xmlns="http://www.w3.org/2000/svg" xmlns:xlink="http://www.w3.org/1999/xlink">
<g id="graph0" class="graph" transform="scale(1 1) rotate(0) translate(4 182)">
<title>System.Diagnostics.TraceListener</title>
<!-- Node0 -->
<g id="node1" class="node"><title>Node0</title>
<g id="a_node1"><a xlink:title="Provides the abstract base class for the listeners who monitor trace and debug output.">
<polygon fill="#bfbfbf" stroke="black" points="142,-73.5 142,-103.5 273,-103.5 273,-73.5 142,-73.5"/>
<text text-anchor="start" x="150" y="-91.5" font-family="Helvetica,sans-Serif" font-size="10.00">System.Diagnostics.Trace</text>
<text text-anchor="middle" x="207.5" y="-80.5" font-family="Helvetica,sans-Serif" font-size="10.00">Listener</text>
</a>
</g>
</g>
<!-- Node3 -->
<g id="node4" class="node"><title>Node3</title>
<g id="a_node4"><a xlink:href="class_system_1_1_diagnostics_1_1_default_trace_listener.html" target="_top" xlink:title="Provides the default output methods and behavior for tracing.">
<polygon fill="none" stroke="black" points="316.5,-147.5 316.5,-177.5 453.5,-177.5 453.5,-147.5 316.5,-147.5"/>
<text text-anchor="start" x="324.5" y="-165.5" font-family="Helvetica,sans-Serif" font-size="10.00">System.Diagnostics.Default</text>
<text text-anchor="middle" x="385" y="-154.5" font-family="Helvetica,sans-Serif" font-size="10.00">TraceListener</text>
</a>
</g>
</g>
<!-- Node0&#45;&gt;Node3 -->
<g id="edge3" class="edge"><title>Node0&#45;&gt;Node3</title>
<path fill="none" stroke="midnightblue" d="M245.219,-108.449C263.987,-118.211 287.375,-129.72 309,-138.5 316.727,-141.637 325.03,-144.642 333.195,-147.399"/>
<polygon fill="midnightblue" stroke="midnightblue" points="246.613,-105.228 236.133,-103.673 243.356,-111.424 246.613,-105.228"/>
</g>
<!-- Node4 -->
<g id="node5" class="node"><title>Node4</title>
<g id="a_node5"><a xlink:href="class_system_1_1_diagnostics_1_1_eventing_1_1_event_provider_trace_listener.html" target="_top" xlink:title="A listener for T:System.Diagnostics.TraceSource that writes events to the ETW subsytem.">
<polygon fill="none" stroke="black" points="311.5,-98.5 311.5,-128.5 458.5,-128.5 458.5,-98.5 311.5,-98.5"/>
<text text-anchor="start" x="319.5" y="-116.5" font-family="Helvetica,sans-Serif" font-size="10.00">System.Diagnostics.Eventing.</text>
<text text-anchor="middle" x="385" y="-105.5" font-family="Helvetica,sans-Serif" font-size="10.00">EventProviderTraceListener</text>
</a>
</g>
</g>
<!-- Node0&#45;&gt;Node4 -->
<g id="edge4" class="edge"><title>Node0&#45;&gt;Node4</title>
<path fill="none" stroke="midnightblue" d="M283.351,-99.1626C292.658,-100.488 302.162,-101.842 311.433,-103.163"/>
<polygon fill="midnightblue" stroke="midnightblue" points="283.745,-95.6834 273.351,-97.738 282.758,-102.613 283.745,-95.6834"/>
</g>
<!-- Node5 -->
<g id="node6" class="node"><title>Node5</title>
<g id="a_node6"><a xlink:href="class_system_1_1_diagnostics_1_1_event_log_trace_listener.html" target="_top" xlink:title="Provides a simple listener that directs tracing or debugging output to an T:System....">
<polygon fill="none" stroke="black" points="319.5,-49.5 319.5,-79.5 450.5,-79.5 450.5,-49.5 319.5,-49.5"/>
<text text-anchor="start" x="327.5" y="-67.5" font-family="Helvetica,sans-Serif" font-size="10.00">System.Diagnostics.Event</text>
<text text-anchor="middle" x="385" y="-56.5" font-family="Helvetica,sans-Serif" font-size="10.00">LogTraceListener</text>
</a>
</g>
</g>
<!-- Node0&#45;&gt;Node5 -->
<g id="edge5" class="edge"><title>Node0&#45;&gt;Node5</title>
<path fill="none" stroke="midnightblue" d="M283.337,-78.2658C295.342,-76.6241 307.677,-74.9374 319.415,-73.3321"/>
<polygon fill="midnightblue" stroke="midnightblue" points="282.785,-74.8088 273.351,-79.6315 283.733,-81.7442 282.785,-74.8088"/>
</g>
<!-- Node6 -->
<g id="node7" class="node"><title>Node6</title>
<g id="a_node7"><a xlink:href="class_system_1_1_diagnostics_1_1_text_writer_trace_listener.html" target="_top" xlink:title="Directs tracing or debugging output to a T:System.IO.TextWriter or to a T:System.IO....">
<polygon fill="none" stroke="red" points="309,-0.5 309,-30.5 461,-30.5 461,-0.5 309,-0.5"/>
<text text-anchor="start" x="317" y="-18.5" font-family="Helvetica,sans-Serif" font-size="10.00">System.Diagnostics.TextWriter</text>
<text text-anchor="middle" x="385" y="-7.5" font-family="Helvetica,sans-Serif" font-size="10.00">TraceListener</text>
</a>
</g>
</g>
<!-- Node0&#45;&gt;Node6 -->
<g id="edge6" class="edge"><title>Node0&#45;&gt;Node6</title>
<path fill="none" stroke="midnightblue" d="M245.665,-68.7911C264.375,-59.28 287.579,-48.0975 309,-39.5 316.866,-36.3428 325.321,-33.3072 333.619,-30.5194"/>
<polygon fill="midnightblue" stroke="midnightblue" points="243.894,-65.7661 236.597,-73.4481 247.092,-71.9929 243.894,-65.7661"/>
</g>
<!-- Node1 -->
<g id="node2" class="node"><title>Node1</title>
<g id="a_node2"><a xlink:href="class_system_1_1_marshal_by_ref_object.html" target="_top" xlink:title="Enables access to objects across application domain boundaries in applications that support remoting.">
<polygon fill="none" stroke="black" points="0,-98 0,-117 106,-117 106,-98 0,-98"/>
<text text-anchor="middle" x="53" y="-105" font-family="Helvetica,sans-Serif" font-size="10.00">MarshalByRefObject</text>
</a>
</g>
</g>
<!-- Node1&#45;&gt;Node0 -->
<g id="edge1" class="edge"><title>Node1&#45;&gt;Node0</title>
<path fill="none" stroke="midnightblue" d="M116.183,-99.7527C124.605,-98.7033 133.265,-97.6243 141.732,-96.5694"/>
<polygon fill="midnightblue" stroke="midnightblue" points="115.546,-96.3048 106.055,-101.014 116.411,-103.251 115.546,-96.3048"/>
</g>
<!-- Node2 -->
<g id="node3" class="node"><title>Node2</title>
<g id="a_node3"><a xlink:href="interface_system_1_1_i_disposable.html" target="_top" xlink:title="Provides a mechanism for releasing unmanaged resources.To browse the .NET Framework source code for t...">
<polygon fill="none" stroke="black" points="19.5,-60 19.5,-79 86.5,-79 86.5,-60 19.5,-60"/>
<text text-anchor="middle" x="53" y="-67" font-family="Helvetica,sans-Serif" font-size="10.00">IDisposable</text>
</a>
</g>
</g>
<!-- Node2&#45;&gt;Node0 -->
<g id="edge2" class="edge"><title>Node2&#45;&gt;Node0</title>
<path fill="none" stroke="midnightblue" d="M96.9694,-74.8536C110.903,-76.5895 126.68,-78.5553 141.833,-80.4432"/>
<polygon fill="midnightblue" stroke="midnightblue" points="97.0711,-71.3393 86.7151,-73.576 96.2056,-78.2856 97.0711,-71.3393"/>
</g>
</g>
</svg>
