<?xml version="1.0" encoding="UTF-8" standalone="no"?>
<!DOCTYPE svg PUBLIC "-//W3C//DTD SVG 1.1//EN"
 "http://www.w3.org/Graphics/SVG/1.1/DTD/svg11.dtd">
<!-- Generated by graphviz version 2.38.0 (20140413.2041)
 -->
<!-- Title: System.IO.StreamWriter Pages: 1 -->
<svg width="170pt" height="85pt"
 viewBox="0.00 0.00 170.00 85.00" xmlns="http://www.w3.org/2000/svg" xmlns:xlink="http://www.w3.org/1999/xlink">
<g id="graph0" class="graph" transform="scale(1 1) rotate(0) translate(4 81)">
<title>System.IO.StreamWriter</title>
<!-- Node4 -->
<g id="node1" class="node"><title>Node4</title>
<g id="a_node1"><a xlink:title="Implements a T:System.IO.TextWriter for writing characters to a stream in a particular encoding....">
<polygon fill="#bfbfbf" stroke="black" points="0,-0.5 0,-19.5 124,-19.5 124,-0.5 0,-0.5"/>
<text text-anchor="middle" x="62" y="-7.5" font-family="Helvetica,sans-Serif" font-size="10.00">System.IO.StreamWriter</text>
</a>
</g>
</g>
<!-- Node4&#45;&gt;Node4 -->
<g id="edge2" class="edge"><title>Node4&#45;&gt;Node4</title>
<path fill="none" stroke="#9a32cd" stroke-dasharray="5,2" d="M134.032,-13.8055C138.986,-12.9326 142,-11.6641 142,-10 142,-7.40234 134.655,-5.76866 124.055,-5.09895"/>
<polygon fill="#9a32cd" stroke="#9a32cd" points="133.613,-10.3304 124.055,-14.901 134.377,-17.2886 133.613,-10.3304"/>
<text text-anchor="middle" x="152" y="-7.5" font-family="Helvetica,sans-Serif" font-size="10.00"> Null</text>
</g>
<!-- Node5 -->
<g id="node2" class="node"><title>Node5</title>
<g id="a_node2"><a xlink:href="class_system_1_1_i_o_1_1_text_writer.html" target="_top" xlink:title="Represents a writer that can write a sequential series of characters. This class is abstract.">
<polygon fill="none" stroke="red" points="31,-57.5 31,-76.5 93,-76.5 93,-57.5 31,-57.5"/>
<text text-anchor="middle" x="62" y="-64.5" font-family="Helvetica,sans-Serif" font-size="10.00">TextWriter</text>
</a>
</g>
</g>
<!-- Node5&#45;&gt;Node4 -->
<g id="edge1" class="edge"><title>Node5&#45;&gt;Node4</title>
<path fill="none" stroke="midnightblue" d="M62,-47.1166C62,-37.8173 62,-27.0557 62,-19.7149"/>
<polygon fill="midnightblue" stroke="midnightblue" points="58.5001,-47.4062 62,-57.4063 65.5001,-47.4063 58.5001,-47.4062"/>
</g>
</g>
</svg>
