<?xml version="1.0" encoding="UTF-8" standalone="no"?>
<!DOCTYPE svg PUBLIC "-//W3C//DTD SVG 1.1//EN"
 "http://www.w3.org/Graphics/SVG/1.1/DTD/svg11.dtd">
<!-- Generated by graphviz version 2.38.0 (20140413.2041)
 -->
<!-- Title: System.ComponentModel.LocalizableAttribute Pages: 1 -->
<svg width="238pt" height="98pt"
 viewBox="0.00 0.00 238.00 98.00" xmlns="http://www.w3.org/2000/svg" xmlns:xlink="http://www.w3.org/1999/xlink">
<g id="graph0" class="graph" transform="scale(1 1) rotate(0) translate(4 94)">
<title>System.ComponentModel.LocalizableAttribute</title>
<!-- Node3 -->
<g id="node1" class="node"><title>Node3</title>
<g id="a_node1"><a xlink:title="Specifies whether a property should be localized. This class cannot be inherited.">
<polygon fill="#bfbfbf" stroke="black" points="0,-1.5 0,-31.5 181,-31.5 181,-1.5 0,-1.5"/>
<text text-anchor="start" x="8" y="-19.5" font-family="Helvetica,sans-Serif" font-size="10.00">System.ComponentModel.Localizable</text>
<text text-anchor="middle" x="90.5" y="-8.5" font-family="Helvetica,sans-Serif" font-size="10.00">Attribute</text>
</a>
</g>
</g>
<!-- Node3&#45;&gt;Node3 -->
<g id="edge2" class="edge"><title>Node3&#45;&gt;Node3</title>
<path fill="none" stroke="#9a32cd" stroke-dasharray="5,2" d="M191.174,-20.583C196.101,-19.5627 199,-18.2017 199,-16.5 199,-13.8438 191.936,-12.0176 181.12,-11.0215"/>
<polygon fill="#9a32cd" stroke="#9a32cd" points="190.544,-17.1368 181.12,-21.9785 191.506,-24.0703 190.544,-17.1368"/>
<text text-anchor="middle" x="214.5" y="-25" font-family="Helvetica,sans-Serif" font-size="10.00"> Yes</text>
<text text-anchor="middle" x="214.5" y="-14" font-family="Helvetica,sans-Serif" font-size="10.00">Default</text>
<text text-anchor="middle" x="214.5" y="-3" font-family="Helvetica,sans-Serif" font-size="10.00">No</text>
</g>
<!-- Node4 -->
<g id="node2" class="node"><title>Node4</title>
<g id="a_node2"><a xlink:href="class_system_1_1_attribute.html" target="_top" xlink:title="Represents the base class for custom attributes.">
<polygon fill="none" stroke="red" points="64,-70.5 64,-89.5 117,-89.5 117,-70.5 64,-70.5"/>
<text text-anchor="middle" x="90.5" y="-77.5" font-family="Helvetica,sans-Serif" font-size="10.00">Attribute</text>
</a>
</g>
</g>
<!-- Node4&#45;&gt;Node3 -->
<g id="edge1" class="edge"><title>Node4&#45;&gt;Node3</title>
<path fill="none" stroke="midnightblue" d="M90.5,-60.3344C90.5,-51.1126 90.5,-40.1664 90.5,-31.6479"/>
<polygon fill="midnightblue" stroke="midnightblue" points="87.0001,-60.4487 90.5,-70.4487 94.0001,-60.4487 87.0001,-60.4487"/>
</g>
</g>
</svg>
