<?xml version="1.0" encoding="UTF-8" standalone="no"?>
<!DOCTYPE svg PUBLIC "-//W3C//DTD SVG 1.1//EN"
 "http://www.w3.org/Graphics/SVG/1.1/DTD/svg11.dtd">
<!-- Generated by graphviz version 2.38.0 (20140413.2041)
 -->
<!-- Title: System.Diagnostics.TraceListenerCollection Pages: 1 -->
<svg width="154pt" height="207pt"
 viewBox="0.00 0.00 153.50 207.00" xmlns="http://www.w3.org/2000/svg" xmlns:xlink="http://www.w3.org/1999/xlink">
<g id="graph0" class="graph" transform="scale(1 1) rotate(0) translate(4 203)">
<title>System.Diagnostics.TraceListenerCollection</title>
<!-- Node4 -->
<g id="node1" class="node"><title>Node4</title>
<g id="a_node1"><a xlink:title="Provides a thread&#45;safe list of T:System.Diagnostics.TraceListener objects.">
<polygon fill="#bfbfbf" stroke="black" points="0,-0.5 0,-30.5 131,-30.5 131,-0.5 0,-0.5"/>
<text text-anchor="start" x="8" y="-18.5" font-family="Helvetica,sans-Serif" font-size="10.00">System.Diagnostics.Trace</text>
<text text-anchor="middle" x="65.5" y="-7.5" font-family="Helvetica,sans-Serif" font-size="10.00">ListenerCollection</text>
</a>
</g>
</g>
<!-- Node5 -->
<g id="node2" class="node"><title>Node5</title>
<g id="a_node2"><a xlink:href="interface_system_1_1_collections_1_1_i_list.html" target="_top" xlink:title="Represents a non&#45;generic collection of objects that can be individually accessed by index.">
<polygon fill="none" stroke="black" points="48,-67.5 48,-86.5 83,-86.5 83,-67.5 48,-67.5"/>
<text text-anchor="middle" x="65.5" y="-74.5" font-family="Helvetica,sans-Serif" font-size="10.00">IList</text>
</a>
</g>
</g>
<!-- Node5&#45;&gt;Node4 -->
<g id="edge1" class="edge"><title>Node5&#45;&gt;Node4</title>
<path fill="none" stroke="midnightblue" d="M65.5,-57.2349C65.5,-48.5864 65.5,-38.4969 65.5,-30.523"/>
<polygon fill="midnightblue" stroke="midnightblue" points="62.0001,-57.4751 65.5,-67.4751 69.0001,-57.4751 62.0001,-57.4751"/>
</g>
<!-- Node6 -->
<g id="node3" class="node"><title>Node6</title>
<g id="a_node3"><a xlink:href="interface_system_1_1_collections_1_1_i_collection.html" target="_top" xlink:title="Defines size, enumerators, and synchronization methods for all nongeneric collections.">
<polygon fill="none" stroke="black" points="83.5,-123.5 83.5,-142.5 145.5,-142.5 145.5,-123.5 83.5,-123.5"/>
<text text-anchor="middle" x="114.5" y="-130.5" font-family="Helvetica,sans-Serif" font-size="10.00">ICollection</text>
</a>
</g>
</g>
<!-- Node6&#45;&gt;Node4 -->
<g id="edge5" class="edge"><title>Node6&#45;&gt;Node4</title>
<path fill="none" stroke="midnightblue" d="M108.764,-113.709C104.457,-100.543 98.1756,-82.4531 91.5,-67 86.1033,-54.5075 78.9696,-40.8087 73.5399,-30.8344"/>
<polygon fill="midnightblue" stroke="midnightblue" points="105.498,-114.989 111.882,-123.445 112.165,-112.854 105.498,-114.989"/>
</g>
<!-- Node6&#45;&gt;Node5 -->
<g id="edge2" class="edge"><title>Node6&#45;&gt;Node5</title>
<path fill="none" stroke="midnightblue" d="M99.4655,-115.431C90.8778,-105.967 80.4565,-94.4827 73.4408,-86.7511"/>
<polygon fill="midnightblue" stroke="midnightblue" points="97.0967,-118.029 106.409,-123.083 102.281,-113.325 97.0967,-118.029"/>
</g>
<!-- Node7 -->
<g id="node4" class="node"><title>Node7</title>
<g id="a_node4"><a xlink:href="interface_system_1_1_collections_1_1_i_enumerable.html" target="_top" xlink:title="Exposes an enumerator, which supports a simple iteration over a non&#45;generic collection....">
<polygon fill="none" stroke="black" points="20,-179.5 20,-198.5 91,-198.5 91,-179.5 20,-179.5"/>
<text text-anchor="middle" x="55.5" y="-186.5" font-family="Helvetica,sans-Serif" font-size="10.00">IEnumerable</text>
</a>
</g>
</g>
<!-- Node7&#45;&gt;Node4 -->
<g id="edge6" class="edge"><title>Node7&#45;&gt;Node4</title>
<path fill="none" stroke="midnightblue" d="M48.6657,-169.855C40.6456,-145.987 29.5137,-102.867 38.5,-67 41.786,-53.8845 49.2008,-40.4518 55.4301,-30.7405"/>
<polygon fill="midnightblue" stroke="midnightblue" points="45.4012,-171.122 52.0482,-179.372 51.997,-168.777 45.4012,-171.122"/>
</g>
<!-- Node7&#45;&gt;Node5 -->
<g id="edge4" class="edge"><title>Node7&#45;&gt;Node5</title>
<path fill="none" stroke="midnightblue" d="M57.1956,-169.348C59.386,-145.254 63.1084,-104.308 64.719,-86.5914"/>
<polygon fill="midnightblue" stroke="midnightblue" points="53.7045,-169.093 56.2847,-179.368 60.6758,-169.726 53.7045,-169.093"/>
</g>
<!-- Node7&#45;&gt;Node6 -->
<g id="edge3" class="edge"><title>Node7&#45;&gt;Node6</title>
<path fill="none" stroke="midnightblue" d="M72.3945,-172.537C82.9145,-162.909 96.0687,-150.869 104.848,-142.834"/>
<polygon fill="midnightblue" stroke="midnightblue" points="69.9931,-169.99 64.9794,-179.324 74.7192,-175.154 69.9931,-169.99"/>
</g>
</g>
</svg>
