<?xml version="1.0" encoding="UTF-8" standalone="no"?>
<!DOCTYPE svg PUBLIC "-//W3C//DTD SVG 1.1//EN"
 "http://www.w3.org/Graphics/SVG/1.1/DTD/svg11.dtd">
<!-- Generated by graphviz version 2.38.0 (20140413.2041)
 -->
<!-- Title: System.Security.AccessControl.GenericAcl Pages: 1 -->
<svg width="344pt" height="218pt"
 viewBox="0.00 0.00 344.00 218.00" xmlns="http://www.w3.org/2000/svg" xmlns:xlink="http://www.w3.org/1999/xlink">
<g id="graph0" class="graph" transform="scale(1 1) rotate(0) translate(4 214)">
<title>System.Security.AccessControl.GenericAcl</title>
<!-- Node0 -->
<g id="node1" class="node"><title>Node0</title>
<g id="a_node1"><a xlink:title="Represents an access control list (ACL) and is the base class for the T:System.Security....">
<polygon fill="#bfbfbf" stroke="black" points="88,-67.5 88,-97.5 247,-97.5 247,-67.5 88,-67.5"/>
<text text-anchor="start" x="96" y="-85.5" font-family="Helvetica,sans-Serif" font-size="10.00">System.Security.AccessControl.</text>
<text text-anchor="middle" x="167.5" y="-74.5" font-family="Helvetica,sans-Serif" font-size="10.00">GenericAcl</text>
</a>
</g>
</g>
<!-- Node3 -->
<g id="node4" class="node"><title>Node3</title>
<g id="a_node4"><a xlink:href="class_system_1_1_security_1_1_access_control_1_1_common_acl.html" target="_top" xlink:title="Represents an access control list (ACL) and is the base class for the T:System.Security....">
<polygon fill="none" stroke="red" points="0,-0.5 0,-30.5 159,-30.5 159,-0.5 0,-0.5"/>
<text text-anchor="start" x="8" y="-18.5" font-family="Helvetica,sans-Serif" font-size="10.00">System.Security.AccessControl.</text>
<text text-anchor="middle" x="79.5" y="-7.5" font-family="Helvetica,sans-Serif" font-size="10.00">CommonAcl</text>
</a>
</g>
</g>
<!-- Node0&#45;&gt;Node3 -->
<g id="edge4" class="edge"><title>Node0&#45;&gt;Node3</title>
<path fill="none" stroke="midnightblue" d="M140.357,-61.4511C126.819,-51.4517 110.773,-39.5995 98.5574,-30.5765"/>
<polygon fill="midnightblue" stroke="midnightblue" points="138.282,-64.2699 148.405,-67.396 142.441,-58.6393 138.282,-64.2699"/>
</g>
<!-- Node6 -->
<g id="node5" class="node"><title>Node6</title>
<g id="a_node5"><a xlink:href="class_system_1_1_security_1_1_access_control_1_1_raw_acl.html" target="_top" xlink:title="Represents an Access Control List (ACL).">
<polygon fill="none" stroke="black" points="177,-0.5 177,-30.5 336,-30.5 336,-0.5 177,-0.5"/>
<text text-anchor="start" x="185" y="-18.5" font-family="Helvetica,sans-Serif" font-size="10.00">System.Security.AccessControl.</text>
<text text-anchor="middle" x="256.5" y="-7.5" font-family="Helvetica,sans-Serif" font-size="10.00">RawAcl</text>
</a>
</g>
</g>
<!-- Node0&#45;&gt;Node6 -->
<g id="edge5" class="edge"><title>Node0&#45;&gt;Node6</title>
<path fill="none" stroke="midnightblue" d="M194.952,-61.4511C208.643,-51.4517 224.871,-39.5995 237.226,-30.5765"/>
<polygon fill="midnightblue" stroke="midnightblue" points="192.823,-58.6716 186.812,-67.396 196.952,-64.3245 192.823,-58.6716"/>
</g>
<!-- Node1 -->
<g id="node2" class="node"><title>Node1</title>
<g id="a_node2"><a xlink:href="interface_system_1_1_collections_1_1_i_collection.html" target="_top" xlink:title="Defines size, enumerators, and synchronization methods for all nongeneric collections.">
<polygon fill="none" stroke="black" points="166.5,-134.5 166.5,-153.5 228.5,-153.5 228.5,-134.5 166.5,-134.5"/>
<text text-anchor="middle" x="197.5" y="-141.5" font-family="Helvetica,sans-Serif" font-size="10.00">ICollection</text>
</a>
</g>
</g>
<!-- Node1&#45;&gt;Node0 -->
<g id="edge1" class="edge"><title>Node1&#45;&gt;Node0</title>
<path fill="none" stroke="midnightblue" d="M188.622,-125.392C184.137,-116.498 178.772,-105.855 174.57,-97.523"/>
<polygon fill="midnightblue" stroke="midnightblue" points="185.574,-127.122 193.202,-134.475 191.825,-123.97 185.574,-127.122"/>
</g>
<!-- Node2 -->
<g id="node3" class="node"><title>Node2</title>
<g id="a_node3"><a xlink:href="interface_system_1_1_collections_1_1_i_enumerable.html" target="_top" xlink:title="Exposes an enumerator, which supports a simple iteration over a non&#45;generic collection....">
<polygon fill="none" stroke="black" points="132,-190.5 132,-209.5 203,-209.5 203,-190.5 132,-190.5"/>
<text text-anchor="middle" x="167.5" y="-197.5" font-family="Helvetica,sans-Serif" font-size="10.00">IEnumerable</text>
</a>
</g>
</g>
<!-- Node2&#45;&gt;Node0 -->
<g id="edge3" class="edge"><title>Node2&#45;&gt;Node0</title>
<path fill="none" stroke="midnightblue" d="M162.463,-180.625C160.492,-172.528 158.473,-162.86 157.5,-154 155.342,-134.339 159.788,-111.715 163.425,-97.512"/>
<polygon fill="midnightblue" stroke="midnightblue" points="159.117,-181.667 165.018,-190.467 165.893,-179.908 159.117,-181.667"/>
</g>
<!-- Node2&#45;&gt;Node1 -->
<g id="edge2" class="edge"><title>Node2&#45;&gt;Node1</title>
<path fill="none" stroke="midnightblue" d="M177.347,-181.275C182.475,-172.045 188.516,-161.17 192.638,-153.751"/>
<polygon fill="midnightblue" stroke="midnightblue" points="174.251,-179.642 172.454,-190.083 180.37,-183.041 174.251,-179.642"/>
</g>
</g>
</svg>
