<?xml version="1.0" encoding="UTF-8" standalone="no"?>
<!DOCTYPE svg PUBLIC "-//W3C//DTD SVG 1.1//EN"
 "http://www.w3.org/Graphics/SVG/1.1/DTD/svg11.dtd">
<!-- Generated by graphviz version 2.38.0 (20140413.2041)
 -->
<!-- Title: System.Deployment.Internal.Isolation.Manifest.MetadataSectionEntry Pages: 1 -->
<svg width="725pt" height="410pt"
 viewBox="0.00 0.00 725.00 409.62" xmlns="http://www.w3.org/2000/svg" xmlns:xlink="http://www.w3.org/1999/xlink">
<g id="graph0" class="graph" transform="scale(1 1) rotate(0) translate(4 405.622)">
<title>System.Deployment.Internal.Isolation.Manifest.MetadataSectionEntry</title>
<!-- Node2 -->
<g id="node1" class="node"><title>Node2</title>
<g id="a_node1"><a xlink:title=" ">
<polygon fill="#bfbfbf" stroke="black" points="525,-197.5 525,-227.5 717,-227.5 717,-197.5 525,-197.5"/>
<text text-anchor="start" x="533" y="-215.5" font-family="Helvetica,sans-Serif" font-size="10.00">System.Deployment.Internal.</text>
<text text-anchor="middle" x="621" y="-204.5" font-family="Helvetica,sans-Serif" font-size="10.00">Isolation.Manifest.MetadataSectionEntry</text>
</a>
</g>
</g>
<!-- Node3 -->
<g id="node2" class="node"><title>Node3</title>
<g id="a_node2"><a xlink:href="interface_system_1_1_i_disposable.html" target="_top" xlink:title="Provides a mechanism for releasing unmanaged resources.To browse the .NET Framework source code for t...">
<polygon fill="none" stroke="black" points="182.5,-377 182.5,-396 249.5,-396 249.5,-377 182.5,-377"/>
<text text-anchor="middle" x="216" y="-384" font-family="Helvetica,sans-Serif" font-size="10.00">IDisposable</text>
</a>
</g>
</g>
<!-- Node3&#45;&gt;Node2 -->
<g id="edge1" class="edge"><title>Node3&#45;&gt;Node2</title>
<path fill="none" stroke="midnightblue" d="M260.099,-394.439C319.648,-403.13 428.606,-410.647 507,-367.5 564.766,-335.707 600.772,-260.372 614.123,-227.868"/>
<polygon fill="midnightblue" stroke="midnightblue" points="260.341,-390.935 249.924,-392.872 259.275,-397.853 260.341,-390.935"/>
</g>
<!-- Node4 -->
<g id="node3" class="node"><title>Node4</title>
<g id="a_node3"><a xlink:href="interface_system_1_1_deployment_1_1_internal_1_1_isolation_1_1_i_reference_identity.html" target="_top" xlink:title=" ">
<polygon fill="none" stroke="black" points="144.5,-325.5 144.5,-355.5 287.5,-355.5 287.5,-325.5 144.5,-325.5"/>
<text text-anchor="start" x="152.5" y="-343.5" font-family="Helvetica,sans-Serif" font-size="10.00">System.Deployment.Internal.</text>
<text text-anchor="middle" x="216" y="-332.5" font-family="Helvetica,sans-Serif" font-size="10.00">Isolation.IReferenceIdentity</text>
</a>
</g>
</g>
<!-- Node4&#45;&gt;Node2 -->
<g id="edge2" class="edge"><title>Node4&#45;&gt;Node2</title>
<path fill="none" stroke="#9a32cd" stroke-dasharray="5,2" d="M297.753,-336.41C357.432,-331.139 439.665,-319.081 507,-291.5 544.878,-275.985 582.572,-245.949 603.427,-227.713"/>
<polygon fill="#9a32cd" stroke="#9a32cd" points="297.302,-332.935 287.63,-337.258 297.887,-339.911 297.302,-332.935"/>
<text text-anchor="start" x="344" y="-355.5" font-family="Helvetica,sans-Serif" font-size="10.00"> ResourceTypeManifestResources</text>
<text text-anchor="middle" x="425.5" y="-344.5" font-family="Helvetica,sans-Serif" font-size="10.00">Dependency</text>
<text text-anchor="middle" x="425.5" y="-333.5" font-family="Helvetica,sans-Serif" font-size="10.00">ResourceTypeResourcesDependency</text>
</g>
<!-- Node5 -->
<g id="node4" class="node"><title>Node5</title>
<g id="a_node4"><a xlink:href="interface_system_1_1_deployment_1_1_internal_1_1_isolation_1_1_i_definition_identity.html" target="_top" xlink:title=" ">
<polygon fill="none" stroke="black" points="144.5,-276.5 144.5,-306.5 287.5,-306.5 287.5,-276.5 144.5,-276.5"/>
<text text-anchor="start" x="152.5" y="-294.5" font-family="Helvetica,sans-Serif" font-size="10.00">System.Deployment.Internal.</text>
<text text-anchor="middle" x="216" y="-283.5" font-family="Helvetica,sans-Serif" font-size="10.00">Isolation.IDefinitionIdentity</text>
</a>
</g>
</g>
<!-- Node5&#45;&gt;Node2 -->
<g id="edge3" class="edge"><title>Node5&#45;&gt;Node2</title>
<path fill="none" stroke="#9a32cd" stroke-dasharray="5,2" d="M297.553,-283.089C356.114,-276.121 437.045,-264.718 507,-248.5 530.969,-242.943 557.183,-234.73 578.324,-227.551"/>
<polygon fill="#9a32cd" stroke="#9a32cd" points="297.144,-279.613 287.62,-284.254 297.96,-286.565 297.144,-279.613"/>
<text text-anchor="middle" x="425.5" y="-279.5" font-family="Helvetica,sans-Serif" font-size="10.00"> CdfIdentity</text>
</g>
<!-- Node6 -->
<g id="node5" class="node"><title>Node6</title>
<g id="a_node5"><a xlink:href="class_system_1_1_deployment_1_1_internal_1_1_isolation_1_1_manifest_1_1_dependent_o_s_metadata_entry.html" target="_top" xlink:title=" ">
<polygon fill="none" stroke="black" points="106,-227.5 106,-257.5 326,-257.5 326,-227.5 106,-227.5"/>
<text text-anchor="start" x="114" y="-245.5" font-family="Helvetica,sans-Serif" font-size="10.00">System.Deployment.Internal.</text>
<text text-anchor="middle" x="216" y="-234.5" font-family="Helvetica,sans-Serif" font-size="10.00">Isolation.Manifest.DependentOSMetadataEntry</text>
</a>
</g>
</g>
<!-- Node6&#45;&gt;Node2 -->
<g id="edge4" class="edge"><title>Node6&#45;&gt;Node2</title>
<path fill="none" stroke="#9a32cd" stroke-dasharray="5,2" d="M336.379,-233.613C396.56,-229.133 468.531,-223.776 524.914,-219.578"/>
<polygon fill="#9a32cd" stroke="#9a32cd" points="335.77,-230.149 326.058,-234.382 336.29,-237.129 335.77,-230.149"/>
<text text-anchor="middle" x="425.5" y="-236.5" font-family="Helvetica,sans-Serif" font-size="10.00"> DependentOSData</text>
</g>
<!-- Node7 -->
<g id="node6" class="node"><title>Node7</title>
<g id="a_node6"><a xlink:href="struct_system_1_1_int_ptr.html" target="_top" xlink:title="A platform&#45;specific type that is used to represent a pointer or a handle.">
<polygon fill="none" stroke="black" points="177.5,-160 177.5,-179 254.5,-179 254.5,-160 177.5,-160"/>
<text text-anchor="middle" x="216" y="-167" font-family="Helvetica,sans-Serif" font-size="10.00">System.IntPtr</text>
</a>
</g>
</g>
<!-- Node7&#45;&gt;Node2 -->
<g id="edge5" class="edge"><title>Node7&#45;&gt;Node2</title>
<path fill="none" stroke="#9a32cd" stroke-dasharray="5,2" d="M264.863,-172.908C322.433,-177.211 421.952,-185.299 507,-195.5 512.811,-196.197 518.783,-196.959 524.802,-197.762"/>
<polygon fill="#9a32cd" stroke="#9a32cd" points="264.846,-169.397 254.615,-172.149 264.329,-176.378 264.846,-169.397"/>
<text text-anchor="middle" x="425.5" y="-209.5" font-family="Helvetica,sans-Serif" font-size="10.00"> ManifestHash</text>
<text text-anchor="middle" x="425.5" y="-198.5" font-family="Helvetica,sans-Serif" font-size="10.00">MvidValue</text>
</g>
<!-- Node7&#45;&gt;Node7 -->
<g id="edge7" class="edge"><title>Node7&#45;&gt;Node7</title>
<path fill="none" stroke="#9a32cd" stroke-dasharray="5,2" d="M192.191,-188.529C193.489,-193.628 201.426,-197.5 216,-197.5 238.75,-197.5 245.326,-188.065 235.729,-179.257"/>
<polygon fill="#9a32cd" stroke="#9a32cd" points="195.447,-189.82 196.271,-179.257 189.04,-187 195.447,-189.82"/>
<text text-anchor="middle" x="216" y="-200.5" font-family="Helvetica,sans-Serif" font-size="10.00"> Zero</text>
</g>
<!-- Node8 -->
<g id="node7" class="node"><title>Node8</title>
<g id="a_node7"><a xlink:href="interface_system_1_1_runtime_1_1_serialization_1_1_i_serializable.html" target="_top" xlink:title="Allows an object to control its own serialization and deserialization.">
<polygon fill="none" stroke="black" points="0,-160 0,-179 69,-179 69,-160 0,-160"/>
<text text-anchor="middle" x="34.5" y="-167" font-family="Helvetica,sans-Serif" font-size="10.00">ISerializable</text>
</a>
</g>
</g>
<!-- Node8&#45;&gt;Node7 -->
<g id="edge6" class="edge"><title>Node8&#45;&gt;Node7</title>
<path fill="none" stroke="midnightblue" d="M79.4538,-169.5C109.459,-169.5 148.793,-169.5 177.356,-169.5"/>
<polygon fill="midnightblue" stroke="midnightblue" points="79.2626,-166 69.2626,-169.5 79.2625,-173 79.2626,-166"/>
</g>
<!-- Node9 -->
<g id="node8" class="node"><title>Node9</title>
<g id="a_node8"><a xlink:href="class_system_1_1_deployment_1_1_internal_1_1_isolation_1_1_manifest_1_1_description_metadata_entry.html" target="_top" xlink:title=" ">
<polygon fill="none" stroke="black" points="112,-110.5 112,-140.5 320,-140.5 320,-110.5 112,-110.5"/>
<text text-anchor="start" x="120" y="-128.5" font-family="Helvetica,sans-Serif" font-size="10.00">System.Deployment.Internal.</text>
<text text-anchor="middle" x="216" y="-117.5" font-family="Helvetica,sans-Serif" font-size="10.00">Isolation.Manifest.DescriptionMetadataEntry</text>
</a>
</g>
</g>
<!-- Node9&#45;&gt;Node2 -->
<g id="edge8" class="edge"><title>Node9&#45;&gt;Node2</title>
<path fill="none" stroke="#9a32cd" stroke-dasharray="5,2" d="M330.267,-134.307C384.413,-140.238 449.752,-149.926 507,-165.5 535.908,-173.364 567.252,-186.823 589.579,-197.329"/>
<polygon fill="#9a32cd" stroke="#9a32cd" points="330.606,-130.823 320.291,-133.242 329.863,-137.783 330.606,-130.823"/>
<text text-anchor="middle" x="425.5" y="-168.5" font-family="Helvetica,sans-Serif" font-size="10.00"> DescriptionData</text>
</g>
<!-- Node10 -->
<g id="node9" class="node"><title>Node10</title>
<g id="a_node9"><a xlink:href="class_system_1_1_deployment_1_1_internal_1_1_isolation_1_1_manifest_1_1_compatible_frameworks_metadata_entry.html" target="_top" xlink:title=" ">
<polygon fill="none" stroke="black" points="117.5,-50 117.5,-91 314.5,-91 314.5,-50 117.5,-50"/>
<text text-anchor="start" x="125.5" y="-79" font-family="Helvetica,sans-Serif" font-size="10.00">System.Deployment.Internal.</text>
<text text-anchor="start" x="125.5" y="-68" font-family="Helvetica,sans-Serif" font-size="10.00">Isolation.Manifest.CompatibleFrameworks</text>
<text text-anchor="middle" x="216" y="-57" font-family="Helvetica,sans-Serif" font-size="10.00">MetadataEntry</text>
</a>
</g>
</g>
<!-- Node10&#45;&gt;Node2 -->
<g id="edge9" class="edge"><title>Node10&#45;&gt;Node2</title>
<path fill="none" stroke="#9a32cd" stroke-dasharray="5,2" d="M324.58,-77.0751C380.905,-83.6183 449.852,-96.6355 507,-122.5 547.443,-140.804 585.979,-176.821 605.913,-197.307"/>
<polygon fill="#9a32cd" stroke="#9a32cd" points="324.901,-73.5893 314.576,-75.9651 324.129,-80.5466 324.901,-73.5893"/>
<text text-anchor="middle" x="425.5" y="-125.5" font-family="Helvetica,sans-Serif" font-size="10.00"> CompatibleFrameworksData</text>
</g>
<!-- Node11 -->
<g id="node10" class="node"><title>Node11</title>
<g id="a_node10"><a xlink:href="class_system_1_1_deployment_1_1_internal_1_1_isolation_1_1_manifest_1_1_deployment_metadata_entry.html" target="_top" xlink:title=" ">
<polygon fill="none" stroke="black" points="110.5,-0.5 110.5,-30.5 321.5,-30.5 321.5,-0.5 110.5,-0.5"/>
<text text-anchor="start" x="118.5" y="-18.5" font-family="Helvetica,sans-Serif" font-size="10.00">System.Deployment.Internal.</text>
<text text-anchor="middle" x="216" y="-7.5" font-family="Helvetica,sans-Serif" font-size="10.00">Isolation.Manifest.DeploymentMetadataEntry</text>
</a>
</g>
</g>
<!-- Node11&#45;&gt;Node2 -->
<g id="edge10" class="edge"><title>Node11&#45;&gt;Node2</title>
<path fill="none" stroke="#9a32cd" stroke-dasharray="5,2" d="M331.742,-16.0679C387.991,-20.9439 454.701,-33.9307 507,-65.5 561.014,-98.1045 598.558,-166.952 613.189,-197.433"/>
<polygon fill="#9a32cd" stroke="#9a32cd" points="331.973,-12.5753 321.728,-15.275 331.421,-19.5535 331.973,-12.5753"/>
<text text-anchor="middle" x="425.5" y="-68.5" font-family="Helvetica,sans-Serif" font-size="10.00"> DeploymentData</text>
</g>
</g>
</svg>
