<?xml version="1.0" encoding="UTF-8" standalone="no"?>
<!DOCTYPE svg PUBLIC "-//W3C//DTD SVG 1.1//EN"
 "http://www.w3.org/Graphics/SVG/1.1/DTD/svg11.dtd">
<!-- Generated by graphviz version 2.38.0 (20140413.2041)
 -->
<!-- Title: System.Reflection.RuntimeEventInfo Pages: 1 -->
<svg width="285pt" height="207pt"
 viewBox="0.00 0.00 284.50 207.00" xmlns="http://www.w3.org/2000/svg" xmlns:xlink="http://www.w3.org/1999/xlink">
<g id="graph0" class="graph" transform="scale(1 1) rotate(0) translate(4 203)">
<title>System.Reflection.RuntimeEventInfo</title>
<!-- Node0 -->
<g id="node1" class="node"><title>Node0</title>
<g id="a_node1"><a xlink:title=" ">
<polygon fill="#bfbfbf" stroke="black" points="133.5,-0.5 133.5,-30.5 268.5,-30.5 268.5,-0.5 133.5,-0.5"/>
<text text-anchor="start" x="141.5" y="-18.5" font-family="Helvetica,sans-Serif" font-size="10.00">System.Reflection.Runtime</text>
<text text-anchor="middle" x="201" y="-7.5" font-family="Helvetica,sans-Serif" font-size="10.00">EventInfo</text>
</a>
</g>
</g>
<!-- Node1 -->
<g id="node2" class="node"><title>Node1</title>
<g id="a_node2"><a xlink:href="class_system_1_1_reflection_1_1_event_info.html" target="_top" xlink:title="Discovers the attributes of an event and provides access to event metadata.">
<polygon fill="none" stroke="black" points="133,-67.5 133,-86.5 189,-86.5 189,-67.5 133,-67.5"/>
<text text-anchor="middle" x="161" y="-74.5" font-family="Helvetica,sans-Serif" font-size="10.00">EventInfo</text>
</a>
</g>
</g>
<!-- Node1&#45;&gt;Node0 -->
<g id="edge1" class="edge"><title>Node1&#45;&gt;Node0</title>
<path fill="none" stroke="midnightblue" d="M172.453,-58.9634C178.508,-49.9564 185.851,-39.0344 191.573,-30.523"/>
<polygon fill="midnightblue" stroke="midnightblue" points="169.406,-57.2234 166.731,-67.4751 175.215,-61.1288 169.406,-57.2234"/>
</g>
<!-- Node2 -->
<g id="node3" class="node"><title>Node2</title>
<g id="a_node3"><a xlink:href="class_system_1_1_reflection_1_1_member_info.html" target="_top" xlink:title="Obtains information about the attributes of a member and provides access to member metadata.">
<polygon fill="none" stroke="black" points="86.5,-123.5 86.5,-142.5 153.5,-142.5 153.5,-123.5 86.5,-123.5"/>
<text text-anchor="middle" x="120" y="-130.5" font-family="Helvetica,sans-Serif" font-size="10.00">MemberInfo</text>
</a>
</g>
</g>
<!-- Node2&#45;&gt;Node1 -->
<g id="edge2" class="edge"><title>Node2&#45;&gt;Node1</title>
<path fill="none" stroke="midnightblue" d="M133.017,-114.855C140.117,-105.505 148.604,-94.3265 154.356,-86.7511"/>
<polygon fill="midnightblue" stroke="midnightblue" points="130.03,-113.002 126.77,-123.083 135.605,-117.235 130.03,-113.002"/>
</g>
<!-- Node3 -->
<g id="node4" class="node"><title>Node3</title>
<g id="a_node4"><a xlink:href="interface_system_1_1_reflection_1_1_i_custom_attribute_provider.html" target="_top" xlink:title="Provides custom attributes for reflection objects that support them.">
<polygon fill="none" stroke="black" points="0,-179.5 0,-198.5 124,-198.5 124,-179.5 0,-179.5"/>
<text text-anchor="middle" x="62" y="-186.5" font-family="Helvetica,sans-Serif" font-size="10.00">ICustomAttributeProvider</text>
</a>
</g>
</g>
<!-- Node3&#45;&gt;Node2 -->
<g id="edge3" class="edge"><title>Node3&#45;&gt;Node2</title>
<path fill="none" stroke="midnightblue" d="M78.9131,-172.253C89.203,-162.673 101.966,-150.791 110.512,-142.834"/>
<polygon fill="midnightblue" stroke="midnightblue" points="76.2527,-169.948 71.3187,-179.324 81.0226,-175.071 76.2527,-169.948"/>
</g>
<!-- Node4 -->
<g id="node5" class="node"><title>Node4</title>
<g id="a_node5"><a xlink:href="interface_system_1_1_runtime_1_1_interop_services_1_1___member_info.html" target="_top" xlink:title="Exposes the public members of the T:System.Reflection.MemberInfo class to unmanaged code.">
<polygon fill="none" stroke="black" points="142,-179.5 142,-198.5 214,-198.5 214,-179.5 142,-179.5"/>
<text text-anchor="middle" x="178" y="-186.5" font-family="Helvetica,sans-Serif" font-size="10.00">_MemberInfo</text>
</a>
</g>
</g>
<!-- Node4&#45;&gt;Node2 -->
<g id="edge4" class="edge"><title>Node4&#45;&gt;Node2</title>
<path fill="none" stroke="midnightblue" d="M161.087,-172.253C150.797,-162.673 138.034,-150.791 129.488,-142.834"/>
<polygon fill="midnightblue" stroke="midnightblue" points="158.977,-175.071 168.681,-179.324 163.747,-169.948 158.977,-175.071"/>
</g>
<!-- Node5 -->
<g id="node6" class="node"><title>Node5</title>
<g id="a_node6"><a xlink:href="interface_system_1_1_runtime_1_1_interop_services_1_1___event_info.html" target="_top" xlink:title="Exposes the public members of the T:System.Reflection.EventInfo class to unmanaged code.">
<polygon fill="none" stroke="black" points="171.5,-123.5 171.5,-142.5 232.5,-142.5 232.5,-123.5 171.5,-123.5"/>
<text text-anchor="middle" x="202" y="-130.5" font-family="Helvetica,sans-Serif" font-size="10.00">_EventInfo</text>
</a>
</g>
</g>
<!-- Node5&#45;&gt;Node1 -->
<g id="edge5" class="edge"><title>Node5&#45;&gt;Node1</title>
<path fill="none" stroke="midnightblue" d="M188.983,-114.855C181.883,-105.505 173.396,-94.3265 167.644,-86.7511"/>
<polygon fill="midnightblue" stroke="midnightblue" points="186.395,-117.235 195.23,-123.083 191.97,-113.002 186.395,-117.235"/>
</g>
<!-- Node6 -->
<g id="node7" class="node"><title>Node6</title>
<g id="a_node7"><a xlink:href="interface_system_1_1_runtime_1_1_serialization_1_1_i_serializable.html" target="_top" xlink:title="Allows an object to control its own serialization and deserialization.">
<polygon fill="none" stroke="black" points="207.5,-67.5 207.5,-86.5 276.5,-86.5 276.5,-67.5 207.5,-67.5"/>
<text text-anchor="middle" x="242" y="-74.5" font-family="Helvetica,sans-Serif" font-size="10.00">ISerializable</text>
</a>
</g>
</g>
<!-- Node6&#45;&gt;Node0 -->
<g id="edge6" class="edge"><title>Node6&#45;&gt;Node0</title>
<path fill="none" stroke="midnightblue" d="M230.26,-58.9634C224.054,-49.9564 216.528,-39.0344 210.663,-30.523"/>
<polygon fill="midnightblue" stroke="midnightblue" points="227.57,-61.2267 236.126,-67.4751 233.334,-57.2548 227.57,-61.2267"/>
</g>
</g>
</svg>
