<?xml version="1.0" encoding="UTF-8" standalone="no"?>
<!DOCTYPE svg PUBLIC "-//W3C//DTD SVG 1.1//EN"
 "http://www.w3.org/Graphics/SVG/1.1/DTD/svg11.dtd">
<!-- Generated by graphviz version 2.38.0 (20140413.2041)
 -->
<!-- Title: System.Xml.Serialization.XmlSerializationGeneratedCode Pages: 1 -->
<svg width="325pt" height="88pt"
 viewBox="0.00 0.00 325.00 88.00" xmlns="http://www.w3.org/2000/svg" xmlns:xlink="http://www.w3.org/1999/xlink">
<g id="graph0" class="graph" transform="scale(1 1) rotate(0) translate(4 84)">
<title>System.Xml.Serialization.XmlSerializationGeneratedCode</title>
<!-- Node0 -->
<g id="node1" class="node"><title>Node0</title>
<g id="a_node1"><a xlink:title="An abstract class that is the base class for T:System.Xml.Serialization.XmlSerializationReader and T:...">
<polygon fill="#bfbfbf" stroke="black" points="0,-24.5 0,-54.5 153,-54.5 153,-24.5 0,-24.5"/>
<text text-anchor="start" x="8" y="-42.5" font-family="Helvetica,sans-Serif" font-size="10.00">System.Xml.Serialization.</text>
<text text-anchor="middle" x="76.5" y="-31.5" font-family="Helvetica,sans-Serif" font-size="10.00">XmlSerializationGeneratedCode</text>
</a>
</g>
</g>
<!-- Node1 -->
<g id="node2" class="node"><title>Node1</title>
<g id="a_node2"><a xlink:href="class_system_1_1_xml_1_1_serialization_1_1_xml_serialization_reader.html" target="_top" xlink:title="Controls deserialization by the T:System.Xml.Serialization.XmlSerializer class.">
<polygon fill="none" stroke="black" points="189,-49.5 189,-79.5 317,-79.5 317,-49.5 189,-49.5"/>
<text text-anchor="start" x="197" y="-67.5" font-family="Helvetica,sans-Serif" font-size="10.00">System.Xml.Serialization.</text>
<text text-anchor="middle" x="253" y="-56.5" font-family="Helvetica,sans-Serif" font-size="10.00">XmlSerializationReader</text>
</a>
</g>
</g>
<!-- Node0&#45;&gt;Node1 -->
<g id="edge1" class="edge"><title>Node0&#45;&gt;Node1</title>
<path fill="none" stroke="midnightblue" d="M163.177,-51.7747C171.853,-53.0176 180.549,-54.2634 188.922,-55.4631"/>
<polygon fill="midnightblue" stroke="midnightblue" points="163.419,-48.2736 153.023,-50.32 162.426,-55.2029 163.419,-48.2736"/>
</g>
<!-- Node2 -->
<g id="node3" class="node"><title>Node2</title>
<g id="a_node3"><a xlink:href="class_system_1_1_xml_1_1_serialization_1_1_xml_serialization_writer.html" target="_top" xlink:title="Represents an abstract class used for controlling serialization by the T:System.Xml....">
<polygon fill="none" stroke="black" points="189,-0.5 189,-30.5 317,-30.5 317,-0.5 189,-0.5"/>
<text text-anchor="start" x="197" y="-18.5" font-family="Helvetica,sans-Serif" font-size="10.00">System.Xml.Serialization.</text>
<text text-anchor="middle" x="253" y="-7.5" font-family="Helvetica,sans-Serif" font-size="10.00">XmlSerializationWriter</text>
</a>
</g>
</g>
<!-- Node0&#45;&gt;Node2 -->
<g id="edge2" class="edge"><title>Node0&#45;&gt;Node2</title>
<path fill="none" stroke="midnightblue" d="M163.177,-27.7163C171.853,-26.5231 180.549,-25.3271 188.922,-24.1754"/>
<polygon fill="midnightblue" stroke="midnightblue" points="162.453,-24.2829 153.023,-29.1128 163.407,-31.2176 162.453,-24.2829"/>
</g>
</g>
</svg>
