<?xml version="1.0" encoding="UTF-8" standalone="no"?>
<!DOCTYPE svg PUBLIC "-//W3C//DTD SVG 1.1//EN"
 "http://www.w3.org/Graphics/SVG/1.1/DTD/svg11.dtd">
<!-- Generated by graphviz version 2.38.0 (20140413.2041)
 -->
<!-- Title: System.Runtime.Remoting.Activation.LocalActivator Pages: 1 -->
<svg width="278pt" height="207pt"
 viewBox="0.00 0.00 278.00 207.00" xmlns="http://www.w3.org/2000/svg" xmlns:xlink="http://www.w3.org/1999/xlink">
<g id="graph0" class="graph" transform="scale(1 1) rotate(0) translate(4 203)">
<title>System.Runtime.Remoting.Activation.LocalActivator</title>
<!-- Node0 -->
<g id="node1" class="node"><title>Node0</title>
<g id="a_node1"><a xlink:title=" ">
<polygon fill="#bfbfbf" stroke="black" points="95,-0.5 95,-30.5 232,-30.5 232,-0.5 95,-0.5"/>
<text text-anchor="start" x="103" y="-18.5" font-family="Helvetica,sans-Serif" font-size="10.00">System.Runtime.Remoting.</text>
<text text-anchor="middle" x="163.5" y="-7.5" font-family="Helvetica,sans-Serif" font-size="10.00">Activation.LocalActivator</text>
</a>
</g>
</g>
<!-- Node1 -->
<g id="node2" class="node"><title>Node1</title>
<g id="a_node2"><a xlink:href="class_system_1_1_runtime_1_1_remoting_1_1_contexts_1_1_context_attribute.html" target="_top" xlink:title="Provides the default implementations of the T:System.Runtime.Remoting.Contexts.IContextAttribute and ...">
<polygon fill="none" stroke="black" points="75,-67.5 75,-86.5 162,-86.5 162,-67.5 75,-67.5"/>
<text text-anchor="middle" x="118.5" y="-74.5" font-family="Helvetica,sans-Serif" font-size="10.00">ContextAttribute</text>
</a>
</g>
</g>
<!-- Node1&#45;&gt;Node0 -->
<g id="edge1" class="edge"><title>Node1&#45;&gt;Node0</title>
<path fill="none" stroke="midnightblue" d="M131.17,-59.2472C138.023,-50.1866 146.389,-39.124 152.894,-30.523"/>
<polygon fill="midnightblue" stroke="midnightblue" points="128.188,-57.388 124.947,-67.4751 133.771,-61.6105 128.188,-57.388"/>
</g>
<!-- Node2 -->
<g id="node3" class="node"><title>Node2</title>
<g id="a_node3"><a xlink:href="class_system_1_1_attribute.html" target="_top" xlink:title="Represents the base class for custom attributes.">
<polygon fill="none" stroke="black" points="3,-123.5 3,-142.5 56,-142.5 56,-123.5 3,-123.5"/>
<text text-anchor="middle" x="29.5" y="-130.5" font-family="Helvetica,sans-Serif" font-size="10.00">Attribute</text>
</a>
</g>
</g>
<!-- Node2&#45;&gt;Node1 -->
<g id="edge2" class="edge"><title>Node2&#45;&gt;Node1</title>
<path fill="none" stroke="midnightblue" d="M52.738,-117.901C69.0578,-107.999 90.3652,-95.0705 104.236,-86.6545"/>
<polygon fill="midnightblue" stroke="midnightblue" points="50.5332,-115.144 43.7994,-123.324 54.1644,-121.129 50.5332,-115.144"/>
</g>
<!-- Node3 -->
<g id="node4" class="node"><title>Node3</title>
<g id="a_node4"><a xlink:href="interface_system_1_1_runtime_1_1_interop_services_1_1___attribute.html" target="_top" xlink:title="Exposes the T:System.Attribute class to unmanaged code.">
<polygon fill="none" stroke="black" points="0,-179.5 0,-198.5 59,-198.5 59,-179.5 0,-179.5"/>
<text text-anchor="middle" x="29.5" y="-186.5" font-family="Helvetica,sans-Serif" font-size="10.00">_Attribute</text>
</a>
</g>
</g>
<!-- Node3&#45;&gt;Node2 -->
<g id="edge3" class="edge"><title>Node3&#45;&gt;Node2</title>
<path fill="none" stroke="midnightblue" d="M29.5,-168.805C29.5,-159.91 29.5,-149.78 29.5,-142.751"/>
<polygon fill="midnightblue" stroke="midnightblue" points="26.0001,-169.083 29.5,-179.083 33.0001,-169.083 26.0001,-169.083"/>
</g>
<!-- Node4 -->
<g id="node5" class="node"><title>Node4</title>
<g id="a_node5"><a xlink:href="interface_system_1_1_runtime_1_1_remoting_1_1_contexts_1_1_i_context_attribute.html" target="_top" xlink:title="Identifies a context attribute.">
<polygon fill="none" stroke="black" points="74,-123.5 74,-142.5 163,-142.5 163,-123.5 74,-123.5"/>
<text text-anchor="middle" x="118.5" y="-130.5" font-family="Helvetica,sans-Serif" font-size="10.00">IContextAttribute</text>
</a>
</g>
</g>
<!-- Node4&#45;&gt;Node1 -->
<g id="edge4" class="edge"><title>Node4&#45;&gt;Node1</title>
<path fill="none" stroke="midnightblue" d="M118.5,-112.805C118.5,-103.91 118.5,-93.7798 118.5,-86.7511"/>
<polygon fill="midnightblue" stroke="midnightblue" points="115,-113.083 118.5,-123.083 122,-113.083 115,-113.083"/>
</g>
<!-- Node5 -->
<g id="node6" class="node"><title>Node5</title>
<g id="a_node6"><a xlink:href="interface_system_1_1_runtime_1_1_remoting_1_1_contexts_1_1_i_context_property.html" target="_top" xlink:title="Gathers naming information from the context property and determines whether the new context is ok for...">
<polygon fill="none" stroke="black" points="181,-123.5 181,-142.5 270,-142.5 270,-123.5 181,-123.5"/>
<text text-anchor="middle" x="225.5" y="-130.5" font-family="Helvetica,sans-Serif" font-size="10.00">IContextProperty</text>
</a>
</g>
</g>
<!-- Node5&#45;&gt;Node1 -->
<g id="edge5" class="edge"><title>Node5&#45;&gt;Node1</title>
<path fill="none" stroke="midnightblue" d="M199.198,-118.726C179.385,-108.727 152.793,-95.3065 135.649,-86.6545"/>
<polygon fill="midnightblue" stroke="midnightblue" points="197.804,-121.943 208.309,-123.324 200.958,-115.694 197.804,-121.943"/>
</g>
<!-- Node6 -->
<g id="node7" class="node"><title>Node6</title>
<g id="a_node7"><a xlink:href="interface_system_1_1_runtime_1_1_remoting_1_1_activation_1_1_i_activator.html" target="_top" xlink:title="Provides the basic functionality for a remoting activator class.">
<polygon fill="none" stroke="black" points="180.5,-67.5 180.5,-86.5 236.5,-86.5 236.5,-67.5 180.5,-67.5"/>
<text text-anchor="middle" x="208.5" y="-74.5" font-family="Helvetica,sans-Serif" font-size="10.00">IActivator</text>
</a>
</g>
</g>
<!-- Node6&#45;&gt;Node0 -->
<g id="edge6" class="edge"><title>Node6&#45;&gt;Node0</title>
<path fill="none" stroke="midnightblue" d="M195.83,-59.2472C188.977,-50.1866 180.611,-39.124 174.106,-30.523"/>
<polygon fill="midnightblue" stroke="midnightblue" points="193.229,-61.6105 202.053,-67.4751 198.812,-57.388 193.229,-61.6105"/>
</g>
</g>
</svg>
