<?xml version="1.0" encoding="UTF-8" standalone="no"?>
<!DOCTYPE svg PUBLIC "-//W3C//DTD SVG 1.1//EN"
 "http://www.w3.org/Graphics/SVG/1.1/DTD/svg11.dtd">
<!-- Generated by graphviz version 2.38.0 (20140413.2041)
 -->
<!-- Title: System.Configuration.LocalFileSettingsProvider Pages: 1 -->
<svg width="250pt" height="95pt"
 viewBox="0.00 0.00 250.00 95.00" xmlns="http://www.w3.org/2000/svg" xmlns:xlink="http://www.w3.org/1999/xlink">
<g id="graph0" class="graph" transform="scale(1 1) rotate(0) translate(4 91)">
<title>System.Configuration.LocalFileSettingsProvider</title>
<!-- Node3 -->
<g id="node1" class="node"><title>Node3</title>
<g id="a_node1"><a xlink:title="Provides persistence for application settings classes.">
<polygon fill="#bfbfbf" stroke="black" points="40.5,-0.5 40.5,-30.5 176.5,-30.5 176.5,-0.5 40.5,-0.5"/>
<text text-anchor="start" x="48.5" y="-18.5" font-family="Helvetica,sans-Serif" font-size="10.00">System.Configuration.Local</text>
<text text-anchor="middle" x="108.5" y="-7.5" font-family="Helvetica,sans-Serif" font-size="10.00">FileSettingsProvider</text>
</a>
</g>
</g>
<!-- Node4 -->
<g id="node2" class="node"><title>Node4</title>
<g id="a_node2"><a xlink:href="class_system_1_1_configuration_1_1_settings_provider.html" target="_top" xlink:title="Acts as a base class for deriving custom settings providers in the application settings architecture.">
<polygon fill="none" stroke="black" points="0,-67.5 0,-86.5 87,-86.5 87,-67.5 0,-67.5"/>
<text text-anchor="middle" x="43.5" y="-74.5" font-family="Helvetica,sans-Serif" font-size="10.00">SettingsProvider</text>
</a>
</g>
</g>
<!-- Node4&#45;&gt;Node3 -->
<g id="edge1" class="edge"><title>Node4&#45;&gt;Node3</title>
<path fill="none" stroke="midnightblue" d="M60.2733,-60.6459C70.4334,-51.3456 83.2953,-39.572 93.1808,-30.523"/>
<polygon fill="midnightblue" stroke="midnightblue" points="57.8259,-58.1413 52.8129,-67.4751 62.5524,-63.3047 57.8259,-58.1413"/>
</g>
<!-- Node5 -->
<g id="node3" class="node"><title>Node5</title>
<g id="a_node3"><a xlink:href="interface_system_1_1_configuration_1_1_i_application_settings_provider.html" target="_top" xlink:title="Defines extended capabilities for client&#45;based application settings providers.">
<polygon fill="none" stroke="black" points="105,-67.5 105,-86.5 242,-86.5 242,-67.5 105,-67.5"/>
<text text-anchor="middle" x="173.5" y="-74.5" font-family="Helvetica,sans-Serif" font-size="10.00">IApplicationSettingsProvider</text>
</a>
</g>
</g>
<!-- Node5&#45;&gt;Node3 -->
<g id="edge2" class="edge"><title>Node5&#45;&gt;Node3</title>
<path fill="none" stroke="midnightblue" d="M156.727,-60.6459C146.567,-51.3456 133.705,-39.572 123.819,-30.523"/>
<polygon fill="midnightblue" stroke="midnightblue" points="154.448,-63.3047 164.187,-67.4751 159.174,-58.1413 154.448,-63.3047"/>
</g>
</g>
</svg>
