<?xml version="1.0" encoding="UTF-8" standalone="no"?>
<!DOCTYPE svg PUBLIC "-//W3C//DTD SVG 1.1//EN"
 "http://www.w3.org/Graphics/SVG/1.1/DTD/svg11.dtd">
<!-- Generated by graphviz version 2.38.0 (20140413.2041)
 -->
<!-- Title: System.Net.Mail.SmtpFailedRecipientException Pages: 1 -->
<svg width="156pt" height="151pt"
 viewBox="0.00 0.00 155.50 151.00" xmlns="http://www.w3.org/2000/svg" xmlns:xlink="http://www.w3.org/1999/xlink">
<g id="graph0" class="graph" transform="scale(1 1) rotate(0) translate(4 147)">
<title>System.Net.Mail.SmtpFailedRecipientException</title>
<!-- Node6 -->
<g id="node1" class="node"><title>Node6</title>
<g id="a_node1"><a xlink:title="Represents the exception that is thrown when the T:System.Net.Mail.SmtpClient is not able to complete...">
<polygon fill="#bfbfbf" stroke="black" points="0,-0.5 0,-30.5 142,-30.5 142,-0.5 0,-0.5"/>
<text text-anchor="start" x="8" y="-18.5" font-family="Helvetica,sans-Serif" font-size="10.00">System.Net.Mail.SmtpFailed</text>
<text text-anchor="middle" x="71" y="-7.5" font-family="Helvetica,sans-Serif" font-size="10.00">RecipientException</text>
</a>
</g>
</g>
<!-- Node7 -->
<g id="node2" class="node"><title>Node7</title>
<g id="a_node2"><a xlink:href="class_system_1_1_net_1_1_mail_1_1_smtp_exception.html" target="_top" xlink:title="Represents the exception that is thrown when the T:System.Net.Mail.SmtpClient is not able to complete...">
<polygon fill="none" stroke="red" points="64.5,-67.5 64.5,-86.5 147.5,-86.5 147.5,-67.5 64.5,-67.5"/>
<text text-anchor="middle" x="106" y="-74.5" font-family="Helvetica,sans-Serif" font-size="10.00">SmtpException</text>
</a>
</g>
</g>
<!-- Node7&#45;&gt;Node6 -->
<g id="edge1" class="edge"><title>Node7&#45;&gt;Node6</title>
<path fill="none" stroke="midnightblue" d="M95.8108,-58.6783C90.5451,-49.7267 84.2029,-38.9448 79.2488,-30.523"/>
<polygon fill="midnightblue" stroke="midnightblue" points="92.8983,-60.6303 100.985,-67.4751 98.9319,-57.0812 92.8983,-60.6303"/>
</g>
<!-- Node9 -->
<g id="node3" class="node"><title>Node9</title>
<g id="a_node3"><a xlink:href="interface_system_1_1_runtime_1_1_serialization_1_1_i_serializable.html" target="_top" xlink:title="Allows an object to control its own serialization and deserialization.">
<polygon fill="none" stroke="black" points="36.5,-123.5 36.5,-142.5 105.5,-142.5 105.5,-123.5 36.5,-123.5"/>
<text text-anchor="middle" x="71" y="-130.5" font-family="Helvetica,sans-Serif" font-size="10.00">ISerializable</text>
</a>
</g>
</g>
<!-- Node9&#45;&gt;Node6 -->
<g id="edge3" class="edge"><title>Node9&#45;&gt;Node6</title>
<path fill="none" stroke="midnightblue" d="M63.4438,-113.782C60.4923,-105.725 57.4675,-96.0432 56,-87 52.8129,-67.3604 59.3712,-44.9209 64.7986,-30.7357"/>
<polygon fill="midnightblue" stroke="midnightblue" points="60.2436,-115.209 67.1443,-123.249 66.7632,-112.661 60.2436,-115.209"/>
</g>
<!-- Node9&#45;&gt;Node7 -->
<g id="edge2" class="edge"><title>Node9&#45;&gt;Node7</title>
<path fill="none" stroke="midnightblue" d="M82.3001,-114.566C88.3219,-105.275 95.4686,-94.2484 100.328,-86.7511"/>
<polygon fill="midnightblue" stroke="midnightblue" points="79.2815,-112.788 76.7795,-123.083 85.1556,-116.595 79.2815,-112.788"/>
</g>
</g>
</svg>
