<?xml version="1.0" encoding="UTF-8" standalone="no"?>
<!DOCTYPE svg PUBLIC "-//W3C//DTD SVG 1.1//EN"
 "http://www.w3.org/Graphics/SVG/1.1/DTD/svg11.dtd">
<!-- Generated by graphviz version 2.38.0 (20140413.2041)
 -->
<!-- Title: System.Reflection.MethodInfo Pages: 1 -->
<svg width="342pt" height="151pt"
 viewBox="0.00 0.00 342.00 151.00" xmlns="http://www.w3.org/2000/svg" xmlns:xlink="http://www.w3.org/1999/xlink">
<g id="graph0" class="graph" transform="scale(1 1) rotate(0) translate(4 147)">
<title>System.Reflection.MethodInfo</title>
<!-- Node0 -->
<g id="node1" class="node"><title>Node0</title>
<g id="a_node1"><a xlink:title="Discovers the attributes of a method and provides access to method metadata.">
<polygon fill="#bfbfbf" stroke="black" points="95.5,-67.5 95.5,-86.5 241.5,-86.5 241.5,-67.5 95.5,-67.5"/>
<text text-anchor="middle" x="168.5" y="-74.5" font-family="Helvetica,sans-Serif" font-size="10.00">System.Reflection.MethodInfo</text>
</a>
</g>
</g>
<!-- Node7 -->
<g id="node4" class="node"><title>Node7</title>
<g id="a_node4"><a xlink:href="class_system_1_1_reflection_1_1_emit_1_1_dynamic_method.html" target="_top" xlink:title="Defines and represents a dynamic method that can be compiled, executed, and discarded....">
<polygon fill="none" stroke="black" points="0,-0.5 0,-30.5 161,-30.5 161,-0.5 0,-0.5"/>
<text text-anchor="start" x="8" y="-18.5" font-family="Helvetica,sans-Serif" font-size="10.00">System.Reflection.Emit.Dynamic</text>
<text text-anchor="middle" x="80.5" y="-7.5" font-family="Helvetica,sans-Serif" font-size="10.00">Method</text>
</a>
</g>
</g>
<!-- Node0&#45;&gt;Node7 -->
<g id="edge3" class="edge"><title>Node0&#45;&gt;Node7</title>
<path fill="none" stroke="midnightblue" d="M147.408,-61.739C133.422,-52.2824 115.153,-39.9304 101.24,-30.523"/>
<polygon fill="midnightblue" stroke="midnightblue" points="145.647,-64.7733 155.892,-67.4751 149.568,-58.9744 145.647,-64.7733"/>
</g>
<!-- Node8 -->
<g id="node5" class="node"><title>Node8</title>
<g id="a_node5"><a xlink:href="class_system_1_1_reflection_1_1_emit_1_1_method_builder.html" target="_top" xlink:title="Defines and represents a method (or constructor) on a dynamic class.">
<polygon fill="none" stroke="black" points="179,-0.5 179,-30.5 334,-30.5 334,-0.5 179,-0.5"/>
<text text-anchor="start" x="187" y="-18.5" font-family="Helvetica,sans-Serif" font-size="10.00">System.Reflection.Emit.Method</text>
<text text-anchor="middle" x="256.5" y="-7.5" font-family="Helvetica,sans-Serif" font-size="10.00">Builder</text>
</a>
</g>
</g>
<!-- Node0&#45;&gt;Node8 -->
<g id="edge4" class="edge"><title>Node0&#45;&gt;Node8</title>
<path fill="none" stroke="midnightblue" d="M189.592,-61.739C203.578,-52.2824 221.847,-39.9304 235.76,-30.523"/>
<polygon fill="midnightblue" stroke="midnightblue" points="187.432,-58.9744 181.108,-67.4751 191.353,-64.7733 187.432,-58.9744"/>
</g>
<!-- Node1 -->
<g id="node2" class="node"><title>Node1</title>
<g id="a_node2"><a xlink:href="class_system_1_1_reflection_1_1_method_base.html" target="_top" xlink:title="Provides information about methods and constructors.">
<polygon fill="none" stroke="red" points="89,-123.5 89,-142.5 160,-142.5 160,-123.5 89,-123.5"/>
<text text-anchor="middle" x="124.5" y="-130.5" font-family="Helvetica,sans-Serif" font-size="10.00">MethodBase</text>
</a>
</g>
</g>
<!-- Node1&#45;&gt;Node0 -->
<g id="edge1" class="edge"><title>Node1&#45;&gt;Node0</title>
<path fill="none" stroke="midnightblue" d="M138.235,-115.144C145.901,-105.736 155.133,-94.4046 161.369,-86.7511"/>
<polygon fill="midnightblue" stroke="midnightblue" points="135.369,-113.12 131.766,-123.083 140.796,-117.541 135.369,-113.12"/>
</g>
<!-- Node6 -->
<g id="node3" class="node"><title>Node6</title>
<g id="a_node3"><a xlink:href="interface_system_1_1_runtime_1_1_interop_services_1_1___method_info.html" target="_top" xlink:title="Exposes the public members of the T:System.Reflection.MethodInfo class to unmanaged code.">
<polygon fill="none" stroke="black" points="178,-123.5 178,-142.5 247,-142.5 247,-123.5 178,-123.5"/>
<text text-anchor="middle" x="212.5" y="-130.5" font-family="Helvetica,sans-Serif" font-size="10.00">_MethodInfo</text>
</a>
</g>
</g>
<!-- Node6&#45;&gt;Node0 -->
<g id="edge2" class="edge"><title>Node6&#45;&gt;Node0</title>
<path fill="none" stroke="midnightblue" d="M198.765,-115.144C191.099,-105.736 181.867,-94.4046 175.631,-86.7511"/>
<polygon fill="midnightblue" stroke="midnightblue" points="196.204,-117.541 205.234,-123.083 201.631,-113.12 196.204,-117.541"/>
</g>
</g>
</svg>
