<?xml version="1.0" encoding="UTF-8" standalone="no"?>
<!DOCTYPE svg PUBLIC "-//W3C//DTD SVG 1.1//EN"
 "http://www.w3.org/Graphics/SVG/1.1/DTD/svg11.dtd">
<!-- Generated by graphviz version 2.38.0 (20140413.2041)
 -->
<!-- Title: System.Security.AccessControl.GenericAce Pages: 1 -->
<svg width="344pt" height="106pt"
 viewBox="0.00 0.00 344.00 106.00" xmlns="http://www.w3.org/2000/svg" xmlns:xlink="http://www.w3.org/1999/xlink">
<g id="graph0" class="graph" transform="scale(1 1) rotate(0) translate(4 102)">
<title>System.Security.AccessControl.GenericAce</title>
<!-- Node0 -->
<g id="node1" class="node"><title>Node0</title>
<g id="a_node1"><a xlink:title="Represents an Access Control Entry (ACE), and is the base class for all other ACE classes.">
<polygon fill="#bfbfbf" stroke="black" points="88,-67.5 88,-97.5 247,-97.5 247,-67.5 88,-67.5"/>
<text text-anchor="start" x="96" y="-85.5" font-family="Helvetica,sans-Serif" font-size="10.00">System.Security.AccessControl.</text>
<text text-anchor="middle" x="167.5" y="-74.5" font-family="Helvetica,sans-Serif" font-size="10.00">GenericAce</text>
</a>
</g>
</g>
<!-- Node1 -->
<g id="node2" class="node"><title>Node1</title>
<g id="a_node2"><a xlink:href="class_system_1_1_security_1_1_access_control_1_1_custom_ace.html" target="_top" xlink:title="Represents an Access Control Entry (ACE) that is not defined by one of the members of the T:System....">
<polygon fill="none" stroke="black" points="0,-0.5 0,-30.5 159,-30.5 159,-0.5 0,-0.5"/>
<text text-anchor="start" x="8" y="-18.5" font-family="Helvetica,sans-Serif" font-size="10.00">System.Security.AccessControl.</text>
<text text-anchor="middle" x="79.5" y="-7.5" font-family="Helvetica,sans-Serif" font-size="10.00">CustomAce</text>
</a>
</g>
</g>
<!-- Node0&#45;&gt;Node1 -->
<g id="edge1" class="edge"><title>Node0&#45;&gt;Node1</title>
<path fill="none" stroke="midnightblue" d="M140.357,-61.4511C126.819,-51.4517 110.773,-39.5995 98.5574,-30.5765"/>
<polygon fill="midnightblue" stroke="midnightblue" points="138.282,-64.2699 148.405,-67.396 142.441,-58.6393 138.282,-64.2699"/>
</g>
<!-- Node2 -->
<g id="node3" class="node"><title>Node2</title>
<g id="a_node3"><a xlink:href="class_system_1_1_security_1_1_access_control_1_1_known_ace.html" target="_top" xlink:title="Encapsulates all Access Control Entry (ACE) types currently defined by Microsoft Corporation....">
<polygon fill="none" stroke="red" points="177,-0.5 177,-30.5 336,-30.5 336,-0.5 177,-0.5"/>
<text text-anchor="start" x="185" y="-18.5" font-family="Helvetica,sans-Serif" font-size="10.00">System.Security.AccessControl.</text>
<text text-anchor="middle" x="256.5" y="-7.5" font-family="Helvetica,sans-Serif" font-size="10.00">KnownAce</text>
</a>
</g>
</g>
<!-- Node0&#45;&gt;Node2 -->
<g id="edge2" class="edge"><title>Node0&#45;&gt;Node2</title>
<path fill="none" stroke="midnightblue" d="M194.952,-61.4511C208.643,-51.4517 224.871,-39.5995 237.226,-30.5765"/>
<polygon fill="midnightblue" stroke="midnightblue" points="192.823,-58.6716 186.812,-67.396 196.952,-64.3245 192.823,-58.6716"/>
</g>
</g>
</svg>
