<?xml version="1.0" encoding="UTF-8" standalone="no"?>
<!DOCTYPE svg PUBLIC "-//W3C//DTD SVG 1.1//EN"
 "http://www.w3.org/Graphics/SVG/1.1/DTD/svg11.dtd">
<!-- Generated by graphviz version 2.38.0 (20140413.2041)
 -->
<!-- Title: System.Threading.WaitHandle Pages: 1 -->
<svg width="379pt" height="218pt"
 viewBox="0.00 0.00 378.50 218.00" xmlns="http://www.w3.org/2000/svg" xmlns:xlink="http://www.w3.org/1999/xlink">
<g id="graph0" class="graph" transform="scale(1 1) rotate(0) translate(4 214)">
<title>System.Threading.WaitHandle</title>
<!-- Node0 -->
<g id="node1" class="node"><title>Node0</title>
<g id="a_node1"><a xlink:title="Encapsulates operating system–specific objects that wait for exclusive access to shared resources.">
<polygon fill="#bfbfbf" stroke="black" points="157.5,-134.5 157.5,-153.5 306.5,-153.5 306.5,-134.5 157.5,-134.5"/>
<text text-anchor="middle" x="232" y="-141.5" font-family="Helvetica,sans-Serif" font-size="10.00">System.Threading.WaitHandle</text>
</a>
</g>
</g>
<!-- Node3 -->
<g id="node4" class="node"><title>Node3</title>
<g id="a_node4"><a xlink:href="class_system_1_1_threading_1_1_event_wait_handle.html" target="_top" xlink:title="Represents a thread synchronization event.">
<polygon fill="none" stroke="black" points="84.5,-67.5 84.5,-97.5 227.5,-97.5 227.5,-67.5 84.5,-67.5"/>
<text text-anchor="start" x="92.5" y="-85.5" font-family="Helvetica,sans-Serif" font-size="10.00">System.Threading.EventWait</text>
<text text-anchor="middle" x="156" y="-74.5" font-family="Helvetica,sans-Serif" font-size="10.00">Handle</text>
</a>
</g>
</g>
<!-- Node0&#45;&gt;Node3 -->
<g id="edge3" class="edge"><title>Node0&#45;&gt;Node3</title>
<path fill="none" stroke="midnightblue" d="M213.09,-128.195C201.106,-118.813 185.699,-106.751 173.912,-97.523"/>
<polygon fill="midnightblue" stroke="midnightblue" points="211.079,-131.066 221.111,-134.475 215.395,-125.555 211.079,-131.066"/>
</g>
<!-- Node6 -->
<g id="node7" class="node"><title>Node6</title>
<g id="a_node7"><a xlink:href="class_system_1_1_threading_1_1_mutex.html" target="_top" xlink:title="A synchronization primitive that can also be used for interprocess synchronization.">
<polygon fill="none" stroke="black" points="245.5,-73 245.5,-92 370.5,-92 370.5,-73 245.5,-73"/>
<text text-anchor="middle" x="308" y="-80" font-family="Helvetica,sans-Serif" font-size="10.00">System.Threading.Mutex</text>
</a>
</g>
</g>
<!-- Node0&#45;&gt;Node6 -->
<g id="edge6" class="edge"><title>Node0&#45;&gt;Node6</title>
<path fill="none" stroke="midnightblue" d="M250.784,-128.294C265.363,-116.88 285.062,-101.458 297.131,-92.0091"/>
<polygon fill="midnightblue" stroke="midnightblue" points="248.605,-125.555 242.889,-134.475 252.921,-131.066 248.605,-125.555"/>
</g>
<!-- Node1 -->
<g id="node2" class="node"><title>Node1</title>
<g id="a_node2"><a xlink:href="class_system_1_1_marshal_by_ref_object.html" target="_top" xlink:title="Enables access to objects across application domain boundaries in applications that support remoting.">
<polygon fill="none" stroke="black" points="127,-190.5 127,-209.5 233,-209.5 233,-190.5 127,-190.5"/>
<text text-anchor="middle" x="180" y="-197.5" font-family="Helvetica,sans-Serif" font-size="10.00">MarshalByRefObject</text>
</a>
</g>
</g>
<!-- Node1&#45;&gt;Node0 -->
<g id="edge1" class="edge"><title>Node1&#45;&gt;Node0</title>
<path fill="none" stroke="midnightblue" d="M195.679,-182.718C204.845,-173.2 216.053,-161.561 223.573,-153.751"/>
<polygon fill="midnightblue" stroke="midnightblue" points="193.002,-180.452 188.587,-190.083 198.044,-185.308 193.002,-180.452"/>
</g>
<!-- Node2 -->
<g id="node3" class="node"><title>Node2</title>
<g id="a_node3"><a xlink:href="interface_system_1_1_i_disposable.html" target="_top" xlink:title="Provides a mechanism for releasing unmanaged resources.To browse the .NET Framework source code for t...">
<polygon fill="none" stroke="black" points="251.5,-190.5 251.5,-209.5 318.5,-209.5 318.5,-190.5 251.5,-190.5"/>
<text text-anchor="middle" x="285" y="-197.5" font-family="Helvetica,sans-Serif" font-size="10.00">IDisposable</text>
</a>
</g>
</g>
<!-- Node2&#45;&gt;Node0 -->
<g id="edge2" class="edge"><title>Node2&#45;&gt;Node0</title>
<path fill="none" stroke="midnightblue" d="M269.019,-182.718C259.678,-173.2 248.254,-161.561 240.589,-153.751"/>
<polygon fill="midnightblue" stroke="midnightblue" points="266.746,-185.398 276.248,-190.083 271.741,-180.494 266.746,-185.398"/>
</g>
<!-- Node4 -->
<g id="node5" class="node"><title>Node4</title>
<g id="a_node5"><a xlink:href="class_system_1_1_threading_1_1_auto_reset_event.html" target="_top" xlink:title="Notifies a waiting thread that an event has occurred. This class cannot be inherited.">
<polygon fill="none" stroke="black" points="0,-0.5 0,-30.5 144,-30.5 144,-0.5 0,-0.5"/>
<text text-anchor="start" x="8" y="-18.5" font-family="Helvetica,sans-Serif" font-size="10.00">System.Threading.AutoReset</text>
<text text-anchor="middle" x="72" y="-7.5" font-family="Helvetica,sans-Serif" font-size="10.00">Event</text>
</a>
</g>
</g>
<!-- Node3&#45;&gt;Node4 -->
<g id="edge4" class="edge"><title>Node3&#45;&gt;Node4</title>
<path fill="none" stroke="midnightblue" d="M129.724,-61.1677C116.88,-51.2283 101.742,-39.5144 90.1912,-30.5765"/>
<polygon fill="midnightblue" stroke="midnightblue" points="127.723,-64.0442 137.773,-67.396 132.006,-58.508 127.723,-64.0442"/>
</g>
<!-- Node5 -->
<g id="node6" class="node"><title>Node5</title>
<g id="a_node6"><a xlink:href="class_system_1_1_threading_1_1_manual_reset_event.html" target="_top" xlink:title="Notifies one or more waiting threads that an event has occurred. This class cannot be inherited.">
<polygon fill="none" stroke="black" points="162.5,-0.5 162.5,-30.5 317.5,-30.5 317.5,-0.5 162.5,-0.5"/>
<text text-anchor="start" x="170.5" y="-18.5" font-family="Helvetica,sans-Serif" font-size="10.00">System.Threading.ManualReset</text>
<text text-anchor="middle" x="240" y="-7.5" font-family="Helvetica,sans-Serif" font-size="10.00">Event</text>
</a>
</g>
</g>
<!-- Node3&#45;&gt;Node5 -->
<g id="edge5" class="edge"><title>Node3&#45;&gt;Node5</title>
<path fill="none" stroke="midnightblue" d="M182.276,-61.1677C195.12,-51.2283 210.258,-39.5144 221.809,-30.5765"/>
<polygon fill="midnightblue" stroke="midnightblue" points="179.994,-58.508 174.227,-67.396 184.277,-64.0442 179.994,-58.508"/>
</g>
</g>
</svg>
