<?xml version="1.0" encoding="UTF-8" standalone="no"?>
<!DOCTYPE svg PUBLIC "-//W3C//DTD SVG 1.1//EN"
 "http://www.w3.org/Graphics/SVG/1.1/DTD/svg11.dtd">
<!-- Generated by graphviz version 2.38.0 (20140413.2041)
 -->
<!-- Title: System.Reflection.EventInfo Pages: 1 -->
<svg width="241pt" height="140pt"
 viewBox="0.00 0.00 240.50 140.00" xmlns="http://www.w3.org/2000/svg" xmlns:xlink="http://www.w3.org/1999/xlink">
<g id="graph0" class="graph" transform="scale(1 1) rotate(0) translate(4 136)">
<title>System.Reflection.EventInfo</title>
<!-- Node6 -->
<g id="node1" class="node"><title>Node6</title>
<g id="a_node1"><a xlink:title="Discovers the attributes of an event and provides access to event metadata.">
<polygon fill="#bfbfbf" stroke="black" points="92,-0.5 92,-19.5 230,-19.5 230,-0.5 92,-0.5"/>
<text text-anchor="middle" x="161" y="-7.5" font-family="Helvetica,sans-Serif" font-size="10.00">System.Reflection.EventInfo</text>
</a>
</g>
</g>
<!-- Node7 -->
<g id="node2" class="node"><title>Node7</title>
<g id="a_node2"><a xlink:href="class_system_1_1_reflection_1_1_member_info.html" target="_top" xlink:title="Obtains information about the attributes of a member and provides access to member metadata.">
<polygon fill="none" stroke="black" points="86.5,-56.5 86.5,-75.5 153.5,-75.5 153.5,-56.5 86.5,-56.5"/>
<text text-anchor="middle" x="120" y="-63.5" font-family="Helvetica,sans-Serif" font-size="10.00">MemberInfo</text>
</a>
</g>
</g>
<!-- Node7&#45;&gt;Node6 -->
<g id="edge1" class="edge"><title>Node7&#45;&gt;Node6</title>
<path fill="none" stroke="midnightblue" d="M133.017,-47.8554C140.117,-38.5048 148.604,-27.3265 154.356,-19.7511"/>
<polygon fill="midnightblue" stroke="midnightblue" points="130.03,-46.002 126.77,-56.083 135.605,-50.235 130.03,-46.002"/>
</g>
<!-- Node8 -->
<g id="node3" class="node"><title>Node8</title>
<g id="a_node3"><a xlink:href="interface_system_1_1_reflection_1_1_i_custom_attribute_provider.html" target="_top" xlink:title="Provides custom attributes for reflection objects that support them.">
<polygon fill="none" stroke="black" points="0,-112.5 0,-131.5 124,-131.5 124,-112.5 0,-112.5"/>
<text text-anchor="middle" x="62" y="-119.5" font-family="Helvetica,sans-Serif" font-size="10.00">ICustomAttributeProvider</text>
</a>
</g>
</g>
<!-- Node8&#45;&gt;Node7 -->
<g id="edge2" class="edge"><title>Node8&#45;&gt;Node7</title>
<path fill="none" stroke="midnightblue" d="M78.9131,-105.253C89.203,-95.6731 101.966,-83.7906 110.512,-75.8339"/>
<polygon fill="midnightblue" stroke="midnightblue" points="76.2527,-102.948 71.3187,-112.324 81.0226,-108.071 76.2527,-102.948"/>
</g>
<!-- Node9 -->
<g id="node4" class="node"><title>Node9</title>
<g id="a_node4"><a xlink:href="interface_system_1_1_runtime_1_1_interop_services_1_1___member_info.html" target="_top" xlink:title="Exposes the public members of the T:System.Reflection.MemberInfo class to unmanaged code.">
<polygon fill="none" stroke="black" points="142,-112.5 142,-131.5 214,-131.5 214,-112.5 142,-112.5"/>
<text text-anchor="middle" x="178" y="-119.5" font-family="Helvetica,sans-Serif" font-size="10.00">_MemberInfo</text>
</a>
</g>
</g>
<!-- Node9&#45;&gt;Node7 -->
<g id="edge3" class="edge"><title>Node9&#45;&gt;Node7</title>
<path fill="none" stroke="midnightblue" d="M161.087,-105.253C150.797,-95.6731 138.034,-83.7906 129.488,-75.8339"/>
<polygon fill="midnightblue" stroke="midnightblue" points="158.977,-108.071 168.681,-112.324 163.747,-102.948 158.977,-108.071"/>
</g>
<!-- Node10 -->
<g id="node5" class="node"><title>Node10</title>
<g id="a_node5"><a xlink:href="interface_system_1_1_runtime_1_1_interop_services_1_1___event_info.html" target="_top" xlink:title="Exposes the public members of the T:System.Reflection.EventInfo class to unmanaged code.">
<polygon fill="none" stroke="black" points="171.5,-56.5 171.5,-75.5 232.5,-75.5 232.5,-56.5 171.5,-56.5"/>
<text text-anchor="middle" x="202" y="-63.5" font-family="Helvetica,sans-Serif" font-size="10.00">_EventInfo</text>
</a>
</g>
</g>
<!-- Node10&#45;&gt;Node6 -->
<g id="edge4" class="edge"><title>Node10&#45;&gt;Node6</title>
<path fill="none" stroke="midnightblue" d="M188.983,-47.8554C181.883,-38.5048 173.396,-27.3265 167.644,-19.7511"/>
<polygon fill="midnightblue" stroke="midnightblue" points="186.395,-50.235 195.23,-56.083 191.97,-46.002 186.395,-50.235"/>
</g>
</g>
</svg>
