<?xml version="1.0" encoding="UTF-8" standalone="no"?>
<!DOCTYPE svg PUBLIC "-//W3C//DTD SVG 1.1//EN"
 "http://www.w3.org/Graphics/SVG/1.1/DTD/svg11.dtd">
<!-- Generated by graphviz version 2.38.0 (20140413.2041)
 -->
<!-- Title: System.Xml.XmlDocument Pages: 1 -->
<svg width="148pt" height="151pt"
 viewBox="0.00 0.00 148.00 151.00" xmlns="http://www.w3.org/2000/svg" xmlns:xlink="http://www.w3.org/1999/xlink">
<g id="graph0" class="graph" transform="scale(1 1) rotate(0) translate(4 147)">
<title>System.Xml.XmlDocument</title>
<!-- Node0 -->
<g id="node1" class="node"><title>Node0</title>
<g id="a_node1"><a xlink:title="Represents an XML document. You can use this class to load, validate, edit, add, and position XML in ...">
<polygon fill="#bfbfbf" stroke="black" points="4,-67.5 4,-86.5 136,-86.5 136,-67.5 4,-67.5"/>
<text text-anchor="middle" x="70" y="-74.5" font-family="Helvetica,sans-Serif" font-size="10.00">System.Xml.XmlDocument</text>
</a>
</g>
</g>
<!-- Node5 -->
<g id="node3" class="node"><title>Node5</title>
<g id="a_node3"><a xlink:href="class_system_1_1_configuration_1_1_config_xml_document.html" target="_top" xlink:title="Wraps the corresponding T:System.Xml.XmlDocument type and also carries the necessary information for ...">
<polygon fill="none" stroke="black" points="0,-0.5 0,-30.5 140,-30.5 140,-0.5 0,-0.5"/>
<text text-anchor="start" x="8" y="-18.5" font-family="Helvetica,sans-Serif" font-size="10.00">System.Configuration.Config</text>
<text text-anchor="middle" x="70" y="-7.5" font-family="Helvetica,sans-Serif" font-size="10.00">XmlDocument</text>
</a>
</g>
</g>
<!-- Node0&#45;&gt;Node5 -->
<g id="edge2" class="edge"><title>Node0&#45;&gt;Node5</title>
<path fill="none" stroke="midnightblue" d="M70,-57.2349C70,-48.5864 70,-38.4969 70,-30.523"/>
<polygon fill="midnightblue" stroke="midnightblue" points="66.5001,-57.4751 70,-67.4751 73.5001,-57.4751 66.5001,-57.4751"/>
</g>
<!-- Node1 -->
<g id="node2" class="node"><title>Node1</title>
<g id="a_node2"><a xlink:href="class_system_1_1_xml_1_1_xml_node.html" target="_top" xlink:title="Represents a single node in the XML document.">
<polygon fill="none" stroke="red" points="42.5,-123.5 42.5,-142.5 97.5,-142.5 97.5,-123.5 42.5,-123.5"/>
<text text-anchor="middle" x="70" y="-130.5" font-family="Helvetica,sans-Serif" font-size="10.00">XmlNode</text>
</a>
</g>
</g>
<!-- Node1&#45;&gt;Node0 -->
<g id="edge1" class="edge"><title>Node1&#45;&gt;Node0</title>
<path fill="none" stroke="midnightblue" d="M70,-112.805C70,-103.91 70,-93.7798 70,-86.7511"/>
<polygon fill="midnightblue" stroke="midnightblue" points="66.5001,-113.083 70,-123.083 73.5001,-113.083 66.5001,-113.083"/>
</g>
</g>
</svg>
