<?xml version="1.0" encoding="UTF-8" standalone="no"?>
<!DOCTYPE svg PUBLIC "-//W3C//DTD SVG 1.1//EN"
 "http://www.w3.org/Graphics/SVG/1.1/DTD/svg11.dtd">
<!-- Generated by graphviz version 2.38.0 (20140413.2041)
 -->
<!-- Title: System.Threading.WaitHandle Pages: 1 -->
<svg width="461pt" height="151pt"
 viewBox="0.00 0.00 460.50 151.00" xmlns="http://www.w3.org/2000/svg" xmlns:xlink="http://www.w3.org/1999/xlink">
<g id="graph0" class="graph" transform="scale(1 1) rotate(0) translate(4 147)">
<title>System.Threading.WaitHandle</title>
<!-- Node0 -->
<g id="node1" class="node"><title>Node0</title>
<g id="a_node1"><a xlink:title="Encapsulates operating system–specific objects that wait for exclusive access to shared resources.">
<polygon fill="#bfbfbf" stroke="black" points="149,-67.5 149,-86.5 298,-86.5 298,-67.5 149,-67.5"/>
<text text-anchor="middle" x="223.5" y="-74.5" font-family="Helvetica,sans-Serif" font-size="10.00">System.Threading.WaitHandle</text>
</a>
</g>
</g>
<!-- Node3 -->
<g id="node4" class="node"><title>Node3</title>
<g id="a_node4"><a xlink:href="class_system_1_1_threading_1_1_event_wait_handle.html" target="_top" xlink:title="Represents a thread synchronization event.">
<polygon fill="none" stroke="red" points="0,-0.5 0,-30.5 143,-30.5 143,-0.5 0,-0.5"/>
<text text-anchor="start" x="8" y="-18.5" font-family="Helvetica,sans-Serif" font-size="10.00">System.Threading.EventWait</text>
<text text-anchor="middle" x="71.5" y="-7.5" font-family="Helvetica,sans-Serif" font-size="10.00">Handle</text>
</a>
</g>
</g>
<!-- Node0&#45;&gt;Node3 -->
<g id="edge3" class="edge"><title>Node0&#45;&gt;Node3</title>
<path fill="none" stroke="midnightblue" d="M192.127,-63.7189C167.457,-54.062 133.072,-40.6023 107.323,-30.523"/>
<polygon fill="midnightblue" stroke="midnightblue" points="191.134,-67.0891 201.722,-67.4751 193.686,-60.5707 191.134,-67.0891"/>
</g>
<!-- Node6 -->
<g id="node5" class="node"><title>Node6</title>
<g id="a_node5"><a xlink:href="class_system_1_1_threading_1_1_mutex.html" target="_top" xlink:title="A synchronization primitive that can also be used for interprocess synchronization.">
<polygon fill="none" stroke="black" points="161,-6 161,-25 286,-25 286,-6 161,-6"/>
<text text-anchor="middle" x="223.5" y="-13" font-family="Helvetica,sans-Serif" font-size="10.00">System.Threading.Mutex</text>
</a>
</g>
</g>
<!-- Node0&#45;&gt;Node6 -->
<g id="edge4" class="edge"><title>Node0&#45;&gt;Node6</title>
<path fill="none" stroke="midnightblue" d="M223.5,-57.3165C223.5,-46.4962 223.5,-33.398 223.5,-25.0091"/>
<polygon fill="midnightblue" stroke="midnightblue" points="220,-57.4751 223.5,-67.4751 227,-57.4751 220,-57.4751"/>
</g>
<!-- Node7 -->
<g id="node6" class="node"><title>Node7</title>
<g id="a_node6"><a xlink:href="class_system_1_1_threading_1_1_semaphore.html" target="_top" xlink:title="Limits the number of threads that can access a resource or pool of resources concurrently.">
<polygon fill="none" stroke="black" points="304.5,-6 304.5,-25 452.5,-25 452.5,-6 304.5,-6"/>
<text text-anchor="middle" x="378.5" y="-13" font-family="Helvetica,sans-Serif" font-size="10.00">System.Threading.Semaphore</text>
</a>
</g>
</g>
<!-- Node0&#45;&gt;Node7 -->
<g id="edge5" class="edge"><title>Node0&#45;&gt;Node7</title>
<path fill="none" stroke="midnightblue" d="M255.327,-63.7824C285.448,-52.2199 329.879,-35.1641 356.333,-25.0091"/>
<polygon fill="midnightblue" stroke="midnightblue" points="253.789,-60.6238 245.708,-67.4751 256.298,-67.1588 253.789,-60.6238"/>
</g>
<!-- Node1 -->
<g id="node2" class="node"><title>Node1</title>
<g id="a_node2"><a xlink:href="class_system_1_1_marshal_by_ref_object.html" target="_top" xlink:title="Enables access to objects across application domain boundaries in applications that support remoting.">
<polygon fill="none" stroke="black" points="118.5,-123.5 118.5,-142.5 224.5,-142.5 224.5,-123.5 118.5,-123.5"/>
<text text-anchor="middle" x="171.5" y="-130.5" font-family="Helvetica,sans-Serif" font-size="10.00">MarshalByRefObject</text>
</a>
</g>
</g>
<!-- Node1&#45;&gt;Node0 -->
<g id="edge1" class="edge"><title>Node1&#45;&gt;Node0</title>
<path fill="none" stroke="midnightblue" d="M187.179,-115.718C196.345,-106.2 207.553,-94.5608 215.073,-86.7511"/>
<polygon fill="midnightblue" stroke="midnightblue" points="184.502,-113.452 180.087,-123.083 189.544,-118.308 184.502,-113.452"/>
</g>
<!-- Node2 -->
<g id="node3" class="node"><title>Node2</title>
<g id="a_node3"><a xlink:href="interface_system_1_1_i_disposable.html" target="_top" xlink:title="Provides a mechanism for releasing unmanaged resources.To browse the .NET Framework source code for t...">
<polygon fill="none" stroke="black" points="243,-123.5 243,-142.5 310,-142.5 310,-123.5 243,-123.5"/>
<text text-anchor="middle" x="276.5" y="-130.5" font-family="Helvetica,sans-Serif" font-size="10.00">IDisposable</text>
</a>
</g>
</g>
<!-- Node2&#45;&gt;Node0 -->
<g id="edge2" class="edge"><title>Node2&#45;&gt;Node0</title>
<path fill="none" stroke="midnightblue" d="M260.519,-115.718C251.178,-106.2 239.754,-94.5608 232.089,-86.7511"/>
<polygon fill="midnightblue" stroke="midnightblue" points="258.246,-118.398 267.748,-123.083 263.241,-113.494 258.246,-118.398"/>
</g>
</g>
</svg>
