<?xml version="1.0" encoding="UTF-8" standalone="no"?>
<!DOCTYPE svg PUBLIC "-//W3C//DTD SVG 1.1//EN"
 "http://www.w3.org/Graphics/SVG/1.1/DTD/svg11.dtd">
<!-- Generated by graphviz version 2.38.0 (20140413.2041)
 -->
<!-- Title: System.Security.AccessControl.DiscretionaryAcl Pages: 1 -->
<svg width="167pt" height="263pt"
 viewBox="0.00 0.00 167.00 263.00" xmlns="http://www.w3.org/2000/svg" xmlns:xlink="http://www.w3.org/1999/xlink">
<g id="graph0" class="graph" transform="scale(1 1) rotate(0) translate(4 259)">
<title>System.Security.AccessControl.DiscretionaryAcl</title>
<!-- Node0 -->
<g id="node1" class="node"><title>Node0</title>
<g id="a_node1"><a xlink:title="Represents a Discretionary Access Control List (DACL).">
<polygon fill="#bfbfbf" stroke="black" points="0,-0.5 0,-30.5 159,-30.5 159,-0.5 0,-0.5"/>
<text text-anchor="start" x="8" y="-18.5" font-family="Helvetica,sans-Serif" font-size="10.00">System.Security.AccessControl.</text>
<text text-anchor="middle" x="79.5" y="-7.5" font-family="Helvetica,sans-Serif" font-size="10.00">DiscretionaryAcl</text>
</a>
</g>
</g>
<!-- Node1 -->
<g id="node2" class="node"><title>Node1</title>
<g id="a_node2"><a xlink:href="class_system_1_1_security_1_1_access_control_1_1_common_acl.html" target="_top" xlink:title="Represents an access control list (ACL) and is the base class for the T:System.Security....">
<polygon fill="none" stroke="black" points="44.5,-67.5 44.5,-86.5 114.5,-86.5 114.5,-67.5 44.5,-67.5"/>
<text text-anchor="middle" x="79.5" y="-74.5" font-family="Helvetica,sans-Serif" font-size="10.00">CommonAcl</text>
</a>
</g>
</g>
<!-- Node1&#45;&gt;Node0 -->
<g id="edge1" class="edge"><title>Node1&#45;&gt;Node0</title>
<path fill="none" stroke="midnightblue" d="M79.5,-57.2349C79.5,-48.5864 79.5,-38.4969 79.5,-30.523"/>
<polygon fill="midnightblue" stroke="midnightblue" points="76.0001,-57.4751 79.5,-67.4751 83.0001,-57.4751 76.0001,-57.4751"/>
</g>
<!-- Node2 -->
<g id="node3" class="node"><title>Node2</title>
<g id="a_node3"><a xlink:href="class_system_1_1_security_1_1_access_control_1_1_generic_acl.html" target="_top" xlink:title="Represents an access control list (ACL) and is the base class for the T:System.Security....">
<polygon fill="none" stroke="black" points="47,-123.5 47,-142.5 112,-142.5 112,-123.5 47,-123.5"/>
<text text-anchor="middle" x="79.5" y="-130.5" font-family="Helvetica,sans-Serif" font-size="10.00">GenericAcl</text>
</a>
</g>
</g>
<!-- Node2&#45;&gt;Node1 -->
<g id="edge2" class="edge"><title>Node2&#45;&gt;Node1</title>
<path fill="none" stroke="midnightblue" d="M79.5,-112.805C79.5,-103.91 79.5,-93.7798 79.5,-86.7511"/>
<polygon fill="midnightblue" stroke="midnightblue" points="76.0001,-113.083 79.5,-123.083 83.0001,-113.083 76.0001,-113.083"/>
</g>
<!-- Node3 -->
<g id="node4" class="node"><title>Node3</title>
<g id="a_node4"><a xlink:href="interface_system_1_1_collections_1_1_i_collection.html" target="_top" xlink:title="Defines size, enumerators, and synchronization methods for all nongeneric collections.">
<polygon fill="none" stroke="black" points="78.5,-179.5 78.5,-198.5 140.5,-198.5 140.5,-179.5 78.5,-179.5"/>
<text text-anchor="middle" x="109.5" y="-186.5" font-family="Helvetica,sans-Serif" font-size="10.00">ICollection</text>
</a>
</g>
</g>
<!-- Node3&#45;&gt;Node2 -->
<g id="edge3" class="edge"><title>Node3&#45;&gt;Node2</title>
<path fill="none" stroke="midnightblue" d="M99.6526,-170.275C94.5252,-161.045 88.4835,-150.17 84.3617,-142.751"/>
<polygon fill="midnightblue" stroke="midnightblue" points="96.6301,-172.041 104.546,-179.083 102.749,-168.642 96.6301,-172.041"/>
</g>
<!-- Node4 -->
<g id="node5" class="node"><title>Node4</title>
<g id="a_node5"><a xlink:href="interface_system_1_1_collections_1_1_i_enumerable.html" target="_top" xlink:title="Exposes an enumerator, which supports a simple iteration over a non&#45;generic collection....">
<polygon fill="none" stroke="black" points="44,-235.5 44,-254.5 115,-254.5 115,-235.5 44,-235.5"/>
<text text-anchor="middle" x="79.5" y="-242.5" font-family="Helvetica,sans-Serif" font-size="10.00">IEnumerable</text>
</a>
</g>
</g>
<!-- Node4&#45;&gt;Node2 -->
<g id="edge5" class="edge"><title>Node4&#45;&gt;Node2</title>
<path fill="none" stroke="midnightblue" d="M73.9663,-225.191C70.8065,-212.243 67.7848,-194.625 69.5,-179 70.9147,-166.112 74.5434,-151.515 77.0176,-142.533"/>
<polygon fill="midnightblue" stroke="midnightblue" points="70.6821,-226.455 76.6631,-235.201 77.4411,-224.634 70.6821,-226.455"/>
</g>
<!-- Node4&#45;&gt;Node3 -->
<g id="edge4" class="edge"><title>Node4&#45;&gt;Node3</title>
<path fill="none" stroke="midnightblue" d="M89.3474,-226.275C94.4748,-217.045 100.516,-206.17 104.638,-198.751"/>
<polygon fill="midnightblue" stroke="midnightblue" points="86.2508,-224.642 84.4539,-235.083 92.3699,-228.041 86.2508,-224.642"/>
</g>
</g>
</svg>
