<?xml version="1.0" encoding="UTF-8" standalone="no"?>
<!DOCTYPE svg PUBLIC "-//W3C//DTD SVG 1.1//EN"
 "http://www.w3.org/Graphics/SVG/1.1/DTD/svg11.dtd">
<!-- Generated by graphviz version 2.38.0 (20140413.2041)
 -->
<!-- Title: System.StringComparer Pages: 1 -->
<svg width="426pt" height="98pt"
 viewBox="0.00 0.00 425.50 98.00" xmlns="http://www.w3.org/2000/svg" xmlns:xlink="http://www.w3.org/1999/xlink">
<g id="graph0" class="graph" transform="scale(1 1) rotate(0) translate(4 94)">
<title>System.StringComparer</title>
<!-- Node7 -->
<g id="node1" class="node"><title>Node7</title>
<g id="a_node1"><a xlink:title="Represents a string comparison operation that uses specific case and culture&#45;based or ordinal compari...">
<polygon fill="#bfbfbf" stroke="black" points="126,-1.5 126,-20.5 247,-20.5 247,-1.5 126,-1.5"/>
<text text-anchor="middle" x="186.5" y="-8.5" font-family="Helvetica,sans-Serif" font-size="10.00">System.StringComparer</text>
</a>
</g>
</g>
<!-- Node7&#45;&gt;Node7 -->
<g id="edge5" class="edge"><title>Node7&#45;&gt;Node7</title>
<path fill="none" stroke="#9a32cd" stroke-dasharray="5,2" d="M257.027,-14.833C261.98,-13.9593 265,-12.6816 265,-11 265,-8.375 257.641,-6.73438 247.062,-6.07813"/>
<polygon fill="#9a32cd" stroke="#9a32cd" points="256.622,-11.3563 247.062,-15.9219 257.383,-18.3149 256.622,-11.3563"/>
<text text-anchor="middle" x="324" y="-14" font-family="Helvetica,sans-Serif" font-size="10.00"> InvariantCultureIgnoreCase</text>
<text text-anchor="middle" x="324" y="-3" font-family="Helvetica,sans-Serif" font-size="10.00">InvariantCulture</text>
</g>
<!-- Node8 -->
<g id="node2" class="node"><title>Node8</title>
<g id="a_node2"><a xlink:href="interface_system_1_1_collections_1_1_i_comparer.html" target="_top" xlink:title="Exposes a method that compares two objects.">
<polygon fill="none" stroke="black" points="0,-65 0,-84 61,-84 61,-65 0,-65"/>
<text text-anchor="middle" x="30.5" y="-72" font-family="Helvetica,sans-Serif" font-size="10.00">IComparer</text>
</a>
</g>
</g>
<!-- Node8&#45;&gt;Node7 -->
<g id="edge1" class="edge"><title>Node8&#45;&gt;Node7</title>
<path fill="none" stroke="midnightblue" d="M61.523,-61.2698C92.0555,-49.2329 137.893,-31.1625 164.742,-20.5776"/>
<polygon fill="midnightblue" stroke="midnightblue" points="60.2106,-58.0249 52.1911,-64.9487 62.778,-64.5371 60.2106,-58.0249"/>
</g>
<!-- Node9 -->
<g id="node3" class="node"><title>Node9</title>
<g id="a_node3"><a xlink:href="interface_system_1_1_collections_1_1_i_equality_comparer.html" target="_top" xlink:title="Defines methods to support the comparison of objects for equality.">
<polygon fill="none" stroke="black" points="79.5,-65 79.5,-84 175.5,-84 175.5,-65 79.5,-65"/>
<text text-anchor="middle" x="127.5" y="-72" font-family="Helvetica,sans-Serif" font-size="10.00">IEqualityComparer</text>
</a>
</g>
</g>
<!-- Node9&#45;&gt;Node7 -->
<g id="edge2" class="edge"><title>Node9&#45;&gt;Node7</title>
<path fill="none" stroke="midnightblue" d="M142.775,-57.5772C153.986,-45.8921 168.799,-30.4516 177.984,-20.8769"/>
<polygon fill="midnightblue" stroke="midnightblue" points="140.101,-55.3094 135.704,-64.9487 145.152,-60.1555 140.101,-55.3094"/>
</g>
<!-- Node10 -->
<g id="node4" class="node"><title>Node10</title>
<g id="a_node4"><a xlink:href="interface_system_1_1_collections_1_1_i_comparer.html" target="_top" xlink:title=" ">
<polygon fill="none" stroke="red" points="194,-65 194,-84 297,-84 297,-65 194,-65"/>
<text text-anchor="middle" x="245.5" y="-72" font-family="Helvetica,sans-Serif" font-size="10.00">IComparer&lt; string &gt;</text>
</a>
</g>
</g>
<!-- Node10&#45;&gt;Node7 -->
<g id="edge3" class="edge"><title>Node10&#45;&gt;Node7</title>
<path fill="none" stroke="midnightblue" d="M230.225,-57.5772C219.014,-45.8921 204.201,-30.4516 195.016,-20.8769"/>
<polygon fill="midnightblue" stroke="midnightblue" points="227.848,-60.1555 237.296,-64.9487 232.899,-55.3094 227.848,-60.1555"/>
</g>
<!-- Node12 -->
<g id="node5" class="node"><title>Node12</title>
<g id="a_node5"><a xlink:href="interface_system_1_1_collections_1_1_generic_1_1_i_equality_comparer.html" target="_top" xlink:title=" ">
<polygon fill="none" stroke="red" points="315.5,-59.5 315.5,-89.5 417.5,-89.5 417.5,-59.5 315.5,-59.5"/>
<text text-anchor="start" x="323.5" y="-77.5" font-family="Helvetica,sans-Serif" font-size="10.00">IEqualityComparer&lt;</text>
<text text-anchor="middle" x="366.5" y="-66.5" font-family="Helvetica,sans-Serif" font-size="10.00"> string &gt;</text>
</a>
</g>
</g>
<!-- Node12&#45;&gt;Node7 -->
<g id="edge4" class="edge"><title>Node12&#45;&gt;Node7</title>
<path fill="none" stroke="midnightblue" d="M315.431,-56.0515C281.44,-44.4377 238.27,-29.6881 211.515,-20.5468"/>
<polygon fill="midnightblue" stroke="midnightblue" points="314.61,-59.4695 325.204,-59.3907 316.873,-52.8454 314.61,-59.4695"/>
</g>
</g>
</svg>
