<?xml version="1.0" encoding="UTF-8" standalone="no"?>
<!DOCTYPE svg PUBLIC "-//W3C//DTD SVG 1.1//EN"
 "http://www.w3.org/Graphics/SVG/1.1/DTD/svg11.dtd">
<!-- Generated by graphviz version 2.38.0 (20140413.2041)
 -->
<!-- Title: System.Reflection.Emit.InternalModuleBuilder Pages: 1 -->
<!--zoomable 263 -->
<svg id="main" version="1.1" xmlns="http://www.w3.org/2000/svg" xmlns:xlink="http://www.w3.org/1999/xlink" xml:space="preserve" onload="init(evt)">
<style type="text/css"><![CDATA[
.edge:hover path { stroke: red; }
.edge:hover polygon { stroke: red; fill: red; }
]]></style>
<script type="text/javascript"><![CDATA[
var edges = document.getElementsByTagName('g');
if (edges && edges.length) {
  for (var i=0;i<edges.length;i++) {
    if (edges[i].id.substr(0,4)=='edge') {
      edges[i].setAttribute('class','edge');
    }
  }
}
]]></script>
        <defs>
                <circle id="rim" cx="0" cy="0" r="7"/>
                <circle id="rim2" cx="0" cy="0" r="3.5"/>
                <g id="zoomPlus">
                        <use xlink:href="#rim" fill="#404040">
                                <set attributeName="fill" to="#808080" begin="zoomplus.mouseover" end="zoomplus.mouseout"/>
                        </use>
                        <path d="M-4,0h8M0,-4v8" fill="none" stroke="white" stroke-width="1.5" pointer-events="none"/>
                </g>
                <g id="zoomMin">
                        <use xlink:href="#rim" fill="#404040">
                                <set attributeName="fill" to="#808080" begin="zoomminus.mouseover" end="zoomminus.mouseout"/>
                        </use>
                        <path d="M-4,0h8" fill="none" stroke="white" stroke-width="1.5" pointer-events="none"/>
                </g>
                <g id="dirArrow">
                        <path fill="none" stroke="white" stroke-width="1.5" d="M0,-3.0v7 M-2.5,-0.5L0,-3.0L2.5,-0.5"/>
                </g>
               <g id="resetDef">
                       <use xlink:href="#rim2" fill="#404040">
                               <set attributeName="fill" to="#808080" begin="reset.mouseover" end="reset.mouseout"/>
                       </use>
               </g>
        </defs>

<script type="text/javascript">
var viewWidth = 734;
var viewHeight = 263;
var sectionId = 'dynsection-1';
</script>
<script xlink:href="svgpan.js"/>
<svg id="graph" class="graph">
<g id="viewport">
<title>System.Reflection.Emit.InternalModuleBuilder</title>
<!-- Node6 -->
<g id="node1" class="node"><title>Node6</title>
<g id="a_node1"><a xlink:title=" ">
<polygon fill="#bfbfbf" stroke="black" points="572,-101 572,-131 726,-131 726,-101 572,-101"/>
<text text-anchor="start" x="580" y="-119" font-family="Helvetica,sans-Serif" font-size="10.00">System.Reflection.Emit.Internal</text>
<text text-anchor="middle" x="649" y="-108" font-family="Helvetica,sans-Serif" font-size="10.00">ModuleBuilder</text>
</a>
</g>
</g>
<!-- Node7 -->
<g id="node2" class="node"><title>Node7</title>
<g id="a_node2"><a xlink:href="class_system_1_1_reflection_1_1_runtime_module.html" target="_top" xlink:title=" ">
<polygon fill="none" stroke="black" points="451,-106.5 451,-125.5 535,-125.5 535,-106.5 451,-106.5"/>
<text text-anchor="middle" x="493" y="-113.5" font-family="Helvetica,sans-Serif" font-size="10.00">RuntimeModule</text>
</a>
</g>
</g>
<!-- Node7&#45;&gt;Node6 -->
<g id="edge1" class="edge"><title>Node7&#45;&gt;Node6</title>
<path fill="none" stroke="midnightblue" d="M545.38,-116C553.888,-116 562.867,-116 571.83,-116"/>
<polygon fill="midnightblue" stroke="midnightblue" points="545.269,-112.5 535.269,-116 545.269,-119.5 545.269,-112.5"/>
</g>
<!-- Node8 -->
<g id="node3" class="node"><title>Node8</title>
<g id="a_node3"><a xlink:href="class_system_1_1_reflection_1_1_module.html" target="_top" xlink:title="Performs reflection on a module.">
<polygon fill="none" stroke="black" points="272.5,-138.5 272.5,-157.5 320.5,-157.5 320.5,-138.5 272.5,-138.5"/>
<text text-anchor="middle" x="296.5" y="-145.5" font-family="Helvetica,sans-Serif" font-size="10.00">Module</text>
</a>
</g>
</g>
<!-- Node8&#45;&gt;Node7 -->
<g id="edge2" class="edge"><title>Node8&#45;&gt;Node7</title>
<path fill="none" stroke="midnightblue" d="M330.697,-142.538C363.949,-137.068 415.193,-128.637 450.973,-122.75"/>
<polygon fill="midnightblue" stroke="midnightblue" points="329.875,-139.126 320.575,-144.204 331.011,-146.034 329.875,-139.126"/>
</g>
<!-- Node9 -->
<g id="node4" class="node"><title>Node9</title>
<g id="a_node4"><a xlink:href="interface_system_1_1_runtime_1_1_interop_services_1_1___module.html" target="_top" xlink:title="Exposes the T:System.Reflection.Module class to unmanaged code.">
<polygon fill="none" stroke="black" points="35.5,-235.5 35.5,-254.5 88.5,-254.5 88.5,-235.5 35.5,-235.5"/>
<text text-anchor="middle" x="62" y="-242.5" font-family="Helvetica,sans-Serif" font-size="10.00">_Module</text>
</a>
</g>
</g>
<!-- Node9&#45;&gt;Node8 -->
<g id="edge3" class="edge"><title>Node9&#45;&gt;Node8</title>
<path fill="none" stroke="midnightblue" d="M98.3963,-234.796C106.855,-232.133 115.806,-229.125 124,-226 180.691,-204.376 245.272,-173.135 276.543,-157.569"/>
<polygon fill="midnightblue" stroke="midnightblue" points="97.2998,-231.472 88.7673,-237.752 99.3541,-238.164 97.2998,-231.472"/>
</g>
<!-- Node10 -->
<g id="node5" class="node"><title>Node10</title>
<g id="a_node5"><a xlink:href="interface_system_1_1_runtime_1_1_serialization_1_1_i_serializable.html" target="_top" xlink:title="Allows an object to control its own serialization and deserialization.">
<polygon fill="none" stroke="black" points="27.5,-78.5 27.5,-97.5 96.5,-97.5 96.5,-78.5 27.5,-78.5"/>
<text text-anchor="middle" x="62" y="-85.5" font-family="Helvetica,sans-Serif" font-size="10.00">ISerializable</text>
</a>
</g>
</g>
<!-- Node10&#45;&gt;Node8 -->
<g id="edge4" class="edge"><title>Node10&#45;&gt;Node8</title>
<path fill="none" stroke="midnightblue" d="M106.518,-99.2304C155.6,-111.897 233.595,-132.024 272.233,-141.996"/>
<polygon fill="midnightblue" stroke="midnightblue" points="107.365,-95.8344 96.8075,-96.7245 105.616,-102.612 107.365,-95.8344"/>
</g>
<!-- Node13 -->
<g id="node8" class="node"><title>Node13</title>
<g id="a_node8"><a xlink:href="class_system_1_1_reflection_1_1_assembly.html" target="_top" xlink:title="Represents an assembly, which is a reusable, versionable, and self&#45;describing building block of a com...">
<polygon fill="none" stroke="black" points="225,-63.5 225,-82.5 368,-82.5 368,-63.5 225,-63.5"/>
<text text-anchor="middle" x="296.5" y="-70.5" font-family="Helvetica,sans-Serif" font-size="10.00">System.Reflection.Assembly</text>
</a>
</g>
</g>
<!-- Node10&#45;&gt;Node13 -->
<g id="edge12" class="edge"><title>Node10&#45;&gt;Node13</title>
<path fill="none" stroke="midnightblue" d="M107.093,-85.1553C140.258,-83.0156 186.383,-80.0398 224.693,-77.5682"/>
<polygon fill="midnightblue" stroke="midnightblue" points="106.561,-81.6822 96.8075,-85.8189 107.012,-88.6677 106.561,-81.6822"/>
</g>
<!-- Node11 -->
<g id="node6" class="node"><title>Node11</title>
<g id="a_node6"><a xlink:href="interface_system_1_1_reflection_1_1_i_custom_attribute_provider.html" target="_top" xlink:title="Provides custom attributes for reflection objects that support them.">
<polygon fill="none" stroke="black" points="0,-121.5 0,-140.5 124,-140.5 124,-121.5 0,-121.5"/>
<text text-anchor="middle" x="62" y="-128.5" font-family="Helvetica,sans-Serif" font-size="10.00">ICustomAttributeProvider</text>
</a>
</g>
</g>
<!-- Node11&#45;&gt;Node8 -->
<g id="edge5" class="edge"><title>Node11&#45;&gt;Node8</title>
<path fill="none" stroke="midnightblue" d="M134.266,-136.211C181.439,-139.66 240.295,-143.963 272.24,-146.299"/>
<polygon fill="midnightblue" stroke="midnightblue" points="134.315,-132.705 124.087,-135.467 133.805,-139.687 134.315,-132.705"/>
</g>
<!-- Node11&#45;&gt;Node13 -->
<g id="edge11" class="edge"><title>Node11&#45;&gt;Node13</title>
<path fill="none" stroke="midnightblue" d="M110.887,-119.054C154.251,-108.236 217.301,-92.5078 257.347,-82.5178"/>
<polygon fill="midnightblue" stroke="midnightblue" points="109.988,-115.671 101.132,-121.487 111.682,-122.463 109.988,-115.671"/>
</g>
<!-- Node12 -->
<g id="node7" class="node"><title>Node12</title>
<g id="a_node7"><a xlink:href="struct_system_1_1_module_handle.html" target="_top" xlink:title="Represents a runtime handle for a module.">
<polygon fill="none" stroke="black" points="4.5,-168.5 4.5,-187.5 119.5,-187.5 119.5,-168.5 4.5,-168.5"/>
<text text-anchor="middle" x="62" y="-175.5" font-family="Helvetica,sans-Serif" font-size="10.00">System.ModuleHandle</text>
</a>
</g>
</g>
<!-- Node12&#45;&gt;Node8 -->
<g id="edge6" class="edge"><title>Node12&#45;&gt;Node8</title>
<path fill="none" stroke="#9a32cd" stroke-dasharray="5,2" d="M129.595,-169.407C177.593,-163.214 239.5,-155.226 272.455,-150.974"/>
<polygon fill="#9a32cd" stroke="#9a32cd" points="129.048,-165.949 119.579,-170.7 129.944,-172.891 129.048,-165.949"/>
<text text-anchor="middle" x="174.5" y="-170" font-family="Helvetica,sans-Serif" font-size="10.00"> ModuleHandle</text>
</g>
<!-- Node12&#45;&gt;Node12 -->
<g id="edge7" class="edge"><title>Node12&#45;&gt;Node12</title>
<path fill="none" stroke="#9a32cd" stroke-dasharray="5,2" d="M41.2603,-197.4C42.6454,-202.315 49.5586,-206 62,-206 81.9063,-206 87.6604,-196.565 79.2625,-187.757"/>
<polygon fill="#9a32cd" stroke="#9a32cd" points="44.6378,-198.351 44.7375,-187.757 38.0528,-195.977 44.6378,-198.351"/>
<text text-anchor="middle" x="62" y="-209" font-family="Helvetica,sans-Serif" font-size="10.00"> EmptyHandle</text>
</g>
<!-- Node13&#45;&gt;Node7 -->
<g id="edge8" class="edge"><title>Node13&#45;&gt;Node7</title>
<path fill="none" stroke="#9a32cd" stroke-dasharray="5,2" d="M350.629,-84.7457C382.241,-91.7344 421.745,-100.468 450.952,-106.925"/>
<polygon fill="#9a32cd" stroke="#9a32cd" points="351.186,-81.2844 340.666,-82.5431 349.675,-88.1193 351.186,-81.2844"/>
<text text-anchor="middle" x="409.5" y="-105" font-family="Helvetica,sans-Serif" font-size="10.00"> Assembly</text>
</g>
<!-- Node14 -->
<g id="node9" class="node"><title>Node14</title>
<g id="a_node9"><a xlink:href="interface_system_1_1_runtime_1_1_interop_services_1_1___assembly.html" target="_top" xlink:title="Exposes the public members of the T:System.Reflection.Assembly class to unmanaged code.">
<polygon fill="none" stroke="black" points="29.5,-38.5 29.5,-57.5 94.5,-57.5 94.5,-38.5 29.5,-38.5"/>
<text text-anchor="middle" x="62" y="-45.5" font-family="Helvetica,sans-Serif" font-size="10.00">_Assembly</text>
</a>
</g>
</g>
<!-- Node14&#45;&gt;Node13 -->
<g id="edge9" class="edge"><title>Node14&#45;&gt;Node13</title>
<path fill="none" stroke="midnightblue" d="M105.152,-52.5325C138.508,-56.1191 185.819,-61.2064 224.929,-65.4117"/>
<polygon fill="midnightblue" stroke="midnightblue" points="105.158,-49.013 94.8406,-51.4237 104.409,-55.9729 105.158,-49.013"/>
</g>
<!-- Node15 -->
<g id="node10" class="node"><title>Node15</title>
<g id="a_node10"><a xlink:href="interface_system_1_1_security_1_1_i_evidence_factory.html" target="_top" xlink:title="Gets an object&#39;s T:System.Security.Policy.Evidence.">
<polygon fill="none" stroke="black" points="16.5,-0.5 16.5,-19.5 107.5,-19.5 107.5,-0.5 16.5,-0.5"/>
<text text-anchor="middle" x="62" y="-7.5" font-family="Helvetica,sans-Serif" font-size="10.00">IEvidenceFactory</text>
</a>
</g>
</g>
<!-- Node15&#45;&gt;Node13 -->
<g id="edge10" class="edge"><title>Node15&#45;&gt;Node13</title>
<path fill="none" stroke="midnightblue" d="M107.987,-22.1901C152.435,-34.2341 219.514,-52.4102 260.238,-63.445"/>
<polygon fill="midnightblue" stroke="midnightblue" points="108.879,-18.8056 98.3117,-19.5683 107.048,-25.562 108.879,-18.8056"/>
</g>
</g>
</svg>
        <g id="navigator" transform="translate(0 0)" fill="#404254">
                <rect fill="#f2f5e9" fill-opacity="0.5" stroke="#606060" stroke-width=".5" x="0" y="0" width="60" height="60"/>
                <use id="zoomplus" xlink:href="#zoomPlus" x="17" y="9" onmousedown="handleZoom(evt,'in')"/>
                <use id="zoomminus" xlink:href="#zoomMin" x="42" y="9" onmousedown="handleZoom(evt,'out')"/>
                <use id="reset" xlink:href="#resetDef" x="30" y="36" onmousedown="handleReset()"/>
                <g id="arrowUp" xlink:href="#dirArrow" transform="translate(30 24)" onmousedown="handlePan(0,-1)">
                  <use xlink:href="#rim" fill="#404040">
                        <set attributeName="fill" to="#808080" begin="arrowUp.mouseover" end="arrowUp.mouseout"/>
                  </use>
                  <path fill="none" stroke="white" stroke-width="1.5" d="M0,-3.0v7 M-2.5,-0.5L0,-3.0L2.5,-0.5"/>
                </g>
                <g id="arrowRight" xlink:href="#dirArrow" transform="rotate(90) translate(36 -43)" onmousedown="handlePan(1,0)">
                  <use xlink:href="#rim" fill="#404040">
                        <set attributeName="fill" to="#808080" begin="arrowRight.mouseover" end="arrowRight.mouseout"/>
                  </use>
                  <path fill="none" stroke="white" stroke-width="1.5" d="M0,-3.0v7 M-2.5,-0.5L0,-3.0L2.5,-0.5"/>
                </g>
                <g id="arrowDown" xlink:href="#dirArrow" transform="rotate(180) translate(-30 -48)" onmousedown="handlePan(0,1)">
                  <use xlink:href="#rim" fill="#404040">
                        <set attributeName="fill" to="#808080" begin="arrowDown.mouseover" end="arrowDown.mouseout"/>
                  </use>
                  <path fill="none" stroke="white" stroke-width="1.5" d="M0,-3.0v7 M-2.5,-0.5L0,-3.0L2.5,-0.5"/>
                </g>
                <g id="arrowLeft" xlink:href="#dirArrow" transform="rotate(270) translate(-36 17)" onmousedown="handlePan(-1,0)">
                  <use xlink:href="#rim" fill="#404040">
                        <set attributeName="fill" to="#808080" begin="arrowLeft.mouseover" end="arrowLeft.mouseout"/>
                  </use>
                  <path fill="none" stroke="white" stroke-width="1.5" d="M0,-3.0v7 M-2.5,-0.5L0,-3.0L2.5,-0.5"/>
                </g>
        </g>
        <svg viewBox="0 0 15 15" width="100%" height="30px" preserveAspectRatio="xMaxYMin meet">
         <g id="arrow_out" transform="scale(0.3 0.3)">
          <a xlink:href="class_system_1_1_reflection_1_1_emit_1_1_internal_module_builder__coll__graph_org.svg" target="_base">
           <rect id="button" ry="5" rx="5" y="6" x="6" height="38" width="38"
                fill="#f2f5e9" fill-opacity="0.5" stroke="#606060" stroke-width="1.0"/>
           <path id="arrow"
             d="M 11.500037,31.436501 C 11.940474,20.09759 22.043105,11.32322 32.158766,21.979434 L 37.068811,17.246167 C 37.068811,17.246167 37.088388,32 37.088388,32 L 22.160133,31.978069 C 22.160133,31.978069 26.997745,27.140456 26.997745,27.140456 C 18.528582,18.264221 13.291696,25.230495 11.500037,31.436501 z"
             style="fill:#404040;"/>
          </a>
         </g>
        </svg>
</svg>
