<?xml version="1.0" encoding="UTF-8" standalone="no"?>
<!DOCTYPE svg PUBLIC "-//W3C//DTD SVG 1.1//EN"
 "http://www.w3.org/Graphics/SVG/1.1/DTD/svg11.dtd">
<!-- Generated by graphviz version 2.38.0 (20140413.2041)
 -->
<!-- Title: System.Reflection.ParameterInfo Pages: 1 -->
<svg width="342pt" height="84pt"
 viewBox="0.00 0.00 341.50 84.00" xmlns="http://www.w3.org/2000/svg" xmlns:xlink="http://www.w3.org/1999/xlink">
<g id="graph0" class="graph" transform="scale(1 1) rotate(0) translate(4 80)">
<title>System.Reflection.ParameterInfo</title>
<!-- Node0 -->
<g id="node1" class="node"><title>Node0</title>
<g id="a_node1"><a xlink:title="Discovers the attributes of a parameter and provides access to parameter metadata.">
<polygon fill="#bfbfbf" stroke="black" points="82.5,-0.5 82.5,-19.5 241.5,-19.5 241.5,-0.5 82.5,-0.5"/>
<text text-anchor="middle" x="162" y="-7.5" font-family="Helvetica,sans-Serif" font-size="10.00">System.Reflection.ParameterInfo</text>
</a>
</g>
</g>
<!-- Node1 -->
<g id="node2" class="node"><title>Node1</title>
<g id="a_node2"><a xlink:href="interface_system_1_1_runtime_1_1_interop_services_1_1___parameter_info.html" target="_top" xlink:title="Exposes the T:System.Reflection.ParameterInfo class to unmanaged code.">
<polygon fill="none" stroke="black" points="0,-56.5 0,-75.5 82,-75.5 82,-56.5 0,-56.5"/>
<text text-anchor="middle" x="41" y="-63.5" font-family="Helvetica,sans-Serif" font-size="10.00">_ParameterInfo</text>
</a>
</g>
</g>
<!-- Node1&#45;&gt;Node0 -->
<g id="edge1" class="edge"><title>Node1&#45;&gt;Node0</title>
<path fill="none" stroke="midnightblue" d="M69.3056,-52.3678C91.9651,-42.2553 123.126,-28.3486 142.917,-19.5164"/>
<polygon fill="midnightblue" stroke="midnightblue" points="67.8783,-49.1719 60.1728,-56.4435 70.7311,-55.5643 67.8783,-49.1719"/>
</g>
<!-- Node2 -->
<g id="node3" class="node"><title>Node2</title>
<g id="a_node3"><a xlink:href="interface_system_1_1_reflection_1_1_i_custom_attribute_provider.html" target="_top" xlink:title="Provides custom attributes for reflection objects that support them.">
<polygon fill="none" stroke="black" points="100,-56.5 100,-75.5 224,-75.5 224,-56.5 100,-56.5"/>
<text text-anchor="middle" x="162" y="-63.5" font-family="Helvetica,sans-Serif" font-size="10.00">ICustomAttributeProvider</text>
</a>
</g>
</g>
<!-- Node2&#45;&gt;Node0 -->
<g id="edge2" class="edge"><title>Node2&#45;&gt;Node0</title>
<path fill="none" stroke="midnightblue" d="M162,-45.8045C162,-36.9102 162,-26.7798 162,-19.7511"/>
<polygon fill="midnightblue" stroke="midnightblue" points="158.5,-46.083 162,-56.083 165.5,-46.083 158.5,-46.083"/>
</g>
<!-- Node3 -->
<g id="node4" class="node"><title>Node3</title>
<g id="a_node4"><a xlink:href="interface_system_1_1_runtime_1_1_serialization_1_1_i_object_reference.html" target="_top" xlink:title="Indicates that the current interface implementer is a reference to another object.">
<polygon fill="none" stroke="black" points="242.5,-56.5 242.5,-75.5 333.5,-75.5 333.5,-56.5 242.5,-56.5"/>
<text text-anchor="middle" x="288" y="-63.5" font-family="Helvetica,sans-Serif" font-size="10.00">IObjectReference</text>
</a>
</g>
</g>
<!-- Node3&#45;&gt;Node0 -->
<g id="edge3" class="edge"><title>Node3&#45;&gt;Node0</title>
<path fill="none" stroke="midnightblue" d="M258.84,-52.503C235.219,-42.3795 202.572,-28.388 181.872,-19.5164"/>
<polygon fill="midnightblue" stroke="midnightblue" points="257.465,-55.7213 268.035,-56.4435 260.222,-49.2873 257.465,-55.7213"/>
</g>
</g>
</svg>
