<?xml version="1.0" encoding="UTF-8" standalone="no"?>
<!DOCTYPE svg PUBLIC "-//W3C//DTD SVG 1.1//EN"
 "http://www.w3.org/Graphics/SVG/1.1/DTD/svg11.dtd">
<!-- Generated by graphviz version 2.38.0 (20140413.2041)
 -->
<!-- Title: System.Linq.Expressions.MethodCallExpression Pages: 1 -->
<svg width="186pt" height="95pt"
 viewBox="0.00 0.00 186.00 95.00" xmlns="http://www.w3.org/2000/svg" xmlns:xlink="http://www.w3.org/1999/xlink">
<g id="graph0" class="graph" transform="scale(1 1) rotate(0) translate(4 91)">
<title>System.Linq.Expressions.MethodCallExpression</title>
<!-- Node0 -->
<g id="node1" class="node"><title>Node0</title>
<g id="a_node1"><a xlink:title="Represents a call to either static or an instance method.">
<polygon fill="#bfbfbf" stroke="black" points="16,-0.5 16,-30.5 147,-30.5 147,-0.5 16,-0.5"/>
<text text-anchor="start" x="24" y="-18.5" font-family="Helvetica,sans-Serif" font-size="10.00">System.Linq.Expressions.</text>
<text text-anchor="middle" x="81.5" y="-7.5" font-family="Helvetica,sans-Serif" font-size="10.00">MethodCallExpression</text>
</a>
</g>
</g>
<!-- Node1 -->
<g id="node2" class="node"><title>Node1</title>
<g id="a_node2"><a xlink:href="class_system_1_1_linq_1_1_expressions_1_1_expression.html" target="_top" xlink:title="Provides the base class from which the classes that represent expression tree nodes are derived....">
<polygon fill="none" stroke="black" points="0,-67.5 0,-86.5 65,-86.5 65,-67.5 0,-67.5"/>
<text text-anchor="middle" x="32.5" y="-74.5" font-family="Helvetica,sans-Serif" font-size="10.00">Expression</text>
</a>
</g>
</g>
<!-- Node1&#45;&gt;Node0 -->
<g id="edge1" class="edge"><title>Node1&#45;&gt;Node0</title>
<path fill="none" stroke="midnightblue" d="M46.0638,-59.5296C53.5681,-50.4173 62.7947,-39.2136 69.9517,-30.523"/>
<polygon fill="midnightblue" stroke="midnightblue" points="43.1758,-57.5308 39.5205,-67.4751 48.5794,-61.9808 43.1758,-57.5308"/>
</g>
<!-- Node2 -->
<g id="node3" class="node"><title>Node2</title>
<g id="a_node3"><a xlink:href="interface_system_1_1_linq_1_1_expressions_1_1_i_argument_provider.html" target="_top" xlink:title="Provides an internal interface for accessing the arguments of multiple tree nodes (DynamicExpression,...">
<polygon fill="none" stroke="black" points="83,-67.5 83,-86.5 178,-86.5 178,-67.5 83,-67.5"/>
<text text-anchor="middle" x="130.5" y="-74.5" font-family="Helvetica,sans-Serif" font-size="10.00">IArgumentProvider</text>
</a>
</g>
</g>
<!-- Node2&#45;&gt;Node0 -->
<g id="edge2" class="edge"><title>Node2&#45;&gt;Node0</title>
<path fill="none" stroke="midnightblue" d="M116.936,-59.5296C109.432,-50.4173 100.205,-39.2136 93.0483,-30.523"/>
<polygon fill="midnightblue" stroke="midnightblue" points="114.421,-61.9808 123.479,-67.4751 119.824,-57.5308 114.421,-61.9808"/>
</g>
</g>
</svg>
