<?xml version="1.0" encoding="UTF-8" standalone="no"?>
<!DOCTYPE svg PUBLIC "-//W3C//DTD SVG 1.1//EN"
 "http://www.w3.org/Graphics/SVG/1.1/DTD/svg11.dtd">
<!-- Generated by graphviz version 2.38.0 (20140413.2041)
 -->
<!-- Title: System.Runtime.InteropServices.SafeArrayTypeMismatchException Pages: 1 -->
<svg width="175pt" height="207pt"
 viewBox="0.00 0.00 175.00 207.00" xmlns="http://www.w3.org/2000/svg" xmlns:xlink="http://www.w3.org/1999/xlink">
<g id="graph0" class="graph" transform="scale(1 1) rotate(0) translate(4 203)">
<title>System.Runtime.InteropServices.SafeArrayTypeMismatchException</title>
<!-- Node5 -->
<g id="node1" class="node"><title>Node5</title>
<g id="a_node1"><a xlink:title="The exception thrown when the type of the incoming SAFEARRAY does not match the type specified in the...">
<polygon fill="#bfbfbf" stroke="black" points="0,-0.5 0,-30.5 167,-30.5 167,-0.5 0,-0.5"/>
<text text-anchor="start" x="8" y="-18.5" font-family="Helvetica,sans-Serif" font-size="10.00">System.Runtime.InteropServices.</text>
<text text-anchor="middle" x="83.5" y="-7.5" font-family="Helvetica,sans-Serif" font-size="10.00">SafeArrayTypeMismatchException</text>
</a>
</g>
</g>
<!-- Node6 -->
<g id="node2" class="node"><title>Node6</title>
<g id="a_node2"><a xlink:href="class_system_1_1_system_exception.html" target="_top" xlink:title="Serves as the base class for system exceptions namespace.">
<polygon fill="none" stroke="black" points="36.5,-67.5 36.5,-86.5 130.5,-86.5 130.5,-67.5 36.5,-67.5"/>
<text text-anchor="middle" x="83.5" y="-74.5" font-family="Helvetica,sans-Serif" font-size="10.00">SystemException</text>
</a>
</g>
</g>
<!-- Node6&#45;&gt;Node5 -->
<g id="edge1" class="edge"><title>Node6&#45;&gt;Node5</title>
<path fill="none" stroke="midnightblue" d="M83.5,-57.2349C83.5,-48.5864 83.5,-38.4969 83.5,-30.523"/>
<polygon fill="midnightblue" stroke="midnightblue" points="80.0001,-57.4751 83.5,-67.4751 87.0001,-57.4751 80.0001,-57.4751"/>
</g>
<!-- Node7 -->
<g id="node3" class="node"><title>Node7</title>
<g id="a_node3"><a xlink:href="class_system_1_1_exception.html" target="_top" xlink:title="Represents errors that occur during application execution.To browse the .NET Framework source code fo...">
<polygon fill="none" stroke="black" points="53.5,-123.5 53.5,-142.5 113.5,-142.5 113.5,-123.5 53.5,-123.5"/>
<text text-anchor="middle" x="83.5" y="-130.5" font-family="Helvetica,sans-Serif" font-size="10.00">Exception</text>
</a>
</g>
</g>
<!-- Node7&#45;&gt;Node6 -->
<g id="edge2" class="edge"><title>Node7&#45;&gt;Node6</title>
<path fill="none" stroke="midnightblue" d="M83.5,-112.805C83.5,-103.91 83.5,-93.7798 83.5,-86.7511"/>
<polygon fill="midnightblue" stroke="midnightblue" points="80.0001,-113.083 83.5,-123.083 87.0001,-113.083 80.0001,-113.083"/>
</g>
<!-- Node8 -->
<g id="node4" class="node"><title>Node8</title>
<g id="a_node4"><a xlink:href="interface_system_1_1_runtime_1_1_serialization_1_1_i_serializable.html" target="_top" xlink:title="Allows an object to control its own serialization and deserialization.">
<polygon fill="none" stroke="black" points="7,-179.5 7,-198.5 76,-198.5 76,-179.5 7,-179.5"/>
<text text-anchor="middle" x="41.5" y="-186.5" font-family="Helvetica,sans-Serif" font-size="10.00">ISerializable</text>
</a>
</g>
</g>
<!-- Node8&#45;&gt;Node7 -->
<g id="edge3" class="edge"><title>Node8&#45;&gt;Node7</title>
<path fill="none" stroke="midnightblue" d="M54.6102,-171.144C61.9278,-161.736 70.7409,-150.405 76.6936,-142.751"/>
<polygon fill="midnightblue" stroke="midnightblue" points="51.8122,-169.041 48.4354,-179.083 57.3376,-173.338 51.8122,-169.041"/>
</g>
<!-- Node9 -->
<g id="node5" class="node"><title>Node9</title>
<g id="a_node5"><a xlink:href="interface_system_1_1_runtime_1_1_interop_services_1_1___exception.html" target="_top" xlink:title="Exposes the public members of the T:System.Exception class to unmanaged code.">
<polygon fill="none" stroke="black" points="94,-179.5 94,-198.5 159,-198.5 159,-179.5 94,-179.5"/>
<text text-anchor="middle" x="126.5" y="-186.5" font-family="Helvetica,sans-Serif" font-size="10.00">_Exception</text>
</a>
</g>
</g>
<!-- Node9&#45;&gt;Node7 -->
<g id="edge4" class="edge"><title>Node9&#45;&gt;Node7</title>
<path fill="none" stroke="midnightblue" d="M113.078,-171.144C105.586,-161.736 96.5629,-150.405 90.4685,-142.751"/>
<polygon fill="midnightblue" stroke="midnightblue" points="110.432,-173.44 119.399,-179.083 115.908,-169.08 110.432,-173.44"/>
</g>
</g>
</svg>
