<?xml version="1.0" encoding="UTF-8" standalone="no"?>
<!DOCTYPE svg PUBLIC "-//W3C//DTD SVG 1.1//EN"
 "http://www.w3.org/Graphics/SVG/1.1/DTD/svg11.dtd">
<!-- Generated by graphviz version 2.38.0 (20140413.2041)
 -->
<!-- Title: System.IO.SearchResultHandler&lt; TSource &gt; Pages: 1 -->
<!--zoomable 186 -->
<svg id="main" version="1.1" xmlns="http://www.w3.org/2000/svg" xmlns:xlink="http://www.w3.org/1999/xlink" xml:space="preserve" onload="init(evt)">
<style type="text/css"><![CDATA[
.edge:hover path { stroke: red; }
.edge:hover polygon { stroke: red; fill: red; }
]]></style>
<script type="text/javascript"><![CDATA[
var edges = document.getElementsByTagName('g');
if (edges && edges.length) {
  for (var i=0;i<edges.length;i++) {
    if (edges[i].id.substr(0,4)=='edge') {
      edges[i].setAttribute('class','edge');
    }
  }
}
]]></script>
        <defs>
                <circle id="rim" cx="0" cy="0" r="7"/>
                <circle id="rim2" cx="0" cy="0" r="3.5"/>
                <g id="zoomPlus">
                        <use xlink:href="#rim" fill="#404040">
                                <set attributeName="fill" to="#808080" begin="zoomplus.mouseover" end="zoomplus.mouseout"/>
                        </use>
                        <path d="M-4,0h8M0,-4v8" fill="none" stroke="white" stroke-width="1.5" pointer-events="none"/>
                </g>
                <g id="zoomMin">
                        <use xlink:href="#rim" fill="#404040">
                                <set attributeName="fill" to="#808080" begin="zoomminus.mouseover" end="zoomminus.mouseout"/>
                        </use>
                        <path d="M-4,0h8" fill="none" stroke="white" stroke-width="1.5" pointer-events="none"/>
                </g>
                <g id="dirArrow">
                        <path fill="none" stroke="white" stroke-width="1.5" d="M0,-3.0v7 M-2.5,-0.5L0,-3.0L2.5,-0.5"/>
                </g>
               <g id="resetDef">
                       <use xlink:href="#rim2" fill="#404040">
                               <set attributeName="fill" to="#808080" begin="reset.mouseover" end="reset.mouseout"/>
                       </use>
               </g>
        </defs>

<script type="text/javascript">
var viewWidth = 635;
var viewHeight = 186;
var sectionId = 'dynsection-0';
</script>
<script xlink:href="svgpan.js"/>
<svg id="graph" class="graph">
<g id="viewport">
<title>System.IO.SearchResultHandler&lt; TSource &gt;</title>
<!-- Node0 -->
<g id="node1" class="node"><title>Node0</title>
<g id="a_node1"><a xlink:title=" ">
<polygon fill="#bfbfbf" stroke="black" points="0,-73.5 0,-103.5 158,-103.5 158,-73.5 0,-73.5"/>
<text text-anchor="start" x="8" y="-91.5" font-family="Helvetica,sans-Serif" font-size="10.00">System.IO.SearchResultHandler</text>
<text text-anchor="middle" x="79" y="-80.5" font-family="Helvetica,sans-Serif" font-size="10.00">&lt; TSource &gt;</text>
</a>
</g>
</g>
<!-- Node1 -->
<g id="node2" class="node"><title>Node1</title>
<g id="a_node2"><a xlink:href="class_system_1_1_i_o_1_1_search_result_handler.html" target="_top" xlink:title=" ">
<polygon fill="none" stroke="black" points="280,-147.5 280,-177.5 438,-177.5 438,-147.5 280,-147.5"/>
<text text-anchor="start" x="288" y="-165.5" font-family="Helvetica,sans-Serif" font-size="10.00">System.IO.SearchResultHandler</text>
<text text-anchor="middle" x="359" y="-154.5" font-family="Helvetica,sans-Serif" font-size="10.00">&lt; FileSystemInfo &gt;</text>
</a>
</g>
</g>
<!-- Node0&#45;&gt;Node1 -->
<g id="edge1" class="edge"><title>Node0&#45;&gt;Node1</title>
<path fill="none" stroke="orange" stroke-dasharray="5,2" d="M131.88,-106.793C146.099,-111.533 161.572,-116.441 176,-120.5 211.742,-130.557 251.92,-140.019 285.416,-147.407"/>
<polygon fill="orange" stroke="orange" points="132.858,-103.43 122.264,-103.551 130.622,-110.063 132.858,-103.43"/>
<text text-anchor="middle" x="219" y="-144.5" font-family="Helvetica,sans-Serif" font-size="10.00"> &lt; FileSystemInfo &gt;</text>
</g>
<!-- Node3 -->
<g id="node4" class="node"><title>Node3</title>
<g id="a_node4"><a xlink:href="class_system_1_1_i_o_1_1_search_result_handler.html" target="_top" xlink:title=" ">
<polygon fill="none" stroke="black" points="280,-98.5 280,-128.5 438,-128.5 438,-98.5 280,-98.5"/>
<text text-anchor="start" x="288" y="-116.5" font-family="Helvetica,sans-Serif" font-size="10.00">System.IO.SearchResultHandler</text>
<text text-anchor="middle" x="359" y="-105.5" font-family="Helvetica,sans-Serif" font-size="10.00">&lt; FileInfo &gt;</text>
</a>
</g>
</g>
<!-- Node0&#45;&gt;Node3 -->
<g id="edge3" class="edge"><title>Node0&#45;&gt;Node3</title>
<path fill="none" stroke="orange" stroke-dasharray="5,2" d="M168.149,-96.4271C204.028,-99.6536 245.15,-103.352 279.927,-106.479"/>
<polygon fill="orange" stroke="orange" points="168.452,-92.9402 158.178,-95.5304 167.825,-99.9121 168.452,-92.9402"/>
<text text-anchor="middle" x="219" y="-108.5" font-family="Helvetica,sans-Serif" font-size="10.00"> &lt; FileInfo &gt;</text>
</g>
<!-- Node5 -->
<g id="node6" class="node"><title>Node5</title>
<g id="a_node6"><a xlink:href="class_system_1_1_i_o_1_1_search_result_handler.html" target="_top" xlink:title=" ">
<polygon fill="none" stroke="black" points="280,-49.5 280,-79.5 438,-79.5 438,-49.5 280,-49.5"/>
<text text-anchor="start" x="288" y="-67.5" font-family="Helvetica,sans-Serif" font-size="10.00">System.IO.SearchResultHandler</text>
<text text-anchor="middle" x="359" y="-56.5" font-family="Helvetica,sans-Serif" font-size="10.00">&lt; string &gt;</text>
</a>
</g>
</g>
<!-- Node0&#45;&gt;Node5 -->
<g id="edge5" class="edge"><title>Node0&#45;&gt;Node5</title>
<path fill="none" stroke="orange" stroke-dasharray="5,2" d="M168.221,-77.2713C170.842,-77.0021 173.44,-76.7442 176,-76.5 210.045,-73.2527 247.756,-70.6095 279.981,-68.6388"/>
<polygon fill="orange" stroke="orange" points="167.595,-73.8181 158.023,-78.3596 168.338,-80.7786 167.595,-73.8181"/>
<text text-anchor="middle" x="219" y="-79.5" font-family="Helvetica,sans-Serif" font-size="10.00"> &lt; string &gt;</text>
</g>
<!-- Node7 -->
<g id="node8" class="node"><title>Node7</title>
<g id="a_node8"><a xlink:href="class_system_1_1_i_o_1_1_search_result_handler.html" target="_top" xlink:title=" ">
<polygon fill="none" stroke="black" points="280,-0.5 280,-30.5 438,-30.5 438,-0.5 280,-0.5"/>
<text text-anchor="start" x="288" y="-18.5" font-family="Helvetica,sans-Serif" font-size="10.00">System.IO.SearchResultHandler</text>
<text text-anchor="middle" x="359" y="-7.5" font-family="Helvetica,sans-Serif" font-size="10.00">&lt; DirectoryInfo &gt;</text>
</a>
</g>
</g>
<!-- Node0&#45;&gt;Node7 -->
<g id="edge7" class="edge"><title>Node0&#45;&gt;Node7</title>
<path fill="none" stroke="orange" stroke-dasharray="5,2" d="M129.774,-70.1762C144.544,-65.0695 160.828,-59.7597 176,-55.5 209.794,-46.0117 247.636,-37.381 280.023,-30.5853"/>
<polygon fill="orange" stroke="orange" points="128.595,-66.8807 120.314,-73.4897 130.909,-73.4872 128.595,-66.8807"/>
<text text-anchor="middle" x="219" y="-58.5" font-family="Helvetica,sans-Serif" font-size="10.00"> &lt; DirectoryInfo &gt;</text>
</g>
<!-- Node2 -->
<g id="node3" class="node"><title>Node2</title>
<g id="a_node3"><a xlink:href="class_system_1_1_i_o_1_1_file_system_info_result_handler.html" target="_top" xlink:title=" ">
<polygon fill="none" stroke="black" points="485.5,-147.5 485.5,-177.5 616.5,-177.5 616.5,-147.5 485.5,-147.5"/>
<text text-anchor="start" x="493.5" y="-165.5" font-family="Helvetica,sans-Serif" font-size="10.00">System.IO.FileSystemInfo</text>
<text text-anchor="middle" x="551" y="-154.5" font-family="Helvetica,sans-Serif" font-size="10.00">ResultHandler</text>
</a>
</g>
</g>
<!-- Node1&#45;&gt;Node2 -->
<g id="edge2" class="edge"><title>Node1&#45;&gt;Node2</title>
<path fill="none" stroke="midnightblue" d="M448.452,-162.5C460.836,-162.5 473.37,-162.5 485.205,-162.5"/>
<polygon fill="midnightblue" stroke="midnightblue" points="448.103,-159 438.103,-162.5 448.103,-166 448.103,-159"/>
</g>
<!-- Node4 -->
<g id="node5" class="node"><title>Node4</title>
<g id="a_node5"><a xlink:href="class_system_1_1_i_o_1_1_file_info_result_handler.html" target="_top" xlink:title=" ">
<polygon fill="none" stroke="black" points="488.5,-98.5 488.5,-128.5 613.5,-128.5 613.5,-98.5 488.5,-98.5"/>
<text text-anchor="start" x="496.5" y="-116.5" font-family="Helvetica,sans-Serif" font-size="10.00">System.IO.FileInfoResult</text>
<text text-anchor="middle" x="551" y="-105.5" font-family="Helvetica,sans-Serif" font-size="10.00">Handler</text>
</a>
</g>
</g>
<!-- Node3&#45;&gt;Node4 -->
<g id="edge4" class="edge"><title>Node3&#45;&gt;Node4</title>
<path fill="none" stroke="midnightblue" d="M448.403,-113.5C461.943,-113.5 475.662,-113.5 488.454,-113.5"/>
<polygon fill="midnightblue" stroke="midnightblue" points="448.103,-110 438.103,-113.5 448.103,-117 448.103,-110"/>
</g>
<!-- Node6 -->
<g id="node7" class="node"><title>Node6</title>
<g id="a_node7"><a xlink:href="class_system_1_1_i_o_1_1_string_result_handler.html" target="_top" xlink:title=" ">
<polygon fill="none" stroke="black" points="475,-55 475,-74 627,-74 627,-55 475,-55"/>
<text text-anchor="middle" x="551" y="-62" font-family="Helvetica,sans-Serif" font-size="10.00">System.IO.StringResultHandler</text>
</a>
</g>
</g>
<!-- Node5&#45;&gt;Node6 -->
<g id="edge6" class="edge"><title>Node5&#45;&gt;Node6</title>
<path fill="none" stroke="midnightblue" d="M448.163,-64.5C457.119,-64.5 466.157,-64.5 474.955,-64.5"/>
<polygon fill="midnightblue" stroke="midnightblue" points="448.103,-61.0001 438.103,-64.5 448.103,-68.0001 448.103,-61.0001"/>
</g>
<!-- Node8 -->
<g id="node9" class="node"><title>Node8</title>
<g id="a_node9"><a xlink:href="class_system_1_1_i_o_1_1_directory_info_result_handler.html" target="_top" xlink:title=" ">
<polygon fill="none" stroke="black" points="477,-0.5 477,-30.5 625,-30.5 625,-0.5 477,-0.5"/>
<text text-anchor="start" x="485" y="-18.5" font-family="Helvetica,sans-Serif" font-size="10.00">System.IO.DirectoryInfoResult</text>
<text text-anchor="middle" x="551" y="-7.5" font-family="Helvetica,sans-Serif" font-size="10.00">Handler</text>
</a>
</g>
</g>
<!-- Node7&#45;&gt;Node8 -->
<g id="edge8" class="edge"><title>Node7&#45;&gt;Node8</title>
<path fill="none" stroke="midnightblue" d="M448.369,-15.5C457.88,-15.5 467.479,-15.5 476.784,-15.5"/>
<polygon fill="midnightblue" stroke="midnightblue" points="448.103,-12.0001 438.103,-15.5 448.103,-19.0001 448.103,-12.0001"/>
</g>
</g>
</svg>
        <g id="navigator" transform="translate(0 0)" fill="#404254">
                <rect fill="#f2f5e9" fill-opacity="0.5" stroke="#606060" stroke-width=".5" x="0" y="0" width="60" height="60"/>
                <use id="zoomplus" xlink:href="#zoomPlus" x="17" y="9" onmousedown="handleZoom(evt,'in')"/>
                <use id="zoomminus" xlink:href="#zoomMin" x="42" y="9" onmousedown="handleZoom(evt,'out')"/>
                <use id="reset" xlink:href="#resetDef" x="30" y="36" onmousedown="handleReset()"/>
                <g id="arrowUp" xlink:href="#dirArrow" transform="translate(30 24)" onmousedown="handlePan(0,-1)">
                  <use xlink:href="#rim" fill="#404040">
                        <set attributeName="fill" to="#808080" begin="arrowUp.mouseover" end="arrowUp.mouseout"/>
                  </use>
                  <path fill="none" stroke="white" stroke-width="1.5" d="M0,-3.0v7 M-2.5,-0.5L0,-3.0L2.5,-0.5"/>
                </g>
                <g id="arrowRight" xlink:href="#dirArrow" transform="rotate(90) translate(36 -43)" onmousedown="handlePan(1,0)">
                  <use xlink:href="#rim" fill="#404040">
                        <set attributeName="fill" to="#808080" begin="arrowRight.mouseover" end="arrowRight.mouseout"/>
                  </use>
                  <path fill="none" stroke="white" stroke-width="1.5" d="M0,-3.0v7 M-2.5,-0.5L0,-3.0L2.5,-0.5"/>
                </g>
                <g id="arrowDown" xlink:href="#dirArrow" transform="rotate(180) translate(-30 -48)" onmousedown="handlePan(0,1)">
                  <use xlink:href="#rim" fill="#404040">
                        <set attributeName="fill" to="#808080" begin="arrowDown.mouseover" end="arrowDown.mouseout"/>
                  </use>
                  <path fill="none" stroke="white" stroke-width="1.5" d="M0,-3.0v7 M-2.5,-0.5L0,-3.0L2.5,-0.5"/>
                </g>
                <g id="arrowLeft" xlink:href="#dirArrow" transform="rotate(270) translate(-36 17)" onmousedown="handlePan(-1,0)">
                  <use xlink:href="#rim" fill="#404040">
                        <set attributeName="fill" to="#808080" begin="arrowLeft.mouseover" end="arrowLeft.mouseout"/>
                  </use>
                  <path fill="none" stroke="white" stroke-width="1.5" d="M0,-3.0v7 M-2.5,-0.5L0,-3.0L2.5,-0.5"/>
                </g>
        </g>
        <svg viewBox="0 0 15 15" width="100%" height="30px" preserveAspectRatio="xMaxYMin meet">
         <g id="arrow_out" transform="scale(0.3 0.3)">
          <a xlink:href="class_system_1_1_i_o_1_1_search_result_handler__inherit__graph_org.svg" target="_base">
           <rect id="button" ry="5" rx="5" y="6" x="6" height="38" width="38"
                fill="#f2f5e9" fill-opacity="0.5" stroke="#606060" stroke-width="1.0"/>
           <path id="arrow"
             d="M 11.500037,31.436501 C 11.940474,20.09759 22.043105,11.32322 32.158766,21.979434 L 37.068811,17.246167 C 37.068811,17.246167 37.088388,32 37.088388,32 L 22.160133,31.978069 C 22.160133,31.978069 26.997745,27.140456 26.997745,27.140456 C 18.528582,18.264221 13.291696,25.230495 11.500037,31.436501 z"
             style="fill:#404040;"/>
          </a>
         </g>
        </svg>
</svg>
