<?xml version="1.0" encoding="UTF-8" standalone="no"?>
<!DOCTYPE svg PUBLIC "-//W3C//DTD SVG 1.1//EN"
 "http://www.w3.org/Graphics/SVG/1.1/DTD/svg11.dtd">
<!-- Generated by graphviz version 2.38.0 (20140413.2041)
 -->
<!-- Title: System.Globalization.Calendar Pages: 1 -->
<!--zoomable 529 -->
<svg id="main" version="1.1" xmlns="http://www.w3.org/2000/svg" xmlns:xlink="http://www.w3.org/1999/xlink" xml:space="preserve" onload="init(evt)">
<style type="text/css"><![CDATA[
.edge:hover path { stroke: red; }
.edge:hover polygon { stroke: red; fill: red; }
]]></style>
<script type="text/javascript"><![CDATA[
var edges = document.getElementsByTagName('g');
if (edges && edges.length) {
  for (var i=0;i<edges.length;i++) {
    if (edges[i].id.substr(0,4)=='edge') {
      edges[i].setAttribute('class','edge');
    }
  }
}
]]></script>
        <defs>
                <circle id="rim" cx="0" cy="0" r="7"/>
                <circle id="rim2" cx="0" cy="0" r="3.5"/>
                <g id="zoomPlus">
                        <use xlink:href="#rim" fill="#404040">
                                <set attributeName="fill" to="#808080" begin="zoomplus.mouseover" end="zoomplus.mouseout"/>
                        </use>
                        <path d="M-4,0h8M0,-4v8" fill="none" stroke="white" stroke-width="1.5" pointer-events="none"/>
                </g>
                <g id="zoomMin">
                        <use xlink:href="#rim" fill="#404040">
                                <set attributeName="fill" to="#808080" begin="zoomminus.mouseover" end="zoomminus.mouseout"/>
                        </use>
                        <path d="M-4,0h8" fill="none" stroke="white" stroke-width="1.5" pointer-events="none"/>
                </g>
                <g id="dirArrow">
                        <path fill="none" stroke="white" stroke-width="1.5" d="M0,-3.0v7 M-2.5,-0.5L0,-3.0L2.5,-0.5"/>
                </g>
               <g id="resetDef">
                       <use xlink:href="#rim2" fill="#404040">
                               <set attributeName="fill" to="#808080" begin="reset.mouseover" end="reset.mouseout"/>
                       </use>
               </g>
        </defs>

<script type="text/javascript">
var viewWidth = 448;
var viewHeight = 529;
var sectionId = 'dynsection-0';
</script>
<script xlink:href="svgpan.js"/>
<svg id="graph" class="graph">
<g id="viewport">
<title>System.Globalization.Calendar</title>
<!-- Node0 -->
<g id="node1" class="node"><title>Node0</title>
<g id="a_node1"><a xlink:title="Represents time in divisions, such as weeks, months, and years.">
<polygon fill="#bfbfbf" stroke="black" points="98,-251 98,-270 249,-270 249,-251 98,-251"/>
<text text-anchor="middle" x="173.5" y="-258" font-family="Helvetica,sans-Serif" font-size="10.00">System.Globalization.Calendar</text>
</a>
</g>
</g>
<!-- Node2 -->
<g id="node3" class="node"><title>Node2</title>
<g id="a_node3"><a xlink:href="class_system_1_1_globalization_1_1_east_asian_lunisolar_calendar.html" target="_top" xlink:title="Represents a calendar that divides time into months, days, years, and eras, and has dates that are ba...">
<polygon fill="none" stroke="red" points="296,-490.5 296,-520.5 429,-520.5 429,-490.5 296,-490.5"/>
<text text-anchor="start" x="304" y="-508.5" font-family="Helvetica,sans-Serif" font-size="10.00">System.Globalization.East</text>
<text text-anchor="middle" x="362.5" y="-497.5" font-family="Helvetica,sans-Serif" font-size="10.00">AsianLunisolarCalendar</text>
</a>
</g>
</g>
<!-- Node0&#45;&gt;Node2 -->
<g id="edge2" class="edge"><title>Node0&#45;&gt;Node2</title>
<path fill="none" stroke="midnightblue" d="M178.799,-280.128C189.23,-323.101 219.952,-426.088 285,-481.5 289.027,-484.93 293.543,-487.871 298.316,-490.391"/>
<polygon fill="midnightblue" stroke="midnightblue" points="182.147,-279.073 176.479,-270.122 175.328,-280.654 182.147,-279.073"/>
</g>
<!-- Node7 -->
<g id="node4" class="node"><title>Node7</title>
<g id="a_node4"><a xlink:href="class_system_1_1_globalization_1_1_gregorian_calendar.html" target="_top" xlink:title="Represents the Gregorian calendar.">
<polygon fill="none" stroke="black" points="285,-441.5 285,-471.5 440,-471.5 440,-441.5 285,-441.5"/>
<text text-anchor="start" x="293" y="-459.5" font-family="Helvetica,sans-Serif" font-size="10.00">System.Globalization.Gregorian</text>
<text text-anchor="middle" x="362.5" y="-448.5" font-family="Helvetica,sans-Serif" font-size="10.00">Calendar</text>
</a>
</g>
</g>
<!-- Node0&#45;&gt;Node7 -->
<g id="edge3" class="edge"><title>Node0&#45;&gt;Node7</title>
<path fill="none" stroke="midnightblue" d="M181.782,-280.058C196.043,-315.697 231.048,-391.326 285,-432.5 289.537,-435.962 294.583,-438.931 299.858,-441.476"/>
<polygon fill="midnightblue" stroke="midnightblue" points="184.902,-278.423 178.024,-270.364 178.375,-280.953 184.902,-278.423"/>
</g>
<!-- Node8 -->
<g id="node5" class="node"><title>Node8</title>
<g id="a_node5"><a xlink:href="class_system_1_1_globalization_1_1_hebrew_calendar.html" target="_top" xlink:title="Represents the Hebrew calendar.">
<polygon fill="none" stroke="black" points="290,-392.5 290,-422.5 435,-422.5 435,-392.5 290,-392.5"/>
<text text-anchor="start" x="298" y="-410.5" font-family="Helvetica,sans-Serif" font-size="10.00">System.Globalization.Hebrew</text>
<text text-anchor="middle" x="362.5" y="-399.5" font-family="Helvetica,sans-Serif" font-size="10.00">Calendar</text>
</a>
</g>
</g>
<!-- Node0&#45;&gt;Node8 -->
<g id="edge4" class="edge"><title>Node0&#45;&gt;Node8</title>
<path fill="none" stroke="midnightblue" d="M185.967,-278.489C203.913,-305.223 241.155,-355.307 285,-383.5 290.269,-386.888 296.049,-389.826 301.998,-392.368"/>
<polygon fill="midnightblue" stroke="midnightblue" points="188.86,-276.518 180.445,-270.081 183.009,-280.36 188.86,-276.518"/>
</g>
<!-- Node9 -->
<g id="node6" class="node"><title>Node9</title>
<g id="a_node6"><a xlink:href="class_system_1_1_globalization_1_1_hijri_calendar.html" target="_top" xlink:title="Represents the Hijri calendar.">
<polygon fill="none" stroke="black" points="298,-343.5 298,-373.5 427,-373.5 427,-343.5 298,-343.5"/>
<text text-anchor="start" x="306" y="-361.5" font-family="Helvetica,sans-Serif" font-size="10.00">System.Globalization.Hijri</text>
<text text-anchor="middle" x="362.5" y="-350.5" font-family="Helvetica,sans-Serif" font-size="10.00">Calendar</text>
</a>
</g>
</g>
<!-- Node0&#45;&gt;Node9 -->
<g id="edge5" class="edge"><title>Node0&#45;&gt;Node9</title>
<path fill="none" stroke="midnightblue" d="M194.376,-276.383C215.721,-292.805 251.148,-318.271 285,-334.5 291.903,-337.81 299.372,-340.805 306.843,-343.468"/>
<polygon fill="midnightblue" stroke="midnightblue" points="196.434,-273.549 186.396,-270.158 192.128,-279.068 196.434,-273.549"/>
</g>
<!-- Node10 -->
<g id="node7" class="node"><title>Node10</title>
<g id="a_node7"><a xlink:href="class_system_1_1_globalization_1_1_japanese_calendar.html" target="_top" xlink:title="Represents the Japanese calendar.">
<polygon fill="none" stroke="black" points="285.5,-294.5 285.5,-324.5 439.5,-324.5 439.5,-294.5 285.5,-294.5"/>
<text text-anchor="start" x="293.5" y="-312.5" font-family="Helvetica,sans-Serif" font-size="10.00">System.Globalization.Japanese</text>
<text text-anchor="middle" x="362.5" y="-301.5" font-family="Helvetica,sans-Serif" font-size="10.00">Calendar</text>
</a>
</g>
</g>
<!-- Node0&#45;&gt;Node10 -->
<g id="edge6" class="edge"><title>Node0&#45;&gt;Node10</title>
<path fill="none" stroke="midnightblue" d="M220.684,-272.602C245.896,-279.208 277.339,-287.447 304.114,-294.463"/>
<polygon fill="midnightblue" stroke="midnightblue" points="221.56,-269.213 210.999,-270.064 219.786,-275.985 221.56,-269.213"/>
</g>
<!-- Node11 -->
<g id="node8" class="node"><title>Node11</title>
<g id="a_node8"><a xlink:href="class_system_1_1_globalization_1_1_julian_calendar.html" target="_top" xlink:title="Represents the Julian calendar.">
<polygon fill="none" stroke="black" points="294,-245.5 294,-275.5 431,-275.5 431,-245.5 294,-245.5"/>
<text text-anchor="start" x="302" y="-263.5" font-family="Helvetica,sans-Serif" font-size="10.00">System.Globalization.Julian</text>
<text text-anchor="middle" x="362.5" y="-252.5" font-family="Helvetica,sans-Serif" font-size="10.00">Calendar</text>
</a>
</g>
</g>
<!-- Node0&#45;&gt;Node11 -->
<g id="edge7" class="edge"><title>Node0&#45;&gt;Node11</title>
<path fill="none" stroke="midnightblue" d="M259.322,-260.5C270.897,-260.5 282.652,-260.5 293.867,-260.5"/>
<polygon fill="midnightblue" stroke="midnightblue" points="259.214,-257 249.214,-260.5 259.214,-264 259.214,-257"/>
</g>
<!-- Node12 -->
<g id="node9" class="node"><title>Node12</title>
<g id="a_node9"><a xlink:href="class_system_1_1_globalization_1_1_korean_calendar.html" target="_top" xlink:title="Represents the Korean calendar.">
<polygon fill="none" stroke="black" points="291,-196.5 291,-226.5 434,-226.5 434,-196.5 291,-196.5"/>
<text text-anchor="start" x="299" y="-214.5" font-family="Helvetica,sans-Serif" font-size="10.00">System.Globalization.Korean</text>
<text text-anchor="middle" x="362.5" y="-203.5" font-family="Helvetica,sans-Serif" font-size="10.00">Calendar</text>
</a>
</g>
</g>
<!-- Node0&#45;&gt;Node12 -->
<g id="edge8" class="edge"><title>Node0&#45;&gt;Node12</title>
<path fill="none" stroke="midnightblue" d="M220.684,-248.398C245.896,-241.792 277.339,-233.553 304.114,-226.537"/>
<polygon fill="midnightblue" stroke="midnightblue" points="219.786,-245.015 210.999,-250.936 221.56,-251.787 219.786,-245.015"/>
</g>
<!-- Node13 -->
<g id="node10" class="node"><title>Node13</title>
<g id="a_node10"><a xlink:href="class_system_1_1_globalization_1_1_persian_calendar.html" target="_top" xlink:title="Represents the Persian calendar.">
<polygon fill="none" stroke="black" points="289.5,-147.5 289.5,-177.5 435.5,-177.5 435.5,-147.5 289.5,-147.5"/>
<text text-anchor="start" x="297.5" y="-165.5" font-family="Helvetica,sans-Serif" font-size="10.00">System.Globalization.Persian</text>
<text text-anchor="middle" x="362.5" y="-154.5" font-family="Helvetica,sans-Serif" font-size="10.00">Calendar</text>
</a>
</g>
</g>
<!-- Node0&#45;&gt;Node13 -->
<g id="edge9" class="edge"><title>Node0&#45;&gt;Node13</title>
<path fill="none" stroke="midnightblue" d="M194.376,-244.617C215.721,-228.195 251.148,-202.729 285,-186.5 291.903,-183.19 299.372,-180.195 306.843,-177.532"/>
<polygon fill="midnightblue" stroke="midnightblue" points="192.128,-241.932 186.396,-250.842 196.434,-247.451 192.128,-241.932"/>
</g>
<!-- Node14 -->
<g id="node11" class="node"><title>Node14</title>
<g id="a_node11"><a xlink:href="class_system_1_1_globalization_1_1_taiwan_calendar.html" target="_top" xlink:title="the Taiwan calendar.">
<polygon fill="none" stroke="black" points="291,-98.5 291,-128.5 434,-128.5 434,-98.5 291,-98.5"/>
<text text-anchor="start" x="299" y="-116.5" font-family="Helvetica,sans-Serif" font-size="10.00">System.Globalization.Taiwan</text>
<text text-anchor="middle" x="362.5" y="-105.5" font-family="Helvetica,sans-Serif" font-size="10.00">Calendar</text>
</a>
</g>
</g>
<!-- Node0&#45;&gt;Node14 -->
<g id="edge10" class="edge"><title>Node0&#45;&gt;Node14</title>
<path fill="none" stroke="midnightblue" d="M185.967,-242.511C203.913,-215.777 241.155,-165.693 285,-137.5 290.269,-134.112 296.049,-131.174 301.998,-128.632"/>
<polygon fill="midnightblue" stroke="midnightblue" points="183.009,-240.64 180.445,-250.919 188.86,-244.482 183.009,-240.64"/>
</g>
<!-- Node15 -->
<g id="node12" class="node"><title>Node15</title>
<g id="a_node12"><a xlink:href="class_system_1_1_globalization_1_1_thai_buddhist_calendar.html" target="_top" xlink:title="Represents the Thai Buddhist calendar.">
<polygon fill="none" stroke="black" points="297,-49.5 297,-79.5 428,-79.5 428,-49.5 297,-49.5"/>
<text text-anchor="start" x="305" y="-67.5" font-family="Helvetica,sans-Serif" font-size="10.00">System.Globalization.Thai</text>
<text text-anchor="middle" x="362.5" y="-56.5" font-family="Helvetica,sans-Serif" font-size="10.00">BuddhistCalendar</text>
</a>
</g>
</g>
<!-- Node0&#45;&gt;Node15 -->
<g id="edge11" class="edge"><title>Node0&#45;&gt;Node15</title>
<path fill="none" stroke="midnightblue" d="M181.782,-240.942C196.043,-205.303 231.048,-129.674 285,-88.5 289.537,-85.0377 294.583,-82.0688 299.858,-79.5241"/>
<polygon fill="midnightblue" stroke="midnightblue" points="178.375,-240.047 178.024,-250.636 184.902,-242.577 178.375,-240.047"/>
</g>
<!-- Node16 -->
<g id="node13" class="node"><title>Node16</title>
<g id="a_node13"><a xlink:href="class_system_1_1_globalization_1_1_um_al_qura_calendar.html" target="_top" xlink:title="Represents the Saudi Hijri (Um Al Qura) calendar.">
<polygon fill="none" stroke="black" points="294,-0.5 294,-30.5 431,-30.5 431,-0.5 294,-0.5"/>
<text text-anchor="start" x="302" y="-18.5" font-family="Helvetica,sans-Serif" font-size="10.00">System.Globalization.UmAl</text>
<text text-anchor="middle" x="362.5" y="-7.5" font-family="Helvetica,sans-Serif" font-size="10.00">QuraCalendar</text>
</a>
</g>
</g>
<!-- Node0&#45;&gt;Node16 -->
<g id="edge12" class="edge"><title>Node0&#45;&gt;Node16</title>
<path fill="none" stroke="midnightblue" d="M178.799,-240.872C189.23,-197.899 219.952,-94.9119 285,-39.5 289.027,-36.07 293.543,-33.1294 298.316,-30.6086"/>
<polygon fill="midnightblue" stroke="midnightblue" points="175.328,-240.346 176.479,-250.878 182.147,-241.927 175.328,-240.346"/>
</g>
<!-- Node1 -->
<g id="node2" class="node"><title>Node1</title>
<g id="a_node2"><a xlink:href="interface_system_1_1_i_cloneable.html" target="_top" xlink:title="Supports cloning, which creates a new instance of a class with the same value as an existing instance...">
<polygon fill="none" stroke="black" points="0,-251 0,-270 62,-270 62,-251 0,-251"/>
<text text-anchor="middle" x="31" y="-258" font-family="Helvetica,sans-Serif" font-size="10.00">ICloneable</text>
</a>
</g>
</g>
<!-- Node1&#45;&gt;Node0 -->
<g id="edge1" class="edge"><title>Node1&#45;&gt;Node0</title>
<path fill="none" stroke="midnightblue" d="M72.337,-260.5C80.4131,-260.5 89.1377,-260.5 97.9529,-260.5"/>
<polygon fill="midnightblue" stroke="midnightblue" points="72.1408,-257 62.1408,-260.5 72.1407,-264 72.1408,-257"/>
</g>
</g>
</svg>
        <g id="navigator" transform="translate(0 0)" fill="#404254">
                <rect fill="#f2f5e9" fill-opacity="0.5" stroke="#606060" stroke-width=".5" x="0" y="0" width="60" height="60"/>
                <use id="zoomplus" xlink:href="#zoomPlus" x="17" y="9" onmousedown="handleZoom(evt,'in')"/>
                <use id="zoomminus" xlink:href="#zoomMin" x="42" y="9" onmousedown="handleZoom(evt,'out')"/>
                <use id="reset" xlink:href="#resetDef" x="30" y="36" onmousedown="handleReset()"/>
                <g id="arrowUp" xlink:href="#dirArrow" transform="translate(30 24)" onmousedown="handlePan(0,-1)">
                  <use xlink:href="#rim" fill="#404040">
                        <set attributeName="fill" to="#808080" begin="arrowUp.mouseover" end="arrowUp.mouseout"/>
                  </use>
                  <path fill="none" stroke="white" stroke-width="1.5" d="M0,-3.0v7 M-2.5,-0.5L0,-3.0L2.5,-0.5"/>
                </g>
                <g id="arrowRight" xlink:href="#dirArrow" transform="rotate(90) translate(36 -43)" onmousedown="handlePan(1,0)">
                  <use xlink:href="#rim" fill="#404040">
                        <set attributeName="fill" to="#808080" begin="arrowRight.mouseover" end="arrowRight.mouseout"/>
                  </use>
                  <path fill="none" stroke="white" stroke-width="1.5" d="M0,-3.0v7 M-2.5,-0.5L0,-3.0L2.5,-0.5"/>
                </g>
                <g id="arrowDown" xlink:href="#dirArrow" transform="rotate(180) translate(-30 -48)" onmousedown="handlePan(0,1)">
                  <use xlink:href="#rim" fill="#404040">
                        <set attributeName="fill" to="#808080" begin="arrowDown.mouseover" end="arrowDown.mouseout"/>
                  </use>
                  <path fill="none" stroke="white" stroke-width="1.5" d="M0,-3.0v7 M-2.5,-0.5L0,-3.0L2.5,-0.5"/>
                </g>
                <g id="arrowLeft" xlink:href="#dirArrow" transform="rotate(270) translate(-36 17)" onmousedown="handlePan(-1,0)">
                  <use xlink:href="#rim" fill="#404040">
                        <set attributeName="fill" to="#808080" begin="arrowLeft.mouseover" end="arrowLeft.mouseout"/>
                  </use>
                  <path fill="none" stroke="white" stroke-width="1.5" d="M0,-3.0v7 M-2.5,-0.5L0,-3.0L2.5,-0.5"/>
                </g>
        </g>
        <svg viewBox="0 0 15 15" width="100%" height="30px" preserveAspectRatio="xMaxYMin meet">
         <g id="arrow_out" transform="scale(0.3 0.3)">
          <a xlink:href="class_system_1_1_globalization_1_1_calendar__inherit__graph_org.svg" target="_base">
           <rect id="button" ry="5" rx="5" y="6" x="6" height="38" width="38"
                fill="#f2f5e9" fill-opacity="0.5" stroke="#606060" stroke-width="1.0"/>
           <path id="arrow"
             d="M 11.500037,31.436501 C 11.940474,20.09759 22.043105,11.32322 32.158766,21.979434 L 37.068811,17.246167 C 37.068811,17.246167 37.088388,32 37.088388,32 L 22.160133,31.978069 C 22.160133,31.978069 26.997745,27.140456 26.997745,27.140456 C 18.528582,18.264221 13.291696,25.230495 11.500037,31.436501 z"
             style="fill:#404040;"/>
          </a>
         </g>
        </svg>
</svg>
