<?xml version="1.0" encoding="UTF-8" standalone="no"?>
<!DOCTYPE svg PUBLIC "-//W3C//DTD SVG 1.1//EN"
 "http://www.w3.org/Graphics/SVG/1.1/DTD/svg11.dtd">
<!-- Generated by graphviz version 2.38.0 (20140413.2041)
 -->
<!-- Title: System.Diagnostics.Eventing.Reader.EventRecordWrittenEventArgs Pages: 1 -->
<svg width="349pt" height="117pt"
 viewBox="0.00 0.00 349.00 117.00" xmlns="http://www.w3.org/2000/svg" xmlns:xlink="http://www.w3.org/1999/xlink">
<g id="graph0" class="graph" transform="scale(1 1) rotate(0) translate(4 113)">
<title>System.Diagnostics.Eventing.Reader.EventRecordWrittenEventArgs</title>
<!-- Node2 -->
<g id="node1" class="node"><title>Node2</title>
<g id="a_node1"><a xlink:title="When the E:System.Diagnostics.Eventing.Reader.EventLogWatcher.EventRecordWritten event is raised,...">
<polygon fill="#bfbfbf" stroke="black" points="62,-0.5 62,-30.5 243,-30.5 243,-0.5 62,-0.5"/>
<text text-anchor="start" x="70" y="-18.5" font-family="Helvetica,sans-Serif" font-size="10.00">System.Diagnostics.Eventing.</text>
<text text-anchor="middle" x="152.5" y="-7.5" font-family="Helvetica,sans-Serif" font-size="10.00">Reader.EventRecordWrittenEventArgs</text>
</a>
</g>
</g>
<!-- Node3 -->
<g id="node2" class="node"><title>Node3</title>
<g id="a_node2"><a xlink:href="class_system_1_1_event_args.html" target="_top" xlink:title="Represents the base class for classes that contain event data, and provides a value to use for events...">
<polygon fill="none" stroke="red" points="0,-84 0,-103 61,-103 61,-84 0,-84"/>
<text text-anchor="middle" x="30.5" y="-91" font-family="Helvetica,sans-Serif" font-size="10.00">EventArgs</text>
</a>
</g>
</g>
<!-- Node3&#45;&gt;Node2 -->
<g id="edge1" class="edge"><title>Node3&#45;&gt;Node2</title>
<path fill="none" stroke="midnightblue" d="M53.1452,-78.3932C75.0697,-64.7352 108.117,-44.1482 129.994,-30.5198"/>
<polygon fill="midnightblue" stroke="midnightblue" points="51.1321,-75.5236 44.495,-83.7818 54.8334,-81.465 51.1321,-75.5236"/>
</g>
<!-- Node5 -->
<g id="node3" class="node"><title>Node5</title>
<g id="a_node3"><a xlink:href="class_system_1_1_diagnostics_1_1_eventing_1_1_reader_1_1_event_record.html" target="_top" xlink:title="Defines the properties of an event instance for an event that is received from an T:System....">
<polygon fill="none" stroke="red" points="79,-78.5 79,-108.5 226,-108.5 226,-78.5 79,-78.5"/>
<text text-anchor="start" x="87" y="-96.5" font-family="Helvetica,sans-Serif" font-size="10.00">System.Diagnostics.Eventing.</text>
<text text-anchor="middle" x="152.5" y="-85.5" font-family="Helvetica,sans-Serif" font-size="10.00">Reader.EventRecord</text>
</a>
</g>
</g>
<!-- Node5&#45;&gt;Node2 -->
<g id="edge2" class="edge"><title>Node5&#45;&gt;Node2</title>
<path fill="none" stroke="#9a32cd" stroke-dasharray="5,2" d="M152.5,-68.0898C152.5,-55.7565 152.5,-41.2237 152.5,-30.7309"/>
<polygon fill="#9a32cd" stroke="#9a32cd" points="149,-68.2049 152.5,-78.205 156,-68.205 149,-68.2049"/>
<text text-anchor="middle" x="181.5" y="-52" font-family="Helvetica,sans-Serif" font-size="10.00"> EventRecord</text>
</g>
<!-- Node7 -->
<g id="node4" class="node"><title>Node7</title>
<g id="a_node4"><a xlink:href="class_system_1_1_exception.html" target="_top" xlink:title="Represents errors that occur during application execution.To browse the .NET Framework source code fo...">
<polygon fill="none" stroke="red" points="244,-84 244,-103 341,-103 341,-84 244,-84"/>
<text text-anchor="middle" x="292.5" y="-91" font-family="Helvetica,sans-Serif" font-size="10.00">System.Exception</text>
</a>
</g>
</g>
<!-- Node7&#45;&gt;Node2 -->
<g id="edge3" class="edge"><title>Node7&#45;&gt;Node2</title>
<path fill="none" stroke="#9a32cd" stroke-dasharray="5,2" d="M268.46,-78.8817C253.084,-70.2241 232.684,-58.8343 214.5,-49 203.169,-42.8718 190.591,-36.2464 179.743,-30.5863"/>
<polygon fill="#9a32cd" stroke="#9a32cd" points="266.89,-82.0147 277.319,-83.8809 270.33,-75.9183 266.89,-82.0147"/>
<text text-anchor="middle" x="269" y="-52" font-family="Helvetica,sans-Serif" font-size="10.00"> EventException</text>
</g>
</g>
</svg>
