<?xml version="1.0" encoding="UTF-8" standalone="no"?>
<!DOCTYPE svg PUBLIC "-//W3C//DTD SVG 1.1//EN"
 "http://www.w3.org/Graphics/SVG/1.1/DTD/svg11.dtd">
<!-- Generated by graphviz version 2.38.0 (20140413.2041)
 -->
<!-- Title: System.Collections.Generic.Dictionary&lt; TKey, TValue &gt; Pages: 1 -->
<svg width="412pt" height="266pt"
 viewBox="0.00 0.00 412.00 266.30" xmlns="http://www.w3.org/2000/svg" xmlns:xlink="http://www.w3.org/1999/xlink">
<g id="graph0" class="graph" transform="scale(1 1) rotate(0) translate(4 262.3)">
<title>System.Collections.Generic.Dictionary&lt; TKey, TValue &gt;</title>
<!-- Node87 -->
<g id="node1" class="node"><title>Node87</title>
<g id="a_node1"><a xlink:title="Represents a collection of keys and values.To browse the .NET Framework source code for this type,...">
<polygon fill="#bfbfbf" stroke="black" points="263,-121 263,-151 404,-151 404,-121 263,-121"/>
<text text-anchor="start" x="271" y="-139" font-family="Helvetica,sans-Serif" font-size="10.00">System.Collections.Generic.</text>
<text text-anchor="middle" x="333.5" y="-128" font-family="Helvetica,sans-Serif" font-size="10.00">Dictionary&lt; TKey, TValue &gt;</text>
</a>
</g>
</g>
<!-- Node88 -->
<g id="node2" class="node"><title>Node88</title>
<g id="a_node2"><a xlink:href="interface_system_1_1_collections_1_1_generic_1_1_i_dictionary.html" target="_top" xlink:title="Represents a generic collection of key/value pairs.">
<polygon fill="none" stroke="black" points="118.5,-203 118.5,-233 215.5,-233 215.5,-203 118.5,-203"/>
<text text-anchor="start" x="126.5" y="-221" font-family="Helvetica,sans-Serif" font-size="10.00">IDictionary&lt; TKey,</text>
<text text-anchor="middle" x="167" y="-210" font-family="Helvetica,sans-Serif" font-size="10.00"> TValue &gt;</text>
</a>
</g>
</g>
<!-- Node88&#45;&gt;Node87 -->
<g id="edge1" class="edge"><title>Node88&#45;&gt;Node87</title>
<path fill="none" stroke="midnightblue" d="M214.415,-198.824C218.693,-196.909 222.942,-194.95 227,-193 254.394,-179.832 284.857,-163.144 305.977,-151.234"/>
<polygon fill="midnightblue" stroke="midnightblue" points="212.814,-195.704 205.063,-202.928 215.627,-202.114 212.814,-195.704"/>
</g>
<!-- Node89 -->
<g id="node3" class="node"><title>Node89</title>
<g id="a_node3"><a xlink:href="interface_system_1_1_collections_1_1_generic_1_1_i_enumerable.html" target="_top" xlink:title="Exposes the enumerator, which supports a simple iteration over a collection of a specified type....">
<polygon fill="none" stroke="black" points="0,-164.5 0,-183.5 71,-183.5 71,-164.5 0,-164.5"/>
<text text-anchor="middle" x="35.5" y="-171.5" font-family="Helvetica,sans-Serif" font-size="10.00">IEnumerable</text>
</a>
</g>
</g>
<!-- Node89&#45;&gt;Node87 -->
<g id="edge4" class="edge"><title>Node89&#45;&gt;Node87</title>
<path fill="none" stroke="midnightblue" d="M48.6208,-192.17C61.0205,-208.957 81.9797,-232.793 107,-243 156.383,-263.145 177.799,-263.584 227,-243 272.004,-224.172 307.553,-175.757 323.447,-151.026"/>
<polygon fill="midnightblue" stroke="midnightblue" points="51.2678,-189.85 42.6412,-183.699 45.5492,-193.887 51.2678,-189.85"/>
</g>
<!-- Node89&#45;&gt;Node88 -->
<g id="edge2" class="edge"><title>Node89&#45;&gt;Node88</title>
<path fill="none" stroke="midnightblue" d="M74.4329,-186.888C89.2311,-191.916 106.299,-197.715 121.66,-202.935"/>
<polygon fill="midnightblue" stroke="midnightblue" points="75.194,-183.451 64.5996,-183.547 72.942,-190.078 75.194,-183.451"/>
</g>
<!-- Node89&#45;&gt;Node89 -->
<g id="edge3" class="edge"><title>Node89&#45;&gt;Node89</title>
<path fill="none" stroke="midnightblue" d="M11.3186,-193.029C12.6376,-198.128 20.6981,-202 35.5,-202 58.6055,-202 65.2844,-192.565 55.5368,-183.757"/>
<polygon fill="midnightblue" stroke="midnightblue" points="14.5776,-194.315 15.4632,-183.757 8.18698,-191.458 14.5776,-194.315"/>
</g>
<!-- Node90 -->
<g id="node4" class="node"><title>Node90</title>
<g id="a_node4"><a xlink:href="interface_system_1_1_collections_1_1_generic_1_1_i_dictionary.html" target="_top" xlink:title="Represents a generic collection of key/value pairs.">
<polygon fill="none" stroke="black" points="136,-164.5 136,-183.5 198,-183.5 198,-164.5 136,-164.5"/>
<text text-anchor="middle" x="167" y="-171.5" font-family="Helvetica,sans-Serif" font-size="10.00">IDictionary</text>
</a>
</g>
</g>
<!-- Node89&#45;&gt;Node90 -->
<g id="edge6" class="edge"><title>Node89&#45;&gt;Node90</title>
<path fill="none" stroke="midnightblue" d="M81.4389,-174C99.3416,-174 119.48,-174 135.612,-174"/>
<polygon fill="midnightblue" stroke="midnightblue" points="81.2037,-170.5 71.2036,-174 81.2036,-177.5 81.2037,-170.5"/>
</g>
<!-- Node91 -->
<g id="node5" class="node"><title>Node91</title>
<g id="a_node5"><a xlink:href="interface_system_1_1_collections_1_1_generic_1_1_i_collection.html" target="_top" xlink:title="Defines methods to manipulate generic collections.">
<polygon fill="none" stroke="red" points="136,-126.5 136,-145.5 198,-145.5 198,-126.5 136,-126.5"/>
<text text-anchor="middle" x="167" y="-133.5" font-family="Helvetica,sans-Serif" font-size="10.00">ICollection</text>
</a>
</g>
</g>
<!-- Node89&#45;&gt;Node91 -->
<g id="edge8" class="edge"><title>Node89&#45;&gt;Node91</title>
<path fill="none" stroke="midnightblue" d="M78.9195,-161.553C97.5717,-156.079 119.041,-149.779 135.995,-144.805"/>
<polygon fill="midnightblue" stroke="midnightblue" points="77.7882,-158.237 69.1783,-164.411 79.7592,-164.954 77.7882,-158.237"/>
</g>
<!-- Node94 -->
<g id="node6" class="node"><title>Node94</title>
<g id="a_node6"><a xlink:href="interface_system_1_1_collections_1_1_generic_1_1_i_read_only_dictionary.html" target="_top" xlink:title="Represents a generic read&#45;only collection of key/value pairs.">
<polygon fill="none" stroke="black" points="114.5,-77 114.5,-107 219.5,-107 219.5,-77 114.5,-77"/>
<text text-anchor="start" x="122.5" y="-95" font-family="Helvetica,sans-Serif" font-size="10.00">IReadOnlyDictionary</text>
<text text-anchor="middle" x="167" y="-84" font-family="Helvetica,sans-Serif" font-size="10.00">&lt; TKey, TValue &gt;</text>
</a>
</g>
</g>
<!-- Node89&#45;&gt;Node94 -->
<g id="edge10" class="edge"><title>Node89&#45;&gt;Node94</title>
<path fill="none" stroke="midnightblue" d="M54.4618,-157.11C68.1183,-144.878 87.775,-128.533 107,-117 113.01,-113.395 119.635,-110.05 126.209,-107.055"/>
<polygon fill="midnightblue" stroke="midnightblue" points="51.8156,-154.787 46.7917,-164.115 56.5361,-159.956 51.8156,-154.787"/>
</g>
<!-- Node90&#45;&gt;Node87 -->
<g id="edge5" class="edge"><title>Node90&#45;&gt;Node87</title>
<path fill="none" stroke="midnightblue" d="M207.955,-164.77C225.815,-160.645 247.33,-155.675 267.415,-151.035"/>
<polygon fill="midnightblue" stroke="midnightblue" points="207.127,-161.369 198.172,-167.03 208.703,-168.19 207.127,-161.369"/>
</g>
<!-- Node91&#45;&gt;Node87 -->
<g id="edge7" class="edge"><title>Node91&#45;&gt;Node87</title>
<path fill="none" stroke="midnightblue" d="M208.489,-136C224.915,-136 244.364,-136 262.931,-136"/>
<polygon fill="midnightblue" stroke="midnightblue" points="208.172,-132.5 198.172,-136 208.172,-139.5 208.172,-132.5"/>
</g>
<!-- Node94&#45;&gt;Node87 -->
<g id="edge9" class="edge"><title>Node94&#45;&gt;Node87</title>
<path fill="none" stroke="midnightblue" d="M229.496,-108.449C244.821,-112.548 261.174,-116.922 276.233,-120.95"/>
<polygon fill="midnightblue" stroke="midnightblue" points="230.162,-105.004 219.597,-105.801 228.353,-111.766 230.162,-105.004"/>
</g>
<!-- Node95 -->
<g id="node7" class="node"><title>Node95</title>
<g id="a_node7"><a xlink:href="interface_system_1_1_runtime_1_1_serialization_1_1_i_serializable.html" target="_top" xlink:title="Allows an object to control its own serialization and deserialization.">
<polygon fill="none" stroke="black" points="132.5,-38.5 132.5,-57.5 201.5,-57.5 201.5,-38.5 132.5,-38.5"/>
<text text-anchor="middle" x="167" y="-45.5" font-family="Helvetica,sans-Serif" font-size="10.00">ISerializable</text>
</a>
</g>
</g>
<!-- Node95&#45;&gt;Node87 -->
<g id="edge11" class="edge"><title>Node95&#45;&gt;Node87</title>
<path fill="none" stroke="midnightblue" d="M211.302,-60.461C216.674,-62.4381 222.023,-64.6241 227,-67 258.798,-82.1794 292.328,-105.557 312.834,-120.817"/>
<polygon fill="midnightblue" stroke="midnightblue" points="212.276,-57.0946 201.681,-57.1322 209.987,-63.7098 212.276,-57.0946"/>
</g>
<!-- Node96 -->
<g id="node8" class="node"><title>Node96</title>
<g id="a_node8"><a xlink:href="interface_system_1_1_runtime_1_1_serialization_1_1_i_deserialization_callback.html" target="_top" xlink:title="Indicates that a class is to be notified when deserialization of the entire object graph has been com...">
<polygon fill="none" stroke="black" points="107,-0.5 107,-19.5 227,-19.5 227,-0.5 107,-0.5"/>
<text text-anchor="middle" x="167" y="-7.5" font-family="Helvetica,sans-Serif" font-size="10.00">IDeserializationCallback</text>
</a>
</g>
</g>
<!-- Node96&#45;&gt;Node87 -->
<g id="edge12" class="edge"><title>Node96&#45;&gt;Node87</title>
<path fill="none" stroke="midnightblue" d="M216.325,-23.3894C220.038,-25.0674 223.643,-26.9324 227,-29 267.65,-54.0346 304.094,-97.9547 321.573,-120.967"/>
<polygon fill="midnightblue" stroke="midnightblue" points="217.536,-20.1036 206.953,-19.5946 214.908,-26.5919 217.536,-20.1036"/>
</g>
</g>
</svg>
