<?xml version="1.0" encoding="UTF-8" standalone="no"?>
<!DOCTYPE svg PUBLIC "-//W3C//DTD SVG 1.1//EN"
 "http://www.w3.org/Graphics/SVG/1.1/DTD/svg11.dtd">
<!-- Generated by graphviz version 2.38.0 (20140413.2041)
 -->
<!-- Title: System.Xml.XmlTextWriter Pages: 1 -->
<svg width="227pt" height="95pt"
 viewBox="0.00 0.00 226.50 95.00" xmlns="http://www.w3.org/2000/svg" xmlns:xlink="http://www.w3.org/1999/xlink">
<g id="graph0" class="graph" transform="scale(1 1) rotate(0) translate(4 91)">
<title>System.Xml.XmlTextWriter</title>
<!-- Node3 -->
<g id="node1" class="node"><title>Node3</title>
<g id="a_node1"><a xlink:title="Represents a writer that provides a fast, non&#45;cached, forward&#45;only way of generating streams or files...">
<polygon fill="#bfbfbf" stroke="black" points="0,-0.5 0,-19.5 133,-19.5 133,-0.5 0,-0.5"/>
<text text-anchor="middle" x="66.5" y="-7.5" font-family="Helvetica,sans-Serif" font-size="10.00">System.Xml.XmlTextWriter</text>
</a>
</g>
</g>
<!-- Node4 -->
<g id="node2" class="node"><title>Node4</title>
<g id="a_node2"><a xlink:href="class_system_1_1_xml_1_1_xml_writer.html" target="_top" xlink:title="Represents a writer that provides a fast, non&#45;cached, forward&#45;only way to generate streams or files t...">
<polygon fill="none" stroke="red" points="5,-67.5 5,-86.5 64,-86.5 64,-67.5 5,-67.5"/>
<text text-anchor="middle" x="34.5" y="-74.5" font-family="Helvetica,sans-Serif" font-size="10.00">XmlWriter</text>
</a>
</g>
</g>
<!-- Node4&#45;&gt;Node3 -->
<g id="edge1" class="edge"><title>Node4&#45;&gt;Node3</title>
<path fill="none" stroke="midnightblue" d="M43.2811,-58.1635C49.4523,-45.6281 57.4364,-29.4104 62.2527,-19.6273"/>
<polygon fill="midnightblue" stroke="midnightblue" points="40.0925,-56.7162 38.8157,-67.2338 46.3727,-59.808 40.0925,-56.7162"/>
</g>
<!-- Node6 -->
<g id="node3" class="node"><title>Node6</title>
<g id="a_node3"><a xlink:href="class_system_1_1_i_o_1_1_stream.html" target="_top" xlink:title="Provides a generic view of a sequence of bytes. This is an abstract class.To browse the ....">
<polygon fill="none" stroke="red" points="82.5,-67.5 82.5,-86.5 180.5,-86.5 180.5,-67.5 82.5,-67.5"/>
<text text-anchor="middle" x="131.5" y="-74.5" font-family="Helvetica,sans-Serif" font-size="10.00">System.IO.Stream</text>
</a>
</g>
</g>
<!-- Node6&#45;&gt;Node3 -->
<g id="edge2" class="edge"><title>Node6&#45;&gt;Node3</title>
<path fill="none" stroke="#9a32cd" stroke-dasharray="5,2" d="M115.497,-59.9968C102.75,-47.2496 85.3947,-29.8947 75.1273,-19.6273"/>
<polygon fill="#9a32cd" stroke="#9a32cd" points="113.188,-62.6376 122.734,-67.2338 118.138,-57.6878 113.188,-62.6376"/>
<text text-anchor="middle" x="131.5" y="-41" font-family="Helvetica,sans-Serif" font-size="10.00"> BaseStream</text>
</g>
<!-- Node6&#45;&gt;Node6 -->
<g id="edge3" class="edge"><title>Node6&#45;&gt;Node6</title>
<path fill="none" stroke="#9a32cd" stroke-dasharray="5,2" d="M190.823,-81.5752C195.565,-80.5758 198.5,-79.0508 198.5,-77 198.5,-73.7188 190.986,-71.7833 180.58,-71.1937"/>
<polygon fill="#9a32cd" stroke="#9a32cd" points="190.091,-78.1379 180.58,-82.8063 190.927,-85.0879 190.091,-78.1379"/>
<text text-anchor="middle" x="208.5" y="-74.5" font-family="Helvetica,sans-Serif" font-size="10.00"> Null</text>
</g>
</g>
</svg>
