<?xml version="1.0" encoding="UTF-8" standalone="no"?>
<!DOCTYPE svg PUBLIC "-//W3C//DTD SVG 1.1//EN"
 "http://www.w3.org/Graphics/SVG/1.1/DTD/svg11.dtd">
<!-- Generated by graphviz version 2.38.0 (20140413.2041)
 -->
<!-- Title: System.Security.AccessControl.NativeObjectSecurity Pages: 1 -->
<svg width="830pt" height="284pt"
 viewBox="0.00 0.00 830.00 284.00" xmlns="http://www.w3.org/2000/svg" xmlns:xlink="http://www.w3.org/1999/xlink">
<g id="graph0" class="graph" transform="scale(1 1) rotate(0) translate(4 280)">
<title>System.Security.AccessControl.NativeObjectSecurity</title>
<!-- Node0 -->
<g id="node1" class="node"><title>Node0</title>
<g id="a_node1"><a xlink:title="Provides the ability to control access to native objects without direct manipulation of Access Contro...">
<polygon fill="#bfbfbf" stroke="black" points="273,-122.5 273,-152.5 432,-152.5 432,-122.5 273,-122.5"/>
<text text-anchor="start" x="281" y="-140.5" font-family="Helvetica,sans-Serif" font-size="10.00">System.Security.AccessControl.</text>
<text text-anchor="middle" x="352.5" y="-129.5" font-family="Helvetica,sans-Serif" font-size="10.00">NativeObjectSecurity</text>
</a>
</g>
</g>
<!-- Node3 -->
<g id="node4" class="node"><title>Node3</title>
<g id="a_node4"><a xlink:href="class_system_1_1_security_1_1_access_control_1_1_crypto_key_security.html" target="_top" xlink:title="Provides the ability to control access to a cryptographic key object without direct manipulation of a...">
<polygon fill="none" stroke="black" points="468,-245.5 468,-275.5 627,-275.5 627,-245.5 468,-245.5"/>
<text text-anchor="start" x="476" y="-263.5" font-family="Helvetica,sans-Serif" font-size="10.00">System.Security.AccessControl.</text>
<text text-anchor="middle" x="547.5" y="-252.5" font-family="Helvetica,sans-Serif" font-size="10.00">CryptoKeySecurity</text>
</a>
</g>
</g>
<!-- Node0&#45;&gt;Node3 -->
<g id="edge3" class="edge"><title>Node0&#45;&gt;Node3</title>
<path fill="none" stroke="midnightblue" d="M374.154,-160.195C395.619,-182.526 431.171,-216.149 468,-236.5 474.112,-239.877 480.76,-242.841 487.515,-245.426"/>
<polygon fill="midnightblue" stroke="midnightblue" points="376.584,-157.67 367.171,-152.807 371.497,-162.478 376.584,-157.67"/>
</g>
<!-- Node4 -->
<g id="node5" class="node"><title>Node4</title>
<g id="a_node5"><a xlink:href="class_system_1_1_security_1_1_access_control_1_1_event_wait_handle_security.html" target="_top" xlink:title="Represents the Windows access control security applied to a named system wait handle....">
<polygon fill="none" stroke="black" points="468,-196.5 468,-226.5 627,-226.5 627,-196.5 468,-196.5"/>
<text text-anchor="start" x="476" y="-214.5" font-family="Helvetica,sans-Serif" font-size="10.00">System.Security.AccessControl.</text>
<text text-anchor="middle" x="547.5" y="-203.5" font-family="Helvetica,sans-Serif" font-size="10.00">EventWaitHandleSecurity</text>
</a>
</g>
</g>
<!-- Node0&#45;&gt;Node4 -->
<g id="edge4" class="edge"><title>Node0&#45;&gt;Node4</title>
<path fill="none" stroke="midnightblue" d="M395.408,-156.58C416.911,-166.076 443.641,-177.433 468,-186.5 477.249,-189.943 487.215,-193.346 496.84,-196.481"/>
<polygon fill="midnightblue" stroke="midnightblue" points="396.79,-153.364 386.231,-152.5 393.946,-159.761 396.79,-153.364"/>
</g>
<!-- Node5 -->
<g id="node6" class="node"><title>Node5</title>
<g id="a_node6"><a xlink:href="class_system_1_1_security_1_1_access_control_1_1_file_system_security.html" target="_top" xlink:title="Represents the access control and audit security for a file or directory.">
<polygon fill="none" stroke="black" points="468,-147.5 468,-177.5 627,-177.5 627,-147.5 468,-147.5"/>
<text text-anchor="start" x="476" y="-165.5" font-family="Helvetica,sans-Serif" font-size="10.00">System.Security.AccessControl.</text>
<text text-anchor="middle" x="547.5" y="-154.5" font-family="Helvetica,sans-Serif" font-size="10.00">FileSystemSecurity</text>
</a>
</g>
</g>
<!-- Node0&#45;&gt;Node5 -->
<g id="edge5" class="edge"><title>Node0&#45;&gt;Node5</title>
<path fill="none" stroke="midnightblue" d="M442.023,-148.967C450.607,-150.079 459.276,-151.202 467.756,-152.3"/>
<polygon fill="midnightblue" stroke="midnightblue" points="442.367,-145.482 432,-147.668 441.468,-152.424 442.367,-145.482"/>
</g>
<!-- Node8 -->
<g id="node9" class="node"><title>Node8</title>
<g id="a_node9"><a xlink:href="class_system_1_1_security_1_1_access_control_1_1_mutex_security.html" target="_top" xlink:title="Represents the Windows access control security for a named mutex. This class cannot be inherited.">
<polygon fill="none" stroke="black" points="468,-98.5 468,-128.5 627,-128.5 627,-98.5 468,-98.5"/>
<text text-anchor="start" x="476" y="-116.5" font-family="Helvetica,sans-Serif" font-size="10.00">System.Security.AccessControl.</text>
<text text-anchor="middle" x="547.5" y="-105.5" font-family="Helvetica,sans-Serif" font-size="10.00">MutexSecurity</text>
</a>
</g>
</g>
<!-- Node0&#45;&gt;Node8 -->
<g id="edge8" class="edge"><title>Node0&#45;&gt;Node8</title>
<path fill="none" stroke="midnightblue" d="M442.023,-126.492C450.607,-125.425 459.276,-124.346 467.756,-123.292"/>
<polygon fill="midnightblue" stroke="midnightblue" points="441.492,-123.031 432,-127.738 442.356,-129.977 441.492,-123.031"/>
</g>
<!-- Node9 -->
<g id="node10" class="node"><title>Node9</title>
<g id="a_node10"><a xlink:href="class_system_1_1_security_1_1_access_control_1_1_object_security.html" target="_top" xlink:title="Provides the ability to control access to objects without direct manipulation of Access Control Lists...">
<polygon fill="none" stroke="black" points="468,-49.5 468,-79.5 627,-79.5 627,-49.5 468,-49.5"/>
<text text-anchor="start" x="476" y="-67.5" font-family="Helvetica,sans-Serif" font-size="10.00">System.Security.AccessControl.</text>
<text text-anchor="middle" x="547.5" y="-56.5" font-family="Helvetica,sans-Serif" font-size="10.00">ObjectSecurity&lt; T &gt;</text>
</a>
</g>
</g>
<!-- Node0&#45;&gt;Node9 -->
<g id="edge9" class="edge"><title>Node0&#45;&gt;Node9</title>
<path fill="none" stroke="midnightblue" d="M395.364,-118.3C416.856,-108.773 443.588,-97.4258 468,-88.5 476.432,-85.4169 485.468,-82.3977 494.301,-79.5978"/>
<polygon fill="midnightblue" stroke="midnightblue" points="393.896,-115.123 386.192,-122.396 396.75,-121.514 393.896,-115.123"/>
</g>
<!-- Node10 -->
<g id="node11" class="node"><title>Node10</title>
<g id="a_node11"><a xlink:href="class_system_1_1_security_1_1_access_control_1_1_registry_security.html" target="_top" xlink:title="Represents the Windows access control security for a registry key. This class cannot be inherited.">
<polygon fill="none" stroke="black" points="468,-0.5 468,-30.5 627,-30.5 627,-0.5 468,-0.5"/>
<text text-anchor="start" x="476" y="-18.5" font-family="Helvetica,sans-Serif" font-size="10.00">System.Security.AccessControl.</text>
<text text-anchor="middle" x="547.5" y="-7.5" font-family="Helvetica,sans-Serif" font-size="10.00">RegistrySecurity</text>
</a>
</g>
</g>
<!-- Node0&#45;&gt;Node10 -->
<g id="edge10" class="edge"><title>Node0&#45;&gt;Node10</title>
<path fill="none" stroke="midnightblue" d="M374.2,-115.046C395.7,-92.9483 431.279,-59.6709 468,-39.5 474.12,-36.138 480.774,-33.1837 487.532,-30.6043"/>
<polygon fill="midnightblue" stroke="midnightblue" points="371.589,-112.711 367.203,-122.355 376.646,-117.551 371.589,-112.711"/>
</g>
<!-- Node1 -->
<g id="node2" class="node"><title>Node1</title>
<g id="a_node2"><a xlink:href="class_system_1_1_security_1_1_access_control_1_1_common_object_security.html" target="_top" xlink:title="Controls access to objects without direct manipulation of access control lists (ACLs)....">
<polygon fill="none" stroke="black" points="117,-128 117,-147 237,-147 237,-128 117,-128"/>
<text text-anchor="middle" x="177" y="-135" font-family="Helvetica,sans-Serif" font-size="10.00">CommonObjectSecurity</text>
</a>
</g>
</g>
<!-- Node1&#45;&gt;Node0 -->
<g id="edge1" class="edge"><title>Node1&#45;&gt;Node0</title>
<path fill="none" stroke="midnightblue" d="M247.341,-137.5C255.747,-137.5 264.38,-137.5 272.907,-137.5"/>
<polygon fill="midnightblue" stroke="midnightblue" points="247.224,-134 237.224,-137.5 247.224,-141 247.224,-134"/>
</g>
<!-- Node2 -->
<g id="node3" class="node"><title>Node2</title>
<g id="a_node3"><a xlink:href="class_system_1_1_security_1_1_access_control_1_1_object_security.html" target="_top" xlink:title="Provides the ability to control access to objects without direct manipulation of Access Control Lists...">
<polygon fill="none" stroke="black" points="0,-128 0,-147 81,-147 81,-128 0,-128"/>
<text text-anchor="middle" x="40.5" y="-135" font-family="Helvetica,sans-Serif" font-size="10.00">ObjectSecurity</text>
</a>
</g>
</g>
<!-- Node2&#45;&gt;Node1 -->
<g id="edge2" class="edge"><title>Node2&#45;&gt;Node1</title>
<path fill="none" stroke="midnightblue" d="M91.1439,-137.5C99.5482,-137.5 108.347,-137.5 116.964,-137.5"/>
<polygon fill="midnightblue" stroke="midnightblue" points="91.127,-134 81.127,-137.5 91.1269,-141 91.127,-134"/>
</g>
<!-- Node6 -->
<g id="node7" class="node"><title>Node6</title>
<g id="a_node7"><a xlink:href="class_system_1_1_security_1_1_access_control_1_1_directory_security.html" target="_top" xlink:title="Represents the access control and audit security for a directory. This class cannot be inherited.">
<polygon fill="none" stroke="black" points="663,-171.5 663,-201.5 822,-201.5 822,-171.5 663,-171.5"/>
<text text-anchor="start" x="671" y="-189.5" font-family="Helvetica,sans-Serif" font-size="10.00">System.Security.AccessControl.</text>
<text text-anchor="middle" x="742.5" y="-178.5" font-family="Helvetica,sans-Serif" font-size="10.00">DirectorySecurity</text>
</a>
</g>
</g>
<!-- Node5&#45;&gt;Node6 -->
<g id="edge6" class="edge"><title>Node5&#45;&gt;Node6</title>
<path fill="none" stroke="midnightblue" d="M637.023,-173.508C645.607,-174.575 654.276,-175.654 662.756,-176.708"/>
<polygon fill="midnightblue" stroke="midnightblue" points="637.356,-170.023 627,-172.262 636.492,-176.969 637.356,-170.023"/>
</g>
<!-- Node7 -->
<g id="node8" class="node"><title>Node7</title>
<g id="a_node8"><a xlink:href="class_system_1_1_security_1_1_access_control_1_1_file_security.html" target="_top" xlink:title="Represents the access control and audit security for a file. This class cannot be inherited.">
<polygon fill="none" stroke="black" points="663,-122.5 663,-152.5 822,-152.5 822,-122.5 663,-122.5"/>
<text text-anchor="start" x="671" y="-140.5" font-family="Helvetica,sans-Serif" font-size="10.00">System.Security.AccessControl.</text>
<text text-anchor="middle" x="742.5" y="-129.5" font-family="Helvetica,sans-Serif" font-size="10.00">FileSecurity</text>
</a>
</g>
</g>
<!-- Node5&#45;&gt;Node7 -->
<g id="edge7" class="edge"><title>Node5&#45;&gt;Node7</title>
<path fill="none" stroke="midnightblue" d="M637.023,-151.033C645.607,-149.921 654.276,-148.798 662.756,-147.7"/>
<polygon fill="midnightblue" stroke="midnightblue" points="636.468,-147.576 627,-152.332 637.367,-154.518 636.468,-147.576"/>
</g>
</g>
</svg>
