<?xml version="1.0" encoding="UTF-8" standalone="no"?>
<!DOCTYPE svg PUBLIC "-//W3C//DTD SVG 1.1//EN"
 "http://www.w3.org/Graphics/SVG/1.1/DTD/svg11.dtd">
<!-- Generated by graphviz version 2.38.0 (20140413.2041)
 -->
<!-- Title: System.ComponentModel.Design.StandardToolWindows Pages: 1 -->
<svg width="178pt" height="187pt"
 viewBox="0.00 0.00 177.50 187.06" xmlns="http://www.w3.org/2000/svg" xmlns:xlink="http://www.w3.org/1999/xlink">
<g id="graph0" class="graph" transform="scale(1 1) rotate(0) translate(4 183.057)">
<title>System.ComponentModel.Design.StandardToolWindows</title>
<!-- Node1 -->
<g id="node1" class="node"><title>Node1</title>
<g id="a_node1"><a xlink:title="Defines GUID identifiers that correspond to the standard set of tool windows that are available in th...">
<polygon fill="#bfbfbf" stroke="black" points="0,-0.5 0,-30.5 165,-30.5 165,-0.5 0,-0.5"/>
<text text-anchor="start" x="8" y="-18.5" font-family="Helvetica,sans-Serif" font-size="10.00">System.ComponentModel.Design.</text>
<text text-anchor="middle" x="82.5" y="-7.5" font-family="Helvetica,sans-Serif" font-size="10.00">StandardToolWindows</text>
</a>
</g>
</g>
<!-- Node2 -->
<g id="node2" class="node"><title>Node2</title>
<g id="a_node2"><a xlink:href="struct_system_1_1_guid.html" target="_top" xlink:title="Represents a globally unique identifier (GUID).To browse the .NET Framework source code for this type...">
<polygon fill="none" stroke="red" points="45.5,-155.5 45.5,-174.5 119.5,-174.5 119.5,-155.5 45.5,-155.5"/>
<text text-anchor="middle" x="82.5" y="-162.5" font-family="Helvetica,sans-Serif" font-size="10.00">System.Guid</text>
</a>
</g>
</g>
<!-- Node2&#45;&gt;Node1 -->
<g id="edge1" class="edge"><title>Node2&#45;&gt;Node1</title>
<path fill="none" stroke="#9a32cd" stroke-dasharray="5,2" d="M82.5,-144.863C82.5,-114.894 82.5,-57.5609 82.5,-30.8526"/>
<polygon fill="#9a32cd" stroke="#9a32cd" points="79.0001,-145.215 82.5,-155.215 86.0001,-145.215 79.0001,-145.215"/>
<text text-anchor="middle" x="119" y="-129" font-family="Helvetica,sans-Serif" font-size="10.00"> OutputWindow</text>
<text text-anchor="middle" x="119" y="-118" font-family="Helvetica,sans-Serif" font-size="10.00">ProjectExplorer</text>
<text text-anchor="middle" x="119" y="-107" font-family="Helvetica,sans-Serif" font-size="10.00">TaskList</text>
<text text-anchor="middle" x="119" y="-96" font-family="Helvetica,sans-Serif" font-size="10.00">RelatedLinks</text>
<text text-anchor="middle" x="119" y="-85" font-family="Helvetica,sans-Serif" font-size="10.00">Toolbox</text>
<text text-anchor="middle" x="119" y="-74" font-family="Helvetica,sans-Serif" font-size="10.00">PropertyBrowser</text>
<text text-anchor="middle" x="119" y="-63" font-family="Helvetica,sans-Serif" font-size="10.00">ServerExplorer</text>
<text text-anchor="middle" x="119" y="-52" font-family="Helvetica,sans-Serif" font-size="10.00">ObjectBrowser</text>
</g>
<!-- Node2&#45;&gt;Node2 -->
<g id="edge2" class="edge"><title>Node2&#45;&gt;Node2</title>
<path fill="none" stroke="#9a32cd" stroke-dasharray="5,2" d="M107.062,-177.483C122.609,-180.632 137.5,-176.471 137.5,-165 137.5,-151.148 115.787,-147.956 97.4239,-155.423"/>
<polygon fill="#9a32cd" stroke="#9a32cd" points="108.009,-174.112 97.4239,-174.577 105.988,-180.814 108.009,-174.112"/>
<text text-anchor="middle" x="153.5" y="-162.5" font-family="Helvetica,sans-Serif" font-size="10.00"> Empty</text>
</g>
</g>
</svg>
