<?xml version="1.0" encoding="UTF-8" standalone="no"?>
<!DOCTYPE svg PUBLIC "-//W3C//DTD SVG 1.1//EN"
 "http://www.w3.org/Graphics/SVG/1.1/DTD/svg11.dtd">
<!-- Generated by graphviz version 2.38.0 (20140413.2041)
 -->
<!-- Title: System.Net.FtpWebRequest Pages: 1 -->
<svg width="164pt" height="95pt"
 viewBox="0.00 0.00 164.00 95.00" xmlns="http://www.w3.org/2000/svg" xmlns:xlink="http://www.w3.org/1999/xlink">
<g id="graph0" class="graph" transform="scale(1 1) rotate(0) translate(4 91)">
<title>System.Net.FtpWebRequest</title>
<!-- Node4 -->
<g id="node1" class="node"><title>Node4</title>
<g id="a_node1"><a xlink:title="Implements a File Transfer Protocol (FTP) client.">
<polygon fill="#bfbfbf" stroke="black" points="8.5,-0.5 8.5,-19.5 150.5,-19.5 150.5,-0.5 8.5,-0.5"/>
<text text-anchor="middle" x="79.5" y="-7.5" font-family="Helvetica,sans-Serif" font-size="10.00">System.Net.FtpWebRequest</text>
</a>
</g>
</g>
<!-- Node5 -->
<g id="node2" class="node"><title>Node5</title>
<g id="a_node2"><a xlink:href="class_system_1_1_net_1_1_web_request.html" target="_top" xlink:title="Makes a request to a Uniform Resource Identifier (URI). This is an abstract class.">
<polygon fill="none" stroke="red" points="0,-67.5 0,-86.5 73,-86.5 73,-67.5 0,-67.5"/>
<text text-anchor="middle" x="36.5" y="-74.5" font-family="Helvetica,sans-Serif" font-size="10.00">WebRequest</text>
</a>
</g>
</g>
<!-- Node5&#45;&gt;Node4 -->
<g id="edge1" class="edge"><title>Node5&#45;&gt;Node4</title>
<path fill="none" stroke="midnightblue" d="M48.054,-58.5347C56.3793,-45.9499 67.2568,-29.5072 73.7927,-19.6273"/>
<polygon fill="midnightblue" stroke="midnightblue" points="44.8975,-56.9625 42.2992,-67.2338 50.7356,-60.8247 44.8975,-56.9625"/>
</g>
<!-- Node8 -->
<g id="node3" class="node"><title>Node8</title>
<g id="a_node3"><a xlink:href="class_system_1_1_uri.html" target="_top" xlink:title="Provides an object representation of a uniform resource identifier (URI) and easy access to the parts...">
<polygon fill="none" stroke="red" points="91,-67.5 91,-86.5 156,-86.5 156,-67.5 91,-67.5"/>
<text text-anchor="middle" x="123.5" y="-74.5" font-family="Helvetica,sans-Serif" font-size="10.00">System.Uri</text>
</a>
</g>
</g>
<!-- Node8&#45;&gt;Node4 -->
<g id="edge2" class="edge"><title>Node8&#45;&gt;Node4</title>
<path fill="none" stroke="#9a32cd" stroke-dasharray="5,2" d="M111.927,-58.9037C103.377,-46.2729 92.0935,-29.6041 85.34,-19.6273"/>
<polygon fill="#9a32cd" stroke="#9a32cd" points="109.062,-60.9147 117.566,-67.2338 114.859,-56.9907 109.062,-60.9147"/>
<text text-anchor="middle" x="129.5" y="-41" font-family="Helvetica,sans-Serif" font-size="10.00"> RequestUri</text>
</g>
</g>
</svg>
