<?xml version="1.0" encoding="UTF-8" standalone="no"?>
<!DOCTYPE svg PUBLIC "-//W3C//DTD SVG 1.1//EN"
 "http://www.w3.org/Graphics/SVG/1.1/DTD/svg11.dtd">
<!-- Generated by graphviz version 2.38.0 (20140413.2041)
 -->
<!-- Title: System.Net.Mail.SmtpFailedRecipientsException Pages: 1 -->
<svg width="515pt" height="94pt"
 viewBox="0.00 0.00 515.00 94.19" xmlns="http://www.w3.org/2000/svg" xmlns:xlink="http://www.w3.org/1999/xlink">
<g id="graph0" class="graph" transform="scale(1 1) rotate(0) translate(4 90.1921)">
<title>System.Net.Mail.SmtpFailedRecipientsException</title>
<!-- Node6 -->
<g id="node1" class="node"><title>Node6</title>
<g id="a_node1"><a xlink:title="The exception that is thrown when e&#45;mail is sent using an T:System.Net.Mail.SmtpClient and cannot be ...">
<polygon fill="#bfbfbf" stroke="black" points="365,-44.5 365,-74.5 507,-74.5 507,-44.5 365,-44.5"/>
<text text-anchor="start" x="373" y="-62.5" font-family="Helvetica,sans-Serif" font-size="10.00">System.Net.Mail.SmtpFailed</text>
<text text-anchor="middle" x="436" y="-51.5" font-family="Helvetica,sans-Serif" font-size="10.00">RecipientsException</text>
</a>
</g>
</g>
<!-- Node7 -->
<g id="node2" class="node"><title>Node7</title>
<g id="a_node2"><a xlink:href="class_system_1_1_net_1_1_mail_1_1_smtp_failed_recipient_exception.html" target="_top" xlink:title="Represents the exception that is thrown when the T:System.Net.Mail.SmtpClient is not able to complete...">
<polygon fill="none" stroke="red" points="106,-50 106,-69 256,-69 256,-50 106,-50"/>
<text text-anchor="middle" x="181" y="-57" font-family="Helvetica,sans-Serif" font-size="10.00">SmtpFailedRecipientException</text>
</a>
</g>
</g>
<!-- Node7&#45;&gt;Node6 -->
<g id="edge1" class="edge"><title>Node7&#45;&gt;Node6</title>
<path fill="none" stroke="midnightblue" d="M266.403,-59.5C298.305,-59.5 334.239,-59.5 364.711,-59.5"/>
<polygon fill="midnightblue" stroke="midnightblue" points="266.199,-56.0001 256.199,-59.5 266.199,-63.0001 266.199,-56.0001"/>
</g>
<!-- Node10 -->
<g id="node3" class="node"><title>Node10</title>
<g id="a_node3"><a xlink:href="interface_system_1_1_runtime_1_1_serialization_1_1_i_serializable.html" target="_top" xlink:title="Allows an object to control its own serialization and deserialization.">
<polygon fill="none" stroke="black" points="0,-50 0,-69 69,-69 69,-50 0,-50"/>
<text text-anchor="middle" x="34.5" y="-57" font-family="Helvetica,sans-Serif" font-size="10.00">ISerializable</text>
</a>
</g>
</g>
<!-- Node10&#45;&gt;Node6 -->
<g id="edge3" class="edge"><title>Node10&#45;&gt;Node6</title>
<path fill="none" stroke="midnightblue" d="M73.587,-71.7689C83.9856,-74.566 95.3299,-77.1195 106,-78.5 212.249,-92.2461 240.471,-84.87 347,-73.5 352.845,-72.8761 358.894,-72.129 364.958,-71.3089"/>
<polygon fill="midnightblue" stroke="midnightblue" points="74.5352,-68.3998 63.9599,-69.0428 72.628,-75.135 74.5352,-68.3998"/>
</g>
<!-- Node10&#45;&gt;Node7 -->
<g id="edge2" class="edge"><title>Node10&#45;&gt;Node7</title>
<path fill="none" stroke="midnightblue" d="M79.0237,-59.5C87.5195,-59.5 96.6484,-59.5 105.819,-59.5"/>
<polygon fill="midnightblue" stroke="midnightblue" points="79.0144,-56.0001 69.0144,-59.5 79.0144,-63.0001 79.0144,-56.0001"/>
</g>
<!-- Node12 -->
<g id="node4" class="node"><title>Node12</title>
<g id="a_node4"><a xlink:href="class_system_1_1_net_1_1_mail_1_1_smtp_failed_recipient_exception.html" target="_top" xlink:title="Represents the exception that is thrown when the T:System.Net.Mail.SmtpClient is not able to complete...">
<polygon fill="none" stroke="red" points="110,-0.5 110,-30.5 252,-30.5 252,-0.5 110,-0.5"/>
<text text-anchor="start" x="118" y="-18.5" font-family="Helvetica,sans-Serif" font-size="10.00">System.Net.Mail.SmtpFailed</text>
<text text-anchor="middle" x="181" y="-7.5" font-family="Helvetica,sans-Serif" font-size="10.00">RecipientException</text>
</a>
</g>
</g>
<!-- Node10&#45;&gt;Node12 -->
<g id="edge5" class="edge"><title>Node10&#45;&gt;Node12</title>
<path fill="none" stroke="midnightblue" d="M76.8769,-46.9008C93.6057,-41.8069 113.054,-35.8849 130.524,-30.5654"/>
<polygon fill="midnightblue" stroke="midnightblue" points="75.4011,-43.6914 66.8543,-49.9527 77.4402,-50.3879 75.4011,-43.6914"/>
</g>
<!-- Node12&#45;&gt;Node6 -->
<g id="edge4" class="edge"><title>Node12&#45;&gt;Node6</title>
<path fill="none" stroke="#9a32cd" stroke-dasharray="5,2" d="M262.19,-29.446C295.117,-35.1725 332.901,-41.7437 364.725,-47.2782"/>
<polygon fill="#9a32cd" stroke="#9a32cd" points="262.59,-25.9633 252.139,-27.698 261.391,-32.8598 262.59,-25.9633"/>
<text text-anchor="middle" x="310.5" y="-47.5" font-family="Helvetica,sans-Serif" font-size="10.00"> InnerExceptions</text>
</g>
</g>
</svg>
