<?xml version="1.0" encoding="UTF-8" standalone="no"?>
<!DOCTYPE svg PUBLIC "-//W3C//DTD SVG 1.1//EN"
 "http://www.w3.org/Graphics/SVG/1.1/DTD/svg11.dtd">
<!-- Generated by graphviz version 2.38.0 (20140413.2041)
 -->
<!-- Title: System.ConsoleCancelEventArgs Pages: 1 -->
<svg width="189pt" height="152pt"
 viewBox="0.00 0.00 188.50 152.00" xmlns="http://www.w3.org/2000/svg" xmlns:xlink="http://www.w3.org/1999/xlink">
<g id="graph0" class="graph" transform="scale(1 1) rotate(0) translate(4 148)">
<title>System.ConsoleCancelEventArgs</title>
<!-- Node2 -->
<g id="node1" class="node"><title>Node2</title>
<g id="a_node1"><a xlink:title="Provides data for the E:System.Console.CancelKeyPress event. This class cannot be inherited.">
<polygon fill="#bfbfbf" stroke="black" points="0,-0.5 0,-19.5 163,-19.5 163,-0.5 0,-0.5"/>
<text text-anchor="middle" x="81.5" y="-7.5" font-family="Helvetica,sans-Serif" font-size="10.00">System.ConsoleCancelEventArgs</text>
</a>
</g>
</g>
<!-- Node3 -->
<g id="node2" class="node"><title>Node3</title>
<g id="a_node2"><a xlink:href="class_system_1_1_event_args.html" target="_top" xlink:title="Represents the base class for classes that contain event data, and provides a value to use for events...">
<polygon fill="none" stroke="black" points="51,-57.5 51,-76.5 112,-76.5 112,-57.5 51,-57.5"/>
<text text-anchor="middle" x="81.5" y="-64.5" font-family="Helvetica,sans-Serif" font-size="10.00">EventArgs</text>
</a>
</g>
</g>
<!-- Node3&#45;&gt;Node2 -->
<g id="edge1" class="edge"><title>Node3&#45;&gt;Node2</title>
<path fill="none" stroke="midnightblue" d="M81.5,-47.1166C81.5,-37.8173 81.5,-27.0557 81.5,-19.7149"/>
<polygon fill="midnightblue" stroke="midnightblue" points="78.0001,-47.4062 81.5,-57.4063 85.0001,-47.4063 78.0001,-47.4062"/>
</g>
<!-- Node4 -->
<g id="node3" class="node"><title>Node4</title>
<g id="a_node3"><a xlink:href="class_system_1_1_event_args.html" target="_top" xlink:title="Represents the base class for classes that contain event data, and provides a value to use for events...">
<polygon fill="none" stroke="black" points="32.5,-124.5 32.5,-143.5 130.5,-143.5 130.5,-124.5 32.5,-124.5"/>
<text text-anchor="middle" x="81.5" y="-131.5" font-family="Helvetica,sans-Serif" font-size="10.00">System.EventArgs</text>
</a>
</g>
</g>
<!-- Node4&#45;&gt;Node3 -->
<g id="edge2" class="edge"><title>Node4&#45;&gt;Node3</title>
<path fill="none" stroke="#9a32cd" stroke-dasharray="5,2" d="M81.5,-114.037C81.5,-101.67 81.5,-86.1198 81.5,-76.6273"/>
<polygon fill="#9a32cd" stroke="#9a32cd" points="78.0001,-114.234 81.5,-124.234 85.0001,-114.234 78.0001,-114.234"/>
<text text-anchor="middle" x="97.5" y="-98" font-family="Helvetica,sans-Serif" font-size="10.00"> Empty</text>
</g>
<!-- Node4&#45;&gt;Node4 -->
<g id="edge3" class="edge"><title>Node4&#45;&gt;Node4</title>
<path fill="none" stroke="#9a32cd" stroke-dasharray="5,2" d="M140.823,-138.575C145.565,-137.576 148.5,-136.051 148.5,-134 148.5,-130.719 140.986,-128.783 130.58,-128.194"/>
<polygon fill="#9a32cd" stroke="#9a32cd" points="140.091,-135.138 130.58,-139.806 140.927,-142.088 140.091,-135.138"/>
<text text-anchor="middle" x="164.5" y="-131.5" font-family="Helvetica,sans-Serif" font-size="10.00"> Empty</text>
</g>
</g>
</svg>
