<?xml version="1.0" encoding="UTF-8" standalone="no"?>
<!DOCTYPE svg PUBLIC "-//W3C//DTD SVG 1.1//EN"
 "http://www.w3.org/Graphics/SVG/1.1/DTD/svg11.dtd">
<!-- Generated by graphviz version 2.38.0 (20140413.2041)
 -->
<!-- Title: System.Reflection.MethodBase Pages: 1 -->
<svg width="336pt" height="140pt"
 viewBox="0.00 0.00 336.00 140.00" xmlns="http://www.w3.org/2000/svg" xmlns:xlink="http://www.w3.org/1999/xlink">
<g id="graph0" class="graph" transform="scale(1 1) rotate(0) translate(4 136)">
<title>System.Reflection.MethodBase</title>
<!-- Node0 -->
<g id="node1" class="node"><title>Node0</title>
<g id="a_node1"><a xlink:title="Provides information about methods and constructors.">
<polygon fill="#bfbfbf" stroke="black" points="91,-56.5 91,-75.5 245,-75.5 245,-56.5 91,-56.5"/>
<text text-anchor="middle" x="168" y="-63.5" font-family="Helvetica,sans-Serif" font-size="10.00">System.Reflection.MethodBase</text>
</a>
</g>
</g>
<!-- Node5 -->
<g id="node4" class="node"><title>Node5</title>
<g id="a_node4"><a xlink:href="class_system_1_1_reflection_1_1_constructor_info.html" target="_top" xlink:title="Discovers the attributes of a class constructor and provides access to constructor metadata.">
<polygon fill="none" stroke="red" points="0,-0.5 0,-19.5 164,-19.5 164,-0.5 0,-0.5"/>
<text text-anchor="middle" x="82" y="-7.5" font-family="Helvetica,sans-Serif" font-size="10.00">System.Reflection.ConstructorInfo</text>
</a>
</g>
</g>
<!-- Node0&#45;&gt;Node5 -->
<g id="edge3" class="edge"><title>Node0&#45;&gt;Node5</title>
<path fill="none" stroke="midnightblue" d="M145.545,-50.9005C129.776,-40.9986 109.186,-28.0705 95.7831,-19.6545"/>
<polygon fill="midnightblue" stroke="midnightblue" points="143.852,-53.9704 154.183,-56.324 147.575,-48.0421 143.852,-53.9704"/>
</g>
<!-- Node7 -->
<g id="node5" class="node"><title>Node7</title>
<g id="a_node5"><a xlink:href="class_system_1_1_reflection_1_1_method_info.html" target="_top" xlink:title="Discovers the attributes of a method and provides access to method metadata.">
<polygon fill="none" stroke="red" points="182,-0.5 182,-19.5 328,-19.5 328,-0.5 182,-0.5"/>
<text text-anchor="middle" x="255" y="-7.5" font-family="Helvetica,sans-Serif" font-size="10.00">System.Reflection.MethodInfo</text>
</a>
</g>
</g>
<!-- Node0&#45;&gt;Node7 -->
<g id="edge4" class="edge"><title>Node0&#45;&gt;Node7</title>
<path fill="none" stroke="midnightblue" d="M190.716,-50.9005C206.669,-40.9986 227.497,-28.0705 241.057,-19.6545"/>
<polygon fill="midnightblue" stroke="midnightblue" points="188.629,-48.0765 181.978,-56.324 192.32,-54.024 188.629,-48.0765"/>
</g>
<!-- Node1 -->
<g id="node2" class="node"><title>Node1</title>
<g id="a_node2"><a xlink:href="class_system_1_1_reflection_1_1_member_info.html" target="_top" xlink:title="Obtains information about the attributes of a member and provides access to member metadata.">
<polygon fill="none" stroke="red" points="89.5,-112.5 89.5,-131.5 156.5,-131.5 156.5,-112.5 89.5,-112.5"/>
<text text-anchor="middle" x="123" y="-119.5" font-family="Helvetica,sans-Serif" font-size="10.00">MemberInfo</text>
</a>
</g>
</g>
<!-- Node1&#45;&gt;Node0 -->
<g id="edge1" class="edge"><title>Node1&#45;&gt;Node0</title>
<path fill="none" stroke="midnightblue" d="M137.047,-104.144C144.887,-94.7357 154.329,-83.4046 160.707,-75.7511"/>
<polygon fill="midnightblue" stroke="midnightblue" points="134.144,-102.16 130.431,-112.083 139.521,-106.641 134.144,-102.16"/>
</g>
<!-- Node4 -->
<g id="node3" class="node"><title>Node4</title>
<g id="a_node3"><a xlink:href="interface_system_1_1_runtime_1_1_interop_services_1_1___method_base.html" target="_top" xlink:title="Exposes the public members of the T:System.Reflection.MethodBase class to unmanaged code.">
<polygon fill="none" stroke="black" points="174.5,-112.5 174.5,-131.5 251.5,-131.5 251.5,-112.5 174.5,-112.5"/>
<text text-anchor="middle" x="213" y="-119.5" font-family="Helvetica,sans-Serif" font-size="10.00">_MethodBase</text>
</a>
</g>
</g>
<!-- Node4&#45;&gt;Node0 -->
<g id="edge2" class="edge"><title>Node4&#45;&gt;Node0</title>
<path fill="none" stroke="midnightblue" d="M198.953,-104.144C191.113,-94.7357 181.671,-83.4046 175.293,-75.7511"/>
<polygon fill="midnightblue" stroke="midnightblue" points="196.479,-106.641 205.569,-112.083 201.856,-102.16 196.479,-106.641"/>
</g>
</g>
</svg>
