<?xml version="1.0" encoding="UTF-8" standalone="no"?>
<!DOCTYPE svg PUBLIC "-//W3C//DTD SVG 1.1//EN"
 "http://www.w3.org/Graphics/SVG/1.1/DTD/svg11.dtd">
<!-- Generated by graphviz version 2.38.0 (20140413.2041)
 -->
<!-- Title: System.Collections.Generic.Dictionary&lt; TKey, TValue &gt; Pages: 1 -->
<svg width="794pt" height="480pt"
 viewBox="0.00 0.00 794.00 479.50" xmlns="http://www.w3.org/2000/svg" xmlns:xlink="http://www.w3.org/1999/xlink">
<g id="graph0" class="graph" transform="scale(1 1) rotate(0) translate(4 475.5)">
<title>System.Collections.Generic.Dictionary&lt; TKey, TValue &gt;</title>
<!-- Node39 -->
<g id="node1" class="node"><title>Node39</title>
<g id="a_node1"><a xlink:title="Represents a collection of keys and values.To browse the .NET Framework source code for this type,...">
<polygon fill="#bfbfbf" stroke="black" points="645,-215 645,-245 786,-245 786,-215 645,-215"/>
<text text-anchor="start" x="653" y="-233" font-family="Helvetica,sans-Serif" font-size="10.00">System.Collections.Generic.</text>
<text text-anchor="middle" x="715.5" y="-222" font-family="Helvetica,sans-Serif" font-size="10.00">Dictionary&lt; TKey, TValue &gt;</text>
</a>
</g>
</g>
<!-- Node40 -->
<g id="node2" class="node"><title>Node40</title>
<g id="a_node2"><a xlink:href="interface_system_1_1_collections_1_1_generic_1_1_i_dictionary.html" target="_top" xlink:title="Represents a generic collection of key/value pairs.">
<polygon fill="none" stroke="black" points="499.5,-441 499.5,-471 596.5,-471 596.5,-441 499.5,-441"/>
<text text-anchor="start" x="507.5" y="-459" font-family="Helvetica,sans-Serif" font-size="10.00">IDictionary&lt; TKey,</text>
<text text-anchor="middle" x="548" y="-448" font-family="Helvetica,sans-Serif" font-size="10.00"> TValue &gt;</text>
</a>
</g>
</g>
<!-- Node40&#45;&gt;Node39 -->
<g id="edge1" class="edge"><title>Node40&#45;&gt;Node39</title>
<path fill="none" stroke="midnightblue" d="M605.759,-440.359C613.497,-436.534 620.872,-431.813 627,-426 681.882,-373.937 704.744,-281.198 711.859,-245.03"/>
<polygon fill="midnightblue" stroke="midnightblue" points="604.278,-437.187 596.562,-444.448 607.122,-443.583 604.278,-437.187"/>
</g>
<!-- Node41 -->
<g id="node3" class="node"><title>Node41</title>
<g id="a_node3"><a xlink:title=" ">
<polygon fill="none" stroke="#bfbfbf" points="316.5,-397 316.5,-427 446.5,-427 446.5,-397 316.5,-397"/>
<text text-anchor="start" x="324.5" y="-415" font-family="Helvetica,sans-Serif" font-size="10.00">ICollection&lt; KeyValuePair</text>
<text text-anchor="middle" x="381.5" y="-404" font-family="Helvetica,sans-Serif" font-size="10.00">&lt; TKey, TValue &gt;&gt;</text>
</a>
</g>
</g>
<!-- Node41&#45;&gt;Node39 -->
<g id="edge6" class="edge"><title>Node41&#45;&gt;Node39</title>
<path fill="none" stroke="midnightblue" d="M456.66,-402.616C502.877,-394.203 562.074,-378.578 608,-350 652.462,-322.333 689.057,-270.585 705.36,-245.046"/>
<polygon fill="midnightblue" stroke="midnightblue" points="455.956,-399.186 446.707,-404.354 457.16,-406.082 455.956,-399.186"/>
</g>
<!-- Node41&#45;&gt;Node40 -->
<g id="edge2" class="edge"><title>Node41&#45;&gt;Node40</title>
<path fill="none" stroke="midnightblue" d="M448.521,-429.659C465.511,-434.203 483.463,-439.005 499.32,-443.247"/>
<polygon fill="midnightblue" stroke="midnightblue" points="449.216,-426.222 438.651,-427.019 447.407,-432.984 449.216,-426.222"/>
</g>
<!-- Node44 -->
<g id="node6" class="node"><title>Node44</title>
<g id="a_node6"><a xlink:href="interface_system_1_1_collections_1_1_generic_1_1_i_dictionary.html" target="_top" xlink:title="Represents a generic collection of key/value pairs.">
<polygon fill="none" stroke="black" points="517,-321.5 517,-340.5 579,-340.5 579,-321.5 517,-321.5"/>
<text text-anchor="middle" x="548" y="-328.5" font-family="Helvetica,sans-Serif" font-size="10.00">IDictionary</text>
</a>
</g>
</g>
<!-- Node41&#45;&gt;Node44 -->
<g id="edge10" class="edge"><title>Node41&#45;&gt;Node44</title>
<path fill="none" stroke="midnightblue" d="M422.077,-392.512C455.371,-376.118 501.568,-353.371 527.438,-340.632"/>
<polygon fill="midnightblue" stroke="midnightblue" points="420.481,-389.397 413.056,-396.954 423.573,-395.677 420.481,-389.397"/>
</g>
<!-- Node42 -->
<g id="node4" class="node"><title>Node42</title>
<g id="a_node4"><a xlink:title=" ">
<polygon fill="none" stroke="#bfbfbf" points="312,-278 312,-308 451,-308 451,-278 312,-278"/>
<text text-anchor="start" x="320" y="-296" font-family="Helvetica,sans-Serif" font-size="10.00">IEnumerable&lt; KeyValuePair</text>
<text text-anchor="middle" x="381.5" y="-285" font-family="Helvetica,sans-Serif" font-size="10.00">&lt; TKey, TValue &gt;&gt;</text>
</a>
</g>
</g>
<!-- Node42&#45;&gt;Node39 -->
<g id="edge7" class="edge"><title>Node42&#45;&gt;Node39</title>
<path fill="none" stroke="midnightblue" d="M461.097,-288.144C509.465,-283.98 572.433,-276.433 627,-263 644.972,-258.576 664.289,-251.548 680.19,-245.113"/>
<polygon fill="midnightblue" stroke="midnightblue" points="460.682,-284.666 451.006,-288.982 461.262,-291.642 460.682,-284.666"/>
</g>
<!-- Node42&#45;&gt;Node40 -->
<g id="edge3" class="edge"><title>Node42&#45;&gt;Node40</title>
<path fill="none" stroke="midnightblue" d="M404.859,-315.156C438.879,-348.865 502.751,-412.154 531.856,-440.994"/>
<polygon fill="midnightblue" stroke="midnightblue" points="407.248,-312.595 397.681,-308.042 402.321,-317.567 407.248,-312.595"/>
</g>
<!-- Node42&#45;&gt;Node44 -->
<g id="edge11" class="edge"><title>Node42&#45;&gt;Node44</title>
<path fill="none" stroke="midnightblue" d="M457.405,-310.303C478.368,-315.146 499.974,-320.137 516.714,-324.004"/>
<polygon fill="midnightblue" stroke="midnightblue" points="458.046,-306.859 447.515,-308.019 456.47,-313.68 458.046,-306.859"/>
</g>
<!-- Node48 -->
<g id="node10" class="node"><title>Node48</title>
<g id="a_node10"><a xlink:href="interface_system_1_1_collections_1_1_generic_1_1_i_read_only_dictionary.html" target="_top" xlink:title="Represents a generic read&#45;only collection of key/value pairs.">
<polygon fill="none" stroke="black" points="495.5,-131 495.5,-161 600.5,-161 600.5,-131 495.5,-131"/>
<text text-anchor="start" x="503.5" y="-149" font-family="Helvetica,sans-Serif" font-size="10.00">IReadOnlyDictionary</text>
<text text-anchor="middle" x="548" y="-138" font-family="Helvetica,sans-Serif" font-size="10.00">&lt; TKey, TValue &gt;</text>
</a>
</g>
</g>
<!-- Node42&#45;&gt;Node48 -->
<g id="edge20" class="edge"><title>Node42&#45;&gt;Node48</title>
<path fill="none" stroke="midnightblue" d="M408.685,-271.022C421.938,-259.387 437.942,-244.529 451,-230 469.48,-209.439 467.368,-198.4 488,-180 496.117,-172.761 506.02,-166.334 515.377,-161.07"/>
<polygon fill="midnightblue" stroke="midnightblue" points="406.106,-268.626 400.839,-277.819 410.689,-273.917 406.106,-268.626"/>
</g>
<!-- Node43 -->
<g id="node5" class="node"><title>Node43</title>
<g id="a_node5"><a xlink:href="interface_system_1_1_collections_1_1_generic_1_1_i_enumerable.html" target="_top" xlink:title="Exposes the enumerator, which supports a simple iteration over a collection of a specified type....">
<polygon fill="none" stroke="black" points="0,-233.5 0,-252.5 71,-252.5 71,-233.5 0,-233.5"/>
<text text-anchor="middle" x="35.5" y="-240.5" font-family="Helvetica,sans-Serif" font-size="10.00">IEnumerable</text>
</a>
</g>
</g>
<!-- Node43&#45;&gt;Node39 -->
<g id="edge8" class="edge"><title>Node43&#45;&gt;Node39</title>
<path fill="none" stroke="midnightblue" d="M81.1639,-246.93C84.1525,-247.011 87.1187,-247.039 90,-247 291.446,-244.259 529.343,-236.545 644.738,-232.519"/>
<polygon fill="midnightblue" stroke="midnightblue" points="81.1537,-243.426 71.0079,-246.478 80.8423,-250.419 81.1537,-243.426"/>
</g>
<!-- Node43&#45;&gt;Node40 -->
<g id="edge4" class="edge"><title>Node43&#45;&gt;Node40</title>
<path fill="none" stroke="midnightblue" d="M52.0232,-260.288C65.8863,-275.196 87.1652,-296.814 108,-313 191.789,-378.093 211.067,-404.287 312,-437 374.495,-457.255 450.999,-459.58 499.38,-458.497"/>
<polygon fill="midnightblue" stroke="midnightblue" points="54.4718,-257.779 45.1343,-252.773 49.3118,-262.51 54.4718,-257.779"/>
</g>
<!-- Node43&#45;&gt;Node43 -->
<g id="edge5" class="edge"><title>Node43&#45;&gt;Node43</title>
<path fill="none" stroke="midnightblue" d="M25.5556,-262.766C26.3366,-267.497 29.6514,-271 35.5,-271 45.0977,-271 47.872,-261.565 43.823,-252.757"/>
<polygon fill="midnightblue" stroke="midnightblue" points="29.0328,-263.188 27.177,-252.757 22.1229,-262.069 29.0328,-263.188"/>
</g>
<!-- Node43&#45;&gt;Node44 -->
<g id="edge12" class="edge"><title>Node43&#45;&gt;Node44</title>
<path fill="none" stroke="midnightblue" d="M57.6817,-258.327C66.9069,-264.348 78.0891,-270.808 89,-275 241.547,-333.602 441.807,-334.368 516.868,-332.261"/>
<polygon fill="midnightblue" stroke="midnightblue" points="59.4285,-255.282 49.1914,-252.552 55.4916,-261.07 59.4285,-255.282"/>
</g>
<!-- Node45 -->
<g id="node7" class="node"><title>Node45</title>
<g id="a_node7"><a xlink:href="interface_system_1_1_collections_1_1_generic_1_1_i_collection.html" target="_top" xlink:title="Defines methods to manipulate generic collections.">
<polygon fill="none" stroke="black" points="517,-189.5 517,-208.5 579,-208.5 579,-189.5 517,-189.5"/>
<text text-anchor="middle" x="548" y="-196.5" font-family="Helvetica,sans-Serif" font-size="10.00">ICollection</text>
</a>
</g>
</g>
<!-- Node43&#45;&gt;Node45 -->
<g id="edge17" class="edge"><title>Node43&#45;&gt;Node45</title>
<path fill="none" stroke="midnightblue" d="M53.5479,-226.124C67.0537,-214.014 87.0753,-198.698 108,-192 255.008,-144.943 444.129,-176.712 516.756,-192.045"/>
<polygon fill="midnightblue" stroke="midnightblue" points="50.9504,-223.76 46.0308,-233.144 55.7282,-228.876 50.9504,-223.76"/>
</g>
<!-- Node47 -->
<g id="node9" class="node"><title>Node47</title>
<g id="a_node9"><a xlink:href="interface_system_1_1_collections_1_1_generic_1_1_i_enumerable.html" target="_top" xlink:title="Exposes the enumerator, which supports a simple iteration over a collection of a specified type....">
<polygon fill="none" stroke="black" points="108,-202 108,-232 249,-232 249,-202 108,-202"/>
<text text-anchor="start" x="116" y="-220" font-family="Helvetica,sans-Serif" font-size="10.00">System.Collections.Generic.</text>
<text text-anchor="middle" x="178.5" y="-209" font-family="Helvetica,sans-Serif" font-size="10.00">IEnumerable&lt; out out T &gt;</text>
</a>
</g>
</g>
<!-- Node43&#45;&gt;Node47 -->
<g id="edge16" class="edge"><title>Node43&#45;&gt;Node47</title>
<path fill="none" stroke="midnightblue" d="M81.3329,-234.733C89.7774,-233.176 98.791,-231.514 107.787,-229.855"/>
<polygon fill="midnightblue" stroke="midnightblue" points="80.5534,-231.318 71.3539,-236.573 81.8229,-238.202 80.5534,-231.318"/>
</g>
<!-- Node43&#45;&gt;Node48 -->
<g id="edge21" class="edge"><title>Node43&#45;&gt;Node48</title>
<path fill="none" stroke="midnightblue" d="M47.1189,-224.741C59.1888,-205.947 80.7928,-177.678 108,-165 236.616,-105.07 410.082,-122.196 495.33,-136.042"/>
<polygon fill="midnightblue" stroke="midnightblue" points="44.0917,-222.982 41.8367,-233.334 50.0552,-226.648 44.0917,-222.982"/>
</g>
<!-- Node44&#45;&gt;Node39 -->
<g id="edge9" class="edge"><title>Node44&#45;&gt;Node39</title>
<path fill="none" stroke="midnightblue" d="M589.032,-318.353C601.572,-313.675 615.207,-307.821 627,-301 654.433,-285.131 682.186,-260.914 698.868,-245.27"/>
<polygon fill="midnightblue" stroke="midnightblue" points="587.502,-315.183 579.266,-321.848 589.861,-321.773 587.502,-315.183"/>
</g>
<!-- Node45&#45;&gt;Node39 -->
<g id="edge13" class="edge"><title>Node45&#45;&gt;Node39</title>
<path fill="none" stroke="midnightblue" d="M589.317,-206.552C606.032,-209.683 625.914,-213.407 644.856,-216.955"/>
<polygon fill="midnightblue" stroke="midnightblue" points="589.829,-203.087 579.355,-204.686 588.54,-209.967 589.829,-203.087"/>
</g>
<!-- Node46 -->
<g id="node8" class="node"><title>Node46</title>
<g id="a_node8"><a xlink:href="interface_system_1_1_collections_1_1_generic_1_1_i_enumerable.html" target="_top" xlink:title=" ">
<polygon fill="none" stroke="black" points="334.5,-201.5 334.5,-220.5 428.5,-220.5 428.5,-201.5 334.5,-201.5"/>
<text text-anchor="middle" x="381.5" y="-208.5" font-family="Helvetica,sans-Serif" font-size="10.00">IEnumerable&lt; T &gt;</text>
</a>
</g>
</g>
<!-- Node46&#45;&gt;Node45 -->
<g id="edge14" class="edge"><title>Node46&#45;&gt;Node45</title>
<path fill="none" stroke="midnightblue" d="M438.909,-206.885C464.977,-204.983 494.899,-202.801 516.642,-201.215"/>
<polygon fill="midnightblue" stroke="midnightblue" points="438.479,-203.407 428.76,-207.625 438.988,-210.388 438.479,-203.407"/>
</g>
<!-- Node47&#45;&gt;Node46 -->
<g id="edge15" class="edge"><title>Node47&#45;&gt;Node46</title>
<path fill="none" stroke="orange" stroke-dasharray="5,2" d="M259.252,-214.619C284.691,-213.86 311.983,-213.045 334.221,-212.381"/>
<polygon fill="orange" stroke="orange" points="259.127,-211.121 249.236,-214.918 259.336,-218.118 259.127,-211.121"/>
<text text-anchor="middle" x="280.5" y="-218" font-family="Helvetica,sans-Serif" font-size="10.00"> &lt; T &gt;</text>
</g>
<!-- Node48&#45;&gt;Node39 -->
<g id="edge18" class="edge"><title>Node48&#45;&gt;Node39</title>
<path fill="none" stroke="midnightblue" d="M587.82,-165.703C617.494,-180.765 657.784,-201.214 684.89,-214.971"/>
<polygon fill="midnightblue" stroke="midnightblue" points="589.089,-162.422 578.588,-161.018 585.921,-168.665 589.089,-162.422"/>
</g>
<!-- Node49 -->
<g id="node11" class="node"><title>Node49</title>
<g id="a_node11"><a xlink:title=" ">
<polygon fill="none" stroke="#bfbfbf" points="322,-65.5 322,-106.5 441,-106.5 441,-65.5 322,-65.5"/>
<text text-anchor="start" x="330" y="-94.5" font-family="Helvetica,sans-Serif" font-size="10.00">IReadOnlyCollection</text>
<text text-anchor="start" x="330" y="-83.5" font-family="Helvetica,sans-Serif" font-size="10.00">&lt; KeyValuePair&lt; TKey,</text>
<text text-anchor="middle" x="381.5" y="-72.5" font-family="Helvetica,sans-Serif" font-size="10.00"> TValue &gt;&gt;</text>
</a>
</g>
</g>
<!-- Node49&#45;&gt;Node39 -->
<g id="edge22" class="edge"><title>Node49&#45;&gt;Node39</title>
<path fill="none" stroke="midnightblue" d="M451.2,-85.5066C497.767,-87.7708 559.433,-95.9934 608,-121 651.516,-143.406 687.755,-190.352 704.51,-214.668"/>
<polygon fill="midnightblue" stroke="midnightblue" points="451.339,-82.0095 441.205,-85.1002 451.055,-89.0037 451.339,-82.0095"/>
</g>
<!-- Node49&#45;&gt;Node48 -->
<g id="edge19" class="edge"><title>Node49&#45;&gt;Node48</title>
<path fill="none" stroke="midnightblue" d="M448.769,-110.171C468.073,-117.212 488.598,-124.698 505.868,-130.997"/>
<polygon fill="midnightblue" stroke="midnightblue" points="449.706,-106.787 439.112,-106.649 447.307,-113.363 449.706,-106.787"/>
</g>
<!-- Node50 -->
<g id="node12" class="node"><title>Node50</title>
<g id="a_node12"><a xlink:href="interface_system_1_1_runtime_1_1_serialization_1_1_i_serializable.html" target="_top" xlink:title="Allows an object to control its own serialization and deserialization.">
<polygon fill="none" stroke="black" points="513.5,-38.5 513.5,-57.5 582.5,-57.5 582.5,-38.5 513.5,-38.5"/>
<text text-anchor="middle" x="548" y="-45.5" font-family="Helvetica,sans-Serif" font-size="10.00">ISerializable</text>
</a>
</g>
</g>
<!-- Node50&#45;&gt;Node39 -->
<g id="edge23" class="edge"><title>Node50&#45;&gt;Node39</title>
<path fill="none" stroke="midnightblue" d="M592.748,-55.1625C604.781,-58.7244 617.202,-64.0482 627,-72 674.963,-110.926 700.924,-183.507 710.342,-214.894"/>
<polygon fill="midnightblue" stroke="midnightblue" points="593.357,-51.7043 582.797,-52.566 591.589,-58.4775 593.357,-51.7043"/>
</g>
<!-- Node51 -->
<g id="node13" class="node"><title>Node51</title>
<g id="a_node13"><a xlink:href="interface_system_1_1_runtime_1_1_serialization_1_1_i_deserialization_callback.html" target="_top" xlink:title="Indicates that a class is to be notified when deserialization of the entire object graph has been com...">
<polygon fill="none" stroke="black" points="488,-0.5 488,-19.5 608,-19.5 608,-0.5 488,-0.5"/>
<text text-anchor="middle" x="548" y="-7.5" font-family="Helvetica,sans-Serif" font-size="10.00">IDeserializationCallback</text>
</a>
</g>
</g>
<!-- Node51&#45;&gt;Node39 -->
<g id="edge24" class="edge"><title>Node51&#45;&gt;Node39</title>
<path fill="none" stroke="midnightblue" d="M601.525,-24.3566C603.805,-25.7631 605.979,-27.3065 608,-29 669.745,-80.7489 700.712,-177.66 710.745,-214.895"/>
<polygon fill="midnightblue" stroke="midnightblue" points="602.798,-21.0742 592.309,-19.5824 599.578,-27.2898 602.798,-21.0742"/>
</g>
</g>
</svg>
