<?xml version="1.0" encoding="UTF-8" standalone="no"?>
<!DOCTYPE svg PUBLIC "-//W3C//DTD SVG 1.1//EN"
 "http://www.w3.org/Graphics/SVG/1.1/DTD/svg11.dtd">
<!-- Generated by graphviz version 2.38.0 (20140413.2041)
 -->
<!-- Title: System.Collections.ObjectModel.ReadOnlyCollection&lt; T &gt; Pages: 1 -->
<!--zoomable 294 -->
<svg id="main" version="1.1" xmlns="http://www.w3.org/2000/svg" xmlns:xlink="http://www.w3.org/1999/xlink" xml:space="preserve" onload="init(evt)">
<style type="text/css"><![CDATA[
.edge:hover path { stroke: red; }
.edge:hover polygon { stroke: red; fill: red; }
]]></style>
<script type="text/javascript"><![CDATA[
var edges = document.getElementsByTagName('g');
if (edges && edges.length) {
  for (var i=0;i<edges.length;i++) {
    if (edges[i].id.substr(0,4)=='edge') {
      edges[i].setAttribute('class','edge');
    }
  }
}
]]></script>
        <defs>
                <circle id="rim" cx="0" cy="0" r="7"/>
                <circle id="rim2" cx="0" cy="0" r="3.5"/>
                <g id="zoomPlus">
                        <use xlink:href="#rim" fill="#404040">
                                <set attributeName="fill" to="#808080" begin="zoomplus.mouseover" end="zoomplus.mouseout"/>
                        </use>
                        <path d="M-4,0h8M0,-4v8" fill="none" stroke="white" stroke-width="1.5" pointer-events="none"/>
                </g>
                <g id="zoomMin">
                        <use xlink:href="#rim" fill="#404040">
                                <set attributeName="fill" to="#808080" begin="zoomminus.mouseover" end="zoomminus.mouseout"/>
                        </use>
                        <path d="M-4,0h8" fill="none" stroke="white" stroke-width="1.5" pointer-events="none"/>
                </g>
                <g id="dirArrow">
                        <path fill="none" stroke="white" stroke-width="1.5" d="M0,-3.0v7 M-2.5,-0.5L0,-3.0L2.5,-0.5"/>
                </g>
               <g id="resetDef">
                       <use xlink:href="#rim2" fill="#404040">
                               <set attributeName="fill" to="#808080" begin="reset.mouseover" end="reset.mouseout"/>
                       </use>
               </g>
        </defs>

<script type="text/javascript">
var viewWidth = 532;
var viewHeight = 294;
var sectionId = 'dynsection-1';
</script>
<script xlink:href="svgpan.js"/>
<svg id="graph" class="graph">
<g id="viewport">
<title>System.Collections.ObjectModel.ReadOnlyCollection&lt; T &gt;</title>
<!-- Node28 -->
<g id="node1" class="node"><title>Node28</title>
<g id="a_node1"><a xlink:title="Provides the base class for a generic read&#45;only collection.">
<polygon fill="#bfbfbf" stroke="black" points="369,-128 369,-158 524,-158 524,-128 369,-128"/>
<text text-anchor="start" x="377" y="-146" font-family="Helvetica,sans-Serif" font-size="10.00">System.Collections.Object</text>
<text text-anchor="middle" x="446.5" y="-135" font-family="Helvetica,sans-Serif" font-size="10.00">Model.ReadOnlyCollection&lt; T &gt;</text>
</a>
</g>
</g>
<!-- Node29 -->
<g id="node2" class="node"><title>Node29</title>
<g id="a_node2"><a xlink:href="interface_system_1_1_collections_1_1_i_list.html" target="_top" xlink:title=" ">
<polygon fill="none" stroke="red" points="240,-266.5 240,-285.5 298,-285.5 298,-266.5 240,-266.5"/>
<text text-anchor="middle" x="269" y="-273.5" font-family="Helvetica,sans-Serif" font-size="10.00">IList&lt; T &gt;</text>
</a>
</g>
</g>
<!-- Node29&#45;&gt;Node28 -->
<g id="edge1" class="edge"><title>Node29&#45;&gt;Node28</title>
<path fill="none" stroke="midnightblue" d="M308.074,-267.849C316.624,-265.127 325.405,-261.578 333,-257 377.056,-230.443 416.189,-182.735 434.506,-158.314"/>
<polygon fill="midnightblue" stroke="midnightblue" points="306.872,-264.553 298.228,-270.678 308.805,-271.281 306.872,-264.553"/>
</g>
<!-- Node33 -->
<g id="node3" class="node"><title>Node33</title>
<g id="a_node3"><a xlink:href="interface_system_1_1_collections_1_1_i_collection.html" target="_top" xlink:title=" ">
<polygon fill="none" stroke="red" points="226.5,-228.5 226.5,-247.5 311.5,-247.5 311.5,-228.5 226.5,-228.5"/>
<text text-anchor="middle" x="269" y="-235.5" font-family="Helvetica,sans-Serif" font-size="10.00">ICollection&lt; T &gt;</text>
</a>
</g>
</g>
<!-- Node33&#45;&gt;Node28 -->
<g id="edge2" class="edge"><title>Node33&#45;&gt;Node28</title>
<path fill="none" stroke="midnightblue" d="M318.146,-225.136C323.244,-223.287 328.284,-221.241 333,-219 368.554,-202.109 405.596,-174.913 427.054,-158.046"/>
<polygon fill="midnightblue" stroke="midnightblue" points="316.693,-221.933 308.34,-228.451 318.934,-228.564 316.693,-221.933"/>
</g>
<!-- Node35 -->
<g id="node4" class="node"><title>Node35</title>
<g id="a_node4"><a xlink:href="interface_system_1_1_collections_1_1_i_enumerable.html" target="_top" xlink:title=" ">
<polygon fill="none" stroke="red" points="222,-190.5 222,-209.5 316,-209.5 316,-190.5 222,-190.5"/>
<text text-anchor="middle" x="269" y="-197.5" font-family="Helvetica,sans-Serif" font-size="10.00">IEnumerable&lt; T &gt;</text>
</a>
</g>
</g>
<!-- Node35&#45;&gt;Node28 -->
<g id="edge3" class="edge"><title>Node35&#45;&gt;Node28</title>
<path fill="none" stroke="midnightblue" d="M309.122,-187.294C335.756,-178.643 371.127,-167.155 399.172,-158.047"/>
<polygon fill="midnightblue" stroke="midnightblue" points="307.805,-184.042 299.375,-190.459 309.967,-190.699 307.805,-184.042"/>
</g>
<!-- Node32 -->
<g id="node5" class="node"><title>Node32</title>
<g id="a_node5"><a xlink:href="interface_system_1_1_collections_1_1_i_enumerable.html" target="_top" xlink:title="Exposes an enumerator, which supports a simple iteration over a non&#45;generic collection....">
<polygon fill="none" stroke="black" points="0,-114.5 0,-133.5 71,-133.5 71,-114.5 0,-114.5"/>
<text text-anchor="middle" x="35.5" y="-121.5" font-family="Helvetica,sans-Serif" font-size="10.00">IEnumerable</text>
</a>
</g>
</g>
<!-- Node32&#45;&gt;Node28 -->
<g id="edge4" class="edge"><title>Node32&#45;&gt;Node28</title>
<path fill="none" stroke="midnightblue" d="M80.9894,-133.85C89.5839,-135.465 98.5444,-136.95 107,-138 196.385,-149.096 300.057,-148.699 368.88,-146.593"/>
<polygon fill="midnightblue" stroke="midnightblue" points="81.6073,-130.405 71.1206,-131.914 80.2598,-137.274 81.6073,-130.405"/>
</g>
<!-- Node37 -->
<g id="node6" class="node"><title>Node37</title>
<g id="a_node6"><a xlink:href="interface_system_1_1_collections_1_1_i_list.html" target="_top" xlink:title="Represents a non&#45;generic collection of objects that can be individually accessed by index.">
<polygon fill="none" stroke="black" points="251.5,-114.5 251.5,-133.5 286.5,-133.5 286.5,-114.5 251.5,-114.5"/>
<text text-anchor="middle" x="269" y="-121.5" font-family="Helvetica,sans-Serif" font-size="10.00">IList</text>
</a>
</g>
</g>
<!-- Node32&#45;&gt;Node37 -->
<g id="edge8" class="edge"><title>Node32&#45;&gt;Node37</title>
<path fill="none" stroke="midnightblue" d="M81.4297,-124C133.383,-124 216.254,-124 251.388,-124"/>
<polygon fill="midnightblue" stroke="midnightblue" points="81.1579,-120.5 71.1579,-124 81.1579,-127.5 81.1579,-120.5"/>
</g>
<!-- Node31 -->
<g id="node7" class="node"><title>Node31</title>
<g id="a_node7"><a xlink:href="interface_system_1_1_collections_1_1_i_collection.html" target="_top" xlink:title="Defines size, enumerators, and synchronization methods for all nongeneric collections.">
<polygon fill="none" stroke="black" points="107,-76.5 107,-95.5 169,-95.5 169,-76.5 107,-76.5"/>
<text text-anchor="middle" x="138" y="-83.5" font-family="Helvetica,sans-Serif" font-size="10.00">ICollection</text>
</a>
</g>
</g>
<!-- Node32&#45;&gt;Node31 -->
<g id="edge7" class="edge"><title>Node32&#45;&gt;Node31</title>
<path fill="none" stroke="midnightblue" d="M71.5813,-110.735C84.7751,-105.747 99.5085,-100.176 111.648,-95.5859"/>
<polygon fill="midnightblue" stroke="midnightblue" points="69.9762,-107.6 61.8604,-114.411 72.452,-114.148 69.9762,-107.6"/>
</g>
<!-- Node37&#45;&gt;Node28 -->
<g id="edge5" class="edge"><title>Node37&#45;&gt;Node28</title>
<path fill="none" stroke="midnightblue" d="M296.635,-126.884C315.938,-128.973 343.078,-131.912 368.907,-134.708"/>
<polygon fill="midnightblue" stroke="midnightblue" points="296.829,-123.384 286.511,-125.787 296.076,-130.344 296.829,-123.384"/>
</g>
<!-- Node31&#45;&gt;Node28 -->
<g id="edge9" class="edge"><title>Node31&#45;&gt;Node28</title>
<path fill="none" stroke="midnightblue" d="M179.278,-87.2698C218.805,-89.1408 280.608,-93.7407 333,-105 358.597,-110.501 386.484,-119.896 408.09,-127.968"/>
<polygon fill="midnightblue" stroke="midnightblue" points="179.381,-83.7711 169.238,-86.8308 179.076,-90.7644 179.381,-83.7711"/>
</g>
<!-- Node31&#45;&gt;Node37 -->
<g id="edge6" class="edge"><title>Node31&#45;&gt;Node37</title>
<path fill="none" stroke="midnightblue" d="M178.953,-97.7692C203.306,-104.943 233.145,-113.733 251.354,-119.097"/>
<polygon fill="midnightblue" stroke="midnightblue" points="179.826,-94.3777 169.245,-94.9093 177.848,-101.092 179.826,-94.3777"/>
</g>
<!-- Node38 -->
<g id="node8" class="node"><title>Node38</title>
<g id="a_node8"><a xlink:href="interface_system_1_1_collections_1_1_generic_1_1_i_read_only_list.html" target="_top" xlink:title=" ">
<polygon fill="none" stroke="red" points="218.5,-38.5 218.5,-57.5 319.5,-57.5 319.5,-38.5 218.5,-38.5"/>
<text text-anchor="middle" x="269" y="-45.5" font-family="Helvetica,sans-Serif" font-size="10.00">IReadOnlyList&lt; T &gt;</text>
</a>
</g>
</g>
<!-- Node38&#45;&gt;Node28 -->
<g id="edge10" class="edge"><title>Node38&#45;&gt;Node28</title>
<path fill="none" stroke="midnightblue" d="M308.254,-61.1743C316.547,-64.4153 325.174,-68.0887 333,-72 366.261,-88.6236 402.182,-112.42 424.262,-127.792"/>
<polygon fill="midnightblue" stroke="midnightblue" points="309.332,-57.8401 298.74,-57.58 306.858,-64.3883 309.332,-57.8401"/>
</g>
<!-- Node40 -->
<g id="node9" class="node"><title>Node40</title>
<g id="a_node9"><a xlink:href="interface_system_1_1_collections_1_1_generic_1_1_i_read_only_collection.html" target="_top" xlink:title=" ">
<polygon fill="none" stroke="red" points="205,-0.5 205,-19.5 333,-19.5 333,-0.5 205,-0.5"/>
<text text-anchor="middle" x="269" y="-7.5" font-family="Helvetica,sans-Serif" font-size="10.00">IReadOnlyCollection&lt; T &gt;</text>
</a>
</g>
</g>
<!-- Node40&#45;&gt;Node28 -->
<g id="edge11" class="edge"><title>Node40&#45;&gt;Node28</title>
<path fill="none" stroke="midnightblue" d="M321.627,-23.1949C325.582,-24.9157 329.423,-26.8437 333,-29 377.056,-55.5566 416.189,-103.265 434.506,-127.686"/>
<polygon fill="midnightblue" stroke="midnightblue" points="322.846,-19.9138 312.258,-19.5455 320.305,-26.4364 322.846,-19.9138"/>
</g>
</g>
</svg>
        <g id="navigator" transform="translate(0 0)" fill="#404254">
                <rect fill="#f2f5e9" fill-opacity="0.5" stroke="#606060" stroke-width=".5" x="0" y="0" width="60" height="60"/>
                <use id="zoomplus" xlink:href="#zoomPlus" x="17" y="9" onmousedown="handleZoom(evt,'in')"/>
                <use id="zoomminus" xlink:href="#zoomMin" x="42" y="9" onmousedown="handleZoom(evt,'out')"/>
                <use id="reset" xlink:href="#resetDef" x="30" y="36" onmousedown="handleReset()"/>
                <g id="arrowUp" xlink:href="#dirArrow" transform="translate(30 24)" onmousedown="handlePan(0,-1)">
                  <use xlink:href="#rim" fill="#404040">
                        <set attributeName="fill" to="#808080" begin="arrowUp.mouseover" end="arrowUp.mouseout"/>
                  </use>
                  <path fill="none" stroke="white" stroke-width="1.5" d="M0,-3.0v7 M-2.5,-0.5L0,-3.0L2.5,-0.5"/>
                </g>
                <g id="arrowRight" xlink:href="#dirArrow" transform="rotate(90) translate(36 -43)" onmousedown="handlePan(1,0)">
                  <use xlink:href="#rim" fill="#404040">
                        <set attributeName="fill" to="#808080" begin="arrowRight.mouseover" end="arrowRight.mouseout"/>
                  </use>
                  <path fill="none" stroke="white" stroke-width="1.5" d="M0,-3.0v7 M-2.5,-0.5L0,-3.0L2.5,-0.5"/>
                </g>
                <g id="arrowDown" xlink:href="#dirArrow" transform="rotate(180) translate(-30 -48)" onmousedown="handlePan(0,1)">
                  <use xlink:href="#rim" fill="#404040">
                        <set attributeName="fill" to="#808080" begin="arrowDown.mouseover" end="arrowDown.mouseout"/>
                  </use>
                  <path fill="none" stroke="white" stroke-width="1.5" d="M0,-3.0v7 M-2.5,-0.5L0,-3.0L2.5,-0.5"/>
                </g>
                <g id="arrowLeft" xlink:href="#dirArrow" transform="rotate(270) translate(-36 17)" onmousedown="handlePan(-1,0)">
                  <use xlink:href="#rim" fill="#404040">
                        <set attributeName="fill" to="#808080" begin="arrowLeft.mouseover" end="arrowLeft.mouseout"/>
                  </use>
                  <path fill="none" stroke="white" stroke-width="1.5" d="M0,-3.0v7 M-2.5,-0.5L0,-3.0L2.5,-0.5"/>
                </g>
        </g>
        <svg viewBox="0 0 15 15" width="100%" height="30px" preserveAspectRatio="xMaxYMin meet">
         <g id="arrow_out" transform="scale(0.3 0.3)">
          <a xlink:href="class_system_1_1_collections_1_1_object_model_1_1_read_only_collection__coll__graph_org.svg" target="_base">
           <rect id="button" ry="5" rx="5" y="6" x="6" height="38" width="38"
                fill="#f2f5e9" fill-opacity="0.5" stroke="#606060" stroke-width="1.0"/>
           <path id="arrow"
             d="M 11.500037,31.436501 C 11.940474,20.09759 22.043105,11.32322 32.158766,21.979434 L 37.068811,17.246167 C 37.068811,17.246167 37.088388,32 37.088388,32 L 22.160133,31.978069 C 22.160133,31.978069 26.997745,27.140456 26.997745,27.140456 C 18.528582,18.264221 13.291696,25.230495 11.500037,31.436501 z"
             style="fill:#404040;"/>
          </a>
         </g>
        </svg>
</svg>
