<?xml version="1.0" encoding="UTF-8" standalone="no"?>
<!DOCTYPE svg PUBLIC "-//W3C//DTD SVG 1.1//EN"
 "http://www.w3.org/Graphics/SVG/1.1/DTD/svg11.dtd">
<!-- Generated by graphviz version 2.38.0 (20140413.2041)
 -->
<!-- Title: System.CodeDom.CodeMemberProperty Pages: 1 -->
<svg width="438pt" height="127pt"
 viewBox="0.00 0.00 438.00 126.50" xmlns="http://www.w3.org/2000/svg" xmlns:xlink="http://www.w3.org/1999/xlink">
<g id="graph0" class="graph" transform="scale(1 1) rotate(0) translate(4 122.5)">
<title>System.CodeDom.CodeMemberProperty</title>
<!-- Node3 -->
<g id="node1" class="node"><title>Node3</title>
<g id="a_node1"><a xlink:title="Represents a declaration for a property of a type.">
<polygon fill="#bfbfbf" stroke="black" points="273,-49.5 273,-79.5 430,-79.5 430,-49.5 273,-49.5"/>
<text text-anchor="start" x="281" y="-67.5" font-family="Helvetica,sans-Serif" font-size="10.00">System.CodeDom.CodeMember</text>
<text text-anchor="middle" x="351.5" y="-56.5" font-family="Helvetica,sans-Serif" font-size="10.00">Property</text>
</a>
</g>
</g>
<!-- Node4 -->
<g id="node2" class="node"><title>Node4</title>
<g id="a_node2"><a xlink:href="class_system_1_1_code_dom_1_1_code_type_member.html" target="_top" xlink:title="Provides a base class for a member of a type. Type members include fields, methods,...">
<polygon fill="none" stroke="red" points="36,-99 36,-118 131,-118 131,-99 36,-99"/>
<text text-anchor="middle" x="83.5" y="-106" font-family="Helvetica,sans-Serif" font-size="10.00">CodeTypeMember</text>
</a>
</g>
</g>
<!-- Node4&#45;&gt;Node3 -->
<g id="edge1" class="edge"><title>Node4&#45;&gt;Node3</title>
<path fill="none" stroke="midnightblue" d="M141.102,-99.1372C179.475,-92.7898 230.687,-84.3188 272.859,-77.3429"/>
<polygon fill="midnightblue" stroke="midnightblue" points="140.433,-95.7003 131.138,-100.785 141.575,-102.606 140.433,-95.7003"/>
</g>
<!-- Node12 -->
<g id="node3" class="node"><title>Node12</title>
<g id="a_node3"><a xlink:href="class_system_1_1_code_dom_1_1_code_parameter_declaration_expression_collection.html" target="_top" xlink:title="Represents a collection of T:System.CodeDom.CodeParameterDeclarationExpression objects.">
<polygon fill="none" stroke="red" points="0,-49.5 0,-79.5 167,-79.5 167,-49.5 0,-49.5"/>
<text text-anchor="start" x="8" y="-67.5" font-family="Helvetica,sans-Serif" font-size="10.00">System.CodeDom.CodeParameter</text>
<text text-anchor="middle" x="83.5" y="-56.5" font-family="Helvetica,sans-Serif" font-size="10.00">DeclarationExpressionCollection</text>
</a>
</g>
</g>
<!-- Node12&#45;&gt;Node3 -->
<g id="edge2" class="edge"><title>Node12&#45;&gt;Node3</title>
<path fill="none" stroke="#9a32cd" stroke-dasharray="5,2" d="M177.215,-64.5C208.427,-64.5 242.908,-64.5 272.838,-64.5"/>
<polygon fill="#9a32cd" stroke="#9a32cd" points="177.206,-61.0001 167.206,-64.5 177.206,-68.0001 177.206,-61.0001"/>
<text text-anchor="middle" x="220" y="-67.5" font-family="Helvetica,sans-Serif" font-size="10.00"> Parameters</text>
</g>
<!-- Node13 -->
<g id="node4" class="node"><title>Node13</title>
<g id="a_node4"><a xlink:href="class_system_1_1_code_dom_1_1_code_statement_collection.html" target="_top" xlink:title="Represents a collection of T:System.CodeDom.CodeStatement objects.">
<polygon fill="none" stroke="red" points="0,-0.5 0,-30.5 167,-30.5 167,-0.5 0,-0.5"/>
<text text-anchor="start" x="8" y="-18.5" font-family="Helvetica,sans-Serif" font-size="10.00">System.CodeDom.CodeStatement</text>
<text text-anchor="middle" x="83.5" y="-7.5" font-family="Helvetica,sans-Serif" font-size="10.00">Collection</text>
</a>
</g>
</g>
<!-- Node13&#45;&gt;Node3 -->
<g id="edge3" class="edge"><title>Node13&#45;&gt;Node3</title>
<path fill="none" stroke="#9a32cd" stroke-dasharray="5,2" d="M177.223,-25.7513C202.557,-29.1648 229.932,-33.4198 255,-38.5 269.82,-41.5034 285.736,-45.5142 300.243,-49.485"/>
<polygon fill="#9a32cd" stroke="#9a32cd" points="177.625,-22.274 167.253,-24.4365 176.709,-29.2139 177.625,-22.274"/>
<text text-anchor="middle" x="220" y="-52.5" font-family="Helvetica,sans-Serif" font-size="10.00"> GetStatements</text>
<text text-anchor="middle" x="220" y="-41.5" font-family="Helvetica,sans-Serif" font-size="10.00">SetStatements</text>
</g>
</g>
</svg>
