<?xml version="1.0" encoding="UTF-8" standalone="no"?>
<!DOCTYPE svg PUBLIC "-//W3C//DTD SVG 1.1//EN"
 "http://www.w3.org/Graphics/SVG/1.1/DTD/svg11.dtd">
<!-- Generated by graphviz version 2.38.0 (20140413.2041)
 -->
<!-- Title: System.Collections.Specialized.OrderedDictionary Pages: 1 -->
<svg width="810pt" height="294pt"
 viewBox="0.00 0.00 810.00 294.01" xmlns="http://www.w3.org/2000/svg" xmlns:xlink="http://www.w3.org/1999/xlink">
<g id="graph0" class="graph" transform="scale(1 1) rotate(0) translate(4 290.007)">
<title>System.Collections.Specialized.OrderedDictionary</title>
<!-- Node7 -->
<g id="node1" class="node"><title>Node7</title>
<g id="a_node1"><a xlink:title="Represents a collection of key/value pairs that are accessible by the key or index.">
<polygon fill="#bfbfbf" stroke="black" points="644,-103.007 644,-133.007 802,-133.007 802,-103.007 644,-103.007"/>
<text text-anchor="start" x="652" y="-121.007" font-family="Helvetica,sans-Serif" font-size="10.00">System.Collections.Specialized.</text>
<text text-anchor="middle" x="723" y="-110.007" font-family="Helvetica,sans-Serif" font-size="10.00">OrderedDictionary</text>
</a>
</g>
</g>
<!-- Node8 -->
<g id="node2" class="node"><title>Node8</title>
<g id="a_node2"><a xlink:href="interface_system_1_1_collections_1_1_specialized_1_1_i_ordered_dictionary.html" target="_top" xlink:title="Represents an indexed collection of key/value pairs.">
<polygon fill="none" stroke="black" points="498.5,-209.507 498.5,-228.507 595.5,-228.507 595.5,-209.507 498.5,-209.507"/>
<text text-anchor="middle" x="547" y="-216.507" font-family="Helvetica,sans-Serif" font-size="10.00">IOrderedDictionary</text>
</a>
</g>
</g>
<!-- Node8&#45;&gt;Node7 -->
<g id="edge1" class="edge"><title>Node8&#45;&gt;Node7</title>
<path fill="none" stroke="midnightblue" d="M573.327,-204.305C606.104,-185.279 662.922,-152.299 696.017,-133.089"/>
<polygon fill="midnightblue" stroke="midnightblue" points="571.261,-201.458 564.369,-209.505 574.775,-207.512 571.261,-201.458"/>
</g>
<!-- Node9 -->
<g id="node3" class="node"><title>Node9</title>
<g id="a_node3"><a xlink:href="interface_system_1_1_collections_1_1_i_dictionary.html" target="_top" xlink:title="Represents a nongeneric collection of key/value pairs.">
<polygon fill="none" stroke="black" points="355,-266.507 355,-285.507 417,-285.507 417,-266.507 355,-266.507"/>
<text text-anchor="middle" x="386" y="-273.507" font-family="Helvetica,sans-Serif" font-size="10.00">IDictionary</text>
</a>
</g>
</g>
<!-- Node9&#45;&gt;Node7 -->
<g id="edge8" class="edge"><title>Node9&#45;&gt;Node7</title>
<path fill="none" stroke="midnightblue" d="M427.346,-276.751C473.538,-275.927 550.147,-269.319 607,-238.007 654.518,-211.836 694.264,-159.387 712.027,-133.37"/>
<polygon fill="midnightblue" stroke="midnightblue" points="427.095,-273.253 417.128,-276.848 427.161,-280.253 427.095,-273.253"/>
</g>
<!-- Node9&#45;&gt;Node8 -->
<g id="edge2" class="edge"><title>Node9&#45;&gt;Node8</title>
<path fill="none" stroke="midnightblue" d="M423.064,-263.078C452.319,-252.59 492.899,-238.043 519.3,-228.578"/>
<polygon fill="midnightblue" stroke="midnightblue" points="421.845,-259.797 413.613,-266.466 424.208,-266.386 421.845,-259.797"/>
</g>
<!-- Node10 -->
<g id="node4" class="node"><title>Node10</title>
<g id="a_node4"><a xlink:href="interface_system_1_1_collections_1_1_i_collection.html" target="_top" xlink:title="Defines size, enumerators, and synchronization methods for all nongeneric collections.">
<polygon fill="none" stroke="black" points="108,-216.507 108,-235.507 170,-235.507 170,-216.507 108,-216.507"/>
<text text-anchor="middle" x="139" y="-223.507" font-family="Helvetica,sans-Serif" font-size="10.00">ICollection</text>
</a>
</g>
</g>
<!-- Node10&#45;&gt;Node7 -->
<g id="edge9" class="edge"><title>Node10&#45;&gt;Node7</title>
<path fill="none" stroke="midnightblue" d="M180.187,-218.549C275.811,-200.805 518.25,-155.816 643.866,-132.506"/>
<polygon fill="midnightblue" stroke="midnightblue" points="179.259,-215.162 170.065,-220.428 180.536,-222.044 179.259,-215.162"/>
</g>
<!-- Node10&#45;&gt;Node8 -->
<g id="edge6" class="edge"><title>Node10&#45;&gt;Node8</title>
<path fill="none" stroke="midnightblue" d="M180.218,-225.313C255.523,-224.015 417.461,-221.223 498.2,-219.831"/>
<polygon fill="midnightblue" stroke="midnightblue" points="180.122,-221.814 170.184,-225.486 180.243,-228.813 180.122,-221.814"/>
</g>
<!-- Node10&#45;&gt;Node9 -->
<g id="edge3" class="edge"><title>Node10&#45;&gt;Node9</title>
<path fill="none" stroke="midnightblue" d="M174.377,-238.991C178.921,-240.469 183.547,-241.855 188,-243.007 246.248,-258.077 316.03,-267.878 354.956,-272.629"/>
<polygon fill="midnightblue" stroke="midnightblue" points="175.252,-235.591 164.657,-235.667 172.986,-242.215 175.252,-235.591"/>
</g>
<!-- Node11 -->
<g id="node5" class="node"><title>Node11</title>
<g id="a_node5"><a xlink:href="interface_system_1_1_collections_1_1_i_enumerable.html" target="_top" xlink:title="Exposes an enumerator, which supports a simple iteration over a non&#45;generic collection....">
<polygon fill="none" stroke="black" points="0,-172.507 0,-191.507 71,-191.507 71,-172.507 0,-172.507"/>
<text text-anchor="middle" x="35.5" y="-179.507" font-family="Helvetica,sans-Serif" font-size="10.00">IEnumerable</text>
</a>
</g>
</g>
<!-- Node11&#45;&gt;Node7 -->
<g id="edge10" class="edge"><title>Node11&#45;&gt;Node7</title>
<path fill="none" stroke="midnightblue" d="M51.5426,-164.814C69.8852,-145.857 102.82,-118.007 138,-118.007 138,-118.007 138,-118.007 548,-118.007 579.266,-118.007 613.691,-118.007 643.611,-118.007"/>
<polygon fill="midnightblue" stroke="midnightblue" points="48.8456,-162.575 44.6108,-172.287 53.9776,-167.335 48.8456,-162.575"/>
</g>
<!-- Node11&#45;&gt;Node8 -->
<g id="edge7" class="edge"><title>Node11&#45;&gt;Node8</title>
<path fill="none" stroke="midnightblue" d="M81.3229,-185.262C176.955,-192.207 400.253,-208.423 498.347,-215.546"/>
<polygon fill="midnightblue" stroke="midnightblue" points="81.3467,-181.754 71.1194,-184.521 80.8396,-188.736 81.3467,-181.754"/>
</g>
<!-- Node11&#45;&gt;Node9 -->
<g id="edge5" class="edge"><title>Node11&#45;&gt;Node9</title>
<path fill="none" stroke="midnightblue" d="M51.8028,-199.201C65.298,-213.382 86.1667,-233.047 108,-245.007 188.425,-289.06 301.565,-284.88 354.917,-279.736"/>
<polygon fill="midnightblue" stroke="midnightblue" points="54.1174,-196.549 44.7575,-191.585 48.9788,-201.302 54.1174,-196.549"/>
</g>
<!-- Node11&#45;&gt;Node10 -->
<g id="edge4" class="edge"><title>Node11&#45;&gt;Node10</title>
<path fill="none" stroke="midnightblue" d="M67.8071,-195.578C83.4216,-202.347 101.929,-210.37 116.019,-216.478"/>
<polygon fill="midnightblue" stroke="midnightblue" points="69.0911,-192.32 58.524,-191.554 66.3069,-198.743 69.0911,-192.32"/>
</g>
<!-- Node14 -->
<g id="node8" class="node"><title>Node14</title>
<g id="a_node8"><a xlink:href="interface_system_1_1_collections_1_1_i_collection.html" target="_top" xlink:title="Defines size, enumerators, and synchronization methods for all nongeneric collections.">
<polygon fill="none" stroke="black" points="188,-13.5068 188,-32.5068 337,-32.5068 337,-13.5068 188,-13.5068"/>
<text text-anchor="middle" x="262.5" y="-20.5068" font-family="Helvetica,sans-Serif" font-size="10.00">System.Collections.ICollection</text>
</a>
</g>
</g>
<!-- Node11&#45;&gt;Node14 -->
<g id="edge14" class="edge"><title>Node11&#45;&gt;Node14</title>
<path fill="none" stroke="midnightblue" d="M45.3689,-163.292C54.3381,-146.023 69.6273,-120.614 89,-104.007 130.949,-68.0465 191.575,-44.5334 228.659,-32.5308"/>
<polygon fill="midnightblue" stroke="midnightblue" points="42.1622,-161.88 40.8352,-172.392 48.4275,-165.002 42.1622,-161.88"/>
</g>
<!-- Node12 -->
<g id="node6" class="node"><title>Node12</title>
<g id="a_node6"><a xlink:href="interface_system_1_1_runtime_1_1_serialization_1_1_i_serializable.html" target="_top" xlink:title="Allows an object to control its own serialization and deserialization.">
<polygon fill="none" stroke="black" points="512.5,-70.5068 512.5,-89.5068 581.5,-89.5068 581.5,-70.5068 512.5,-70.5068"/>
<text text-anchor="middle" x="547" y="-77.5068" font-family="Helvetica,sans-Serif" font-size="10.00">ISerializable</text>
</a>
</g>
</g>
<!-- Node12&#45;&gt;Node7 -->
<g id="edge11" class="edge"><title>Node12&#45;&gt;Node7</title>
<path fill="none" stroke="midnightblue" d="M591.519,-89.5109C610.189,-93.5883 632.455,-98.451 653.262,-102.995"/>
<polygon fill="midnightblue" stroke="midnightblue" points="592.065,-86.0478 581.549,-87.3335 590.572,-92.8866 592.065,-86.0478"/>
</g>
<!-- Node13 -->
<g id="node7" class="node"><title>Node13</title>
<g id="a_node7"><a xlink:href="interface_system_1_1_runtime_1_1_serialization_1_1_i_deserialization_callback.html" target="_top" xlink:title="Indicates that a class is to be notified when deserialization of the entire object graph has been com...">
<polygon fill="none" stroke="black" points="487,-32.5068 487,-51.5068 607,-51.5068 607,-32.5068 487,-32.5068"/>
<text text-anchor="middle" x="547" y="-39.5068" font-family="Helvetica,sans-Serif" font-size="10.00">IDeserializationCallback</text>
</a>
</g>
</g>
<!-- Node13&#45;&gt;Node7 -->
<g id="edge12" class="edge"><title>Node13&#45;&gt;Node7</title>
<path fill="none" stroke="midnightblue" d="M590.651,-54.9066C596.197,-56.8273 601.766,-58.8805 607,-61.0068 637.761,-73.5024 671.672,-90.7616 694.645,-103.006"/>
<polygon fill="midnightblue" stroke="midnightblue" points="591.364,-51.4546 580.77,-51.6052 589.146,-58.0939 591.364,-51.4546"/>
</g>
<!-- Node14&#45;&gt;Node7 -->
<g id="edge13" class="edge"><title>Node14&#45;&gt;Node7</title>
<path fill="none" stroke="#9a32cd" stroke-dasharray="5,2" d="M318.956,-11.8029C388.541,-0.232846 510.457,11.7125 607,-23.0068 651.351,-38.9565 690.765,-80.2437 709.846,-102.78"/>
<polygon fill="#9a32cd" stroke="#9a32cd" points="318.34,-8.35734 309.078,-13.5017 319.527,-15.2561 318.34,-8.35734"/>
<text text-anchor="middle" x="452" y="-15.0068" font-family="Helvetica,sans-Serif" font-size="10.00"> Values</text>
<text text-anchor="middle" x="452" y="-4.00676" font-family="Helvetica,sans-Serif" font-size="10.00">Keys</text>
</g>
</g>
</svg>
