<?xml version="1.0" encoding="UTF-8" standalone="no"?>
<!DOCTYPE svg PUBLIC "-//W3C//DTD SVG 1.1//EN"
 "http://www.w3.org/Graphics/SVG/1.1/DTD/svg11.dtd">
<!-- Generated by graphviz version 2.38.0 (20140413.2041)
 -->
<!-- Title: System.Security.Policy.Publisher Pages: 1 -->
<svg width="565pt" height="148pt"
 viewBox="0.00 0.00 565.00 148.00" xmlns="http://www.w3.org/2000/svg" xmlns:xlink="http://www.w3.org/1999/xlink">
<g id="graph0" class="graph" transform="scale(1 1) rotate(0) translate(4 144)">
<title>System.Security.Policy.Publisher</title>
<!-- Node3 -->
<g id="node1" class="node"><title>Node3</title>
<g id="a_node1"><a xlink:title="Provides the Authenticode X.509v3 digital signature of a code assembly as evidence for policy evaluat...">
<polygon fill="#bfbfbf" stroke="black" points="394,-82.5 394,-101.5 557,-101.5 557,-82.5 394,-82.5"/>
<text text-anchor="middle" x="475.5" y="-89.5" font-family="Helvetica,sans-Serif" font-size="10.00">System.Security.Policy.Publisher</text>
</a>
</g>
</g>
<!-- Node4 -->
<g id="node2" class="node"><title>Node4</title>
<g id="a_node2"><a xlink:href="class_system_1_1_security_1_1_policy_1_1_evidence_base.html" target="_top" xlink:title="Provides a base class from which all objects to be used as evidence must derive.">
<polygon fill="none" stroke="black" points="195,-120.5 195,-139.5 273,-139.5 273,-120.5 195,-120.5"/>
<text text-anchor="middle" x="234" y="-127.5" font-family="Helvetica,sans-Serif" font-size="10.00">EvidenceBase</text>
</a>
</g>
</g>
<!-- Node4&#45;&gt;Node3 -->
<g id="edge1" class="edge"><title>Node4&#45;&gt;Node3</title>
<path fill="none" stroke="midnightblue" d="M283.461,-122.311C321.27,-116.312 373.989,-107.948 414.47,-101.525"/>
<polygon fill="midnightblue" stroke="midnightblue" points="282.542,-118.913 273.214,-123.937 283.639,-125.826 282.542,-118.913"/>
</g>
<!-- Node5 -->
<g id="node3" class="node"><title>Node5</title>
<g id="a_node3"><a xlink:href="interface_system_1_1_security_1_1_policy_1_1_i_identity_permission_factory.html" target="_top" xlink:title="Defines the method that creates a new identity permission.">
<polygon fill="none" stroke="black" points="168,-82.5 168,-101.5 300,-101.5 300,-82.5 168,-82.5"/>
<text text-anchor="middle" x="234" y="-89.5" font-family="Helvetica,sans-Serif" font-size="10.00">IIdentityPermissionFactory</text>
</a>
</g>
</g>
<!-- Node5&#45;&gt;Node3 -->
<g id="edge2" class="edge"><title>Node5&#45;&gt;Node3</title>
<path fill="none" stroke="midnightblue" d="M310.162,-92C336.816,-92 366.909,-92 393.991,-92"/>
<polygon fill="midnightblue" stroke="midnightblue" points="310.128,-88.5001 300.128,-92 310.128,-95.5001 310.128,-88.5001"/>
</g>
<!-- Node6 -->
<g id="node4" class="node"><title>Node6</title>
<g id="a_node4"><a xlink:href="class_system_1_1_security_1_1_cryptography_1_1_x509_certificates_1_1_x509_certificate.html" target="_top" xlink:title="Provides methods that help you use X.509 v.3 certificates.">
<polygon fill="none" stroke="black" points="157,-33 157,-63 311,-63 311,-33 157,-33"/>
<text text-anchor="start" x="165" y="-51" font-family="Helvetica,sans-Serif" font-size="10.00">System.Security.Cryptography.</text>
<text text-anchor="middle" x="234" y="-40" font-family="Helvetica,sans-Serif" font-size="10.00">X509Certificates.X509Certificate</text>
</a>
</g>
</g>
<!-- Node6&#45;&gt;Node3 -->
<g id="edge3" class="edge"><title>Node6&#45;&gt;Node3</title>
<path fill="none" stroke="#9a32cd" stroke-dasharray="5,2" d="M321.03,-63.8051C354.961,-70.0388 392.825,-76.9949 422.453,-82.4381"/>
<polygon fill="#9a32cd" stroke="#9a32cd" points="321.576,-60.3469 311.108,-61.9823 320.311,-67.2317 321.576,-60.3469"/>
<text text-anchor="middle" x="352.5" y="-75" font-family="Helvetica,sans-Serif" font-size="10.00"> Certificate</text>
</g>
<!-- Node7 -->
<g id="node5" class="node"><title>Node7</title>
<g id="a_node5"><a xlink:href="interface_system_1_1_i_disposable.html" target="_top" xlink:title="Provides a mechanism for releasing unmanaged resources.To browse the .NET Framework source code for t...">
<polygon fill="none" stroke="black" points="26.5,-76.5 26.5,-95.5 93.5,-95.5 93.5,-76.5 26.5,-76.5"/>
<text text-anchor="middle" x="60" y="-83.5" font-family="Helvetica,sans-Serif" font-size="10.00">IDisposable</text>
</a>
</g>
</g>
<!-- Node7&#45;&gt;Node6 -->
<g id="edge4" class="edge"><title>Node7&#45;&gt;Node6</title>
<path fill="none" stroke="midnightblue" d="M103.604,-76.5875C122.056,-72.5109 144.119,-67.6364 164.757,-63.077"/>
<polygon fill="midnightblue" stroke="midnightblue" points="102.766,-73.1881 93.7567,-78.763 104.276,-80.0233 102.766,-73.1881"/>
</g>
<!-- Node8 -->
<g id="node6" class="node"><title>Node8</title>
<g id="a_node6"><a xlink:href="interface_system_1_1_runtime_1_1_serialization_1_1_i_deserialization_callback.html" target="_top" xlink:title="Indicates that a class is to be notified when deserialization of the entire object graph has been com...">
<polygon fill="none" stroke="black" points="0,-38.5 0,-57.5 120,-57.5 120,-38.5 0,-38.5"/>
<text text-anchor="middle" x="60" y="-45.5" font-family="Helvetica,sans-Serif" font-size="10.00">IDeserializationCallback</text>
</a>
</g>
</g>
<!-- Node8&#45;&gt;Node6 -->
<g id="edge5" class="edge"><title>Node8&#45;&gt;Node6</title>
<path fill="none" stroke="midnightblue" d="M130.352,-48C139.119,-48 148.127,-48 156.991,-48"/>
<polygon fill="midnightblue" stroke="midnightblue" points="130.193,-44.5001 120.193,-48 130.193,-51.5001 130.193,-44.5001"/>
</g>
<!-- Node9 -->
<g id="node7" class="node"><title>Node9</title>
<g id="a_node7"><a xlink:href="interface_system_1_1_runtime_1_1_serialization_1_1_i_serializable.html" target="_top" xlink:title="Allows an object to control its own serialization and deserialization.">
<polygon fill="none" stroke="black" points="25.5,-0.5 25.5,-19.5 94.5,-19.5 94.5,-0.5 25.5,-0.5"/>
<text text-anchor="middle" x="60" y="-7.5" font-family="Helvetica,sans-Serif" font-size="10.00">ISerializable</text>
</a>
</g>
</g>
<!-- Node9&#45;&gt;Node6 -->
<g id="edge6" class="edge"><title>Node9&#45;&gt;Node6</title>
<path fill="none" stroke="midnightblue" d="M104.385,-19.5851C122.747,-23.6419 144.578,-28.465 164.993,-32.9752"/>
<polygon fill="midnightblue" stroke="midnightblue" points="105.091,-16.1568 94.5716,-17.417 103.581,-22.9919 105.091,-16.1568"/>
</g>
</g>
</svg>
