<?xml version="1.0" encoding="UTF-8" standalone="no"?>
<!DOCTYPE svg PUBLIC "-//W3C//DTD SVG 1.1//EN"
 "http://www.w3.org/Graphics/SVG/1.1/DTD/svg11.dtd">
<!-- Generated by graphviz version 2.38.0 (20140413.2041)
 -->
<!-- Title: System.Xml.XmlCharacterData Pages: 1 -->
<svg width="461pt" height="192pt"
 viewBox="0.00 0.00 461.00 192.00" xmlns="http://www.w3.org/2000/svg" xmlns:xlink="http://www.w3.org/1999/xlink">
<g id="graph0" class="graph" transform="scale(1 1) rotate(0) translate(4 188)">
<title>System.Xml.XmlCharacterData</title>
<!-- Node0 -->
<g id="node1" class="node"><title>Node0</title>
<g id="a_node1"><a xlink:title="Provides text manipulation methods that are used by several classes.">
<polygon fill="#bfbfbf" stroke="black" points="119,-82.5 119,-101.5 269,-101.5 269,-82.5 119,-82.5"/>
<text text-anchor="middle" x="194" y="-89.5" font-family="Helvetica,sans-Serif" font-size="10.00">System.Xml.XmlCharacterData</text>
</a>
</g>
</g>
<!-- Node6 -->
<g id="node3" class="node"><title>Node6</title>
<g id="a_node3"><a xlink:href="class_system_1_1_xml_1_1_xml_c_data_section.html" target="_top" xlink:title="Represents a CDATA section.">
<polygon fill="none" stroke="black" points="305,-164.5 305,-183.5 453,-183.5 453,-164.5 305,-164.5"/>
<text text-anchor="middle" x="379" y="-171.5" font-family="Helvetica,sans-Serif" font-size="10.00">System.Xml.XmlCDataSection</text>
</a>
</g>
</g>
<!-- Node0&#45;&gt;Node6 -->
<g id="edge2" class="edge"><title>Node0&#45;&gt;Node6</title>
<path fill="none" stroke="midnightblue" d="M217.43,-107.223C239.047,-121.309 273.085,-141.979 305,-155 313.973,-158.661 323.858,-161.793 333.378,-164.396"/>
<polygon fill="midnightblue" stroke="midnightblue" points="219.241,-104.225 208.969,-101.631 215.382,-110.065 219.241,-104.225"/>
</g>
<!-- Node7 -->
<g id="node4" class="node"><title>Node7</title>
<g id="a_node4"><a xlink:href="class_system_1_1_xml_1_1_xml_comment.html" target="_top" xlink:title="Represents the content of an XML comment.">
<polygon fill="none" stroke="black" points="314,-126.5 314,-145.5 444,-145.5 444,-126.5 314,-126.5"/>
<text text-anchor="middle" x="379" y="-133.5" font-family="Helvetica,sans-Serif" font-size="10.00">System.Xml.XmlComment</text>
</a>
</g>
</g>
<!-- Node0&#45;&gt;Node7 -->
<g id="edge3" class="edge"><title>Node0&#45;&gt;Node7</title>
<path fill="none" stroke="midnightblue" d="M244.78,-103.969C274.195,-111.041 310.929,-119.874 338.369,-126.471"/>
<polygon fill="midnightblue" stroke="midnightblue" points="245.249,-100.482 234.708,-101.547 243.613,-107.288 245.249,-100.482"/>
</g>
<!-- Node8 -->
<g id="node5" class="node"><title>Node8</title>
<g id="a_node5"><a xlink:href="class_system_1_1_xml_1_1_xml_significant_whitespace.html" target="_top" xlink:title="Represents white space between markup in a mixed content node or white space within an xml:space= &#39;pr...">
<polygon fill="none" stroke="black" points="312.5,-77 312.5,-107 445.5,-107 445.5,-77 312.5,-77"/>
<text text-anchor="start" x="320.5" y="-95" font-family="Helvetica,sans-Serif" font-size="10.00">System.Xml.XmlSignificant</text>
<text text-anchor="middle" x="379" y="-84" font-family="Helvetica,sans-Serif" font-size="10.00">Whitespace</text>
</a>
</g>
</g>
<!-- Node0&#45;&gt;Node8 -->
<g id="edge4" class="edge"><title>Node0&#45;&gt;Node8</title>
<path fill="none" stroke="midnightblue" d="M279.278,-92C290.35,-92 301.563,-92 312.264,-92"/>
<polygon fill="midnightblue" stroke="midnightblue" points="279.169,-88.5001 269.169,-92 279.169,-95.5001 279.169,-88.5001"/>
</g>
<!-- Node9 -->
<g id="node6" class="node"><title>Node9</title>
<g id="a_node6"><a xlink:href="class_system_1_1_xml_1_1_xml_text.html" target="_top" xlink:title="Represents the text content of an element or attribute.">
<polygon fill="none" stroke="black" points="325.5,-38.5 325.5,-57.5 432.5,-57.5 432.5,-38.5 325.5,-38.5"/>
<text text-anchor="middle" x="379" y="-45.5" font-family="Helvetica,sans-Serif" font-size="10.00">System.Xml.XmlText</text>
</a>
</g>
</g>
<!-- Node0&#45;&gt;Node9 -->
<g id="edge5" class="edge"><title>Node0&#45;&gt;Node9</title>
<path fill="none" stroke="midnightblue" d="M244.78,-80.031C274.195,-72.9586 310.929,-64.1264 338.369,-57.5287"/>
<polygon fill="midnightblue" stroke="midnightblue" points="243.613,-76.7118 234.708,-82.4527 245.249,-83.5179 243.613,-76.7118"/>
</g>
<!-- Node10 -->
<g id="node7" class="node"><title>Node10</title>
<g id="a_node7"><a xlink:href="class_system_1_1_xml_1_1_xml_whitespace.html" target="_top" xlink:title="Represents white space in element content.">
<polygon fill="none" stroke="black" points="309,-0.5 309,-19.5 449,-19.5 449,-0.5 309,-0.5"/>
<text text-anchor="middle" x="379" y="-7.5" font-family="Helvetica,sans-Serif" font-size="10.00">System.Xml.XmlWhitespace</text>
</a>
</g>
</g>
<!-- Node0&#45;&gt;Node10 -->
<g id="edge6" class="edge"><title>Node0&#45;&gt;Node10</title>
<path fill="none" stroke="midnightblue" d="M217.43,-76.7768C239.047,-62.6913 273.085,-42.0211 305,-29 313.973,-25.3392 323.858,-22.2072 333.378,-19.6042"/>
<polygon fill="midnightblue" stroke="midnightblue" points="215.382,-73.9353 208.969,-82.3688 219.241,-79.7752 215.382,-73.9353"/>
</g>
<!-- Node1 -->
<g id="node2" class="node"><title>Node1</title>
<g id="a_node2"><a xlink:href="class_system_1_1_xml_1_1_xml_linked_node.html" target="_top" xlink:title="Gets the node immediately preceding or following this node.">
<polygon fill="none" stroke="red" points="0,-82.5 0,-101.5 83,-101.5 83,-82.5 0,-82.5"/>
<text text-anchor="middle" x="41.5" y="-89.5" font-family="Helvetica,sans-Serif" font-size="10.00">XmlLinkedNode</text>
</a>
</g>
</g>
<!-- Node1&#45;&gt;Node0 -->
<g id="edge1" class="edge"><title>Node1&#45;&gt;Node0</title>
<path fill="none" stroke="midnightblue" d="M93.3753,-92C101.598,-92 110.255,-92 118.893,-92"/>
<polygon fill="midnightblue" stroke="midnightblue" points="93.2275,-88.5001 83.2275,-92 93.2274,-95.5001 93.2275,-88.5001"/>
</g>
</g>
</svg>
