<?xml version="1.0" encoding="UTF-8" standalone="no"?>
<!DOCTYPE svg PUBLIC "-//W3C//DTD SVG 1.1//EN"
 "http://www.w3.org/Graphics/SVG/1.1/DTD/svg11.dtd">
<!-- Generated by graphviz version 2.38.0 (20140413.2041)
 -->
<!-- Title: System.Xml.XmlNamespaceManager Pages: 1 -->
<svg width="220pt" height="140pt"
 viewBox="0.00 0.00 220.00 140.00" xmlns="http://www.w3.org/2000/svg" xmlns:xlink="http://www.w3.org/1999/xlink">
<g id="graph0" class="graph" transform="scale(1 1) rotate(0) translate(4 136)">
<title>System.Xml.XmlNamespaceManager</title>
<!-- Node0 -->
<g id="node1" class="node"><title>Node0</title>
<g id="a_node1"><a xlink:title="Resolves, adds, and removes namespaces to a collection and provides scope management for these namesp...">
<polygon fill="#bfbfbf" stroke="black" points="30,-56.5 30,-75.5 207,-75.5 207,-56.5 30,-56.5"/>
<text text-anchor="middle" x="118.5" y="-63.5" font-family="Helvetica,sans-Serif" font-size="10.00">System.Xml.XmlNamespaceManager</text>
</a>
</g>
</g>
<!-- Node3 -->
<g id="node4" class="node"><title>Node3</title>
<g id="a_node4"><a xlink:href="class_system_1_1_xml_1_1_xsl_1_1_xslt_context.html" target="_top" xlink:title="Encapsulates the current execution context of the Extensible Stylesheet Language for Transformations ...">
<polygon fill="none" stroke="black" points="50,-0.5 50,-19.5 187,-19.5 187,-0.5 50,-0.5"/>
<text text-anchor="middle" x="118.5" y="-7.5" font-family="Helvetica,sans-Serif" font-size="10.00">System.Xml.Xsl.XsltContext</text>
</a>
</g>
</g>
<!-- Node0&#45;&gt;Node3 -->
<g id="edge3" class="edge"><title>Node0&#45;&gt;Node3</title>
<path fill="none" stroke="midnightblue" d="M118.5,-45.8045C118.5,-36.9102 118.5,-26.7798 118.5,-19.7511"/>
<polygon fill="midnightblue" stroke="midnightblue" points="115,-46.083 118.5,-56.083 122,-46.083 115,-46.083"/>
</g>
<!-- Node1 -->
<g id="node2" class="node"><title>Node1</title>
<g id="a_node2"><a xlink:href="interface_system_1_1_xml_1_1_i_xml_namespace_resolver.html" target="_top" xlink:title="Provides read&#45;only access to a set of prefix and namespace mappings.">
<polygon fill="none" stroke="black" points="0,-112.5 0,-131.5 123,-131.5 123,-112.5 0,-112.5"/>
<text text-anchor="middle" x="61.5" y="-119.5" font-family="Helvetica,sans-Serif" font-size="10.00">IXmlNamespaceResolver</text>
</a>
</g>
</g>
<!-- Node1&#45;&gt;Node0 -->
<g id="edge1" class="edge"><title>Node1&#45;&gt;Node0</title>
<path fill="none" stroke="midnightblue" d="M78.1215,-105.253C88.234,-95.6731 100.777,-83.7906 109.175,-75.8339"/>
<polygon fill="midnightblue" stroke="midnightblue" points="75.5105,-102.906 70.658,-112.324 80.3247,-107.987 75.5105,-102.906"/>
</g>
<!-- Node2 -->
<g id="node3" class="node"><title>Node2</title>
<g id="a_node3"><a xlink:href="interface_system_1_1_collections_1_1_i_enumerable.html" target="_top" xlink:title="Exposes an enumerator, which supports a simple iteration over a non&#45;generic collection....">
<polygon fill="none" stroke="black" points="141,-112.5 141,-131.5 212,-131.5 212,-112.5 141,-112.5"/>
<text text-anchor="middle" x="176.5" y="-119.5" font-family="Helvetica,sans-Serif" font-size="10.00">IEnumerable</text>
</a>
</g>
</g>
<!-- Node2&#45;&gt;Node0 -->
<g id="edge2" class="edge"><title>Node2&#45;&gt;Node0</title>
<path fill="none" stroke="midnightblue" d="M159.587,-105.253C149.297,-95.6731 136.534,-83.7906 127.988,-75.8339"/>
<polygon fill="midnightblue" stroke="midnightblue" points="157.477,-108.071 167.181,-112.324 162.247,-102.948 157.477,-108.071"/>
</g>
</g>
</svg>
