<?xml version="1.0" encoding="UTF-8" standalone="no"?>
<!DOCTYPE svg PUBLIC "-//W3C//DTD SVG 1.1//EN"
 "http://www.w3.org/Graphics/SVG/1.1/DTD/svg11.dtd">
<!-- Generated by graphviz version 2.38.0 (20140413.2041)
 -->
<!-- Title: System.Diagnostics.Contracts.ContractFailedEventArgs Pages: 1 -->
<svg width="183pt" height="163pt"
 viewBox="0.00 0.00 183.00 163.00" xmlns="http://www.w3.org/2000/svg" xmlns:xlink="http://www.w3.org/1999/xlink">
<g id="graph0" class="graph" transform="scale(1 1) rotate(0) translate(4 159)">
<title>System.Diagnostics.Contracts.ContractFailedEventArgs</title>
<!-- Node2 -->
<g id="node1" class="node"><title>Node2</title>
<g id="a_node1"><a xlink:title="Provides methods and data for the E:System.Diagnostics.Contracts.Contract.ContractFailed event.">
<polygon fill="#bfbfbf" stroke="black" points="0,-0.5 0,-30.5 152,-30.5 152,-0.5 0,-0.5"/>
<text text-anchor="start" x="8" y="-18.5" font-family="Helvetica,sans-Serif" font-size="10.00">System.Diagnostics.Contracts.</text>
<text text-anchor="middle" x="76" y="-7.5" font-family="Helvetica,sans-Serif" font-size="10.00">ContractFailedEventArgs</text>
</a>
</g>
</g>
<!-- Node3 -->
<g id="node2" class="node"><title>Node3</title>
<g id="a_node2"><a xlink:href="class_system_1_1_event_args.html" target="_top" xlink:title="Represents the base class for classes that contain event data, and provides a value to use for events...">
<polygon fill="none" stroke="black" points="45.5,-68.5 45.5,-87.5 106.5,-87.5 106.5,-68.5 45.5,-68.5"/>
<text text-anchor="middle" x="76" y="-75.5" font-family="Helvetica,sans-Serif" font-size="10.00">EventArgs</text>
</a>
</g>
</g>
<!-- Node3&#45;&gt;Node2 -->
<g id="edge1" class="edge"><title>Node3&#45;&gt;Node2</title>
<path fill="none" stroke="midnightblue" d="M76,-58.2154C76,-49.3565 76,-38.9577 76,-30.7587"/>
<polygon fill="midnightblue" stroke="midnightblue" points="72.5001,-58.3318 76,-68.3318 79.5001,-58.3319 72.5001,-58.3318"/>
</g>
<!-- Node4 -->
<g id="node3" class="node"><title>Node4</title>
<g id="a_node3"><a xlink:href="class_system_1_1_event_args.html" target="_top" xlink:title="Represents the base class for classes that contain event data, and provides a value to use for events...">
<polygon fill="none" stroke="black" points="27,-135.5 27,-154.5 125,-154.5 125,-135.5 27,-135.5"/>
<text text-anchor="middle" x="76" y="-142.5" font-family="Helvetica,sans-Serif" font-size="10.00">System.EventArgs</text>
</a>
</g>
</g>
<!-- Node4&#45;&gt;Node3 -->
<g id="edge2" class="edge"><title>Node4&#45;&gt;Node3</title>
<path fill="none" stroke="#9a32cd" stroke-dasharray="5,2" d="M76,-125.037C76,-112.67 76,-97.1198 76,-87.6273"/>
<polygon fill="#9a32cd" stroke="#9a32cd" points="72.5001,-125.234 76,-135.234 79.5001,-125.234 72.5001,-125.234"/>
<text text-anchor="middle" x="92" y="-109" font-family="Helvetica,sans-Serif" font-size="10.00"> Empty</text>
</g>
<!-- Node4&#45;&gt;Node4 -->
<g id="edge3" class="edge"><title>Node4&#45;&gt;Node4</title>
<path fill="none" stroke="#9a32cd" stroke-dasharray="5,2" d="M135.323,-149.575C140.065,-148.576 143,-147.051 143,-145 143,-141.719 135.486,-139.783 125.08,-139.194"/>
<polygon fill="#9a32cd" stroke="#9a32cd" points="134.591,-146.138 125.08,-150.806 135.427,-153.088 134.591,-146.138"/>
<text text-anchor="middle" x="159" y="-142.5" font-family="Helvetica,sans-Serif" font-size="10.00"> Empty</text>
</g>
</g>
</svg>
