<?xml version="1.0" encoding="UTF-8" standalone="no"?>
<!DOCTYPE svg PUBLIC "-//W3C//DTD SVG 1.1//EN"
 "http://www.w3.org/Graphics/SVG/1.1/DTD/svg11.dtd">
<!-- Generated by graphviz version 2.38.0 (20140413.2041)
 -->
<!-- Title: System.Reflection.Emit.FieldBuilder Pages: 1 -->
<svg width="470pt" height="106pt"
 viewBox="0.00 0.00 470.00 106.00" xmlns="http://www.w3.org/2000/svg" xmlns:xlink="http://www.w3.org/1999/xlink">
<g id="graph0" class="graph" transform="scale(1 1) rotate(0) translate(4 102)">
<title>System.Reflection.Emit.FieldBuilder</title>
<!-- Node7 -->
<g id="node1" class="node"><title>Node7</title>
<g id="a_node1"><a xlink:title="Defines and represents a field. This class cannot be inherited.">
<polygon fill="#bfbfbf" stroke="black" points="67,-0.5 67,-30.5 210,-30.5 210,-0.5 67,-0.5"/>
<text text-anchor="start" x="75" y="-18.5" font-family="Helvetica,sans-Serif" font-size="10.00">System.Reflection.Emit.Field</text>
<text text-anchor="middle" x="138.5" y="-7.5" font-family="Helvetica,sans-Serif" font-size="10.00">Builder</text>
</a>
</g>
</g>
<!-- Node8 -->
<g id="node2" class="node"><title>Node8</title>
<g id="a_node2"><a xlink:href="class_system_1_1_reflection_1_1_field_info.html" target="_top" xlink:title="Discovers the attributes of a field and provides access to field metadata.">
<polygon fill="none" stroke="red" points="0,-78.5 0,-97.5 53,-97.5 53,-78.5 0,-78.5"/>
<text text-anchor="middle" x="26.5" y="-85.5" font-family="Helvetica,sans-Serif" font-size="10.00">FieldInfo</text>
</a>
</g>
</g>
<!-- Node8&#45;&gt;Node7 -->
<g id="edge1" class="edge"><title>Node8&#45;&gt;Node7</title>
<path fill="none" stroke="midnightblue" d="M48.7902,-72.9691C68.3264,-60.6718 96.5803,-42.8869 116.138,-30.5762"/>
<polygon fill="midnightblue" stroke="midnightblue" points="46.8319,-70.0661 40.2334,-78.3553 50.5609,-75.9902 46.8319,-70.0661"/>
</g>
<!-- Node13 -->
<g id="node3" class="node"><title>Node13</title>
<g id="a_node3"><a xlink:href="interface_system_1_1_runtime_1_1_interop_services_1_1___field_builder.html" target="_top" xlink:title="Exposes the T:System.Reflection.Emit.FieldBuilder class to unmanaged code.">
<polygon fill="none" stroke="black" points="71,-78.5 71,-97.5 144,-97.5 144,-78.5 71,-78.5"/>
<text text-anchor="middle" x="107.5" y="-85.5" font-family="Helvetica,sans-Serif" font-size="10.00">_FieldBuilder</text>
</a>
</g>
</g>
<!-- Node13&#45;&gt;Node7 -->
<g id="edge2" class="edge"><title>Node13&#45;&gt;Node7</title>
<path fill="none" stroke="midnightblue" d="M115.431,-68.9637C120.679,-57.0293 127.461,-41.6057 132.31,-30.5762"/>
<polygon fill="midnightblue" stroke="midnightblue" points="112.123,-67.7924 111.301,-78.3553 118.53,-70.61 112.123,-67.7924"/>
</g>
<!-- Node14 -->
<g id="node4" class="node"><title>Node14</title>
<g id="a_node4"><a xlink:href="class_system_1_1_type.html" target="_top" xlink:title="Represents type declarations: class types, interface types, array types, value types,...">
<polygon fill="none" stroke="red" points="162.5,-78.5 162.5,-97.5 236.5,-97.5 236.5,-78.5 162.5,-78.5"/>
<text text-anchor="middle" x="199.5" y="-85.5" font-family="Helvetica,sans-Serif" font-size="10.00">System.Type</text>
</a>
</g>
</g>
<!-- Node14&#45;&gt;Node7 -->
<g id="edge3" class="edge"><title>Node14&#45;&gt;Node7</title>
<path fill="none" stroke="#9a32cd" stroke-dasharray="5,2" d="M185.435,-70.7443C174.926,-58.5984 160.705,-42.1628 150.679,-30.5762"/>
<polygon fill="#9a32cd" stroke="#9a32cd" points="182.83,-73.0832 192.02,-78.3553 188.124,-68.503 182.83,-73.0832"/>
<text text-anchor="middle" x="197.5" y="-52" font-family="Helvetica,sans-Serif" font-size="10.00"> FieldType</text>
</g>
<!-- Node14&#45;&gt;Node14 -->
<g id="edge4" class="edge"><title>Node14&#45;&gt;Node14</title>
<path fill="none" stroke="#9a32cd" stroke-dasharray="5,2" d="M246.686,-92.9222C251.457,-91.9454 254.5,-90.3047 254.5,-88 254.5,-84.3125 246.71,-82.3247 236.515,-82.0366"/>
<polygon fill="#9a32cd" stroke="#9a32cd" points="246.107,-89.4631 236.515,-93.9634 246.82,-96.4267 246.107,-89.4631"/>
<text text-anchor="middle" x="283.5" y="-85.5" font-family="Helvetica,sans-Serif" font-size="10.00"> EmptyTypes</text>
</g>
<!-- Node17 -->
<g id="node5" class="node"><title>Node17</title>
<g id="a_node5"><a xlink:href="class_system_1_1_reflection_1_1_module.html" target="_top" xlink:title="Performs reflection on a module.">
<polygon fill="none" stroke="red" points="331,-78.5 331,-97.5 462,-97.5 462,-78.5 331,-78.5"/>
<text text-anchor="middle" x="396.5" y="-85.5" font-family="Helvetica,sans-Serif" font-size="10.00">System.Reflection.Module</text>
</a>
</g>
</g>
<!-- Node17&#45;&gt;Node7 -->
<g id="edge5" class="edge"><title>Node17&#45;&gt;Node7</title>
<path fill="none" stroke="#9a32cd" stroke-dasharray="5,2" d="M355.678,-75.845C310.752,-63.5689 238.462,-43.8152 189.756,-30.5059"/>
<polygon fill="#9a32cd" stroke="#9a32cd" points="354.81,-79.2363 365.379,-78.4961 356.655,-72.4838 354.81,-79.2363"/>
<text text-anchor="middle" x="309" y="-52" font-family="Helvetica,sans-Serif" font-size="10.00"> Module</text>
</g>
</g>
</svg>
