<?xml version="1.0" encoding="UTF-8" standalone="no"?>
<!DOCTYPE svg PUBLIC "-//W3C//DTD SVG 1.1//EN"
 "http://www.w3.org/Graphics/SVG/1.1/DTD/svg11.dtd">
<!-- Generated by graphviz version 2.38.0 (20140413.2041)
 -->
<!-- Title: System.Diagnostics.TextWriterTraceListener Pages: 1 -->
<svg width="456pt" height="186pt"
 viewBox="0.00 0.00 456.00 186.00" xmlns="http://www.w3.org/2000/svg" xmlns:xlink="http://www.w3.org/1999/xlink">
<g id="graph0" class="graph" transform="scale(1 1) rotate(0) translate(4 182)">
<title>System.Diagnostics.TextWriterTraceListener</title>
<!-- Node0 -->
<g id="node1" class="node"><title>Node0</title>
<g id="a_node1"><a xlink:title="Directs tracing or debugging output to a T:System.IO.TextWriter or to a T:System.IO....">
<polygon fill="#bfbfbf" stroke="black" points="111,-73.5 111,-103.5 263,-103.5 263,-73.5 111,-73.5"/>
<text text-anchor="start" x="119" y="-91.5" font-family="Helvetica,sans-Serif" font-size="10.00">System.Diagnostics.TextWriter</text>
<text text-anchor="middle" x="187" y="-80.5" font-family="Helvetica,sans-Serif" font-size="10.00">TraceListener</text>
</a>
</g>
</g>
<!-- Node4 -->
<g id="node3" class="node"><title>Node4</title>
<g id="a_node3"><a xlink:href="class_system_1_1_diagnostics_1_1_console_trace_listener.html" target="_top" xlink:title="Directs tracing or debugging output to either the standard output or the standard error stream.">
<polygon fill="none" stroke="black" points="302,-147.5 302,-177.5 445,-177.5 445,-147.5 302,-147.5"/>
<text text-anchor="start" x="310" y="-165.5" font-family="Helvetica,sans-Serif" font-size="10.00">System.Diagnostics.Console</text>
<text text-anchor="middle" x="373.5" y="-154.5" font-family="Helvetica,sans-Serif" font-size="10.00">TraceListener</text>
</a>
</g>
</g>
<!-- Node0&#45;&gt;Node4 -->
<g id="edge2" class="edge"><title>Node0&#45;&gt;Node4</title>
<path fill="none" stroke="midnightblue" d="M228.391,-107.956C249.248,-117.679 275.242,-129.301 299,-138.5 307.011,-141.602 315.611,-144.653 324.004,-147.485"/>
<polygon fill="midnightblue" stroke="midnightblue" points="229.735,-104.721 219.196,-103.638 226.759,-111.057 229.735,-104.721"/>
</g>
<!-- Node5 -->
<g id="node4" class="node"><title>Node5</title>
<g id="a_node4"><a xlink:href="class_system_1_1_diagnostics_1_1_delimited_list_trace_listener.html" target="_top" xlink:title="Directs tracing or debugging output to a text writer, such as a stream writer, or to a stream,...">
<polygon fill="none" stroke="black" points="299.5,-98.5 299.5,-128.5 447.5,-128.5 447.5,-98.5 299.5,-98.5"/>
<text text-anchor="start" x="307.5" y="-116.5" font-family="Helvetica,sans-Serif" font-size="10.00">System.Diagnostics.Delimited</text>
<text text-anchor="middle" x="373.5" y="-105.5" font-family="Helvetica,sans-Serif" font-size="10.00">ListTraceListener</text>
</a>
</g>
</g>
<!-- Node0&#45;&gt;Node5 -->
<g id="edge3" class="edge"><title>Node0&#45;&gt;Node5</title>
<path fill="none" stroke="midnightblue" d="M273.221,-100.048C281.94,-101.229 290.742,-102.422 299.316,-103.583"/>
<polygon fill="midnightblue" stroke="midnightblue" points="273.423,-96.543 263.043,-98.6685 272.483,-103.48 273.423,-96.543"/>
</g>
<!-- Node6 -->
<g id="node5" class="node"><title>Node6</title>
<g id="a_node5"><a xlink:href="class_system_1_1_diagnostics_1_1_event_schema_trace_listener.html" target="_top" xlink:title="Directs tracing or debugging output of end&#45;to&#45;end events to an XML&#45;encoded, schema&#45;compliant log file...">
<polygon fill="none" stroke="black" points="308,-49.5 308,-79.5 439,-79.5 439,-49.5 308,-49.5"/>
<text text-anchor="start" x="316" y="-67.5" font-family="Helvetica,sans-Serif" font-size="10.00">System.Diagnostics.Event</text>
<text text-anchor="middle" x="373.5" y="-56.5" font-family="Helvetica,sans-Serif" font-size="10.00">SchemaTraceListener</text>
</a>
</g>
</g>
<!-- Node0&#45;&gt;Node6 -->
<g id="edge4" class="edge"><title>Node0&#45;&gt;Node6</title>
<path fill="none" stroke="midnightblue" d="M273.223,-77.4141C284.873,-75.8987 296.672,-74.3637 307.874,-72.9067"/>
<polygon fill="midnightblue" stroke="midnightblue" points="272.508,-73.9775 263.043,-78.7383 273.411,-80.919 272.508,-73.9775"/>
</g>
<!-- Node7 -->
<g id="node6" class="node"><title>Node7</title>
<g id="a_node6"><a xlink:href="class_system_1_1_diagnostics_1_1_xml_writer_trace_listener.html" target="_top" xlink:title="Directs tracing or debugging output as XML&#45;encoded data to a T:System.IO.TextWriter or to a T:System....">
<polygon fill="none" stroke="black" points="299,-0.5 299,-30.5 448,-30.5 448,-0.5 299,-0.5"/>
<text text-anchor="start" x="307" y="-18.5" font-family="Helvetica,sans-Serif" font-size="10.00">System.Diagnostics.XmlWriter</text>
<text text-anchor="middle" x="373.5" y="-7.5" font-family="Helvetica,sans-Serif" font-size="10.00">TraceListener</text>
</a>
</g>
</g>
<!-- Node0&#45;&gt;Node7 -->
<g id="edge5" class="edge"><title>Node0&#45;&gt;Node7</title>
<path fill="none" stroke="midnightblue" d="M228.88,-69.2811C249.67,-59.8082 275.458,-48.5139 299,-39.5 307.023,-36.4281 315.628,-33.3922 324.023,-30.5662"/>
<polygon fill="midnightblue" stroke="midnightblue" points="227.335,-66.1391 219.706,-73.4906 230.254,-72.5013 227.335,-66.1391"/>
</g>
<!-- Node1 -->
<g id="node2" class="node"><title>Node1</title>
<g id="a_node2"><a xlink:href="class_system_1_1_diagnostics_1_1_trace_listener.html" target="_top" xlink:title="Provides the abstract base class for the listeners who monitor trace and debug output.">
<polygon fill="none" stroke="red" points="0,-79 0,-98 75,-98 75,-79 0,-79"/>
<text text-anchor="middle" x="37.5" y="-86" font-family="Helvetica,sans-Serif" font-size="10.00">TraceListener</text>
</a>
</g>
</g>
<!-- Node1&#45;&gt;Node0 -->
<g id="edge1" class="edge"><title>Node1&#45;&gt;Node0</title>
<path fill="none" stroke="midnightblue" d="M85.6055,-88.5C93.6585,-88.5 102.201,-88.5 110.771,-88.5"/>
<polygon fill="midnightblue" stroke="midnightblue" points="85.34,-85.0001 75.34,-88.5 85.34,-92.0001 85.34,-85.0001"/>
</g>
</g>
</svg>
