<?xml version="1.0" encoding="UTF-8" standalone="no"?>
<!DOCTYPE svg PUBLIC "-//W3C//DTD SVG 1.1//EN"
 "http://www.w3.org/Graphics/SVG/1.1/DTD/svg11.dtd">
<!-- Generated by graphviz version 2.38.0 (20140413.2041)
 -->
<!-- Title: System.Runtime.Remoting.Messaging.ConstructionResponse Pages: 1 -->
<!--zoomable 401 -->
<svg id="main" version="1.1" xmlns="http://www.w3.org/2000/svg" xmlns:xlink="http://www.w3.org/1999/xlink" xml:space="preserve" onload="init(evt)">
<style type="text/css"><![CDATA[
.edge:hover path { stroke: red; }
.edge:hover polygon { stroke: red; fill: red; }
]]></style>
<script type="text/javascript"><![CDATA[
var edges = document.getElementsByTagName('g');
if (edges && edges.length) {
  for (var i=0;i<edges.length;i++) {
    if (edges[i].id.substr(0,4)=='edge') {
      edges[i].setAttribute('class','edge');
    }
  }
}
]]></script>
        <defs>
                <circle id="rim" cx="0" cy="0" r="7"/>
                <circle id="rim2" cx="0" cy="0" r="3.5"/>
                <g id="zoomPlus">
                        <use xlink:href="#rim" fill="#404040">
                                <set attributeName="fill" to="#808080" begin="zoomplus.mouseover" end="zoomplus.mouseout"/>
                        </use>
                        <path d="M-4,0h8M0,-4v8" fill="none" stroke="white" stroke-width="1.5" pointer-events="none"/>
                </g>
                <g id="zoomMin">
                        <use xlink:href="#rim" fill="#404040">
                                <set attributeName="fill" to="#808080" begin="zoomminus.mouseover" end="zoomminus.mouseout"/>
                        </use>
                        <path d="M-4,0h8" fill="none" stroke="white" stroke-width="1.5" pointer-events="none"/>
                </g>
                <g id="dirArrow">
                        <path fill="none" stroke="white" stroke-width="1.5" d="M0,-3.0v7 M-2.5,-0.5L0,-3.0L2.5,-0.5"/>
                </g>
               <g id="resetDef">
                       <use xlink:href="#rim2" fill="#404040">
                               <set attributeName="fill" to="#808080" begin="reset.mouseover" end="reset.mouseout"/>
                       </use>
               </g>
        </defs>

<script type="text/javascript">
var viewWidth = 855;
var viewHeight = 401;
var sectionId = 'dynsection-1';
</script>
<script xlink:href="svgpan.js"/>
<svg id="graph" class="graph">
<g id="viewport">
<title>System.Runtime.Remoting.Messaging.ConstructionResponse</title>
<!-- Node9 -->
<g id="node1" class="node"><title>Node9</title>
<g id="a_node1"><a xlink:title="Implements the T:System.Runtime.Remoting.Activation.IConstructionReturnMessage interface to create a ...">
<polygon fill="#bfbfbf" stroke="black" points="682,-275 682,-305 847,-305 847,-275 682,-275"/>
<text text-anchor="start" x="690" y="-293" font-family="Helvetica,sans-Serif" font-size="10.00">System.Runtime.Remoting.</text>
<text text-anchor="middle" x="764.5" y="-282" font-family="Helvetica,sans-Serif" font-size="10.00">Messaging.ConstructionResponse</text>
</a>
</g>
</g>
<!-- Node10 -->
<g id="node2" class="node"><title>Node10</title>
<g id="a_node2"><a xlink:href="class_system_1_1_runtime_1_1_remoting_1_1_messaging_1_1_method_response.html" target="_top" xlink:title="Implements the T:System.Runtime.Remoting.Messaging.IMethodReturnMessage interface to create a message...">
<polygon fill="none" stroke="black" points="528,-136.5 528,-155.5 620,-155.5 620,-136.5 528,-136.5"/>
<text text-anchor="middle" x="574" y="-143.5" font-family="Helvetica,sans-Serif" font-size="10.00">MethodResponse</text>
</a>
</g>
</g>
<!-- Node10&#45;&gt;Node9 -->
<g id="edge1" class="edge"><title>Node10&#45;&gt;Node9</title>
<path fill="none" stroke="midnightblue" d="M595.664,-161.785C632.241,-189.728 707.904,-247.529 743.79,-274.943"/>
<polygon fill="midnightblue" stroke="midnightblue" points="597.732,-158.961 587.661,-155.672 593.483,-164.524 597.732,-158.961"/>
</g>
<!-- Node11 -->
<g id="node3" class="node"><title>Node11</title>
<g id="a_node3"><a xlink:href="interface_system_1_1_runtime_1_1_remoting_1_1_messaging_1_1_i_method_return_message.html" target="_top" xlink:title="Defines the method call return message interface.">
<polygon fill="none" stroke="black" points="251.5,-231.5 251.5,-250.5 370.5,-250.5 370.5,-231.5 251.5,-231.5"/>
<text text-anchor="middle" x="311" y="-238.5" font-family="Helvetica,sans-Serif" font-size="10.00">IMethodReturnMessage</text>
</a>
</g>
</g>
<!-- Node11&#45;&gt;Node9 -->
<g id="edge19" class="edge"><title>Node11&#45;&gt;Node9</title>
<path fill="none" stroke="midnightblue" d="M380.785,-247.006C451.805,-253.402 565.783,-264.212 664,-276 669.802,-276.696 675.79,-277.45 681.815,-278.235"/>
<polygon fill="midnightblue" stroke="midnightblue" points="380.898,-243.502 370.625,-246.094 380.273,-250.474 380.898,-243.502"/>
</g>
<!-- Node11&#45;&gt;Node10 -->
<g id="edge2" class="edge"><title>Node11&#45;&gt;Node10</title>
<path fill="none" stroke="midnightblue" d="M380.61,-230.554C413.046,-224.262 451.836,-214.745 485,-201 513.96,-188.997 544.206,-167.902 560.611,-155.62"/>
<polygon fill="midnightblue" stroke="midnightblue" points="379.943,-227.118 370.761,-232.404 381.236,-233.997 379.943,-227.118"/>
</g>
<!-- Node20 -->
<g id="node12" class="node"><title>Node20</title>
<g id="a_node12"><a xlink:href="interface_system_1_1_runtime_1_1_remoting_1_1_activation_1_1_i_construction_return_message.html" target="_top" xlink:title="Identifies a T:System.Runtime.Remoting.Messaging.IMethodReturnMessage that is returned after attempti...">
<polygon fill="none" stroke="black" points="503,-318.5 503,-337.5 645,-337.5 645,-318.5 503,-318.5"/>
<text text-anchor="middle" x="574" y="-325.5" font-family="Helvetica,sans-Serif" font-size="10.00">IConstructionReturnMessage</text>
</a>
</g>
</g>
<!-- Node11&#45;&gt;Node20 -->
<g id="edge16" class="edge"><title>Node11&#45;&gt;Node20</title>
<path fill="none" stroke="midnightblue" d="M350.354,-253.785C403.168,-271.389 497.093,-302.698 544.274,-318.425"/>
<polygon fill="midnightblue" stroke="midnightblue" points="351.272,-250.401 340.678,-250.559 349.058,-257.042 351.272,-250.401"/>
</g>
<!-- Node12 -->
<g id="node4" class="node"><title>Node12</title>
<g id="a_node4"><a xlink:href="interface_system_1_1_runtime_1_1_remoting_1_1_messaging_1_1_i_method_message.html" target="_top" xlink:title="Defines the method message interface.">
<polygon fill="none" stroke="black" points="108,-256.5 108,-275.5 199,-275.5 199,-256.5 108,-256.5"/>
<text text-anchor="middle" x="153.5" y="-263.5" font-family="Helvetica,sans-Serif" font-size="10.00">IMethodMessage</text>
</a>
</g>
</g>
<!-- Node12&#45;&gt;Node9 -->
<g id="edge20" class="edge"><title>Node12&#45;&gt;Node9</title>
<path fill="none" stroke="midnightblue" d="M209.588,-268.171C317.21,-272.412 555.856,-281.817 681.884,-286.784"/>
<polygon fill="midnightblue" stroke="midnightblue" points="209.411,-264.661 199.281,-267.765 209.136,-271.656 209.411,-264.661"/>
</g>
<!-- Node12&#45;&gt;Node10 -->
<g id="edge6" class="edge"><title>Node12&#45;&gt;Node10</title>
<path fill="none" stroke="midnightblue" d="M177.459,-251.083C193.313,-241.426 215.209,-229.328 236,-222 342.14,-184.591 376.117,-204.455 485,-176 506.707,-170.327 530.785,-161.97 548.26,-155.516"/>
<polygon fill="midnightblue" stroke="midnightblue" points="175.511,-248.173 168.876,-256.433 179.213,-254.114 175.511,-248.173"/>
</g>
<!-- Node12&#45;&gt;Node11 -->
<g id="edge3" class="edge"><title>Node12&#45;&gt;Node11</title>
<path fill="none" stroke="midnightblue" d="M209.222,-257.202C222.815,-255.017 237.44,-252.666 251.218,-250.45"/>
<polygon fill="midnightblue" stroke="midnightblue" points="208.378,-253.793 199.06,-258.836 209.489,-260.704 208.378,-253.793"/>
</g>
<!-- Node12&#45;&gt;Node20 -->
<g id="edge17" class="edge"><title>Node12&#45;&gt;Node20</title>
<path fill="none" stroke="midnightblue" d="M181.81,-279.982C192.522,-284.879 205.084,-289.921 217,-293 314.107,-318.095 430.374,-325.457 502.98,-327.472"/>
<polygon fill="midnightblue" stroke="midnightblue" points="183.099,-276.719 172.565,-275.585 180.092,-283.041 183.099,-276.719"/>
</g>
<!-- Node13 -->
<g id="node5" class="node"><title>Node13</title>
<g id="a_node5"><a xlink:href="interface_system_1_1_runtime_1_1_remoting_1_1_messaging_1_1_i_message.html" target="_top" xlink:title="Contains communication data sent between cooperating message sinks.">
<polygon fill="none" stroke="black" points="6,-256.5 6,-275.5 65,-275.5 65,-256.5 6,-256.5"/>
<text text-anchor="middle" x="35.5" y="-263.5" font-family="Helvetica,sans-Serif" font-size="10.00">IMessage</text>
</a>
</g>
</g>
<!-- Node13&#45;&gt;Node9 -->
<g id="edge21" class="edge"><title>Node13&#45;&gt;Node9</title>
<path fill="none" stroke="midnightblue" d="M43.6397,-285.271C58.1905,-320.793 94.8577,-393 152.5,-393 152.5,-393 152.5,-393 575,-393 647.348,-393 718.295,-333.849 748.417,-305.198"/>
<polygon fill="midnightblue" stroke="midnightblue" points="46.7378,-283.583 39.8353,-275.546 40.2188,-286.134 46.7378,-283.583"/>
</g>
<!-- Node13&#45;&gt;Node10 -->
<g id="edge7" class="edge"><title>Node13&#45;&gt;Node10</title>
<path fill="none" stroke="midnightblue" d="M66.8071,-252.349C79.463,-246.782 94.3672,-240.399 108,-235 164.205,-212.743 177.224,-203.132 236,-189 338.651,-164.319 462.513,-153.13 527.736,-148.632"/>
<polygon fill="midnightblue" stroke="midnightblue" points="65.3506,-249.166 57.6257,-256.417 68.1863,-255.566 65.3506,-249.166"/>
</g>
<!-- Node13&#45;&gt;Node11 -->
<g id="edge5" class="edge"><title>Node13&#45;&gt;Node11</title>
<path fill="none" stroke="midnightblue" d="M74.8906,-254.063C85.5135,-251.237 97.1163,-248.586 108,-247 155.911,-240.018 210.867,-238.82 251.35,-239.199"/>
<polygon fill="midnightblue" stroke="midnightblue" points="73.7577,-250.745 65.0614,-256.797 75.6336,-257.489 73.7577,-250.745"/>
</g>
<!-- Node13&#45;&gt;Node12 -->
<g id="edge4" class="edge"><title>Node13&#45;&gt;Node12</title>
<path fill="none" stroke="midnightblue" d="M75.2674,-266C85.7338,-266 97.1423,-266 107.9,-266"/>
<polygon fill="midnightblue" stroke="midnightblue" points="75.1742,-262.5 65.1742,-266 75.1741,-269.5 75.1742,-262.5"/>
</g>
<!-- Node13&#45;&gt;Node20 -->
<g id="edge18" class="edge"><title>Node13&#45;&gt;Node20</title>
<path fill="none" stroke="midnightblue" d="M73.3758,-278.814C113.041,-292.057 178.212,-312.265 236,-323 345.002,-343.249 374.31,-344.269 485,-338 490.834,-337.67 496.874,-337.217 502.932,-336.686"/>
<polygon fill="midnightblue" stroke="midnightblue" points="74.4552,-275.485 63.861,-275.607 72.2194,-282.118 74.4552,-275.485"/>
</g>
<!-- Node14 -->
<g id="node6" class="node"><title>Node14</title>
<g id="a_node6"><a xlink:href="interface_system_1_1_runtime_1_1_serialization_1_1_i_serializable.html" target="_top" xlink:title="Allows an object to control its own serialization and deserialization.">
<polygon fill="none" stroke="black" points="276.5,-79.5 276.5,-98.5 345.5,-98.5 345.5,-79.5 276.5,-79.5"/>
<text text-anchor="middle" x="311" y="-86.5" font-family="Helvetica,sans-Serif" font-size="10.00">ISerializable</text>
</a>
</g>
</g>
<!-- Node14&#45;&gt;Node10 -->
<g id="edge8" class="edge"><title>Node14&#45;&gt;Node10</title>
<path fill="none" stroke="midnightblue" d="M355.396,-98.4773C403.531,-108.989 480.761,-125.856 529.098,-136.412"/>
<polygon fill="midnightblue" stroke="midnightblue" points="356.103,-95.0494 345.587,-96.3351 354.61,-101.888 356.103,-95.0494"/>
</g>
<!-- Node15 -->
<g id="node7" class="node"><title>Node15</title>
<g id="a_node7"><a xlink:href="interface_system_1_1_runtime_1_1_remoting_1_1_messaging_1_1_i_serialization_root_object.html" target="_top" xlink:title=" ">
<polygon fill="none" stroke="black" points="250.5,-41.5 250.5,-60.5 371.5,-60.5 371.5,-41.5 250.5,-41.5"/>
<text text-anchor="middle" x="311" y="-48.5" font-family="Helvetica,sans-Serif" font-size="10.00">ISerializationRootObject</text>
</a>
</g>
</g>
<!-- Node15&#45;&gt;Node10 -->
<g id="edge9" class="edge"><title>Node15&#45;&gt;Node10</title>
<path fill="none" stroke="midnightblue" d="M361.887,-63.1002C369.985,-65.2673 378.253,-67.6031 386,-70 430.727,-83.8381 441.656,-88.2997 485,-106 508.771,-115.707 535.561,-128.099 553.271,-136.499"/>
<polygon fill="midnightblue" stroke="midnightblue" points="362.701,-59.6954 352.141,-60.5476 360.928,-66.467 362.701,-59.6954"/>
</g>
<!-- Node16 -->
<g id="node8" class="node"><title>Node16</title>
<g id="a_node8"><a xlink:href="interface_system_1_1_runtime_1_1_remoting_1_1_messaging_1_1_i_internal_message.html" target="_top" xlink:title=" ">
<polygon fill="none" stroke="black" points="266,-117.5 266,-136.5 356,-136.5 356,-117.5 266,-117.5"/>
<text text-anchor="middle" x="311" y="-124.5" font-family="Helvetica,sans-Serif" font-size="10.00">IInternalMessage</text>
</a>
</g>
</g>
<!-- Node16&#45;&gt;Node10 -->
<g id="edge10" class="edge"><title>Node16&#45;&gt;Node10</title>
<path fill="none" stroke="midnightblue" d="M366.431,-130.962C414.177,-134.438 482.796,-139.433 527.63,-142.697"/>
<polygon fill="midnightblue" stroke="midnightblue" points="366.503,-127.458 356.275,-130.223 365.995,-134.44 366.503,-127.458"/>
</g>
<!-- Node17 -->
<g id="node9" class="node"><title>Node17</title>
<g id="a_node9"><a xlink:href="interface_system_1_1_collections_1_1_i_dictionary.html" target="_top" xlink:title="Represents a nongeneric collection of key/value pairs.">
<polygon fill="none" stroke="black" points="236,-3.5 236,-22.5 386,-22.5 386,-3.5 236,-3.5"/>
<text text-anchor="middle" x="311" y="-10.5" font-family="Helvetica,sans-Serif" font-size="10.00">System.Collections.IDictionary</text>
</a>
</g>
</g>
<!-- Node17&#45;&gt;Node10 -->
<g id="edge11" class="edge"><title>Node17&#45;&gt;Node10</title>
<path fill="none" stroke="#9a32cd" stroke-dasharray="5,2" d="M396.183,-20.3804C425.71,-25.65 458.176,-34.6495 485,-50 523.462,-72.0103 554.613,-116.591 567.102,-136.279"/>
<polygon fill="#9a32cd" stroke="#9a32cd" points="396.733,-16.924 386.294,-18.7326 395.583,-23.8288 396.733,-16.924"/>
<text text-anchor="middle" x="444.5" y="-64" font-family="Helvetica,sans-Serif" font-size="10.00"> InternalProperties</text>
<text text-anchor="middle" x="444.5" y="-53" font-family="Helvetica,sans-Serif" font-size="10.00">ExternalProperties</text>
</g>
<!-- Node18 -->
<g id="node10" class="node"><title>Node18</title>
<g id="a_node10"><a xlink:href="interface_system_1_1_collections_1_1_i_collection.html" target="_top" xlink:title="Defines size, enumerators, and synchronization methods for all nongeneric collections.">
<polygon fill="none" stroke="black" points="122.5,-25.5 122.5,-44.5 184.5,-44.5 184.5,-25.5 122.5,-25.5"/>
<text text-anchor="middle" x="153.5" y="-32.5" font-family="Helvetica,sans-Serif" font-size="10.00">ICollection</text>
</a>
</g>
</g>
<!-- Node18&#45;&gt;Node17 -->
<g id="edge12" class="edge"><title>Node18&#45;&gt;Node17</title>
<path fill="none" stroke="midnightblue" d="M195.023,-29.2669C209.604,-27.2039 226.472,-24.8175 242.718,-22.5189"/>
<polygon fill="midnightblue" stroke="midnightblue" points="194.262,-25.8395 184.851,-30.706 195.243,-32.7705 194.262,-25.8395"/>
</g>
<!-- Node19 -->
<g id="node11" class="node"><title>Node19</title>
<g id="a_node11"><a xlink:href="interface_system_1_1_collections_1_1_i_enumerable.html" target="_top" xlink:title="Exposes an enumerator, which supports a simple iteration over a non&#45;generic collection....">
<polygon fill="none" stroke="black" points="0,-0.5 0,-19.5 71,-19.5 71,-0.5 0,-0.5"/>
<text text-anchor="middle" x="35.5" y="-7.5" font-family="Helvetica,sans-Serif" font-size="10.00">IEnumerable</text>
</a>
</g>
</g>
<!-- Node19&#45;&gt;Node17 -->
<g id="edge14" class="edge"><title>Node19&#45;&gt;Node17</title>
<path fill="none" stroke="midnightblue" d="M81.295,-10.4914C123.141,-10.9504 186.391,-11.6441 235.777,-12.1859"/>
<polygon fill="midnightblue" stroke="midnightblue" points="81.1768,-6.98994 71.139,-10.38 81.0999,-13.9895 81.1768,-6.98994"/>
</g>
<!-- Node19&#45;&gt;Node18 -->
<g id="edge13" class="edge"><title>Node19&#45;&gt;Node18</title>
<path fill="none" stroke="midnightblue" d="M81.1308,-19.6187C94.9529,-22.5976 109.846,-25.8074 122.434,-28.5202"/>
<polygon fill="midnightblue" stroke="midnightblue" points="81.8168,-16.1863 71.3038,-17.5008 80.342,-23.0291 81.8168,-16.1863"/>
</g>
<!-- Node20&#45;&gt;Node9 -->
<g id="edge15" class="edge"><title>Node20&#45;&gt;Node9</title>
<path fill="none" stroke="midnightblue" d="M632.725,-316.363C650.418,-312.796 670.142,-308.82 688.797,-305.06"/>
<polygon fill="midnightblue" stroke="midnightblue" points="631.678,-313.004 622.567,-318.411 633.061,-319.866 631.678,-313.004"/>
</g>
</g>
</svg>
        <g id="navigator" transform="translate(0 0)" fill="#404254">
                <rect fill="#f2f5e9" fill-opacity="0.5" stroke="#606060" stroke-width=".5" x="0" y="0" width="60" height="60"/>
                <use id="zoomplus" xlink:href="#zoomPlus" x="17" y="9" onmousedown="handleZoom(evt,'in')"/>
                <use id="zoomminus" xlink:href="#zoomMin" x="42" y="9" onmousedown="handleZoom(evt,'out')"/>
                <use id="reset" xlink:href="#resetDef" x="30" y="36" onmousedown="handleReset()"/>
                <g id="arrowUp" xlink:href="#dirArrow" transform="translate(30 24)" onmousedown="handlePan(0,-1)">
                  <use xlink:href="#rim" fill="#404040">
                        <set attributeName="fill" to="#808080" begin="arrowUp.mouseover" end="arrowUp.mouseout"/>
                  </use>
                  <path fill="none" stroke="white" stroke-width="1.5" d="M0,-3.0v7 M-2.5,-0.5L0,-3.0L2.5,-0.5"/>
                </g>
                <g id="arrowRight" xlink:href="#dirArrow" transform="rotate(90) translate(36 -43)" onmousedown="handlePan(1,0)">
                  <use xlink:href="#rim" fill="#404040">
                        <set attributeName="fill" to="#808080" begin="arrowRight.mouseover" end="arrowRight.mouseout"/>
                  </use>
                  <path fill="none" stroke="white" stroke-width="1.5" d="M0,-3.0v7 M-2.5,-0.5L0,-3.0L2.5,-0.5"/>
                </g>
                <g id="arrowDown" xlink:href="#dirArrow" transform="rotate(180) translate(-30 -48)" onmousedown="handlePan(0,1)">
                  <use xlink:href="#rim" fill="#404040">
                        <set attributeName="fill" to="#808080" begin="arrowDown.mouseover" end="arrowDown.mouseout"/>
                  </use>
                  <path fill="none" stroke="white" stroke-width="1.5" d="M0,-3.0v7 M-2.5,-0.5L0,-3.0L2.5,-0.5"/>
                </g>
                <g id="arrowLeft" xlink:href="#dirArrow" transform="rotate(270) translate(-36 17)" onmousedown="handlePan(-1,0)">
                  <use xlink:href="#rim" fill="#404040">
                        <set attributeName="fill" to="#808080" begin="arrowLeft.mouseover" end="arrowLeft.mouseout"/>
                  </use>
                  <path fill="none" stroke="white" stroke-width="1.5" d="M0,-3.0v7 M-2.5,-0.5L0,-3.0L2.5,-0.5"/>
                </g>
        </g>
        <svg viewBox="0 0 15 15" width="100%" height="30px" preserveAspectRatio="xMaxYMin meet">
         <g id="arrow_out" transform="scale(0.3 0.3)">
          <a xlink:href="class_system_1_1_runtime_1_1_remoting_1_1_messaging_1_1_construction_response__coll__graph_org.svg" target="_base">
           <rect id="button" ry="5" rx="5" y="6" x="6" height="38" width="38"
                fill="#f2f5e9" fill-opacity="0.5" stroke="#606060" stroke-width="1.0"/>
           <path id="arrow"
             d="M 11.500037,31.436501 C 11.940474,20.09759 22.043105,11.32322 32.158766,21.979434 L 37.068811,17.246167 C 37.068811,17.246167 37.088388,32 37.088388,32 L 22.160133,31.978069 C 22.160133,31.978069 26.997745,27.140456 26.997745,27.140456 C 18.528582,18.264221 13.291696,25.230495 11.500037,31.436501 z"
             style="fill:#404040;"/>
          </a>
         </g>
        </svg>
</svg>
