<?xml version="1.0" encoding="UTF-8" standalone="no"?>
<!DOCTYPE svg PUBLIC "-//W3C//DTD SVG 1.1//EN"
 "http://www.w3.org/Graphics/SVG/1.1/DTD/svg11.dtd">
<!-- Generated by graphviz version 2.38.0 (20140413.2041)
 -->
<!-- Title: System.Threading.PinnableBufferCacheEventSource Pages: 1 -->
<svg width="181pt" height="153pt"
 viewBox="0.00 0.00 181.00 153.00" xmlns="http://www.w3.org/2000/svg" xmlns:xlink="http://www.w3.org/1999/xlink">
<g id="graph0" class="graph" transform="scale(1 1) rotate(0) translate(4 149)">
<title>System.Threading.PinnableBufferCacheEventSource</title>
<!-- Node3 -->
<g id="node1" class="node"><title>Node3</title>
<g id="a_node1"><a xlink:title=" ">
<polygon fill="#bfbfbf" stroke="black" points="0,-0.5 0,-30.5 136,-30.5 136,-0.5 0,-0.5"/>
<text text-anchor="start" x="8" y="-18.5" font-family="Helvetica,sans-Serif" font-size="10.00">System.Threading.Pinnable</text>
<text text-anchor="middle" x="68" y="-7.5" font-family="Helvetica,sans-Serif" font-size="10.00">BufferCacheEventSource</text>
</a>
</g>
</g>
<!-- Node3&#45;&gt;Node3 -->
<g id="edge3" class="edge"><title>Node3&#45;&gt;Node3</title>
<path fill="none" stroke="#9a32cd" stroke-dasharray="5,2" d="M146.096,-19.9846C151.027,-18.9305 154,-17.4356 154,-15.5 154,-12.4785 146.755,-10.5311 136.129,-9.65768"/>
<polygon fill="#9a32cd" stroke="#9a32cd" points="145.565,-16.5245 136.129,-21.3423 146.51,-23.4604 145.565,-16.5245"/>
<text text-anchor="middle" x="163.5" y="-13" font-family="Helvetica,sans-Serif" font-size="10.00"> Log</text>
</g>
<!-- Node4 -->
<g id="node2" class="node"><title>Node4</title>
<g id="a_node2"><a xlink:href="class_system_1_1_diagnostics_1_1_tracing_1_1_event_source.html" target="_top" xlink:title="Provides the ability to create events for event tracing for Windows (ETW).">
<polygon fill="none" stroke="black" points="32.5,-68.5 32.5,-87.5 103.5,-87.5 103.5,-68.5 32.5,-68.5"/>
<text text-anchor="middle" x="68" y="-75.5" font-family="Helvetica,sans-Serif" font-size="10.00">EventSource</text>
</a>
</g>
</g>
<!-- Node4&#45;&gt;Node3 -->
<g id="edge1" class="edge"><title>Node4&#45;&gt;Node3</title>
<path fill="none" stroke="midnightblue" d="M68,-58.2154C68,-49.3565 68,-38.9577 68,-30.7587"/>
<polygon fill="midnightblue" stroke="midnightblue" points="64.5001,-58.3318 68,-68.3318 71.5001,-58.3319 64.5001,-58.3318"/>
</g>
<!-- Node5 -->
<g id="node3" class="node"><title>Node5</title>
<g id="a_node3"><a xlink:href="interface_system_1_1_i_disposable.html" target="_top" xlink:title="Provides a mechanism for releasing unmanaged resources.To browse the .NET Framework source code for t...">
<polygon fill="none" stroke="black" points="34.5,-125.5 34.5,-144.5 101.5,-144.5 101.5,-125.5 34.5,-125.5"/>
<text text-anchor="middle" x="68" y="-132.5" font-family="Helvetica,sans-Serif" font-size="10.00">IDisposable</text>
</a>
</g>
</g>
<!-- Node5&#45;&gt;Node4 -->
<g id="edge2" class="edge"><title>Node5&#45;&gt;Node4</title>
<path fill="none" stroke="midnightblue" d="M68,-115.117C68,-105.817 68,-95.0557 68,-87.7149"/>
<polygon fill="midnightblue" stroke="midnightblue" points="64.5001,-115.406 68,-125.406 71.5001,-115.406 64.5001,-115.406"/>
</g>
</g>
</svg>
