<?xml version="1.0" encoding="UTF-8" standalone="no"?>
<!DOCTYPE svg PUBLIC "-//W3C//DTD SVG 1.1//EN"
 "http://www.w3.org/Graphics/SVG/1.1/DTD/svg11.dtd">
<!-- Generated by graphviz version 2.38.0 (20140413.2041)
 -->
<!-- Title: System.Security.Policy.StrongNameMembershipCondition Pages: 1 -->
<svg width="265pt" height="151pt"
 viewBox="0.00 0.00 264.50 151.00" xmlns="http://www.w3.org/2000/svg" xmlns:xlink="http://www.w3.org/1999/xlink">
<g id="graph0" class="graph" transform="scale(1 1) rotate(0) translate(4 147)">
<title>System.Security.Policy.StrongNameMembershipCondition</title>
<!-- Node4 -->
<g id="node1" class="node"><title>Node4</title>
<g id="a_node1"><a xlink:title="Determines whether an assembly belongs to a code group by testing its strong name....">
<polygon fill="#bfbfbf" stroke="black" points="42,-0.5 42,-30.5 193,-30.5 193,-0.5 42,-0.5"/>
<text text-anchor="start" x="50" y="-18.5" font-family="Helvetica,sans-Serif" font-size="10.00">System.Security.Policy.Strong</text>
<text text-anchor="middle" x="117.5" y="-7.5" font-family="Helvetica,sans-Serif" font-size="10.00">NameMembershipCondition</text>
</a>
</g>
</g>
<!-- Node5 -->
<g id="node2" class="node"><title>Node5</title>
<g id="a_node2"><a xlink:href="interface_system_1_1_security_1_1_policy_1_1_i_membership_condition.html" target="_top" xlink:title="Defines the test to determine whether a code assembly is a member of a code group.">
<polygon fill="none" stroke="black" points="61,-67.5 61,-86.5 174,-86.5 174,-67.5 61,-67.5"/>
<text text-anchor="middle" x="117.5" y="-74.5" font-family="Helvetica,sans-Serif" font-size="10.00">IMembershipCondition</text>
</a>
</g>
</g>
<!-- Node5&#45;&gt;Node4 -->
<g id="edge1" class="edge"><title>Node5&#45;&gt;Node4</title>
<path fill="none" stroke="midnightblue" d="M117.5,-57.2349C117.5,-48.5864 117.5,-38.4969 117.5,-30.523"/>
<polygon fill="midnightblue" stroke="midnightblue" points="114,-57.4751 117.5,-67.4751 121,-57.4751 114,-57.4751"/>
</g>
<!-- Node6 -->
<g id="node3" class="node"><title>Node6</title>
<g id="a_node3"><a xlink:href="interface_system_1_1_security_1_1_i_security_encodable.html" target="_top" xlink:title="Defines the methods that convert permission object state to and from XML element representation.">
<polygon fill="none" stroke="black" points="0,-123.5 0,-142.5 101,-142.5 101,-123.5 0,-123.5"/>
<text text-anchor="middle" x="50.5" y="-130.5" font-family="Helvetica,sans-Serif" font-size="10.00">ISecurityEncodable</text>
</a>
</g>
</g>
<!-- Node6&#45;&gt;Node4 -->
<g id="edge4" class="edge"><title>Node6&#45;&gt;Node4</title>
<path fill="none" stroke="midnightblue" d="M46.6373,-113.38C44.7737,-99.7958 44.2821,-81.3325 51.5,-67 59.4171,-51.2791 74.7776,-39.0731 88.6889,-30.6022"/>
<polygon fill="midnightblue" stroke="midnightblue" points="43.2259,-114.192 48.3864,-123.445 50.1226,-112.993 43.2259,-114.192"/>
</g>
<!-- Node6&#45;&gt;Node5 -->
<g id="edge2" class="edge"><title>Node6&#45;&gt;Node5</title>
<path fill="none" stroke="midnightblue" d="M69.3348,-116.82C81.3384,-107.145 96.4717,-94.9481 106.539,-86.8339"/>
<polygon fill="midnightblue" stroke="midnightblue" points="66.8543,-114.324 61.2647,-123.324 71.247,-119.774 66.8543,-114.324"/>
</g>
<!-- Node7 -->
<g id="node4" class="node"><title>Node7</title>
<g id="a_node4"><a xlink:href="interface_system_1_1_security_1_1_i_security_policy_encodable.html" target="_top" xlink:title="Supports the methods that convert permission object state to and from an XML element representation.">
<polygon fill="none" stroke="black" points="128.5,-123.5 128.5,-142.5 256.5,-142.5 256.5,-123.5 128.5,-123.5"/>
<text text-anchor="middle" x="192.5" y="-130.5" font-family="Helvetica,sans-Serif" font-size="10.00">ISecurityPolicyEncodable</text>
</a>
</g>
</g>
<!-- Node7&#45;&gt;Node4 -->
<g id="edge5" class="edge"><title>Node7&#45;&gt;Node4</title>
<path fill="none" stroke="midnightblue" d="M193.206,-113.18C192.9,-99.4957 190.727,-80.995 182.5,-67 173.447,-51.6011 157.738,-39.2 144.031,-30.5406"/>
<polygon fill="midnightblue" stroke="midnightblue" points="189.705,-113.306 193.116,-123.337 196.705,-113.368 189.705,-113.306"/>
</g>
<!-- Node7&#45;&gt;Node5 -->
<g id="edge3" class="edge"><title>Node7&#45;&gt;Node5</title>
<path fill="none" stroke="midnightblue" d="M172.195,-117.38C158.639,-107.62 141.258,-95.1057 129.769,-86.8339"/>
<polygon fill="midnightblue" stroke="midnightblue" points="170.29,-120.321 180.45,-123.324 174.38,-114.641 170.29,-120.321"/>
</g>
</g>
</svg>
