<?xml version="1.0" encoding="UTF-8" standalone="no"?>
<!DOCTYPE svg PUBLIC "-//W3C//DTD SVG 1.1//EN"
 "http://www.w3.org/Graphics/SVG/1.1/DTD/svg11.dtd">
<!-- Generated by graphviz version 2.38.0 (20140413.2041)
 -->
<!-- Title: System.Collections.Generic.List&lt; T &gt; Pages: 1 -->
<svg width="564pt" height="322pt"
 viewBox="0.00 0.00 564.00 321.60" xmlns="http://www.w3.org/2000/svg" xmlns:xlink="http://www.w3.org/1999/xlink">
<g id="graph0" class="graph" transform="scale(1 1) rotate(0) translate(4 317.603)">
<title>System.Collections.Generic.List&lt; T &gt;</title>
<!-- Node71 -->
<g id="node1" class="node"><title>Node71</title>
<g id="a_node1"><a xlink:title="Represents a strongly typed list of objects that can be accessed by index. Provides methods to search...">
<polygon fill="#bfbfbf" stroke="black" points="415,-166 415,-196 556,-196 556,-166 415,-166"/>
<text text-anchor="start" x="423" y="-184" font-family="Helvetica,sans-Serif" font-size="10.00">System.Collections.Generic.</text>
<text text-anchor="middle" x="485.5" y="-173" font-family="Helvetica,sans-Serif" font-size="10.00">List&lt; T &gt;</text>
</a>
</g>
</g>
<!-- Node72 -->
<g id="node2" class="node"><title>Node72</title>
<g id="a_node2"><a xlink:href="interface_system_1_1_collections_1_1_generic_1_1_i_list.html" target="_top" xlink:title="Represents a collection of objects that can be individually accessed by index.">
<polygon fill="none" stroke="black" points="286,-190.5 286,-209.5 344,-209.5 344,-190.5 286,-190.5"/>
<text text-anchor="middle" x="315" y="-197.5" font-family="Helvetica,sans-Serif" font-size="10.00">IList&lt; T &gt;</text>
</a>
</g>
</g>
<!-- Node72&#45;&gt;Node71 -->
<g id="edge1" class="edge"><title>Node72&#45;&gt;Node71</title>
<path fill="none" stroke="midnightblue" d="M354.243,-195.688C372.145,-193.669 394.045,-191.2 414.743,-188.866"/>
<polygon fill="midnightblue" stroke="midnightblue" points="353.748,-192.221 344.203,-196.82 354.532,-199.177 353.748,-192.221"/>
</g>
<!-- Node73 -->
<g id="node3" class="node"><title>Node73</title>
<g id="a_node3"><a xlink:href="interface_system_1_1_collections_1_1_generic_1_1_i_collection.html" target="_top" xlink:title="Defines methods to manipulate generic collections.">
<polygon fill="none" stroke="black" points="130,-228.5 130,-247.5 215,-247.5 215,-228.5 130,-228.5"/>
<text text-anchor="middle" x="172.5" y="-235.5" font-family="Helvetica,sans-Serif" font-size="10.00">ICollection&lt; T &gt;</text>
</a>
</g>
</g>
<!-- Node73&#45;&gt;Node71 -->
<g id="edge7" class="edge"><title>Node73&#45;&gt;Node71</title>
<path fill="none" stroke="midnightblue" d="M225.546,-236.823C267.429,-235.009 327.575,-230.443 379,-219 403.134,-213.63 429.287,-204.235 449.516,-196.132"/>
<polygon fill="midnightblue" stroke="midnightblue" points="225.161,-233.336 215.307,-237.228 225.438,-240.33 225.161,-233.336"/>
</g>
<!-- Node73&#45;&gt;Node72 -->
<g id="edge2" class="edge"><title>Node73&#45;&gt;Node72</title>
<path fill="none" stroke="midnightblue" d="M218.75,-225.762C240.727,-219.818 266.457,-212.859 285.631,-207.673"/>
<polygon fill="midnightblue" stroke="midnightblue" points="217.693,-222.421 208.954,-228.411 219.521,-229.179 217.693,-222.421"/>
</g>
<!-- Node77 -->
<g id="node6" class="node"><title>Node77</title>
<g id="a_node6"><a xlink:href="interface_system_1_1_collections_1_1_generic_1_1_i_list.html" target="_top" xlink:title="Represents a collection of objects that can be individually accessed by index.">
<polygon fill="none" stroke="black" points="297.5,-266.5 297.5,-285.5 332.5,-285.5 332.5,-266.5 297.5,-266.5"/>
<text text-anchor="middle" x="315" y="-273.5" font-family="Helvetica,sans-Serif" font-size="10.00">IList</text>
</a>
</g>
</g>
<!-- Node73&#45;&gt;Node77 -->
<g id="edge11" class="edge"><title>Node73&#45;&gt;Node77</title>
<path fill="none" stroke="midnightblue" d="M218.917,-250.284C245.721,-257.533 278.061,-266.28 297.279,-271.478"/>
<polygon fill="midnightblue" stroke="midnightblue" points="219.521,-246.821 208.954,-247.589 217.693,-253.579 219.521,-246.821"/>
</g>
<!-- Node74 -->
<g id="node4" class="node"><title>Node74</title>
<g id="a_node4"><a xlink:href="interface_system_1_1_collections_1_1_generic_1_1_i_enumerable.html" target="_top" xlink:title=" ">
<polygon fill="none" stroke="red" points="0,-228.5 0,-247.5 94,-247.5 94,-228.5 0,-228.5"/>
<text text-anchor="middle" x="47" y="-235.5" font-family="Helvetica,sans-Serif" font-size="10.00">IEnumerable&lt; T &gt;</text>
</a>
</g>
</g>
<!-- Node74&#45;&gt;Node71 -->
<g id="edge8" class="edge"><title>Node74&#45;&gt;Node71</title>
<path fill="none" stroke="midnightblue" d="M62.3586,-255.769C77.2311,-272.627 102.166,-296.847 130,-307 172.128,-322.366 356.206,-305.97 379,-295 424.681,-273.014 460.165,-221.839 475.793,-196.203"/>
<polygon fill="midnightblue" stroke="midnightblue" points="64.678,-253.093 55.5363,-247.737 59.343,-257.625 64.678,-253.093"/>
</g>
<!-- Node74&#45;&gt;Node72 -->
<g id="edge5" class="edge"><title>Node74&#45;&gt;Node72</title>
<path fill="none" stroke="midnightblue" d="M94.7755,-226.101C106.24,-223.479 118.517,-220.916 130,-219 184.801,-209.858 249.564,-204.395 285.798,-201.814"/>
<polygon fill="midnightblue" stroke="midnightblue" points="93.8861,-222.715 84.9498,-228.406 95.4848,-229.53 93.8861,-222.715"/>
</g>
<!-- Node74&#45;&gt;Node73 -->
<g id="edge3" class="edge"><title>Node74&#45;&gt;Node73</title>
<path fill="none" stroke="midnightblue" d="M104.58,-238C113.066,-238 121.683,-238 129.784,-238"/>
<polygon fill="midnightblue" stroke="midnightblue" points="104.338,-234.5 94.3382,-238 104.338,-241.5 104.338,-234.5"/>
</g>
<!-- Node74&#45;&gt;Node77 -->
<g id="edge12" class="edge"><title>Node74&#45;&gt;Node77</title>
<path fill="none" stroke="midnightblue" d="M66.5172,-254.115C82.2177,-266.64 105.96,-283.02 130,-290 189.686,-307.33 264.578,-290.354 297.353,-281.115"/>
<polygon fill="midnightblue" stroke="midnightblue" points="68.611,-251.305 58.6712,-247.637 64.1542,-256.703 68.611,-251.305"/>
</g>
<!-- Node78 -->
<g id="node7" class="node"><title>Node78</title>
<g id="a_node7"><a xlink:href="interface_system_1_1_collections_1_1_generic_1_1_i_collection.html" target="_top" xlink:title="Defines methods to manipulate generic collections.">
<polygon fill="none" stroke="black" points="141.5,-152.5 141.5,-171.5 203.5,-171.5 203.5,-152.5 141.5,-152.5"/>
<text text-anchor="middle" x="172.5" y="-159.5" font-family="Helvetica,sans-Serif" font-size="10.00">ICollection</text>
</a>
</g>
</g>
<!-- Node74&#45;&gt;Node78 -->
<g id="edge15" class="edge"><title>Node74&#45;&gt;Node78</title>
<path fill="none" stroke="midnightblue" d="M71.5485,-222.708C87.8528,-212.209 110.114,-198.049 130,-186 137.973,-181.17 146.912,-175.972 154.447,-171.653"/>
<polygon fill="midnightblue" stroke="midnightblue" points="69.2014,-220.057 62.7001,-228.423 72.9993,-225.938 69.2014,-220.057"/>
</g>
<!-- Node76 -->
<g id="node5" class="node"><title>Node76</title>
<g id="a_node5"><a xlink:href="interface_system_1_1_collections_1_1_i_enumerable.html" target="_top" xlink:title="Exposes an enumerator, which supports a simple iteration over a non&#45;generic collection....">
<polygon fill="none" stroke="black" points="11.5,-152.5 11.5,-171.5 82.5,-171.5 82.5,-152.5 11.5,-152.5"/>
<text text-anchor="middle" x="47" y="-159.5" font-family="Helvetica,sans-Serif" font-size="10.00">IEnumerable</text>
</a>
</g>
</g>
<!-- Node76&#45;&gt;Node71 -->
<g id="edge9" class="edge"><title>Node76&#45;&gt;Node71</title>
<path fill="none" stroke="midnightblue" d="M78.1218,-148.576C93.3434,-142.514 112.298,-136.038 130,-133 240.487,-114.038 371.405,-145.678 439.015,-165.99"/>
<polygon fill="midnightblue" stroke="midnightblue" points="76.6177,-145.411 68.7088,-152.461 79.2878,-151.881 76.6177,-145.411"/>
</g>
<!-- Node76&#45;&gt;Node72 -->
<g id="edge6" class="edge"><title>Node76&#45;&gt;Node72</title>
<path fill="none" stroke="midnightblue" d="M86.297,-149.677C120.537,-140.528 171.825,-131.459 215,-143 249.488,-152.219 284.421,-176.654 302.123,-190.349"/>
<polygon fill="midnightblue" stroke="midnightblue" points="84.9292,-146.425 76.246,-152.496 86.8197,-153.165 84.9292,-146.425"/>
</g>
<!-- Node76&#45;&gt;Node73 -->
<g id="edge4" class="edge"><title>Node76&#45;&gt;Node73</title>
<path fill="none" stroke="midnightblue" d="M72.4673,-177.057C97.2993,-192.338 134.988,-215.531 155.986,-228.453"/>
<polygon fill="midnightblue" stroke="midnightblue" points="73.9923,-173.886 63.6414,-171.625 70.3236,-179.847 73.9923,-173.886"/>
</g>
<!-- Node76&#45;&gt;Node77 -->
<g id="edge13" class="edge"><title>Node76&#45;&gt;Node77</title>
<path fill="none" stroke="midnightblue" d="M61.9479,-179.524C82.9405,-205.682 121.149,-252.383 130,-257 185.665,-286.037 263.618,-281.805 297.354,-278.183"/>
<polygon fill="midnightblue" stroke="midnightblue" points="64.5349,-177.155 55.556,-171.531 59.0679,-181.526 64.5349,-177.155"/>
</g>
<!-- Node76&#45;&gt;Node78 -->
<g id="edge16" class="edge"><title>Node76&#45;&gt;Node78</title>
<path fill="none" stroke="midnightblue" d="M92.9887,-162C109.034,-162 126.713,-162 141.226,-162"/>
<polygon fill="midnightblue" stroke="midnightblue" points="92.7303,-158.5 82.7303,-162 92.7303,-165.5 92.7303,-158.5"/>
</g>
<!-- Node77&#45;&gt;Node71 -->
<g id="edge10" class="edge"><title>Node77&#45;&gt;Node71</title>
<path fill="none" stroke="midnightblue" d="M342.282,-267.504C353.812,-263.394 367.346,-258.04 379,-252 410.754,-235.542 444.567,-211.482 465.117,-196.031"/>
<polygon fill="midnightblue" stroke="midnightblue" points="341.079,-264.216 332.763,-270.781 343.358,-270.835 341.079,-264.216"/>
</g>
<!-- Node78&#45;&gt;Node71 -->
<g id="edge14" class="edge"><title>Node78&#45;&gt;Node71</title>
<path fill="none" stroke="midnightblue" d="M213.874,-164.467C264.777,-167.576 353.096,-172.972 414.955,-176.751"/>
<polygon fill="midnightblue" stroke="midnightblue" points="213.797,-160.955 203.603,-163.839 213.37,-167.942 213.797,-160.955"/>
</g>
<!-- Node79 -->
<g id="node8" class="node"><title>Node79</title>
<g id="a_node8"><a xlink:href="interface_system_1_1_collections_1_1_generic_1_1_i_read_only_list.html" target="_top" xlink:title=" ">
<polygon fill="none" stroke="red" points="264.5,-38.5 264.5,-57.5 365.5,-57.5 365.5,-38.5 264.5,-38.5"/>
<text text-anchor="middle" x="315" y="-45.5" font-family="Helvetica,sans-Serif" font-size="10.00">IReadOnlyList&lt; T &gt;</text>
</a>
</g>
</g>
<!-- Node79&#45;&gt;Node71 -->
<g id="edge17" class="edge"><title>Node79&#45;&gt;Node71</title>
<path fill="none" stroke="midnightblue" d="M358.623,-61.3014C365.695,-64.3226 372.752,-67.8811 379,-72 419.238,-98.5265 455.859,-142.828 473.472,-165.936"/>
<polygon fill="midnightblue" stroke="midnightblue" points="359.631,-57.9363 349.045,-57.5126 357.057,-64.4456 359.631,-57.9363"/>
</g>
<!-- Node81 -->
<g id="node9" class="node"><title>Node81</title>
<g id="a_node9"><a xlink:href="interface_system_1_1_collections_1_1_generic_1_1_i_read_only_collection.html" target="_top" xlink:title=" ">
<polygon fill="none" stroke="red" points="251,-0.5 251,-19.5 379,-19.5 379,-0.5 251,-0.5"/>
<text text-anchor="middle" x="315" y="-7.5" font-family="Helvetica,sans-Serif" font-size="10.00">IReadOnlyCollection&lt; T &gt;</text>
</a>
</g>
</g>
<!-- Node81&#45;&gt;Node71 -->
<g id="edge18" class="edge"><title>Node81&#45;&gt;Node71</title>
<path fill="none" stroke="midnightblue" d="M370.436,-23.7294C373.439,-25.3019 376.32,-27.0522 379,-29 429.93,-66.0153 464.715,-135.451 478.224,-165.965"/>
<polygon fill="midnightblue" stroke="midnightblue" points="371.699,-20.4589 361.145,-19.5251 368.813,-26.8364 371.699,-20.4589"/>
</g>
</g>
</svg>
