<?xml version="1.0" encoding="UTF-8" standalone="no"?>
<!DOCTYPE svg PUBLIC "-//W3C//DTD SVG 1.1//EN"
 "http://www.w3.org/Graphics/SVG/1.1/DTD/svg11.dtd">
<!-- Generated by graphviz version 2.38.0 (20140413.2041)
 -->
<!-- Title: System.Collections.Specialized.StringDictionary Pages: 1 -->
<svg width="249pt" height="174pt"
 viewBox="0.00 0.00 248.50 174.00" xmlns="http://www.w3.org/2000/svg" xmlns:xlink="http://www.w3.org/1999/xlink">
<g id="graph0" class="graph" transform="scale(1 1) rotate(0) translate(4 170)">
<title>System.Collections.Specialized.StringDictionary</title>
<!-- Node2 -->
<g id="node1" class="node"><title>Node2</title>
<g id="a_node1"><a xlink:title="Implements a hash table with the key and the value strongly typed to be strings rather than objects.">
<polygon fill="#bfbfbf" stroke="black" points="0,-0.5 0,-30.5 158,-30.5 158,-0.5 0,-0.5"/>
<text text-anchor="start" x="8" y="-18.5" font-family="Helvetica,sans-Serif" font-size="10.00">System.Collections.Specialized.</text>
<text text-anchor="middle" x="79" y="-7.5" font-family="Helvetica,sans-Serif" font-size="10.00">StringDictionary</text>
</a>
</g>
</g>
<!-- Node3 -->
<g id="node2" class="node"><title>Node3</title>
<g id="a_node2"><a xlink:href="interface_system_1_1_collections_1_1_i_enumerable.html" target="_top" xlink:title="Exposes an enumerator, which supports a simple iteration over a non&#45;generic collection....">
<polygon fill="none" stroke="black" points="59.5,-146.5 59.5,-165.5 130.5,-165.5 130.5,-146.5 59.5,-146.5"/>
<text text-anchor="middle" x="95" y="-153.5" font-family="Helvetica,sans-Serif" font-size="10.00">IEnumerable</text>
</a>
</g>
</g>
<!-- Node3&#45;&gt;Node2 -->
<g id="edge1" class="edge"><title>Node3&#45;&gt;Node2</title>
<path fill="none" stroke="midnightblue" d="M88.684,-136.571C86.122,-128.252 83.4332,-118.237 82,-109 77.7383,-81.5319 77.8665,-48.9457 78.3976,-30.703"/>
<polygon fill="midnightblue" stroke="midnightblue" points="85.4358,-137.899 91.8627,-146.322 92.0911,-135.73 85.4358,-137.899"/>
</g>
<!-- Node4 -->
<g id="node3" class="node"><title>Node4</title>
<g id="a_node3"><a xlink:href="interface_system_1_1_collections_1_1_i_collection.html" target="_top" xlink:title="Defines size, enumerators, and synchronization methods for all nongeneric collections.">
<polygon fill="none" stroke="black" points="91.5,-89.5 91.5,-108.5 240.5,-108.5 240.5,-89.5 91.5,-89.5"/>
<text text-anchor="middle" x="166" y="-96.5" font-family="Helvetica,sans-Serif" font-size="10.00">System.Collections.ICollection</text>
</a>
</g>
</g>
<!-- Node3&#45;&gt;Node4 -->
<g id="edge3" class="edge"><title>Node3&#45;&gt;Node4</title>
<path fill="none" stroke="midnightblue" d="M114.366,-139.998C127.322,-129.962 143.92,-117.104 154.75,-108.715"/>
<polygon fill="midnightblue" stroke="midnightblue" points="111.856,-137.515 106.094,-146.406 116.143,-143.049 111.856,-137.515"/>
</g>
<!-- Node4&#45;&gt;Node2 -->
<g id="edge2" class="edge"><title>Node4&#45;&gt;Node2</title>
<path fill="none" stroke="#9a32cd" stroke-dasharray="5,2" d="M149.132,-82.1983C133.158,-67.2341 109.395,-44.9738 94.0487,-30.5974"/>
<polygon fill="#9a32cd" stroke="#9a32cd" points="146.999,-84.9957 156.689,-89.2781 151.784,-79.8871 146.999,-84.9957"/>
<text text-anchor="middle" x="152" y="-63" font-family="Helvetica,sans-Serif" font-size="10.00"> Values</text>
<text text-anchor="middle" x="152" y="-52" font-family="Helvetica,sans-Serif" font-size="10.00">Keys</text>
</g>
</g>
</svg>
