<?xml version="1.0" encoding="UTF-8" standalone="no"?>
<!DOCTYPE svg PUBLIC "-//W3C//DTD SVG 1.1//EN"
 "http://www.w3.org/Graphics/SVG/1.1/DTD/svg11.dtd">
<!-- Generated by graphviz version 2.38.0 (20140413.2041)
 -->
<!-- Title: System.Security.Permissions.CodeAccessSecurityAttribute Pages: 1 -->
<!--zoomable 872 -->
<svg id="main" version="1.1" xmlns="http://www.w3.org/2000/svg" xmlns:xlink="http://www.w3.org/1999/xlink" xml:space="preserve" onload="init(evt)">
<style type="text/css"><![CDATA[
.edge:hover path { stroke: red; }
.edge:hover polygon { stroke: red; fill: red; }
]]></style>
<script type="text/javascript"><![CDATA[
var edges = document.getElementsByTagName('g');
if (edges && edges.length) {
  for (var i=0;i<edges.length;i++) {
    if (edges[i].id.substr(0,4)=='edge') {
      edges[i].setAttribute('class','edge');
    }
  }
}
]]></script>
        <defs>
                <circle id="rim" cx="0" cy="0" r="7"/>
                <circle id="rim2" cx="0" cy="0" r="3.5"/>
                <g id="zoomPlus">
                        <use xlink:href="#rim" fill="#404040">
                                <set attributeName="fill" to="#808080" begin="zoomplus.mouseover" end="zoomplus.mouseout"/>
                        </use>
                        <path d="M-4,0h8M0,-4v8" fill="none" stroke="white" stroke-width="1.5" pointer-events="none"/>
                </g>
                <g id="zoomMin">
                        <use xlink:href="#rim" fill="#404040">
                                <set attributeName="fill" to="#808080" begin="zoomminus.mouseover" end="zoomminus.mouseout"/>
                        </use>
                        <path d="M-4,0h8" fill="none" stroke="white" stroke-width="1.5" pointer-events="none"/>
                </g>
                <g id="dirArrow">
                        <path fill="none" stroke="white" stroke-width="1.5" d="M0,-3.0v7 M-2.5,-0.5L0,-3.0L2.5,-0.5"/>
                </g>
               <g id="resetDef">
                       <use xlink:href="#rim2" fill="#404040">
                               <set attributeName="fill" to="#808080" begin="reset.mouseover" end="reset.mouseout"/>
                       </use>
               </g>
        </defs>

<script type="text/javascript">
var viewWidth = 911;
var viewHeight = 872;
var sectionId = 'dynsection-0';
</script>
<script xlink:href="svgpan.js"/>
<svg id="graph" class="graph">
<g id="viewport">
<title>System.Security.Permissions.CodeAccessSecurityAttribute</title>
<!-- Node0 -->
<g id="node1" class="node"><title>Node0</title>
<g id="a_node1"><a xlink:title="Specifies the base attribute class for code access security.">
<polygon fill="#bfbfbf" stroke="black" points="309,-416.5 309,-446.5 458,-446.5 458,-416.5 309,-416.5"/>
<text text-anchor="start" x="317" y="-434.5" font-family="Helvetica,sans-Serif" font-size="10.00">System.Security.Permissions.</text>
<text text-anchor="middle" x="383.5" y="-423.5" font-family="Helvetica,sans-Serif" font-size="10.00">CodeAccessSecurityAttribute</text>
</a>
</g>
</g>
<!-- Node4 -->
<g id="node5" class="node"><title>Node4</title>
<g id="a_node5"><a xlink:href="class_system_1_1_security_1_1_permissions_1_1_environment_permission_attribute.html" target="_top" xlink:title="Allows security actions for T:System.Security.Permissions.EnvironmentPermission to be applied to code...">
<polygon fill="none" stroke="black" points="510.5,-833.5 510.5,-863.5 665.5,-863.5 665.5,-833.5 510.5,-833.5"/>
<text text-anchor="start" x="518.5" y="-851.5" font-family="Helvetica,sans-Serif" font-size="10.00">System.Security.Permissions.</text>
<text text-anchor="middle" x="588" y="-840.5" font-family="Helvetica,sans-Serif" font-size="10.00">EnvironmentPermissionAttribute</text>
</a>
</g>
</g>
<!-- Node0&#45;&gt;Node4 -->
<g id="edge4" class="edge"><title>Node0&#45;&gt;Node4</title>
<path fill="none" stroke="midnightblue" d="M383.589,-456.889C382.558,-526.163 389.627,-720.143 494,-823.5 498.752,-828.206 504.289,-832.051 510.251,-835.19"/>
<polygon fill="midnightblue" stroke="midnightblue" points="387.088,-456.95 383.81,-446.875 380.09,-456.795 387.088,-456.95"/>
</g>
<!-- Node5 -->
<g id="node6" class="node"><title>Node5</title>
<g id="a_node6"><a xlink:href="class_system_1_1_security_1_1_permissions_1_1_file_dialog_permission_attribute.html" target="_top" xlink:title="Allows security actions for T:System.Security.Permissions.FileDialogPermission to be applied to code ...">
<polygon fill="none" stroke="black" points="513.5,-784.5 513.5,-814.5 662.5,-814.5 662.5,-784.5 513.5,-784.5"/>
<text text-anchor="start" x="521.5" y="-802.5" font-family="Helvetica,sans-Serif" font-size="10.00">System.Security.Permissions.</text>
<text text-anchor="middle" x="588" y="-791.5" font-family="Helvetica,sans-Serif" font-size="10.00">FileDialogPermissionAttribute</text>
</a>
</g>
</g>
<!-- Node0&#45;&gt;Node5 -->
<g id="edge5" class="edge"><title>Node0&#45;&gt;Node5</title>
<path fill="none" stroke="midnightblue" d="M384.794,-457.086C386.961,-520.535 401.655,-686.344 494,-774.5 499.563,-779.811 506.129,-784.02 513.159,-787.352"/>
<polygon fill="midnightblue" stroke="midnightblue" points="388.285,-456.709 384.525,-446.804 381.288,-456.892 388.285,-456.709"/>
</g>
<!-- Node6 -->
<g id="node7" class="node"><title>Node6</title>
<g id="a_node7"><a xlink:href="class_system_1_1_security_1_1_permissions_1_1_file_i_o_permission_attribute.html" target="_top" xlink:title="Allows security actions for T:System.Security.Permissions.FileIOPermission to be applied to code usin...">
<polygon fill="none" stroke="black" points="513.5,-735.5 513.5,-765.5 662.5,-765.5 662.5,-735.5 513.5,-735.5"/>
<text text-anchor="start" x="521.5" y="-753.5" font-family="Helvetica,sans-Serif" font-size="10.00">System.Security.Permissions.</text>
<text text-anchor="middle" x="588" y="-742.5" font-family="Helvetica,sans-Serif" font-size="10.00">FileIOPermissionAttribute</text>
</a>
</g>
</g>
<!-- Node0&#45;&gt;Node6 -->
<g id="edge6" class="edge"><title>Node0&#45;&gt;Node6</title>
<path fill="none" stroke="midnightblue" d="M386.349,-456.89C391.888,-513.76 413.378,-652.116 494,-725.5 499.687,-730.677 506.334,-734.801 513.411,-738.082"/>
<polygon fill="midnightblue" stroke="midnightblue" points="389.811,-456.298 385.441,-446.646 382.838,-456.916 389.811,-456.298"/>
</g>
<!-- Node7 -->
<g id="node8" class="node"><title>Node7</title>
<g id="a_node8"><a xlink:href="class_system_1_1_security_1_1_permissions_1_1_gac_identity_permission_attribute.html" target="_top" xlink:title="Allows security actions for T:System.Security.Permissions.GacIdentityPermission to be applied to code...">
<polygon fill="none" stroke="black" points="512,-686.5 512,-716.5 664,-716.5 664,-686.5 512,-686.5"/>
<text text-anchor="start" x="520" y="-704.5" font-family="Helvetica,sans-Serif" font-size="10.00">System.Security.Permissions.</text>
<text text-anchor="middle" x="588" y="-693.5" font-family="Helvetica,sans-Serif" font-size="10.00">GacIdentityPermissionAttribute</text>
</a>
</g>
</g>
<!-- Node0&#45;&gt;Node7 -->
<g id="edge7" class="edge"><title>Node0&#45;&gt;Node7</title>
<path fill="none" stroke="midnightblue" d="M388.393,-456.42C397.485,-506.035 424.836,-617.465 494,-676.5 499.341,-681.059 505.433,-684.795 511.885,-687.855"/>
<polygon fill="midnightblue" stroke="midnightblue" points="391.837,-455.795 386.678,-446.542 384.941,-456.993 391.837,-455.795"/>
</g>
<!-- Node8 -->
<g id="node9" class="node"><title>Node8</title>
<g id="a_node9"><a xlink:href="class_system_1_1_security_1_1_permissions_1_1_host_protection_attribute.html" target="_top" xlink:title="Allows the use of declarative security actions to determine host protection requirements....">
<polygon fill="none" stroke="black" points="513.5,-637.5 513.5,-667.5 662.5,-667.5 662.5,-637.5 513.5,-637.5"/>
<text text-anchor="start" x="521.5" y="-655.5" font-family="Helvetica,sans-Serif" font-size="10.00">System.Security.Permissions.</text>
<text text-anchor="middle" x="588" y="-644.5" font-family="Helvetica,sans-Serif" font-size="10.00">HostProtectionAttribute</text>
</a>
</g>
</g>
<!-- Node0&#45;&gt;Node8 -->
<g id="edge8" class="edge"><title>Node0&#45;&gt;Node8</title>
<path fill="none" stroke="midnightblue" d="M391.421,-456.373C404.375,-498.226 436.321,-582.553 494,-627.5 499.803,-632.022 506.358,-635.728 513.236,-638.765"/>
<polygon fill="midnightblue" stroke="midnightblue" points="394.747,-455.278 388.533,-446.697 388.039,-457.28 394.747,-455.278"/>
</g>
<!-- Node9 -->
<g id="node10" class="node"><title>Node9</title>
<g id="a_node10"><a xlink:href="class_system_1_1_security_1_1_permissions_1_1_isolated_storage_permission_attribute.html" target="_top" xlink:title="Allows security actions for T:System.Security.Permissions.IsolatedStoragePermission to be applied to ...">
<polygon fill="none" stroke="black" points="503,-588.5 503,-618.5 673,-618.5 673,-588.5 503,-588.5"/>
<text text-anchor="start" x="511" y="-606.5" font-family="Helvetica,sans-Serif" font-size="10.00">System.Security.Permissions.</text>
<text text-anchor="middle" x="588" y="-595.5" font-family="Helvetica,sans-Serif" font-size="10.00">IsolatedStoragePermissionAttribute</text>
</a>
</g>
</g>
<!-- Node0&#45;&gt;Node9 -->
<g id="edge9" class="edge"><title>Node0&#45;&gt;Node9</title>
<path fill="none" stroke="midnightblue" d="M396.116,-455.973C413.005,-488.881 447.477,-546.905 494,-578.5 499.671,-582.351 505.91,-585.61 512.392,-588.368"/>
<polygon fill="midnightblue" stroke="midnightblue" points="399.045,-454.005 391.445,-446.623 392.783,-457.133 399.045,-454.005"/>
</g>
<!-- Node11 -->
<g id="node12" class="node"><title>Node11</title>
<g id="a_node12"><a xlink:href="class_system_1_1_security_1_1_permissions_1_1_key_container_permission_attribute.html" target="_top" xlink:title="Allows security actions for T:System.Security.Permissions.KeyContainerPermission to be applied to cod...">
<polygon fill="none" stroke="black" points="507.5,-539.5 507.5,-569.5 668.5,-569.5 668.5,-539.5 507.5,-539.5"/>
<text text-anchor="start" x="515.5" y="-557.5" font-family="Helvetica,sans-Serif" font-size="10.00">System.Security.Permissions.</text>
<text text-anchor="middle" x="588" y="-546.5" font-family="Helvetica,sans-Serif" font-size="10.00">KeyContainerPermissionAttribute</text>
</a>
</g>
</g>
<!-- Node0&#45;&gt;Node11 -->
<g id="edge11" class="edge"><title>Node0&#45;&gt;Node11</title>
<path fill="none" stroke="midnightblue" d="M403.885,-454.177C424.174,-476.51 458.036,-510.024 494,-529.5 501.057,-533.322 508.737,-536.589 516.558,-539.376"/>
<polygon fill="midnightblue" stroke="midnightblue" points="406.311,-451.639 397.045,-446.501 401.085,-456.296 406.311,-451.639"/>
</g>
<!-- Node12 -->
<g id="node13" class="node"><title>Node12</title>
<g id="a_node13"><a xlink:href="class_system_1_1_security_1_1_permissions_1_1_permission_set_attribute.html" target="_top" xlink:title="Allows security actions for a T:System.Security.PermissionSet to be applied to code using declarative...">
<polygon fill="none" stroke="black" points="513.5,-490.5 513.5,-520.5 662.5,-520.5 662.5,-490.5 513.5,-490.5"/>
<text text-anchor="start" x="521.5" y="-508.5" font-family="Helvetica,sans-Serif" font-size="10.00">System.Security.Permissions.</text>
<text text-anchor="middle" x="588" y="-497.5" font-family="Helvetica,sans-Serif" font-size="10.00">PermissionSetAttribute</text>
</a>
</g>
</g>
<!-- Node0&#45;&gt;Node12 -->
<g id="edge12" class="edge"><title>Node0&#45;&gt;Node12</title>
<path fill="none" stroke="midnightblue" d="M423.721,-450.866C444.322,-460.571 470.176,-472.027 494,-480.5 504.082,-484.085 514.935,-487.441 525.544,-490.457"/>
<polygon fill="midnightblue" stroke="midnightblue" points="425.185,-447.686 414.651,-446.547 422.175,-454.006 425.185,-447.686"/>
</g>
<!-- Node13 -->
<g id="node14" class="node"><title>Node13</title>
<g id="a_node14"><a xlink:href="class_system_1_1_security_1_1_permissions_1_1_principal_permission_attribute.html" target="_top" xlink:title="Allows security actions for T:System.Security.Permissions.PrincipalPermission to be applied to code u...">
<polygon fill="none" stroke="black" points="513.5,-441.5 513.5,-471.5 662.5,-471.5 662.5,-441.5 513.5,-441.5"/>
<text text-anchor="start" x="521.5" y="-459.5" font-family="Helvetica,sans-Serif" font-size="10.00">System.Security.Permissions.</text>
<text text-anchor="middle" x="588" y="-448.5" font-family="Helvetica,sans-Serif" font-size="10.00">PrincipalPermissionAttribute</text>
</a>
</g>
</g>
<!-- Node0&#45;&gt;Node13 -->
<g id="edge13" class="edge"><title>Node0&#45;&gt;Node13</title>
<path fill="none" stroke="midnightblue" d="M468.41,-441.859C483.33,-443.701 498.768,-445.607 513.375,-447.41"/>
<polygon fill="midnightblue" stroke="midnightblue" points="468.534,-438.348 458.18,-440.596 467.676,-445.295 468.534,-438.348"/>
</g>
<!-- Node14 -->
<g id="node15" class="node"><title>Node14</title>
<g id="a_node15"><a xlink:href="class_system_1_1_security_1_1_permissions_1_1_publisher_identity_permission_attribute.html" target="_top" xlink:title="Allows security actions for T:System.Security.Permissions.PublisherIdentityPermission to be applied t...">
<polygon fill="none" stroke="black" points="501,-392.5 501,-422.5 675,-422.5 675,-392.5 501,-392.5"/>
<text text-anchor="start" x="509" y="-410.5" font-family="Helvetica,sans-Serif" font-size="10.00">System.Security.Permissions.</text>
<text text-anchor="middle" x="588" y="-399.5" font-family="Helvetica,sans-Serif" font-size="10.00">PublisherIdentityPermissionAttribute</text>
</a>
</g>
</g>
<!-- Node0&#45;&gt;Node14 -->
<g id="edge14" class="edge"><title>Node0&#45;&gt;Node14</title>
<path fill="none" stroke="midnightblue" d="M468.402,-421.556C479.167,-420.28 490.201,-418.972 500.999,-417.693"/>
<polygon fill="midnightblue" stroke="midnightblue" points="467.699,-418.115 458.18,-422.768 468.522,-425.066 467.699,-418.115"/>
</g>
<!-- Node15 -->
<g id="node16" class="node"><title>Node15</title>
<g id="a_node16"><a xlink:href="class_system_1_1_security_1_1_permissions_1_1_reflection_permission_attribute.html" target="_top" xlink:title="Allows security actions for T:System.Security.Permissions.ReflectionPermission to be applied to code ...">
<polygon fill="none" stroke="black" points="513.5,-343.5 513.5,-373.5 662.5,-373.5 662.5,-343.5 513.5,-343.5"/>
<text text-anchor="start" x="521.5" y="-361.5" font-family="Helvetica,sans-Serif" font-size="10.00">System.Security.Permissions.</text>
<text text-anchor="middle" x="588" y="-350.5" font-family="Helvetica,sans-Serif" font-size="10.00">ReflectionPermissionAttribute</text>
</a>
</g>
</g>
<!-- Node0&#45;&gt;Node15 -->
<g id="edge15" class="edge"><title>Node0&#45;&gt;Node15</title>
<path fill="none" stroke="midnightblue" d="M423.686,-412.035C444.277,-402.303 470.134,-390.853 494,-382.5 503.128,-379.305 512.894,-376.326 522.54,-373.629"/>
<polygon fill="midnightblue" stroke="midnightblue" points="422.134,-408.897 414.621,-416.368 425.153,-415.213 422.134,-408.897"/>
</g>
<!-- Node16 -->
<g id="node17" class="node"><title>Node16</title>
<g id="a_node17"><a xlink:href="class_system_1_1_security_1_1_permissions_1_1_registry_permission_attribute.html" target="_top" xlink:title="Allows security actions for T:System.Security.Permissions.RegistryPermission to be applied to code us...">
<polygon fill="none" stroke="black" points="513.5,-294.5 513.5,-324.5 662.5,-324.5 662.5,-294.5 513.5,-294.5"/>
<text text-anchor="start" x="521.5" y="-312.5" font-family="Helvetica,sans-Serif" font-size="10.00">System.Security.Permissions.</text>
<text text-anchor="middle" x="588" y="-301.5" font-family="Helvetica,sans-Serif" font-size="10.00">RegistryPermissionAttribute</text>
</a>
</g>
</g>
<!-- Node0&#45;&gt;Node16 -->
<g id="edge16" class="edge"><title>Node0&#45;&gt;Node16</title>
<path fill="none" stroke="midnightblue" d="M403.844,-408.747C424.101,-386.355 457.938,-352.795 494,-333.5 500.322,-330.117 507.144,-327.194 514.12,-324.671"/>
<polygon fill="midnightblue" stroke="midnightblue" points="401.034,-406.641 397.016,-416.445 406.27,-411.286 401.034,-406.641"/>
</g>
<!-- Node17 -->
<g id="node18" class="node"><title>Node17</title>
<g id="a_node18"><a xlink:href="class_system_1_1_security_1_1_permissions_1_1_security_permission_attribute.html" target="_top" xlink:title="Allows security actions for T:System.Security.Permissions.SecurityPermission to be applied to code us...">
<polygon fill="none" stroke="black" points="513.5,-245.5 513.5,-275.5 662.5,-275.5 662.5,-245.5 513.5,-245.5"/>
<text text-anchor="start" x="521.5" y="-263.5" font-family="Helvetica,sans-Serif" font-size="10.00">System.Security.Permissions.</text>
<text text-anchor="middle" x="588" y="-252.5" font-family="Helvetica,sans-Serif" font-size="10.00">SecurityPermissionAttribute</text>
</a>
</g>
</g>
<!-- Node0&#45;&gt;Node17 -->
<g id="edge17" class="edge"><title>Node0&#45;&gt;Node17</title>
<path fill="none" stroke="midnightblue" d="M396.07,-406.96C412.907,-373.974 447.319,-315.861 494,-284.5 499.952,-280.502 506.528,-277.169 513.351,-274.392"/>
<polygon fill="midnightblue" stroke="midnightblue" points="392.728,-405.82 391.415,-416.333 398.998,-408.934 392.728,-405.82"/>
</g>
<!-- Node18 -->
<g id="node19" class="node"><title>Node18</title>
<g id="a_node19"><a xlink:href="class_system_1_1_security_1_1_permissions_1_1_site_identity_permission_attribute.html" target="_top" xlink:title="Allows security actions for T:System.Security.Permissions.SiteIdentityPermission to be applied to cod...">
<polygon fill="none" stroke="black" points="512.5,-196.5 512.5,-226.5 663.5,-226.5 663.5,-196.5 512.5,-196.5"/>
<text text-anchor="start" x="520.5" y="-214.5" font-family="Helvetica,sans-Serif" font-size="10.00">System.Security.Permissions.</text>
<text text-anchor="middle" x="588" y="-203.5" font-family="Helvetica,sans-Serif" font-size="10.00">SiteIdentityPermissionAttribute</text>
</a>
</g>
</g>
<!-- Node0&#45;&gt;Node18 -->
<g id="edge18" class="edge"><title>Node0&#45;&gt;Node18</title>
<path fill="none" stroke="midnightblue" d="M391.373,-406.565C404.254,-364.619 436.096,-280.156 494,-235.5 499.546,-231.223 505.775,-227.703 512.314,-224.808"/>
<polygon fill="midnightblue" stroke="midnightblue" points="387.984,-405.681 388.502,-416.263 394.696,-407.668 387.984,-405.681"/>
</g>
<!-- Node19 -->
<g id="node20" class="node"><title>Node19</title>
<g id="a_node20"><a xlink:href="class_system_1_1_security_1_1_permissions_1_1_strong_name_identity_permission_attribute.html" target="_top" xlink:title="Allows security actions for T:System.Security.Permissions.StrongNameIdentityPermission to be applied ...">
<polygon fill="none" stroke="black" points="494,-147.5 494,-177.5 682,-177.5 682,-147.5 494,-147.5"/>
<text text-anchor="start" x="502" y="-165.5" font-family="Helvetica,sans-Serif" font-size="10.00">System.Security.Permissions.</text>
<text text-anchor="middle" x="588" y="-154.5" font-family="Helvetica,sans-Serif" font-size="10.00">StrongNameIdentityPermissionAttribute</text>
</a>
</g>
</g>
<!-- Node0&#45;&gt;Node19 -->
<g id="edge19" class="edge"><title>Node0&#45;&gt;Node19</title>
<path fill="none" stroke="midnightblue" d="M388.343,-406.521C397.345,-356.799 424.54,-245.187 494,-186.5 498.076,-183.056 502.586,-180.098 507.358,-177.559"/>
<polygon fill="midnightblue" stroke="midnightblue" points="384.886,-405.974 386.646,-416.421 391.786,-407.157 384.886,-405.974"/>
</g>
<!-- Node20 -->
<g id="node21" class="node"><title>Node20</title>
<g id="a_node21"><a xlink:href="class_system_1_1_security_1_1_permissions_1_1_u_i_permission_attribute.html" target="_top" xlink:title="Allows security actions for T:System.Security.Permissions.UIPermission to be applied to code using de...">
<polygon fill="none" stroke="black" points="513.5,-98.5 513.5,-128.5 662.5,-128.5 662.5,-98.5 513.5,-98.5"/>
<text text-anchor="start" x="521.5" y="-116.5" font-family="Helvetica,sans-Serif" font-size="10.00">System.Security.Permissions.</text>
<text text-anchor="middle" x="588" y="-105.5" font-family="Helvetica,sans-Serif" font-size="10.00">UIPermissionAttribute</text>
</a>
</g>
</g>
<!-- Node0&#45;&gt;Node20 -->
<g id="edge20" class="edge"><title>Node0&#45;&gt;Node20</title>
<path fill="none" stroke="midnightblue" d="M386.297,-406.052C391.728,-349.063 413.01,-210.478 494,-137.5 499.698,-132.365 506.352,-128.301 513.433,-125.088"/>
<polygon fill="midnightblue" stroke="midnightblue" points="382.784,-406.053 385.409,-416.318 389.758,-406.657 382.784,-406.053"/>
</g>
<!-- Node21 -->
<g id="node22" class="node"><title>Node21</title>
<g id="a_node22"><a xlink:href="class_system_1_1_security_1_1_permissions_1_1_url_identity_permission_attribute.html" target="_top" xlink:title="Allows security actions for T:System.Security.Permissions.UrlIdentityPermission to be applied to code...">
<polygon fill="none" stroke="black" points="513.5,-49.5 513.5,-79.5 662.5,-79.5 662.5,-49.5 513.5,-49.5"/>
<text text-anchor="start" x="521.5" y="-67.5" font-family="Helvetica,sans-Serif" font-size="10.00">System.Security.Permissions.</text>
<text text-anchor="middle" x="588" y="-56.5" font-family="Helvetica,sans-Serif" font-size="10.00">UrlIdentityPermissionAttribute</text>
</a>
</g>
</g>
<!-- Node0&#45;&gt;Node21 -->
<g id="edge21" class="edge"><title>Node0&#45;&gt;Node21</title>
<path fill="none" stroke="midnightblue" d="M384.74,-405.857C386.782,-342.277 401.213,-176.191 494,-88.5 499.575,-83.2315 506.149,-79.0814 513.183,-75.818"/>
<polygon fill="midnightblue" stroke="midnightblue" points="381.233,-406.08 384.491,-416.161 388.231,-406.248 381.233,-406.08"/>
</g>
<!-- Node22 -->
<g id="node23" class="node"><title>Node22</title>
<g id="a_node23"><a xlink:href="class_system_1_1_security_1_1_permissions_1_1_zone_identity_permission_attribute.html" target="_top" xlink:title="Allows security actions for T:System.Security.Permissions.ZoneIdentityPermission to be applied to cod...">
<polygon fill="none" stroke="black" points="510.5,-0.5 510.5,-30.5 665.5,-30.5 665.5,-0.5 510.5,-0.5"/>
<text text-anchor="start" x="518.5" y="-18.5" font-family="Helvetica,sans-Serif" font-size="10.00">System.Security.Permissions.</text>
<text text-anchor="middle" x="588" y="-7.5" font-family="Helvetica,sans-Serif" font-size="10.00">ZoneIdentityPermissionAttribute</text>
</a>
</g>
</g>
<!-- Node0&#45;&gt;Node22 -->
<g id="edge22" class="edge"><title>Node0&#45;&gt;Node22</title>
<path fill="none" stroke="midnightblue" d="M388.185,-406.476C400.15,-328.531 440.267,-92.1777 494,-39.5 498.763,-34.8307 504.308,-31.0346 510.274,-27.9528"/>
<polygon fill="midnightblue" stroke="midnightblue" points="384.721,-405.976 386.685,-416.387 391.642,-407.024 384.721,-405.976"/>
</g>
<!-- Node1 -->
<g id="node2" class="node"><title>Node1</title>
<g id="a_node2"><a xlink:href="class_system_1_1_security_1_1_permissions_1_1_security_attribute.html" target="_top" xlink:title="Specifies the base attribute class for declarative security from which T:System.Security....">
<polygon fill="none" stroke="black" points="184,-422 184,-441 273,-441 273,-422 184,-422"/>
<text text-anchor="middle" x="228.5" y="-429" font-family="Helvetica,sans-Serif" font-size="10.00">SecurityAttribute</text>
</a>
</g>
</g>
<!-- Node1&#45;&gt;Node0 -->
<g id="edge1" class="edge"><title>Node1&#45;&gt;Node0</title>
<path fill="none" stroke="midnightblue" d="M283.521,-431.5C291.741,-431.5 300.342,-431.5 308.894,-431.5"/>
<polygon fill="midnightblue" stroke="midnightblue" points="283.344,-428 273.344,-431.5 283.344,-435 283.344,-428"/>
</g>
<!-- Node2 -->
<g id="node3" class="node"><title>Node2</title>
<g id="a_node3"><a xlink:href="class_system_1_1_attribute.html" target="_top" xlink:title="Represents the base class for custom attributes.">
<polygon fill="none" stroke="black" points="95,-422 95,-441 148,-441 148,-422 95,-422"/>
<text text-anchor="middle" x="121.5" y="-429" font-family="Helvetica,sans-Serif" font-size="10.00">Attribute</text>
</a>
</g>
</g>
<!-- Node2&#45;&gt;Node1 -->
<g id="edge2" class="edge"><title>Node2&#45;&gt;Node1</title>
<path fill="none" stroke="midnightblue" d="M158.442,-431.5C166.559,-431.5 175.264,-431.5 183.664,-431.5"/>
<polygon fill="midnightblue" stroke="midnightblue" points="158.186,-428 148.186,-431.5 158.186,-435 158.186,-428"/>
</g>
<!-- Node3 -->
<g id="node4" class="node"><title>Node3</title>
<g id="a_node4"><a xlink:href="interface_system_1_1_runtime_1_1_interop_services_1_1___attribute.html" target="_top" xlink:title="Exposes the T:System.Attribute class to unmanaged code.">
<polygon fill="none" stroke="black" points="0,-422 0,-441 59,-441 59,-422 0,-422"/>
<text text-anchor="middle" x="29.5" y="-429" font-family="Helvetica,sans-Serif" font-size="10.00">_Attribute</text>
</a>
</g>
</g>
<!-- Node3&#45;&gt;Node2 -->
<g id="edge3" class="edge"><title>Node3&#45;&gt;Node2</title>
<path fill="none" stroke="midnightblue" d="M69.676,-431.5C78.2271,-431.5 87.0636,-431.5 94.9222,-431.5"/>
<polygon fill="midnightblue" stroke="midnightblue" points="69.472,-428 59.472,-431.5 69.4719,-435 69.472,-428"/>
</g>
<!-- Node10 -->
<g id="node11" class="node"><title>Node10</title>
<g id="a_node11"><a xlink:href="class_system_1_1_security_1_1_permissions_1_1_isolated_storage_file_permission_attribute.html" target="_top" xlink:title="Allows security actions for T:System.Security.Permissions.IsolatedStorageFilePermission to be applied...">
<polygon fill="none" stroke="black" points="718,-588.5 718,-618.5 903,-618.5 903,-588.5 718,-588.5"/>
<text text-anchor="start" x="726" y="-606.5" font-family="Helvetica,sans-Serif" font-size="10.00">System.Security.Permissions.</text>
<text text-anchor="middle" x="810.5" y="-595.5" font-family="Helvetica,sans-Serif" font-size="10.00">IsolatedStorageFilePermissionAttribute</text>
</a>
</g>
</g>
<!-- Node9&#45;&gt;Node10 -->
<g id="edge10" class="edge"><title>Node9&#45;&gt;Node10</title>
<path fill="none" stroke="midnightblue" d="M683.308,-603.5C694.773,-603.5 706.474,-603.5 717.899,-603.5"/>
<polygon fill="midnightblue" stroke="midnightblue" points="683.305,-600 673.305,-603.5 683.305,-607 683.305,-600"/>
</g>
</g>
</svg>
        <g id="navigator" transform="translate(0 0)" fill="#404254">
                <rect fill="#f2f5e9" fill-opacity="0.5" stroke="#606060" stroke-width=".5" x="0" y="0" width="60" height="60"/>
                <use id="zoomplus" xlink:href="#zoomPlus" x="17" y="9" onmousedown="handleZoom(evt,'in')"/>
                <use id="zoomminus" xlink:href="#zoomMin" x="42" y="9" onmousedown="handleZoom(evt,'out')"/>
                <use id="reset" xlink:href="#resetDef" x="30" y="36" onmousedown="handleReset()"/>
                <g id="arrowUp" xlink:href="#dirArrow" transform="translate(30 24)" onmousedown="handlePan(0,-1)">
                  <use xlink:href="#rim" fill="#404040">
                        <set attributeName="fill" to="#808080" begin="arrowUp.mouseover" end="arrowUp.mouseout"/>
                  </use>
                  <path fill="none" stroke="white" stroke-width="1.5" d="M0,-3.0v7 M-2.5,-0.5L0,-3.0L2.5,-0.5"/>
                </g>
                <g id="arrowRight" xlink:href="#dirArrow" transform="rotate(90) translate(36 -43)" onmousedown="handlePan(1,0)">
                  <use xlink:href="#rim" fill="#404040">
                        <set attributeName="fill" to="#808080" begin="arrowRight.mouseover" end="arrowRight.mouseout"/>
                  </use>
                  <path fill="none" stroke="white" stroke-width="1.5" d="M0,-3.0v7 M-2.5,-0.5L0,-3.0L2.5,-0.5"/>
                </g>
                <g id="arrowDown" xlink:href="#dirArrow" transform="rotate(180) translate(-30 -48)" onmousedown="handlePan(0,1)">
                  <use xlink:href="#rim" fill="#404040">
                        <set attributeName="fill" to="#808080" begin="arrowDown.mouseover" end="arrowDown.mouseout"/>
                  </use>
                  <path fill="none" stroke="white" stroke-width="1.5" d="M0,-3.0v7 M-2.5,-0.5L0,-3.0L2.5,-0.5"/>
                </g>
                <g id="arrowLeft" xlink:href="#dirArrow" transform="rotate(270) translate(-36 17)" onmousedown="handlePan(-1,0)">
                  <use xlink:href="#rim" fill="#404040">
                        <set attributeName="fill" to="#808080" begin="arrowLeft.mouseover" end="arrowLeft.mouseout"/>
                  </use>
                  <path fill="none" stroke="white" stroke-width="1.5" d="M0,-3.0v7 M-2.5,-0.5L0,-3.0L2.5,-0.5"/>
                </g>
        </g>
        <svg viewBox="0 0 15 15" width="100%" height="30px" preserveAspectRatio="xMaxYMin meet">
         <g id="arrow_out" transform="scale(0.3 0.3)">
          <a xlink:href="class_system_1_1_security_1_1_permissions_1_1_code_access_security_attribute__inherit__graph_org.svg" target="_base">
           <rect id="button" ry="5" rx="5" y="6" x="6" height="38" width="38"
                fill="#f2f5e9" fill-opacity="0.5" stroke="#606060" stroke-width="1.0"/>
           <path id="arrow"
             d="M 11.500037,31.436501 C 11.940474,20.09759 22.043105,11.32322 32.158766,21.979434 L 37.068811,17.246167 C 37.068811,17.246167 37.088388,32 37.088388,32 L 22.160133,31.978069 C 22.160133,31.978069 26.997745,27.140456 26.997745,27.140456 C 18.528582,18.264221 13.291696,25.230495 11.500037,31.436501 z"
             style="fill:#404040;"/>
          </a>
         </g>
        </svg>
</svg>
