<?xml version="1.0" encoding="UTF-8" standalone="no"?>
<!DOCTYPE svg PUBLIC "-//W3C//DTD SVG 1.1//EN"
 "http://www.w3.org/Graphics/SVG/1.1/DTD/svg11.dtd">
<!-- Generated by graphviz version 2.38.0 (20140413.2041)
 -->
<!-- Title: System.Security.Permissions.KeyContainerPermission Pages: 1 -->
<svg width="440pt" height="126pt"
 viewBox="0.00 0.00 440.00 126.00" xmlns="http://www.w3.org/2000/svg" xmlns:xlink="http://www.w3.org/1999/xlink">
<g id="graph0" class="graph" transform="scale(1 1) rotate(0) translate(4 122)">
<title>System.Security.Permissions.KeyContainerPermission</title>
<!-- Node6 -->
<g id="node1" class="node"><title>Node6</title>
<g id="a_node1"><a xlink:title="Controls the ability to access key containers. This class cannot be inherited.">
<polygon fill="#bfbfbf" stroke="black" points="283,-55 283,-85 432,-85 432,-55 283,-55"/>
<text text-anchor="start" x="291" y="-73" font-family="Helvetica,sans-Serif" font-size="10.00">System.Security.Permissions.</text>
<text text-anchor="middle" x="357.5" y="-62" font-family="Helvetica,sans-Serif" font-size="10.00">KeyContainerPermission</text>
</a>
</g>
</g>
<!-- Node7 -->
<g id="node2" class="node"><title>Node7</title>
<g id="a_node2"><a xlink:href="class_system_1_1_security_1_1_code_access_permission.html" target="_top" xlink:title="Defines the underlying structure of all code access permissions.">
<polygon fill="none" stroke="red" points="29.5,-98.5 29.5,-117.5 150.5,-117.5 150.5,-98.5 29.5,-98.5"/>
<text text-anchor="middle" x="90" y="-105.5" font-family="Helvetica,sans-Serif" font-size="10.00">CodeAccessPermission</text>
</a>
</g>
</g>
<!-- Node7&#45;&gt;Node6 -->
<g id="edge1" class="edge"><title>Node7&#45;&gt;Node6</title>
<path fill="none" stroke="midnightblue" d="M160.718,-98.6231C192.536,-94.2823 230.69,-88.9907 265,-84 270.725,-83.1672 276.649,-82.2918 282.604,-81.4022"/>
<polygon fill="midnightblue" stroke="midnightblue" points="160.06,-95.1804 150.624,-99.9975 161.005,-102.116 160.06,-95.1804"/>
</g>
<!-- Node11 -->
<g id="node3" class="node"><title>Node11</title>
<g id="a_node3"><a xlink:href="interface_system_1_1_security_1_1_permissions_1_1_i_unrestricted_permission.html" target="_top" xlink:title="Allows a permission to expose an unrestricted state.">
<polygon fill="none" stroke="black" points="30,-60.5 30,-79.5 150,-79.5 150,-60.5 30,-60.5"/>
<text text-anchor="middle" x="90" y="-67.5" font-family="Helvetica,sans-Serif" font-size="10.00">IUnrestrictedPermission</text>
</a>
</g>
</g>
<!-- Node11&#45;&gt;Node6 -->
<g id="edge2" class="edge"><title>Node11&#45;&gt;Node6</title>
<path fill="none" stroke="midnightblue" d="M160.601,-70C198.167,-70 244.53,-70 282.72,-70"/>
<polygon fill="midnightblue" stroke="midnightblue" points="160.253,-66.5001 150.253,-70 160.253,-73.5001 160.253,-66.5001"/>
</g>
<!-- Node12 -->
<g id="node4" class="node"><title>Node12</title>
<g id="a_node4"><a xlink:href="class_system_1_1_security_1_1_permissions_1_1_key_container_permission_access_entry_collection.html" target="_top" xlink:title="Represents a collection of T:System.Security.Permissions.KeyContainerPermissionAccessEntry objects....">
<polygon fill="none" stroke="red" points="0,-0.5 0,-41.5 180,-41.5 180,-0.5 0,-0.5"/>
<text text-anchor="start" x="8" y="-29.5" font-family="Helvetica,sans-Serif" font-size="10.00">System.Security.Permissions.</text>
<text text-anchor="start" x="8" y="-18.5" font-family="Helvetica,sans-Serif" font-size="10.00">KeyContainerPermissionAccessEntry</text>
<text text-anchor="middle" x="90" y="-7.5" font-family="Helvetica,sans-Serif" font-size="10.00">Collection</text>
</a>
</g>
</g>
<!-- Node12&#45;&gt;Node6 -->
<g id="edge3" class="edge"><title>Node12&#45;&gt;Node6</title>
<path fill="none" stroke="#9a32cd" stroke-dasharray="5,2" d="M190.009,-39.2728C220.692,-44.9355 253.95,-51.0737 282.616,-56.3642"/>
<polygon fill="#9a32cd" stroke="#9a32cd" points="190.615,-35.8257 180.146,-37.4526 189.345,-42.7095 190.615,-35.8257"/>
<text text-anchor="middle" x="231.5" y="-55" font-family="Helvetica,sans-Serif" font-size="10.00"> AccessEntries</text>
</g>
</g>
</svg>
