<?xml version="1.0" encoding="UTF-8" standalone="no"?>
<!DOCTYPE svg PUBLIC "-//W3C//DTD SVG 1.1//EN"
 "http://www.w3.org/Graphics/SVG/1.1/DTD/svg11.dtd">
<!-- Generated by graphviz version 2.38.0 (20140413.2041)
 -->
<!-- Title: System.Diagnostics.Eventing.Reader.EventLogSession Pages: 1 -->
<svg width="240pt" height="96pt"
 viewBox="0.00 0.00 240.00 96.00" xmlns="http://www.w3.org/2000/svg" xmlns:xlink="http://www.w3.org/1999/xlink">
<g id="graph0" class="graph" transform="scale(1 1) rotate(0) translate(4 92)">
<title>System.Diagnostics.Eventing.Reader.EventLogSession</title>
<!-- Node2 -->
<g id="node1" class="node"><title>Node2</title>
<g id="a_node1"><a xlink:title="Used to access the Event Log service on the local computer or a remote computer so you can manage and...">
<polygon fill="#bfbfbf" stroke="black" points="0,-0.5 0,-30.5 147,-30.5 147,-0.5 0,-0.5"/>
<text text-anchor="start" x="8" y="-18.5" font-family="Helvetica,sans-Serif" font-size="10.00">System.Diagnostics.Eventing.</text>
<text text-anchor="middle" x="73.5" y="-7.5" font-family="Helvetica,sans-Serif" font-size="10.00">Reader.EventLogSession</text>
</a>
</g>
</g>
<!-- Node2&#45;&gt;Node2 -->
<g id="edge2" class="edge"><title>Node2&#45;&gt;Node2</title>
<path fill="none" stroke="#9a32cd" stroke-dasharray="5,2" d="M157.103,-19.8789C162.042,-18.8314 165,-17.3718 165,-15.5 165,-12.5781 157.792,-10.6606 147.093,-9.74756"/>
<polygon fill="#9a32cd" stroke="#9a32cd" points="156.524,-16.4254 147.093,-21.2524 157.476,-23.3604 156.524,-16.4254"/>
<text text-anchor="middle" x="198.5" y="-13" font-family="Helvetica,sans-Serif" font-size="10.00"> GlobalSession</text>
</g>
<!-- Node3 -->
<g id="node2" class="node"><title>Node3</title>
<g id="a_node2"><a xlink:href="interface_system_1_1_i_disposable.html" target="_top" xlink:title="Provides a mechanism for releasing unmanaged resources.To browse the .NET Framework source code for t...">
<polygon fill="none" stroke="black" points="40,-68.5 40,-87.5 107,-87.5 107,-68.5 40,-68.5"/>
<text text-anchor="middle" x="73.5" y="-75.5" font-family="Helvetica,sans-Serif" font-size="10.00">IDisposable</text>
</a>
</g>
</g>
<!-- Node3&#45;&gt;Node2 -->
<g id="edge1" class="edge"><title>Node3&#45;&gt;Node2</title>
<path fill="none" stroke="midnightblue" d="M73.5,-58.2154C73.5,-49.3565 73.5,-38.9577 73.5,-30.7587"/>
<polygon fill="midnightblue" stroke="midnightblue" points="70.0001,-58.3318 73.5,-68.3318 77.0001,-58.3319 70.0001,-58.3318"/>
</g>
</g>
</svg>
