<?xml version="1.0" encoding="UTF-8" standalone="no"?>
<!DOCTYPE svg PUBLIC "-//W3C//DTD SVG 1.1//EN"
 "http://www.w3.org/Graphics/SVG/1.1/DTD/svg11.dtd">
<!-- Generated by graphviz version 2.38.0 (20140413.2041)
 -->
<!-- Title: System.ArgumentNullException Pages: 1 -->
<svg width="171pt" height="252pt"
 viewBox="0.00 0.00 170.50 252.00" xmlns="http://www.w3.org/2000/svg" xmlns:xlink="http://www.w3.org/1999/xlink">
<g id="graph0" class="graph" transform="scale(1 1) rotate(0) translate(4 248)">
<title>System.ArgumentNullException</title>
<!-- Node6 -->
<g id="node1" class="node"><title>Node6</title>
<g id="a_node1"><a xlink:title="The exception that is thrown when a null reference (Nothing in Visual Basic) is passed to a method th...">
<polygon fill="#bfbfbf" stroke="black" points="0,-0.5 0,-19.5 155,-19.5 155,-0.5 0,-0.5"/>
<text text-anchor="middle" x="77.5" y="-7.5" font-family="Helvetica,sans-Serif" font-size="10.00">System.ArgumentNullException</text>
</a>
</g>
</g>
<!-- Node7 -->
<g id="node2" class="node"><title>Node7</title>
<g id="a_node2"><a xlink:href="class_system_1_1_argument_exception.html" target="_top" xlink:title="The exception that is thrown when one of the arguments provided to a method is not valid.">
<polygon fill="none" stroke="black" points="26.5,-56.5 26.5,-75.5 128.5,-75.5 128.5,-56.5 26.5,-56.5"/>
<text text-anchor="middle" x="77.5" y="-63.5" font-family="Helvetica,sans-Serif" font-size="10.00">ArgumentException</text>
</a>
</g>
</g>
<!-- Node7&#45;&gt;Node6 -->
<g id="edge1" class="edge"><title>Node7&#45;&gt;Node6</title>
<path fill="none" stroke="midnightblue" d="M77.5,-45.8045C77.5,-36.9102 77.5,-26.7798 77.5,-19.7511"/>
<polygon fill="midnightblue" stroke="midnightblue" points="74.0001,-46.083 77.5,-56.083 81.0001,-46.083 74.0001,-46.083"/>
</g>
<!-- Node8 -->
<g id="node3" class="node"><title>Node8</title>
<g id="a_node3"><a xlink:href="class_system_1_1_system_exception.html" target="_top" xlink:title="Serves as the base class for system exceptions namespace.">
<polygon fill="none" stroke="black" points="68.5,-112.5 68.5,-131.5 162.5,-131.5 162.5,-112.5 68.5,-112.5"/>
<text text-anchor="middle" x="115.5" y="-119.5" font-family="Helvetica,sans-Serif" font-size="10.00">SystemException</text>
</a>
</g>
</g>
<!-- Node8&#45;&gt;Node7 -->
<g id="edge2" class="edge"><title>Node8&#45;&gt;Node7</title>
<path fill="none" stroke="midnightblue" d="M103.435,-103.855C96.8553,-94.5048 88.989,-83.3265 83.6582,-75.7511"/>
<polygon fill="midnightblue" stroke="midnightblue" points="100.608,-105.919 109.225,-112.083 106.332,-101.891 100.608,-105.919"/>
</g>
<!-- Node9 -->
<g id="node4" class="node"><title>Node9</title>
<g id="a_node4"><a xlink:href="class_system_1_1_exception.html" target="_top" xlink:title="Represents errors that occur during application execution.To browse the .NET Framework source code fo...">
<polygon fill="none" stroke="black" points="85.5,-168.5 85.5,-187.5 145.5,-187.5 145.5,-168.5 85.5,-168.5"/>
<text text-anchor="middle" x="115.5" y="-175.5" font-family="Helvetica,sans-Serif" font-size="10.00">Exception</text>
</a>
</g>
</g>
<!-- Node9&#45;&gt;Node8 -->
<g id="edge3" class="edge"><title>Node9&#45;&gt;Node8</title>
<path fill="none" stroke="midnightblue" d="M115.5,-157.805C115.5,-148.91 115.5,-138.78 115.5,-131.751"/>
<polygon fill="midnightblue" stroke="midnightblue" points="112,-158.083 115.5,-168.083 119,-158.083 112,-158.083"/>
</g>
<!-- Node10 -->
<g id="node5" class="node"><title>Node10</title>
<g id="a_node5"><a xlink:href="interface_system_1_1_runtime_1_1_serialization_1_1_i_serializable.html" target="_top" xlink:title="Allows an object to control its own serialization and deserialization.">
<polygon fill="none" stroke="black" points="6,-224.5 6,-243.5 75,-243.5 75,-224.5 6,-224.5"/>
<text text-anchor="middle" x="40.5" y="-231.5" font-family="Helvetica,sans-Serif" font-size="10.00">ISerializable</text>
</a>
</g>
</g>
<!-- Node10&#45;&gt;Node7 -->
<g id="edge6" class="edge"><title>Node10&#45;&gt;Node7</title>
<path fill="none" stroke="midnightblue" d="M42.1342,-214.166C44.5195,-190.129 49.769,-147.418 59.5,-112 63.0667,-99.0181 69.2063,-84.6855 73.3094,-75.7616"/>
<polygon fill="midnightblue" stroke="midnightblue" points="38.628,-214.07 41.1862,-224.352 45.5979,-214.719 38.628,-214.07"/>
</g>
<!-- Node10&#45;&gt;Node9 -->
<g id="edge4" class="edge"><title>Node10&#45;&gt;Node9</title>
<path fill="none" stroke="midnightblue" d="M60.8051,-218.38C74.3606,-208.62 91.7421,-196.106 103.231,-187.834"/>
<polygon fill="midnightblue" stroke="midnightblue" points="58.6203,-215.641 52.55,-224.324 62.7105,-221.321 58.6203,-215.641"/>
</g>
<!-- Node11 -->
<g id="node6" class="node"><title>Node11</title>
<g id="a_node6"><a xlink:href="interface_system_1_1_runtime_1_1_interop_services_1_1___exception.html" target="_top" xlink:title="Exposes the public members of the T:System.Exception class to unmanaged code.">
<polygon fill="none" stroke="black" points="93,-224.5 93,-243.5 158,-243.5 158,-224.5 93,-224.5"/>
<text text-anchor="middle" x="125.5" y="-231.5" font-family="Helvetica,sans-Serif" font-size="10.00">_Exception</text>
</a>
</g>
</g>
<!-- Node11&#45;&gt;Node9 -->
<g id="edge5" class="edge"><title>Node11&#45;&gt;Node9</title>
<path fill="none" stroke="midnightblue" d="M122,-214.101C120.34,-205.136 118.437,-194.858 117.121,-187.751"/>
<polygon fill="midnightblue" stroke="midnightblue" points="118.586,-214.888 123.849,-224.083 125.469,-213.613 118.586,-214.888"/>
</g>
</g>
</svg>
