<?xml version="1.0" encoding="UTF-8" standalone="no"?>
<!DOCTYPE svg PUBLIC "-//W3C//DTD SVG 1.1//EN"
 "http://www.w3.org/Graphics/SVG/1.1/DTD/svg11.dtd">
<!-- Generated by graphviz version 2.38.0 (20140413.2041)
 -->
<!-- Title: System.Net.Mail.SmtpFailedRecipientException Pages: 1 -->
<svg width="156pt" height="218pt"
 viewBox="0.00 0.00 155.50 218.00" xmlns="http://www.w3.org/2000/svg" xmlns:xlink="http://www.w3.org/1999/xlink">
<g id="graph0" class="graph" transform="scale(1 1) rotate(0) translate(4 214)">
<title>System.Net.Mail.SmtpFailedRecipientException</title>
<!-- Node0 -->
<g id="node1" class="node"><title>Node0</title>
<g id="a_node1"><a xlink:title="Represents the exception that is thrown when the T:System.Net.Mail.SmtpClient is not able to complete...">
<polygon fill="#bfbfbf" stroke="black" points="0,-67.5 0,-97.5 142,-97.5 142,-67.5 0,-67.5"/>
<text text-anchor="start" x="8" y="-85.5" font-family="Helvetica,sans-Serif" font-size="10.00">System.Net.Mail.SmtpFailed</text>
<text text-anchor="middle" x="71" y="-74.5" font-family="Helvetica,sans-Serif" font-size="10.00">RecipientException</text>
</a>
</g>
</g>
<!-- Node5 -->
<g id="node4" class="node"><title>Node5</title>
<g id="a_node4"><a xlink:href="class_system_1_1_net_1_1_mail_1_1_smtp_failed_recipients_exception.html" target="_top" xlink:title="The exception that is thrown when e&#45;mail is sent using an T:System.Net.Mail.SmtpClient and cannot be ...">
<polygon fill="none" stroke="black" points="0,-0.5 0,-30.5 142,-30.5 142,-0.5 0,-0.5"/>
<text text-anchor="start" x="8" y="-18.5" font-family="Helvetica,sans-Serif" font-size="10.00">System.Net.Mail.SmtpFailed</text>
<text text-anchor="middle" x="71" y="-7.5" font-family="Helvetica,sans-Serif" font-size="10.00">RecipientsException</text>
</a>
</g>
</g>
<!-- Node0&#45;&gt;Node5 -->
<g id="edge4" class="edge"><title>Node0&#45;&gt;Node5</title>
<path fill="none" stroke="midnightblue" d="M71,-57.1081C71,-48.1539 71,-38.3227 71,-30.5765"/>
<polygon fill="midnightblue" stroke="midnightblue" points="67.5001,-57.3959 71,-67.396 74.5001,-57.396 67.5001,-57.3959"/>
</g>
<!-- Node1 -->
<g id="node2" class="node"><title>Node1</title>
<g id="a_node2"><a xlink:href="class_system_1_1_net_1_1_mail_1_1_smtp_exception.html" target="_top" xlink:title="Represents the exception that is thrown when the T:System.Net.Mail.SmtpClient is not able to complete...">
<polygon fill="none" stroke="red" points="64.5,-134.5 64.5,-153.5 147.5,-153.5 147.5,-134.5 64.5,-134.5"/>
<text text-anchor="middle" x="106" y="-141.5" font-family="Helvetica,sans-Serif" font-size="10.00">SmtpException</text>
</a>
</g>
</g>
<!-- Node1&#45;&gt;Node0 -->
<g id="edge1" class="edge"><title>Node1&#45;&gt;Node0</title>
<path fill="none" stroke="midnightblue" d="M95.8108,-125.678C90.5451,-116.727 84.2029,-105.945 79.2488,-97.523"/>
<polygon fill="midnightblue" stroke="midnightblue" points="92.8983,-127.63 100.985,-134.475 98.9319,-124.081 92.8983,-127.63"/>
</g>
<!-- Node3 -->
<g id="node3" class="node"><title>Node3</title>
<g id="a_node3"><a xlink:href="interface_system_1_1_runtime_1_1_serialization_1_1_i_serializable.html" target="_top" xlink:title="Allows an object to control its own serialization and deserialization.">
<polygon fill="none" stroke="red" points="36.5,-190.5 36.5,-209.5 105.5,-209.5 105.5,-190.5 36.5,-190.5"/>
<text text-anchor="middle" x="71" y="-197.5" font-family="Helvetica,sans-Serif" font-size="10.00">ISerializable</text>
</a>
</g>
</g>
<!-- Node3&#45;&gt;Node0 -->
<g id="edge3" class="edge"><title>Node3&#45;&gt;Node0</title>
<path fill="none" stroke="midnightblue" d="M63.4438,-180.782C60.4923,-172.725 57.4675,-163.043 56,-154 52.8129,-134.36 59.3712,-111.921 64.7986,-97.7357"/>
<polygon fill="midnightblue" stroke="midnightblue" points="60.2436,-182.209 67.1443,-190.249 66.7632,-179.661 60.2436,-182.209"/>
</g>
<!-- Node3&#45;&gt;Node1 -->
<g id="edge2" class="edge"><title>Node3&#45;&gt;Node1</title>
<path fill="none" stroke="midnightblue" d="M82.3001,-181.566C88.3219,-172.275 95.4686,-161.248 100.328,-153.751"/>
<polygon fill="midnightblue" stroke="midnightblue" points="79.2815,-179.788 76.7795,-190.083 85.1556,-183.595 79.2815,-179.788"/>
</g>
</g>
</svg>
