<?xml version="1.0" encoding="UTF-8" standalone="no"?>
<!DOCTYPE svg PUBLIC "-//W3C//DTD SVG 1.1//EN"
 "http://www.w3.org/Graphics/SVG/1.1/DTD/svg11.dtd">
<!-- Generated by graphviz version 2.38.0 (20140413.2041)
 -->
<!-- Title: System.MissingMemberException Pages: 1 -->
<svg width="342pt" height="308pt"
 viewBox="0.00 0.00 341.50 308.00" xmlns="http://www.w3.org/2000/svg" xmlns:xlink="http://www.w3.org/1999/xlink">
<g id="graph0" class="graph" transform="scale(1 1) rotate(0) translate(4 304)">
<title>System.MissingMemberException</title>
<!-- Node0 -->
<g id="node1" class="node"><title>Node0</title>
<g id="a_node1"><a xlink:title="The exception that is thrown when there is an attempt to dynamically access a class member that does ...">
<polygon fill="#bfbfbf" stroke="black" points="81,-56.5 81,-75.5 247,-75.5 247,-56.5 81,-56.5"/>
<text text-anchor="middle" x="164" y="-63.5" font-family="Helvetica,sans-Serif" font-size="10.00">System.MissingMemberException</text>
</a>
</g>
</g>
<!-- Node6 -->
<g id="node7" class="node"><title>Node6</title>
<g id="a_node7"><a xlink:href="class_system_1_1_missing_field_exception.html" target="_top" xlink:title="The exception that is thrown when there is an attempt to dynamically access a field that does not exi...">
<polygon fill="none" stroke="black" points="0,-0.5 0,-19.5 152,-19.5 152,-0.5 0,-0.5"/>
<text text-anchor="middle" x="76" y="-7.5" font-family="Helvetica,sans-Serif" font-size="10.00">System.MissingFieldException</text>
</a>
</g>
</g>
<!-- Node0&#45;&gt;Node6 -->
<g id="edge7" class="edge"><title>Node0&#45;&gt;Node6</title>
<path fill="none" stroke="midnightblue" d="M141.023,-50.9005C124.887,-40.9986 103.819,-28.0705 90.1036,-19.6545"/>
<polygon fill="midnightblue" stroke="midnightblue" points="139.507,-54.0769 149.861,-56.324 143.169,-48.1106 139.507,-54.0769"/>
</g>
<!-- Node7 -->
<g id="node8" class="node"><title>Node7</title>
<g id="a_node8"><a xlink:href="class_system_1_1_missing_method_exception.html" target="_top" xlink:title="The exception that is thrown when there is an attempt to dynamically access a method that does not ex...">
<polygon fill="none" stroke="black" points="170.5,-0.5 170.5,-19.5 333.5,-19.5 333.5,-0.5 170.5,-0.5"/>
<text text-anchor="middle" x="252" y="-7.5" font-family="Helvetica,sans-Serif" font-size="10.00">System.MissingMethodException</text>
</a>
</g>
</g>
<!-- Node0&#45;&gt;Node7 -->
<g id="edge8" class="edge"><title>Node0&#45;&gt;Node7</title>
<path fill="none" stroke="midnightblue" d="M186.977,-50.9005C203.113,-40.9986 224.181,-28.0705 237.896,-19.6545"/>
<polygon fill="midnightblue" stroke="midnightblue" points="184.831,-48.1106 178.139,-56.324 188.493,-54.0769 184.831,-48.1106"/>
</g>
<!-- Node1 -->
<g id="node2" class="node"><title>Node1</title>
<g id="a_node2"><a xlink:href="class_system_1_1_member_access_exception.html" target="_top" xlink:title="The exception that is thrown when an attempt to access a class member fails.">
<polygon fill="none" stroke="black" points="146,-112.5 146,-131.5 274,-131.5 274,-112.5 146,-112.5"/>
<text text-anchor="middle" x="210" y="-119.5" font-family="Helvetica,sans-Serif" font-size="10.00">MemberAccessException</text>
</a>
</g>
</g>
<!-- Node1&#45;&gt;Node0 -->
<g id="edge1" class="edge"><title>Node1&#45;&gt;Node0</title>
<path fill="none" stroke="midnightblue" d="M195.886,-104.431C187.824,-94.9673 178.041,-83.4827 171.455,-75.7511"/>
<polygon fill="midnightblue" stroke="midnightblue" points="193.255,-106.74 202.404,-112.083 198.584,-102.201 193.255,-106.74"/>
</g>
<!-- Node2 -->
<g id="node3" class="node"><title>Node2</title>
<g id="a_node3"><a xlink:href="class_system_1_1_system_exception.html" target="_top" xlink:title="Serves as the base class for system exceptions namespace.">
<polygon fill="none" stroke="black" points="162,-168.5 162,-187.5 256,-187.5 256,-168.5 162,-168.5"/>
<text text-anchor="middle" x="209" y="-175.5" font-family="Helvetica,sans-Serif" font-size="10.00">SystemException</text>
</a>
</g>
</g>
<!-- Node2&#45;&gt;Node1 -->
<g id="edge2" class="edge"><title>Node2&#45;&gt;Node1</title>
<path fill="none" stroke="midnightblue" d="M209.355,-157.805C209.52,-148.91 209.708,-138.78 209.838,-131.751"/>
<polygon fill="midnightblue" stroke="midnightblue" points="205.851,-158.02 209.165,-168.083 212.85,-158.15 205.851,-158.02"/>
</g>
<!-- Node3 -->
<g id="node4" class="node"><title>Node3</title>
<g id="a_node4"><a xlink:href="class_system_1_1_exception.html" target="_top" xlink:title="Represents errors that occur during application execution.To browse the .NET Framework source code fo...">
<polygon fill="none" stroke="black" points="176,-224.5 176,-243.5 236,-243.5 236,-224.5 176,-224.5"/>
<text text-anchor="middle" x="206" y="-231.5" font-family="Helvetica,sans-Serif" font-size="10.00">Exception</text>
</a>
</g>
</g>
<!-- Node3&#45;&gt;Node2 -->
<g id="edge3" class="edge"><title>Node3&#45;&gt;Node2</title>
<path fill="none" stroke="midnightblue" d="M207.066,-213.805C207.561,-204.91 208.123,-194.78 208.514,-187.751"/>
<polygon fill="midnightblue" stroke="midnightblue" points="203.556,-213.904 206.495,-224.083 210.545,-214.293 203.556,-213.904"/>
</g>
<!-- Node4 -->
<g id="node5" class="node"><title>Node4</title>
<g id="a_node5"><a xlink:href="interface_system_1_1_runtime_1_1_serialization_1_1_i_serializable.html" target="_top" xlink:title="Allows an object to control its own serialization and deserialization.">
<polygon fill="none" stroke="black" points="85.5,-280.5 85.5,-299.5 154.5,-299.5 154.5,-280.5 85.5,-280.5"/>
<text text-anchor="middle" x="120" y="-287.5" font-family="Helvetica,sans-Serif" font-size="10.00">ISerializable</text>
</a>
</g>
</g>
<!-- Node4&#45;&gt;Node0 -->
<g id="edge6" class="edge"><title>Node4&#45;&gt;Node0</title>
<path fill="none" stroke="midnightblue" d="M119.13,-270.23C118.184,-237.295 118.777,-167.344 137,-112 141.502,-98.327 150.732,-84.3902 157.138,-75.7235"/>
<polygon fill="midnightblue" stroke="midnightblue" points="115.634,-270.387 119.503,-280.25 122.629,-270.127 115.634,-270.387"/>
</g>
<!-- Node4&#45;&gt;Node3 -->
<g id="edge4" class="edge"><title>Node4&#45;&gt;Node3</title>
<path fill="none" stroke="midnightblue" d="M142.455,-274.901C158.224,-264.999 178.814,-252.071 192.217,-243.655"/>
<polygon fill="midnightblue" stroke="midnightblue" points="140.425,-272.042 133.817,-280.324 144.148,-277.97 140.425,-272.042"/>
</g>
<!-- Node5 -->
<g id="node6" class="node"><title>Node5</title>
<g id="a_node6"><a xlink:href="interface_system_1_1_runtime_1_1_interop_services_1_1___exception.html" target="_top" xlink:title="Exposes the public members of the T:System.Exception class to unmanaged code.">
<polygon fill="none" stroke="black" points="173.5,-280.5 173.5,-299.5 238.5,-299.5 238.5,-280.5 173.5,-280.5"/>
<text text-anchor="middle" x="206" y="-287.5" font-family="Helvetica,sans-Serif" font-size="10.00">_Exception</text>
</a>
</g>
</g>
<!-- Node5&#45;&gt;Node3 -->
<g id="edge5" class="edge"><title>Node5&#45;&gt;Node3</title>
<path fill="none" stroke="midnightblue" d="M206,-269.805C206,-260.91 206,-250.78 206,-243.751"/>
<polygon fill="midnightblue" stroke="midnightblue" points="202.5,-270.083 206,-280.083 209.5,-270.083 202.5,-270.083"/>
</g>
</g>
</svg>
