<?xml version="1.0" encoding="UTF-8" standalone="no"?>
<!DOCTYPE svg PUBLIC "-//W3C//DTD SVG 1.1//EN"
 "http://www.w3.org/Graphics/SVG/1.1/DTD/svg11.dtd">
<!-- Generated by graphviz version 2.38.0 (20140413.2041)
 -->
<!-- Title: System.ComponentModel.MaskedTextProvider Pages: 1 -->
<svg width="262pt" height="163pt"
 viewBox="0.00 0.00 261.50 163.00" xmlns="http://www.w3.org/2000/svg" xmlns:xlink="http://www.w3.org/1999/xlink">
<g id="graph0" class="graph" transform="scale(1 1) rotate(0) translate(4 159)">
<title>System.ComponentModel.MaskedTextProvider</title>
<!-- Node2 -->
<g id="node1" class="node"><title>Node2</title>
<g id="a_node1"><a xlink:title="Represents a mask&#45;parsing service that can be used by any number of controls that support masking,...">
<polygon fill="#bfbfbf" stroke="black" points="0,-0.5 0,-30.5 167,-30.5 167,-0.5 0,-0.5"/>
<text text-anchor="start" x="8" y="-18.5" font-family="Helvetica,sans-Serif" font-size="10.00">System.ComponentModel.Masked</text>
<text text-anchor="middle" x="83.5" y="-7.5" font-family="Helvetica,sans-Serif" font-size="10.00">TextProvider</text>
</a>
</g>
</g>
<!-- Node3 -->
<g id="node2" class="node"><title>Node3</title>
<g id="a_node2"><a xlink:href="interface_system_1_1_i_cloneable.html" target="_top" xlink:title="Supports cloning, which creates a new instance of a class with the same value as an existing instance...">
<polygon fill="none" stroke="black" points="69.5,-135.5 69.5,-154.5 131.5,-154.5 131.5,-135.5 69.5,-135.5"/>
<text text-anchor="middle" x="100.5" y="-142.5" font-family="Helvetica,sans-Serif" font-size="10.00">ICloneable</text>
</a>
</g>
</g>
<!-- Node3&#45;&gt;Node2 -->
<g id="edge1" class="edge"><title>Node3&#45;&gt;Node2</title>
<path fill="none" stroke="midnightblue" d="M93.8017,-125.884C91.0171,-117.517 88.0723,-107.378 86.5,-98 82.5901,-74.6802 82.5048,-47.1029 82.918,-30.7466"/>
<polygon fill="midnightblue" stroke="midnightblue" points="90.5088,-127.071 97.1279,-135.343 97.1124,-124.748 90.5088,-127.071"/>
</g>
<!-- Node4 -->
<g id="node3" class="node"><title>Node4</title>
<g id="a_node3"><a xlink:href="class_system_1_1_globalization_1_1_culture_info.html" target="_top" xlink:title="Provides information about a specific culture (called a locale for unmanaged code development)....">
<polygon fill="none" stroke="red" points="95.5,-78.5 95.5,-97.5 253.5,-97.5 253.5,-78.5 95.5,-78.5"/>
<text text-anchor="middle" x="174.5" y="-85.5" font-family="Helvetica,sans-Serif" font-size="10.00">System.Globalization.CultureInfo</text>
</a>
</g>
</g>
<!-- Node3&#45;&gt;Node4 -->
<g id="edge3" class="edge"><title>Node3&#45;&gt;Node4</title>
<path fill="none" stroke="midnightblue" d="M120.296,-129.287C133.854,-119.21 151.378,-106.185 162.774,-97.7149"/>
<polygon fill="midnightblue" stroke="midnightblue" points="118.001,-126.632 112.063,-135.406 122.176,-132.25 118.001,-126.632"/>
</g>
<!-- Node4&#45;&gt;Node2 -->
<g id="edge2" class="edge"><title>Node4&#45;&gt;Node2</title>
<path fill="none" stroke="#9a32cd" stroke-dasharray="5,2" d="M155.301,-72.1262C139.481,-59.8698 117.2,-42.6084 101.669,-30.5762"/>
<polygon fill="#9a32cd" stroke="#9a32cd" points="153.293,-74.9977 163.342,-78.3553 157.58,-69.4641 153.293,-74.9977"/>
<text text-anchor="middle" x="153.5" y="-52" font-family="Helvetica,sans-Serif" font-size="10.00"> Culture</text>
</g>
</g>
</svg>
