<?xml version="1.0" encoding="UTF-8" standalone="no"?>
<!DOCTYPE svg PUBLIC "-//W3C//DTD SVG 1.1//EN"
 "http://www.w3.org/Graphics/SVG/1.1/DTD/svg11.dtd">
<!-- Generated by graphviz version 2.38.0 (20140413.2041)
 -->
<!-- Title: System.Reflection.MethodBase Pages: 1 -->
<svg width="844pt" height="431pt"
 viewBox="0.00 0.00 844.00 431.00" xmlns="http://www.w3.org/2000/svg" xmlns:xlink="http://www.w3.org/1999/xlink">
<g id="graph0" class="graph" transform="scale(1 1) rotate(0) translate(4 427)">
<title>System.Reflection.MethodBase</title>
<!-- Node0 -->
<g id="node1" class="node"><title>Node0</title>
<g id="a_node1"><a xlink:title="Provides information about methods and constructors.">
<polygon fill="#bfbfbf" stroke="black" points="273,-226 273,-245 427,-245 427,-226 273,-226"/>
<text text-anchor="middle" x="350" y="-233" font-family="Helvetica,sans-Serif" font-size="10.00">System.Reflection.MethodBase</text>
</a>
</g>
</g>
<!-- Node5 -->
<g id="node6" class="node"><title>Node5</title>
<g id="a_node6"><a xlink:href="class_system_1_1_reflection_1_1_constructor_info.html" target="_top" xlink:title="Discovers the attributes of a class constructor and provides access to constructor metadata.">
<polygon fill="none" stroke="black" points="463,-324 463,-343 627,-343 627,-324 463,-324"/>
<text text-anchor="middle" x="545" y="-331" font-family="Helvetica,sans-Serif" font-size="10.00">System.Reflection.ConstructorInfo</text>
</a>
</g>
</g>
<!-- Node0&#45;&gt;Node5 -->
<g id="edge5" class="edge"><title>Node0&#45;&gt;Node5</title>
<path fill="none" stroke="midnightblue" d="M379.023,-249.729C418.89,-269.973 490.923,-306.549 525.066,-323.886"/>
<polygon fill="midnightblue" stroke="midnightblue" points="380.358,-246.482 369.857,-245.075 377.189,-252.723 380.358,-246.482"/>
</g>
<!-- Node9 -->
<g id="node10" class="node"><title>Node9</title>
<g id="a_node10"><a xlink:href="class_system_1_1_reflection_1_1_method_info.html" target="_top" xlink:title="Discovers the attributes of a method and provides access to method metadata.">
<polygon fill="none" stroke="black" points="472,-153 472,-172 618,-172 618,-153 472,-153"/>
<text text-anchor="middle" x="545" y="-160" font-family="Helvetica,sans-Serif" font-size="10.00">System.Reflection.MethodInfo</text>
</a>
</g>
</g>
<!-- Node0&#45;&gt;Node9 -->
<g id="edge9" class="edge"><title>Node0&#45;&gt;Node9</title>
<path fill="none" stroke="midnightblue" d="M385.936,-222.286C424.254,-207.793 484.805,-184.89 518.762,-172.046"/>
<polygon fill="midnightblue" stroke="midnightblue" points="384.346,-219.145 376.231,-225.957 386.823,-225.692 384.346,-219.145"/>
</g>
<!-- Node1 -->
<g id="node2" class="node"><title>Node1</title>
<g id="a_node2"><a xlink:href="class_system_1_1_reflection_1_1_member_info.html" target="_top" xlink:title="Obtains information about the attributes of a member and provides access to member metadata.">
<polygon fill="none" stroke="black" points="165,-245 165,-264 232,-264 232,-245 165,-245"/>
<text text-anchor="middle" x="198.5" y="-252" font-family="Helvetica,sans-Serif" font-size="10.00">MemberInfo</text>
</a>
</g>
</g>
<!-- Node1&#45;&gt;Node0 -->
<g id="edge1" class="edge"><title>Node1&#45;&gt;Node0</title>
<path fill="none" stroke="midnightblue" d="M242.295,-249.061C252.238,-247.798 263.11,-246.416 273.99,-245.033"/>
<polygon fill="midnightblue" stroke="midnightblue" points="241.787,-245.597 232.308,-250.33 242.67,-252.542 241.787,-245.597"/>
</g>
<!-- Node2 -->
<g id="node3" class="node"><title>Node2</title>
<g id="a_node3"><a xlink:href="interface_system_1_1_reflection_1_1_i_custom_attribute_provider.html" target="_top" xlink:title="Provides custom attributes for reflection objects that support them.">
<polygon fill="none" stroke="black" points="0,-264 0,-283 124,-283 124,-264 0,-264"/>
<text text-anchor="middle" x="62" y="-271" font-family="Helvetica,sans-Serif" font-size="10.00">ICustomAttributeProvider</text>
</a>
</g>
</g>
<!-- Node2&#45;&gt;Node1 -->
<g id="edge2" class="edge"><title>Node2&#45;&gt;Node1</title>
<path fill="none" stroke="midnightblue" d="M134.54,-263.394C145.163,-261.893 155.643,-260.413 164.913,-259.103"/>
<polygon fill="midnightblue" stroke="midnightblue" points="133.758,-259.97 124.346,-264.834 134.737,-266.901 133.758,-259.97"/>
</g>
<!-- Node3 -->
<g id="node4" class="node"><title>Node3</title>
<g id="a_node4"><a xlink:href="interface_system_1_1_runtime_1_1_interop_services_1_1___member_info.html" target="_top" xlink:title="Exposes the public members of the T:System.Reflection.MemberInfo class to unmanaged code.">
<polygon fill="none" stroke="black" points="26,-226 26,-245 98,-245 98,-226 26,-226"/>
<text text-anchor="middle" x="62" y="-233" font-family="Helvetica,sans-Serif" font-size="10.00">_MemberInfo</text>
</a>
</g>
</g>
<!-- Node3&#45;&gt;Node1 -->
<g id="edge3" class="edge"><title>Node3&#45;&gt;Node1</title>
<path fill="none" stroke="midnightblue" d="M108.308,-241.9C126.787,-244.511 147.748,-247.472 164.705,-249.867"/>
<polygon fill="midnightblue" stroke="midnightblue" points="108.73,-238.425 98.3383,-240.492 107.75,-245.356 108.73,-238.425"/>
</g>
<!-- Node4 -->
<g id="node5" class="node"><title>Node4</title>
<g id="a_node5"><a xlink:href="interface_system_1_1_runtime_1_1_interop_services_1_1___method_base.html" target="_top" xlink:title="Exposes the public members of the T:System.Reflection.MethodBase class to unmanaged code.">
<polygon fill="none" stroke="black" points="160,-207 160,-226 237,-226 237,-207 160,-207"/>
<text text-anchor="middle" x="198.5" y="-214" font-family="Helvetica,sans-Serif" font-size="10.00">_MethodBase</text>
</a>
</g>
</g>
<!-- Node4&#45;&gt;Node0 -->
<g id="edge4" class="edge"><title>Node4&#45;&gt;Node0</title>
<path fill="none" stroke="midnightblue" d="M247.316,-222.577C255.837,-223.66 264.897,-224.811 273.963,-225.963"/>
<polygon fill="midnightblue" stroke="midnightblue" points="247.587,-219.083 237.225,-221.295 246.704,-226.027 247.587,-219.083"/>
</g>
<!-- Node6 -->
<g id="node7" class="node"><title>Node6</title>
<g id="a_node7"><a xlink:href="class_system_1_1_reflection_1_1_emit_1_1_constructor_builder.html" target="_top" xlink:title="Defines and represents a constructor of a dynamic class.">
<polygon fill="none" stroke="black" points="663,-392.5 663,-422.5 836,-422.5 836,-392.5 663,-392.5"/>
<text text-anchor="start" x="671" y="-410.5" font-family="Helvetica,sans-Serif" font-size="10.00">System.Reflection.Emit.Constructor</text>
<text text-anchor="middle" x="749.5" y="-399.5" font-family="Helvetica,sans-Serif" font-size="10.00">Builder</text>
</a>
</g>
</g>
<!-- Node5&#45;&gt;Node6 -->
<g id="edge6" class="edge"><title>Node5&#45;&gt;Node6</title>
<path fill="none" stroke="midnightblue" d="M575.755,-347.49C599.152,-358.178 632.738,-372.838 663,-383.5 671.87,-386.625 681.368,-389.624 690.69,-392.379"/>
<polygon fill="midnightblue" stroke="midnightblue" points="576.938,-344.182 566.391,-343.176 574.009,-350.539 576.938,-344.182"/>
</g>
<!-- Node7 -->
<g id="node8" class="node"><title>Node7</title>
<g id="a_node8"><a xlink:href="class_system_1_1_reflection_1_1_emit_1_1_constructor_on_type_builder_instantiation.html" target="_top" xlink:title=" ">
<polygon fill="none" stroke="black" points="663,-343.5 663,-373.5 836,-373.5 836,-343.5 663,-343.5"/>
<text text-anchor="start" x="671" y="-361.5" font-family="Helvetica,sans-Serif" font-size="10.00">System.Reflection.Emit.Constructor</text>
<text text-anchor="middle" x="749.5" y="-350.5" font-family="Helvetica,sans-Serif" font-size="10.00">OnTypeBuilderInstantiation</text>
</a>
</g>
</g>
<!-- Node5&#45;&gt;Node7 -->
<g id="edge7" class="edge"><title>Node5&#45;&gt;Node7</title>
<path fill="none" stroke="midnightblue" d="M633.258,-344.273C643.05,-345.481 653.02,-346.712 662.791,-347.919"/>
<polygon fill="midnightblue" stroke="midnightblue" points="633.488,-340.774 623.134,-343.023 632.63,-347.722 633.488,-340.774"/>
</g>
<!-- Node8 -->
<g id="node9" class="node"><title>Node8</title>
<g id="a_node9"><a xlink:href="class_system_1_1_reflection_1_1_runtime_constructor_info.html" target="_top" xlink:title=" ">
<polygon fill="none" stroke="black" points="682,-294.5 682,-324.5 817,-324.5 817,-294.5 682,-294.5"/>
<text text-anchor="start" x="690" y="-312.5" font-family="Helvetica,sans-Serif" font-size="10.00">System.Reflection.Runtime</text>
<text text-anchor="middle" x="749.5" y="-301.5" font-family="Helvetica,sans-Serif" font-size="10.00">ConstructorInfo</text>
</a>
</g>
</g>
<!-- Node5&#45;&gt;Node8 -->
<g id="edge8" class="edge"><title>Node5&#45;&gt;Node8</title>
<path fill="none" stroke="midnightblue" d="M636.344,-322.793C651.688,-320.974 667.37,-319.115 681.958,-317.386"/>
<polygon fill="midnightblue" stroke="midnightblue" points="635.843,-319.327 626.324,-323.98 636.667,-326.279 635.843,-319.327"/>
</g>
<!-- Node10 -->
<g id="node11" class="node"><title>Node10</title>
<g id="a_node11"><a xlink:href="class_system_1_1_reflection_1_1_emit_1_1_dynamic_method.html" target="_top" xlink:title="Defines and represents a dynamic method that can be compiled, executed, and discarded....">
<polygon fill="none" stroke="black" points="669,-245.5 669,-275.5 830,-275.5 830,-245.5 669,-245.5"/>
<text text-anchor="start" x="677" y="-263.5" font-family="Helvetica,sans-Serif" font-size="10.00">System.Reflection.Emit.Dynamic</text>
<text text-anchor="middle" x="749.5" y="-252.5" font-family="Helvetica,sans-Serif" font-size="10.00">Method</text>
</a>
</g>
</g>
<!-- Node9&#45;&gt;Node10 -->
<g id="edge10" class="edge"><title>Node9&#45;&gt;Node10</title>
<path fill="none" stroke="midnightblue" d="M566.801,-178.297C589.415,-194.823 627.14,-220.537 663,-236.5 670.465,-239.823 678.504,-242.799 686.559,-245.429"/>
<polygon fill="midnightblue" stroke="midnightblue" points="568.752,-175.387 558.633,-172.246 564.585,-181.012 568.752,-175.387"/>
</g>
<!-- Node11 -->
<g id="node12" class="node"><title>Node11</title>
<g id="a_node12"><a xlink:href="class_system_1_1_reflection_1_1_emit_1_1_method_builder.html" target="_top" xlink:title="Defines and represents a method (or constructor) on a dynamic class.">
<polygon fill="none" stroke="black" points="672,-196.5 672,-226.5 827,-226.5 827,-196.5 672,-196.5"/>
<text text-anchor="start" x="680" y="-214.5" font-family="Helvetica,sans-Serif" font-size="10.00">System.Reflection.Emit.Method</text>
<text text-anchor="middle" x="749.5" y="-203.5" font-family="Helvetica,sans-Serif" font-size="10.00">Builder</text>
</a>
</g>
</g>
<!-- Node9&#45;&gt;Node11 -->
<g id="edge11" class="edge"><title>Node9&#45;&gt;Node11</title>
<path fill="none" stroke="midnightblue" d="M595.289,-174.427C622.71,-181.062 657.107,-189.385 686.357,-196.463"/>
<polygon fill="midnightblue" stroke="midnightblue" points="596.067,-171.014 585.525,-172.064 594.421,-177.818 596.067,-171.014"/>
</g>
<!-- Node12 -->
<g id="node13" class="node"><title>Node12</title>
<g id="a_node13"><a xlink:href="class_system_1_1_reflection_1_1_emit_1_1_method_builder_instantiation.html" target="_top" xlink:title=" ">
<polygon fill="none" stroke="black" points="672,-147.5 672,-177.5 827,-177.5 827,-147.5 672,-147.5"/>
<text text-anchor="start" x="680" y="-165.5" font-family="Helvetica,sans-Serif" font-size="10.00">System.Reflection.Emit.Method</text>
<text text-anchor="middle" x="749.5" y="-154.5" font-family="Helvetica,sans-Serif" font-size="10.00">BuilderInstantiation</text>
</a>
</g>
</g>
<!-- Node9&#45;&gt;Node12 -->
<g id="edge12" class="edge"><title>Node9&#45;&gt;Node12</title>
<path fill="none" stroke="midnightblue" d="M628.558,-162.5C642.863,-162.5 657.683,-162.5 671.823,-162.5"/>
<polygon fill="midnightblue" stroke="midnightblue" points="628.25,-159 618.25,-162.5 628.249,-166 628.25,-159"/>
</g>
<!-- Node13 -->
<g id="node14" class="node"><title>Node13</title>
<g id="a_node14"><a xlink:href="class_system_1_1_reflection_1_1_emit_1_1_method_on_type_builder_instantiation.html" target="_top" xlink:title=" ">
<polygon fill="none" stroke="black" points="672,-98.5 672,-128.5 827,-128.5 827,-98.5 672,-98.5"/>
<text text-anchor="start" x="680" y="-116.5" font-family="Helvetica,sans-Serif" font-size="10.00">System.Reflection.Emit.Method</text>
<text text-anchor="middle" x="749.5" y="-105.5" font-family="Helvetica,sans-Serif" font-size="10.00">OnTypeBuilderInstantiation</text>
</a>
</g>
</g>
<!-- Node9&#45;&gt;Node13 -->
<g id="edge13" class="edge"><title>Node9&#45;&gt;Node13</title>
<path fill="none" stroke="midnightblue" d="M595.289,-150.573C622.71,-143.938 657.107,-135.615 686.357,-128.537"/>
<polygon fill="midnightblue" stroke="midnightblue" points="594.421,-147.182 585.525,-152.936 596.067,-153.986 594.421,-147.182"/>
</g>
<!-- Node14 -->
<g id="node15" class="node"><title>Node14</title>
<g id="a_node15"><a xlink:href="class_system_1_1_reflection_1_1_emit_1_1_symbol_method.html" target="_top" xlink:title=" ">
<polygon fill="none" stroke="black" points="672,-49.5 672,-79.5 827,-79.5 827,-49.5 672,-49.5"/>
<text text-anchor="start" x="680" y="-67.5" font-family="Helvetica,sans-Serif" font-size="10.00">System.Reflection.Emit.Symbol</text>
<text text-anchor="middle" x="749.5" y="-56.5" font-family="Helvetica,sans-Serif" font-size="10.00">Method</text>
</a>
</g>
</g>
<!-- Node9&#45;&gt;Node14 -->
<g id="edge14" class="edge"><title>Node9&#45;&gt;Node14</title>
<path fill="none" stroke="midnightblue" d="M566.801,-146.703C589.415,-130.177 627.14,-104.463 663,-88.5 670.465,-85.177 678.504,-82.2012 686.559,-79.5713"/>
<polygon fill="midnightblue" stroke="midnightblue" points="564.585,-143.988 558.633,-152.754 568.752,-149.613 564.585,-143.988"/>
</g>
<!-- Node15 -->
<g id="node16" class="node"><title>Node15</title>
<g id="a_node16"><a xlink:href="class_system_1_1_reflection_1_1_runtime_method_info.html" target="_top" xlink:title=" ">
<polygon fill="none" stroke="black" points="682,-0.5 682,-30.5 817,-30.5 817,-0.5 682,-0.5"/>
<text text-anchor="start" x="690" y="-18.5" font-family="Helvetica,sans-Serif" font-size="10.00">System.Reflection.Runtime</text>
<text text-anchor="middle" x="749.5" y="-7.5" font-family="Helvetica,sans-Serif" font-size="10.00">MethodInfo</text>
</a>
</g>
</g>
<!-- Node9&#45;&gt;Node15 -->
<g id="edge15" class="edge"><title>Node9&#45;&gt;Node15</title>
<path fill="none" stroke="midnightblue" d="M558.288,-144.363C577.478,-117.438 617.153,-67.1085 663,-39.5 668.811,-36.0005 675.151,-32.9949 681.665,-30.4169"/>
<polygon fill="midnightblue" stroke="midnightblue" points="555.229,-142.631 552.378,-152.836 560.97,-146.636 555.229,-142.631"/>
</g>
</g>
</svg>
