<?xml version="1.0" encoding="UTF-8" standalone="no"?>
<!DOCTYPE svg PUBLIC "-//W3C//DTD SVG 1.1//EN"
 "http://www.w3.org/Graphics/SVG/1.1/DTD/svg11.dtd">
<!-- Generated by graphviz version 2.38.0 (20140413.2041)
 -->
<!-- Title: System.Collections.Generic.NullableEqualityComparer&lt; T &gt; Pages: 1 -->
<svg width="253pt" height="309pt"
 viewBox="0.00 0.00 252.50 309.00" xmlns="http://www.w3.org/2000/svg" xmlns:xlink="http://www.w3.org/1999/xlink">
<g id="graph0" class="graph" transform="scale(1 1) rotate(0) translate(4 305)">
<title>System.Collections.Generic.NullableEqualityComparer&lt; T &gt;</title>
<!-- Node6 -->
<g id="node1" class="node"><title>Node6</title>
<g id="a_node1"><a xlink:title=" ">
<polygon fill="#bfbfbf" stroke="black" points="9,-0.5 9,-30.5 161,-30.5 161,-0.5 9,-0.5"/>
<text text-anchor="start" x="17" y="-18.5" font-family="Helvetica,sans-Serif" font-size="10.00">System.Collections.Generic.</text>
<text text-anchor="middle" x="85" y="-7.5" font-family="Helvetica,sans-Serif" font-size="10.00">NullableEqualityComparer&lt; T &gt;</text>
</a>
</g>
</g>
<!-- Node7 -->
<g id="node2" class="node"><title>Node7</title>
<g id="a_node2"><a xlink:href="class_system_1_1_collections_1_1_generic_1_1_equality_comparer.html" target="_top" xlink:title=" ">
<polygon fill="none" stroke="black" points="25.5,-68.5 25.5,-87.5 144.5,-87.5 144.5,-68.5 25.5,-68.5"/>
<text text-anchor="middle" x="85" y="-75.5" font-family="Helvetica,sans-Serif" font-size="10.00">EqualityComparer&lt; T?&gt;</text>
</a>
</g>
</g>
<!-- Node7&#45;&gt;Node6 -->
<g id="edge1" class="edge"><title>Node7&#45;&gt;Node6</title>
<path fill="none" stroke="midnightblue" d="M85,-58.2154C85,-49.3565 85,-38.9577 85,-30.7587"/>
<polygon fill="midnightblue" stroke="midnightblue" points="81.5001,-58.3318 85,-68.3318 88.5001,-58.3319 81.5001,-58.3318"/>
</g>
<!-- Node8 -->
<g id="node3" class="node"><title>Node8</title>
<g id="a_node3"><a xlink:href="class_system_1_1_collections_1_1_generic_1_1_equality_comparer.html" target="_top" xlink:title="Provides a base class for implementations of the T:System.Collections.Generic.IEqualityComparer`1 gen...">
<polygon fill="none" stroke="black" points="14.5,-135.5 14.5,-165.5 155.5,-165.5 155.5,-135.5 14.5,-135.5"/>
<text text-anchor="start" x="22.5" y="-153.5" font-family="Helvetica,sans-Serif" font-size="10.00">System.Collections.Generic.</text>
<text text-anchor="middle" x="85" y="-142.5" font-family="Helvetica,sans-Serif" font-size="10.00">EqualityComparer&lt; T &gt;</text>
</a>
</g>
</g>
<!-- Node8&#45;&gt;Node7 -->
<g id="edge2" class="edge"><title>Node8&#45;&gt;Node7</title>
<path fill="none" stroke="orange" stroke-dasharray="5,2" d="M85,-125.091C85,-112.214 85,-97.1974 85,-87.8932"/>
<polygon fill="orange" stroke="orange" points="81.5001,-125.233 85,-135.233 88.5001,-125.233 81.5001,-125.233"/>
<text text-anchor="middle" x="99.5" y="-109" font-family="Helvetica,sans-Serif" font-size="10.00"> &lt; T?&gt;</text>
</g>
<!-- Node9 -->
<g id="node4" class="node"><title>Node9</title>
<g id="a_node4"><a xlink:href="interface_system_1_1_collections_1_1_generic_1_1_i_equality_comparer.html" target="_top" xlink:title="Defines methods to support the comparison of objects for equality.">
<polygon fill="none" stroke="black" points="0,-203.5 0,-222.5 96,-222.5 96,-203.5 0,-203.5"/>
<text text-anchor="middle" x="48" y="-210.5" font-family="Helvetica,sans-Serif" font-size="10.00">IEqualityComparer</text>
</a>
</g>
</g>
<!-- Node9&#45;&gt;Node8 -->
<g id="edge3" class="edge"><title>Node9&#45;&gt;Node8</title>
<path fill="none" stroke="midnightblue" d="M58.5942,-194.677C64.1952,-185.519 70.987,-174.413 76.2798,-165.759"/>
<polygon fill="midnightblue" stroke="midnightblue" points="55.5327,-192.975 53.3012,-203.332 61.5045,-196.627 55.5327,-192.975"/>
</g>
<!-- Node10 -->
<g id="node5" class="node"><title>Node10</title>
<g id="a_node5"><a xlink:href="interface_system_1_1_collections_1_1_generic_1_1_i_equality_comparer.html" target="_top" xlink:title=" ">
<polygon fill="none" stroke="black" points="114.5,-203.5 114.5,-222.5 233.5,-222.5 233.5,-203.5 114.5,-203.5"/>
<text text-anchor="middle" x="174" y="-210.5" font-family="Helvetica,sans-Serif" font-size="10.00">IEqualityComparer&lt; T &gt;</text>
</a>
</g>
</g>
<!-- Node10&#45;&gt;Node8 -->
<g id="edge4" class="edge"><title>Node10&#45;&gt;Node8</title>
<path fill="none" stroke="midnightblue" d="M152.606,-197.457C138.354,-187.769 119.726,-175.106 105.633,-165.526"/>
<polygon fill="midnightblue" stroke="midnightblue" points="151.011,-200.605 161.248,-203.332 154.946,-194.815 151.011,-200.605"/>
</g>
<!-- Node11 -->
<g id="node6" class="node"><title>Node11</title>
<g id="a_node6"><a xlink:href="interface_system_1_1_collections_1_1_generic_1_1_i_equality_comparer.html" target="_top" xlink:title="Defines methods to support the comparison of objects for equality.">
<polygon fill="none" stroke="black" points="103.5,-270.5 103.5,-300.5 244.5,-300.5 244.5,-270.5 103.5,-270.5"/>
<text text-anchor="start" x="111.5" y="-288.5" font-family="Helvetica,sans-Serif" font-size="10.00">System.Collections.Generic.</text>
<text text-anchor="middle" x="174" y="-277.5" font-family="Helvetica,sans-Serif" font-size="10.00">IEqualityComparer&lt; in in T &gt;</text>
</a>
</g>
</g>
<!-- Node11&#45;&gt;Node10 -->
<g id="edge5" class="edge"><title>Node11&#45;&gt;Node10</title>
<path fill="none" stroke="orange" stroke-dasharray="5,2" d="M174,-260.091C174,-247.214 174,-232.197 174,-222.893"/>
<polygon fill="orange" stroke="orange" points="170.5,-260.233 174,-270.233 177.5,-260.233 170.5,-260.233"/>
<text text-anchor="middle" x="187.5" y="-244" font-family="Helvetica,sans-Serif" font-size="10.00"> &lt; T &gt;</text>
</g>
</g>
</svg>
