<?xml version="1.0" encoding="UTF-8" standalone="no"?>
<!DOCTYPE svg PUBLIC "-//W3C//DTD SVG 1.1//EN"
 "http://www.w3.org/Graphics/SVG/1.1/DTD/svg11.dtd">
<!-- Generated by graphviz version 2.38.0 (20140413.2041)
 -->
<!-- Title: System.IO.Pipes.PipeStream Pages: 1 -->
<svg width="419pt" height="186pt"
 viewBox="0.00 0.00 419.00 186.00" xmlns="http://www.w3.org/2000/svg" xmlns:xlink="http://www.w3.org/1999/xlink">
<g id="graph0" class="graph" transform="scale(1 1) rotate(0) translate(4 182)">
<title>System.IO.Pipes.PipeStream</title>
<!-- Node0 -->
<g id="node1" class="node"><title>Node0</title>
<g id="a_node1"><a xlink:title="Exposes a T:System.IO.Stream object around a pipe, which supports both anonymous and named pipes.">
<polygon fill="#bfbfbf" stroke="black" points="84,-79 84,-98 229,-98 229,-79 84,-79"/>
<text text-anchor="middle" x="156.5" y="-86" font-family="Helvetica,sans-Serif" font-size="10.00">System.IO.Pipes.PipeStream</text>
</a>
</g>
</g>
<!-- Node4 -->
<g id="node3" class="node"><title>Node4</title>
<g id="a_node3"><a xlink:href="class_system_1_1_i_o_1_1_pipes_1_1_anonymous_pipe_client_stream.html" target="_top" xlink:title="Exposes the client side of an anonymous pipe stream, which supports both synchronous and asynchronous...">
<polygon fill="none" stroke="black" points="265,-147.5 265,-177.5 411,-177.5 411,-147.5 265,-147.5"/>
<text text-anchor="start" x="273" y="-165.5" font-family="Helvetica,sans-Serif" font-size="10.00">System.IO.Pipes.Anonymous</text>
<text text-anchor="middle" x="338" y="-154.5" font-family="Helvetica,sans-Serif" font-size="10.00">PipeClientStream</text>
</a>
</g>
</g>
<!-- Node0&#45;&gt;Node4 -->
<g id="edge2" class="edge"><title>Node0&#45;&gt;Node4</title>
<path fill="none" stroke="midnightblue" d="M185.431,-102.557C206.908,-113.104 237.468,-127.549 265,-138.5 272.713,-141.568 280.991,-144.579 289.087,-147.376"/>
<polygon fill="midnightblue" stroke="midnightblue" points="186.76,-99.3102 176.245,-98.0121 183.656,-105.584 186.76,-99.3102"/>
</g>
<!-- Node5 -->
<g id="node4" class="node"><title>Node5</title>
<g id="a_node4"><a xlink:href="class_system_1_1_i_o_1_1_pipes_1_1_anonymous_pipe_server_stream.html" target="_top" xlink:title="Exposes a stream around an anonymous pipe, which supports both synchronous and asynchronous read and ...">
<polygon fill="none" stroke="black" points="265,-98.5 265,-128.5 411,-128.5 411,-98.5 265,-98.5"/>
<text text-anchor="start" x="273" y="-116.5" font-family="Helvetica,sans-Serif" font-size="10.00">System.IO.Pipes.Anonymous</text>
<text text-anchor="middle" x="338" y="-105.5" font-family="Helvetica,sans-Serif" font-size="10.00">PipeServerStream</text>
</a>
</g>
</g>
<!-- Node0&#45;&gt;Node5 -->
<g id="edge3" class="edge"><title>Node0&#45;&gt;Node5</title>
<path fill="none" stroke="midnightblue" d="M235.862,-99.4139C245.527,-100.76 255.372,-102.131 264.937,-103.463"/>
<polygon fill="midnightblue" stroke="midnightblue" points="236.261,-95.9357 225.873,-98.0227 235.295,-102.869 236.261,-95.9357"/>
</g>
<!-- Node6 -->
<g id="node5" class="node"><title>Node6</title>
<g id="a_node5"><a xlink:href="class_system_1_1_i_o_1_1_pipes_1_1_named_pipe_client_stream.html" target="_top" xlink:title="Exposes a T:System.IO.Stream around a named pipe, which supports both synchronous and asynchronous re...">
<polygon fill="none" stroke="black" points="266,-49.5 266,-79.5 410,-79.5 410,-49.5 266,-49.5"/>
<text text-anchor="start" x="274" y="-67.5" font-family="Helvetica,sans-Serif" font-size="10.00">System.IO.Pipes.NamedPipe</text>
<text text-anchor="middle" x="338" y="-56.5" font-family="Helvetica,sans-Serif" font-size="10.00">ClientStream</text>
</a>
</g>
</g>
<!-- Node0&#45;&gt;Node6 -->
<g id="edge4" class="edge"><title>Node0&#45;&gt;Node6</title>
<path fill="none" stroke="midnightblue" d="M238.826,-77.6264C247.854,-76.4192 256.997,-75.1968 265.885,-74.0084"/>
<polygon fill="midnightblue" stroke="midnightblue" points="238.149,-74.1856 228.701,-78.9801 239.077,-81.1239 238.149,-74.1856"/>
</g>
<!-- Node7 -->
<g id="node6" class="node"><title>Node7</title>
<g id="a_node6"><a xlink:href="class_system_1_1_i_o_1_1_pipes_1_1_named_pipe_server_stream.html" target="_top" xlink:title="Exposes a T:System.IO.Stream around a named pipe, supporting both synchronous and asynchronous read a...">
<polygon fill="none" stroke="black" points="266,-0.5 266,-30.5 410,-30.5 410,-0.5 266,-0.5"/>
<text text-anchor="start" x="274" y="-18.5" font-family="Helvetica,sans-Serif" font-size="10.00">System.IO.Pipes.NamedPipe</text>
<text text-anchor="middle" x="338" y="-7.5" font-family="Helvetica,sans-Serif" font-size="10.00">ServerStream</text>
</a>
</g>
</g>
<!-- Node0&#45;&gt;Node7 -->
<g id="edge5" class="edge"><title>Node0&#45;&gt;Node7</title>
<path fill="none" stroke="midnightblue" d="M186.243,-74.3927C207.692,-64.1131 237.854,-50.1764 265,-39.5 272.848,-36.4136 281.271,-33.3703 289.493,-30.5416"/>
<polygon fill="midnightblue" stroke="midnightblue" points="184.528,-71.3343 177.044,-78.8335 187.571,-77.6383 184.528,-71.3343"/>
</g>
<!-- Node1 -->
<g id="node2" class="node"><title>Node1</title>
<g id="a_node2"><a xlink:href="class_system_1_1_i_o_1_1_stream.html" target="_top" xlink:title="Provides a generic view of a sequence of bytes. This is an abstract class.To browse the ....">
<polygon fill="none" stroke="red" points="0,-79 0,-98 48,-98 48,-79 0,-79"/>
<text text-anchor="middle" x="24" y="-86" font-family="Helvetica,sans-Serif" font-size="10.00">Stream</text>
</a>
</g>
</g>
<!-- Node1&#45;&gt;Node0 -->
<g id="edge1" class="edge"><title>Node1&#45;&gt;Node0</title>
<path fill="none" stroke="midnightblue" d="M58.283,-88.5C66.2305,-88.5 75.0183,-88.5 83.9653,-88.5"/>
<polygon fill="midnightblue" stroke="midnightblue" points="58.0304,-85.0001 48.0304,-88.5 58.0303,-92.0001 58.0304,-85.0001"/>
</g>
</g>
</svg>
