<?xml version="1.0" encoding="UTF-8" standalone="no"?>
<!DOCTYPE svg PUBLIC "-//W3C//DTD SVG 1.1//EN"
 "http://www.w3.org/Graphics/SVG/1.1/DTD/svg11.dtd">
<!-- Generated by graphviz version 2.38.0 (20140413.2041)
 -->
<!-- Title: System.Reflection.Emit.ConstructorBuilder Pages: 1 -->
<svg width="926pt" height="333pt"
 viewBox="0.00 0.00 926.00 333.00" xmlns="http://www.w3.org/2000/svg" xmlns:xlink="http://www.w3.org/1999/xlink">
<g id="graph0" class="graph" transform="scale(1 1) rotate(0) translate(4 329)">
<title>System.Reflection.Emit.ConstructorBuilder</title>
<!-- Node9 -->
<g id="node1" class="node"><title>Node9</title>
<g id="a_node1"><a xlink:title="Defines and represents a constructor of a dynamic class.">
<polygon fill="#bfbfbf" stroke="black" points="745,-179 745,-209 918,-209 918,-179 745,-179"/>
<text text-anchor="start" x="753" y="-197" font-family="Helvetica,sans-Serif" font-size="10.00">System.Reflection.Emit.Constructor</text>
<text text-anchor="middle" x="831.5" y="-186" font-family="Helvetica,sans-Serif" font-size="10.00">Builder</text>
</a>
</g>
</g>
<!-- Node10 -->
<g id="node2" class="node"><title>Node10</title>
<g id="a_node2"><a xlink:href="class_system_1_1_reflection_1_1_constructor_info.html" target="_top" xlink:title="Discovers the attributes of a class constructor and provides access to constructor metadata.">
<polygon fill="none" stroke="black" points="526,-289.5 526,-308.5 608,-308.5 608,-289.5 526,-289.5"/>
<text text-anchor="middle" x="567" y="-296.5" font-family="Helvetica,sans-Serif" font-size="10.00">ConstructorInfo</text>
</a>
</g>
</g>
<!-- Node10&#45;&gt;Node9 -->
<g id="edge1" class="edge"><title>Node10&#45;&gt;Node9</title>
<path fill="none" stroke="midnightblue" d="M617.889,-287.677C626.346,-285.384 634.981,-282.805 643,-280 701.144,-259.663 765.797,-227.832 801.966,-209.133"/>
<polygon fill="midnightblue" stroke="midnightblue" points="616.883,-284.322 608.091,-290.234 618.65,-291.095 616.883,-284.322"/>
</g>
<!-- Node11 -->
<g id="node3" class="node"><title>Node11</title>
<g id="a_node3"><a xlink:href="class_system_1_1_reflection_1_1_method_base.html" target="_top" xlink:title="Provides information about methods and constructors.">
<polygon fill="none" stroke="black" points="297,-267.5 297,-286.5 368,-286.5 368,-267.5 297,-267.5"/>
<text text-anchor="middle" x="332.5" y="-274.5" font-family="Helvetica,sans-Serif" font-size="10.00">MethodBase</text>
</a>
</g>
</g>
<!-- Node11&#45;&gt;Node10 -->
<g id="edge2" class="edge"><title>Node11&#45;&gt;Node10</title>
<path fill="none" stroke="midnightblue" d="M378.162,-281.226C420.852,-285.266 484.635,-291.301 525.781,-295.194"/>
<polygon fill="midnightblue" stroke="midnightblue" points="378.342,-277.728 368.057,-280.27 377.682,-284.696 378.342,-277.728"/>
</g>
<!-- Node12 -->
<g id="node4" class="node"><title>Node12</title>
<g id="a_node4"><a xlink:href="class_system_1_1_reflection_1_1_member_info.html" target="_top" xlink:title="Obtains information about the attributes of a member and provides access to member metadata.">
<polygon fill="none" stroke="black" points="166,-147.5 166,-166.5 233,-166.5 233,-147.5 166,-147.5"/>
<text text-anchor="middle" x="199.5" y="-154.5" font-family="Helvetica,sans-Serif" font-size="10.00">MemberInfo</text>
</a>
</g>
</g>
<!-- Node12&#45;&gt;Node11 -->
<g id="edge3" class="edge"><title>Node12&#45;&gt;Node11</title>
<path fill="none" stroke="midnightblue" d="M209.6,-175.512C221.601,-198.095 244.783,-235.976 275,-258 281.44,-262.694 289.117,-266.283 296.705,-269.007"/>
<polygon fill="midnightblue" stroke="midnightblue" points="212.701,-173.89 205.02,-166.593 206.474,-177.087 212.701,-173.89"/>
</g>
<!-- Node20 -->
<g id="node12" class="node"><title>Node20</title>
<g id="a_node12"><a xlink:href="class_system_1_1_type.html" target="_top" xlink:title="Represents type declarations: class types, interface types, array types, value types,...">
<polygon fill="none" stroke="black" points="295.5,-19.5 295.5,-38.5 369.5,-38.5 369.5,-19.5 295.5,-19.5"/>
<text text-anchor="middle" x="332.5" y="-26.5" font-family="Helvetica,sans-Serif" font-size="10.00">System.Type</text>
</a>
</g>
</g>
<!-- Node12&#45;&gt;Node20 -->
<g id="edge13" class="edge"><title>Node12&#45;&gt;Node20</title>
<path fill="none" stroke="midnightblue" d="M215.729,-139.497C230.409,-122.908 253.499,-97.5428 275,-77 289.704,-62.9516 307.78,-47.96 319.464,-38.5408"/>
<polygon fill="midnightblue" stroke="midnightblue" points="212.845,-137.478 208.873,-147.3 218.103,-142.098 212.845,-137.478"/>
</g>
<!-- Node13 -->
<g id="node5" class="node"><title>Node13</title>
<g id="a_node5"><a xlink:href="interface_system_1_1_reflection_1_1_i_custom_attribute_provider.html" target="_top" xlink:title="Provides custom attributes for reflection objects that support them.">
<polygon fill="none" stroke="black" points="0,-185.5 0,-204.5 124,-204.5 124,-185.5 0,-185.5"/>
<text text-anchor="middle" x="62" y="-192.5" font-family="Helvetica,sans-Serif" font-size="10.00">ICustomAttributeProvider</text>
</a>
</g>
</g>
<!-- Node13&#45;&gt;Node12 -->
<g id="edge4" class="edge"><title>Node13&#45;&gt;Node12</title>
<path fill="none" stroke="midnightblue" d="M106.891,-182.691C126.019,-177.327 148.055,-171.147 165.721,-166.193"/>
<polygon fill="midnightblue" stroke="midnightblue" points="105.876,-179.341 97.1924,-185.411 107.766,-186.081 105.876,-179.341"/>
</g>
<!-- Node23 -->
<g id="node15" class="node"><title>Node23</title>
<g id="a_node15"><a xlink:href="class_system_1_1_reflection_1_1_module.html" target="_top" xlink:title="Performs reflection on a module.">
<polygon fill="none" stroke="black" points="501.5,-146.5 501.5,-165.5 632.5,-165.5 632.5,-146.5 501.5,-146.5"/>
<text text-anchor="middle" x="567" y="-153.5" font-family="Helvetica,sans-Serif" font-size="10.00">System.Reflection.Module</text>
</a>
</g>
</g>
<!-- Node13&#45;&gt;Node23 -->
<g id="edge20" class="edge"><title>Node13&#45;&gt;Node23</title>
<path fill="none" stroke="midnightblue" d="M134.642,-194.352C200.99,-193.231 302.341,-190.194 390,-182 431.055,-178.162 477.154,-171.257 511.871,-165.527"/>
<polygon fill="midnightblue" stroke="midnightblue" points="134.245,-190.858 124.301,-194.516 134.356,-197.857 134.245,-190.858"/>
</g>
<!-- Node14 -->
<g id="node6" class="node"><title>Node14</title>
<g id="a_node6"><a xlink:href="interface_system_1_1_runtime_1_1_interop_services_1_1___member_info.html" target="_top" xlink:title="Exposes the public members of the T:System.Reflection.MemberInfo class to unmanaged code.">
<polygon fill="none" stroke="black" points="26,-141.5 26,-160.5 98,-160.5 98,-141.5 26,-141.5"/>
<text text-anchor="middle" x="62" y="-148.5" font-family="Helvetica,sans-Serif" font-size="10.00">_MemberInfo</text>
</a>
</g>
</g>
<!-- Node14&#45;&gt;Node12 -->
<g id="edge5" class="edge"><title>Node14&#45;&gt;Node12</title>
<path fill="none" stroke="midnightblue" d="M108.376,-153.009C127.164,-153.841 148.538,-154.788 165.755,-155.55"/>
<polygon fill="midnightblue" stroke="midnightblue" points="108.392,-149.507 98.2473,-152.561 108.083,-156.5 108.392,-149.507"/>
</g>
<!-- Node15 -->
<g id="node7" class="node"><title>Node15</title>
<g id="a_node7"><a xlink:href="interface_system_1_1_runtime_1_1_interop_services_1_1___method_base.html" target="_top" xlink:title="Exposes the public members of the T:System.Reflection.MethodBase class to unmanaged code.">
<polygon fill="none" stroke="black" points="161,-267.5 161,-286.5 238,-286.5 238,-267.5 161,-267.5"/>
<text text-anchor="middle" x="199.5" y="-274.5" font-family="Helvetica,sans-Serif" font-size="10.00">_MethodBase</text>
</a>
</g>
</g>
<!-- Node15&#45;&gt;Node11 -->
<g id="edge6" class="edge"><title>Node15&#45;&gt;Node11</title>
<path fill="none" stroke="midnightblue" d="M248.292,-277C264.296,-277 281.825,-277 296.65,-277"/>
<polygon fill="midnightblue" stroke="midnightblue" points="248.039,-273.5 238.039,-277 248.039,-280.5 248.039,-273.5"/>
</g>
<!-- Node16 -->
<g id="node8" class="node"><title>Node16</title>
<g id="a_node8"><a xlink:href="interface_system_1_1_runtime_1_1_interop_services_1_1___constructor_info.html" target="_top" xlink:title="Exposes the public members of the T:System.Reflection.ConstructorInfo class to unmanaged code.">
<polygon fill="none" stroke="black" points="289,-305.5 289,-324.5 376,-324.5 376,-305.5 289,-305.5"/>
<text text-anchor="middle" x="332.5" y="-312.5" font-family="Helvetica,sans-Serif" font-size="10.00">_ConstructorInfo</text>
</a>
</g>
</g>
<!-- Node16&#45;&gt;Node10 -->
<g id="edge7" class="edge"><title>Node16&#45;&gt;Node10</title>
<path fill="none" stroke="midnightblue" d="M386.282,-311.368C428.69,-308.449 487.348,-304.413 525.957,-301.756"/>
<polygon fill="midnightblue" stroke="midnightblue" points="385.88,-307.887 376.144,-312.065 386.361,-314.87 385.88,-307.887"/>
</g>
<!-- Node17 -->
<g id="node9" class="node"><title>Node17</title>
<g id="a_node9"><a xlink:href="interface_system_1_1_runtime_1_1_interop_services_1_1___constructor_builder.html" target="_top" xlink:title="Exposes the T:System.Reflection.Emit.ConstructorBuilder class to unmanaged code.">
<polygon fill="none" stroke="black" points="516,-251.5 516,-270.5 618,-270.5 618,-251.5 516,-251.5"/>
<text text-anchor="middle" x="567" y="-258.5" font-family="Helvetica,sans-Serif" font-size="10.00">_ConstructorBuilder</text>
</a>
</g>
</g>
<!-- Node17&#45;&gt;Node9 -->
<g id="edge8" class="edge"><title>Node17&#45;&gt;Node9</title>
<path fill="none" stroke="midnightblue" d="M615.496,-248.987C624.625,-246.672 634.11,-244.264 643,-242 686.145,-231.012 734.857,-218.54 771.816,-209.063"/>
<polygon fill="midnightblue" stroke="midnightblue" points="614.608,-245.601 605.774,-251.45 616.328,-252.387 614.608,-245.601"/>
</g>
<!-- Node18 -->
<g id="node10" class="node"><title>Node18</title>
<g id="a_node10"><a xlink:href="struct_system_1_1_runtime_method_handle.html" target="_top" xlink:title="T:System.RuntimeMethodHandle is a handle to the internal metadata representation of a method.">
<polygon fill="none" stroke="black" points="491,-184.5 491,-203.5 643,-203.5 643,-184.5 491,-184.5"/>
<text text-anchor="middle" x="567" y="-191.5" font-family="Helvetica,sans-Serif" font-size="10.00">System.RuntimeMethodHandle</text>
</a>
</g>
</g>
<!-- Node18&#45;&gt;Node9 -->
<g id="edge9" class="edge"><title>Node18&#45;&gt;Node9</title>
<path fill="none" stroke="#9a32cd" stroke-dasharray="5,2" d="M653.408,-194C682.647,-194 715.357,-194 744.631,-194"/>
<polygon fill="#9a32cd" stroke="#9a32cd" points="653.222,-190.5 643.222,-194 653.222,-197.5 653.222,-190.5"/>
<text text-anchor="middle" x="694" y="-197" font-family="Helvetica,sans-Serif" font-size="10.00"> MethodHandle</text>
</g>
<!-- Node18&#45;&gt;Node18 -->
<g id="edge11" class="edge"><title>Node18&#45;&gt;Node18</title>
<path fill="none" stroke="#9a32cd" stroke-dasharray="5,2" d="M543.563,-213.029C544.841,-218.128 552.654,-222 567,-222 589.395,-222 595.868,-212.565 586.42,-203.757"/>
<polygon fill="#9a32cd" stroke="#9a32cd" points="546.816,-214.324 547.58,-203.757 540.393,-211.541 546.816,-214.324"/>
<text text-anchor="middle" x="567" y="-225" font-family="Helvetica,sans-Serif" font-size="10.00"> EmptyHandle</text>
</g>
<!-- Node19 -->
<g id="node11" class="node"><title>Node19</title>
<g id="a_node11"><a xlink:href="interface_system_1_1_runtime_1_1_serialization_1_1_i_serializable.html" target="_top" xlink:title="Allows an object to control its own serialization and deserialization.">
<polygon fill="none" stroke="black" points="298,-229.5 298,-248.5 367,-248.5 367,-229.5 298,-229.5"/>
<text text-anchor="middle" x="332.5" y="-236.5" font-family="Helvetica,sans-Serif" font-size="10.00">ISerializable</text>
</a>
</g>
</g>
<!-- Node19&#45;&gt;Node18 -->
<g id="edge10" class="edge"><title>Node19&#45;&gt;Node18</title>
<path fill="none" stroke="midnightblue" d="M377.406,-243.008C405.158,-244.407 441.587,-244.147 473,-237 501.966,-230.41 532.717,-214.119 550.597,-203.588"/>
<polygon fill="midnightblue" stroke="midnightblue" points="377.414,-239.502 367.223,-242.401 376.997,-246.49 377.414,-239.502"/>
</g>
<!-- Node19&#45;&gt;Node23 -->
<g id="edge19" class="edge"><title>Node19&#45;&gt;Node23</title>
<path fill="none" stroke="midnightblue" d="M377.172,-240.321C406.954,-239.051 445.78,-232.891 473,-212 487.507,-200.866 476.816,-186.542 491,-175 495.793,-171.1 501.284,-167.988 507.069,-165.507"/>
<polygon fill="midnightblue" stroke="midnightblue" points="376.955,-236.825 367.048,-240.582 377.135,-243.823 376.955,-236.825"/>
</g>
<!-- Node20&#45;&gt;Node9 -->
<g id="edge12" class="edge"><title>Node20&#45;&gt;Node9</title>
<path fill="none" stroke="#9a32cd" stroke-dasharray="5,2" d="M379.781,-39.8968C440.789,-54.7053 551.138,-83.0316 643,-115 698.546,-134.33 761.153,-161.934 798.139,-178.872"/>
<polygon fill="#9a32cd" stroke="#9a32cd" points="380.244,-36.408 369.702,-37.4643 378.602,-43.2126 380.244,-36.408"/>
<text text-anchor="middle" x="567" y="-129" font-family="Helvetica,sans-Serif" font-size="10.00"> ReflectedType</text>
<text text-anchor="middle" x="567" y="-118" font-family="Helvetica,sans-Serif" font-size="10.00">DeclaringType</text>
</g>
<!-- Node20&#45;&gt;Node20 -->
<g id="edge16" class="edge"><title>Node20&#45;&gt;Node20</title>
<path fill="none" stroke="#9a32cd" stroke-dasharray="5,2" d="M318.504,-48.7663C319.603,-53.4965 324.269,-57 332.5,-57 346.008,-57 349.912,-47.5653 344.214,-38.7571"/>
<polygon fill="#9a32cd" stroke="#9a32cd" points="321.976,-49.2849 320.786,-38.7571 315.151,-47.7288 321.976,-49.2849"/>
<text text-anchor="middle" x="332.5" y="-60" font-family="Helvetica,sans-Serif" font-size="10.00"> EmptyTypes</text>
</g>
<!-- Node21 -->
<g id="node13" class="node"><title>Node21</title>
<g id="a_node13"><a xlink:href="interface_system_1_1_runtime_1_1_interop_services_1_1___type.html" target="_top" xlink:title="Exposes the public members of the T:System.Type class to the unmanaged code.">
<polygon fill="none" stroke="black" points="178,-0.5 178,-19.5 221,-19.5 221,-0.5 178,-0.5"/>
<text text-anchor="middle" x="199.5" y="-7.5" font-family="Helvetica,sans-Serif" font-size="10.00">_Type</text>
</a>
</g>
</g>
<!-- Node21&#45;&gt;Node20 -->
<g id="edge14" class="edge"><title>Node21&#45;&gt;Node20</title>
<path fill="none" stroke="midnightblue" d="M231.261,-14.4615C250.417,-17.2399 275.152,-20.8273 295.257,-23.7434"/>
<polygon fill="midnightblue" stroke="midnightblue" points="231.656,-10.9823 221.257,-13.0106 230.651,-17.9098 231.656,-10.9823"/>
</g>
<!-- Node22 -->
<g id="node14" class="node"><title>Node22</title>
<g id="a_node14"><a xlink:href="interface_system_1_1_reflection_1_1_i_reflect.html" target="_top" xlink:title="Interoperates with the IDispatch interface.">
<polygon fill="none" stroke="black" points="175,-38.5 175,-57.5 224,-57.5 224,-38.5 175,-38.5"/>
<text text-anchor="middle" x="199.5" y="-45.5" font-family="Helvetica,sans-Serif" font-size="10.00">IReflect</text>
</a>
</g>
</g>
<!-- Node22&#45;&gt;Node20 -->
<g id="edge15" class="edge"><title>Node22&#45;&gt;Node20</title>
<path fill="none" stroke="midnightblue" d="M234.367,-43.088C253.068,-40.3757 276.295,-37.0068 295.347,-34.2436"/>
<polygon fill="midnightblue" stroke="midnightblue" points="233.617,-39.66 224.223,-44.5592 234.622,-46.5876 233.617,-39.66"/>
</g>
<!-- Node23&#45;&gt;Node9 -->
<g id="edge17" class="edge"><title>Node23&#45;&gt;Node9</title>
<path fill="none" stroke="#9a32cd" stroke-dasharray="5,2" d="M642.614,-166.789C669.245,-170.641 699.464,-175.013 727,-179 732.84,-179.846 738.865,-180.718 744.935,-181.597"/>
<polygon fill="#9a32cd" stroke="#9a32cd" points="642.995,-163.308 632.597,-165.34 641.993,-170.236 642.995,-163.308"/>
<text text-anchor="middle" x="694" y="-182" font-family="Helvetica,sans-Serif" font-size="10.00"> Module</text>
</g>
<!-- Node24 -->
<g id="node16" class="node"><title>Node24</title>
<g id="a_node16"><a xlink:href="interface_system_1_1_runtime_1_1_interop_services_1_1___module.html" target="_top" xlink:title="Exposes the T:System.Reflection.Module class to unmanaged code.">
<polygon fill="none" stroke="black" points="306,-86.5 306,-105.5 359,-105.5 359,-86.5 306,-86.5"/>
<text text-anchor="middle" x="332.5" y="-93.5" font-family="Helvetica,sans-Serif" font-size="10.00">_Module</text>
</a>
</g>
</g>
<!-- Node24&#45;&gt;Node23 -->
<g id="edge18" class="edge"><title>Node24&#45;&gt;Node23</title>
<path fill="none" stroke="midnightblue" d="M369.085,-105.183C412.38,-116.356 485.117,-135.127 529.029,-146.459"/>
<polygon fill="midnightblue" stroke="midnightblue" points="369.827,-101.76 359.27,-102.65 368.078,-108.538 369.827,-101.76"/>
</g>
<!-- Node25 -->
<g id="node17" class="node"><title>Node25</title>
<g id="a_node17"><a xlink:href="struct_system_1_1_module_handle.html" target="_top" xlink:title="Represents a runtime handle for a module.">
<polygon fill="none" stroke="black" points="275,-124.5 275,-143.5 390,-143.5 390,-124.5 275,-124.5"/>
<text text-anchor="middle" x="332.5" y="-131.5" font-family="Helvetica,sans-Serif" font-size="10.00">System.ModuleHandle</text>
</a>
</g>
</g>
<!-- Node25&#45;&gt;Node23 -->
<g id="edge21" class="edge"><title>Node25&#45;&gt;Node23</title>
<path fill="none" stroke="#9a32cd" stroke-dasharray="5,2" d="M400.169,-140.308C431.954,-143.316 469.824,-146.9 501.346,-149.882"/>
<polygon fill="#9a32cd" stroke="#9a32cd" points="400.364,-136.811 390.079,-139.354 399.704,-143.78 400.364,-136.811"/>
<text text-anchor="middle" x="440.5" y="-150" font-family="Helvetica,sans-Serif" font-size="10.00"> ModuleHandle</text>
</g>
<!-- Node25&#45;&gt;Node25 -->
<g id="edge22" class="edge"><title>Node25&#45;&gt;Node25</title>
<path fill="none" stroke="#9a32cd" stroke-dasharray="5,2" d="M318.504,-153.766C319.603,-158.497 324.269,-162 332.5,-162 346.008,-162 349.912,-152.565 344.214,-143.757"/>
<polygon fill="#9a32cd" stroke="#9a32cd" points="321.976,-154.285 320.786,-143.757 315.151,-152.729 321.976,-154.285"/>
<text text-anchor="middle" x="332.5" y="-165" font-family="Helvetica,sans-Serif" font-size="10.00"> EmptyHandle</text>
</g>
</g>
</svg>
