<?xml version="1.0" encoding="UTF-8" standalone="no"?>
<!DOCTYPE svg PUBLIC "-//W3C//DTD SVG 1.1//EN"
 "http://www.w3.org/Graphics/SVG/1.1/DTD/svg11.dtd">
<!-- Generated by graphviz version 2.38.0 (20140413.2041)
 -->
<!-- Title: System.Reflection.FieldInfo Pages: 1 -->
<svg width="152pt" height="84pt"
 viewBox="0.00 0.00 151.50 84.00" xmlns="http://www.w3.org/2000/svg" xmlns:xlink="http://www.w3.org/1999/xlink">
<g id="graph0" class="graph" transform="scale(1 1) rotate(0) translate(4 80)">
<title>System.Reflection.FieldInfo</title>
<!-- Node6 -->
<g id="node1" class="node"><title>Node6</title>
<g id="a_node1"><a xlink:title="Discovers the attributes of a field and provides access to field metadata.">
<polygon fill="#bfbfbf" stroke="black" points="6,-0.5 6,-19.5 141,-19.5 141,-0.5 6,-0.5"/>
<text text-anchor="middle" x="73.5" y="-7.5" font-family="Helvetica,sans-Serif" font-size="10.00">System.Reflection.FieldInfo</text>
</a>
</g>
</g>
<!-- Node7 -->
<g id="node2" class="node"><title>Node7</title>
<g id="a_node2"><a xlink:href="class_system_1_1_reflection_1_1_member_info.html" target="_top" xlink:title="Obtains information about the attributes of a member and provides access to member metadata.">
<polygon fill="none" stroke="red" points="0,-56.5 0,-75.5 67,-75.5 67,-56.5 0,-56.5"/>
<text text-anchor="middle" x="33.5" y="-63.5" font-family="Helvetica,sans-Serif" font-size="10.00">MemberInfo</text>
</a>
</g>
</g>
<!-- Node7&#45;&gt;Node6 -->
<g id="edge1" class="edge"><title>Node7&#45;&gt;Node6</title>
<path fill="none" stroke="midnightblue" d="M46.1997,-47.8554C53.126,-38.5048 61.4063,-27.3265 67.0177,-19.7511"/>
<polygon fill="midnightblue" stroke="midnightblue" points="43.245,-45.9641 40.1052,-56.083 48.87,-50.1307 43.245,-45.9641"/>
</g>
<!-- Node10 -->
<g id="node3" class="node"><title>Node10</title>
<g id="a_node3"><a xlink:href="interface_system_1_1_runtime_1_1_interop_services_1_1___field_info.html" target="_top" xlink:title="Exposes the public members of the T:System.Reflection.FieldInfo class to unmanaged code.">
<polygon fill="none" stroke="black" points="85.5,-56.5 85.5,-75.5 143.5,-75.5 143.5,-56.5 85.5,-56.5"/>
<text text-anchor="middle" x="114.5" y="-63.5" font-family="Helvetica,sans-Serif" font-size="10.00">_FieldInfo</text>
</a>
</g>
</g>
<!-- Node10&#45;&gt;Node6 -->
<g id="edge2" class="edge"><title>Node10&#45;&gt;Node6</title>
<path fill="none" stroke="midnightblue" d="M101.483,-47.8554C94.3833,-38.5048 85.896,-27.3265 80.1443,-19.7511"/>
<polygon fill="midnightblue" stroke="midnightblue" points="98.895,-50.235 107.73,-56.083 104.47,-46.002 98.895,-50.235"/>
</g>
</g>
</svg>
