<?xml version="1.0" encoding="UTF-8" standalone="no"?>
<!DOCTYPE svg PUBLIC "-//W3C//DTD SVG 1.1//EN"
 "http://www.w3.org/Graphics/SVG/1.1/DTD/svg11.dtd">
<!-- Generated by graphviz version 2.38.0 (20140413.2041)
 -->
<!-- Title: System.Reflection.TypeDelegator Pages: 1 -->
<svg width="1136pt" height="561pt"
 viewBox="0.00 0.00 1136.00 561.00" xmlns="http://www.w3.org/2000/svg" xmlns:xlink="http://www.w3.org/1999/xlink">
<g id="graph0" class="graph" transform="scale(1 1) rotate(0) translate(4 557)">
<title>System.Reflection.TypeDelegator</title>
<!-- Node9 -->
<g id="node1" class="node"><title>Node9</title>
<g id="a_node1"><a xlink:title="Wraps a T:System.Type object and delegates methods to that Type.">
<polygon fill="#bfbfbf" stroke="black" points="967,-266.5 967,-285.5 1128,-285.5 1128,-266.5 967,-266.5"/>
<text text-anchor="middle" x="1047.5" y="-273.5" font-family="Helvetica,sans-Serif" font-size="10.00">System.Reflection.TypeDelegator</text>
</a>
</g>
</g>
<!-- Node10 -->
<g id="node2" class="node"><title>Node10</title>
<g id="a_node2"><a xlink:href="class_system_1_1_reflection_1_1_type_info.html" target="_top" xlink:title="Represents type declarations for class types, interface types, array types, value types,...">
<polygon fill="none" stroke="black" points="778,-495.5 778,-514.5 831,-514.5 831,-495.5 778,-495.5"/>
<text text-anchor="middle" x="804.5" y="-502.5" font-family="Helvetica,sans-Serif" font-size="10.00">TypeInfo</text>
</a>
</g>
</g>
<!-- Node10&#45;&gt;Node9 -->
<g id="edge1" class="edge"><title>Node10&#45;&gt;Node9</title>
<path fill="none" stroke="midnightblue" d="M841.195,-504.754C872.659,-502.777 918.166,-495.423 949,-471 1012.79,-420.472 1038.2,-317.274 1044.71,-285.515"/>
<polygon fill="midnightblue" stroke="midnightblue" points="840.926,-501.263 831.104,-505.235 841.26,-508.255 840.926,-501.263"/>
</g>
<!-- Node11 -->
<g id="node3" class="node"><title>Node11</title>
<g id="a_node3"><a xlink:href="class_system_1_1_type.html" target="_top" xlink:title="Represents type declarations: class types, interface types, array types, value types,...">
<polygon fill="none" stroke="black" points="519.5,-487.5 519.5,-506.5 557.5,-506.5 557.5,-487.5 519.5,-487.5"/>
<text text-anchor="middle" x="538.5" y="-494.5" font-family="Helvetica,sans-Serif" font-size="10.00">Type</text>
</a>
</g>
</g>
<!-- Node11&#45;&gt;Node10 -->
<g id="edge2" class="edge"><title>Node11&#45;&gt;Node10</title>
<path fill="none" stroke="midnightblue" d="M567.739,-497.856C619.297,-499.418 727.929,-502.71 777.657,-504.217"/>
<polygon fill="midnightblue" stroke="midnightblue" points="567.747,-494.354 557.646,-497.55 567.535,-501.351 567.747,-494.354"/>
</g>
<!-- Node12 -->
<g id="node4" class="node"><title>Node12</title>
<g id="a_node4"><a xlink:href="class_system_1_1_reflection_1_1_member_info.html" target="_top" xlink:title="Obtains information about the attributes of a member and provides access to member metadata.">
<polygon fill="none" stroke="black" points="161,-533.5 161,-552.5 228,-552.5 228,-533.5 161,-533.5"/>
<text text-anchor="middle" x="194.5" y="-540.5" font-family="Helvetica,sans-Serif" font-size="10.00">MemberInfo</text>
</a>
</g>
</g>
<!-- Node12&#45;&gt;Node11 -->
<g id="edge3" class="edge"><title>Node12&#45;&gt;Node11</title>
<path fill="none" stroke="midnightblue" d="M238.366,-541.392C291.472,-538.851 384.543,-532.599 463,-518 482.553,-514.362 504.398,-507.911 519.349,-503.117"/>
<polygon fill="midnightblue" stroke="midnightblue" points="238.124,-537.899 228.294,-541.852 238.443,-544.892 238.124,-537.899"/>
</g>
<!-- Node17 -->
<g id="node9" class="node"><title>Node17</title>
<g id="a_node9"><a xlink:href="class_system_1_1_type.html" target="_top" xlink:title="Represents type declarations: class types, interface types, array types, value types,...">
<polygon fill="none" stroke="black" points="289,-447.5 289,-466.5 363,-466.5 363,-447.5 289,-447.5"/>
<text text-anchor="middle" x="326" y="-454.5" font-family="Helvetica,sans-Serif" font-size="10.00">System.Type</text>
</a>
</g>
</g>
<!-- Node12&#45;&gt;Node17 -->
<g id="edge9" class="edge"><title>Node12&#45;&gt;Node17</title>
<path fill="none" stroke="midnightblue" d="M218.188,-527.933C244.817,-510.249 288.178,-481.453 310.582,-466.575"/>
<polygon fill="midnightblue" stroke="midnightblue" points="216.248,-525.02 209.854,-533.468 220.12,-530.851 216.248,-525.02"/>
</g>
<!-- Node13 -->
<g id="node5" class="node"><title>Node13</title>
<g id="a_node5"><a xlink:href="interface_system_1_1_reflection_1_1_i_custom_attribute_provider.html" target="_top" xlink:title="Provides custom attributes for reflection objects that support them.">
<polygon fill="none" stroke="black" points="0,-257.5 0,-276.5 124,-276.5 124,-257.5 0,-257.5"/>
<text text-anchor="middle" x="62" y="-264.5" font-family="Helvetica,sans-Serif" font-size="10.00">ICustomAttributeProvider</text>
</a>
</g>
</g>
<!-- Node13&#45;&gt;Node12 -->
<g id="edge4" class="edge"><title>Node13&#45;&gt;Node12</title>
<path fill="none" stroke="midnightblue" d="M67.4894,-286.678C78.1747,-330.564 108.244,-438.514 161,-514 166.198,-521.438 173.664,-528.275 180.13,-533.44"/>
<polygon fill="midnightblue" stroke="midnightblue" points="70.8459,-285.663 65.1374,-276.738 64.034,-287.275 70.8459,-285.663"/>
</g>
<!-- Node28 -->
<g id="node20" class="node"><title>Node28</title>
<g id="a_node20"><a xlink:href="class_system_1_1_reflection_1_1_module.html" target="_top" xlink:title="Performs reflection on a module.">
<polygon fill="none" stroke="black" points="739,-219.5 739,-238.5 870,-238.5 870,-219.5 739,-219.5"/>
<text text-anchor="middle" x="804.5" y="-226.5" font-family="Helvetica,sans-Serif" font-size="10.00">System.Reflection.Module</text>
</a>
</g>
</g>
<!-- Node13&#45;&gt;Node28 -->
<g id="edge29" class="edge"><title>Node13&#45;&gt;Node28</title>
<path fill="none" stroke="midnightblue" d="M134.275,-267C153.501,-267 174.295,-267 193.5,-267 193.5,-267 193.5,-267 539.5,-267 619.146,-267 710.941,-249.846 762.607,-238.589"/>
<polygon fill="midnightblue" stroke="midnightblue" points="134.079,-263.5 124.079,-267 134.079,-270.5 134.079,-263.5"/>
</g>
<!-- Node31 -->
<g id="node23" class="node"><title>Node31</title>
<g id="a_node23"><a xlink:href="class_system_1_1_reflection_1_1_assembly.html" target="_top" xlink:title="Represents an assembly, which is a reusable, versionable, and self&#45;describing building block of a com...">
<polygon fill="none" stroke="black" points="733,-76.5 733,-95.5 876,-95.5 876,-76.5 733,-76.5"/>
<text text-anchor="middle" x="804.5" y="-83.5" font-family="Helvetica,sans-Serif" font-size="10.00">System.Reflection.Assembly</text>
</a>
</g>
</g>
<!-- Node13&#45;&gt;Node31 -->
<g id="edge35" class="edge"><title>Node13&#45;&gt;Node31</title>
<path fill="none" stroke="midnightblue" d="M65.2633,-247.302C72.6469,-193.491 101.149,-48 193.5,-48 193.5,-48 193.5,-48 539.5,-48 619.146,-48 710.941,-65.1538 762.607,-76.411"/>
<polygon fill="midnightblue" stroke="midnightblue" points="61.7804,-246.946 63.9929,-257.307 68.7247,-247.828 61.7804,-246.946"/>
</g>
<!-- Node14 -->
<g id="node6" class="node"><title>Node14</title>
<g id="a_node6"><a xlink:href="interface_system_1_1_runtime_1_1_interop_services_1_1___member_info.html" target="_top" xlink:title="Exposes the public members of the T:System.Reflection.MemberInfo class to unmanaged code.">
<polygon fill="none" stroke="black" points="26,-533.5 26,-552.5 98,-552.5 98,-533.5 26,-533.5"/>
<text text-anchor="middle" x="62" y="-540.5" font-family="Helvetica,sans-Serif" font-size="10.00">_MemberInfo</text>
</a>
</g>
</g>
<!-- Node14&#45;&gt;Node12 -->
<g id="edge5" class="edge"><title>Node14&#45;&gt;Node12</title>
<path fill="none" stroke="midnightblue" d="M108.711,-543C125.899,-543 145.079,-543 160.844,-543"/>
<polygon fill="midnightblue" stroke="midnightblue" points="108.315,-539.5 98.3152,-543 108.315,-546.5 108.315,-539.5"/>
</g>
<!-- Node15 -->
<g id="node7" class="node"><title>Node15</title>
<g id="a_node7"><a xlink:href="interface_system_1_1_runtime_1_1_interop_services_1_1___type.html" target="_top" xlink:title="Exposes the public members of the T:System.Type class to the unmanaged code.">
<polygon fill="none" stroke="black" points="173,-485.5 173,-504.5 216,-504.5 216,-485.5 173,-485.5"/>
<text text-anchor="middle" x="194.5" y="-492.5" font-family="Helvetica,sans-Serif" font-size="10.00">_Type</text>
</a>
</g>
</g>
<!-- Node15&#45;&gt;Node11 -->
<g id="edge6" class="edge"><title>Node15&#45;&gt;Node11</title>
<path fill="none" stroke="midnightblue" d="M226.125,-500.369C238.197,-502.233 252.21,-504.085 265,-505 360.598,-511.842 475.462,-502.854 519.296,-498.799"/>
<polygon fill="midnightblue" stroke="midnightblue" points="226.526,-496.889 216.096,-498.752 225.411,-503.8 226.526,-496.889"/>
</g>
<!-- Node15&#45;&gt;Node17 -->
<g id="edge10" class="edge"><title>Node15&#45;&gt;Node17</title>
<path fill="none" stroke="midnightblue" d="M225.855,-486.093C245.86,-480.223 272.036,-472.542 292.468,-466.546"/>
<polygon fill="midnightblue" stroke="midnightblue" points="224.63,-482.805 216.02,-488.979 226.601,-489.521 224.63,-482.805"/>
</g>
<!-- Node16 -->
<g id="node8" class="node"><title>Node16</title>
<g id="a_node8"><a xlink:href="interface_system_1_1_reflection_1_1_i_reflect.html" target="_top" xlink:title="Interoperates with the IDispatch interface.">
<polygon fill="none" stroke="black" points="170,-425.5 170,-444.5 219,-444.5 219,-425.5 170,-425.5"/>
<text text-anchor="middle" x="194.5" y="-432.5" font-family="Helvetica,sans-Serif" font-size="10.00">IReflect</text>
</a>
</g>
</g>
<!-- Node16&#45;&gt;Node11 -->
<g id="edge7" class="edge"><title>Node16&#45;&gt;Node11</title>
<path fill="none" stroke="midnightblue" d="M229.216,-431.933C267.769,-429.251 332.58,-427.272 387,-438 436.838,-447.825 491.436,-473.25 519.149,-487.305"/>
<polygon fill="midnightblue" stroke="midnightblue" points="228.778,-428.456 219.07,-432.697 229.304,-435.436 228.778,-428.456"/>
</g>
<!-- Node16&#45;&gt;Node17 -->
<g id="edge11" class="edge"><title>Node16&#45;&gt;Node17</title>
<path fill="none" stroke="midnightblue" d="M229.21,-440.727C247.546,-443.842 270.233,-447.696 288.924,-450.871"/>
<polygon fill="midnightblue" stroke="midnightblue" points="229.697,-437.26 219.252,-439.035 228.525,-444.161 229.697,-437.26"/>
</g>
<!-- Node17&#45;&gt;Node9 -->
<g id="edge17" class="edge"><title>Node17&#45;&gt;Node9</title>
<path fill="none" stroke="#9a32cd" stroke-dasharray="5,2" d="M373.307,-459.281C470.338,-462.403 700.516,-461.06 876,-391 942.982,-364.258 1010.41,-308.117 1035.88,-285.622"/>
<polygon fill="#9a32cd" stroke="#9a32cd" points="373.357,-455.781 363.24,-458.925 373.11,-462.776 373.357,-455.781"/>
<text text-anchor="middle" x="664.5" y="-475" font-family="Helvetica,sans-Serif" font-size="10.00"> BaseType</text>
<text text-anchor="middle" x="664.5" y="-464" font-family="Helvetica,sans-Serif" font-size="10.00">typeImpl</text>
<text text-anchor="middle" x="664.5" y="-453" font-family="Helvetica,sans-Serif" font-size="10.00">UnderlyingSystemType</text>
</g>
<!-- Node17&#45;&gt;Node11 -->
<g id="edge8" class="edge"><title>Node17&#45;&gt;Node11</title>
<path fill="none" stroke="#9a32cd" stroke-dasharray="5,2" d="M373.187,-465.777C419.048,-474.491 487.032,-487.41 519.269,-493.536"/>
<polygon fill="#9a32cd" stroke="#9a32cd" points="373.664,-462.305 363.186,-463.876 372.357,-469.182 373.664,-462.305"/>
<text text-anchor="middle" x="434" y="-484" font-family="Helvetica,sans-Serif" font-size="10.00"> EmptyTypes</text>
</g>
<!-- Node17&#45;&gt;Node17 -->
<g id="edge12" class="edge"><title>Node17&#45;&gt;Node17</title>
<path fill="none" stroke="#9a32cd" stroke-dasharray="5,2" d="M311.636,-476.766C312.764,-481.497 317.552,-485 326,-485 339.863,-485 343.871,-475.565 338.022,-466.757"/>
<polygon fill="#9a32cd" stroke="#9a32cd" points="315.107,-477.292 313.978,-466.757 308.292,-475.697 315.107,-477.292"/>
<text text-anchor="middle" x="326" y="-488" font-family="Helvetica,sans-Serif" font-size="10.00"> EmptyTypes</text>
</g>
<!-- Node18 -->
<g id="node10" class="node"><title>Node18</title>
<g id="a_node10"><a xlink:href="interface_system_1_1_reflection_1_1_i_reflectable_type.html" target="_top" xlink:title="Represents a type that you can reflect over.">
<polygon fill="none" stroke="black" points="494.5,-525.5 494.5,-544.5 582.5,-544.5 582.5,-525.5 494.5,-525.5"/>
<text text-anchor="middle" x="538.5" y="-532.5" font-family="Helvetica,sans-Serif" font-size="10.00">IReflectableType</text>
</a>
</g>
</g>
<!-- Node18&#45;&gt;Node10 -->
<g id="edge13" class="edge"><title>Node18&#45;&gt;Node10</title>
<path fill="none" stroke="midnightblue" d="M592.623,-528.963C648.783,-522.581 735.024,-512.781 777.72,-507.93"/>
<polygon fill="midnightblue" stroke="midnightblue" points="592.045,-525.506 582.504,-530.113 592.835,-532.462 592.045,-525.506"/>
</g>
<!-- Node19 -->
<g id="node11" class="node"><title>Node19</title>
<g id="a_node11"><a xlink:href="struct_system_1_1_runtime_type_handle.html" target="_top" xlink:title="Represents a type using an internal metadata token.">
<polygon fill="none" stroke="black" points="734.5,-142.5 734.5,-161.5 874.5,-161.5 874.5,-142.5 734.5,-142.5"/>
<text text-anchor="middle" x="804.5" y="-149.5" font-family="Helvetica,sans-Serif" font-size="10.00">System.RuntimeTypeHandle</text>
</a>
</g>
</g>
<!-- Node19&#45;&gt;Node9 -->
<g id="edge14" class="edge"><title>Node19&#45;&gt;Node9</title>
<path fill="none" stroke="#9a32cd" stroke-dasharray="5,2" d="M833.2,-166.252C882.867,-191.807 985.809,-244.773 1027.93,-266.443"/>
<polygon fill="#9a32cd" stroke="#9a32cd" points="834.504,-162.987 824.011,-161.524 831.301,-169.212 834.504,-162.987"/>
<text text-anchor="middle" x="921.5" y="-228" font-family="Helvetica,sans-Serif" font-size="10.00"> TypeHandle</text>
</g>
<!-- Node19&#45;&gt;Node19 -->
<g id="edge16" class="edge"><title>Node19&#45;&gt;Node19</title>
<path fill="none" stroke="#9a32cd" stroke-dasharray="5,2" d="M783.02,-171.4C784.454,-176.315 791.614,-180 804.5,-180 825.117,-180 831.077,-170.565 822.379,-161.757"/>
<polygon fill="#9a32cd" stroke="#9a32cd" points="786.401,-172.35 786.621,-161.757 779.843,-169.9 786.401,-172.35"/>
<text text-anchor="middle" x="804.5" y="-183" font-family="Helvetica,sans-Serif" font-size="10.00"> EmptyHandle</text>
</g>
<!-- Node20 -->
<g id="node12" class="node"><title>Node20</title>
<g id="a_node12"><a xlink:href="interface_system_1_1_runtime_1_1_serialization_1_1_i_serializable.html" target="_top" xlink:title="Allows an object to control its own serialization and deserialization.">
<polygon fill="none" stroke="black" points="504,-114.5 504,-133.5 573,-133.5 573,-114.5 504,-114.5"/>
<text text-anchor="middle" x="538.5" y="-121.5" font-family="Helvetica,sans-Serif" font-size="10.00">ISerializable</text>
</a>
</g>
</g>
<!-- Node20&#45;&gt;Node19 -->
<g id="edge15" class="edge"><title>Node20&#45;&gt;Node19</title>
<path fill="none" stroke="midnightblue" d="M583.183,-128.633C624.311,-132.995 686.573,-139.599 734.429,-144.674"/>
<polygon fill="midnightblue" stroke="midnightblue" points="583.517,-125.149 573.204,-127.575 582.779,-132.11 583.517,-125.149"/>
</g>
<!-- Node20&#45;&gt;Node28 -->
<g id="edge28" class="edge"><title>Node20&#45;&gt;Node28</title>
<path fill="none" stroke="midnightblue" d="M580.146,-136.908C585.521,-138.836 590.923,-140.889 596,-143 604.259,-146.434 605.666,-148.752 614,-152 657.515,-168.959 675.088,-156.748 715,-181 724.941,-187.04 723.408,-193.419 733,-200 745.004,-208.236 759.709,-214.749 772.577,-219.498"/>
<polygon fill="midnightblue" stroke="midnightblue" points="581.172,-133.56 570.578,-133.587 578.877,-140.173 581.172,-133.56"/>
</g>
<!-- Node20&#45;&gt;Node31 -->
<g id="edge36" class="edge"><title>Node20&#45;&gt;Node31</title>
<path fill="none" stroke="midnightblue" d="M583.21,-118.282C618.739,-113.571 670.142,-106.615 715,-100 724.541,-98.5931 734.652,-97.0465 744.497,-95.5104"/>
<polygon fill="midnightblue" stroke="midnightblue" points="582.629,-114.828 573.174,-119.608 583.547,-121.767 582.629,-114.828"/>
</g>
<!-- Node21 -->
<g id="node13" class="node"><title>Node21</title>
<g id="a_node13"><a xlink:href="struct_system_1_1_guid.html" target="_top" xlink:title="Represents a globally unique identifier (GUID).To browse the .NET Framework source code for this type...">
<polygon fill="none" stroke="black" points="767.5,-333.5 767.5,-352.5 841.5,-352.5 841.5,-333.5 767.5,-333.5"/>
<text text-anchor="middle" x="804.5" y="-340.5" font-family="Helvetica,sans-Serif" font-size="10.00">System.Guid</text>
</a>
</g>
</g>
<!-- Node21&#45;&gt;Node9 -->
<g id="edge18" class="edge"><title>Node21&#45;&gt;Node9</title>
<path fill="none" stroke="#9a32cd" stroke-dasharray="5,2" d="M849.62,-330.734C896.368,-317.738 969.21,-297.487 1011.95,-285.604"/>
<polygon fill="#9a32cd" stroke="#9a32cd" points="848.471,-327.421 839.773,-333.472 850.346,-334.165 848.471,-327.421"/>
<text text-anchor="middle" x="921.5" y="-320" font-family="Helvetica,sans-Serif" font-size="10.00"> GUID</text>
</g>
<!-- Node21&#45;&gt;Node21 -->
<g id="edge25" class="edge"><title>Node21&#45;&gt;Node21</title>
<path fill="none" stroke="#9a32cd" stroke-dasharray="5,2" d="M783.02,-362.4C784.454,-367.315 791.614,-371 804.5,-371 825.117,-371 831.077,-361.565 822.379,-352.757"/>
<polygon fill="#9a32cd" stroke="#9a32cd" points="786.401,-363.35 786.621,-352.757 779.843,-360.9 786.401,-363.35"/>
<text text-anchor="middle" x="804.5" y="-374" font-family="Helvetica,sans-Serif" font-size="10.00"> Empty</text>
</g>
<!-- Node22 -->
<g id="node14" class="node"><title>Node22</title>
<g id="a_node14"><a xlink:href="interface_system_1_1_i_formattable.html" target="_top" xlink:title="Provides functionality to format the value of an object into a string representation.">
<polygon fill="none" stroke="black" points="503,-409.5 503,-428.5 574,-428.5 574,-409.5 503,-409.5"/>
<text text-anchor="middle" x="538.5" y="-416.5" font-family="Helvetica,sans-Serif" font-size="10.00">IFormattable</text>
</a>
</g>
</g>
<!-- Node22&#45;&gt;Node21 -->
<g id="edge19" class="edge"><title>Node22&#45;&gt;Node21</title>
<path fill="none" stroke="midnightblue" d="M584.32,-410.427C620.075,-403.135 671.24,-391.683 715,-378 738.339,-370.702 764.271,-360.145 781.998,-352.535"/>
<polygon fill="midnightblue" stroke="midnightblue" points="583.317,-407.059 574.204,-412.463 584.698,-413.921 583.317,-407.059"/>
</g>
<!-- Node23 -->
<g id="node15" class="node"><title>Node23</title>
<g id="a_node15"><a xlink:href="interface_system_1_1_i_comparable.html" target="_top" xlink:title="Defines a generalized type&#45;specific comparison method that a value type or class implements to order ...">
<polygon fill="none" stroke="black" points="503,-333.5 503,-352.5 574,-352.5 574,-333.5 503,-333.5"/>
<text text-anchor="middle" x="538.5" y="-340.5" font-family="Helvetica,sans-Serif" font-size="10.00">IComparable</text>
</a>
</g>
</g>
<!-- Node23&#45;&gt;Node21 -->
<g id="edge20" class="edge"><title>Node23&#45;&gt;Node21</title>
<path fill="none" stroke="midnightblue" d="M584.192,-343C635.771,-343 719.596,-343 767.285,-343"/>
<polygon fill="midnightblue" stroke="midnightblue" points="584.013,-339.5 574.013,-343 584.013,-346.5 584.013,-339.5"/>
</g>
<!-- Node24 -->
<g id="node16" class="node"><title>Node24</title>
<g id="a_node16"><a xlink:href="interface_system_1_1_i_comparable.html" target="_top" xlink:title=" ">
<polygon fill="none" stroke="black" points="484,-371.5 484,-390.5 593,-390.5 593,-371.5 484,-371.5"/>
<text text-anchor="middle" x="538.5" y="-378.5" font-family="Helvetica,sans-Serif" font-size="10.00">IComparable&lt; Guid &gt;</text>
</a>
</g>
</g>
<!-- Node24&#45;&gt;Node21 -->
<g id="edge21" class="edge"><title>Node24&#45;&gt;Node21</title>
<path fill="none" stroke="midnightblue" d="M603.369,-372.594C636.669,-368.128 678.055,-362.448 715,-357 732.236,-354.458 751.33,-351.461 767.357,-348.893"/>
<polygon fill="midnightblue" stroke="midnightblue" points="602.756,-369.144 593.308,-373.939 603.684,-376.082 602.756,-369.144"/>
</g>
<!-- Node25 -->
<g id="node17" class="node"><title>Node25</title>
<g id="a_node17"><a xlink:href="interface_system_1_1_i_comparable.html" target="_top" xlink:title="Defines a generalized type&#45;specific comparison method that a value type or class implements to order ...">
<polygon fill="none" stroke="black" points="272.5,-371.5 272.5,-390.5 379.5,-390.5 379.5,-371.5 272.5,-371.5"/>
<text text-anchor="middle" x="326" y="-378.5" font-family="Helvetica,sans-Serif" font-size="10.00">System.IComparable</text>
</a>
</g>
</g>
<!-- Node25&#45;&gt;Node24 -->
<g id="edge22" class="edge"><title>Node25&#45;&gt;Node24</title>
<path fill="none" stroke="orange" stroke-dasharray="5,2" d="M389.9,-381C419.79,-381 455.15,-381 483.766,-381"/>
<polygon fill="orange" stroke="orange" points="389.575,-377.5 379.575,-381 389.575,-384.5 389.575,-377.5"/>
<text text-anchor="middle" x="434" y="-384" font-family="Helvetica,sans-Serif" font-size="10.00"> &lt; Guid &gt;</text>
</g>
<!-- Node26 -->
<g id="node18" class="node"><title>Node26</title>
<g id="a_node18"><a xlink:href="interface_system_1_1_i_equatable.html" target="_top" xlink:title=" ">
<polygon fill="none" stroke="black" points="488,-295.5 488,-314.5 589,-314.5 589,-295.5 488,-295.5"/>
<text text-anchor="middle" x="538.5" y="-302.5" font-family="Helvetica,sans-Serif" font-size="10.00">IEquatable&lt; Guid &gt;</text>
</a>
</g>
</g>
<!-- Node26&#45;&gt;Node21 -->
<g id="edge23" class="edge"><title>Node26&#45;&gt;Node21</title>
<path fill="none" stroke="midnightblue" d="M599.19,-313.592C650.857,-321.029 723.903,-331.543 767.214,-337.777"/>
<polygon fill="midnightblue" stroke="midnightblue" points="599.553,-310.108 589.156,-312.148 598.556,-317.037 599.553,-310.108"/>
</g>
<!-- Node27 -->
<g id="node19" class="node"><title>Node27</title>
<g id="a_node19"><a xlink:href="interface_system_1_1_i_equatable.html" target="_top" xlink:title="Defines a generalized method that a value type or class implements to create a type&#45;specific method f...">
<polygon fill="none" stroke="black" points="265,-295.5 265,-314.5 387,-314.5 387,-295.5 265,-295.5"/>
<text text-anchor="middle" x="326" y="-302.5" font-family="Helvetica,sans-Serif" font-size="10.00">System.IEquatable&lt; T &gt;</text>
</a>
</g>
</g>
<!-- Node27&#45;&gt;Node26 -->
<g id="edge24" class="edge"><title>Node27&#45;&gt;Node26</title>
<path fill="none" stroke="orange" stroke-dasharray="5,2" d="M397.322,-305C426.936,-305 460.711,-305 487.686,-305"/>
<polygon fill="orange" stroke="orange" points="397.039,-301.5 387.039,-305 397.039,-308.5 397.039,-301.5"/>
<text text-anchor="middle" x="434" y="-308" font-family="Helvetica,sans-Serif" font-size="10.00"> &lt; Guid &gt;</text>
</g>
<!-- Node28&#45;&gt;Node9 -->
<g id="edge26" class="edge"><title>Node28&#45;&gt;Node9</title>
<path fill="none" stroke="#9a32cd" stroke-dasharray="5,2" d="M864.091,-240.426C904.932,-248.391 958.799,-258.896 997.39,-266.422"/>
<polygon fill="#9a32cd" stroke="#9a32cd" points="864.755,-236.99 854.27,-238.511 863.415,-243.861 864.755,-236.99"/>
<text text-anchor="middle" x="921.5" y="-259" font-family="Helvetica,sans-Serif" font-size="10.00"> Module</text>
</g>
<!-- Node29 -->
<g id="node21" class="node"><title>Node29</title>
<g id="a_node21"><a xlink:href="interface_system_1_1_runtime_1_1_interop_services_1_1___module.html" target="_top" xlink:title="Exposes the T:System.Reflection.Module class to unmanaged code.">
<polygon fill="none" stroke="black" points="512,-219.5 512,-238.5 565,-238.5 565,-219.5 512,-219.5"/>
<text text-anchor="middle" x="538.5" y="-226.5" font-family="Helvetica,sans-Serif" font-size="10.00">_Module</text>
</a>
</g>
</g>
<!-- Node29&#45;&gt;Node28 -->
<g id="edge27" class="edge"><title>Node29&#45;&gt;Node28</title>
<path fill="none" stroke="midnightblue" d="M575.312,-229C617.227,-229 687.45,-229 738.947,-229"/>
<polygon fill="midnightblue" stroke="midnightblue" points="575.294,-225.5 565.294,-229 575.294,-232.5 575.294,-225.5"/>
</g>
<!-- Node30 -->
<g id="node22" class="node"><title>Node30</title>
<g id="a_node22"><a xlink:href="struct_system_1_1_module_handle.html" target="_top" xlink:title="Represents a runtime handle for a module.">
<polygon fill="none" stroke="black" points="481,-152.5 481,-171.5 596,-171.5 596,-152.5 481,-152.5"/>
<text text-anchor="middle" x="538.5" y="-159.5" font-family="Helvetica,sans-Serif" font-size="10.00">System.ModuleHandle</text>
</a>
</g>
</g>
<!-- Node30&#45;&gt;Node28 -->
<g id="edge30" class="edge"><title>Node30&#45;&gt;Node28</title>
<path fill="none" stroke="#9a32cd" stroke-dasharray="5,2" d="M586.868,-174.021C638.036,-187.007 718.539,-207.438 765.658,-219.396"/>
<polygon fill="#9a32cd" stroke="#9a32cd" points="587.598,-170.596 577.044,-171.528 585.876,-177.381 587.598,-170.596"/>
<text text-anchor="middle" x="664.5" y="-209" font-family="Helvetica,sans-Serif" font-size="10.00"> ModuleHandle</text>
</g>
<!-- Node30&#45;&gt;Node30 -->
<g id="edge31" class="edge"><title>Node30&#45;&gt;Node30</title>
<path fill="none" stroke="#9a32cd" stroke-dasharray="5,2" d="M519.242,-181.4C520.528,-186.315 526.947,-190 538.5,-190 556.984,-190 562.328,-180.565 554.529,-171.757"/>
<polygon fill="#9a32cd" stroke="#9a32cd" points="522.614,-182.351 522.471,-171.757 515.976,-180.128 522.614,-182.351"/>
<text text-anchor="middle" x="538.5" y="-193" font-family="Helvetica,sans-Serif" font-size="10.00"> EmptyHandle</text>
</g>
<!-- Node31&#45;&gt;Node9 -->
<g id="edge32" class="edge"><title>Node31&#45;&gt;Node9</title>
<path fill="none" stroke="#9a32cd" stroke-dasharray="5,2" d="M828.606,-101.145C842.428,-110.269 860.302,-122.18 876,-133 908.798,-155.606 918.15,-159.8 949,-185 982.891,-212.685 1019.88,-249.092 1036.92,-266.252"/>
<polygon fill="#9a32cd" stroke="#9a32cd" points="830.448,-98.167 820.171,-95.5907 826.598,-104.013 830.448,-98.167"/>
<text text-anchor="middle" x="921.5" y="-188" font-family="Helvetica,sans-Serif" font-size="10.00"> Assembly</text>
</g>
<!-- Node32 -->
<g id="node24" class="node"><title>Node32</title>
<g id="a_node24"><a xlink:href="interface_system_1_1_runtime_1_1_interop_services_1_1___assembly.html" target="_top" xlink:title="Exposes the public members of the T:System.Reflection.Assembly class to unmanaged code.">
<polygon fill="none" stroke="black" points="506,-0.5 506,-19.5 571,-19.5 571,-0.5 506,-0.5"/>
<text text-anchor="middle" x="538.5" y="-7.5" font-family="Helvetica,sans-Serif" font-size="10.00">_Assembly</text>
</a>
</g>
</g>
<!-- Node32&#45;&gt;Node31 -->
<g id="edge33" class="edge"><title>Node32&#45;&gt;Node31</title>
<path fill="none" stroke="midnightblue" d="M581.321,-11.1053C617.567,-13.1379 670.966,-18.7415 715,-34 744.13,-44.0941 774.305,-64.2928 790.81,-76.3293"/>
<polygon fill="midnightblue" stroke="midnightblue" points="581.274,-7.59884 571.113,-10.6019 580.929,-14.5903 581.274,-7.59884"/>
</g>
<!-- Node33 -->
<g id="node25" class="node"><title>Node33</title>
<g id="a_node25"><a xlink:href="interface_system_1_1_security_1_1_i_evidence_factory.html" target="_top" xlink:title="Gets an object&#39;s T:System.Security.Policy.Evidence.">
<polygon fill="none" stroke="black" points="493,-76.5 493,-95.5 584,-95.5 584,-76.5 493,-76.5"/>
<text text-anchor="middle" x="538.5" y="-83.5" font-family="Helvetica,sans-Serif" font-size="10.00">IEvidenceFactory</text>
</a>
</g>
</g>
<!-- Node33&#45;&gt;Node31 -->
<g id="edge34" class="edge"><title>Node33&#45;&gt;Node31</title>
<path fill="none" stroke="midnightblue" d="M594.423,-86C634.591,-86 689.416,-86 732.846,-86"/>
<polygon fill="midnightblue" stroke="midnightblue" points="594.284,-82.5001 584.284,-86 594.284,-89.5001 594.284,-82.5001"/>
</g>
</g>
</svg>
