<?xml version="1.0" encoding="UTF-8" standalone="no"?>
<!DOCTYPE svg PUBLIC "-//W3C//DTD SVG 1.1//EN"
 "http://www.w3.org/Graphics/SVG/1.1/DTD/svg11.dtd">
<!-- Generated by graphviz version 2.38.0 (20140413.2041)
 -->
<!-- Title: System.Collections.Generic.Dictionary&lt; TKey, TValue &gt;.ValueCollection Pages: 1 -->
<svg width="411pt" height="192pt"
 viewBox="0.00 0.00 411.00 191.50" xmlns="http://www.w3.org/2000/svg" xmlns:xlink="http://www.w3.org/1999/xlink">
<g id="graph0" class="graph" transform="scale(1 1) rotate(0) translate(4 187.5)">
<title>System.Collections.Generic.Dictionary&lt; TKey, TValue &gt;.ValueCollection</title>
<!-- Node10 -->
<g id="node1" class="node"><title>Node10</title>
<g id="a_node1"><a xlink:title="Represents the collection of values in a T:System.Collections.Generic.Dictionary`2....">
<polygon fill="#bfbfbf" stroke="black" points="262,-77 262,-118 403,-118 403,-77 262,-77"/>
<text text-anchor="start" x="270" y="-106" font-family="Helvetica,sans-Serif" font-size="10.00">System.Collections.Generic.</text>
<text text-anchor="start" x="270" y="-95" font-family="Helvetica,sans-Serif" font-size="10.00">Dictionary&lt; TKey, TValue</text>
<text text-anchor="middle" x="332.5" y="-84" font-family="Helvetica,sans-Serif" font-size="10.00"> &gt;.ValueCollection</text>
</a>
</g>
</g>
<!-- Node11 -->
<g id="node2" class="node"><title>Node11</title>
<g id="a_node2"><a xlink:href="interface_system_1_1_collections_1_1_generic_1_1_i_collection.html" target="_top" xlink:title=" ">
<polygon fill="none" stroke="red" points="111.5,-164 111.5,-183 221.5,-183 221.5,-164 111.5,-164"/>
<text text-anchor="middle" x="166.5" y="-171" font-family="Helvetica,sans-Serif" font-size="10.00">ICollection&lt; TValue &gt;</text>
</a>
</g>
</g>
<!-- Node11&#45;&gt;Node10 -->
<g id="edge1" class="edge"><title>Node11&#45;&gt;Node10</title>
<path fill="none" stroke="midnightblue" d="M210.055,-160.684C215.478,-158.758 220.908,-156.681 226,-154.5 250.495,-144.008 276.87,-129.758 297.121,-118.131"/>
<polygon fill="midnightblue" stroke="midnightblue" points="208.717,-157.443 200.377,-163.978 210.972,-164.07 208.717,-157.443"/>
</g>
<!-- Node16 -->
<g id="node3" class="node"><title>Node16</title>
<g id="a_node3"><a xlink:href="interface_system_1_1_collections_1_1_generic_1_1_i_enumerable.html" target="_top" xlink:title=" ">
<polygon fill="none" stroke="red" points="107,-126 107,-145 226,-145 226,-126 107,-126"/>
<text text-anchor="middle" x="166.5" y="-133" font-family="Helvetica,sans-Serif" font-size="10.00">IEnumerable&lt; TValue &gt;</text>
</a>
</g>
</g>
<!-- Node16&#45;&gt;Node10 -->
<g id="edge2" class="edge"><title>Node16&#45;&gt;Node10</title>
<path fill="none" stroke="midnightblue" d="M218.97,-123.574C232.528,-120.432 247.387,-116.99 261.734,-113.665"/>
<polygon fill="midnightblue" stroke="midnightblue" points="217.836,-120.244 208.884,-125.911 219.416,-127.063 217.836,-120.244"/>
</g>
<!-- Node15 -->
<g id="node4" class="node"><title>Node15</title>
<g id="a_node4"><a xlink:href="interface_system_1_1_collections_1_1_i_enumerable.html" target="_top" xlink:title="Exposes an enumerator, which supports a simple iteration over a non&#45;generic collection....">
<polygon fill="none" stroke="black" points="0,-69 0,-88 71,-88 71,-69 0,-69"/>
<text text-anchor="middle" x="35.5" y="-76" font-family="Helvetica,sans-Serif" font-size="10.00">IEnumerable</text>
</a>
</g>
</g>
<!-- Node15&#45;&gt;Node10 -->
<g id="edge3" class="edge"><title>Node15&#45;&gt;Node10</title>
<path fill="none" stroke="midnightblue" d="M81.2857,-81.3845C129.271,-84.4751 206.059,-89.4207 261.925,-93.0189"/>
<polygon fill="midnightblue" stroke="midnightblue" points="81.412,-77.8855 71.2077,-80.7354 80.9621,-84.871 81.412,-77.8855"/>
</g>
<!-- Node17 -->
<g id="node5" class="node"><title>Node17</title>
<g id="a_node5"><a xlink:href="interface_system_1_1_collections_1_1_generic_1_1_i_collection.html" target="_top" xlink:title="Defines methods to manipulate generic collections.">
<polygon fill="none" stroke="red" points="135.5,-50 135.5,-69 197.5,-69 197.5,-50 135.5,-50"/>
<text text-anchor="middle" x="166.5" y="-57" font-family="Helvetica,sans-Serif" font-size="10.00">ICollection</text>
</a>
</g>
</g>
<!-- Node15&#45;&gt;Node17 -->
<g id="edge5" class="edge"><title>Node15&#45;&gt;Node17</title>
<path fill="none" stroke="midnightblue" d="M81.0155,-71.9434C98.9114,-69.3076 119.085,-66.3363 135.23,-63.9584"/>
<polygon fill="midnightblue" stroke="midnightblue" points="80.4529,-68.4885 71.0696,-73.4083 81.4729,-75.4138 80.4529,-68.4885"/>
</g>
<!-- Node17&#45;&gt;Node10 -->
<g id="edge4" class="edge"><title>Node17&#45;&gt;Node10</title>
<path fill="none" stroke="midnightblue" d="M207.347,-68.7328C223.729,-72.5288 243.195,-77.0391 261.797,-81.3493"/>
<polygon fill="midnightblue" stroke="midnightblue" points="208.112,-65.3175 197.58,-66.4698 206.532,-72.1368 208.112,-65.3175"/>
</g>
<!-- Node18 -->
<g id="node6" class="node"><title>Node18</title>
<g id="a_node6"><a xlink:href="interface_system_1_1_collections_1_1_generic_1_1_i_read_only_collection.html" target="_top" xlink:title=" ">
<polygon fill="none" stroke="red" points="114.5,-0.5 114.5,-30.5 218.5,-30.5 218.5,-0.5 114.5,-0.5"/>
<text text-anchor="start" x="122.5" y="-18.5" font-family="Helvetica,sans-Serif" font-size="10.00">IReadOnlyCollection</text>
<text text-anchor="middle" x="166.5" y="-7.5" font-family="Helvetica,sans-Serif" font-size="10.00">&lt; TValue &gt;</text>
</a>
</g>
</g>
<!-- Node18&#45;&gt;Node10 -->
<g id="edge6" class="edge"><title>Node18&#45;&gt;Node10</title>
<path fill="none" stroke="midnightblue" d="M213.516,-34.6924C217.76,-36.6043 221.975,-38.5574 226,-40.5 249.437,-51.8098 275.139,-65.6648 295.307,-76.8829"/>
<polygon fill="midnightblue" stroke="midnightblue" points="214.804,-31.4351 204.243,-30.5932 211.974,-37.8375 214.804,-31.4351"/>
</g>
</g>
</svg>
