<?xml version="1.0" encoding="UTF-8" standalone="no"?>
<!DOCTYPE svg PUBLIC "-//W3C//DTD SVG 1.1//EN"
 "http://www.w3.org/Graphics/SVG/1.1/DTD/svg11.dtd">
<!-- Generated by graphviz version 2.38.0 (20140413.2041)
 -->
<!-- Title: System.Reflection.MemberInfo Pages: 1 -->
<svg width="507pt" height="180pt"
 viewBox="0.00 0.00 507.00 180.00" xmlns="http://www.w3.org/2000/svg" xmlns:xlink="http://www.w3.org/1999/xlink">
<g id="graph0" class="graph" transform="scale(1 1) rotate(0) translate(4 176)">
<title>System.Reflection.MemberInfo</title>
<!-- Node0 -->
<g id="node1" class="node"><title>Node0</title>
<g id="a_node1"><a xlink:title="Obtains information about the attributes of a member and provides access to member metadata.">
<polygon fill="#bfbfbf" stroke="black" points="160,-76.5 160,-95.5 309,-95.5 309,-76.5 160,-76.5"/>
<text text-anchor="middle" x="234.5" y="-83.5" font-family="Helvetica,sans-Serif" font-size="10.00">System.Reflection.MemberInfo</text>
</a>
</g>
</g>
<!-- Node3 -->
<g id="node4" class="node"><title>Node3</title>
<g id="a_node4"><a xlink:href="class_system_1_1_reflection_1_1_event_info.html" target="_top" xlink:title="Discovers the attributes of an event and provides access to event metadata.">
<polygon fill="none" stroke="red" points="353,-152.5 353,-171.5 491,-171.5 491,-152.5 353,-152.5"/>
<text text-anchor="middle" x="422" y="-159.5" font-family="Helvetica,sans-Serif" font-size="10.00">System.Reflection.EventInfo</text>
</a>
</g>
</g>
<!-- Node0&#45;&gt;Node3 -->
<g id="edge3" class="edge"><title>Node0&#45;&gt;Node3</title>
<path fill="none" stroke="midnightblue" d="M259.762,-100.749C281.457,-113.416 314.452,-131.416 345,-143 354.665,-146.665 365.289,-149.829 375.452,-152.465"/>
<polygon fill="midnightblue" stroke="midnightblue" points="261.306,-97.5957 250.917,-95.5141 257.74,-103.62 261.306,-97.5957"/>
</g>
<!-- Node5 -->
<g id="node5" class="node"><title>Node5</title>
<g id="a_node5"><a xlink:href="class_system_1_1_reflection_1_1_field_info.html" target="_top" xlink:title="Discovers the attributes of a field and provides access to field metadata.">
<polygon fill="none" stroke="red" points="354.5,-114.5 354.5,-133.5 489.5,-133.5 489.5,-114.5 354.5,-114.5"/>
<text text-anchor="middle" x="422" y="-121.5" font-family="Helvetica,sans-Serif" font-size="10.00">System.Reflection.FieldInfo</text>
</a>
</g>
</g>
<!-- Node0&#45;&gt;Node5 -->
<g id="edge4" class="edge"><title>Node0&#45;&gt;Node5</title>
<path fill="none" stroke="midnightblue" d="M292.173,-97.6095C318.555,-103.014 349.551,-109.364 374.527,-114.48"/>
<polygon fill="midnightblue" stroke="midnightblue" points="292.808,-94.1671 282.309,-95.589 291.404,-101.025 292.808,-94.1671"/>
</g>
<!-- Node7 -->
<g id="node6" class="node"><title>Node7</title>
<g id="a_node6"><a xlink:href="class_system_1_1_reflection_1_1_method_base.html" target="_top" xlink:title="Provides information about methods and constructors.">
<polygon fill="none" stroke="red" points="345,-76.5 345,-95.5 499,-95.5 499,-76.5 345,-76.5"/>
<text text-anchor="middle" x="422" y="-83.5" font-family="Helvetica,sans-Serif" font-size="10.00">System.Reflection.MethodBase</text>
</a>
</g>
</g>
<!-- Node0&#45;&gt;Node7 -->
<g id="edge5" class="edge"><title>Node0&#45;&gt;Node7</title>
<path fill="none" stroke="midnightblue" d="M319.344,-86C327.815,-86 336.386,-86 344.77,-86"/>
<polygon fill="midnightblue" stroke="midnightblue" points="319.081,-82.5001 309.081,-86 319.081,-89.5001 319.081,-82.5001"/>
</g>
<!-- Node13 -->
<g id="node7" class="node"><title>Node13</title>
<g id="a_node7"><a xlink:href="class_system_1_1_reflection_1_1_property_info.html" target="_top" xlink:title="Discovers the attributes of a property and provides access to property metadata.">
<polygon fill="none" stroke="red" points="346.5,-38.5 346.5,-57.5 497.5,-57.5 497.5,-38.5 346.5,-38.5"/>
<text text-anchor="middle" x="422" y="-45.5" font-family="Helvetica,sans-Serif" font-size="10.00">System.Reflection.PropertyInfo</text>
</a>
</g>
</g>
<!-- Node0&#45;&gt;Node13 -->
<g id="edge6" class="edge"><title>Node0&#45;&gt;Node13</title>
<path fill="none" stroke="midnightblue" d="M292.173,-74.3905C318.555,-68.986 349.551,-62.6365 374.527,-57.5201"/>
<polygon fill="midnightblue" stroke="midnightblue" points="291.404,-70.9753 282.309,-76.411 292.808,-77.8329 291.404,-70.9753"/>
</g>
<!-- Node15 -->
<g id="node8" class="node"><title>Node15</title>
<g id="a_node8"><a xlink:href="class_system_1_1_type.html" target="_top" xlink:title="Represents type declarations: class types, interface types, array types, value types,...">
<polygon fill="none" stroke="red" points="385,-0.5 385,-19.5 459,-19.5 459,-0.5 385,-0.5"/>
<text text-anchor="middle" x="422" y="-7.5" font-family="Helvetica,sans-Serif" font-size="10.00">System.Type</text>
</a>
</g>
</g>
<!-- Node0&#45;&gt;Node15 -->
<g id="edge7" class="edge"><title>Node0&#45;&gt;Node15</title>
<path fill="none" stroke="midnightblue" d="M259.762,-71.2509C281.457,-58.584 314.452,-40.5845 345,-29 357.717,-24.1775 372.095,-20.2234 384.897,-17.1952"/>
<polygon fill="midnightblue" stroke="midnightblue" points="257.74,-68.3804 250.917,-76.4859 261.306,-74.4043 257.74,-68.3804"/>
</g>
<!-- Node1 -->
<g id="node2" class="node"><title>Node1</title>
<g id="a_node2"><a xlink:href="interface_system_1_1_reflection_1_1_i_custom_attribute_provider.html" target="_top" xlink:title="Provides custom attributes for reflection objects that support them.">
<polygon fill="none" stroke="black" points="0,-95.5 0,-114.5 124,-114.5 124,-95.5 0,-95.5"/>
<text text-anchor="middle" x="62" y="-102.5" font-family="Helvetica,sans-Serif" font-size="10.00">ICustomAttributeProvider</text>
</a>
</g>
</g>
<!-- Node1&#45;&gt;Node0 -->
<g id="edge1" class="edge"><title>Node1&#45;&gt;Node0</title>
<path fill="none" stroke="midnightblue" d="M134.238,-97.0614C142.667,-96.1221 151.284,-95.1618 159.748,-94.2187"/>
<polygon fill="midnightblue" stroke="midnightblue" points="133.624,-93.6082 124.073,-98.1942 134.399,-100.565 133.624,-93.6082"/>
</g>
<!-- Node2 -->
<g id="node3" class="node"><title>Node2</title>
<g id="a_node3"><a xlink:href="interface_system_1_1_runtime_1_1_interop_services_1_1___member_info.html" target="_top" xlink:title="Exposes the public members of the T:System.Reflection.MemberInfo class to unmanaged code.">
<polygon fill="none" stroke="black" points="26,-57.5 26,-76.5 98,-76.5 98,-57.5 26,-57.5"/>
<text text-anchor="middle" x="62" y="-64.5" font-family="Helvetica,sans-Serif" font-size="10.00">_MemberInfo</text>
</a>
</g>
</g>
<!-- Node2&#45;&gt;Node0 -->
<g id="edge2" class="edge"><title>Node2&#45;&gt;Node0</title>
<path fill="none" stroke="midnightblue" d="M108.355,-72.0542C124.18,-73.8178 142.375,-75.8453 159.899,-77.7982"/>
<polygon fill="midnightblue" stroke="midnightblue" points="108.654,-68.5659 98.3277,-70.9368 107.879,-75.5229 108.654,-68.5659"/>
</g>
</g>
</svg>
