<?xml version="1.0" encoding="UTF-8" standalone="no"?>
<!DOCTYPE svg PUBLIC "-//W3C//DTD SVG 1.1//EN"
 "http://www.w3.org/Graphics/SVG/1.1/DTD/svg11.dtd">
<!-- Generated by graphviz version 2.38.0 (20140413.2041)
 -->
<!-- Title: System.ComponentModel.MemberDescriptor Pages: 1 -->
<svg width="352pt" height="106pt"
 viewBox="0.00 0.00 351.50 106.00" xmlns="http://www.w3.org/2000/svg" xmlns:xlink="http://www.w3.org/1999/xlink">
<g id="graph0" class="graph" transform="scale(1 1) rotate(0) translate(4 102)">
<title>System.ComponentModel.MemberDescriptor</title>
<!-- Node0 -->
<g id="node1" class="node"><title>Node0</title>
<g id="a_node1"><a xlink:title="Represents a class member, such as a property or event. This is an abstract base class.">
<polygon fill="#bfbfbf" stroke="black" points="84.5,-67.5 84.5,-97.5 251.5,-97.5 251.5,-67.5 84.5,-67.5"/>
<text text-anchor="start" x="92.5" y="-85.5" font-family="Helvetica,sans-Serif" font-size="10.00">System.ComponentModel.Member</text>
<text text-anchor="middle" x="168" y="-74.5" font-family="Helvetica,sans-Serif" font-size="10.00">Descriptor</text>
</a>
</g>
</g>
<!-- Node1 -->
<g id="node2" class="node"><title>Node1</title>
<g id="a_node2"><a xlink:href="class_system_1_1_component_model_1_1_event_descriptor.html" target="_top" xlink:title="Provides information about an event.">
<polygon fill="none" stroke="black" points="0,-0.5 0,-30.5 156,-30.5 156,-0.5 0,-0.5"/>
<text text-anchor="start" x="8" y="-18.5" font-family="Helvetica,sans-Serif" font-size="10.00">System.ComponentModel.Event</text>
<text text-anchor="middle" x="78" y="-7.5" font-family="Helvetica,sans-Serif" font-size="10.00">Descriptor</text>
</a>
</g>
</g>
<!-- Node0&#45;&gt;Node1 -->
<g id="edge1" class="edge"><title>Node0&#45;&gt;Node1</title>
<path fill="none" stroke="midnightblue" d="M140.24,-61.4511C126.395,-51.4517 109.984,-39.5995 97.4905,-30.5765"/>
<polygon fill="midnightblue" stroke="midnightblue" points="138.315,-64.3784 148.471,-67.396 142.414,-58.7036 138.315,-64.3784"/>
</g>
<!-- Node2 -->
<g id="node3" class="node"><title>Node2</title>
<g id="a_node3"><a xlink:href="class_system_1_1_component_model_1_1_property_descriptor.html" target="_top" xlink:title="Provides an abstraction of a property on a class.">
<polygon fill="none" stroke="red" points="174.5,-0.5 174.5,-30.5 343.5,-30.5 343.5,-0.5 174.5,-0.5"/>
<text text-anchor="start" x="182.5" y="-18.5" font-family="Helvetica,sans-Serif" font-size="10.00">System.ComponentModel.Property</text>
<text text-anchor="middle" x="259" y="-7.5" font-family="Helvetica,sans-Serif" font-size="10.00">Descriptor</text>
</a>
</g>
</g>
<!-- Node0&#45;&gt;Node2 -->
<g id="edge2" class="edge"><title>Node0&#45;&gt;Node2</title>
<path fill="none" stroke="midnightblue" d="M196.068,-61.4511C210.068,-51.4517 226.661,-39.5995 239.293,-30.5765"/>
<polygon fill="midnightblue" stroke="midnightblue" points="193.849,-58.7355 187.746,-67.396 197.917,-64.4316 193.849,-58.7355"/>
</g>
</g>
</svg>
