<?xml version="1.0" encoding="UTF-8" standalone="no"?>
<!DOCTYPE svg PUBLIC "-//W3C//DTD SVG 1.1//EN"
 "http://www.w3.org/Graphics/SVG/1.1/DTD/svg11.dtd">
<!-- Generated by graphviz version 2.38.0 (20140413.2041)
 -->
<!-- Title: System.Reflection.AssemblyName Pages: 1 -->
<svg width="406pt" height="84pt"
 viewBox="0.00 0.00 405.50 84.00" xmlns="http://www.w3.org/2000/svg" xmlns:xlink="http://www.w3.org/1999/xlink">
<g id="graph0" class="graph" transform="scale(1 1) rotate(0) translate(4 80)">
<title>System.Reflection.AssemblyName</title>
<!-- Node5 -->
<g id="node1" class="node"><title>Node5</title>
<g id="a_node1"><a xlink:title="Describes an assembly&#39;s unique identity in full.">
<polygon fill="#bfbfbf" stroke="black" points="98.5,-0.5 98.5,-19.5 266.5,-19.5 266.5,-0.5 98.5,-0.5"/>
<text text-anchor="middle" x="182.5" y="-7.5" font-family="Helvetica,sans-Serif" font-size="10.00">System.Reflection.AssemblyName</text>
</a>
</g>
</g>
<!-- Node6 -->
<g id="node2" class="node"><title>Node6</title>
<g id="a_node2"><a xlink:href="interface_system_1_1_runtime_1_1_interop_services_1_1___assembly_name.html" target="_top" xlink:title="Exposes the T:System.Reflection.AssemblyName class to unmanaged code.">
<polygon fill="none" stroke="black" points="0,-56.5 0,-75.5 91,-75.5 91,-56.5 0,-56.5"/>
<text text-anchor="middle" x="45.5" y="-63.5" font-family="Helvetica,sans-Serif" font-size="10.00">_AssemblyName</text>
</a>
</g>
</g>
<!-- Node6&#45;&gt;Node5 -->
<g id="edge1" class="edge"><title>Node6&#45;&gt;Node5</title>
<path fill="none" stroke="midnightblue" d="M76.5229,-52.772C102.257,-42.6287 138.186,-28.4669 160.894,-19.5164"/>
<polygon fill="midnightblue" stroke="midnightblue" points="75.228,-49.5203 67.2081,-56.4435 77.7949,-56.0326 75.228,-49.5203"/>
</g>
<!-- Node7 -->
<g id="node3" class="node"><title>Node7</title>
<g id="a_node3"><a xlink:href="interface_system_1_1_i_cloneable.html" target="_top" xlink:title="Supports cloning, which creates a new instance of a class with the same value as an existing instance...">
<polygon fill="none" stroke="black" points="109.5,-56.5 109.5,-75.5 171.5,-75.5 171.5,-56.5 109.5,-56.5"/>
<text text-anchor="middle" x="140.5" y="-63.5" font-family="Helvetica,sans-Serif" font-size="10.00">ICloneable</text>
</a>
</g>
</g>
<!-- Node7&#45;&gt;Node5 -->
<g id="edge2" class="edge"><title>Node7&#45;&gt;Node5</title>
<path fill="none" stroke="midnightblue" d="M153.61,-48.144C160.928,-38.7357 169.741,-27.4046 175.694,-19.7511"/>
<polygon fill="midnightblue" stroke="midnightblue" points="150.812,-46.0406 147.435,-56.083 156.338,-50.3383 150.812,-46.0406"/>
</g>
<!-- Node8 -->
<g id="node4" class="node"><title>Node8</title>
<g id="a_node4"><a xlink:href="interface_system_1_1_runtime_1_1_serialization_1_1_i_serializable.html" target="_top" xlink:title="Allows an object to control its own serialization and deserialization.">
<polygon fill="none" stroke="black" points="190,-56.5 190,-75.5 259,-75.5 259,-56.5 190,-56.5"/>
<text text-anchor="middle" x="224.5" y="-63.5" font-family="Helvetica,sans-Serif" font-size="10.00">ISerializable</text>
</a>
</g>
</g>
<!-- Node8&#45;&gt;Node5 -->
<g id="edge3" class="edge"><title>Node8&#45;&gt;Node5</title>
<path fill="none" stroke="midnightblue" d="M211.39,-48.144C204.072,-38.7357 195.259,-27.4046 189.306,-19.7511"/>
<polygon fill="midnightblue" stroke="midnightblue" points="208.662,-50.3383 217.565,-56.083 214.188,-46.0406 208.662,-50.3383"/>
</g>
<!-- Node9 -->
<g id="node5" class="node"><title>Node9</title>
<g id="a_node5"><a xlink:href="interface_system_1_1_runtime_1_1_serialization_1_1_i_deserialization_callback.html" target="_top" xlink:title="Indicates that a class is to be notified when deserialization of the entire object graph has been com...">
<polygon fill="none" stroke="black" points="277.5,-56.5 277.5,-75.5 397.5,-75.5 397.5,-56.5 277.5,-56.5"/>
<text text-anchor="middle" x="337.5" y="-63.5" font-family="Helvetica,sans-Serif" font-size="10.00">IDeserializationCallback</text>
</a>
</g>
</g>
<!-- Node9&#45;&gt;Node5 -->
<g id="edge4" class="edge"><title>Node9&#45;&gt;Node5</title>
<path fill="none" stroke="midnightblue" d="M303.168,-53.0392C274.003,-42.8786 232.863,-28.5457 206.945,-19.5164"/>
<polygon fill="midnightblue" stroke="midnightblue" points="302.345,-56.4587 312.94,-56.4435 304.648,-49.8484 302.345,-56.4587"/>
</g>
</g>
</svg>
