<?xml version="1.0" encoding="UTF-8" standalone="no"?>
<!DOCTYPE svg PUBLIC "-//W3C//DTD SVG 1.1//EN"
 "http://www.w3.org/Graphics/SVG/1.1/DTD/svg11.dtd">
<!-- Generated by graphviz version 2.38.0 (20140413.2041)
 -->
<!-- Title: System.IO.StreamReader Pages: 1 -->
<svg width="174pt" height="85pt"
 viewBox="0.00 0.00 174.00 85.00" xmlns="http://www.w3.org/2000/svg" xmlns:xlink="http://www.w3.org/1999/xlink">
<g id="graph0" class="graph" transform="scale(1 1) rotate(0) translate(4 81)">
<title>System.IO.StreamReader</title>
<!-- Node4 -->
<g id="node1" class="node"><title>Node4</title>
<g id="a_node1"><a xlink:title="Implements a T:System.IO.TextReader that reads characters from a byte stream in a particular encoding...">
<polygon fill="#bfbfbf" stroke="black" points="0,-0.5 0,-19.5 128,-19.5 128,-0.5 0,-0.5"/>
<text text-anchor="middle" x="64" y="-7.5" font-family="Helvetica,sans-Serif" font-size="10.00">System.IO.StreamReader</text>
</a>
</g>
</g>
<!-- Node4&#45;&gt;Node4 -->
<g id="edge2" class="edge"><title>Node4&#45;&gt;Node4</title>
<path fill="none" stroke="#9a32cd" stroke-dasharray="5,2" d="M138.505,-13.6855C143.182,-12.8178 146,-11.5894 146,-10 146,-7.45703 138.785,-5.83788 128.288,-5.14253"/>
<polygon fill="#9a32cd" stroke="#9a32cd" points="137.824,-10.2406 128.288,-14.8575 138.621,-17.195 137.824,-10.2406"/>
<text text-anchor="middle" x="156" y="-7.5" font-family="Helvetica,sans-Serif" font-size="10.00"> Null</text>
</g>
<!-- Node5 -->
<g id="node2" class="node"><title>Node5</title>
<g id="a_node2"><a xlink:href="class_system_1_1_i_o_1_1_text_reader.html" target="_top" xlink:title="Represents a reader that can read a sequential series of characters.">
<polygon fill="none" stroke="red" points="31,-57.5 31,-76.5 97,-76.5 97,-57.5 31,-57.5"/>
<text text-anchor="middle" x="64" y="-64.5" font-family="Helvetica,sans-Serif" font-size="10.00">TextReader</text>
</a>
</g>
</g>
<!-- Node5&#45;&gt;Node4 -->
<g id="edge1" class="edge"><title>Node5&#45;&gt;Node4</title>
<path fill="none" stroke="midnightblue" d="M64,-47.1166C64,-37.8173 64,-27.0557 64,-19.7149"/>
<polygon fill="midnightblue" stroke="midnightblue" points="60.5001,-47.4062 64,-57.4063 67.5001,-47.4063 60.5001,-47.4062"/>
</g>
</g>
</svg>
