<?xml version="1.0" encoding="UTF-8" standalone="no"?>
<!DOCTYPE svg PUBLIC "-//W3C//DTD SVG 1.1//EN"
 "http://www.w3.org/Graphics/SVG/1.1/DTD/svg11.dtd">
<!-- Generated by graphviz version 2.38.0 (20140413.2041)
 -->
<!-- Title: System.Security.Cryptography.CryptoStream Pages: 1 -->
<svg width="217pt" height="151pt"
 viewBox="0.00 0.00 216.50 151.00" xmlns="http://www.w3.org/2000/svg" xmlns:xlink="http://www.w3.org/1999/xlink">
<g id="graph0" class="graph" transform="scale(1 1) rotate(0) translate(4 147)">
<title>System.Security.Cryptography.CryptoStream</title>
<!-- Node0 -->
<g id="node1" class="node"><title>Node0</title>
<g id="a_node1"><a xlink:title="Defines a stream that links data streams to cryptographic transformations.">
<polygon fill="#bfbfbf" stroke="black" points="55.5,-0.5 55.5,-30.5 208.5,-30.5 208.5,-0.5 55.5,-0.5"/>
<text text-anchor="start" x="63.5" y="-18.5" font-family="Helvetica,sans-Serif" font-size="10.00">System.Security.Cryptography.</text>
<text text-anchor="middle" x="132" y="-7.5" font-family="Helvetica,sans-Serif" font-size="10.00">CryptoStream</text>
</a>
</g>
</g>
<!-- Node1 -->
<g id="node2" class="node"><title>Node1</title>
<g id="a_node2"><a xlink:href="class_system_1_1_i_o_1_1_stream.html" target="_top" xlink:title="Provides a generic view of a sequence of bytes. This is an abstract class.To browse the ....">
<polygon fill="none" stroke="black" points="82,-67.5 82,-86.5 130,-86.5 130,-67.5 82,-67.5"/>
<text text-anchor="middle" x="106" y="-74.5" font-family="Helvetica,sans-Serif" font-size="10.00">Stream</text>
</a>
</g>
</g>
<!-- Node1&#45;&gt;Node0 -->
<g id="edge1" class="edge"><title>Node1&#45;&gt;Node0</title>
<path fill="none" stroke="midnightblue" d="M113.82,-58.1045C117.681,-49.269 122.27,-38.7657 125.872,-30.523"/>
<polygon fill="midnightblue" stroke="midnightblue" points="110.522,-56.9103 109.725,-67.4751 116.937,-59.7132 110.522,-56.9103"/>
</g>
<!-- Node2 -->
<g id="node3" class="node"><title>Node2</title>
<g id="a_node3"><a xlink:href="class_system_1_1_marshal_by_ref_object.html" target="_top" xlink:title="Enables access to objects across application domain boundaries in applications that support remoting.">
<polygon fill="none" stroke="black" points="0,-123.5 0,-142.5 106,-142.5 106,-123.5 0,-123.5"/>
<text text-anchor="middle" x="53" y="-130.5" font-family="Helvetica,sans-Serif" font-size="10.00">MarshalByRefObject</text>
</a>
</g>
</g>
<!-- Node2&#45;&gt;Node1 -->
<g id="edge2" class="edge"><title>Node2&#45;&gt;Node1</title>
<path fill="none" stroke="midnightblue" d="M68.9809,-115.718C78.3225,-106.2 89.7459,-94.5608 97.411,-86.7511"/>
<polygon fill="midnightblue" stroke="midnightblue" points="66.2587,-113.494 61.7519,-123.083 71.2545,-118.398 66.2587,-113.494"/>
</g>
<!-- Node3 -->
<g id="node4" class="node"><title>Node3</title>
<g id="a_node4"><a xlink:href="interface_system_1_1_i_disposable.html" target="_top" xlink:title="Provides a mechanism for releasing unmanaged resources.To browse the .NET Framework source code for t...">
<polygon fill="none" stroke="black" points="124.5,-123.5 124.5,-142.5 191.5,-142.5 191.5,-123.5 124.5,-123.5"/>
<text text-anchor="middle" x="158" y="-130.5" font-family="Helvetica,sans-Serif" font-size="10.00">IDisposable</text>
</a>
</g>
</g>
<!-- Node3&#45;&gt;Node0 -->
<g id="edge4" class="edge"><title>Node3&#45;&gt;Node0</title>
<path fill="none" stroke="midnightblue" d="M153.81,-113.385C148.603,-90.2573 139.838,-51.317 135.162,-30.5453"/>
<polygon fill="midnightblue" stroke="midnightblue" points="150.435,-114.332 156.046,-123.319 157.264,-112.794 150.435,-114.332"/>
</g>
<!-- Node3&#45;&gt;Node1 -->
<g id="edge3" class="edge"><title>Node3&#45;&gt;Node1</title>
<path fill="none" stroke="midnightblue" d="M142.321,-115.718C133.155,-106.2 121.947,-94.5608 114.427,-86.7511"/>
<polygon fill="midnightblue" stroke="midnightblue" points="139.956,-118.308 149.413,-123.083 144.998,-113.452 139.956,-118.308"/>
</g>
</g>
</svg>
