<?xml version="1.0" encoding="UTF-8" standalone="no"?>
<!DOCTYPE svg PUBLIC "-//W3C//DTD SVG 1.1//EN"
 "http://www.w3.org/Graphics/SVG/1.1/DTD/svg11.dtd">
<!-- Generated by graphviz version 2.38.0 (20140413.2041)
 -->
<!-- Title: System.Security.AccessControl.CommonObjectSecurity Pages: 1 -->
<!--zoomable 284 -->
<svg id="main" version="1.1" xmlns="http://www.w3.org/2000/svg" xmlns:xlink="http://www.w3.org/1999/xlink" xml:space="preserve" onload="init(evt)">
<style type="text/css"><![CDATA[
.edge:hover path { stroke: red; }
.edge:hover polygon { stroke: red; fill: red; }
]]></style>
<script type="text/javascript"><![CDATA[
var edges = document.getElementsByTagName('g');
if (edges && edges.length) {
  for (var i=0;i<edges.length;i++) {
    if (edges[i].id.substr(0,4)=='edge') {
      edges[i].setAttribute('class','edge');
    }
  }
}
]]></script>
        <defs>
                <circle id="rim" cx="0" cy="0" r="7"/>
                <circle id="rim2" cx="0" cy="0" r="3.5"/>
                <g id="zoomPlus">
                        <use xlink:href="#rim" fill="#404040">
                                <set attributeName="fill" to="#808080" begin="zoomplus.mouseover" end="zoomplus.mouseout"/>
                        </use>
                        <path d="M-4,0h8M0,-4v8" fill="none" stroke="white" stroke-width="1.5" pointer-events="none"/>
                </g>
                <g id="zoomMin">
                        <use xlink:href="#rim" fill="#404040">
                                <set attributeName="fill" to="#808080" begin="zoomminus.mouseover" end="zoomminus.mouseout"/>
                        </use>
                        <path d="M-4,0h8" fill="none" stroke="white" stroke-width="1.5" pointer-events="none"/>
                </g>
                <g id="dirArrow">
                        <path fill="none" stroke="white" stroke-width="1.5" d="M0,-3.0v7 M-2.5,-0.5L0,-3.0L2.5,-0.5"/>
                </g>
               <g id="resetDef">
                       <use xlink:href="#rim2" fill="#404040">
                               <set attributeName="fill" to="#808080" begin="reset.mouseover" end="reset.mouseout"/>
                       </use>
               </g>
        </defs>

<script type="text/javascript">
var viewWidth = 869;
var viewHeight = 284;
var sectionId = 'dynsection-0';
</script>
<script xlink:href="svgpan.js"/>
<svg id="graph" class="graph">
<g id="viewport">
<title>System.Security.AccessControl.CommonObjectSecurity</title>
<!-- Node0 -->
<g id="node1" class="node"><title>Node0</title>
<g id="a_node1"><a xlink:title="Controls access to objects without direct manipulation of access control lists (ACLs)....">
<polygon fill="#bfbfbf" stroke="black" points="117,-122.5 117,-152.5 276,-152.5 276,-122.5 117,-122.5"/>
<text text-anchor="start" x="125" y="-140.5" font-family="Helvetica,sans-Serif" font-size="10.00">System.Security.AccessControl.</text>
<text text-anchor="middle" x="196.5" y="-129.5" font-family="Helvetica,sans-Serif" font-size="10.00">CommonObjectSecurity</text>
</a>
</g>
</g>
<!-- Node2 -->
<g id="node3" class="node"><title>Node2</title>
<g id="a_node3"><a xlink:href="class_system_1_1_security_1_1_access_control_1_1_native_object_security.html" target="_top" xlink:title="Provides the ability to control access to native objects without direct manipulation of Access Contro...">
<polygon fill="none" stroke="black" points="312,-122.5 312,-152.5 471,-152.5 471,-122.5 312,-122.5"/>
<text text-anchor="start" x="320" y="-140.5" font-family="Helvetica,sans-Serif" font-size="10.00">System.Security.AccessControl.</text>
<text text-anchor="middle" x="391.5" y="-129.5" font-family="Helvetica,sans-Serif" font-size="10.00">NativeObjectSecurity</text>
</a>
</g>
</g>
<!-- Node0&#45;&gt;Node2 -->
<g id="edge2" class="edge"><title>Node0&#45;&gt;Node2</title>
<path fill="none" stroke="midnightblue" d="M286.023,-137.5C294.607,-137.5 303.276,-137.5 311.756,-137.5"/>
<polygon fill="midnightblue" stroke="midnightblue" points="286.001,-134 276,-137.5 286,-141 286.001,-134"/>
</g>
<!-- Node1 -->
<g id="node2" class="node"><title>Node1</title>
<g id="a_node2"><a xlink:href="class_system_1_1_security_1_1_access_control_1_1_object_security.html" target="_top" xlink:title="Provides the ability to control access to objects without direct manipulation of Access Control Lists...">
<polygon fill="none" stroke="black" points="0,-128 0,-147 81,-147 81,-128 0,-128"/>
<text text-anchor="middle" x="40.5" y="-135" font-family="Helvetica,sans-Serif" font-size="10.00">ObjectSecurity</text>
</a>
</g>
</g>
<!-- Node1&#45;&gt;Node0 -->
<g id="edge1" class="edge"><title>Node1&#45;&gt;Node0</title>
<path fill="none" stroke="midnightblue" d="M91.2405,-137.5C99.4252,-137.5 108.082,-137.5 116.768,-137.5"/>
<polygon fill="midnightblue" stroke="midnightblue" points="91.1589,-134 81.1588,-137.5 91.1588,-141 91.1589,-134"/>
</g>
<!-- Node3 -->
<g id="node4" class="node"><title>Node3</title>
<g id="a_node4"><a xlink:href="class_system_1_1_security_1_1_access_control_1_1_crypto_key_security.html" target="_top" xlink:title="Provides the ability to control access to a cryptographic key object without direct manipulation of a...">
<polygon fill="none" stroke="black" points="507,-245.5 507,-275.5 666,-275.5 666,-245.5 507,-245.5"/>
<text text-anchor="start" x="515" y="-263.5" font-family="Helvetica,sans-Serif" font-size="10.00">System.Security.AccessControl.</text>
<text text-anchor="middle" x="586.5" y="-252.5" font-family="Helvetica,sans-Serif" font-size="10.00">CryptoKeySecurity</text>
</a>
</g>
</g>
<!-- Node2&#45;&gt;Node3 -->
<g id="edge3" class="edge"><title>Node2&#45;&gt;Node3</title>
<path fill="none" stroke="midnightblue" d="M413.154,-160.195C434.619,-182.526 470.171,-216.149 507,-236.5 513.112,-239.877 519.76,-242.841 526.515,-245.426"/>
<polygon fill="midnightblue" stroke="midnightblue" points="415.584,-157.67 406.171,-152.807 410.497,-162.478 415.584,-157.67"/>
</g>
<!-- Node4 -->
<g id="node5" class="node"><title>Node4</title>
<g id="a_node5"><a xlink:href="class_system_1_1_security_1_1_access_control_1_1_event_wait_handle_security.html" target="_top" xlink:title="Represents the Windows access control security applied to a named system wait handle....">
<polygon fill="none" stroke="black" points="507,-196.5 507,-226.5 666,-226.5 666,-196.5 507,-196.5"/>
<text text-anchor="start" x="515" y="-214.5" font-family="Helvetica,sans-Serif" font-size="10.00">System.Security.AccessControl.</text>
<text text-anchor="middle" x="586.5" y="-203.5" font-family="Helvetica,sans-Serif" font-size="10.00">EventWaitHandleSecurity</text>
</a>
</g>
</g>
<!-- Node2&#45;&gt;Node4 -->
<g id="edge4" class="edge"><title>Node2&#45;&gt;Node4</title>
<path fill="none" stroke="midnightblue" d="M434.408,-156.58C455.911,-166.076 482.641,-177.433 507,-186.5 516.249,-189.943 526.215,-193.346 535.84,-196.481"/>
<polygon fill="midnightblue" stroke="midnightblue" points="435.79,-153.364 425.231,-152.5 432.946,-159.761 435.79,-153.364"/>
</g>
<!-- Node5 -->
<g id="node6" class="node"><title>Node5</title>
<g id="a_node6"><a xlink:href="class_system_1_1_security_1_1_access_control_1_1_file_system_security.html" target="_top" xlink:title="Represents the access control and audit security for a file or directory.">
<polygon fill="none" stroke="black" points="507,-147.5 507,-177.5 666,-177.5 666,-147.5 507,-147.5"/>
<text text-anchor="start" x="515" y="-165.5" font-family="Helvetica,sans-Serif" font-size="10.00">System.Security.AccessControl.</text>
<text text-anchor="middle" x="586.5" y="-154.5" font-family="Helvetica,sans-Serif" font-size="10.00">FileSystemSecurity</text>
</a>
</g>
</g>
<!-- Node2&#45;&gt;Node5 -->
<g id="edge5" class="edge"><title>Node2&#45;&gt;Node5</title>
<path fill="none" stroke="midnightblue" d="M481.023,-148.967C489.607,-150.079 498.276,-151.202 506.756,-152.3"/>
<polygon fill="midnightblue" stroke="midnightblue" points="481.367,-145.482 471,-147.668 480.468,-152.424 481.367,-145.482"/>
</g>
<!-- Node8 -->
<g id="node9" class="node"><title>Node8</title>
<g id="a_node9"><a xlink:href="class_system_1_1_security_1_1_access_control_1_1_mutex_security.html" target="_top" xlink:title="Represents the Windows access control security for a named mutex. This class cannot be inherited.">
<polygon fill="none" stroke="black" points="507,-98.5 507,-128.5 666,-128.5 666,-98.5 507,-98.5"/>
<text text-anchor="start" x="515" y="-116.5" font-family="Helvetica,sans-Serif" font-size="10.00">System.Security.AccessControl.</text>
<text text-anchor="middle" x="586.5" y="-105.5" font-family="Helvetica,sans-Serif" font-size="10.00">MutexSecurity</text>
</a>
</g>
</g>
<!-- Node2&#45;&gt;Node8 -->
<g id="edge8" class="edge"><title>Node2&#45;&gt;Node8</title>
<path fill="none" stroke="midnightblue" d="M481.023,-126.492C489.607,-125.425 498.276,-124.346 506.756,-123.292"/>
<polygon fill="midnightblue" stroke="midnightblue" points="480.492,-123.031 471,-127.738 481.356,-129.977 480.492,-123.031"/>
</g>
<!-- Node9 -->
<g id="node10" class="node"><title>Node9</title>
<g id="a_node10"><a xlink:href="class_system_1_1_security_1_1_access_control_1_1_object_security.html" target="_top" xlink:title="Provides the ability to control access to objects without direct manipulation of Access Control Lists...">
<polygon fill="none" stroke="black" points="507,-49.5 507,-79.5 666,-79.5 666,-49.5 507,-49.5"/>
<text text-anchor="start" x="515" y="-67.5" font-family="Helvetica,sans-Serif" font-size="10.00">System.Security.AccessControl.</text>
<text text-anchor="middle" x="586.5" y="-56.5" font-family="Helvetica,sans-Serif" font-size="10.00">ObjectSecurity&lt; T &gt;</text>
</a>
</g>
</g>
<!-- Node2&#45;&gt;Node9 -->
<g id="edge9" class="edge"><title>Node2&#45;&gt;Node9</title>
<path fill="none" stroke="midnightblue" d="M434.364,-118.3C455.856,-108.773 482.588,-97.4258 507,-88.5 515.432,-85.4169 524.468,-82.3977 533.301,-79.5978"/>
<polygon fill="midnightblue" stroke="midnightblue" points="432.896,-115.123 425.192,-122.396 435.75,-121.514 432.896,-115.123"/>
</g>
<!-- Node10 -->
<g id="node11" class="node"><title>Node10</title>
<g id="a_node11"><a xlink:href="class_system_1_1_security_1_1_access_control_1_1_registry_security.html" target="_top" xlink:title="Represents the Windows access control security for a registry key. This class cannot be inherited.">
<polygon fill="none" stroke="black" points="507,-0.5 507,-30.5 666,-30.5 666,-0.5 507,-0.5"/>
<text text-anchor="start" x="515" y="-18.5" font-family="Helvetica,sans-Serif" font-size="10.00">System.Security.AccessControl.</text>
<text text-anchor="middle" x="586.5" y="-7.5" font-family="Helvetica,sans-Serif" font-size="10.00">RegistrySecurity</text>
</a>
</g>
</g>
<!-- Node2&#45;&gt;Node10 -->
<g id="edge10" class="edge"><title>Node2&#45;&gt;Node10</title>
<path fill="none" stroke="midnightblue" d="M413.2,-115.046C434.7,-92.9483 470.279,-59.6709 507,-39.5 513.12,-36.138 519.774,-33.1837 526.532,-30.6043"/>
<polygon fill="midnightblue" stroke="midnightblue" points="410.589,-112.711 406.203,-122.355 415.646,-117.551 410.589,-112.711"/>
</g>
<!-- Node6 -->
<g id="node7" class="node"><title>Node6</title>
<g id="a_node7"><a xlink:href="class_system_1_1_security_1_1_access_control_1_1_directory_security.html" target="_top" xlink:title="Represents the access control and audit security for a directory. This class cannot be inherited.">
<polygon fill="none" stroke="black" points="702,-171.5 702,-201.5 861,-201.5 861,-171.5 702,-171.5"/>
<text text-anchor="start" x="710" y="-189.5" font-family="Helvetica,sans-Serif" font-size="10.00">System.Security.AccessControl.</text>
<text text-anchor="middle" x="781.5" y="-178.5" font-family="Helvetica,sans-Serif" font-size="10.00">DirectorySecurity</text>
</a>
</g>
</g>
<!-- Node5&#45;&gt;Node6 -->
<g id="edge6" class="edge"><title>Node5&#45;&gt;Node6</title>
<path fill="none" stroke="midnightblue" d="M676.023,-173.508C684.607,-174.575 693.276,-175.654 701.756,-176.708"/>
<polygon fill="midnightblue" stroke="midnightblue" points="676.356,-170.023 666,-172.262 675.492,-176.969 676.356,-170.023"/>
</g>
<!-- Node7 -->
<g id="node8" class="node"><title>Node7</title>
<g id="a_node8"><a xlink:href="class_system_1_1_security_1_1_access_control_1_1_file_security.html" target="_top" xlink:title="Represents the access control and audit security for a file. This class cannot be inherited.">
<polygon fill="none" stroke="black" points="702,-122.5 702,-152.5 861,-152.5 861,-122.5 702,-122.5"/>
<text text-anchor="start" x="710" y="-140.5" font-family="Helvetica,sans-Serif" font-size="10.00">System.Security.AccessControl.</text>
<text text-anchor="middle" x="781.5" y="-129.5" font-family="Helvetica,sans-Serif" font-size="10.00">FileSecurity</text>
</a>
</g>
</g>
<!-- Node5&#45;&gt;Node7 -->
<g id="edge7" class="edge"><title>Node5&#45;&gt;Node7</title>
<path fill="none" stroke="midnightblue" d="M676.023,-151.033C684.607,-149.921 693.276,-148.798 701.756,-147.7"/>
<polygon fill="midnightblue" stroke="midnightblue" points="675.468,-147.576 666,-152.332 676.367,-154.518 675.468,-147.576"/>
</g>
</g>
</svg>
        <g id="navigator" transform="translate(0 0)" fill="#404254">
                <rect fill="#f2f5e9" fill-opacity="0.5" stroke="#606060" stroke-width=".5" x="0" y="0" width="60" height="60"/>
                <use id="zoomplus" xlink:href="#zoomPlus" x="17" y="9" onmousedown="handleZoom(evt,'in')"/>
                <use id="zoomminus" xlink:href="#zoomMin" x="42" y="9" onmousedown="handleZoom(evt,'out')"/>
                <use id="reset" xlink:href="#resetDef" x="30" y="36" onmousedown="handleReset()"/>
                <g id="arrowUp" xlink:href="#dirArrow" transform="translate(30 24)" onmousedown="handlePan(0,-1)">
                  <use xlink:href="#rim" fill="#404040">
                        <set attributeName="fill" to="#808080" begin="arrowUp.mouseover" end="arrowUp.mouseout"/>
                  </use>
                  <path fill="none" stroke="white" stroke-width="1.5" d="M0,-3.0v7 M-2.5,-0.5L0,-3.0L2.5,-0.5"/>
                </g>
                <g id="arrowRight" xlink:href="#dirArrow" transform="rotate(90) translate(36 -43)" onmousedown="handlePan(1,0)">
                  <use xlink:href="#rim" fill="#404040">
                        <set attributeName="fill" to="#808080" begin="arrowRight.mouseover" end="arrowRight.mouseout"/>
                  </use>
                  <path fill="none" stroke="white" stroke-width="1.5" d="M0,-3.0v7 M-2.5,-0.5L0,-3.0L2.5,-0.5"/>
                </g>
                <g id="arrowDown" xlink:href="#dirArrow" transform="rotate(180) translate(-30 -48)" onmousedown="handlePan(0,1)">
                  <use xlink:href="#rim" fill="#404040">
                        <set attributeName="fill" to="#808080" begin="arrowDown.mouseover" end="arrowDown.mouseout"/>
                  </use>
                  <path fill="none" stroke="white" stroke-width="1.5" d="M0,-3.0v7 M-2.5,-0.5L0,-3.0L2.5,-0.5"/>
                </g>
                <g id="arrowLeft" xlink:href="#dirArrow" transform="rotate(270) translate(-36 17)" onmousedown="handlePan(-1,0)">
                  <use xlink:href="#rim" fill="#404040">
                        <set attributeName="fill" to="#808080" begin="arrowLeft.mouseover" end="arrowLeft.mouseout"/>
                  </use>
                  <path fill="none" stroke="white" stroke-width="1.5" d="M0,-3.0v7 M-2.5,-0.5L0,-3.0L2.5,-0.5"/>
                </g>
        </g>
        <svg viewBox="0 0 15 15" width="100%" height="30px" preserveAspectRatio="xMaxYMin meet">
         <g id="arrow_out" transform="scale(0.3 0.3)">
          <a xlink:href="class_system_1_1_security_1_1_access_control_1_1_common_object_security__inherit__graph_org.svg" target="_base">
           <rect id="button" ry="5" rx="5" y="6" x="6" height="38" width="38"
                fill="#f2f5e9" fill-opacity="0.5" stroke="#606060" stroke-width="1.0"/>
           <path id="arrow"
             d="M 11.500037,31.436501 C 11.940474,20.09759 22.043105,11.32322 32.158766,21.979434 L 37.068811,17.246167 C 37.068811,17.246167 37.088388,32 37.088388,32 L 22.160133,31.978069 C 22.160133,31.978069 26.997745,27.140456 26.997745,27.140456 C 18.528582,18.264221 13.291696,25.230495 11.500037,31.436501 z"
             style="fill:#404040;"/>
          </a>
         </g>
        </svg>
</svg>
