<?xml version="1.0" encoding="UTF-8" standalone="no"?>
<!DOCTYPE svg PUBLIC "-//W3C//DTD SVG 1.1//EN"
 "http://www.w3.org/Graphics/SVG/1.1/DTD/svg11.dtd">
<!-- Generated by graphviz version 2.38.0 (20140413.2041)
 -->
<!-- Title: System.Security.Cryptography.RSACryptoServiceProvider Pages: 1 -->
<svg width="201pt" height="95pt"
 viewBox="0.00 0.00 200.50 95.00" xmlns="http://www.w3.org/2000/svg" xmlns:xlink="http://www.w3.org/1999/xlink">
<g id="graph0" class="graph" transform="scale(1 1) rotate(0) translate(4 91)">
<title>System.Security.Cryptography.RSACryptoServiceProvider</title>
<!-- Node0 -->
<g id="node1" class="node"><title>Node0</title>
<g id="a_node1"><a xlink:title="Performs asymmetric encryption and decryption using the implementation of the T:System....">
<polygon fill="#bfbfbf" stroke="black" points="0,-0.5 0,-30.5 153,-30.5 153,-0.5 0,-0.5"/>
<text text-anchor="start" x="8" y="-18.5" font-family="Helvetica,sans-Serif" font-size="10.00">System.Security.Cryptography.</text>
<text text-anchor="middle" x="76.5" y="-7.5" font-family="Helvetica,sans-Serif" font-size="10.00">RSACryptoServiceProvider</text>
</a>
</g>
</g>
<!-- Node1 -->
<g id="node2" class="node"><title>Node1</title>
<g id="a_node2"><a xlink:href="class_system_1_1_security_1_1_cryptography_1_1_r_s_a.html" target="_top" xlink:title="Represents the base class from which all implementations of the T:System.Security....">
<polygon fill="none" stroke="red" points="7,-67.5 7,-86.5 44,-86.5 44,-67.5 7,-67.5"/>
<text text-anchor="middle" x="25.5" y="-74.5" font-family="Helvetica,sans-Serif" font-size="10.00">RSA</text>
</a>
</g>
</g>
<!-- Node1&#45;&gt;Node0 -->
<g id="edge1" class="edge"><title>Node1&#45;&gt;Node0</title>
<path fill="none" stroke="midnightblue" d="M39.3765,-59.8108C47.2298,-50.6486 56.9544,-39.3032 64.4803,-30.523"/>
<polygon fill="midnightblue" stroke="midnightblue" points="36.6576,-57.6047 32.8071,-67.4751 41.9724,-62.1603 36.6576,-57.6047"/>
</g>
<!-- Node4 -->
<g id="node3" class="node"><title>Node4</title>
<g id="a_node3"><a xlink:href="interface_system_1_1_security_1_1_cryptography_1_1_i_csp_asymmetric_algorithm.html" target="_top" xlink:title="Defines methods that allow an T:System.Security.Cryptography.AsymmetricAlgorithm class to enumerate k...">
<polygon fill="none" stroke="black" points="62.5,-67.5 62.5,-86.5 192.5,-86.5 192.5,-67.5 62.5,-67.5"/>
<text text-anchor="middle" x="127.5" y="-74.5" font-family="Helvetica,sans-Serif" font-size="10.00">ICspAsymmetricAlgorithm</text>
</a>
</g>
</g>
<!-- Node4&#45;&gt;Node0 -->
<g id="edge2" class="edge"><title>Node4&#45;&gt;Node0</title>
<path fill="none" stroke="midnightblue" d="M113.624,-59.8108C105.77,-50.6486 96.0456,-39.3032 88.5197,-30.523"/>
<polygon fill="midnightblue" stroke="midnightblue" points="111.028,-62.1603 120.193,-67.4751 116.342,-57.6047 111.028,-62.1603"/>
</g>
</g>
</svg>
