<?xml version="1.0" encoding="UTF-8" standalone="no"?>
<!DOCTYPE svg PUBLIC "-//W3C//DTD SVG 1.1//EN"
 "http://www.w3.org/Graphics/SVG/1.1/DTD/svg11.dtd">
<!-- Generated by graphviz version 2.38.0 (20140413.2041)
 -->
<!-- Title: System.Reflection.Emit.PropertyBuilder Pages: 1 -->
<svg width="184pt" height="95pt"
 viewBox="0.00 0.00 183.50 95.00" xmlns="http://www.w3.org/2000/svg" xmlns:xlink="http://www.w3.org/1999/xlink">
<g id="graph0" class="graph" transform="scale(1 1) rotate(0) translate(4 91)">
<title>System.Reflection.Emit.PropertyBuilder</title>
<!-- Node0 -->
<g id="node1" class="node"><title>Node0</title>
<g id="a_node1"><a xlink:title="Defines the properties for a type.">
<polygon fill="#bfbfbf" stroke="black" points="2.5,-0.5 2.5,-30.5 161.5,-30.5 161.5,-0.5 2.5,-0.5"/>
<text text-anchor="start" x="10.5" y="-18.5" font-family="Helvetica,sans-Serif" font-size="10.00">System.Reflection.Emit.Property</text>
<text text-anchor="middle" x="82" y="-7.5" font-family="Helvetica,sans-Serif" font-size="10.00">Builder</text>
</a>
</g>
</g>
<!-- Node1 -->
<g id="node2" class="node"><title>Node1</title>
<g id="a_node2"><a xlink:href="class_system_1_1_reflection_1_1_property_info.html" target="_top" xlink:title="Discovers the attributes of a property and provides access to property metadata.">
<polygon fill="none" stroke="red" points="0,-67.5 0,-86.5 68,-86.5 68,-67.5 0,-67.5"/>
<text text-anchor="middle" x="34" y="-74.5" font-family="Helvetica,sans-Serif" font-size="10.00">PropertyInfo</text>
</a>
</g>
</g>
<!-- Node1&#45;&gt;Node0 -->
<g id="edge1" class="edge"><title>Node1&#45;&gt;Node0</title>
<path fill="none" stroke="midnightblue" d="M47.287,-59.5296C54.6381,-50.4173 63.6764,-39.2136 70.6873,-30.523"/>
<polygon fill="midnightblue" stroke="midnightblue" points="44.432,-57.4944 40.8772,-67.4751 49.8802,-61.8896 44.432,-57.4944"/>
</g>
<!-- Node6 -->
<g id="node3" class="node"><title>Node6</title>
<g id="a_node3"><a xlink:href="interface_system_1_1_runtime_1_1_interop_services_1_1___property_builder.html" target="_top" xlink:title="Exposes the T:System.Reflection.Emit.PropertyBuilder class to unmanaged code.">
<polygon fill="none" stroke="black" points="86.5,-67.5 86.5,-86.5 175.5,-86.5 175.5,-67.5 86.5,-67.5"/>
<text text-anchor="middle" x="131" y="-74.5" font-family="Helvetica,sans-Serif" font-size="10.00">_PropertyBuilder</text>
</a>
</g>
</g>
<!-- Node6&#45;&gt;Node0 -->
<g id="edge2" class="edge"><title>Node6&#45;&gt;Node0</title>
<path fill="none" stroke="midnightblue" d="M117.436,-59.5296C109.932,-50.4173 100.705,-39.2136 93.5483,-30.523"/>
<polygon fill="midnightblue" stroke="midnightblue" points="114.921,-61.9808 123.979,-67.4751 120.324,-57.5308 114.921,-61.9808"/>
</g>
</g>
</svg>
