<?xml version="1.0" encoding="UTF-8" standalone="no"?>
<!DOCTYPE svg PUBLIC "-//W3C//DTD SVG 1.1//EN"
 "http://www.w3.org/Graphics/SVG/1.1/DTD/svg11.dtd">
<!-- Generated by graphviz version 2.38.0 (20140413.2041)
 -->
<!-- Title: System.Reflection.Emit.DynamicMethod Pages: 1 -->
<!--zoomable 223 -->
<svg id="main" version="1.1" xmlns="http://www.w3.org/2000/svg" xmlns:xlink="http://www.w3.org/1999/xlink" xml:space="preserve" onload="init(evt)">
<style type="text/css"><![CDATA[
.edge:hover path { stroke: red; }
.edge:hover polygon { stroke: red; fill: red; }
]]></style>
<script type="text/javascript"><![CDATA[
var edges = document.getElementsByTagName('g');
if (edges && edges.length) {
  for (var i=0;i<edges.length;i++) {
    if (edges[i].id.substr(0,4)=='edge') {
      edges[i].setAttribute('class','edge');
    }
  }
}
]]></script>
        <defs>
                <circle id="rim" cx="0" cy="0" r="7"/>
                <circle id="rim2" cx="0" cy="0" r="3.5"/>
                <g id="zoomPlus">
                        <use xlink:href="#rim" fill="#404040">
                                <set attributeName="fill" to="#808080" begin="zoomplus.mouseover" end="zoomplus.mouseout"/>
                        </use>
                        <path d="M-4,0h8M0,-4v8" fill="none" stroke="white" stroke-width="1.5" pointer-events="none"/>
                </g>
                <g id="zoomMin">
                        <use xlink:href="#rim" fill="#404040">
                                <set attributeName="fill" to="#808080" begin="zoomminus.mouseover" end="zoomminus.mouseout"/>
                        </use>
                        <path d="M-4,0h8" fill="none" stroke="white" stroke-width="1.5" pointer-events="none"/>
                </g>
                <g id="dirArrow">
                        <path fill="none" stroke="white" stroke-width="1.5" d="M0,-3.0v7 M-2.5,-0.5L0,-3.0L2.5,-0.5"/>
                </g>
               <g id="resetDef">
                       <use xlink:href="#rim2" fill="#404040">
                               <set attributeName="fill" to="#808080" begin="reset.mouseover" end="reset.mouseout"/>
                       </use>
               </g>
        </defs>

<script type="text/javascript">
var viewWidth = 649;
var viewHeight = 223;
var sectionId = 'dynsection-1';
</script>
<script xlink:href="svgpan.js"/>
<svg id="graph" class="graph">
<g id="viewport">
<title>System.Reflection.Emit.DynamicMethod</title>
<!-- Node8 -->
<g id="node1" class="node"><title>Node8</title>
<g id="a_node1"><a xlink:title="Defines and represents a dynamic method that can be compiled, executed, and discarded....">
<polygon fill="#bfbfbf" stroke="black" points="480,-83 480,-113 641,-113 641,-83 480,-83"/>
<text text-anchor="start" x="488" y="-101" font-family="Helvetica,sans-Serif" font-size="10.00">System.Reflection.Emit.Dynamic</text>
<text text-anchor="middle" x="560.5" y="-90" font-family="Helvetica,sans-Serif" font-size="10.00">Method</text>
</a>
</g>
</g>
<!-- Node9 -->
<g id="node2" class="node"><title>Node9</title>
<g id="a_node2"><a xlink:href="class_system_1_1_reflection_1_1_method_info.html" target="_top" xlink:title="Discovers the attributes of a method and provides access to method metadata.">
<polygon fill="none" stroke="red" points="203.5,-195.5 203.5,-214.5 267.5,-214.5 267.5,-195.5 203.5,-195.5"/>
<text text-anchor="middle" x="235.5" y="-202.5" font-family="Helvetica,sans-Serif" font-size="10.00">MethodInfo</text>
</a>
</g>
</g>
<!-- Node9&#45;&gt;Node8 -->
<g id="edge1" class="edge"><title>Node9&#45;&gt;Node8</title>
<path fill="none" stroke="midnightblue" d="M277.687,-200.749C323.859,-195.006 400.335,-182.528 462,-158 490.81,-146.541 520.713,-126.767 539.679,-113.068"/>
<polygon fill="midnightblue" stroke="midnightblue" points="277.263,-197.275 267.75,-201.939 278.095,-204.225 277.263,-197.275"/>
</g>
<!-- Node16 -->
<g id="node3" class="node"><title>Node16</title>
<g id="a_node3"><a xlink:href="class_system_1_1_type.html" target="_top" xlink:title="Represents type declarations: class types, interface types, array types, value types,...">
<polygon fill="none" stroke="red" points="0,-116.5 0,-135.5 74,-135.5 74,-116.5 0,-116.5"/>
<text text-anchor="middle" x="37" y="-123.5" font-family="Helvetica,sans-Serif" font-size="10.00">System.Type</text>
</a>
</g>
</g>
<!-- Node16&#45;&gt;Node8 -->
<g id="edge2" class="edge"><title>Node16&#45;&gt;Node8</title>
<path fill="none" stroke="#9a32cd" stroke-dasharray="5,2" d="M84.3269,-129.655C86.9217,-129.79 89.4929,-129.907 92,-130 112.43,-130.756 117.563,-130.536 138,-130 282.149,-126.221 318.559,-127.759 462,-113 467.792,-112.404 473.766,-111.702 479.77,-110.932"/>
<polygon fill="#9a32cd" stroke="#9a32cd" points="84.4787,-126.158 74.2883,-129.058 84.0627,-133.146 84.4787,-126.158"/>
<text text-anchor="middle" x="235.5" y="-154" font-family="Helvetica,sans-Serif" font-size="10.00"> ReflectedType</text>
<text text-anchor="middle" x="235.5" y="-143" font-family="Helvetica,sans-Serif" font-size="10.00">DeclaringType</text>
<text text-anchor="middle" x="235.5" y="-132" font-family="Helvetica,sans-Serif" font-size="10.00">ReturnType</text>
</g>
<!-- Node16&#45;&gt;Node16 -->
<g id="edge3" class="edge"><title>Node16&#45;&gt;Node16</title>
<path fill="none" stroke="#9a32cd" stroke-dasharray="5,2" d="M22.6358,-145.766C23.764,-150.497 28.5521,-154 37,-154 50.8633,-154 54.8706,-144.565 49.0221,-135.757"/>
<polygon fill="#9a32cd" stroke="#9a32cd" points="26.1074,-146.292 24.9779,-135.757 19.2915,-144.697 26.1074,-146.292"/>
<text text-anchor="middle" x="37" y="-157" font-family="Helvetica,sans-Serif" font-size="10.00"> EmptyTypes</text>
</g>
<!-- Node19 -->
<g id="node4" class="node"><title>Node19</title>
<g id="a_node4"><a xlink:href="class_system_1_1_reflection_1_1_parameter_info.html" target="_top" xlink:title="Discovers the attributes of a parameter and provides access to parameter metadata.">
<polygon fill="none" stroke="red" points="156,-88.5 156,-107.5 315,-107.5 315,-88.5 156,-88.5"/>
<text text-anchor="middle" x="235.5" y="-95.5" font-family="Helvetica,sans-Serif" font-size="10.00">System.Reflection.ParameterInfo</text>
</a>
</g>
</g>
<!-- Node16&#45;&gt;Node19 -->
<g id="edge5" class="edge"><title>Node16&#45;&gt;Node19</title>
<path fill="none" stroke="#9a32cd" stroke-dasharray="5,2" d="M83.9533,-119.452C108.87,-115.901 140.121,-111.448 167.683,-107.521"/>
<polygon fill="#9a32cd" stroke="#9a32cd" points="83.4474,-115.989 74.0411,-120.864 84.4349,-122.919 83.4474,-115.989"/>
<text text-anchor="middle" x="115" y="-121" font-family="Helvetica,sans-Serif" font-size="10.00"> ClassImpl</text>
</g>
<!-- Node19&#45;&gt;Node8 -->
<g id="edge4" class="edge"><title>Node19&#45;&gt;Node8</title>
<path fill="none" stroke="#9a32cd" stroke-dasharray="5,2" d="M325.256,-98C373.665,-98 433.098,-98 479.984,-98"/>
<polygon fill="#9a32cd" stroke="#9a32cd" points="325.102,-94.5001 315.102,-98 325.102,-101.5 325.102,-94.5001"/>
<text text-anchor="middle" x="397.5" y="-101" font-family="Helvetica,sans-Serif" font-size="10.00"> ReturnParameter</text>
</g>
<!-- Node23 -->
<g id="node5" class="node"><title>Node23</title>
<g id="a_node5"><a xlink:href="interface_system_1_1_reflection_1_1_i_custom_attribute_provider.html" target="_top" xlink:title="Provides custom attributes for reflection objects that support them.">
<polygon fill="none" stroke="black" points="168,-39 168,-69 303,-69 303,-39 168,-39"/>
<text text-anchor="start" x="176" y="-57" font-family="Helvetica,sans-Serif" font-size="10.00">System.Reflection.ICustom</text>
<text text-anchor="middle" x="235.5" y="-46" font-family="Helvetica,sans-Serif" font-size="10.00">AttributeProvider</text>
</a>
</g>
</g>
<!-- Node23&#45;&gt;Node8 -->
<g id="edge6" class="edge"><title>Node23&#45;&gt;Node8</title>
<path fill="none" stroke="#9a32cd" stroke-dasharray="5,2" d="M313.136,-63.3779C356.798,-68.8405 412.506,-76.0113 462,-83 467.851,-83.8261 473.895,-84.702 479.975,-85.5992"/>
<polygon fill="#9a32cd" stroke="#9a32cd" points="313.517,-59.8984 303.161,-62.1334 312.651,-66.8446 313.517,-59.8984"/>
<text text-anchor="middle" x="397.5" y="-86" font-family="Helvetica,sans-Serif" font-size="10.00"> ReturnTypeCustomAttributes</text>
</g>
<!-- Node24 -->
<g id="node6" class="node"><title>Node24</title>
<g id="a_node6"><a xlink:href="class_system_1_1_reflection_1_1_module.html" target="_top" xlink:title="Performs reflection on a module.">
<polygon fill="none" stroke="red" points="170,-0.5 170,-19.5 301,-19.5 301,-0.5 170,-0.5"/>
<text text-anchor="middle" x="235.5" y="-7.5" font-family="Helvetica,sans-Serif" font-size="10.00">System.Reflection.Module</text>
</a>
</g>
</g>
<!-- Node24&#45;&gt;Node8 -->
<g id="edge7" class="edge"><title>Node24&#45;&gt;Node8</title>
<path fill="none" stroke="#9a32cd" stroke-dasharray="5,2" d="M311.457,-18.4742C355.94,-24.7669 413.029,-35.0688 462,-51 487.017,-59.1385 513.831,-72.4319 532.995,-82.8081"/>
<polygon fill="#9a32cd" stroke="#9a32cd" points="311.685,-14.9727 301.301,-17.0759 310.73,-21.9072 311.685,-14.9727"/>
<text text-anchor="middle" x="397.5" y="-54" font-family="Helvetica,sans-Serif" font-size="10.00"> Module</text>
</g>
</g>
</svg>
        <g id="navigator" transform="translate(0 0)" fill="#404254">
                <rect fill="#f2f5e9" fill-opacity="0.5" stroke="#606060" stroke-width=".5" x="0" y="0" width="60" height="60"/>
                <use id="zoomplus" xlink:href="#zoomPlus" x="17" y="9" onmousedown="handleZoom(evt,'in')"/>
                <use id="zoomminus" xlink:href="#zoomMin" x="42" y="9" onmousedown="handleZoom(evt,'out')"/>
                <use id="reset" xlink:href="#resetDef" x="30" y="36" onmousedown="handleReset()"/>
                <g id="arrowUp" xlink:href="#dirArrow" transform="translate(30 24)" onmousedown="handlePan(0,-1)">
                  <use xlink:href="#rim" fill="#404040">
                        <set attributeName="fill" to="#808080" begin="arrowUp.mouseover" end="arrowUp.mouseout"/>
                  </use>
                  <path fill="none" stroke="white" stroke-width="1.5" d="M0,-3.0v7 M-2.5,-0.5L0,-3.0L2.5,-0.5"/>
                </g>
                <g id="arrowRight" xlink:href="#dirArrow" transform="rotate(90) translate(36 -43)" onmousedown="handlePan(1,0)">
                  <use xlink:href="#rim" fill="#404040">
                        <set attributeName="fill" to="#808080" begin="arrowRight.mouseover" end="arrowRight.mouseout"/>
                  </use>
                  <path fill="none" stroke="white" stroke-width="1.5" d="M0,-3.0v7 M-2.5,-0.5L0,-3.0L2.5,-0.5"/>
                </g>
                <g id="arrowDown" xlink:href="#dirArrow" transform="rotate(180) translate(-30 -48)" onmousedown="handlePan(0,1)">
                  <use xlink:href="#rim" fill="#404040">
                        <set attributeName="fill" to="#808080" begin="arrowDown.mouseover" end="arrowDown.mouseout"/>
                  </use>
                  <path fill="none" stroke="white" stroke-width="1.5" d="M0,-3.0v7 M-2.5,-0.5L0,-3.0L2.5,-0.5"/>
                </g>
                <g id="arrowLeft" xlink:href="#dirArrow" transform="rotate(270) translate(-36 17)" onmousedown="handlePan(-1,0)">
                  <use xlink:href="#rim" fill="#404040">
                        <set attributeName="fill" to="#808080" begin="arrowLeft.mouseover" end="arrowLeft.mouseout"/>
                  </use>
                  <path fill="none" stroke="white" stroke-width="1.5" d="M0,-3.0v7 M-2.5,-0.5L0,-3.0L2.5,-0.5"/>
                </g>
        </g>
        <svg viewBox="0 0 15 15" width="100%" height="30px" preserveAspectRatio="xMaxYMin meet">
         <g id="arrow_out" transform="scale(0.3 0.3)">
          <a xlink:href="class_system_1_1_reflection_1_1_emit_1_1_dynamic_method__coll__graph_org.svg" target="_base">
           <rect id="button" ry="5" rx="5" y="6" x="6" height="38" width="38"
                fill="#f2f5e9" fill-opacity="0.5" stroke="#606060" stroke-width="1.0"/>
           <path id="arrow"
             d="M 11.500037,31.436501 C 11.940474,20.09759 22.043105,11.32322 32.158766,21.979434 L 37.068811,17.246167 C 37.068811,17.246167 37.088388,32 37.088388,32 L 22.160133,31.978069 C 22.160133,31.978069 26.997745,27.140456 26.997745,27.140456 C 18.528582,18.264221 13.291696,25.230495 11.500037,31.436501 z"
             style="fill:#404040;"/>
          </a>
         </g>
        </svg>
</svg>
