<?xml version="1.0" encoding="UTF-8" standalone="no"?>
<!DOCTYPE svg PUBLIC "-//W3C//DTD SVG 1.1//EN"
 "http://www.w3.org/Graphics/SVG/1.1/DTD/svg11.dtd">
<!-- Generated by graphviz version 2.38.0 (20140413.2041)
 -->
<!-- Title: System.Collections.Concurrent.ConcurrentStack&lt; T &gt; Pages: 1 -->
<svg width="846pt" height="188pt"
 viewBox="0.00 0.00 846.00 187.79" xmlns="http://www.w3.org/2000/svg" xmlns:xlink="http://www.w3.org/1999/xlink">
<g id="graph0" class="graph" transform="scale(1 1) rotate(0) translate(4 183.79)">
<title>System.Collections.Concurrent.ConcurrentStack&lt; T &gt;</title>
<!-- Node0 -->
<g id="node1" class="node"><title>Node0</title>
<g id="a_node1"><a xlink:title="Represents a thread&#45;safe last in&#45;first out (LIFO) collection.">
<polygon fill="#bfbfbf" stroke="black" points="444,-83 444,-113 599,-113 599,-83 444,-83"/>
<text text-anchor="start" x="452" y="-101" font-family="Helvetica,sans-Serif" font-size="10.00">System.Collections.Concurrent.</text>
<text text-anchor="middle" x="521.5" y="-90" font-family="Helvetica,sans-Serif" font-size="10.00">ConcurrentStack&lt; T &gt;</text>
</a>
</g>
</g>
<!-- Node8 -->
<g id="node7" class="node"><title>Node8</title>
<g id="a_node7"><a xlink:href="class_system_1_1_collections_1_1_concurrent_1_1_concurrent_stack.html" target="_top" xlink:title=" ">
<polygon fill="none" stroke="black" points="683,-83 683,-113 838,-113 838,-83 683,-83"/>
<text text-anchor="start" x="691" y="-101" font-family="Helvetica,sans-Serif" font-size="10.00">System.Collections.Concurrent.</text>
<text text-anchor="middle" x="760.5" y="-90" font-family="Helvetica,sans-Serif" font-size="10.00">ConcurrentStack&lt; object &gt;</text>
</a>
</g>
</g>
<!-- Node0&#45;&gt;Node8 -->
<g id="edge10" class="edge"><title>Node0&#45;&gt;Node8</title>
<path fill="none" stroke="orange" stroke-dasharray="5,2" d="M609.302,-98C633.359,-98 659.298,-98 682.738,-98"/>
<polygon fill="orange" stroke="orange" points="609.12,-94.5001 599.12,-98 609.12,-101.5 609.12,-94.5001"/>
<text text-anchor="middle" x="641" y="-101" font-family="Helvetica,sans-Serif" font-size="10.00"> &lt; object &gt;</text>
</g>
<!-- Node1 -->
<g id="node2" class="node"><title>Node1</title>
<g id="a_node2"><a xlink:href="interface_system_1_1_collections_1_1_concurrent_1_1_i_producer_consumer_collection.html" target="_top" xlink:title="Defines methods to manipulate thread&#45;safe collections intended for producer/consumer usage....">
<polygon fill="none" stroke="black" points="239,-88.5 239,-107.5 407,-107.5 407,-88.5 239,-88.5"/>
<text text-anchor="middle" x="323" y="-95.5" font-family="Helvetica,sans-Serif" font-size="10.00">IProducerConsumerCollection&lt; T &gt;</text>
</a>
</g>
</g>
<!-- Node1&#45;&gt;Node0 -->
<g id="edge1" class="edge"><title>Node1&#45;&gt;Node0</title>
<path fill="none" stroke="midnightblue" d="M417.158,-98C426.148,-98 435.195,-98 443.997,-98"/>
<polygon fill="midnightblue" stroke="midnightblue" points="417.049,-94.5001 407.049,-98 417.049,-101.5 417.049,-94.5001"/>
</g>
<!-- Node2 -->
<g id="node3" class="node"><title>Node2</title>
<g id="a_node3"><a xlink:href="interface_system_1_1_collections_1_1_i_enumerable.html" target="_top" xlink:title=" ">
<polygon fill="none" stroke="red" points="108,-132.5 108,-151.5 202,-151.5 202,-132.5 108,-132.5"/>
<text text-anchor="middle" x="155" y="-139.5" font-family="Helvetica,sans-Serif" font-size="10.00">IEnumerable&lt; T &gt;</text>
</a>
</g>
</g>
<!-- Node2&#45;&gt;Node0 -->
<g id="edge6" class="edge"><title>Node2&#45;&gt;Node0</title>
<path fill="none" stroke="midnightblue" d="M212.518,-137.453C263.471,-133.097 340.4,-125.881 407,-117 418.981,-115.402 431.639,-113.499 443.983,-111.523"/>
<polygon fill="midnightblue" stroke="midnightblue" points="212.038,-133.981 202.369,-138.312 212.628,-140.956 212.038,-133.981"/>
</g>
<!-- Node2&#45;&gt;Node1 -->
<g id="edge2" class="edge"><title>Node2&#45;&gt;Node1</title>
<path fill="none" stroke="midnightblue" d="M201.856,-129.845C228.419,-122.805 261.377,-114.069 286.051,-107.529"/>
<polygon fill="midnightblue" stroke="midnightblue" points="200.789,-126.507 192.02,-132.453 202.583,-133.274 200.789,-126.507"/>
</g>
<!-- Node4 -->
<g id="node4" class="node"><title>Node4</title>
<g id="a_node4"><a xlink:href="interface_system_1_1_collections_1_1_i_enumerable.html" target="_top" xlink:title="Exposes an enumerator, which supports a simple iteration over a non&#45;generic collection....">
<polygon fill="none" stroke="red" points="0,-88.5 0,-107.5 71,-107.5 71,-88.5 0,-88.5"/>
<text text-anchor="middle" x="35.5" y="-95.5" font-family="Helvetica,sans-Serif" font-size="10.00">IEnumerable</text>
</a>
</g>
</g>
<!-- Node4&#45;&gt;Node0 -->
<g id="edge7" class="edge"><title>Node4&#45;&gt;Node0</title>
<path fill="none" stroke="midnightblue" d="M49.8413,-115.376C62.7911,-130.687 83.9717,-151.924 108,-161 243.544,-212.196 419.07,-144.946 489.377,-113.074"/>
<polygon fill="midnightblue" stroke="midnightblue" points="52.5465,-113.155 43.528,-107.595 47.1106,-117.565 52.5465,-113.155"/>
</g>
<!-- Node4&#45;&gt;Node1 -->
<g id="edge3" class="edge"><title>Node4&#45;&gt;Node1</title>
<path fill="none" stroke="midnightblue" d="M81.4357,-98C123.544,-98 187.527,-98 238.923,-98"/>
<polygon fill="midnightblue" stroke="midnightblue" points="81.2225,-94.5001 71.2225,-98 81.2224,-101.5 81.2225,-94.5001"/>
</g>
<!-- Node5 -->
<g id="node5" class="node"><title>Node5</title>
<g id="a_node5"><a xlink:href="interface_system_1_1_collections_1_1_i_collection.html" target="_top" xlink:title="Defines size, enumerators, and synchronization methods for all nongeneric collections.">
<polygon fill="none" stroke="black" points="124,-50.5 124,-69.5 186,-69.5 186,-50.5 124,-50.5"/>
<text text-anchor="middle" x="155" y="-57.5" font-family="Helvetica,sans-Serif" font-size="10.00">ICollection</text>
</a>
</g>
</g>
<!-- Node4&#45;&gt;Node5 -->
<g id="edge5" class="edge"><title>Node4&#45;&gt;Node5</title>
<path fill="none" stroke="midnightblue" d="M75.7092,-85.3196C91.5854,-80.1852 109.61,-74.3559 124.359,-69.5859"/>
<polygon fill="midnightblue" stroke="midnightblue" points="74.588,-82.0036 66.1502,-88.411 76.742,-88.664 74.588,-82.0036"/>
</g>
<!-- Node5&#45;&gt;Node0 -->
<g id="edge8" class="edge"><title>Node5&#45;&gt;Node0</title>
<path fill="none" stroke="midnightblue" d="M196.236,-61.9239C245.9,-64.5567 332.881,-70.0095 407,-79 418.9,-80.4435 431.457,-82.254 443.709,-84.1803"/>
<polygon fill="midnightblue" stroke="midnightblue" points="196.391,-58.4273 186.223,-61.4046 196.028,-65.4179 196.391,-58.4273"/>
</g>
<!-- Node5&#45;&gt;Node1 -->
<g id="edge4" class="edge"><title>Node5&#45;&gt;Node1</title>
<path fill="none" stroke="midnightblue" d="M196.132,-69.1869C221.613,-75.0198 254.523,-82.5534 280.3,-88.4543"/>
<polygon fill="midnightblue" stroke="midnightblue" points="196.59,-65.7013 186.061,-66.8815 195.028,-72.5248 196.59,-65.7013"/>
</g>
<!-- Node6 -->
<g id="node6" class="node"><title>Node6</title>
<g id="a_node6"><a xlink:href="interface_system_1_1_collections_1_1_generic_1_1_i_read_only_collection.html" target="_top" xlink:title=" ">
<polygon fill="none" stroke="red" points="259,-0.5 259,-19.5 387,-19.5 387,-0.5 259,-0.5"/>
<text text-anchor="middle" x="323" y="-7.5" font-family="Helvetica,sans-Serif" font-size="10.00">IReadOnlyCollection&lt; T &gt;</text>
</a>
</g>
</g>
<!-- Node6&#45;&gt;Node0 -->
<g id="edge9" class="edge"><title>Node6&#45;&gt;Node0</title>
<path fill="none" stroke="midnightblue" d="M390.765,-22.0113C402.749,-25.2001 414.936,-29.1492 426,-34 454.854,-46.6505 484.32,-68.2752 502.507,-82.8464"/>
<polygon fill="midnightblue" stroke="midnightblue" points="391.327,-18.5439 380.776,-19.5084 389.626,-25.334 391.327,-18.5439"/>
</g>
</g>
</svg>
