<?xml version="1.0" encoding="UTF-8" standalone="no"?>
<!DOCTYPE svg PUBLIC "-//W3C//DTD SVG 1.1//EN"
 "http://www.w3.org/Graphics/SVG/1.1/DTD/svg11.dtd">
<!-- Generated by graphviz version 2.38.0 (20140413.2041)
 -->
<!-- Title: System.Net.WebHeaderCollection Pages: 1 -->
<svg width="206pt" height="84pt"
 viewBox="0.00 0.00 205.50 84.00" xmlns="http://www.w3.org/2000/svg" xmlns:xlink="http://www.w3.org/1999/xlink">
<g id="graph0" class="graph" transform="scale(1 1) rotate(0) translate(4 80)">
<title>System.Net.WebHeaderCollection</title>
<!-- Node7 -->
<g id="node1" class="node"><title>Node7</title>
<g id="a_node1"><a xlink:title="Contains protocol headers associated with a request or response.">
<polygon fill="#bfbfbf" stroke="black" points="26.5,-0.5 26.5,-19.5 191.5,-19.5 191.5,-0.5 26.5,-0.5"/>
<text text-anchor="middle" x="109" y="-7.5" font-family="Helvetica,sans-Serif" font-size="10.00">System.Net.WebHeaderCollection</text>
</a>
</g>
</g>
<!-- Node8 -->
<g id="node2" class="node"><title>Node8</title>
<g id="a_node2"><a xlink:href="class_system_1_1_collections_1_1_specialized_1_1_name_value_collection.html" target="_top" xlink:title="Represents a collection of associated T:System.String keys and T:System.String values that can be acc...">
<polygon fill="none" stroke="red" points="0,-56.5 0,-75.5 110,-75.5 110,-56.5 0,-56.5"/>
<text text-anchor="middle" x="55" y="-63.5" font-family="Helvetica,sans-Serif" font-size="10.00">NameValueCollection</text>
</a>
</g>
</g>
<!-- Node8&#45;&gt;Node7 -->
<g id="edge1" class="edge"><title>Node8&#45;&gt;Node7</title>
<path fill="none" stroke="midnightblue" d="M70.9976,-49.0024C80.5671,-39.4329 92.3611,-27.6389 100.249,-19.7511"/>
<polygon fill="midnightblue" stroke="midnightblue" points="68.5132,-46.537 63.917,-56.083 73.463,-51.4868 68.5132,-46.537"/>
</g>
<!-- Node12 -->
<g id="node3" class="node"><title>Node12</title>
<g id="a_node3"><a xlink:href="interface_system_1_1_runtime_1_1_serialization_1_1_i_serializable.html" target="_top" xlink:title="Allows an object to control its own serialization and deserialization.">
<polygon fill="none" stroke="black" points="128.5,-56.5 128.5,-75.5 197.5,-75.5 197.5,-56.5 128.5,-56.5"/>
<text text-anchor="middle" x="163" y="-63.5" font-family="Helvetica,sans-Serif" font-size="10.00">ISerializable</text>
</a>
</g>
</g>
<!-- Node12&#45;&gt;Node7 -->
<g id="edge2" class="edge"><title>Node12&#45;&gt;Node7</title>
<path fill="none" stroke="midnightblue" d="M147.002,-49.0024C137.433,-39.4329 125.639,-27.6389 117.751,-19.7511"/>
<polygon fill="midnightblue" stroke="midnightblue" points="144.537,-51.4868 154.083,-56.083 149.487,-46.537 144.537,-51.4868"/>
</g>
</g>
</svg>
