<?xml version="1.0" encoding="UTF-8" standalone="no"?>
<!DOCTYPE svg PUBLIC "-//W3C//DTD SVG 1.1//EN"
 "http://www.w3.org/Graphics/SVG/1.1/DTD/svg11.dtd">
<!-- Generated by graphviz version 2.38.0 (20140413.2041)
 -->
<!-- Title: System.ComponentModel.MarshalByValueComponent Pages: 1 -->
<svg width="229pt" height="151pt"
 viewBox="0.00 0.00 229.00 151.00" xmlns="http://www.w3.org/2000/svg" xmlns:xlink="http://www.w3.org/1999/xlink">
<g id="graph0" class="graph" transform="scale(1 1) rotate(0) translate(4 147)">
<title>System.ComponentModel.MarshalByValueComponent</title>
<!-- Node4 -->
<g id="node1" class="node"><title>Node4</title>
<g id="a_node1"><a xlink:title="Implements T:System.ComponentModel.IComponent and provides the base implementation for remotable comp...">
<polygon fill="#bfbfbf" stroke="black" points="0,-0.5 0,-30.5 167,-30.5 167,-0.5 0,-0.5"/>
<text text-anchor="start" x="8" y="-18.5" font-family="Helvetica,sans-Serif" font-size="10.00">System.ComponentModel.Marshal</text>
<text text-anchor="middle" x="83.5" y="-7.5" font-family="Helvetica,sans-Serif" font-size="10.00">ByValueComponent</text>
</a>
</g>
</g>
<!-- Node5 -->
<g id="node2" class="node"><title>Node5</title>
<g id="a_node2"><a xlink:href="interface_system_1_1_component_model_1_1_i_component.html" target="_top" xlink:title="Provides functionality required by all components.">
<polygon fill="none" stroke="black" points="49.5,-67.5 49.5,-86.5 117.5,-86.5 117.5,-67.5 49.5,-67.5"/>
<text text-anchor="middle" x="83.5" y="-74.5" font-family="Helvetica,sans-Serif" font-size="10.00">IComponent</text>
</a>
</g>
</g>
<!-- Node5&#45;&gt;Node4 -->
<g id="edge1" class="edge"><title>Node5&#45;&gt;Node4</title>
<path fill="none" stroke="midnightblue" d="M83.5,-57.2349C83.5,-48.5864 83.5,-38.4969 83.5,-30.523"/>
<polygon fill="midnightblue" stroke="midnightblue" points="80.0001,-57.4751 83.5,-67.4751 87.0001,-57.4751 80.0001,-57.4751"/>
</g>
<!-- Node6 -->
<g id="node3" class="node"><title>Node6</title>
<g id="a_node3"><a xlink:href="interface_system_1_1_i_disposable.html" target="_top" xlink:title="Provides a mechanism for releasing unmanaged resources.To browse the .NET Framework source code for t...">
<polygon fill="none" stroke="black" points="19,-123.5 19,-142.5 86,-142.5 86,-123.5 19,-123.5"/>
<text text-anchor="middle" x="52.5" y="-130.5" font-family="Helvetica,sans-Serif" font-size="10.00">IDisposable</text>
</a>
</g>
</g>
<!-- Node6&#45;&gt;Node4 -->
<g id="edge3" class="edge"><title>Node6&#45;&gt;Node4</title>
<path fill="none" stroke="midnightblue" d="M44.1353,-113.917C39.1811,-100.627 34.8702,-82.2955 40.5,-67 45.7502,-52.7356 57.0185,-39.755 66.7029,-30.5267"/>
<polygon fill="midnightblue" stroke="midnightblue" points="40.9867,-115.46 48.0687,-123.34 47.4466,-112.764 40.9867,-115.46"/>
</g>
<!-- Node6&#45;&gt;Node5 -->
<g id="edge2" class="edge"><title>Node6&#45;&gt;Node5</title>
<path fill="none" stroke="midnightblue" d="M62.6756,-114.275C67.9739,-105.045 74.217,-94.1703 78.4762,-86.7511"/>
<polygon fill="midnightblue" stroke="midnightblue" points="59.5624,-112.668 57.619,-123.083 65.6331,-116.153 59.5624,-112.668"/>
</g>
<!-- Node7 -->
<g id="node4" class="node"><title>Node7</title>
<g id="a_node4"><a xlink:href="interface_system_1_1_i_service_provider.html" target="_top" xlink:title="Defines a mechanism for retrieving a service object; that is, an object that provides custom support ...">
<polygon fill="none" stroke="black" points="136,-67.5 136,-86.5 221,-86.5 221,-67.5 136,-67.5"/>
<text text-anchor="middle" x="178.5" y="-74.5" font-family="Helvetica,sans-Serif" font-size="10.00">IServiceProvider</text>
</a>
</g>
</g>
<!-- Node7&#45;&gt;Node4 -->
<g id="edge4" class="edge"><title>Node7&#45;&gt;Node4</title>
<path fill="none" stroke="midnightblue" d="M156.16,-62.0084C141.008,-52.518 121.053,-40.02 105.89,-30.523"/>
<polygon fill="midnightblue" stroke="midnightblue" points="154.556,-65.1333 164.889,-67.4751 158.272,-59.2008 154.556,-65.1333"/>
</g>
</g>
</svg>
