<?xml version="1.0" encoding="UTF-8" standalone="no"?>
<!DOCTYPE svg PUBLIC "-//W3C//DTD SVG 1.1//EN"
 "http://www.w3.org/Graphics/SVG/1.1/DTD/svg11.dtd">
<!-- Generated by graphviz version 2.38.0 (20140413.2041)
 -->
<!-- Title: System.Reflection.Emit.LocalBuilder Pages: 1 -->
<svg width="192pt" height="95pt"
 viewBox="0.00 0.00 191.50 95.00" xmlns="http://www.w3.org/2000/svg" xmlns:xlink="http://www.w3.org/1999/xlink">
<g id="graph0" class="graph" transform="scale(1 1) rotate(0) translate(4 91)">
<title>System.Reflection.Emit.LocalBuilder</title>
<!-- Node0 -->
<g id="node1" class="node"><title>Node0</title>
<g id="a_node1"><a xlink:title="Represents a local variable within a method or constructor.">
<polygon fill="#bfbfbf" stroke="black" points="22,-0.5 22,-30.5 168,-30.5 168,-0.5 22,-0.5"/>
<text text-anchor="start" x="30" y="-18.5" font-family="Helvetica,sans-Serif" font-size="10.00">System.Reflection.Emit.Local</text>
<text text-anchor="middle" x="95" y="-7.5" font-family="Helvetica,sans-Serif" font-size="10.00">Builder</text>
</a>
</g>
</g>
<!-- Node1 -->
<g id="node2" class="node"><title>Node1</title>
<g id="a_node2"><a xlink:href="class_system_1_1_reflection_1_1_local_variable_info.html" target="_top" xlink:title="Discovers the attributes of a local variable and provides access to local variable metadata.">
<polygon fill="none" stroke="black" points="0,-67.5 0,-86.5 90,-86.5 90,-67.5 0,-67.5"/>
<text text-anchor="middle" x="45" y="-74.5" font-family="Helvetica,sans-Serif" font-size="10.00">LocalVariableInfo</text>
</a>
</g>
</g>
<!-- Node1&#45;&gt;Node0 -->
<g id="edge1" class="edge"><title>Node1&#45;&gt;Node0</title>
<path fill="none" stroke="midnightblue" d="M58.6044,-59.8108C66.3037,-50.6486 75.8376,-39.3032 83.216,-30.523"/>
<polygon fill="midnightblue" stroke="midnightblue" points="55.9177,-57.5676 52.1638,-67.4751 61.2768,-62.071 55.9177,-57.5676"/>
</g>
<!-- Node2 -->
<g id="node3" class="node"><title>Node2</title>
<g id="a_node3"><a xlink:href="interface_system_1_1_runtime_1_1_interop_services_1_1___local_builder.html" target="_top" xlink:title="Exposes the T:System.Reflection.Emit.LocalBuilder class to unmanaged code.">
<polygon fill="none" stroke="black" points="108.5,-67.5 108.5,-86.5 183.5,-86.5 183.5,-67.5 108.5,-67.5"/>
<text text-anchor="middle" x="146" y="-74.5" font-family="Helvetica,sans-Serif" font-size="10.00">_LocalBuilder</text>
</a>
</g>
</g>
<!-- Node2&#45;&gt;Node0 -->
<g id="edge2" class="edge"><title>Node2&#45;&gt;Node0</title>
<path fill="none" stroke="midnightblue" d="M132.124,-59.8108C124.27,-50.6486 114.546,-39.3032 107.02,-30.523"/>
<polygon fill="midnightblue" stroke="midnightblue" points="129.528,-62.1603 138.693,-67.4751 134.842,-57.6047 129.528,-62.1603"/>
</g>
</g>
</svg>
