<?xml version="1.0" encoding="UTF-8" standalone="no"?>
<!DOCTYPE svg PUBLIC "-//W3C//DTD SVG 1.1//EN"
 "http://www.w3.org/Graphics/SVG/1.1/DTD/svg11.dtd">
<!-- Generated by graphviz version 2.38.0 (20140413.2041)
 -->
<!-- Title: System.ApplicationException Pages: 1 -->
<svg width="434pt" height="235pt"
 viewBox="0.00 0.00 434.00 235.00" xmlns="http://www.w3.org/2000/svg" xmlns:xlink="http://www.w3.org/1999/xlink">
<g id="graph0" class="graph" transform="scale(1 1) rotate(0) translate(4 231)">
<title>System.ApplicationException</title>
<!-- Node0 -->
<g id="node1" class="node"><title>Node0</title>
<g id="a_node1"><a xlink:title="Serves as the base class for application&#45;defined exceptions.">
<polygon fill="#bfbfbf" stroke="black" points="96,-104 96,-123 241,-123 241,-104 96,-104"/>
<text text-anchor="middle" x="168.5" y="-111" font-family="Helvetica,sans-Serif" font-size="10.00">System.ApplicationException</text>
</a>
</g>
</g>
<!-- Node4 -->
<g id="node3" class="node"><title>Node4</title>
<g id="a_node3"><a xlink:href="class_system_1_1_reflection_1_1_invalid_filter_criteria_exception.html" target="_top" xlink:title="The exception that is thrown in M:System.Type.FindMembers(System.Reflection.MemberTypes,...">
<polygon fill="none" stroke="black" points="289,-196.5 289,-226.5 414,-226.5 414,-196.5 289,-196.5"/>
<text text-anchor="start" x="297" y="-214.5" font-family="Helvetica,sans-Serif" font-size="10.00">System.Reflection.Invalid</text>
<text text-anchor="middle" x="351.5" y="-203.5" font-family="Helvetica,sans-Serif" font-size="10.00">FilterCriteriaException</text>
</a>
</g>
</g>
<!-- Node0&#45;&gt;Node4 -->
<g id="edge2" class="edge"><title>Node0&#45;&gt;Node4</title>
<path fill="none" stroke="midnightblue" d="M189.077,-129.561C209.842,-145.957 244.123,-171.242 277,-187.5 283.618,-190.773 290.785,-193.747 297.959,-196.4"/>
<polygon fill="midnightblue" stroke="midnightblue" points="191.043,-126.651 181.05,-123.131 186.666,-132.115 191.043,-126.651"/>
</g>
<!-- Node5 -->
<g id="node4" class="node"><title>Node5</title>
<g id="a_node4"><a xlink:href="class_system_1_1_reflection_1_1_target_exception.html" target="_top" xlink:title="Represents the exception that is thrown when an attempt is made to invoke an invalid target.">
<polygon fill="none" stroke="black" points="288.5,-147.5 288.5,-177.5 414.5,-177.5 414.5,-147.5 288.5,-147.5"/>
<text text-anchor="start" x="296.5" y="-165.5" font-family="Helvetica,sans-Serif" font-size="10.00">System.Reflection.Target</text>
<text text-anchor="middle" x="351.5" y="-154.5" font-family="Helvetica,sans-Serif" font-size="10.00">Exception</text>
</a>
</g>
</g>
<!-- Node0&#45;&gt;Node5 -->
<g id="edge3" class="edge"><title>Node0&#45;&gt;Node5</title>
<path fill="none" stroke="midnightblue" d="M214.527,-125.69C238.874,-132.281 269.154,-140.478 294.955,-147.463"/>
<polygon fill="midnightblue" stroke="midnightblue" points="215.395,-122.299 204.828,-123.064 213.566,-129.056 215.395,-122.299"/>
</g>
<!-- Node6 -->
<g id="node5" class="node"><title>Node6</title>
<g id="a_node5"><a xlink:href="class_system_1_1_reflection_1_1_target_invocation_exception.html" target="_top" xlink:title="The exception that is thrown by methods invoked through reflection. This class cannot be inherited.">
<polygon fill="none" stroke="black" points="288.5,-98.5 288.5,-128.5 414.5,-128.5 414.5,-98.5 288.5,-98.5"/>
<text text-anchor="start" x="296.5" y="-116.5" font-family="Helvetica,sans-Serif" font-size="10.00">System.Reflection.Target</text>
<text text-anchor="middle" x="351.5" y="-105.5" font-family="Helvetica,sans-Serif" font-size="10.00">InvocationException</text>
</a>
</g>
</g>
<!-- Node0&#45;&gt;Node6 -->
<g id="edge4" class="edge"><title>Node0&#45;&gt;Node6</title>
<path fill="none" stroke="midnightblue" d="M251.374,-113.5C263.767,-113.5 276.378,-113.5 288.265,-113.5"/>
<polygon fill="midnightblue" stroke="midnightblue" points="251.036,-110 241.036,-113.5 251.036,-117 251.036,-110"/>
</g>
<!-- Node7 -->
<g id="node6" class="node"><title>Node7</title>
<g id="a_node6"><a xlink:href="class_system_1_1_reflection_1_1_target_parameter_count_exception.html" target="_top" xlink:title="The exception that is thrown when the number of parameters for an invocation does not match the numbe...">
<polygon fill="none" stroke="black" points="286,-49.5 286,-79.5 417,-79.5 417,-49.5 286,-49.5"/>
<text text-anchor="start" x="294" y="-67.5" font-family="Helvetica,sans-Serif" font-size="10.00">System.Reflection.Target</text>
<text text-anchor="middle" x="351.5" y="-56.5" font-family="Helvetica,sans-Serif" font-size="10.00">ParameterCountException</text>
</a>
</g>
</g>
<!-- Node0&#45;&gt;Node7 -->
<g id="edge5" class="edge"><title>Node0&#45;&gt;Node7</title>
<path fill="none" stroke="midnightblue" d="M214.527,-101.31C238.874,-94.7192 269.154,-86.5218 294.955,-79.537"/>
<polygon fill="midnightblue" stroke="midnightblue" points="213.566,-97.9444 204.828,-103.936 215.395,-104.701 213.566,-97.9444"/>
</g>
<!-- Node8 -->
<g id="node7" class="node"><title>Node8</title>
<g id="a_node7"><a xlink:href="class_system_1_1_threading_1_1_wait_handle_cannot_be_opened_exception.html" target="_top" xlink:title="The exception that is thrown when an attempt is made to open a system mutex, semaphore,...">
<polygon fill="none" stroke="black" points="277,-0.5 277,-30.5 426,-30.5 426,-0.5 277,-0.5"/>
<text text-anchor="start" x="285" y="-18.5" font-family="Helvetica,sans-Serif" font-size="10.00">System.Threading.WaitHandle</text>
<text text-anchor="middle" x="351.5" y="-7.5" font-family="Helvetica,sans-Serif" font-size="10.00">CannotBeOpenedException</text>
</a>
</g>
</g>
<!-- Node0&#45;&gt;Node8 -->
<g id="edge6" class="edge"><title>Node0&#45;&gt;Node8</title>
<path fill="none" stroke="midnightblue" d="M189.077,-97.4386C209.842,-81.043 244.123,-55.7579 277,-39.5 283.618,-36.2274 290.785,-33.2531 297.959,-30.6002"/>
<polygon fill="midnightblue" stroke="midnightblue" points="186.666,-94.8854 181.05,-103.869 191.043,-100.349 186.666,-94.8854"/>
</g>
<!-- Node1 -->
<g id="node2" class="node"><title>Node1</title>
<g id="a_node2"><a xlink:href="class_system_1_1_exception.html" target="_top" xlink:title="Represents errors that occur during application execution.To browse the .NET Framework source code fo...">
<polygon fill="none" stroke="red" points="0,-104 0,-123 60,-123 60,-104 0,-104"/>
<text text-anchor="middle" x="30" y="-111" font-family="Helvetica,sans-Serif" font-size="10.00">Exception</text>
</a>
</g>
</g>
<!-- Node1&#45;&gt;Node0 -->
<g id="edge1" class="edge"><title>Node1&#45;&gt;Node0</title>
<path fill="none" stroke="midnightblue" d="M70.4233,-113.5C78.4605,-113.5 87.1511,-113.5 95.9153,-113.5"/>
<polygon fill="midnightblue" stroke="midnightblue" points="70.2827,-110 60.2827,-113.5 70.2826,-117 70.2827,-110"/>
</g>
</g>
</svg>
