<?xml version="1.0" encoding="UTF-8" standalone="no"?>
<!DOCTYPE svg PUBLIC "-//W3C//DTD SVG 1.1//EN"
 "http://www.w3.org/Graphics/SVG/1.1/DTD/svg11.dtd">
<!-- Generated by graphviz version 2.38.0 (20140413.2041)
 -->
<!-- Title: System.Collections.Concurrent.ConcurrentStack&lt; T &gt; Pages: 1 -->
<svg width="1163pt" height="228pt"
 viewBox="0.00 0.00 1163.00 227.72" xmlns="http://www.w3.org/2000/svg" xmlns:xlink="http://www.w3.org/1999/xlink">
<g id="graph0" class="graph" transform="scale(1 1) rotate(0) translate(4 223.721)">
<title>System.Collections.Concurrent.ConcurrentStack&lt; T &gt;</title>
<!-- Node0 -->
<g id="node1" class="node"><title>Node0</title>
<g id="a_node1"><a xlink:title="Represents a thread&#45;safe last in&#45;first out (LIFO) collection.">
<polygon fill="#bfbfbf" stroke="black" points="761,-71 761,-101 916,-101 916,-71 761,-71"/>
<text text-anchor="start" x="769" y="-89" font-family="Helvetica,sans-Serif" font-size="10.00">System.Collections.Concurrent.</text>
<text text-anchor="middle" x="838.5" y="-78" font-family="Helvetica,sans-Serif" font-size="10.00">ConcurrentStack&lt; T &gt;</text>
</a>
</g>
</g>
<!-- Node8 -->
<g id="node9" class="node"><title>Node8</title>
<g id="a_node9"><a xlink:href="class_system_1_1_collections_1_1_concurrent_1_1_concurrent_stack.html" target="_top" xlink:title=" ">
<polygon fill="none" stroke="black" points="1000,-71 1000,-101 1155,-101 1155,-71 1000,-71"/>
<text text-anchor="start" x="1008" y="-89" font-family="Helvetica,sans-Serif" font-size="10.00">System.Collections.Concurrent.</text>
<text text-anchor="middle" x="1077.5" y="-78" font-family="Helvetica,sans-Serif" font-size="10.00">ConcurrentStack&lt; object &gt;</text>
</a>
</g>
</g>
<!-- Node0&#45;&gt;Node8 -->
<g id="edge14" class="edge"><title>Node0&#45;&gt;Node8</title>
<path fill="none" stroke="orange" stroke-dasharray="5,2" d="M926.302,-86C950.359,-86 976.298,-86 999.738,-86"/>
<polygon fill="orange" stroke="orange" points="926.12,-82.5001 916.12,-86 926.12,-89.5001 926.12,-82.5001"/>
<text text-anchor="middle" x="958" y="-89" font-family="Helvetica,sans-Serif" font-size="10.00"> &lt; object &gt;</text>
</g>
<!-- Node1 -->
<g id="node2" class="node"><title>Node1</title>
<g id="a_node2"><a xlink:href="interface_system_1_1_collections_1_1_concurrent_1_1_i_producer_consumer_collection.html" target="_top" xlink:title="Defines methods to manipulate thread&#45;safe collections intended for producer/consumer usage....">
<polygon fill="none" stroke="black" points="556,-38.5 556,-57.5 724,-57.5 724,-38.5 556,-38.5"/>
<text text-anchor="middle" x="640" y="-45.5" font-family="Helvetica,sans-Serif" font-size="10.00">IProducerConsumerCollection&lt; T &gt;</text>
</a>
</g>
</g>
<!-- Node1&#45;&gt;Node0 -->
<g id="edge1" class="edge"><title>Node1&#45;&gt;Node0</title>
<path fill="none" stroke="midnightblue" d="M700.367,-59.4807C719.439,-63.1688 740.84,-67.3076 760.963,-71.199"/>
<polygon fill="midnightblue" stroke="midnightblue" points="700.814,-56.0024 690.332,-57.54 699.485,-62.875 700.814,-56.0024"/>
</g>
<!-- Node2 -->
<g id="node3" class="node"><title>Node2</title>
<g id="a_node3"><a xlink:href="interface_system_1_1_collections_1_1_i_enumerable.html" target="_top" xlink:title=" ">
<polygon fill="none" stroke="black" points="221,-163.5 221,-182.5 315,-182.5 315,-163.5 221,-163.5"/>
<text text-anchor="middle" x="268" y="-170.5" font-family="Helvetica,sans-Serif" font-size="10.00">IEnumerable&lt; T &gt;</text>
</a>
</g>
</g>
<!-- Node2&#45;&gt;Node0 -->
<g id="edge7" class="edge"><title>Node2&#45;&gt;Node0</title>
<path fill="none" stroke="midnightblue" d="M298.825,-186.626C314.331,-192.971 333.801,-199.812 352,-203 515.746,-231.685 569.909,-226.383 724,-164 761.897,-148.657 799.808,-119.009 820.805,-101.013"/>
<polygon fill="midnightblue" stroke="midnightblue" points="299.834,-183.252 289.262,-182.571 297.102,-189.697 299.834,-183.252"/>
</g>
<!-- Node2&#45;&gt;Node1 -->
<g id="edge2" class="edge"><title>Node2&#45;&gt;Node1</title>
<path fill="none" stroke="midnightblue" d="M304.442,-159.95C319.127,-154.605 336.353,-148.416 352,-143 445.492,-110.637 556.908,-74.4267 609.162,-57.5812"/>
<polygon fill="midnightblue" stroke="midnightblue" points="302.926,-156.777 294.733,-163.495 305.327,-163.353 302.926,-156.777"/>
</g>
<!-- Node7 -->
<g id="node8" class="node"><title>Node7</title>
<g id="a_node8"><a xlink:href="interface_system_1_1_collections_1_1_generic_1_1_i_read_only_collection.html" target="_top" xlink:title="Represents a strongly&#45;typed, read&#45;only collection of elements.">
<polygon fill="none" stroke="black" points="352,-152.5 352,-193.5 493,-193.5 493,-152.5 352,-152.5"/>
<text text-anchor="start" x="360" y="-181.5" font-family="Helvetica,sans-Serif" font-size="10.00">System.Collections.Generic.</text>
<text text-anchor="start" x="360" y="-170.5" font-family="Helvetica,sans-Serif" font-size="10.00">IReadOnlyCollection&lt; out</text>
<text text-anchor="middle" x="422.5" y="-159.5" font-family="Helvetica,sans-Serif" font-size="10.00"> out T &gt;</text>
</a>
</g>
</g>
<!-- Node2&#45;&gt;Node7 -->
<g id="edge12" class="edge"><title>Node2&#45;&gt;Node7</title>
<path fill="none" stroke="midnightblue" d="M325.447,-173C334.047,-173 343.008,-173 351.85,-173"/>
<polygon fill="midnightblue" stroke="midnightblue" points="325.169,-169.5 315.169,-173 325.169,-176.5 325.169,-169.5"/>
</g>
<!-- Node3 -->
<g id="node4" class="node"><title>Node3</title>
<g id="a_node4"><a xlink:href="interface_system_1_1_collections_1_1_i_enumerable.html" target="_top" xlink:title="Exposes an enumerator, which supports a simple iteration over a non&#45;generic collection....">
<polygon fill="none" stroke="black" points="0,-163.5 0,-182.5 158,-182.5 158,-163.5 0,-163.5"/>
<text text-anchor="middle" x="79" y="-170.5" font-family="Helvetica,sans-Serif" font-size="10.00">System.Collections.IEnumerable</text>
</a>
</g>
</g>
<!-- Node3&#45;&gt;Node2 -->
<g id="edge3" class="edge"><title>Node3&#45;&gt;Node2</title>
<path fill="none" stroke="orange" stroke-dasharray="5,2" d="M168.276,-173C186.456,-173 204.899,-173 220.847,-173"/>
<polygon fill="orange" stroke="orange" points="168.221,-169.5 158.221,-173 168.221,-176.5 168.221,-169.5"/>
<text text-anchor="middle" x="189.5" y="-176" font-family="Helvetica,sans-Serif" font-size="10.00"> &lt; T &gt;</text>
</g>
<!-- Node4 -->
<g id="node5" class="node"><title>Node4</title>
<g id="a_node5"><a xlink:href="interface_system_1_1_collections_1_1_i_enumerable.html" target="_top" xlink:title="Exposes an enumerator, which supports a simple iteration over a non&#45;generic collection....">
<polygon fill="none" stroke="black" points="232.5,-57.5 232.5,-76.5 303.5,-76.5 303.5,-57.5 232.5,-57.5"/>
<text text-anchor="middle" x="268" y="-64.5" font-family="Helvetica,sans-Serif" font-size="10.00">IEnumerable</text>
</a>
</g>
</g>
<!-- Node4&#45;&gt;Node0 -->
<g id="edge8" class="edge"><title>Node4&#45;&gt;Node0</title>
<path fill="none" stroke="midnightblue" d="M313.812,-69.9573C326.181,-70.7033 339.606,-71.4481 352,-72 496.471,-78.433 665.264,-82.5299 760.953,-84.5336"/>
<polygon fill="midnightblue" stroke="midnightblue" points="313.913,-66.457 303.717,-69.3346 313.482,-73.4438 313.913,-66.457"/>
</g>
<!-- Node4&#45;&gt;Node1 -->
<g id="edge4" class="edge"><title>Node4&#45;&gt;Node1</title>
<path fill="none" stroke="midnightblue" d="M314.073,-64.6855C373.977,-61.6093 480.953,-56.1159 555.738,-52.2756"/>
<polygon fill="midnightblue" stroke="midnightblue" points="313.616,-61.2042 303.809,-65.2125 313.975,-68.195 313.616,-61.2042"/>
</g>
<!-- Node5 -->
<g id="node6" class="node"><title>Node5</title>
<g id="a_node6"><a xlink:href="interface_system_1_1_collections_1_1_i_collection.html" target="_top" xlink:title="Defines size, enumerators, and synchronization methods for all nongeneric collections.">
<polygon fill="none" stroke="black" points="391.5,-0.5 391.5,-19.5 453.5,-19.5 453.5,-0.5 391.5,-0.5"/>
<text text-anchor="middle" x="422.5" y="-7.5" font-family="Helvetica,sans-Serif" font-size="10.00">ICollection</text>
</a>
</g>
</g>
<!-- Node4&#45;&gt;Node5 -->
<g id="edge6" class="edge"><title>Node4&#45;&gt;Node5</title>
<path fill="none" stroke="midnightblue" d="M294.187,-52.4468C305.749,-46.1782 319.799,-39.1269 333,-34 351.995,-26.6229 374.12,-20.6229 391.496,-16.4672"/>
<polygon fill="midnightblue" stroke="midnightblue" points="292.179,-49.5578 285.132,-57.469 295.575,-55.6792 292.179,-49.5578"/>
</g>
<!-- Node4&#45;&gt;Node7 -->
<g id="edge13" class="edge"><title>Node4&#45;&gt;Node7</title>
<path fill="none" stroke="midnightblue" d="M291.054,-82.329C317.572,-100.761 362.193,-131.777 391.744,-152.317"/>
<polygon fill="midnightblue" stroke="midnightblue" points="293.011,-79.4273 282.802,-76.5937 289.016,-85.1752 293.011,-79.4273"/>
</g>
<!-- Node5&#45;&gt;Node0 -->
<g id="edge9" class="edge"><title>Node5&#45;&gt;Node0</title>
<path fill="none" stroke="midnightblue" d="M463.859,-7.50311C522.33,-5.00932 633.507,-4.51213 724,-29 757.204,-37.9852 792.087,-57.1859 814.274,-70.8155"/>
<polygon fill="midnightblue" stroke="midnightblue" points="463.396,-4.0209 453.571,-7.98641 463.724,-11.0132 463.396,-4.0209"/>
</g>
<!-- Node5&#45;&gt;Node1 -->
<g id="edge5" class="edge"><title>Node5&#45;&gt;Node1</title>
<path fill="none" stroke="midnightblue" d="M464.022,-17.1455C498.231,-23.1776 547.496,-31.8646 585.041,-38.4851"/>
<polygon fill="midnightblue" stroke="midnightblue" points="464.375,-13.6537 453.919,-15.3639 463.159,-20.5473 464.375,-13.6537"/>
</g>
<!-- Node6 -->
<g id="node7" class="node"><title>Node6</title>
<g id="a_node7"><a xlink:href="interface_system_1_1_collections_1_1_generic_1_1_i_read_only_collection.html" target="_top" xlink:title=" ">
<polygon fill="none" stroke="black" points="576,-135.5 576,-154.5 704,-154.5 704,-135.5 576,-135.5"/>
<text text-anchor="middle" x="640" y="-142.5" font-family="Helvetica,sans-Serif" font-size="10.00">IReadOnlyCollection&lt; T &gt;</text>
</a>
</g>
</g>
<!-- Node6&#45;&gt;Node0 -->
<g id="edge10" class="edge"><title>Node6&#45;&gt;Node0</title>
<path fill="none" stroke="midnightblue" d="M682.932,-132.41C713.524,-123.224 755.114,-110.737 787.447,-101.029"/>
<polygon fill="midnightblue" stroke="midnightblue" points="681.58,-129.161 673.008,-135.389 683.593,-135.866 681.58,-129.161"/>
</g>
<!-- Node7&#45;&gt;Node6 -->
<g id="edge11" class="edge"><title>Node7&#45;&gt;Node6</title>
<path fill="none" stroke="orange" stroke-dasharray="5,2" d="M503.281,-162.634C527.192,-159.527 553.077,-156.164 575.767,-153.216"/>
<polygon fill="orange" stroke="orange" points="502.635,-159.188 493.169,-163.948 503.537,-166.13 502.635,-159.188"/>
<text text-anchor="middle" x="524.5" y="-164" font-family="Helvetica,sans-Serif" font-size="10.00"> &lt; T &gt;</text>
</g>
</g>
</svg>
