<?xml version="1.0" encoding="UTF-8" standalone="no"?>
<!DOCTYPE svg PUBLIC "-//W3C//DTD SVG 1.1//EN"
 "http://www.w3.org/Graphics/SVG/1.1/DTD/svg11.dtd">
<!-- Generated by graphviz version 2.38.0 (20140413.2041)
 -->
<!-- Title: System.ComponentModel.DesignOnlyAttribute Pages: 1 -->
<svg width="219pt" height="98pt"
 viewBox="0.00 0.00 219.00 98.00" xmlns="http://www.w3.org/2000/svg" xmlns:xlink="http://www.w3.org/1999/xlink">
<g id="graph0" class="graph" transform="scale(1 1) rotate(0) translate(4 94)">
<title>System.ComponentModel.DesignOnlyAttribute</title>
<!-- Node3 -->
<g id="node1" class="node"><title>Node3</title>
<g id="a_node1"><a xlink:title="Specifies whether a property can only be set at design time.">
<polygon fill="#bfbfbf" stroke="black" points="0,-1.5 0,-31.5 162,-31.5 162,-1.5 0,-1.5"/>
<text text-anchor="start" x="8" y="-19.5" font-family="Helvetica,sans-Serif" font-size="10.00">System.ComponentModel.Design</text>
<text text-anchor="middle" x="81" y="-8.5" font-family="Helvetica,sans-Serif" font-size="10.00">OnlyAttribute</text>
</a>
</g>
</g>
<!-- Node3&#45;&gt;Node3 -->
<g id="edge2" class="edge"><title>Node3&#45;&gt;Node3</title>
<path fill="none" stroke="#9a32cd" stroke-dasharray="5,2" d="M172.171,-20.7335C177.084,-19.6979 180,-18.2867 180,-16.5 180,-13.7109 172.894,-11.837 162.18,-10.8783"/>
<polygon fill="#9a32cd" stroke="#9a32cd" points="171.603,-17.2787 162.18,-22.1217 172.566,-24.2121 171.603,-17.2787"/>
<text text-anchor="middle" x="195.5" y="-25" font-family="Helvetica,sans-Serif" font-size="10.00"> Yes</text>
<text text-anchor="middle" x="195.5" y="-14" font-family="Helvetica,sans-Serif" font-size="10.00">Default</text>
<text text-anchor="middle" x="195.5" y="-3" font-family="Helvetica,sans-Serif" font-size="10.00">No</text>
</g>
<!-- Node4 -->
<g id="node2" class="node"><title>Node4</title>
<g id="a_node2"><a xlink:href="class_system_1_1_attribute.html" target="_top" xlink:title="Represents the base class for custom attributes.">
<polygon fill="none" stroke="red" points="54.5,-70.5 54.5,-89.5 107.5,-89.5 107.5,-70.5 54.5,-70.5"/>
<text text-anchor="middle" x="81" y="-77.5" font-family="Helvetica,sans-Serif" font-size="10.00">Attribute</text>
</a>
</g>
</g>
<!-- Node4&#45;&gt;Node3 -->
<g id="edge1" class="edge"><title>Node4&#45;&gt;Node3</title>
<path fill="none" stroke="midnightblue" d="M81,-60.3344C81,-51.1126 81,-40.1664 81,-31.6479"/>
<polygon fill="midnightblue" stroke="midnightblue" points="77.5001,-60.4487 81,-70.4487 84.5001,-60.4487 77.5001,-60.4487"/>
</g>
</g>
</svg>
