<?xml version="1.0" encoding="UTF-8" standalone="no"?>
<!DOCTYPE svg PUBLIC "-//W3C//DTD SVG 1.1//EN"
 "http://www.w3.org/Graphics/SVG/1.1/DTD/svg11.dtd">
<!-- Generated by graphviz version 2.38.0 (20140413.2041)
 -->
<!-- Title: System.Deployment.Internal.Isolation.Manifest.AssemblyReferenceEntry Pages: 1 -->
<svg width="878pt" height="162pt"
 viewBox="0.00 0.00 878.00 161.50" xmlns="http://www.w3.org/2000/svg" xmlns:xlink="http://www.w3.org/1999/xlink">
<g id="graph0" class="graph" transform="scale(1 1) rotate(0) translate(4 157.5)">
<title>System.Deployment.Internal.Isolation.Manifest.AssemblyReferenceEntry</title>
<!-- Node1 -->
<g id="node1" class="node"><title>Node1</title>
<g id="a_node1"><a xlink:title=" ">
<polygon fill="#bfbfbf" stroke="black" points="664,-101 664,-131 870,-131 870,-101 664,-101"/>
<text text-anchor="start" x="672" y="-119" font-family="Helvetica,sans-Serif" font-size="10.00">System.Deployment.Internal.</text>
<text text-anchor="middle" x="767" y="-108" font-family="Helvetica,sans-Serif" font-size="10.00">Isolation.Manifest.AssemblyReferenceEntry</text>
</a>
</g>
</g>
<!-- Node2 -->
<g id="node2" class="node"><title>Node2</title>
<g id="a_node2"><a xlink:href="interface_system_1_1_deployment_1_1_internal_1_1_isolation_1_1_i_reference_identity.html" target="_top" xlink:title=" ">
<polygon fill="none" stroke="black" points="371.5,-123 371.5,-153 514.5,-153 514.5,-123 371.5,-123"/>
<text text-anchor="start" x="379.5" y="-141" font-family="Helvetica,sans-Serif" font-size="10.00">System.Deployment.Internal.</text>
<text text-anchor="middle" x="443" y="-130" font-family="Helvetica,sans-Serif" font-size="10.00">Isolation.IReferenceIdentity</text>
</a>
</g>
</g>
<!-- Node2&#45;&gt;Node1 -->
<g id="edge1" class="edge"><title>Node2&#45;&gt;Node1</title>
<path fill="none" stroke="#9a32cd" stroke-dasharray="5,2" d="M524.867,-132.475C566.962,-129.599 618.866,-126.053 663.723,-122.988"/>
<polygon fill="#9a32cd" stroke="#9a32cd" points="524.402,-128.998 514.664,-133.172 524.88,-135.982 524.402,-128.998"/>
<text text-anchor="middle" x="599" y="-133" font-family="Helvetica,sans-Serif" font-size="10.00"> ReferenceIdentity</text>
</g>
<!-- Node3 -->
<g id="node3" class="node"><title>Node3</title>
<g id="a_node3"><a xlink:href="class_system_1_1_deployment_1_1_internal_1_1_isolation_1_1_manifest_1_1_assembly_reference_dependent_assembly_entry.html" target="_top" xlink:title=" ">
<polygon fill="none" stroke="black" points="352,-62.5 352,-103.5 534,-103.5 534,-62.5 352,-62.5"/>
<text text-anchor="start" x="360" y="-91.5" font-family="Helvetica,sans-Serif" font-size="10.00">System.Deployment.Internal.</text>
<text text-anchor="start" x="360" y="-80.5" font-family="Helvetica,sans-Serif" font-size="10.00">Isolation.Manifest.AssemblyReference</text>
<text text-anchor="middle" x="443" y="-69.5" font-family="Helvetica,sans-Serif" font-size="10.00">DependentAssemblyEntry</text>
</a>
</g>
</g>
<!-- Node3&#45;&gt;Node1 -->
<g id="edge2" class="edge"><title>Node3&#45;&gt;Node1</title>
<path fill="none" stroke="#9a32cd" stroke-dasharray="5,2" d="M544.201,-93.2691C582.298,-97.1734 625.719,-101.623 663.982,-105.545"/>
<polygon fill="#9a32cd" stroke="#9a32cd" points="544.428,-89.7741 534.123,-92.2362 543.714,-96.7376 544.428,-89.7741"/>
<text text-anchor="middle" x="599" y="-106" font-family="Helvetica,sans-Serif" font-size="10.00"> DependentAssembly</text>
</g>
<!-- Node4 -->
<g id="node4" class="node"><title>Node4</title>
<g id="a_node4"><a xlink:href="interface_system_1_1_i_disposable.html" target="_top" xlink:title="Provides a mechanism for releasing unmanaged resources.To browse the .NET Framework source code for t...">
<polygon fill="none" stroke="black" points="144,-117.5 144,-136.5 211,-136.5 211,-117.5 144,-117.5"/>
<text text-anchor="middle" x="177.5" y="-124.5" font-family="Helvetica,sans-Serif" font-size="10.00">IDisposable</text>
</a>
</g>
</g>
<!-- Node4&#45;&gt;Node3 -->
<g id="edge3" class="edge"><title>Node4&#45;&gt;Node3</title>
<path fill="none" stroke="midnightblue" d="M221.015,-119.901C256.242,-114.018 307.528,-105.455 351.827,-98.0574"/>
<polygon fill="midnightblue" stroke="midnightblue" points="220.362,-116.461 211.075,-121.561 221.514,-123.366 220.362,-116.461"/>
</g>
<!-- Node5 -->
<g id="node5" class="node"><title>Node5</title>
<g id="a_node5"><a xlink:href="interface_system_1_1_deployment_1_1_internal_1_1_isolation_1_1_i_section.html" target="_top" xlink:title=" ">
<polygon fill="none" stroke="black" points="106,-68 106,-98 249,-98 249,-68 106,-68"/>
<text text-anchor="start" x="114" y="-86" font-family="Helvetica,sans-Serif" font-size="10.00">System.Deployment.Internal.</text>
<text text-anchor="middle" x="177.5" y="-75" font-family="Helvetica,sans-Serif" font-size="10.00">Isolation.ISection</text>
</a>
</g>
</g>
<!-- Node5&#45;&gt;Node3 -->
<g id="edge4" class="edge"><title>Node5&#45;&gt;Node3</title>
<path fill="none" stroke="#9a32cd" stroke-dasharray="5,2" d="M259.287,-83C288.549,-83 321.778,-83 351.799,-83"/>
<polygon fill="#9a32cd" stroke="#9a32cd" points="259.113,-79.5001 249.113,-83 259.113,-86.5001 259.113,-79.5001"/>
<text text-anchor="middle" x="300.5" y="-86" font-family="Helvetica,sans-Serif" font-size="10.00"> HashElements</text>
</g>
<!-- Node6 -->
<g id="node6" class="node"><title>Node6</title>
<g id="a_node6"><a xlink:href="struct_system_1_1_int_ptr.html" target="_top" xlink:title="A platform&#45;specific type that is used to represent a pointer or a handle.">
<polygon fill="none" stroke="black" points="139,-0.5 139,-19.5 216,-19.5 216,-0.5 139,-0.5"/>
<text text-anchor="middle" x="177.5" y="-7.5" font-family="Helvetica,sans-Serif" font-size="10.00">System.IntPtr</text>
</a>
</g>
</g>
<!-- Node6&#45;&gt;Node3 -->
<g id="edge5" class="edge"><title>Node6&#45;&gt;Node3</title>
<path fill="none" stroke="#9a32cd" stroke-dasharray="5,2" d="M222.826,-22.28C262.398,-33.243 321.148,-49.5191 367.864,-62.4613"/>
<polygon fill="#9a32cd" stroke="#9a32cd" points="223.52,-18.8404 212.948,-19.5435 221.651,-25.5863 223.52,-18.8404"/>
<text text-anchor="middle" x="300.5" y="-57" font-family="Helvetica,sans-Serif" font-size="10.00"> HashValue</text>
</g>
<!-- Node6&#45;&gt;Node6 -->
<g id="edge7" class="edge"><title>Node6&#45;&gt;Node6</title>
<path fill="none" stroke="#9a32cd" stroke-dasharray="5,2" d="M160.834,-29.4C161.947,-34.3146 167.502,-38 177.5,-38 193.496,-38 198.12,-28.5653 191.372,-19.7571"/>
<polygon fill="#9a32cd" stroke="#9a32cd" points="164.207,-30.3361 163.628,-19.7571 157.483,-28.3878 164.207,-30.3361"/>
<text text-anchor="middle" x="177.5" y="-41" font-family="Helvetica,sans-Serif" font-size="10.00"> Zero</text>
</g>
<!-- Node7 -->
<g id="node7" class="node"><title>Node7</title>
<g id="a_node7"><a xlink:href="interface_system_1_1_runtime_1_1_serialization_1_1_i_serializable.html" target="_top" xlink:title="Allows an object to control its own serialization and deserialization.">
<polygon fill="none" stroke="black" points="0,-0.5 0,-19.5 69,-19.5 69,-0.5 0,-0.5"/>
<text text-anchor="middle" x="34.5" y="-7.5" font-family="Helvetica,sans-Serif" font-size="10.00">ISerializable</text>
</a>
</g>
</g>
<!-- Node7&#45;&gt;Node6 -->
<g id="edge6" class="edge"><title>Node7&#45;&gt;Node6</title>
<path fill="none" stroke="midnightblue" d="M79.4839,-10C98.499,-10 120.527,-10 138.782,-10"/>
<polygon fill="midnightblue" stroke="midnightblue" points="79.273,-6.5001 69.273,-10 79.273,-13.5001 79.273,-6.5001"/>
</g>
</g>
</svg>
