<?xml version="1.0" encoding="UTF-8" standalone="no"?>
<!DOCTYPE svg PUBLIC "-//W3C//DTD SVG 1.1//EN"
 "http://www.w3.org/Graphics/SVG/1.1/DTD/svg11.dtd">
<!-- Generated by graphviz version 2.38.0 (20140413.2041)
 -->
<!-- Title: System.Security.Cryptography.SHA1 Pages: 1 -->
<svg width="721pt" height="88pt"
 viewBox="0.00 0.00 721.00 88.00" xmlns="http://www.w3.org/2000/svg" xmlns:xlink="http://www.w3.org/1999/xlink">
<g id="graph0" class="graph" transform="scale(1 1) rotate(0) translate(4 84)">
<title>System.Security.Cryptography.SHA1</title>
<!-- Node0 -->
<g id="node1" class="node"><title>Node0</title>
<g id="a_node1"><a xlink:title="Computes the T:System.Security.Cryptography.SHA1 hash for the input data.">
<polygon fill="#bfbfbf" stroke="black" points="345,-30 345,-49 524,-49 524,-30 345,-30"/>
<text text-anchor="middle" x="434.5" y="-37" font-family="Helvetica,sans-Serif" font-size="10.00">System.Security.Cryptography.SHA1</text>
</a>
</g>
</g>
<!-- Node4 -->
<g id="node5" class="node"><title>Node4</title>
<g id="a_node5"><a xlink:href="class_system_1_1_security_1_1_cryptography_1_1_s_h_a1_crypto_service_provider.html" target="_top" xlink:title="Computes the T:System.Security.Cryptography.SHA1 hash value for the input data using the implementati...">
<polygon fill="none" stroke="black" points="560,-49.5 560,-79.5 713,-79.5 713,-49.5 560,-49.5"/>
<text text-anchor="start" x="568" y="-67.5" font-family="Helvetica,sans-Serif" font-size="10.00">System.Security.Cryptography.</text>
<text text-anchor="middle" x="636.5" y="-56.5" font-family="Helvetica,sans-Serif" font-size="10.00">SHA1CryptoServiceProvider</text>
</a>
</g>
</g>
<!-- Node0&#45;&gt;Node4 -->
<g id="edge5" class="edge"><title>Node0&#45;&gt;Node4</title>
<path fill="none" stroke="midnightblue" d="M521.768,-50.2835C534.444,-51.868 547.42,-53.49 559.861,-55.0451"/>
<polygon fill="midnightblue" stroke="midnightblue" points="522.039,-46.7902 511.682,-49.0227 521.171,-53.7362 522.039,-46.7902"/>
</g>
<!-- Node5 -->
<g id="node6" class="node"><title>Node5</title>
<g id="a_node6"><a xlink:href="class_system_1_1_security_1_1_cryptography_1_1_s_h_a1_managed.html" target="_top" xlink:title="Computes the T:System.Security.Cryptography.SHA1 hash for the input data using the managed library.">
<polygon fill="none" stroke="black" points="560,-0.5 560,-30.5 713,-30.5 713,-0.5 560,-0.5"/>
<text text-anchor="start" x="568" y="-18.5" font-family="Helvetica,sans-Serif" font-size="10.00">System.Security.Cryptography.</text>
<text text-anchor="middle" x="636.5" y="-7.5" font-family="Helvetica,sans-Serif" font-size="10.00">SHA1Managed</text>
</a>
</g>
</g>
<!-- Node0&#45;&gt;Node5 -->
<g id="edge6" class="edge"><title>Node0&#45;&gt;Node5</title>
<path fill="none" stroke="midnightblue" d="M524.995,-28.7606C536.635,-27.3639 548.466,-25.9441 559.848,-24.5782"/>
<polygon fill="midnightblue" stroke="midnightblue" points="524.344,-25.3135 514.833,-29.9801 525.178,-32.2636 524.344,-25.3135"/>
</g>
<!-- Node1 -->
<g id="node2" class="node"><title>Node1</title>
<g id="a_node2"><a xlink:href="class_system_1_1_security_1_1_cryptography_1_1_hash_algorithm.html" target="_top" xlink:title="Represents the base class from which all implementations of cryptographic hash algorithms must derive...">
<polygon fill="none" stroke="black" points="229,-30 229,-49 309,-49 309,-30 229,-30"/>
<text text-anchor="middle" x="269" y="-37" font-family="Helvetica,sans-Serif" font-size="10.00">HashAlgorithm</text>
</a>
</g>
</g>
<!-- Node1&#45;&gt;Node0 -->
<g id="edge1" class="edge"><title>Node1&#45;&gt;Node0</title>
<path fill="none" stroke="midnightblue" d="M319.176,-39.5C327.323,-39.5 335.987,-39.5 344.759,-39.5"/>
<polygon fill="midnightblue" stroke="midnightblue" points="319.162,-36.0001 309.162,-39.5 319.162,-43.0001 319.162,-36.0001"/>
</g>
<!-- Node2 -->
<g id="node3" class="node"><title>Node2</title>
<g id="a_node3"><a xlink:href="interface_system_1_1_i_disposable.html" target="_top" xlink:title="Provides a mechanism for releasing unmanaged resources.To browse the .NET Framework source code for t...">
<polygon fill="none" stroke="black" points="0,-30 0,-49 67,-49 67,-30 0,-30"/>
<text text-anchor="middle" x="33.5" y="-37" font-family="Helvetica,sans-Serif" font-size="10.00">IDisposable</text>
</a>
</g>
</g>
<!-- Node2&#45;&gt;Node1 -->
<g id="edge2" class="edge"><title>Node2&#45;&gt;Node1</title>
<path fill="none" stroke="midnightblue" d="M77.6877,-39.5C121.025,-39.5 187.183,-39.5 228.981,-39.5"/>
<polygon fill="midnightblue" stroke="midnightblue" points="77.4596,-36.0001 67.4596,-39.5 77.4596,-43.0001 77.4596,-36.0001"/>
</g>
<!-- Node3 -->
<g id="node4" class="node"><title>Node3</title>
<g id="a_node4"><a xlink:href="interface_system_1_1_security_1_1_cryptography_1_1_i_crypto_transform.html" target="_top" xlink:title="Defines the basic operations of cryptographic transformations.">
<polygon fill="none" stroke="black" points="103,-11 103,-30 193,-30 193,-11 103,-11"/>
<text text-anchor="middle" x="148" y="-18" font-family="Helvetica,sans-Serif" font-size="10.00">ICryptoTransform</text>
</a>
</g>
</g>
<!-- Node2&#45;&gt;Node3 -->
<g id="edge4" class="edge"><title>Node2&#45;&gt;Node3</title>
<path fill="none" stroke="midnightblue" d="M77.046,-32.3145C85.4722,-30.8914 94.3353,-29.3945 102.815,-27.9624"/>
<polygon fill="midnightblue" stroke="midnightblue" points="76.3171,-28.8879 67.0397,-34.0044 77.4829,-35.7902 76.3171,-28.8879"/>
</g>
<!-- Node3&#45;&gt;Node1 -->
<g id="edge3" class="edge"><title>Node3&#45;&gt;Node1</title>
<path fill="none" stroke="midnightblue" d="M203.278,-29.1662C211.862,-30.5368 220.592,-31.9307 228.746,-33.2326"/>
<polygon fill="midnightblue" stroke="midnightblue" points="203.738,-25.6954 193.311,-27.5749 202.634,-32.6079 203.738,-25.6954"/>
</g>
</g>
</svg>
