<?xml version="1.0" encoding="UTF-8" standalone="no"?>
<!DOCTYPE svg PUBLIC "-//W3C//DTD SVG 1.1//EN"
 "http://www.w3.org/Graphics/SVG/1.1/DTD/svg11.dtd">
<!-- Generated by graphviz version 2.38.0 (20140413.2041)
 -->
<!-- Title: System.Collections.Generic.Queue&lt; T &gt; Pages: 1 -->
<!--zoomable 125 -->
<svg id="main" version="1.1" xmlns="http://www.w3.org/2000/svg" xmlns:xlink="http://www.w3.org/1999/xlink" xml:space="preserve" onload="init(evt)">
<style type="text/css"><![CDATA[
.edge:hover path { stroke: red; }
.edge:hover polygon { stroke: red; fill: red; }
]]></style>
<script type="text/javascript"><![CDATA[
var edges = document.getElementsByTagName('g');
if (edges && edges.length) {
  for (var i=0;i<edges.length;i++) {
    if (edges[i].id.substr(0,4)=='edge') {
      edges[i].setAttribute('class','edge');
    }
  }
}
]]></script>
        <defs>
                <circle id="rim" cx="0" cy="0" r="7"/>
                <circle id="rim2" cx="0" cy="0" r="3.5"/>
                <g id="zoomPlus">
                        <use xlink:href="#rim" fill="#404040">
                                <set attributeName="fill" to="#808080" begin="zoomplus.mouseover" end="zoomplus.mouseout"/>
                        </use>
                        <path d="M-4,0h8M0,-4v8" fill="none" stroke="white" stroke-width="1.5" pointer-events="none"/>
                </g>
                <g id="zoomMin">
                        <use xlink:href="#rim" fill="#404040">
                                <set attributeName="fill" to="#808080" begin="zoomminus.mouseover" end="zoomminus.mouseout"/>
                        </use>
                        <path d="M-4,0h8" fill="none" stroke="white" stroke-width="1.5" pointer-events="none"/>
                </g>
                <g id="dirArrow">
                        <path fill="none" stroke="white" stroke-width="1.5" d="M0,-3.0v7 M-2.5,-0.5L0,-3.0L2.5,-0.5"/>
                </g>
               <g id="resetDef">
                       <use xlink:href="#rim2" fill="#404040">
                               <set attributeName="fill" to="#808080" begin="reset.mouseover" end="reset.mouseout"/>
                       </use>
               </g>
        </defs>

<script type="text/javascript">
var viewWidth = 780;
var viewHeight = 125;
var sectionId = 'dynsection-0';
</script>
<script xlink:href="svgpan.js"/>
<svg id="graph" class="graph">
<g id="viewport">
<title>System.Collections.Generic.Queue&lt; T &gt;</title>
<!-- Node0 -->
<g id="node1" class="node"><title>Node0</title>
<g id="a_node1"><a xlink:title="Represents a first&#45;in, first&#45;out collection of objects.">
<polygon fill="#bfbfbf" stroke="black" points="296,-49 296,-79 437,-79 437,-49 296,-49"/>
<text text-anchor="start" x="304" y="-67" font-family="Helvetica,sans-Serif" font-size="10.00">System.Collections.Generic.</text>
<text text-anchor="middle" x="366.5" y="-56" font-family="Helvetica,sans-Serif" font-size="10.00">Queue&lt; T &gt;</text>
</a>
</g>
</g>
<!-- Node7 -->
<g id="node6" class="node"><title>Node7</title>
<g id="a_node6"><a xlink:href="class_system_1_1_collections_1_1_generic_1_1_queue.html" target="_top" xlink:title=" ">
<polygon fill="none" stroke="black" points="603,-71.5 603,-112.5 772,-112.5 772,-71.5 603,-71.5"/>
<text text-anchor="start" x="611" y="-100.5" font-family="Helvetica,sans-Serif" font-size="10.00">System.Collections.Generic.</text>
<text text-anchor="start" x="611" y="-89.5" font-family="Helvetica,sans-Serif" font-size="10.00">Queue&lt; System.Linq.Expressions.</text>
<text text-anchor="middle" x="687.5" y="-78.5" font-family="Helvetica,sans-Serif" font-size="10.00">LambdaExpression &gt;</text>
</a>
</g>
</g>
<!-- Node0&#45;&gt;Node7 -->
<g id="edge7" class="edge"><title>Node0&#45;&gt;Node7</title>
<path fill="none" stroke="orange" stroke-dasharray="5,2" d="M447.336,-71.0075C494.754,-75.1696 554.811,-80.4411 602.88,-84.6603"/>
<polygon fill="orange" stroke="orange" points="447.379,-67.498 437.112,-70.1101 446.767,-74.4712 447.379,-67.498"/>
<text text-anchor="start" x="455" y="-97" font-family="Helvetica,sans-Serif" font-size="10.00"> &lt; System::Linq::Expressions</text>
<text text-anchor="middle" x="520" y="-86" font-family="Helvetica,sans-Serif" font-size="10.00">::LambdaExpression &gt;</text>
</g>
<!-- Node8 -->
<g id="node7" class="node"><title>Node8</title>
<g id="a_node7"><a xlink:href="class_system_1_1_collections_1_1_generic_1_1_queue.html" target="_top" xlink:title=" ">
<polygon fill="none" stroke="black" points="607,-22 607,-52 768,-52 768,-22 607,-22"/>
<text text-anchor="start" x="615" y="-40" font-family="Helvetica,sans-Serif" font-size="10.00">System.Collections.Generic.</text>
<text text-anchor="middle" x="687.5" y="-29" font-family="Helvetica,sans-Serif" font-size="10.00">Queue&lt; Pair&lt; TKey, TOutput &gt; &gt;</text>
</a>
</g>
</g>
<!-- Node0&#45;&gt;Node8 -->
<g id="edge8" class="edge"><title>Node0&#45;&gt;Node8</title>
<path fill="none" stroke="orange" stroke-dasharray="5,2" d="M447.304,-57.2454C496.067,-53.1182 558.204,-47.8589 606.924,-43.7352"/>
<polygon fill="orange" stroke="orange" points="446.781,-53.7771 437.112,-58.1081 447.371,-60.7522 446.781,-53.7771"/>
<text text-anchor="middle" x="520" y="-60" font-family="Helvetica,sans-Serif" font-size="10.00"> &lt; Pair&lt; TKey, TOutput &gt; &gt;</text>
</g>
<!-- Node1 -->
<g id="node2" class="node"><title>Node1</title>
<g id="a_node2"><a xlink:href="interface_system_1_1_collections_1_1_generic_1_1_i_enumerable.html" target="_top" xlink:title=" ">
<polygon fill="none" stroke="red" points="0,-97.5 0,-116.5 94,-116.5 94,-97.5 0,-97.5"/>
<text text-anchor="middle" x="47" y="-104.5" font-family="Helvetica,sans-Serif" font-size="10.00">IEnumerable&lt; T &gt;</text>
</a>
</g>
</g>
<!-- Node1&#45;&gt;Node0 -->
<g id="edge1" class="edge"><title>Node1&#45;&gt;Node0</title>
<path fill="none" stroke="midnightblue" d="M104.448,-112.249C147.297,-114.845 207.432,-115.5 259,-105 285.403,-99.6242 313.81,-88.3889 334.64,-79.037"/>
<polygon fill="midnightblue" stroke="midnightblue" points="104.425,-108.74 94.2156,-111.572 103.963,-115.724 104.425,-108.74"/>
</g>
<!-- Node4 -->
<g id="node4" class="node"><title>Node4</title>
<g id="a_node4"><a xlink:href="interface_system_1_1_collections_1_1_generic_1_1_i_collection.html" target="_top" xlink:title="Defines methods to manipulate generic collections.">
<polygon fill="none" stroke="black" points="164,-76.5 164,-95.5 226,-95.5 226,-76.5 164,-76.5"/>
<text text-anchor="middle" x="195" y="-83.5" font-family="Helvetica,sans-Serif" font-size="10.00">ICollection</text>
</a>
</g>
</g>
<!-- Node1&#45;&gt;Node4 -->
<g id="edge4" class="edge"><title>Node1&#45;&gt;Node4</title>
<path fill="none" stroke="midnightblue" d="M104.268,-98.9067C124.511,-95.995 146.569,-92.8223 163.749,-90.3512"/>
<polygon fill="midnightblue" stroke="midnightblue" points="103.595,-95.4673 94.1953,-100.355 104.592,-102.396 103.595,-95.4673"/>
</g>
<!-- Node3 -->
<g id="node3" class="node"><title>Node3</title>
<g id="a_node3"><a xlink:href="interface_system_1_1_collections_1_1_i_enumerable.html" target="_top" xlink:title="Exposes an enumerator, which supports a simple iteration over a non&#45;generic collection....">
<polygon fill="none" stroke="red" points="11.5,-53.5 11.5,-72.5 82.5,-72.5 82.5,-53.5 11.5,-53.5"/>
<text text-anchor="middle" x="47" y="-60.5" font-family="Helvetica,sans-Serif" font-size="10.00">IEnumerable</text>
</a>
</g>
</g>
<!-- Node3&#45;&gt;Node0 -->
<g id="edge2" class="edge"><title>Node3&#45;&gt;Node0</title>
<path fill="none" stroke="midnightblue" d="M92.6484,-63.1406C145.451,-63.3069 233.966,-63.5857 295.816,-63.7805"/>
<polygon fill="midnightblue" stroke="midnightblue" points="92.5935,-59.6405 82.5825,-63.1089 92.5714,-66.6405 92.5935,-59.6405"/>
</g>
<!-- Node3&#45;&gt;Node4 -->
<g id="edge5" class="edge"><title>Node3&#45;&gt;Node4</title>
<path fill="none" stroke="midnightblue" d="M92.4912,-70.0089C115.519,-73.6366 143.038,-77.9717 163.61,-81.2126"/>
<polygon fill="midnightblue" stroke="midnightblue" points="93.0228,-66.5496 82.6,-68.4507 91.9335,-73.4643 93.0228,-66.5496"/>
</g>
<!-- Node4&#45;&gt;Node0 -->
<g id="edge3" class="edge"><title>Node4&#45;&gt;Node0</title>
<path fill="none" stroke="midnightblue" d="M236.31,-80.768C254.081,-78.4614 275.488,-75.683 295.719,-73.0571"/>
<polygon fill="midnightblue" stroke="midnightblue" points="235.769,-77.3087 226.303,-82.0668 236.671,-84.2505 235.769,-77.3087"/>
</g>
<!-- Node5 -->
<g id="node5" class="node"><title>Node5</title>
<g id="a_node5"><a xlink:href="interface_system_1_1_collections_1_1_generic_1_1_i_read_only_collection.html" target="_top" xlink:title=" ">
<polygon fill="none" stroke="red" points="131,-0.5 131,-19.5 259,-19.5 259,-0.5 131,-0.5"/>
<text text-anchor="middle" x="195" y="-7.5" font-family="Helvetica,sans-Serif" font-size="10.00">IReadOnlyCollection&lt; T &gt;</text>
</a>
</g>
</g>
<!-- Node5&#45;&gt;Node0 -->
<g id="edge6" class="edge"><title>Node5&#45;&gt;Node0</title>
<path fill="none" stroke="midnightblue" d="M239.695,-22.3885C252.109,-26.0165 265.618,-30.0675 278,-34 292.693,-38.6665 308.672,-44.0518 322.904,-48.9607"/>
<polygon fill="midnightblue" stroke="midnightblue" points="240.596,-19.0055 230.017,-19.5799 238.645,-25.7282 240.596,-19.0055"/>
</g>
</g>
</svg>
        <g id="navigator" transform="translate(0 0)" fill="#404254">
                <rect fill="#f2f5e9" fill-opacity="0.5" stroke="#606060" stroke-width=".5" x="0" y="0" width="60" height="60"/>
                <use id="zoomplus" xlink:href="#zoomPlus" x="17" y="9" onmousedown="handleZoom(evt,'in')"/>
                <use id="zoomminus" xlink:href="#zoomMin" x="42" y="9" onmousedown="handleZoom(evt,'out')"/>
                <use id="reset" xlink:href="#resetDef" x="30" y="36" onmousedown="handleReset()"/>
                <g id="arrowUp" xlink:href="#dirArrow" transform="translate(30 24)" onmousedown="handlePan(0,-1)">
                  <use xlink:href="#rim" fill="#404040">
                        <set attributeName="fill" to="#808080" begin="arrowUp.mouseover" end="arrowUp.mouseout"/>
                  </use>
                  <path fill="none" stroke="white" stroke-width="1.5" d="M0,-3.0v7 M-2.5,-0.5L0,-3.0L2.5,-0.5"/>
                </g>
                <g id="arrowRight" xlink:href="#dirArrow" transform="rotate(90) translate(36 -43)" onmousedown="handlePan(1,0)">
                  <use xlink:href="#rim" fill="#404040">
                        <set attributeName="fill" to="#808080" begin="arrowRight.mouseover" end="arrowRight.mouseout"/>
                  </use>
                  <path fill="none" stroke="white" stroke-width="1.5" d="M0,-3.0v7 M-2.5,-0.5L0,-3.0L2.5,-0.5"/>
                </g>
                <g id="arrowDown" xlink:href="#dirArrow" transform="rotate(180) translate(-30 -48)" onmousedown="handlePan(0,1)">
                  <use xlink:href="#rim" fill="#404040">
                        <set attributeName="fill" to="#808080" begin="arrowDown.mouseover" end="arrowDown.mouseout"/>
                  </use>
                  <path fill="none" stroke="white" stroke-width="1.5" d="M0,-3.0v7 M-2.5,-0.5L0,-3.0L2.5,-0.5"/>
                </g>
                <g id="arrowLeft" xlink:href="#dirArrow" transform="rotate(270) translate(-36 17)" onmousedown="handlePan(-1,0)">
                  <use xlink:href="#rim" fill="#404040">
                        <set attributeName="fill" to="#808080" begin="arrowLeft.mouseover" end="arrowLeft.mouseout"/>
                  </use>
                  <path fill="none" stroke="white" stroke-width="1.5" d="M0,-3.0v7 M-2.5,-0.5L0,-3.0L2.5,-0.5"/>
                </g>
        </g>
        <svg viewBox="0 0 15 15" width="100%" height="30px" preserveAspectRatio="xMaxYMin meet">
         <g id="arrow_out" transform="scale(0.3 0.3)">
          <a xlink:href="class_system_1_1_collections_1_1_generic_1_1_queue__inherit__graph_org.svg" target="_base">
           <rect id="button" ry="5" rx="5" y="6" x="6" height="38" width="38"
                fill="#f2f5e9" fill-opacity="0.5" stroke="#606060" stroke-width="1.0"/>
           <path id="arrow"
             d="M 11.500037,31.436501 C 11.940474,20.09759 22.043105,11.32322 32.158766,21.979434 L 37.068811,17.246167 C 37.068811,17.246167 37.088388,32 37.088388,32 L 22.160133,31.978069 C 22.160133,31.978069 26.997745,27.140456 26.997745,27.140456 C 18.528582,18.264221 13.291696,25.230495 11.500037,31.436501 z"
             style="fill:#404040;"/>
          </a>
         </g>
        </svg>
</svg>
