<?xml version="1.0" encoding="UTF-8" standalone="no"?>
<!DOCTYPE svg PUBLIC "-//W3C//DTD SVG 1.1//EN"
 "http://www.w3.org/Graphics/SVG/1.1/DTD/svg11.dtd">
<!-- Generated by graphviz version 2.38.0 (20140413.2041)
 -->
<!-- Title: System.Threading.WaitHandle Pages: 1 -->
<svg width="335pt" height="152pt"
 viewBox="0.00 0.00 334.50 152.00" xmlns="http://www.w3.org/2000/svg" xmlns:xlink="http://www.w3.org/1999/xlink">
<g id="graph0" class="graph" transform="scale(1 1) rotate(0) translate(4 148)">
<title>System.Threading.WaitHandle</title>
<!-- Node7 -->
<g id="node1" class="node"><title>Node7</title>
<g id="a_node1"><a xlink:title="Encapsulates operating system–specific objects that wait for exclusive access to shared resources.">
<polygon fill="#bfbfbf" stroke="black" points="83.5,-0.5 83.5,-19.5 232.5,-19.5 232.5,-0.5 83.5,-0.5"/>
<text text-anchor="middle" x="158" y="-7.5" font-family="Helvetica,sans-Serif" font-size="10.00">System.Threading.WaitHandle</text>
</a>
</g>
</g>
<!-- Node8 -->
<g id="node2" class="node"><title>Node8</title>
<g id="a_node2"><a xlink:href="class_system_1_1_marshal_by_ref_object.html" target="_top" xlink:title="Enables access to objects across application domain boundaries in applications that support remoting.">
<polygon fill="none" stroke="black" points="0,-67.5 0,-86.5 106,-86.5 106,-67.5 0,-67.5"/>
<text text-anchor="middle" x="53" y="-74.5" font-family="Helvetica,sans-Serif" font-size="10.00">MarshalByRefObject</text>
</a>
</g>
</g>
<!-- Node8&#45;&gt;Node7 -->
<g id="edge1" class="edge"><title>Node8&#45;&gt;Node7</title>
<path fill="none" stroke="midnightblue" d="M75.7087,-61.9422C96.5029,-49.0696 126.617,-30.4274 144.064,-19.6273"/>
<polygon fill="midnightblue" stroke="midnightblue" points="73.8212,-58.9943 67.1608,-67.2338 77.5057,-64.9462 73.8212,-58.9943"/>
</g>
<!-- Node9 -->
<g id="node3" class="node"><title>Node9</title>
<g id="a_node3"><a xlink:href="interface_system_1_1_i_disposable.html" target="_top" xlink:title="Provides a mechanism for releasing unmanaged resources.To browse the .NET Framework source code for t...">
<polygon fill="none" stroke="black" points="124.5,-67.5 124.5,-86.5 191.5,-86.5 191.5,-67.5 124.5,-67.5"/>
<text text-anchor="middle" x="158" y="-74.5" font-family="Helvetica,sans-Serif" font-size="10.00">IDisposable</text>
</a>
</g>
</g>
<!-- Node9&#45;&gt;Node7 -->
<g id="edge2" class="edge"><title>Node9&#45;&gt;Node7</title>
<path fill="none" stroke="midnightblue" d="M158,-57.037C158,-44.6703 158,-29.1198 158,-19.6273"/>
<polygon fill="midnightblue" stroke="midnightblue" points="154.5,-57.2338 158,-67.2338 161.5,-57.2338 154.5,-57.2338"/>
</g>
<!-- Node10 -->
<g id="node4" class="node"><title>Node10</title>
<g id="a_node4"><a xlink:href="struct_system_1_1_int_ptr.html" target="_top" xlink:title="A platform&#45;specific type that is used to represent a pointer or a handle.">
<polygon fill="none" stroke="black" points="209.5,-67.5 209.5,-86.5 286.5,-86.5 286.5,-67.5 209.5,-67.5"/>
<text text-anchor="middle" x="248" y="-74.5" font-family="Helvetica,sans-Serif" font-size="10.00">System.IntPtr</text>
</a>
</g>
</g>
<!-- Node10&#45;&gt;Node7 -->
<g id="edge3" class="edge"><title>Node10&#45;&gt;Node7</title>
<path fill="none" stroke="#9a32cd" stroke-dasharray="5,2" d="M227.325,-61.0678C209.56,-48.2376 184.564,-30.1853 169.945,-19.6273"/>
<polygon fill="#9a32cd" stroke="#9a32cd" points="225.706,-64.2162 235.862,-67.2338 229.805,-58.5415 225.706,-64.2162"/>
<text text-anchor="middle" x="238" y="-41" font-family="Helvetica,sans-Serif" font-size="10.00"> InvalidHandle</text>
</g>
<!-- Node10&#45;&gt;Node10 -->
<g id="edge5" class="edge"><title>Node10&#45;&gt;Node10</title>
<path fill="none" stroke="#9a32cd" stroke-dasharray="5,2" d="M296.72,-81.263C301.479,-80.4034 304.5,-78.9824 304.5,-77 304.5,-73.8281 296.766,-72.0935 286.555,-71.7961"/>
<polygon fill="#9a32cd" stroke="#9a32cd" points="296.19,-77.797 286.555,-82.2039 296.835,-84.7672 296.19,-77.797"/>
<text text-anchor="middle" x="315.5" y="-74.5" font-family="Helvetica,sans-Serif" font-size="10.00"> Zero</text>
</g>
<!-- Node11 -->
<g id="node5" class="node"><title>Node11</title>
<g id="a_node5"><a xlink:href="interface_system_1_1_runtime_1_1_serialization_1_1_i_serializable.html" target="_top" xlink:title="Allows an object to control its own serialization and deserialization.">
<polygon fill="none" stroke="black" points="213.5,-124.5 213.5,-143.5 282.5,-143.5 282.5,-124.5 213.5,-124.5"/>
<text text-anchor="middle" x="248" y="-131.5" font-family="Helvetica,sans-Serif" font-size="10.00">ISerializable</text>
</a>
</g>
</g>
<!-- Node11&#45;&gt;Node10 -->
<g id="edge4" class="edge"><title>Node11&#45;&gt;Node10</title>
<path fill="none" stroke="midnightblue" d="M248,-114.117C248,-104.817 248,-94.0557 248,-86.7149"/>
<polygon fill="midnightblue" stroke="midnightblue" points="244.5,-114.406 248,-124.406 251.5,-114.406 244.5,-114.406"/>
</g>
</g>
</svg>
