<?xml version="1.0" encoding="UTF-8" standalone="no"?>
<!DOCTYPE svg PUBLIC "-//W3C//DTD SVG 1.1//EN"
 "http://www.w3.org/Graphics/SVG/1.1/DTD/svg11.dtd">
<!-- Generated by graphviz version 2.38.0 (20140413.2041)
 -->
<!-- Title: System.Threading.Tasks.MultiProducerMultiConsumerQueue&lt; T &gt; Pages: 1 -->
<!--zoomable 366 -->
<svg id="main" version="1.1" xmlns="http://www.w3.org/2000/svg" xmlns:xlink="http://www.w3.org/1999/xlink" xml:space="preserve" onload="init(evt)">
<style type="text/css"><![CDATA[
.edge:hover path { stroke: red; }
.edge:hover polygon { stroke: red; fill: red; }
]]></style>
<script type="text/javascript"><![CDATA[
var edges = document.getElementsByTagName('g');
if (edges && edges.length) {
  for (var i=0;i<edges.length;i++) {
    if (edges[i].id.substr(0,4)=='edge') {
      edges[i].setAttribute('class','edge');
    }
  }
}
]]></script>
        <defs>
                <circle id="rim" cx="0" cy="0" r="7"/>
                <circle id="rim2" cx="0" cy="0" r="3.5"/>
                <g id="zoomPlus">
                        <use xlink:href="#rim" fill="#404040">
                                <set attributeName="fill" to="#808080" begin="zoomplus.mouseover" end="zoomplus.mouseout"/>
                        </use>
                        <path d="M-4,0h8M0,-4v8" fill="none" stroke="white" stroke-width="1.5" pointer-events="none"/>
                </g>
                <g id="zoomMin">
                        <use xlink:href="#rim" fill="#404040">
                                <set attributeName="fill" to="#808080" begin="zoomminus.mouseover" end="zoomminus.mouseout"/>
                        </use>
                        <path d="M-4,0h8" fill="none" stroke="white" stroke-width="1.5" pointer-events="none"/>
                </g>
                <g id="dirArrow">
                        <path fill="none" stroke="white" stroke-width="1.5" d="M0,-3.0v7 M-2.5,-0.5L0,-3.0L2.5,-0.5"/>
                </g>
               <g id="resetDef">
                       <use xlink:href="#rim2" fill="#404040">
                               <set attributeName="fill" to="#808080" begin="reset.mouseover" end="reset.mouseout"/>
                       </use>
               </g>
        </defs>

<script type="text/javascript">
var viewWidth = 613;
var viewHeight = 366;
var sectionId = 'dynsection-1';
</script>
<script xlink:href="svgpan.js"/>
<svg id="graph" class="graph">
<g id="viewport">
<title>System.Threading.Tasks.MultiProducerMultiConsumerQueue&lt; T &gt;</title>
<!-- Node10 -->
<g id="node1" class="node"><title>Node10</title>
<g id="a_node1"><a xlink:title=" ">
<polygon fill="#bfbfbf" stroke="black" points="107.5,-0.5 107.5,-30.5 280.5,-30.5 280.5,-0.5 107.5,-0.5"/>
<text text-anchor="start" x="115.5" y="-18.5" font-family="Helvetica,sans-Serif" font-size="10.00">System.Threading.Tasks.Multi</text>
<text text-anchor="middle" x="194" y="-7.5" font-family="Helvetica,sans-Serif" font-size="10.00">ProducerMultiConsumerQueue&lt; T &gt;</text>
</a>
</g>
</g>
<!-- Node11 -->
<g id="node2" class="node"><title>Node11</title>
<g id="a_node2"><a xlink:href="class_system_1_1_collections_1_1_concurrent_1_1_concurrent_queue.html" target="_top" xlink:title="Represents a thread&#45;safe first in&#45;first out (FIFO) collection.">
<polygon fill="none" stroke="black" points="250,-68.5 250,-87.5 366,-87.5 366,-68.5 250,-68.5"/>
<text text-anchor="middle" x="308" y="-75.5" font-family="Helvetica,sans-Serif" font-size="10.00">ConcurrentQueue&lt; T &gt;</text>
</a>
</g>
</g>
<!-- Node11&#45;&gt;Node10 -->
<g id="edge1" class="edge"><title>Node11&#45;&gt;Node10</title>
<path fill="none" stroke="midnightblue" d="M282.658,-63.5511C264.168,-53.7382 239.168,-40.4709 220.429,-30.526"/>
<polygon fill="midnightblue" stroke="midnightblue" points="281.193,-66.7356 291.667,-68.3318 284.474,-60.5524 281.193,-66.7356"/>
</g>
<!-- Node12 -->
<g id="node3" class="node"><title>Node12</title>
<g id="a_node3"><a xlink:href="interface_system_1_1_collections_1_1_concurrent_1_1_i_producer_consumer_collection.html" target="_top" xlink:title="Defines methods to manipulate thread&#45;safe collections intended for producer/consumer usage....">
<polygon fill="none" stroke="black" points="176,-125.5 176,-144.5 344,-144.5 344,-125.5 176,-125.5"/>
<text text-anchor="middle" x="260" y="-132.5" font-family="Helvetica,sans-Serif" font-size="10.00">IProducerConsumerCollection&lt; T &gt;</text>
</a>
</g>
</g>
<!-- Node12&#45;&gt;Node11 -->
<g id="edge2" class="edge"><title>Node12&#45;&gt;Node11</title>
<path fill="none" stroke="midnightblue" d="M274.114,-117.828C282.709,-107.979 293.354,-95.7817 300.394,-87.7149"/>
<polygon fill="midnightblue" stroke="midnightblue" points="271.438,-115.571 267.5,-125.406 276.712,-120.173 271.438,-115.571"/>
</g>
<!-- Node13 -->
<g id="node4" class="node"><title>Node13</title>
<g id="a_node4"><a xlink:href="interface_system_1_1_collections_1_1_i_enumerable.html" target="_top" xlink:title=" ">
<polygon fill="none" stroke="black" points="32,-271.5 32,-290.5 126,-290.5 126,-271.5 32,-271.5"/>
<text text-anchor="middle" x="79" y="-278.5" font-family="Helvetica,sans-Serif" font-size="10.00">IEnumerable&lt; T &gt;</text>
</a>
</g>
</g>
<!-- Node13&#45;&gt;Node10 -->
<g id="edge18" class="edge"><title>Node13&#45;&gt;Node10</title>
<path fill="none" stroke="midnightblue" d="M62.9672,-263.396C52.5891,-250.868 41,-232.692 41,-214 41,-214 41,-214 41,-77 41,-43.7232 72.6857,-28.2042 107.218,-21.1721"/>
<polygon fill="midnightblue" stroke="midnightblue" points="60.5483,-265.944 69.8013,-271.104 65.7862,-261.3 60.5483,-265.944"/>
</g>
<!-- Node13&#45;&gt;Node11 -->
<g id="edge8" class="edge"><title>Node13&#45;&gt;Node11</title>
<path fill="none" stroke="midnightblue" d="M40.7404,-266.55C35.2673,-262.985 30.3621,-258.534 27,-253 6.23109,-218.814 3.10706,-195.08 27,-163 54.0688,-126.656 179.347,-100.242 253.176,-87.5204"/>
<polygon fill="midnightblue" stroke="midnightblue" points="39.2179,-269.707 49.6683,-271.451 42.5862,-263.571 39.2179,-269.707"/>
</g>
<!-- Node13&#45;&gt;Node12 -->
<g id="edge3" class="edge"><title>Node13&#45;&gt;Node12</title>
<path fill="none" stroke="midnightblue" d="M78.0094,-261.148C78.0177,-241.53 81.0988,-211.065 98,-192 121.096,-165.947 156.919,-152.011 189.012,-144.558"/>
<polygon fill="midnightblue" stroke="midnightblue" points="74.5141,-261.373 78.2784,-271.276 81.5116,-261.187 74.5141,-261.373"/>
</g>
<!-- Node18 -->
<g id="node9" class="node"><title>Node18</title>
<g id="a_node9"><a xlink:href="interface_system_1_1_collections_1_1_generic_1_1_i_read_only_collection.html" target="_top" xlink:title="Represents a strongly&#45;typed, read&#45;only collection of elements.">
<polygon fill="none" stroke="black" points="317.5,-192.5 317.5,-233.5 458.5,-233.5 458.5,-192.5 317.5,-192.5"/>
<text text-anchor="start" x="325.5" y="-221.5" font-family="Helvetica,sans-Serif" font-size="10.00">System.Collections.Generic.</text>
<text text-anchor="start" x="325.5" y="-210.5" font-family="Helvetica,sans-Serif" font-size="10.00">IReadOnlyCollection&lt; out</text>
<text text-anchor="middle" x="388" y="-199.5" font-family="Helvetica,sans-Serif" font-size="10.00"> out T &gt;</text>
</a>
</g>
</g>
<!-- Node13&#45;&gt;Node18 -->
<g id="edge13" class="edge"><title>Node13&#45;&gt;Node18</title>
<path fill="none" stroke="midnightblue" d="M128.893,-269.343C179.95,-258.438 259.747,-241.394 317.299,-229.101"/>
<polygon fill="midnightblue" stroke="midnightblue" points="128.128,-265.928 119.08,-271.439 129.59,-272.773 128.128,-265.928"/>
</g>
<!-- Node19 -->
<g id="node10" class="node"><title>Node19</title>
<g id="a_node10"><a xlink:href="interface_system_1_1_threading_1_1_tasks_1_1_i_producer_consumer_queue.html" target="_top" xlink:title=" ">
<polygon fill="none" stroke="black" points="107,-203.5 107,-222.5 261,-222.5 261,-203.5 107,-203.5"/>
<text text-anchor="middle" x="184" y="-210.5" font-family="Helvetica,sans-Serif" font-size="10.00">IProducerConsumerQueue&lt; T &gt;</text>
</a>
</g>
</g>
<!-- Node13&#45;&gt;Node19 -->
<g id="edge16" class="edge"><title>Node13&#45;&gt;Node19</title>
<path fill="none" stroke="midnightblue" d="M101.291,-265.988C122.18,-252.858 152.739,-233.65 170.27,-222.63"/>
<polygon fill="midnightblue" stroke="midnightblue" points="99.3307,-263.087 92.7269,-271.372 103.056,-269.013 99.3307,-263.087"/>
</g>
<!-- Node14 -->
<g id="node5" class="node"><title>Node14</title>
<g id="a_node5"><a xlink:href="interface_system_1_1_collections_1_1_i_enumerable.html" target="_top" xlink:title="Exposes an enumerator, which supports a simple iteration over a non&#45;generic collection....">
<polygon fill="none" stroke="black" points="0,-338.5 0,-357.5 158,-357.5 158,-338.5 0,-338.5"/>
<text text-anchor="middle" x="79" y="-345.5" font-family="Helvetica,sans-Serif" font-size="10.00">System.Collections.IEnumerable</text>
</a>
</g>
</g>
<!-- Node14&#45;&gt;Node13 -->
<g id="edge4" class="edge"><title>Node14&#45;&gt;Node13</title>
<path fill="none" stroke="orange" stroke-dasharray="5,2" d="M79,-328.037C79,-315.67 79,-300.12 79,-290.627"/>
<polygon fill="orange" stroke="orange" points="75.5001,-328.234 79,-338.234 82.5001,-328.234 75.5001,-328.234"/>
<text text-anchor="middle" x="92.5" y="-312" font-family="Helvetica,sans-Serif" font-size="10.00"> &lt; T &gt;</text>
</g>
<!-- Node15 -->
<g id="node6" class="node"><title>Node15</title>
<g id="a_node6"><a xlink:href="interface_system_1_1_collections_1_1_i_enumerable.html" target="_top" xlink:title="Exposes an enumerator, which supports a simple iteration over a non&#45;generic collection....">
<polygon fill="none" stroke="black" points="427.5,-271.5 427.5,-290.5 498.5,-290.5 498.5,-271.5 427.5,-271.5"/>
<text text-anchor="middle" x="463" y="-278.5" font-family="Helvetica,sans-Serif" font-size="10.00">IEnumerable</text>
</a>
</g>
</g>
<!-- Node15&#45;&gt;Node10 -->
<g id="edge19" class="edge"><title>Node15&#45;&gt;Node10</title>
<path fill="none" stroke="midnightblue" d="M508.791,-277.361C550.292,-272.197 605,-257.197 605,-214 605,-214 605,-214 605,-77 605,-44.4995 401.243,-27.7729 280.66,-20.7197"/>
<polygon fill="midnightblue" stroke="midnightblue" points="508.394,-273.884 498.833,-278.449 509.153,-280.843 508.394,-273.884"/>
</g>
<!-- Node15&#45;&gt;Node11 -->
<g id="edge9" class="edge"><title>Node15&#45;&gt;Node11</title>
<path fill="none" stroke="midnightblue" d="M505.034,-267.718C521.423,-260.646 538.523,-249.905 548,-234 573.72,-190.836 552.95,-161.099 518,-125 497.296,-103.615 420.872,-91.0214 366.197,-84.5653"/>
<polygon fill="midnightblue" stroke="midnightblue" points="503.545,-264.543 495.528,-271.47 506.115,-271.054 503.545,-264.543"/>
</g>
<!-- Node15&#45;&gt;Node12 -->
<g id="edge5" class="edge"><title>Node15&#45;&gt;Node12</title>
<path fill="none" stroke="midnightblue" d="M417.427,-276.24C383.825,-271.335 338.788,-260.034 308,-234 279.067,-209.535 266.045,-163.482 261.732,-144.505"/>
<polygon fill="midnightblue" stroke="midnightblue" points="417.087,-279.725 427.46,-277.566 418.005,-272.786 417.087,-279.725"/>
</g>
<!-- Node16 -->
<g id="node7" class="node"><title>Node16</title>
<g id="a_node7"><a xlink:href="interface_system_1_1_collections_1_1_i_collection.html" target="_top" xlink:title="Defines size, enumerators, and synchronization methods for all nongeneric collections.">
<polygon fill="none" stroke="black" points="477,-203.5 477,-222.5 539,-222.5 539,-203.5 477,-203.5"/>
<text text-anchor="middle" x="508" y="-210.5" font-family="Helvetica,sans-Serif" font-size="10.00">ICollection</text>
</a>
</g>
</g>
<!-- Node15&#45;&gt;Node16 -->
<g id="edge7" class="edge"><title>Node15&#45;&gt;Node16</title>
<path fill="none" stroke="midnightblue" d="M474.633,-262.938C483.378,-250.112 495.005,-233.059 501.972,-222.841"/>
<polygon fill="midnightblue" stroke="midnightblue" points="471.625,-261.138 468.883,-271.372 477.408,-265.081 471.625,-261.138"/>
</g>
<!-- Node15&#45;&gt;Node18 -->
<g id="edge14" class="edge"><title>Node15&#45;&gt;Node18</title>
<path fill="none" stroke="midnightblue" d="M445.534,-264.63C435.072,-255.424 421.666,-243.626 410.426,-233.735"/>
<polygon fill="midnightblue" stroke="midnightblue" points="443.376,-267.393 453.195,-271.372 448,-262.138 443.376,-267.393"/>
</g>
<!-- Node15&#45;&gt;Node19 -->
<g id="edge17" class="edge"><title>Node15&#45;&gt;Node19</title>
<path fill="none" stroke="midnightblue" d="M417.063,-276.786C378.565,-273.292 322.444,-266.323 275,-253 247.861,-245.379 218.147,-231.517 200.296,-222.538"/>
<polygon fill="midnightblue" stroke="midnightblue" points="417.168,-280.308 427.432,-277.681 417.771,-273.334 417.168,-280.308"/>
</g>
<!-- Node16&#45;&gt;Node11 -->
<g id="edge10" class="edge"><title>Node16&#45;&gt;Node11</title>
<path fill="none" stroke="midnightblue" d="M511.752,-193.275C514.49,-173.808 515.298,-143.629 499,-125 481.651,-105.17 415.674,-92.5207 366.085,-85.6076"/>
<polygon fill="midnightblue" stroke="midnightblue" points="508.268,-192.884 510.032,-203.331 515.168,-194.064 508.268,-192.884"/>
</g>
<!-- Node16&#45;&gt;Node12 -->
<g id="edge6" class="edge"><title>Node16&#45;&gt;Node12</title>
<path fill="none" stroke="midnightblue" d="M491.794,-196.355C479.237,-185.188 460.852,-170.814 442,-163 424.221,-155.63 382.855,-149.216 344.046,-144.491"/>
<polygon fill="midnightblue" stroke="midnightblue" points="489.766,-199.246 499.49,-203.453 494.512,-194.1 489.766,-199.246"/>
</g>
<!-- Node17 -->
<g id="node8" class="node"><title>Node17</title>
<g id="a_node8"><a xlink:href="interface_system_1_1_collections_1_1_generic_1_1_i_read_only_collection.html" target="_top" xlink:title=" ">
<polygon fill="none" stroke="black" points="362,-125.5 362,-144.5 490,-144.5 490,-125.5 362,-125.5"/>
<text text-anchor="middle" x="426" y="-132.5" font-family="Helvetica,sans-Serif" font-size="10.00">IReadOnlyCollection&lt; T &gt;</text>
</a>
</g>
</g>
<!-- Node17&#45;&gt;Node11 -->
<g id="edge11" class="edge"><title>Node17&#45;&gt;Node11</title>
<path fill="none" stroke="midnightblue" d="M398.315,-121.096C376.108,-110.745 345.568,-96.5106 326.308,-87.5334"/>
<polygon fill="midnightblue" stroke="midnightblue" points="397.02,-124.354 407.563,-125.406 399.977,-118.009 397.02,-124.354"/>
</g>
<!-- Node18&#45;&gt;Node17 -->
<g id="edge12" class="edge"><title>Node18&#45;&gt;Node17</title>
<path fill="none" stroke="orange" stroke-dasharray="5,2" d="M402.375,-183.249C409.275,-169.45 417.04,-153.919 421.724,-144.552"/>
<polygon fill="orange" stroke="orange" points="399.128,-181.919 397.786,-192.428 405.389,-185.049 399.128,-181.919"/>
<text text-anchor="middle" x="424.5" y="-166" font-family="Helvetica,sans-Serif" font-size="10.00"> &lt; T &gt;</text>
</g>
<!-- Node19&#45;&gt;Node10 -->
<g id="edge15" class="edge"><title>Node19&#45;&gt;Node10</title>
<path fill="none" stroke="midnightblue" d="M178.028,-193.644C174.015,-180.311 169.091,-161.746 167,-145 161.746,-102.926 178.38,-54.1565 187.869,-30.6315"/>
<polygon fill="midnightblue" stroke="midnightblue" points="174.773,-194.962 181.103,-203.458 181.453,-192.869 174.773,-194.962"/>
</g>
</g>
</svg>
        <g id="navigator" transform="translate(0 0)" fill="#404254">
                <rect fill="#f2f5e9" fill-opacity="0.5" stroke="#606060" stroke-width=".5" x="0" y="0" width="60" height="60"/>
                <use id="zoomplus" xlink:href="#zoomPlus" x="17" y="9" onmousedown="handleZoom(evt,'in')"/>
                <use id="zoomminus" xlink:href="#zoomMin" x="42" y="9" onmousedown="handleZoom(evt,'out')"/>
                <use id="reset" xlink:href="#resetDef" x="30" y="36" onmousedown="handleReset()"/>
                <g id="arrowUp" xlink:href="#dirArrow" transform="translate(30 24)" onmousedown="handlePan(0,-1)">
                  <use xlink:href="#rim" fill="#404040">
                        <set attributeName="fill" to="#808080" begin="arrowUp.mouseover" end="arrowUp.mouseout"/>
                  </use>
                  <path fill="none" stroke="white" stroke-width="1.5" d="M0,-3.0v7 M-2.5,-0.5L0,-3.0L2.5,-0.5"/>
                </g>
                <g id="arrowRight" xlink:href="#dirArrow" transform="rotate(90) translate(36 -43)" onmousedown="handlePan(1,0)">
                  <use xlink:href="#rim" fill="#404040">
                        <set attributeName="fill" to="#808080" begin="arrowRight.mouseover" end="arrowRight.mouseout"/>
                  </use>
                  <path fill="none" stroke="white" stroke-width="1.5" d="M0,-3.0v7 M-2.5,-0.5L0,-3.0L2.5,-0.5"/>
                </g>
                <g id="arrowDown" xlink:href="#dirArrow" transform="rotate(180) translate(-30 -48)" onmousedown="handlePan(0,1)">
                  <use xlink:href="#rim" fill="#404040">
                        <set attributeName="fill" to="#808080" begin="arrowDown.mouseover" end="arrowDown.mouseout"/>
                  </use>
                  <path fill="none" stroke="white" stroke-width="1.5" d="M0,-3.0v7 M-2.5,-0.5L0,-3.0L2.5,-0.5"/>
                </g>
                <g id="arrowLeft" xlink:href="#dirArrow" transform="rotate(270) translate(-36 17)" onmousedown="handlePan(-1,0)">
                  <use xlink:href="#rim" fill="#404040">
                        <set attributeName="fill" to="#808080" begin="arrowLeft.mouseover" end="arrowLeft.mouseout"/>
                  </use>
                  <path fill="none" stroke="white" stroke-width="1.5" d="M0,-3.0v7 M-2.5,-0.5L0,-3.0L2.5,-0.5"/>
                </g>
        </g>
        <svg viewBox="0 0 15 15" width="100%" height="30px" preserveAspectRatio="xMaxYMin meet">
         <g id="arrow_out" transform="scale(0.3 0.3)">
          <a xlink:href="class_system_1_1_threading_1_1_tasks_1_1_multi_producer_multi_consumer_queue__coll__graph_org.svg" target="_base">
           <rect id="button" ry="5" rx="5" y="6" x="6" height="38" width="38"
                fill="#f2f5e9" fill-opacity="0.5" stroke="#606060" stroke-width="1.0"/>
           <path id="arrow"
             d="M 11.500037,31.436501 C 11.940474,20.09759 22.043105,11.32322 32.158766,21.979434 L 37.068811,17.246167 C 37.068811,17.246167 37.088388,32 37.088388,32 L 22.160133,31.978069 C 22.160133,31.978069 26.997745,27.140456 26.997745,27.140456 C 18.528582,18.264221 13.291696,25.230495 11.500037,31.436501 z"
             style="fill:#404040;"/>
          </a>
         </g>
        </svg>
</svg>
