<?xml version="1.0" encoding="UTF-8" standalone="no"?>
<!DOCTYPE svg PUBLIC "-//W3C//DTD SVG 1.1//EN"
 "http://www.w3.org/Graphics/SVG/1.1/DTD/svg11.dtd">
<!-- Generated by graphviz version 2.38.0 (20140413.2041)
 -->
<!-- Title: System.ComponentModel.DesignerCategoryAttribute Pages: 1 -->
<svg width="246pt" height="109pt"
 viewBox="0.00 0.00 246.00 109.00" xmlns="http://www.w3.org/2000/svg" xmlns:xlink="http://www.w3.org/1999/xlink">
<g id="graph0" class="graph" transform="scale(1 1) rotate(0) translate(4 105)">
<title>System.ComponentModel.DesignerCategoryAttribute</title>
<!-- Node3 -->
<g id="node1" class="node"><title>Node3</title>
<g id="a_node1"><a xlink:title="Specifies that the designer for a class belongs to a certain category.">
<polygon fill="#bfbfbf" stroke="black" points="0,-7 0,-37 170,-37 170,-7 0,-7"/>
<text text-anchor="start" x="8" y="-25" font-family="Helvetica,sans-Serif" font-size="10.00">System.ComponentModel.Designer</text>
<text text-anchor="middle" x="85" y="-14" font-family="Helvetica,sans-Serif" font-size="10.00">CategoryAttribute</text>
</a>
</g>
</g>
<!-- Node3&#45;&gt;Node3 -->
<g id="edge2" class="edge"><title>Node3&#45;&gt;Node3</title>
<path fill="none" stroke="#9a32cd" stroke-dasharray="5,2" d="M180.216,-26.8928C185.109,-25.6829 188,-24.052 188,-22 188,-18.7969 180.955,-16.6198 170.249,-15.4686"/>
<polygon fill="#9a32cd" stroke="#9a32cd" points="179.549,-23.4553 170.249,-28.5314 180.685,-30.3626 179.549,-23.4553"/>
<text text-anchor="middle" x="213" y="-36" font-family="Helvetica,sans-Serif" font-size="10.00"> Form</text>
<text text-anchor="middle" x="213" y="-25" font-family="Helvetica,sans-Serif" font-size="10.00">Component</text>
<text text-anchor="middle" x="213" y="-14" font-family="Helvetica,sans-Serif" font-size="10.00">Generic</text>
<text text-anchor="middle" x="213" y="-3" font-family="Helvetica,sans-Serif" font-size="10.00">Default</text>
</g>
<!-- Node4 -->
<g id="node2" class="node"><title>Node4</title>
<g id="a_node2"><a xlink:href="class_system_1_1_attribute.html" target="_top" xlink:title="Represents the base class for custom attributes.">
<polygon fill="none" stroke="red" points="58.5,-81.5 58.5,-100.5 111.5,-100.5 111.5,-81.5 58.5,-81.5"/>
<text text-anchor="middle" x="85" y="-88.5" font-family="Helvetica,sans-Serif" font-size="10.00">Attribute</text>
</a>
</g>
</g>
<!-- Node4&#45;&gt;Node3 -->
<g id="edge1" class="edge"><title>Node4&#45;&gt;Node3</title>
<path fill="none" stroke="midnightblue" d="M85,-71.1565C85,-60.3613 85,-47.037 85,-37.1424"/>
<polygon fill="midnightblue" stroke="midnightblue" points="81.5001,-71.2409 85,-81.2409 88.5001,-71.241 81.5001,-71.2409"/>
</g>
</g>
</svg>
