<?xml version="1.0" encoding="UTF-8" standalone="no"?>
<!DOCTYPE svg PUBLIC "-//W3C//DTD SVG 1.1//EN"
 "http://www.w3.org/Graphics/SVG/1.1/DTD/svg11.dtd">
<!-- Generated by graphviz version 2.38.0 (20140413.2041)
 -->
<!-- Title: System.Security.AccessControl.AccessRule&lt; T &gt; Pages: 1 -->
<svg width="498pt" height="372pt"
 viewBox="0.00 0.00 498.00 371.50" xmlns="http://www.w3.org/2000/svg" xmlns:xlink="http://www.w3.org/1999/xlink">
<g id="graph0" class="graph" transform="scale(1 1) rotate(0) translate(4 367.5)">
<title>System.Security.AccessControl.AccessRule&lt; T &gt;</title>
<!-- Node0 -->
<g id="node1" class="node"><title>Node0</title>
<g id="a_node1"><a xlink:title="Represents a combination of a user&#39;s identity, an access mask, and an access control type (allow or d...">
<polygon fill="#bfbfbf" stroke="black" points="129,-171.5 129,-201.5 288,-201.5 288,-171.5 129,-171.5"/>
<text text-anchor="start" x="137" y="-189.5" font-family="Helvetica,sans-Serif" font-size="10.00">System.Security.AccessControl.</text>
<text text-anchor="middle" x="208.5" y="-178.5" font-family="Helvetica,sans-Serif" font-size="10.00">AccessRule&lt; T &gt;</text>
</a>
</g>
</g>
<!-- Node2 -->
<g id="node3" class="node"><title>Node2</title>
<g id="a_node3"><a xlink:href="class_system_1_1_i_o_1_1_pipes_1_1_pipe_access_rule.html" target="_top" xlink:title="Represents an abstraction of an access control entry (ACE) that defines an access rule for a pipe.">
<polygon fill="none" stroke="black" points="324,-344 324,-363 490,-363 490,-344 324,-344"/>
<text text-anchor="middle" x="407" y="-351" font-family="Helvetica,sans-Serif" font-size="10.00">System.IO.Pipes.PipeAccessRule</text>
</a>
</g>
</g>
<!-- Node0&#45;&gt;Node2 -->
<g id="edge2" class="edge"><title>Node0&#45;&gt;Node2</title>
<path fill="none" stroke="midnightblue" d="M221.508,-210.947C239.19,-244.279 275.459,-303.386 324,-334.5 330.028,-338.364 336.753,-341.445 343.687,-343.901"/>
<polygon fill="midnightblue" stroke="midnightblue" points="224.522,-209.157 216.821,-201.882 218.304,-212.372 224.522,-209.157"/>
</g>
<!-- Node3 -->
<g id="node4" class="node"><title>Node3</title>
<g id="a_node4"><a xlink:href="class_system_1_1_security_1_1_access_control_1_1_crypto_key_access_rule.html" target="_top" xlink:title="Represents an access rule for a cryptographic key. An access rule represents a combination of a user&#39;...">
<polygon fill="none" stroke="black" points="327.5,-294.5 327.5,-324.5 486.5,-324.5 486.5,-294.5 327.5,-294.5"/>
<text text-anchor="start" x="335.5" y="-312.5" font-family="Helvetica,sans-Serif" font-size="10.00">System.Security.AccessControl.</text>
<text text-anchor="middle" x="407" y="-301.5" font-family="Helvetica,sans-Serif" font-size="10.00">CryptoKeyAccessRule</text>
</a>
</g>
</g>
<!-- Node0&#45;&gt;Node3 -->
<g id="edge3" class="edge"><title>Node0&#45;&gt;Node3</title>
<path fill="none" stroke="midnightblue" d="M229.746,-208.913C251.131,-231.315 286.843,-265.258 324,-285.5 330.252,-288.906 337.043,-291.879 343.95,-294.461"/>
<polygon fill="midnightblue" stroke="midnightblue" points="232.195,-206.409 222.8,-201.512 227.091,-211.199 232.195,-206.409"/>
</g>
<!-- Node4 -->
<g id="node5" class="node"><title>Node4</title>
<g id="a_node5"><a xlink:href="class_system_1_1_security_1_1_access_control_1_1_event_wait_handle_access_rule.html" target="_top" xlink:title="Represents a set of access rights allowed or denied for a user or group. This class cannot be inherit...">
<polygon fill="none" stroke="black" points="327.5,-245.5 327.5,-275.5 486.5,-275.5 486.5,-245.5 327.5,-245.5"/>
<text text-anchor="start" x="335.5" y="-263.5" font-family="Helvetica,sans-Serif" font-size="10.00">System.Security.AccessControl.</text>
<text text-anchor="middle" x="407" y="-252.5" font-family="Helvetica,sans-Serif" font-size="10.00">EventWaitHandleAccessRule</text>
</a>
</g>
</g>
<!-- Node0&#45;&gt;Node4 -->
<g id="edge4" class="edge"><title>Node0&#45;&gt;Node4</title>
<path fill="none" stroke="midnightblue" d="M250.351,-205.846C271.976,-215.7 299.135,-227.473 324,-236.5 332.645,-239.638 341.912,-242.664 350.993,-245.448"/>
<polygon fill="midnightblue" stroke="midnightblue" points="251.688,-202.608 241.14,-201.612 248.765,-208.968 251.688,-202.608"/>
</g>
<!-- Node5 -->
<g id="node6" class="node"><title>Node5</title>
<g id="a_node6"><a xlink:href="class_system_1_1_security_1_1_access_control_1_1_file_system_access_rule.html" target="_top" xlink:title="Represents an abstraction of an access control entry (ACE) that defines an access rule for a file or ...">
<polygon fill="none" stroke="black" points="327.5,-196.5 327.5,-226.5 486.5,-226.5 486.5,-196.5 327.5,-196.5"/>
<text text-anchor="start" x="335.5" y="-214.5" font-family="Helvetica,sans-Serif" font-size="10.00">System.Security.AccessControl.</text>
<text text-anchor="middle" x="407" y="-203.5" font-family="Helvetica,sans-Serif" font-size="10.00">FileSystemAccessRule</text>
</a>
</g>
</g>
<!-- Node0&#45;&gt;Node5 -->
<g id="edge5" class="edge"><title>Node0&#45;&gt;Node5</title>
<path fill="none" stroke="midnightblue" d="M298.092,-197.771C307.828,-199.01 317.691,-200.265 327.295,-201.487"/>
<polygon fill="midnightblue" stroke="midnightblue" points="298.371,-194.279 288.009,-196.488 297.487,-201.223 298.371,-194.279"/>
</g>
<!-- Node6 -->
<g id="node7" class="node"><title>Node6</title>
<g id="a_node7"><a xlink:href="class_system_1_1_security_1_1_access_control_1_1_mutex_access_rule.html" target="_top" xlink:title="Represents a set of access rights allowed or denied for a user or group. This class cannot be inherit...">
<polygon fill="none" stroke="black" points="327.5,-147.5 327.5,-177.5 486.5,-177.5 486.5,-147.5 327.5,-147.5"/>
<text text-anchor="start" x="335.5" y="-165.5" font-family="Helvetica,sans-Serif" font-size="10.00">System.Security.AccessControl.</text>
<text text-anchor="middle" x="407" y="-154.5" font-family="Helvetica,sans-Serif" font-size="10.00">MutexAccessRule</text>
</a>
</g>
</g>
<!-- Node0&#45;&gt;Node6 -->
<g id="edge6" class="edge"><title>Node0&#45;&gt;Node6</title>
<path fill="none" stroke="midnightblue" d="M298.092,-175.68C307.828,-174.49 317.691,-173.286 327.295,-172.113"/>
<polygon fill="midnightblue" stroke="midnightblue" points="297.511,-172.224 288.009,-176.911 298.36,-179.173 297.511,-172.224"/>
</g>
<!-- Node7 -->
<g id="node8" class="node"><title>Node7</title>
<g id="a_node8"><a xlink:href="class_system_1_1_security_1_1_access_control_1_1_object_access_rule.html" target="_top" xlink:title="Represents a combination of a user&#39;s identity, an access mask, and an access control type (allow or d...">
<polygon fill="none" stroke="black" points="327.5,-98.5 327.5,-128.5 486.5,-128.5 486.5,-98.5 327.5,-98.5"/>
<text text-anchor="start" x="335.5" y="-116.5" font-family="Helvetica,sans-Serif" font-size="10.00">System.Security.AccessControl.</text>
<text text-anchor="middle" x="407" y="-105.5" font-family="Helvetica,sans-Serif" font-size="10.00">ObjectAccessRule</text>
</a>
</g>
</g>
<!-- Node0&#45;&gt;Node7 -->
<g id="edge7" class="edge"><title>Node0&#45;&gt;Node7</title>
<path fill="none" stroke="midnightblue" d="M251.32,-167.177C272.799,-157.618 299.535,-146.279 324,-137.5 332.656,-134.394 341.929,-131.384 351.013,-128.607"/>
<polygon fill="midnightblue" stroke="midnightblue" points="249.845,-164.002 242.154,-171.289 252.71,-170.389 249.845,-164.002"/>
</g>
<!-- Node8 -->
<g id="node9" class="node"><title>Node8</title>
<g id="a_node9"><a xlink:href="class_system_1_1_security_1_1_access_control_1_1_registry_access_rule.html" target="_top" xlink:title="Represents a set of access rights allowed or denied for a user or group. This class cannot be inherit...">
<polygon fill="none" stroke="black" points="327.5,-49.5 327.5,-79.5 486.5,-79.5 486.5,-49.5 327.5,-49.5"/>
<text text-anchor="start" x="335.5" y="-67.5" font-family="Helvetica,sans-Serif" font-size="10.00">System.Security.AccessControl.</text>
<text text-anchor="middle" x="407" y="-56.5" font-family="Helvetica,sans-Serif" font-size="10.00">RegistryAccessRule</text>
</a>
</g>
</g>
<!-- Node0&#45;&gt;Node8 -->
<g id="edge8" class="edge"><title>Node0&#45;&gt;Node8</title>
<path fill="none" stroke="midnightblue" d="M230.149,-163.953C251.61,-141.783 287.159,-108.451 324,-88.5 330.261,-85.1095 337.057,-82.1467 343.967,-79.5704"/>
<polygon fill="midnightblue" stroke="midnightblue" points="227.526,-161.632 223.167,-171.289 232.597,-166.458 227.526,-161.632"/>
</g>
<!-- Node9 -->
<g id="node10" class="node"><title>Node9</title>
<g id="a_node10"><a xlink:href="class_system_1_1_security_1_1_access_control_1_1_semaphore_access_rule.html" target="_top" xlink:title="Represents a set of access rights allowed or denied for a user or group. This class cannot be inherit...">
<polygon fill="none" stroke="black" points="327.5,-0.5 327.5,-30.5 486.5,-30.5 486.5,-0.5 327.5,-0.5"/>
<text text-anchor="start" x="335.5" y="-18.5" font-family="Helvetica,sans-Serif" font-size="10.00">System.Security.AccessControl.</text>
<text text-anchor="middle" x="407" y="-7.5" font-family="Helvetica,sans-Serif" font-size="10.00">SemaphoreAccessRule</text>
</a>
</g>
</g>
<!-- Node0&#45;&gt;Node9 -->
<g id="edge9" class="edge"><title>Node0&#45;&gt;Node9</title>
<path fill="none" stroke="midnightblue" d="M221.805,-162.604C239.837,-129.95 276.514,-71.7705 324,-39.5 329.03,-36.0817 334.552,-33.1427 340.28,-30.6171"/>
<polygon fill="midnightblue" stroke="midnightblue" points="218.686,-161.015 217.018,-171.478 224.846,-164.339 218.686,-161.015"/>
</g>
<!-- Node1 -->
<g id="node2" class="node"><title>Node1</title>
<g id="a_node2"><a xlink:href="class_system_1_1_security_1_1_access_control_1_1_authorization_rule.html" target="_top" xlink:title="Determines access to securable objects. The derived classes T:System.Security.AccessControl....">
<polygon fill="none" stroke="black" points="0,-177 0,-196 93,-196 93,-177 0,-177"/>
<text text-anchor="middle" x="46.5" y="-184" font-family="Helvetica,sans-Serif" font-size="10.00">AuthorizationRule</text>
</a>
</g>
</g>
<!-- Node1&#45;&gt;Node0 -->
<g id="edge1" class="edge"><title>Node1&#45;&gt;Node0</title>
<path fill="none" stroke="midnightblue" d="M103.474,-186.5C111.646,-186.5 120.186,-186.5 128.708,-186.5"/>
<polygon fill="midnightblue" stroke="midnightblue" points="103.35,-183 93.3496,-186.5 103.35,-190 103.35,-183"/>
</g>
</g>
</svg>
