<?xml version="1.0" encoding="UTF-8" standalone="no"?>
<!DOCTYPE svg PUBLIC "-//W3C//DTD SVG 1.1//EN"
 "http://www.w3.org/Graphics/SVG/1.1/DTD/svg11.dtd">
<!-- Generated by graphviz version 2.38.0 (20140413.2041)
 -->
<!-- Title: System.ComponentModel.Design.HelpKeywordAttribute Pages: 1 -->
<svg width="225pt" height="96pt"
 viewBox="0.00 0.00 225.00 96.00" xmlns="http://www.w3.org/2000/svg" xmlns:xlink="http://www.w3.org/1999/xlink">
<g id="graph0" class="graph" transform="scale(1 1) rotate(0) translate(4 92)">
<title>System.ComponentModel.Design.HelpKeywordAttribute</title>
<!-- Node3 -->
<g id="node1" class="node"><title>Node3</title>
<g id="a_node1"><a xlink:title="Specifies the context keyword for a class or member. This class cannot be inherited.">
<polygon fill="#bfbfbf" stroke="black" points="0,-0.5 0,-30.5 165,-30.5 165,-0.5 0,-0.5"/>
<text text-anchor="start" x="8" y="-18.5" font-family="Helvetica,sans-Serif" font-size="10.00">System.ComponentModel.Design.</text>
<text text-anchor="middle" x="82.5" y="-7.5" font-family="Helvetica,sans-Serif" font-size="10.00">HelpKeywordAttribute</text>
</a>
</g>
</g>
<!-- Node3&#45;&gt;Node3 -->
<g id="edge2" class="edge"><title>Node3&#45;&gt;Node3</title>
<path fill="none" stroke="#9a32cd" stroke-dasharray="5,2" d="M175.229,-19.6963C180.11,-18.6643 183,-17.2655 183,-15.5 183,-12.7441 175.957,-10.8818 165.296,-9.91293"/>
<polygon fill="#9a32cd" stroke="#9a32cd" points="174.715,-16.2342 165.296,-21.0871 175.685,-23.1666 174.715,-16.2342"/>
<text text-anchor="middle" x="200" y="-13" font-family="Helvetica,sans-Serif" font-size="10.00"> Default</text>
</g>
<!-- Node4 -->
<g id="node2" class="node"><title>Node4</title>
<g id="a_node2"><a xlink:href="class_system_1_1_attribute.html" target="_top" xlink:title="Represents the base class for custom attributes.">
<polygon fill="none" stroke="red" points="56,-68.5 56,-87.5 109,-87.5 109,-68.5 56,-68.5"/>
<text text-anchor="middle" x="82.5" y="-75.5" font-family="Helvetica,sans-Serif" font-size="10.00">Attribute</text>
</a>
</g>
</g>
<!-- Node4&#45;&gt;Node3 -->
<g id="edge1" class="edge"><title>Node4&#45;&gt;Node3</title>
<path fill="none" stroke="midnightblue" d="M82.5,-58.2154C82.5,-49.3565 82.5,-38.9577 82.5,-30.7587"/>
<polygon fill="midnightblue" stroke="midnightblue" points="79.0001,-58.3318 82.5,-68.3318 86.0001,-58.3319 79.0001,-58.3318"/>
</g>
</g>
</svg>
