<?xml version="1.0" encoding="UTF-8" standalone="no"?>
<!DOCTYPE svg PUBLIC "-//W3C//DTD SVG 1.1//EN"
 "http://www.w3.org/Graphics/SVG/1.1/DTD/svg11.dtd">
<!-- Generated by graphviz version 2.38.0 (20140413.2041)
 -->
<!-- Title: System.ArgumentOutOfRangeException Pages: 1 -->
<svg width="204pt" height="263pt"
 viewBox="0.00 0.00 203.50 263.00" xmlns="http://www.w3.org/2000/svg" xmlns:xlink="http://www.w3.org/1999/xlink">
<g id="graph0" class="graph" transform="scale(1 1) rotate(0) translate(4 259)">
<title>System.ArgumentOutOfRangeException</title>
<!-- Node0 -->
<g id="node1" class="node"><title>Node0</title>
<g id="a_node1"><a xlink:title="The exception that is thrown when the value of an argument is outside the allowable range of values a...">
<polygon fill="#bfbfbf" stroke="black" points="0,-0.5 0,-30.5 149,-30.5 149,-0.5 0,-0.5"/>
<text text-anchor="start" x="8" y="-18.5" font-family="Helvetica,sans-Serif" font-size="10.00">System.ArgumentOutOfRange</text>
<text text-anchor="middle" x="74.5" y="-7.5" font-family="Helvetica,sans-Serif" font-size="10.00">Exception</text>
</a>
</g>
</g>
<!-- Node1 -->
<g id="node2" class="node"><title>Node1</title>
<g id="a_node2"><a xlink:href="class_system_1_1_argument_exception.html" target="_top" xlink:title="The exception that is thrown when one of the arguments provided to a method is not valid.">
<polygon fill="none" stroke="black" points="63.5,-67.5 63.5,-86.5 165.5,-86.5 165.5,-67.5 63.5,-67.5"/>
<text text-anchor="middle" x="114.5" y="-74.5" font-family="Helvetica,sans-Serif" font-size="10.00">ArgumentException</text>
</a>
</g>
</g>
<!-- Node1&#45;&gt;Node0 -->
<g id="edge1" class="edge"><title>Node1&#45;&gt;Node0</title>
<path fill="none" stroke="midnightblue" d="M103.047,-58.9634C96.9917,-49.9564 89.6492,-39.0344 83.9272,-30.523"/>
<polygon fill="midnightblue" stroke="midnightblue" points="100.285,-61.1288 108.769,-67.4751 106.094,-57.2234 100.285,-61.1288"/>
</g>
<!-- Node2 -->
<g id="node3" class="node"><title>Node2</title>
<g id="a_node3"><a xlink:href="class_system_1_1_system_exception.html" target="_top" xlink:title="Serves as the base class for system exceptions namespace.">
<polygon fill="none" stroke="black" points="101.5,-123.5 101.5,-142.5 195.5,-142.5 195.5,-123.5 101.5,-123.5"/>
<text text-anchor="middle" x="148.5" y="-130.5" font-family="Helvetica,sans-Serif" font-size="10.00">SystemException</text>
</a>
</g>
</g>
<!-- Node2&#45;&gt;Node1 -->
<g id="edge2" class="edge"><title>Node2&#45;&gt;Node1</title>
<path fill="none" stroke="midnightblue" d="M137.523,-114.566C131.673,-105.275 124.73,-94.2484 120.01,-86.7511"/>
<polygon fill="midnightblue" stroke="midnightblue" points="134.596,-116.486 142.886,-123.083 140.519,-112.756 134.596,-116.486"/>
</g>
<!-- Node3 -->
<g id="node4" class="node"><title>Node3</title>
<g id="a_node4"><a xlink:href="class_system_1_1_exception.html" target="_top" xlink:title="Represents errors that occur during application execution.To browse the .NET Framework source code fo...">
<polygon fill="none" stroke="black" points="118.5,-179.5 118.5,-198.5 178.5,-198.5 178.5,-179.5 118.5,-179.5"/>
<text text-anchor="middle" x="148.5" y="-186.5" font-family="Helvetica,sans-Serif" font-size="10.00">Exception</text>
</a>
</g>
</g>
<!-- Node3&#45;&gt;Node2 -->
<g id="edge3" class="edge"><title>Node3&#45;&gt;Node2</title>
<path fill="none" stroke="midnightblue" d="M148.5,-168.805C148.5,-159.91 148.5,-149.78 148.5,-142.751"/>
<polygon fill="midnightblue" stroke="midnightblue" points="145,-169.083 148.5,-179.083 152,-169.083 145,-169.083"/>
</g>
<!-- Node4 -->
<g id="node5" class="node"><title>Node4</title>
<g id="a_node5"><a xlink:href="interface_system_1_1_runtime_1_1_serialization_1_1_i_serializable.html" target="_top" xlink:title="Allows an object to control its own serialization and deserialization.">
<polygon fill="none" stroke="black" points="34,-235.5 34,-254.5 103,-254.5 103,-235.5 34,-235.5"/>
<text text-anchor="middle" x="68.5" y="-242.5" font-family="Helvetica,sans-Serif" font-size="10.00">ISerializable</text>
</a>
</g>
</g>
<!-- Node4&#45;&gt;Node0 -->
<g id="edge7" class="edge"><title>Node4&#45;&gt;Node0</title>
<path fill="none" stroke="midnightblue" d="M63.8511,-225.604C56.3807,-193.244 43.5952,-124.15 54.5,-67 56.9391,-54.2174 62.5603,-40.5413 67.2241,-30.6495"/>
<polygon fill="midnightblue" stroke="midnightblue" points="60.476,-226.538 66.2243,-235.438 67.2807,-224.896 60.476,-226.538"/>
</g>
<!-- Node4&#45;&gt;Node1 -->
<g id="edge6" class="edge"><title>Node4&#45;&gt;Node1</title>
<path fill="none" stroke="midnightblue" d="M70.7135,-225.05C73.8833,-200.891 80.6786,-158.053 92.5,-123 96.9463,-109.816 104.428,-95.5336 109.415,-86.6761"/>
<polygon fill="midnightblue" stroke="midnightblue" points="67.2006,-224.938 69.4425,-235.293 74.1474,-225.8 67.2006,-224.938"/>
</g>
<!-- Node4&#45;&gt;Node3 -->
<g id="edge4" class="edge"><title>Node4&#45;&gt;Node3</title>
<path fill="none" stroke="midnightblue" d="M89.8006,-229.622C104.415,-219.757 123.327,-206.992 135.679,-198.655"/>
<polygon fill="midnightblue" stroke="midnightblue" points="87.6837,-226.828 81.3534,-235.324 91.6001,-232.63 87.6837,-226.828"/>
</g>
<!-- Node5 -->
<g id="node6" class="node"><title>Node5</title>
<g id="a_node6"><a xlink:href="interface_system_1_1_runtime_1_1_interop_services_1_1___exception.html" target="_top" xlink:title="Exposes the public members of the T:System.Exception class to unmanaged code.">
<polygon fill="none" stroke="black" points="121,-235.5 121,-254.5 186,-254.5 186,-235.5 121,-235.5"/>
<text text-anchor="middle" x="153.5" y="-242.5" font-family="Helvetica,sans-Serif" font-size="10.00">_Exception</text>
</a>
</g>
</g>
<!-- Node5&#45;&gt;Node3 -->
<g id="edge5" class="edge"><title>Node5&#45;&gt;Node3</title>
<path fill="none" stroke="midnightblue" d="M151.75,-225.101C150.92,-216.136 149.968,-205.858 149.31,-198.751"/>
<polygon fill="midnightblue" stroke="midnightblue" points="148.267,-225.448 152.674,-235.083 155.237,-224.803 148.267,-225.448"/>
</g>
</g>
</svg>
