<?xml version="1.0" encoding="UTF-8" standalone="no"?>
<!DOCTYPE svg PUBLIC "-//W3C//DTD SVG 1.1//EN"
 "http://www.w3.org/Graphics/SVG/1.1/DTD/svg11.dtd">
<!-- Generated by graphviz version 2.38.0 (20140413.2041)
 -->
<!-- Title: System.Threading.Tasks.UnwrapPromise&lt; TResult &gt; Pages: 1 -->
<svg width="353pt" height="151pt"
 viewBox="0.00 0.00 353.00 151.00" xmlns="http://www.w3.org/2000/svg" xmlns:xlink="http://www.w3.org/1999/xlink">
<g id="graph0" class="graph" transform="scale(1 1) rotate(0) translate(4 147)">
<title>System.Threading.Tasks.UnwrapPromise&lt; TResult &gt;</title>
<!-- Node0 -->
<g id="node1" class="node"><title>Node0</title>
<g id="a_node1"><a xlink:title=" ">
<polygon fill="#bfbfbf" stroke="black" points="146,-0.5 146,-30.5 306,-30.5 306,-0.5 146,-0.5"/>
<text text-anchor="start" x="154" y="-18.5" font-family="Helvetica,sans-Serif" font-size="10.00">System.Threading.Tasks.Unwrap</text>
<text text-anchor="middle" x="226" y="-7.5" font-family="Helvetica,sans-Serif" font-size="10.00">Promise&lt; TResult &gt;</text>
</a>
</g>
</g>
<!-- Node1 -->
<g id="node2" class="node"><title>Node1</title>
<g id="a_node2"><a xlink:href="class_system_1_1_threading_1_1_tasks_1_1_task.html" target="_top" xlink:title="Represents an asynchronous operation that can return a value.">
<polygon fill="none" stroke="black" points="121.5,-67.5 121.5,-86.5 210.5,-86.5 210.5,-67.5 121.5,-67.5"/>
<text text-anchor="middle" x="166" y="-74.5" font-family="Helvetica,sans-Serif" font-size="10.00">Task&lt; TResult &gt;</text>
</a>
</g>
</g>
<!-- Node1&#45;&gt;Node0 -->
<g id="edge1" class="edge"><title>Node1&#45;&gt;Node0</title>
<path fill="none" stroke="midnightblue" d="M181.762,-60.369C191.096,-51.1127 202.824,-39.4824 211.859,-30.523"/>
<polygon fill="midnightblue" stroke="midnightblue" points="179.233,-57.9484 174.597,-67.4751 184.162,-62.9189 179.233,-57.9484"/>
</g>
<!-- Node2 -->
<g id="node3" class="node"><title>Node2</title>
<g id="a_node3"><a xlink:title=" ">
<polygon fill="none" stroke="#bfbfbf" points="0,-123.5 0,-142.5 38,-142.5 38,-123.5 0,-123.5"/>
<text text-anchor="middle" x="19" y="-130.5" font-family="Helvetica,sans-Serif" font-size="10.00">Task</text>
</a>
</g>
</g>
<!-- Node2&#45;&gt;Node1 -->
<g id="edge2" class="edge"><title>Node2&#45;&gt;Node1</title>
<path fill="none" stroke="midnightblue" d="M47.7272,-121.447C75.3605,-111.296 116.634,-96.1344 142.402,-86.6685"/>
<polygon fill="midnightblue" stroke="midnightblue" points="46.3975,-118.207 38.2177,-124.94 48.8113,-124.778 46.3975,-118.207"/>
</g>
<!-- Node3 -->
<g id="node4" class="node"><title>Node3</title>
<g id="a_node4"><a xlink:href="interface_system_1_1_threading_1_1_i_thread_pool_work_item.html" target="_top" xlink:title=" ">
<polygon fill="none" stroke="black" points="56,-123.5 56,-142.5 166,-142.5 166,-123.5 56,-123.5"/>
<text text-anchor="middle" x="111" y="-130.5" font-family="Helvetica,sans-Serif" font-size="10.00">IThreadPoolWorkItem</text>
</a>
</g>
</g>
<!-- Node3&#45;&gt;Node1 -->
<g id="edge3" class="edge"><title>Node3&#45;&gt;Node1</title>
<path fill="none" stroke="midnightblue" d="M127.294,-116.002C137.041,-106.433 149.053,-94.6389 157.087,-86.7511"/>
<polygon fill="midnightblue" stroke="midnightblue" points="124.766,-113.58 120.082,-123.083 129.67,-118.575 124.766,-113.58"/>
</g>
<!-- Node4 -->
<g id="node5" class="node"><title>Node4</title>
<g id="a_node5"><a xlink:href="interface_system_1_1_i_async_result.html" target="_top" xlink:title="Represents the status of an asynchronous operation.">
<polygon fill="none" stroke="black" points="184,-123.5 184,-142.5 258,-142.5 258,-123.5 184,-123.5"/>
<text text-anchor="middle" x="221" y="-130.5" font-family="Helvetica,sans-Serif" font-size="10.00">IAsyncResult</text>
</a>
</g>
</g>
<!-- Node4&#45;&gt;Node1 -->
<g id="edge4" class="edge"><title>Node4&#45;&gt;Node1</title>
<path fill="none" stroke="midnightblue" d="M204.706,-116.002C194.959,-106.433 182.947,-94.6389 174.913,-86.7511"/>
<polygon fill="midnightblue" stroke="midnightblue" points="202.33,-118.575 211.918,-123.083 207.234,-113.58 202.33,-118.575"/>
</g>
<!-- Node5 -->
<g id="node6" class="node"><title>Node5</title>
<g id="a_node6"><a xlink:href="interface_system_1_1_i_disposable.html" target="_top" xlink:title="Provides a mechanism for releasing unmanaged resources.To browse the .NET Framework source code for t...">
<polygon fill="none" stroke="black" points="276.5,-123.5 276.5,-142.5 343.5,-142.5 343.5,-123.5 276.5,-123.5"/>
<text text-anchor="middle" x="310" y="-130.5" font-family="Helvetica,sans-Serif" font-size="10.00">IDisposable</text>
</a>
</g>
</g>
<!-- Node5&#45;&gt;Node1 -->
<g id="edge5" class="edge"><title>Node5&#45;&gt;Node1</title>
<path fill="none" stroke="midnightblue" d="M277.749,-119.906C250.676,-109.754 212.683,-95.5063 188.71,-86.5164"/>
<polygon fill="midnightblue" stroke="midnightblue" points="276.591,-123.209 287.183,-123.444 279.048,-116.655 276.591,-123.209"/>
</g>
<!-- Node6 -->
<g id="node7" class="node"><title>Node6</title>
<g id="a_node7"><a xlink:href="interface_system_1_1_threading_1_1_tasks_1_1_i_task_completion_action.html" target="_top" xlink:title=" ">
<polygon fill="none" stroke="black" points="229,-67.5 229,-86.5 345,-86.5 345,-67.5 229,-67.5"/>
<text text-anchor="middle" x="287" y="-74.5" font-family="Helvetica,sans-Serif" font-size="10.00">ITaskCompletionAction</text>
</a>
</g>
</g>
<!-- Node6&#45;&gt;Node0 -->
<g id="edge6" class="edge"><title>Node6&#45;&gt;Node0</title>
<path fill="none" stroke="midnightblue" d="M270.975,-60.369C261.485,-51.1127 249.562,-39.4824 240.376,-30.523"/>
<polygon fill="midnightblue" stroke="midnightblue" points="268.658,-62.9981 278.26,-67.4751 273.546,-57.9871 268.658,-62.9981"/>
</g>
</g>
</svg>
