<?xml version="1.0" encoding="UTF-8" standalone="no"?>
<!DOCTYPE svg PUBLIC "-//W3C//DTD SVG 1.1//EN"
 "http://www.w3.org/Graphics/SVG/1.1/DTD/svg11.dtd">
<!-- Generated by graphviz version 2.38.0 (20140413.2041)
 -->
<!-- Title: System.Security.Cryptography.SymmetricAlgorithm Pages: 1 -->
<svg width="247pt" height="150pt"
 viewBox="0.00 0.00 246.50 150.00" xmlns="http://www.w3.org/2000/svg" xmlns:xlink="http://www.w3.org/1999/xlink">
<g id="graph0" class="graph" transform="scale(1 1) rotate(0) translate(4 146)">
<title>System.Security.Cryptography.SymmetricAlgorithm</title>
<!-- Node11 -->
<g id="node1" class="node"><title>Node11</title>
<g id="a_node1"><a xlink:title="Represents the abstract base class from which all implementations of symmetric algorithms must inheri...">
<polygon fill="#bfbfbf" stroke="black" points="21,-0.5 21,-30.5 174,-30.5 174,-0.5 21,-0.5"/>
<text text-anchor="start" x="29" y="-18.5" font-family="Helvetica,sans-Serif" font-size="10.00">System.Security.Cryptography.</text>
<text text-anchor="middle" x="97.5" y="-7.5" font-family="Helvetica,sans-Serif" font-size="10.00">SymmetricAlgorithm</text>
</a>
</g>
</g>
<!-- Node12 -->
<g id="node2" class="node"><title>Node12</title>
<g id="a_node2"><a xlink:href="interface_system_1_1_i_disposable.html" target="_top" xlink:title="Provides a mechanism for releasing unmanaged resources.To browse the .NET Framework source code for t...">
<polygon fill="none" stroke="black" points="0,-117 0,-136 67,-136 67,-117 0,-117"/>
<text text-anchor="middle" x="33.5" y="-124" font-family="Helvetica,sans-Serif" font-size="10.00">IDisposable</text>
</a>
</g>
</g>
<!-- Node12&#45;&gt;Node11 -->
<g id="edge1" class="edge"><title>Node12&#45;&gt;Node11</title>
<path fill="none" stroke="midnightblue" d="M43.6289,-108.249C56.2109,-86.8205 77.4426,-50.6603 89.1413,-30.7359"/>
<polygon fill="midnightblue" stroke="midnightblue" points="40.5671,-106.551 38.522,-116.947 46.6035,-110.096 40.5671,-106.551"/>
</g>
<!-- Node13 -->
<g id="node3" class="node"><title>Node13</title>
<g id="a_node3"><a xlink:href="class_system_1_1_security_1_1_cryptography_1_1_key_sizes.html" target="_top" xlink:title="Determines the set of valid key sizes for the symmetric cryptographic algorithms.">
<polygon fill="none" stroke="black" points="85,-111.5 85,-141.5 238,-141.5 238,-111.5 85,-111.5"/>
<text text-anchor="start" x="93" y="-129.5" font-family="Helvetica,sans-Serif" font-size="10.00">System.Security.Cryptography.</text>
<text text-anchor="middle" x="161.5" y="-118.5" font-family="Helvetica,sans-Serif" font-size="10.00">KeySizes</text>
</a>
</g>
</g>
<!-- Node13&#45;&gt;Node11 -->
<g id="edge2" class="edge"><title>Node13&#45;&gt;Node11</title>
<path fill="none" stroke="#9a32cd" stroke-dasharray="5,2" d="M147.913,-102.359C135.181,-80.6753 116.554,-48.952 105.869,-30.7533"/>
<polygon fill="#9a32cd" stroke="#9a32cd" points="145.052,-104.399 153.133,-111.25 151.088,-100.855 145.052,-104.399"/>
<text text-anchor="middle" x="189.5" y="-85" font-family="Helvetica,sans-Serif" font-size="10.00"> LegalKeySizes</text>
<text text-anchor="middle" x="189.5" y="-74" font-family="Helvetica,sans-Serif" font-size="10.00">LegalBlockSizesValue</text>
<text text-anchor="middle" x="189.5" y="-63" font-family="Helvetica,sans-Serif" font-size="10.00">LegalBlockSizes</text>
<text text-anchor="middle" x="189.5" y="-52" font-family="Helvetica,sans-Serif" font-size="10.00">LegalKeySizesValue</text>
</g>
</g>
</svg>
