<?xml version="1.0" encoding="UTF-8" standalone="no"?>
<!DOCTYPE svg PUBLIC "-//W3C//DTD SVG 1.1//EN"
 "http://www.w3.org/Graphics/SVG/1.1/DTD/svg11.dtd">
<!-- Generated by graphviz version 2.38.0 (20140413.2041)
 -->
<!-- Title: System.Diagnostics.PerformanceData.CounterSetInstance Pages: 1 -->
<svg width="295pt" height="174pt"
 viewBox="0.00 0.00 295.00 174.00" xmlns="http://www.w3.org/2000/svg" xmlns:xlink="http://www.w3.org/1999/xlink">
<g id="graph0" class="graph" transform="scale(1 1) rotate(0) translate(4 170)">
<title>System.Diagnostics.PerformanceData.CounterSetInstance</title>
<!-- Node2 -->
<g id="node1" class="node"><title>Node2</title>
<g id="a_node1"><a xlink:title="Creates an instance of the logical counters defined in the T:System.Diagnostics.PerformanceData....">
<polygon fill="#bfbfbf" stroke="black" points="0,-0.5 0,-30.5 162,-30.5 162,-0.5 0,-0.5"/>
<text text-anchor="start" x="8" y="-18.5" font-family="Helvetica,sans-Serif" font-size="10.00">System.Diagnostics.Performance</text>
<text text-anchor="middle" x="81" y="-7.5" font-family="Helvetica,sans-Serif" font-size="10.00">Data.CounterSetInstance</text>
</a>
</g>
</g>
<!-- Node3 -->
<g id="node2" class="node"><title>Node3</title>
<g id="a_node2"><a xlink:href="interface_system_1_1_i_disposable.html" target="_top" xlink:title="Provides a mechanism for releasing unmanaged resources.To browse the .NET Framework source code for t...">
<polygon fill="none" stroke="black" points="68.5,-146.5 68.5,-165.5 135.5,-165.5 135.5,-146.5 68.5,-146.5"/>
<text text-anchor="middle" x="102" y="-153.5" font-family="Helvetica,sans-Serif" font-size="10.00">IDisposable</text>
</a>
</g>
</g>
<!-- Node3&#45;&gt;Node2 -->
<g id="edge1" class="edge"><title>Node3&#45;&gt;Node2</title>
<path fill="none" stroke="midnightblue" d="M93.4568,-137.337C89.8309,-128.955 85.9884,-118.675 84,-109 78.404,-81.7724 79.0013,-49.1017 79.9769,-30.7789"/>
<polygon fill="midnightblue" stroke="midnightblue" points="90.2858,-138.819 97.6329,-146.453 96.6498,-135.904 90.2858,-138.819"/>
</g>
<!-- Node4 -->
<g id="node3" class="node"><title>Node4</title>
<g id="a_node3"><a xlink:href="class_system_1_1_diagnostics_1_1_performance_data_1_1_counter_set_instance_counter_data_set.html" target="_top" xlink:title="Contains the collection of counter values.">
<polygon fill="none" stroke="black" points="93,-78.5 93,-108.5 287,-108.5 287,-78.5 93,-78.5"/>
<text text-anchor="start" x="101" y="-96.5" font-family="Helvetica,sans-Serif" font-size="10.00">System.Diagnostics.Performance</text>
<text text-anchor="middle" x="190" y="-85.5" font-family="Helvetica,sans-Serif" font-size="10.00">Data.CounterSetInstanceCounterDataSet</text>
</a>
</g>
</g>
<!-- Node3&#45;&gt;Node4 -->
<g id="edge3" class="edge"><title>Node3&#45;&gt;Node4</title>
<path fill="none" stroke="midnightblue" d="M123.153,-140.457C137.245,-130.769 155.664,-118.106 169.598,-108.526"/>
<polygon fill="midnightblue" stroke="midnightblue" points="120.866,-137.782 114.608,-146.332 124.832,-143.551 120.866,-137.782"/>
</g>
<!-- Node4&#45;&gt;Node2 -->
<g id="edge2" class="edge"><title>Node4&#45;&gt;Node2</title>
<path fill="none" stroke="#9a32cd" stroke-dasharray="5,2" d="M161.474,-72.6106C142.516,-59.3919 118.084,-42.3569 101.138,-30.5413"/>
<polygon fill="#9a32cd" stroke="#9a32cd" points="159.549,-75.5346 169.753,-78.3831 163.552,-69.7926 159.549,-75.5346"/>
<text text-anchor="middle" x="163.5" y="-52" font-family="Helvetica,sans-Serif" font-size="10.00"> Counters</text>
</g>
</g>
</svg>
