<?xml version="1.0" encoding="UTF-8" standalone="no"?>
<!DOCTYPE svg PUBLIC "-//W3C//DTD SVG 1.1//EN"
 "http://www.w3.org/Graphics/SVG/1.1/DTD/svg11.dtd">
<!-- Generated by graphviz version 2.38.0 (20140413.2041)
 -->
<!-- Title: System.Runtime.InteropServices.WindowsRuntime.ReadOnlyDictionaryKeyCollection&lt; TKey, TValue &gt; Pages: 1 -->
<svg width="250pt" height="242pt"
 viewBox="0.00 0.00 250.00 242.00" xmlns="http://www.w3.org/2000/svg" xmlns:xlink="http://www.w3.org/1999/xlink">
<g id="graph0" class="graph" transform="scale(1 1) rotate(0) translate(4 238)">
<title>System.Runtime.InteropServices.WindowsRuntime.ReadOnlyDictionaryKeyCollection&lt; TKey, TValue &gt;</title>
<!-- Node4 -->
<g id="node1" class="node"><title>Node4</title>
<g id="a_node1"><a xlink:title=" ">
<polygon fill="#bfbfbf" stroke="black" points="0,-0.5 0,-41.5 199,-41.5 199,-0.5 0,-0.5"/>
<text text-anchor="start" x="8" y="-29.5" font-family="Helvetica,sans-Serif" font-size="10.00">System.Runtime.InteropServices.</text>
<text text-anchor="start" x="8" y="-18.5" font-family="Helvetica,sans-Serif" font-size="10.00">WindowsRuntime.ReadOnlyDictionaryKey</text>
<text text-anchor="middle" x="99.5" y="-7.5" font-family="Helvetica,sans-Serif" font-size="10.00">Collection&lt; TKey, TValue &gt;</text>
</a>
</g>
</g>
<!-- Node5 -->
<g id="node2" class="node"><title>Node5</title>
<g id="a_node2"><a xlink:href="interface_system_1_1_collections_1_1_generic_1_1_i_enumerable.html" target="_top" xlink:title=" ">
<polygon fill="none" stroke="black" points="108,-79.5 108,-98.5 219,-98.5 219,-79.5 108,-79.5"/>
<text text-anchor="middle" x="163.5" y="-86.5" font-family="Helvetica,sans-Serif" font-size="10.00">IEnumerable&lt; TKey &gt;</text>
</a>
</g>
</g>
<!-- Node5&#45;&gt;Node4 -->
<g id="edge1" class="edge"><title>Node5&#45;&gt;Node4</title>
<path fill="none" stroke="midnightblue" d="M148.062,-72.0799C139.216,-62.957 128.038,-51.4299 118.637,-41.7351"/>
<polygon fill="midnightblue" stroke="midnightblue" points="145.659,-74.6291 155.133,-79.3717 150.684,-69.7561 145.659,-74.6291"/>
</g>
<!-- Node6 -->
<g id="node3" class="node"><title>Node6</title>
<g id="a_node3"><a xlink:href="interface_system_1_1_collections_1_1_generic_1_1_i_enumerable.html" target="_top" xlink:title="Exposes the enumerator, which supports a simple iteration over a collection of a specified type....">
<polygon fill="none" stroke="black" points="101,-146.5 101,-176.5 242,-176.5 242,-146.5 101,-146.5"/>
<text text-anchor="start" x="109" y="-164.5" font-family="Helvetica,sans-Serif" font-size="10.00">System.Collections.Generic.</text>
<text text-anchor="middle" x="171.5" y="-153.5" font-family="Helvetica,sans-Serif" font-size="10.00">IEnumerable&lt; out out T &gt;</text>
</a>
</g>
</g>
<!-- Node6&#45;&gt;Node5 -->
<g id="edge2" class="edge"><title>Node6&#45;&gt;Node5</title>
<path fill="none" stroke="orange" stroke-dasharray="5,2" d="M168.73,-136.091C167.269,-123.214 165.565,-108.197 164.509,-98.8932"/>
<polygon fill="orange" stroke="orange" points="165.276,-136.692 169.881,-146.233 172.231,-135.902 165.276,-136.692"/>
<text text-anchor="middle" x="189.5" y="-120" font-family="Helvetica,sans-Serif" font-size="10.00"> &lt; TKey &gt;</text>
</g>
<!-- Node7 -->
<g id="node4" class="node"><title>Node7</title>
<g id="a_node4"><a xlink:href="interface_system_1_1_collections_1_1_i_enumerable.html" target="_top" xlink:title="Exposes an enumerator, which supports a simple iteration over a non&#45;generic collection....">
<polygon fill="none" stroke="black" points="68,-214.5 68,-233.5 139,-233.5 139,-214.5 68,-214.5"/>
<text text-anchor="middle" x="103.5" y="-221.5" font-family="Helvetica,sans-Serif" font-size="10.00">IEnumerable</text>
</a>
</g>
</g>
<!-- Node7&#45;&gt;Node4 -->
<g id="edge4" class="edge"><title>Node7&#45;&gt;Node4</title>
<path fill="none" stroke="midnightblue" d="M97.5381,-204.555C95.1481,-196.233 92.683,-186.221 91.5,-177 85.2941,-128.625 91.8629,-71.1718 96.2444,-41.6599"/>
<polygon fill="midnightblue" stroke="midnightblue" points="94.2507,-205.774 100.523,-214.313 100.945,-203.726 94.2507,-205.774"/>
</g>
<!-- Node7&#45;&gt;Node6 -->
<g id="edge3" class="edge"><title>Node7&#45;&gt;Node6</title>
<path fill="none" stroke="midnightblue" d="M120.787,-207.62C131.545,-198.048 145.275,-185.832 155.735,-176.526"/>
<polygon fill="midnightblue" stroke="midnightblue" points="118.387,-205.07 113.243,-214.332 123.04,-210.3 118.387,-205.07"/>
</g>
</g>
</svg>
