<?xml version="1.0" encoding="UTF-8" standalone="no"?>
<!DOCTYPE svg PUBLIC "-//W3C//DTD SVG 1.1//EN"
 "http://www.w3.org/Graphics/SVG/1.1/DTD/svg11.dtd">
<!-- Generated by graphviz version 2.38.0 (20140413.2041)
 -->
<!-- Title: System.CodeDom.CodeTypeDeclaration Pages: 1 -->
<svg width="199pt" height="140pt"
 viewBox="0.00 0.00 199.00 140.00" xmlns="http://www.w3.org/2000/svg" xmlns:xlink="http://www.w3.org/1999/xlink">
<g id="graph0" class="graph" transform="scale(1 1) rotate(0) translate(4 136)">
<title>System.CodeDom.CodeTypeDeclaration</title>
<!-- Node0 -->
<g id="node1" class="node"><title>Node0</title>
<g id="a_node1"><a xlink:title="Represents a type declaration for a class, structure, interface, or enumeration.">
<polygon fill="#bfbfbf" stroke="black" points="0,-56.5 0,-75.5 191,-75.5 191,-56.5 0,-56.5"/>
<text text-anchor="middle" x="95.5" y="-63.5" font-family="Helvetica,sans-Serif" font-size="10.00">System.CodeDom.CodeTypeDeclaration</text>
</a>
</g>
</g>
<!-- Node3 -->
<g id="node3" class="node"><title>Node3</title>
<g id="a_node3"><a xlink:href="class_system_1_1_code_dom_1_1_code_type_delegate.html" target="_top" xlink:title="Represents a delegate declaration.">
<polygon fill="none" stroke="black" points="5,-0.5 5,-19.5 186,-19.5 186,-0.5 5,-0.5"/>
<text text-anchor="middle" x="95.5" y="-7.5" font-family="Helvetica,sans-Serif" font-size="10.00">System.CodeDom.CodeTypeDelegate</text>
</a>
</g>
</g>
<!-- Node0&#45;&gt;Node3 -->
<g id="edge2" class="edge"><title>Node0&#45;&gt;Node3</title>
<path fill="none" stroke="midnightblue" d="M95.5,-45.8045C95.5,-36.9102 95.5,-26.7798 95.5,-19.7511"/>
<polygon fill="midnightblue" stroke="midnightblue" points="92.0001,-46.083 95.5,-56.083 99.0001,-46.083 92.0001,-46.083"/>
</g>
<!-- Node1 -->
<g id="node2" class="node"><title>Node1</title>
<g id="a_node2"><a xlink:href="class_system_1_1_code_dom_1_1_code_type_member.html" target="_top" xlink:title="Provides a base class for a member of a type. Type members include fields, methods,...">
<polygon fill="none" stroke="red" points="48,-112.5 48,-131.5 143,-131.5 143,-112.5 48,-112.5"/>
<text text-anchor="middle" x="95.5" y="-119.5" font-family="Helvetica,sans-Serif" font-size="10.00">CodeTypeMember</text>
</a>
</g>
</g>
<!-- Node1&#45;&gt;Node0 -->
<g id="edge1" class="edge"><title>Node1&#45;&gt;Node0</title>
<path fill="none" stroke="midnightblue" d="M95.5,-101.805C95.5,-92.9102 95.5,-82.7798 95.5,-75.7511"/>
<polygon fill="midnightblue" stroke="midnightblue" points="92.0001,-102.083 95.5,-112.083 99.0001,-102.083 92.0001,-102.083"/>
</g>
</g>
</svg>
