<?xml version="1.0" encoding="UTF-8" standalone="no"?>
<!DOCTYPE svg PUBLIC "-//W3C//DTD SVG 1.1//EN"
 "http://www.w3.org/Graphics/SVG/1.1/DTD/svg11.dtd">
<!-- Generated by graphviz version 2.38.0 (20140413.2041)
 -->
<!-- Title: System.Threading.Thread Pages: 1 -->
<svg width="190pt" height="84pt"
 viewBox="0.00 0.00 189.50 84.00" xmlns="http://www.w3.org/2000/svg" xmlns:xlink="http://www.w3.org/1999/xlink">
<g id="graph0" class="graph" transform="scale(1 1) rotate(0) translate(4 80)">
<title>System.Threading.Thread</title>
<!-- Node0 -->
<g id="node1" class="node"><title>Node0</title>
<g id="a_node1"><a xlink:title="Creates and controls a thread, sets its priority, and gets its status.">
<polygon fill="#bfbfbf" stroke="black" points="42,-0.5 42,-19.5 170,-19.5 170,-0.5 42,-0.5"/>
<text text-anchor="middle" x="106" y="-7.5" font-family="Helvetica,sans-Serif" font-size="10.00">System.Threading.Thread</text>
</a>
</g>
</g>
<!-- Node1 -->
<g id="node2" class="node"><title>Node1</title>
<g id="a_node2"><a xlink:href="class_system_1_1_runtime_1_1_constrained_execution_1_1_critical_finalizer_object.html" target="_top" xlink:title="Ensures that all finalization code in derived classes is marked as critical.">
<polygon fill="none" stroke="black" points="0,-56.5 0,-75.5 112,-75.5 112,-56.5 0,-56.5"/>
<text text-anchor="middle" x="56" y="-63.5" font-family="Helvetica,sans-Serif" font-size="10.00">CriticalFinalizerObject</text>
</a>
</g>
</g>
<!-- Node1&#45;&gt;Node0 -->
<g id="edge1" class="edge"><title>Node1&#45;&gt;Node0</title>
<path fill="none" stroke="midnightblue" d="M71.0763,-48.7175C79.8891,-39.1997 90.6659,-27.5608 97.8972,-19.7511"/>
<polygon fill="midnightblue" stroke="midnightblue" points="68.4824,-46.3674 64.2565,-56.083 73.6188,-51.1233 68.4824,-46.3674"/>
</g>
<!-- Node2 -->
<g id="node3" class="node"><title>Node2</title>
<g id="a_node3"><a xlink:href="interface_system_1_1_runtime_1_1_interop_services_1_1___thread.html" target="_top" xlink:title="Exposes the T:System.Threading.Thread class to unmanaged code.">
<polygon fill="none" stroke="black" points="130.5,-56.5 130.5,-75.5 181.5,-75.5 181.5,-56.5 130.5,-56.5"/>
<text text-anchor="middle" x="156" y="-63.5" font-family="Helvetica,sans-Serif" font-size="10.00">_Thread</text>
</a>
</g>
</g>
<!-- Node2&#45;&gt;Node0 -->
<g id="edge2" class="edge"><title>Node2&#45;&gt;Node0</title>
<path fill="none" stroke="midnightblue" d="M140.924,-48.7175C132.111,-39.1997 121.334,-27.5608 114.103,-19.7511"/>
<polygon fill="midnightblue" stroke="midnightblue" points="138.381,-51.1233 147.744,-56.083 143.518,-46.3674 138.381,-51.1233"/>
</g>
</g>
</svg>
