<?xml version="1.0" encoding="UTF-8" standalone="no"?>
<!DOCTYPE svg PUBLIC "-//W3C//DTD SVG 1.1//EN"
 "http://www.w3.org/Graphics/SVG/1.1/DTD/svg11.dtd">
<!-- Generated by graphviz version 2.38.0 (20140413.2041)
 -->
<!-- Title: System.Security.Policy.HashMembershipCondition Pages: 1 -->
<svg width="670pt" height="218pt"
 viewBox="0.00 0.00 670.00 218.00" xmlns="http://www.w3.org/2000/svg" xmlns:xlink="http://www.w3.org/1999/xlink">
<g id="graph0" class="graph" transform="scale(1 1) rotate(0) translate(4 214)">
<title>System.Security.Policy.HashMembershipCondition</title>
<!-- Node0 -->
<g id="node1" class="node"><title>Node0</title>
<g id="a_node1"><a xlink:title="Determines whether an assembly belongs to a code group by testing its hash value. This class cannot b...">
<polygon fill="#bfbfbf" stroke="black" points="517,-90 517,-120 662,-120 662,-90 517,-90"/>
<text text-anchor="start" x="525" y="-108" font-family="Helvetica,sans-Serif" font-size="10.00">System.Security.Policy.Hash</text>
<text text-anchor="middle" x="589.5" y="-97" font-family="Helvetica,sans-Serif" font-size="10.00">MembershipCondition</text>
</a>
</g>
</g>
<!-- Node1 -->
<g id="node2" class="node"><title>Node1</title>
<g id="a_node2"><a xlink:href="interface_system_1_1_runtime_1_1_serialization_1_1_i_serializable.html" target="_top" xlink:title="Allows an object to control its own serialization and deserialization.">
<polygon fill="none" stroke="black" points="362.5,-190.5 362.5,-209.5 431.5,-209.5 431.5,-190.5 362.5,-190.5"/>
<text text-anchor="middle" x="397" y="-197.5" font-family="Helvetica,sans-Serif" font-size="10.00">ISerializable</text>
</a>
</g>
</g>
<!-- Node1&#45;&gt;Node0 -->
<g id="edge1" class="edge"><title>Node1&#45;&gt;Node0</title>
<path fill="none" stroke="midnightblue" d="M441.797,-193.311C454.76,-190.452 468.753,-186.472 481,-181 516.058,-165.335 551.399,-137.5 571.553,-120.214"/>
<polygon fill="midnightblue" stroke="midnightblue" points="440.777,-189.946 431.675,-195.369 442.172,-196.806 440.777,-189.946"/>
</g>
<!-- Node2 -->
<g id="node3" class="node"><title>Node2</title>
<g id="a_node3"><a xlink:href="interface_system_1_1_runtime_1_1_serialization_1_1_i_deserialization_callback.html" target="_top" xlink:title="Indicates that a class is to be notified when deserialization of the entire object graph has been com...">
<polygon fill="none" stroke="black" points="337,-152.5 337,-171.5 457,-171.5 457,-152.5 337,-152.5"/>
<text text-anchor="middle" x="397" y="-159.5" font-family="Helvetica,sans-Serif" font-size="10.00">IDeserializationCallback</text>
</a>
</g>
</g>
<!-- Node2&#45;&gt;Node0 -->
<g id="edge2" class="edge"><title>Node2&#45;&gt;Node0</title>
<path fill="none" stroke="midnightblue" d="M441.476,-149.574C454.225,-145.891 468.183,-141.82 481,-138 500.364,-132.229 521.642,-125.73 540.121,-120.035"/>
<polygon fill="midnightblue" stroke="midnightblue" points="440.196,-146.3 431.556,-152.432 442.134,-153.027 440.196,-146.3"/>
</g>
<!-- Node3 -->
<g id="node4" class="node"><title>Node3</title>
<g id="a_node4"><a xlink:href="interface_system_1_1_security_1_1_policy_1_1_i_membership_condition.html" target="_top" xlink:title="Defines the test to determine whether a code assembly is a member of a code group.">
<polygon fill="none" stroke="black" points="164,-38.5 164,-57.5 277,-57.5 277,-38.5 164,-38.5"/>
<text text-anchor="middle" x="220.5" y="-45.5" font-family="Helvetica,sans-Serif" font-size="10.00">IMembershipCondition</text>
</a>
</g>
</g>
<!-- Node3&#45;&gt;Node0 -->
<g id="edge3" class="edge"><title>Node3&#45;&gt;Node0</title>
<path fill="none" stroke="midnightblue" d="M287.275,-47.9989C340.138,-49.1474 416.027,-53.3935 481,-67 505.8,-72.1934 532.675,-81.6934 553.35,-89.8951"/>
<polygon fill="midnightblue" stroke="midnightblue" points="287.083,-44.4948 277.019,-47.8086 286.953,-51.4936 287.083,-44.4948"/>
</g>
<!-- Node6 -->
<g id="node7" class="node"><title>Node6</title>
<g id="a_node7"><a xlink:href="interface_system_1_1_security_1_1_policy_1_1_i_report_match_membership_condition.html" target="_top" xlink:title=" ">
<polygon fill="none" stroke="black" points="313,-76.5 313,-95.5 481,-95.5 481,-76.5 313,-76.5"/>
<text text-anchor="middle" x="397" y="-83.5" font-family="Helvetica,sans-Serif" font-size="10.00">IReportMatchMembershipCondition</text>
</a>
</g>
</g>
<!-- Node3&#45;&gt;Node6 -->
<g id="edge9" class="edge"><title>Node3&#45;&gt;Node6</title>
<path fill="none" stroke="midnightblue" d="M275.469,-59.7526C300.143,-65.1258 328.995,-71.4086 352.283,-76.4799"/>
<polygon fill="midnightblue" stroke="midnightblue" points="276.049,-56.297 265.534,-57.589 274.56,-63.1367 276.049,-56.297"/>
</g>
<!-- Node4 -->
<g id="node5" class="node"><title>Node4</title>
<g id="a_node5"><a xlink:href="interface_system_1_1_security_1_1_i_security_encodable.html" target="_top" xlink:title="Defines the methods that convert permission object state to and from XML element representation.">
<polygon fill="none" stroke="black" points="13.5,-76.5 13.5,-95.5 114.5,-95.5 114.5,-76.5 13.5,-76.5"/>
<text text-anchor="middle" x="64" y="-83.5" font-family="Helvetica,sans-Serif" font-size="10.00">ISecurityEncodable</text>
</a>
</g>
</g>
<!-- Node4&#45;&gt;Node0 -->
<g id="edge6" class="edge"><title>Node4&#45;&gt;Node0</title>
<path fill="none" stroke="midnightblue" d="M124.887,-95.5185C137.761,-97.2703 151.31,-98.893 164,-100 287.72,-110.793 432.481,-109.544 516.985,-107.429"/>
<polygon fill="midnightblue" stroke="midnightblue" points="125.126,-92.0178 114.737,-94.0933 124.153,-98.9498 125.126,-92.0178"/>
</g>
<!-- Node4&#45;&gt;Node3 -->
<g id="edge4" class="edge"><title>Node4&#45;&gt;Node3</title>
<path fill="none" stroke="midnightblue" d="M113.952,-73.96C135.536,-68.6512 160.541,-62.5012 180.793,-57.5201"/>
<polygon fill="midnightblue" stroke="midnightblue" points="112.862,-70.6238 103.987,-76.411 114.533,-77.4213 112.862,-70.6238"/>
</g>
<!-- Node4&#45;&gt;Node6 -->
<g id="edge10" class="edge"><title>Node4&#45;&gt;Node6</title>
<path fill="none" stroke="midnightblue" d="M124.73,-86C177.306,-86 254.393,-86 312.968,-86"/>
<polygon fill="midnightblue" stroke="midnightblue" points="124.554,-82.5001 114.554,-86 124.554,-89.5001 124.554,-82.5001"/>
</g>
<!-- Node5 -->
<g id="node6" class="node"><title>Node5</title>
<g id="a_node6"><a xlink:href="interface_system_1_1_security_1_1_i_security_policy_encodable.html" target="_top" xlink:title="Supports the methods that convert permission object state to and from an XML element representation.">
<polygon fill="none" stroke="black" points="0,-0.5 0,-19.5 128,-19.5 128,-0.5 0,-0.5"/>
<text text-anchor="middle" x="64" y="-7.5" font-family="Helvetica,sans-Serif" font-size="10.00">ISecurityPolicyEncodable</text>
</a>
</g>
</g>
<!-- Node5&#45;&gt;Node0 -->
<g id="edge7" class="edge"><title>Node5&#45;&gt;Node0</title>
<path fill="none" stroke="midnightblue" d="M138.218,-4.57783C223.29,-0.834883 366.602,-2.52926 481,-44 512.673,-55.4819 545.929,-75.8235 566.914,-89.8393"/>
<polygon fill="midnightblue" stroke="midnightblue" points="137.96,-1.08608 128.138,-5.05894 138.294,-8.07812 137.96,-1.08608"/>
</g>
<!-- Node5&#45;&gt;Node3 -->
<g id="edge5" class="edge"><title>Node5&#45;&gt;Node3</title>
<path fill="none" stroke="midnightblue" d="M113.952,-22.04C135.536,-27.3488 160.541,-33.4988 180.793,-38.4799"/>
<polygon fill="midnightblue" stroke="midnightblue" points="114.533,-18.5787 103.987,-19.589 112.862,-25.3762 114.533,-18.5787"/>
</g>
<!-- Node5&#45;&gt;Node6 -->
<g id="edge11" class="edge"><title>Node5&#45;&gt;Node6</title>
<path fill="none" stroke="midnightblue" d="M138.196,-10.1603C179.577,-11.8304 231.901,-16.6134 277,-29 316.319,-39.7991 358.492,-63.1379 380.541,-76.3574"/>
<polygon fill="midnightblue" stroke="midnightblue" points="138.31,-6.66227 128.193,-9.80817 138.064,-13.6579 138.31,-6.66227"/>
</g>
<!-- Node6&#45;&gt;Node0 -->
<g id="edge8" class="edge"><title>Node6&#45;&gt;Node0</title>
<path fill="none" stroke="midnightblue" d="M491.114,-95.287C499.752,-96.1485 508.413,-97.0123 516.813,-97.8501"/>
<polygon fill="midnightblue" stroke="midnightblue" points="491.3,-91.7882 481.002,-94.2784 490.605,-98.7537 491.3,-91.7882"/>
</g>
</g>
</svg>
