<?xml version="1.0" encoding="UTF-8" standalone="no"?>
<!DOCTYPE svg PUBLIC "-//W3C//DTD SVG 1.1//EN"
 "http://www.w3.org/Graphics/SVG/1.1/DTD/svg11.dtd">
<!-- Generated by graphviz version 2.38.0 (20140413.2041)
 -->
<!-- Title: System.Collections.Generic.SortedDictionary&lt; TKey, TValue &gt; Pages: 1 -->
<svg width="397pt" height="186pt"
 viewBox="0.00 0.00 397.00 186.38" xmlns="http://www.w3.org/2000/svg" xmlns:xlink="http://www.w3.org/1999/xlink">
<g id="graph0" class="graph" transform="scale(1 1) rotate(0) translate(4 182.376)">
<title>System.Collections.Generic.SortedDictionary&lt; TKey, TValue &gt;</title>
<!-- Node8 -->
<g id="node1" class="node"><title>Node8</title>
<g id="a_node1"><a xlink:title="Represents a collection of key/value pairs that are sorted on the key.">
<polygon fill="#bfbfbf" stroke="black" points="248,-77 248,-118 389,-118 389,-77 248,-77"/>
<text text-anchor="start" x="256" y="-106" font-family="Helvetica,sans-Serif" font-size="10.00">System.Collections.Generic.</text>
<text text-anchor="start" x="256" y="-95" font-family="Helvetica,sans-Serif" font-size="10.00">SortedDictionary&lt; TKey,</text>
<text text-anchor="middle" x="318.5" y="-84" font-family="Helvetica,sans-Serif" font-size="10.00"> TValue &gt;</text>
</a>
</g>
</g>
<!-- Node9 -->
<g id="node2" class="node"><title>Node9</title>
<g id="a_node2"><a xlink:href="interface_system_1_1_collections_1_1_generic_1_1_i_dictionary.html" target="_top" xlink:title="Represents a generic collection of key/value pairs.">
<polygon fill="none" stroke="black" points="111,-126.5 111,-156.5 208,-156.5 208,-126.5 111,-126.5"/>
<text text-anchor="start" x="119" y="-144.5" font-family="Helvetica,sans-Serif" font-size="10.00">IDictionary&lt; TKey,</text>
<text text-anchor="middle" x="159.5" y="-133.5" font-family="Helvetica,sans-Serif" font-size="10.00"> TValue &gt;</text>
</a>
</g>
</g>
<!-- Node9&#45;&gt;Node8 -->
<g id="edge1" class="edge"><title>Node9&#45;&gt;Node8</title>
<path fill="none" stroke="midnightblue" d="M217.957,-125.397C227.67,-122.675 237.846,-119.823 247.83,-117.025"/>
<polygon fill="midnightblue" stroke="midnightblue" points="216.716,-122.11 208.031,-128.179 218.605,-128.851 216.716,-122.11"/>
</g>
<!-- Node10 -->
<g id="node3" class="node"><title>Node10</title>
<g id="a_node3"><a xlink:href="interface_system_1_1_collections_1_1_generic_1_1_i_enumerable.html" target="_top" xlink:title="Exposes the enumerator, which supports a simple iteration over a collection of a specified type....">
<polygon fill="none" stroke="black" points="0,-88 0,-107 71,-107 71,-88 0,-88"/>
<text text-anchor="middle" x="35.5" y="-95" font-family="Helvetica,sans-Serif" font-size="10.00">IEnumerable</text>
</a>
</g>
</g>
<!-- Node10&#45;&gt;Node8 -->
<g id="edge4" class="edge"><title>Node10&#45;&gt;Node8</title>
<path fill="none" stroke="midnightblue" d="M48.6208,-115.67C61.0205,-132.457 81.9797,-156.293 107,-166.5 150.21,-184.127 167.277,-179.827 212,-166.5 243.671,-157.063 274.685,-134.752 294.799,-118.038"/>
<polygon fill="midnightblue" stroke="midnightblue" points="51.2678,-113.35 42.6412,-107.199 45.5492,-117.387 51.2678,-113.35"/>
</g>
<!-- Node10&#45;&gt;Node9 -->
<g id="edge2" class="edge"><title>Node10&#45;&gt;Node9</title>
<path fill="none" stroke="midnightblue" d="M72.6388,-110.534C86.4862,-115.528 102.396,-121.266 116.728,-126.435"/>
<polygon fill="midnightblue" stroke="midnightblue" points="73.5665,-107.148 62.9722,-107.047 71.1916,-113.732 73.5665,-107.148"/>
</g>
<!-- Node10&#45;&gt;Node10 -->
<g id="edge3" class="edge"><title>Node10&#45;&gt;Node10</title>
<path fill="none" stroke="midnightblue" d="M12.4346,-116.529C13.6928,-121.628 21.3812,-125.5 35.5,-125.5 57.5391,-125.5 63.9097,-116.065 54.612,-107.257"/>
<polygon fill="midnightblue" stroke="midnightblue" points="15.6854,-117.829 16.388,-107.257 9.24627,-115.083 15.6854,-117.829"/>
</g>
<!-- Node11 -->
<g id="node4" class="node"><title>Node11</title>
<g id="a_node4"><a xlink:href="interface_system_1_1_collections_1_1_generic_1_1_i_dictionary.html" target="_top" xlink:title="Represents a generic collection of key/value pairs.">
<polygon fill="none" stroke="black" points="128.5,-88 128.5,-107 190.5,-107 190.5,-88 128.5,-88"/>
<text text-anchor="middle" x="159.5" y="-95" font-family="Helvetica,sans-Serif" font-size="10.00">IDictionary</text>
</a>
</g>
</g>
<!-- Node10&#45;&gt;Node11 -->
<g id="edge6" class="edge"><title>Node10&#45;&gt;Node11</title>
<path fill="none" stroke="midnightblue" d="M81.1761,-97.5C96.872,-97.5 114.124,-97.5 128.343,-97.5"/>
<polygon fill="midnightblue" stroke="midnightblue" points="81.134,-94.0001 71.134,-97.5 81.1339,-101 81.134,-94.0001"/>
</g>
<!-- Node12 -->
<g id="node5" class="node"><title>Node12</title>
<g id="a_node5"><a xlink:href="interface_system_1_1_collections_1_1_generic_1_1_i_collection.html" target="_top" xlink:title="Defines methods to manipulate generic collections.">
<polygon fill="none" stroke="red" points="128.5,-50 128.5,-69 190.5,-69 190.5,-50 128.5,-50"/>
<text text-anchor="middle" x="159.5" y="-57" font-family="Helvetica,sans-Serif" font-size="10.00">ICollection</text>
</a>
</g>
</g>
<!-- Node10&#45;&gt;Node12 -->
<g id="edge8" class="edge"><title>Node10&#45;&gt;Node12</title>
<path fill="none" stroke="midnightblue" d="M77.2892,-84.7952C93.9063,-79.6193 112.779,-73.7409 128.147,-68.9543"/>
<polygon fill="midnightblue" stroke="midnightblue" points="75.7925,-81.5954 67.2858,-87.911 77.8742,-88.2787 75.7925,-81.5954"/>
</g>
<!-- Node15 -->
<g id="node6" class="node"><title>Node15</title>
<g id="a_node6"><a xlink:href="interface_system_1_1_collections_1_1_generic_1_1_i_read_only_dictionary.html" target="_top" xlink:title="Represents a generic read&#45;only collection of key/value pairs.">
<polygon fill="none" stroke="black" points="107,-0.5 107,-30.5 212,-30.5 212,-0.5 107,-0.5"/>
<text text-anchor="start" x="115" y="-18.5" font-family="Helvetica,sans-Serif" font-size="10.00">IReadOnlyDictionary</text>
<text text-anchor="middle" x="159.5" y="-7.5" font-family="Helvetica,sans-Serif" font-size="10.00">&lt; TKey, TValue &gt;</text>
</a>
</g>
</g>
<!-- Node10&#45;&gt;Node15 -->
<g id="edge10" class="edge"><title>Node10&#45;&gt;Node15</title>
<path fill="none" stroke="midnightblue" d="M54.6396,-80.898C68.3854,-68.8109 88.0761,-52.5209 107,-40.5 112.537,-36.9828 118.642,-33.6175 124.654,-30.5595"/>
<polygon fill="midnightblue" stroke="midnightblue" points="52.0343,-78.5323 46.9091,-87.8051 56.6982,-83.7523 52.0343,-78.5323"/>
</g>
<!-- Node11&#45;&gt;Node8 -->
<g id="edge5" class="edge"><title>Node11&#45;&gt;Node8</title>
<path fill="none" stroke="midnightblue" d="M200.805,-97.5C215.188,-97.5 231.833,-97.5 247.966,-97.5"/>
<polygon fill="midnightblue" stroke="midnightblue" points="200.771,-94.0001 190.771,-97.5 200.771,-101 200.771,-94.0001"/>
</g>
<!-- Node12&#45;&gt;Node8 -->
<g id="edge7" class="edge"><title>Node12&#45;&gt;Node8</title>
<path fill="none" stroke="midnightblue" d="M200.805,-69.2553C215.188,-72.7366 231.833,-76.7653 247.966,-80.6702"/>
<polygon fill="midnightblue" stroke="midnightblue" points="201.314,-65.7775 190.771,-66.8268 199.667,-72.5811 201.314,-65.7775"/>
</g>
<!-- Node15&#45;&gt;Node8 -->
<g id="edge9" class="edge"><title>Node15&#45;&gt;Node8</title>
<path fill="none" stroke="midnightblue" d="M201.239,-35.0732C204.888,-36.8876 208.517,-38.715 212,-40.5 234.788,-52.1799 260.032,-65.7946 280.113,-76.7886"/>
<polygon fill="midnightblue" stroke="midnightblue" points="202.718,-31.9004 192.201,-30.6211 199.625,-38.1799 202.718,-31.9004"/>
</g>
</g>
</svg>
