<?xml version="1.0" encoding="UTF-8" standalone="no"?>
<!DOCTYPE svg PUBLIC "-//W3C//DTD SVG 1.1//EN"
 "http://www.w3.org/Graphics/SVG/1.1/DTD/svg11.dtd">
<!-- Generated by graphviz version 2.38.0 (20140413.2041)
 -->
<!-- Title: System.Net.NetworkInformation.PingReply Pages: 1 -->
<svg width="379pt" height="163pt"
 viewBox="0.00 0.00 378.50 163.00" xmlns="http://www.w3.org/2000/svg" xmlns:xlink="http://www.w3.org/1999/xlink">
<g id="graph0" class="graph" transform="scale(1 1) rotate(0) translate(4 159)">
<title>System.Net.NetworkInformation.PingReply</title>
<!-- Node1 -->
<g id="node1" class="node"><title>Node1</title>
<g id="a_node1"><a xlink:title="Provides information about the status and data resulting from a Overload:System.Net....">
<polygon fill="#bfbfbf" stroke="black" points="154.5,-0.5 154.5,-30.5 311.5,-30.5 311.5,-0.5 154.5,-0.5"/>
<text text-anchor="start" x="162.5" y="-18.5" font-family="Helvetica,sans-Serif" font-size="10.00">System.Net.NetworkInformation.</text>
<text text-anchor="middle" x="233" y="-7.5" font-family="Helvetica,sans-Serif" font-size="10.00">PingReply</text>
</a>
</g>
</g>
<!-- Node2 -->
<g id="node2" class="node"><title>Node2</title>
<g id="a_node2"><a xlink:href="class_system_1_1_net_1_1_i_p_address.html" target="_top" xlink:title="Provides an Internet Protocol (IP) address.">
<polygon fill="none" stroke="black" points="0,-107 0,-126 116,-126 116,-107 0,-107"/>
<text text-anchor="middle" x="58" y="-114" font-family="Helvetica,sans-Serif" font-size="10.00">System.Net.IPAddress</text>
</a>
</g>
</g>
<!-- Node2&#45;&gt;Node1 -->
<g id="edge1" class="edge"><title>Node2&#45;&gt;Node1</title>
<path fill="none" stroke="#9a32cd" stroke-dasharray="5,2" d="M82.2188,-101.799C115.325,-83.0704 174.416,-49.6416 207.951,-30.6707"/>
<polygon fill="#9a32cd" stroke="#9a32cd" points="80.2044,-98.9174 73.224,-106.888 83.6511,-105.01 80.2044,-98.9174"/>
<text text-anchor="middle" x="192" y="-52" font-family="Helvetica,sans-Serif" font-size="10.00"> Address</text>
</g>
<!-- Node2&#45;&gt;Node2 -->
<g id="edge2" class="edge"><title>Node2&#45;&gt;Node2</title>
<path fill="none" stroke="#9a32cd" stroke-dasharray="5,2" d="M94.5946,-127.552C115.087,-129.654 134,-125.97 134,-116.5 134,-105.48 108.391,-102.295 84.4834,-106.944"/>
<polygon fill="#9a32cd" stroke="#9a32cd" points="94.8881,-124.058 84.4834,-126.056 93.8632,-130.982 94.8881,-124.058"/>
<text text-anchor="middle" x="164.5" y="-147" font-family="Helvetica,sans-Serif" font-size="10.00"> IPv6None</text>
<text text-anchor="middle" x="164.5" y="-136" font-family="Helvetica,sans-Serif" font-size="10.00">Loopback</text>
<text text-anchor="middle" x="164.5" y="-125" font-family="Helvetica,sans-Serif" font-size="10.00">IPv6Any</text>
<text text-anchor="middle" x="164.5" y="-114" font-family="Helvetica,sans-Serif" font-size="10.00">IPv6Loopback</text>
<text text-anchor="middle" x="164.5" y="-103" font-family="Helvetica,sans-Serif" font-size="10.00">None</text>
<text text-anchor="middle" x="164.5" y="-92" font-family="Helvetica,sans-Serif" font-size="10.00">Any</text>
<text text-anchor="middle" x="164.5" y="-81" font-family="Helvetica,sans-Serif" font-size="10.00">Broadcast</text>
</g>
<!-- Node3 -->
<g id="node3" class="node"><title>Node3</title>
<g id="a_node3"><a xlink:href="class_system_1_1_net_1_1_network_information_1_1_ping_options.html" target="_top" xlink:title="Used to control how T:System.Net.NetworkInformation.Ping data packets are transmitted.">
<polygon fill="none" stroke="black" points="213.5,-101.5 213.5,-131.5 370.5,-131.5 370.5,-101.5 213.5,-101.5"/>
<text text-anchor="start" x="221.5" y="-119.5" font-family="Helvetica,sans-Serif" font-size="10.00">System.Net.NetworkInformation.</text>
<text text-anchor="middle" x="292" y="-108.5" font-family="Helvetica,sans-Serif" font-size="10.00">PingOptions</text>
</a>
</g>
</g>
<!-- Node3&#45;&gt;Node1 -->
<g id="edge3" class="edge"><title>Node3&#45;&gt;Node1</title>
<path fill="none" stroke="#9a32cd" stroke-dasharray="5,2" d="M278.36,-92.612C266.962,-73.4871 251.069,-46.8199 241.438,-30.658"/>
<polygon fill="#9a32cd" stroke="#9a32cd" points="275.421,-94.5173 283.547,-101.316 281.434,-90.9337 275.421,-94.5173"/>
<text text-anchor="middle" x="276.5" y="-52" font-family="Helvetica,sans-Serif" font-size="10.00"> Options</text>
</g>
</g>
</svg>
