<?xml version="1.0" encoding="UTF-8" standalone="no"?>
<!DOCTYPE svg PUBLIC "-//W3C//DTD SVG 1.1//EN"
 "http://www.w3.org/Graphics/SVG/1.1/DTD/svg11.dtd">
<!-- Generated by graphviz version 2.38.0 (20140413.2041)
 -->
<!-- Title: System.ComponentModel.BaseNumberConverter Pages: 1 -->
<!--zoomable 529 -->
<svg id="main" version="1.1" xmlns="http://www.w3.org/2000/svg" xmlns:xlink="http://www.w3.org/1999/xlink" xml:space="preserve" onload="init(evt)">
<style type="text/css"><![CDATA[
.edge:hover path { stroke: red; }
.edge:hover polygon { stroke: red; fill: red; }
]]></style>
<script type="text/javascript"><![CDATA[
var edges = document.getElementsByTagName('g');
if (edges && edges.length) {
  for (var i=0;i<edges.length;i++) {
    if (edges[i].id.substr(0,4)=='edge') {
      edges[i].setAttribute('class','edge');
    }
  }
}
]]></script>
        <defs>
                <circle id="rim" cx="0" cy="0" r="7"/>
                <circle id="rim2" cx="0" cy="0" r="3.5"/>
                <g id="zoomPlus">
                        <use xlink:href="#rim" fill="#404040">
                                <set attributeName="fill" to="#808080" begin="zoomplus.mouseover" end="zoomplus.mouseout"/>
                        </use>
                        <path d="M-4,0h8M0,-4v8" fill="none" stroke="white" stroke-width="1.5" pointer-events="none"/>
                </g>
                <g id="zoomMin">
                        <use xlink:href="#rim" fill="#404040">
                                <set attributeName="fill" to="#808080" begin="zoomminus.mouseover" end="zoomminus.mouseout"/>
                        </use>
                        <path d="M-4,0h8" fill="none" stroke="white" stroke-width="1.5" pointer-events="none"/>
                </g>
                <g id="dirArrow">
                        <path fill="none" stroke="white" stroke-width="1.5" d="M0,-3.0v7 M-2.5,-0.5L0,-3.0L2.5,-0.5"/>
                </g>
               <g id="resetDef">
                       <use xlink:href="#rim2" fill="#404040">
                               <set attributeName="fill" to="#808080" begin="reset.mouseover" end="reset.mouseout"/>
                       </use>
               </g>
        </defs>

<script type="text/javascript">
var viewWidth = 480;
var viewHeight = 529;
var sectionId = 'dynsection-0';
</script>
<script xlink:href="svgpan.js"/>
<svg id="graph" class="graph">
<g id="viewport">
<title>System.ComponentModel.BaseNumberConverter</title>
<!-- Node0 -->
<g id="node1" class="node"><title>Node0</title>
<g id="a_node1"><a xlink:title="Provides a base type converter for nonfloating&#45;point numerical types.">
<polygon fill="#bfbfbf" stroke="black" points="114,-245.5 114,-275.5 269,-275.5 269,-245.5 114,-245.5"/>
<text text-anchor="start" x="122" y="-263.5" font-family="Helvetica,sans-Serif" font-size="10.00">System.ComponentModel.Base</text>
<text text-anchor="middle" x="191.5" y="-252.5" font-family="Helvetica,sans-Serif" font-size="10.00">NumberConverter</text>
</a>
</g>
</g>
<!-- Node2 -->
<g id="node3" class="node"><title>Node2</title>
<g id="a_node3"><a xlink:href="class_system_1_1_component_model_1_1_byte_converter.html" target="_top" xlink:title="Provides a type converter to convert 8&#45;bit unsigned integer objects to and from various other represe...">
<polygon fill="none" stroke="black" points="312.5,-490.5 312.5,-520.5 464.5,-520.5 464.5,-490.5 312.5,-490.5"/>
<text text-anchor="start" x="320.5" y="-508.5" font-family="Helvetica,sans-Serif" font-size="10.00">System.ComponentModel.Byte</text>
<text text-anchor="middle" x="388.5" y="-497.5" font-family="Helvetica,sans-Serif" font-size="10.00">Converter</text>
</a>
</g>
</g>
<!-- Node0&#45;&gt;Node2 -->
<g id="edge2" class="edge"><title>Node0&#45;&gt;Node2</title>
<path fill="none" stroke="midnightblue" d="M198.217,-285.45C210.021,-331.262 241.467,-428.902 305,-481.5 309.136,-484.924 313.741,-487.86 318.6,-490.378"/>
<polygon fill="midnightblue" stroke="midnightblue" points="201.612,-284.599 195.811,-275.734 194.818,-286.282 201.612,-284.599"/>
</g>
<!-- Node3 -->
<g id="node4" class="node"><title>Node3</title>
<g id="a_node4"><a xlink:href="class_system_1_1_component_model_1_1_decimal_converter.html" target="_top" xlink:title="Provides a type converter to convert T:System.Decimal objects to and from various other representatio...">
<polygon fill="none" stroke="black" points="305,-441.5 305,-471.5 472,-471.5 472,-441.5 305,-441.5"/>
<text text-anchor="start" x="313" y="-459.5" font-family="Helvetica,sans-Serif" font-size="10.00">System.ComponentModel.Decimal</text>
<text text-anchor="middle" x="388.5" y="-448.5" font-family="Helvetica,sans-Serif" font-size="10.00">Converter</text>
</a>
</g>
</g>
<!-- Node0&#45;&gt;Node3 -->
<g id="edge3" class="edge"><title>Node0&#45;&gt;Node3</title>
<path fill="none" stroke="midnightblue" d="M202.091,-285.4C217.83,-322.949 252.707,-393.782 305,-432.5 309.675,-435.962 314.841,-438.926 320.239,-441.463"/>
<polygon fill="midnightblue" stroke="midnightblue" points="205.173,-283.688 198.161,-275.746 198.69,-286.328 205.173,-283.688"/>
</g>
<!-- Node4 -->
<g id="node5" class="node"><title>Node4</title>
<g id="a_node5"><a xlink:href="class_system_1_1_component_model_1_1_double_converter.html" target="_top" xlink:title="Provides a type converter to convert double&#45;precision, floating point number objects to and from vari...">
<polygon fill="none" stroke="black" points="307.5,-392.5 307.5,-422.5 469.5,-422.5 469.5,-392.5 307.5,-392.5"/>
<text text-anchor="start" x="315.5" y="-410.5" font-family="Helvetica,sans-Serif" font-size="10.00">System.ComponentModel.Double</text>
<text text-anchor="middle" x="388.5" y="-399.5" font-family="Helvetica,sans-Serif" font-size="10.00">Converter</text>
</a>
</g>
</g>
<!-- Node0&#45;&gt;Node4 -->
<g id="edge4" class="edge"><title>Node0&#45;&gt;Node4</title>
<path fill="none" stroke="midnightblue" d="M208.039,-284.195C227.476,-311.992 263.316,-357.567 305,-383.5 310.446,-386.888 316.391,-389.815 322.512,-392.341"/>
<polygon fill="midnightblue" stroke="midnightblue" points="210.856,-282.114 202.318,-275.842 205.081,-286.07 210.856,-282.114"/>
</g>
<!-- Node5 -->
<g id="node6" class="node"><title>Node5</title>
<g id="a_node6"><a xlink:href="class_system_1_1_component_model_1_1_int16_converter.html" target="_top" xlink:title="Provides a type converter to convert 16&#45;bit signed integer objects to and from other representations.">
<polygon fill="none" stroke="black" points="312,-343.5 312,-373.5 465,-373.5 465,-343.5 312,-343.5"/>
<text text-anchor="start" x="320" y="-361.5" font-family="Helvetica,sans-Serif" font-size="10.00">System.ComponentModel.Int16</text>
<text text-anchor="middle" x="388.5" y="-350.5" font-family="Helvetica,sans-Serif" font-size="10.00">Converter</text>
</a>
</g>
</g>
<!-- Node0&#45;&gt;Node5 -->
<g id="edge5" class="edge"><title>Node0&#45;&gt;Node5</title>
<path fill="none" stroke="midnightblue" d="M219.95,-281.936C241.926,-298.239 274.082,-320.228 305,-334.5 312.178,-337.813 319.92,-340.783 327.685,-343.41"/>
<polygon fill="midnightblue" stroke="midnightblue" points="221.858,-278.992 211.764,-275.776 217.649,-284.585 221.858,-278.992"/>
</g>
<!-- Node6 -->
<g id="node7" class="node"><title>Node6</title>
<g id="a_node7"><a xlink:href="class_system_1_1_component_model_1_1_int32_converter.html" target="_top" xlink:title="Provides a type converter to convert 32&#45;bit signed integer objects to and from other representations.">
<polygon fill="none" stroke="black" points="312,-294.5 312,-324.5 465,-324.5 465,-294.5 312,-294.5"/>
<text text-anchor="start" x="320" y="-312.5" font-family="Helvetica,sans-Serif" font-size="10.00">System.ComponentModel.Int32</text>
<text text-anchor="middle" x="388.5" y="-301.5" font-family="Helvetica,sans-Serif" font-size="10.00">Converter</text>
</a>
</g>
</g>
<!-- Node0&#45;&gt;Node6 -->
<g id="edge6" class="edge"><title>Node0&#45;&gt;Node6</title>
<path fill="none" stroke="midnightblue" d="M262.051,-277.977C283.543,-283.377 307.015,-289.276 327.782,-294.494"/>
<polygon fill="midnightblue" stroke="midnightblue" points="262.883,-274.577 252.332,-275.535 261.177,-281.366 262.883,-274.577"/>
</g>
<!-- Node7 -->
<g id="node8" class="node"><title>Node7</title>
<g id="a_node8"><a xlink:href="class_system_1_1_component_model_1_1_int64_converter.html" target="_top" xlink:title="Provides a type converter to convert 64&#45;bit signed integer objects to and from various other represen...">
<polygon fill="none" stroke="black" points="312,-245.5 312,-275.5 465,-275.5 465,-245.5 312,-245.5"/>
<text text-anchor="start" x="320" y="-263.5" font-family="Helvetica,sans-Serif" font-size="10.00">System.ComponentModel.Int64</text>
<text text-anchor="middle" x="388.5" y="-252.5" font-family="Helvetica,sans-Serif" font-size="10.00">Converter</text>
</a>
</g>
</g>
<!-- Node0&#45;&gt;Node7 -->
<g id="edge7" class="edge"><title>Node0&#45;&gt;Node7</title>
<path fill="none" stroke="midnightblue" d="M279.333,-260.5C290.176,-260.5 301.197,-260.5 311.851,-260.5"/>
<polygon fill="midnightblue" stroke="midnightblue" points="279.01,-257 269.009,-260.5 279.009,-264 279.01,-257"/>
</g>
<!-- Node8 -->
<g id="node9" class="node"><title>Node8</title>
<g id="a_node9"><a xlink:href="class_system_1_1_component_model_1_1_s_byte_converter.html" target="_top" xlink:title="Provides a type converter to convert 8&#45;bit unsigned integer objects to and from a string.">
<polygon fill="none" stroke="black" points="309,-196.5 309,-226.5 468,-226.5 468,-196.5 309,-196.5"/>
<text text-anchor="start" x="317" y="-214.5" font-family="Helvetica,sans-Serif" font-size="10.00">System.ComponentModel.SByte</text>
<text text-anchor="middle" x="388.5" y="-203.5" font-family="Helvetica,sans-Serif" font-size="10.00">Converter</text>
</a>
</g>
</g>
<!-- Node0&#45;&gt;Node8 -->
<g id="edge8" class="edge"><title>Node0&#45;&gt;Node8</title>
<path fill="none" stroke="midnightblue" d="M262.051,-243.023C283.543,-237.623 307.015,-231.724 327.782,-226.506"/>
<polygon fill="midnightblue" stroke="midnightblue" points="261.177,-239.634 252.332,-245.465 262.883,-246.423 261.177,-239.634"/>
</g>
<!-- Node9 -->
<g id="node10" class="node"><title>Node9</title>
<g id="a_node10"><a xlink:href="class_system_1_1_component_model_1_1_single_converter.html" target="_top" xlink:title="Provides a type converter to convert single&#45;precision, floating point number objects to and from vari...">
<polygon fill="none" stroke="black" points="309,-147.5 309,-177.5 468,-177.5 468,-147.5 309,-147.5"/>
<text text-anchor="start" x="317" y="-165.5" font-family="Helvetica,sans-Serif" font-size="10.00">System.ComponentModel.Single</text>
<text text-anchor="middle" x="388.5" y="-154.5" font-family="Helvetica,sans-Serif" font-size="10.00">Converter</text>
</a>
</g>
</g>
<!-- Node0&#45;&gt;Node9 -->
<g id="edge9" class="edge"><title>Node0&#45;&gt;Node9</title>
<path fill="none" stroke="midnightblue" d="M219.95,-239.064C241.926,-222.761 274.082,-200.772 305,-186.5 312.178,-183.187 319.92,-180.217 327.685,-177.59"/>
<polygon fill="midnightblue" stroke="midnightblue" points="217.649,-236.415 211.764,-245.224 221.858,-242.008 217.649,-236.415"/>
</g>
<!-- Node10 -->
<g id="node11" class="node"><title>Node10</title>
<g id="a_node11"><a xlink:href="class_system_1_1_component_model_1_1_u_int16_converter.html" target="_top" xlink:title="Provides a type converter to convert 16&#45;bit unsigned integer objects to and from other representation...">
<polygon fill="none" stroke="black" points="308.5,-98.5 308.5,-128.5 468.5,-128.5 468.5,-98.5 308.5,-98.5"/>
<text text-anchor="start" x="316.5" y="-116.5" font-family="Helvetica,sans-Serif" font-size="10.00">System.ComponentModel.UInt16</text>
<text text-anchor="middle" x="388.5" y="-105.5" font-family="Helvetica,sans-Serif" font-size="10.00">Converter</text>
</a>
</g>
</g>
<!-- Node0&#45;&gt;Node10 -->
<g id="edge10" class="edge"><title>Node0&#45;&gt;Node10</title>
<path fill="none" stroke="midnightblue" d="M208.039,-236.805C227.476,-209.008 263.316,-163.433 305,-137.5 310.446,-134.112 316.391,-131.185 322.512,-128.659"/>
<polygon fill="midnightblue" stroke="midnightblue" points="205.081,-234.93 202.318,-245.158 210.856,-238.886 205.081,-234.93"/>
</g>
<!-- Node11 -->
<g id="node12" class="node"><title>Node11</title>
<g id="a_node12"><a xlink:href="class_system_1_1_component_model_1_1_u_int32_converter.html" target="_top" xlink:title="Provides a type converter to convert 32&#45;bit unsigned integer objects to and from various other repres...">
<polygon fill="none" stroke="black" points="308.5,-49.5 308.5,-79.5 468.5,-79.5 468.5,-49.5 308.5,-49.5"/>
<text text-anchor="start" x="316.5" y="-67.5" font-family="Helvetica,sans-Serif" font-size="10.00">System.ComponentModel.UInt32</text>
<text text-anchor="middle" x="388.5" y="-56.5" font-family="Helvetica,sans-Serif" font-size="10.00">Converter</text>
</a>
</g>
</g>
<!-- Node0&#45;&gt;Node11 -->
<g id="edge11" class="edge"><title>Node0&#45;&gt;Node11</title>
<path fill="none" stroke="midnightblue" d="M202.091,-235.6C217.83,-198.051 252.707,-127.218 305,-88.5 309.675,-85.0383 314.841,-82.0743 320.239,-79.5367"/>
<polygon fill="midnightblue" stroke="midnightblue" points="198.69,-234.672 198.161,-245.254 205.173,-237.312 198.69,-234.672"/>
</g>
<!-- Node12 -->
<g id="node13" class="node"><title>Node12</title>
<g id="a_node13"><a xlink:href="class_system_1_1_component_model_1_1_u_int64_converter.html" target="_top" xlink:title="Provides a type converter to convert 64&#45;bit unsigned integer objects to and from other representation...">
<polygon fill="none" stroke="black" points="308.5,-0.5 308.5,-30.5 468.5,-30.5 468.5,-0.5 308.5,-0.5"/>
<text text-anchor="start" x="316.5" y="-18.5" font-family="Helvetica,sans-Serif" font-size="10.00">System.ComponentModel.UInt64</text>
<text text-anchor="middle" x="388.5" y="-7.5" font-family="Helvetica,sans-Serif" font-size="10.00">Converter</text>
</a>
</g>
</g>
<!-- Node0&#45;&gt;Node12 -->
<g id="edge12" class="edge"><title>Node0&#45;&gt;Node12</title>
<path fill="none" stroke="midnightblue" d="M198.217,-235.55C210.021,-189.738 241.467,-92.098 305,-39.5 309.136,-36.0755 313.741,-33.1396 318.6,-30.6225"/>
<polygon fill="midnightblue" stroke="midnightblue" points="194.818,-234.718 195.811,-245.266 201.612,-236.401 194.818,-234.718"/>
</g>
<!-- Node1 -->
<g id="node2" class="node"><title>Node1</title>
<g id="a_node2"><a xlink:href="class_system_1_1_component_model_1_1_type_converter.html" target="_top" xlink:title="Provides a unified way of converting types of values to other types, as well as for accessing standar...">
<polygon fill="none" stroke="black" points="0,-251 0,-270 78,-270 78,-251 0,-251"/>
<text text-anchor="middle" x="39" y="-258" font-family="Helvetica,sans-Serif" font-size="10.00">TypeConverter</text>
</a>
</g>
</g>
<!-- Node1&#45;&gt;Node0 -->
<g id="edge1" class="edge"><title>Node1&#45;&gt;Node0</title>
<path fill="none" stroke="midnightblue" d="M88.3896,-260.5C96.5335,-260.5 105.16,-260.5 113.813,-260.5"/>
<polygon fill="midnightblue" stroke="midnightblue" points="88.3669,-257 78.3669,-260.5 88.3669,-264 88.3669,-257"/>
</g>
</g>
</svg>
        <g id="navigator" transform="translate(0 0)" fill="#404254">
                <rect fill="#f2f5e9" fill-opacity="0.5" stroke="#606060" stroke-width=".5" x="0" y="0" width="60" height="60"/>
                <use id="zoomplus" xlink:href="#zoomPlus" x="17" y="9" onmousedown="handleZoom(evt,'in')"/>
                <use id="zoomminus" xlink:href="#zoomMin" x="42" y="9" onmousedown="handleZoom(evt,'out')"/>
                <use id="reset" xlink:href="#resetDef" x="30" y="36" onmousedown="handleReset()"/>
                <g id="arrowUp" xlink:href="#dirArrow" transform="translate(30 24)" onmousedown="handlePan(0,-1)">
                  <use xlink:href="#rim" fill="#404040">
                        <set attributeName="fill" to="#808080" begin="arrowUp.mouseover" end="arrowUp.mouseout"/>
                  </use>
                  <path fill="none" stroke="white" stroke-width="1.5" d="M0,-3.0v7 M-2.5,-0.5L0,-3.0L2.5,-0.5"/>
                </g>
                <g id="arrowRight" xlink:href="#dirArrow" transform="rotate(90) translate(36 -43)" onmousedown="handlePan(1,0)">
                  <use xlink:href="#rim" fill="#404040">
                        <set attributeName="fill" to="#808080" begin="arrowRight.mouseover" end="arrowRight.mouseout"/>
                  </use>
                  <path fill="none" stroke="white" stroke-width="1.5" d="M0,-3.0v7 M-2.5,-0.5L0,-3.0L2.5,-0.5"/>
                </g>
                <g id="arrowDown" xlink:href="#dirArrow" transform="rotate(180) translate(-30 -48)" onmousedown="handlePan(0,1)">
                  <use xlink:href="#rim" fill="#404040">
                        <set attributeName="fill" to="#808080" begin="arrowDown.mouseover" end="arrowDown.mouseout"/>
                  </use>
                  <path fill="none" stroke="white" stroke-width="1.5" d="M0,-3.0v7 M-2.5,-0.5L0,-3.0L2.5,-0.5"/>
                </g>
                <g id="arrowLeft" xlink:href="#dirArrow" transform="rotate(270) translate(-36 17)" onmousedown="handlePan(-1,0)">
                  <use xlink:href="#rim" fill="#404040">
                        <set attributeName="fill" to="#808080" begin="arrowLeft.mouseover" end="arrowLeft.mouseout"/>
                  </use>
                  <path fill="none" stroke="white" stroke-width="1.5" d="M0,-3.0v7 M-2.5,-0.5L0,-3.0L2.5,-0.5"/>
                </g>
        </g>
        <svg viewBox="0 0 15 15" width="100%" height="30px" preserveAspectRatio="xMaxYMin meet">
         <g id="arrow_out" transform="scale(0.3 0.3)">
          <a xlink:href="class_system_1_1_component_model_1_1_base_number_converter__inherit__graph_org.svg" target="_base">
           <rect id="button" ry="5" rx="5" y="6" x="6" height="38" width="38"
                fill="#f2f5e9" fill-opacity="0.5" stroke="#606060" stroke-width="1.0"/>
           <path id="arrow"
             d="M 11.500037,31.436501 C 11.940474,20.09759 22.043105,11.32322 32.158766,21.979434 L 37.068811,17.246167 C 37.068811,17.246167 37.088388,32 37.088388,32 L 22.160133,31.978069 C 22.160133,31.978069 26.997745,27.140456 26.997745,27.140456 C 18.528582,18.264221 13.291696,25.230495 11.500037,31.436501 z"
             style="fill:#404040;"/>
          </a>
         </g>
        </svg>
</svg>
