<?xml version="1.0" encoding="UTF-8" standalone="no"?>
<!DOCTYPE svg PUBLIC "-//W3C//DTD SVG 1.1//EN"
 "http://www.w3.org/Graphics/SVG/1.1/DTD/svg11.dtd">
<!-- Generated by graphviz version 2.38.0 (20140413.2041)
 -->
<!-- Title: System.Runtime.Serialization.Formatters.Binary.BinaryMethodReturnMessage Pages: 1 -->
<svg width="194pt" height="174pt"
 viewBox="0.00 0.00 194.00 174.00" xmlns="http://www.w3.org/2000/svg" xmlns:xlink="http://www.w3.org/1999/xlink">
<g id="graph0" class="graph" transform="scale(1 1) rotate(0) translate(4 170)">
<title>System.Runtime.Serialization.Formatters.Binary.BinaryMethodReturnMessage</title>
<!-- Node1 -->
<g id="node1" class="node"><title>Node1</title>
<g id="a_node1"><a xlink:title=" ">
<polygon fill="#bfbfbf" stroke="black" points="0,-0.5 0,-41.5 186,-41.5 186,-0.5 0,-0.5"/>
<text text-anchor="start" x="8" y="-29.5" font-family="Helvetica,sans-Serif" font-size="10.00">System.Runtime.Serialization.</text>
<text text-anchor="start" x="8" y="-18.5" font-family="Helvetica,sans-Serif" font-size="10.00">Formatters.Binary.BinaryMethodReturn</text>
<text text-anchor="middle" x="93" y="-7.5" font-family="Helvetica,sans-Serif" font-size="10.00">Message</text>
</a>
</g>
</g>
<!-- Node2 -->
<g id="node2" class="node"><title>Node2</title>
<g id="a_node2"><a xlink:href="class_system_1_1_exception.html" target="_top" xlink:title="Represents errors that occur during application execution.To browse the .NET Framework source code fo...">
<polygon fill="none" stroke="black" points="44.5,-89.5 44.5,-108.5 141.5,-108.5 141.5,-89.5 44.5,-89.5"/>
<text text-anchor="middle" x="93" y="-96.5" font-family="Helvetica,sans-Serif" font-size="10.00">System.Exception</text>
</a>
</g>
</g>
<!-- Node2&#45;&gt;Node1 -->
<g id="edge1" class="edge"><title>Node2&#45;&gt;Node1</title>
<path fill="none" stroke="#9a32cd" stroke-dasharray="5,2" d="M93,-79.1372C93,-67.7291 93,-53.2071 93,-41.6584"/>
<polygon fill="#9a32cd" stroke="#9a32cd" points="89.5001,-79.2818 93,-89.2818 96.5001,-79.2819 89.5001,-79.2818"/>
<text text-anchor="middle" x="116.5" y="-63" font-family="Helvetica,sans-Serif" font-size="10.00"> Exception</text>
</g>
<!-- Node3 -->
<g id="node3" class="node"><title>Node3</title>
<g id="a_node3"><a xlink:href="interface_system_1_1_runtime_1_1_serialization_1_1_i_serializable.html" target="_top" xlink:title="Allows an object to control its own serialization and deserialization.">
<polygon fill="none" stroke="black" points="16.5,-146.5 16.5,-165.5 85.5,-165.5 85.5,-146.5 16.5,-146.5"/>
<text text-anchor="middle" x="51" y="-153.5" font-family="Helvetica,sans-Serif" font-size="10.00">ISerializable</text>
</a>
</g>
</g>
<!-- Node3&#45;&gt;Node2 -->
<g id="edge2" class="edge"><title>Node3&#45;&gt;Node2</title>
<path fill="none" stroke="midnightblue" d="M63.8028,-138.234C71.2416,-128.493 80.3081,-116.62 86.345,-108.715"/>
<polygon fill="midnightblue" stroke="midnightblue" points="60.85,-136.334 57.5625,-146.406 66.4134,-140.583 60.85,-136.334"/>
</g>
<!-- Node4 -->
<g id="node4" class="node"><title>Node4</title>
<g id="a_node4"><a xlink:href="interface_system_1_1_runtime_1_1_interop_services_1_1___exception.html" target="_top" xlink:title="Exposes the public members of the T:System.Exception class to unmanaged code.">
<polygon fill="none" stroke="black" points="103.5,-146.5 103.5,-165.5 168.5,-165.5 168.5,-146.5 103.5,-146.5"/>
<text text-anchor="middle" x="136" y="-153.5" font-family="Helvetica,sans-Serif" font-size="10.00">_Exception</text>
</a>
</g>
</g>
<!-- Node4&#45;&gt;Node2 -->
<g id="edge3" class="edge"><title>Node4&#45;&gt;Node2</title>
<path fill="none" stroke="midnightblue" d="M122.892,-138.234C115.276,-128.493 105.994,-116.62 99.8135,-108.715"/>
<polygon fill="midnightblue" stroke="midnightblue" points="120.365,-140.684 129.281,-146.406 125.879,-136.372 120.365,-140.684"/>
</g>
</g>
</svg>
