<?xml version="1.0" encoding="UTF-8" standalone="no"?>
<!DOCTYPE svg PUBLIC "-//W3C//DTD SVG 1.1//EN"
 "http://www.w3.org/Graphics/SVG/1.1/DTD/svg11.dtd">
<!-- Generated by graphviz version 2.38.0 (20140413.2041)
 -->
<!-- Title: System.Security.Cryptography.SHA384 Pages: 1 -->
<svg width="167pt" height="274pt"
 viewBox="0.00 0.00 166.50 274.00" xmlns="http://www.w3.org/2000/svg" xmlns:xlink="http://www.w3.org/1999/xlink">
<g id="graph0" class="graph" transform="scale(1 1) rotate(0) translate(4 270)">
<title>System.Security.Cryptography.SHA384</title>
<!-- Node0 -->
<g id="node1" class="node"><title>Node0</title>
<g id="a_node1"><a xlink:title="Computes the T:System.Security.Cryptography.SHA384 hash for the input data.">
<polygon fill="#bfbfbf" stroke="black" points="0,-67.5 0,-97.5 153,-97.5 153,-67.5 0,-67.5"/>
<text text-anchor="start" x="8" y="-85.5" font-family="Helvetica,sans-Serif" font-size="10.00">System.Security.Cryptography.</text>
<text text-anchor="middle" x="76.5" y="-74.5" font-family="Helvetica,sans-Serif" font-size="10.00">SHA384</text>
</a>
</g>
</g>
<!-- Node4 -->
<g id="node5" class="node"><title>Node4</title>
<g id="a_node5"><a xlink:href="class_system_1_1_security_1_1_cryptography_1_1_s_h_a384_managed.html" target="_top" xlink:title="Computes the T:System.Security.Cryptography.SHA384 hash for the input data using the managed library.">
<polygon fill="none" stroke="black" points="0,-0.5 0,-30.5 153,-30.5 153,-0.5 0,-0.5"/>
<text text-anchor="start" x="8" y="-18.5" font-family="Helvetica,sans-Serif" font-size="10.00">System.Security.Cryptography.</text>
<text text-anchor="middle" x="76.5" y="-7.5" font-family="Helvetica,sans-Serif" font-size="10.00">SHA384Managed</text>
</a>
</g>
</g>
<!-- Node0&#45;&gt;Node4 -->
<g id="edge5" class="edge"><title>Node0&#45;&gt;Node4</title>
<path fill="none" stroke="midnightblue" d="M76.5,-57.1081C76.5,-48.1539 76.5,-38.3227 76.5,-30.5765"/>
<polygon fill="midnightblue" stroke="midnightblue" points="73.0001,-57.3959 76.5,-67.396 80.0001,-57.396 73.0001,-57.3959"/>
</g>
<!-- Node1 -->
<g id="node2" class="node"><title>Node1</title>
<g id="a_node2"><a xlink:href="class_system_1_1_security_1_1_cryptography_1_1_hash_algorithm.html" target="_top" xlink:title="Represents the base class from which all implementations of cryptographic hash algorithms must derive...">
<polygon fill="none" stroke="black" points="36.5,-134.5 36.5,-153.5 116.5,-153.5 116.5,-134.5 36.5,-134.5"/>
<text text-anchor="middle" x="76.5" y="-141.5" font-family="Helvetica,sans-Serif" font-size="10.00">HashAlgorithm</text>
</a>
</g>
</g>
<!-- Node1&#45;&gt;Node0 -->
<g id="edge1" class="edge"><title>Node1&#45;&gt;Node0</title>
<path fill="none" stroke="midnightblue" d="M76.5,-124.235C76.5,-115.586 76.5,-105.497 76.5,-97.523"/>
<polygon fill="midnightblue" stroke="midnightblue" points="73.0001,-124.475 76.5,-134.475 80.0001,-124.475 73.0001,-124.475"/>
</g>
<!-- Node2 -->
<g id="node3" class="node"><title>Node2</title>
<g id="a_node3"><a xlink:href="interface_system_1_1_i_disposable.html" target="_top" xlink:title="Provides a mechanism for releasing unmanaged resources.To browse the .NET Framework source code for t...">
<polygon fill="none" stroke="black" points="43,-246.5 43,-265.5 110,-265.5 110,-246.5 43,-246.5"/>
<text text-anchor="middle" x="76.5" y="-253.5" font-family="Helvetica,sans-Serif" font-size="10.00">IDisposable</text>
</a>
</g>
</g>
<!-- Node2&#45;&gt;Node1 -->
<g id="edge2" class="edge"><title>Node2&#45;&gt;Node1</title>
<path fill="none" stroke="midnightblue" d="M68.0544,-237.145C64.675,-229.052 61.1876,-219.243 59.5,-210 55.7706,-189.575 65.4462,-166.129 71.6885,-153.737"/>
<polygon fill="midnightblue" stroke="midnightblue" points="64.8687,-238.595 72.1337,-246.307 71.2635,-235.748 64.8687,-238.595"/>
</g>
<!-- Node3 -->
<g id="node4" class="node"><title>Node3</title>
<g id="a_node4"><a xlink:href="interface_system_1_1_security_1_1_cryptography_1_1_i_crypto_transform.html" target="_top" xlink:title="Defines the basic operations of cryptographic transformations.">
<polygon fill="none" stroke="black" points="68.5,-190.5 68.5,-209.5 158.5,-209.5 158.5,-190.5 68.5,-190.5"/>
<text text-anchor="middle" x="113.5" y="-197.5" font-family="Helvetica,sans-Serif" font-size="10.00">ICryptoTransform</text>
</a>
</g>
</g>
<!-- Node2&#45;&gt;Node3 -->
<g id="edge4" class="edge"><title>Node2&#45;&gt;Node3</title>
<path fill="none" stroke="midnightblue" d="M88.4458,-237.566C94.8117,-228.275 102.367,-217.248 107.504,-209.751"/>
<polygon fill="midnightblue" stroke="midnightblue" points="85.3749,-235.855 82.6098,-246.083 91.1494,-239.812 85.3749,-235.855"/>
</g>
<!-- Node3&#45;&gt;Node1 -->
<g id="edge3" class="edge"><title>Node3&#45;&gt;Node1</title>
<path fill="none" stroke="midnightblue" d="M101.554,-181.566C95.1883,-172.275 87.6332,-161.248 82.4961,-153.751"/>
<polygon fill="midnightblue" stroke="midnightblue" points="98.8506,-183.812 107.39,-190.083 104.625,-179.855 98.8506,-183.812"/>
</g>
</g>
</svg>
