<?xml version="1.0" encoding="UTF-8" standalone="no"?>
<!DOCTYPE svg PUBLIC "-//W3C//DTD SVG 1.1//EN"
 "http://www.w3.org/Graphics/SVG/1.1/DTD/svg11.dtd">
<!-- Generated by graphviz version 2.38.0 (20140413.2041)
 -->
<!-- Title: System.Runtime.Remoting.Proxies.ProxyAttribute Pages: 1 -->
<svg width="168pt" height="95pt"
 viewBox="0.00 0.00 168.00 95.00" xmlns="http://www.w3.org/2000/svg" xmlns:xlink="http://www.w3.org/1999/xlink">
<g id="graph0" class="graph" transform="scale(1 1) rotate(0) translate(4 91)">
<title>System.Runtime.Remoting.Proxies.ProxyAttribute</title>
<!-- Node0 -->
<g id="node1" class="node"><title>Node0</title>
<g id="a_node1"><a xlink:title="Indicates that an object type requires a custom proxy.">
<polygon fill="#bfbfbf" stroke="black" points="2,-0.5 2,-30.5 139,-30.5 139,-0.5 2,-0.5"/>
<text text-anchor="start" x="10" y="-18.5" font-family="Helvetica,sans-Serif" font-size="10.00">System.Runtime.Remoting.</text>
<text text-anchor="middle" x="70.5" y="-7.5" font-family="Helvetica,sans-Serif" font-size="10.00">Proxies.ProxyAttribute</text>
</a>
</g>
</g>
<!-- Node1 -->
<g id="node2" class="node"><title>Node1</title>
<g id="a_node2"><a xlink:href="class_system_1_1_attribute.html" target="_top" xlink:title="Represents the base class for custom attributes.">
<polygon fill="none" stroke="red" points="0,-67.5 0,-86.5 53,-86.5 53,-67.5 0,-67.5"/>
<text text-anchor="middle" x="26.5" y="-74.5" font-family="Helvetica,sans-Serif" font-size="10.00">Attribute</text>
</a>
</g>
</g>
<!-- Node1&#45;&gt;Node0 -->
<g id="edge1" class="edge"><title>Node1&#45;&gt;Node0</title>
<path fill="none" stroke="midnightblue" d="M38.8887,-59.2472C45.5889,-50.1866 53.7696,-39.124 60.1301,-30.523"/>
<polygon fill="midnightblue" stroke="midnightblue" points="35.9358,-57.3537 32.8041,-67.4751 41.5641,-61.5158 35.9358,-57.3537"/>
</g>
<!-- Node3 -->
<g id="node3" class="node"><title>Node3</title>
<g id="a_node3"><a xlink:href="interface_system_1_1_runtime_1_1_remoting_1_1_contexts_1_1_i_context_attribute.html" target="_top" xlink:title="Identifies a context attribute.">
<polygon fill="none" stroke="black" points="71,-67.5 71,-86.5 160,-86.5 160,-67.5 71,-67.5"/>
<text text-anchor="middle" x="115.5" y="-74.5" font-family="Helvetica,sans-Serif" font-size="10.00">IContextAttribute</text>
</a>
</g>
</g>
<!-- Node3&#45;&gt;Node0 -->
<g id="edge2" class="edge"><title>Node3&#45;&gt;Node0</title>
<path fill="none" stroke="midnightblue" d="M102.83,-59.2472C95.9772,-50.1866 87.6106,-39.124 81.1056,-30.523"/>
<polygon fill="midnightblue" stroke="midnightblue" points="100.229,-61.6105 109.053,-67.4751 105.812,-57.388 100.229,-61.6105"/>
</g>
</g>
</svg>
