<?xml version="1.0" encoding="UTF-8" standalone="no"?>
<!DOCTYPE svg PUBLIC "-//W3C//DTD SVG 1.1//EN"
 "http://www.w3.org/Graphics/SVG/1.1/DTD/svg11.dtd">
<!-- Generated by graphviz version 2.38.0 (20140413.2041)
 -->
<!-- Title: System.Runtime.Remoting.Messaging.ConstructionResponse Pages: 1 -->
<!--zoomable 252 -->
<svg id="main" version="1.1" xmlns="http://www.w3.org/2000/svg" xmlns:xlink="http://www.w3.org/1999/xlink" xml:space="preserve" onload="init(evt)">
<style type="text/css"><![CDATA[
.edge:hover path { stroke: red; }
.edge:hover polygon { stroke: red; fill: red; }
]]></style>
<script type="text/javascript"><![CDATA[
var edges = document.getElementsByTagName('g');
if (edges && edges.length) {
  for (var i=0;i<edges.length;i++) {
    if (edges[i].id.substr(0,4)=='edge') {
      edges[i].setAttribute('class','edge');
    }
  }
}
]]></script>
        <defs>
                <circle id="rim" cx="0" cy="0" r="7"/>
                <circle id="rim2" cx="0" cy="0" r="3.5"/>
                <g id="zoomPlus">
                        <use xlink:href="#rim" fill="#404040">
                                <set attributeName="fill" to="#808080" begin="zoomplus.mouseover" end="zoomplus.mouseout"/>
                        </use>
                        <path d="M-4,0h8M0,-4v8" fill="none" stroke="white" stroke-width="1.5" pointer-events="none"/>
                </g>
                <g id="zoomMin">
                        <use xlink:href="#rim" fill="#404040">
                                <set attributeName="fill" to="#808080" begin="zoomminus.mouseover" end="zoomminus.mouseout"/>
                        </use>
                        <path d="M-4,0h8" fill="none" stroke="white" stroke-width="1.5" pointer-events="none"/>
                </g>
                <g id="dirArrow">
                        <path fill="none" stroke="white" stroke-width="1.5" d="M0,-3.0v7 M-2.5,-0.5L0,-3.0L2.5,-0.5"/>
                </g>
               <g id="resetDef">
                       <use xlink:href="#rim2" fill="#404040">
                               <set attributeName="fill" to="#808080" begin="reset.mouseover" end="reset.mouseout"/>
                       </use>
               </g>
        </defs>

<script type="text/javascript">
var viewWidth = 730;
var viewHeight = 252;
var sectionId = 'dynsection-0';
</script>
<script xlink:href="svgpan.js"/>
<svg id="graph" class="graph">
<g id="viewport">
<title>System.Runtime.Remoting.Messaging.ConstructionResponse</title>
<!-- Node0 -->
<g id="node1" class="node"><title>Node0</title>
<g id="a_node1"><a xlink:title="Implements the T:System.Runtime.Remoting.Activation.IConstructionReturnMessage interface to create a ...">
<polygon fill="#bfbfbf" stroke="black" points="557,-80.5375 557,-110.537 722,-110.537 722,-80.5375 557,-80.5375"/>
<text text-anchor="start" x="565" y="-98.5375" font-family="Helvetica,sans-Serif" font-size="10.00">System.Runtime.Remoting.</text>
<text text-anchor="middle" x="639.5" y="-87.5375" font-family="Helvetica,sans-Serif" font-size="10.00">Messaging.ConstructionResponse</text>
</a>
</g>
</g>
<!-- Node1 -->
<g id="node2" class="node"><title>Node1</title>
<g id="a_node2"><a xlink:href="class_system_1_1_runtime_1_1_remoting_1_1_messaging_1_1_method_response.html" target="_top" xlink:title="Implements the T:System.Runtime.Remoting.Messaging.IMethodReturnMessage interface to create a message...">
<polygon fill="none" stroke="black" points="404,-86.0375 404,-105.037 496,-105.037 496,-86.0375 404,-86.0375"/>
<text text-anchor="middle" x="450" y="-93.0375" font-family="Helvetica,sans-Serif" font-size="10.00">MethodResponse</text>
</a>
</g>
</g>
<!-- Node1&#45;&gt;Node0 -->
<g id="edge1" class="edge"><title>Node1&#45;&gt;Node0</title>
<path fill="none" stroke="midnightblue" d="M506.504,-95.5375C522.318,-95.5375 539.885,-95.5375 556.907,-95.5375"/>
<polygon fill="midnightblue" stroke="midnightblue" points="506.389,-92.0376 496.389,-95.5375 506.388,-99.0376 506.389,-92.0376"/>
</g>
<!-- Node2 -->
<g id="node3" class="node"><title>Node2</title>
<g id="a_node3"><a xlink:href="interface_system_1_1_runtime_1_1_remoting_1_1_messaging_1_1_i_method_return_message.html" target="_top" xlink:title="Defines the method call return message interface.">
<polygon fill="none" stroke="black" points="223,-181.037 223,-200.037 342,-200.037 342,-181.037 223,-181.037"/>
<text text-anchor="middle" x="282.5" y="-188.037" font-family="Helvetica,sans-Serif" font-size="10.00">IMethodReturnMessage</text>
</a>
</g>
</g>
<!-- Node2&#45;&gt;Node0 -->
<g id="edge15" class="edge"><title>Node2&#45;&gt;Node0</title>
<path fill="none" stroke="midnightblue" d="M329.072,-178.342C393.773,-161.028 512.169,-129.344 582.253,-110.59"/>
<polygon fill="midnightblue" stroke="midnightblue" points="327.919,-175.027 319.164,-180.994 329.729,-181.789 327.919,-175.027"/>
</g>
<!-- Node2&#45;&gt;Node1 -->
<g id="edge2" class="edge"><title>Node2&#45;&gt;Node1</title>
<path fill="none" stroke="midnightblue" d="M329.392,-177.5C334.071,-175.694 338.685,-173.705 343,-171.537 362.526,-161.728 412.858,-123.513 436.448,-105.298"/>
<polygon fill="midnightblue" stroke="midnightblue" points="328.004,-174.279 319.773,-180.95 330.368,-180.868 328.004,-174.279"/>
</g>
<!-- Node8 -->
<g id="node9" class="node"><title>Node8</title>
<g id="a_node9"><a xlink:href="interface_system_1_1_runtime_1_1_remoting_1_1_activation_1_1_i_construction_return_message.html" target="_top" xlink:title="Identifies a T:System.Runtime.Remoting.Messaging.IMethodReturnMessage that is returned after attempti...">
<polygon fill="none" stroke="black" points="379,-200.037 379,-219.037 521,-219.037 521,-200.037 379,-200.037"/>
<text text-anchor="middle" x="450" y="-207.037" font-family="Helvetica,sans-Serif" font-size="10.00">IConstructionReturnMessage</text>
</a>
</g>
</g>
<!-- Node2&#45;&gt;Node8 -->
<g id="edge12" class="edge"><title>Node2&#45;&gt;Node8</title>
<path fill="none" stroke="midnightblue" d="M352.415,-198.449C361.122,-199.449 370.039,-200.472 378.766,-201.474"/>
<polygon fill="midnightblue" stroke="midnightblue" points="352.649,-194.953 342.315,-197.29 351.851,-201.907 352.649,-194.953"/>
</g>
<!-- Node3 -->
<g id="node4" class="node"><title>Node3</title>
<g id="a_node4"><a xlink:href="interface_system_1_1_runtime_1_1_remoting_1_1_messaging_1_1_i_method_message.html" target="_top" xlink:title="Defines the method message interface.">
<polygon fill="none" stroke="black" points="95,-57.0375 95,-76.0375 186,-76.0375 186,-57.0375 95,-57.0375"/>
<text text-anchor="middle" x="140.5" y="-64.0375" font-family="Helvetica,sans-Serif" font-size="10.00">IMethodMessage</text>
</a>
</g>
</g>
<!-- Node3&#45;&gt;Node0 -->
<g id="edge16" class="edge"><title>Node3&#45;&gt;Node0</title>
<path fill="none" stroke="midnightblue" d="M183.995,-54.5675C196.166,-51.6697 209.52,-48.9904 222,-47.5375 350.151,-32.619 500.51,-61.3701 580.89,-80.4704"/>
<polygon fill="midnightblue" stroke="midnightblue" points="182.953,-51.2199 174.094,-57.0308 184.643,-58.0128 182.953,-51.2199"/>
</g>
<!-- Node3&#45;&gt;Node1 -->
<g id="edge6" class="edge"><title>Node3&#45;&gt;Node1</title>
<path fill="none" stroke="midnightblue" d="M196.273,-57.7519C237.028,-52.7446 293.862,-48.9958 343,-57.5375 374.01,-62.9279 407.941,-76.568 428.853,-85.9493"/>
<polygon fill="midnightblue" stroke="midnightblue" points="195.74,-54.2915 186.272,-59.0453 196.638,-61.2337 195.74,-54.2915"/>
</g>
<!-- Node3&#45;&gt;Node2 -->
<g id="edge3" class="edge"><title>Node3&#45;&gt;Node2</title>
<path fill="none" stroke="midnightblue" d="M156.726,-83.8394C165.522,-94.0374 176.66,-107.301 186,-119.537 203.056,-141.881 199.406,-154.815 222,-171.537 227.23,-175.408 233.276,-178.508 239.47,-180.986"/>
<polygon fill="midnightblue" stroke="midnightblue" points="159.183,-81.3312 149.978,-76.0842 153.902,-85.9259 159.183,-81.3312"/>
</g>
<!-- Node3&#45;&gt;Node8 -->
<g id="edge13" class="edge"><title>Node3&#45;&gt;Node8</title>
<path fill="none" stroke="midnightblue" d="M145.874,-86.2653C154.263,-118.77 176.018,-182.655 222,-209.537 283.07,-245.24 370.101,-230.876 416.663,-219.102"/>
<polygon fill="midnightblue" stroke="midnightblue" points="149.191,-85.0908 143.446,-76.1889 142.386,-86.7306 149.191,-85.0908"/>
</g>
<!-- Node4 -->
<g id="node5" class="node"><title>Node4</title>
<g id="a_node5"><a xlink:href="interface_system_1_1_runtime_1_1_remoting_1_1_messaging_1_1_i_message.html" target="_top" xlink:title="Contains communication data sent between cooperating message sinks.">
<polygon fill="none" stroke="black" points="0,-57.0375 0,-76.0375 59,-76.0375 59,-57.0375 0,-57.0375"/>
<text text-anchor="middle" x="29.5" y="-64.0375" font-family="Helvetica,sans-Serif" font-size="10.00">IMessage</text>
</a>
</g>
</g>
<!-- Node4&#45;&gt;Node0 -->
<g id="edge17" class="edge"><title>Node4&#45;&gt;Node0</title>
<path fill="none" stroke="midnightblue" d="M51.9212,-51.0427C63.951,-43.281 79.6038,-34.6729 95,-30.5375 277.937,18.5999 337.484,3.39176 521,-43.5375 553.418,-51.8276 588.187,-68.2555 611.421,-80.4385"/>
<polygon fill="midnightblue" stroke="midnightblue" points="49.8277,-48.233 43.4925,-56.7251 53.7407,-54.0372 49.8277,-48.233"/>
</g>
<!-- Node4&#45;&gt;Node1 -->
<g id="edge7" class="edge"><title>Node4&#45;&gt;Node1</title>
<path fill="none" stroke="midnightblue" d="M66.171,-54.0552C75.442,-51.3592 85.4967,-48.9081 95,-47.5375 204.093,-31.8037 235.259,-24.2801 343,-47.5375 377.162,-54.9118 413.56,-74.2399 433.571,-85.9978"/>
<polygon fill="midnightblue" stroke="midnightblue" points="65.01,-50.7504 56.4819,-57.0371 67.0691,-57.4407 65.01,-50.7504"/>
</g>
<!-- Node4&#45;&gt;Node2 -->
<g id="edge5" class="edge"><title>Node4&#45;&gt;Node2</title>
<path fill="none" stroke="midnightblue" d="M54.5753,-81.7184C90.1458,-103.684 159.308,-144.638 222,-171.537 230.171,-175.044 239.213,-178.253 247.728,-180.996"/>
<polygon fill="midnightblue" stroke="midnightblue" points="56.2132,-78.6155 45.8727,-76.3082 52.5174,-84.5604 56.2132,-78.6155"/>
</g>
<!-- Node4&#45;&gt;Node3 -->
<g id="edge4" class="edge"><title>Node4&#45;&gt;Node3</title>
<path fill="none" stroke="midnightblue" d="M69.2082,-66.5375C77.4295,-66.5375 86.1756,-66.5375 94.6051,-66.5375"/>
<polygon fill="midnightblue" stroke="midnightblue" points="69.1385,-63.0376 59.1385,-66.5375 69.1384,-70.0376 69.1385,-63.0376"/>
</g>
<!-- Node4&#45;&gt;Node8 -->
<g id="edge14" class="edge"><title>Node4&#45;&gt;Node8</title>
<path fill="none" stroke="midnightblue" d="M42.9811,-84.8205C70.1347,-122.623 138.861,-208.065 222,-234.537 292.269,-256.912 380.26,-233.576 423.126,-219.141"/>
<polygon fill="midnightblue" stroke="midnightblue" points="45.6052,-82.4675 36.9899,-76.3009 39.8792,-86.4941 45.6052,-82.4675"/>
</g>
<!-- Node5 -->
<g id="node6" class="node"><title>Node5</title>
<g id="a_node6"><a xlink:href="interface_system_1_1_runtime_1_1_serialization_1_1_i_serializable.html" target="_top" xlink:title="Allows an object to control its own serialization and deserialization.">
<polygon fill="none" stroke="black" points="248,-143.037 248,-162.037 317,-162.037 317,-143.037 248,-143.037"/>
<text text-anchor="middle" x="282.5" y="-150.037" font-family="Helvetica,sans-Serif" font-size="10.00">ISerializable</text>
</a>
</g>
</g>
<!-- Node5&#45;&gt;Node1 -->
<g id="edge8" class="edge"><title>Node5&#45;&gt;Node1</title>
<path fill="none" stroke="midnightblue" d="M323.98,-139.822C330.357,-137.758 336.867,-135.615 343,-133.537 370.403,-124.253 401.55,-113.003 422.952,-105.163"/>
<polygon fill="midnightblue" stroke="midnightblue" points="322.594,-136.59 314.143,-142.979 324.734,-143.255 322.594,-136.59"/>
</g>
<!-- Node6 -->
<g id="node7" class="node"><title>Node6</title>
<g id="a_node7"><a xlink:href="interface_system_1_1_runtime_1_1_remoting_1_1_messaging_1_1_i_serialization_root_object.html" target="_top" xlink:title=" ">
<polygon fill="none" stroke="black" points="222,-105.037 222,-124.037 343,-124.037 343,-105.037 222,-105.037"/>
<text text-anchor="middle" x="282.5" y="-112.037" font-family="Helvetica,sans-Serif" font-size="10.00">ISerializationRootObject</text>
</a>
</g>
</g>
<!-- Node6&#45;&gt;Node1 -->
<g id="edge9" class="edge"><title>Node6&#45;&gt;Node1</title>
<path fill="none" stroke="midnightblue" d="M353.227,-106.533C370.362,-104.565 388.261,-102.511 403.886,-100.717"/>
<polygon fill="midnightblue" stroke="midnightblue" points="352.785,-103.06 343.249,-107.678 353.583,-110.015 352.785,-103.06"/>
</g>
<!-- Node7 -->
<g id="node8" class="node"><title>Node7</title>
<g id="a_node8"><a xlink:href="interface_system_1_1_runtime_1_1_remoting_1_1_messaging_1_1_i_internal_message.html" target="_top" xlink:title=" ">
<polygon fill="none" stroke="black" points="237.5,-67.0375 237.5,-86.0375 327.5,-86.0375 327.5,-67.0375 237.5,-67.0375"/>
<text text-anchor="middle" x="282.5" y="-74.0375" font-family="Helvetica,sans-Serif" font-size="10.00">IInternalMessage</text>
</a>
</g>
</g>
<!-- Node7&#45;&gt;Node1 -->
<g id="edge10" class="edge"><title>Node7&#45;&gt;Node1</title>
<path fill="none" stroke="midnightblue" d="M338.075,-82.8029C359.426,-85.2541 383.619,-88.0315 403.951,-90.3656"/>
<polygon fill="midnightblue" stroke="midnightblue" points="338.185,-79.2926 327.851,-81.6291 337.386,-86.2469 338.185,-79.2926"/>
</g>
<!-- Node8&#45;&gt;Node0 -->
<g id="edge11" class="edge"><title>Node8&#45;&gt;Node0</title>
<path fill="none" stroke="midnightblue" d="M482.864,-195.845C495.023,-190.278 508.87,-183.516 521,-176.537 556.866,-155.905 595.94,-127.722 618.774,-110.619"/>
<polygon fill="midnightblue" stroke="midnightblue" points="481.227,-192.744 473.54,-200.035 484.096,-199.129 481.227,-192.744"/>
</g>
</g>
</svg>
        <g id="navigator" transform="translate(0 0)" fill="#404254">
                <rect fill="#f2f5e9" fill-opacity="0.5" stroke="#606060" stroke-width=".5" x="0" y="0" width="60" height="60"/>
                <use id="zoomplus" xlink:href="#zoomPlus" x="17" y="9" onmousedown="handleZoom(evt,'in')"/>
                <use id="zoomminus" xlink:href="#zoomMin" x="42" y="9" onmousedown="handleZoom(evt,'out')"/>
                <use id="reset" xlink:href="#resetDef" x="30" y="36" onmousedown="handleReset()"/>
                <g id="arrowUp" xlink:href="#dirArrow" transform="translate(30 24)" onmousedown="handlePan(0,-1)">
                  <use xlink:href="#rim" fill="#404040">
                        <set attributeName="fill" to="#808080" begin="arrowUp.mouseover" end="arrowUp.mouseout"/>
                  </use>
                  <path fill="none" stroke="white" stroke-width="1.5" d="M0,-3.0v7 M-2.5,-0.5L0,-3.0L2.5,-0.5"/>
                </g>
                <g id="arrowRight" xlink:href="#dirArrow" transform="rotate(90) translate(36 -43)" onmousedown="handlePan(1,0)">
                  <use xlink:href="#rim" fill="#404040">
                        <set attributeName="fill" to="#808080" begin="arrowRight.mouseover" end="arrowRight.mouseout"/>
                  </use>
                  <path fill="none" stroke="white" stroke-width="1.5" d="M0,-3.0v7 M-2.5,-0.5L0,-3.0L2.5,-0.5"/>
                </g>
                <g id="arrowDown" xlink:href="#dirArrow" transform="rotate(180) translate(-30 -48)" onmousedown="handlePan(0,1)">
                  <use xlink:href="#rim" fill="#404040">
                        <set attributeName="fill" to="#808080" begin="arrowDown.mouseover" end="arrowDown.mouseout"/>
                  </use>
                  <path fill="none" stroke="white" stroke-width="1.5" d="M0,-3.0v7 M-2.5,-0.5L0,-3.0L2.5,-0.5"/>
                </g>
                <g id="arrowLeft" xlink:href="#dirArrow" transform="rotate(270) translate(-36 17)" onmousedown="handlePan(-1,0)">
                  <use xlink:href="#rim" fill="#404040">
                        <set attributeName="fill" to="#808080" begin="arrowLeft.mouseover" end="arrowLeft.mouseout"/>
                  </use>
                  <path fill="none" stroke="white" stroke-width="1.5" d="M0,-3.0v7 M-2.5,-0.5L0,-3.0L2.5,-0.5"/>
                </g>
        </g>
        <svg viewBox="0 0 15 15" width="100%" height="30px" preserveAspectRatio="xMaxYMin meet">
         <g id="arrow_out" transform="scale(0.3 0.3)">
          <a xlink:href="class_system_1_1_runtime_1_1_remoting_1_1_messaging_1_1_construction_response__inherit__graph_org.svg" target="_base">
           <rect id="button" ry="5" rx="5" y="6" x="6" height="38" width="38"
                fill="#f2f5e9" fill-opacity="0.5" stroke="#606060" stroke-width="1.0"/>
           <path id="arrow"
             d="M 11.500037,31.436501 C 11.940474,20.09759 22.043105,11.32322 32.158766,21.979434 L 37.068811,17.246167 C 37.068811,17.246167 37.088388,32 37.088388,32 L 22.160133,31.978069 C 22.160133,31.978069 26.997745,27.140456 26.997745,27.140456 C 18.528582,18.264221 13.291696,25.230495 11.500037,31.436501 z"
             style="fill:#404040;"/>
          </a>
         </g>
        </svg>
</svg>
