<?xml version="1.0" encoding="UTF-8" standalone="no"?>
<!DOCTYPE svg PUBLIC "-//W3C//DTD SVG 1.1//EN"
 "http://www.w3.org/Graphics/SVG/1.1/DTD/svg11.dtd">
<!-- Generated by graphviz version 2.38.0 (20140413.2041)
 -->
<!-- Title: System.Reflection.Module Pages: 1 -->
<svg width="504pt" height="95pt"
 viewBox="0.00 0.00 504.00 95.00" xmlns="http://www.w3.org/2000/svg" xmlns:xlink="http://www.w3.org/1999/xlink">
<g id="graph0" class="graph" transform="scale(1 1) rotate(0) translate(4 91)">
<title>System.Reflection.Module</title>
<!-- Node5 -->
<g id="node1" class="node"><title>Node5</title>
<g id="a_node1"><a xlink:title="Performs reflection on a module.">
<polygon fill="#bfbfbf" stroke="black" points="97,-0.5 97,-19.5 228,-19.5 228,-0.5 97,-0.5"/>
<text text-anchor="middle" x="162.5" y="-7.5" font-family="Helvetica,sans-Serif" font-size="10.00">System.Reflection.Module</text>
</a>
</g>
</g>
<!-- Node6 -->
<g id="node2" class="node"><title>Node6</title>
<g id="a_node2"><a xlink:href="interface_system_1_1_runtime_1_1_interop_services_1_1___module.html" target="_top" xlink:title="Exposes the T:System.Reflection.Module class to unmanaged code.">
<polygon fill="none" stroke="black" points="0,-67.5 0,-86.5 53,-86.5 53,-67.5 0,-67.5"/>
<text text-anchor="middle" x="26.5" y="-74.5" font-family="Helvetica,sans-Serif" font-size="10.00">_Module</text>
</a>
</g>
</g>
<!-- Node6&#45;&gt;Node5 -->
<g id="edge1" class="edge"><title>Node6&#45;&gt;Node5</title>
<path fill="none" stroke="midnightblue" d="M53.8179,-62.9436C80.7554,-50.0691 121.162,-30.7573 144.366,-19.6672"/>
<polygon fill="midnightblue" stroke="midnightblue" points="52.0729,-59.8984 44.5597,-67.3685 55.0915,-66.2141 52.0729,-59.8984"/>
</g>
<!-- Node7 -->
<g id="node3" class="node"><title>Node7</title>
<g id="a_node3"><a xlink:href="interface_system_1_1_runtime_1_1_serialization_1_1_i_serializable.html" target="_top" xlink:title="Allows an object to control its own serialization and deserialization.">
<polygon fill="none" stroke="black" points="71,-67.5 71,-86.5 140,-86.5 140,-67.5 71,-67.5"/>
<text text-anchor="middle" x="105.5" y="-74.5" font-family="Helvetica,sans-Serif" font-size="10.00">ISerializable</text>
</a>
</g>
</g>
<!-- Node7&#45;&gt;Node5 -->
<g id="edge2" class="edge"><title>Node7&#45;&gt;Node5</title>
<path fill="none" stroke="midnightblue" d="M119.851,-59.6348C130.998,-46.9228 146.016,-29.7978 154.935,-19.6273"/>
<polygon fill="midnightblue" stroke="midnightblue" points="117.149,-57.4075 113.187,-67.2338 122.412,-62.0228 117.149,-57.4075"/>
</g>
<!-- Node8 -->
<g id="node4" class="node"><title>Node8</title>
<g id="a_node4"><a xlink:href="interface_system_1_1_reflection_1_1_i_custom_attribute_provider.html" target="_top" xlink:title="Provides custom attributes for reflection objects that support them.">
<polygon fill="none" stroke="black" points="158.5,-67.5 158.5,-86.5 282.5,-86.5 282.5,-67.5 158.5,-67.5"/>
<text text-anchor="middle" x="220.5" y="-74.5" font-family="Helvetica,sans-Serif" font-size="10.00">ICustomAttributeProvider</text>
</a>
</g>
</g>
<!-- Node8&#45;&gt;Node5 -->
<g id="edge3" class="edge"><title>Node8&#45;&gt;Node5</title>
<path fill="none" stroke="midnightblue" d="M205.897,-59.6348C194.554,-46.9228 179.273,-29.7978 170.198,-19.6273"/>
<polygon fill="midnightblue" stroke="midnightblue" points="203.408,-62.1026 212.678,-67.2338 208.631,-57.4421 203.408,-62.1026"/>
</g>
<!-- Node9 -->
<g id="node5" class="node"><title>Node9</title>
<g id="a_node5"><a xlink:href="struct_system_1_1_module_handle.html" target="_top" xlink:title="Represents a runtime handle for a module.">
<polygon fill="none" stroke="black" points="301,-67.5 301,-86.5 416,-86.5 416,-67.5 301,-67.5"/>
<text text-anchor="middle" x="358.5" y="-74.5" font-family="Helvetica,sans-Serif" font-size="10.00">System.ModuleHandle</text>
</a>
</g>
</g>
<!-- Node9&#45;&gt;Node5 -->
<g id="edge4" class="edge"><title>Node9&#45;&gt;Node5</title>
<path fill="none" stroke="#9a32cd" stroke-dasharray="5,2" d="M322.621,-64.1013C283.76,-51.2138 222.726,-30.9728 188.323,-19.5637"/>
<polygon fill="#9a32cd" stroke="#9a32cd" points="321.879,-67.5428 332.473,-67.3685 324.083,-60.8986 321.879,-67.5428"/>
<text text-anchor="middle" x="305" y="-41" font-family="Helvetica,sans-Serif" font-size="10.00"> ModuleHandle</text>
</g>
<!-- Node9&#45;&gt;Node9 -->
<g id="edge5" class="edge"><title>Node9&#45;&gt;Node9</title>
<path fill="none" stroke="#9a32cd" stroke-dasharray="5,2" d="M426.032,-81.4423C430.973,-80.4427 434,-78.9619 434,-77 434,-73.9375 426.624,-72.0474 416.107,-71.3296"/>
<polygon fill="#9a32cd" stroke="#9a32cd" points="425.602,-77.9688 416.107,-82.6704 426.461,-84.9158 425.602,-77.9688"/>
<text text-anchor="middle" x="465" y="-74.5" font-family="Helvetica,sans-Serif" font-size="10.00"> EmptyHandle</text>
</g>
</g>
</svg>
