<?xml version="1.0" encoding="UTF-8" standalone="no"?>
<!DOCTYPE svg PUBLIC "-//W3C//DTD SVG 1.1//EN"
 "http://www.w3.org/Graphics/SVG/1.1/DTD/svg11.dtd">
<!-- Generated by graphviz version 2.38.0 (20140413.2041)
 -->
<!-- Title: System.Diagnostics.EventLogEntryCollection Pages: 1 -->
<svg width="139pt" height="151pt"
 viewBox="0.00 0.00 139.00 151.00" xmlns="http://www.w3.org/2000/svg" xmlns:xlink="http://www.w3.org/1999/xlink">
<g id="graph0" class="graph" transform="scale(1 1) rotate(0) translate(4 147)">
<title>System.Diagnostics.EventLogEntryCollection</title>
<!-- Node0 -->
<g id="node1" class="node"><title>Node0</title>
<g id="a_node1"><a xlink:title="Defines size and enumerators for a collection of T:System.Diagnostics.EventLogEntry instances.">
<polygon fill="#bfbfbf" stroke="black" points="0,-0.5 0,-30.5 131,-30.5 131,-0.5 0,-0.5"/>
<text text-anchor="start" x="8" y="-18.5" font-family="Helvetica,sans-Serif" font-size="10.00">System.Diagnostics.Event</text>
<text text-anchor="middle" x="65.5" y="-7.5" font-family="Helvetica,sans-Serif" font-size="10.00">LogEntryCollection</text>
</a>
</g>
</g>
<!-- Node1 -->
<g id="node2" class="node"><title>Node1</title>
<g id="a_node2"><a xlink:href="interface_system_1_1_collections_1_1_i_collection.html" target="_top" xlink:title="Defines size, enumerators, and synchronization methods for all nongeneric collections.">
<polygon fill="none" stroke="black" points="64.5,-67.5 64.5,-86.5 126.5,-86.5 126.5,-67.5 64.5,-67.5"/>
<text text-anchor="middle" x="95.5" y="-74.5" font-family="Helvetica,sans-Serif" font-size="10.00">ICollection</text>
</a>
</g>
</g>
<!-- Node1&#45;&gt;Node0 -->
<g id="edge1" class="edge"><title>Node1&#45;&gt;Node0</title>
<path fill="none" stroke="midnightblue" d="M86.622,-58.392C82.1374,-49.4976 76.7716,-38.8553 72.5704,-30.523"/>
<polygon fill="midnightblue" stroke="midnightblue" points="83.5743,-60.1216 91.2017,-67.4751 89.8248,-56.9701 83.5743,-60.1216"/>
</g>
<!-- Node2 -->
<g id="node3" class="node"><title>Node2</title>
<g id="a_node3"><a xlink:href="interface_system_1_1_collections_1_1_i_enumerable.html" target="_top" xlink:title="Exposes an enumerator, which supports a simple iteration over a non&#45;generic collection....">
<polygon fill="none" stroke="black" points="30,-123.5 30,-142.5 101,-142.5 101,-123.5 30,-123.5"/>
<text text-anchor="middle" x="65.5" y="-130.5" font-family="Helvetica,sans-Serif" font-size="10.00">IEnumerable</text>
</a>
</g>
</g>
<!-- Node2&#45;&gt;Node0 -->
<g id="edge3" class="edge"><title>Node2&#45;&gt;Node0</title>
<path fill="none" stroke="midnightblue" d="M60.4626,-113.625C58.4917,-105.528 56.4726,-95.8602 55.5,-87 53.3417,-67.3387 57.7876,-44.715 61.4254,-30.512"/>
<polygon fill="midnightblue" stroke="midnightblue" points="57.1171,-114.667 63.0176,-123.467 63.8926,-112.908 57.1171,-114.667"/>
</g>
<!-- Node2&#45;&gt;Node1 -->
<g id="edge2" class="edge"><title>Node2&#45;&gt;Node1</title>
<path fill="none" stroke="midnightblue" d="M75.3474,-114.275C80.4748,-105.045 86.5165,-94.1703 90.6383,-86.7511"/>
<polygon fill="midnightblue" stroke="midnightblue" points="72.2508,-112.642 70.4539,-123.083 78.3699,-116.041 72.2508,-112.642"/>
</g>
</g>
</svg>
