<?xml version="1.0" encoding="UTF-8" standalone="no"?>
<!DOCTYPE svg PUBLIC "-//W3C//DTD SVG 1.1//EN"
 "http://www.w3.org/Graphics/SVG/1.1/DTD/svg11.dtd">
<!-- Generated by graphviz version 2.38.0 (20140413.2041)
 -->
<!-- Title: System.Collections.Hashtable Pages: 1 -->
<!--zoomable 257 -->
<svg id="main" version="1.1" xmlns="http://www.w3.org/2000/svg" xmlns:xlink="http://www.w3.org/1999/xlink" xml:space="preserve" onload="init(evt)">
<style type="text/css"><![CDATA[
.edge:hover path { stroke: red; }
.edge:hover polygon { stroke: red; fill: red; }
]]></style>
<script type="text/javascript"><![CDATA[
var edges = document.getElementsByTagName('g');
if (edges && edges.length) {
  for (var i=0;i<edges.length;i++) {
    if (edges[i].id.substr(0,4)=='edge') {
      edges[i].setAttribute('class','edge');
    }
  }
}
]]></script>
        <defs>
                <circle id="rim" cx="0" cy="0" r="7"/>
                <circle id="rim2" cx="0" cy="0" r="3.5"/>
                <g id="zoomPlus">
                        <use xlink:href="#rim" fill="#404040">
                                <set attributeName="fill" to="#808080" begin="zoomplus.mouseover" end="zoomplus.mouseout"/>
                        </use>
                        <path d="M-4,0h8M0,-4v8" fill="none" stroke="white" stroke-width="1.5" pointer-events="none"/>
                </g>
                <g id="zoomMin">
                        <use xlink:href="#rim" fill="#404040">
                                <set attributeName="fill" to="#808080" begin="zoomminus.mouseover" end="zoomminus.mouseout"/>
                        </use>
                        <path d="M-4,0h8" fill="none" stroke="white" stroke-width="1.5" pointer-events="none"/>
                </g>
                <g id="dirArrow">
                        <path fill="none" stroke="white" stroke-width="1.5" d="M0,-3.0v7 M-2.5,-0.5L0,-3.0L2.5,-0.5"/>
                </g>
               <g id="resetDef">
                       <use xlink:href="#rim2" fill="#404040">
                               <set attributeName="fill" to="#808080" begin="reset.mouseover" end="reset.mouseout"/>
                       </use>
               </g>
        </defs>

<script type="text/javascript">
var viewWidth = 622;
var viewHeight = 257;
var sectionId = 'dynsection-1';
</script>
<script xlink:href="svgpan.js"/>
<svg id="graph" class="graph">
<g id="viewport">
<title>System.Collections.Hashtable</title>
<!-- Node8 -->
<g id="node1" class="node"><title>Node8</title>
<g id="a_node1"><a xlink:title="Represents a collection of key/value pairs that are organized based on the hash code of the key....">
<polygon fill="#bfbfbf" stroke="black" points="466,-126 466,-145 614,-145 614,-126 466,-126"/>
<text text-anchor="middle" x="540" y="-133" font-family="Helvetica,sans-Serif" font-size="10.00">System.Collections.Hashtable</text>
</a>
</g>
</g>
<!-- Node9 -->
<g id="node2" class="node"><title>Node9</title>
<g id="a_node2"><a xlink:href="interface_system_1_1_collections_1_1_i_dictionary.html" target="_top" xlink:title="Represents a nongeneric collection of key/value pairs.">
<polygon fill="none" stroke="black" points="247,-202 247,-221 309,-221 309,-202 247,-202"/>
<text text-anchor="middle" x="278" y="-209" font-family="Helvetica,sans-Serif" font-size="10.00">IDictionary</text>
</a>
</g>
</g>
<!-- Node9&#45;&gt;Node8 -->
<g id="edge1" class="edge"><title>Node9&#45;&gt;Node8</title>
<path fill="none" stroke="midnightblue" d="M319.367,-210.035C354.243,-207.775 405.571,-202.038 448,-187.5 477.78,-177.296 508.868,-157.136 525.897,-145.136"/>
<polygon fill="midnightblue" stroke="midnightblue" points="318.88,-206.558 309.1,-210.631 319.286,-213.546 318.88,-206.558"/>
</g>
<!-- Node10 -->
<g id="node3" class="node"><title>Node10</title>
<g id="a_node3"><a xlink:href="interface_system_1_1_collections_1_1_i_collection.html" target="_top" xlink:title="Defines size, enumerators, and synchronization methods for all nongeneric collections.">
<polygon fill="none" stroke="black" points="108,-176 108,-195 170,-195 170,-176 108,-176"/>
<text text-anchor="middle" x="139" y="-183" font-family="Helvetica,sans-Serif" font-size="10.00">ICollection</text>
</a>
</g>
</g>
<!-- Node10&#45;&gt;Node8 -->
<g id="edge5" class="edge"><title>Node10&#45;&gt;Node8</title>
<path fill="none" stroke="midnightblue" d="M180.213,-181.271C239.077,-174.973 352.125,-162.474 448,-149.5 457.979,-148.15 468.558,-146.616 478.837,-145.071"/>
<polygon fill="midnightblue" stroke="midnightblue" points="179.784,-177.797 170.211,-182.337 180.526,-184.757 179.784,-177.797"/>
</g>
<!-- Node10&#45;&gt;Node9 -->
<g id="edge2" class="edge"><title>Node10&#45;&gt;Node9</title>
<path fill="none" stroke="midnightblue" d="M180.083,-193.107C201.306,-197.135 226.953,-202.002 246.531,-205.718"/>
<polygon fill="midnightblue" stroke="midnightblue" points="180.542,-189.632 170.065,-191.206 179.237,-196.509 180.542,-189.632"/>
</g>
<!-- Node11 -->
<g id="node4" class="node"><title>Node11</title>
<g id="a_node4"><a xlink:href="interface_system_1_1_collections_1_1_i_enumerable.html" target="_top" xlink:title="Exposes an enumerator, which supports a simple iteration over a non&#45;generic collection....">
<polygon fill="none" stroke="black" points="0,-214 0,-233 71,-233 71,-214 0,-214"/>
<text text-anchor="middle" x="35.5" y="-221" font-family="Helvetica,sans-Serif" font-size="10.00">IEnumerable</text>
</a>
</g>
</g>
<!-- Node11&#45;&gt;Node8 -->
<g id="edge6" class="edge"><title>Node11&#45;&gt;Node8</title>
<path fill="none" stroke="midnightblue" d="M77.8998,-234.734C81.9621,-235.248 86.0439,-235.538 90,-235.5 249.491,-233.961 303.988,-279.06 448,-210.5 482.752,-193.956 515.539,-161.263 530.505,-145.062"/>
<polygon fill="midnightblue" stroke="midnightblue" points="78.3664,-231.264 67.9248,-233.059 77.2068,-238.167 78.3664,-231.264"/>
</g>
<!-- Node11&#45;&gt;Node9 -->
<g id="edge4" class="edge"><title>Node11&#45;&gt;Node9</title>
<path fill="none" stroke="midnightblue" d="M81.385,-221.26C129.695,-218.85 205.194,-215.083 246.857,-213.004"/>
<polygon fill="midnightblue" stroke="midnightblue" points="81.027,-217.774 71.2139,-221.768 81.3759,-224.765 81.027,-217.774"/>
</g>
<!-- Node11&#45;&gt;Node10 -->
<g id="edge3" class="edge"><title>Node11&#45;&gt;Node10</title>
<path fill="none" stroke="midnightblue" d="M71.5389,-210.382C84.9634,-205.356 100.015,-199.721 112.395,-195.086"/>
<polygon fill="midnightblue" stroke="midnightblue" points="70.2507,-207.127 62.1127,-213.911 72.7051,-213.683 70.2507,-207.127"/>
</g>
<!-- Node12 -->
<g id="node5" class="node"><title>Node12</title>
<g id="a_node5"><a xlink:href="interface_system_1_1_runtime_1_1_serialization_1_1_i_serializable.html" target="_top" xlink:title="Allows an object to control its own serialization and deserialization.">
<polygon fill="none" stroke="black" points="243.5,-126 243.5,-145 312.5,-145 312.5,-126 243.5,-126"/>
<text text-anchor="middle" x="278" y="-133" font-family="Helvetica,sans-Serif" font-size="10.00">ISerializable</text>
</a>
</g>
</g>
<!-- Node12&#45;&gt;Node8 -->
<g id="edge7" class="edge"><title>Node12&#45;&gt;Node8</title>
<path fill="none" stroke="midnightblue" d="M323.224,-135.5C362.296,-135.5 420.038,-135.5 465.96,-135.5"/>
<polygon fill="midnightblue" stroke="midnightblue" points="322.724,-132 312.724,-135.5 322.724,-139 322.724,-132"/>
</g>
<!-- Node13 -->
<g id="node6" class="node"><title>Node13</title>
<g id="a_node6"><a xlink:href="interface_system_1_1_runtime_1_1_serialization_1_1_i_deserialization_callback.html" target="_top" xlink:title="Indicates that a class is to be notified when deserialization of the entire object graph has been com...">
<polygon fill="none" stroke="black" points="218,-88 218,-107 338,-107 338,-88 218,-88"/>
<text text-anchor="middle" x="278" y="-95" font-family="Helvetica,sans-Serif" font-size="10.00">IDeserializationCallback</text>
</a>
</g>
</g>
<!-- Node13&#45;&gt;Node8 -->
<g id="edge8" class="edge"><title>Node13&#45;&gt;Node8</title>
<path fill="none" stroke="midnightblue" d="M348.494,-107.657C387.313,-113.33 435.395,-120.358 473.542,-125.933"/>
<polygon fill="midnightblue" stroke="midnightblue" points="348.724,-104.153 338.323,-106.17 347.712,-111.08 348.724,-104.153"/>
</g>
<!-- Node14 -->
<g id="node7" class="node"><title>Node14</title>
<g id="a_node7"><a xlink:href="interface_system_1_1_i_cloneable.html" target="_top" xlink:title="Supports cloning, which creates a new instance of a class with the same value as an existing instance...">
<polygon fill="none" stroke="black" points="247,-50 247,-69 309,-69 309,-50 247,-50"/>
<text text-anchor="middle" x="278" y="-57" font-family="Helvetica,sans-Serif" font-size="10.00">ICloneable</text>
</a>
</g>
</g>
<!-- Node14&#45;&gt;Node8 -->
<g id="edge9" class="edge"><title>Node14&#45;&gt;Node8</title>
<path fill="none" stroke="midnightblue" d="M318.959,-70.1987C328.792,-72.8719 339.286,-75.7591 349,-78.5 393.126,-90.9501 404.088,-94.3135 448,-107.5 468.106,-113.538 490.659,-120.476 508.283,-125.935"/>
<polygon fill="midnightblue" stroke="midnightblue" points="319.58,-66.7407 309.012,-67.5055 317.75,-73.4974 319.58,-66.7407"/>
</g>
<!-- Node15 -->
<g id="node8" class="node"><title>Node15</title>
<g id="a_node8"><a xlink:href="interface_system_1_1_collections_1_1_i_equality_comparer.html" target="_top" xlink:title="Defines methods to support the comparison of objects for equality.">
<polygon fill="none" stroke="black" points="207,-0.5 207,-30.5 349,-30.5 349,-0.5 207,-0.5"/>
<text text-anchor="start" x="215" y="-18.5" font-family="Helvetica,sans-Serif" font-size="10.00">System.Collections.IEquality</text>
<text text-anchor="middle" x="278" y="-7.5" font-family="Helvetica,sans-Serif" font-size="10.00">Comparer</text>
</a>
</g>
</g>
<!-- Node15&#45;&gt;Node8 -->
<g id="edge10" class="edge"><title>Node15&#45;&gt;Node8</title>
<path fill="none" stroke="#9a32cd" stroke-dasharray="5,2" d="M352.012,-33.321C382.548,-42.1638 417.868,-54.2551 448,-69.5 479.52,-85.447 511.959,-111.837 528.261,-125.931"/>
<polygon fill="#9a32cd" stroke="#9a32cd" points="352.853,-29.9217 342.278,-30.5642 350.945,-36.6568 352.853,-29.9217"/>
<text text-anchor="middle" x="407.5" y="-72.5" font-family="Helvetica,sans-Serif" font-size="10.00"> EqualityComparer</text>
</g>
</g>
</svg>
        <g id="navigator" transform="translate(0 0)" fill="#404254">
                <rect fill="#f2f5e9" fill-opacity="0.5" stroke="#606060" stroke-width=".5" x="0" y="0" width="60" height="60"/>
                <use id="zoomplus" xlink:href="#zoomPlus" x="17" y="9" onmousedown="handleZoom(evt,'in')"/>
                <use id="zoomminus" xlink:href="#zoomMin" x="42" y="9" onmousedown="handleZoom(evt,'out')"/>
                <use id="reset" xlink:href="#resetDef" x="30" y="36" onmousedown="handleReset()"/>
                <g id="arrowUp" xlink:href="#dirArrow" transform="translate(30 24)" onmousedown="handlePan(0,-1)">
                  <use xlink:href="#rim" fill="#404040">
                        <set attributeName="fill" to="#808080" begin="arrowUp.mouseover" end="arrowUp.mouseout"/>
                  </use>
                  <path fill="none" stroke="white" stroke-width="1.5" d="M0,-3.0v7 M-2.5,-0.5L0,-3.0L2.5,-0.5"/>
                </g>
                <g id="arrowRight" xlink:href="#dirArrow" transform="rotate(90) translate(36 -43)" onmousedown="handlePan(1,0)">
                  <use xlink:href="#rim" fill="#404040">
                        <set attributeName="fill" to="#808080" begin="arrowRight.mouseover" end="arrowRight.mouseout"/>
                  </use>
                  <path fill="none" stroke="white" stroke-width="1.5" d="M0,-3.0v7 M-2.5,-0.5L0,-3.0L2.5,-0.5"/>
                </g>
                <g id="arrowDown" xlink:href="#dirArrow" transform="rotate(180) translate(-30 -48)" onmousedown="handlePan(0,1)">
                  <use xlink:href="#rim" fill="#404040">
                        <set attributeName="fill" to="#808080" begin="arrowDown.mouseover" end="arrowDown.mouseout"/>
                  </use>
                  <path fill="none" stroke="white" stroke-width="1.5" d="M0,-3.0v7 M-2.5,-0.5L0,-3.0L2.5,-0.5"/>
                </g>
                <g id="arrowLeft" xlink:href="#dirArrow" transform="rotate(270) translate(-36 17)" onmousedown="handlePan(-1,0)">
                  <use xlink:href="#rim" fill="#404040">
                        <set attributeName="fill" to="#808080" begin="arrowLeft.mouseover" end="arrowLeft.mouseout"/>
                  </use>
                  <path fill="none" stroke="white" stroke-width="1.5" d="M0,-3.0v7 M-2.5,-0.5L0,-3.0L2.5,-0.5"/>
                </g>
        </g>
        <svg viewBox="0 0 15 15" width="100%" height="30px" preserveAspectRatio="xMaxYMin meet">
         <g id="arrow_out" transform="scale(0.3 0.3)">
          <a xlink:href="class_system_1_1_collections_1_1_hashtable__coll__graph_org.svg" target="_base">
           <rect id="button" ry="5" rx="5" y="6" x="6" height="38" width="38"
                fill="#f2f5e9" fill-opacity="0.5" stroke="#606060" stroke-width="1.0"/>
           <path id="arrow"
             d="M 11.500037,31.436501 C 11.940474,20.09759 22.043105,11.32322 32.158766,21.979434 L 37.068811,17.246167 C 37.068811,17.246167 37.088388,32 37.088388,32 L 22.160133,31.978069 C 22.160133,31.978069 26.997745,27.140456 26.997745,27.140456 C 18.528582,18.264221 13.291696,25.230495 11.500037,31.436501 z"
             style="fill:#404040;"/>
          </a>
         </g>
        </svg>
</svg>
