<?xml version="1.0" encoding="UTF-8" standalone="no"?>
<!DOCTYPE svg PUBLIC "-//W3C//DTD SVG 1.1//EN"
 "http://www.w3.org/Graphics/SVG/1.1/DTD/svg11.dtd">
<!-- Generated by graphviz version 2.38.0 (20140413.2041)
 -->
<!-- Title: System.Deployment.Internal.Isolation.StoreAssemblyFileEnumeration Pages: 1 -->
<svg width="268pt" height="117pt"
 viewBox="0.00 0.00 268.00 117.00" xmlns="http://www.w3.org/2000/svg" xmlns:xlink="http://www.w3.org/1999/xlink">
<g id="graph0" class="graph" transform="scale(1 1) rotate(0) translate(4 113)">
<title>System.Deployment.Internal.Isolation.StoreAssemblyFileEnumeration</title>
<!-- Node2 -->
<g id="node1" class="node"><title>Node2</title>
<g id="a_node1"><a xlink:title=" ">
<polygon fill="#bfbfbf" stroke="black" points="7,-0.5 7,-30.5 200,-30.5 200,-0.5 7,-0.5"/>
<text text-anchor="start" x="15" y="-18.5" font-family="Helvetica,sans-Serif" font-size="10.00">System.Deployment.Internal.</text>
<text text-anchor="middle" x="103.5" y="-7.5" font-family="Helvetica,sans-Serif" font-size="10.00">Isolation.StoreAssemblyFileEnumeration</text>
</a>
</g>
</g>
<!-- Node3 -->
<g id="node2" class="node"><title>Node3</title>
<g id="a_node2"><a xlink:href="interface_system_1_1_collections_1_1_i_enumerator.html" target="_top" xlink:title="Supports a simple iteration over a non&#45;generic collection.">
<polygon fill="none" stroke="black" points="0,-84 0,-103 69,-103 69,-84 0,-84"/>
<text text-anchor="middle" x="34.5" y="-91" font-family="Helvetica,sans-Serif" font-size="10.00">IEnumerator</text>
</a>
</g>
</g>
<!-- Node3&#45;&gt;Node2 -->
<g id="edge1" class="edge"><title>Node3&#45;&gt;Node2</title>
<path fill="none" stroke="midnightblue" d="M49.3526,-76.1406C61.6919,-62.5495 79.0612,-43.4181 90.7715,-30.5198"/>
<polygon fill="midnightblue" stroke="midnightblue" points="46.5457,-74.0253 42.4152,-83.7818 51.7284,-78.7307 46.5457,-74.0253"/>
</g>
<!-- Node4 -->
<g id="node3" class="node"><title>Node4</title>
<g id="a_node3"><a xlink:href="struct_system_1_1_deployment_1_1_internal_1_1_isolation_1_1_s_t_o_r_e___a_s_s_e_m_b_l_y___f_i_l_e.html" target="_top" xlink:title=" ">
<polygon fill="none" stroke="black" points="87,-78.5 87,-108.5 260,-108.5 260,-78.5 87,-78.5"/>
<text text-anchor="start" x="95" y="-96.5" font-family="Helvetica,sans-Serif" font-size="10.00">System.Deployment.Internal.</text>
<text text-anchor="middle" x="173.5" y="-85.5" font-family="Helvetica,sans-Serif" font-size="10.00">Isolation.STORE_ASSEMBLY_FILE</text>
</a>
</g>
</g>
<!-- Node4&#45;&gt;Node2 -->
<g id="edge2" class="edge"><title>Node4&#45;&gt;Node2</title>
<path fill="none" stroke="#9a32cd" stroke-dasharray="5,2" d="M153.394,-70.6707C141.569,-57.8319 126.955,-41.9656 116.607,-30.7309"/>
<polygon fill="#9a32cd" stroke="#9a32cd" points="150.984,-73.2207 160.334,-78.205 156.133,-68.4783 150.984,-73.2207"/>
<text text-anchor="middle" x="160" y="-52" font-family="Helvetica,sans-Serif" font-size="10.00"> Current</text>
</g>
</g>
</svg>
