<?xml version="1.0" encoding="UTF-8" standalone="no"?>
<!DOCTYPE svg PUBLIC "-//W3C//DTD SVG 1.1//EN"
 "http://www.w3.org/Graphics/SVG/1.1/DTD/svg11.dtd">
<!-- Generated by graphviz version 2.38.0 (20140413.2041)
 -->
<!-- Title: Graphical Class Hierarchy Pages: 1 -->
<svg width="363pt" height="78pt"
 viewBox="0.00 0.00 363.00 77.50" xmlns="http://www.w3.org/2000/svg" xmlns:xlink="http://www.w3.org/1999/xlink">
<g id="graph0" class="graph" transform="scale(1 1) rotate(0) translate(4 73.5)">
<title>Graphical Class Hierarchy</title>
<!-- Node2286 -->
<g id="node1" class="node"><title>Node2286</title>
<g id="a_node1"><a xlink:href="interface_system_1_1_runtime_1_1_interop_services_1_1___local_builder.html" target="_top" xlink:title="Exposes the T:System.Reflection.Emit.LocalBuilder class to unmanaged code.">
<polygon fill="none" stroke="black" points="6,-39 6,-69 167,-69 167,-39 6,-39"/>
<text text-anchor="start" x="14" y="-57" font-family="Helvetica,sans-Serif" font-size="10.00">System.Runtime.InteropServices.</text>
<text text-anchor="middle" x="86.5" y="-46" font-family="Helvetica,sans-Serif" font-size="10.00">_LocalBuilder</text>
</a>
</g>
</g>
<!-- Node1 -->
<g id="node2" class="node"><title>Node1</title>
<g id="a_node2"><a xlink:href="class_system_1_1_reflection_1_1_emit_1_1_local_builder.html" target="_top" xlink:title="Represents a local variable within a method or constructor.">
<polygon fill="none" stroke="black" points="209,-17 209,-47 355,-47 355,-17 209,-17"/>
<text text-anchor="start" x="217" y="-35" font-family="Helvetica,sans-Serif" font-size="10.00">System.Reflection.Emit.Local</text>
<text text-anchor="middle" x="282" y="-24" font-family="Helvetica,sans-Serif" font-size="10.00">Builder</text>
</a>
</g>
</g>
<!-- Node2286&#45;&gt;Node1 -->
<g id="edge1" class="edge"><title>Node2286&#45;&gt;Node1</title>
<path fill="none" stroke="midnightblue" d="M177.183,-43.8035C187.815,-42.5947 198.562,-41.3728 208.905,-40.1968"/>
<polygon fill="midnightblue" stroke="midnightblue" points="176.582,-40.3492 167.042,-44.9565 177.373,-47.3044 176.582,-40.3492"/>
</g>
<!-- Node0 -->
<g id="node3" class="node"><title>Node0</title>
<g id="a_node3"><a xlink:href="class_system_1_1_reflection_1_1_local_variable_info.html" target="_top" xlink:title="Discovers the attributes of a local variable and provides access to local variable metadata.">
<polygon fill="none" stroke="black" points="0,-0.5 0,-19.5 173,-19.5 173,-0.5 0,-0.5"/>
<text text-anchor="middle" x="86.5" y="-7.5" font-family="Helvetica,sans-Serif" font-size="10.00">System.Reflection.LocalVariableInfo</text>
</a>
</g>
</g>
<!-- Node0&#45;&gt;Node1 -->
<g id="edge2" class="edge"><title>Node0&#45;&gt;Node1</title>
<path fill="none" stroke="midnightblue" d="M181.305,-20.6651C190.602,-21.7222 199.936,-22.7834 208.962,-23.8096"/>
<polygon fill="midnightblue" stroke="midnightblue" points="181.578,-17.1737 171.247,-19.5216 180.787,-24.1289 181.578,-17.1737"/>
</g>
</g>
</svg>
