<?xml version="1.0" encoding="UTF-8" standalone="no"?>
<!DOCTYPE svg PUBLIC "-//W3C//DTD SVG 1.1//EN"
 "http://www.w3.org/Graphics/SVG/1.1/DTD/svg11.dtd">
<!-- Generated by graphviz version 2.38.0 (20140413.2041)
 -->
<!-- Title: Graphical Class Hierarchy Pages: 1 -->
<svg width="322pt" height="186pt"
 viewBox="0.00 0.00 322.00 186.00" xmlns="http://www.w3.org/2000/svg" xmlns:xlink="http://www.w3.org/1999/xlink">
<g id="graph0" class="graph" transform="scale(1 1) rotate(0) translate(4 182)">
<title>Graphical Class Hierarchy</title>
<!-- Node0 -->
<g id="node1" class="node"><title>Node0</title>
<g id="a_node1"><a xlink:href="class_system_1_1_runtime_1_1_remoting_1_1_type_entry.html" target="_top" xlink:title="Implements a base class that holds the configuration information used to activate an instance of a re...">
<polygon fill="none" stroke="black" points="0,-73.5 0,-103.5 137,-103.5 137,-73.5 0,-73.5"/>
<text text-anchor="start" x="8" y="-91.5" font-family="Helvetica,sans-Serif" font-size="10.00">System.Runtime.Remoting.</text>
<text text-anchor="middle" x="68.5" y="-80.5" font-family="Helvetica,sans-Serif" font-size="10.00">TypeEntry</text>
</a>
</g>
</g>
<!-- Node1 -->
<g id="node2" class="node"><title>Node1</title>
<g id="a_node2"><a xlink:href="class_system_1_1_runtime_1_1_remoting_1_1_activated_client_type_entry.html" target="_top" xlink:title="Holds values for an object type registered on the client end as a type that can be activated on the s...">
<polygon fill="none" stroke="black" points="175,-147.5 175,-177.5 312,-177.5 312,-147.5 175,-147.5"/>
<text text-anchor="start" x="183" y="-165.5" font-family="Helvetica,sans-Serif" font-size="10.00">System.Runtime.Remoting.</text>
<text text-anchor="middle" x="243.5" y="-154.5" font-family="Helvetica,sans-Serif" font-size="10.00">ActivatedClientTypeEntry</text>
</a>
</g>
</g>
<!-- Node0&#45;&gt;Node1 -->
<g id="edge1" class="edge"><title>Node0&#45;&gt;Node1</title>
<path fill="none" stroke="midnightblue" d="M107.618,-108.241C126.958,-117.916 150.964,-129.409 173,-138.5 180.434,-141.567 188.419,-144.578 196.232,-147.375"/>
<polygon fill="midnightblue" stroke="midnightblue" points="109.032,-105.035 98.5274,-103.657 105.88,-111.285 109.032,-105.035"/>
</g>
<!-- Node2 -->
<g id="node3" class="node"><title>Node2</title>
<g id="a_node3"><a xlink:href="class_system_1_1_runtime_1_1_remoting_1_1_activated_service_type_entry.html" target="_top" xlink:title="Holds values for an object type registered on the service end as one that can be activated on request...">
<polygon fill="none" stroke="black" points="175,-98.5 175,-128.5 312,-128.5 312,-98.5 175,-98.5"/>
<text text-anchor="start" x="183" y="-116.5" font-family="Helvetica,sans-Serif" font-size="10.00">System.Runtime.Remoting.</text>
<text text-anchor="middle" x="243.5" y="-105.5" font-family="Helvetica,sans-Serif" font-size="10.00">ActivatedServiceTypeEntry</text>
</a>
</g>
</g>
<!-- Node0&#45;&gt;Node2 -->
<g id="edge2" class="edge"><title>Node0&#45;&gt;Node2</title>
<path fill="none" stroke="midnightblue" d="M147.276,-99.7393C156.464,-101.067 165.785,-102.414 174.818,-103.719"/>
<polygon fill="midnightblue" stroke="midnightblue" points="147.775,-96.2752 137.378,-98.3089 146.774,-103.203 147.775,-96.2752"/>
</g>
<!-- Node3 -->
<g id="node4" class="node"><title>Node3</title>
<g id="a_node4"><a xlink:href="class_system_1_1_runtime_1_1_remoting_1_1_well_known_client_type_entry.html" target="_top" xlink:title="Holds values for an object type registered on the client as a server&#45;activated type (single call or s...">
<polygon fill="none" stroke="black" points="175,-49.5 175,-79.5 312,-79.5 312,-49.5 175,-49.5"/>
<text text-anchor="start" x="183" y="-67.5" font-family="Helvetica,sans-Serif" font-size="10.00">System.Runtime.Remoting.</text>
<text text-anchor="middle" x="243.5" y="-56.5" font-family="Helvetica,sans-Serif" font-size="10.00">WellKnownClientTypeEntry</text>
</a>
</g>
</g>
<!-- Node0&#45;&gt;Node3 -->
<g id="edge3" class="edge"><title>Node0&#45;&gt;Node3</title>
<path fill="none" stroke="midnightblue" d="M147.569,-77.6696C156.662,-76.4081 165.881,-75.1292 174.818,-73.8894"/>
<polygon fill="midnightblue" stroke="midnightblue" points="146.802,-74.2424 137.378,-79.0834 147.764,-81.176 146.802,-74.2424"/>
</g>
<!-- Node4 -->
<g id="node5" class="node"><title>Node4</title>
<g id="a_node5"><a xlink:href="class_system_1_1_runtime_1_1_remoting_1_1_well_known_service_type_entry.html" target="_top" xlink:title="Holds values for an object type registered on the service end as a server&#45;activated type object (sing...">
<polygon fill="none" stroke="black" points="173,-0.5 173,-30.5 314,-30.5 314,-0.5 173,-0.5"/>
<text text-anchor="start" x="181" y="-18.5" font-family="Helvetica,sans-Serif" font-size="10.00">System.Runtime.Remoting.</text>
<text text-anchor="middle" x="243.5" y="-7.5" font-family="Helvetica,sans-Serif" font-size="10.00">WellKnownServiceTypeEntry</text>
</a>
</g>
</g>
<!-- Node0&#45;&gt;Node4 -->
<g id="edge4" class="edge"><title>Node0&#45;&gt;Node4</title>
<path fill="none" stroke="midnightblue" d="M109.007,-69.1728C128.153,-60.0655 151.587,-49.2963 173,-40.5 181.303,-37.0893 190.261,-33.6746 198.896,-30.5132"/>
<polygon fill="midnightblue" stroke="midnightblue" points="107.488,-66.0193 99.9799,-73.4942 110.511,-72.3331 107.488,-66.0193"/>
</g>
</g>
</svg>
