<?xml version="1.0" encoding="UTF-8" standalone="no"?>
<!DOCTYPE svg PUBLIC "-//W3C//DTD SVG 1.1//EN"
 "http://www.w3.org/Graphics/SVG/1.1/DTD/svg11.dtd">
<!-- Generated by graphviz version 2.38.0 (20140413.2041)
 -->
<!-- Title: Graphical Class Hierarchy Pages: 1 -->
<svg width="752pt" height="136pt"
 viewBox="0.00 0.00 752.00 136.00" xmlns="http://www.w3.org/2000/svg" xmlns:xlink="http://www.w3.org/1999/xlink">
<g id="graph0" class="graph" transform="scale(1 1) rotate(0) translate(4 132)">
<title>Graphical Class Hierarchy</title>
<!-- Node0 -->
<g id="node1" class="node"><title>Node0</title>
<g id="a_node1"><a xlink:href="class_system_1_1_security_1_1_access_control_1_1_generic_ace.html" target="_top" xlink:title="Represents an Access Control Entry (ACE), and is the base class for all other ACE classes.">
<polygon fill="none" stroke="black" points="0,-72.5 0,-102.5 159,-102.5 159,-72.5 0,-72.5"/>
<text text-anchor="start" x="8" y="-90.5" font-family="Helvetica,sans-Serif" font-size="10.00">System.Security.AccessControl.</text>
<text text-anchor="middle" x="79.5" y="-79.5" font-family="Helvetica,sans-Serif" font-size="10.00">GenericAce</text>
</a>
</g>
</g>
<!-- Node1 -->
<g id="node2" class="node"><title>Node1</title>
<g id="a_node2"><a xlink:href="class_system_1_1_security_1_1_access_control_1_1_custom_ace.html" target="_top" xlink:title="Represents an Access Control Entry (ACE) that is not defined by one of the members of the T:System....">
<polygon fill="none" stroke="black" points="195,-97.5 195,-127.5 354,-127.5 354,-97.5 195,-97.5"/>
<text text-anchor="start" x="203" y="-115.5" font-family="Helvetica,sans-Serif" font-size="10.00">System.Security.AccessControl.</text>
<text text-anchor="middle" x="274.5" y="-104.5" font-family="Helvetica,sans-Serif" font-size="10.00">CustomAce</text>
</a>
</g>
</g>
<!-- Node0&#45;&gt;Node1 -->
<g id="edge1" class="edge"><title>Node0&#45;&gt;Node1</title>
<path fill="none" stroke="midnightblue" d="M169.023,-98.9666C177.607,-100.079 186.276,-101.202 194.756,-102.3"/>
<polygon fill="midnightblue" stroke="midnightblue" points="169.367,-95.4821 159,-97.6685 168.468,-102.424 169.367,-95.4821"/>
</g>
<!-- Node2 -->
<g id="node3" class="node"><title>Node2</title>
<g id="a_node3"><a xlink:href="class_system_1_1_security_1_1_access_control_1_1_known_ace.html" target="_top" xlink:title="Encapsulates all Access Control Entry (ACE) types currently defined by Microsoft Corporation....">
<polygon fill="none" stroke="black" points="195,-48.5 195,-78.5 354,-78.5 354,-48.5 195,-48.5"/>
<text text-anchor="start" x="203" y="-66.5" font-family="Helvetica,sans-Serif" font-size="10.00">System.Security.AccessControl.</text>
<text text-anchor="middle" x="274.5" y="-55.5" font-family="Helvetica,sans-Serif" font-size="10.00">KnownAce</text>
</a>
</g>
</g>
<!-- Node0&#45;&gt;Node2 -->
<g id="edge2" class="edge"><title>Node0&#45;&gt;Node2</title>
<path fill="none" stroke="midnightblue" d="M169.023,-76.492C177.607,-75.4245 186.276,-74.3465 194.756,-73.292"/>
<polygon fill="midnightblue" stroke="midnightblue" points="168.492,-73.0309 159,-77.7383 169.356,-79.9774 168.492,-73.0309"/>
</g>
<!-- Node3 -->
<g id="node4" class="node"><title>Node3</title>
<g id="a_node4"><a xlink:href="class_system_1_1_security_1_1_access_control_1_1_compound_ace.html" target="_top" xlink:title="Represents a compound Access Control Entry (ACE).">
<polygon fill="none" stroke="black" points="390,-73.5 390,-103.5 549,-103.5 549,-73.5 390,-73.5"/>
<text text-anchor="start" x="398" y="-91.5" font-family="Helvetica,sans-Serif" font-size="10.00">System.Security.AccessControl.</text>
<text text-anchor="middle" x="469.5" y="-80.5" font-family="Helvetica,sans-Serif" font-size="10.00">CompoundAce</text>
</a>
</g>
</g>
<!-- Node2&#45;&gt;Node3 -->
<g id="edge3" class="edge"><title>Node2&#45;&gt;Node3</title>
<path fill="none" stroke="midnightblue" d="M364.023,-74.9666C372.607,-76.0786 381.276,-77.2016 389.756,-78.3"/>
<polygon fill="midnightblue" stroke="midnightblue" points="364.367,-71.4821 354,-73.6685 363.468,-78.4241 364.367,-71.4821"/>
</g>
<!-- Node4 -->
<g id="node5" class="node"><title>Node4</title>
<g id="a_node5"><a xlink:href="class_system_1_1_security_1_1_access_control_1_1_qualified_ace.html" target="_top" xlink:title="Represents an Access Control Entry (ACE) that contains a qualifier. The qualifier,...">
<polygon fill="none" stroke="black" points="390,-24.5 390,-54.5 549,-54.5 549,-24.5 390,-24.5"/>
<text text-anchor="start" x="398" y="-42.5" font-family="Helvetica,sans-Serif" font-size="10.00">System.Security.AccessControl.</text>
<text text-anchor="middle" x="469.5" y="-31.5" font-family="Helvetica,sans-Serif" font-size="10.00">QualifiedAce</text>
</a>
</g>
</g>
<!-- Node2&#45;&gt;Node4 -->
<g id="edge4" class="edge"><title>Node2&#45;&gt;Node4</title>
<path fill="none" stroke="midnightblue" d="M364.023,-52.492C372.607,-51.4245 381.276,-50.3465 389.756,-49.292"/>
<polygon fill="midnightblue" stroke="midnightblue" points="363.492,-49.0309 354,-53.7383 364.356,-55.9774 363.492,-49.0309"/>
</g>
<!-- Node5 -->
<g id="node6" class="node"><title>Node5</title>
<g id="a_node6"><a xlink:href="class_system_1_1_security_1_1_access_control_1_1_common_ace.html" target="_top" xlink:title="Represents an access control entry (ACE).">
<polygon fill="none" stroke="black" points="585,-49.5 585,-79.5 744,-79.5 744,-49.5 585,-49.5"/>
<text text-anchor="start" x="593" y="-67.5" font-family="Helvetica,sans-Serif" font-size="10.00">System.Security.AccessControl.</text>
<text text-anchor="middle" x="664.5" y="-56.5" font-family="Helvetica,sans-Serif" font-size="10.00">CommonAce</text>
</a>
</g>
</g>
<!-- Node4&#45;&gt;Node5 -->
<g id="edge5" class="edge"><title>Node4&#45;&gt;Node5</title>
<path fill="none" stroke="midnightblue" d="M559.023,-50.9666C567.607,-52.0786 576.276,-53.2016 584.756,-54.3"/>
<polygon fill="midnightblue" stroke="midnightblue" points="559.367,-47.4821 549,-49.6685 558.468,-54.4241 559.367,-47.4821"/>
</g>
<!-- Node6 -->
<g id="node7" class="node"><title>Node6</title>
<g id="a_node7"><a xlink:href="class_system_1_1_security_1_1_access_control_1_1_object_ace.html" target="_top" xlink:title="Controls access to Directory Services objects. This class represents an Access Control Entry (ACE) as...">
<polygon fill="none" stroke="black" points="585,-0.5 585,-30.5 744,-30.5 744,-0.5 585,-0.5"/>
<text text-anchor="start" x="593" y="-18.5" font-family="Helvetica,sans-Serif" font-size="10.00">System.Security.AccessControl.</text>
<text text-anchor="middle" x="664.5" y="-7.5" font-family="Helvetica,sans-Serif" font-size="10.00">ObjectAce</text>
</a>
</g>
</g>
<!-- Node4&#45;&gt;Node6 -->
<g id="edge6" class="edge"><title>Node4&#45;&gt;Node6</title>
<path fill="none" stroke="midnightblue" d="M559.023,-28.492C567.607,-27.4245 576.276,-26.3465 584.756,-25.292"/>
<polygon fill="midnightblue" stroke="midnightblue" points="558.492,-25.0309 549,-29.7383 559.356,-31.9774 558.492,-25.0309"/>
</g>
</g>
</svg>
