<?xml version="1.0" encoding="UTF-8" standalone="no"?>
<!DOCTYPE svg PUBLIC "-//W3C//DTD SVG 1.1//EN"
 "http://www.w3.org/Graphics/SVG/1.1/DTD/svg11.dtd">
<!-- Generated by graphviz version 2.38.0 (20140413.2041)
 -->
<!-- Title: Graphical Class Hierarchy Pages: 1 -->
<svg width="325pt" height="127pt"
 viewBox="0.00 0.00 325.00 126.50" xmlns="http://www.w3.org/2000/svg" xmlns:xlink="http://www.w3.org/1999/xlink">
<g id="graph0" class="graph" transform="scale(1 1) rotate(0) translate(4 122.5)">
<title>Graphical Class Hierarchy</title>
<!-- Node0 -->
<g id="node1" class="node"><title>Node0</title>
<g id="a_node1"><a xlink:href="class_system_1_1_security_1_1_util_1_1_site_string.html" target="_top" xlink:title=" ">
<polygon fill="none" stroke="black" points="0,-39 0,-69 127,-69 127,-39 0,-39"/>
<text text-anchor="start" x="8" y="-57" font-family="Helvetica,sans-Serif" font-size="10.00">System.Security.Util.Site</text>
<text text-anchor="middle" x="63.5" y="-46" font-family="Helvetica,sans-Serif" font-size="10.00">String</text>
</a>
</g>
</g>
<!-- Node1 -->
<g id="node2" class="node"><title>Node1</title>
<g id="a_node2"><a xlink:href="class_system_1_1_security_1_1_util_1_1_directory_string.html" target="_top" xlink:title=" ">
<polygon fill="none" stroke="black" points="165.5,-88 165.5,-118 314.5,-118 314.5,-88 165.5,-88"/>
<text text-anchor="start" x="173.5" y="-106" font-family="Helvetica,sans-Serif" font-size="10.00">System.Security.Util.Directory</text>
<text text-anchor="middle" x="240" y="-95" font-family="Helvetica,sans-Serif" font-size="10.00">String</text>
</a>
</g>
</g>
<!-- Node0&#45;&gt;Node1 -->
<g id="edge1" class="edge"><title>Node0&#45;&gt;Node1</title>
<path fill="none" stroke="midnightblue" d="M127.965,-71.8212C146.806,-77.1118 167.249,-82.8522 185.398,-87.9484"/>
<polygon fill="midnightblue" stroke="midnightblue" points="128.853,-68.4353 118.28,-69.1014 126.961,-75.1746 128.853,-68.4353"/>
</g>
<!-- Node2 -->
<g id="node3" class="node"><title>Node2</title>
<g id="a_node3"><a xlink:href="class_system_1_1_security_1_1_util_1_1_local_site_string.html" target="_top" xlink:title=" ">
<polygon fill="none" stroke="black" points="173.5,-39 173.5,-69 306.5,-69 306.5,-39 173.5,-39"/>
<text text-anchor="start" x="181.5" y="-57" font-family="Helvetica,sans-Serif" font-size="10.00">System.Security.Util.Local</text>
<text text-anchor="middle" x="240" y="-46" font-family="Helvetica,sans-Serif" font-size="10.00">SiteString</text>
</a>
</g>
</g>
<!-- Node0&#45;&gt;Node2 -->
<g id="edge2" class="edge"><title>Node0&#45;&gt;Node2</title>
<path fill="none" stroke="midnightblue" d="M137.022,-54C149.079,-54 161.523,-54 173.396,-54"/>
<polygon fill="midnightblue" stroke="midnightblue" points="137.006,-50.5001 127.006,-54 137.006,-57.5001 137.006,-50.5001"/>
</g>
<!-- Node3 -->
<g id="node4" class="node"><title>Node3</title>
<g id="a_node4"><a xlink:href="class_system_1_1_security_1_1_util_1_1_u_r_l_string.html" target="_top" xlink:title=" ">
<polygon fill="none" stroke="black" points="163,-0.5 163,-19.5 317,-19.5 317,-0.5 163,-0.5"/>
<text text-anchor="middle" x="240" y="-7.5" font-family="Helvetica,sans-Serif" font-size="10.00">System.Security.Util.URLString</text>
</a>
</g>
</g>
<!-- Node0&#45;&gt;Node3 -->
<g id="edge3" class="edge"><title>Node0&#45;&gt;Node3</title>
<path fill="none" stroke="midnightblue" d="M133.801,-36.5259C156.812,-30.7237 181.564,-24.4824 201.275,-19.5124"/>
<polygon fill="midnightblue" stroke="midnightblue" points="132.906,-33.1419 124.065,-38.9808 134.617,-39.9295 132.906,-33.1419"/>
</g>
</g>
</svg>
