<?xml version="1.0" encoding="UTF-8" standalone="no"?>
<!DOCTYPE svg PUBLIC "-//W3C//DTD SVG 1.1//EN"
 "http://www.w3.org/Graphics/SVG/1.1/DTD/svg11.dtd">
<!-- Generated by graphviz version 2.38.0 (20140413.2041)
 -->
<!-- Title: Graphical Class Hierarchy Pages: 1 -->
<svg width="503pt" height="137pt"
 viewBox="0.00 0.00 503.00 137.00" xmlns="http://www.w3.org/2000/svg" xmlns:xlink="http://www.w3.org/1999/xlink">
<g id="graph0" class="graph" transform="scale(1 1) rotate(0) translate(4 133)">
<title>Graphical Class Hierarchy</title>
<!-- Node1718 -->
<g id="node1" class="node"><title>Node1718</title>
<g id="a_node1"><a xlink:href="interface_system_1_1_collections_1_1_generic_1_1_i_comparer.html" target="_top" xlink:title="Defines a method that a type implements to compare two objects.">
<polygon fill="none" stroke="black" points="0,-74.5 0,-104.5 141,-104.5 141,-74.5 0,-74.5"/>
<text text-anchor="start" x="8" y="-92.5" font-family="Helvetica,sans-Serif" font-size="10.00">System.Collections.Generic.</text>
<text text-anchor="middle" x="70.5" y="-81.5" font-family="Helvetica,sans-Serif" font-size="10.00">IComparer&lt; in in T &gt;</text>
</a>
</g>
</g>
<!-- Node1 -->
<g id="node2" class="node"><title>Node1</title>
<g id="a_node2"><a xlink:href="class_system_1_1_collections_1_1_generic_1_1_comparer.html" target="_top" xlink:title="Provides a base class for implementations of the T:System.Collections.Generic.IComparer`1 generic int...">
<polygon fill="none" stroke="black" points="177,-49.5 177,-79.5 318,-79.5 318,-49.5 177,-49.5"/>
<text text-anchor="start" x="185" y="-67.5" font-family="Helvetica,sans-Serif" font-size="10.00">System.Collections.Generic.</text>
<text text-anchor="middle" x="247.5" y="-56.5" font-family="Helvetica,sans-Serif" font-size="10.00">Comparer&lt; T &gt;</text>
</a>
</g>
</g>
<!-- Node1718&#45;&gt;Node1 -->
<g id="edge1" class="edge"><title>Node1718&#45;&gt;Node1</title>
<path fill="none" stroke="midnightblue" d="M151.146,-78.1221C159.702,-76.8997 168.359,-75.663 176.786,-74.4591"/>
<polygon fill="midnightblue" stroke="midnightblue" points="150.572,-74.6684 141.167,-79.5475 151.562,-81.598 150.572,-74.6684"/>
</g>
<!-- Node2 -->
<g id="node3" class="node"><title>Node2</title>
<g id="a_node3"><a xlink:href="class_system_1_1_collections_1_1_generic_1_1_comparison_comparer.html" target="_top" xlink:title=" ">
<polygon fill="none" stroke="black" points="354,-98.5 354,-128.5 495,-128.5 495,-98.5 354,-98.5"/>
<text text-anchor="start" x="362" y="-116.5" font-family="Helvetica,sans-Serif" font-size="10.00">System.Collections.Generic.</text>
<text text-anchor="middle" x="424.5" y="-105.5" font-family="Helvetica,sans-Serif" font-size="10.00">ComparisonComparer&lt; T &gt;</text>
</a>
</g>
</g>
<!-- Node1&#45;&gt;Node2 -->
<g id="edge2" class="edge"><title>Node1&#45;&gt;Node2</title>
<path fill="none" stroke="midnightblue" d="M312.147,-82.3212C331.042,-87.6118 351.543,-93.3522 369.744,-98.4484"/>
<polygon fill="midnightblue" stroke="midnightblue" points="313.007,-78.9274 302.434,-79.6014 311.12,-85.6682 313.007,-78.9274"/>
</g>
<!-- Node3 -->
<g id="node4" class="node"><title>Node3</title>
<g id="a_node4"><a xlink:href="class_system_1_1_collections_1_1_generic_1_1_generic_comparer.html" target="_top" xlink:title=" ">
<polygon fill="none" stroke="black" points="354,-49.5 354,-79.5 495,-79.5 495,-49.5 354,-49.5"/>
<text text-anchor="start" x="362" y="-67.5" font-family="Helvetica,sans-Serif" font-size="10.00">System.Collections.Generic.</text>
<text text-anchor="middle" x="424.5" y="-56.5" font-family="Helvetica,sans-Serif" font-size="10.00">GenericComparer&lt; T &gt;</text>
</a>
</g>
</g>
<!-- Node1&#45;&gt;Node3 -->
<g id="edge3" class="edge"><title>Node1&#45;&gt;Node3</title>
<path fill="none" stroke="midnightblue" d="M328.425,-64.5C336.89,-64.5 345.451,-64.5 353.786,-64.5"/>
<polygon fill="midnightblue" stroke="midnightblue" points="328.168,-61.0001 318.167,-64.5 328.167,-68.0001 328.168,-61.0001"/>
</g>
<!-- Node4 -->
<g id="node5" class="node"><title>Node4</title>
<g id="a_node5"><a xlink:href="class_system_1_1_collections_1_1_generic_1_1_object_comparer.html" target="_top" xlink:title=" ">
<polygon fill="none" stroke="black" points="354,-0.5 354,-30.5 495,-30.5 495,-0.5 354,-0.5"/>
<text text-anchor="start" x="362" y="-18.5" font-family="Helvetica,sans-Serif" font-size="10.00">System.Collections.Generic.</text>
<text text-anchor="middle" x="424.5" y="-7.5" font-family="Helvetica,sans-Serif" font-size="10.00">ObjectComparer&lt; T &gt;</text>
</a>
</g>
</g>
<!-- Node1&#45;&gt;Node4 -->
<g id="edge4" class="edge"><title>Node1&#45;&gt;Node4</title>
<path fill="none" stroke="midnightblue" d="M312.147,-46.6788C331.042,-41.3882 351.543,-35.6478 369.744,-30.5516"/>
<polygon fill="midnightblue" stroke="midnightblue" points="311.12,-43.3318 302.434,-49.3986 313.007,-50.0726 311.12,-43.3318"/>
</g>
<!-- Node0 -->
<g id="node6" class="node"><title>Node0</title>
<g id="a_node6"><a xlink:href="interface_system_1_1_collections_1_1_generic_1_1_i_comparer.html" target="_top" xlink:title=" ">
<polygon fill="none" stroke="black" points="0,-25.5 0,-55.5 141,-55.5 141,-25.5 0,-25.5"/>
<text text-anchor="start" x="8" y="-43.5" font-family="Helvetica,sans-Serif" font-size="10.00">System.Collections.Generic.</text>
<text text-anchor="middle" x="70.5" y="-32.5" font-family="Helvetica,sans-Serif" font-size="10.00">IComparer&lt; T &gt;</text>
</a>
</g>
</g>
<!-- Node0&#45;&gt;Node1 -->
<g id="edge5" class="edge"><title>Node0&#45;&gt;Node1</title>
<path fill="none" stroke="midnightblue" d="M151.146,-51.4228C159.702,-52.5962 168.359,-53.7835 176.786,-54.9393"/>
<polygon fill="midnightblue" stroke="midnightblue" points="151.55,-47.9456 141.167,-50.0544 150.599,-54.8807 151.55,-47.9456"/>
</g>
</g>
</svg>
