<?xml version="1.0" encoding="UTF-8" standalone="no"?>
<!DOCTYPE svg PUBLIC "-//W3C//DTD SVG 1.1//EN"
 "http://www.w3.org/Graphics/SVG/1.1/DTD/svg11.dtd">
<!-- Generated by graphviz version 2.38.0 (20140413.2041)
 -->
<!-- Title: Graphical Class Hierarchy Pages: 1 -->
<svg width="404pt" height="88pt"
 viewBox="0.00 0.00 404.00 88.00" xmlns="http://www.w3.org/2000/svg" xmlns:xlink="http://www.w3.org/1999/xlink">
<g id="graph0" class="graph" transform="scale(1 1) rotate(0) translate(4 84)">
<title>Graphical Class Hierarchy</title>
<!-- Node0 -->
<g id="node1" class="node"><title>Node0</title>
<g id="a_node1"><a xlink:href="class_system_1_1_security_1_1_cryptography_1_1_asymmetric_key_exchange_deformatter.html" target="_top" xlink:title="Represents the base class from which all asymmetric key exchange deformatters derive.">
<polygon fill="none" stroke="black" points="0,-24.5 0,-54.5 180,-54.5 180,-24.5 0,-24.5"/>
<text text-anchor="start" x="8" y="-42.5" font-family="Helvetica,sans-Serif" font-size="10.00">System.Security.Cryptography.</text>
<text text-anchor="middle" x="90" y="-31.5" font-family="Helvetica,sans-Serif" font-size="10.00">AsymmetricKeyExchangeDeformatter</text>
</a>
</g>
</g>
<!-- Node1 -->
<g id="node2" class="node"><title>Node1</title>
<g id="a_node2"><a xlink:href="class_system_1_1_security_1_1_cryptography_1_1_r_s_a_o_a_e_p_key_exchange_deformatter.html" target="_top" xlink:title="Decrypts Optimal Asymmetric Encryption Padding (OAEP) key exchange data.">
<polygon fill="none" stroke="black" points="218,-49.5 218,-79.5 394,-79.5 394,-49.5 218,-49.5"/>
<text text-anchor="start" x="226" y="-67.5" font-family="Helvetica,sans-Serif" font-size="10.00">System.Security.Cryptography.</text>
<text text-anchor="middle" x="306" y="-56.5" font-family="Helvetica,sans-Serif" font-size="10.00">RSAOAEPKeyExchangeDeformatter</text>
</a>
</g>
</g>
<!-- Node0&#45;&gt;Node1 -->
<g id="edge1" class="edge"><title>Node0&#45;&gt;Node1</title>
<path fill="none" stroke="midnightblue" d="M190.224,-51.0916C199.498,-52.175 208.85,-53.2675 218,-54.3364"/>
<polygon fill="midnightblue" stroke="midnightblue" points="190.544,-47.6053 180.206,-49.9212 189.732,-54.558 190.544,-47.6053"/>
</g>
<!-- Node2 -->
<g id="node3" class="node"><title>Node2</title>
<g id="a_node3"><a xlink:href="class_system_1_1_security_1_1_cryptography_1_1_r_s_a_p_k_c_s1_key_exchange_deformatter.html" target="_top" xlink:title="Decrypts the PKCS #1 key exchange data.">
<polygon fill="none" stroke="black" points="216,-0.5 216,-30.5 396,-30.5 396,-0.5 216,-0.5"/>
<text text-anchor="start" x="224" y="-18.5" font-family="Helvetica,sans-Serif" font-size="10.00">System.Security.Cryptography.</text>
<text text-anchor="middle" x="306" y="-7.5" font-family="Helvetica,sans-Serif" font-size="10.00">RSAPKCS1KeyExchangeDeformatter</text>
</a>
</g>
</g>
<!-- Node0&#45;&gt;Node2 -->
<g id="edge2" class="edge"><title>Node0&#45;&gt;Node2</title>
<path fill="none" stroke="midnightblue" d="M190.23,-28.3714C198.807,-27.4095 207.45,-26.4402 215.939,-25.4882"/>
<polygon fill="midnightblue" stroke="midnightblue" points="189.753,-24.9028 180.206,-29.4956 190.533,-31.8592 189.753,-24.9028"/>
</g>
</g>
</svg>
