<?xml version="1.0" encoding="UTF-8" standalone="no"?>
<!DOCTYPE svg PUBLIC "-//W3C//DTD SVG 1.1//EN"
 "http://www.w3.org/Graphics/SVG/1.1/DTD/svg11.dtd">
<!-- Generated by graphviz version 2.38.0 (20140413.2041)
 -->
<!-- Title: Graphical Class Hierarchy Pages: 1 -->
<svg width="590pt" height="203pt"
 viewBox="0.00 0.00 590.00 202.50" xmlns="http://www.w3.org/2000/svg" xmlns:xlink="http://www.w3.org/1999/xlink">
<g id="graph0" class="graph" transform="scale(1 1) rotate(0) translate(4 198.5)">
<title>Graphical Class Hierarchy</title>
<!-- Node1172 -->
<g id="node1" class="node"><title>Node1172</title>
<g id="a_node1"><a xlink:href="interface_system_1_1_runtime_1_1_compiler_services_1_1_i_notify_completion.html" target="_top" xlink:title="Represents an operation that schedules continuations when it completes.">
<polygon fill="none" stroke="black" points="0,-77.5 0,-107.5 170,-107.5 170,-77.5 0,-77.5"/>
<text text-anchor="start" x="8" y="-95.5" font-family="Helvetica,sans-Serif" font-size="10.00">System.Runtime.CompilerServices.</text>
<text text-anchor="middle" x="85" y="-84.5" font-family="Helvetica,sans-Serif" font-size="10.00">INotifyCompletion</text>
</a>
</g>
</g>
<!-- Node1173 -->
<g id="node2" class="node"><title>Node1173</title>
<g id="a_node2"><a xlink:href="struct_system_1_1_runtime_1_1_compiler_services_1_1_configured_task_awaitable_1_1_configured_task_awaiter.html" target="_top" xlink:title="Provides an awaiter for an awaitable object(T:System.Runtime.CompilerServices.ConfiguredTaskAwaitable...">
<polygon fill="none" stroke="black" points="412,-153 412,-194 582,-194 582,-153 412,-153"/>
<text text-anchor="start" x="420" y="-182" font-family="Helvetica,sans-Serif" font-size="10.00">System.Runtime.CompilerServices.</text>
<text text-anchor="start" x="420" y="-171" font-family="Helvetica,sans-Serif" font-size="10.00">ConfiguredTaskAwaitable&lt; TResult</text>
<text text-anchor="middle" x="497" y="-160" font-family="Helvetica,sans-Serif" font-size="10.00"> &gt;.ConfiguredTaskAwaiter</text>
</a>
</g>
</g>
<!-- Node1172&#45;&gt;Node1173 -->
<g id="edge1" class="edge"><title>Node1172&#45;&gt;Node1173</title>
<path fill="none" stroke="midnightblue" d="M132.155,-111.122C154.195,-119.374 181.132,-128.541 206,-134.5 274.298,-150.865 353.405,-160.929 411.728,-166.724"/>
<polygon fill="midnightblue" stroke="midnightblue" points="133.306,-107.816 122.715,-107.533 130.818,-114.359 133.306,-107.816"/>
</g>
<!-- Node1174 -->
<g id="node3" class="node"><title>Node1174</title>
<g id="a_node3"><a xlink:href="interface_system_1_1_runtime_1_1_compiler_services_1_1_i_critical_notify_completion.html" target="_top" xlink:title="Represents an awaiter that schedules continuations when an await operation completes.">
<polygon fill="none" stroke="black" points="206,-77.5 206,-107.5 376,-107.5 376,-77.5 206,-77.5"/>
<text text-anchor="start" x="214" y="-95.5" font-family="Helvetica,sans-Serif" font-size="10.00">System.Runtime.CompilerServices.</text>
<text text-anchor="middle" x="291" y="-84.5" font-family="Helvetica,sans-Serif" font-size="10.00">ICriticalNotifyCompletion</text>
</a>
</g>
</g>
<!-- Node1172&#45;&gt;Node1174 -->
<g id="edge2" class="edge"><title>Node1172&#45;&gt;Node1174</title>
<path fill="none" stroke="midnightblue" d="M180.402,-92.5C188.847,-92.5 197.361,-92.5 205.712,-92.5"/>
<polygon fill="midnightblue" stroke="midnightblue" points="180.152,-89.0001 170.152,-92.5 180.152,-96.0001 180.152,-89.0001"/>
</g>
<!-- Node0 -->
<g id="node4" class="node"><title>Node0</title>
<g id="a_node4"><a xlink:href="struct_system_1_1_runtime_1_1_compiler_services_1_1_task_awaiter.html" target="_top" xlink:title="Provides an object that waits for the completion of an asynchronous task.">
<polygon fill="none" stroke="black" points="412,-102.5 412,-132.5 582,-132.5 582,-102.5 412,-102.5"/>
<text text-anchor="start" x="420" y="-120.5" font-family="Helvetica,sans-Serif" font-size="10.00">System.Runtime.CompilerServices.</text>
<text text-anchor="middle" x="497" y="-109.5" font-family="Helvetica,sans-Serif" font-size="10.00">TaskAwaiter</text>
</a>
</g>
</g>
<!-- Node1172&#45;&gt;Node0 -->
<g id="edge7" class="edge"><title>Node1172&#45;&gt;Node0</title>
<path fill="none" stroke="midnightblue" d="M159.155,-109.473C174.545,-112.384 190.74,-114.962 206,-116.5 275.004,-123.453 353.714,-123.213 411.705,-121.508"/>
<polygon fill="midnightblue" stroke="midnightblue" points="159.662,-106.006 149.176,-107.52 158.317,-112.876 159.662,-106.006"/>
</g>
<!-- Node1175 -->
<g id="node5" class="node"><title>Node1175</title>
<g id="a_node5"><a xlink:href="struct_system_1_1_runtime_1_1_compiler_services_1_1_yield_awaitable_1_1_yield_awaiter.html" target="_top" xlink:title="Provides an awaiter for switching into a target environment.">
<polygon fill="none" stroke="black" points="412,-52.5 412,-82.5 582,-82.5 582,-52.5 412,-52.5"/>
<text text-anchor="start" x="420" y="-70.5" font-family="Helvetica,sans-Serif" font-size="10.00">System.Runtime.CompilerServices.</text>
<text text-anchor="middle" x="497" y="-59.5" font-family="Helvetica,sans-Serif" font-size="10.00">YieldAwaitable.YieldAwaiter</text>
</a>
</g>
</g>
<!-- Node1172&#45;&gt;Node1175 -->
<g id="edge8" class="edge"><title>Node1172&#45;&gt;Node1175</title>
<path fill="none" stroke="midnightblue" d="M156.045,-75.3905C172.342,-72.1121 189.697,-69.1802 206,-67.5 274.988,-60.3901 353.699,-60.9317 411.694,-62.949"/>
<polygon fill="midnightblue" stroke="midnightblue" points="155.13,-72.0057 146.052,-77.4685 156.556,-78.8591 155.13,-72.0057"/>
</g>
<!-- Node1176 -->
<g id="node6" class="node"><title>Node1176</title>
<g id="a_node6"><a xlink:href="class_system_1_1_threading_1_1_tasks_1_1_begin_end_awaitable_adapter.html" target="_top" xlink:title=" ">
<polygon fill="none" stroke="black" points="421,-0.5 421,-30.5 573,-30.5 573,-0.5 421,-0.5"/>
<text text-anchor="start" x="429" y="-18.5" font-family="Helvetica,sans-Serif" font-size="10.00">System.Threading.Tasks.Begin</text>
<text text-anchor="middle" x="497" y="-7.5" font-family="Helvetica,sans-Serif" font-size="10.00">EndAwaitableAdapter</text>
</a>
</g>
</g>
<!-- Node1172&#45;&gt;Node1176 -->
<g id="edge9" class="edge"><title>Node1172&#45;&gt;Node1176</title>
<path fill="none" stroke="midnightblue" d="M143.548,-74.5681C163.219,-68.8741 185.445,-62.9167 206,-58.5 278.279,-42.9695 361.896,-31.2198 420.717,-23.9602"/>
<polygon fill="midnightblue" stroke="midnightblue" points="142.427,-71.2494 133.816,-77.4228 144.397,-77.9663 142.427,-71.2494"/>
</g>
<!-- Node1174&#45;&gt;Node1173 -->
<g id="edge3" class="edge"><title>Node1174&#45;&gt;Node1173</title>
<path fill="none" stroke="midnightblue" d="M337.413,-111.339C359.816,-120.558 387.273,-131.743 412,-141.5 421.436,-145.223 431.495,-149.119 441.253,-152.859"/>
<polygon fill="midnightblue" stroke="midnightblue" points="338.723,-108.094 328.143,-107.519 336.055,-114.566 338.723,-108.094"/>
</g>
<!-- Node1174&#45;&gt;Node0 -->
<g id="edge4" class="edge"><title>Node1174&#45;&gt;Node0</title>
<path fill="none" stroke="midnightblue" d="M386.124,-104.035C394.66,-105.081 403.269,-106.136 411.712,-107.171"/>
<polygon fill="midnightblue" stroke="midnightblue" points="386.504,-100.555 376.152,-102.813 385.652,-107.503 386.504,-100.555"/>
</g>
<!-- Node1174&#45;&gt;Node1175 -->
<g id="edge5" class="edge"><title>Node1174&#45;&gt;Node1175</title>
<path fill="none" stroke="midnightblue" d="M386.124,-80.9652C394.66,-79.9192 403.269,-78.8641 411.712,-77.8294"/>
<polygon fill="midnightblue" stroke="midnightblue" points="385.652,-77.4967 376.152,-82.1872 386.504,-84.4447 385.652,-77.4967"/>
</g>
<!-- Node1174&#45;&gt;Node1176 -->
<g id="edge6" class="edge"><title>Node1174&#45;&gt;Node1176</title>
<path fill="none" stroke="midnightblue" d="M335.433,-73.3706C358.077,-63.661 386.334,-51.9531 412,-42.5 423.212,-38.3705 435.39,-34.2509 446.904,-30.5185"/>
<polygon fill="midnightblue" stroke="midnightblue" points="333.892,-70.2232 326.096,-77.3971 336.664,-76.651 333.892,-70.2232"/>
</g>
</g>
</svg>
