<?xml version="1.0" encoding="UTF-8" standalone="no"?>
<!DOCTYPE svg PUBLIC "-//W3C//DTD SVG 1.1//EN"
 "http://www.w3.org/Graphics/SVG/1.1/DTD/svg11.dtd">
<!-- Generated by graphviz version 2.38.0 (20140413.2041)
 -->
<!-- Title: Graphical Class Hierarchy Pages: 1 -->
<svg width="303pt" height="88pt"
 viewBox="0.00 0.00 303.00 88.00" xmlns="http://www.w3.org/2000/svg" xmlns:xlink="http://www.w3.org/1999/xlink">
<g id="graph0" class="graph" transform="scale(1 1) rotate(0) translate(4 84)">
<title>Graphical Class Hierarchy</title>
<!-- Node0 -->
<g id="node1" class="node"><title>Node0</title>
<g id="a_node1"><a xlink:href="interface_system_1_1_security_1_1_i_security_element_factory.html" target="_top" xlink:title=" ">
<polygon fill="none" stroke="black" points="0,-24.5 0,-54.5 131,-54.5 131,-24.5 0,-24.5"/>
<text text-anchor="start" x="8" y="-42.5" font-family="Helvetica,sans-Serif" font-size="10.00">System.Security.ISecurity</text>
<text text-anchor="middle" x="65.5" y="-31.5" font-family="Helvetica,sans-Serif" font-size="10.00">ElementFactory</text>
</a>
</g>
</g>
<!-- Node1 -->
<g id="node2" class="node"><title>Node1</title>
<g id="a_node2"><a xlink:href="class_system_1_1_security_1_1_security_document_element.html" target="_top" xlink:title=" ">
<polygon fill="none" stroke="black" points="167,-49.5 167,-79.5 295,-79.5 295,-49.5 167,-49.5"/>
<text text-anchor="start" x="175" y="-67.5" font-family="Helvetica,sans-Serif" font-size="10.00">System.Security.Security</text>
<text text-anchor="middle" x="231" y="-56.5" font-family="Helvetica,sans-Serif" font-size="10.00">DocumentElement</text>
</a>
</g>
</g>
<!-- Node0&#45;&gt;Node1 -->
<g id="edge1" class="edge"><title>Node0&#45;&gt;Node1</title>
<path fill="none" stroke="midnightblue" d="M141.156,-50.9152C149.766,-52.2318 158.482,-53.5646 166.918,-54.8545"/>
<polygon fill="midnightblue" stroke="midnightblue" points="141.534,-47.4324 131.12,-49.3807 140.476,-54.352 141.534,-47.4324"/>
</g>
<!-- Node2 -->
<g id="node3" class="node"><title>Node2</title>
<g id="a_node3"><a xlink:href="class_system_1_1_security_1_1_security_element.html" target="_top" xlink:title="Represents the XML object model for encoding security objects. This class cannot be inherited.">
<polygon fill="none" stroke="black" points="167,-0.5 167,-30.5 295,-30.5 295,-0.5 167,-0.5"/>
<text text-anchor="start" x="175" y="-18.5" font-family="Helvetica,sans-Serif" font-size="10.00">System.Security.Security</text>
<text text-anchor="middle" x="231" y="-7.5" font-family="Helvetica,sans-Serif" font-size="10.00">Element</text>
</a>
</g>
</g>
<!-- Node0&#45;&gt;Node2 -->
<g id="edge2" class="edge"><title>Node0&#45;&gt;Node2</title>
<path fill="none" stroke="midnightblue" d="M141.156,-28.5414C149.766,-27.2775 158.482,-25.998 166.918,-24.7597"/>
<polygon fill="midnightblue" stroke="midnightblue" points="140.505,-25.0993 131.12,-30.0146 141.522,-32.025 140.505,-25.0993"/>
</g>
</g>
</svg>
