<?xml version="1.0" encoding="UTF-8" standalone="no"?>
<!DOCTYPE svg PUBLIC "-//W3C//DTD SVG 1.1//EN"
 "http://www.w3.org/Graphics/SVG/1.1/DTD/svg11.dtd">
<!-- Generated by graphviz version 2.38.0 (20140413.2041)
 -->
<!-- Title: Graphical Class Hierarchy Pages: 1 -->
<svg width="466pt" height="88pt"
 viewBox="0.00 0.00 466.00 88.00" xmlns="http://www.w3.org/2000/svg" xmlns:xlink="http://www.w3.org/1999/xlink">
<g id="graph0" class="graph" transform="scale(1 1) rotate(0) translate(4 84)">
<title>Graphical Class Hierarchy</title>
<!-- Node1851 -->
<g id="node1" class="node"><title>Node1851</title>
<g id="a_node1"><a xlink:href="interface_system_1_1_runtime_1_1_interop_services_1_1_windows_runtime_1_1_i_activation_factory.html" target="_top" xlink:title="Enables classes to be activated by the Windows Runtime.">
<polygon fill="none" stroke="black" points="19.5,-49.5 19.5,-79.5 192.5,-79.5 192.5,-49.5 19.5,-49.5"/>
<text text-anchor="start" x="27.5" y="-67.5" font-family="Helvetica,sans-Serif" font-size="10.00">System.Runtime.InteropServices.</text>
<text text-anchor="middle" x="106" y="-56.5" font-family="Helvetica,sans-Serif" font-size="10.00">WindowsRuntime.IActivationFactory</text>
</a>
</g>
</g>
<!-- Node1 -->
<g id="node2" class="node"><title>Node1</title>
<g id="a_node2"><a xlink:href="class_system_1_1_runtime_1_1_interop_services_1_1_windows_runtime_1_1_managed_activation_factory.html" target="_top" xlink:title=" ">
<polygon fill="none" stroke="black" points="248,-24.5 248,-54.5 458,-54.5 458,-24.5 248,-24.5"/>
<text text-anchor="start" x="256" y="-42.5" font-family="Helvetica,sans-Serif" font-size="10.00">System.Runtime.InteropServices.</text>
<text text-anchor="middle" x="353" y="-31.5" font-family="Helvetica,sans-Serif" font-size="10.00">WindowsRuntime.ManagedActivationFactory</text>
</a>
</g>
</g>
<!-- Node1851&#45;&gt;Node1 -->
<g id="edge1" class="edge"><title>Node1851&#45;&gt;Node1</title>
<path fill="none" stroke="midnightblue" d="M202.811,-54.7233C217.574,-53.2169 232.88,-51.6551 247.815,-50.1311"/>
<polygon fill="midnightblue" stroke="midnightblue" points="202.282,-51.2591 192.689,-55.7562 202.993,-58.2229 202.282,-51.2591"/>
</g>
<!-- Node0 -->
<g id="node3" class="node"><title>Node0</title>
<g id="a_node3"><a xlink:href="interface_system_1_1_runtime_1_1_interop_services_1_1_windows_runtime_1_1_i_managed_activation_factory.html" target="_top" xlink:title=" ">
<polygon fill="none" stroke="black" points="0,-0.5 0,-30.5 212,-30.5 212,-0.5 0,-0.5"/>
<text text-anchor="start" x="8" y="-18.5" font-family="Helvetica,sans-Serif" font-size="10.00">System.Runtime.InteropServices.</text>
<text text-anchor="middle" x="106" y="-7.5" font-family="Helvetica,sans-Serif" font-size="10.00">WindowsRuntime.IManagedActivationFactory</text>
</a>
</g>
</g>
<!-- Node0&#45;&gt;Node1 -->
<g id="edge2" class="edge"><title>Node0&#45;&gt;Node1</title>
<path fill="none" stroke="midnightblue" d="M222.323,-26.797C230.868,-27.634 239.46,-28.4757 247.931,-29.3055"/>
<polygon fill="midnightblue" stroke="midnightblue" points="222.618,-23.3091 212.324,-25.8174 221.935,-30.2758 222.618,-23.3091"/>
</g>
</g>
</svg>
