<?xml version="1.0" encoding="UTF-8" standalone="no"?>
<!DOCTYPE svg PUBLIC "-//W3C//DTD SVG 1.1//EN"
 "http://www.w3.org/Graphics/SVG/1.1/DTD/svg11.dtd">
<!-- Generated by graphviz version 2.38.0 (20140413.2041)
 -->
<!-- Title: Graphical Class Hierarchy Pages: 1 -->
<svg width="347pt" height="100pt"
 viewBox="0.00 0.00 347.00 99.50" xmlns="http://www.w3.org/2000/svg" xmlns:xlink="http://www.w3.org/1999/xlink">
<g id="graph0" class="graph" transform="scale(1 1) rotate(0) translate(4 95.5)">
<title>Graphical Class Hierarchy</title>
<!-- Node1840 -->
<g id="node1" class="node"><title>Node1840</title>
<g id="a_node1"><a xlink:href="interface_system_1_1_collections_1_1_generic_1_1_i_array_sort_helper.html" target="_top" xlink:title=" ">
<polygon fill="none" stroke="black" points="0,-61 0,-91 141,-91 141,-61 0,-61"/>
<text text-anchor="start" x="8" y="-79" font-family="Helvetica,sans-Serif" font-size="10.00">System.Collections.Generic.</text>
<text text-anchor="middle" x="70.5" y="-68" font-family="Helvetica,sans-Serif" font-size="10.00">IArraySortHelper&lt; T &gt;</text>
</a>
</g>
</g>
<!-- Node1 -->
<g id="node2" class="node"><title>Node1</title>
<g id="a_node2"><a xlink:href="class_system_1_1_collections_1_1_generic_1_1_array_sort_helper.html" target="_top" xlink:title=" ">
<polygon fill="none" stroke="black" points="177,-61 177,-91 339,-91 339,-61 177,-61"/>
<text text-anchor="start" x="185" y="-79" font-family="Helvetica,sans-Serif" font-size="10.00">System.Collections.Generic.</text>
<text text-anchor="middle" x="258" y="-68" font-family="Helvetica,sans-Serif" font-size="10.00">ArraySortHelper&lt; TKey, TValue &gt;</text>
</a>
</g>
</g>
<!-- Node1840&#45;&gt;Node1 -->
<g id="edge1" class="edge"><title>Node1840&#45;&gt;Node1</title>
<path fill="none" stroke="midnightblue" d="M151.286,-76C159.71,-76 168.28,-76 176.711,-76"/>
<polygon fill="midnightblue" stroke="midnightblue" points="151.101,-72.5001 141.101,-76 151.101,-79.5001 151.101,-72.5001"/>
</g>
<!-- Node2 -->
<g id="node3" class="node"><title>Node2</title>
<g id="a_node3"><a xlink:href="class_system_1_1_collections_1_1_generic_1_1_generic_array_sort_helper.html" target="_top" xlink:title=" ">
<polygon fill="none" stroke="black" points="187.5,-0.5 187.5,-41.5 328.5,-41.5 328.5,-0.5 187.5,-0.5"/>
<text text-anchor="start" x="195.5" y="-29.5" font-family="Helvetica,sans-Serif" font-size="10.00">System.Collections.Generic.</text>
<text text-anchor="start" x="195.5" y="-18.5" font-family="Helvetica,sans-Serif" font-size="10.00">GenericArraySortHelper&lt;</text>
<text text-anchor="middle" x="258" y="-7.5" font-family="Helvetica,sans-Serif" font-size="10.00"> TKey, TValue &gt;</text>
</a>
</g>
</g>
<!-- Node1840&#45;&gt;Node2 -->
<g id="edge2" class="edge"><title>Node1840&#45;&gt;Node2</title>
<path fill="none" stroke="midnightblue" d="M131.869,-58.1009C149.665,-52.8243 169.281,-47.0084 187.597,-41.5777"/>
<polygon fill="midnightblue" stroke="midnightblue" points="130.781,-54.7727 122.189,-60.971 132.771,-61.4839 130.781,-54.7727"/>
</g>
<!-- Node0 -->
<g id="node4" class="node"><title>Node0</title>
<g id="a_node4"><a xlink:href="interface_system_1_1_collections_1_1_generic_1_1_i_array_sort_helper.html" target="_top" xlink:title=" ">
<polygon fill="none" stroke="black" points="0,-0.5 0,-41.5 141,-41.5 141,-0.5 0,-0.5"/>
<text text-anchor="start" x="8" y="-29.5" font-family="Helvetica,sans-Serif" font-size="10.00">System.Collections.Generic.</text>
<text text-anchor="start" x="8" y="-18.5" font-family="Helvetica,sans-Serif" font-size="10.00">IArraySortHelper&lt; TKey,</text>
<text text-anchor="middle" x="70.5" y="-7.5" font-family="Helvetica,sans-Serif" font-size="10.00"> TValue &gt;</text>
</a>
</g>
</g>
<!-- Node0&#45;&gt;Node1 -->
<g id="edge3" class="edge"><title>Node0&#45;&gt;Node1</title>
<path fill="none" stroke="midnightblue" d="M150.611,-44.4559C169.466,-50.0467 189.091,-55.8653 206.275,-60.9604"/>
<polygon fill="midnightblue" stroke="midnightblue" points="151.42,-41.0453 140.837,-41.5582 149.43,-47.7565 151.42,-41.0453"/>
</g>
<!-- Node0&#45;&gt;Node2 -->
<g id="edge4" class="edge"><title>Node0&#45;&gt;Node2</title>
<path fill="none" stroke="midnightblue" d="M151.126,-21C163.167,-21 175.508,-21 187.317,-21"/>
<polygon fill="midnightblue" stroke="midnightblue" points="151.101,-17.5001 141.101,-21 151.101,-24.5001 151.101,-17.5001"/>
</g>
</g>
</svg>
