<?xml version="1.0" encoding="UTF-8" standalone="no"?>
<!DOCTYPE svg PUBLIC "-//W3C//DTD SVG 1.1//EN"
 "http://www.w3.org/Graphics/SVG/1.1/DTD/svg11.dtd">
<!-- Generated by graphviz version 2.38.0 (20140413.2041)
 -->
<!-- Title: System.Runtime.Remoting.Messaging.IMethodMessage Pages: 1 -->
<!--zoomable 543 -->
<svg id="main" version="1.1" xmlns="http://www.w3.org/2000/svg" xmlns:xlink="http://www.w3.org/1999/xlink" xml:space="preserve" onload="init(evt)">
<style type="text/css"><![CDATA[
.edge:hover path { stroke: red; }
.edge:hover polygon { stroke: red; fill: red; }
]]></style>
<script type="text/javascript"><![CDATA[
var edges = document.getElementsByTagName('g');
if (edges && edges.length) {
  for (var i=0;i<edges.length;i++) {
    if (edges[i].id.substr(0,4)=='edge') {
      edges[i].setAttribute('class','edge');
    }
  }
}
]]></script>
        <defs>
                <circle id="rim" cx="0" cy="0" r="7"/>
                <circle id="rim2" cx="0" cy="0" r="3.5"/>
                <g id="zoomPlus">
                        <use xlink:href="#rim" fill="#404040">
                                <set attributeName="fill" to="#808080" begin="zoomplus.mouseover" end="zoomplus.mouseout"/>
                        </use>
                        <path d="M-4,0h8M0,-4v8" fill="none" stroke="white" stroke-width="1.5" pointer-events="none"/>
                </g>
                <g id="zoomMin">
                        <use xlink:href="#rim" fill="#404040">
                                <set attributeName="fill" to="#808080" begin="zoomminus.mouseover" end="zoomminus.mouseout"/>
                        </use>
                        <path d="M-4,0h8" fill="none" stroke="white" stroke-width="1.5" pointer-events="none"/>
                </g>
                <g id="dirArrow">
                        <path fill="none" stroke="white" stroke-width="1.5" d="M0,-3.0v7 M-2.5,-0.5L0,-3.0L2.5,-0.5"/>
                </g>
               <g id="resetDef">
                       <use xlink:href="#rim2" fill="#404040">
                               <set attributeName="fill" to="#808080" begin="reset.mouseover" end="reset.mouseout"/>
                       </use>
               </g>
        </defs>

<script type="text/javascript">
var viewWidth = 879;
var viewHeight = 543;
var sectionId = 'dynsection-0';
</script>
<script xlink:href="svgpan.js"/>
<svg id="graph" class="graph">
<g id="viewport">
<title>System.Runtime.Remoting.Messaging.IMethodMessage</title>
<!-- Node0 -->
<g id="node1" class="node"><title>Node0</title>
<g id="a_node1"><a xlink:title="Defines the method message interface.">
<polygon fill="#bfbfbf" stroke="black" points="95,-268.963 95,-298.963 236,-298.963 236,-268.963 95,-268.963"/>
<text text-anchor="start" x="103" y="-286.963" font-family="Helvetica,sans-Serif" font-size="10.00">System.Runtime.Remoting.</text>
<text text-anchor="middle" x="165.5" y="-275.963" font-family="Helvetica,sans-Serif" font-size="10.00">Messaging.IMethodMessage</text>
</a>
</g>
</g>
<!-- Node2 -->
<g id="node3" class="node"><title>Node2</title>
<g id="a_node3"><a xlink:href="interface_system_1_1_runtime_1_1_remoting_1_1_activation_1_1_i_construction_call_message.html" target="_top" xlink:title="Represents the construction call request of an object.">
<polygon fill="none" stroke="black" points="505.5,-406.463 505.5,-447.463 642.5,-447.463 642.5,-406.463 505.5,-406.463"/>
<text text-anchor="start" x="513.5" y="-435.463" font-family="Helvetica,sans-Serif" font-size="10.00">System.Runtime.Remoting.</text>
<text text-anchor="start" x="513.5" y="-424.463" font-family="Helvetica,sans-Serif" font-size="10.00">Activation.IConstructionCall</text>
<text text-anchor="middle" x="574" y="-413.463" font-family="Helvetica,sans-Serif" font-size="10.00">Message</text>
</a>
</g>
</g>
<!-- Node0&#45;&gt;Node2 -->
<g id="edge2" class="edge"><title>Node0&#45;&gt;Node2</title>
<path fill="none" stroke="midnightblue" d="M186.832,-306.221C206.581,-326.394 238.428,-355.29 272,-370.963 347.136,-406.039 442.472,-419.161 505.489,-424.06"/>
<polygon fill="midnightblue" stroke="midnightblue" points="189.323,-303.762 179.877,-298.963 184.268,-308.605 189.323,-303.762"/>
</g>
<!-- Node3 -->
<g id="node4" class="node"><title>Node3</title>
<g id="a_node4"><a xlink:href="class_system_1_1_runtime_1_1_remoting_1_1_messaging_1_1_construction_call.html" target="_top" xlink:title="Implements the T:System.Runtime.Remoting.Activation.IConstructionCallMessage interface to create a re...">
<polygon fill="none" stroke="black" points="719.5,-435.963 719.5,-465.963 857.5,-465.963 857.5,-435.963 719.5,-435.963"/>
<text text-anchor="start" x="727.5" y="-453.963" font-family="Helvetica,sans-Serif" font-size="10.00">System.Runtime.Remoting.</text>
<text text-anchor="middle" x="788.5" y="-442.963" font-family="Helvetica,sans-Serif" font-size="10.00">Messaging.ConstructionCall</text>
</a>
</g>
</g>
<!-- Node0&#45;&gt;Node3 -->
<g id="edge6" class="edge"><title>Node0&#45;&gt;Node3</title>
<path fill="none" stroke="midnightblue" d="M246.192,-294.619C254.9,-295.759 263.635,-296.893 272,-297.963 360.392,-309.268 588.761,-310.341 670,-346.963 715.697,-367.562 756.405,-412.277 775.689,-435.799"/>
<polygon fill="midnightblue" stroke="midnightblue" points="246.376,-291.113 236.006,-293.281 245.464,-298.054 246.376,-291.113"/>
</g>
<!-- Node4 -->
<g id="node5" class="node"><title>Node4</title>
<g id="a_node5"><a xlink:href="interface_system_1_1_runtime_1_1_remoting_1_1_activation_1_1_i_construction_return_message.html" target="_top" xlink:title="Identifies a T:System.Runtime.Remoting.Messaging.IMethodReturnMessage that is returned after attempti...">
<polygon fill="none" stroke="black" points="500.5,-110.463 500.5,-151.463 647.5,-151.463 647.5,-110.463 500.5,-110.463"/>
<text text-anchor="start" x="508.5" y="-139.463" font-family="Helvetica,sans-Serif" font-size="10.00">System.Runtime.Remoting.</text>
<text text-anchor="start" x="508.5" y="-128.463" font-family="Helvetica,sans-Serif" font-size="10.00">Activation.IConstructionReturn</text>
<text text-anchor="middle" x="574" y="-117.463" font-family="Helvetica,sans-Serif" font-size="10.00">Message</text>
</a>
</g>
</g>
<!-- Node0&#45;&gt;Node4 -->
<g id="edge4" class="edge"><title>Node0&#45;&gt;Node4</title>
<path fill="none" stroke="midnightblue" d="M180.708,-260.384C198.411,-233.321 231.345,-189.974 272,-168.963 343.475,-132.023 436.818,-125.636 500.487,-126.494"/>
<polygon fill="midnightblue" stroke="midnightblue" points="177.716,-258.566 175.299,-268.881 183.621,-262.325 177.716,-258.566"/>
</g>
<!-- Node5 -->
<g id="node6" class="node"><title>Node5</title>
<g id="a_node6"><a xlink:href="class_system_1_1_runtime_1_1_remoting_1_1_messaging_1_1_construction_response.html" target="_top" xlink:title="Implements the T:System.Runtime.Remoting.Activation.IConstructionReturnMessage interface to create a ...">
<polygon fill="none" stroke="black" points="706,-139.963 706,-169.963 871,-169.963 871,-139.963 706,-139.963"/>
<text text-anchor="start" x="714" y="-157.963" font-family="Helvetica,sans-Serif" font-size="10.00">System.Runtime.Remoting.</text>
<text text-anchor="middle" x="788.5" y="-146.963" font-family="Helvetica,sans-Serif" font-size="10.00">Messaging.ConstructionResponse</text>
</a>
</g>
</g>
<!-- Node0&#45;&gt;Node5 -->
<g id="edge7" class="edge"><title>Node0&#45;&gt;Node5</title>
<path fill="none" stroke="midnightblue" d="M170.867,-259C180.304,-213.304 207.214,-116.792 272,-71.9626 417.662,28.8308 504.362,11.8124 670,-50.9626 717.382,-68.9197 757.939,-115.684 776.577,-139.915"/>
<polygon fill="midnightblue" stroke="midnightblue" points="167.404,-258.472 168.924,-268.957 174.275,-259.813 167.404,-258.472"/>
</g>
<!-- Node6 -->
<g id="node7" class="node"><title>Node6</title>
<g id="a_node7"><a xlink:href="interface_system_1_1_runtime_1_1_remoting_1_1_messaging_1_1_i_method_call_message.html" target="_top" xlink:title="Defines the method call message interface.">
<polygon fill="none" stroke="black" points="278,-432.963 278,-462.963 436,-462.963 436,-432.963 278,-432.963"/>
<text text-anchor="start" x="286" y="-450.963" font-family="Helvetica,sans-Serif" font-size="10.00">System.Runtime.Remoting.</text>
<text text-anchor="middle" x="357" y="-439.963" font-family="Helvetica,sans-Serif" font-size="10.00">Messaging.IMethodCallMessage</text>
</a>
</g>
</g>
<!-- Node0&#45;&gt;Node6 -->
<g id="edge8" class="edge"><title>Node0&#45;&gt;Node6</title>
<path fill="none" stroke="midnightblue" d="M179.661,-307.993C197.107,-337.758 230.57,-388.17 272,-417.963 280.423,-424.02 290.192,-428.962 300.023,-432.957"/>
<polygon fill="midnightblue" stroke="midnightblue" points="182.578,-306.043 174.57,-299.106 176.505,-309.523 182.578,-306.043"/>
</g>
<!-- Node7 -->
<g id="node8" class="node"><title>Node7</title>
<g id="a_node8"><a xlink:href="class_system_1_1_runtime_1_1_remoting_1_1_messaging_1_1_method_call.html" target="_top" xlink:title="Implements the T:System.Runtime.Remoting.Messaging.IMethodCallMessage interface to create a request m...">
<polygon fill="none" stroke="black" points="505.5,-504.963 505.5,-534.963 642.5,-534.963 642.5,-504.963 505.5,-504.963"/>
<text text-anchor="start" x="513.5" y="-522.963" font-family="Helvetica,sans-Serif" font-size="10.00">System.Runtime.Remoting.</text>
<text text-anchor="middle" x="574" y="-511.963" font-family="Helvetica,sans-Serif" font-size="10.00">Messaging.MethodCall</text>
</a>
</g>
</g>
<!-- Node0&#45;&gt;Node7 -->
<g id="edge21" class="edge"><title>Node0&#45;&gt;Node7</title>
<path fill="none" stroke="midnightblue" d="M172.897,-309.02C184.838,-350.297 214.664,-431.994 272,-471.963 340.806,-519.927 439.794,-526.898 505.216,-525.251"/>
<polygon fill="midnightblue" stroke="midnightblue" points="176.223,-307.915 170.179,-299.213 169.477,-309.785 176.223,-307.915"/>
</g>
<!-- Node8 -->
<g id="node9" class="node"><title>Node8</title>
<g id="a_node9"><a xlink:href="class_system_1_1_runtime_1_1_remoting_1_1_messaging_1_1_method_call_message_wrapper.html" target="_top" xlink:title="Implements the T:System.Runtime.Remoting.Messaging.IMethodCallMessage interface to create a request m...">
<polygon fill="none" stroke="black" points="478,-356.963 478,-386.963 670,-386.963 670,-356.963 478,-356.963"/>
<text text-anchor="start" x="486" y="-374.963" font-family="Helvetica,sans-Serif" font-size="10.00">System.Runtime.Remoting.</text>
<text text-anchor="middle" x="574" y="-363.963" font-family="Helvetica,sans-Serif" font-size="10.00">Messaging.MethodCallMessageWrapper</text>
</a>
</g>
</g>
<!-- Node0&#45;&gt;Node8 -->
<g id="edge22" class="edge"><title>Node0&#45;&gt;Node8</title>
<path fill="none" stroke="midnightblue" d="M196.465,-304.723C216.819,-317.718 244.874,-333.542 272,-341.963 338.831,-362.709 417.64,-369.986 477.85,-372.195"/>
<polygon fill="midnightblue" stroke="midnightblue" points="198.25,-301.709 187.963,-299.174 194.423,-307.571 198.25,-301.709"/>
</g>
<!-- Node9 -->
<g id="node10" class="node"><title>Node9</title>
<g id="a_node10"><a xlink:href="interface_system_1_1_runtime_1_1_remoting_1_1_messaging_1_1_i_method_return_message.html" target="_top" xlink:title="Defines the method call return message interface.">
<polygon fill="none" stroke="black" points="272,-178.963 272,-208.963 442,-208.963 442,-178.963 272,-178.963"/>
<text text-anchor="start" x="280" y="-196.963" font-family="Helvetica,sans-Serif" font-size="10.00">System.Runtime.Remoting.</text>
<text text-anchor="middle" x="357" y="-185.963" font-family="Helvetica,sans-Serif" font-size="10.00">Messaging.IMethodReturnMessage</text>
</a>
</g>
</g>
<!-- Node0&#45;&gt;Node9 -->
<g id="edge14" class="edge"><title>Node0&#45;&gt;Node9</title>
<path fill="none" stroke="midnightblue" d="M201.374,-263.741C221.673,-252.322 247.931,-238.142 272,-226.963 285.642,-220.626 300.865,-214.401 314.565,-209.096"/>
<polygon fill="midnightblue" stroke="midnightblue" points="199.47,-260.797 192.496,-268.773 202.922,-266.887 199.47,-260.797"/>
</g>
<!-- Node10 -->
<g id="node11" class="node"><title>Node10</title>
<g id="a_node11"><a xlink:href="class_system_1_1_runtime_1_1_remoting_1_1_messaging_1_1_method_response.html" target="_top" xlink:title="Implements the T:System.Runtime.Remoting.Messaging.IMethodReturnMessage interface to create a message...">
<polygon fill="none" stroke="black" points="502.5,-268.963 502.5,-298.963 645.5,-298.963 645.5,-268.963 502.5,-268.963"/>
<text text-anchor="start" x="510.5" y="-286.963" font-family="Helvetica,sans-Serif" font-size="10.00">System.Runtime.Remoting.</text>
<text text-anchor="middle" x="574" y="-275.963" font-family="Helvetica,sans-Serif" font-size="10.00">Messaging.MethodResponse</text>
</a>
</g>
</g>
<!-- Node0&#45;&gt;Node10 -->
<g id="edge23" class="edge"><title>Node0&#45;&gt;Node10</title>
<path fill="none" stroke="midnightblue" d="M246.649,-283.963C321.146,-283.963 431.04,-283.963 502.33,-283.963"/>
<polygon fill="midnightblue" stroke="midnightblue" points="246.38,-280.463 236.38,-283.963 246.38,-287.463 246.38,-280.463"/>
</g>
<!-- Node11 -->
<g id="node12" class="node"><title>Node11</title>
<g id="a_node12"><a xlink:href="class_system_1_1_runtime_1_1_remoting_1_1_messaging_1_1_method_return_message_wrapper.html" target="_top" xlink:title="Implements the T:System.Runtime.Remoting.Messaging.IMethodReturnMessage interface to create a message...">
<polygon fill="none" stroke="black" points="490.5,-208.463 490.5,-249.463 657.5,-249.463 657.5,-208.463 490.5,-208.463"/>
<text text-anchor="start" x="498.5" y="-237.463" font-family="Helvetica,sans-Serif" font-size="10.00">System.Runtime.Remoting.</text>
<text text-anchor="start" x="498.5" y="-226.463" font-family="Helvetica,sans-Serif" font-size="10.00">Messaging.MethodReturnMessage</text>
<text text-anchor="middle" x="574" y="-215.463" font-family="Helvetica,sans-Serif" font-size="10.00">Wrapper</text>
</a>
</g>
</g>
<!-- Node0&#45;&gt;Node11 -->
<g id="edge24" class="edge"><title>Node0&#45;&gt;Node11</title>
<path fill="none" stroke="midnightblue" d="M246.537,-273.134C316.988,-263.601 419.161,-249.777 490.376,-240.142"/>
<polygon fill="midnightblue" stroke="midnightblue" points="245.82,-269.698 236.38,-274.508 246.759,-276.635 245.82,-269.698"/>
</g>
<!-- Node12 -->
<g id="node13" class="node"><title>Node12</title>
<g id="a_node13"><a xlink:href="class_system_1_1_runtime_1_1_remoting_1_1_messaging_1_1_return_message.html" target="_top" xlink:title="Holds a message returned in response to a method call on a remote object.">
<polygon fill="none" stroke="black" points="505.5,-60.9626 505.5,-90.9626 642.5,-90.9626 642.5,-60.9626 505.5,-60.9626"/>
<text text-anchor="start" x="513.5" y="-78.9626" font-family="Helvetica,sans-Serif" font-size="10.00">System.Runtime.Remoting.</text>
<text text-anchor="middle" x="574" y="-67.9626" font-family="Helvetica,sans-Serif" font-size="10.00">Messaging.ReturnMessage</text>
</a>
</g>
</g>
<!-- Node0&#45;&gt;Node12 -->
<g id="edge25" class="edge"><title>Node0&#45;&gt;Node12</title>
<path fill="none" stroke="midnightblue" d="M175.576,-258.92C190.021,-222.924 221.841,-157.338 272,-124.963 342.284,-79.5975 440.468,-71.5648 505.341,-72.0629"/>
<polygon fill="midnightblue" stroke="midnightblue" points="172.154,-258.065 171.806,-268.654 178.681,-260.593 172.154,-258.065"/>
</g>
<!-- Node1 -->
<g id="node2" class="node"><title>Node1</title>
<g id="a_node2"><a xlink:href="interface_system_1_1_runtime_1_1_remoting_1_1_messaging_1_1_i_message.html" target="_top" xlink:title="Contains communication data sent between cooperating message sinks.">
<polygon fill="none" stroke="black" points="0,-274.463 0,-293.463 59,-293.463 59,-274.463 0,-274.463"/>
<text text-anchor="middle" x="29.5" y="-281.463" font-family="Helvetica,sans-Serif" font-size="10.00">IMessage</text>
</a>
</g>
</g>
<!-- Node1&#45;&gt;Node0 -->
<g id="edge1" class="edge"><title>Node1&#45;&gt;Node0</title>
<path fill="none" stroke="midnightblue" d="M69.355,-283.963C77.3703,-283.963 86.0424,-283.963 94.7764,-283.963"/>
<polygon fill="midnightblue" stroke="midnightblue" points="69.2464,-280.463 59.2464,-283.963 69.2463,-287.463 69.2464,-280.463"/>
</g>
<!-- Node2&#45;&gt;Node3 -->
<g id="edge3" class="edge"><title>Node2&#45;&gt;Node3</title>
<path fill="none" stroke="midnightblue" d="M652.76,-435.745C674.605,-438.212 698.184,-440.875 719.418,-443.273"/>
<polygon fill="midnightblue" stroke="midnightblue" points="652.858,-432.234 642.528,-434.589 652.072,-439.19 652.858,-432.234"/>
</g>
<!-- Node4&#45;&gt;Node5 -->
<g id="edge5" class="edge"><title>Node4&#45;&gt;Node5</title>
<path fill="none" stroke="midnightblue" d="M657.783,-140.312C673.559,-142.094 690.061,-143.958 705.803,-145.736"/>
<polygon fill="midnightblue" stroke="midnightblue" points="657.866,-136.799 647.536,-139.155 657.08,-143.755 657.866,-136.799"/>
</g>
<!-- Node6&#45;&gt;Node2 -->
<g id="edge9" class="edge"><title>Node6&#45;&gt;Node2</title>
<path fill="none" stroke="midnightblue" d="M446.443,-439.324C466.159,-437.398 486.759,-435.386 505.474,-433.558"/>
<polygon fill="midnightblue" stroke="midnightblue" points="445.84,-435.866 436.228,-440.322 446.521,-442.833 445.84,-435.866"/>
</g>
<!-- Node6&#45;&gt;Node3 -->
<g id="edge10" class="edge"><title>Node6&#45;&gt;Node3</title>
<path fill="none" stroke="midnightblue" d="M446.261,-455.338C456.947,-456.007 467.716,-456.577 478,-456.963 563.274,-460.156 584.694,-459.139 670,-456.963 686.029,-456.554 703.276,-455.831 719.487,-455.026"/>
<polygon fill="midnightblue" stroke="midnightblue" points="446.266,-451.831 436.058,-454.668 445.807,-458.816 446.266,-451.831"/>
</g>
<!-- Node6&#45;&gt;Node7 -->
<g id="edge11" class="edge"><title>Node6&#45;&gt;Node7</title>
<path fill="none" stroke="midnightblue" d="M409.545,-466.394C430.706,-473.859 455.48,-482.468 478,-489.963 492.934,-494.933 509.255,-500.16 524.09,-504.834"/>
<polygon fill="midnightblue" stroke="midnightblue" points="410.693,-463.088 400.098,-463.053 408.359,-469.687 410.693,-463.088"/>
</g>
<!-- Node6&#45;&gt;Node8 -->
<g id="edge13" class="edge"><title>Node6&#45;&gt;Node8</title>
<path fill="none" stroke="midnightblue" d="M399.249,-428.684C422.136,-418.433 451.294,-406.098 478,-396.963 488.408,-393.402 499.602,-390.049 510.525,-387.024"/>
<polygon fill="midnightblue" stroke="midnightblue" points="397.52,-425.624 389.85,-432.934 400.404,-432.003 397.52,-425.624"/>
</g>
<!-- Node7&#45;&gt;Node3 -->
<g id="edge12" class="edge"><title>Node7&#45;&gt;Node3</title>
<path fill="none" stroke="midnightblue" d="M633.022,-501.788C645.245,-497.918 658.055,-493.831 670,-489.963 694.027,-482.182 720.751,-473.328 742.635,-466.025"/>
<polygon fill="midnightblue" stroke="midnightblue" points="631.853,-498.486 623.372,-504.837 633.962,-505.161 631.853,-498.486"/>
</g>
<!-- Node9&#45;&gt;Node4 -->
<g id="edge15" class="edge"><title>Node9&#45;&gt;Node4</title>
<path fill="none" stroke="midnightblue" d="M418.977,-176.095C445.045,-168.456 475.635,-159.493 502.654,-151.576"/>
<polygon fill="midnightblue" stroke="midnightblue" points="417.837,-172.782 409.225,-178.953 419.805,-179.499 417.837,-172.782"/>
</g>
<!-- Node9&#45;&gt;Node5 -->
<g id="edge16" class="edge"><title>Node9&#45;&gt;Node5</title>
<path fill="none" stroke="midnightblue" d="M452.116,-185.417C527.947,-178.531 633.484,-168.948 705.801,-162.381"/>
<polygon fill="midnightblue" stroke="midnightblue" points="451.73,-181.937 442.087,-186.327 452.363,-188.908 451.73,-181.937"/>
</g>
<!-- Node9&#45;&gt;Node10 -->
<g id="edge17" class="edge"><title>Node9&#45;&gt;Node10</title>
<path fill="none" stroke="midnightblue" d="M390.85,-214.542C414.403,-228.595 447.271,-246.8 478,-258.963 487.356,-262.666 497.446,-265.99 507.433,-268.913"/>
<polygon fill="midnightblue" stroke="midnightblue" points="392.359,-211.364 381.99,-209.189 388.739,-217.356 392.359,-211.364"/>
</g>
<!-- Node9&#45;&gt;Node11 -->
<g id="edge19" class="edge"><title>Node9&#45;&gt;Node11</title>
<path fill="none" stroke="midnightblue" d="M452.192,-209.296C464.925,-211.369 477.912,-213.483 490.421,-215.52"/>
<polygon fill="midnightblue" stroke="midnightblue" points="452.481,-205.797 442.048,-207.645 451.356,-212.706 452.481,-205.797"/>
</g>
<!-- Node9&#45;&gt;Node12 -->
<g id="edge20" class="edge"><title>Node9&#45;&gt;Node12</title>
<path fill="none" stroke="midnightblue" d="M380.73,-171.744C403.54,-150.626 440.575,-119.427 478,-100.963 486.565,-96.737 495.929,-93.1639 505.332,-90.1599"/>
<polygon fill="midnightblue" stroke="midnightblue" points="378.162,-169.355 373.277,-178.756 382.959,-174.453 378.162,-169.355"/>
</g>
<!-- Node10&#45;&gt;Node5 -->
<g id="edge18" class="edge"><title>Node10&#45;&gt;Node5</title>
<path fill="none" stroke="midnightblue" d="M655.078,-265.86C660.232,-263.792 665.253,-261.5 670,-258.963 713.725,-235.588 754.667,-192.884 774.683,-170.149"/>
<polygon fill="midnightblue" stroke="midnightblue" points="653.842,-262.586 645.685,-269.346 656.278,-269.148 653.842,-262.586"/>
</g>
</g>
</svg>
        <g id="navigator" transform="translate(0 0)" fill="#404254">
                <rect fill="#f2f5e9" fill-opacity="0.5" stroke="#606060" stroke-width=".5" x="0" y="0" width="60" height="60"/>
                <use id="zoomplus" xlink:href="#zoomPlus" x="17" y="9" onmousedown="handleZoom(evt,'in')"/>
                <use id="zoomminus" xlink:href="#zoomMin" x="42" y="9" onmousedown="handleZoom(evt,'out')"/>
                <use id="reset" xlink:href="#resetDef" x="30" y="36" onmousedown="handleReset()"/>
                <g id="arrowUp" xlink:href="#dirArrow" transform="translate(30 24)" onmousedown="handlePan(0,-1)">
                  <use xlink:href="#rim" fill="#404040">
                        <set attributeName="fill" to="#808080" begin="arrowUp.mouseover" end="arrowUp.mouseout"/>
                  </use>
                  <path fill="none" stroke="white" stroke-width="1.5" d="M0,-3.0v7 M-2.5,-0.5L0,-3.0L2.5,-0.5"/>
                </g>
                <g id="arrowRight" xlink:href="#dirArrow" transform="rotate(90) translate(36 -43)" onmousedown="handlePan(1,0)">
                  <use xlink:href="#rim" fill="#404040">
                        <set attributeName="fill" to="#808080" begin="arrowRight.mouseover" end="arrowRight.mouseout"/>
                  </use>
                  <path fill="none" stroke="white" stroke-width="1.5" d="M0,-3.0v7 M-2.5,-0.5L0,-3.0L2.5,-0.5"/>
                </g>
                <g id="arrowDown" xlink:href="#dirArrow" transform="rotate(180) translate(-30 -48)" onmousedown="handlePan(0,1)">
                  <use xlink:href="#rim" fill="#404040">
                        <set attributeName="fill" to="#808080" begin="arrowDown.mouseover" end="arrowDown.mouseout"/>
                  </use>
                  <path fill="none" stroke="white" stroke-width="1.5" d="M0,-3.0v7 M-2.5,-0.5L0,-3.0L2.5,-0.5"/>
                </g>
                <g id="arrowLeft" xlink:href="#dirArrow" transform="rotate(270) translate(-36 17)" onmousedown="handlePan(-1,0)">
                  <use xlink:href="#rim" fill="#404040">
                        <set attributeName="fill" to="#808080" begin="arrowLeft.mouseover" end="arrowLeft.mouseout"/>
                  </use>
                  <path fill="none" stroke="white" stroke-width="1.5" d="M0,-3.0v7 M-2.5,-0.5L0,-3.0L2.5,-0.5"/>
                </g>
        </g>
        <svg viewBox="0 0 15 15" width="100%" height="30px" preserveAspectRatio="xMaxYMin meet">
         <g id="arrow_out" transform="scale(0.3 0.3)">
          <a xlink:href="interface_system_1_1_runtime_1_1_remoting_1_1_messaging_1_1_i_method_message__inherit__graph_org.svg" target="_base">
           <rect id="button" ry="5" rx="5" y="6" x="6" height="38" width="38"
                fill="#f2f5e9" fill-opacity="0.5" stroke="#606060" stroke-width="1.0"/>
           <path id="arrow"
             d="M 11.500037,31.436501 C 11.940474,20.09759 22.043105,11.32322 32.158766,21.979434 L 37.068811,17.246167 C 37.068811,17.246167 37.088388,32 37.088388,32 L 22.160133,31.978069 C 22.160133,31.978069 26.997745,27.140456 26.997745,27.140456 C 18.528582,18.264221 13.291696,25.230495 11.500037,31.436501 z"
             style="fill:#404040;"/>
          </a>
         </g>
        </svg>
</svg>
