<?xml version="1.0" encoding="UTF-8" standalone="no"?>
<!DOCTYPE svg PUBLIC "-//W3C//DTD SVG 1.1//EN"
 "http://www.w3.org/Graphics/SVG/1.1/DTD/svg11.dtd">
<!-- Generated by graphviz version 2.38.0 (20140413.2041)
 -->
<!-- Title: System.IAsyncResult Pages: 1 -->
<!--zoomable 676 -->
<svg id="main" version="1.1" xmlns="http://www.w3.org/2000/svg" xmlns:xlink="http://www.w3.org/1999/xlink" xml:space="preserve" onload="init(evt)">
<style type="text/css"><![CDATA[
.edge:hover path { stroke: red; }
.edge:hover polygon { stroke: red; fill: red; }
]]></style>
<script type="text/javascript"><![CDATA[
var edges = document.getElementsByTagName('g');
if (edges && edges.length) {
  for (var i=0;i<edges.length;i++) {
    if (edges[i].id.substr(0,4)=='edge') {
      edges[i].setAttribute('class','edge');
    }
  }
}
]]></script>
        <defs>
                <circle id="rim" cx="0" cy="0" r="7"/>
                <circle id="rim2" cx="0" cy="0" r="3.5"/>
                <g id="zoomPlus">
                        <use xlink:href="#rim" fill="#404040">
                                <set attributeName="fill" to="#808080" begin="zoomplus.mouseover" end="zoomplus.mouseout"/>
                        </use>
                        <path d="M-4,0h8M0,-4v8" fill="none" stroke="white" stroke-width="1.5" pointer-events="none"/>
                </g>
                <g id="zoomMin">
                        <use xlink:href="#rim" fill="#404040">
                                <set attributeName="fill" to="#808080" begin="zoomminus.mouseover" end="zoomminus.mouseout"/>
                        </use>
                        <path d="M-4,0h8" fill="none" stroke="white" stroke-width="1.5" pointer-events="none"/>
                </g>
                <g id="dirArrow">
                        <path fill="none" stroke="white" stroke-width="1.5" d="M0,-3.0v7 M-2.5,-0.5L0,-3.0L2.5,-0.5"/>
                </g>
               <g id="resetDef">
                       <use xlink:href="#rim2" fill="#404040">
                               <set attributeName="fill" to="#808080" begin="reset.mouseover" end="reset.mouseout"/>
                       </use>
               </g>
        </defs>

<script type="text/javascript">
var viewWidth = 617;
var viewHeight = 676;
var sectionId = 'dynsection-0';
</script>
<script xlink:href="svgpan.js"/>
<svg id="graph" class="graph">
<g id="viewport">
<title>System.IAsyncResult</title>
<!-- Node0 -->
<g id="node1" class="node"><title>Node0</title>
<g id="a_node1"><a xlink:title="Represents the status of an asynchronous operation.">
<polygon fill="#bfbfbf" stroke="black" points="0,-358.119 0,-377.119 111,-377.119 111,-358.119 0,-358.119"/>
<text text-anchor="middle" x="55.5" y="-365.119" font-family="Helvetica,sans-Serif" font-size="10.00">System.IAsyncResult</text>
</a>
</g>
</g>
<!-- Node1 -->
<g id="node2" class="node"><title>Node1</title>
<g id="a_node2"><a xlink:href="class_system_1_1_runtime_1_1_remoting_1_1_messaging_1_1_async_result.html" target="_top" xlink:title="Encapsulates the results of an asynchronous operation on a delegate.">
<polygon fill="none" stroke="black" points="154,-637.619 154,-667.619 291,-667.619 291,-637.619 154,-637.619"/>
<text text-anchor="start" x="162" y="-655.619" font-family="Helvetica,sans-Serif" font-size="10.00">System.Runtime.Remoting.</text>
<text text-anchor="middle" x="222.5" y="-644.619" font-family="Helvetica,sans-Serif" font-size="10.00">Messaging.AsyncResult</text>
</a>
</g>
</g>
<!-- Node0&#45;&gt;Node1 -->
<g id="edge1" class="edge"><title>Node0&#45;&gt;Node1</title>
<path fill="none" stroke="midnightblue" d="M56.1988,-387.387C56.5785,-434.686 64.2247,-555.428 129,-622.619 135.913,-629.79 144.553,-635.25 153.756,-639.405"/>
<polygon fill="midnightblue" stroke="midnightblue" points="59.699,-387.266 56.2251,-377.257 52.699,-387.248 59.699,-387.266"/>
</g>
<!-- Node2 -->
<g id="node3" class="node"><title>Node2</title>
<g id="a_node3"><a xlink:href="class_system_1_1_threading_1_1_tasks_1_1_task.html" target="_top" xlink:title="Represents an asynchronous operation that can return a value.">
<polygon fill="none" stroke="black" points="148,-314.619 148,-344.619 297,-344.619 297,-314.619 148,-314.619"/>
<text text-anchor="start" x="156" y="-332.619" font-family="Helvetica,sans-Serif" font-size="10.00">System.Threading.Tasks.Task</text>
<text text-anchor="middle" x="222.5" y="-321.619" font-family="Helvetica,sans-Serif" font-size="10.00">&lt; TResult &gt;</text>
</a>
</g>
</g>
<!-- Node0&#45;&gt;Node2 -->
<g id="edge2" class="edge"><title>Node0&#45;&gt;Node2</title>
<path fill="none" stroke="midnightblue" d="M107.899,-355.782C123.161,-352.267 140.086,-348.369 156.11,-344.679"/>
<polygon fill="midnightblue" stroke="midnightblue" points="107.096,-352.375 98.1365,-358.03 108.667,-359.197 107.096,-352.375"/>
</g>
<!-- Node3 -->
<g id="node4" class="node"><title>Node3</title>
<g id="a_node4"><a xlink:href="class_system_1_1_threading_1_1_tasks_1_1_task.html" target="_top" xlink:title=" ">
<polygon fill="none" stroke="black" points="448.5,-380.619 448.5,-410.619 597.5,-410.619 597.5,-380.619 448.5,-380.619"/>
<text text-anchor="start" x="456.5" y="-398.619" font-family="Helvetica,sans-Serif" font-size="10.00">System.Threading.Tasks.Task</text>
<text text-anchor="middle" x="523" y="-387.619" font-family="Helvetica,sans-Serif" font-size="10.00">&lt; Task&lt; T &gt;[]&gt;</text>
</a>
</g>
</g>
<!-- Node0&#45;&gt;Node3 -->
<g id="edge20" class="edge"><title>Node0&#45;&gt;Node3</title>
<path fill="none" stroke="midnightblue" d="M85.0827,-381.31C146.699,-408.994 296.386,-466.392 419,-434.619 427.859,-432.324 428.636,-428.334 437,-424.619 448.4,-419.557 460.976,-414.826 472.879,-410.714"/>
<polygon fill="midnightblue" stroke="midnightblue" points="86.5171,-378.118 75.9674,-377.141 83.6051,-384.483 86.5171,-378.118"/>
</g>
<!-- Node4 -->
<g id="node5" class="node"><title>Node4</title>
<g id="a_node5"><a xlink:href="class_system_1_1_threading_1_1_tasks_1_1_task.html" target="_top" xlink:title=" ">
<polygon fill="none" stroke="black" points="448.5,-554.119 448.5,-595.119 597.5,-595.119 597.5,-554.119 448.5,-554.119"/>
<text text-anchor="start" x="456.5" y="-583.119" font-family="Helvetica,sans-Serif" font-size="10.00">System.Threading.Tasks.Task</text>
<text text-anchor="start" x="456.5" y="-572.119" font-family="Helvetica,sans-Serif" font-size="10.00">&lt; System.Tuple&lt; int, int,</text>
<text text-anchor="middle" x="523" y="-561.119" font-family="Helvetica,sans-Serif" font-size="10.00"> int, bool &gt; &gt;</text>
</a>
</g>
</g>
<!-- Node0&#45;&gt;Node4 -->
<g id="edge15" class="edge"><title>Node0&#45;&gt;Node4</title>
<path fill="none" stroke="midnightblue" d="M61.8198,-387.012C72.342,-421.702 99.1331,-494.408 148,-533.619 232.952,-601.787 365.915,-598.546 448.299,-588"/>
<polygon fill="midnightblue" stroke="midnightblue" points="65.1141,-385.805 58.9678,-377.176 58.391,-387.755 65.1141,-385.805"/>
</g>
<!-- Node5 -->
<g id="node6" class="node"><title>Node5</title>
<g id="a_node6"><a xlink:href="class_system_1_1_threading_1_1_tasks_1_1_task.html" target="_top" xlink:title=" ">
<polygon fill="none" stroke="black" points="448.5,-485.619 448.5,-515.619 597.5,-515.619 597.5,-485.619 448.5,-485.619"/>
<text text-anchor="start" x="456.5" y="-503.619" font-family="Helvetica,sans-Serif" font-size="10.00">System.Threading.Tasks.Task</text>
<text text-anchor="middle" x="523" y="-492.619" font-family="Helvetica,sans-Serif" font-size="10.00">&lt; int &gt;</text>
</a>
</g>
</g>
<!-- Node0&#45;&gt;Node5 -->
<g id="edge14" class="edge"><title>Node0&#45;&gt;Node5</title>
<path fill="none" stroke="midnightblue" d="M68.0003,-385.794C83.7393,-409.54 113.949,-451.303 148,-478.619 212.962,-530.735 234.014,-544.195 315,-563.619 359.947,-574.4 376.539,-581.883 419,-563.619 429.686,-559.023 427.705,-551.613 437,-544.619 452.137,-533.23 470.648,-523.259 486.527,-515.702"/>
<polygon fill="midnightblue" stroke="midnightblue" points="70.9068,-383.843 62.5224,-377.366 65.0376,-387.658 70.9068,-383.843"/>
</g>
<!-- Node6 -->
<g id="node7" class="node"><title>Node6</title>
<g id="a_node7"><a xlink:href="class_system_1_1_threading_1_1_tasks_1_1_task.html" target="_top" xlink:title=" ">
<polygon fill="none" stroke="black" points="437,-331.119 437,-350.119 609,-350.119 609,-331.119 437,-331.119"/>
<text text-anchor="middle" x="523" y="-338.119" font-family="Helvetica,sans-Serif" font-size="10.00">System.Threading.Tasks.Task&lt; T &gt;</text>
</a>
</g>
</g>
<!-- Node0&#45;&gt;Node6 -->
<g id="edge16" class="edge"><title>Node0&#45;&gt;Node6</title>
<path fill="none" stroke="midnightblue" d="M121.254,-376.216C194.17,-384.241 315.937,-392.652 419,-375.619 426.71,-374.345 467.499,-360.091 495.375,-350.171"/>
<polygon fill="midnightblue" stroke="midnightblue" points="121.626,-372.736 111.296,-375.089 120.839,-379.692 121.626,-372.736"/>
</g>
<!-- Node7 -->
<g id="node8" class="node"><title>Node7</title>
<g id="a_node8"><a xlink:href="class_system_1_1_threading_1_1_tasks_1_1_task.html" target="_top" xlink:title=" ">
<polygon fill="none" stroke="black" points="448.5,-434.619 448.5,-464.619 597.5,-464.619 597.5,-434.619 448.5,-434.619"/>
<text text-anchor="start" x="456.5" y="-452.619" font-family="Helvetica,sans-Serif" font-size="10.00">System.Threading.Tasks.Task</text>
<text text-anchor="middle" x="523" y="-441.619" font-family="Helvetica,sans-Serif" font-size="10.00">&lt; VoidTaskResult &gt;</text>
</a>
</g>
</g>
<!-- Node0&#45;&gt;Node7 -->
<g id="edge22" class="edge"><title>Node0&#45;&gt;Node7</title>
<path fill="none" stroke="midnightblue" d="M74.0892,-384.269C91.6289,-400.111 119.933,-423.684 148,-438.619 216.985,-475.329 237.843,-481.241 315,-493.619 360.639,-500.941 376.296,-511.308 419,-493.619 429.453,-489.29 427.303,-481.447 437,-475.619 444.01,-471.407 451.761,-467.824 459.646,-464.79"/>
<polygon fill="midnightblue" stroke="midnightblue" points="76.12,-381.381 66.3917,-377.185 71.3797,-386.532 76.12,-381.381"/>
</g>
<!-- Node8 -->
<g id="node9" class="node"><title>Node8</title>
<g id="a_node9"><a xlink:href="class_system_1_1_threading_1_1_tasks_1_1_task.html" target="_top" xlink:title=" ">
<polygon fill="none" stroke="black" points="448.5,-33.6194 448.5,-63.6194 597.5,-63.6194 597.5,-33.6194 448.5,-33.6194"/>
<text text-anchor="start" x="456.5" y="-51.6194" font-family="Helvetica,sans-Serif" font-size="10.00">System.Threading.Tasks.Task</text>
<text text-anchor="middle" x="523" y="-40.6194" font-family="Helvetica,sans-Serif" font-size="10.00">&lt; Task &gt;</text>
</a>
</g>
</g>
<!-- Node0&#45;&gt;Node8 -->
<g id="edge19" class="edge"><title>Node0&#45;&gt;Node8</title>
<path fill="none" stroke="midnightblue" d="M58.9794,-347.922C67.5217,-283.566 97.9846,-81.4664 148,-43.6194 247.162,31.4172 407.249,-8.60586 481.623,-33.5371"/>
<polygon fill="midnightblue" stroke="midnightblue" points="55.493,-347.591 57.6783,-357.958 62.4349,-348.491 55.493,-347.591"/>
</g>
<!-- Node9 -->
<g id="node10" class="node"><title>Node9</title>
<g id="a_node10"><a xlink:href="class_system_1_1_threading_1_1_tasks_1_1_task.html" target="_top" xlink:title=" ">
<polygon fill="none" stroke="black" points="448.5,-246.619 448.5,-276.619 597.5,-276.619 597.5,-246.619 448.5,-246.619"/>
<text text-anchor="start" x="456.5" y="-264.619" font-family="Helvetica,sans-Serif" font-size="10.00">System.Threading.Tasks.Task</text>
<text text-anchor="middle" x="523" y="-253.619" font-family="Helvetica,sans-Serif" font-size="10.00">&lt; bool &gt;</text>
</a>
</g>
</g>
<!-- Node0&#45;&gt;Node9 -->
<g id="edge13" class="edge"><title>Node0&#45;&gt;Node9</title>
<path fill="none" stroke="midnightblue" d="M76.3119,-351.83C94.2578,-338.063 121.821,-318.223 148,-304.619 218.253,-268.113 237.075,-256.618 315,-242.619 361.709,-234.229 415.05,-239.471 455.886,-246.555"/>
<polygon fill="midnightblue" stroke="midnightblue" points="74.0657,-349.143 68.3228,-358.046 78.3645,-354.668 74.0657,-349.143"/>
</g>
<!-- Node10 -->
<g id="node11" class="node"><title>Node10</title>
<g id="a_node11"><a xlink:href="class_system_1_1_threading_1_1_tasks_1_1_task.html" target="_top" xlink:title=" ">
<polygon fill="none" stroke="black" points="448.5,-91.6194 448.5,-121.619 597.5,-121.619 597.5,-91.6194 448.5,-91.6194"/>
<text text-anchor="start" x="456.5" y="-109.619" font-family="Helvetica,sans-Serif" font-size="10.00">System.Threading.Tasks.Task</text>
<text text-anchor="middle" x="523" y="-98.6194" font-family="Helvetica,sans-Serif" font-size="10.00">&lt; TAntecedentResult &gt;</text>
</a>
</g>
</g>
<!-- Node0&#45;&gt;Node10 -->
<g id="edge18" class="edge"><title>Node0&#45;&gt;Node10</title>
<path fill="none" stroke="midnightblue" d="M57.4776,-347.902C60.9629,-299.719 76.7683,-175.159 148,-109.619 237.796,-26.9998 299.161,-42.6446 419,-65.6194 419.889,-65.7899 455.331,-79.9302 484.392,-91.5559"/>
<polygon fill="midnightblue" stroke="midnightblue" points="53.9804,-347.751 56.8547,-357.948 60.967,-348.184 53.9804,-347.751"/>
</g>
<!-- Node11 -->
<g id="node12" class="node"><title>Node11</title>
<g id="a_node12"><a xlink:href="class_system_1_1_threading_1_1_tasks_1_1_task.html" target="_top" xlink:title=" ">
<polygon fill="none" stroke="black" points="448.5,-145.619 448.5,-175.619 597.5,-175.619 597.5,-145.619 448.5,-145.619"/>
<text text-anchor="start" x="456.5" y="-163.619" font-family="Helvetica,sans-Serif" font-size="10.00">System.Threading.Tasks.Task</text>
<text text-anchor="middle" x="523" y="-152.619" font-family="Helvetica,sans-Serif" font-size="10.00">&lt; Task[]&gt;</text>
</a>
</g>
</g>
<!-- Node0&#45;&gt;Node11 -->
<g id="edge21" class="edge"><title>Node0&#45;&gt;Node11</title>
<path fill="none" stroke="midnightblue" d="M61.024,-347.983C70.607,-310.687 96.4292,-229.26 148,-183.619 240.308,-101.927 297.472,-103.993 419,-124.619 420.646,-124.899 451.725,-135.791 479.315,-145.521"/>
<polygon fill="midnightblue" stroke="midnightblue" points="57.5373,-347.507 58.5608,-358.052 64.3368,-349.17 57.5373,-347.507"/>
</g>
<!-- Node12 -->
<g id="node13" class="node"><title>Node12</title>
<g id="a_node13"><a xlink:href="class_system_1_1_threading_1_1_tasks_1_1_task.html" target="_top" xlink:title=" ">
<polygon fill="none" stroke="black" points="448.5,-196.619 448.5,-226.619 597.5,-226.619 597.5,-196.619 448.5,-196.619"/>
<text text-anchor="start" x="456.5" y="-214.619" font-family="Helvetica,sans-Serif" font-size="10.00">System.Threading.Tasks.Task</text>
<text text-anchor="middle" x="523" y="-203.619" font-family="Helvetica,sans-Serif" font-size="10.00">&lt; T[]&gt;</text>
</a>
</g>
</g>
<!-- Node0&#45;&gt;Node12 -->
<g id="edge17" class="edge"><title>Node0&#45;&gt;Node12</title>
<path fill="none" stroke="midnightblue" d="M65.6317,-348.748C79.6951,-321.568 109.149,-271.501 148,-242.619 211.174,-195.656 237.414,-196.922 315,-183.619 360.557,-175.808 373.184,-177.503 419,-183.619 438.286,-186.194 459.079,-191.367 476.899,-196.574"/>
<polygon fill="midnightblue" stroke="midnightblue" points="62.3691,-347.446 61.0078,-357.953 68.6243,-350.588 62.3691,-347.446"/>
</g>
<!-- Node2&#45;&gt;Node3 -->
<g id="edge3" class="edge"><title>Node2&#45;&gt;Node3</title>
<path fill="none" stroke="orange" stroke-dasharray="5,2" d="M301.5,-346.866C348.792,-357.322 408.553,-370.536 453.927,-380.568"/>
<polygon fill="orange" stroke="orange" points="302.128,-343.42 291.608,-344.678 300.616,-350.255 302.128,-343.42"/>
<text text-anchor="middle" x="367" y="-375.619" font-family="Helvetica,sans-Serif" font-size="10.00"> &lt; Task&lt; T &gt;[]&gt;</text>
</g>
<!-- Node2&#45;&gt;Node4 -->
<g id="edge4" class="edge"><title>Node2&#45;&gt;Node4</title>
<path fill="none" stroke="orange" stroke-dasharray="5,2" d="M230.918,-354.768C242.878,-391.158 269.771,-458.42 315,-497.619 352.668,-530.266 405.459,-549.612 448.301,-560.747"/>
<polygon fill="orange" stroke="orange" points="234.165,-353.427 227.81,-344.95 227.491,-355.54 234.165,-353.427"/>
<text text-anchor="start" x="318" y="-564.619" font-family="Helvetica,sans-Serif" font-size="10.00"> &lt; System::Tuple&lt; int,</text>
<text text-anchor="middle" x="367" y="-553.619" font-family="Helvetica,sans-Serif" font-size="10.00"> int, int, bool &gt; &gt;</text>
</g>
<!-- Node2&#45;&gt;Node5 -->
<g id="edge5" class="edge"><title>Node2&#45;&gt;Node5</title>
<path fill="none" stroke="orange" stroke-dasharray="5,2" d="M237.585,-353.49C253.404,-378.278 281.319,-416.469 315,-438.619 354.964,-464.902 406.466,-480.383 448.101,-489.304"/>
<polygon fill="orange" stroke="orange" points="240.379,-351.355 232.128,-344.708 234.433,-355.049 240.379,-351.355"/>
<text text-anchor="middle" x="367" y="-485.619" font-family="Helvetica,sans-Serif" font-size="10.00"> &lt; int &gt;</text>
</g>
<!-- Node2&#45;&gt;Node6 -->
<g id="edge6" class="edge"><title>Node2&#45;&gt;Node6</title>
<path fill="none" stroke="orange" stroke-dasharray="5,2" d="M307.407,-328.364C341.986,-328.284 382.44,-328.755 419,-330.619 424.831,-330.917 430.842,-331.3 436.893,-331.742"/>
<polygon fill="orange" stroke="orange" points="307.335,-324.864 297.348,-328.402 307.362,-331.864 307.335,-324.864"/>
<text text-anchor="middle" x="367" y="-333.619" font-family="Helvetica,sans-Serif" font-size="10.00"> &lt; T &gt;</text>
</g>
<!-- Node2&#45;&gt;Node7 -->
<g id="edge7" class="edge"><title>Node2&#45;&gt;Node7</title>
<path fill="none" stroke="orange" stroke-dasharray="5,2" d="M252.239,-350.722C269.708,-362.801 292.851,-377.515 315,-387.619 360.053,-408.172 413.68,-424.014 455.061,-434.538"/>
<polygon fill="orange" stroke="orange" points="253.849,-347.575 243.656,-344.684 249.821,-353.301 253.849,-347.575"/>
<text text-anchor="middle" x="367" y="-426.619" font-family="Helvetica,sans-Serif" font-size="10.00"> &lt; VoidTaskResult &gt;</text>
</g>
<!-- Node2&#45;&gt;Node8 -->
<g id="edge8" class="edge"><title>Node2&#45;&gt;Node8</title>
<path fill="none" stroke="orange" stroke-dasharray="5,2" d="M226.525,-304.394C233.449,-258.013 254.789,-159.055 315,-105.619 351.522,-73.2072 404.87,-59.0411 448.261,-52.9346"/>
<polygon fill="orange" stroke="orange" points="223.033,-304.099 225.125,-314.485 229.966,-305.061 223.033,-304.099"/>
<text text-anchor="middle" x="367" y="-108.619" font-family="Helvetica,sans-Serif" font-size="10.00"> &lt; Task &gt;</text>
</g>
<!-- Node2&#45;&gt;Node9 -->
<g id="edge9" class="edge"><title>Node2&#45;&gt;Node9</title>
<path fill="none" stroke="orange" stroke-dasharray="5,2" d="M299.169,-312.382C347.545,-301.361 409.674,-287.208 456.034,-276.647"/>
<polygon fill="orange" stroke="orange" points="298.349,-308.979 289.377,-314.612 299.904,-315.804 298.349,-308.979"/>
<text text-anchor="middle" x="367" y="-311.619" font-family="Helvetica,sans-Serif" font-size="10.00"> &lt; bool &gt;</text>
</g>
<!-- Node2&#45;&gt;Node10 -->
<g id="edge10" class="edge"><title>Node2&#45;&gt;Node10</title>
<path fill="none" stroke="orange" stroke-dasharray="5,2" d="M230.633,-304.421C242.237,-268.056 268.689,-201.222 315,-164.619 352.918,-134.651 405.444,-120.16 448.095,-113.157"/>
<polygon fill="orange" stroke="orange" points="227.208,-303.655 227.627,-314.241 233.901,-305.704 227.208,-303.655"/>
<text text-anchor="middle" x="367" y="-167.619" font-family="Helvetica,sans-Serif" font-size="10.00"> &lt; TAntecedentResult &gt;</text>
</g>
<!-- Node2&#45;&gt;Node11 -->
<g id="edge11" class="edge"><title>Node2&#45;&gt;Node11</title>
<path fill="none" stroke="orange" stroke-dasharray="5,2" d="M237.877,-305.539C253.767,-280.948 281.584,-243.381 315,-221.619 355.028,-195.551 406.531,-180.318 448.15,-171.594"/>
<polygon fill="orange" stroke="orange" points="234.748,-303.941 232.385,-314.269 240.673,-307.669 234.748,-303.941"/>
<text text-anchor="middle" x="367" y="-224.619" font-family="Helvetica,sans-Serif" font-size="10.00"> &lt; Task[]&gt;</text>
</g>
<!-- Node2&#45;&gt;Node12 -->
<g id="edge12" class="edge"><title>Node2&#45;&gt;Node12</title>
<path fill="none" stroke="orange" stroke-dasharray="5,2" d="M251.794,-308.259C269.267,-295.878 292.566,-280.778 315,-270.619 358.062,-251.12 409.111,-236.485 449.739,-226.669"/>
<polygon fill="orange" stroke="orange" points="249.283,-305.755 243.223,-314.445 253.38,-311.431 249.283,-305.755"/>
<text text-anchor="middle" x="367" y="-273.619" font-family="Helvetica,sans-Serif" font-size="10.00"> &lt; T[]&gt;</text>
</g>
</g>
</svg>
        <g id="navigator" transform="translate(0 0)" fill="#404254">
                <rect fill="#f2f5e9" fill-opacity="0.5" stroke="#606060" stroke-width=".5" x="0" y="0" width="60" height="60"/>
                <use id="zoomplus" xlink:href="#zoomPlus" x="17" y="9" onmousedown="handleZoom(evt,'in')"/>
                <use id="zoomminus" xlink:href="#zoomMin" x="42" y="9" onmousedown="handleZoom(evt,'out')"/>
                <use id="reset" xlink:href="#resetDef" x="30" y="36" onmousedown="handleReset()"/>
                <g id="arrowUp" xlink:href="#dirArrow" transform="translate(30 24)" onmousedown="handlePan(0,-1)">
                  <use xlink:href="#rim" fill="#404040">
                        <set attributeName="fill" to="#808080" begin="arrowUp.mouseover" end="arrowUp.mouseout"/>
                  </use>
                  <path fill="none" stroke="white" stroke-width="1.5" d="M0,-3.0v7 M-2.5,-0.5L0,-3.0L2.5,-0.5"/>
                </g>
                <g id="arrowRight" xlink:href="#dirArrow" transform="rotate(90) translate(36 -43)" onmousedown="handlePan(1,0)">
                  <use xlink:href="#rim" fill="#404040">
                        <set attributeName="fill" to="#808080" begin="arrowRight.mouseover" end="arrowRight.mouseout"/>
                  </use>
                  <path fill="none" stroke="white" stroke-width="1.5" d="M0,-3.0v7 M-2.5,-0.5L0,-3.0L2.5,-0.5"/>
                </g>
                <g id="arrowDown" xlink:href="#dirArrow" transform="rotate(180) translate(-30 -48)" onmousedown="handlePan(0,1)">
                  <use xlink:href="#rim" fill="#404040">
                        <set attributeName="fill" to="#808080" begin="arrowDown.mouseover" end="arrowDown.mouseout"/>
                  </use>
                  <path fill="none" stroke="white" stroke-width="1.5" d="M0,-3.0v7 M-2.5,-0.5L0,-3.0L2.5,-0.5"/>
                </g>
                <g id="arrowLeft" xlink:href="#dirArrow" transform="rotate(270) translate(-36 17)" onmousedown="handlePan(-1,0)">
                  <use xlink:href="#rim" fill="#404040">
                        <set attributeName="fill" to="#808080" begin="arrowLeft.mouseover" end="arrowLeft.mouseout"/>
                  </use>
                  <path fill="none" stroke="white" stroke-width="1.5" d="M0,-3.0v7 M-2.5,-0.5L0,-3.0L2.5,-0.5"/>
                </g>
        </g>
        <svg viewBox="0 0 15 15" width="100%" height="30px" preserveAspectRatio="xMaxYMin meet">
         <g id="arrow_out" transform="scale(0.3 0.3)">
          <a xlink:href="interface_system_1_1_i_async_result__inherit__graph_org.svg" target="_base">
           <rect id="button" ry="5" rx="5" y="6" x="6" height="38" width="38"
                fill="#f2f5e9" fill-opacity="0.5" stroke="#606060" stroke-width="1.0"/>
           <path id="arrow"
             d="M 11.500037,31.436501 C 11.940474,20.09759 22.043105,11.32322 32.158766,21.979434 L 37.068811,17.246167 C 37.068811,17.246167 37.088388,32 37.088388,32 L 22.160133,31.978069 C 22.160133,31.978069 26.997745,27.140456 26.997745,27.140456 C 18.528582,18.264221 13.291696,25.230495 11.500037,31.436501 z"
             style="fill:#404040;"/>
          </a>
         </g>
        </svg>
</svg>
