<?xml version="1.0" encoding="UTF-8" standalone="no"?>
<!DOCTYPE svg PUBLIC "-//W3C//DTD SVG 1.1//EN"
 "http://www.w3.org/Graphics/SVG/1.1/DTD/svg11.dtd">
<!-- Generated by graphviz version 2.38.0 (20140413.2041)
 -->
<!-- Title: System.Xml.IXmlLineInfo Pages: 1 -->
<svg width="294pt" height="95pt"
 viewBox="0.00 0.00 294.00 95.00" xmlns="http://www.w3.org/2000/svg" xmlns:xlink="http://www.w3.org/1999/xlink">
<g id="graph0" class="graph" transform="scale(1 1) rotate(0) translate(4 91)">
<title>System.Xml.IXmlLineInfo</title>
<!-- Node0 -->
<g id="node1" class="node"><title>Node0</title>
<g id="a_node1"><a xlink:title="Provides an interface to enable a class to return line and position information.">
<polygon fill="#bfbfbf" stroke="black" points="83,-67.5 83,-86.5 206,-86.5 206,-67.5 83,-67.5"/>
<text text-anchor="middle" x="144.5" y="-74.5" font-family="Helvetica,sans-Serif" font-size="10.00">System.Xml.IXmlLineInfo</text>
</a>
</g>
</g>
<!-- Node1 -->
<g id="node2" class="node"><title>Node1</title>
<g id="a_node2"><a xlink:href="class_system_1_1_xml_1_1_xml_text_reader.html" target="_top" xlink:title="Represents a reader that provides fast, non&#45;cached, forward&#45;only access to XML data....">
<polygon fill="none" stroke="black" points="0,-6 0,-25 137,-25 137,-6 0,-6"/>
<text text-anchor="middle" x="68.5" y="-13" font-family="Helvetica,sans-Serif" font-size="10.00">System.Xml.XmlTextReader</text>
</a>
</g>
</g>
<!-- Node0&#45;&gt;Node1 -->
<g id="edge1" class="edge"><title>Node0&#45;&gt;Node1</title>
<path fill="none" stroke="midnightblue" d="M125.716,-61.2938C111.137,-49.8803 91.4375,-34.4577 79.3687,-25.0091"/>
<polygon fill="midnightblue" stroke="midnightblue" points="123.579,-64.0665 133.611,-67.4751 127.895,-58.5547 123.579,-64.0665"/>
</g>
<!-- Node2 -->
<g id="node3" class="node"><title>Node2</title>
<g id="a_node3"><a xlink:href="class_system_1_1_xml_1_1_xml_validating_reader.html" target="_top" xlink:title="Represents a reader that provides document type definition (DTD), XML&#45;Data Reduced (XDR) schema,...">
<polygon fill="none" stroke="black" points="155,-0.5 155,-30.5 286,-30.5 286,-0.5 155,-0.5"/>
<text text-anchor="start" x="163" y="-18.5" font-family="Helvetica,sans-Serif" font-size="10.00">System.Xml.XmlValidating</text>
<text text-anchor="middle" x="220.5" y="-7.5" font-family="Helvetica,sans-Serif" font-size="10.00">Reader</text>
</a>
</g>
</g>
<!-- Node0&#45;&gt;Node2 -->
<g id="edge2" class="edge"><title>Node0&#45;&gt;Node2</title>
<path fill="none" stroke="midnightblue" d="M163.41,-61.1955C175.394,-51.8129 190.801,-39.7512 202.588,-30.523"/>
<polygon fill="midnightblue" stroke="midnightblue" points="161.105,-58.5547 155.389,-67.4751 165.421,-64.0665 161.105,-58.5547"/>
</g>
</g>
</svg>
