<?xml version="1.0" encoding="UTF-8" standalone="no"?>
<!DOCTYPE svg PUBLIC "-//W3C//DTD SVG 1.1//EN"
 "http://www.w3.org/Graphics/SVG/1.1/DTD/svg11.dtd">
<!-- Generated by graphviz version 2.38.0 (20140413.2041)
 -->
<!-- Title: System.Security.Policy.IConstantMembershipCondition Pages: 1 -->
<svg width="378pt" height="382pt"
 viewBox="0.00 0.00 378.00 382.00" xmlns="http://www.w3.org/2000/svg" xmlns:xlink="http://www.w3.org/1999/xlink">
<g id="graph0" class="graph" transform="scale(1 1) rotate(0) translate(4 378)">
<title>System.Security.Policy.IConstantMembershipCondition</title>
<!-- Node0 -->
<g id="node1" class="node"><title>Node0</title>
<g id="a_node1"><a xlink:title=" ">
<polygon fill="#bfbfbf" stroke="black" points="0,-171.5 0,-201.5 164,-201.5 164,-171.5 0,-171.5"/>
<text text-anchor="start" x="8" y="-189.5" font-family="Helvetica,sans-Serif" font-size="10.00">System.Security.Policy.IConstant</text>
<text text-anchor="middle" x="82" y="-178.5" font-family="Helvetica,sans-Serif" font-size="10.00">MembershipCondition</text>
</a>
</g>
</g>
<!-- Node1 -->
<g id="node2" class="node"><title>Node1</title>
<g id="a_node2"><a xlink:href="class_system_1_1_security_1_1_policy_1_1_all_membership_condition.html" target="_top" xlink:title="Represents a membership condition that matches all code. This class cannot be inherited.">
<polygon fill="none" stroke="black" points="218,-343.5 218,-373.5 352,-373.5 352,-343.5 218,-343.5"/>
<text text-anchor="start" x="226" y="-361.5" font-family="Helvetica,sans-Serif" font-size="10.00">System.Security.Policy.All</text>
<text text-anchor="middle" x="285" y="-350.5" font-family="Helvetica,sans-Serif" font-size="10.00">MembershipCondition</text>
</a>
</g>
</g>
<!-- Node0&#45;&gt;Node1 -->
<g id="edge1" class="edge"><title>Node0&#45;&gt;Node1</title>
<path fill="none" stroke="midnightblue" d="M95.6366,-210.6C114.135,-243.523 151.699,-302.154 200,-334.5 205.545,-338.213 211.665,-341.359 217.999,-344.023"/>
<polygon fill="midnightblue" stroke="midnightblue" points="98.6044,-208.733 90.7238,-201.651 92.4684,-212.102 98.6044,-208.733"/>
</g>
<!-- Node2 -->
<g id="node3" class="node"><title>Node2</title>
<g id="a_node3"><a xlink:href="class_system_1_1_security_1_1_policy_1_1_application_directory_membership_condition.html" target="_top" xlink:title="Determines whether an assembly belongs to a code group by testing its application directory....">
<polygon fill="none" stroke="black" points="200,-294.5 200,-324.5 370,-324.5 370,-294.5 200,-294.5"/>
<text text-anchor="start" x="208" y="-312.5" font-family="Helvetica,sans-Serif" font-size="10.00">System.Security.Policy.Application</text>
<text text-anchor="middle" x="285" y="-301.5" font-family="Helvetica,sans-Serif" font-size="10.00">DirectoryMembershipCondition</text>
</a>
</g>
</g>
<!-- Node0&#45;&gt;Node2 -->
<g id="edge2" class="edge"><title>Node0&#45;&gt;Node2</title>
<path fill="none" stroke="midnightblue" d="M103.758,-208.941C125.667,-231.365 162.203,-265.326 200,-285.5 206.289,-288.857 213.1,-291.79 220.029,-294.342"/>
<polygon fill="midnightblue" stroke="midnightblue" points="106.093,-206.319 96.6408,-201.532 101.045,-211.169 106.093,-206.319"/>
</g>
<!-- Node3 -->
<g id="node4" class="node"><title>Node3</title>
<g id="a_node4"><a xlink:href="class_system_1_1_security_1_1_policy_1_1_gac_membership_condition.html" target="_top" xlink:title="Determines whether an assembly belongs to a code group by testing its global assembly cache membershi...">
<polygon fill="none" stroke="black" points="215,-245.5 215,-275.5 355,-275.5 355,-245.5 215,-245.5"/>
<text text-anchor="start" x="223" y="-263.5" font-family="Helvetica,sans-Serif" font-size="10.00">System.Security.Policy.Gac</text>
<text text-anchor="middle" x="285" y="-252.5" font-family="Helvetica,sans-Serif" font-size="10.00">MembershipCondition</text>
</a>
</g>
</g>
<!-- Node0&#45;&gt;Node3 -->
<g id="edge3" class="edge"><title>Node0&#45;&gt;Node3</title>
<path fill="none" stroke="midnightblue" d="M124.761,-205.858C146.862,-215.716 174.613,-227.489 200,-236.5 208.862,-239.646 218.358,-242.675 227.662,-245.46"/>
<polygon fill="midnightblue" stroke="midnightblue" points="125.901,-202.534 115.346,-201.623 123.029,-208.917 125.901,-202.534"/>
</g>
<!-- Node4 -->
<g id="node5" class="node"><title>Node4</title>
<g id="a_node5"><a xlink:href="class_system_1_1_security_1_1_policy_1_1_publisher_membership_condition.html" target="_top" xlink:title="Determines whether an assembly belongs to a code group by testing its software publisher&#39;s Authentico...">
<polygon fill="none" stroke="black" points="203.5,-196.5 203.5,-226.5 366.5,-226.5 366.5,-196.5 203.5,-196.5"/>
<text text-anchor="start" x="211.5" y="-214.5" font-family="Helvetica,sans-Serif" font-size="10.00">System.Security.Policy.Publisher</text>
<text text-anchor="middle" x="285" y="-203.5" font-family="Helvetica,sans-Serif" font-size="10.00">MembershipCondition</text>
</a>
</g>
</g>
<!-- Node0&#45;&gt;Node4 -->
<g id="edge4" class="edge"><title>Node0&#45;&gt;Node4</title>
<path fill="none" stroke="midnightblue" d="M174.191,-197.842C183.857,-199.044 193.639,-200.261 203.175,-201.447"/>
<polygon fill="midnightblue" stroke="midnightblue" points="174.531,-194.358 164.175,-196.596 173.667,-201.304 174.531,-194.358"/>
</g>
<!-- Node5 -->
<g id="node6" class="node"><title>Node5</title>
<g id="a_node6"><a xlink:href="class_system_1_1_security_1_1_policy_1_1_site_membership_condition.html" target="_top" xlink:title="Determines whether an assembly belongs to a code group by testing the site from which it originated....">
<polygon fill="none" stroke="black" points="215,-147.5 215,-177.5 355,-177.5 355,-147.5 215,-147.5"/>
<text text-anchor="start" x="223" y="-165.5" font-family="Helvetica,sans-Serif" font-size="10.00">System.Security.Policy.Site</text>
<text text-anchor="middle" x="285" y="-154.5" font-family="Helvetica,sans-Serif" font-size="10.00">MembershipCondition</text>
</a>
</g>
</g>
<!-- Node0&#45;&gt;Node5 -->
<g id="edge5" class="edge"><title>Node0&#45;&gt;Node5</title>
<path fill="none" stroke="midnightblue" d="M174.476,-175.578C188.024,-173.96 201.792,-172.316 214.785,-170.764"/>
<polygon fill="midnightblue" stroke="midnightblue" points="173.689,-172.146 164.175,-176.807 174.519,-179.097 173.689,-172.146"/>
</g>
<!-- Node6 -->
<g id="node7" class="node"><title>Node6</title>
<g id="a_node7"><a xlink:href="class_system_1_1_security_1_1_policy_1_1_strong_name_membership_condition.html" target="_top" xlink:title="Determines whether an assembly belongs to a code group by testing its strong name....">
<polygon fill="none" stroke="black" points="209.5,-98.5 209.5,-128.5 360.5,-128.5 360.5,-98.5 209.5,-98.5"/>
<text text-anchor="start" x="217.5" y="-116.5" font-family="Helvetica,sans-Serif" font-size="10.00">System.Security.Policy.Strong</text>
<text text-anchor="middle" x="285" y="-105.5" font-family="Helvetica,sans-Serif" font-size="10.00">NameMembershipCondition</text>
</a>
</g>
</g>
<!-- Node0&#45;&gt;Node6 -->
<g id="edge6" class="edge"><title>Node0&#45;&gt;Node6</title>
<path fill="none" stroke="midnightblue" d="M126.545,-167.422C148.392,-158.161 175.382,-147.189 200,-138.5 209.757,-135.056 220.257,-131.678 230.417,-128.574"/>
<polygon fill="midnightblue" stroke="midnightblue" points="125.03,-164.262 117.207,-171.407 127.779,-170.7 125.03,-164.262"/>
</g>
<!-- Node7 -->
<g id="node8" class="node"><title>Node7</title>
<g id="a_node8"><a xlink:href="class_system_1_1_security_1_1_policy_1_1_url_membership_condition.html" target="_top" xlink:title="Determines whether an assembly belongs to a code group by testing its URL. This class cannot be inher...">
<polygon fill="none" stroke="black" points="218,-49.5 218,-79.5 352,-79.5 352,-49.5 218,-49.5"/>
<text text-anchor="start" x="226" y="-67.5" font-family="Helvetica,sans-Serif" font-size="10.00">System.Security.Policy.Url</text>
<text text-anchor="middle" x="285" y="-56.5" font-family="Helvetica,sans-Serif" font-size="10.00">MembershipCondition</text>
</a>
</g>
</g>
<!-- Node0&#45;&gt;Node7 -->
<g id="edge7" class="edge"><title>Node0&#45;&gt;Node7</title>
<path fill="none" stroke="midnightblue" d="M104.261,-164.252C126.316,-142.362 162.737,-109.411 200,-89.5 207.113,-85.6995 214.88,-82.4011 222.727,-79.5598"/>
<polygon fill="midnightblue" stroke="midnightblue" points="101.637,-161.928 97.0815,-171.494 106.608,-166.856 101.637,-161.928"/>
</g>
<!-- Node8 -->
<g id="node9" class="node"><title>Node8</title>
<g id="a_node9"><a xlink:href="class_system_1_1_security_1_1_policy_1_1_zone_membership_condition.html" target="_top" xlink:title="Determines whether an assembly belongs to a code group by testing its zone of origin....">
<polygon fill="none" stroke="black" points="213.5,-0.5 213.5,-30.5 356.5,-30.5 356.5,-0.5 213.5,-0.5"/>
<text text-anchor="start" x="221.5" y="-18.5" font-family="Helvetica,sans-Serif" font-size="10.00">System.Security.Policy.Zone</text>
<text text-anchor="middle" x="285" y="-7.5" font-family="Helvetica,sans-Serif" font-size="10.00">MembershipCondition</text>
</a>
</g>
</g>
<!-- Node0&#45;&gt;Node8 -->
<g id="edge8" class="edge"><title>Node0&#45;&gt;Node8</title>
<path fill="none" stroke="midnightblue" d="M96.0579,-162.303C114.811,-129.823 152.414,-72.5162 200,-40.5 205.681,-36.6778 211.96,-33.4269 218.452,-30.6645"/>
<polygon fill="midnightblue" stroke="midnightblue" points="92.933,-160.718 91.0638,-171.147 99.0284,-164.16 92.933,-160.718"/>
</g>
</g>
</svg>
