<?xml version="1.0" encoding="UTF-8" standalone="no"?>
<!DOCTYPE svg PUBLIC "-//W3C//DTD SVG 1.1//EN"
 "http://www.w3.org/Graphics/SVG/1.1/DTD/svg11.dtd">
<!-- Generated by graphviz version 2.38.0 (20140413.2041)
 -->
<!-- Title: System.ComponentModel.Design.Serialization.IDesignerLoaderHost2 Pages: 1 -->
<svg width="200pt" height="263pt"
 viewBox="0.00 0.00 200.14 263.00" xmlns="http://www.w3.org/2000/svg" xmlns:xlink="http://www.w3.org/1999/xlink">
<g id="graph0" class="graph" transform="scale(1 1) rotate(0) translate(4 259)">
<title>System.ComponentModel.Design.Serialization.IDesignerLoaderHost2</title>
<!-- Node5 -->
<g id="node1" class="node"><title>Node5</title>
<g id="a_node1"><a xlink:title="Provides an interface that extends T:System.ComponentModel.Design.Serialization.IDesignerLoaderHost t...">
<polygon fill="#bfbfbf" stroke="black" points="23.6425,-0.5 23.6425,-30.5 191.643,-30.5 191.643,-0.5 23.6425,-0.5"/>
<text text-anchor="start" x="31.6425" y="-18.5" font-family="Helvetica,sans-Serif" font-size="10.00">System.ComponentModel.Design.</text>
<text text-anchor="middle" x="107.643" y="-7.5" font-family="Helvetica,sans-Serif" font-size="10.00">Serialization.IDesignerLoaderHost2</text>
</a>
</g>
</g>
<!-- Node6 -->
<g id="node2" class="node"><title>Node6</title>
<g id="a_node2"><a xlink:href="interface_system_1_1_component_model_1_1_design_1_1_serialization_1_1_i_designer_loader_host.html" target="_top" xlink:title="Provides an interface that can extend a designer host to support loading from a serialized state.">
<polygon fill="none" stroke="black" points="13.1425,-67.5 13.1425,-86.5 120.143,-86.5 120.143,-67.5 13.1425,-67.5"/>
<text text-anchor="middle" x="66.6425" y="-74.5" font-family="Helvetica,sans-Serif" font-size="10.00">IDesignerLoaderHost</text>
</a>
</g>
</g>
<!-- Node6&#45;&gt;Node5 -->
<g id="edge1" class="edge"><title>Node6&#45;&gt;Node5</title>
<path fill="none" stroke="midnightblue" d="M78.3821,-58.9634C84.5886,-49.9564 92.1146,-39.0344 97.9797,-30.523"/>
<polygon fill="midnightblue" stroke="midnightblue" points="75.3089,-57.2548 72.5168,-67.4751 81.073,-61.2267 75.3089,-57.2548"/>
</g>
<!-- Node7 -->
<g id="node3" class="node"><title>Node7</title>
<g id="a_node3"><a xlink:href="interface_system_1_1_component_model_1_1_design_1_1_i_designer_host.html" target="_top" xlink:title="Provides an interface for managing designer transactions and components.">
<polygon fill="none" stroke="black" points="2.14254,-123.5 2.14254,-142.5 79.1425,-142.5 79.1425,-123.5 2.14254,-123.5"/>
<text text-anchor="middle" x="40.6425" y="-130.5" font-family="Helvetica,sans-Serif" font-size="10.00">IDesignerHost</text>
</a>
</g>
</g>
<!-- Node7&#45;&gt;Node5 -->
<g id="edge8" class="edge"><title>Node7&#45;&gt;Node5</title>
<path fill="none" stroke="midnightblue" d="M22.0647,-116.783C8.152,-103.475 -6.82247,-83.7151 3.64254,-67 14.4535,-49.7324 33.0405,-38.2189 51.5379,-30.6111"/>
<polygon fill="midnightblue" stroke="midnightblue" points="19.7309,-119.392 29.5164,-123.453 24.3994,-114.176 19.7309,-119.392"/>
</g>
<!-- Node7&#45;&gt;Node6 -->
<g id="edge2" class="edge"><title>Node7&#45;&gt;Node6</title>
<path fill="none" stroke="midnightblue" d="M49.3175,-113.983C53.7307,-104.817 58.8944,-94.0922 62.4291,-86.7511"/>
<polygon fill="midnightblue" stroke="midnightblue" points="46.1206,-112.555 44.9359,-123.083 52.4276,-115.591 46.1206,-112.555"/>
</g>
<!-- Node8 -->
<g id="node4" class="node"><title>Node8</title>
<g id="a_node4"><a xlink:href="interface_system_1_1_component_model_1_1_design_1_1_i_service_container.html" target="_top" xlink:title="Provides a container for services.">
<polygon fill="none" stroke="black" points="66.6425,-179.5 66.6425,-198.5 158.643,-198.5 158.643,-179.5 66.6425,-179.5"/>
<text text-anchor="middle" x="112.643" y="-186.5" font-family="Helvetica,sans-Serif" font-size="10.00">IServiceContainer</text>
</a>
</g>
</g>
<!-- Node8&#45;&gt;Node5 -->
<g id="edge9" class="edge"><title>Node8&#45;&gt;Node5</title>
<path fill="none" stroke="midnightblue" d="M118.797,-169.641C125.93,-145.825 135.841,-103.057 128.643,-67 126.077,-54.1502 120.175,-40.4794 115.28,-30.6067"/>
<polygon fill="midnightblue" stroke="midnightblue" points="115.38,-168.838 115.695,-179.428 122.053,-170.953 115.38,-168.838"/>
</g>
<!-- Node8&#45;&gt;Node6 -->
<g id="edge6" class="edge"><title>Node8&#45;&gt;Node6</title>
<path fill="none" stroke="midnightblue" d="M105.876,-169.389C101.028,-156.317 94.2194,-138.474 87.6425,-123 82.1793,-110.146 75.221,-95.5403 70.8476,-86.5469"/>
<polygon fill="midnightblue" stroke="midnightblue" points="102.706,-170.91 109.439,-179.091 109.277,-168.497 102.706,-170.91"/>
</g>
<!-- Node8&#45;&gt;Node7 -->
<g id="edge3" class="edge"><title>Node8&#45;&gt;Node7</title>
<path fill="none" stroke="midnightblue" d="M92.7769,-173.101C79.8191,-163.382 63.3451,-151.027 52.4211,-142.834"/>
<polygon fill="midnightblue" stroke="midnightblue" points="90.9745,-176.124 101.074,-179.324 95.1745,-170.524 90.9745,-176.124"/>
</g>
<!-- Node9 -->
<g id="node5" class="node"><title>Node9</title>
<g id="a_node5"><a xlink:href="interface_system_1_1_i_service_provider.html" target="_top" xlink:title="Defines a mechanism for retrieving a service object; that is, an object that provides custom support ...">
<polygon fill="none" stroke="black" points="107.143,-235.5 107.143,-254.5 192.143,-254.5 192.143,-235.5 107.143,-235.5"/>
<text text-anchor="middle" x="149.643" y="-242.5" font-family="Helvetica,sans-Serif" font-size="10.00">IServiceProvider</text>
</a>
</g>
</g>
<!-- Node9&#45;&gt;Node5 -->
<g id="edge10" class="edge"><title>Node9&#45;&gt;Node5</title>
<path fill="none" stroke="midnightblue" d="M165.826,-227.962C172.74,-219.98 180.038,-209.749 183.643,-199 186.468,-190.572 185.125,-187.764 183.643,-179 174.853,-127.029 169.155,-113.662 144.643,-67 137.768,-53.9143 127.756,-40.4797 119.879,-30.76"/>
<polygon fill="midnightblue" stroke="midnightblue" points="163.166,-225.683 158.93,-235.395 168.297,-230.444 163.166,-225.683"/>
</g>
<!-- Node9&#45;&gt;Node6 -->
<g id="edge7" class="edge"><title>Node9&#45;&gt;Node6</title>
<path fill="none" stroke="midnightblue" d="M160.75,-226.351C167.644,-213.052 174.07,-194.517 167.643,-179 149.897,-136.158 104.184,-102.013 80.8318,-86.7197"/>
<polygon fill="midnightblue" stroke="midnightblue" points="157.522,-224.946 155.593,-235.364 163.597,-228.423 157.522,-224.946"/>
</g>
<!-- Node9&#45;&gt;Node7 -->
<g id="edge5" class="edge"><title>Node9&#45;&gt;Node7</title>
<path fill="none" stroke="midnightblue" d="M107.137,-231.973C89.5156,-224.992 70.2794,-214.441 57.6425,-199 44.0499,-182.391 41.2144,-156.078 40.6947,-142.591"/>
<polygon fill="midnightblue" stroke="midnightblue" points="106.115,-235.326 116.709,-235.492 108.531,-228.756 106.115,-235.326"/>
</g>
<!-- Node9&#45;&gt;Node8 -->
<g id="edge4" class="edge"><title>Node9&#45;&gt;Node8</title>
<path fill="none" stroke="midnightblue" d="M137.697,-226.566C131.331,-217.275 123.776,-206.248 118.639,-198.751"/>
<polygon fill="midnightblue" stroke="midnightblue" points="134.993,-228.812 143.533,-235.083 140.768,-224.855 134.993,-228.812"/>
</g>
</g>
</svg>
