<?xml version="1.0" encoding="UTF-8" standalone="no"?>
<!DOCTYPE svg PUBLIC "-//W3C//DTD SVG 1.1//EN"
 "http://www.w3.org/Graphics/SVG/1.1/DTD/svg11.dtd">
<!-- Generated by graphviz version 2.38.0 (20140413.2041)
 -->
<!-- Title: System.Collections.Generic.IReadOnlyList&lt; out out T &gt; Pages: 1 -->
<svg width="338pt" height="174pt"
 viewBox="0.00 0.00 337.50 174.00" xmlns="http://www.w3.org/2000/svg" xmlns:xlink="http://www.w3.org/1999/xlink">
<g id="graph0" class="graph" transform="scale(1 1) rotate(0) translate(4 170)">
<title>System.Collections.Generic.IReadOnlyList&lt; out out T &gt;</title>
<!-- Node0 -->
<g id="node1" class="node"><title>Node0</title>
<g id="a_node1"><a xlink:title="Represents a read&#45;only collection of elements that can be accessed by index.">
<polygon fill="#bfbfbf" stroke="black" points="122.5,-78.5 122.5,-108.5 263.5,-108.5 263.5,-78.5 122.5,-78.5"/>
<text text-anchor="start" x="130.5" y="-96.5" font-family="Helvetica,sans-Serif" font-size="10.00">System.Collections.Generic.</text>
<text text-anchor="middle" x="193" y="-85.5" font-family="Helvetica,sans-Serif" font-size="10.00">IReadOnlyList&lt; out out T &gt;</text>
</a>
</g>
</g>
<!-- Node6 -->
<g id="node5" class="node"><title>Node6</title>
<g id="a_node5"><a xlink:href="interface_system_1_1_collections_1_1_generic_1_1_i_read_only_list.html" target="_top" xlink:title=" ">
<polygon fill="none" stroke="red" points="122.5,-0.5 122.5,-30.5 263.5,-30.5 263.5,-0.5 122.5,-0.5"/>
<text text-anchor="start" x="130.5" y="-18.5" font-family="Helvetica,sans-Serif" font-size="10.00">System.Collections.Generic.</text>
<text text-anchor="middle" x="193" y="-7.5" font-family="Helvetica,sans-Serif" font-size="10.00">IReadOnlyList&lt; T &gt;</text>
</a>
</g>
</g>
<!-- Node0&#45;&gt;Node6 -->
<g id="edge4" class="edge"><title>Node0&#45;&gt;Node6</title>
<path fill="none" stroke="orange" stroke-dasharray="5,2" d="M193,-68.0898C193,-55.7565 193,-41.2237 193,-30.7309"/>
<polygon fill="orange" stroke="orange" points="189.5,-68.2049 193,-78.205 196.5,-68.205 189.5,-68.2049"/>
<text text-anchor="middle" x="206.5" y="-52" font-family="Helvetica,sans-Serif" font-size="10.00"> &lt; T &gt;</text>
</g>
<!-- Node1 -->
<g id="node2" class="node"><title>Node1</title>
<g id="a_node2"><a xlink:href="interface_system_1_1_collections_1_1_generic_1_1_i_read_only_collection.html" target="_top" xlink:title=" ">
<polygon fill="none" stroke="red" points="0,-146.5 0,-165.5 128,-165.5 128,-146.5 0,-146.5"/>
<text text-anchor="middle" x="64" y="-153.5" font-family="Helvetica,sans-Serif" font-size="10.00">IReadOnlyCollection&lt; T &gt;</text>
</a>
</g>
</g>
<!-- Node1&#45;&gt;Node0 -->
<g id="edge1" class="edge"><title>Node1&#45;&gt;Node0</title>
<path fill="none" stroke="midnightblue" d="M91.5254,-142.091C112.51,-132.249 141.378,-118.71 162.96,-108.589"/>
<polygon fill="midnightblue" stroke="midnightblue" points="89.7765,-139.045 82.2089,-146.46 92.7489,-145.383 89.7765,-139.045"/>
</g>
<!-- Node3 -->
<g id="node3" class="node"><title>Node3</title>
<g id="a_node3"><a xlink:href="interface_system_1_1_collections_1_1_generic_1_1_i_enumerable.html" target="_top" xlink:title=" ">
<polygon fill="none" stroke="red" points="146,-146.5 146,-165.5 240,-165.5 240,-146.5 146,-146.5"/>
<text text-anchor="middle" x="193" y="-153.5" font-family="Helvetica,sans-Serif" font-size="10.00">IEnumerable&lt; T &gt;</text>
</a>
</g>
</g>
<!-- Node3&#45;&gt;Node0 -->
<g id="edge2" class="edge"><title>Node3&#45;&gt;Node0</title>
<path fill="none" stroke="midnightblue" d="M193,-136.215C193,-127.356 193,-116.958 193,-108.759"/>
<polygon fill="midnightblue" stroke="midnightblue" points="189.5,-136.332 193,-146.332 196.5,-136.332 189.5,-136.332"/>
</g>
<!-- Node5 -->
<g id="node4" class="node"><title>Node5</title>
<g id="a_node4"><a xlink:href="interface_system_1_1_collections_1_1_i_enumerable.html" target="_top" xlink:title="Exposes an enumerator, which supports a simple iteration over a non&#45;generic collection....">
<polygon fill="none" stroke="red" points="258.5,-146.5 258.5,-165.5 329.5,-165.5 329.5,-146.5 258.5,-146.5"/>
<text text-anchor="middle" x="294" y="-153.5" font-family="Helvetica,sans-Serif" font-size="10.00">IEnumerable</text>
</a>
</g>
</g>
<!-- Node5&#45;&gt;Node0 -->
<g id="edge3" class="edge"><title>Node5&#45;&gt;Node0</title>
<path fill="none" stroke="midnightblue" d="M270.641,-141.007C254.355,-131.252 232.713,-118.288 216.415,-108.526"/>
<polygon fill="midnightblue" stroke="midnightblue" points="269.152,-144.196 279.529,-146.332 272.749,-138.191 269.152,-144.196"/>
</g>
</g>
</svg>
