<?xml version="1.0" encoding="UTF-8" standalone="no"?>
<!DOCTYPE svg PUBLIC "-//W3C//DTD SVG 1.1//EN"
 "http://www.w3.org/Graphics/SVG/1.1/DTD/svg11.dtd">
<!-- Generated by graphviz version 2.38.0 (20140413.2041)
 -->
<!-- Title: System.Runtime.Remoting.Messaging.ISerializationRootObject Pages: 1 -->
<svg width="531pt" height="88pt"
 viewBox="0.00 0.00 531.00 88.00" xmlns="http://www.w3.org/2000/svg" xmlns:xlink="http://www.w3.org/1999/xlink">
<g id="graph0" class="graph" transform="scale(1 1) rotate(0) translate(4 84)">
<title>System.Runtime.Remoting.Messaging.ISerializationRootObject</title>
<!-- Node0 -->
<g id="node1" class="node"><title>Node0</title>
<g id="a_node1"><a xlink:title=" ">
<polygon fill="#bfbfbf" stroke="black" points="0,-19 0,-60 143,-60 143,-19 0,-19"/>
<text text-anchor="start" x="8" y="-48" font-family="Helvetica,sans-Serif" font-size="10.00">System.Runtime.Remoting.</text>
<text text-anchor="start" x="8" y="-37" font-family="Helvetica,sans-Serif" font-size="10.00">Messaging.ISerializationRoot</text>
<text text-anchor="middle" x="71.5" y="-26" font-family="Helvetica,sans-Serif" font-size="10.00">Object</text>
</a>
</g>
</g>
<!-- Node1 -->
<g id="node2" class="node"><title>Node1</title>
<g id="a_node2"><a xlink:href="class_system_1_1_runtime_1_1_remoting_1_1_messaging_1_1_method_call.html" target="_top" xlink:title="Implements the T:System.Runtime.Remoting.Messaging.IMethodCallMessage interface to create a request m...">
<polygon fill="none" stroke="black" points="182,-49.5 182,-79.5 319,-79.5 319,-49.5 182,-49.5"/>
<text text-anchor="start" x="190" y="-67.5" font-family="Helvetica,sans-Serif" font-size="10.00">System.Runtime.Remoting.</text>
<text text-anchor="middle" x="250.5" y="-56.5" font-family="Helvetica,sans-Serif" font-size="10.00">Messaging.MethodCall</text>
</a>
</g>
</g>
<!-- Node0&#45;&gt;Node1 -->
<g id="edge1" class="edge"><title>Node0&#45;&gt;Node1</title>
<path fill="none" stroke="midnightblue" d="M153.132,-50.8887C162.706,-52.241 172.404,-53.6107 181.773,-54.934"/>
<polygon fill="midnightblue" stroke="midnightblue" points="153.609,-47.4215 143.218,-49.4884 152.63,-54.3527 153.609,-47.4215"/>
</g>
<!-- Node3 -->
<g id="node4" class="node"><title>Node3</title>
<g id="a_node4"><a xlink:href="class_system_1_1_runtime_1_1_remoting_1_1_messaging_1_1_method_response.html" target="_top" xlink:title="Implements the T:System.Runtime.Remoting.Messaging.IMethodReturnMessage interface to create a message...">
<polygon fill="none" stroke="black" points="179,-0.5 179,-30.5 322,-30.5 322,-0.5 179,-0.5"/>
<text text-anchor="start" x="187" y="-18.5" font-family="Helvetica,sans-Serif" font-size="10.00">System.Runtime.Remoting.</text>
<text text-anchor="middle" x="250.5" y="-7.5" font-family="Helvetica,sans-Serif" font-size="10.00">Messaging.MethodResponse</text>
</a>
</g>
</g>
<!-- Node0&#45;&gt;Node3 -->
<g id="edge3" class="edge"><title>Node0&#45;&gt;Node3</title>
<path fill="none" stroke="midnightblue" d="M153.214,-28.5557C161.784,-27.3936 170.453,-26.2183 178.894,-25.0737"/>
<polygon fill="midnightblue" stroke="midnightblue" points="152.657,-25.0991 143.218,-29.9111 153.598,-32.0356 152.657,-25.0991"/>
</g>
<!-- Node2 -->
<g id="node3" class="node"><title>Node2</title>
<g id="a_node3"><a xlink:href="class_system_1_1_runtime_1_1_remoting_1_1_messaging_1_1_construction_call.html" target="_top" xlink:title="Implements the T:System.Runtime.Remoting.Activation.IConstructionCallMessage interface to create a re...">
<polygon fill="none" stroke="black" points="371.5,-49.5 371.5,-79.5 509.5,-79.5 509.5,-49.5 371.5,-49.5"/>
<text text-anchor="start" x="379.5" y="-67.5" font-family="Helvetica,sans-Serif" font-size="10.00">System.Runtime.Remoting.</text>
<text text-anchor="middle" x="440.5" y="-56.5" font-family="Helvetica,sans-Serif" font-size="10.00">Messaging.ConstructionCall</text>
</a>
</g>
</g>
<!-- Node1&#45;&gt;Node2 -->
<g id="edge2" class="edge"><title>Node1&#45;&gt;Node2</title>
<path fill="none" stroke="midnightblue" d="M329.162,-64.5C343.116,-64.5 357.566,-64.5 371.229,-64.5"/>
<polygon fill="midnightblue" stroke="midnightblue" points="329.107,-61.0001 319.107,-64.5 329.107,-68.0001 329.107,-61.0001"/>
</g>
<!-- Node4 -->
<g id="node5" class="node"><title>Node4</title>
<g id="a_node5"><a xlink:href="class_system_1_1_runtime_1_1_remoting_1_1_messaging_1_1_construction_response.html" target="_top" xlink:title="Implements the T:System.Runtime.Remoting.Activation.IConstructionReturnMessage interface to create a ...">
<polygon fill="none" stroke="black" points="358,-0.5 358,-30.5 523,-30.5 523,-0.5 358,-0.5"/>
<text text-anchor="start" x="366" y="-18.5" font-family="Helvetica,sans-Serif" font-size="10.00">System.Runtime.Remoting.</text>
<text text-anchor="middle" x="440.5" y="-7.5" font-family="Helvetica,sans-Serif" font-size="10.00">Messaging.ConstructionResponse</text>
</a>
</g>
</g>
<!-- Node3&#45;&gt;Node4 -->
<g id="edge4" class="edge"><title>Node3&#45;&gt;Node4</title>
<path fill="none" stroke="midnightblue" d="M332.269,-15.5C340.73,-15.5 349.338,-15.5 357.809,-15.5"/>
<polygon fill="midnightblue" stroke="midnightblue" points="332.039,-12.0001 322.039,-15.5 332.039,-19.0001 332.039,-12.0001"/>
</g>
</g>
</svg>
