<?xml version="1.0" encoding="UTF-8" standalone="no"?>
<!DOCTYPE svg PUBLIC "-//W3C//DTD SVG 1.1//EN"
 "http://www.w3.org/Graphics/SVG/1.1/DTD/svg11.dtd">
<!-- Generated by graphviz version 2.38.0 (20140413.2041)
 -->
<!-- Title: System.Collections.Concurrent.IProducerConsumerCollection&lt; T &gt; Pages: 1 -->
<!--zoomable 110 -->
<svg id="main" version="1.1" xmlns="http://www.w3.org/2000/svg" xmlns:xlink="http://www.w3.org/1999/xlink" xml:space="preserve" onload="init(evt)">
<style type="text/css"><![CDATA[
.edge:hover path { stroke: red; }
.edge:hover polygon { stroke: red; fill: red; }
]]></style>
<script type="text/javascript"><![CDATA[
var edges = document.getElementsByTagName('g');
if (edges && edges.length) {
  for (var i=0;i<edges.length;i++) {
    if (edges[i].id.substr(0,4)=='edge') {
      edges[i].setAttribute('class','edge');
    }
  }
}
]]></script>
        <defs>
                <circle id="rim" cx="0" cy="0" r="7"/>
                <circle id="rim2" cx="0" cy="0" r="3.5"/>
                <g id="zoomPlus">
                        <use xlink:href="#rim" fill="#404040">
                                <set attributeName="fill" to="#808080" begin="zoomplus.mouseover" end="zoomplus.mouseout"/>
                        </use>
                        <path d="M-4,0h8M0,-4v8" fill="none" stroke="white" stroke-width="1.5" pointer-events="none"/>
                </g>
                <g id="zoomMin">
                        <use xlink:href="#rim" fill="#404040">
                                <set attributeName="fill" to="#808080" begin="zoomminus.mouseover" end="zoomminus.mouseout"/>
                        </use>
                        <path d="M-4,0h8" fill="none" stroke="white" stroke-width="1.5" pointer-events="none"/>
                </g>
                <g id="dirArrow">
                        <path fill="none" stroke="white" stroke-width="1.5" d="M0,-3.0v7 M-2.5,-0.5L0,-3.0L2.5,-0.5"/>
                </g>
               <g id="resetDef">
                       <use xlink:href="#rim2" fill="#404040">
                               <set attributeName="fill" to="#808080" begin="reset.mouseover" end="reset.mouseout"/>
                       </use>
               </g>
        </defs>

<script type="text/javascript">
var viewWidth = 998;
var viewHeight = 110;
var sectionId = 'dynsection-0';
</script>
<script xlink:href="svgpan.js"/>
<svg id="graph" class="graph">
<g id="viewport">
<title>System.Collections.Concurrent.IProducerConsumerCollection&lt; T &gt;</title>
<!-- Node0 -->
<g id="node1" class="node"><title>Node0</title>
<g id="a_node1"><a xlink:title="Defines methods to manipulate thread&#45;safe collections intended for producer/consumer usage....">
<polygon fill="#bfbfbf" stroke="black" points="352,-33 352,-63 520,-63 520,-33 352,-33"/>
<text text-anchor="start" x="360" y="-51" font-family="Helvetica,sans-Serif" font-size="10.00">System.Collections.Concurrent.</text>
<text text-anchor="middle" x="436" y="-40" font-family="Helvetica,sans-Serif" font-size="10.00">IProducerConsumerCollection&lt; T &gt;</text>
</a>
</g>
</g>
<!-- Node5 -->
<g id="node6" class="node"><title>Node5</title>
<g id="a_node6"><a xlink:href="class_system_1_1_collections_1_1_concurrent_1_1_concurrent_queue.html" target="_top" xlink:title="Represents a thread&#45;safe first in&#45;first out (FIFO) collection.">
<polygon fill="none" stroke="black" points="557,-65 557,-95 732,-95 732,-65 557,-65"/>
<text text-anchor="start" x="565" y="-83" font-family="Helvetica,sans-Serif" font-size="10.00">System::Collections</text>
<text text-anchor="middle" x="644.5" y="-72" font-family="Helvetica,sans-Serif" font-size="10.00">::Concurrent::ConcurrentQueue&lt; T &gt;</text>
</a>
</g>
</g>
<!-- Node0&#45;&gt;Node5 -->
<g id="edge6" class="edge"><title>Node0&#45;&gt;Node5</title>
<path fill="none" stroke="midnightblue" d="M530.1,-62.4271C539.008,-63.8076 548.019,-65.2039 556.863,-66.5744"/>
<polygon fill="midnightblue" stroke="midnightblue" points="530.517,-58.95 520.099,-60.8773 529.445,-65.8675 530.517,-58.95"/>
</g>
<!-- Node7 -->
<g id="node8" class="node"><title>Node7</title>
<g id="a_node8"><a xlink:href="class_system_1_1_collections_1_1_concurrent_1_1_concurrent_stack.html" target="_top" xlink:title="Represents a thread&#45;safe last in&#45;first out (LIFO) collection.">
<polygon fill="none" stroke="black" points="558.5,-14 558.5,-44 730.5,-44 730.5,-14 558.5,-14"/>
<text text-anchor="start" x="566.5" y="-32" font-family="Helvetica,sans-Serif" font-size="10.00">System::Collections</text>
<text text-anchor="middle" x="644.5" y="-21" font-family="Helvetica,sans-Serif" font-size="10.00">::Concurrent::ConcurrentStack&lt; T &gt;</text>
</a>
</g>
</g>
<!-- Node0&#45;&gt;Node7 -->
<g id="edge8" class="edge"><title>Node0&#45;&gt;Node7</title>
<path fill="none" stroke="midnightblue" d="M530.174,-39.4271C539.513,-38.5678 548.963,-37.6984 558.214,-36.8472"/>
<polygon fill="midnightblue" stroke="midnightblue" points="529.736,-35.9525 520.099,-40.3541 530.377,-42.9231 529.736,-35.9525"/>
</g>
<!-- Node1 -->
<g id="node2" class="node"><title>Node1</title>
<g id="a_node2"><a xlink:href="interface_system_1_1_collections_1_1_i_enumerable.html" target="_top" xlink:title=" ">
<polygon fill="none" stroke="black" points="221,-76.5 221,-95.5 315,-95.5 315,-76.5 221,-76.5"/>
<text text-anchor="middle" x="268" y="-83.5" font-family="Helvetica,sans-Serif" font-size="10.00">IEnumerable&lt; T &gt;</text>
</a>
</g>
</g>
<!-- Node1&#45;&gt;Node0 -->
<g id="edge1" class="edge"><title>Node1&#45;&gt;Node0</title>
<path fill="none" stroke="midnightblue" d="M320.711,-74.1626C336.065,-70.6478 353.092,-66.75 369.214,-63.0595"/>
<polygon fill="midnightblue" stroke="midnightblue" points="319.856,-70.7677 310.889,-76.411 321.418,-77.5912 319.856,-70.7677"/>
</g>
<!-- Node2 -->
<g id="node3" class="node"><title>Node2</title>
<g id="a_node3"><a xlink:href="interface_system_1_1_collections_1_1_i_enumerable.html" target="_top" xlink:title="Exposes an enumerator, which supports a simple iteration over a non&#45;generic collection....">
<polygon fill="none" stroke="black" points="0,-76.5 0,-95.5 158,-95.5 158,-76.5 0,-76.5"/>
<text text-anchor="middle" x="79" y="-83.5" font-family="Helvetica,sans-Serif" font-size="10.00">System.Collections.IEnumerable</text>
</a>
</g>
</g>
<!-- Node2&#45;&gt;Node1 -->
<g id="edge2" class="edge"><title>Node2&#45;&gt;Node1</title>
<path fill="none" stroke="orange" stroke-dasharray="5,2" d="M168.276,-86C186.456,-86 204.899,-86 220.847,-86"/>
<polygon fill="orange" stroke="orange" points="168.221,-82.5001 158.221,-86 168.221,-89.5001 168.221,-82.5001"/>
<text text-anchor="middle" x="189.5" y="-89" font-family="Helvetica,sans-Serif" font-size="10.00"> &lt; T &gt;</text>
</g>
<!-- Node3 -->
<g id="node4" class="node"><title>Node3</title>
<g id="a_node4"><a xlink:href="interface_system_1_1_collections_1_1_i_enumerable.html" target="_top" xlink:title="Exposes an enumerator, which supports a simple iteration over a non&#45;generic collection....">
<polygon fill="none" stroke="black" points="43.5,-23.5 43.5,-42.5 114.5,-42.5 114.5,-23.5 43.5,-23.5"/>
<text text-anchor="middle" x="79" y="-30.5" font-family="Helvetica,sans-Serif" font-size="10.00">IEnumerable</text>
</a>
</g>
</g>
<!-- Node3&#45;&gt;Node0 -->
<g id="edge3" class="edge"><title>Node3&#45;&gt;Node0</title>
<path fill="none" stroke="midnightblue" d="M124.796,-34.8928C181.67,-37.2959 280.914,-41.4893 351.836,-44.486"/>
<polygon fill="midnightblue" stroke="midnightblue" points="124.824,-31.3909 114.685,-34.4656 124.529,-38.3847 124.824,-31.3909"/>
</g>
<!-- Node4 -->
<g id="node5" class="node"><title>Node4</title>
<g id="a_node5"><a xlink:href="interface_system_1_1_collections_1_1_i_collection.html" target="_top" xlink:title="Defines size, enumerators, and synchronization methods for all nongeneric collections.">
<polygon fill="none" stroke="black" points="237,-0.5 237,-19.5 299,-19.5 299,-0.5 237,-0.5"/>
<text text-anchor="middle" x="268" y="-7.5" font-family="Helvetica,sans-Serif" font-size="10.00">ICollection</text>
</a>
</g>
</g>
<!-- Node3&#45;&gt;Node4 -->
<g id="edge5" class="edge"><title>Node3&#45;&gt;Node4</title>
<path fill="none" stroke="midnightblue" d="M125.055,-27.4585C159.676,-23.2002 206.542,-17.436 236.777,-13.7173"/>
<polygon fill="midnightblue" stroke="midnightblue" points="124.233,-24.0331 114.735,-28.7278 125.088,-30.9808 124.233,-24.0331"/>
</g>
<!-- Node4&#45;&gt;Node0 -->
<g id="edge4" class="edge"><title>Node4&#45;&gt;Node0</title>
<path fill="none" stroke="midnightblue" d="M308.973,-19.1505C327.083,-23.2961 348.97,-28.3063 369.387,-32.9801"/>
<polygon fill="midnightblue" stroke="midnightblue" points="309.59,-15.7013 299.061,-16.8815 308.028,-22.5248 309.59,-15.7013"/>
</g>
<!-- Node6 -->
<g id="node7" class="node"><title>Node6</title>
<g id="a_node7"><a xlink:href="class_system_1_1_threading_1_1_tasks_1_1_multi_producer_multi_consumer_queue.html" target="_top" xlink:title=" ">
<polygon fill="none" stroke="black" points="816,-60.5 816,-101.5 990,-101.5 990,-60.5 816,-60.5"/>
<text text-anchor="start" x="824" y="-89.5" font-family="Helvetica,sans-Serif" font-size="10.00">System::Threading::</text>
<text text-anchor="start" x="824" y="-78.5" font-family="Helvetica,sans-Serif" font-size="10.00">Tasks::MultiProducerMultiConsumer</text>
<text text-anchor="middle" x="903" y="-67.5" font-family="Helvetica,sans-Serif" font-size="10.00">Queue&lt; T &gt;</text>
</a>
</g>
</g>
<!-- Node5&#45;&gt;Node6 -->
<g id="edge7" class="edge"><title>Node5&#45;&gt;Node6</title>
<path fill="none" stroke="midnightblue" d="M742.539,-80.3783C766.585,-80.4721 792.191,-80.5719 815.686,-80.6635"/>
<polygon fill="midnightblue" stroke="midnightblue" points="742.353,-76.8777 732.339,-80.3386 742.325,-83.8776 742.353,-76.8777"/>
</g>
<!-- Node8 -->
<g id="node9" class="node"><title>Node8</title>
<g id="a_node9"><a xlink:href="class_system_1_1_collections_1_1_concurrent_1_1_concurrent_stack.html" target="_top" xlink:title=" ">
<polygon fill="none" stroke="black" points="825.5,-11 825.5,-41 980.5,-41 980.5,-11 825.5,-11"/>
<text text-anchor="start" x="833.5" y="-29" font-family="Helvetica,sans-Serif" font-size="10.00">System.Collections.Concurrent.</text>
<text text-anchor="middle" x="903" y="-18" font-family="Helvetica,sans-Serif" font-size="10.00">ConcurrentStack&lt; object &gt;</text>
</a>
</g>
</g>
<!-- Node7&#45;&gt;Node8 -->
<g id="edge9" class="edge"><title>Node7&#45;&gt;Node8</title>
<path fill="none" stroke="orange" stroke-dasharray="5,2" d="M740.726,-27.8862C768.638,-27.5598 798.79,-27.2071 825.385,-26.8961"/>
<polygon fill="orange" stroke="orange" points="740.513,-24.3884 730.555,-28.0052 740.595,-31.3879 740.513,-24.3884"/>
<text text-anchor="middle" x="774" y="-31" font-family="Helvetica,sans-Serif" font-size="10.00"> &lt; object &gt;</text>
</g>
</g>
</svg>
        <g id="navigator" transform="translate(0 0)" fill="#404254">
                <rect fill="#f2f5e9" fill-opacity="0.5" stroke="#606060" stroke-width=".5" x="0" y="0" width="60" height="60"/>
                <use id="zoomplus" xlink:href="#zoomPlus" x="17" y="9" onmousedown="handleZoom(evt,'in')"/>
                <use id="zoomminus" xlink:href="#zoomMin" x="42" y="9" onmousedown="handleZoom(evt,'out')"/>
                <use id="reset" xlink:href="#resetDef" x="30" y="36" onmousedown="handleReset()"/>
                <g id="arrowUp" xlink:href="#dirArrow" transform="translate(30 24)" onmousedown="handlePan(0,-1)">
                  <use xlink:href="#rim" fill="#404040">
                        <set attributeName="fill" to="#808080" begin="arrowUp.mouseover" end="arrowUp.mouseout"/>
                  </use>
                  <path fill="none" stroke="white" stroke-width="1.5" d="M0,-3.0v7 M-2.5,-0.5L0,-3.0L2.5,-0.5"/>
                </g>
                <g id="arrowRight" xlink:href="#dirArrow" transform="rotate(90) translate(36 -43)" onmousedown="handlePan(1,0)">
                  <use xlink:href="#rim" fill="#404040">
                        <set attributeName="fill" to="#808080" begin="arrowRight.mouseover" end="arrowRight.mouseout"/>
                  </use>
                  <path fill="none" stroke="white" stroke-width="1.5" d="M0,-3.0v7 M-2.5,-0.5L0,-3.0L2.5,-0.5"/>
                </g>
                <g id="arrowDown" xlink:href="#dirArrow" transform="rotate(180) translate(-30 -48)" onmousedown="handlePan(0,1)">
                  <use xlink:href="#rim" fill="#404040">
                        <set attributeName="fill" to="#808080" begin="arrowDown.mouseover" end="arrowDown.mouseout"/>
                  </use>
                  <path fill="none" stroke="white" stroke-width="1.5" d="M0,-3.0v7 M-2.5,-0.5L0,-3.0L2.5,-0.5"/>
                </g>
                <g id="arrowLeft" xlink:href="#dirArrow" transform="rotate(270) translate(-36 17)" onmousedown="handlePan(-1,0)">
                  <use xlink:href="#rim" fill="#404040">
                        <set attributeName="fill" to="#808080" begin="arrowLeft.mouseover" end="arrowLeft.mouseout"/>
                  </use>
                  <path fill="none" stroke="white" stroke-width="1.5" d="M0,-3.0v7 M-2.5,-0.5L0,-3.0L2.5,-0.5"/>
                </g>
        </g>
        <svg viewBox="0 0 15 15" width="100%" height="30px" preserveAspectRatio="xMaxYMin meet">
         <g id="arrow_out" transform="scale(0.3 0.3)">
          <a xlink:href="interface_system_1_1_collections_1_1_concurrent_1_1_i_producer_consumer_collection__inherit__graph_org.svg" target="_base">
           <rect id="button" ry="5" rx="5" y="6" x="6" height="38" width="38"
                fill="#f2f5e9" fill-opacity="0.5" stroke="#606060" stroke-width="1.0"/>
           <path id="arrow"
             d="M 11.500037,31.436501 C 11.940474,20.09759 22.043105,11.32322 32.158766,21.979434 L 37.068811,17.246167 C 37.068811,17.246167 37.088388,32 37.088388,32 L 22.160133,31.978069 C 22.160133,31.978069 26.997745,27.140456 26.997745,27.140456 C 18.528582,18.264221 13.291696,25.230495 11.500037,31.436501 z"
             style="fill:#404040;"/>
          </a>
         </g>
        </svg>
</svg>
