<?xml version="1.0" encoding="UTF-8" standalone="no"?>
<!DOCTYPE svg PUBLIC "-//W3C//DTD SVG 1.1//EN"
 "http://www.w3.org/Graphics/SVG/1.1/DTD/svg11.dtd">
<!-- Generated by graphviz version 2.38.0 (20140413.2041)
 -->
<!-- Title: System.IRuntimeFieldInfo Pages: 1 -->
<svg width="318pt" height="84pt"
 viewBox="0.00 0.00 317.50 84.00" xmlns="http://www.w3.org/2000/svg" xmlns:xlink="http://www.w3.org/1999/xlink">
<g id="graph0" class="graph" transform="scale(1 1) rotate(0) translate(4 80)">
<title>System.IRuntimeFieldInfo</title>
<!-- Node0 -->
<g id="node1" class="node"><title>Node0</title>
<g id="a_node1"><a xlink:title=" ">
<polygon fill="#bfbfbf" stroke="black" points="90.5,-56.5 90.5,-75.5 218.5,-75.5 218.5,-56.5 90.5,-56.5"/>
<text text-anchor="middle" x="154.5" y="-63.5" font-family="Helvetica,sans-Serif" font-size="10.00">System.IRuntimeFieldInfo</text>
</a>
</g>
</g>
<!-- Node1 -->
<g id="node2" class="node"><title>Node1</title>
<g id="a_node2"><a xlink:href="class_system_1_1_reflection_1_1_rt_field_info.html" target="_top" xlink:title=" ">
<polygon fill="none" stroke="black" points="0,-0.5 0,-19.5 145,-19.5 145,-0.5 0,-0.5"/>
<text text-anchor="middle" x="72.5" y="-7.5" font-family="Helvetica,sans-Serif" font-size="10.00">System.Reflection.RtFieldInfo</text>
</a>
</g>
</g>
<!-- Node0&#45;&gt;Node1 -->
<g id="edge1" class="edge"><title>Node0&#45;&gt;Node1</title>
<path fill="none" stroke="midnightblue" d="M132.667,-50.6221C117.687,-40.7574 98.3025,-27.9919 85.642,-19.6545"/>
<polygon fill="midnightblue" stroke="midnightblue" points="131.049,-53.7471 141.325,-56.324 134.899,-47.9009 131.049,-53.7471"/>
</g>
<!-- Node2 -->
<g id="node3" class="node"><title>Node2</title>
<g id="a_node3"><a xlink:href="class_system_1_1_runtime_field_info_stub.html" target="_top" xlink:title=" ">
<polygon fill="none" stroke="black" points="163.5,-0.5 163.5,-19.5 309.5,-19.5 309.5,-0.5 163.5,-0.5"/>
<text text-anchor="middle" x="236.5" y="-7.5" font-family="Helvetica,sans-Serif" font-size="10.00">System.RuntimeFieldInfoStub</text>
</a>
</g>
</g>
<!-- Node0&#45;&gt;Node2 -->
<g id="edge2" class="edge"><title>Node0&#45;&gt;Node2</title>
<path fill="none" stroke="midnightblue" d="M176.333,-50.6221C191.313,-40.7574 210.697,-27.9919 223.358,-19.6545"/>
<polygon fill="midnightblue" stroke="midnightblue" points="174.101,-47.9009 167.675,-56.324 177.951,-53.7471 174.101,-47.9009"/>
</g>
</g>
</svg>
