<?xml version="1.0" encoding="UTF-8" standalone="no"?>
<!DOCTYPE svg PUBLIC "-//W3C//DTD SVG 1.1//EN"
 "http://www.w3.org/Graphics/SVG/1.1/DTD/svg11.dtd">
<!-- Generated by graphviz version 2.38.0 (20140413.2041)
 -->
<!-- Title: System.Collections.Generic.IDictionary&lt; TKey, TValue &gt; Pages: 1 -->
<svg width="149pt" height="97pt"
 viewBox="0.00 0.00 149.00 96.57" xmlns="http://www.w3.org/2000/svg" xmlns:xlink="http://www.w3.org/1999/xlink">
<g id="graph0" class="graph" transform="scale(1 1) rotate(0) translate(4 92.5678)">
<title>System.Collections.Generic.IDictionary&lt; TKey, TValue &gt;</title>
<!-- Node91 -->
<g id="node1" class="node"><title>Node91</title>
<g id="a_node1"><a xlink:title="Represents a generic collection of key/value pairs.">
<polygon fill="#bfbfbf" stroke="black" points="0,-0.5 0,-30.5 141,-30.5 141,-0.5 0,-0.5"/>
<text text-anchor="start" x="8" y="-18.5" font-family="Helvetica,sans-Serif" font-size="10.00">System.Collections.Generic.</text>
<text text-anchor="middle" x="70.5" y="-7.5" font-family="Helvetica,sans-Serif" font-size="10.00">IDictionary&lt; TKey, TValue &gt;</text>
</a>
</g>
</g>
<!-- Node92 -->
<g id="node2" class="node"><title>Node92</title>
<g id="a_node2"><a xlink:href="interface_system_1_1_collections_1_1_generic_1_1_i_enumerable.html" target="_top" xlink:title="Exposes the enumerator, which supports a simple iteration over a collection of a specified type....">
<polygon fill="none" stroke="black" points="35,-67.5 35,-86.5 106,-86.5 106,-67.5 35,-67.5"/>
<text text-anchor="middle" x="70.5" y="-74.5" font-family="Helvetica,sans-Serif" font-size="10.00">IEnumerable</text>
</a>
</g>
</g>
<!-- Node92&#45;&gt;Node91 -->
<g id="edge1" class="edge"><title>Node92&#45;&gt;Node91</title>
<path fill="none" stroke="midnightblue" d="M70.5,-57.2349C70.5,-48.5864 70.5,-38.4969 70.5,-30.523"/>
<polygon fill="midnightblue" stroke="midnightblue" points="67.0001,-57.4751 70.5,-67.4751 74.0001,-57.4751 67.0001,-57.4751"/>
</g>
<!-- Node92&#45;&gt;Node92 -->
<g id="edge2" class="edge"><title>Node92&#45;&gt;Node92</title>
<path fill="none" stroke="midnightblue" d="M100.251,-88.1184C113.05,-89.0173 124,-85.3112 124,-77 124,-66.5703 106.757,-63.3925 90.2542,-67.4666"/>
<polygon fill="midnightblue" stroke="midnightblue" points="100.679,-84.6426 90.2542,-86.5334 99.5827,-91.5562 100.679,-84.6426"/>
</g>
</g>
</svg>
