<?xml version="1.0" encoding="UTF-8" standalone="no"?>
<!DOCTYPE svg PUBLIC "-//W3C//DTD SVG 1.1//EN"
 "http://www.w3.org/Graphics/SVG/1.1/DTD/svg11.dtd">
<!-- Generated by graphviz version 2.38.0 (20140413.2041)
 -->
<!-- Title: System.Runtime.Remoting.Channels.IClientChannelSink Pages: 1 -->
<svg width="157pt" height="162pt"
 viewBox="0.00 0.00 157.00 162.00" xmlns="http://www.w3.org/2000/svg" xmlns:xlink="http://www.w3.org/1999/xlink">
<g id="graph0" class="graph" transform="scale(1 1) rotate(0) translate(4 158)">
<title>System.Runtime.Remoting.Channels.IClientChannelSink</title>
<!-- Node0 -->
<g id="node1" class="node"><title>Node0</title>
<g id="a_node1"><a xlink:title="Provides required functions and properties for client channel sinks.">
<polygon fill="#bfbfbf" stroke="black" points="3.5,-67.5 3.5,-97.5 145.5,-97.5 145.5,-67.5 3.5,-67.5"/>
<text text-anchor="start" x="11.5" y="-85.5" font-family="Helvetica,sans-Serif" font-size="10.00">System.Runtime.Remoting.</text>
<text text-anchor="middle" x="74.5" y="-74.5" font-family="Helvetica,sans-Serif" font-size="10.00">Channels.IClientChannelSink</text>
</a>
</g>
</g>
<!-- Node2 -->
<g id="node3" class="node"><title>Node2</title>
<g id="a_node3"><a xlink:href="interface_system_1_1_runtime_1_1_remoting_1_1_channels_1_1_i_client_formatter_sink.html" target="_top" xlink:title="Marks a sink as a client formatter sink that serializes messages into a stream.">
<polygon fill="none" stroke="black" points="0,-0.5 0,-30.5 149,-30.5 149,-0.5 0,-0.5"/>
<text text-anchor="start" x="8" y="-18.5" font-family="Helvetica,sans-Serif" font-size="10.00">System.Runtime.Remoting.</text>
<text text-anchor="middle" x="74.5" y="-7.5" font-family="Helvetica,sans-Serif" font-size="10.00">Channels.IClientFormatterSink</text>
</a>
</g>
</g>
<!-- Node0&#45;&gt;Node2 -->
<g id="edge2" class="edge"><title>Node0&#45;&gt;Node2</title>
<path fill="none" stroke="midnightblue" d="M74.5,-57.1081C74.5,-48.1539 74.5,-38.3227 74.5,-30.5765"/>
<polygon fill="midnightblue" stroke="midnightblue" points="71.0001,-57.3959 74.5,-67.396 78.0001,-57.396 71.0001,-57.3959"/>
</g>
<!-- Node1 -->
<g id="node2" class="node"><title>Node1</title>
<g id="a_node2"><a xlink:href="interface_system_1_1_runtime_1_1_remoting_1_1_channels_1_1_i_channel_sink_base.html" target="_top" xlink:title="Provides the base interface for channel sinks.">
<polygon fill="none" stroke="black" points="26.5,-134.5 26.5,-153.5 122.5,-153.5 122.5,-134.5 26.5,-134.5"/>
<text text-anchor="middle" x="74.5" y="-141.5" font-family="Helvetica,sans-Serif" font-size="10.00">IChannelSinkBase</text>
</a>
</g>
</g>
<!-- Node1&#45;&gt;Node0 -->
<g id="edge1" class="edge"><title>Node1&#45;&gt;Node0</title>
<path fill="none" stroke="midnightblue" d="M74.5,-124.235C74.5,-115.586 74.5,-105.497 74.5,-97.523"/>
<polygon fill="midnightblue" stroke="midnightblue" points="71.0001,-124.475 74.5,-134.475 78.0001,-124.475 71.0001,-124.475"/>
</g>
</g>
</svg>
