<?xml version="1.0" encoding="UTF-8" standalone="no"?>
<!DOCTYPE svg PUBLIC "-//W3C//DTD SVG 1.1//EN"
 "http://www.w3.org/Graphics/SVG/1.1/DTD/svg11.dtd">
<!-- Generated by graphviz version 2.38.0 (20140413.2041)
 -->
<!-- Title: System.Collections.Specialized.IOrderedDictionary Pages: 1 -->
<svg width="166pt" height="274pt"
 viewBox="0.00 0.00 166.00 274.00" xmlns="http://www.w3.org/2000/svg" xmlns:xlink="http://www.w3.org/1999/xlink">
<g id="graph0" class="graph" transform="scale(1 1) rotate(0) translate(4 270)">
<title>System.Collections.Specialized.IOrderedDictionary</title>
<!-- Node0 -->
<g id="node1" class="node"><title>Node0</title>
<g id="a_node1"><a xlink:title="Represents an indexed collection of key/value pairs.">
<polygon fill="#bfbfbf" stroke="black" points="0,-67.5 0,-97.5 158,-97.5 158,-67.5 0,-67.5"/>
<text text-anchor="start" x="8" y="-85.5" font-family="Helvetica,sans-Serif" font-size="10.00">System.Collections.Specialized.</text>
<text text-anchor="middle" x="79" y="-74.5" font-family="Helvetica,sans-Serif" font-size="10.00">IOrderedDictionary</text>
</a>
</g>
</g>
<!-- Node4 -->
<g id="node5" class="node"><title>Node4</title>
<g id="a_node5"><a xlink:href="class_system_1_1_collections_1_1_specialized_1_1_ordered_dictionary.html" target="_top" xlink:title="Represents a collection of key/value pairs that are accessible by the key or index.">
<polygon fill="none" stroke="black" points="0,-0.5 0,-30.5 158,-30.5 158,-0.5 0,-0.5"/>
<text text-anchor="start" x="8" y="-18.5" font-family="Helvetica,sans-Serif" font-size="10.00">System.Collections.Specialized.</text>
<text text-anchor="middle" x="79" y="-7.5" font-family="Helvetica,sans-Serif" font-size="10.00">OrderedDictionary</text>
</a>
</g>
</g>
<!-- Node0&#45;&gt;Node4 -->
<g id="edge7" class="edge"><title>Node0&#45;&gt;Node4</title>
<path fill="none" stroke="midnightblue" d="M79,-57.1081C79,-48.1539 79,-38.3227 79,-30.5765"/>
<polygon fill="midnightblue" stroke="midnightblue" points="75.5001,-57.3959 79,-67.396 82.5001,-57.396 75.5001,-57.3959"/>
</g>
<!-- Node1 -->
<g id="node2" class="node"><title>Node1</title>
<g id="a_node2"><a xlink:href="interface_system_1_1_collections_1_1_i_dictionary.html" target="_top" xlink:title="Represents a nongeneric collection of key/value pairs.">
<polygon fill="none" stroke="black" points="48,-134.5 48,-153.5 110,-153.5 110,-134.5 48,-134.5"/>
<text text-anchor="middle" x="79" y="-141.5" font-family="Helvetica,sans-Serif" font-size="10.00">IDictionary</text>
</a>
</g>
</g>
<!-- Node1&#45;&gt;Node0 -->
<g id="edge1" class="edge"><title>Node1&#45;&gt;Node0</title>
<path fill="none" stroke="midnightblue" d="M79,-124.235C79,-115.586 79,-105.497 79,-97.523"/>
<polygon fill="midnightblue" stroke="midnightblue" points="75.5001,-124.475 79,-134.475 82.5001,-124.475 75.5001,-124.475"/>
</g>
<!-- Node2 -->
<g id="node3" class="node"><title>Node2</title>
<g id="a_node3"><a xlink:href="interface_system_1_1_collections_1_1_i_collection.html" target="_top" xlink:title="Defines size, enumerators, and synchronization methods for all nongeneric collections.">
<polygon fill="none" stroke="black" points="96,-190.5 96,-209.5 158,-209.5 158,-190.5 96,-190.5"/>
<text text-anchor="middle" x="127" y="-197.5" font-family="Helvetica,sans-Serif" font-size="10.00">ICollection</text>
</a>
</g>
</g>
<!-- Node2&#45;&gt;Node0 -->
<g id="edge5" class="edge"><title>Node2&#45;&gt;Node0</title>
<path fill="none" stroke="midnightblue" d="M127.338,-179.878C126.939,-166.546 125.108,-148.603 119,-134 113.217,-120.174 102.528,-106.985 93.6543,-97.5556"/>
<polygon fill="midnightblue" stroke="midnightblue" points="123.84,-180.226 127.392,-190.207 130.839,-180.189 123.84,-180.226"/>
</g>
<!-- Node2&#45;&gt;Node1 -->
<g id="edge2" class="edge"><title>Node2&#45;&gt;Node1</title>
<path fill="none" stroke="midnightblue" d="M112.272,-182.431C103.86,-172.967 93.6513,-161.483 86.7787,-153.751"/>
<polygon fill="midnightblue" stroke="midnightblue" points="109.814,-184.934 119.074,-190.083 115.046,-180.284 109.814,-184.934"/>
</g>
<!-- Node3 -->
<g id="node4" class="node"><title>Node3</title>
<g id="a_node4"><a xlink:href="interface_system_1_1_collections_1_1_i_enumerable.html" target="_top" xlink:title="Exposes an enumerator, which supports a simple iteration over a non&#45;generic collection....">
<polygon fill="none" stroke="black" points="32.5,-246.5 32.5,-265.5 103.5,-265.5 103.5,-246.5 32.5,-246.5"/>
<text text-anchor="middle" x="68" y="-253.5" font-family="Helvetica,sans-Serif" font-size="10.00">IEnumerable</text>
</a>
</g>
</g>
<!-- Node3&#45;&gt;Node0 -->
<g id="edge6" class="edge"><title>Node3&#45;&gt;Node0</title>
<path fill="none" stroke="midnightblue" d="M57.5854,-237.405C44.8699,-213.571 26.5112,-169.881 39,-134 43.853,-120.057 54.3361,-107.066 63.353,-97.7529"/>
<polygon fill="midnightblue" stroke="midnightblue" points="54.6411,-239.31 62.583,-246.323 60.7477,-235.888 54.6411,-239.31"/>
</g>
<!-- Node3&#45;&gt;Node1 -->
<g id="edge4" class="edge"><title>Node3&#45;&gt;Node1</title>
<path fill="none" stroke="midnightblue" d="M69.8652,-236.348C72.2746,-212.254 76.3692,-171.308 78.1409,-153.591"/>
<polygon fill="midnightblue" stroke="midnightblue" points="66.3756,-236.07 68.8632,-246.368 73.3409,-236.766 66.3756,-236.07"/>
</g>
<!-- Node3&#45;&gt;Node2 -->
<g id="edge3" class="edge"><title>Node3&#45;&gt;Node2</title>
<path fill="none" stroke="midnightblue" d="M84.8945,-239.537C95.4145,-229.909 108.569,-217.869 117.348,-209.834"/>
<polygon fill="midnightblue" stroke="midnightblue" points="82.4931,-236.99 77.4794,-246.324 87.2192,-242.154 82.4931,-236.99"/>
</g>
</g>
</svg>
