<?xml version="1.0" encoding="UTF-8" standalone="no"?>
<!DOCTYPE svg PUBLIC "-//W3C//DTD SVG 1.1//EN"
 "http://www.w3.org/Graphics/SVG/1.1/DTD/svg11.dtd">
<!-- Generated by graphviz version 2.38.0 (20140413.2041)
 -->
<!-- Title: System.Runtime.Remoting.Messaging.IMessageSink Pages: 1 -->
<svg width="390pt" height="970pt"
 viewBox="0.00 0.00 390.00 970.00" xmlns="http://www.w3.org/2000/svg" xmlns:xlink="http://www.w3.org/1999/xlink">
<g id="graph0" class="graph" transform="scale(1 1) rotate(0) translate(4 966)">
<title>System.Runtime.Remoting.Messaging.IMessageSink</title>
<!-- Node0 -->
<g id="node1" class="node"><title>Node0</title>
<g id="a_node1"><a xlink:title="Defines the interface for a message sink.">
<polygon fill="#bfbfbf" stroke="black" points="0,-465.5 0,-495.5 137,-495.5 137,-465.5 0,-465.5"/>
<text text-anchor="start" x="8" y="-483.5" font-family="Helvetica,sans-Serif" font-size="10.00">System.Runtime.Remoting.</text>
<text text-anchor="middle" x="68.5" y="-472.5" font-family="Helvetica,sans-Serif" font-size="10.00">Messaging.IMessageSink</text>
</a>
</g>
</g>
<!-- Node1 -->
<g id="node2" class="node"><title>Node1</title>
<g id="a_node2"><a xlink:href="class_system_1_1_runtime_1_1_remoting_1_1_channels_1_1_async_work_item.html" target="_top" xlink:title=" ">
<polygon fill="none" stroke="black" points="209,-931.5 209,-961.5 346,-961.5 346,-931.5 209,-931.5"/>
<text text-anchor="start" x="217" y="-949.5" font-family="Helvetica,sans-Serif" font-size="10.00">System.Runtime.Remoting.</text>
<text text-anchor="middle" x="277.5" y="-938.5" font-family="Helvetica,sans-Serif" font-size="10.00">Channels.AsyncWorkItem</text>
</a>
</g>
</g>
<!-- Node0&#45;&gt;Node1 -->
<g id="edge1" class="edge"><title>Node0&#45;&gt;Node1</title>
<path fill="none" stroke="midnightblue" d="M71.9319,-505.622C80.6223,-590.18 112.873,-862.503 173,-922.5 182.727,-932.206 195.559,-938.296 208.863,-942.052"/>
<polygon fill="midnightblue" stroke="midnightblue" points="75.409,-505.218 70.9245,-495.619 68.4442,-505.92 75.409,-505.218"/>
</g>
<!-- Node2 -->
<g id="node3" class="node"><title>Node2</title>
<g id="a_node3"><a xlink:href="class_system_1_1_runtime_1_1_remoting_1_1_channels_1_1_cross_app_domain_sink.html" target="_top" xlink:title=" ">
<polygon fill="none" stroke="black" points="200,-882.5 200,-912.5 355,-912.5 355,-882.5 200,-882.5"/>
<text text-anchor="start" x="208" y="-900.5" font-family="Helvetica,sans-Serif" font-size="10.00">System.Runtime.Remoting.</text>
<text text-anchor="middle" x="277.5" y="-889.5" font-family="Helvetica,sans-Serif" font-size="10.00">Channels.CrossAppDomainSink</text>
</a>
</g>
</g>
<!-- Node0&#45;&gt;Node2 -->
<g id="edge2" class="edge"><title>Node0&#45;&gt;Node2</title>
<path fill="none" stroke="midnightblue" d="M72.7185,-505.628C83.2432,-583.892 119.089,-821.165 173,-873.5 180.544,-880.823 189.859,-886.075 199.784,-889.815"/>
<polygon fill="midnightblue" stroke="midnightblue" points="76.1833,-505.131 71.4022,-495.676 69.2437,-506.049 76.1833,-505.131"/>
</g>
<!-- Node3 -->
<g id="node4" class="node"><title>Node3</title>
<g id="a_node4"><a xlink:href="class_system_1_1_runtime_1_1_remoting_1_1_channels_1_1_cross_context_channel.html" target="_top" xlink:title=" ">
<polygon fill="none" stroke="black" points="200,-833.5 200,-863.5 355,-863.5 355,-833.5 200,-833.5"/>
<text text-anchor="start" x="208" y="-851.5" font-family="Helvetica,sans-Serif" font-size="10.00">System.Runtime.Remoting.</text>
<text text-anchor="middle" x="277.5" y="-840.5" font-family="Helvetica,sans-Serif" font-size="10.00">Channels.CrossContextChannel</text>
</a>
</g>
</g>
<!-- Node0&#45;&gt;Node3 -->
<g id="edge3" class="edge"><title>Node0&#45;&gt;Node3</title>
<path fill="none" stroke="midnightblue" d="M69.0832,-505.877C69.4981,-569.544 79.8637,-737.177 173,-824.5 180.603,-831.628 189.891,-836.779 199.751,-840.478"/>
<polygon fill="midnightblue" stroke="midnightblue" points="72.5836,-505.58 69.1003,-495.574 65.5836,-505.568 72.5836,-505.58"/>
</g>
<!-- Node4 -->
<g id="node5" class="node"><title>Node4</title>
<g id="a_node5"><a xlink:href="interface_system_1_1_runtime_1_1_remoting_1_1_channels_1_1_i_client_formatter_sink.html" target="_top" xlink:title="Marks a sink as a client formatter sink that serializes messages into a stream.">
<polygon fill="none" stroke="black" points="203,-784.5 203,-814.5 352,-814.5 352,-784.5 203,-784.5"/>
<text text-anchor="start" x="211" y="-802.5" font-family="Helvetica,sans-Serif" font-size="10.00">System.Runtime.Remoting.</text>
<text text-anchor="middle" x="277.5" y="-791.5" font-family="Helvetica,sans-Serif" font-size="10.00">Channels.IClientFormatterSink</text>
</a>
</g>
</g>
<!-- Node0&#45;&gt;Node4 -->
<g id="edge4" class="edge"><title>Node0&#45;&gt;Node4</title>
<path fill="none" stroke="midnightblue" d="M70.5524,-505.782C74.3576,-562.955 91.9225,-702.853 173,-775.5 181.517,-783.132 191.98,-788.474 202.946,-792.189"/>
<polygon fill="midnightblue" stroke="midnightblue" points="74.0466,-505.579 69.9748,-495.798 67.0583,-505.984 74.0466,-505.579"/>
</g>
<!-- Node5 -->
<g id="node6" class="node"><title>Node5</title>
<g id="a_node6"><a xlink:href="class_system_1_1_runtime_1_1_remoting_1_1_channels_1_1_server_async_reply_terminator_sink.html" target="_top" xlink:title=" ">
<polygon fill="none" stroke="black" points="175,-735.5 175,-765.5 380,-765.5 380,-735.5 175,-735.5"/>
<text text-anchor="start" x="183" y="-753.5" font-family="Helvetica,sans-Serif" font-size="10.00">System.Runtime.Remoting.</text>
<text text-anchor="middle" x="277.5" y="-742.5" font-family="Helvetica,sans-Serif" font-size="10.00">Channels.ServerAsyncReplyTerminatorSink</text>
</a>
</g>
</g>
<!-- Node0&#45;&gt;Node5 -->
<g id="edge5" class="edge"><title>Node0&#45;&gt;Node5</title>
<path fill="none" stroke="midnightblue" d="M72.5396,-505.691C79.9767,-555.816 103.843,-668.226 173,-726.5 177.091,-729.947 181.583,-732.921 186.333,-735.485"/>
<polygon fill="midnightblue" stroke="midnightblue" points="75.996,-505.134 71.1565,-495.709 69.0623,-506.095 75.996,-505.134"/>
</g>
<!-- Node6 -->
<g id="node7" class="node"><title>Node6</title>
<g id="a_node7"><a xlink:href="class_system_1_1_runtime_1_1_remoting_1_1_com_redirection_proxy.html" target="_top" xlink:title=" ">
<polygon fill="none" stroke="black" points="209,-686.5 209,-716.5 346,-716.5 346,-686.5 209,-686.5"/>
<text text-anchor="start" x="217" y="-704.5" font-family="Helvetica,sans-Serif" font-size="10.00">System.Runtime.Remoting.</text>
<text text-anchor="middle" x="277.5" y="-693.5" font-family="Helvetica,sans-Serif" font-size="10.00">ComRedirectionProxy</text>
</a>
</g>
</g>
<!-- Node0&#45;&gt;Node6 -->
<g id="edge6" class="edge"><title>Node0&#45;&gt;Node6</title>
<path fill="none" stroke="midnightblue" d="M75.3477,-505.377C86.6198,-547.62 115.489,-633.099 173,-677.5 183.439,-685.56 196.121,-690.989 208.978,-694.629"/>
<polygon fill="midnightblue" stroke="midnightblue" points="78.7214,-504.443 72.8543,-495.621 71.9393,-506.176 78.7214,-504.443"/>
</g>
<!-- Node7 -->
<g id="node8" class="node"><title>Node7</title>
<g id="a_node8"><a xlink:href="class_system_1_1_runtime_1_1_remoting_1_1_contexts_1_1_synchronized_client_context_sink.html" target="_top" xlink:title=" ">
<polygon fill="none" stroke="black" points="179.5,-637.5 179.5,-667.5 375.5,-667.5 375.5,-637.5 179.5,-637.5"/>
<text text-anchor="start" x="187.5" y="-655.5" font-family="Helvetica,sans-Serif" font-size="10.00">System.Runtime.Remoting.</text>
<text text-anchor="middle" x="277.5" y="-644.5" font-family="Helvetica,sans-Serif" font-size="10.00">Contexts.SynchronizedClientContextSink</text>
</a>
</g>
</g>
<!-- Node0&#45;&gt;Node7 -->
<g id="edge7" class="edge"><title>Node0&#45;&gt;Node7</title>
<path fill="none" stroke="midnightblue" d="M79.9214,-505.367C95.2427,-538.761 127.088,-597.48 173,-628.5 178.12,-631.959 183.673,-634.924 189.457,-637.465"/>
<polygon fill="midnightblue" stroke="midnightblue" points="82.9615,-503.589 75.6997,-495.874 76.5656,-506.434 82.9615,-503.589"/>
</g>
<!-- Node8 -->
<g id="node9" class="node"><title>Node8</title>
<g id="a_node9"><a xlink:href="class_system_1_1_runtime_1_1_remoting_1_1_contexts_1_1_synchronized_server_context_sink.html" target="_top" xlink:title=" ">
<polygon fill="none" stroke="black" points="178.5,-588.5 178.5,-618.5 376.5,-618.5 376.5,-588.5 178.5,-588.5"/>
<text text-anchor="start" x="186.5" y="-606.5" font-family="Helvetica,sans-Serif" font-size="10.00">System.Runtime.Remoting.</text>
<text text-anchor="middle" x="277.5" y="-595.5" font-family="Helvetica,sans-Serif" font-size="10.00">Contexts.SynchronizedServerContextSink</text>
</a>
</g>
</g>
<!-- Node0&#45;&gt;Node8 -->
<g id="edge8" class="edge"><title>Node0&#45;&gt;Node8</title>
<path fill="none" stroke="midnightblue" d="M87.0599,-503.331C105.845,-526.129 137.737,-560.441 173,-579.5 179.41,-582.964 186.305,-585.931 193.385,-588.471"/>
<polygon fill="midnightblue" stroke="midnightblue" points="89.7507,-501.092 80.7504,-495.503 84.3005,-505.485 89.7507,-501.092"/>
</g>
<!-- Node9 -->
<g id="node10" class="node"><title>Node9</title>
<g id="a_node10"><a xlink:href="class_system_1_1_runtime_1_1_remoting_1_1_lifetime_1_1_lease_sink.html" target="_top" xlink:title=" ">
<polygon fill="none" stroke="black" points="209,-539.5 209,-569.5 346,-569.5 346,-539.5 209,-539.5"/>
<text text-anchor="start" x="217" y="-557.5" font-family="Helvetica,sans-Serif" font-size="10.00">System.Runtime.Remoting.</text>
<text text-anchor="middle" x="277.5" y="-546.5" font-family="Helvetica,sans-Serif" font-size="10.00">Lifetime.LeaseSink</text>
</a>
</g>
</g>
<!-- Node0&#45;&gt;Node9 -->
<g id="edge9" class="edge"><title>Node0&#45;&gt;Node9</title>
<path fill="none" stroke="midnightblue" d="M105.322,-500.245C124.873,-510.391 149.766,-522.309 173,-530.5 184.394,-534.517 196.734,-538.05 208.788,-541.083"/>
<polygon fill="midnightblue" stroke="midnightblue" points="106.943,-497.143 96.4638,-495.58 103.681,-503.336 106.943,-497.143"/>
</g>
<!-- Node10 -->
<g id="node11" class="node"><title>Node10</title>
<g id="a_node11"><a xlink:href="class_system_1_1_runtime_1_1_remoting_1_1_messaging_1_1_async_reply_sink.html" target="_top" xlink:title=" ">
<polygon fill="none" stroke="black" points="208,-490.5 208,-520.5 347,-520.5 347,-490.5 208,-490.5"/>
<text text-anchor="start" x="216" y="-508.5" font-family="Helvetica,sans-Serif" font-size="10.00">System.Runtime.Remoting.</text>
<text text-anchor="middle" x="277.5" y="-497.5" font-family="Helvetica,sans-Serif" font-size="10.00">Messaging.AsyncReplySink</text>
</a>
</g>
</g>
<!-- Node0&#45;&gt;Node10 -->
<g id="edge10" class="edge"><title>Node0&#45;&gt;Node10</title>
<path fill="none" stroke="midnightblue" d="M147.243,-489.889C167.161,-492.295 188.437,-494.864 207.86,-497.21"/>
<polygon fill="midnightblue" stroke="midnightblue" points="147.627,-486.41 137.28,-488.686 146.788,-493.36 147.627,-486.41"/>
</g>
<!-- Node11 -->
<g id="node12" class="node"><title>Node11</title>
<g id="a_node12"><a xlink:href="class_system_1_1_runtime_1_1_remoting_1_1_messaging_1_1_async_result.html" target="_top" xlink:title="Encapsulates the results of an asynchronous operation on a delegate.">
<polygon fill="none" stroke="black" points="209,-441.5 209,-471.5 346,-471.5 346,-441.5 209,-441.5"/>
<text text-anchor="start" x="217" y="-459.5" font-family="Helvetica,sans-Serif" font-size="10.00">System.Runtime.Remoting.</text>
<text text-anchor="middle" x="277.5" y="-448.5" font-family="Helvetica,sans-Serif" font-size="10.00">Messaging.AsyncResult</text>
</a>
</g>
</g>
<!-- Node0&#45;&gt;Node11 -->
<g id="edge11" class="edge"><title>Node0&#45;&gt;Node11</title>
<path fill="none" stroke="midnightblue" d="M147.401,-471.468C167.637,-469.122 189.266,-466.614 208.922,-464.335"/>
<polygon fill="midnightblue" stroke="midnightblue" points="146.81,-468.013 137.28,-472.642 147.616,-474.966 146.81,-468.013"/>
</g>
<!-- Node12 -->
<g id="node13" class="node"><title>Node12</title>
<g id="a_node13"><a xlink:href="class_system_1_1_runtime_1_1_remoting_1_1_messaging_1_1_client_async_reply_terminator_sink.html" target="_top" xlink:title=" ">
<polygon fill="none" stroke="black" points="173,-392.5 173,-422.5 382,-422.5 382,-392.5 173,-392.5"/>
<text text-anchor="start" x="181" y="-410.5" font-family="Helvetica,sans-Serif" font-size="10.00">System.Runtime.Remoting.</text>
<text text-anchor="middle" x="277.5" y="-399.5" font-family="Helvetica,sans-Serif" font-size="10.00">Messaging.ClientAsyncReplyTerminatorSink</text>
</a>
</g>
</g>
<!-- Node0&#45;&gt;Node12 -->
<g id="edge12" class="edge"><title>Node0&#45;&gt;Node12</title>
<path fill="none" stroke="midnightblue" d="M106.943,-460.955C126.288,-451.422 150.499,-440.349 173,-432.5 183.56,-428.817 194.909,-425.478 206.085,-422.527"/>
<polygon fill="midnightblue" stroke="midnightblue" points="105.247,-457.89 97.8663,-465.491 108.376,-464.152 105.247,-457.89"/>
</g>
<!-- Node13 -->
<g id="node14" class="node"><title>Node13</title>
<g id="a_node14"><a xlink:href="class_system_1_1_runtime_1_1_remoting_1_1_messaging_1_1_client_context_terminator_sink.html" target="_top" xlink:title=" ">
<polygon fill="none" stroke="black" points="182,-343.5 182,-373.5 373,-373.5 373,-343.5 182,-343.5"/>
<text text-anchor="start" x="190" y="-361.5" font-family="Helvetica,sans-Serif" font-size="10.00">System.Runtime.Remoting.</text>
<text text-anchor="middle" x="277.5" y="-350.5" font-family="Helvetica,sans-Serif" font-size="10.00">Messaging.ClientContextTerminatorSink</text>
</a>
</g>
</g>
<!-- Node0&#45;&gt;Node13 -->
<g id="edge13" class="edge"><title>Node0&#45;&gt;Node13</title>
<path fill="none" stroke="midnightblue" d="M87.7593,-457.542C106.721,-435.267 138.412,-402.172 173,-383.5 180.157,-379.636 187.912,-376.362 195.847,-373.589"/>
<polygon fill="midnightblue" stroke="midnightblue" points="84.845,-455.572 81.136,-465.496 90.2244,-460.051 84.845,-455.572"/>
</g>
<!-- Node14 -->
<g id="node15" class="node"><title>Node14</title>
<g id="a_node15"><a xlink:href="class_system_1_1_runtime_1_1_remoting_1_1_messaging_1_1_dispose_sink.html" target="_top" xlink:title=" ">
<polygon fill="none" stroke="black" points="209,-294.5 209,-324.5 346,-324.5 346,-294.5 209,-294.5"/>
<text text-anchor="start" x="217" y="-312.5" font-family="Helvetica,sans-Serif" font-size="10.00">System.Runtime.Remoting.</text>
<text text-anchor="middle" x="277.5" y="-301.5" font-family="Helvetica,sans-Serif" font-size="10.00">Messaging.DisposeSink</text>
</a>
</g>
</g>
<!-- Node0&#45;&gt;Node14 -->
<g id="edge14" class="edge"><title>Node0&#45;&gt;Node14</title>
<path fill="none" stroke="midnightblue" d="M80.0531,-456.027C95.5264,-423.15 127.546,-365.301 173,-334.5 183.712,-327.241 196.304,-322.083 208.948,-318.419"/>
<polygon fill="midnightblue" stroke="midnightblue" points="76.7565,-454.821 75.7858,-465.371 83.1238,-457.729 76.7565,-454.821"/>
</g>
<!-- Node15 -->
<g id="node16" class="node"><title>Node15</title>
<g id="a_node16"><a xlink:href="class_system_1_1_runtime_1_1_remoting_1_1_messaging_1_1_envoy_terminator_sink.html" target="_top" xlink:title=" ">
<polygon fill="none" stroke="black" points="198.5,-245.5 198.5,-275.5 356.5,-275.5 356.5,-245.5 198.5,-245.5"/>
<text text-anchor="start" x="206.5" y="-263.5" font-family="Helvetica,sans-Serif" font-size="10.00">System.Runtime.Remoting.</text>
<text text-anchor="middle" x="277.5" y="-252.5" font-family="Helvetica,sans-Serif" font-size="10.00">Messaging.EnvoyTerminatorSink</text>
</a>
</g>
</g>
<!-- Node0&#45;&gt;Node15 -->
<g id="edge15" class="edge"><title>Node0&#45;&gt;Node15</title>
<path fill="none" stroke="midnightblue" d="M75.5518,-455.618C87.0631,-413.774 116.194,-329.58 173,-285.5 180.521,-279.664 189.205,-275.164 198.279,-271.699"/>
<polygon fill="midnightblue" stroke="midnightblue" points="72.166,-454.731 72.9987,-465.293 78.9343,-456.517 72.166,-454.731"/>
</g>
<!-- Node16 -->
<g id="node17" class="node"><title>Node16</title>
<g id="a_node17"><a xlink:href="class_system_1_1_runtime_1_1_remoting_1_1_messaging_1_1_server_context_terminator_sink.html" target="_top" xlink:title=" ">
<polygon fill="none" stroke="black" points="181,-196.5 181,-226.5 374,-226.5 374,-196.5 181,-196.5"/>
<text text-anchor="start" x="189" y="-214.5" font-family="Helvetica,sans-Serif" font-size="10.00">System.Runtime.Remoting.</text>
<text text-anchor="middle" x="277.5" y="-203.5" font-family="Helvetica,sans-Serif" font-size="10.00">Messaging.ServerContextTerminatorSink</text>
</a>
</g>
</g>
<!-- Node0&#45;&gt;Node16 -->
<g id="edge16" class="edge"><title>Node0&#45;&gt;Node16</title>
<path fill="none" stroke="midnightblue" d="M72.6993,-455.249C80.3909,-405.466 104.645,-294.463 173,-236.5 177.512,-232.674 182.513,-229.414 187.81,-226.639"/>
<polygon fill="midnightblue" stroke="midnightblue" points="69.1922,-455.047 71.2264,-465.445 76.1203,-456.048 69.1922,-455.047"/>
</g>
<!-- Node17 -->
<g id="node18" class="node"><title>Node17</title>
<g id="a_node18"><a xlink:href="class_system_1_1_runtime_1_1_remoting_1_1_messaging_1_1_server_object_terminator_sink.html" target="_top" xlink:title=" ">
<polygon fill="none" stroke="black" points="183.5,-147.5 183.5,-177.5 371.5,-177.5 371.5,-147.5 183.5,-147.5"/>
<text text-anchor="start" x="191.5" y="-165.5" font-family="Helvetica,sans-Serif" font-size="10.00">System.Runtime.Remoting.</text>
<text text-anchor="middle" x="277.5" y="-154.5" font-family="Helvetica,sans-Serif" font-size="10.00">Messaging.ServerObjectTerminatorSink</text>
</a>
</g>
</g>
<!-- Node0&#45;&gt;Node17 -->
<g id="edge17" class="edge"><title>Node0&#45;&gt;Node17</title>
<path fill="none" stroke="midnightblue" d="M70.6821,-455.083C74.7545,-398.173 92.8326,-259.84 173,-187.5 177.254,-183.661 181.996,-180.385 187.045,-177.592"/>
<polygon fill="midnightblue" stroke="midnightblue" points="67.172,-455.136 70.0402,-465.335 74.1584,-455.573 67.172,-455.136"/>
</g>
<!-- Node18 -->
<g id="node19" class="node"><title>Node18</title>
<g id="a_node19"><a xlink:href="class_system_1_1_runtime_1_1_remoting_1_1_messaging_1_1_stack_builder_sink.html" target="_top" xlink:title=" ">
<polygon fill="none" stroke="black" points="206.5,-98.5 206.5,-128.5 348.5,-128.5 348.5,-98.5 206.5,-98.5"/>
<text text-anchor="start" x="214.5" y="-116.5" font-family="Helvetica,sans-Serif" font-size="10.00">System.Runtime.Remoting.</text>
<text text-anchor="middle" x="277.5" y="-105.5" font-family="Helvetica,sans-Serif" font-size="10.00">Messaging.StackBuilderSink</text>
</a>
</g>
</g>
<!-- Node0&#45;&gt;Node18 -->
<g id="edge18" class="edge"><title>Node0&#45;&gt;Node18</title>
<path fill="none" stroke="midnightblue" d="M69.1871,-454.879C69.879,-391.364 80.9008,-225.506 173,-138.5 182.272,-129.741 194.065,-123.887 206.346,-120.009"/>
<polygon fill="midnightblue" stroke="midnightblue" points="65.6864,-455.164 69.1589,-465.173 72.6864,-455.183 65.6864,-455.164"/>
</g>
<!-- Node19 -->
<g id="node20" class="node"><title>Node19</title>
<g id="a_node20"><a xlink:href="class_system_1_1_runtime_1_1_remoting_1_1_messaging_1_1_transition_call.html" target="_top" xlink:title=" ">
<polygon fill="none" stroke="black" points="209,-49.5 209,-79.5 346,-79.5 346,-49.5 209,-49.5"/>
<text text-anchor="start" x="217" y="-67.5" font-family="Helvetica,sans-Serif" font-size="10.00">System.Runtime.Remoting.</text>
<text text-anchor="middle" x="277.5" y="-56.5" font-family="Helvetica,sans-Serif" font-size="10.00">Messaging.TransitionCall</text>
</a>
</g>
</g>
<!-- Node0&#45;&gt;Node19 -->
<g id="edge19" class="edge"><title>Node0&#45;&gt;Node19</title>
<path fill="none" stroke="midnightblue" d="M72.8233,-455.04C83.5466,-376.747 119.661,-141.691 173,-89.5 182.777,-79.9331 195.55,-73.8082 208.77,-69.9347"/>
<polygon fill="midnightblue" stroke="midnightblue" points="69.2923,-455.036 71.4264,-465.413 76.2297,-455.97 69.2923,-455.036"/>
</g>
<!-- Node20 -->
<g id="node21" class="node"><title>Node20</title>
<g id="a_node21"><a xlink:href="class_system_1_1_runtime_1_1_remoting_1_1_redirection_proxy.html" target="_top" xlink:title=" ">
<polygon fill="none" stroke="black" points="209,-0.5 209,-30.5 346,-30.5 346,-0.5 209,-0.5"/>
<text text-anchor="start" x="217" y="-18.5" font-family="Helvetica,sans-Serif" font-size="10.00">System.Runtime.Remoting.</text>
<text text-anchor="middle" x="277.5" y="-7.5" font-family="Helvetica,sans-Serif" font-size="10.00">RedirectionProxy</text>
</a>
</g>
</g>
<!-- Node0&#45;&gt;Node20 -->
<g id="edge20" class="edge"><title>Node0&#45;&gt;Node20</title>
<path fill="none" stroke="midnightblue" d="M71.9694,-455.51C80.7807,-371.398 113.375,-100.483 173,-40.5 182.709,-30.7329 195.532,-24.5333 208.835,-20.6519"/>
<polygon fill="midnightblue" stroke="midnightblue" points="68.4876,-455.156 70.9476,-465.461 75.4509,-455.871 68.4876,-455.156"/>
</g>
</g>
</svg>
