<?xml version="1.0" encoding="UTF-8" standalone="no"?>
<!DOCTYPE svg PUBLIC "-//W3C//DTD SVG 1.1//EN"
 "http://www.w3.org/Graphics/SVG/1.1/DTD/svg11.dtd">
<!-- Generated by graphviz version 2.38.0 (20140413.2041)
 -->
<!-- Title: System.Runtime.InteropServices._MemberInfo Pages: 1 -->
<!--zoomable 921 -->
<svg id="main" version="1.1" xmlns="http://www.w3.org/2000/svg" xmlns:xlink="http://www.w3.org/1999/xlink" xml:space="preserve" onload="init(evt)">
<style type="text/css"><![CDATA[
.edge:hover path { stroke: red; }
.edge:hover polygon { stroke: red; fill: red; }
]]></style>
<script type="text/javascript"><![CDATA[
var edges = document.getElementsByTagName('g');
if (edges && edges.length) {
  for (var i=0;i<edges.length;i++) {
    if (edges[i].id.substr(0,4)=='edge') {
      edges[i].setAttribute('class','edge');
    }
  }
}
]]></script>
        <defs>
                <circle id="rim" cx="0" cy="0" r="7"/>
                <circle id="rim2" cx="0" cy="0" r="3.5"/>
                <g id="zoomPlus">
                        <use xlink:href="#rim" fill="#404040">
                                <set attributeName="fill" to="#808080" begin="zoomplus.mouseover" end="zoomplus.mouseout"/>
                        </use>
                        <path d="M-4,0h8M0,-4v8" fill="none" stroke="white" stroke-width="1.5" pointer-events="none"/>
                </g>
                <g id="zoomMin">
                        <use xlink:href="#rim" fill="#404040">
                                <set attributeName="fill" to="#808080" begin="zoomminus.mouseover" end="zoomminus.mouseout"/>
                        </use>
                        <path d="M-4,0h8" fill="none" stroke="white" stroke-width="1.5" pointer-events="none"/>
                </g>
                <g id="dirArrow">
                        <path fill="none" stroke="white" stroke-width="1.5" d="M0,-3.0v7 M-2.5,-0.5L0,-3.0L2.5,-0.5"/>
                </g>
               <g id="resetDef">
                       <use xlink:href="#rim2" fill="#404040">
                               <set attributeName="fill" to="#808080" begin="reset.mouseover" end="reset.mouseout"/>
                       </use>
               </g>
        </defs>

<script type="text/javascript">
var viewWidth = 1129;
var viewHeight = 921;
var sectionId = 'dynsection-0';
</script>
<script xlink:href="svgpan.js"/>
<svg id="graph" class="graph">
<g id="viewport">
<title>System.Runtime.InteropServices._MemberInfo</title>
<!-- Node0 -->
<g id="node1" class="node"><title>Node0</title>
<g id="a_node1"><a xlink:title="Exposes the public members of the T:System.Reflection.MemberInfo class to unmanaged code.">
<polygon fill="#bfbfbf" stroke="black" points="0,-550 0,-580 161,-580 161,-550 0,-550"/>
<text text-anchor="start" x="8" y="-568" font-family="Helvetica,sans-Serif" font-size="10.00">System.Runtime.InteropServices.</text>
<text text-anchor="middle" x="80.5" y="-557" font-family="Helvetica,sans-Serif" font-size="10.00">_MemberInfo</text>
</a>
</g>
</g>
<!-- Node1 -->
<g id="node2" class="node"><title>Node1</title>
<g id="a_node2"><a xlink:href="class_system_1_1_reflection_1_1_member_info.html" target="_top" xlink:title="Obtains information about the attributes of a member and provides access to member metadata.">
<polygon fill="none" stroke="black" points="197,-555.5 197,-574.5 346,-574.5 346,-555.5 197,-555.5"/>
<text text-anchor="middle" x="271.5" y="-562.5" font-family="Helvetica,sans-Serif" font-size="10.00">System.Reflection.MemberInfo</text>
</a>
</g>
</g>
<!-- Node0&#45;&gt;Node1 -->
<g id="edge1" class="edge"><title>Node0&#45;&gt;Node1</title>
<path fill="none" stroke="midnightblue" d="M171.123,-565C179.692,-565 188.314,-565 196.708,-565"/>
<polygon fill="midnightblue" stroke="midnightblue" points="171.105,-561.5 161.105,-565 171.105,-568.5 171.105,-561.5"/>
</g>
<!-- Node2 -->
<g id="node3" class="node"><title>Node2</title>
<g id="a_node3"><a xlink:href="class_system_1_1_reflection_1_1_event_info.html" target="_top" xlink:title="Discovers the attributes of an event and provides access to event metadata.">
<polygon fill="none" stroke="black" points="390,-832.5 390,-851.5 528,-851.5 528,-832.5 390,-832.5"/>
<text text-anchor="middle" x="459" y="-839.5" font-family="Helvetica,sans-Serif" font-size="10.00">System.Reflection.EventInfo</text>
</a>
</g>
</g>
<!-- Node1&#45;&gt;Node2 -->
<g id="edge2" class="edge"><title>Node1&#45;&gt;Node2</title>
<path fill="none" stroke="midnightblue" d="M280.397,-584.249C296.339,-621.876 334.898,-706.921 382,-769 401.352,-794.506 429.761,-819.253 445.801,-832.36"/>
<polygon fill="midnightblue" stroke="midnightblue" points="283.434,-582.439 276.35,-574.56 276.974,-585.137 283.434,-582.439"/>
</g>
<!-- Node4 -->
<g id="node5" class="node"><title>Node4</title>
<g id="a_node5"><a xlink:href="class_system_1_1_reflection_1_1_field_info.html" target="_top" xlink:title="Discovers the attributes of a field and provides access to field metadata.">
<polygon fill="none" stroke="black" points="391.5,-740.5 391.5,-759.5 526.5,-759.5 526.5,-740.5 391.5,-740.5"/>
<text text-anchor="middle" x="459" y="-747.5" font-family="Helvetica,sans-Serif" font-size="10.00">System.Reflection.FieldInfo</text>
</a>
</g>
</g>
<!-- Node1&#45;&gt;Node4 -->
<g id="edge4" class="edge"><title>Node1&#45;&gt;Node4</title>
<path fill="none" stroke="midnightblue" d="M289.485,-581.939C327.531,-619.883 418.589,-710.695 448.384,-740.41"/>
<polygon fill="midnightblue" stroke="midnightblue" points="291.764,-579.269 282.212,-574.686 286.821,-584.226 291.764,-579.269"/>
</g>
<!-- Node11 -->
<g id="node12" class="node"><title>Node11</title>
<g id="a_node12"><a xlink:href="class_system_1_1_reflection_1_1_method_base.html" target="_top" xlink:title="Provides information about methods and constructors.">
<polygon fill="none" stroke="black" points="382,-555.5 382,-574.5 536,-574.5 536,-555.5 382,-555.5"/>
<text text-anchor="middle" x="459" y="-562.5" font-family="Helvetica,sans-Serif" font-size="10.00">System.Reflection.MethodBase</text>
</a>
</g>
</g>
<!-- Node1&#45;&gt;Node11 -->
<g id="edge11" class="edge"><title>Node1&#45;&gt;Node11</title>
<path fill="none" stroke="midnightblue" d="M356.344,-565C364.815,-565 373.386,-565 381.77,-565"/>
<polygon fill="midnightblue" stroke="midnightblue" points="356.081,-561.5 346.081,-565 356.081,-568.5 356.081,-561.5"/>
</g>
<!-- Node23 -->
<g id="node24" class="node"><title>Node23</title>
<g id="a_node24"><a xlink:href="class_system_1_1_reflection_1_1_property_info.html" target="_top" xlink:title="Discovers the attributes of a property and provides access to property metadata.">
<polygon fill="none" stroke="black" points="383.5,-444.5 383.5,-463.5 534.5,-463.5 534.5,-444.5 383.5,-444.5"/>
<text text-anchor="middle" x="459" y="-451.5" font-family="Helvetica,sans-Serif" font-size="10.00">System.Reflection.PropertyInfo</text>
</a>
</g>
</g>
<!-- Node1&#45;&gt;Node23 -->
<g id="edge23" class="edge"><title>Node1&#45;&gt;Node23</title>
<path fill="none" stroke="midnightblue" d="M297.223,-550.206C335.894,-527.066 409.615,-482.953 442.032,-463.555"/>
<polygon fill="midnightblue" stroke="midnightblue" points="295.421,-547.205 288.637,-555.344 299.016,-553.212 295.421,-547.205"/>
</g>
<!-- Node26 -->
<g id="node27" class="node"><title>Node26</title>
<g id="a_node27"><a xlink:href="class_system_1_1_type.html" target="_top" xlink:title="Represents type declarations: class types, interface types, array types, value types,...">
<polygon fill="none" stroke="black" points="422,-291.5 422,-310.5 496,-310.5 496,-291.5 422,-291.5"/>
<text text-anchor="middle" x="459" y="-298.5" font-family="Helvetica,sans-Serif" font-size="10.00">System.Type</text>
</a>
</g>
</g>
<!-- Node1&#45;&gt;Node26 -->
<g id="edge26" class="edge"><title>Node1&#45;&gt;Node26</title>
<path fill="none" stroke="midnightblue" d="M285.286,-546.804C321.536,-495.214 424.112,-349.228 451.312,-310.519"/>
<polygon fill="midnightblue" stroke="midnightblue" points="282.208,-545.097 279.322,-555.291 287.935,-549.121 282.208,-545.097"/>
</g>
<!-- Node3 -->
<g id="node4" class="node"><title>Node3</title>
<g id="a_node4"><a xlink:href="class_system_1_1_reflection_1_1_runtime_event_info.html" target="_top" xlink:title=" ">
<polygon fill="none" stroke="black" points="586.5,-882 586.5,-912 721.5,-912 721.5,-882 586.5,-882"/>
<text text-anchor="start" x="594.5" y="-900" font-family="Helvetica,sans-Serif" font-size="10.00">System.Reflection.Runtime</text>
<text text-anchor="middle" x="654" y="-889" font-family="Helvetica,sans-Serif" font-size="10.00">EventInfo</text>
</a>
</g>
</g>
<!-- Node2&#45;&gt;Node3 -->
<g id="edge3" class="edge"><title>Node2&#45;&gt;Node3</title>
<path fill="none" stroke="midnightblue" d="M503.345,-854.352C531.993,-862.516 569.725,-873.269 600.134,-881.935"/>
<polygon fill="midnightblue" stroke="midnightblue" points="504.194,-850.955 493.618,-851.58 502.276,-857.687 504.194,-850.955"/>
</g>
<!-- Node5 -->
<g id="node6" class="node"><title>Node5</title>
<g id="a_node6"><a xlink:href="class_system_1_1_reflection_1_1_emit_1_1_field_builder.html" target="_top" xlink:title="Defines and represents a field. This class cannot be inherited.">
<polygon fill="none" stroke="black" points="582.5,-833 582.5,-863 725.5,-863 725.5,-833 582.5,-833"/>
<text text-anchor="start" x="590.5" y="-851" font-family="Helvetica,sans-Serif" font-size="10.00">System.Reflection.Emit.Field</text>
<text text-anchor="middle" x="654" y="-840" font-family="Helvetica,sans-Serif" font-size="10.00">Builder</text>
</a>
</g>
</g>
<!-- Node4&#45;&gt;Node5 -->
<g id="edge5" class="edge"><title>Node4&#45;&gt;Node5</title>
<path fill="none" stroke="midnightblue" d="M480.131,-765.974C501.753,-782.471 537.651,-807.998 572,-824 579.046,-827.283 586.647,-830.235 594.27,-832.852"/>
<polygon fill="midnightblue" stroke="midnightblue" points="482.098,-763.07 472.048,-759.717 477.814,-768.606 482.098,-763.07"/>
</g>
<!-- Node6 -->
<g id="node7" class="node"><title>Node6</title>
<g id="a_node7"><a xlink:href="class_system_1_1_reflection_1_1_emit_1_1_field_on_type_builder_instantiation.html" target="_top" xlink:title=" ">
<polygon fill="none" stroke="black" points="582.5,-784 582.5,-814 725.5,-814 725.5,-784 582.5,-784"/>
<text text-anchor="start" x="590.5" y="-802" font-family="Helvetica,sans-Serif" font-size="10.00">System.Reflection.Emit.Field</text>
<text text-anchor="middle" x="654" y="-791" font-family="Helvetica,sans-Serif" font-size="10.00">OnTypeBuilderInstantiation</text>
</a>
</g>
</g>
<!-- Node4&#45;&gt;Node6 -->
<g id="edge6" class="edge"><title>Node4&#45;&gt;Node6</title>
<path fill="none" stroke="midnightblue" d="M507.666,-762.102C533.686,-768.708 566.139,-776.947 593.773,-783.963"/>
<polygon fill="midnightblue" stroke="midnightblue" points="508.224,-758.633 497.671,-759.564 506.502,-765.417 508.224,-758.633"/>
</g>
<!-- Node7 -->
<g id="node8" class="node"><title>Node7</title>
<g id="a_node8"><a xlink:href="class_system_1_1_reflection_1_1_runtime_field_info.html" target="_top" xlink:title=" ">
<polygon fill="none" stroke="black" points="586.5,-735 586.5,-765 721.5,-765 721.5,-735 586.5,-735"/>
<text text-anchor="start" x="594.5" y="-753" font-family="Helvetica,sans-Serif" font-size="10.00">System.Reflection.Runtime</text>
<text text-anchor="middle" x="654" y="-742" font-family="Helvetica,sans-Serif" font-size="10.00">FieldInfo</text>
</a>
</g>
</g>
<!-- Node4&#45;&gt;Node7 -->
<g id="edge7" class="edge"><title>Node4&#45;&gt;Node7</title>
<path fill="none" stroke="midnightblue" d="M536.772,-750C553.158,-750 570.337,-750 586.307,-750"/>
<polygon fill="midnightblue" stroke="midnightblue" points="536.69,-746.5 526.69,-750 536.69,-753.5 536.69,-746.5"/>
</g>
<!-- Node10 -->
<g id="node11" class="node"><title>Node10</title>
<g id="a_node11"><a xlink:href="class_system_1_1_runtime_1_1_serialization_1_1_serialization_field_info.html" target="_top" xlink:title=" ">
<polygon fill="none" stroke="black" points="579.5,-686 579.5,-716 728.5,-716 728.5,-686 579.5,-686"/>
<text text-anchor="start" x="587.5" y="-704" font-family="Helvetica,sans-Serif" font-size="10.00">System.Runtime.Serialization.</text>
<text text-anchor="middle" x="654" y="-693" font-family="Helvetica,sans-Serif" font-size="10.00">SerializationFieldInfo</text>
</a>
</g>
</g>
<!-- Node4&#45;&gt;Node10 -->
<g id="edge10" class="edge"><title>Node4&#45;&gt;Node10</title>
<path fill="none" stroke="midnightblue" d="M507.666,-737.898C533.686,-731.292 566.139,-723.053 593.773,-716.037"/>
<polygon fill="midnightblue" stroke="midnightblue" points="506.502,-734.583 497.671,-740.436 508.224,-741.367 506.502,-734.583"/>
</g>
<!-- Node8 -->
<g id="node9" class="node"><title>Node8</title>
<g id="a_node9"><a xlink:href="class_system_1_1_reflection_1_1_md_field_info.html" target="_top" xlink:title=" ">
<polygon fill="none" stroke="black" points="785.5,-791.5 785.5,-810.5 934.5,-810.5 934.5,-791.5 785.5,-791.5"/>
<text text-anchor="middle" x="860" y="-798.5" font-family="Helvetica,sans-Serif" font-size="10.00">System.Reflection.MdFieldInfo</text>
</a>
</g>
</g>
<!-- Node7&#45;&gt;Node8 -->
<g id="edge8" class="edge"><title>Node7&#45;&gt;Node8</title>
<path fill="none" stroke="midnightblue" d="M717.931,-767.857C735.394,-772.636 754.392,-777.673 772,-782 785.362,-785.284 799.948,-788.581 813.293,-791.485"/>
<polygon fill="midnightblue" stroke="midnightblue" points="718.42,-764.362 707.85,-765.081 716.561,-771.11 718.42,-764.362"/>
</g>
<!-- Node9 -->
<g id="node10" class="node"><title>Node9</title>
<g id="a_node10"><a xlink:href="class_system_1_1_reflection_1_1_rt_field_info.html" target="_top" xlink:title=" ">
<polygon fill="none" stroke="black" points="787.5,-753.5 787.5,-772.5 932.5,-772.5 932.5,-753.5 787.5,-753.5"/>
<text text-anchor="middle" x="860" y="-760.5" font-family="Helvetica,sans-Serif" font-size="10.00">System.Reflection.RtFieldInfo</text>
</a>
</g>
</g>
<!-- Node7&#45;&gt;Node9 -->
<g id="edge9" class="edge"><title>Node7&#45;&gt;Node9</title>
<path fill="none" stroke="midnightblue" d="M731.532,-754.877C749.809,-756.042 769.25,-757.281 787.3,-758.431"/>
<polygon fill="midnightblue" stroke="midnightblue" points="731.717,-751.382 721.515,-754.239 731.272,-758.368 731.717,-751.382"/>
</g>
<!-- Node12 -->
<g id="node13" class="node"><title>Node12</title>
<g id="a_node13"><a xlink:href="class_system_1_1_reflection_1_1_constructor_info.html" target="_top" xlink:title="Discovers the attributes of a class constructor and provides access to constructor metadata.">
<polygon fill="none" stroke="black" points="572,-623.5 572,-642.5 736,-642.5 736,-623.5 572,-623.5"/>
<text text-anchor="middle" x="654" y="-630.5" font-family="Helvetica,sans-Serif" font-size="10.00">System.Reflection.ConstructorInfo</text>
</a>
</g>
</g>
<!-- Node11&#45;&gt;Node12 -->
<g id="edge12" class="edge"><title>Node11&#45;&gt;Node12</title>
<path fill="none" stroke="midnightblue" d="M496.836,-577.979C534.525,-591.257 592.195,-611.577 625.896,-623.45"/>
<polygon fill="midnightblue" stroke="midnightblue" points="497.838,-574.621 487.243,-574.599 495.511,-581.223 497.838,-574.621"/>
</g>
<!-- Node16 -->
<g id="node17" class="node"><title>Node16</title>
<g id="a_node17"><a xlink:href="class_system_1_1_reflection_1_1_method_info.html" target="_top" xlink:title="Discovers the attributes of a method and provides access to method metadata.">
<polygon fill="none" stroke="black" points="581,-488.5 581,-507.5 727,-507.5 727,-488.5 581,-488.5"/>
<text text-anchor="middle" x="654" y="-495.5" font-family="Helvetica,sans-Serif" font-size="10.00">System.Reflection.MethodInfo</text>
</a>
</g>
</g>
<!-- Node11&#45;&gt;Node16 -->
<g id="edge16" class="edge"><title>Node11&#45;&gt;Node16</title>
<path fill="none" stroke="midnightblue" d="M497.21,-552.083C534.72,-539.061 591.743,-519.265 625.399,-507.582"/>
<polygon fill="midnightblue" stroke="midnightblue" points="495.951,-548.815 487.652,-555.401 498.247,-555.427 495.951,-548.815"/>
</g>
<!-- Node13 -->
<g id="node14" class="node"><title>Node13</title>
<g id="a_node14"><a xlink:href="class_system_1_1_reflection_1_1_emit_1_1_constructor_builder.html" target="_top" xlink:title="Defines and represents a constructor of a dynamic class.">
<polygon fill="none" stroke="black" points="773.5,-704 773.5,-734 946.5,-734 946.5,-704 773.5,-704"/>
<text text-anchor="start" x="781.5" y="-722" font-family="Helvetica,sans-Serif" font-size="10.00">System.Reflection.Emit.Constructor</text>
<text text-anchor="middle" x="860" y="-711" font-family="Helvetica,sans-Serif" font-size="10.00">Builder</text>
</a>
</g>
</g>
<!-- Node12&#45;&gt;Node13 -->
<g id="edge13" class="edge"><title>Node12&#45;&gt;Node13</title>
<path fill="none" stroke="midnightblue" d="M681.954,-647.682C713.57,-664.84 762.852,-691.365 772,-695 780.154,-698.24 788.904,-701.211 797.599,-703.876"/>
<polygon fill="midnightblue" stroke="midnightblue" points="683.231,-644.392 672.773,-642.693 679.889,-650.543 683.231,-644.392"/>
</g>
<!-- Node14 -->
<g id="node15" class="node"><title>Node14</title>
<g id="a_node15"><a xlink:href="class_system_1_1_reflection_1_1_emit_1_1_constructor_on_type_builder_instantiation.html" target="_top" xlink:title=" ">
<polygon fill="none" stroke="black" points="773.5,-655 773.5,-685 946.5,-685 946.5,-655 773.5,-655"/>
<text text-anchor="start" x="781.5" y="-673" font-family="Helvetica,sans-Serif" font-size="10.00">System.Reflection.Emit.Constructor</text>
<text text-anchor="middle" x="860" y="-662" font-family="Helvetica,sans-Serif" font-size="10.00">OnTypeBuilderInstantiation</text>
</a>
</g>
</g>
<!-- Node12&#45;&gt;Node14 -->
<g id="edge14" class="edge"><title>Node12&#45;&gt;Node14</title>
<path fill="none" stroke="midnightblue" d="M717.578,-644.35C736.069,-647.704 756.603,-651.428 776.161,-654.975"/>
<polygon fill="midnightblue" stroke="midnightblue" points="717.999,-640.869 707.535,-642.528 716.75,-647.757 717.999,-640.869"/>
</g>
<!-- Node15 -->
<g id="node16" class="node"><title>Node15</title>
<g id="a_node16"><a xlink:href="class_system_1_1_reflection_1_1_runtime_constructor_info.html" target="_top" xlink:title=" ">
<polygon fill="none" stroke="black" points="792.5,-606 792.5,-636 927.5,-636 927.5,-606 792.5,-606"/>
<text text-anchor="start" x="800.5" y="-624" font-family="Helvetica,sans-Serif" font-size="10.00">System.Reflection.Runtime</text>
<text text-anchor="middle" x="860" y="-613" font-family="Helvetica,sans-Serif" font-size="10.00">ConstructorInfo</text>
</a>
</g>
</g>
<!-- Node12&#45;&gt;Node15 -->
<g id="edge15" class="edge"><title>Node12&#45;&gt;Node15</title>
<path fill="none" stroke="midnightblue" d="M746.353,-627.626C761.882,-626.713 777.743,-625.78 792.476,-624.913"/>
<polygon fill="midnightblue" stroke="midnightblue" points="745.99,-624.142 736.212,-628.223 746.401,-631.129 745.99,-624.142"/>
</g>
<!-- Node17 -->
<g id="node18" class="node"><title>Node17</title>
<g id="a_node18"><a xlink:href="class_system_1_1_reflection_1_1_emit_1_1_dynamic_method.html" target="_top" xlink:title="Defines and represents a dynamic method that can be compiled, executed, and discarded....">
<polygon fill="none" stroke="black" points="779.5,-557 779.5,-587 940.5,-587 940.5,-557 779.5,-557"/>
<text text-anchor="start" x="787.5" y="-575" font-family="Helvetica,sans-Serif" font-size="10.00">System.Reflection.Emit.Dynamic</text>
<text text-anchor="middle" x="860" y="-564" font-family="Helvetica,sans-Serif" font-size="10.00">Method</text>
</a>
</g>
</g>
<!-- Node16&#45;&gt;Node17 -->
<g id="edge17" class="edge"><title>Node16&#45;&gt;Node17</title>
<path fill="none" stroke="midnightblue" d="M684.32,-511.835C707.726,-522.56 741.532,-537.342 772,-548 781.022,-551.156 790.684,-554.171 800.168,-556.932"/>
<polygon fill="midnightblue" stroke="midnightblue" points="685.511,-508.53 674.965,-507.511 682.574,-514.884 685.511,-508.53"/>
</g>
<!-- Node18 -->
<g id="node19" class="node"><title>Node18</title>
<g id="a_node19"><a xlink:href="class_system_1_1_reflection_1_1_emit_1_1_method_builder.html" target="_top" xlink:title="Defines and represents a method (or constructor) on a dynamic class.">
<polygon fill="none" stroke="black" points="782.5,-508 782.5,-538 937.5,-538 937.5,-508 782.5,-508"/>
<text text-anchor="start" x="790.5" y="-526" font-family="Helvetica,sans-Serif" font-size="10.00">System.Reflection.Emit.Method</text>
<text text-anchor="middle" x="860" y="-515" font-family="Helvetica,sans-Serif" font-size="10.00">Builder</text>
</a>
</g>
</g>
<!-- Node16&#45;&gt;Node18 -->
<g id="edge18" class="edge"><title>Node16&#45;&gt;Node18</title>
<path fill="none" stroke="midnightblue" d="M737.392,-508.097C752.258,-509.919 767.7,-511.811 782.392,-513.612"/>
<polygon fill="midnightblue" stroke="midnightblue" points="737.561,-504.592 727.21,-506.849 736.71,-511.54 737.561,-504.592"/>
</g>
<!-- Node19 -->
<g id="node20" class="node"><title>Node19</title>
<g id="a_node20"><a xlink:href="class_system_1_1_reflection_1_1_emit_1_1_method_builder_instantiation.html" target="_top" xlink:title=" ">
<polygon fill="none" stroke="black" points="782.5,-459 782.5,-489 937.5,-489 937.5,-459 782.5,-459"/>
<text text-anchor="start" x="790.5" y="-477" font-family="Helvetica,sans-Serif" font-size="10.00">System.Reflection.Emit.Method</text>
<text text-anchor="middle" x="860" y="-466" font-family="Helvetica,sans-Serif" font-size="10.00">BuilderInstantiation</text>
</a>
</g>
</g>
<!-- Node16&#45;&gt;Node19 -->
<g id="edge19" class="edge"><title>Node16&#45;&gt;Node19</title>
<path fill="none" stroke="midnightblue" d="M737.392,-488.307C752.258,-486.558 767.7,-484.741 782.392,-483.013"/>
<polygon fill="midnightblue" stroke="midnightblue" points="736.732,-484.86 727.21,-489.505 737.55,-491.812 736.732,-484.86"/>
</g>
<!-- Node20 -->
<g id="node21" class="node"><title>Node20</title>
<g id="a_node21"><a xlink:href="class_system_1_1_reflection_1_1_emit_1_1_method_on_type_builder_instantiation.html" target="_top" xlink:title=" ">
<polygon fill="none" stroke="black" points="782.5,-410 782.5,-440 937.5,-440 937.5,-410 782.5,-410"/>
<text text-anchor="start" x="790.5" y="-428" font-family="Helvetica,sans-Serif" font-size="10.00">System.Reflection.Emit.Method</text>
<text text-anchor="middle" x="860" y="-417" font-family="Helvetica,sans-Serif" font-size="10.00">OnTypeBuilderInstantiation</text>
</a>
</g>
</g>
<!-- Node16&#45;&gt;Node20 -->
<g id="edge20" class="edge"><title>Node16&#45;&gt;Node20</title>
<path fill="none" stroke="midnightblue" d="M720.393,-485.389C725.781,-483.534 731.052,-481.416 736,-479 754.462,-469.985 753.766,-459.469 772,-450 779.252,-446.234 787.148,-442.966 795.127,-440.15"/>
<polygon fill="midnightblue" stroke="midnightblue" points="719.11,-482.123 710.613,-488.452 721.202,-488.804 719.11,-482.123"/>
</g>
<!-- Node21 -->
<g id="node22" class="node"><title>Node21</title>
<g id="a_node22"><a xlink:href="class_system_1_1_reflection_1_1_emit_1_1_symbol_method.html" target="_top" xlink:title=" ">
<polygon fill="none" stroke="black" points="782.5,-361 782.5,-391 937.5,-391 937.5,-361 782.5,-361"/>
<text text-anchor="start" x="790.5" y="-379" font-family="Helvetica,sans-Serif" font-size="10.00">System.Reflection.Emit.Symbol</text>
<text text-anchor="middle" x="860" y="-368" font-family="Helvetica,sans-Serif" font-size="10.00">Method</text>
</a>
</g>
</g>
<!-- Node16&#45;&gt;Node21 -->
<g id="edge21" class="edge"><title>Node16&#45;&gt;Node21</title>
<path fill="none" stroke="midnightblue" d="M729.493,-483.617C731.765,-482.213 733.944,-480.678 736,-479 765.583,-454.862 743.023,-425.862 772,-401 776.532,-397.111 781.636,-393.826 787.042,-391.051"/>
<polygon fill="midnightblue" stroke="midnightblue" points="727.565,-480.675 720.321,-488.407 730.805,-486.88 727.565,-480.675"/>
</g>
<!-- Node22 -->
<g id="node23" class="node"><title>Node22</title>
<g id="a_node23"><a xlink:href="class_system_1_1_reflection_1_1_runtime_method_info.html" target="_top" xlink:title=" ">
<polygon fill="none" stroke="black" points="792.5,-312 792.5,-342 927.5,-342 927.5,-312 792.5,-312"/>
<text text-anchor="start" x="800.5" y="-330" font-family="Helvetica,sans-Serif" font-size="10.00">System.Reflection.Runtime</text>
<text text-anchor="middle" x="860" y="-319" font-family="Helvetica,sans-Serif" font-size="10.00">MethodInfo</text>
</a>
</g>
</g>
<!-- Node16&#45;&gt;Node22 -->
<g id="edge22" class="edge"><title>Node16&#45;&gt;Node22</title>
<path fill="none" stroke="midnightblue" d="M731.293,-482.974C732.938,-481.744 734.512,-480.422 736,-479 778.424,-438.476 730.59,-393.559 772,-352 777.768,-346.211 784.782,-341.742 792.299,-338.297"/>
<polygon fill="midnightblue" stroke="midnightblue" points="729.21,-480.147 722.541,-488.379 732.888,-486.102 729.21,-480.147"/>
</g>
<!-- Node24 -->
<g id="node25" class="node"><title>Node24</title>
<g id="a_node25"><a xlink:href="class_system_1_1_reflection_1_1_emit_1_1_property_builder.html" target="_top" xlink:title="Defines the properties for a type.">
<polygon fill="none" stroke="black" points="574.5,-439 574.5,-469 733.5,-469 733.5,-439 574.5,-439"/>
<text text-anchor="start" x="582.5" y="-457" font-family="Helvetica,sans-Serif" font-size="10.00">System.Reflection.Emit.Property</text>
<text text-anchor="middle" x="654" y="-446" font-family="Helvetica,sans-Serif" font-size="10.00">Builder</text>
</a>
</g>
</g>
<!-- Node23&#45;&gt;Node24 -->
<g id="edge24" class="edge"><title>Node23&#45;&gt;Node24</title>
<path fill="none" stroke="midnightblue" d="M544.805,-454C554.653,-454 564.667,-454 574.427,-454"/>
<polygon fill="midnightblue" stroke="midnightblue" points="544.619,-450.5 534.619,-454 544.619,-457.5 544.619,-450.5"/>
</g>
<!-- Node25 -->
<g id="node26" class="node"><title>Node25</title>
<g id="a_node26"><a xlink:href="class_system_1_1_reflection_1_1_runtime_property_info.html" target="_top" xlink:title=" ">
<polygon fill="none" stroke="black" points="586.5,-390 586.5,-420 721.5,-420 721.5,-390 586.5,-390"/>
<text text-anchor="start" x="594.5" y="-408" font-family="Helvetica,sans-Serif" font-size="10.00">System.Reflection.Runtime</text>
<text text-anchor="middle" x="654" y="-397" font-family="Helvetica,sans-Serif" font-size="10.00">PropertyInfo</text>
</a>
</g>
</g>
<!-- Node23&#45;&gt;Node25 -->
<g id="edge25" class="edge"><title>Node23&#45;&gt;Node25</title>
<path fill="none" stroke="midnightblue" d="M507.666,-441.898C533.686,-435.292 566.139,-427.053 593.773,-420.037"/>
<polygon fill="midnightblue" stroke="midnightblue" points="506.502,-438.583 497.671,-444.436 508.224,-445.367 506.502,-438.583"/>
</g>
<!-- Node27 -->
<g id="node28" class="node"><title>Node27</title>
<g id="a_node28"><a xlink:href="class_system_1_1_reflection_1_1_type_info.html" target="_top" xlink:title="Represents type declarations for class types, interface types, array types, value types,...">
<polygon fill="none" stroke="black" points="586.5,-153.5 586.5,-172.5 721.5,-172.5 721.5,-153.5 586.5,-153.5"/>
<text text-anchor="middle" x="654" y="-160.5" font-family="Helvetica,sans-Serif" font-size="10.00">System.Reflection.TypeInfo</text>
</a>
</g>
</g>
<!-- Node26&#45;&gt;Node27 -->
<g id="edge27" class="edge"><title>Node26&#45;&gt;Node27</title>
<path fill="none" stroke="midnightblue" d="M481.911,-285.333C522.21,-256.518 606.961,-195.919 639.7,-172.51"/>
<polygon fill="midnightblue" stroke="midnightblue" points="479.67,-282.633 473.571,-291.296 483.742,-288.327 479.67,-282.633"/>
</g>
<!-- Node28 -->
<g id="node29" class="node"><title>Node28</title>
<g id="a_node29"><a xlink:href="class_system_1_1_reflection_1_1_emit_1_1_enum_builder.html" target="_top" xlink:title="Describes and represents an enumeration type.">
<polygon fill="none" stroke="black" points="786,-263 786,-293 934,-293 934,-263 786,-263"/>
<text text-anchor="start" x="794" y="-281" font-family="Helvetica,sans-Serif" font-size="10.00">System.Reflection.Emit.Enum</text>
<text text-anchor="middle" x="860" y="-270" font-family="Helvetica,sans-Serif" font-size="10.00">Builder</text>
</a>
</g>
</g>
<!-- Node27&#45;&gt;Node28 -->
<g id="edge28" class="edge"><title>Node27&#45;&gt;Node28</title>
<path fill="none" stroke="midnightblue" d="M672.142,-179.594C693.76,-199.669 732.854,-233.226 772,-253 779.434,-256.755 787.52,-260.028 795.667,-262.855"/>
<polygon fill="midnightblue" stroke="midnightblue" points="674.424,-176.935 664.749,-172.617 669.62,-182.026 674.424,-176.935"/>
</g>
<!-- Node29 -->
<g id="node30" class="node"><title>Node29</title>
<g id="a_node30"><a xlink:href="class_system_1_1_reflection_1_1_emit_1_1_generic_type_parameter_builder.html" target="_top" xlink:title="Defines and creates generic type parameters for dynamically defined generic types and methods....">
<polygon fill="none" stroke="black" points="782,-214 782,-244 938,-244 938,-214 782,-214"/>
<text text-anchor="start" x="790" y="-232" font-family="Helvetica,sans-Serif" font-size="10.00">System.Reflection.Emit.Generic</text>
<text text-anchor="middle" x="860" y="-221" font-family="Helvetica,sans-Serif" font-size="10.00">TypeParameterBuilder</text>
</a>
</g>
</g>
<!-- Node27&#45;&gt;Node29 -->
<g id="edge29" class="edge"><title>Node27&#45;&gt;Node29</title>
<path fill="none" stroke="midnightblue" d="M690.59,-176.067C713.683,-184.398 744.489,-195.235 772,-204 782.482,-207.339 793.736,-210.722 804.557,-213.874"/>
<polygon fill="midnightblue" stroke="midnightblue" points="691.474,-172.664 680.88,-172.548 689.089,-179.246 691.474,-172.664"/>
</g>
<!-- Node30 -->
<g id="node31" class="node"><title>Node30</title>
<g id="a_node31"><a xlink:href="class_system_1_1_reflection_1_1_emit_1_1_symbol_type.html" target="_top" xlink:title=" ">
<polygon fill="none" stroke="black" points="772,-175.5 772,-194.5 948,-194.5 948,-175.5 772,-175.5"/>
<text text-anchor="middle" x="860" y="-182.5" font-family="Helvetica,sans-Serif" font-size="10.00">System.Reflection.Emit.SymbolType</text>
</a>
</g>
</g>
<!-- Node27&#45;&gt;Node30 -->
<g id="edge30" class="edge"><title>Node27&#45;&gt;Node30</title>
<path fill="none" stroke="midnightblue" d="M731.83,-171.286C744.87,-172.692 758.495,-174.161 771.779,-175.594"/>
<polygon fill="midnightblue" stroke="midnightblue" points="731.833,-167.766 721.515,-170.173 731.082,-174.725 731.833,-167.766"/>
</g>
<!-- Node31 -->
<g id="node32" class="node"><title>Node31</title>
<g id="a_node32"><a xlink:href="class_system_1_1_reflection_1_1_emit_1_1_type_builder.html" target="_top" xlink:title="Defines and creates new instances of classes during run time.">
<polygon fill="none" stroke="black" points="788.5,-126 788.5,-156 931.5,-156 931.5,-126 788.5,-126"/>
<text text-anchor="start" x="796.5" y="-144" font-family="Helvetica,sans-Serif" font-size="10.00">System.Reflection.Emit.Type</text>
<text text-anchor="middle" x="860" y="-133" font-family="Helvetica,sans-Serif" font-size="10.00">Builder</text>
</a>
</g>
</g>
<!-- Node27&#45;&gt;Node31 -->
<g id="edge31" class="edge"><title>Node27&#45;&gt;Node31</title>
<path fill="none" stroke="midnightblue" d="M731.701,-154.728C750.287,-152.724 770.07,-150.591 788.362,-148.618"/>
<polygon fill="midnightblue" stroke="midnightblue" points="731.082,-151.275 721.515,-155.827 731.833,-158.234 731.082,-151.275"/>
</g>
<!-- Node32 -->
<g id="node33" class="node"><title>Node32</title>
<g id="a_node33"><a xlink:href="class_system_1_1_reflection_1_1_emit_1_1_type_builder_instantiation.html" target="_top" xlink:title=" ">
<polygon fill="none" stroke="black" points="788.5,-77 788.5,-107 931.5,-107 931.5,-77 788.5,-77"/>
<text text-anchor="start" x="796.5" y="-95" font-family="Helvetica,sans-Serif" font-size="10.00">System.Reflection.Emit.Type</text>
<text text-anchor="middle" x="860" y="-84" font-family="Helvetica,sans-Serif" font-size="10.00">BuilderInstantiation</text>
</a>
</g>
</g>
<!-- Node27&#45;&gt;Node32 -->
<g id="edge32" class="edge"><title>Node27&#45;&gt;Node32</title>
<path fill="none" stroke="midnightblue" d="M686.112,-149.386C709.483,-139.434 742.419,-125.986 772,-116 781.204,-112.893 791.053,-109.883 800.694,-107.106"/>
<polygon fill="midnightblue" stroke="midnightblue" points="684.528,-146.257 676.719,-153.417 687.289,-152.689 684.528,-146.257"/>
</g>
<!-- Node33 -->
<g id="node34" class="node"><title>Node33</title>
<g id="a_node34"><a xlink:href="class_system_1_1_reflection_1_1_type_delegator.html" target="_top" xlink:title="Wraps a T:System.Type object and delegates methods to that Type.">
<polygon fill="none" stroke="black" points="779.5,-38.5 779.5,-57.5 940.5,-57.5 940.5,-38.5 779.5,-38.5"/>
<text text-anchor="middle" x="860" y="-45.5" font-family="Helvetica,sans-Serif" font-size="10.00">System.Reflection.TypeDelegator</text>
</a>
</g>
</g>
<!-- Node27&#45;&gt;Node33 -->
<g id="edge33" class="edge"><title>Node27&#45;&gt;Node33</title>
<path fill="none" stroke="midnightblue" d="M670.731,-145.819C691.682,-124.03 730.902,-86.9067 772,-67 780.07,-63.0911 788.949,-59.9781 797.856,-57.5011"/>
<polygon fill="midnightblue" stroke="midnightblue" points="667.943,-143.674 663.63,-153.351 673.037,-148.476 667.943,-143.674"/>
</g>
<!-- Node34 -->
<g id="node35" class="node"><title>Node34</title>
<g id="a_node35"><a xlink:href="class_system_1_1_runtime_type.html" target="_top" xlink:title=" ">
<polygon fill="none" stroke="black" points="805,-0.5 805,-19.5 915,-19.5 915,-0.5 805,-0.5"/>
<text text-anchor="middle" x="860" y="-7.5" font-family="Helvetica,sans-Serif" font-size="10.00">System.RuntimeType</text>
</a>
</g>
</g>
<!-- Node27&#45;&gt;Node34 -->
<g id="edge34" class="edge"><title>Node27&#45;&gt;Node34</title>
<path fill="none" stroke="midnightblue" d="M665.635,-144.544C683.586,-115.158 722.799,-58.0938 772,-29 781.981,-23.0981 793.581,-19.0236 804.994,-16.2123"/>
<polygon fill="midnightblue" stroke="midnightblue" points="662.49,-142.985 660.379,-153.368 668.504,-146.568 662.49,-142.985"/>
</g>
<!-- Node35 -->
<g id="node36" class="node"><title>Node35</title>
<g id="a_node36"><a xlink:href="class_system_1_1_reflection_only_type.html" target="_top" xlink:title=" ">
<polygon fill="none" stroke="black" points="984,-0.5 984,-19.5 1121,-19.5 1121,-0.5 984,-0.5"/>
<text text-anchor="middle" x="1052.5" y="-7.5" font-family="Helvetica,sans-Serif" font-size="10.00">System.ReflectionOnlyType</text>
</a>
</g>
</g>
<!-- Node34&#45;&gt;Node35 -->
<g id="edge35" class="edge"><title>Node34&#45;&gt;Node35</title>
<path fill="none" stroke="midnightblue" d="M925.312,-10C944.101,-10 964.693,-10 983.691,-10"/>
<polygon fill="midnightblue" stroke="midnightblue" points="925.08,-6.5001 915.08,-10 925.08,-13.5001 925.08,-6.5001"/>
</g>
</g>
</svg>
        <g id="navigator" transform="translate(0 0)" fill="#404254">
                <rect fill="#f2f5e9" fill-opacity="0.5" stroke="#606060" stroke-width=".5" x="0" y="0" width="60" height="60"/>
                <use id="zoomplus" xlink:href="#zoomPlus" x="17" y="9" onmousedown="handleZoom(evt,'in')"/>
                <use id="zoomminus" xlink:href="#zoomMin" x="42" y="9" onmousedown="handleZoom(evt,'out')"/>
                <use id="reset" xlink:href="#resetDef" x="30" y="36" onmousedown="handleReset()"/>
                <g id="arrowUp" xlink:href="#dirArrow" transform="translate(30 24)" onmousedown="handlePan(0,-1)">
                  <use xlink:href="#rim" fill="#404040">
                        <set attributeName="fill" to="#808080" begin="arrowUp.mouseover" end="arrowUp.mouseout"/>
                  </use>
                  <path fill="none" stroke="white" stroke-width="1.5" d="M0,-3.0v7 M-2.5,-0.5L0,-3.0L2.5,-0.5"/>
                </g>
                <g id="arrowRight" xlink:href="#dirArrow" transform="rotate(90) translate(36 -43)" onmousedown="handlePan(1,0)">
                  <use xlink:href="#rim" fill="#404040">
                        <set attributeName="fill" to="#808080" begin="arrowRight.mouseover" end="arrowRight.mouseout"/>
                  </use>
                  <path fill="none" stroke="white" stroke-width="1.5" d="M0,-3.0v7 M-2.5,-0.5L0,-3.0L2.5,-0.5"/>
                </g>
                <g id="arrowDown" xlink:href="#dirArrow" transform="rotate(180) translate(-30 -48)" onmousedown="handlePan(0,1)">
                  <use xlink:href="#rim" fill="#404040">
                        <set attributeName="fill" to="#808080" begin="arrowDown.mouseover" end="arrowDown.mouseout"/>
                  </use>
                  <path fill="none" stroke="white" stroke-width="1.5" d="M0,-3.0v7 M-2.5,-0.5L0,-3.0L2.5,-0.5"/>
                </g>
                <g id="arrowLeft" xlink:href="#dirArrow" transform="rotate(270) translate(-36 17)" onmousedown="handlePan(-1,0)">
                  <use xlink:href="#rim" fill="#404040">
                        <set attributeName="fill" to="#808080" begin="arrowLeft.mouseover" end="arrowLeft.mouseout"/>
                  </use>
                  <path fill="none" stroke="white" stroke-width="1.5" d="M0,-3.0v7 M-2.5,-0.5L0,-3.0L2.5,-0.5"/>
                </g>
        </g>
        <svg viewBox="0 0 15 15" width="100%" height="30px" preserveAspectRatio="xMaxYMin meet">
         <g id="arrow_out" transform="scale(0.3 0.3)">
          <a xlink:href="interface_system_1_1_runtime_1_1_interop_services_1_1___member_info__inherit__graph_org.svg" target="_base">
           <rect id="button" ry="5" rx="5" y="6" x="6" height="38" width="38"
                fill="#f2f5e9" fill-opacity="0.5" stroke="#606060" stroke-width="1.0"/>
           <path id="arrow"
             d="M 11.500037,31.436501 C 11.940474,20.09759 22.043105,11.32322 32.158766,21.979434 L 37.068811,17.246167 C 37.068811,17.246167 37.088388,32 37.088388,32 L 22.160133,31.978069 C 22.160133,31.978069 26.997745,27.140456 26.997745,27.140456 C 18.528582,18.264221 13.291696,25.230495 11.500037,31.436501 z"
             style="fill:#404040;"/>
          </a>
         </g>
        </svg>
</svg>
