<?xml version="1.0" encoding="UTF-8" standalone="no"?>
<!DOCTYPE svg PUBLIC "-//W3C//DTD SVG 1.1//EN"
 "http://www.w3.org/Graphics/SVG/1.1/DTD/svg11.dtd">
<!-- Generated by graphviz version 2.38.0 (20140413.2041)
 -->
<!-- Title: System.Collections.Generic.IReadOnlyCollection&lt; out out T &gt; Pages: 1 -->
<svg width="192pt" height="106pt"
 viewBox="0.00 0.00 191.50 106.00" xmlns="http://www.w3.org/2000/svg" xmlns:xlink="http://www.w3.org/1999/xlink">
<g id="graph0" class="graph" transform="scale(1 1) rotate(0) translate(4 102)">
<title>System.Collections.Generic.IReadOnlyCollection&lt; out out T &gt;</title>
<!-- Node139 -->
<g id="node1" class="node"><title>Node139</title>
<g id="a_node1"><a xlink:title="Represents a strongly&#45;typed, read&#45;only collection of elements.">
<polygon fill="#bfbfbf" stroke="black" points="26.5,-0.5 26.5,-41.5 167.5,-41.5 167.5,-0.5 26.5,-0.5"/>
<text text-anchor="start" x="34.5" y="-29.5" font-family="Helvetica,sans-Serif" font-size="10.00">System.Collections.Generic.</text>
<text text-anchor="start" x="34.5" y="-18.5" font-family="Helvetica,sans-Serif" font-size="10.00">IReadOnlyCollection&lt; out</text>
<text text-anchor="middle" x="97" y="-7.5" font-family="Helvetica,sans-Serif" font-size="10.00"> out T &gt;</text>
</a>
</g>
</g>
<!-- Node140 -->
<g id="node2" class="node"><title>Node140</title>
<g id="a_node2"><a xlink:href="interface_system_1_1_collections_1_1_generic_1_1_i_enumerable.html" target="_top" xlink:title=" ">
<polygon fill="none" stroke="red" points="0,-78.5 0,-97.5 94,-97.5 94,-78.5 0,-78.5"/>
<text text-anchor="middle" x="47" y="-85.5" font-family="Helvetica,sans-Serif" font-size="10.00">IEnumerable&lt; T &gt;</text>
</a>
</g>
</g>
<!-- Node140&#45;&gt;Node139 -->
<g id="edge1" class="edge"><title>Node140&#45;&gt;Node139</title>
<path fill="none" stroke="midnightblue" d="M59.8689,-70.2705C66.6179,-61.4967 74.924,-50.6988 81.9676,-41.5421"/>
<polygon fill="midnightblue" stroke="midnightblue" points="57.0662,-68.1735 53.7432,-78.2338 62.6146,-72.4416 57.0662,-68.1735"/>
</g>
<!-- Node142 -->
<g id="node3" class="node"><title>Node142</title>
<g id="a_node3"><a xlink:href="interface_system_1_1_collections_1_1_i_enumerable.html" target="_top" xlink:title="Exposes an enumerator, which supports a simple iteration over a non&#45;generic collection....">
<polygon fill="none" stroke="black" points="112.5,-78.5 112.5,-97.5 183.5,-97.5 183.5,-78.5 112.5,-78.5"/>
<text text-anchor="middle" x="148" y="-85.5" font-family="Helvetica,sans-Serif" font-size="10.00">IEnumerable</text>
</a>
</g>
</g>
<!-- Node142&#45;&gt;Node139 -->
<g id="edge2" class="edge"><title>Node142&#45;&gt;Node139</title>
<path fill="none" stroke="midnightblue" d="M134.874,-70.2705C127.99,-61.4967 119.518,-50.6988 112.333,-41.5421"/>
<polygon fill="midnightblue" stroke="midnightblue" points="132.195,-72.5269 141.122,-78.2338 137.703,-68.2059 132.195,-72.5269"/>
</g>
</g>
</svg>
