<?xml version="1.0" encoding="UTF-8" standalone="no"?>
<!DOCTYPE svg PUBLIC "-//W3C//DTD SVG 1.1//EN"
 "http://www.w3.org/Graphics/SVG/1.1/DTD/svg11.dtd">
<!-- Generated by graphviz version 2.38.0 (20140413.2041)
 -->
<!-- Title: System.Security.Cryptography.ICryptoTransform Pages: 1 -->
<!--zoomable 549 -->
<svg id="main" version="1.1" xmlns="http://www.w3.org/2000/svg" xmlns:xlink="http://www.w3.org/1999/xlink" xml:space="preserve" onload="init(evt)">
<style type="text/css"><![CDATA[
.edge:hover path { stroke: red; }
.edge:hover polygon { stroke: red; fill: red; }
]]></style>
<script type="text/javascript"><![CDATA[
var edges = document.getElementsByTagName('g');
if (edges && edges.length) {
  for (var i=0;i<edges.length;i++) {
    if (edges[i].id.substr(0,4)=='edge') {
      edges[i].setAttribute('class','edge');
    }
  }
}
]]></script>
        <defs>
                <circle id="rim" cx="0" cy="0" r="7"/>
                <circle id="rim2" cx="0" cy="0" r="3.5"/>
                <g id="zoomPlus">
                        <use xlink:href="#rim" fill="#404040">
                                <set attributeName="fill" to="#808080" begin="zoomplus.mouseover" end="zoomplus.mouseout"/>
                        </use>
                        <path d="M-4,0h8M0,-4v8" fill="none" stroke="white" stroke-width="1.5" pointer-events="none"/>
                </g>
                <g id="zoomMin">
                        <use xlink:href="#rim" fill="#404040">
                                <set attributeName="fill" to="#808080" begin="zoomminus.mouseover" end="zoomminus.mouseout"/>
                        </use>
                        <path d="M-4,0h8" fill="none" stroke="white" stroke-width="1.5" pointer-events="none"/>
                </g>
                <g id="dirArrow">
                        <path fill="none" stroke="white" stroke-width="1.5" d="M0,-3.0v7 M-2.5,-0.5L0,-3.0L2.5,-0.5"/>
                </g>
               <g id="resetDef">
                       <use xlink:href="#rim2" fill="#404040">
                               <set attributeName="fill" to="#808080" begin="reset.mouseover" end="reset.mouseout"/>
                       </use>
               </g>
        </defs>

<script type="text/javascript">
var viewWidth = 1075;
var viewHeight = 549;
var sectionId = 'dynsection-0';
</script>
<script xlink:href="svgpan.js"/>
<svg id="graph" class="graph">
<g id="viewport">
<title>System.Security.Cryptography.ICryptoTransform</title>
<!-- Node0 -->
<g id="node1" class="node"><title>Node0</title>
<g id="a_node1"><a xlink:title="Defines the basic operations of cryptographic transformations.">
<polygon fill="#bfbfbf" stroke="black" points="103,-160.5 103,-190.5 256,-190.5 256,-160.5 103,-160.5"/>
<text text-anchor="start" x="111" y="-178.5" font-family="Helvetica,sans-Serif" font-size="10.00">System.Security.Cryptography.</text>
<text text-anchor="middle" x="179.5" y="-167.5" font-family="Helvetica,sans-Serif" font-size="10.00">ICryptoTransform</text>
</a>
</g>
</g>
<!-- Node2 -->
<g id="node3" class="node"><title>Node2</title>
<g id="a_node3"><a xlink:href="class_system_1_1_security_1_1_cryptography_1_1_crypto_a_p_i_transform.html" target="_top" xlink:title="Performs a cryptographic transformation of data. This class cannot be inherited.">
<polygon fill="none" stroke="black" points="292,-258.5 292,-288.5 445,-288.5 445,-258.5 292,-258.5"/>
<text text-anchor="start" x="300" y="-276.5" font-family="Helvetica,sans-Serif" font-size="10.00">System.Security.Cryptography.</text>
<text text-anchor="middle" x="368.5" y="-265.5" font-family="Helvetica,sans-Serif" font-size="10.00">CryptoAPITransform</text>
</a>
</g>
</g>
<!-- Node0&#45;&gt;Node2 -->
<g id="edge2" class="edge"><title>Node0&#45;&gt;Node2</title>
<path fill="none" stroke="midnightblue" d="M208.267,-196.618C230.124,-212.498 261.832,-233.938 292,-248.5 299.585,-252.161 307.842,-255.497 316.02,-258.455"/>
<polygon fill="midnightblue" stroke="midnightblue" points="210.24,-193.723 200.11,-190.616 206.091,-199.362 210.24,-193.723"/>
</g>
<!-- Node3 -->
<g id="node4" class="node"><title>Node3</title>
<g id="a_node4"><a xlink:href="class_system_1_1_security_1_1_cryptography_1_1_from_base64_transform.html" target="_top" xlink:title="Converts a T:System.Security.Cryptography.CryptoStream from base 64.">
<polygon fill="none" stroke="black" points="292,-209.5 292,-239.5 445,-239.5 445,-209.5 292,-209.5"/>
<text text-anchor="start" x="300" y="-227.5" font-family="Helvetica,sans-Serif" font-size="10.00">System.Security.Cryptography.</text>
<text text-anchor="middle" x="368.5" y="-216.5" font-family="Helvetica,sans-Serif" font-size="10.00">FromBase64Transform</text>
</a>
</g>
</g>
<!-- Node0&#45;&gt;Node3 -->
<g id="edge3" class="edge"><title>Node0&#45;&gt;Node3</title>
<path fill="none" stroke="midnightblue" d="M247.755,-193.123C268.213,-198.484 290.496,-204.323 310.231,-209.494"/>
<polygon fill="midnightblue" stroke="midnightblue" points="248.438,-189.684 237.877,-190.535 246.663,-196.455 248.438,-189.684"/>
</g>
<!-- Node4 -->
<g id="node5" class="node"><title>Node4</title>
<g id="a_node5"><a xlink:href="class_system_1_1_security_1_1_cryptography_1_1_hash_algorithm.html" target="_top" xlink:title="Represents the base class from which all implementations of cryptographic hash algorithms must derive...">
<polygon fill="none" stroke="black" points="292,-160.5 292,-190.5 445,-190.5 445,-160.5 292,-160.5"/>
<text text-anchor="start" x="300" y="-178.5" font-family="Helvetica,sans-Serif" font-size="10.00">System.Security.Cryptography.</text>
<text text-anchor="middle" x="368.5" y="-167.5" font-family="Helvetica,sans-Serif" font-size="10.00">HashAlgorithm</text>
</a>
</g>
</g>
<!-- Node0&#45;&gt;Node4 -->
<g id="edge4" class="edge"><title>Node0&#45;&gt;Node4</title>
<path fill="none" stroke="midnightblue" d="M266.298,-175.5C274.773,-175.5 283.333,-175.5 291.697,-175.5"/>
<polygon fill="midnightblue" stroke="midnightblue" points="266.021,-172 256.021,-175.5 266.021,-179 266.021,-172"/>
</g>
<!-- Node27 -->
<g id="node28" class="node"><title>Node27</title>
<g id="a_node28"><a xlink:href="class_system_1_1_security_1_1_cryptography_1_1_rijndael_managed_transform.html" target="_top" xlink:title="Performs a cryptographic transformation of data using the Rijndael algorithm. This class cannot be in...">
<polygon fill="none" stroke="black" points="292,-111.5 292,-141.5 445,-141.5 445,-111.5 292,-111.5"/>
<text text-anchor="start" x="300" y="-129.5" font-family="Helvetica,sans-Serif" font-size="10.00">System.Security.Cryptography.</text>
<text text-anchor="middle" x="368.5" y="-118.5" font-family="Helvetica,sans-Serif" font-size="10.00">RijndaelManagedTransform</text>
</a>
</g>
</g>
<!-- Node0&#45;&gt;Node27 -->
<g id="edge27" class="edge"><title>Node0&#45;&gt;Node27</title>
<path fill="none" stroke="midnightblue" d="M247.755,-157.877C268.213,-152.516 290.496,-146.677 310.231,-141.506"/>
<polygon fill="midnightblue" stroke="midnightblue" points="246.663,-154.545 237.877,-160.465 248.438,-161.316 246.663,-154.545"/>
</g>
<!-- Node28 -->
<g id="node29" class="node"><title>Node28</title>
<g id="a_node29"><a xlink:href="class_system_1_1_security_1_1_cryptography_1_1_to_base64_transform.html" target="_top" xlink:title="Converts a T:System.Security.Cryptography.CryptoStream to base 64.">
<polygon fill="none" stroke="black" points="292,-62.5 292,-92.5 445,-92.5 445,-62.5 292,-62.5"/>
<text text-anchor="start" x="300" y="-80.5" font-family="Helvetica,sans-Serif" font-size="10.00">System.Security.Cryptography.</text>
<text text-anchor="middle" x="368.5" y="-69.5" font-family="Helvetica,sans-Serif" font-size="10.00">ToBase64Transform</text>
</a>
</g>
</g>
<!-- Node0&#45;&gt;Node28 -->
<g id="edge28" class="edge"><title>Node0&#45;&gt;Node28</title>
<path fill="none" stroke="midnightblue" d="M207.775,-154.26C229.593,-138.064 261.481,-116.124 292,-101.5 298.822,-98.2311 306.197,-95.259 313.574,-92.607"/>
<polygon fill="midnightblue" stroke="midnightblue" points="205.533,-151.567 199.646,-160.376 209.741,-157.161 205.533,-151.567"/>
</g>
<!-- Node1 -->
<g id="node2" class="node"><title>Node1</title>
<g id="a_node2"><a xlink:href="interface_system_1_1_i_disposable.html" target="_top" xlink:title="Provides a mechanism for releasing unmanaged resources.To browse the .NET Framework source code for t...">
<polygon fill="none" stroke="black" points="0,-166 0,-185 67,-185 67,-166 0,-166"/>
<text text-anchor="middle" x="33.5" y="-173" font-family="Helvetica,sans-Serif" font-size="10.00">IDisposable</text>
</a>
</g>
</g>
<!-- Node1&#45;&gt;Node0 -->
<g id="edge1" class="edge"><title>Node1&#45;&gt;Node0</title>
<path fill="none" stroke="midnightblue" d="M77.3832,-175.5C85.4367,-175.5 94.0747,-175.5 102.785,-175.5"/>
<polygon fill="midnightblue" stroke="midnightblue" points="77.1759,-172 67.1758,-175.5 77.1758,-179 77.1759,-172"/>
</g>
<!-- Node5 -->
<g id="node6" class="node"><title>Node5</title>
<g id="a_node6"><a xlink:href="class_system_1_1_security_1_1_cryptography_1_1_keyed_hash_algorithm.html" target="_top" xlink:title="Represents the abstract class from which all implementations of keyed hash algorithms must derive.">
<polygon fill="none" stroke="black" points="494,-343.5 494,-373.5 647,-373.5 647,-343.5 494,-343.5"/>
<text text-anchor="start" x="502" y="-361.5" font-family="Helvetica,sans-Serif" font-size="10.00">System.Security.Cryptography.</text>
<text text-anchor="middle" x="570.5" y="-350.5" font-family="Helvetica,sans-Serif" font-size="10.00">KeyedHashAlgorithm</text>
</a>
</g>
</g>
<!-- Node4&#45;&gt;Node5 -->
<g id="edge5" class="edge"><title>Node4&#45;&gt;Node5</title>
<path fill="none" stroke="midnightblue" d="M442.017,-196.742C443.047,-197.624 444.042,-198.543 445,-199.5 482.283,-236.759 447.046,-272.184 481,-312.5 492.489,-326.142 509.06,-336.253 524.763,-343.466"/>
<polygon fill="midnightblue" stroke="midnightblue" points="443.707,-193.647 433.539,-190.669 439.631,-199.337 443.707,-193.647"/>
</g>
<!-- Node14 -->
<g id="node15" class="node"><title>Node14</title>
<g id="a_node15"><a xlink:href="class_system_1_1_security_1_1_cryptography_1_1_m_d5.html" target="_top" xlink:title="Represents the abstract class from which all implementations of the T:System.Security....">
<polygon fill="none" stroke="black" points="484,-284 484,-303 657,-303 657,-284 484,-284"/>
<text text-anchor="middle" x="570.5" y="-291" font-family="Helvetica,sans-Serif" font-size="10.00">System.Security.Cryptography.MD5</text>
</a>
</g>
</g>
<!-- Node4&#45;&gt;Node14 -->
<g id="edge14" class="edge"><title>Node4&#45;&gt;Node14</title>
<path fill="none" stroke="midnightblue" d="M439.343,-195.518C441.3,-196.767 443.192,-198.093 445,-199.5 468.939,-218.139 457.811,-237.936 481,-257.5 495.579,-269.801 514.919,-278.315 531.8,-283.962"/>
<polygon fill="midnightblue" stroke="midnightblue" points="440.832,-192.341 430.395,-190.52 437.419,-198.452 440.832,-192.341"/>
</g>
<!-- Node16 -->
<g id="node17" class="node"><title>Node16</title>
<g id="a_node17"><a xlink:href="class_system_1_1_security_1_1_cryptography_1_1_r_i_p_e_m_d160.html" target="_top" xlink:title="Represents the abstract class from which all implementations of the MD160 hash algorithm inherit.">
<polygon fill="none" stroke="black" points="494,-218.5 494,-248.5 647,-248.5 647,-218.5 494,-218.5"/>
<text text-anchor="start" x="502" y="-236.5" font-family="Helvetica,sans-Serif" font-size="10.00">System.Security.Cryptography.</text>
<text text-anchor="middle" x="570.5" y="-225.5" font-family="Helvetica,sans-Serif" font-size="10.00">RIPEMD160</text>
</a>
</g>
</g>
<!-- Node4&#45;&gt;Node16 -->
<g id="edge16" class="edge"><title>Node4&#45;&gt;Node16</title>
<path fill="none" stroke="midnightblue" d="M430.871,-193.297C458.629,-201.348 491.081,-210.758 517.605,-218.45"/>
<polygon fill="midnightblue" stroke="midnightblue" points="431.844,-189.936 421.265,-190.512 429.895,-196.659 431.844,-189.936"/>
</g>
<!-- Node18 -->
<g id="node19" class="node"><title>Node18</title>
<g id="a_node19"><a xlink:href="class_system_1_1_security_1_1_cryptography_1_1_s_h_a1.html" target="_top" xlink:title="Computes the T:System.Security.Cryptography.SHA1 hash for the input data.">
<polygon fill="none" stroke="black" points="481,-166 481,-185 660,-185 660,-166 481,-166"/>
<text text-anchor="middle" x="570.5" y="-173" font-family="Helvetica,sans-Serif" font-size="10.00">System.Security.Cryptography.SHA1</text>
</a>
</g>
</g>
<!-- Node4&#45;&gt;Node18 -->
<g id="edge18" class="edge"><title>Node4&#45;&gt;Node18</title>
<path fill="none" stroke="midnightblue" d="M455.284,-175.5C463.694,-175.5 472.24,-175.5 480.678,-175.5"/>
<polygon fill="midnightblue" stroke="midnightblue" points="455.111,-172 445.111,-175.5 455.111,-179 455.111,-172"/>
</g>
<!-- Node21 -->
<g id="node22" class="node"><title>Node21</title>
<g id="a_node22"><a xlink:href="class_system_1_1_security_1_1_cryptography_1_1_s_h_a256.html" target="_top" xlink:title="Computes the T:System.Security.Cryptography.SHA256 hash for the input data.">
<polygon fill="none" stroke="black" points="494,-115.5 494,-145.5 647,-145.5 647,-115.5 494,-115.5"/>
<text text-anchor="start" x="502" y="-133.5" font-family="Helvetica,sans-Serif" font-size="10.00">System.Security.Cryptography.</text>
<text text-anchor="middle" x="570.5" y="-122.5" font-family="Helvetica,sans-Serif" font-size="10.00">SHA256</text>
</a>
</g>
</g>
<!-- Node4&#45;&gt;Node21 -->
<g id="edge21" class="edge"><title>Node4&#45;&gt;Node21</title>
<path fill="none" stroke="midnightblue" d="M446.274,-158.226C464.868,-154.042 484.595,-149.604 502.688,-145.533"/>
<polygon fill="midnightblue" stroke="midnightblue" points="445.363,-154.843 436.375,-160.453 446.9,-161.673 445.363,-154.843"/>
</g>
<!-- Node23 -->
<g id="node24" class="node"><title>Node23</title>
<g id="a_node24"><a xlink:href="class_system_1_1_security_1_1_cryptography_1_1_s_h_a384.html" target="_top" xlink:title="Computes the T:System.Security.Cryptography.SHA384 hash for the input data.">
<polygon fill="none" stroke="black" points="494,-65.5 494,-95.5 647,-95.5 647,-65.5 494,-65.5"/>
<text text-anchor="start" x="502" y="-83.5" font-family="Helvetica,sans-Serif" font-size="10.00">System.Security.Cryptography.</text>
<text text-anchor="middle" x="570.5" y="-72.5" font-family="Helvetica,sans-Serif" font-size="10.00">SHA384</text>
</a>
</g>
</g>
<!-- Node4&#45;&gt;Node23 -->
<g id="edge23" class="edge"><title>Node4&#45;&gt;Node23</title>
<path fill="none" stroke="midnightblue" d="M435.96,-156.038C439.103,-154.335 442.136,-152.492 445,-150.5 466.024,-135.871 459.656,-119.658 481,-105.5 486.854,-101.617 493.31,-98.3299 499.989,-95.5491"/>
<polygon fill="midnightblue" stroke="midnightblue" points="434.319,-152.945 426.868,-160.477 437.389,-159.235 434.319,-152.945"/>
</g>
<!-- Node25 -->
<g id="node26" class="node"><title>Node25</title>
<g id="a_node26"><a xlink:href="class_system_1_1_security_1_1_cryptography_1_1_s_h_a512.html" target="_top" xlink:title="Computes the T:System.Security.Cryptography.SHA512 hash for the input data.">
<polygon fill="none" stroke="black" points="494,-14.5 494,-44.5 647,-44.5 647,-14.5 494,-14.5"/>
<text text-anchor="start" x="502" y="-32.5" font-family="Helvetica,sans-Serif" font-size="10.00">System.Security.Cryptography.</text>
<text text-anchor="middle" x="570.5" y="-21.5" font-family="Helvetica,sans-Serif" font-size="10.00">SHA512</text>
</a>
</g>
</g>
<!-- Node4&#45;&gt;Node25 -->
<g id="edge25" class="edge"><title>Node4&#45;&gt;Node25</title>
<path fill="none" stroke="midnightblue" d="M440.277,-154.558C441.925,-153.284 443.505,-151.933 445,-150.5 477.598,-119.258 447.875,-86.1834 481,-55.5 485.582,-51.2559 490.822,-47.7015 496.412,-44.7251"/>
<polygon fill="midnightblue" stroke="midnightblue" points="437.967,-151.887 431.53,-160.302 441.81,-157.738 437.967,-151.887"/>
</g>
<!-- Node6 -->
<g id="node7" class="node"><title>Node6</title>
<g id="a_node7"><a xlink:href="class_system_1_1_security_1_1_cryptography_1_1_h_m_a_c.html" target="_top" xlink:title="Represents the abstract class from which all implementations of Hash&#45;based Message Authentication Cod...">
<polygon fill="none" stroke="black" points="696,-393 696,-412 878,-412 878,-393 696,-393"/>
<text text-anchor="middle" x="787" y="-400" font-family="Helvetica,sans-Serif" font-size="10.00">System.Security.Cryptography.HMAC</text>
</a>
</g>
</g>
<!-- Node5&#45;&gt;Node6 -->
<g id="edge6" class="edge"><title>Node5&#45;&gt;Node6</title>
<path fill="none" stroke="midnightblue" d="M654.795,-375.586C683.611,-381.497 714.857,-387.907 739.627,-392.988"/>
<polygon fill="midnightblue" stroke="midnightblue" points="655.218,-372.1 644.719,-373.519 653.811,-378.957 655.218,-372.1"/>
</g>
<!-- Node13 -->
<g id="node14" class="node"><title>Node13</title>
<g id="a_node14"><a xlink:href="class_system_1_1_security_1_1_cryptography_1_1_m_a_c_triple_d_e_s.html" target="_top" xlink:title="Computes a Message Authentication Code (MAC) using T:System.Security.Cryptography....">
<polygon fill="none" stroke="black" points="710.5,-343.5 710.5,-373.5 863.5,-373.5 863.5,-343.5 710.5,-343.5"/>
<text text-anchor="start" x="718.5" y="-361.5" font-family="Helvetica,sans-Serif" font-size="10.00">System.Security.Cryptography.</text>
<text text-anchor="middle" x="787" y="-350.5" font-family="Helvetica,sans-Serif" font-size="10.00">MACTripleDES</text>
</a>
</g>
</g>
<!-- Node5&#45;&gt;Node13 -->
<g id="edge13" class="edge"><title>Node5&#45;&gt;Node13</title>
<path fill="none" stroke="midnightblue" d="M657.339,-358.5C674.868,-358.5 693.193,-358.5 710.335,-358.5"/>
<polygon fill="midnightblue" stroke="midnightblue" points="657.125,-355 647.125,-358.5 657.125,-362 657.125,-355"/>
</g>
<!-- Node7 -->
<g id="node8" class="node"><title>Node7</title>
<g id="a_node8"><a xlink:href="class_system_1_1_security_1_1_cryptography_1_1_h_m_a_c_m_d5.html" target="_top" xlink:title="Computes a Hash&#45;based Message Authentication Code (HMAC) by using the T:System.Security....">
<polygon fill="none" stroke="black" points="914,-510.5 914,-540.5 1067,-540.5 1067,-510.5 914,-510.5"/>
<text text-anchor="start" x="922" y="-528.5" font-family="Helvetica,sans-Serif" font-size="10.00">System.Security.Cryptography.</text>
<text text-anchor="middle" x="990.5" y="-517.5" font-family="Helvetica,sans-Serif" font-size="10.00">HMACMD5</text>
</a>
</g>
</g>
<!-- Node6&#45;&gt;Node7 -->
<g id="edge7" class="edge"><title>Node6&#45;&gt;Node7</title>
<path fill="none" stroke="midnightblue" d="M805.236,-419.073C828.327,-440.492 871.357,-477.733 914,-500.5 920.943,-504.207 928.537,-507.502 936.148,-510.386"/>
<polygon fill="midnightblue" stroke="midnightblue" points="807.616,-416.506 797.933,-412.206 802.82,-421.606 807.616,-416.506"/>
</g>
<!-- Node8 -->
<g id="node9" class="node"><title>Node8</title>
<g id="a_node9"><a xlink:href="class_system_1_1_security_1_1_cryptography_1_1_h_m_a_c_r_i_p_e_m_d160.html" target="_top" xlink:title="Computes a Hash&#45;based Message Authentication Code (HMAC) by using the T:System.Security....">
<polygon fill="none" stroke="black" points="914,-461.5 914,-491.5 1067,-491.5 1067,-461.5 914,-461.5"/>
<text text-anchor="start" x="922" y="-479.5" font-family="Helvetica,sans-Serif" font-size="10.00">System.Security.Cryptography.</text>
<text text-anchor="middle" x="990.5" y="-468.5" font-family="Helvetica,sans-Serif" font-size="10.00">HMACRIPEMD160</text>
</a>
</g>
</g>
<!-- Node6&#45;&gt;Node8 -->
<g id="edge8" class="edge"><title>Node6&#45;&gt;Node8</title>
<path fill="none" stroke="midnightblue" d="M821.041,-415.882C846.356,-426.005 882.22,-440.067 914,-451.5 923.225,-454.818 933.14,-458.219 942.653,-461.401"/>
<polygon fill="midnightblue" stroke="midnightblue" points="822.136,-412.55 811.551,-412.074 819.529,-419.047 822.136,-412.55"/>
</g>
<!-- Node9 -->
<g id="node10" class="node"><title>Node9</title>
<g id="a_node10"><a xlink:href="class_system_1_1_security_1_1_cryptography_1_1_h_m_a_c_s_h_a1.html" target="_top" xlink:title="Computes a Hash&#45;based Message Authentication Code (HMAC) using the T:System.Security....">
<polygon fill="none" stroke="black" points="914,-412.5 914,-442.5 1067,-442.5 1067,-412.5 914,-412.5"/>
<text text-anchor="start" x="922" y="-430.5" font-family="Helvetica,sans-Serif" font-size="10.00">System.Security.Cryptography.</text>
<text text-anchor="middle" x="990.5" y="-419.5" font-family="Helvetica,sans-Serif" font-size="10.00">HMACSHA1</text>
</a>
</g>
</g>
<!-- Node6&#45;&gt;Node9 -->
<g id="edge9" class="edge"><title>Node6&#45;&gt;Node9</title>
<path fill="none" stroke="midnightblue" d="M875.058,-413.301C888.01,-414.908 901.27,-416.553 913.959,-418.128"/>
<polygon fill="midnightblue" stroke="midnightblue" points="875.108,-409.781 864.753,-412.023 874.246,-416.727 875.108,-409.781"/>
</g>
<!-- Node10 -->
<g id="node11" class="node"><title>Node10</title>
<g id="a_node11"><a xlink:href="class_system_1_1_security_1_1_cryptography_1_1_h_m_a_c_s_h_a256.html" target="_top" xlink:title="Computes a Hash&#45;based Message Authentication Code (HMAC) by using the T:System.Security....">
<polygon fill="none" stroke="black" points="914,-363.5 914,-393.5 1067,-393.5 1067,-363.5 914,-363.5"/>
<text text-anchor="start" x="922" y="-381.5" font-family="Helvetica,sans-Serif" font-size="10.00">System.Security.Cryptography.</text>
<text text-anchor="middle" x="990.5" y="-370.5" font-family="Helvetica,sans-Serif" font-size="10.00">HMACSHA256</text>
</a>
</g>
</g>
<!-- Node6&#45;&gt;Node10 -->
<g id="edge10" class="edge"><title>Node6&#45;&gt;Node10</title>
<path fill="none" stroke="midnightblue" d="M877.958,-391.785C889.974,-390.354 902.198,-388.898 913.935,-387.5"/>
<polygon fill="midnightblue" stroke="midnightblue" points="877.443,-388.322 867.928,-392.98 878.271,-395.273 877.443,-388.322"/>
</g>
<!-- Node11 -->
<g id="node12" class="node"><title>Node11</title>
<g id="a_node12"><a xlink:href="class_system_1_1_security_1_1_cryptography_1_1_h_m_a_c_s_h_a384.html" target="_top" xlink:title="Computes a Hash&#45;based Message Authentication Code (HMAC) using the T:System.Security....">
<polygon fill="none" stroke="black" points="914,-314.5 914,-344.5 1067,-344.5 1067,-314.5 914,-314.5"/>
<text text-anchor="start" x="922" y="-332.5" font-family="Helvetica,sans-Serif" font-size="10.00">System.Security.Cryptography.</text>
<text text-anchor="middle" x="990.5" y="-321.5" font-family="Helvetica,sans-Serif" font-size="10.00">HMACSHA384</text>
</a>
</g>
</g>
<!-- Node6&#45;&gt;Node11 -->
<g id="edge11" class="edge"><title>Node6&#45;&gt;Node11</title>
<path fill="none" stroke="midnightblue" d="M858.672,-390.098C865.348,-387.95 871.895,-385.437 878,-382.5 896.515,-373.593 895.901,-363.223 914,-353.5 920.179,-350.181 926.893,-347.231 933.683,-344.636"/>
<polygon fill="midnightblue" stroke="midnightblue" points="857.442,-386.812 848.836,-392.992 859.418,-393.527 857.442,-386.812"/>
</g>
<!-- Node12 -->
<g id="node13" class="node"><title>Node12</title>
<g id="a_node13"><a xlink:href="class_system_1_1_security_1_1_cryptography_1_1_h_m_a_c_s_h_a512.html" target="_top" xlink:title="Computes a Hash&#45;based Message Authentication Code (HMAC) using the T:System.Security....">
<polygon fill="none" stroke="black" points="914,-265.5 914,-295.5 1067,-295.5 1067,-265.5 914,-265.5"/>
<text text-anchor="start" x="922" y="-283.5" font-family="Helvetica,sans-Serif" font-size="10.00">System.Security.Cryptography.</text>
<text text-anchor="middle" x="990.5" y="-272.5" font-family="Helvetica,sans-Serif" font-size="10.00">HMACSHA512</text>
</a>
</g>
</g>
<!-- Node6&#45;&gt;Node12 -->
<g id="edge12" class="edge"><title>Node6&#45;&gt;Node12</title>
<path fill="none" stroke="midnightblue" d="M869.177,-388.499C872.278,-386.719 875.237,-384.727 878,-382.5 907.724,-358.536 885.373,-329.764 914,-304.5 917.919,-301.042 922.338,-298.081 927.022,-295.547"/>
<polygon fill="midnightblue" stroke="midnightblue" points="867.526,-385.411 860.107,-392.975 870.624,-391.688 867.526,-385.411"/>
</g>
<!-- Node15 -->
<g id="node16" class="node"><title>Node15</title>
<g id="a_node16"><a xlink:href="class_system_1_1_security_1_1_cryptography_1_1_m_d5_crypto_service_provider.html" target="_top" xlink:title="Computes the T:System.Security.Cryptography.MD5 hash value for the input data using the implementatio...">
<polygon fill="none" stroke="black" points="710.5,-294.5 710.5,-324.5 863.5,-324.5 863.5,-294.5 710.5,-294.5"/>
<text text-anchor="start" x="718.5" y="-312.5" font-family="Helvetica,sans-Serif" font-size="10.00">System.Security.Cryptography.</text>
<text text-anchor="middle" x="787" y="-301.5" font-family="Helvetica,sans-Serif" font-size="10.00">MD5CryptoServiceProvider</text>
</a>
</g>
</g>
<!-- Node14&#45;&gt;Node15 -->
<g id="edge15" class="edge"><title>Node14&#45;&gt;Node15</title>
<path fill="none" stroke="midnightblue" d="M667.185,-300.637C681.69,-301.719 696.482,-302.823 710.481,-303.867"/>
<polygon fill="midnightblue" stroke="midnightblue" points="667.434,-297.146 657.201,-299.893 666.913,-304.127 667.434,-297.146"/>
</g>
<!-- Node17 -->
<g id="node18" class="node"><title>Node17</title>
<g id="a_node18"><a xlink:href="class_system_1_1_security_1_1_cryptography_1_1_r_i_p_e_m_d160_managed.html" target="_top" xlink:title="Computes the T:System.Security.Cryptography.RIPEMD160 hash for the input data using the managed libra...">
<polygon fill="none" stroke="black" points="710.5,-245.5 710.5,-275.5 863.5,-275.5 863.5,-245.5 710.5,-245.5"/>
<text text-anchor="start" x="718.5" y="-263.5" font-family="Helvetica,sans-Serif" font-size="10.00">System.Security.Cryptography.</text>
<text text-anchor="middle" x="787" y="-252.5" font-family="Helvetica,sans-Serif" font-size="10.00">RIPEMD160Managed</text>
</a>
</g>
</g>
<!-- Node16&#45;&gt;Node17 -->
<g id="edge17" class="edge"><title>Node16&#45;&gt;Node17</title>
<path fill="none" stroke="midnightblue" d="M657.339,-244.305C674.868,-246.511 693.193,-248.818 710.335,-250.976"/>
<polygon fill="midnightblue" stroke="midnightblue" points="657.484,-240.796 647.125,-243.019 656.609,-247.741 657.484,-240.796"/>
</g>
<!-- Node19 -->
<g id="node20" class="node"><title>Node19</title>
<g id="a_node20"><a xlink:href="class_system_1_1_security_1_1_cryptography_1_1_s_h_a1_crypto_service_provider.html" target="_top" xlink:title="Computes the T:System.Security.Cryptography.SHA1 hash value for the input data using the implementati...">
<polygon fill="none" stroke="black" points="710.5,-196.5 710.5,-226.5 863.5,-226.5 863.5,-196.5 710.5,-196.5"/>
<text text-anchor="start" x="718.5" y="-214.5" font-family="Helvetica,sans-Serif" font-size="10.00">System.Security.Cryptography.</text>
<text text-anchor="middle" x="787" y="-203.5" font-family="Helvetica,sans-Serif" font-size="10.00">SHA1CryptoServiceProvider</text>
</a>
</g>
</g>
<!-- Node18&#45;&gt;Node19 -->
<g id="edge19" class="edge"><title>Node18&#45;&gt;Node19</title>
<path fill="none" stroke="midnightblue" d="M638.106,-186.679C661.028,-190.526 686.857,-194.861 710.44,-198.819"/>
<polygon fill="midnightblue" stroke="midnightblue" points="638.579,-183.209 628.138,-185.006 637.421,-190.113 638.579,-183.209"/>
</g>
<!-- Node20 -->
<g id="node21" class="node"><title>Node20</title>
<g id="a_node21"><a xlink:href="class_system_1_1_security_1_1_cryptography_1_1_s_h_a1_managed.html" target="_top" xlink:title="Computes the T:System.Security.Cryptography.SHA1 hash for the input data using the managed library.">
<polygon fill="none" stroke="black" points="710.5,-147.5 710.5,-177.5 863.5,-177.5 863.5,-147.5 710.5,-147.5"/>
<text text-anchor="start" x="718.5" y="-165.5" font-family="Helvetica,sans-Serif" font-size="10.00">System.Security.Cryptography.</text>
<text text-anchor="middle" x="787" y="-154.5" font-family="Helvetica,sans-Serif" font-size="10.00">SHA1Managed</text>
</a>
</g>
</g>
<!-- Node18&#45;&gt;Node20 -->
<g id="edge20" class="edge"><title>Node18&#45;&gt;Node20</title>
<path fill="none" stroke="midnightblue" d="M670.469,-169.502C683.837,-168.692 697.377,-167.871 710.253,-167.091"/>
<polygon fill="midnightblue" stroke="midnightblue" points="670.064,-166.02 660.294,-170.119 670.487,-173.007 670.064,-166.02"/>
</g>
<!-- Node22 -->
<g id="node23" class="node"><title>Node22</title>
<g id="a_node23"><a xlink:href="class_system_1_1_security_1_1_cryptography_1_1_s_h_a256_managed.html" target="_top" xlink:title="Computes the T:System.Security.Cryptography.SHA256 hash for the input data using the managed library.">
<polygon fill="none" stroke="black" points="710.5,-98.5 710.5,-128.5 863.5,-128.5 863.5,-98.5 710.5,-98.5"/>
<text text-anchor="start" x="718.5" y="-116.5" font-family="Helvetica,sans-Serif" font-size="10.00">System.Security.Cryptography.</text>
<text text-anchor="middle" x="787" y="-105.5" font-family="Helvetica,sans-Serif" font-size="10.00">SHA256Managed</text>
</a>
</g>
</g>
<!-- Node21&#45;&gt;Node22 -->
<g id="edge22" class="edge"><title>Node21&#45;&gt;Node22</title>
<path fill="none" stroke="midnightblue" d="M657.339,-123.697C674.868,-122.308 693.193,-120.855 710.335,-119.497"/>
<polygon fill="midnightblue" stroke="midnightblue" points="656.817,-120.227 647.125,-124.506 657.37,-127.205 656.817,-120.227"/>
</g>
<!-- Node24 -->
<g id="node25" class="node"><title>Node24</title>
<g id="a_node25"><a xlink:href="class_system_1_1_security_1_1_cryptography_1_1_s_h_a384_managed.html" target="_top" xlink:title="Computes the T:System.Security.Cryptography.SHA384 hash for the input data using the managed library.">
<polygon fill="none" stroke="black" points="710.5,-49.5 710.5,-79.5 863.5,-79.5 863.5,-49.5 710.5,-49.5"/>
<text text-anchor="start" x="718.5" y="-67.5" font-family="Helvetica,sans-Serif" font-size="10.00">System.Security.Cryptography.</text>
<text text-anchor="middle" x="787" y="-56.5" font-family="Helvetica,sans-Serif" font-size="10.00">SHA384Managed</text>
</a>
</g>
</g>
<!-- Node23&#45;&gt;Node24 -->
<g id="edge24" class="edge"><title>Node23&#45;&gt;Node24</title>
<path fill="none" stroke="midnightblue" d="M657.339,-74.0971C674.868,-72.7896 693.193,-71.4227 710.335,-70.144"/>
<polygon fill="midnightblue" stroke="midnightblue" points="656.837,-70.6248 647.125,-74.859 657.357,-77.6054 656.837,-70.6248"/>
</g>
<!-- Node26 -->
<g id="node27" class="node"><title>Node26</title>
<g id="a_node27"><a xlink:href="class_system_1_1_security_1_1_cryptography_1_1_s_h_a512_managed.html" target="_top" xlink:title="Computes the T:System.Security.Cryptography.SHA512 hash algorithm for the input data using the manage...">
<polygon fill="none" stroke="black" points="710.5,-0.5 710.5,-30.5 863.5,-30.5 863.5,-0.5 710.5,-0.5"/>
<text text-anchor="start" x="718.5" y="-18.5" font-family="Helvetica,sans-Serif" font-size="10.00">System.Security.Cryptography.</text>
<text text-anchor="middle" x="787" y="-7.5" font-family="Helvetica,sans-Serif" font-size="10.00">SHA512Managed</text>
</a>
</g>
</g>
<!-- Node25&#45;&gt;Node26 -->
<g id="edge26" class="edge"><title>Node25&#45;&gt;Node26</title>
<path fill="none" stroke="midnightblue" d="M657.339,-23.8975C674.868,-22.7534 693.193,-21.5574 710.335,-20.4385"/>
<polygon fill="midnightblue" stroke="midnightblue" points="656.875,-20.4202 647.125,-24.5641 657.331,-27.4053 656.875,-20.4202"/>
</g>
</g>
</svg>
        <g id="navigator" transform="translate(0 0)" fill="#404254">
                <rect fill="#f2f5e9" fill-opacity="0.5" stroke="#606060" stroke-width=".5" x="0" y="0" width="60" height="60"/>
                <use id="zoomplus" xlink:href="#zoomPlus" x="17" y="9" onmousedown="handleZoom(evt,'in')"/>
                <use id="zoomminus" xlink:href="#zoomMin" x="42" y="9" onmousedown="handleZoom(evt,'out')"/>
                <use id="reset" xlink:href="#resetDef" x="30" y="36" onmousedown="handleReset()"/>
                <g id="arrowUp" xlink:href="#dirArrow" transform="translate(30 24)" onmousedown="handlePan(0,-1)">
                  <use xlink:href="#rim" fill="#404040">
                        <set attributeName="fill" to="#808080" begin="arrowUp.mouseover" end="arrowUp.mouseout"/>
                  </use>
                  <path fill="none" stroke="white" stroke-width="1.5" d="M0,-3.0v7 M-2.5,-0.5L0,-3.0L2.5,-0.5"/>
                </g>
                <g id="arrowRight" xlink:href="#dirArrow" transform="rotate(90) translate(36 -43)" onmousedown="handlePan(1,0)">
                  <use xlink:href="#rim" fill="#404040">
                        <set attributeName="fill" to="#808080" begin="arrowRight.mouseover" end="arrowRight.mouseout"/>
                  </use>
                  <path fill="none" stroke="white" stroke-width="1.5" d="M0,-3.0v7 M-2.5,-0.5L0,-3.0L2.5,-0.5"/>
                </g>
                <g id="arrowDown" xlink:href="#dirArrow" transform="rotate(180) translate(-30 -48)" onmousedown="handlePan(0,1)">
                  <use xlink:href="#rim" fill="#404040">
                        <set attributeName="fill" to="#808080" begin="arrowDown.mouseover" end="arrowDown.mouseout"/>
                  </use>
                  <path fill="none" stroke="white" stroke-width="1.5" d="M0,-3.0v7 M-2.5,-0.5L0,-3.0L2.5,-0.5"/>
                </g>
                <g id="arrowLeft" xlink:href="#dirArrow" transform="rotate(270) translate(-36 17)" onmousedown="handlePan(-1,0)">
                  <use xlink:href="#rim" fill="#404040">
                        <set attributeName="fill" to="#808080" begin="arrowLeft.mouseover" end="arrowLeft.mouseout"/>
                  </use>
                  <path fill="none" stroke="white" stroke-width="1.5" d="M0,-3.0v7 M-2.5,-0.5L0,-3.0L2.5,-0.5"/>
                </g>
        </g>
        <svg viewBox="0 0 15 15" width="100%" height="30px" preserveAspectRatio="xMaxYMin meet">
         <g id="arrow_out" transform="scale(0.3 0.3)">
          <a xlink:href="interface_system_1_1_security_1_1_cryptography_1_1_i_crypto_transform__inherit__graph_org.svg" target="_base">
           <rect id="button" ry="5" rx="5" y="6" x="6" height="38" width="38"
                fill="#f2f5e9" fill-opacity="0.5" stroke="#606060" stroke-width="1.0"/>
           <path id="arrow"
             d="M 11.500037,31.436501 C 11.940474,20.09759 22.043105,11.32322 32.158766,21.979434 L 37.068811,17.246167 C 37.068811,17.246167 37.088388,32 37.088388,32 L 22.160133,31.978069 C 22.160133,31.978069 26.997745,27.140456 26.997745,27.140456 C 18.528582,18.264221 13.291696,25.230495 11.500037,31.436501 z"
             style="fill:#404040;"/>
          </a>
         </g>
        </svg>
</svg>
