<?xml version="1.0" encoding="UTF-8" standalone="no"?>
<!DOCTYPE svg PUBLIC "-//W3C//DTD SVG 1.1//EN"
 "http://www.w3.org/Graphics/SVG/1.1/DTD/svg11.dtd">
<!-- Generated by graphviz version 2.38.0 (20140413.2041)
 -->
<!-- Title: System.ComponentModel.Design.IDesignerHost Pages: 1 -->
<svg width="827pt" height="75pt"
 viewBox="0.00 0.00 827.00 74.50" xmlns="http://www.w3.org/2000/svg" xmlns:xlink="http://www.w3.org/1999/xlink">
<g id="graph0" class="graph" transform="scale(1 1) rotate(0) translate(4 70.5)">
<title>System.ComponentModel.Design.IDesignerHost</title>
<!-- Node0 -->
<g id="node1" class="node"><title>Node0</title>
<g id="a_node1"><a xlink:title="Provides an interface for managing designer transactions and components.">
<polygon fill="#bfbfbf" stroke="black" points="249,-14 249,-44 414,-44 414,-14 249,-14"/>
<text text-anchor="start" x="257" y="-32" font-family="Helvetica,sans-Serif" font-size="10.00">System.ComponentModel.Design.</text>
<text text-anchor="middle" x="331.5" y="-21" font-family="Helvetica,sans-Serif" font-size="10.00">IDesignerHost</text>
</a>
</g>
</g>
<!-- Node3 -->
<g id="node4" class="node"><title>Node3</title>
<g id="a_node4"><a xlink:href="interface_system_1_1_component_model_1_1_design_1_1_serialization_1_1_i_designer_loader_host.html" target="_top" xlink:title="Provides an interface that can extend a designer host to support loading from a serialized state.">
<polygon fill="none" stroke="black" points="450,-36 450,-66 615,-66 615,-36 450,-36"/>
<text text-anchor="start" x="458" y="-54" font-family="Helvetica,sans-Serif" font-size="10.00">System.ComponentModel.Design.</text>
<text text-anchor="middle" x="532.5" y="-43" font-family="Helvetica,sans-Serif" font-size="10.00">Serialization.IDesignerLoaderHost</text>
</a>
</g>
</g>
<!-- Node0&#45;&gt;Node3 -->
<g id="edge4" class="edge"><title>Node0&#45;&gt;Node3</title>
<path fill="none" stroke="midnightblue" d="M424.045,-39.1205C432.633,-40.07 441.301,-41.0282 449.79,-41.9667"/>
<polygon fill="midnightblue" stroke="midnightblue" points="424.339,-35.6318 414.015,-38.0117 423.57,-42.5894 424.339,-35.6318"/>
</g>
<!-- Node4 -->
<g id="node5" class="node"><title>Node4</title>
<g id="a_node5"><a xlink:href="interface_system_1_1_component_model_1_1_design_1_1_serialization_1_1_i_designer_loader_host2.html" target="_top" xlink:title="Provides an interface that extends T:System.ComponentModel.Design.Serialization.IDesignerLoaderHost t...">
<polygon fill="none" stroke="black" points="651,-14 651,-44 819,-44 819,-14 651,-14"/>
<text text-anchor="start" x="659" y="-32" font-family="Helvetica,sans-Serif" font-size="10.00">System.ComponentModel.Design.</text>
<text text-anchor="middle" x="735" y="-21" font-family="Helvetica,sans-Serif" font-size="10.00">Serialization.IDesignerLoaderHost2</text>
</a>
</g>
</g>
<!-- Node0&#45;&gt;Node4 -->
<g id="edge6" class="edge"><title>Node0&#45;&gt;Node4</title>
<path fill="none" stroke="midnightblue" d="M424.242,-26.4317C432.948,-26.2561 441.641,-26.1067 450,-26 523.327,-25.0641 541.672,-25.0759 615,-26 626.572,-26.1458 638.776,-26.3714 650.781,-26.6349"/>
<polygon fill="midnightblue" stroke="midnightblue" points="423.958,-22.9369 414.035,-26.6491 424.107,-29.9353 423.958,-22.9369"/>
</g>
<!-- Node1 -->
<g id="node2" class="node"><title>Node1</title>
<g id="a_node2"><a xlink:href="interface_system_1_1_component_model_1_1_design_1_1_i_service_container.html" target="_top" xlink:title="Provides a container for services.">
<polygon fill="none" stroke="black" points="121,-0.5 121,-19.5 213,-19.5 213,-0.5 121,-0.5"/>
<text text-anchor="middle" x="167" y="-7.5" font-family="Helvetica,sans-Serif" font-size="10.00">IServiceContainer</text>
</a>
</g>
</g>
<!-- Node1&#45;&gt;Node0 -->
<g id="edge1" class="edge"><title>Node1&#45;&gt;Node0</title>
<path fill="none" stroke="midnightblue" d="M223.402,-16.4777C231.592,-17.4354 240.174,-18.4388 248.763,-19.443"/>
<polygon fill="midnightblue" stroke="midnightblue" points="223.604,-12.9776 213.265,-15.2926 222.791,-19.9303 223.604,-12.9776"/>
</g>
<!-- Node2 -->
<g id="node3" class="node"><title>Node2</title>
<g id="a_node3"><a xlink:href="interface_system_1_1_i_service_provider.html" target="_top" xlink:title="Defines a mechanism for retrieving a service object; that is, an object that provides custom support ...">
<polygon fill="none" stroke="black" points="0,-19.5 0,-38.5 85,-38.5 85,-19.5 0,-19.5"/>
<text text-anchor="middle" x="42.5" y="-26.5" font-family="Helvetica,sans-Serif" font-size="10.00">IServiceProvider</text>
</a>
</g>
</g>
<!-- Node2&#45;&gt;Node0 -->
<g id="edge3" class="edge"><title>Node2&#45;&gt;Node0</title>
<path fill="none" stroke="midnightblue" d="M95.417,-29C138.199,-29 199.637,-29 248.976,-29"/>
<polygon fill="midnightblue" stroke="midnightblue" points="95.2323,-25.5001 85.2323,-29 95.2322,-32.5001 95.2323,-25.5001"/>
</g>
<!-- Node2&#45;&gt;Node1 -->
<g id="edge2" class="edge"><title>Node2&#45;&gt;Node1</title>
<path fill="none" stroke="midnightblue" d="M95.3784,-20.9535C103.762,-19.6532 112.385,-18.3157 120.6,-17.0416"/>
<polygon fill="midnightblue" stroke="midnightblue" points="94.6603,-17.523 85.3149,-22.5144 95.7332,-24.4403 94.6603,-17.523"/>
</g>
<!-- Node3&#45;&gt;Node4 -->
<g id="edge5" class="edge"><title>Node3&#45;&gt;Node4</title>
<path fill="none" stroke="midnightblue" d="M625.092,-40.95C633.692,-40.0064 642.377,-39.0533 650.893,-38.119"/>
<polygon fill="midnightblue" stroke="midnightblue" points="624.61,-37.4818 615.051,-42.0518 625.373,-44.4401 624.61,-37.4818"/>
</g>
</g>
</svg>
