<?xml version="1.0" encoding="UTF-8" standalone="no"?>
<!DOCTYPE svg PUBLIC "-//W3C//DTD SVG 1.1//EN"
 "http://www.w3.org/Graphics/SVG/1.1/DTD/svg11.dtd">
<!-- Generated by graphviz version 2.38.0 (20140413.2041)
 -->
<!-- Title: System.ComponentModel.IComponent Pages: 1 -->
<svg width="376pt" height="151pt"
 viewBox="0.00 0.00 375.50 151.00" xmlns="http://www.w3.org/2000/svg" xmlns:xlink="http://www.w3.org/1999/xlink">
<g id="graph0" class="graph" transform="scale(1 1) rotate(0) translate(4 147)">
<title>System.ComponentModel.IComponent</title>
<!-- Node0 -->
<g id="node1" class="node"><title>Node0</title>
<g id="a_node1"><a xlink:title="Provides functionality required by all components.">
<polygon fill="#bfbfbf" stroke="black" points="95,-67.5 95,-86.5 279,-86.5 279,-67.5 95,-67.5"/>
<text text-anchor="middle" x="187" y="-74.5" font-family="Helvetica,sans-Serif" font-size="10.00">System.ComponentModel.IComponent</text>
</a>
</g>
</g>
<!-- Node2 -->
<g id="node3" class="node"><title>Node2</title>
<g id="a_node3"><a xlink:href="class_system_1_1_component_model_1_1_component.html" target="_top" xlink:title="Provides the base implementation for the T:System.ComponentModel.IComponent interface and enables obj...">
<polygon fill="none" stroke="red" points="0,-6 0,-25 182,-25 182,-6 0,-6"/>
<text text-anchor="middle" x="91" y="-13" font-family="Helvetica,sans-Serif" font-size="10.00">System.ComponentModel.Component</text>
</a>
</g>
</g>
<!-- Node0&#45;&gt;Node2 -->
<g id="edge2" class="edge"><title>Node0&#45;&gt;Node2</title>
<path fill="none" stroke="midnightblue" d="M164.552,-62.0871C146.025,-50.6042 120.33,-34.6784 104.729,-25.0091"/>
<polygon fill="midnightblue" stroke="midnightblue" points="162.902,-65.1819 173.246,-67.4751 166.59,-59.232 162.902,-65.1819"/>
</g>
<!-- Node17 -->
<g id="node4" class="node"><title>Node17</title>
<g id="a_node4"><a xlink:href="class_system_1_1_component_model_1_1_marshal_by_value_component.html" target="_top" xlink:title="Implements T:System.ComponentModel.IComponent and provides the base implementation for remotable comp...">
<polygon fill="none" stroke="black" points="200.5,-0.5 200.5,-30.5 367.5,-30.5 367.5,-0.5 200.5,-0.5"/>
<text text-anchor="start" x="208.5" y="-18.5" font-family="Helvetica,sans-Serif" font-size="10.00">System.ComponentModel.Marshal</text>
<text text-anchor="middle" x="284" y="-7.5" font-family="Helvetica,sans-Serif" font-size="10.00">ByValueComponent</text>
</a>
</g>
</g>
<!-- Node0&#45;&gt;Node17 -->
<g id="edge3" class="edge"><title>Node0&#45;&gt;Node17</title>
<path fill="none" stroke="midnightblue" d="M209.81,-62.0084C225.282,-52.518 245.657,-40.02 261.139,-30.523"/>
<polygon fill="midnightblue" stroke="midnightblue" points="207.592,-59.2629 200.898,-67.4751 211.252,-65.2298 207.592,-59.2629"/>
</g>
<!-- Node1 -->
<g id="node2" class="node"><title>Node1</title>
<g id="a_node2"><a xlink:href="interface_system_1_1_i_disposable.html" target="_top" xlink:title="Provides a mechanism for releasing unmanaged resources.To browse the .NET Framework source code for t...">
<polygon fill="none" stroke="black" points="153.5,-123.5 153.5,-142.5 220.5,-142.5 220.5,-123.5 153.5,-123.5"/>
<text text-anchor="middle" x="187" y="-130.5" font-family="Helvetica,sans-Serif" font-size="10.00">IDisposable</text>
</a>
</g>
</g>
<!-- Node1&#45;&gt;Node0 -->
<g id="edge1" class="edge"><title>Node1&#45;&gt;Node0</title>
<path fill="none" stroke="midnightblue" d="M187,-112.805C187,-103.91 187,-93.7798 187,-86.7511"/>
<polygon fill="midnightblue" stroke="midnightblue" points="183.5,-113.083 187,-123.083 190.5,-113.083 183.5,-113.083"/>
</g>
</g>
</svg>
