<?xml version="1.0" encoding="UTF-8" standalone="no"?>
<!DOCTYPE svg PUBLIC "-//W3C//DTD SVG 1.1//EN"
 "http://www.w3.org/Graphics/SVG/1.1/DTD/svg11.dtd">
<!-- Generated by graphviz version 2.38.0 (20140413.2041)
 -->
<!-- Title: System.Runtime.Remoting.Messaging.IMessage Pages: 1 -->
<svg width="977pt" height="1214pt"
 viewBox="0.00 0.00 977.00 1214.31" xmlns="http://www.w3.org/2000/svg" xmlns:xlink="http://www.w3.org/1999/xlink">
<g id="graph0" class="graph" transform="scale(1 1) rotate(0) translate(4 1210.31)">
<title>System.Runtime.Remoting.Messaging.IMessage</title>
<!-- Node0 -->
<g id="node1" class="node"><title>Node0</title>
<g id="a_node1"><a xlink:title="Contains communication data sent between cooperating message sinks.">
<polygon fill="#bfbfbf" stroke="black" points="0,-604.5 0,-634.5 137,-634.5 137,-604.5 0,-604.5"/>
<text text-anchor="start" x="8" y="-622.5" font-family="Helvetica,sans-Serif" font-size="10.00">System.Runtime.Remoting.</text>
<text text-anchor="middle" x="68.5" y="-611.5" font-family="Helvetica,sans-Serif" font-size="10.00">Messaging.IMessage</text>
</a>
</g>
</g>
<!-- Node1 -->
<g id="node2" class="node"><title>Node1</title>
<g id="a_node2"><a xlink:href="interface_system_1_1_runtime_1_1_remoting_1_1_activation_1_1_i_construction_call_message.html" target="_top" xlink:title="Represents the construction call request of an object.">
<polygon fill="none" stroke="black" points="583.5,-978 583.5,-1019 720.5,-1019 720.5,-978 583.5,-978"/>
<text text-anchor="start" x="591.5" y="-1007" font-family="Helvetica,sans-Serif" font-size="10.00">System.Runtime.Remoting.</text>
<text text-anchor="start" x="591.5" y="-996" font-family="Helvetica,sans-Serif" font-size="10.00">Activation.IConstructionCall</text>
<text text-anchor="middle" x="652" y="-985" font-family="Helvetica,sans-Serif" font-size="10.00">Message</text>
</a>
</g>
</g>
<!-- Node0&#45;&gt;Node1 -->
<g id="edge1" class="edge"><title>Node0&#45;&gt;Node1</title>
<path fill="none" stroke="midnightblue" d="M70.3268,-644.824C73.6527,-703.472 90.2698,-849.541 173,-927.5 284.584,-1032.65 480.448,-1023.86 583.398,-1010.21"/>
<polygon fill="midnightblue" stroke="midnightblue" points="73.8123,-644.436 69.8353,-634.616 66.8204,-644.772 73.8123,-644.436"/>
</g>
<!-- Node2 -->
<g id="node3" class="node"><title>Node2</title>
<g id="a_node3"><a xlink:href="class_system_1_1_runtime_1_1_remoting_1_1_messaging_1_1_construction_call.html" target="_top" xlink:title="Implements the T:System.Runtime.Remoting.Activation.IConstructionCallMessage interface to create a re...">
<polygon fill="none" stroke="black" points="807.5,-983.5 807.5,-1013.5 945.5,-1013.5 945.5,-983.5 807.5,-983.5"/>
<text text-anchor="start" x="815.5" y="-1001.5" font-family="Helvetica,sans-Serif" font-size="10.00">System.Runtime.Remoting.</text>
<text text-anchor="middle" x="876.5" y="-990.5" font-family="Helvetica,sans-Serif" font-size="10.00">Messaging.ConstructionCall</text>
</a>
</g>
</g>
<!-- Node0&#45;&gt;Node2 -->
<g id="edge7" class="edge"><title>Node0&#45;&gt;Node2</title>
<path fill="none" stroke="midnightblue" d="M71.8949,-644.746C80.5671,-731.01 113.022,-1012.28 173,-1076.5 347.947,-1263.81 512.07,-1220.64 748,-1120.5 801.864,-1097.64 846.327,-1040.98 865.433,-1013.68"/>
<polygon fill="midnightblue" stroke="midnightblue" points="75.3551,-644.169 70.8913,-634.561 68.3889,-644.856 75.3551,-644.169"/>
</g>
<!-- Node3 -->
<g id="node4" class="node"><title>Node3</title>
<g id="a_node4"><a xlink:href="class_system_1_1_runtime_1_1_remoting_1_1_messaging_1_1_constructor_call_message.html" target="_top" xlink:title=" ">
<polygon fill="none" stroke="black" points="790,-890.5 790,-920.5 963,-920.5 963,-890.5 790,-890.5"/>
<text text-anchor="start" x="798" y="-908.5" font-family="Helvetica,sans-Serif" font-size="10.00">System.Runtime.Remoting.</text>
<text text-anchor="middle" x="876.5" y="-897.5" font-family="Helvetica,sans-Serif" font-size="10.00">Messaging.ConstructorCallMessage</text>
</a>
</g>
</g>
<!-- Node0&#45;&gt;Node3 -->
<g id="edge9" class="edge"><title>Node0&#45;&gt;Node3</title>
<path fill="none" stroke="midnightblue" d="M72.6599,-644.99C83.13,-725.536 119.111,-972.62 173,-1029.5 261.326,-1122.73 644.318,-1163.28 748,-1087.5 790.554,-1056.4 753.522,-1017.5 784,-974.5 800.336,-951.45 826.702,-932.741 846.944,-920.65"/>
<polygon fill="midnightblue" stroke="midnightblue" points="76.0929,-644.242 71.3527,-634.767 69.1494,-645.13 76.0929,-644.242"/>
</g>
<!-- Node4 -->
<g id="node5" class="node"><title>Node4</title>
<g id="a_node5"><a xlink:href="interface_system_1_1_runtime_1_1_remoting_1_1_activation_1_1_i_construction_return_message.html" target="_top" xlink:title="Identifies a T:System.Runtime.Remoting.Messaging.IMethodReturnMessage that is returned after attempti...">
<polygon fill="none" stroke="black" points="578.5,-372 578.5,-413 725.5,-413 725.5,-372 578.5,-372"/>
<text text-anchor="start" x="586.5" y="-401" font-family="Helvetica,sans-Serif" font-size="10.00">System.Runtime.Remoting.</text>
<text text-anchor="start" x="586.5" y="-390" font-family="Helvetica,sans-Serif" font-size="10.00">Activation.IConstructionReturn</text>
<text text-anchor="middle" x="652" y="-379" font-family="Helvetica,sans-Serif" font-size="10.00">Message</text>
</a>
</g>
</g>
<!-- Node0&#45;&gt;Node4 -->
<g id="edge4" class="edge"><title>Node0&#45;&gt;Node4</title>
<path fill="none" stroke="midnightblue" d="M80.342,-594.997C95.9605,-562.705 127.948,-506.601 173,-477.5 298.319,-396.552 478.85,-386.906 578.337,-388.662"/>
<polygon fill="midnightblue" stroke="midnightblue" points="77.104,-593.658 76.024,-604.198 83.4409,-596.632 77.104,-593.658"/>
</g>
<!-- Node5 -->
<g id="node6" class="node"><title>Node5</title>
<g id="a_node6"><a xlink:href="class_system_1_1_runtime_1_1_remoting_1_1_messaging_1_1_construction_response.html" target="_top" xlink:title="Implements the T:System.Runtime.Remoting.Activation.IConstructionReturnMessage interface to create a ...">
<polygon fill="none" stroke="black" points="794,-322.5 794,-352.5 959,-352.5 959,-322.5 794,-322.5"/>
<text text-anchor="start" x="802" y="-340.5" font-family="Helvetica,sans-Serif" font-size="10.00">System.Runtime.Remoting.</text>
<text text-anchor="middle" x="876.5" y="-329.5" font-family="Helvetica,sans-Serif" font-size="10.00">Messaging.ConstructionResponse</text>
</a>
</g>
</g>
<!-- Node0&#45;&gt;Node5 -->
<g id="edge8" class="edge"><title>Node0&#45;&gt;Node5</title>
<path fill="none" stroke="midnightblue" d="M70.6063,-594.218C75.3073,-499.79 97.0139,-169.891 173,-105.5 270.548,-22.8365 640.529,-57.2258 748,-126.5 822.287,-174.385 859.689,-282.309 871.375,-322.255"/>
<polygon fill="midnightblue" stroke="midnightblue" points="67.1061,-594.141 70.1255,-604.296 74.0981,-594.474 67.1061,-594.141"/>
</g>
<!-- Node6 -->
<g id="node7" class="node"><title>Node6</title>
<g id="a_node7"><a xlink:href="class_system_1_1_runtime_1_1_remoting_1_1_messaging_1_1_constructor_return_message.html" target="_top" xlink:title=" ">
<polygon fill="none" stroke="black" points="784,-432.5 784,-462.5 969,-462.5 969,-432.5 784,-432.5"/>
<text text-anchor="start" x="792" y="-450.5" font-family="Helvetica,sans-Serif" font-size="10.00">System.Runtime.Remoting.</text>
<text text-anchor="middle" x="876.5" y="-439.5" font-family="Helvetica,sans-Serif" font-size="10.00">Messaging.ConstructorReturnMessage</text>
</a>
</g>
</g>
<!-- Node0&#45;&gt;Node6 -->
<g id="edge10" class="edge"><title>Node0&#45;&gt;Node6</title>
<path fill="none" stroke="midnightblue" d="M147.014,-631.09C277.944,-647.011 548.153,-663.902 748,-569.5 800.633,-544.638 845.371,-489.478 864.941,-462.688"/>
<polygon fill="midnightblue" stroke="midnightblue" points="147.424,-627.614 137.068,-629.849 146.558,-634.56 147.424,-627.614"/>
</g>
<!-- Node7 -->
<g id="node8" class="node"><title>Node7</title>
<g id="a_node8"><a xlink:href="class_system_1_1_runtime_1_1_remoting_1_1_messaging_1_1_error_message.html" target="_top" xlink:title=" ">
<polygon fill="none" stroke="black" points="583.5,-802.5 583.5,-832.5 720.5,-832.5 720.5,-802.5 583.5,-802.5"/>
<text text-anchor="start" x="591.5" y="-820.5" font-family="Helvetica,sans-Serif" font-size="10.00">System.Runtime.Remoting.</text>
<text text-anchor="middle" x="652" y="-809.5" font-family="Helvetica,sans-Serif" font-size="10.00">Messaging.ErrorMessage</text>
</a>
</g>
</g>
<!-- Node0&#45;&gt;Node7 -->
<g id="edge11" class="edge"><title>Node0&#45;&gt;Node7</title>
<path fill="none" stroke="midnightblue" d="M91.3184,-641.932C111.171,-661.344 142.025,-689.113 173,-707.5 304.256,-785.416 486.053,-808.149 583.263,-814.777"/>
<polygon fill="midnightblue" stroke="midnightblue" points="93.5817,-639.247 84.0195,-634.685 88.6496,-644.214 93.5817,-639.247"/>
</g>
<!-- Node8 -->
<g id="node9" class="node"><title>Node8</title>
<g id="a_node9"><a xlink:href="interface_system_1_1_runtime_1_1_remoting_1_1_messaging_1_1_i_method_call_message.html" target="_top" xlink:title="Defines the method call message interface.">
<polygon fill="none" stroke="black" points="356,-860.5 356,-890.5 514,-890.5 514,-860.5 356,-860.5"/>
<text text-anchor="start" x="364" y="-878.5" font-family="Helvetica,sans-Serif" font-size="10.00">System.Runtime.Remoting.</text>
<text text-anchor="middle" x="435" y="-867.5" font-family="Helvetica,sans-Serif" font-size="10.00">Messaging.IMethodCallMessage</text>
</a>
</g>
</g>
<!-- Node0&#45;&gt;Node8 -->
<g id="edge12" class="edge"><title>Node0&#45;&gt;Node8</title>
<path fill="none" stroke="midnightblue" d="M72.9771,-644.958C81.0062,-693 105.608,-796.581 173,-845.5 225.322,-883.48 299.723,-888.598 355.71,-885.601"/>
<polygon fill="midnightblue" stroke="midnightblue" points="76.391,-644.135 71.3901,-634.795 69.4749,-645.215 76.391,-644.135"/>
</g>
<!-- Node9 -->
<g id="node10" class="node"><title>Node9</title>
<g id="a_node10"><a xlink:href="class_system_1_1_runtime_1_1_remoting_1_1_messaging_1_1_message.html" target="_top" xlink:title=" ">
<polygon fill="none" stroke="black" points="583.5,-928.5 583.5,-958.5 720.5,-958.5 720.5,-928.5 583.5,-928.5"/>
<text text-anchor="start" x="591.5" y="-946.5" font-family="Helvetica,sans-Serif" font-size="10.00">System.Runtime.Remoting.</text>
<text text-anchor="middle" x="652" y="-935.5" font-family="Helvetica,sans-Serif" font-size="10.00">Messaging.Message</text>
</a>
</g>
</g>
<!-- Node0&#45;&gt;Node9 -->
<g id="edge48" class="edge"><title>Node0&#45;&gt;Node9</title>
<path fill="none" stroke="midnightblue" d="M72.2618,-644.641C79.2871,-696.318 102.586,-815.019 173,-879.5 285.69,-982.695 480.635,-971.282 583.286,-956.222"/>
<polygon fill="midnightblue" stroke="midnightblue" points="75.7283,-644.155 70.9986,-634.675 68.7839,-645.036 75.7283,-644.155"/>
</g>
<!-- Node10 -->
<g id="node11" class="node"><title>Node10</title>
<g id="a_node11"><a xlink:href="class_system_1_1_runtime_1_1_remoting_1_1_messaging_1_1_method_call.html" target="_top" xlink:title="Implements the T:System.Runtime.Remoting.Messaging.IMethodCallMessage interface to create a request m...">
<polygon fill="none" stroke="black" points="583.5,-1047.5 583.5,-1077.5 720.5,-1077.5 720.5,-1047.5 583.5,-1047.5"/>
<text text-anchor="start" x="591.5" y="-1065.5" font-family="Helvetica,sans-Serif" font-size="10.00">System.Runtime.Remoting.</text>
<text text-anchor="middle" x="652" y="-1054.5" font-family="Helvetica,sans-Serif" font-size="10.00">Messaging.MethodCall</text>
</a>
</g>
</g>
<!-- Node0&#45;&gt;Node10 -->
<g id="edge49" class="edge"><title>Node0&#45;&gt;Node10</title>
<path fill="none" stroke="midnightblue" d="M69.0418,-644.698C69.2852,-709.462 79.1417,-883.236 173,-977.5 281.834,-1086.8 479.328,-1083.27 583.112,-1072.37"/>
<polygon fill="midnightblue" stroke="midnightblue" points="72.5421,-644.603 69.0817,-634.59 65.5422,-644.576 72.5421,-644.603"/>
</g>
<!-- Node11 -->
<g id="node12" class="node"><title>Node11</title>
<g id="a_node12"><a xlink:href="class_system_1_1_runtime_1_1_remoting_1_1_messaging_1_1_method_call_message_wrapper.html" target="_top" xlink:title="Implements the T:System.Runtime.Remoting.Messaging.IMethodCallMessage interface to create a request m...">
<polygon fill="none" stroke="black" points="556,-740.5 556,-770.5 748,-770.5 748,-740.5 556,-740.5"/>
<text text-anchor="start" x="564" y="-758.5" font-family="Helvetica,sans-Serif" font-size="10.00">System.Runtime.Remoting.</text>
<text text-anchor="middle" x="652" y="-747.5" font-family="Helvetica,sans-Serif" font-size="10.00">Messaging.MethodCallMessageWrapper</text>
</a>
</g>
</g>
<!-- Node0&#45;&gt;Node11 -->
<g id="edge50" class="edge"><title>Node0&#45;&gt;Node11</title>
<path fill="none" stroke="midnightblue" d="M108.814,-638.869C162.066,-664.141 260.743,-707.597 350,-728.5 417.687,-744.352 495.941,-751.028 555.692,-753.779"/>
<polygon fill="midnightblue" stroke="midnightblue" points="110.257,-635.679 99.7251,-634.522 107.236,-641.994 110.257,-635.679"/>
</g>
<!-- Node12 -->
<g id="node13" class="node"><title>Node12</title>
<g id="a_node13"><a xlink:href="interface_system_1_1_runtime_1_1_remoting_1_1_messaging_1_1_i_method_message.html" target="_top" xlink:title="Defines the method message interface.">
<polygon fill="none" stroke="black" points="173,-582.5 173,-612.5 314,-612.5 314,-582.5 173,-582.5"/>
<text text-anchor="start" x="181" y="-600.5" font-family="Helvetica,sans-Serif" font-size="10.00">System.Runtime.Remoting.</text>
<text text-anchor="middle" x="243.5" y="-589.5" font-family="Helvetica,sans-Serif" font-size="10.00">Messaging.IMethodMessage</text>
</a>
</g>
</g>
<!-- Node0&#45;&gt;Node12 -->
<g id="edge21" class="edge"><title>Node0&#45;&gt;Node12</title>
<path fill="none" stroke="midnightblue" d="M147.571,-609.572C155.99,-608.501 164.516,-607.417 172.827,-606.36"/>
<polygon fill="midnightblue" stroke="midnightblue" points="146.856,-606.135 137.378,-610.868 147.739,-613.079 146.856,-606.135"/>
</g>
<!-- Node13 -->
<g id="node14" class="node"><title>Node13</title>
<g id="a_node14"><a xlink:href="interface_system_1_1_runtime_1_1_remoting_1_1_messaging_1_1_i_method_return_message.html" target="_top" xlink:title="Defines the method call return message interface.">
<polygon fill="none" stroke="black" points="350,-240.5 350,-270.5 520,-270.5 520,-240.5 350,-240.5"/>
<text text-anchor="start" x="358" y="-258.5" font-family="Helvetica,sans-Serif" font-size="10.00">System.Runtime.Remoting.</text>
<text text-anchor="middle" x="435" y="-247.5" font-family="Helvetica,sans-Serif" font-size="10.00">Messaging.IMethodReturnMessage</text>
</a>
</g>
</g>
<!-- Node0&#45;&gt;Node13 -->
<g id="edge47" class="edge"><title>Node0&#45;&gt;Node13</title>
<path fill="none" stroke="midnightblue" d="M68.7798,-594.203C68.4884,-530.859 77.3439,-364.83 173,-285.5 221.537,-245.247 293.769,-239.721 349.948,-243.154"/>
<polygon fill="midnightblue" stroke="midnightblue" points="65.2834,-594.509 68.9144,-604.462 72.2828,-594.417 65.2834,-594.509"/>
</g>
<!-- Node14 -->
<g id="node15" class="node"><title>Node14</title>
<g id="a_node15"><a xlink:href="class_system_1_1_runtime_1_1_remoting_1_1_messaging_1_1_method_response.html" target="_top" xlink:title="Implements the T:System.Runtime.Remoting.Messaging.IMethodReturnMessage interface to create a message...">
<polygon fill="none" stroke="black" points="580.5,-322.5 580.5,-352.5 723.5,-352.5 723.5,-322.5 580.5,-322.5"/>
<text text-anchor="start" x="588.5" y="-340.5" font-family="Helvetica,sans-Serif" font-size="10.00">System.Runtime.Remoting.</text>
<text text-anchor="middle" x="652" y="-329.5" font-family="Helvetica,sans-Serif" font-size="10.00">Messaging.MethodResponse</text>
</a>
</g>
</g>
<!-- Node0&#45;&gt;Node14 -->
<g id="edge51" class="edge"><title>Node0&#45;&gt;Node14</title>
<path fill="none" stroke="midnightblue" d="M75.9295,-594.672C88.0814,-552.317 118.242,-465.719 173,-414.5 283.956,-310.713 476.52,-315.099 580.139,-326.645"/>
<polygon fill="midnightblue" stroke="midnightblue" points="72.5207,-593.867 73.2241,-604.439 79.2667,-595.736 72.5207,-593.867"/>
</g>
<!-- Node15 -->
<g id="node16" class="node"><title>Node15</title>
<g id="a_node16"><a xlink:href="class_system_1_1_runtime_1_1_remoting_1_1_messaging_1_1_method_return_message_wrapper.html" target="_top" xlink:title="Implements the T:System.Runtime.Remoting.Messaging.IMethodReturnMessage interface to create a message...">
<polygon fill="none" stroke="black" points="568.5,-186 568.5,-227 735.5,-227 735.5,-186 568.5,-186"/>
<text text-anchor="start" x="576.5" y="-215" font-family="Helvetica,sans-Serif" font-size="10.00">System.Runtime.Remoting.</text>
<text text-anchor="start" x="576.5" y="-204" font-family="Helvetica,sans-Serif" font-size="10.00">Messaging.MethodReturnMessage</text>
<text text-anchor="middle" x="652" y="-193" font-family="Helvetica,sans-Serif" font-size="10.00">Wrapper</text>
</a>
</g>
</g>
<!-- Node0&#45;&gt;Node15 -->
<g id="edge52" class="edge"><title>Node0&#45;&gt;Node15</title>
<path fill="none" stroke="midnightblue" d="M72.9487,-594.122C83.9142,-517.166 120.38,-288.634 173,-238.5 281.39,-135.231 473.672,-161.364 578.287,-185.982"/>
<polygon fill="midnightblue" stroke="midnightblue" points="69.439,-593.948 71.517,-604.337 76.3712,-594.919 69.439,-593.948"/>
</g>
<!-- Node16 -->
<g id="node17" class="node"><title>Node16</title>
<g id="a_node17"><a xlink:href="class_system_1_1_runtime_1_1_remoting_1_1_messaging_1_1_return_message.html" target="_top" xlink:title="Holds a message returned in response to a method call on a remote object.">
<polygon fill="none" stroke="black" points="583.5,-432.5 583.5,-462.5 720.5,-462.5 720.5,-432.5 583.5,-432.5"/>
<text text-anchor="start" x="591.5" y="-450.5" font-family="Helvetica,sans-Serif" font-size="10.00">System.Runtime.Remoting.</text>
<text text-anchor="middle" x="652" y="-439.5" font-family="Helvetica,sans-Serif" font-size="10.00">Messaging.ReturnMessage</text>
</a>
</g>
</g>
<!-- Node0&#45;&gt;Node16 -->
<g id="edge53" class="edge"><title>Node0&#45;&gt;Node16</title>
<path fill="none" stroke="midnightblue" d="M98.1308,-598.477C146.931,-563.958 250.614,-496.237 350,-467.5 427.731,-445.024 521.272,-442.393 583.227,-443.839"/>
<polygon fill="midnightblue" stroke="midnightblue" points="96.0518,-595.66 89.947,-604.32 100.119,-601.357 96.0518,-595.66"/>
</g>
<!-- Node17 -->
<g id="node18" class="node"><title>Node17</title>
<g id="a_node18"><a xlink:href="class_system_1_1_runtime_1_1_remoting_1_1_messaging_1_1_stack_based_return_message.html" target="_top" xlink:title=" ">
<polygon fill="none" stroke="black" points="558,-136.5 558,-166.5 746,-166.5 746,-136.5 558,-136.5"/>
<text text-anchor="start" x="566" y="-154.5" font-family="Helvetica,sans-Serif" font-size="10.00">System.Runtime.Remoting.</text>
<text text-anchor="middle" x="652" y="-143.5" font-family="Helvetica,sans-Serif" font-size="10.00">Messaging.StackBasedReturnMessage</text>
</a>
</g>
</g>
<!-- Node0&#45;&gt;Node17 -->
<g id="edge54" class="edge"><title>Node0&#45;&gt;Node17</title>
<path fill="none" stroke="midnightblue" d="M71.3865,-594.282C78.4314,-507.597 106.296,-224.137 173,-168.5 297.666,-64.5159 510.691,-109.437 604.416,-136.477"/>
<polygon fill="midnightblue" stroke="midnightblue" points="67.8942,-594.046 70.5954,-604.291 74.8725,-594.598 67.8942,-594.046"/>
</g>
<!-- Node18 -->
<g id="node19" class="node"><title>Node18</title>
<g id="a_node19"><a xlink:href="class_system_1_1_runtime_1_1_remoting_1_1_messaging_1_1_transition_call.html" target="_top" xlink:title=" ">
<polygon fill="none" stroke="black" points="175,-0.5 175,-30.5 312,-30.5 312,-0.5 175,-0.5"/>
<text text-anchor="start" x="183" y="-18.5" font-family="Helvetica,sans-Serif" font-size="10.00">System.Runtime.Remoting.</text>
<text text-anchor="middle" x="243.5" y="-7.5" font-family="Helvetica,sans-Serif" font-size="10.00">Messaging.TransitionCall</text>
</a>
</g>
</g>
<!-- Node0&#45;&gt;Node18 -->
<g id="edge55" class="edge"><title>Node0&#45;&gt;Node18</title>
<path fill="none" stroke="midnightblue" d="M70.9165,-594.471C76.9707,-495.545 103.604,-132.94 173,-45.5 177.82,-39.4265 184.11,-34.559 190.936,-30.6642"/>
<polygon fill="midnightblue" stroke="midnightblue" points="67.4226,-594.266 70.3212,-604.457 74.4102,-594.683 67.4226,-594.266"/>
</g>
<!-- Node1&#45;&gt;Node2 -->
<g id="edge2" class="edge"><title>Node1&#45;&gt;Node2</title>
<path fill="none" stroke="midnightblue" d="M730.82,-998.5C755.769,-998.5 783.192,-998.5 807.391,-998.5"/>
<polygon fill="midnightblue" stroke="midnightblue" points="730.664,-995 720.664,-998.5 730.664,-1002 730.664,-995"/>
</g>
<!-- Node1&#45;&gt;Node3 -->
<g id="edge3" class="edge"><title>Node1&#45;&gt;Node3</title>
<path fill="none" stroke="midnightblue" d="M730.213,-975.218C736.271,-973.057 742.261,-970.808 748,-968.5 783.506,-954.22 822.757,-934.136 848.202,-920.513"/>
<polygon fill="midnightblue" stroke="midnightblue" points="728.959,-971.949 720.662,-978.538 731.257,-978.561 728.959,-971.949"/>
</g>
<!-- Node4&#45;&gt;Node5 -->
<g id="edge5" class="edge"><title>Node4&#45;&gt;Node5</title>
<path fill="none" stroke="midnightblue" d="M735.469,-372.114C761.684,-365.634 790.189,-358.588 814.597,-352.555"/>
<polygon fill="midnightblue" stroke="midnightblue" points="734.415,-368.77 725.547,-374.567 736.095,-375.565 734.415,-368.77"/>
</g>
<!-- Node4&#45;&gt;Node6 -->
<g id="edge6" class="edge"><title>Node4&#45;&gt;Node6</title>
<path fill="none" stroke="midnightblue" d="M735.469,-412.886C761.684,-419.366 790.189,-426.412 814.597,-432.445"/>
<polygon fill="midnightblue" stroke="midnightblue" points="736.095,-409.435 725.547,-410.433 734.415,-416.23 736.095,-409.435"/>
</g>
<!-- Node8&#45;&gt;Node1 -->
<g id="edge13" class="edge"><title>Node8&#45;&gt;Node1</title>
<path fill="none" stroke="midnightblue" d="M463.229,-897.422C495.442,-923.225 545.981,-963.251 556,-968.5 564.58,-972.995 573.951,-976.959 583.358,-980.409"/>
<polygon fill="midnightblue" stroke="midnightblue" points="465.065,-894.408 455.075,-890.88 460.685,-899.868 465.065,-894.408"/>
</g>
<!-- Node8&#45;&gt;Node2 -->
<g id="edge14" class="edge"><title>Node8&#45;&gt;Node2</title>
<path fill="none" stroke="midnightblue" d="M524.342,-883.859C601.789,-891.934 708.067,-905.04 748,-919.5 790.113,-934.749 833.192,-965.169 856.929,-983.49"/>
<polygon fill="midnightblue" stroke="midnightblue" points="524.4,-880.346 514.093,-882.802 523.681,-887.309 524.4,-880.346"/>
</g>
<!-- Node8&#45;&gt;Node3 -->
<g id="edge15" class="edge"><title>Node8&#45;&gt;Node3</title>
<path fill="none" stroke="midnightblue" d="M524.29,-875.428C586.867,-876.085 672.739,-878.418 748,-885.5 761.608,-886.78 775.97,-888.586 789.954,-890.594"/>
<polygon fill="midnightblue" stroke="midnightblue" points="524.093,-871.926 514.061,-875.333 524.028,-878.926 524.093,-871.926"/>
</g>
<!-- Node8&#45;&gt;Node7 -->
<g id="edge16" class="edge"><title>Node8&#45;&gt;Node7</title>
<path fill="none" stroke="midnightblue" d="M501.583,-857.808C531.509,-849.735 566.575,-840.275 595.213,-832.55"/>
<polygon fill="midnightblue" stroke="midnightblue" points="500.391,-854.504 491.647,-860.488 502.214,-861.263 500.391,-854.504"/>
</g>
<!-- Node8&#45;&gt;Node9 -->
<g id="edge17" class="edge"><title>Node8&#45;&gt;Node9</title>
<path fill="none" stroke="midnightblue" d="M493.131,-893.602C513.028,-899.903 535.498,-907.017 556,-913.5 571.337,-918.35 588.068,-923.635 603.156,-928.4"/>
<polygon fill="midnightblue" stroke="midnightblue" points="494.181,-890.263 483.591,-890.58 492.067,-896.936 494.181,-890.263"/>
</g>
<!-- Node8&#45;&gt;Node10 -->
<g id="edge18" class="edge"><title>Node8&#45;&gt;Node10</title>
<path fill="none" stroke="midnightblue" d="M449.226,-899.962C468.511,-933.467 507.401,-993.46 556,-1028.5 566.941,-1036.39 579.895,-1042.61 592.661,-1047.45"/>
<polygon fill="midnightblue" stroke="midnightblue" points="452.057,-897.856 444.098,-890.863 445.959,-901.294 452.057,-897.856"/>
</g>
<!-- Node8&#45;&gt;Node11 -->
<g id="edge20" class="edge"><title>Node8&#45;&gt;Node11</title>
<path fill="none" stroke="midnightblue" d="M463.263,-854.31C486.901,-836.576 522.489,-811.373 556,-793.5 572.3,-784.806 591.036,-776.904 607.537,-770.586"/>
<polygon fill="midnightblue" stroke="midnightblue" points="460.978,-851.65 455.121,-860.479 465.205,-857.23 460.978,-851.65"/>
</g>
<!-- Node10&#45;&gt;Node2 -->
<g id="edge19" class="edge"><title>Node10&#45;&gt;Node2</title>
<path fill="none" stroke="midnightblue" d="M715.015,-1044.66C749.088,-1034.86 790.881,-1022.84 823.275,-1013.52"/>
<polygon fill="midnightblue" stroke="midnightblue" points="713.809,-1041.37 705.166,-1047.49 715.744,-1048.09 713.809,-1041.37"/>
</g>
<!-- Node12&#45;&gt;Node1 -->
<g id="edge22" class="edge"><title>Node12&#45;&gt;Node1</title>
<path fill="none" stroke="midnightblue" d="M244.424,-622.742C245.687,-685.289 258.1,-848.456 350,-932.5 413.462,-990.537 515.908,-1001.71 583.356,-1001.99"/>
<polygon fill="midnightblue" stroke="midnightblue" points="247.922,-622.56 244.302,-612.602 240.922,-622.644 247.922,-622.56"/>
</g>
<!-- Node12&#45;&gt;Node2 -->
<g id="edge24" class="edge"><title>Node12&#45;&gt;Node2</title>
<path fill="none" stroke="midnightblue" d="M318.707,-614.888C455.119,-647.157 733.222,-714.488 748,-730.5 809.254,-796.872 736.417,-853.734 784,-930.5 798.39,-953.715 823.854,-971.661 844.272,-983.273"/>
<polygon fill="midnightblue" stroke="midnightblue" points="319.275,-611.426 308.738,-612.532 317.665,-618.238 319.275,-611.426"/>
</g>
<!-- Node12&#45;&gt;Node3 -->
<g id="edge26" class="edge"><title>Node12&#45;&gt;Node3</title>
<path fill="none" stroke="midnightblue" d="M324.639,-599.563C449.022,-604.193 681.206,-618.98 748,-665.5 829.111,-721.992 862.855,-846.753 872.437,-890.213"/>
<polygon fill="midnightblue" stroke="midnightblue" points="324.53,-596.057 314.411,-599.196 324.279,-603.052 324.53,-596.057"/>
</g>
<!-- Node12&#45;&gt;Node4 -->
<g id="edge23" class="edge"><title>Node12&#45;&gt;Node4</title>
<path fill="none" stroke="midnightblue" d="M257.394,-573.543C274.561,-543.995 307.734,-494.391 350,-467.5 419.747,-423.125 514.071,-405.001 578.423,-397.601"/>
<polygon fill="midnightblue" stroke="midnightblue" points="254.273,-571.951 252.391,-582.377 260.364,-575.4 254.273,-571.951"/>
</g>
<!-- Node12&#45;&gt;Node5 -->
<g id="edge25" class="edge"><title>Node12&#45;&gt;Node5</title>
<path fill="none" stroke="midnightblue" d="M310.227,-579.86C323.388,-576.383 337.126,-572.793 350,-569.5 438.245,-546.927 672.277,-522.123 748,-471.5 770.466,-456.481 766.021,-442.675 784,-422.5 807.514,-396.115 838.179,-368.87 857.356,-352.557"/>
<polygon fill="midnightblue" stroke="midnightblue" points="309.069,-576.546 300.298,-582.49 310.861,-583.313 309.069,-576.546"/>
</g>
<!-- Node12&#45;&gt;Node6 -->
<g id="edge27" class="edge"><title>Node12&#45;&gt;Node6</title>
<path fill="none" stroke="midnightblue" d="M324.102,-590.93C456.069,-579.699 709.51,-556.563 748,-541.5 794.097,-523.46 838.404,-484.316 860.649,-462.665"/>
<polygon fill="midnightblue" stroke="midnightblue" points="323.709,-587.451 314.041,-591.784 324.301,-594.426 323.709,-587.451"/>
</g>
<!-- Node12&#45;&gt;Node7 -->
<g id="edge28" class="edge"><title>Node12&#45;&gt;Node7</title>
<path fill="none" stroke="midnightblue" d="M257.538,-621.35C274.855,-650.822 308.185,-700.493 350,-728.5 421.31,-776.261 518.808,-798.942 583.278,-809.324"/>
<polygon fill="midnightblue" stroke="midnightblue" points="260.499,-619.478 252.488,-612.545 254.427,-622.96 260.499,-619.478"/>
</g>
<!-- Node12&#45;&gt;Node8 -->
<g id="edge29" class="edge"><title>Node12&#45;&gt;Node8</title>
<path fill="none" stroke="midnightblue" d="M253.01,-622.305C268.029,-663.703 302.231,-748.175 350,-807.5 367.181,-828.837 392.086,-847.954 410.317,-860.443"/>
<polygon fill="midnightblue" stroke="midnightblue" points="256.259,-620.997 249.608,-612.75 249.665,-623.344 256.259,-620.997"/>
</g>
<!-- Node12&#45;&gt;Node9 -->
<g id="edge40" class="edge"><title>Node12&#45;&gt;Node9</title>
<path fill="none" stroke="midnightblue" d="M245.027,-623.14C247.743,-682.385 263.346,-829.154 350,-900.5 384.588,-928.978 505.651,-938.596 583.3,-941.844"/>
<polygon fill="midnightblue" stroke="midnightblue" points="248.513,-622.683 244.647,-612.819 241.517,-622.941 248.513,-622.683"/>
</g>
<!-- Node12&#45;&gt;Node10 -->
<g id="edge41" class="edge"><title>Node12&#45;&gt;Node10</title>
<path fill="none" stroke="midnightblue" d="M243.585,-623.001C242.604,-690.937 249.65,-877.948 350,-978.5 411.798,-1040.42 515.168,-1057.66 583.22,-1061.94"/>
<polygon fill="midnightblue" stroke="midnightblue" points="247.089,-622.872 243.809,-612.798 240.09,-622.719 247.089,-622.872"/>
</g>
<!-- Node12&#45;&gt;Node11 -->
<g id="edge42" class="edge"><title>Node12&#45;&gt;Node11</title>
<path fill="none" stroke="midnightblue" d="M262.87,-620.164C282.178,-642.394 314.618,-675.495 350,-693.5 385.426,-711.527 481.581,-729.573 555.771,-741.508"/>
<polygon fill="midnightblue" stroke="midnightblue" points="265.512,-617.868 256.37,-612.514 260.178,-622.401 265.512,-617.868"/>
</g>
<!-- Node12&#45;&gt;Node13 -->
<g id="edge30" class="edge"><title>Node12&#45;&gt;Node13</title>
<path fill="none" stroke="midnightblue" d="M249.554,-572.395C260.737,-521.491 291.351,-404.123 350,-323.5 365.894,-301.651 390.485,-282.866 408.961,-270.612"/>
<polygon fill="midnightblue" stroke="midnightblue" points="246.124,-571.701 247.46,-582.211 252.97,-573.162 246.124,-571.701"/>
</g>
<!-- Node12&#45;&gt;Node14 -->
<g id="edge43" class="edge"><title>Node12&#45;&gt;Node14</title>
<path fill="none" stroke="midnightblue" d="M250.884,-572.486C262.876,-530.799 292.866,-447.465 350,-404.5 416.962,-354.144 514.543,-340.317 580.281,-337.175"/>
<polygon fill="midnightblue" stroke="midnightblue" points="247.442,-571.8 248.155,-582.371 254.19,-573.663 247.442,-571.8"/>
</g>
<!-- Node12&#45;&gt;Node15 -->
<g id="edge44" class="edge"><title>Node12&#45;&gt;Node15</title>
<path fill="none" stroke="midnightblue" d="M248.02,-572.21C259.086,-496.621 295.693,-274.887 350,-230.5 382.32,-204.084 490.908,-201.246 568.368,-202.874"/>
<polygon fill="midnightblue" stroke="midnightblue" points="244.533,-571.867 246.573,-582.263 251.462,-572.864 244.533,-571.867"/>
</g>
<!-- Node12&#45;&gt;Node16 -->
<g id="edge45" class="edge"><title>Node12&#45;&gt;Node16</title>
<path fill="none" stroke="midnightblue" d="M266.391,-575.02C286.4,-555.793 317.712,-528.864 350,-513.5 390.639,-494.162 507.876,-471.734 583.473,-458.631"/>
<polygon fill="midnightblue" stroke="midnightblue" points="263.734,-572.724 259.045,-582.224 268.635,-577.721 263.734,-572.724"/>
</g>
<!-- Node12&#45;&gt;Node17 -->
<g id="edge46" class="edge"><title>Node12&#45;&gt;Node17</title>
<path fill="none" stroke="midnightblue" d="M247.582,-572.42C257.838,-493.219 293.398,-250.657 350,-199.5 405.649,-149.204 491.957,-139.891 557.909,-141.595"/>
<polygon fill="midnightblue" stroke="midnightblue" points="244.093,-572.113 246.304,-582.475 251.038,-572.996 244.093,-572.113"/>
</g>
<!-- Node13&#45;&gt;Node4 -->
<g id="edge31" class="edge"><title>Node13&#45;&gt;Node4</title>
<path fill="none" stroke="midnightblue" d="M456.22,-278.173C478.534,-301.951 516.543,-338.936 556,-361.5 562.928,-365.462 570.433,-369.001 578.085,-372.141"/>
<polygon fill="midnightblue" stroke="midnightblue" points="458.632,-275.625 449.275,-270.655 453.49,-280.376 458.632,-275.625"/>
</g>
<!-- Node13&#45;&gt;Node5 -->
<g id="edge32" class="edge"><title>Node13&#45;&gt;Node5</title>
<path fill="none" stroke="midnightblue" d="M530.321,-254.242C592.947,-255.471 676.482,-261.098 748,-279.5 784.975,-289.014 824.552,-308.673 849.633,-322.455"/>
<polygon fill="midnightblue" stroke="midnightblue" points="530.117,-250.738 520.061,-254.076 530.003,-257.737 530.117,-250.738"/>
</g>
<!-- Node13&#45;&gt;Node6 -->
<g id="edge33" class="edge"><title>Node13&#45;&gt;Node6</title>
<path fill="none" stroke="midnightblue" d="M519.705,-272.544C531.871,-274.933 544.25,-277.316 556,-279.5 641.126,-295.325 674.352,-266.971 748,-312.5 770.986,-326.71 766.08,-341.273 784,-361.5 807.565,-388.098 838.216,-415.69 857.377,-432.228"/>
<polygon fill="midnightblue" stroke="midnightblue" points="520.043,-269.043 509.555,-270.54 518.687,-275.91 520.043,-269.043"/>
</g>
<!-- Node13&#45;&gt;Node14 -->
<g id="edge34" class="edge"><title>Node13&#45;&gt;Node14</title>
<path fill="none" stroke="midnightblue" d="M493.192,-274.136C502.289,-277.61 511.497,-281.437 520,-285.5 536.919,-293.585 538.934,-299.731 556,-307.5 568.436,-313.161 582.243,-318.186 595.391,-322.427"/>
<polygon fill="midnightblue" stroke="midnightblue" points="494.38,-270.844 483.787,-270.65 491.947,-277.408 494.38,-270.844"/>
</g>
<!-- Node13&#45;&gt;Node15 -->
<g id="edge36" class="edge"><title>Node13&#45;&gt;Node15</title>
<path fill="none" stroke="midnightblue" d="M511.718,-238.243C530.072,-234.06 549.784,-229.568 568.436,-225.317"/>
<polygon fill="midnightblue" stroke="midnightblue" points="510.94,-234.831 501.968,-240.465 512.496,-241.656 510.94,-234.831"/>
</g>
<!-- Node13&#45;&gt;Node16 -->
<g id="edge37" class="edge"><title>Node13&#45;&gt;Node16</title>
<path fill="none" stroke="midnightblue" d="M446.893,-280.126C464.44,-316.881 502.494,-385.696 556,-422.5 564.15,-428.106 573.483,-432.455 583.045,-435.829"/>
<polygon fill="midnightblue" stroke="midnightblue" points="449.883,-278.254 442.492,-270.662 443.536,-281.206 449.883,-278.254"/>
</g>
<!-- Node13&#45;&gt;Node17 -->
<g id="edge39" class="edge"><title>Node13&#45;&gt;Node17</title>
<path fill="none" stroke="midnightblue" d="M462.87,-234.108C486.265,-216.418 521.717,-191.8 556,-176.5 564.488,-172.712 573.667,-169.404 582.859,-166.543"/>
<polygon fill="midnightblue" stroke="midnightblue" points="460.625,-231.419 454.821,-240.282 464.885,-236.973 460.625,-231.419"/>
</g>
<!-- Node14&#45;&gt;Node5 -->
<g id="edge35" class="edge"><title>Node14&#45;&gt;Node5</title>
<path fill="none" stroke="midnightblue" d="M733.774,-337.5C753.291,-337.5 774.164,-337.5 793.726,-337.5"/>
<polygon fill="midnightblue" stroke="midnightblue" points="733.706,-334 723.706,-337.5 733.706,-341 733.706,-334"/>
</g>
<!-- Node16&#45;&gt;Node6 -->
<g id="edge38" class="edge"><title>Node16&#45;&gt;Node6</title>
<path fill="none" stroke="midnightblue" d="M731.128,-447.5C748.199,-447.5 766.414,-447.5 783.955,-447.5"/>
<polygon fill="midnightblue" stroke="midnightblue" points="730.664,-444 720.664,-447.5 730.664,-451 730.664,-444"/>
</g>
</g>
</svg>
