<?xml version="1.0" encoding="UTF-8" standalone="no"?>
<!DOCTYPE svg PUBLIC "-//W3C//DTD SVG 1.1//EN"
 "http://www.w3.org/Graphics/SVG/1.1/DTD/svg11.dtd">
<!-- Generated by graphviz version 2.38.0 (20140413.2041)
 -->
<!-- Title: System.Linq.IOrderedEnumerable&lt; TElement &gt; Pages: 1 -->
<svg width="228pt" height="95pt"
 viewBox="0.00 0.00 227.50 95.00" xmlns="http://www.w3.org/2000/svg" xmlns:xlink="http://www.w3.org/1999/xlink">
<g id="graph0" class="graph" transform="scale(1 1) rotate(0) translate(4 91)">
<title>System.Linq.IOrderedEnumerable&lt; TElement &gt;</title>
<!-- Node6 -->
<g id="node1" class="node"><title>Node6</title>
<g id="a_node1"><a xlink:title="Represents a sorted sequence.">
<polygon fill="#bfbfbf" stroke="black" points="42.5,-0.5 42.5,-30.5 205.5,-30.5 205.5,-0.5 42.5,-0.5"/>
<text text-anchor="start" x="50.5" y="-18.5" font-family="Helvetica,sans-Serif" font-size="10.00">System.Linq.IOrderedEnumerable</text>
<text text-anchor="middle" x="124" y="-7.5" font-family="Helvetica,sans-Serif" font-size="10.00">&lt; TElement &gt;</text>
</a>
</g>
</g>
<!-- Node7 -->
<g id="node2" class="node"><title>Node7</title>
<g id="a_node2"><a xlink:href="interface_system_1_1_collections_1_1_i_enumerable.html" target="_top" xlink:title=" ">
<polygon fill="none" stroke="red" points="0,-67.5 0,-86.5 130,-86.5 130,-67.5 0,-67.5"/>
<text text-anchor="middle" x="65" y="-74.5" font-family="Helvetica,sans-Serif" font-size="10.00">IEnumerable&lt; TElement &gt;</text>
</a>
</g>
</g>
<!-- Node7&#45;&gt;Node6 -->
<g id="edge1" class="edge"><title>Node7&#45;&gt;Node6</title>
<path fill="none" stroke="midnightblue" d="M80.4997,-60.369C89.6781,-51.1127 101.211,-39.4824 110.095,-30.523"/>
<polygon fill="midnightblue" stroke="midnightblue" points="78.0092,-57.9098 73.4533,-67.4751 82.9798,-62.8387 78.0092,-57.9098"/>
</g>
<!-- Node9 -->
<g id="node3" class="node"><title>Node9</title>
<g id="a_node3"><a xlink:href="interface_system_1_1_collections_1_1_i_enumerable.html" target="_top" xlink:title="Exposes an enumerator, which supports a simple iteration over a non&#45;generic collection....">
<polygon fill="none" stroke="black" points="148.5,-67.5 148.5,-86.5 219.5,-86.5 219.5,-67.5 148.5,-67.5"/>
<text text-anchor="middle" x="184" y="-74.5" font-family="Helvetica,sans-Serif" font-size="10.00">IEnumerable</text>
</a>
</g>
</g>
<!-- Node9&#45;&gt;Node6 -->
<g id="edge2" class="edge"><title>Node9&#45;&gt;Node6</title>
<path fill="none" stroke="midnightblue" d="M168.238,-60.369C158.904,-51.1127 147.176,-39.4824 138.141,-30.523"/>
<polygon fill="midnightblue" stroke="midnightblue" points="165.838,-62.9189 175.403,-67.4751 170.767,-57.9484 165.838,-62.9189"/>
</g>
</g>
</svg>
