<?xml version="1.0" encoding="UTF-8" standalone="no"?>
<!DOCTYPE svg PUBLIC "-//W3C//DTD SVG 1.1//EN"
 "http://www.w3.org/Graphics/SVG/1.1/DTD/svg11.dtd">
<!-- Generated by graphviz version 2.38.0 (20140413.2041)
 -->
<!-- Title: System.Linq.IGrouping&lt; out out TKey, out out TElement &gt; Pages: 1 -->
<svg width="577pt" height="88pt"
 viewBox="0.00 0.00 577.00 88.00" xmlns="http://www.w3.org/2000/svg" xmlns:xlink="http://www.w3.org/1999/xlink">
<g id="graph0" class="graph" transform="scale(1 1) rotate(0) translate(4 84)">
<title>System.Linq.IGrouping&lt; out out TKey, out out TElement &gt;</title>
<!-- Node0 -->
<g id="node1" class="node"><title>Node0</title>
<g id="a_node1"><a xlink:title="Represents a collection of objects that have a common key.">
<polygon fill="#bfbfbf" stroke="black" points="167,-19 167,-60 284,-60 284,-19 167,-19"/>
<text text-anchor="start" x="175" y="-48" font-family="Helvetica,sans-Serif" font-size="10.00">System.Linq.IGrouping</text>
<text text-anchor="start" x="175" y="-37" font-family="Helvetica,sans-Serif" font-size="10.00">&lt; out out TKey, out out</text>
<text text-anchor="middle" x="225.5" y="-26" font-family="Helvetica,sans-Serif" font-size="10.00"> TElement &gt;</text>
</a>
</g>
</g>
<!-- Node4 -->
<g id="node4" class="node"><title>Node4</title>
<g id="a_node4"><a xlink:href="interface_system_1_1_linq_1_1_i_grouping.html" target="_top" xlink:title=" ">
<polygon fill="none" stroke="black" points="445.5,-49.5 445.5,-79.5 561.5,-79.5 561.5,-49.5 445.5,-49.5"/>
<text text-anchor="start" x="453.5" y="-67.5" font-family="Helvetica,sans-Serif" font-size="10.00">System.Linq.IGrouping</text>
<text text-anchor="middle" x="503.5" y="-56.5" font-family="Helvetica,sans-Serif" font-size="10.00">&lt; TKey, TElement &gt;</text>
</a>
</g>
</g>
<!-- Node0&#45;&gt;Node4 -->
<g id="edge3" class="edge"><title>Node0&#45;&gt;Node4</title>
<path fill="none" stroke="orange" stroke-dasharray="5,2" d="M294.26,-45.6377C340.526,-49.8285 401.154,-55.3201 445.051,-59.2963"/>
<polygon fill="orange" stroke="orange" points="294.298,-42.1269 284.023,-44.7104 293.666,-49.0983 294.298,-42.1269"/>
<text text-anchor="middle" x="361" y="-58.5" font-family="Helvetica,sans-Serif" font-size="10.00"> &lt; TKey, TElement &gt;</text>
</g>
<!-- Node5 -->
<g id="node5" class="node"><title>Node5</title>
<g id="a_node5"><a xlink:href="interface_system_1_1_linq_1_1_i_grouping.html" target="_top" xlink:title=" ">
<polygon fill="none" stroke="black" points="438,-0.5 438,-30.5 569,-30.5 569,-0.5 438,-0.5"/>
<text text-anchor="start" x="446" y="-18.5" font-family="Helvetica,sans-Serif" font-size="10.00">System.Linq.IGrouping</text>
<text text-anchor="middle" x="503.5" y="-7.5" font-family="Helvetica,sans-Serif" font-size="10.00">&lt; TGroupKey, TElement &gt;</text>
</a>
</g>
</g>
<!-- Node0&#45;&gt;Node5 -->
<g id="edge4" class="edge"><title>Node0&#45;&gt;Node5</title>
<path fill="none" stroke="orange" stroke-dasharray="5,2" d="M294.301,-32.2309C296.9,-31.9792 299.474,-31.7346 302,-31.5 347.375,-27.2863 398.591,-23.2108 437.901,-20.2276"/>
<polygon fill="orange" stroke="orange" points="293.801,-28.7632 284.195,-33.2311 294.491,-35.7291 293.801,-28.7632"/>
<text text-anchor="middle" x="361" y="-34.5" font-family="Helvetica,sans-Serif" font-size="10.00"> &lt; TGroupKey, TElement &gt;</text>
</g>
<!-- Node1 -->
<g id="node2" class="node"><title>Node1</title>
<g id="a_node2"><a xlink:href="interface_system_1_1_collections_1_1_i_enumerable.html" target="_top" xlink:title=" ">
<polygon fill="none" stroke="red" points="0,-49 0,-68 130,-68 130,-49 0,-49"/>
<text text-anchor="middle" x="65" y="-56" font-family="Helvetica,sans-Serif" font-size="10.00">IEnumerable&lt; TElement &gt;</text>
</a>
</g>
</g>
<!-- Node1&#45;&gt;Node0 -->
<g id="edge1" class="edge"><title>Node1&#45;&gt;Node0</title>
<path fill="none" stroke="midnightblue" d="M140.107,-49.6166C149.104,-48.538 158.19,-47.4489 166.898,-46.405"/>
<polygon fill="midnightblue" stroke="midnightblue" points="139.523,-46.1613 130.011,-50.8267 140.357,-53.1116 139.523,-46.1613"/>
</g>
<!-- Node3 -->
<g id="node3" class="node"><title>Node3</title>
<g id="a_node3"><a xlink:href="interface_system_1_1_collections_1_1_i_enumerable.html" target="_top" xlink:title="Exposes an enumerator, which supports a simple iteration over a non&#45;generic collection....">
<polygon fill="none" stroke="black" points="29.5,-11 29.5,-30 100.5,-30 100.5,-11 29.5,-11"/>
<text text-anchor="middle" x="65" y="-18" font-family="Helvetica,sans-Serif" font-size="10.00">IEnumerable</text>
</a>
</g>
</g>
<!-- Node3&#45;&gt;Node0 -->
<g id="edge2" class="edge"><title>Node3&#45;&gt;Node0</title>
<path fill="none" stroke="midnightblue" d="M111.168,-25.9145C128.464,-27.9878 148.435,-30.3818 166.749,-32.5772"/>
<polygon fill="midnightblue" stroke="midnightblue" points="111.129,-22.3848 100.783,-24.6696 110.296,-29.3351 111.129,-22.3848"/>
</g>
</g>
</svg>
