<?xml version="1.0" encoding="UTF-8" standalone="no"?>
<!DOCTYPE svg PUBLIC "-//W3C//DTD SVG 1.1//EN"
 "http://www.w3.org/Graphics/SVG/1.1/DTD/svg11.dtd">
<!-- Generated by graphviz version 2.38.0 (20140413.2041)
 -->
<!-- Title: System.Collections.Specialized.INotifyCollectionChanged Pages: 1 -->
<svg width="405pt" height="88pt"
 viewBox="0.00 0.00 405.00 88.00" xmlns="http://www.w3.org/2000/svg" xmlns:xlink="http://www.w3.org/1999/xlink">
<g id="graph0" class="graph" transform="scale(1 1) rotate(0) translate(4 84)">
<title>System.Collections.Specialized.INotifyCollectionChanged</title>
<!-- Node0 -->
<g id="node1" class="node"><title>Node0</title>
<g id="a_node1"><a xlink:title="Notifies listeners of dynamic changes, such as when an item is added and removed or the whole list is...">
<polygon fill="#bfbfbf" stroke="black" points="0,-24.5 0,-54.5 158,-54.5 158,-24.5 0,-24.5"/>
<text text-anchor="start" x="8" y="-42.5" font-family="Helvetica,sans-Serif" font-size="10.00">System.Collections.Specialized.</text>
<text text-anchor="middle" x="79" y="-31.5" font-family="Helvetica,sans-Serif" font-size="10.00">INotifyCollectionChanged</text>
</a>
</g>
</g>
<!-- Node1 -->
<g id="node2" class="node"><title>Node1</title>
<g id="a_node2"><a xlink:href="class_system_1_1_collections_1_1_object_model_1_1_observable_collection.html" target="_top" xlink:title="Represents a dynamic data collection that provides notifications when items get added,...">
<polygon fill="none" stroke="black" points="215.5,-49.5 215.5,-79.5 375.5,-79.5 375.5,-49.5 215.5,-49.5"/>
<text text-anchor="start" x="223.5" y="-67.5" font-family="Helvetica,sans-Serif" font-size="10.00">System.Collections.Object</text>
<text text-anchor="middle" x="295.5" y="-56.5" font-family="Helvetica,sans-Serif" font-size="10.00">Model.ObservableCollection&lt; T &gt;</text>
</a>
</g>
</g>
<!-- Node0&#45;&gt;Node1 -->
<g id="edge1" class="edge"><title>Node0&#45;&gt;Node1</title>
<path fill="none" stroke="midnightblue" d="M168.229,-49.7831C183.869,-51.6059 200.066,-53.4937 215.433,-55.2847"/>
<polygon fill="midnightblue" stroke="midnightblue" points="168.384,-46.2776 158.046,-48.5963 167.574,-53.2305 168.384,-46.2776"/>
</g>
<!-- Node2 -->
<g id="node3" class="node"><title>Node2</title>
<g id="a_node3"><a xlink:href="class_system_1_1_collections_1_1_object_model_1_1_read_only_observable_collection.html" target="_top" xlink:title="Represents a read&#45;only T:System.Collections.ObjectModel.ObservableCollection`1.">
<polygon fill="none" stroke="black" points="194,-0.5 194,-30.5 397,-30.5 397,-0.5 194,-0.5"/>
<text text-anchor="start" x="202" y="-18.5" font-family="Helvetica,sans-Serif" font-size="10.00">System.Collections.Object</text>
<text text-anchor="middle" x="295.5" y="-7.5" font-family="Helvetica,sans-Serif" font-size="10.00">Model.ReadOnlyObservableCollection&lt; T &gt;</text>
</a>
</g>
</g>
<!-- Node0&#45;&gt;Node2 -->
<g id="edge2" class="edge"><title>Node0&#45;&gt;Node2</title>
<path fill="none" stroke="midnightblue" d="M168.232,-29.6279C176.66,-28.6849 185.25,-27.7238 193.785,-26.7689"/>
<polygon fill="midnightblue" stroke="midnightblue" points="167.595,-26.1772 158.046,-30.7676 168.373,-33.1338 167.595,-26.1772"/>
</g>
</g>
</svg>
