<?xml version="1.0" encoding="UTF-8" standalone="no"?>
<!DOCTYPE svg PUBLIC "-//W3C//DTD SVG 1.1//EN"
 "http://www.w3.org/Graphics/SVG/1.1/DTD/svg11.dtd">
<!-- Generated by graphviz version 2.38.0 (20140413.2041)
 -->
<!-- Title: System.Runtime.Remoting.IRemotingTypeInfo Pages: 1 -->
<svg width="300pt" height="173pt"
 viewBox="0.00 0.00 300.00 173.00" xmlns="http://www.w3.org/2000/svg" xmlns:xlink="http://www.w3.org/1999/xlink">
<g id="graph0" class="graph" transform="scale(1 1) rotate(0) translate(4 169)">
<title>System.Runtime.Remoting.IRemotingTypeInfo</title>
<!-- Node0 -->
<g id="node1" class="node"><title>Node0</title>
<g id="a_node1"><a xlink:title="Provides type information for an object.">
<polygon fill="#bfbfbf" stroke="black" points="77,-134.5 77,-164.5 214,-164.5 214,-134.5 77,-134.5"/>
<text text-anchor="start" x="85" y="-152.5" font-family="Helvetica,sans-Serif" font-size="10.00">System.Runtime.Remoting.</text>
<text text-anchor="middle" x="145.5" y="-141.5" font-family="Helvetica,sans-Serif" font-size="10.00">IRemotingTypeInfo</text>
</a>
</g>
</g>
<!-- Node1 -->
<g id="node2" class="node"><title>Node1</title>
<g id="a_node2"><a xlink:href="class_system_1_1_runtime_1_1_remoting_1_1_proxies_1_1_remoting_proxy.html" target="_top" xlink:title=" ">
<polygon fill="none" stroke="black" points="0,-67.5 0,-97.5 137,-97.5 137,-67.5 0,-67.5"/>
<text text-anchor="start" x="8" y="-85.5" font-family="Helvetica,sans-Serif" font-size="10.00">System.Runtime.Remoting.</text>
<text text-anchor="middle" x="68.5" y="-74.5" font-family="Helvetica,sans-Serif" font-size="10.00">Proxies.RemotingProxy</text>
</a>
</g>
</g>
<!-- Node0&#45;&gt;Node1 -->
<g id="edge1" class="edge"><title>Node0&#45;&gt;Node1</title>
<path fill="none" stroke="midnightblue" d="M121.077,-127.883C109.376,-118.005 95.6624,-106.429 85.1752,-97.5765"/>
<polygon fill="midnightblue" stroke="midnightblue" points="118.893,-130.62 128.792,-134.396 123.408,-125.271 118.893,-130.62"/>
</g>
<!-- Node2 -->
<g id="node3" class="node"><title>Node2</title>
<g id="a_node3"><a xlink:href="class_system_1_1_runtime_1_1_remoting_1_1_type_info.html" target="_top" xlink:title=" ">
<polygon fill="none" stroke="black" points="155,-67.5 155,-97.5 292,-97.5 292,-67.5 155,-67.5"/>
<text text-anchor="start" x="163" y="-85.5" font-family="Helvetica,sans-Serif" font-size="10.00">System.Runtime.Remoting.</text>
<text text-anchor="middle" x="223.5" y="-74.5" font-family="Helvetica,sans-Serif" font-size="10.00">TypeInfo</text>
</a>
</g>
</g>
<!-- Node0&#45;&gt;Node2 -->
<g id="edge2" class="edge"><title>Node0&#45;&gt;Node2</title>
<path fill="none" stroke="midnightblue" d="M170.24,-127.883C182.093,-118.005 195.985,-106.429 206.608,-97.5765"/>
<polygon fill="midnightblue" stroke="midnightblue" points="167.866,-125.305 162.425,-134.396 172.348,-130.683 167.866,-125.305"/>
</g>
<!-- Node3 -->
<g id="node4" class="node"><title>Node3</title>
<g id="a_node4"><a xlink:href="class_system_1_1_runtime_1_1_remoting_1_1_dynamic_type_info.html" target="_top" xlink:title=" ">
<polygon fill="none" stroke="black" points="155,-0.5 155,-30.5 292,-30.5 292,-0.5 155,-0.5"/>
<text text-anchor="start" x="163" y="-18.5" font-family="Helvetica,sans-Serif" font-size="10.00">System.Runtime.Remoting.</text>
<text text-anchor="middle" x="223.5" y="-7.5" font-family="Helvetica,sans-Serif" font-size="10.00">DynamicTypeInfo</text>
</a>
</g>
</g>
<!-- Node2&#45;&gt;Node3 -->
<g id="edge3" class="edge"><title>Node2&#45;&gt;Node3</title>
<path fill="none" stroke="midnightblue" d="M223.5,-57.1081C223.5,-48.1539 223.5,-38.3227 223.5,-30.5765"/>
<polygon fill="midnightblue" stroke="midnightblue" points="220,-57.3959 223.5,-67.396 227,-57.396 220,-57.3959"/>
</g>
</g>
</svg>
