<?xml version="1.0" encoding="UTF-8" standalone="no"?>
<!DOCTYPE svg PUBLIC "-//W3C//DTD SVG 1.1//EN"
 "http://www.w3.org/Graphics/SVG/1.1/DTD/svg11.dtd">
<!-- Generated by graphviz version 2.38.0 (20140413.2041)
 -->
<!-- Title: System.Collections.Generic.IList&lt; T &gt; Pages: 1 -->
<svg width="782pt" height="1120pt"
 viewBox="0.00 0.00 782.00 1119.57" xmlns="http://www.w3.org/2000/svg" xmlns:xlink="http://www.w3.org/1999/xlink">
<g id="graph0" class="graph" transform="scale(1 1) rotate(0) translate(4 1115.57)">
<title>System.Collections.Generic.IList&lt; T &gt;</title>
<!-- Node0 -->
<g id="node1" class="node"><title>Node0</title>
<g id="a_node1"><a xlink:title="Represents a collection of objects that can be individually accessed by index.">
<polygon fill="#bfbfbf" stroke="black" points="253,-546.501 253,-576.501 394,-576.501 394,-546.501 253,-546.501"/>
<text text-anchor="start" x="261" y="-564.501" font-family="Helvetica,sans-Serif" font-size="10.00">System.Collections.Generic.</text>
<text text-anchor="middle" x="323.5" y="-553.501" font-family="Helvetica,sans-Serif" font-size="10.00">IList&lt; T &gt;</text>
</a>
</g>
</g>
<!-- Node5 -->
<g id="node5" class="node"><title>Node5</title>
<g id="a_node5"><a xlink:href="class_system_1_1_collections_1_1_generic_1_1_list.html" target="_top" xlink:title="Represents a strongly typed list of objects that can be accessed by index. Provides methods to search...">
<polygon fill="none" stroke="red" points="611,-1079.5 611,-1109.5 752,-1109.5 752,-1079.5 611,-1079.5"/>
<text text-anchor="start" x="619" y="-1097.5" font-family="Helvetica,sans-Serif" font-size="10.00">System.Collections.Generic.</text>
<text text-anchor="middle" x="681.5" y="-1086.5" font-family="Helvetica,sans-Serif" font-size="10.00">List&lt; T &gt;</text>
</a>
</g>
</g>
<!-- Node0&#45;&gt;Node5 -->
<g id="edge6" class="edge"><title>Node0&#45;&gt;Node5</title>
<path fill="none" stroke="midnightblue" d="M325.031,-586.666C327.538,-679.272 341.265,-999.174 412,-1065.5 464.414,-1114.65 550.295,-1115.35 610.79,-1107.99"/>
<polygon fill="midnightblue" stroke="midnightblue" points="328.526,-586.441 324.778,-576.531 321.529,-586.616 328.526,-586.441"/>
</g>
<!-- Node65 -->
<g id="node6" class="node"><title>Node65</title>
<g id="a_node6"><a xlink:href="class_system_1_1_collections_1_1_generic_1_1_list.html" target="_top" xlink:title="Represents a strongly typed list of objects that can be accessed by index. Provides methods to search...">
<polygon fill="none" stroke="red" points="629.5,-1030.5 629.5,-1060.5 733.5,-1060.5 733.5,-1030.5 629.5,-1030.5"/>
<text text-anchor="start" x="637.5" y="-1048.5" font-family="Helvetica,sans-Serif" font-size="10.00">System::Collections</text>
<text text-anchor="middle" x="681.5" y="-1037.5" font-family="Helvetica,sans-Serif" font-size="10.00">::Generic::List&lt; T &gt;</text>
</a>
</g>
</g>
<!-- Node0&#45;&gt;Node65 -->
<g id="edge7" class="edge"><title>Node0&#45;&gt;Node65</title>
<path fill="none" stroke="midnightblue" d="M325.259,-586.83C328.498,-675.849 344.277,-972.173 412,-1031.5 471.425,-1083.56 569.635,-1072.9 629.371,-1059.7"/>
<polygon fill="midnightblue" stroke="midnightblue" points="328.756,-586.68 324.917,-576.805 321.76,-586.919 328.756,-586.68"/>
</g>
<!-- Node66 -->
<g id="node7" class="node"><title>Node66</title>
<g id="a_node7"><a xlink:href="interface_system_1_1_collections_1_1_generic_1_1_i_list.html" target="_top" xlink:title=" ">
<polygon fill="none" stroke="black" points="594.5,-970.001 594.5,-1011 768.5,-1011 768.5,-970.001 594.5,-970.001"/>
<text text-anchor="start" x="602.5" y="-999.001" font-family="Helvetica,sans-Serif" font-size="10.00">System.Collections.Generic.</text>
<text text-anchor="start" x="602.5" y="-988.001" font-family="Helvetica,sans-Serif" font-size="10.00">IList&lt; System.Diagnostics.Eventing.</text>
<text text-anchor="middle" x="681.5" y="-977.001" font-family="Helvetica,sans-Serif" font-size="10.00">Reader.EventLogLink &gt;</text>
</a>
</g>
</g>
<!-- Node0&#45;&gt;Node66 -->
<g id="edge8" class="edge"><title>Node0&#45;&gt;Node66</title>
<path fill="none" stroke="orange" stroke-dasharray="5,2" d="M326.143,-587.266C331.897,-668.614 354.027,-917.614 412,-968.501 438.407,-991.68 526.306,-995.229 594.42,-994.206"/>
<polygon fill="orange" stroke="orange" points="329.611,-586.676 325.438,-576.938 322.627,-587.153 329.611,-586.676"/>
<text text-anchor="start" x="428.5" y="-1019.5" font-family="Helvetica,sans-Serif" font-size="10.00"> &lt; System::Diagnostics</text>
<text text-anchor="start" x="428.5" y="-1008.5" font-family="Helvetica,sans-Serif" font-size="10.00">::Eventing::Reader::EventLog</text>
<text text-anchor="middle" x="491.5" y="-997.501" font-family="Helvetica,sans-Serif" font-size="10.00">Link &gt;</text>
</g>
<!-- Node67 -->
<g id="node8" class="node"><title>Node67</title>
<g id="a_node8"><a xlink:href="interface_system_1_1_collections_1_1_generic_1_1_i_list.html" target="_top" xlink:title=" ">
<polygon fill="none" stroke="black" points="610,-910.001 610,-951.001 753,-951.001 753,-910.001 610,-910.001"/>
<text text-anchor="start" x="618" y="-939.001" font-family="Helvetica,sans-Serif" font-size="10.00">System.Collections.Generic.</text>
<text text-anchor="start" x="618" y="-928.001" font-family="Helvetica,sans-Serif" font-size="10.00">IList&lt; System.ArraySegment</text>
<text text-anchor="middle" x="681.5" y="-917.001" font-family="Helvetica,sans-Serif" font-size="10.00">&lt; byte &gt; &gt;</text>
</a>
</g>
</g>
<!-- Node0&#45;&gt;Node67 -->
<g id="edge9" class="edge"><title>Node0&#45;&gt;Node67</title>
<path fill="none" stroke="orange" stroke-dasharray="5,2" d="M327.377,-587.063C335.983,-658.686 363.957,-858.81 412,-900.501 465.758,-947.152 550.129,-949.037 609.93,-942.837"/>
<polygon fill="orange" stroke="orange" points="330.804,-586.239 326.161,-576.716 323.852,-587.056 330.804,-586.239"/>
<text text-anchor="start" x="434" y="-959.501" font-family="Helvetica,sans-Serif" font-size="10.00"> &lt; System::ArraySegment</text>
<text text-anchor="middle" x="491.5" y="-948.501" font-family="Helvetica,sans-Serif" font-size="10.00">&lt; byte &gt; &gt;</text>
</g>
<!-- Node68 -->
<g id="node9" class="node"><title>Node68</title>
<g id="a_node9"><a xlink:href="interface_system_1_1_collections_1_1_generic_1_1_i_list.html" target="_top" xlink:title=" ">
<polygon fill="none" stroke="black" points="594.5,-850.001 594.5,-891.001 768.5,-891.001 768.5,-850.001 594.5,-850.001"/>
<text text-anchor="start" x="602.5" y="-879.001" font-family="Helvetica,sans-Serif" font-size="10.00">System.Collections.Generic.</text>
<text text-anchor="start" x="602.5" y="-868.001" font-family="Helvetica,sans-Serif" font-size="10.00">IList&lt; System.Diagnostics.Eventing.</text>
<text text-anchor="middle" x="681.5" y="-857.001" font-family="Helvetica,sans-Serif" font-size="10.00">Reader.EventOpcode &gt;</text>
</a>
</g>
</g>
<!-- Node0&#45;&gt;Node68 -->
<g id="edge10" class="edge"><title>Node0&#45;&gt;Node68</title>
<path fill="none" stroke="orange" stroke-dasharray="5,2" d="M323.585,-587.174C323.093,-644.513 330.818,-783.078 412,-848.501 439.267,-870.475 526.509,-874.269 594.23,-873.633"/>
<polygon fill="orange" stroke="orange" points="327.091,-586.897 323.774,-576.835 320.092,-586.769 327.091,-586.897"/>
<text text-anchor="start" x="415" y="-888.501" font-family="Helvetica,sans-Serif" font-size="10.00"> &lt; System::Diagnostics</text>
<text text-anchor="middle" x="491.5" y="-877.501" font-family="Helvetica,sans-Serif" font-size="10.00">::Eventing::Reader::EventOpcode &gt;</text>
</g>
<!-- Node69 -->
<g id="node10" class="node"><title>Node69</title>
<g id="a_node10"><a xlink:href="interface_system_1_1_collections_1_1_generic_1_1_i_list.html" target="_top" xlink:title=" ">
<polygon fill="none" stroke="black" points="601.5,-790.001 601.5,-831.001 761.5,-831.001 761.5,-790.001 601.5,-790.001"/>
<text text-anchor="start" x="609.5" y="-819.001" font-family="Helvetica,sans-Serif" font-size="10.00">System.Collections.Generic.</text>
<text text-anchor="start" x="609.5" y="-808.001" font-family="Helvetica,sans-Serif" font-size="10.00">IList&lt; System.Reflection.Custom</text>
<text text-anchor="middle" x="681.5" y="-797.001" font-family="Helvetica,sans-Serif" font-size="10.00">AttributeNamedArgument &gt;</text>
</a>
</g>
</g>
<!-- Node0&#45;&gt;Node69 -->
<g id="edge11" class="edge"><title>Node0&#45;&gt;Node69</title>
<path fill="none" stroke="orange" stroke-dasharray="5,2" d="M326.383,-586.848C331.347,-633.769 349.136,-733.719 412,-781.501 465.471,-822.143 543.173,-826.381 601.245,-822.231"/>
<polygon fill="orange" stroke="orange" points="329.844,-586.267 325.42,-576.64 322.875,-586.925 329.844,-586.267"/>
<text text-anchor="start" x="412" y="-837.501" font-family="Helvetica,sans-Serif" font-size="10.00"> &lt; System::Reflection</text>
<text text-anchor="middle" x="491.5" y="-826.501" font-family="Helvetica,sans-Serif" font-size="10.00">::CustomAttributeNamedArgument &gt;</text>
</g>
<!-- Node70 -->
<g id="node11" class="node"><title>Node70</title>
<g id="a_node11"><a xlink:href="interface_system_1_1_collections_1_1_generic_1_1_i_list.html" target="_top" xlink:title=" ">
<polygon fill="none" stroke="black" points="601.5,-730.001 601.5,-771.001 761.5,-771.001 761.5,-730.001 601.5,-730.001"/>
<text text-anchor="start" x="609.5" y="-759.001" font-family="Helvetica,sans-Serif" font-size="10.00">System.Collections.Generic.</text>
<text text-anchor="start" x="609.5" y="-748.001" font-family="Helvetica,sans-Serif" font-size="10.00">IList&lt; System.Reflection.Custom</text>
<text text-anchor="middle" x="681.5" y="-737.001" font-family="Helvetica,sans-Serif" font-size="10.00">AttributeTypedArgument &gt;</text>
</a>
</g>
</g>
<!-- Node0&#45;&gt;Node70 -->
<g id="edge12" class="edge"><title>Node0&#45;&gt;Node70</title>
<path fill="none" stroke="orange" stroke-dasharray="5,2" d="M331.664,-586.463C342.834,-620.512 367.838,-680.685 412,-710.501 467.563,-748.014 544.28,-756.188 601.486,-756.046"/>
<polygon fill="orange" stroke="orange" points="334.966,-585.293 328.636,-576.797 328.286,-587.386 334.966,-585.293"/>
<text text-anchor="start" x="414.5" y="-769.501" font-family="Helvetica,sans-Serif" font-size="10.00"> &lt; System::Reflection</text>
<text text-anchor="middle" x="491.5" y="-758.501" font-family="Helvetica,sans-Serif" font-size="10.00">::CustomAttributeTypedArgument &gt;</text>
</g>
<!-- Node71 -->
<g id="node12" class="node"><title>Node71</title>
<g id="a_node12"><a xlink:href="interface_system_1_1_collections_1_1_generic_1_1_i_list.html" target="_top" xlink:title=" ">
<polygon fill="none" stroke="black" points="611,-680.501 611,-710.501 752,-710.501 752,-680.501 611,-680.501"/>
<text text-anchor="start" x="619" y="-698.501" font-family="Helvetica,sans-Serif" font-size="10.00">System.Collections.Generic.</text>
<text text-anchor="middle" x="681.5" y="-687.501" font-family="Helvetica,sans-Serif" font-size="10.00">IList&lt; object &gt;</text>
</a>
</g>
</g>
<!-- Node0&#45;&gt;Node71 -->
<g id="edge13" class="edge"><title>Node0&#45;&gt;Node71</title>
<path fill="none" stroke="orange" stroke-dasharray="5,2" d="M339.644,-585.35C355.026,-607.404 380.961,-639.162 412,-655.501 473.93,-688.101 554.36,-696.339 610.987,-697.51"/>
<polygon fill="orange" stroke="orange" points="342.401,-583.178 333.901,-576.852 336.601,-587.097 342.401,-583.178"/>
<text text-anchor="middle" x="491.5" y="-698.501" font-family="Helvetica,sans-Serif" font-size="10.00"> &lt; object &gt;</text>
</g>
<!-- Node72 -->
<g id="node13" class="node"><title>Node72</title>
<g id="a_node13"><a xlink:href="interface_system_1_1_collections_1_1_generic_1_1_i_list.html" target="_top" xlink:title=" ">
<polygon fill="none" stroke="black" points="611,-631.501 611,-661.501 752,-661.501 752,-631.501 611,-631.501"/>
<text text-anchor="start" x="619" y="-649.501" font-family="Helvetica,sans-Serif" font-size="10.00">System.Collections.Generic.</text>
<text text-anchor="middle" x="681.5" y="-638.501" font-family="Helvetica,sans-Serif" font-size="10.00">IList&lt; TValue &gt;</text>
</a>
</g>
</g>
<!-- Node0&#45;&gt;Node72 -->
<g id="edge14" class="edge"><title>Node0&#45;&gt;Node72</title>
<path fill="none" stroke="orange" stroke-dasharray="5,2" d="M356.224,-582.055C372.324,-591.557 392.549,-602.125 412,-608.501 477.428,-629.948 555.73,-639.292 610.843,-643.362"/>
<polygon fill="orange" stroke="orange" points="357.625,-578.811 347.259,-576.623 353.998,-584.798 357.625,-578.811"/>
<text text-anchor="middle" x="491.5" y="-643.501" font-family="Helvetica,sans-Serif" font-size="10.00"> &lt; TValue &gt;</text>
</g>
<!-- Node73 -->
<g id="node14" class="node"><title>Node73</title>
<g id="a_node14"><a xlink:href="interface_system_1_1_collections_1_1_generic_1_1_i_list.html" target="_top" xlink:title=" ">
<polygon fill="none" stroke="black" points="594.5,-571.001 594.5,-612.001 768.5,-612.001 768.5,-571.001 594.5,-571.001"/>
<text text-anchor="start" x="602.5" y="-600.001" font-family="Helvetica,sans-Serif" font-size="10.00">System.Collections.Generic.</text>
<text text-anchor="start" x="602.5" y="-589.001" font-family="Helvetica,sans-Serif" font-size="10.00">IList&lt; System.Diagnostics.Eventing.</text>
<text text-anchor="middle" x="681.5" y="-578.001" font-family="Helvetica,sans-Serif" font-size="10.00">Reader.EventKeyword &gt;</text>
</a>
</g>
</g>
<!-- Node0&#45;&gt;Node73 -->
<g id="edge15" class="edge"><title>Node0&#45;&gt;Node73</title>
<path fill="none" stroke="orange" stroke-dasharray="5,2" d="M404.722,-568.261C461.181,-573.019 536.669,-579.38 594.392,-584.245"/>
<polygon fill="orange" stroke="orange" points="404.668,-564.744 394.409,-567.392 404.08,-571.719 404.668,-564.744"/>
<text text-anchor="start" x="413" y="-596.501" font-family="Helvetica,sans-Serif" font-size="10.00"> &lt; System::Diagnostics</text>
<text text-anchor="middle" x="491.5" y="-585.501" font-family="Helvetica,sans-Serif" font-size="10.00">::Eventing::Reader::EventKeyword &gt;</text>
</g>
<!-- Node74 -->
<g id="node15" class="node"><title>Node74</title>
<g id="a_node15"><a xlink:href="interface_system_1_1_collections_1_1_generic_1_1_i_list.html" target="_top" xlink:title=" ">
<polygon fill="none" stroke="black" points="589,-511.001 589,-552.001 774,-552.001 774,-511.001 589,-511.001"/>
<text text-anchor="start" x="597" y="-540.001" font-family="Helvetica,sans-Serif" font-size="10.00">System.Collections.Generic.</text>
<text text-anchor="start" x="597" y="-529.001" font-family="Helvetica,sans-Serif" font-size="10.00">IList&lt; System.Reflection.LocalVariable</text>
<text text-anchor="middle" x="681.5" y="-518.001" font-family="Helvetica,sans-Serif" font-size="10.00">Info &gt;</text>
</a>
</g>
</g>
<!-- Node0&#45;&gt;Node74 -->
<g id="edge16" class="edge"><title>Node0&#45;&gt;Node74</title>
<path fill="none" stroke="orange" stroke-dasharray="5,2" d="M404.241,-545.515C406.854,-545.149 409.446,-544.809 412,-544.501 470.611,-537.425 536.859,-534.168 588.885,-532.683"/>
<polygon fill="orange" stroke="orange" points="403.454,-542.094 394.088,-547.047 404.498,-549.016 403.454,-542.094"/>
<text text-anchor="start" x="444" y="-558.501" font-family="Helvetica,sans-Serif" font-size="10.00"> &lt; System::Reflection</text>
<text text-anchor="middle" x="491.5" y="-547.501" font-family="Helvetica,sans-Serif" font-size="10.00">::LocalVariableInfo &gt;</text>
</g>
<!-- Node75 -->
<g id="node16" class="node"><title>Node75</title>
<g id="a_node16"><a xlink:href="interface_system_1_1_collections_1_1_generic_1_1_i_list.html" target="_top" xlink:title=" ">
<polygon fill="none" stroke="black" points="611,-461.501 611,-491.501 752,-491.501 752,-461.501 611,-461.501"/>
<text text-anchor="start" x="619" y="-479.501" font-family="Helvetica,sans-Serif" font-size="10.00">System.Collections.Generic.</text>
<text text-anchor="middle" x="681.5" y="-468.501" font-family="Helvetica,sans-Serif" font-size="10.00">IList&lt; string &gt;</text>
</a>
</g>
</g>
<!-- Node0&#45;&gt;Node75 -->
<g id="edge17" class="edge"><title>Node0&#45;&gt;Node75</title>
<path fill="none" stroke="orange" stroke-dasharray="5,2" d="M358.895,-541.599C374.626,-533.291 393.786,-524.254 412,-518.501 477.686,-497.752 555.78,-487.009 610.765,-481.607"/>
<polygon fill="orange" stroke="orange" points="357.193,-538.54 350.061,-546.376 360.523,-544.698 357.193,-538.54"/>
<text text-anchor="middle" x="491.5" y="-521.501" font-family="Helvetica,sans-Serif" font-size="10.00"> &lt; string &gt;</text>
</g>
<!-- Node76 -->
<g id="node17" class="node"><title>Node76</title>
<g id="a_node17"><a xlink:href="interface_system_1_1_collections_1_1_generic_1_1_i_list.html" target="_top" xlink:title=" ">
<polygon fill="none" stroke="black" points="594.5,-401.001 594.5,-442.001 768.5,-442.001 768.5,-401.001 594.5,-401.001"/>
<text text-anchor="start" x="602.5" y="-430.001" font-family="Helvetica,sans-Serif" font-size="10.00">System.Collections.Generic.</text>
<text text-anchor="start" x="602.5" y="-419.001" font-family="Helvetica,sans-Serif" font-size="10.00">IList&lt; System.Diagnostics.Eventing.</text>
<text text-anchor="middle" x="681.5" y="-408.001" font-family="Helvetica,sans-Serif" font-size="10.00">Reader.EventLevel &gt;</text>
</a>
</g>
</g>
<!-- Node0&#45;&gt;Node76 -->
<g id="edge18" class="edge"><title>Node0&#45;&gt;Node76</title>
<path fill="none" stroke="orange" stroke-dasharray="5,2" d="M338.259,-537.358C353.178,-513.609 379.298,-478.39 412,-460.501 467.685,-430.039 539.14,-420.84 594.335,-418.959"/>
<polygon fill="orange" stroke="orange" points="335.124,-535.778 332.921,-546.142 341.106,-539.414 335.124,-535.778"/>
<text text-anchor="start" x="421" y="-474.501" font-family="Helvetica,sans-Serif" font-size="10.00"> &lt; System::Diagnostics</text>
<text text-anchor="middle" x="491.5" y="-463.501" font-family="Helvetica,sans-Serif" font-size="10.00">::Eventing::Reader::EventLevel &gt;</text>
</g>
<!-- Node77 -->
<g id="node18" class="node"><title>Node77</title>
<g id="a_node18"><a xlink:href="interface_system_1_1_collections_1_1_generic_1_1_i_list.html" target="_top" xlink:title=" ">
<polygon fill="none" stroke="black" points="594.5,-341.001 594.5,-382.001 768.5,-382.001 768.5,-341.001 594.5,-341.001"/>
<text text-anchor="start" x="602.5" y="-370.001" font-family="Helvetica,sans-Serif" font-size="10.00">System.Collections.Generic.</text>
<text text-anchor="start" x="602.5" y="-359.001" font-family="Helvetica,sans-Serif" font-size="10.00">IList&lt; System.Diagnostics.Eventing.</text>
<text text-anchor="middle" x="681.5" y="-348.001" font-family="Helvetica,sans-Serif" font-size="10.00">Reader.EventTask &gt;</text>
</a>
</g>
</g>
<!-- Node0&#45;&gt;Node77 -->
<g id="edge19" class="edge"><title>Node0&#45;&gt;Node77</title>
<path fill="none" stroke="orange" stroke-dasharray="5,2" d="M329.984,-536.391C339.589,-498.946 363.252,-429.27 412,-395.501 464.819,-358.911 537.824,-351.711 594.378,-352.942"/>
<polygon fill="orange" stroke="orange" points="326.495,-535.929 327.54,-546.472 333.298,-537.578 326.495,-535.929"/>
<text text-anchor="start" x="421.5" y="-409.501" font-family="Helvetica,sans-Serif" font-size="10.00"> &lt; System::Diagnostics</text>
<text text-anchor="middle" x="491.5" y="-398.501" font-family="Helvetica,sans-Serif" font-size="10.00">::Eventing::Reader::EventTask &gt;</text>
</g>
<!-- Node78 -->
<g id="node19" class="node"><title>Node78</title>
<g id="a_node19"><a xlink:href="interface_system_1_1_collections_1_1_generic_1_1_i_list.html" target="_top" xlink:title=" ">
<polygon fill="none" stroke="black" points="611,-291.501 611,-321.501 752,-321.501 752,-291.501 611,-291.501"/>
<text text-anchor="start" x="619" y="-309.501" font-family="Helvetica,sans-Serif" font-size="10.00">System.Collections.Generic.</text>
<text text-anchor="middle" x="681.5" y="-298.501" font-family="Helvetica,sans-Serif" font-size="10.00">IList&lt; char &gt;</text>
</a>
</g>
</g>
<!-- Node0&#45;&gt;Node78 -->
<g id="edge20" class="edge"><title>Node0&#45;&gt;Node78</title>
<path fill="none" stroke="orange" stroke-dasharray="5,2" d="M326.251,-536.524C331.009,-489.367 348.49,-387.563 412,-338.501 468.283,-295.022 551.985,-291.797 610.941,-296.409"/>
<polygon fill="orange" stroke="orange" points="322.764,-536.226 325.355,-546.499 329.736,-536.852 322.764,-536.226"/>
<text text-anchor="middle" x="491.5" y="-341.501" font-family="Helvetica,sans-Serif" font-size="10.00"> &lt; char &gt;</text>
</g>
<!-- Node79 -->
<g id="node20" class="node"><title>Node79</title>
<g id="a_node20"><a xlink:href="interface_system_1_1_collections_1_1_generic_1_1_i_list.html" target="_top" xlink:title=" ">
<polygon fill="none" stroke="black" points="611,-242.501 611,-272.501 752,-272.501 752,-242.501 611,-242.501"/>
<text text-anchor="start" x="619" y="-260.501" font-family="Helvetica,sans-Serif" font-size="10.00">System.Collections.Generic.</text>
<text text-anchor="middle" x="681.5" y="-249.501" font-family="Helvetica,sans-Serif" font-size="10.00">IList&lt; TKey &gt;</text>
</a>
</g>
</g>
<!-- Node0&#45;&gt;Node79 -->
<g id="edge21" class="edge"><title>Node0&#45;&gt;Node79</title>
<path fill="none" stroke="orange" stroke-dasharray="5,2" d="M323.797,-536.368C323.738,-480.236 332.297,-344.584 412,-280.501 467.33,-236.014 551.41,-236.187 610.713,-243.705"/>
<polygon fill="orange" stroke="orange" points="320.298,-536.528 323.905,-546.49 327.298,-536.453 320.298,-536.528"/>
<text text-anchor="middle" x="491.5" y="-283.501" font-family="Helvetica,sans-Serif" font-size="10.00"> &lt; TKey &gt;</text>
</g>
<!-- Node80 -->
<g id="node21" class="node"><title>Node80</title>
<g id="a_node21"><a xlink:href="interface_system_1_1_collections_1_1_generic_1_1_i_list.html" target="_top" xlink:title=" ">
<polygon fill="none" stroke="black" points="589,-193.501 589,-223.501 774,-223.501 774,-193.501 589,-193.501"/>
<text text-anchor="start" x="597" y="-211.501" font-family="Helvetica,sans-Serif" font-size="10.00">System.Collections.Generic.</text>
<text text-anchor="middle" x="681.5" y="-200.501" font-family="Helvetica,sans-Serif" font-size="10.00">IList&lt; System.Threading.Tasks.Task &gt;</text>
</a>
</g>
</g>
<!-- Node0&#45;&gt;Node80 -->
<g id="edge22" class="edge"><title>Node0&#45;&gt;Node80</title>
<path fill="none" stroke="orange" stroke-dasharray="5,2" d="M326.996,-536.073C334.737,-463.029 360.941,-255.208 412,-214.501 474.16,-164.943 572.622,-178.736 631.457,-193.478"/>
<polygon fill="orange" stroke="orange" points="323.495,-535.909 325.949,-546.216 330.458,-536.628 323.495,-535.909"/>
<text text-anchor="start" x="444.5" y="-228.501" font-family="Helvetica,sans-Serif" font-size="10.00"> &lt; System::Threading</text>
<text text-anchor="middle" x="491.5" y="-217.501" font-family="Helvetica,sans-Serif" font-size="10.00">::Tasks::Task &gt;</text>
</g>
<!-- Node81 -->
<g id="node22" class="node"><title>Node81</title>
<g id="a_node22"><a xlink:href="interface_system_1_1_collections_1_1_generic_1_1_i_list.html" target="_top" xlink:title=" ">
<polygon fill="none" stroke="black" points="596.5,-133.001 596.5,-174.001 766.5,-174.001 766.5,-133.001 596.5,-133.001"/>
<text text-anchor="start" x="604.5" y="-162.001" font-family="Helvetica,sans-Serif" font-size="10.00">System.Collections.Generic.</text>
<text text-anchor="start" x="604.5" y="-151.001" font-family="Helvetica,sans-Serif" font-size="10.00">IList&lt; System.Reflection.Exception</text>
<text text-anchor="middle" x="681.5" y="-140.001" font-family="Helvetica,sans-Serif" font-size="10.00">HandlingClause &gt;</text>
</a>
</g>
</g>
<!-- Node0&#45;&gt;Node81 -->
<g id="edge23" class="edge"><title>Node0&#45;&gt;Node81</title>
<path fill="none" stroke="orange" stroke-dasharray="5,2" d="M325.947,-536.092C331.159,-454.745 351.952,-203.196 412,-154.501 468.572,-108.624 556.11,-118.377 615.74,-132.942"/>
<polygon fill="orange" stroke="orange" points="322.434,-536.206 325.313,-546.402 329.42,-536.636 322.434,-536.206"/>
<text text-anchor="start" x="428" y="-168.501" font-family="Helvetica,sans-Serif" font-size="10.00"> &lt; System::Reflection</text>
<text text-anchor="middle" x="491.5" y="-157.501" font-family="Helvetica,sans-Serif" font-size="10.00">::ExceptionHandlingClause &gt;</text>
</g>
<!-- Node82 -->
<g id="node23" class="node"><title>Node82</title>
<g id="a_node23"><a xlink:href="interface_system_1_1_collections_1_1_generic_1_1_i_list.html" target="_top" xlink:title=" ">
<polygon fill="none" stroke="black" points="602.5,-73.0008 602.5,-114.001 760.5,-114.001 760.5,-73.0008 602.5,-73.0008"/>
<text text-anchor="start" x="610.5" y="-102.001" font-family="Helvetica,sans-Serif" font-size="10.00">System.Collections.Generic.</text>
<text text-anchor="start" x="610.5" y="-91.0008" font-family="Helvetica,sans-Serif" font-size="10.00">IList&lt; System.Linq.Expressions.</text>
<text text-anchor="middle" x="681.5" y="-80.0008" font-family="Helvetica,sans-Serif" font-size="10.00">Expression &gt;</text>
</a>
</g>
</g>
<!-- Node0&#45;&gt;Node82 -->
<g id="edge24" class="edge"><title>Node0&#45;&gt;Node82</title>
<path fill="none" stroke="orange" stroke-dasharray="5,2" d="M325.214,-536.008C328.289,-447.053 343.563,-152.715 412,-95.5008 467.971,-48.7083 555.853,-58.3795 615.712,-72.9661"/>
<polygon fill="orange" stroke="orange" points="321.708,-536.152 324.883,-546.26 328.704,-536.378 321.708,-536.152"/>
<text text-anchor="start" x="426.5" y="-109.501" font-family="Helvetica,sans-Serif" font-size="10.00"> &lt; System::Linq::Expressions</text>
<text text-anchor="middle" x="491.5" y="-98.5008" font-family="Helvetica,sans-Serif" font-size="10.00">::Expression &gt;</text>
</g>
<!-- Node83 -->
<g id="node24" class="node"><title>Node83</title>
<g id="a_node24"><a xlink:href="interface_system_1_1_collections_1_1_generic_1_1_i_list.html" target="_top" xlink:title=" ">
<polygon fill="none" stroke="black" points="602.5,-13.0008 602.5,-54.0008 760.5,-54.0008 760.5,-13.0008 602.5,-13.0008"/>
<text text-anchor="start" x="610.5" y="-42.0008" font-family="Helvetica,sans-Serif" font-size="10.00">System.Collections.Generic.</text>
<text text-anchor="start" x="610.5" y="-31.0008" font-family="Helvetica,sans-Serif" font-size="10.00">IList&lt; System.Linq.Expressions.</text>
<text text-anchor="middle" x="681.5" y="-20.0008" font-family="Helvetica,sans-Serif" font-size="10.00">ParameterExpression &gt;</text>
</a>
</g>
</g>
<!-- Node0&#45;&gt;Node83 -->
<g id="edge25" class="edge"><title>Node0&#45;&gt;Node83</title>
<path fill="none" stroke="orange" stroke-dasharray="5,2" d="M324.619,-536.255C325.654,-440.446 334.797,-101.418 412,-35.5008 467.836,12.173 556.599,1.9427 616.638,-12.9877"/>
<polygon fill="orange" stroke="orange" points="321.118,-536.429 324.531,-546.459 328.118,-536.49 321.118,-536.429"/>
<text text-anchor="start" x="426.5" y="-49.5008" font-family="Helvetica,sans-Serif" font-size="10.00"> &lt; System::Linq::Expressions</text>
<text text-anchor="middle" x="491.5" y="-38.5008" font-family="Helvetica,sans-Serif" font-size="10.00">::ParameterExpression &gt;</text>
</g>
<!-- Node1 -->
<g id="node2" class="node"><title>Node1</title>
<g id="a_node2"><a xlink:href="interface_system_1_1_collections_1_1_generic_1_1_i_collection.html" target="_top" xlink:title="Defines methods to manipulate generic collections.">
<polygon fill="none" stroke="black" points="131,-552.001 131,-571.001 216,-571.001 216,-552.001 131,-552.001"/>
<text text-anchor="middle" x="173.5" y="-559.001" font-family="Helvetica,sans-Serif" font-size="10.00">ICollection&lt; T &gt;</text>
</a>
</g>
</g>
<!-- Node1&#45;&gt;Node0 -->
<g id="edge1" class="edge"><title>Node1&#45;&gt;Node0</title>
<path fill="none" stroke="midnightblue" d="M226.343,-561.501C234.932,-561.501 243.959,-561.501 252.9,-561.501"/>
<polygon fill="midnightblue" stroke="midnightblue" points="226.12,-558.001 216.12,-561.501 226.12,-565.001 226.12,-558.001"/>
</g>
<!-- Node2 -->
<g id="node3" class="node"><title>Node2</title>
<g id="a_node3"><a xlink:href="interface_system_1_1_collections_1_1_generic_1_1_i_enumerable.html" target="_top" xlink:title=" ">
<polygon fill="none" stroke="red" points="0,-573.001 0,-592.001 94,-592.001 94,-573.001 0,-573.001"/>
<text text-anchor="middle" x="47" y="-580.001" font-family="Helvetica,sans-Serif" font-size="10.00">IEnumerable&lt; T &gt;</text>
</a>
</g>
</g>
<!-- Node2&#45;&gt;Node0 -->
<g id="edge4" class="edge"><title>Node2&#45;&gt;Node0</title>
<path fill="none" stroke="midnightblue" d="M104.273,-585.286C106.884,-585.369 109.47,-585.442 112,-585.501 158.263,-586.584 170.017,-585.697 216,-580.501 227.944,-579.151 240.572,-577.289 252.796,-575.254"/>
<polygon fill="midnightblue" stroke="midnightblue" points="104.254,-581.783 94.135,-584.922 104.003,-588.779 104.254,-581.783"/>
</g>
<!-- Node2&#45;&gt;Node1 -->
<g id="edge2" class="edge"><title>Node2&#45;&gt;Node1</title>
<path fill="none" stroke="midnightblue" d="M104.048,-573.047C113.044,-571.529 122.215,-569.983 130.798,-568.535"/>
<polygon fill="midnightblue" stroke="midnightblue" points="103.284,-569.626 94.0055,-574.741 104.448,-576.529 103.284,-569.626"/>
</g>
<!-- Node4 -->
<g id="node4" class="node"><title>Node4</title>
<g id="a_node4"><a xlink:href="interface_system_1_1_collections_1_1_i_enumerable.html" target="_top" xlink:title="Exposes an enumerator, which supports a simple iteration over a non&#45;generic collection....">
<polygon fill="none" stroke="red" points="11.5,-529.001 11.5,-548.001 82.5,-548.001 82.5,-529.001 11.5,-529.001"/>
<text text-anchor="middle" x="47" y="-536.001" font-family="Helvetica,sans-Serif" font-size="10.00">IEnumerable</text>
</a>
</g>
</g>
<!-- Node4&#45;&gt;Node0 -->
<g id="edge5" class="edge"><title>Node4&#45;&gt;Node0</title>
<path fill="none" stroke="midnightblue" d="M92.5833,-537.714C126.507,-537.563 174.303,-538.31 216,-542.501 227.96,-543.703 240.596,-545.491 252.823,-547.498"/>
<polygon fill="midnightblue" stroke="midnightblue" points="92.4971,-534.214 82.5228,-537.787 92.548,-541.214 92.4971,-534.214"/>
</g>
<!-- Node4&#45;&gt;Node1 -->
<g id="edge3" class="edge"><title>Node4&#45;&gt;Node1</title>
<path fill="none" stroke="midnightblue" d="M92.8353,-546.784C105.265,-549.08 118.701,-551.562 130.935,-553.822"/>
<polygon fill="midnightblue" stroke="midnightblue" points="93.1497,-543.283 82.6802,-544.908 91.8779,-550.166 93.1497,-543.283"/>
</g>
</g>
</svg>
