<?xml version="1.0" encoding="UTF-8" standalone="no"?>
<!DOCTYPE svg PUBLIC "-//W3C//DTD SVG 1.1//EN"
 "http://www.w3.org/Graphics/SVG/1.1/DTD/svg11.dtd">
<!-- Generated by graphviz version 2.38.0 (20140413.2041)
 -->
<!-- Title: System.Reflection.IReflect Pages: 1 -->
<!--zoomable 302 -->
<svg id="main" version="1.1" xmlns="http://www.w3.org/2000/svg" xmlns:xlink="http://www.w3.org/1999/xlink" xml:space="preserve" onload="init(evt)">
<style type="text/css"><![CDATA[
.edge:hover path { stroke: red; }
.edge:hover polygon { stroke: red; fill: red; }
]]></style>
<script type="text/javascript"><![CDATA[
var edges = document.getElementsByTagName('g');
if (edges && edges.length) {
  for (var i=0;i<edges.length;i++) {
    if (edges[i].id.substr(0,4)=='edge') {
      edges[i].setAttribute('class','edge');
    }
  }
}
]]></script>
        <defs>
                <circle id="rim" cx="0" cy="0" r="7"/>
                <circle id="rim2" cx="0" cy="0" r="3.5"/>
                <g id="zoomPlus">
                        <use xlink:href="#rim" fill="#404040">
                                <set attributeName="fill" to="#808080" begin="zoomplus.mouseover" end="zoomplus.mouseout"/>
                        </use>
                        <path d="M-4,0h8M0,-4v8" fill="none" stroke="white" stroke-width="1.5" pointer-events="none"/>
                </g>
                <g id="zoomMin">
                        <use xlink:href="#rim" fill="#404040">
                                <set attributeName="fill" to="#808080" begin="zoomminus.mouseover" end="zoomminus.mouseout"/>
                        </use>
                        <path d="M-4,0h8" fill="none" stroke="white" stroke-width="1.5" pointer-events="none"/>
                </g>
                <g id="dirArrow">
                        <path fill="none" stroke="white" stroke-width="1.5" d="M0,-3.0v7 M-2.5,-0.5L0,-3.0L2.5,-0.5"/>
                </g>
               <g id="resetDef">
                       <use xlink:href="#rim2" fill="#404040">
                               <set attributeName="fill" to="#808080" begin="reset.mouseover" end="reset.mouseout"/>
                       </use>
               </g>
        </defs>

<script type="text/javascript">
var viewWidth = 892;
var viewHeight = 302;
var sectionId = 'dynsection-0';
</script>
<script xlink:href="svgpan.js"/>
<svg id="graph" class="graph">
<g id="viewport">
<title>System.Reflection.IReflect</title>
<!-- Node0 -->
<g id="node1" class="node"><title>Node0</title>
<g id="a_node1"><a xlink:title="Interoperates with the IDispatch interface.">
<polygon fill="#bfbfbf" stroke="black" points="0,-153.5 0,-172.5 131,-172.5 131,-153.5 0,-153.5"/>
<text text-anchor="middle" x="65.5" y="-160.5" font-family="Helvetica,sans-Serif" font-size="10.00">System.Reflection.IReflect</text>
</a>
</g>
</g>
<!-- Node1 -->
<g id="node2" class="node"><title>Node1</title>
<g id="a_node2"><a xlink:href="interface_system_1_1_runtime_1_1_interop_services_1_1_expando_1_1_i_expando.html" target="_top" xlink:title="Enables modification of objects by adding and removing members, represented by T:System....">
<polygon fill="none" stroke="black" points="167,-170 167,-200 328,-200 328,-170 167,-170"/>
<text text-anchor="start" x="175" y="-188" font-family="Helvetica,sans-Serif" font-size="10.00">System.Runtime.InteropServices.</text>
<text text-anchor="middle" x="247.5" y="-177" font-family="Helvetica,sans-Serif" font-size="10.00">Expando.IExpando</text>
</a>
</g>
</g>
<!-- Node0&#45;&gt;Node1 -->
<g id="edge1" class="edge"><title>Node0&#45;&gt;Node1</title>
<path fill="none" stroke="midnightblue" d="M141.413,-172.156C149.852,-173.188 158.474,-174.241 166.97,-175.28"/>
<polygon fill="midnightblue" stroke="midnightblue" points="141.581,-168.651 131.23,-170.911 140.731,-175.599 141.581,-168.651"/>
</g>
<!-- Node2 -->
<g id="node3" class="node"><title>Node2</title>
<g id="a_node3"><a xlink:href="class_system_1_1_type.html" target="_top" xlink:title="Represents type declarations: class types, interface types, array types, value types,...">
<polygon fill="none" stroke="black" points="210.5,-131.5 210.5,-150.5 284.5,-150.5 284.5,-131.5 210.5,-131.5"/>
<text text-anchor="middle" x="247.5" y="-138.5" font-family="Helvetica,sans-Serif" font-size="10.00">System.Type</text>
</a>
</g>
</g>
<!-- Node0&#45;&gt;Node2 -->
<g id="edge2" class="edge"><title>Node0&#45;&gt;Node2</title>
<path fill="none" stroke="midnightblue" d="M141.338,-153.853C165.18,-150.939 190.484,-147.846 210.294,-145.425"/>
<polygon fill="midnightblue" stroke="midnightblue" points="140.731,-150.401 131.23,-155.089 141.581,-157.349 140.731,-150.401"/>
</g>
<!-- Node3 -->
<g id="node4" class="node"><title>Node3</title>
<g id="a_node4"><a xlink:href="class_system_1_1_reflection_1_1_type_info.html" target="_top" xlink:title="Represents type declarations for class types, interface types, array types, value types,...">
<polygon fill="none" stroke="black" points="364,-131.5 364,-150.5 499,-150.5 499,-131.5 364,-131.5"/>
<text text-anchor="middle" x="431.5" y="-138.5" font-family="Helvetica,sans-Serif" font-size="10.00">System.Reflection.TypeInfo</text>
</a>
</g>
</g>
<!-- Node2&#45;&gt;Node3 -->
<g id="edge3" class="edge"><title>Node2&#45;&gt;Node3</title>
<path fill="none" stroke="midnightblue" d="M295.115,-141C316.044,-141 341.122,-141 363.975,-141"/>
<polygon fill="midnightblue" stroke="midnightblue" points="294.893,-137.5 284.893,-141 294.893,-144.5 294.893,-137.5"/>
</g>
<!-- Node4 -->
<g id="node5" class="node"><title>Node4</title>
<g id="a_node5"><a xlink:href="class_system_1_1_reflection_1_1_emit_1_1_enum_builder.html" target="_top" xlink:title="Describes and represents an enumeration type.">
<polygon fill="none" stroke="black" points="549,-263 549,-293 697,-293 697,-263 549,-263"/>
<text text-anchor="start" x="557" y="-281" font-family="Helvetica,sans-Serif" font-size="10.00">System.Reflection.Emit.Enum</text>
<text text-anchor="middle" x="623" y="-270" font-family="Helvetica,sans-Serif" font-size="10.00">Builder</text>
</a>
</g>
</g>
<!-- Node3&#45;&gt;Node4 -->
<g id="edge4" class="edge"><title>Node3&#45;&gt;Node4</title>
<path fill="none" stroke="midnightblue" d="M444,-159.1C460.889,-184.196 494.795,-229.26 535,-254 540.605,-257.449 546.712,-260.412 553.006,-262.956"/>
<polygon fill="midnightblue" stroke="midnightblue" points="446.796,-156.981 438.382,-150.543 440.944,-160.823 446.796,-156.981"/>
</g>
<!-- Node5 -->
<g id="node6" class="node"><title>Node5</title>
<g id="a_node6"><a xlink:href="class_system_1_1_reflection_1_1_emit_1_1_generic_type_parameter_builder.html" target="_top" xlink:title="Defines and creates generic type parameters for dynamically defined generic types and methods....">
<polygon fill="none" stroke="black" points="545,-214 545,-244 701,-244 701,-214 545,-214"/>
<text text-anchor="start" x="553" y="-232" font-family="Helvetica,sans-Serif" font-size="10.00">System.Reflection.Emit.Generic</text>
<text text-anchor="middle" x="623" y="-221" font-family="Helvetica,sans-Serif" font-size="10.00">TypeParameterBuilder</text>
</a>
</g>
</g>
<!-- Node3&#45;&gt;Node5 -->
<g id="edge5" class="edge"><title>Node3&#45;&gt;Node5</title>
<path fill="none" stroke="midnightblue" d="M453.854,-156.518C473.959,-170.534 505.335,-190.914 535,-204 543.34,-207.679 552.366,-210.974 561.34,-213.871"/>
<polygon fill="midnightblue" stroke="midnightblue" points="455.641,-153.494 445.457,-150.574 451.597,-159.208 455.641,-153.494"/>
</g>
<!-- Node6 -->
<g id="node7" class="node"><title>Node6</title>
<g id="a_node7"><a xlink:href="class_system_1_1_reflection_1_1_emit_1_1_symbol_type.html" target="_top" xlink:title=" ">
<polygon fill="none" stroke="black" points="535,-175.5 535,-194.5 711,-194.5 711,-175.5 535,-175.5"/>
<text text-anchor="middle" x="623" y="-182.5" font-family="Helvetica,sans-Serif" font-size="10.00">System.Reflection.Emit.SymbolType</text>
</a>
</g>
</g>
<!-- Node3&#45;&gt;Node6 -->
<g id="edge6" class="edge"><title>Node3&#45;&gt;Node6</title>
<path fill="none" stroke="midnightblue" d="M480.687,-153.008C497.814,-157.208 517.247,-161.897 535,-166 548.707,-169.168 563.663,-172.484 577.247,-175.444"/>
<polygon fill="midnightblue" stroke="midnightblue" points="481.447,-149.59 470.9,-150.599 479.774,-156.387 481.447,-149.59"/>
</g>
<!-- Node7 -->
<g id="node8" class="node"><title>Node7</title>
<g id="a_node8"><a xlink:href="class_system_1_1_reflection_1_1_emit_1_1_type_builder.html" target="_top" xlink:title="Defines and creates new instances of classes during run time.">
<polygon fill="none" stroke="black" points="551.5,-126 551.5,-156 694.5,-156 694.5,-126 551.5,-126"/>
<text text-anchor="start" x="559.5" y="-144" font-family="Helvetica,sans-Serif" font-size="10.00">System.Reflection.Emit.Type</text>
<text text-anchor="middle" x="623" y="-133" font-family="Helvetica,sans-Serif" font-size="10.00">Builder</text>
</a>
</g>
</g>
<!-- Node3&#45;&gt;Node7 -->
<g id="edge7" class="edge"><title>Node3&#45;&gt;Node7</title>
<path fill="none" stroke="midnightblue" d="M509.113,-141C523.099,-141 537.633,-141 551.434,-141"/>
<polygon fill="midnightblue" stroke="midnightblue" points="509.044,-137.5 499.044,-141 509.044,-144.5 509.044,-137.5"/>
</g>
<!-- Node8 -->
<g id="node9" class="node"><title>Node8</title>
<g id="a_node9"><a xlink:href="class_system_1_1_reflection_1_1_emit_1_1_type_builder_instantiation.html" target="_top" xlink:title=" ">
<polygon fill="none" stroke="black" points="551.5,-77 551.5,-107 694.5,-107 694.5,-77 551.5,-77"/>
<text text-anchor="start" x="559.5" y="-95" font-family="Helvetica,sans-Serif" font-size="10.00">System.Reflection.Emit.Type</text>
<text text-anchor="middle" x="623" y="-84" font-family="Helvetica,sans-Serif" font-size="10.00">BuilderInstantiation</text>
</a>
</g>
</g>
<!-- Node3&#45;&gt;Node8 -->
<g id="edge8" class="edge"><title>Node3&#45;&gt;Node8</title>
<path fill="none" stroke="midnightblue" d="M479.302,-128.898C504.85,-122.292 536.714,-114.053 563.847,-107.037"/>
<polygon fill="midnightblue" stroke="midnightblue" points="478.293,-125.544 469.487,-131.436 480.045,-132.321 478.293,-125.544"/>
</g>
<!-- Node9 -->
<g id="node10" class="node"><title>Node9</title>
<g id="a_node10"><a xlink:href="class_system_1_1_reflection_1_1_type_delegator.html" target="_top" xlink:title="Wraps a T:System.Type object and delegates methods to that Type.">
<polygon fill="none" stroke="black" points="542.5,-38.5 542.5,-57.5 703.5,-57.5 703.5,-38.5 542.5,-38.5"/>
<text text-anchor="middle" x="623" y="-45.5" font-family="Helvetica,sans-Serif" font-size="10.00">System.Reflection.TypeDelegator</text>
</a>
</g>
</g>
<!-- Node3&#45;&gt;Node9 -->
<g id="edge9" class="edge"><title>Node3&#45;&gt;Node9</title>
<path fill="none" stroke="midnightblue" d="M450.745,-124.577C470.238,-107.896 502.714,-82.5114 535,-68 544.612,-63.6795 555.257,-60.2432 565.706,-57.5261"/>
<polygon fill="midnightblue" stroke="midnightblue" points="448.22,-122.135 442.987,-131.347 452.822,-127.409 448.22,-122.135"/>
</g>
<!-- Node10 -->
<g id="node11" class="node"><title>Node10</title>
<g id="a_node11"><a xlink:href="class_system_1_1_runtime_type.html" target="_top" xlink:title=" ">
<polygon fill="none" stroke="black" points="568,-0.5 568,-19.5 678,-19.5 678,-0.5 568,-0.5"/>
<text text-anchor="middle" x="623" y="-7.5" font-family="Helvetica,sans-Serif" font-size="10.00">System.RuntimeType</text>
</a>
</g>
</g>
<!-- Node3&#45;&gt;Node10 -->
<g id="edge10" class="edge"><title>Node3&#45;&gt;Node10</title>
<path fill="none" stroke="midnightblue" d="M443.859,-122.761C460.58,-97.528 494.286,-52.4378 535,-29 544.915,-23.2922 556.367,-19.2967 567.64,-16.5004"/>
<polygon fill="midnightblue" stroke="midnightblue" points="440.783,-121.072 438.303,-131.372 446.665,-124.867 440.783,-121.072"/>
</g>
<!-- Node11 -->
<g id="node12" class="node"><title>Node11</title>
<g id="a_node12"><a xlink:href="class_system_1_1_reflection_only_type.html" target="_top" xlink:title=" ">
<polygon fill="none" stroke="black" points="747,-0.5 747,-19.5 884,-19.5 884,-0.5 747,-0.5"/>
<text text-anchor="middle" x="815.5" y="-7.5" font-family="Helvetica,sans-Serif" font-size="10.00">System.ReflectionOnlyType</text>
</a>
</g>
</g>
<!-- Node10&#45;&gt;Node11 -->
<g id="edge11" class="edge"><title>Node10&#45;&gt;Node11</title>
<path fill="none" stroke="midnightblue" d="M688.312,-10C707.101,-10 727.693,-10 746.691,-10"/>
<polygon fill="midnightblue" stroke="midnightblue" points="688.08,-6.5001 678.08,-10 688.08,-13.5001 688.08,-6.5001"/>
</g>
</g>
</svg>
        <g id="navigator" transform="translate(0 0)" fill="#404254">
                <rect fill="#f2f5e9" fill-opacity="0.5" stroke="#606060" stroke-width=".5" x="0" y="0" width="60" height="60"/>
                <use id="zoomplus" xlink:href="#zoomPlus" x="17" y="9" onmousedown="handleZoom(evt,'in')"/>
                <use id="zoomminus" xlink:href="#zoomMin" x="42" y="9" onmousedown="handleZoom(evt,'out')"/>
                <use id="reset" xlink:href="#resetDef" x="30" y="36" onmousedown="handleReset()"/>
                <g id="arrowUp" xlink:href="#dirArrow" transform="translate(30 24)" onmousedown="handlePan(0,-1)">
                  <use xlink:href="#rim" fill="#404040">
                        <set attributeName="fill" to="#808080" begin="arrowUp.mouseover" end="arrowUp.mouseout"/>
                  </use>
                  <path fill="none" stroke="white" stroke-width="1.5" d="M0,-3.0v7 M-2.5,-0.5L0,-3.0L2.5,-0.5"/>
                </g>
                <g id="arrowRight" xlink:href="#dirArrow" transform="rotate(90) translate(36 -43)" onmousedown="handlePan(1,0)">
                  <use xlink:href="#rim" fill="#404040">
                        <set attributeName="fill" to="#808080" begin="arrowRight.mouseover" end="arrowRight.mouseout"/>
                  </use>
                  <path fill="none" stroke="white" stroke-width="1.5" d="M0,-3.0v7 M-2.5,-0.5L0,-3.0L2.5,-0.5"/>
                </g>
                <g id="arrowDown" xlink:href="#dirArrow" transform="rotate(180) translate(-30 -48)" onmousedown="handlePan(0,1)">
                  <use xlink:href="#rim" fill="#404040">
                        <set attributeName="fill" to="#808080" begin="arrowDown.mouseover" end="arrowDown.mouseout"/>
                  </use>
                  <path fill="none" stroke="white" stroke-width="1.5" d="M0,-3.0v7 M-2.5,-0.5L0,-3.0L2.5,-0.5"/>
                </g>
                <g id="arrowLeft" xlink:href="#dirArrow" transform="rotate(270) translate(-36 17)" onmousedown="handlePan(-1,0)">
                  <use xlink:href="#rim" fill="#404040">
                        <set attributeName="fill" to="#808080" begin="arrowLeft.mouseover" end="arrowLeft.mouseout"/>
                  </use>
                  <path fill="none" stroke="white" stroke-width="1.5" d="M0,-3.0v7 M-2.5,-0.5L0,-3.0L2.5,-0.5"/>
                </g>
        </g>
        <svg viewBox="0 0 15 15" width="100%" height="30px" preserveAspectRatio="xMaxYMin meet">
         <g id="arrow_out" transform="scale(0.3 0.3)">
          <a xlink:href="interface_system_1_1_reflection_1_1_i_reflect__inherit__graph_org.svg" target="_base">
           <rect id="button" ry="5" rx="5" y="6" x="6" height="38" width="38"
                fill="#f2f5e9" fill-opacity="0.5" stroke="#606060" stroke-width="1.0"/>
           <path id="arrow"
             d="M 11.500037,31.436501 C 11.940474,20.09759 22.043105,11.32322 32.158766,21.979434 L 37.068811,17.246167 C 37.068811,17.246167 37.088388,32 37.088388,32 L 22.160133,31.978069 C 22.160133,31.978069 26.997745,27.140456 26.997745,27.140456 C 18.528582,18.264221 13.291696,25.230495 11.500037,31.436501 z"
             style="fill:#404040;"/>
          </a>
         </g>
        </svg>
</svg>
