<?xml version="1.0" encoding="UTF-8" standalone="no"?>
<!DOCTYPE svg PUBLIC "-//W3C//DTD SVG 1.1//EN"
 "http://www.w3.org/Graphics/SVG/1.1/DTD/svg11.dtd">
<!-- Generated by graphviz version 2.38.0 (20140413.2041)
 -->
<!-- Title: System.Collections.Generic.IReadOnlyDictionary&lt; TKey, TValue &gt; Pages: 1 -->
<svg width="149pt" height="109pt"
 viewBox="0.00 0.00 149.00 108.87" xmlns="http://www.w3.org/2000/svg" xmlns:xlink="http://www.w3.org/1999/xlink">
<g id="graph0" class="graph" transform="scale(1 1) rotate(0) translate(4 104.87)">
<title>System.Collections.Generic.IReadOnlyDictionary&lt; TKey, TValue &gt;</title>
<!-- Node91 -->
<g id="node1" class="node"><title>Node91</title>
<g id="a_node1"><a xlink:title="Represents a generic read&#45;only collection of key/value pairs.">
<polygon fill="#bfbfbf" stroke="black" points="0,-0.5 0,-41.5 141,-41.5 141,-0.5 0,-0.5"/>
<text text-anchor="start" x="8" y="-29.5" font-family="Helvetica,sans-Serif" font-size="10.00">System.Collections.Generic.</text>
<text text-anchor="start" x="8" y="-18.5" font-family="Helvetica,sans-Serif" font-size="10.00">IReadOnlyDictionary&lt; TKey,</text>
<text text-anchor="middle" x="70.5" y="-7.5" font-family="Helvetica,sans-Serif" font-size="10.00"> TValue &gt;</text>
</a>
</g>
</g>
<!-- Node92 -->
<g id="node2" class="node"><title>Node92</title>
<g id="a_node2"><a xlink:href="interface_system_1_1_collections_1_1_generic_1_1_i_enumerable.html" target="_top" xlink:title="Exposes the enumerator, which supports a simple iteration over a collection of a specified type....">
<polygon fill="none" stroke="black" points="35,-78.5 35,-97.5 106,-97.5 106,-78.5 35,-78.5"/>
<text text-anchor="middle" x="70.5" y="-85.5" font-family="Helvetica,sans-Serif" font-size="10.00">IEnumerable</text>
</a>
</g>
</g>
<!-- Node92&#45;&gt;Node91 -->
<g id="edge1" class="edge"><title>Node92&#45;&gt;Node91</title>
<path fill="none" stroke="midnightblue" d="M70.5,-68.037C70.5,-59.7084 70.5,-49.9358 70.5,-41.5421"/>
<polygon fill="midnightblue" stroke="midnightblue" points="67.0001,-68.2338 70.5,-78.2338 74.0001,-68.2338 67.0001,-68.2338"/>
</g>
<!-- Node92&#45;&gt;Node92 -->
<g id="edge2" class="edge"><title>Node92&#45;&gt;Node92</title>
<path fill="none" stroke="midnightblue" d="M97.0463,-99.8814C111.166,-101.858 124,-97.8976 124,-88 124,-75.8184 104.56,-72.6302 87.2074,-78.4355"/>
<polygon fill="midnightblue" stroke="midnightblue" points="97.7435,-96.4499 87.2074,-97.5645 96.1389,-103.264 97.7435,-96.4499"/>
</g>
</g>
</svg>
