<?xml version="1.0" encoding="UTF-8" standalone="no"?>
<!DOCTYPE svg PUBLIC "-//W3C//DTD SVG 1.1//EN"
 "http://www.w3.org/Graphics/SVG/1.1/DTD/svg11.dtd">
<!-- Generated by graphviz version 2.38.0 (20140413.2041)
 -->
<!-- Title: System.Security.Policy.IMembershipCondition Pages: 1 -->
<svg width="256pt" height="95pt"
 viewBox="0.00 0.00 255.50 95.00" xmlns="http://www.w3.org/2000/svg" xmlns:xlink="http://www.w3.org/1999/xlink">
<g id="graph0" class="graph" transform="scale(1 1) rotate(0) translate(4 91)">
<title>System.Security.Policy.IMembershipCondition</title>
<!-- Node13 -->
<g id="node1" class="node"><title>Node13</title>
<g id="a_node1"><a xlink:title="Defines the test to determine whether a code assembly is a member of a code group.">
<polygon fill="#bfbfbf" stroke="black" points="27.5,-0.5 27.5,-30.5 205.5,-30.5 205.5,-0.5 27.5,-0.5"/>
<text text-anchor="start" x="35.5" y="-18.5" font-family="Helvetica,sans-Serif" font-size="10.00">System.Security.Policy.IMembership</text>
<text text-anchor="middle" x="116.5" y="-7.5" font-family="Helvetica,sans-Serif" font-size="10.00">Condition</text>
</a>
</g>
</g>
<!-- Node14 -->
<g id="node2" class="node"><title>Node14</title>
<g id="a_node2"><a xlink:href="interface_system_1_1_security_1_1_i_security_encodable.html" target="_top" xlink:title="Defines the methods that convert permission object state to and from XML element representation.">
<polygon fill="none" stroke="black" points="0,-67.5 0,-86.5 101,-86.5 101,-67.5 0,-67.5"/>
<text text-anchor="middle" x="50.5" y="-74.5" font-family="Helvetica,sans-Serif" font-size="10.00">ISecurityEncodable</text>
</a>
</g>
</g>
<!-- Node14&#45;&gt;Node13 -->
<g id="edge1" class="edge"><title>Node14&#45;&gt;Node13</title>
<path fill="none" stroke="midnightblue" d="M67.5314,-60.6459C77.8477,-51.3456 90.9075,-39.572 100.945,-30.523"/>
<polygon fill="midnightblue" stroke="midnightblue" points="65.04,-58.1796 59.9562,-67.4751 69.7271,-63.3788 65.04,-58.1796"/>
</g>
<!-- Node15 -->
<g id="node3" class="node"><title>Node15</title>
<g id="a_node3"><a xlink:href="interface_system_1_1_security_1_1_i_security_policy_encodable.html" target="_top" xlink:title="Supports the methods that convert permission object state to and from an XML element representation.">
<polygon fill="none" stroke="black" points="119.5,-67.5 119.5,-86.5 247.5,-86.5 247.5,-67.5 119.5,-67.5"/>
<text text-anchor="middle" x="183.5" y="-74.5" font-family="Helvetica,sans-Serif" font-size="10.00">ISecurityPolicyEncodable</text>
</a>
</g>
</g>
<!-- Node15&#45;&gt;Node13 -->
<g id="edge2" class="edge"><title>Node15&#45;&gt;Node13</title>
<path fill="none" stroke="midnightblue" d="M166.211,-60.6459C155.738,-51.3456 142.48,-39.572 132.291,-30.523"/>
<polygon fill="midnightblue" stroke="midnightblue" points="164.099,-63.4519 173.901,-67.4751 168.747,-58.2179 164.099,-63.4519"/>
</g>
</g>
</svg>
