<?xml version="1.0" encoding="UTF-8" standalone="no"?>
<!DOCTYPE svg PUBLIC "-//W3C//DTD SVG 1.1//EN"
 "http://www.w3.org/Graphics/SVG/1.1/DTD/svg11.dtd">
<!-- Generated by graphviz version 2.38.0 (20140413.2041)
 -->
<!-- Title: System.Runtime.InteropServices.WindowsRuntime.IBindableIterable Pages: 1 -->
<svg width="635pt" height="163pt"
 viewBox="0.00 0.00 635.00 162.50" xmlns="http://www.w3.org/2000/svg" xmlns:xlink="http://www.w3.org/1999/xlink">
<g id="graph0" class="graph" transform="scale(1 1) rotate(0) translate(4 158.5)">
<title>System.Runtime.InteropServices.WindowsRuntime.IBindableIterable</title>
<!-- Node0 -->
<g id="node1" class="node"><title>Node0</title>
<g id="a_node1"><a xlink:title=" ">
<polygon fill="#bfbfbf" stroke="black" points="0,-58 0,-88 167,-88 167,-58 0,-58"/>
<text text-anchor="start" x="8" y="-76" font-family="Helvetica,sans-Serif" font-size="10.00">System.Runtime.InteropServices.</text>
<text text-anchor="middle" x="83.5" y="-65" font-family="Helvetica,sans-Serif" font-size="10.00">WindowsRuntime.IBindableIterable</text>
</a>
</g>
</g>
<!-- Node1 -->
<g id="node2" class="node"><title>Node1</title>
<g id="a_node2"><a xlink:href="interface_system_1_1_runtime_1_1_interop_services_1_1_windows_runtime_1_1_i_bindable_vector.html" target="_top" xlink:title=" ">
<polygon fill="none" stroke="black" points="213.5,-124 213.5,-154 377.5,-154 377.5,-124 213.5,-124"/>
<text text-anchor="start" x="221.5" y="-142" font-family="Helvetica,sans-Serif" font-size="10.00">System.Runtime.InteropServices.</text>
<text text-anchor="middle" x="295.5" y="-131" font-family="Helvetica,sans-Serif" font-size="10.00">WindowsRuntime.IBindableVector</text>
</a>
</g>
</g>
<!-- Node0&#45;&gt;Node1 -->
<g id="edge1" class="edge"><title>Node0&#45;&gt;Node1</title>
<path fill="none" stroke="midnightblue" d="M142.302,-91.1663C175.02,-101.449 215.459,-114.158 246.428,-123.892"/>
<polygon fill="midnightblue" stroke="midnightblue" points="143.004,-87.7184 132.415,-88.059 140.906,-94.3963 143.004,-87.7184"/>
</g>
<!-- Node2 -->
<g id="node3" class="node"><title>Node2</title>
<g id="a_node3"><a xlink:href="class_system_1_1_runtime_1_1_interop_services_1_1_windows_runtime_1_1_i_custom_property_provider_proxy.html" target="_top" xlink:title=" ">
<polygon fill="none" stroke="black" points="424,-74.5 424,-115.5 627,-115.5 627,-74.5 424,-74.5"/>
<text text-anchor="start" x="432" y="-103.5" font-family="Helvetica,sans-Serif" font-size="10.00">System.Runtime.InteropServices.</text>
<text text-anchor="start" x="432" y="-92.5" font-family="Helvetica,sans-Serif" font-size="10.00">WindowsRuntime.ICustomPropertyProvider</text>
<text text-anchor="middle" x="525.5" y="-81.5" font-family="Helvetica,sans-Serif" font-size="10.00">Proxy&lt; T1, T2 &gt;</text>
</a>
</g>
</g>
<!-- Node0&#45;&gt;Node2 -->
<g id="edge6" class="edge"><title>Node0&#45;&gt;Node2</title>
<path fill="none" stroke="midnightblue" d="M177.009,-77.6254C249.28,-81.239 349.58,-86.254 423.853,-89.9676"/>
<polygon fill="midnightblue" stroke="midnightblue" points="177.165,-74.129 167.002,-77.1251 176.815,-81.1202 177.165,-74.129"/>
</g>
<!-- Node3 -->
<g id="node4" class="node"><title>Node3</title>
<g id="a_node4"><a xlink:href="interface_system_1_1_runtime_1_1_interop_services_1_1_windows_runtime_1_1_i_bindable_vector_view.html" target="_top" xlink:title=" ">
<polygon fill="none" stroke="black" points="203,-36 203,-66 388,-66 388,-36 203,-36"/>
<text text-anchor="start" x="211" y="-54" font-family="Helvetica,sans-Serif" font-size="10.00">System.Runtime.InteropServices.</text>
<text text-anchor="middle" x="295.5" y="-43" font-family="Helvetica,sans-Serif" font-size="10.00">WindowsRuntime.IBindableVectorView</text>
</a>
</g>
</g>
<!-- Node0&#45;&gt;Node3 -->
<g id="edge3" class="edge"><title>Node0&#45;&gt;Node3</title>
<path fill="none" stroke="midnightblue" d="M177.152,-63.2936C185.689,-62.3993 194.335,-61.4935 202.862,-60.6001"/>
<polygon fill="midnightblue" stroke="midnightblue" points="176.777,-59.8136 167.196,-64.3366 177.506,-66.7755 176.777,-59.8136"/>
</g>
<!-- Node4 -->
<g id="node5" class="node"><title>Node4</title>
<g id="a_node5"><a xlink:href="class_system_1_1_runtime_1_1_interop_services_1_1_windows_runtime_1_1_list_to_bindable_vector_view_adapter.html" target="_top" xlink:title=" ">
<polygon fill="none" stroke="black" points="431.5,-0.5 431.5,-41.5 619.5,-41.5 619.5,-0.5 431.5,-0.5"/>
<text text-anchor="start" x="439.5" y="-29.5" font-family="Helvetica,sans-Serif" font-size="10.00">System.Runtime.InteropServices.</text>
<text text-anchor="start" x="439.5" y="-18.5" font-family="Helvetica,sans-Serif" font-size="10.00">WindowsRuntime.ListToBindableVector</text>
<text text-anchor="middle" x="525.5" y="-7.5" font-family="Helvetica,sans-Serif" font-size="10.00">ViewAdapter</text>
</a>
</g>
</g>
<!-- Node0&#45;&gt;Node4 -->
<g id="edge7" class="edge"><title>Node0&#45;&gt;Node4</title>
<path fill="none" stroke="midnightblue" d="M123.045,-53.5889C145.707,-43.237 175.271,-31.5221 203,-26 278.826,-10.8998 366.708,-10.675 431.407,-13.6498"/>
<polygon fill="midnightblue" stroke="midnightblue" points="121.358,-50.5142 113.781,-57.92 124.322,-56.8555 121.358,-50.5142"/>
</g>
<!-- Node1&#45;&gt;Node2 -->
<g id="edge2" class="edge"><title>Node1&#45;&gt;Node2</title>
<path fill="none" stroke="midnightblue" d="M384.494,-122.019C397.312,-119.545 410.593,-116.982 423.642,-114.464"/>
<polygon fill="midnightblue" stroke="midnightblue" points="383.483,-118.649 374.327,-123.981 384.809,-125.522 383.483,-118.649"/>
</g>
<!-- Node3&#45;&gt;Node2 -->
<g id="edge4" class="edge"><title>Node3&#45;&gt;Node2</title>
<path fill="none" stroke="midnightblue" d="M384.494,-67.9813C397.312,-70.4549 410.593,-73.018 423.642,-75.5361"/>
<polygon fill="midnightblue" stroke="midnightblue" points="384.809,-64.4776 374.327,-66.0192 383.483,-71.3508 384.809,-64.4776"/>
</g>
<!-- Node3&#45;&gt;Node4 -->
<g id="edge5" class="edge"><title>Node3&#45;&gt;Node4</title>
<path fill="none" stroke="midnightblue" d="M398.324,-37.6022C409.352,-36.151 420.534,-34.6797 431.451,-33.2433"/>
<polygon fill="midnightblue" stroke="midnightblue" points="397.709,-34.1528 388.251,-38.9275 398.622,-41.093 397.709,-34.1528"/>
</g>
</g>
</svg>
