<?xml version="1.0" encoding="UTF-8" standalone="no"?>
<!DOCTYPE svg PUBLIC "-//W3C//DTD SVG 1.1//EN"
 "http://www.w3.org/Graphics/SVG/1.1/DTD/svg11.dtd">
<!-- Generated by graphviz version 2.38.0 (20140413.2041)
 -->
<!-- Title: System.Reflection.IReflect Pages: 1 -->
<svg width="262pt" height="95pt"
 viewBox="0.00 0.00 261.50 95.00" xmlns="http://www.w3.org/2000/svg" xmlns:xlink="http://www.w3.org/1999/xlink">
<g id="graph0" class="graph" transform="scale(1 1) rotate(0) translate(4 91)">
<title>System.Reflection.IReflect</title>
<!-- Node0 -->
<g id="node1" class="node"><title>Node0</title>
<g id="a_node1"><a xlink:title="Interoperates with the IDispatch interface.">
<polygon fill="#bfbfbf" stroke="black" points="83,-67.5 83,-86.5 214,-86.5 214,-67.5 83,-67.5"/>
<text text-anchor="middle" x="148.5" y="-74.5" font-family="Helvetica,sans-Serif" font-size="10.00">System.Reflection.IReflect</text>
</a>
</g>
</g>
<!-- Node1 -->
<g id="node2" class="node"><title>Node1</title>
<g id="a_node2"><a xlink:href="interface_system_1_1_runtime_1_1_interop_services_1_1_expando_1_1_i_expando.html" target="_top" xlink:title="Enables modification of objects by adding and removing members, represented by T:System....">
<polygon fill="none" stroke="black" points="0,-0.5 0,-30.5 161,-30.5 161,-0.5 0,-0.5"/>
<text text-anchor="start" x="8" y="-18.5" font-family="Helvetica,sans-Serif" font-size="10.00">System.Runtime.InteropServices.</text>
<text text-anchor="middle" x="80.5" y="-7.5" font-family="Helvetica,sans-Serif" font-size="10.00">Expando.IExpando</text>
</a>
</g>
</g>
<!-- Node0&#45;&gt;Node1 -->
<g id="edge1" class="edge"><title>Node0&#45;&gt;Node1</title>
<path fill="none" stroke="midnightblue" d="M130.953,-60.6459C120.324,-51.3456 106.868,-39.572 96.5263,-30.523"/>
<polygon fill="midnightblue" stroke="midnightblue" points="128.927,-63.524 138.757,-67.4751 133.536,-58.256 128.927,-63.524"/>
</g>
<!-- Node2 -->
<g id="node3" class="node"><title>Node2</title>
<g id="a_node3"><a xlink:href="class_system_1_1_type.html" target="_top" xlink:title="Represents type declarations: class types, interface types, array types, value types,...">
<polygon fill="none" stroke="red" points="179.5,-6 179.5,-25 253.5,-25 253.5,-6 179.5,-6"/>
<text text-anchor="middle" x="216.5" y="-13" font-family="Helvetica,sans-Serif" font-size="10.00">System.Type</text>
</a>
</g>
</g>
<!-- Node0&#45;&gt;Node2 -->
<g id="edge2" class="edge"><title>Node0&#45;&gt;Node2</title>
<path fill="none" stroke="midnightblue" d="M166.043,-60.6496C179.008,-49.3058 196.179,-34.2811 206.775,-25.0091"/>
<polygon fill="midnightblue" stroke="midnightblue" points="163.464,-58.256 158.243,-67.4751 168.073,-63.524 163.464,-58.256"/>
</g>
</g>
</svg>
