<?xml version="1.0" encoding="UTF-8" standalone="no"?>
<!DOCTYPE svg PUBLIC "-//W3C//DTD SVG 1.1//EN"
 "http://www.w3.org/Graphics/SVG/1.1/DTD/svg11.dtd">
<!-- Generated by graphviz version 2.38.0 (20140413.2041)
 -->
<!-- Title: System.Collections.IDictionaryEnumerator Pages: 1 -->
<svg width="440pt" height="110pt"
 viewBox="0.00 0.00 440.00 110.00" xmlns="http://www.w3.org/2000/svg" xmlns:xlink="http://www.w3.org/1999/xlink">
<g id="graph0" class="graph" transform="scale(1 1) rotate(0) translate(4 106)">
<title>System.Collections.IDictionaryEnumerator</title>
<!-- Node0 -->
<g id="node1" class="node"><title>Node0</title>
<g id="a_node1"><a xlink:title="Enumerates the elements of a nongeneric dictionary.">
<polygon fill="#bfbfbf" stroke="black" points="105,-36 105,-66 255,-66 255,-36 105,-36"/>
<text text-anchor="start" x="113" y="-54" font-family="Helvetica,sans-Serif" font-size="10.00">System.Collections.IDictionary</text>
<text text-anchor="middle" x="180" y="-43" font-family="Helvetica,sans-Serif" font-size="10.00">Enumerator</text>
</a>
</g>
</g>
<!-- Node2 -->
<g id="node3" class="node"><title>Node2</title>
<g id="a_node3"><a xlink:href="struct_system_1_1_collections_1_1_generic_1_1_dictionary_1_1_enumerator.html" target="_top" xlink:title="Enumerates the elements of a T:System.Collections.Generic.Dictionary`2.">
<polygon fill="none" stroke="black" points="291,-60.5 291,-101.5 432,-101.5 432,-60.5 291,-60.5"/>
<text text-anchor="start" x="299" y="-89.5" font-family="Helvetica,sans-Serif" font-size="10.00">System.Collections.Generic.</text>
<text text-anchor="start" x="299" y="-78.5" font-family="Helvetica,sans-Serif" font-size="10.00">Dictionary&lt; TKey, TValue</text>
<text text-anchor="middle" x="361.5" y="-67.5" font-family="Helvetica,sans-Serif" font-size="10.00"> &gt;.Enumerator</text>
</a>
</g>
</g>
<!-- Node0&#45;&gt;Node2 -->
<g id="edge2" class="edge"><title>Node0&#45;&gt;Node2</title>
<path fill="none" stroke="midnightblue" d="M265.139,-65.0622C273.78,-66.5065 282.491,-67.9624 290.95,-69.3761"/>
<polygon fill="midnightblue" stroke="midnightblue" points="265.486,-61.5718 255.046,-63.3754 264.332,-68.476 265.486,-61.5718"/>
</g>
<!-- Node3 -->
<g id="node4" class="node"><title>Node3</title>
<g id="a_node4"><a xlink:href="struct_system_1_1_collections_1_1_generic_1_1_sorted_dictionary_1_1_enumerator.html" target="_top" xlink:title="Enumerates the elements of a T:System.Collections.Generic.SortedDictionary`2.">
<polygon fill="none" stroke="black" points="291,-0.5 291,-41.5 432,-41.5 432,-0.5 291,-0.5"/>
<text text-anchor="start" x="299" y="-29.5" font-family="Helvetica,sans-Serif" font-size="10.00">System.Collections.Generic.</text>
<text text-anchor="start" x="299" y="-18.5" font-family="Helvetica,sans-Serif" font-size="10.00">SortedDictionary&lt; TKey,</text>
<text text-anchor="middle" x="361.5" y="-7.5" font-family="Helvetica,sans-Serif" font-size="10.00"> TValue &gt;.Enumerator</text>
</a>
</g>
</g>
<!-- Node0&#45;&gt;Node3 -->
<g id="edge3" class="edge"><title>Node0&#45;&gt;Node3</title>
<path fill="none" stroke="midnightblue" d="M265.139,-36.9378C273.78,-35.4935 282.491,-34.0376 290.95,-32.6239"/>
<polygon fill="midnightblue" stroke="midnightblue" points="264.332,-33.524 255.046,-38.6246 265.486,-40.4282 264.332,-33.524"/>
</g>
<!-- Node1 -->
<g id="node2" class="node"><title>Node1</title>
<g id="a_node2"><a xlink:href="interface_system_1_1_collections_1_1_i_enumerator.html" target="_top" xlink:title="Supports a simple iteration over a non&#45;generic collection.">
<polygon fill="none" stroke="black" points="0,-41.5 0,-60.5 69,-60.5 69,-41.5 0,-41.5"/>
<text text-anchor="middle" x="34.5" y="-48.5" font-family="Helvetica,sans-Serif" font-size="10.00">IEnumerator</text>
</a>
</g>
</g>
<!-- Node1&#45;&gt;Node0 -->
<g id="edge1" class="edge"><title>Node1&#45;&gt;Node0</title>
<path fill="none" stroke="midnightblue" d="M79.3947,-51C87.4686,-51 96.0996,-51 104.779,-51"/>
<polygon fill="midnightblue" stroke="midnightblue" points="79.1444,-47.5001 69.1444,-51 79.1443,-54.5001 79.1444,-47.5001"/>
</g>
</g>
</svg>
