<?xml version="1.0" encoding="UTF-8" standalone="no"?>
<!DOCTYPE svg PUBLIC "-//W3C//DTD SVG 1.1//EN"
 "http://www.w3.org/Graphics/SVG/1.1/DTD/svg11.dtd">
<!-- Generated by graphviz version 2.38.0 (20140413.2041)
 -->
<!-- Title: System.Runtime.InteropServices._MethodInfo Pages: 1 -->
<svg width="548pt" height="284pt"
 viewBox="0.00 0.00 548.00 284.00" xmlns="http://www.w3.org/2000/svg" xmlns:xlink="http://www.w3.org/1999/xlink">
<g id="graph0" class="graph" transform="scale(1 1) rotate(0) translate(4 280)">
<title>System.Runtime.InteropServices._MethodInfo</title>
<!-- Node0 -->
<g id="node1" class="node"><title>Node0</title>
<g id="a_node1"><a xlink:title="Exposes the public members of the T:System.Reflection.MethodInfo class to unmanaged code.">
<polygon fill="#bfbfbf" stroke="black" points="0,-122.5 0,-152.5 161,-152.5 161,-122.5 0,-122.5"/>
<text text-anchor="start" x="8" y="-140.5" font-family="Helvetica,sans-Serif" font-size="10.00">System.Runtime.InteropServices.</text>
<text text-anchor="middle" x="80.5" y="-129.5" font-family="Helvetica,sans-Serif" font-size="10.00">_MethodInfo</text>
</a>
</g>
</g>
<!-- Node1 -->
<g id="node2" class="node"><title>Node1</title>
<g id="a_node2"><a xlink:href="class_system_1_1_reflection_1_1_method_info.html" target="_top" xlink:title="Discovers the attributes of a method and provides access to method metadata.">
<polygon fill="none" stroke="black" points="197,-128 197,-147 343,-147 343,-128 197,-128"/>
<text text-anchor="middle" x="270" y="-135" font-family="Helvetica,sans-Serif" font-size="10.00">System.Reflection.MethodInfo</text>
</a>
</g>
</g>
<!-- Node0&#45;&gt;Node1 -->
<g id="edge1" class="edge"><title>Node0&#45;&gt;Node1</title>
<path fill="none" stroke="midnightblue" d="M171.095,-137.5C179.713,-137.5 188.379,-137.5 196.799,-137.5"/>
<polygon fill="midnightblue" stroke="midnightblue" points="171.017,-134 161.017,-137.5 171.017,-141 171.017,-134"/>
</g>
<!-- Node2 -->
<g id="node3" class="node"><title>Node2</title>
<g id="a_node3"><a xlink:href="class_system_1_1_reflection_1_1_emit_1_1_dynamic_method.html" target="_top" xlink:title="Defines and represents a dynamic method that can be compiled, executed, and discarded....">
<polygon fill="none" stroke="black" points="379,-245.5 379,-275.5 540,-275.5 540,-245.5 379,-245.5"/>
<text text-anchor="start" x="387" y="-263.5" font-family="Helvetica,sans-Serif" font-size="10.00">System.Reflection.Emit.Dynamic</text>
<text text-anchor="middle" x="459.5" y="-252.5" font-family="Helvetica,sans-Serif" font-size="10.00">Method</text>
</a>
</g>
</g>
<!-- Node1&#45;&gt;Node2 -->
<g id="edge2" class="edge"><title>Node1&#45;&gt;Node2</title>
<path fill="none" stroke="midnightblue" d="M285.627,-155.094C304.869,-177.158 340.753,-214.724 379,-236.5 385.014,-239.924 391.568,-242.908 398.247,-245.496"/>
<polygon fill="midnightblue" stroke="midnightblue" points="288.036,-152.526 278.877,-147.201 282.716,-157.076 288.036,-152.526"/>
</g>
<!-- Node3 -->
<g id="node4" class="node"><title>Node3</title>
<g id="a_node4"><a xlink:href="class_system_1_1_reflection_1_1_emit_1_1_method_builder.html" target="_top" xlink:title="Defines and represents a method (or constructor) on a dynamic class.">
<polygon fill="none" stroke="black" points="382,-196.5 382,-226.5 537,-226.5 537,-196.5 382,-196.5"/>
<text text-anchor="start" x="390" y="-214.5" font-family="Helvetica,sans-Serif" font-size="10.00">System.Reflection.Emit.Method</text>
<text text-anchor="middle" x="459.5" y="-203.5" font-family="Helvetica,sans-Serif" font-size="10.00">Builder</text>
</a>
</g>
</g>
<!-- Node1&#45;&gt;Node3 -->
<g id="edge3" class="edge"><title>Node1&#45;&gt;Node3</title>
<path fill="none" stroke="midnightblue" d="M298.98,-151.775C320.514,-162.436 351.199,-176.928 379,-187.5 387.22,-190.626 396.037,-193.625 404.699,-196.38"/>
<polygon fill="midnightblue" stroke="midnightblue" points="300.282,-148.513 289.772,-147.174 297.153,-154.775 300.282,-148.513"/>
</g>
<!-- Node4 -->
<g id="node5" class="node"><title>Node4</title>
<g id="a_node5"><a xlink:href="class_system_1_1_reflection_1_1_emit_1_1_method_builder_instantiation.html" target="_top" xlink:title=" ">
<polygon fill="none" stroke="black" points="382,-147.5 382,-177.5 537,-177.5 537,-147.5 382,-147.5"/>
<text text-anchor="start" x="390" y="-165.5" font-family="Helvetica,sans-Serif" font-size="10.00">System.Reflection.Emit.Method</text>
<text text-anchor="middle" x="459.5" y="-154.5" font-family="Helvetica,sans-Serif" font-size="10.00">BuilderInstantiation</text>
</a>
</g>
</g>
<!-- Node1&#45;&gt;Node4 -->
<g id="edge4" class="edge"><title>Node1&#45;&gt;Node4</title>
<path fill="none" stroke="midnightblue" d="M352.528,-148.37C362.307,-149.674 372.267,-151.002 381.971,-152.296"/>
<polygon fill="midnightblue" stroke="midnightblue" points="352.795,-144.875 342.421,-147.023 351.87,-151.814 352.795,-144.875"/>
</g>
<!-- Node5 -->
<g id="node6" class="node"><title>Node5</title>
<g id="a_node6"><a xlink:href="class_system_1_1_reflection_1_1_emit_1_1_method_on_type_builder_instantiation.html" target="_top" xlink:title=" ">
<polygon fill="none" stroke="black" points="382,-98.5 382,-128.5 537,-128.5 537,-98.5 382,-98.5"/>
<text text-anchor="start" x="390" y="-116.5" font-family="Helvetica,sans-Serif" font-size="10.00">System.Reflection.Emit.Method</text>
<text text-anchor="middle" x="459.5" y="-105.5" font-family="Helvetica,sans-Serif" font-size="10.00">OnTypeBuilderInstantiation</text>
</a>
</g>
</g>
<!-- Node1&#45;&gt;Node5 -->
<g id="edge5" class="edge"><title>Node1&#45;&gt;Node5</title>
<path fill="none" stroke="midnightblue" d="M353.435,-126.948C362.918,-125.734 372.559,-124.5 381.96,-123.297"/>
<polygon fill="midnightblue" stroke="midnightblue" points="352.699,-123.514 343.224,-128.255 353.588,-130.457 352.699,-123.514"/>
</g>
<!-- Node6 -->
<g id="node7" class="node"><title>Node6</title>
<g id="a_node7"><a xlink:href="class_system_1_1_reflection_1_1_emit_1_1_symbol_method.html" target="_top" xlink:title=" ">
<polygon fill="none" stroke="black" points="382,-49.5 382,-79.5 537,-79.5 537,-49.5 382,-49.5"/>
<text text-anchor="start" x="390" y="-67.5" font-family="Helvetica,sans-Serif" font-size="10.00">System.Reflection.Emit.Symbol</text>
<text text-anchor="middle" x="459.5" y="-56.5" font-family="Helvetica,sans-Serif" font-size="10.00">Method</text>
</a>
</g>
</g>
<!-- Node1&#45;&gt;Node6 -->
<g id="edge6" class="edge"><title>Node1&#45;&gt;Node6</title>
<path fill="none" stroke="midnightblue" d="M299.863,-123.598C321.405,-113.487 351.704,-99.8193 379,-89.5 388.203,-86.0208 398.126,-82.626 407.737,-79.5163"/>
<polygon fill="midnightblue" stroke="midnightblue" points="298.167,-120.529 290.624,-127.969 301.16,-126.856 298.167,-120.529"/>
</g>
<!-- Node7 -->
<g id="node8" class="node"><title>Node7</title>
<g id="a_node8"><a xlink:href="class_system_1_1_reflection_1_1_runtime_method_info.html" target="_top" xlink:title=" ">
<polygon fill="none" stroke="black" points="392,-0.5 392,-30.5 527,-30.5 527,-0.5 392,-0.5"/>
<text text-anchor="start" x="400" y="-18.5" font-family="Helvetica,sans-Serif" font-size="10.00">System.Reflection.Runtime</text>
<text text-anchor="middle" x="459.5" y="-7.5" font-family="Helvetica,sans-Serif" font-size="10.00">MethodInfo</text>
</a>
</g>
</g>
<!-- Node1&#45;&gt;Node7 -->
<g id="edge7" class="edge"><title>Node1&#45;&gt;Node7</title>
<path fill="none" stroke="midnightblue" d="M286.04,-120.014C305.473,-98.4414 341.311,-61.9908 379,-40.5 385.661,-36.7016 392.972,-33.4044 400.378,-30.5637"/>
<polygon fill="midnightblue" stroke="midnightblue" points="283.203,-117.939 279.202,-127.749 288.448,-122.575 283.203,-117.939"/>
</g>
</g>
</svg>
