<?xml version="1.0" encoding="UTF-8" standalone="no"?>
<!DOCTYPE svg PUBLIC "-//W3C//DTD SVG 1.1//EN"
 "http://www.w3.org/Graphics/SVG/1.1/DTD/svg11.dtd">
<!-- Generated by graphviz version 2.38.0 (20140413.2041)
 -->
<!-- Title: System.Linq.IQueryable Pages: 1 -->
<!--zoomable 154 -->
<svg id="main" version="1.1" xmlns="http://www.w3.org/2000/svg" xmlns:xlink="http://www.w3.org/1999/xlink" xml:space="preserve" onload="init(evt)">
<style type="text/css"><![CDATA[
.edge:hover path { stroke: red; }
.edge:hover polygon { stroke: red; fill: red; }
]]></style>
<script type="text/javascript"><![CDATA[
var edges = document.getElementsByTagName('g');
if (edges && edges.length) {
  for (var i=0;i<edges.length;i++) {
    if (edges[i].id.substr(0,4)=='edge') {
      edges[i].setAttribute('class','edge');
    }
  }
}
]]></script>
        <defs>
                <circle id="rim" cx="0" cy="0" r="7"/>
                <circle id="rim2" cx="0" cy="0" r="3.5"/>
                <g id="zoomPlus">
                        <use xlink:href="#rim" fill="#404040">
                                <set attributeName="fill" to="#808080" begin="zoomplus.mouseover" end="zoomplus.mouseout"/>
                        </use>
                        <path d="M-4,0h8M0,-4v8" fill="none" stroke="white" stroke-width="1.5" pointer-events="none"/>
                </g>
                <g id="zoomMin">
                        <use xlink:href="#rim" fill="#404040">
                                <set attributeName="fill" to="#808080" begin="zoomminus.mouseover" end="zoomminus.mouseout"/>
                        </use>
                        <path d="M-4,0h8" fill="none" stroke="white" stroke-width="1.5" pointer-events="none"/>
                </g>
                <g id="dirArrow">
                        <path fill="none" stroke="white" stroke-width="1.5" d="M0,-3.0v7 M-2.5,-0.5L0,-3.0L2.5,-0.5"/>
                </g>
               <g id="resetDef">
                       <use xlink:href="#rim2" fill="#404040">
                               <set attributeName="fill" to="#808080" begin="reset.mouseover" end="reset.mouseout"/>
                       </use>
               </g>
        </defs>

<script type="text/javascript">
var viewWidth = 549;
var viewHeight = 154;
var sectionId = 'dynsection-0';
</script>
<script xlink:href="svgpan.js"/>
<svg id="graph" class="graph">
<g id="viewport">
<title>System.Linq.IQueryable</title>
<!-- Node0 -->
<g id="node1" class="node"><title>Node0</title>
<g id="a_node1"><a xlink:title="Provides functionality to evaluate queries against a specific data source wherein the type of the dat...">
<polygon fill="#bfbfbf" stroke="black" points="0,-59 0,-78 121,-78 121,-59 0,-59"/>
<text text-anchor="middle" x="60.5" y="-66" font-family="Helvetica,sans-Serif" font-size="10.00">System.Linq.IQueryable</text>
</a>
</g>
</g>
<!-- Node1 -->
<g id="node2" class="node"><title>Node1</title>
<g id="a_node2"><a xlink:href="class_system_1_1_linq_1_1_enumerable_query.html" target="_top" xlink:title="Represents an T:System.Collections.Generic.IEnumerable`1 collection as an T:System....">
<polygon fill="none" stroke="black" points="365,-125 365,-144 541,-144 541,-125 365,-125"/>
<text text-anchor="middle" x="453" y="-132" font-family="Helvetica,sans-Serif" font-size="10.00">System.Linq.EnumerableQuery&lt; T &gt;</text>
</a>
</g>
</g>
<!-- Node0&#45;&gt;Node1 -->
<g id="edge1" class="edge"><title>Node0&#45;&gt;Node1</title>
<path fill="none" stroke="midnightblue" d="M83.5565,-83.6989C107.187,-99.0293 146.389,-121.779 184,-131.5 243.016,-146.754 311.81,-147.182 364.921,-143.963"/>
<polygon fill="midnightblue" stroke="midnightblue" points="85.2782,-80.6411 75.0092,-78.0339 81.411,-86.4759 85.2782,-80.6411"/>
</g>
<!-- Node2 -->
<g id="node3" class="node"><title>Node2</title>
<g id="a_node3"><a xlink:href="interface_system_1_1_linq_1_1_i_ordered_queryable.html" target="_top" xlink:title="Represents the result of a sorting operation.">
<polygon fill="none" stroke="black" points="375.5,-0.5 375.5,-30.5 530.5,-30.5 530.5,-0.5 375.5,-0.5"/>
<text text-anchor="start" x="383.5" y="-18.5" font-family="Helvetica,sans-Serif" font-size="10.00">System.Linq.IOrderedQueryable</text>
<text text-anchor="middle" x="453" y="-7.5" font-family="Helvetica,sans-Serif" font-size="10.00">&lt; out out T &gt;</text>
</a>
</g>
</g>
<!-- Node0&#45;&gt;Node2 -->
<g id="edge2" class="edge"><title>Node0&#45;&gt;Node2</title>
<path fill="none" stroke="midnightblue" d="M86.9439,-55.6503C111.631,-47.9646 150.211,-39.7003 184,-34.5 248.153,-24.6264 321.492,-17.2304 375.214,-13.9598"/>
<polygon fill="midnightblue" stroke="midnightblue" points="85.6352,-52.3976 77.269,-58.8981 87.8629,-59.0337 85.6352,-52.3976"/>
</g>
<!-- Node0&#45;&gt;Node2 -->
<g id="edge3" class="edge"><title>Node0&#45;&gt;Node2</title>
<path fill="none" stroke="midnightblue" d="M131.091,-61.7991C148.324,-58.5948 166.784,-55.1497 184,-52.5 248.153,-42.6264 321.492,-35.2304 375.214,-29.0939"/>
<polygon fill="midnightblue" stroke="midnightblue" points="130.3,-58.386 121.105,-63.6501 131.576,-65.2688 130.3,-58.386"/>
</g>
<!-- Node3 -->
<g id="node4" class="node"><title>Node3</title>
<g id="a_node4"><a xlink:href="interface_system_1_1_linq_1_1_i_queryable.html" target="_top" xlink:title="Provides functionality to evaluate queries against a specific data source wherein the type of the dat...">
<polygon fill="none" stroke="black" points="195.5,-53.5 195.5,-83.5 316.5,-83.5 316.5,-53.5 195.5,-53.5"/>
<text text-anchor="start" x="203.5" y="-71.5" font-family="Helvetica,sans-Serif" font-size="10.00">System.Linq.IQueryable</text>
<text text-anchor="middle" x="256" y="-60.5" font-family="Helvetica,sans-Serif" font-size="10.00">&lt; out out T &gt;</text>
</a>
</g>
</g>
<!-- Node0&#45;&gt;Node3 -->
<g id="edge4" class="edge"><title>Node0&#45;&gt;Node3</title>
<path fill="none" stroke="midnightblue" d="M131.253,-68.5C152.202,-68.5 174.986,-68.5 195.229,-68.5"/>
<polygon fill="midnightblue" stroke="midnightblue" points="131.135,-65.0001 121.135,-68.5 131.135,-72.0001 131.135,-65.0001"/>
</g>
<!-- Node4 -->
<g id="node5" class="node"><title>Node4</title>
<g id="a_node5"><a xlink:href="interface_system_1_1_linq_1_1_i_queryable.html" target="_top" xlink:title=" ">
<polygon fill="none" stroke="black" points="184,-103 184,-122 328,-122 328,-103 184,-103"/>
<text text-anchor="middle" x="256" y="-110" font-family="Helvetica,sans-Serif" font-size="10.00">System.Linq.IQueryable&lt; T &gt;</text>
</a>
</g>
</g>
<!-- Node0&#45;&gt;Node4 -->
<g id="edge5" class="edge"><title>Node0&#45;&gt;Node4</title>
<path fill="none" stroke="orange" stroke-dasharray="5,2" d="M113.323,-80.2841C144.56,-87.3869 183.827,-96.316 213.095,-102.971"/>
<polygon fill="orange" stroke="orange" points="114.014,-76.8518 103.487,-78.0473 112.462,-83.6776 114.014,-76.8518"/>
<text text-anchor="middle" x="152.5" y="-95.5" font-family="Helvetica,sans-Serif" font-size="10.00"> &lt; T &gt;</text>
</g>
<!-- Node4&#45;&gt;Node1 -->
<g id="edge6" class="edge"><title>Node4&#45;&gt;Node1</title>
<path fill="none" stroke="midnightblue" d="M338.271,-121.669C348.002,-122.767 357.955,-123.89 367.727,-124.992"/>
<polygon fill="midnightblue" stroke="midnightblue" points="338.557,-118.179 328.227,-120.536 337.772,-125.135 338.557,-118.179"/>
</g>
<!-- Node4&#45;&gt;Node2 -->
<g id="edge7" class="edge"><title>Node4&#45;&gt;Node2</title>
<path fill="none" stroke="midnightblue" d="M308.13,-99.973C314.918,-97.7682 321.701,-95.2761 328,-92.5 366.724,-75.4322 407.694,-47.865 431.5,-30.7601"/>
<polygon fill="midnightblue" stroke="midnightblue" points="306.779,-96.7262 298.24,-102.998 308.826,-103.42 306.779,-96.7262"/>
</g>
</g>
</svg>
        <g id="navigator" transform="translate(0 0)" fill="#404254">
                <rect fill="#f2f5e9" fill-opacity="0.5" stroke="#606060" stroke-width=".5" x="0" y="0" width="60" height="60"/>
                <use id="zoomplus" xlink:href="#zoomPlus" x="17" y="9" onmousedown="handleZoom(evt,'in')"/>
                <use id="zoomminus" xlink:href="#zoomMin" x="42" y="9" onmousedown="handleZoom(evt,'out')"/>
                <use id="reset" xlink:href="#resetDef" x="30" y="36" onmousedown="handleReset()"/>
                <g id="arrowUp" xlink:href="#dirArrow" transform="translate(30 24)" onmousedown="handlePan(0,-1)">
                  <use xlink:href="#rim" fill="#404040">
                        <set attributeName="fill" to="#808080" begin="arrowUp.mouseover" end="arrowUp.mouseout"/>
                  </use>
                  <path fill="none" stroke="white" stroke-width="1.5" d="M0,-3.0v7 M-2.5,-0.5L0,-3.0L2.5,-0.5"/>
                </g>
                <g id="arrowRight" xlink:href="#dirArrow" transform="rotate(90) translate(36 -43)" onmousedown="handlePan(1,0)">
                  <use xlink:href="#rim" fill="#404040">
                        <set attributeName="fill" to="#808080" begin="arrowRight.mouseover" end="arrowRight.mouseout"/>
                  </use>
                  <path fill="none" stroke="white" stroke-width="1.5" d="M0,-3.0v7 M-2.5,-0.5L0,-3.0L2.5,-0.5"/>
                </g>
                <g id="arrowDown" xlink:href="#dirArrow" transform="rotate(180) translate(-30 -48)" onmousedown="handlePan(0,1)">
                  <use xlink:href="#rim" fill="#404040">
                        <set attributeName="fill" to="#808080" begin="arrowDown.mouseover" end="arrowDown.mouseout"/>
                  </use>
                  <path fill="none" stroke="white" stroke-width="1.5" d="M0,-3.0v7 M-2.5,-0.5L0,-3.0L2.5,-0.5"/>
                </g>
                <g id="arrowLeft" xlink:href="#dirArrow" transform="rotate(270) translate(-36 17)" onmousedown="handlePan(-1,0)">
                  <use xlink:href="#rim" fill="#404040">
                        <set attributeName="fill" to="#808080" begin="arrowLeft.mouseover" end="arrowLeft.mouseout"/>
                  </use>
                  <path fill="none" stroke="white" stroke-width="1.5" d="M0,-3.0v7 M-2.5,-0.5L0,-3.0L2.5,-0.5"/>
                </g>
        </g>
        <svg viewBox="0 0 15 15" width="100%" height="30px" preserveAspectRatio="xMaxYMin meet">
         <g id="arrow_out" transform="scale(0.3 0.3)">
          <a xlink:href="interface_system_1_1_linq_1_1_i_queryable__inherit__graph_org.svg" target="_base">
           <rect id="button" ry="5" rx="5" y="6" x="6" height="38" width="38"
                fill="#f2f5e9" fill-opacity="0.5" stroke="#606060" stroke-width="1.0"/>
           <path id="arrow"
             d="M 11.500037,31.436501 C 11.940474,20.09759 22.043105,11.32322 32.158766,21.979434 L 37.068811,17.246167 C 37.068811,17.246167 37.088388,32 37.088388,32 L 22.160133,31.978069 C 22.160133,31.978069 26.997745,27.140456 26.997745,27.140456 C 18.528582,18.264221 13.291696,25.230495 11.500037,31.436501 z"
             style="fill:#404040;"/>
          </a>
         </g>
        </svg>
</svg>
