<?xml version="1.0" encoding="UTF-8" standalone="no"?>
<!DOCTYPE svg PUBLIC "-//W3C//DTD SVG 1.1//EN"
 "http://www.w3.org/Graphics/SVG/1.1/DTD/svg11.dtd">
<!-- Generated by graphviz version 2.38.0 (20140413.2041)
 -->
<!-- Title: System.Runtime.Remoting.Contexts.IContextProperty Pages: 1 -->
<svg width="529pt" height="149pt"
 viewBox="0.00 0.00 529.00 148.50" xmlns="http://www.w3.org/2000/svg" xmlns:xlink="http://www.w3.org/1999/xlink">
<g id="graph0" class="graph" transform="scale(1 1) rotate(0) translate(4 144.5)">
<title>System.Runtime.Remoting.Contexts.IContextProperty</title>
<!-- Node0 -->
<g id="node1" class="node"><title>Node0</title>
<g id="a_node1"><a xlink:title="Gathers naming information from the context property and determines whether the new context is ok for...">
<polygon fill="#bfbfbf" stroke="black" points="0,-33 0,-63 137,-63 137,-33 0,-33"/>
<text text-anchor="start" x="8" y="-51" font-family="Helvetica,sans-Serif" font-size="10.00">System.Runtime.Remoting.</text>
<text text-anchor="middle" x="68.5" y="-40" font-family="Helvetica,sans-Serif" font-size="10.00">Contexts.IContextProperty</text>
</a>
</g>
</g>
<!-- Node1 -->
<g id="node2" class="node"><title>Node1</title>
<g id="a_node2"><a xlink:href="class_system_1_1_runtime_1_1_remoting_1_1_contexts_1_1_context_attribute.html" target="_top" xlink:title="Provides the default implementations of the T:System.Runtime.Remoting.Contexts.IContextAttribute and ...">
<polygon fill="none" stroke="black" points="178,-61 178,-91 315,-91 315,-61 178,-61"/>
<text text-anchor="start" x="186" y="-79" font-family="Helvetica,sans-Serif" font-size="10.00">System.Runtime.Remoting.</text>
<text text-anchor="middle" x="246.5" y="-68" font-family="Helvetica,sans-Serif" font-size="10.00">Contexts.ContextAttribute</text>
</a>
</g>
</g>
<!-- Node0&#45;&gt;Node1 -->
<g id="edge1" class="edge"><title>Node0&#45;&gt;Node1</title>
<path fill="none" stroke="midnightblue" d="M147.18,-60.3583C157.402,-61.9844 167.811,-63.6404 177.847,-65.237"/>
<polygon fill="midnightblue" stroke="midnightblue" points="147.469,-56.8602 137.043,-58.7455 146.369,-63.7732 147.469,-56.8602"/>
</g>
<!-- Node5 -->
<g id="node6" class="node"><title>Node5</title>
<g id="a_node6"><a xlink:href="class_system_1_1_runtime_1_1_remoting_1_1_lifetime_1_1_lease_life_time_service_property.html" target="_top" xlink:title=" ">
<polygon fill="none" stroke="black" points="173,-0.5 173,-41.5 320,-41.5 320,-0.5 173,-0.5"/>
<text text-anchor="start" x="181" y="-29.5" font-family="Helvetica,sans-Serif" font-size="10.00">System.Runtime.Remoting.</text>
<text text-anchor="start" x="181" y="-18.5" font-family="Helvetica,sans-Serif" font-size="10.00">Lifetime.LeaseLifeTimeService</text>
<text text-anchor="middle" x="246.5" y="-7.5" font-family="Helvetica,sans-Serif" font-size="10.00">Property</text>
</a>
</g>
</g>
<!-- Node0&#45;&gt;Node5 -->
<g id="edge5" class="edge"><title>Node0&#45;&gt;Node5</title>
<path fill="none" stroke="midnightblue" d="M147.042,-36.1044C155.629,-34.7871 164.351,-33.449 172.874,-32.1415"/>
<polygon fill="midnightblue" stroke="midnightblue" points="146.396,-32.6623 137.043,-37.6383 147.458,-39.5814 146.396,-32.6623"/>
</g>
<!-- Node2 -->
<g id="node3" class="node"><title>Node2</title>
<g id="a_node3"><a xlink:href="class_system_1_1_runtime_1_1_remoting_1_1_activation_1_1_local_activator.html" target="_top" xlink:title=" ">
<polygon fill="none" stroke="black" points="370,-110 370,-140 507,-140 507,-110 370,-110"/>
<text text-anchor="start" x="378" y="-128" font-family="Helvetica,sans-Serif" font-size="10.00">System.Runtime.Remoting.</text>
<text text-anchor="middle" x="438.5" y="-117" font-family="Helvetica,sans-Serif" font-size="10.00">Activation.LocalActivator</text>
</a>
</g>
</g>
<!-- Node1&#45;&gt;Node2 -->
<g id="edge2" class="edge"><title>Node1&#45;&gt;Node2</title>
<path fill="none" stroke="midnightblue" d="M315.55,-93.5498C336.415,-98.9306 359.17,-104.799 379.313,-109.994"/>
<polygon fill="midnightblue" stroke="midnightblue" points="316.355,-90.1428 305.797,-91.0346 314.607,-96.921 316.355,-90.1428"/>
</g>
<!-- Node3 -->
<g id="node4" class="node"><title>Node3</title>
<g id="a_node4"><a xlink:href="class_system_1_1_runtime_1_1_remoting_1_1_activation_1_1_url_attribute.html" target="_top" xlink:title="Defines an attribute that can be used at the call site to specify the URL where the activation will h...">
<polygon fill="none" stroke="black" points="370,-61 370,-91 507,-91 507,-61 370,-61"/>
<text text-anchor="start" x="378" y="-79" font-family="Helvetica,sans-Serif" font-size="10.00">System.Runtime.Remoting.</text>
<text text-anchor="middle" x="438.5" y="-68" font-family="Helvetica,sans-Serif" font-size="10.00">Activation.UrlAttribute</text>
</a>
</g>
</g>
<!-- Node1&#45;&gt;Node3 -->
<g id="edge3" class="edge"><title>Node1&#45;&gt;Node3</title>
<path fill="none" stroke="midnightblue" d="M325.172,-76C339.994,-76 355.398,-76 369.876,-76"/>
<polygon fill="midnightblue" stroke="midnightblue" points="325.022,-72.5001 315.022,-76 325.022,-79.5001 325.022,-72.5001"/>
</g>
<!-- Node4 -->
<g id="node5" class="node"><title>Node4</title>
<g id="a_node5"><a xlink:href="class_system_1_1_runtime_1_1_remoting_1_1_contexts_1_1_synchronization_attribute.html" target="_top" xlink:title="Enforces a synchronization domain for the current context and all contexts that share the same instan...">
<polygon fill="none" stroke="black" points="356,-12 356,-42 521,-42 521,-12 356,-12"/>
<text text-anchor="start" x="364" y="-30" font-family="Helvetica,sans-Serif" font-size="10.00">System.Runtime.Remoting.</text>
<text text-anchor="middle" x="438.5" y="-19" font-family="Helvetica,sans-Serif" font-size="10.00">Contexts.SynchronizationAttribute</text>
</a>
</g>
</g>
<!-- Node1&#45;&gt;Node4 -->
<g id="edge4" class="edge"><title>Node1&#45;&gt;Node4</title>
<path fill="none" stroke="midnightblue" d="M315.55,-58.4502C336.415,-53.0694 359.17,-47.201 379.313,-42.0062"/>
<polygon fill="midnightblue" stroke="midnightblue" points="314.607,-55.079 305.797,-60.9654 316.355,-61.8572 314.607,-55.079"/>
</g>
</g>
</svg>
