<?xml version="1.0" encoding="UTF-8" standalone="no"?>
<!DOCTYPE svg PUBLIC "-//W3C//DTD SVG 1.1//EN"
 "http://www.w3.org/Graphics/SVG/1.1/DTD/svg11.dtd">
<!-- Generated by graphviz version 2.38.0 (20140413.2041)
 -->
<!-- Title: System.Collections.IStructuralEquatable Pages: 1 -->
<svg width="309pt" height="168pt"
 viewBox="0.00 0.00 309.00 168.28" xmlns="http://www.w3.org/2000/svg" xmlns:xlink="http://www.w3.org/1999/xlink">
<g id="graph0" class="graph" transform="scale(1 1) rotate(0) translate(4 164.281)">
<title>System.Collections.IStructuralEquatable</title>
<!-- Node0 -->
<g id="node1" class="node"><title>Node0</title>
<g id="a_node1"><a xlink:title="Defines methods to support the comparison of objects for structural equality.">
<polygon fill="#bfbfbf" stroke="black" points="0,-56.281 0,-86.281 149,-86.281 149,-56.281 0,-56.281"/>
<text text-anchor="start" x="8" y="-74.281" font-family="Helvetica,sans-Serif" font-size="10.00">System.Collections.IStructural</text>
<text text-anchor="middle" x="74.5" y="-63.281" font-family="Helvetica,sans-Serif" font-size="10.00">Equatable</text>
</a>
</g>
</g>
<!-- Node1 -->
<g id="node2" class="node"><title>Node1</title>
<g id="a_node2"><a xlink:href="class_system_1_1_array.html" target="_top" xlink:title="Provides methods for creating, manipulating, searching, and sorting arrays, thereby serving as the ba...">
<polygon fill="none" stroke="black" points="204.5,-140.781 204.5,-159.781 281.5,-159.781 281.5,-140.781 204.5,-140.781"/>
<text text-anchor="middle" x="243" y="-147.781" font-family="Helvetica,sans-Serif" font-size="10.00">System.Array</text>
</a>
</g>
</g>
<!-- Node0&#45;&gt;Node1 -->
<g id="edge1" class="edge"><title>Node0&#45;&gt;Node1</title>
<path fill="none" stroke="midnightblue" d="M108.744,-91.5376C130.053,-104.005 158.576,-119.749 185,-131.281 192.935,-134.744 201.716,-137.959 209.961,-140.722"/>
<polygon fill="midnightblue" stroke="midnightblue" points="110.47,-88.4921 100.08,-86.417 106.908,-94.5183 110.47,-88.4921"/>
</g>
<!-- Node2 -->
<g id="node3" class="node"><title>Node2</title>
<g id="a_node3"><a xlink:href="class_system_1_1_tuple.html" target="_top" xlink:title="Represents an n&#45;tuple, where n is 8 or greater.">
<polygon fill="none" stroke="black" points="185,-80.781 185,-121.781 301,-121.781 301,-80.781 185,-80.781"/>
<text text-anchor="start" x="193" y="-109.781" font-family="Helvetica,sans-Serif" font-size="10.00">System.Tuple&lt; T1, T2,</text>
<text text-anchor="start" x="193" y="-98.781" font-family="Helvetica,sans-Serif" font-size="10.00"> T3, T4, T5, T6, T7,</text>
<text text-anchor="middle" x="243" y="-87.781" font-family="Helvetica,sans-Serif" font-size="10.00"> TRest &gt;</text>
</a>
</g>
</g>
<!-- Node0&#45;&gt;Node2 -->
<g id="edge2" class="edge"><title>Node0&#45;&gt;Node2</title>
<path fill="none" stroke="midnightblue" d="M86.0784,-48.6152C117.653,-22.4724 210.584,-40.8952 235.688,-80.6074"/>
<polygon fill="midnightblue" stroke="midnightblue" points="83.3723,-46.3934 79.4515,-56.236 88.6545,-50.9867 83.3723,-46.3934"/>
</g>
<!-- Node0&#45;&gt;Node2 -->
<g id="edge3" class="edge"><title>Node0&#45;&gt;Node2</title>
<path fill="none" stroke="midnightblue" d="M94.9423,-52.1547C129.774,-42.3119 201.823,-56.6975 230.172,-80.7321"/>
<polygon fill="midnightblue" stroke="midnightblue" points="93.3774,-49.012 85.4167,-56.0033 95.9997,-55.5023 93.3774,-49.012"/>
</g>
<!-- Node0&#45;&gt;Node2 -->
<g id="edge4" class="edge"><title>Node0&#45;&gt;Node2</title>
<path fill="none" stroke="midnightblue" d="M159.103,-66.0949C179.048,-69.7069 198.966,-74.8638 214.278,-80.7405"/>
<polygon fill="midnightblue" stroke="midnightblue" points="159.456,-62.6051 149.014,-64.4004 158.296,-69.5084 159.456,-62.6051"/>
</g>
<!-- Node0&#45;&gt;Node2 -->
<g id="edge5" class="edge"><title>Node0&#45;&gt;Node2</title>
<path fill="none" stroke="midnightblue" d="M158.916,-79.561C167.705,-81.1458 176.491,-82.8304 184.882,-84.5442"/>
<polygon fill="midnightblue" stroke="midnightblue" points="159.469,-76.1046 149.014,-77.818 158.256,-82.9986 159.469,-76.1046"/>
</g>
<!-- Node0&#45;&gt;Node2 -->
<g id="edge6" class="edge"><title>Node0&#45;&gt;Node2</title>
<path fill="none" stroke="midnightblue" d="M134.526,-88.4056C150.863,-91.7102 168.563,-94.8855 184.795,-97.4212"/>
<polygon fill="midnightblue" stroke="midnightblue" points="135.058,-84.9415 124.555,-86.3358 133.635,-91.7954 135.058,-84.9415"/>
</g>
<!-- Node0&#45;&gt;Node2 -->
<g id="edge7" class="edge"><title>Node0&#45;&gt;Node2</title>
<path fill="none" stroke="midnightblue" d="M100.243,-90.6451C122.506,-99.6956 156.059,-107.217 184.933,-110.331"/>
<polygon fill="midnightblue" stroke="midnightblue" points="101.418,-87.3349 90.8655,-86.3894 98.5252,-93.7092 101.418,-87.3349"/>
</g>
<!-- Node0&#45;&gt;Node2 -->
<g id="edge8" class="edge"><title>Node0&#45;&gt;Node2</title>
<path fill="none" stroke="midnightblue" d="M89.2783,-93.4148C117.228,-115.221 180.955,-128.513 216.625,-121.788"/>
<polygon fill="midnightblue" stroke="midnightblue" points="91.5009,-90.6999 81.8237,-86.3868 86.699,-95.7933 91.5009,-90.6999"/>
</g>
<!-- Node0&#45;&gt;Node2 -->
<g id="edge9" class="edge"><title>Node0&#45;&gt;Node2</title>
<path fill="none" stroke="midnightblue" d="M84.2364,-95.4514C113.108,-133.655 205.231,-150.123 233.602,-121.972"/>
<polygon fill="midnightblue" stroke="midnightblue" points="86.9676,-93.1999 78.8259,-86.4202 80.9627,-96.7974 86.9676,-93.1999"/>
</g>
<!-- Node3 -->
<g id="node4" class="node"><title>Node3</title>
<g id="a_node4"><a xlink:href="struct_system_1_1_value_tuple.html" target="_top" xlink:title="Represents an n&#45;value tuple, where n is 8 or greater.">
<polygon fill="none" stroke="black" points="189.5,-20.781 189.5,-61.781 296.5,-61.781 296.5,-20.781 189.5,-20.781"/>
<text text-anchor="start" x="197.5" y="-49.781" font-family="Helvetica,sans-Serif" font-size="10.00">System.ValueTuple&lt;</text>
<text text-anchor="start" x="197.5" y="-38.781" font-family="Helvetica,sans-Serif" font-size="10.00"> T1, T2, T3, T4, T5,</text>
<text text-anchor="middle" x="243" y="-27.781" font-family="Helvetica,sans-Serif" font-size="10.00"> T6, T7, TRest &gt;</text>
</a>
</g>
</g>
<!-- Node0&#45;&gt;Node3 -->
<g id="edge10" class="edge"><title>Node0&#45;&gt;Node3</title>
<path fill="none" stroke="midnightblue" d="M82.4777,-46.6626C109.947,-0.348373 210.374,17.2271 236.01,-20.5576"/>
<polygon fill="midnightblue" stroke="midnightblue" points="79.1909,-45.4283 78.1153,-55.9684 85.529,-48.3995 79.1909,-45.4283"/>
</g>
<!-- Node0&#45;&gt;Node3 -->
<g id="edge11" class="edge"><title>Node0&#45;&gt;Node3</title>
<path fill="none" stroke="midnightblue" d="M86.2338,-48.1518C115.609,-17.7215 197.245,-2.42422 229.066,-20.6516"/>
<polygon fill="midnightblue" stroke="midnightblue" points="83.3442,-46.1656 79.9535,-56.2032 88.8637,-50.471 83.3442,-46.1656"/>
</g>
<!-- Node0&#45;&gt;Node3 -->
<g id="edge12" class="edge"><title>Node0&#45;&gt;Node3</title>
<path fill="none" stroke="midnightblue" d="M93.2662,-50.6192C116.036,-37.4666 156.507,-27.5638 189.49,-25.4497"/>
<polygon fill="midnightblue" stroke="midnightblue" points="91.2718,-47.7425 84.9288,-56.2288 95.1795,-53.5503 91.2718,-47.7425"/>
</g>
<!-- Node0&#45;&gt;Node3 -->
<g id="edge13" class="edge"><title>Node0&#45;&gt;Node3</title>
<path fill="none" stroke="midnightblue" d="M111.844,-53.3538C134.557,-46.9518 164.185,-41.1898 189.434,-38.1028"/>
<polygon fill="midnightblue" stroke="midnightblue" points="110.824,-50.0056 102.251,-56.2314 112.835,-56.7104 110.824,-50.0056"/>
</g>
<!-- Node0&#45;&gt;Node3 -->
<g id="edge14" class="edge"><title>Node0&#45;&gt;Node3</title>
<path fill="none" stroke="midnightblue" d="M158.929,-56.2488C169.291,-54.3818 179.649,-52.5155 189.361,-50.7655"/>
<polygon fill="midnightblue" stroke="midnightblue" points="158.235,-52.8174 149.014,-58.0353 159.476,-59.7065 158.235,-52.8174"/>
</g>
<!-- Node0&#45;&gt;Node3 -->
<g id="edge15" class="edge"><title>Node0&#45;&gt;Node3</title>
<path fill="none" stroke="midnightblue" d="M159.089,-69.7198C171.676,-67.4445 184.253,-64.7595 195.669,-61.8722"/>
<polygon fill="midnightblue" stroke="midnightblue" points="158.276,-66.3082 149.014,-71.4529 159.463,-73.2069 158.276,-66.3082"/>
</g>
<!-- Node0&#45;&gt;Node3 -->
<g id="edge16" class="edge"><title>Node0&#45;&gt;Node3</title>
<path fill="none" stroke="midnightblue" d="M107.37,-87.316C142.117,-89.2486 196.474,-78.0076 224.295,-61.9075"/>
<polygon fill="midnightblue" stroke="midnightblue" points="107.571,-83.8184 97.267,-86.2841 106.86,-90.7822 107.571,-83.8184"/>
</g>
<!-- Node0&#45;&gt;Node3 -->
<g id="edge17" class="edge"><title>Node0&#45;&gt;Node3</title>
<path fill="none" stroke="midnightblue" d="M89.8155,-92.6646C123.357,-110.118 206.233,-93.6429 233.297,-62.1844"/>
<polygon fill="midnightblue" stroke="midnightblue" points="91.5534,-89.5978 81.4258,-86.486 87.4024,-95.2342 91.5534,-89.5978"/>
</g>
<!-- Node0&#45;&gt;Node3 -->
<g id="edge18" class="edge"><title>Node0&#45;&gt;Node3</title>
<path fill="none" stroke="midnightblue" d="M83.8692,-95.1112C113.621,-129.702 213.74,-109.848 237.099,-62.0572"/>
<polygon fill="midnightblue" stroke="midnightblue" points="86.6487,-92.9535 78.3899,-86.317 80.7075,-96.6552 86.6487,-92.9535"/>
</g>
</g>
</svg>
