<?xml version="1.0" encoding="UTF-8" standalone="no"?>
<!DOCTYPE svg PUBLIC "-//W3C//DTD SVG 1.1//EN"
 "http://www.w3.org/Graphics/SVG/1.1/DTD/svg11.dtd">
<!-- Generated by graphviz version 2.38.0 (20140413.2041)
 -->
<!-- Title: System.Runtime.CompilerServices.INotifyCompletion Pages: 1 -->
<!--zoomable 214 -->
<svg id="main" version="1.1" xmlns="http://www.w3.org/2000/svg" xmlns:xlink="http://www.w3.org/1999/xlink" xml:space="preserve" onload="init(evt)">
<style type="text/css"><![CDATA[
.edge:hover path { stroke: red; }
.edge:hover polygon { stroke: red; fill: red; }
]]></style>
<script type="text/javascript"><![CDATA[
var edges = document.getElementsByTagName('g');
if (edges && edges.length) {
  for (var i=0;i<edges.length;i++) {
    if (edges[i].id.substr(0,4)=='edge') {
      edges[i].setAttribute('class','edge');
    }
  }
}
]]></script>
        <defs>
                <circle id="rim" cx="0" cy="0" r="7"/>
                <circle id="rim2" cx="0" cy="0" r="3.5"/>
                <g id="zoomPlus">
                        <use xlink:href="#rim" fill="#404040">
                                <set attributeName="fill" to="#808080" begin="zoomplus.mouseover" end="zoomplus.mouseout"/>
                        </use>
                        <path d="M-4,0h8M0,-4v8" fill="none" stroke="white" stroke-width="1.5" pointer-events="none"/>
                </g>
                <g id="zoomMin">
                        <use xlink:href="#rim" fill="#404040">
                                <set attributeName="fill" to="#808080" begin="zoomminus.mouseover" end="zoomminus.mouseout"/>
                        </use>
                        <path d="M-4,0h8" fill="none" stroke="white" stroke-width="1.5" pointer-events="none"/>
                </g>
                <g id="dirArrow">
                        <path fill="none" stroke="white" stroke-width="1.5" d="M0,-3.0v7 M-2.5,-0.5L0,-3.0L2.5,-0.5"/>
                </g>
               <g id="resetDef">
                       <use xlink:href="#rim2" fill="#404040">
                               <set attributeName="fill" to="#808080" begin="reset.mouseover" end="reset.mouseout"/>
                       </use>
               </g>
        </defs>

<script type="text/javascript">
var viewWidth = 590;
var viewHeight = 214;
var sectionId = 'dynsection-0';
</script>
<script xlink:href="svgpan.js"/>
<svg id="graph" class="graph">
<g id="viewport">
<title>System.Runtime.CompilerServices.INotifyCompletion</title>
<!-- Node0 -->
<g id="node1" class="node"><title>Node0</title>
<g id="a_node1"><a xlink:title="Represents an operation that schedules continuations when it completes.">
<polygon fill="#bfbfbf" stroke="black" points="0,-66.5 0,-96.5 170,-96.5 170,-66.5 0,-66.5"/>
<text text-anchor="start" x="8" y="-84.5" font-family="Helvetica,sans-Serif" font-size="10.00">System.Runtime.CompilerServices.</text>
<text text-anchor="middle" x="85" y="-73.5" font-family="Helvetica,sans-Serif" font-size="10.00">INotifyCompletion</text>
</a>
</g>
</g>
<!-- Node1 -->
<g id="node2" class="node"><title>Node1</title>
<g id="a_node2"><a xlink:href="struct_system_1_1_runtime_1_1_compiler_services_1_1_configured_task_awaitable_1_1_configured_task_awaiter.html" target="_top" xlink:title="Provides an awaiter for an awaitable object(T:System.Runtime.CompilerServices.ConfiguredTaskAwaitable...">
<polygon fill="none" stroke="black" points="412,-164 412,-205 582,-205 582,-164 412,-164"/>
<text text-anchor="start" x="420" y="-193" font-family="Helvetica,sans-Serif" font-size="10.00">System.Runtime.CompilerServices.</text>
<text text-anchor="start" x="420" y="-182" font-family="Helvetica,sans-Serif" font-size="10.00">ConfiguredTaskAwaitable&lt; TResult</text>
<text text-anchor="middle" x="497" y="-171" font-family="Helvetica,sans-Serif" font-size="10.00"> &gt;.ConfiguredTaskAwaiter</text>
</a>
</g>
</g>
<!-- Node0&#45;&gt;Node1 -->
<g id="edge1" class="edge"><title>Node0&#45;&gt;Node1</title>
<path fill="none" stroke="midnightblue" d="M120.385,-102.712C143.16,-118.843 174.538,-139.682 206,-150.5 272.664,-173.422 352.787,-178.786 411.906,-180.378"/>
<polygon fill="midnightblue" stroke="midnightblue" points="122.267,-99.7552 112.095,-96.7912 118.199,-105.451 122.267,-99.7552"/>
</g>
<!-- Node0&#45;&gt;Node1 -->
<g id="edge2" class="edge"><title>Node0&#45;&gt;Node1</title>
<path fill="none" stroke="midnightblue" d="M104.02,-103.722C126.262,-124.889 166.064,-154.768 206,-168.5 272.664,-191.422 352.787,-196.786 411.906,-195.465"/>
<polygon fill="midnightblue" stroke="midnightblue" points="106.467,-101.22 96.9133,-96.6396 101.526,-106.178 106.467,-101.22"/>
</g>
<!-- Node2 -->
<g id="node3" class="node"><title>Node2</title>
<g id="a_node3"><a xlink:href="interface_system_1_1_runtime_1_1_compiler_services_1_1_i_critical_notify_completion.html" target="_top" xlink:title="Represents an awaiter that schedules continuations when an await operation completes.">
<polygon fill="none" stroke="black" points="206,-119.5 206,-149.5 376,-149.5 376,-119.5 206,-119.5"/>
<text text-anchor="start" x="214" y="-137.5" font-family="Helvetica,sans-Serif" font-size="10.00">System.Runtime.CompilerServices.</text>
<text text-anchor="middle" x="291" y="-126.5" font-family="Helvetica,sans-Serif" font-size="10.00">ICriticalNotifyCompletion</text>
</a>
</g>
</g>
<!-- Node0&#45;&gt;Node2 -->
<g id="edge3" class="edge"><title>Node0&#45;&gt;Node2</title>
<path fill="none" stroke="midnightblue" d="M153.805,-99.116C179.111,-105.691 207.592,-113.09 231.943,-119.416"/>
<polygon fill="midnightblue" stroke="midnightblue" points="154.471,-95.673 143.913,-96.5459 152.711,-102.448 154.471,-95.673"/>
</g>
<!-- Node3 -->
<g id="node4" class="node"><title>Node3</title>
<g id="a_node4"><a xlink:href="struct_system_1_1_runtime_1_1_compiler_services_1_1_task_awaiter.html" target="_top" xlink:title="Represents an object that waits for the completion of an asynchronous task and provides a parameter f...">
<polygon fill="none" stroke="black" points="412,-112.5 412,-142.5 582,-142.5 582,-112.5 412,-112.5"/>
<text text-anchor="start" x="420" y="-130.5" font-family="Helvetica,sans-Serif" font-size="10.00">System.Runtime.CompilerServices.</text>
<text text-anchor="middle" x="497" y="-119.5" font-family="Helvetica,sans-Serif" font-size="10.00">TaskAwaiter&lt; TResult &gt;</text>
</a>
</g>
</g>
<!-- Node0&#45;&gt;Node3 -->
<g id="edge10" class="edge"><title>Node0&#45;&gt;Node3</title>
<path fill="none" stroke="midnightblue" d="M180.241,-81.5124C237.033,-85.3712 310.764,-92.4636 376,-100.5 401.613,-103.655 430.191,-107.912 453.031,-112.481"/>
<polygon fill="midnightblue" stroke="midnightblue" points="180.408,-78.0159 170.2,-80.8527 179.949,-85.0008 180.408,-78.0159"/>
</g>
<!-- Node0&#45;&gt;Node3 -->
<g id="edge11" class="edge"><title>Node0&#45;&gt;Node3</title>
<path fill="none" stroke="midnightblue" d="M180.241,-97.1581C237.033,-103.371 310.764,-110.464 376,-118.5 387.604,-119.93 399.817,-121.585 411.829,-123.21"/>
<polygon fill="midnightblue" stroke="midnightblue" points="180.524,-93.6681 170.2,-96.0484 179.755,-100.626 180.524,-93.6681"/>
</g>
<!-- Node4 -->
<g id="node5" class="node"><title>Node4</title>
<g id="a_node5"><a xlink:href="struct_system_1_1_runtime_1_1_compiler_services_1_1_yield_awaitable_1_1_yield_awaiter.html" target="_top" xlink:title="Provides an awaiter for switching into a target environment.">
<polygon fill="none" stroke="black" points="412,-58.5 412,-88.5 582,-88.5 582,-58.5 412,-58.5"/>
<text text-anchor="start" x="420" y="-76.5" font-family="Helvetica,sans-Serif" font-size="10.00">System.Runtime.CompilerServices.</text>
<text text-anchor="middle" x="497" y="-65.5" font-family="Helvetica,sans-Serif" font-size="10.00">YieldAwaitable.YieldAwaiter</text>
</a>
</g>
</g>
<!-- Node0&#45;&gt;Node4 -->
<g id="edge12" class="edge"><title>Node0&#45;&gt;Node4</title>
<path fill="none" stroke="midnightblue" d="M162.226,-64.6486C176.693,-62.0884 191.759,-59.8525 206,-58.5 281.217,-51.3567 300.59,-53.8052 376,-58.5 387.63,-59.2241 399.857,-60.3392 411.877,-61.6418"/>
<polygon fill="midnightblue" stroke="midnightblue" points="161.528,-61.2183 152.324,-66.4659 162.791,-68.1033 161.528,-61.2183"/>
</g>
<!-- Node5 -->
<g id="node6" class="node"><title>Node5</title>
<g id="a_node6"><a xlink:href="class_system_1_1_threading_1_1_tasks_1_1_begin_end_awaitable_adapter.html" target="_top" xlink:title=" ">
<polygon fill="none" stroke="black" points="421,-0.5 421,-30.5 573,-30.5 573,-0.5 421,-0.5"/>
<text text-anchor="start" x="429" y="-18.5" font-family="Helvetica,sans-Serif" font-size="10.00">System.Threading.Tasks.Begin</text>
<text text-anchor="middle" x="497" y="-7.5" font-family="Helvetica,sans-Serif" font-size="10.00">EndAwaitableAdapter</text>
</a>
</g>
</g>
<!-- Node0&#45;&gt;Node5 -->
<g id="edge13" class="edge"><title>Node0&#45;&gt;Node5</title>
<path fill="none" stroke="midnightblue" d="M147.759,-63.8733C166.364,-59.0172 186.912,-54.101 206,-50.5 278.383,-36.845 361.986,-27.4179 420.775,-21.8169"/>
<polygon fill="midnightblue" stroke="midnightblue" points="146.705,-60.5318 137.936,-66.4778 148.499,-67.298 146.705,-60.5318"/>
</g>
<!-- Node2&#45;&gt;Node1 -->
<g id="edge4" class="edge"><title>Node2&#45;&gt;Node1</title>
<path fill="none" stroke="midnightblue" d="M386.319,-150.884C403.671,-155.06 421.321,-159.571 437.245,-163.92"/>
<polygon fill="midnightblue" stroke="midnightblue" points="386.691,-147.375 376.152,-148.468 385.072,-154.186 386.691,-147.375"/>
</g>
<!-- Node2&#45;&gt;Node1 -->
<g id="edge5" class="edge"><title>Node2&#45;&gt;Node1</title>
<path fill="none" stroke="midnightblue" d="M341.049,-152.388C362.212,-158.352 387.582,-164.835 411.608,-170.476"/>
<polygon fill="midnightblue" stroke="midnightblue" points="341.911,-148.994 331.333,-149.599 339.979,-155.722 341.911,-148.994"/>
</g>
<!-- Node2&#45;&gt;Node3 -->
<g id="edge6" class="edge"><title>Node2&#45;&gt;Node3</title>
<path fill="none" stroke="midnightblue" d="M386.402,-124.527C394.847,-124.2 403.361,-123.933 411.712,-123.734"/>
<polygon fill="midnightblue" stroke="midnightblue" points="385.998,-121.041 376.152,-124.955 386.29,-128.035 385.998,-121.041"/>
</g>
<!-- Node2&#45;&gt;Node3 -->
<g id="edge7" class="edge"><title>Node2&#45;&gt;Node3</title>
<path fill="none" stroke="midnightblue" d="M386.402,-137.994C394.847,-137.741 403.361,-137.424 411.712,-137.051"/>
<polygon fill="midnightblue" stroke="midnightblue" points="386.055,-134.502 376.152,-138.27 386.243,-141.499 386.055,-134.502"/>
</g>
<!-- Node2&#45;&gt;Node4 -->
<g id="edge8" class="edge"><title>Node2&#45;&gt;Node4</title>
<path fill="none" stroke="midnightblue" d="M352.022,-116.552C381.795,-107.65 417.348,-97.0186 445.675,-88.5482"/>
<polygon fill="midnightblue" stroke="midnightblue" points="350.743,-113.281 342.165,-119.5 352.749,-119.988 350.743,-113.281"/>
</g>
<!-- Node2&#45;&gt;Node5 -->
<g id="edge9" class="edge"><title>Node2&#45;&gt;Node5</title>
<path fill="none" stroke="midnightblue" d="M318.239,-112.777C341.747,-94.0457 377.707,-67.1487 412,-48.5 424.388,-41.7632 438.448,-35.6845 451.473,-30.6339"/>
<polygon fill="midnightblue" stroke="midnightblue" points="315.761,-110.279 310.168,-119.278 320.152,-115.731 315.761,-110.279"/>
</g>
</g>
</svg>
        <g id="navigator" transform="translate(0 0)" fill="#404254">
                <rect fill="#f2f5e9" fill-opacity="0.5" stroke="#606060" stroke-width=".5" x="0" y="0" width="60" height="60"/>
                <use id="zoomplus" xlink:href="#zoomPlus" x="17" y="9" onmousedown="handleZoom(evt,'in')"/>
                <use id="zoomminus" xlink:href="#zoomMin" x="42" y="9" onmousedown="handleZoom(evt,'out')"/>
                <use id="reset" xlink:href="#resetDef" x="30" y="36" onmousedown="handleReset()"/>
                <g id="arrowUp" xlink:href="#dirArrow" transform="translate(30 24)" onmousedown="handlePan(0,-1)">
                  <use xlink:href="#rim" fill="#404040">
                        <set attributeName="fill" to="#808080" begin="arrowUp.mouseover" end="arrowUp.mouseout"/>
                  </use>
                  <path fill="none" stroke="white" stroke-width="1.5" d="M0,-3.0v7 M-2.5,-0.5L0,-3.0L2.5,-0.5"/>
                </g>
                <g id="arrowRight" xlink:href="#dirArrow" transform="rotate(90) translate(36 -43)" onmousedown="handlePan(1,0)">
                  <use xlink:href="#rim" fill="#404040">
                        <set attributeName="fill" to="#808080" begin="arrowRight.mouseover" end="arrowRight.mouseout"/>
                  </use>
                  <path fill="none" stroke="white" stroke-width="1.5" d="M0,-3.0v7 M-2.5,-0.5L0,-3.0L2.5,-0.5"/>
                </g>
                <g id="arrowDown" xlink:href="#dirArrow" transform="rotate(180) translate(-30 -48)" onmousedown="handlePan(0,1)">
                  <use xlink:href="#rim" fill="#404040">
                        <set attributeName="fill" to="#808080" begin="arrowDown.mouseover" end="arrowDown.mouseout"/>
                  </use>
                  <path fill="none" stroke="white" stroke-width="1.5" d="M0,-3.0v7 M-2.5,-0.5L0,-3.0L2.5,-0.5"/>
                </g>
                <g id="arrowLeft" xlink:href="#dirArrow" transform="rotate(270) translate(-36 17)" onmousedown="handlePan(-1,0)">
                  <use xlink:href="#rim" fill="#404040">
                        <set attributeName="fill" to="#808080" begin="arrowLeft.mouseover" end="arrowLeft.mouseout"/>
                  </use>
                  <path fill="none" stroke="white" stroke-width="1.5" d="M0,-3.0v7 M-2.5,-0.5L0,-3.0L2.5,-0.5"/>
                </g>
        </g>
        <svg viewBox="0 0 15 15" width="100%" height="30px" preserveAspectRatio="xMaxYMin meet">
         <g id="arrow_out" transform="scale(0.3 0.3)">
          <a xlink:href="interface_system_1_1_runtime_1_1_compiler_services_1_1_i_notify_completion__inherit__graph_org.svg" target="_base">
           <rect id="button" ry="5" rx="5" y="6" x="6" height="38" width="38"
                fill="#f2f5e9" fill-opacity="0.5" stroke="#606060" stroke-width="1.0"/>
           <path id="arrow"
             d="M 11.500037,31.436501 C 11.940474,20.09759 22.043105,11.32322 32.158766,21.979434 L 37.068811,17.246167 C 37.068811,17.246167 37.088388,32 37.088388,32 L 22.160133,31.978069 C 22.160133,31.978069 26.997745,27.140456 26.997745,27.140456 C 18.528582,18.264221 13.291696,25.230495 11.500037,31.436501 z"
             style="fill:#404040;"/>
          </a>
         </g>
        </svg>
</svg>
