<?xml version="1.0" encoding="UTF-8" standalone="no"?>
<!DOCTYPE svg PUBLIC "-//W3C//DTD SVG 1.1//EN"
 "http://www.w3.org/Graphics/SVG/1.1/DTD/svg11.dtd">
<!-- Generated by graphviz version 2.38.0 (20140413.2041)
 -->
<!-- Title: System.Security.Permissions.IBuiltInPermission Pages: 1 -->
<!--zoomable 823 -->
<svg id="main" version="1.1" xmlns="http://www.w3.org/2000/svg" xmlns:xlink="http://www.w3.org/1999/xlink" xml:space="preserve" onload="init(evt)">
<style type="text/css"><![CDATA[
.edge:hover path { stroke: red; }
.edge:hover polygon { stroke: red; fill: red; }
]]></style>
<script type="text/javascript"><![CDATA[
var edges = document.getElementsByTagName('g');
if (edges && edges.length) {
  for (var i=0;i<edges.length;i++) {
    if (edges[i].id.substr(0,4)=='edge') {
      edges[i].setAttribute('class','edge');
    }
  }
}
]]></script>
        <defs>
                <circle id="rim" cx="0" cy="0" r="7"/>
                <circle id="rim2" cx="0" cy="0" r="3.5"/>
                <g id="zoomPlus">
                        <use xlink:href="#rim" fill="#404040">
                                <set attributeName="fill" to="#808080" begin="zoomplus.mouseover" end="zoomplus.mouseout"/>
                        </use>
                        <path d="M-4,0h8M0,-4v8" fill="none" stroke="white" stroke-width="1.5" pointer-events="none"/>
                </g>
                <g id="zoomMin">
                        <use xlink:href="#rim" fill="#404040">
                                <set attributeName="fill" to="#808080" begin="zoomminus.mouseover" end="zoomminus.mouseout"/>
                        </use>
                        <path d="M-4,0h8" fill="none" stroke="white" stroke-width="1.5" pointer-events="none"/>
                </g>
                <g id="dirArrow">
                        <path fill="none" stroke="white" stroke-width="1.5" d="M0,-3.0v7 M-2.5,-0.5L0,-3.0L2.5,-0.5"/>
                </g>
               <g id="resetDef">
                       <use xlink:href="#rim2" fill="#404040">
                               <set attributeName="fill" to="#808080" begin="reset.mouseover" end="reset.mouseout"/>
                       </use>
               </g>
        </defs>

<script type="text/javascript">
var viewWidth = 344;
var viewHeight = 823;
var sectionId = 'dynsection-0';
</script>
<script xlink:href="svgpan.js"/>
<svg id="graph" class="graph">
<g id="viewport">
<title>System.Security.Permissions.IBuiltInPermission</title>
<!-- Node0 -->
<g id="node1" class="node"><title>Node0</title>
<g id="a_node1"><a xlink:title=" ">
<polygon fill="#bfbfbf" stroke="black" points="0,-392.5 0,-422.5 149,-422.5 149,-392.5 0,-392.5"/>
<text text-anchor="start" x="8" y="-410.5" font-family="Helvetica,sans-Serif" font-size="10.00">System.Security.Permissions.</text>
<text text-anchor="middle" x="74.5" y="-399.5" font-family="Helvetica,sans-Serif" font-size="10.00">IBuiltInPermission</text>
</a>
</g>
</g>
<!-- Node1 -->
<g id="node2" class="node"><title>Node1</title>
<g id="a_node2"><a xlink:href="class_system_1_1_security_1_1_permissions_1_1_environment_permission.html" target="_top" xlink:title="Controls access to system and user environment variables. This class cannot be inherited.">
<polygon fill="none" stroke="black" points="186,-784.5 186,-814.5 335,-814.5 335,-784.5 186,-784.5"/>
<text text-anchor="start" x="194" y="-802.5" font-family="Helvetica,sans-Serif" font-size="10.00">System.Security.Permissions.</text>
<text text-anchor="middle" x="260.5" y="-791.5" font-family="Helvetica,sans-Serif" font-size="10.00">EnvironmentPermission</text>
</a>
</g>
</g>
<!-- Node0&#45;&gt;Node1 -->
<g id="edge1" class="edge"><title>Node0&#45;&gt;Node1</title>
<path fill="none" stroke="midnightblue" d="M75.4119,-432.82C76.5869,-498.725 88.9634,-677.284 185,-775.5 188.325,-778.901 192.133,-781.82 196.231,-784.326"/>
<polygon fill="midnightblue" stroke="midnightblue" points="78.9091,-432.514 75.3064,-422.55 71.9094,-432.586 78.9091,-432.514"/>
</g>
<!-- Node2 -->
<g id="node3" class="node"><title>Node2</title>
<g id="a_node3"><a xlink:href="class_system_1_1_security_1_1_permissions_1_1_file_dialog_permission.html" target="_top" xlink:title="Controls the ability to access files or folders through a File dialog box. This class cannot be inher...">
<polygon fill="none" stroke="black" points="186,-735.5 186,-765.5 335,-765.5 335,-735.5 186,-735.5"/>
<text text-anchor="start" x="194" y="-753.5" font-family="Helvetica,sans-Serif" font-size="10.00">System.Security.Permissions.</text>
<text text-anchor="middle" x="260.5" y="-742.5" font-family="Helvetica,sans-Serif" font-size="10.00">FileDialogPermission</text>
</a>
</g>
</g>
<!-- Node0&#45;&gt;Node2 -->
<g id="edge2" class="edge"><title>Node0&#45;&gt;Node2</title>
<path fill="none" stroke="midnightblue" d="M76.7652,-432.679C81.1287,-492.337 100.405,-643.498 185,-726.5 188.492,-729.926 192.475,-732.863 196.742,-735.381"/>
<polygon fill="midnightblue" stroke="midnightblue" points="80.2541,-432.393 76.1116,-422.642 73.2689,-432.848 80.2541,-432.393"/>
</g>
<!-- Node3 -->
<g id="node4" class="node"><title>Node3</title>
<g id="a_node4"><a xlink:href="class_system_1_1_security_1_1_permissions_1_1_file_i_o_permission.html" target="_top" xlink:title="Controls the ability to access files and folders. This class cannot be inherited.">
<polygon fill="none" stroke="black" points="186,-686.5 186,-716.5 335,-716.5 335,-686.5 186,-686.5"/>
<text text-anchor="start" x="194" y="-704.5" font-family="Helvetica,sans-Serif" font-size="10.00">System.Security.Permissions.</text>
<text text-anchor="middle" x="260.5" y="-693.5" font-family="Helvetica,sans-Serif" font-size="10.00">FileIOPermission</text>
</a>
</g>
</g>
<!-- Node0&#45;&gt;Node3 -->
<g id="edge3" class="edge"><title>Node0&#45;&gt;Node3</title>
<path fill="none" stroke="midnightblue" d="M78.5797,-432.738C86.3867,-485.781 111.823,-609.522 185,-677.5 188.684,-680.922 192.859,-683.856 197.306,-686.372"/>
<polygon fill="midnightblue" stroke="midnightblue" points="82.0062,-431.965 77.1705,-422.538 75.0721,-432.923 82.0062,-431.965"/>
</g>
<!-- Node4 -->
<g id="node5" class="node"><title>Node4</title>
<g id="a_node5"><a xlink:href="class_system_1_1_security_1_1_permissions_1_1_gac_identity_permission.html" target="_top" xlink:title="Defines the identity permission for files originating in the global assembly cache....">
<polygon fill="none" stroke="black" points="186,-637.5 186,-667.5 335,-667.5 335,-637.5 186,-637.5"/>
<text text-anchor="start" x="194" y="-655.5" font-family="Helvetica,sans-Serif" font-size="10.00">System.Security.Permissions.</text>
<text text-anchor="middle" x="260.5" y="-644.5" font-family="Helvetica,sans-Serif" font-size="10.00">GacIdentityPermission</text>
</a>
</g>
</g>
<!-- Node0&#45;&gt;Node4 -->
<g id="edge4" class="edge"><title>Node0&#45;&gt;Node4</title>
<path fill="none" stroke="midnightblue" d="M81.0788,-432.558C92.5277,-478.193 122.986,-575.066 185,-628.5 189.015,-631.959 193.535,-634.922 198.314,-637.458"/>
<polygon fill="midnightblue" stroke="midnightblue" points="84.4294,-431.522 78.6853,-422.619 77.6239,-433.16 84.4294,-431.522"/>
</g>
<!-- Node5 -->
<g id="node6" class="node"><title>Node5</title>
<g id="a_node6"><a xlink:href="class_system_1_1_security_1_1_permissions_1_1_host_protection_permission.html" target="_top" xlink:title=" ">
<polygon fill="none" stroke="black" points="186,-588.5 186,-618.5 335,-618.5 335,-588.5 186,-588.5"/>
<text text-anchor="start" x="194" y="-606.5" font-family="Helvetica,sans-Serif" font-size="10.00">System.Security.Permissions.</text>
<text text-anchor="middle" x="260.5" y="-595.5" font-family="Helvetica,sans-Serif" font-size="10.00">HostProtectionPermission</text>
</a>
</g>
</g>
<!-- Node0&#45;&gt;Node5 -->
<g id="edge5" class="edge"><title>Node0&#45;&gt;Node5</title>
<path fill="none" stroke="midnightblue" d="M84.7892,-432.215C100.048,-469.52 133.916,-540.036 185,-579.5 189.409,-582.906 194.317,-585.837 199.45,-588.357"/>
<polygon fill="midnightblue" stroke="midnightblue" points="87.925,-430.628 80.9802,-422.627 81.4196,-433.213 87.925,-430.628"/>
</g>
<!-- Node6 -->
<g id="node7" class="node"><title>Node6</title>
<g id="a_node7"><a xlink:href="class_system_1_1_security_1_1_permissions_1_1_isolated_storage_file_permission.html" target="_top" xlink:title="Specifies the allowed usage of a private virtual file system. This class cannot be inherited.">
<polygon fill="none" stroke="black" points="186,-539.5 186,-569.5 335,-569.5 335,-539.5 186,-539.5"/>
<text text-anchor="start" x="194" y="-557.5" font-family="Helvetica,sans-Serif" font-size="10.00">System.Security.Permissions.</text>
<text text-anchor="middle" x="260.5" y="-546.5" font-family="Helvetica,sans-Serif" font-size="10.00">IsolatedStorageFilePermission</text>
</a>
</g>
</g>
<!-- Node0&#45;&gt;Node6 -->
<g id="edge6" class="edge"><title>Node0&#45;&gt;Node6</title>
<path fill="none" stroke="midnightblue" d="M90.8496,-431.368C109.803,-459.017 144.541,-504.136 185,-530.5 190.237,-533.913 195.997,-536.874 201.924,-539.435"/>
<polygon fill="midnightblue" stroke="midnightblue" points="93.5203,-429.067 85.0415,-422.714 87.7079,-432.967 93.5203,-429.067"/>
</g>
<!-- Node7 -->
<g id="node8" class="node"><title>Node7</title>
<g id="a_node8"><a xlink:href="class_system_1_1_security_1_1_permissions_1_1_key_container_permission.html" target="_top" xlink:title="Controls the ability to access key containers. This class cannot be inherited.">
<polygon fill="none" stroke="black" points="186,-490.5 186,-520.5 335,-520.5 335,-490.5 186,-490.5"/>
<text text-anchor="start" x="194" y="-508.5" font-family="Helvetica,sans-Serif" font-size="10.00">System.Security.Permissions.</text>
<text text-anchor="middle" x="260.5" y="-497.5" font-family="Helvetica,sans-Serif" font-size="10.00">KeyContainerPermission</text>
</a>
</g>
</g>
<!-- Node0&#45;&gt;Node7 -->
<g id="edge7" class="edge"><title>Node0&#45;&gt;Node7</title>
<path fill="none" stroke="midnightblue" d="M102.242,-428.738C123.644,-444.933 154.949,-466.873 185,-481.5 191.72,-484.771 198.991,-487.744 206.267,-490.396"/>
<polygon fill="midnightblue" stroke="midnightblue" points="104.333,-425.932 94.2681,-422.623 100.073,-431.486 104.333,-425.932"/>
</g>
<!-- Node8 -->
<g id="node9" class="node"><title>Node8</title>
<g id="a_node9"><a xlink:href="class_system_1_1_security_1_1_permissions_1_1_principal_permission.html" target="_top" xlink:title="Allows checks against the active principal (see T:System.Security.Principal.IPrincipal) using the lan...">
<polygon fill="none" stroke="black" points="186,-441.5 186,-471.5 335,-471.5 335,-441.5 186,-441.5"/>
<text text-anchor="start" x="194" y="-459.5" font-family="Helvetica,sans-Serif" font-size="10.00">System.Security.Permissions.</text>
<text text-anchor="middle" x="260.5" y="-448.5" font-family="Helvetica,sans-Serif" font-size="10.00">PrincipalPermission</text>
</a>
</g>
</g>
<!-- Node0&#45;&gt;Node8 -->
<g id="edge8" class="edge"><title>Node0&#45;&gt;Node8</title>
<path fill="none" stroke="midnightblue" d="M141.676,-425.123C161.806,-430.484 183.732,-436.323 203.15,-441.494"/>
<polygon fill="midnightblue" stroke="midnightblue" points="142.52,-421.726 131.957,-422.535 140.719,-428.49 142.52,-421.726"/>
</g>
<!-- Node9 -->
<g id="node10" class="node"><title>Node9</title>
<g id="a_node10"><a xlink:href="class_system_1_1_security_1_1_permissions_1_1_publisher_identity_permission.html" target="_top" xlink:title="Represents the identity of a software publisher. This class cannot be inherited.">
<polygon fill="none" stroke="black" points="186,-392.5 186,-422.5 335,-422.5 335,-392.5 186,-392.5"/>
<text text-anchor="start" x="194" y="-410.5" font-family="Helvetica,sans-Serif" font-size="10.00">System.Security.Permissions.</text>
<text text-anchor="middle" x="260.5" y="-399.5" font-family="Helvetica,sans-Serif" font-size="10.00">PublisherIdentityPermission</text>
</a>
</g>
</g>
<!-- Node0&#45;&gt;Node9 -->
<g id="edge9" class="edge"><title>Node0&#45;&gt;Node9</title>
<path fill="none" stroke="midnightblue" d="M159.033,-407.5C167.962,-407.5 176.998,-407.5 185.802,-407.5"/>
<polygon fill="midnightblue" stroke="midnightblue" points="159.015,-404 149.015,-407.5 159.015,-411 159.015,-404"/>
</g>
<!-- Node10 -->
<g id="node11" class="node"><title>Node10</title>
<g id="a_node11"><a xlink:href="class_system_1_1_security_1_1_permissions_1_1_reflection_permission.html" target="_top" xlink:title="Controls access to non&#45;public types and members through the N:System.Reflection APIs....">
<polygon fill="none" stroke="black" points="186,-343.5 186,-373.5 335,-373.5 335,-343.5 186,-343.5"/>
<text text-anchor="start" x="194" y="-361.5" font-family="Helvetica,sans-Serif" font-size="10.00">System.Security.Permissions.</text>
<text text-anchor="middle" x="260.5" y="-350.5" font-family="Helvetica,sans-Serif" font-size="10.00">ReflectionPermission</text>
</a>
</g>
</g>
<!-- Node0&#45;&gt;Node10 -->
<g id="edge10" class="edge"><title>Node0&#45;&gt;Node10</title>
<path fill="none" stroke="midnightblue" d="M141.676,-389.877C161.806,-384.516 183.732,-378.677 203.15,-373.506"/>
<polygon fill="midnightblue" stroke="midnightblue" points="140.719,-386.51 131.957,-392.465 142.52,-393.274 140.719,-386.51"/>
</g>
<!-- Node11 -->
<g id="node12" class="node"><title>Node11</title>
<g id="a_node12"><a xlink:href="class_system_1_1_security_1_1_permissions_1_1_registry_permission.html" target="_top" xlink:title="Controls the ability to access registry variables. This class cannot be inherited.">
<polygon fill="none" stroke="black" points="186,-294.5 186,-324.5 335,-324.5 335,-294.5 186,-294.5"/>
<text text-anchor="start" x="194" y="-312.5" font-family="Helvetica,sans-Serif" font-size="10.00">System.Security.Permissions.</text>
<text text-anchor="middle" x="260.5" y="-301.5" font-family="Helvetica,sans-Serif" font-size="10.00">RegistryPermission</text>
</a>
</g>
</g>
<!-- Node0&#45;&gt;Node11 -->
<g id="edge11" class="edge"><title>Node0&#45;&gt;Node11</title>
<path fill="none" stroke="midnightblue" d="M102.727,-386.383C124.17,-370.503 155.299,-349.063 185,-334.5 192.472,-330.836 200.613,-327.499 208.681,-324.541"/>
<polygon fill="midnightblue" stroke="midnightblue" points="100.626,-383.584 94.7262,-392.384 104.826,-389.184 100.626,-383.584"/>
</g>
<!-- Node12 -->
<g id="node13" class="node"><title>Node12</title>
<g id="a_node13"><a xlink:href="class_system_1_1_security_1_1_permissions_1_1_security_permission.html" target="_top" xlink:title="Describes a set of security permissions applied to code. This class cannot be inherited.">
<polygon fill="none" stroke="black" points="186,-245.5 186,-275.5 335,-275.5 335,-245.5 186,-245.5"/>
<text text-anchor="start" x="194" y="-263.5" font-family="Helvetica,sans-Serif" font-size="10.00">System.Security.Permissions.</text>
<text text-anchor="middle" x="260.5" y="-252.5" font-family="Helvetica,sans-Serif" font-size="10.00">SecurityPermission</text>
</a>
</g>
</g>
<!-- Node0&#45;&gt;Node12 -->
<g id="edge12" class="edge"><title>Node0&#45;&gt;Node12</title>
<path fill="none" stroke="midnightblue" d="M90.95,-383.915C110,-356.577 144.831,-311.907 185,-285.5 190.814,-281.678 197.268,-278.386 203.877,-275.566"/>
<polygon fill="midnightblue" stroke="midnightblue" points="87.8571,-382.238 85.1096,-392.471 93.6385,-386.185 87.8571,-382.238"/>
</g>
<!-- Node13 -->
<g id="node14" class="node"><title>Node13</title>
<g id="a_node14"><a xlink:href="class_system_1_1_security_1_1_permissions_1_1_site_identity_permission.html" target="_top" xlink:title="Defines the identity permission for the Web site from which the code originates. This class cannot be...">
<polygon fill="none" stroke="black" points="186,-196.5 186,-226.5 335,-226.5 335,-196.5 186,-196.5"/>
<text text-anchor="start" x="194" y="-214.5" font-family="Helvetica,sans-Serif" font-size="10.00">System.Security.Permissions.</text>
<text text-anchor="middle" x="260.5" y="-203.5" font-family="Helvetica,sans-Serif" font-size="10.00">SiteIdentityPermission</text>
</a>
</g>
</g>
<!-- Node0&#45;&gt;Node13 -->
<g id="edge13" class="edge"><title>Node0&#45;&gt;Node13</title>
<path fill="none" stroke="midnightblue" d="M85.004,-382.726C100.447,-345.666 134.441,-275.942 185,-236.5 189.948,-232.64 195.523,-229.36 201.341,-226.576"/>
<polygon fill="midnightblue" stroke="midnightblue" points="81.6524,-381.678 81.1418,-392.26 88.1403,-384.306 81.6524,-381.678"/>
</g>
<!-- Node14 -->
<g id="node15" class="node"><title>Node14</title>
<g id="a_node15"><a xlink:href="class_system_1_1_security_1_1_permissions_1_1_strong_name_identity_permission.html" target="_top" xlink:title="Defines the identity permission for strong names. This class cannot be inherited.">
<polygon fill="none" stroke="black" points="185,-147.5 185,-177.5 336,-177.5 336,-147.5 185,-147.5"/>
<text text-anchor="start" x="193" y="-165.5" font-family="Helvetica,sans-Serif" font-size="10.00">System.Security.Permissions.</text>
<text text-anchor="middle" x="260.5" y="-154.5" font-family="Helvetica,sans-Serif" font-size="10.00">StrongNameIdentityPermission</text>
</a>
</g>
</g>
<!-- Node0&#45;&gt;Node14 -->
<g id="edge14" class="edge"><title>Node0&#45;&gt;Node14</title>
<path fill="none" stroke="midnightblue" d="M81.175,-382.626C92.7811,-337.312 123.486,-241.058 185,-187.5 189.424,-183.648 194.464,-180.384 199.788,-177.621"/>
<polygon fill="midnightblue" stroke="midnightblue" points="77.7377,-381.947 78.7459,-392.494 84.5348,-383.62 77.7377,-381.947"/>
</g>
<!-- Node15 -->
<g id="node16" class="node"><title>Node15</title>
<g id="a_node16"><a xlink:href="class_system_1_1_security_1_1_permissions_1_1_u_i_permission.html" target="_top" xlink:title="Controls the permissions related to user interfaces and the Clipboard. This class cannot be inherited...">
<polygon fill="none" stroke="black" points="186,-98.5 186,-128.5 335,-128.5 335,-98.5 186,-98.5"/>
<text text-anchor="start" x="194" y="-116.5" font-family="Helvetica,sans-Serif" font-size="10.00">System.Security.Permissions.</text>
<text text-anchor="middle" x="260.5" y="-105.5" font-family="Helvetica,sans-Serif" font-size="10.00">UIPermission</text>
</a>
</g>
</g>
<!-- Node0&#45;&gt;Node15 -->
<g id="edge15" class="edge"><title>Node0&#45;&gt;Node15</title>
<path fill="none" stroke="midnightblue" d="M78.7308,-382.047C86.7833,-329.124 112.595,-206.494 185,-138.5 189.078,-134.671 193.76,-131.427 198.749,-128.679"/>
<polygon fill="midnightblue" stroke="midnightblue" points="75.2245,-381.843 77.2717,-392.238 82.1538,-382.835 75.2245,-381.843"/>
</g>
<!-- Node16 -->
<g id="node17" class="node"><title>Node16</title>
<g id="a_node17"><a xlink:href="class_system_1_1_security_1_1_permissions_1_1_url_identity_permission.html" target="_top" xlink:title="Defines the identity permission for the URL from which the code originates. This class cannot be inhe...">
<polygon fill="none" stroke="black" points="186,-49.5 186,-79.5 335,-79.5 335,-49.5 186,-49.5"/>
<text text-anchor="start" x="194" y="-67.5" font-family="Helvetica,sans-Serif" font-size="10.00">System.Security.Permissions.</text>
<text text-anchor="middle" x="260.5" y="-56.5" font-family="Helvetica,sans-Serif" font-size="10.00">UrlIdentityPermission</text>
</a>
</g>
</g>
<!-- Node0&#45;&gt;Node16 -->
<g id="edge16" class="edge"><title>Node0&#45;&gt;Node16</title>
<path fill="none" stroke="midnightblue" d="M76.8573,-382.465C81.4217,-323.137 101.105,-172.738 185,-89.5 188.874,-85.6564 193.356,-82.4036 198.162,-79.6508"/>
<polygon fill="midnightblue" stroke="midnightblue" points="73.3653,-382.229 76.1688,-392.446 80.3487,-382.711 73.3653,-382.229"/>
</g>
<!-- Node17 -->
<g id="node18" class="node"><title>Node17</title>
<g id="a_node18"><a xlink:href="class_system_1_1_security_1_1_permissions_1_1_zone_identity_permission.html" target="_top" xlink:title="Defines the identity permission for the zone from which the code originates. This class cannot be inh...">
<polygon fill="none" stroke="black" points="186,-0.5 186,-30.5 335,-30.5 335,-0.5 186,-0.5"/>
<text text-anchor="start" x="194" y="-18.5" font-family="Helvetica,sans-Serif" font-size="10.00">System.Security.Permissions.</text>
<text text-anchor="middle" x="260.5" y="-7.5" font-family="Helvetica,sans-Serif" font-size="10.00">ZoneIdentityPermission</text>
</a>
</g>
</g>
<!-- Node0&#45;&gt;Node17 -->
<g id="edge17" class="edge"><title>Node0&#45;&gt;Node17</title>
<path fill="none" stroke="midnightblue" d="M75.5128,-381.86C76.9576,-315.928 89.98,-138.788 185,-40.5 188.698,-36.6746 192.999,-33.4346 197.632,-30.6903"/>
<polygon fill="midnightblue" stroke="midnightblue" points="72.009,-382.1 75.3646,-392.15 79.0083,-382.201 72.009,-382.1"/>
</g>
</g>
</svg>
        <g id="navigator" transform="translate(0 0)" fill="#404254">
                <rect fill="#f2f5e9" fill-opacity="0.5" stroke="#606060" stroke-width=".5" x="0" y="0" width="60" height="60"/>
                <use id="zoomplus" xlink:href="#zoomPlus" x="17" y="9" onmousedown="handleZoom(evt,'in')"/>
                <use id="zoomminus" xlink:href="#zoomMin" x="42" y="9" onmousedown="handleZoom(evt,'out')"/>
                <use id="reset" xlink:href="#resetDef" x="30" y="36" onmousedown="handleReset()"/>
                <g id="arrowUp" xlink:href="#dirArrow" transform="translate(30 24)" onmousedown="handlePan(0,-1)">
                  <use xlink:href="#rim" fill="#404040">
                        <set attributeName="fill" to="#808080" begin="arrowUp.mouseover" end="arrowUp.mouseout"/>
                  </use>
                  <path fill="none" stroke="white" stroke-width="1.5" d="M0,-3.0v7 M-2.5,-0.5L0,-3.0L2.5,-0.5"/>
                </g>
                <g id="arrowRight" xlink:href="#dirArrow" transform="rotate(90) translate(36 -43)" onmousedown="handlePan(1,0)">
                  <use xlink:href="#rim" fill="#404040">
                        <set attributeName="fill" to="#808080" begin="arrowRight.mouseover" end="arrowRight.mouseout"/>
                  </use>
                  <path fill="none" stroke="white" stroke-width="1.5" d="M0,-3.0v7 M-2.5,-0.5L0,-3.0L2.5,-0.5"/>
                </g>
                <g id="arrowDown" xlink:href="#dirArrow" transform="rotate(180) translate(-30 -48)" onmousedown="handlePan(0,1)">
                  <use xlink:href="#rim" fill="#404040">
                        <set attributeName="fill" to="#808080" begin="arrowDown.mouseover" end="arrowDown.mouseout"/>
                  </use>
                  <path fill="none" stroke="white" stroke-width="1.5" d="M0,-3.0v7 M-2.5,-0.5L0,-3.0L2.5,-0.5"/>
                </g>
                <g id="arrowLeft" xlink:href="#dirArrow" transform="rotate(270) translate(-36 17)" onmousedown="handlePan(-1,0)">
                  <use xlink:href="#rim" fill="#404040">
                        <set attributeName="fill" to="#808080" begin="arrowLeft.mouseover" end="arrowLeft.mouseout"/>
                  </use>
                  <path fill="none" stroke="white" stroke-width="1.5" d="M0,-3.0v7 M-2.5,-0.5L0,-3.0L2.5,-0.5"/>
                </g>
        </g>
        <svg viewBox="0 0 15 15" width="100%" height="30px" preserveAspectRatio="xMaxYMin meet">
         <g id="arrow_out" transform="scale(0.3 0.3)">
          <a xlink:href="interface_system_1_1_security_1_1_permissions_1_1_i_built_in_permission__inherit__graph_org.svg" target="_base">
           <rect id="button" ry="5" rx="5" y="6" x="6" height="38" width="38"
                fill="#f2f5e9" fill-opacity="0.5" stroke="#606060" stroke-width="1.0"/>
           <path id="arrow"
             d="M 11.500037,31.436501 C 11.940474,20.09759 22.043105,11.32322 32.158766,21.979434 L 37.068811,17.246167 C 37.068811,17.246167 37.088388,32 37.088388,32 L 22.160133,31.978069 C 22.160133,31.978069 26.997745,27.140456 26.997745,27.140456 C 18.528582,18.264221 13.291696,25.230495 11.500037,31.436501 z"
             style="fill:#404040;"/>
          </a>
         </g>
        </svg>
</svg>
