<?xml version="1.0" encoding="UTF-8" standalone="no"?>
<!DOCTYPE svg PUBLIC "-//W3C//DTD SVG 1.1//EN"
 "http://www.w3.org/Graphics/SVG/1.1/DTD/svg11.dtd">
<!-- Generated by graphviz version 2.38.0 (20140413.2041)
 -->
<!-- Title: System.Collections.Generic.IReadOnlyList&lt; out out T &gt; Pages: 1 -->
<svg width="338pt" height="95pt"
 viewBox="0.00 0.00 337.50 95.00" xmlns="http://www.w3.org/2000/svg" xmlns:xlink="http://www.w3.org/1999/xlink">
<g id="graph0" class="graph" transform="scale(1 1) rotate(0) translate(4 91)">
<title>System.Collections.Generic.IReadOnlyList&lt; out out T &gt;</title>
<!-- Node109 -->
<g id="node1" class="node"><title>Node109</title>
<g id="a_node1"><a xlink:title="Represents a read&#45;only collection of elements that can be accessed by index.">
<polygon fill="#bfbfbf" stroke="black" points="122.5,-0.5 122.5,-30.5 263.5,-30.5 263.5,-0.5 122.5,-0.5"/>
<text text-anchor="start" x="130.5" y="-18.5" font-family="Helvetica,sans-Serif" font-size="10.00">System.Collections.Generic.</text>
<text text-anchor="middle" x="193" y="-7.5" font-family="Helvetica,sans-Serif" font-size="10.00">IReadOnlyList&lt; out out T &gt;</text>
</a>
</g>
</g>
<!-- Node110 -->
<g id="node2" class="node"><title>Node110</title>
<g id="a_node2"><a xlink:href="interface_system_1_1_collections_1_1_generic_1_1_i_read_only_collection.html" target="_top" xlink:title=" ">
<polygon fill="none" stroke="red" points="0,-67.5 0,-86.5 128,-86.5 128,-67.5 0,-67.5"/>
<text text-anchor="middle" x="64" y="-74.5" font-family="Helvetica,sans-Serif" font-size="10.00">IReadOnlyCollection&lt; T &gt;</text>
</a>
</g>
</g>
<!-- Node110&#45;&gt;Node109 -->
<g id="edge1" class="edge"><title>Node110&#45;&gt;Node109</title>
<path fill="none" stroke="midnightblue" d="M91.7505,-63.2003C112.598,-53.5845 141.133,-40.4232 162.597,-30.523"/>
<polygon fill="midnightblue" stroke="midnightblue" points="90.0972,-60.1085 82.4826,-67.4751 93.0291,-66.4649 90.0972,-60.1085"/>
</g>
<!-- Node112 -->
<g id="node3" class="node"><title>Node112</title>
<g id="a_node3"><a xlink:href="interface_system_1_1_collections_1_1_generic_1_1_i_enumerable.html" target="_top" xlink:title=" ">
<polygon fill="none" stroke="red" points="146,-67.5 146,-86.5 240,-86.5 240,-67.5 146,-67.5"/>
<text text-anchor="middle" x="193" y="-74.5" font-family="Helvetica,sans-Serif" font-size="10.00">IEnumerable&lt; T &gt;</text>
</a>
</g>
</g>
<!-- Node112&#45;&gt;Node109 -->
<g id="edge2" class="edge"><title>Node112&#45;&gt;Node109</title>
<path fill="none" stroke="midnightblue" d="M193,-57.2349C193,-48.5864 193,-38.4969 193,-30.523"/>
<polygon fill="midnightblue" stroke="midnightblue" points="189.5,-57.4751 193,-67.4751 196.5,-57.4751 189.5,-57.4751"/>
</g>
<!-- Node114 -->
<g id="node4" class="node"><title>Node114</title>
<g id="a_node4"><a xlink:href="interface_system_1_1_collections_1_1_i_enumerable.html" target="_top" xlink:title="Exposes an enumerator, which supports a simple iteration over a non&#45;generic collection....">
<polygon fill="none" stroke="black" points="258.5,-67.5 258.5,-86.5 329.5,-86.5 329.5,-67.5 258.5,-67.5"/>
<text text-anchor="middle" x="294" y="-74.5" font-family="Helvetica,sans-Serif" font-size="10.00">IEnumerable</text>
</a>
</g>
</g>
<!-- Node114&#45;&gt;Node109 -->
<g id="edge3" class="edge"><title>Node114&#45;&gt;Node109</title>
<path fill="none" stroke="midnightblue" d="M270.704,-62.2762C254.54,-52.7541 233.077,-40.1096 216.804,-30.523"/>
<polygon fill="midnightblue" stroke="midnightblue" points="269.137,-65.4149 279.529,-67.4751 272.69,-59.3836 269.137,-65.4149"/>
</g>
</g>
</svg>
