<?xml version="1.0" encoding="UTF-8" standalone="no"?>
<!DOCTYPE svg PUBLIC "-//W3C//DTD SVG 1.1//EN"
 "http://www.w3.org/Graphics/SVG/1.1/DTD/svg11.dtd">
<!-- Generated by graphviz version 2.38.0 (20140413.2041)
 -->
<!-- Title: System.IServiceProvider Pages: 1 -->
<!--zoomable 510 -->
<svg id="main" version="1.1" xmlns="http://www.w3.org/2000/svg" xmlns:xlink="http://www.w3.org/1999/xlink" xml:space="preserve" onload="init(evt)">
<style type="text/css"><![CDATA[
.edge:hover path { stroke: red; }
.edge:hover polygon { stroke: red; fill: red; }
]]></style>
<script type="text/javascript"><![CDATA[
var edges = document.getElementsByTagName('g');
if (edges && edges.length) {
  for (var i=0;i<edges.length;i++) {
    if (edges[i].id.substr(0,4)=='edge') {
      edges[i].setAttribute('class','edge');
    }
  }
}
]]></script>
        <defs>
                <circle id="rim" cx="0" cy="0" r="7"/>
                <circle id="rim2" cx="0" cy="0" r="3.5"/>
                <g id="zoomPlus">
                        <use xlink:href="#rim" fill="#404040">
                                <set attributeName="fill" to="#808080" begin="zoomplus.mouseover" end="zoomplus.mouseout"/>
                        </use>
                        <path d="M-4,0h8M0,-4v8" fill="none" stroke="white" stroke-width="1.5" pointer-events="none"/>
                </g>
                <g id="zoomMin">
                        <use xlink:href="#rim" fill="#404040">
                                <set attributeName="fill" to="#808080" begin="zoomminus.mouseover" end="zoomminus.mouseout"/>
                        </use>
                        <path d="M-4,0h8" fill="none" stroke="white" stroke-width="1.5" pointer-events="none"/>
                </g>
                <g id="dirArrow">
                        <path fill="none" stroke="white" stroke-width="1.5" d="M0,-3.0v7 M-2.5,-0.5L0,-3.0L2.5,-0.5"/>
                </g>
               <g id="resetDef">
                       <use xlink:href="#rim2" fill="#404040">
                               <set attributeName="fill" to="#808080" begin="reset.mouseover" end="reset.mouseout"/>
                       </use>
               </g>
        </defs>

<script type="text/javascript">
var viewWidth = 956;
var viewHeight = 510;
var sectionId = 'dynsection-0';
</script>
<script xlink:href="svgpan.js"/>
<svg id="graph" class="graph">
<g id="viewport">
<title>System.IServiceProvider</title>
<!-- Node0 -->
<g id="node1" class="node"><title>Node0</title>
<g id="a_node1"><a xlink:title="Defines a mechanism for retrieving a service object; that is, an object that provides custom support ...">
<polygon fill="#bfbfbf" stroke="black" points="0,-235 0,-254 122,-254 122,-235 0,-235"/>
<text text-anchor="middle" x="61" y="-242" font-family="Helvetica,sans-Serif" font-size="10.00">System.IServiceProvider</text>
</a>
</g>
</g>
<!-- Node1 -->
<g id="node2" class="node"><title>Node1</title>
<g id="a_node2"><a xlink:href="interface_system_1_1_component_model_1_1_design_1_1_i_designer_host.html" target="_top" xlink:title="Provides an interface for managing designer transactions and components.">
<polygon fill="none" stroke="black" points="369.5,-410.5 369.5,-440.5 534.5,-440.5 534.5,-410.5 369.5,-410.5"/>
<text text-anchor="start" x="377.5" y="-428.5" font-family="Helvetica,sans-Serif" font-size="10.00">System.ComponentModel.Design.</text>
<text text-anchor="middle" x="452" y="-417.5" font-family="Helvetica,sans-Serif" font-size="10.00">IDesignerHost</text>
</a>
</g>
</g>
<!-- Node0&#45;&gt;Node1 -->
<g id="edge1" class="edge"><title>Node0&#45;&gt;Node1</title>
<path fill="none" stroke="midnightblue" d="M68.0803,-263.949C79.626,-297.282 108.133,-364.702 158,-395.5 221.192,-434.528 306.999,-438.926 369.416,-435.427"/>
<polygon fill="midnightblue" stroke="midnightblue" points="71.2709,-262.45 64.8087,-254.054 64.6248,-264.647 71.2709,-262.45"/>
</g>
<!-- Node2 -->
<g id="node3" class="node"><title>Node2</title>
<g id="a_node3"><a xlink:href="interface_system_1_1_component_model_1_1_design_1_1_serialization_1_1_i_designer_loader_host.html" target="_top" xlink:title="Provides an interface that can extend a designer host to support loading from a serialized state.">
<polygon fill="none" stroke="black" points="579,-366.5 579,-396.5 744,-396.5 744,-366.5 579,-366.5"/>
<text text-anchor="start" x="587" y="-384.5" font-family="Helvetica,sans-Serif" font-size="10.00">System.ComponentModel.Design.</text>
<text text-anchor="middle" x="661.5" y="-373.5" font-family="Helvetica,sans-Serif" font-size="10.00">Serialization.IDesignerLoaderHost</text>
</a>
</g>
</g>
<!-- Node0&#45;&gt;Node2 -->
<g id="edge10" class="edge"><title>Node0&#45;&gt;Node2</title>
<path fill="none" stroke="midnightblue" d="M70.7181,-263.141C84.7185,-290.626 115.065,-341.077 158,-362.5 229.526,-398.189 455.852,-392.541 578.911,-386.434"/>
<polygon fill="midnightblue" stroke="midnightblue" points="73.8538,-261.586 66.3066,-254.151 67.5696,-264.67 73.8538,-261.586"/>
</g>
<!-- Node3 -->
<g id="node4" class="node"><title>Node3</title>
<g id="a_node4"><a xlink:href="interface_system_1_1_component_model_1_1_design_1_1_serialization_1_1_i_designer_loader_host2.html" target="_top" xlink:title="Provides an interface that extends T:System.ComponentModel.Design.Serialization.IDesignerLoaderHost t...">
<polygon fill="none" stroke="black" points="780,-388.5 780,-418.5 948,-418.5 948,-388.5 780,-388.5"/>
<text text-anchor="start" x="788" y="-406.5" font-family="Helvetica,sans-Serif" font-size="10.00">System.ComponentModel.Design.</text>
<text text-anchor="middle" x="864" y="-395.5" font-family="Helvetica,sans-Serif" font-size="10.00">Serialization.IDesignerLoaderHost2</text>
</a>
</g>
</g>
<!-- Node0&#45;&gt;Node3 -->
<g id="edge11" class="edge"><title>Node0&#45;&gt;Node3</title>
<path fill="none" stroke="midnightblue" d="M65.7931,-264.129C74.4514,-303.07 99.6113,-389.759 158,-429.5 372.4,-575.427 714.462,-462.159 826.308,-418.642"/>
<polygon fill="midnightblue" stroke="midnightblue" points="69.2078,-263.358 63.7349,-254.286 62.356,-264.791 69.2078,-263.358"/>
</g>
<!-- Node4 -->
<g id="node5" class="node"><title>Node4</title>
<g id="a_node5"><a xlink:href="interface_system_1_1_component_model_1_1_design_1_1_i_service_container.html" target="_top" xlink:title="Provides a container for services.">
<polygon fill="none" stroke="black" points="159,-322.5 159,-352.5 324,-352.5 324,-322.5 159,-322.5"/>
<text text-anchor="start" x="167" y="-340.5" font-family="Helvetica,sans-Serif" font-size="10.00">System.ComponentModel.Design.</text>
<text text-anchor="middle" x="241.5" y="-329.5" font-family="Helvetica,sans-Serif" font-size="10.00">IServiceContainer</text>
</a>
</g>
</g>
<!-- Node0&#45;&gt;Node4 -->
<g id="edge5" class="edge"><title>Node0&#45;&gt;Node4</title>
<path fill="none" stroke="midnightblue" d="M82.6297,-260.071C101.518,-273.824 130.616,-293.77 158,-307.5 169.035,-313.033 181.347,-318.068 193.022,-322.366"/>
<polygon fill="midnightblue" stroke="midnightblue" points="84.5962,-257.173 74.4712,-254.052 80.4405,-262.805 84.5962,-257.173"/>
</g>
<!-- Node5 -->
<g id="node6" class="node"><title>Node5</title>
<g id="a_node6"><a xlink:href="class_system_1_1_component_model_1_1_design_1_1_service_container.html" target="_top" xlink:title="Provides a simple implementation of the T:System.ComponentModel.Design.IServiceContainer interface....">
<polygon fill="none" stroke="black" points="369.5,-246.5 369.5,-276.5 534.5,-276.5 534.5,-246.5 369.5,-246.5"/>
<text text-anchor="start" x="377.5" y="-264.5" font-family="Helvetica,sans-Serif" font-size="10.00">System.ComponentModel.Design.</text>
<text text-anchor="middle" x="452" y="-253.5" font-family="Helvetica,sans-Serif" font-size="10.00">ServiceContainer</text>
</a>
</g>
</g>
<!-- Node0&#45;&gt;Node5 -->
<g id="edge13" class="edge"><title>Node0&#45;&gt;Node5</title>
<path fill="none" stroke="midnightblue" d="M95.1631,-257.593C113.392,-264.089 136.59,-271.233 158,-274.5 228.847,-285.312 310.359,-280.305 369.394,-273.606"/>
<polygon fill="midnightblue" stroke="midnightblue" points="96.1841,-254.239 85.5905,-254.079 93.7719,-260.81 96.1841,-254.239"/>
</g>
<!-- Node6 -->
<g id="node7" class="node"><title>Node6</title>
<g id="a_node7"><a xlink:href="interface_system_1_1_component_model_1_1_design_1_1_serialization_1_1_i_designer_serialization_manager.html" target="_top" xlink:title="Provides an interface that can manage design&#45;time serialization.">
<polygon fill="none" stroke="black" points="158,-224 158,-265 325,-265 325,-224 158,-224"/>
<text text-anchor="start" x="166" y="-253" font-family="Helvetica,sans-Serif" font-size="10.00">System.ComponentModel.Design.</text>
<text text-anchor="start" x="166" y="-242" font-family="Helvetica,sans-Serif" font-size="10.00">Serialization.IDesignerSerialization</text>
<text text-anchor="middle" x="241.5" y="-231" font-family="Helvetica,sans-Serif" font-size="10.00">Manager</text>
</a>
</g>
</g>
<!-- Node0&#45;&gt;Node6 -->
<g id="edge12" class="edge"><title>Node0&#45;&gt;Node6</title>
<path fill="none" stroke="midnightblue" d="M132.499,-244.5C140.863,-244.5 149.457,-244.5 157.969,-244.5"/>
<polygon fill="midnightblue" stroke="midnightblue" points="132.432,-241 122.432,-244.5 132.432,-248 132.432,-241"/>
</g>
<!-- Node7 -->
<g id="node8" class="node"><title>Node7</title>
<g id="a_node8"><a xlink:href="interface_system_1_1_component_model_1_1_i_nested_site.html" target="_top" xlink:title="Provides the ability to retrieve the full nested name of a component.">
<polygon fill="none" stroke="black" points="361,-167 361,-186 543,-186 543,-167 361,-167"/>
<text text-anchor="middle" x="452" y="-174" font-family="Helvetica,sans-Serif" font-size="10.00">System.ComponentModel.INestedSite</text>
</a>
</g>
</g>
<!-- Node0&#45;&gt;Node7 -->
<g id="edge14" class="edge"><title>Node0&#45;&gt;Node7</title>
<path fill="none" stroke="midnightblue" d="M78.5179,-227.838C96.3418,-211.15 126.439,-186.545 158,-176.5 238.342,-150.928 337.475,-158.47 397.386,-166.965"/>
<polygon fill="midnightblue" stroke="midnightblue" points="75.9981,-225.406 71.2311,-234.868 80.8581,-230.444 75.9981,-225.406"/>
</g>
<!-- Node8 -->
<g id="node9" class="node"><title>Node8</title>
<g id="a_node9"><a xlink:href="interface_system_1_1_component_model_1_1_i_site.html" target="_top" xlink:title="Provides functionality required by sites.">
<polygon fill="none" stroke="black" points="165.5,-186 165.5,-205 317.5,-205 317.5,-186 165.5,-186"/>
<text text-anchor="middle" x="241.5" y="-193" font-family="Helvetica,sans-Serif" font-size="10.00">System.ComponentModel.ISite</text>
</a>
</g>
</g>
<!-- Node0&#45;&gt;Node8 -->
<g id="edge15" class="edge"><title>Node0&#45;&gt;Node8</title>
<path fill="none" stroke="midnightblue" d="M100.253,-231.808C117.764,-226.189 138.839,-219.692 158,-214.5 170.342,-211.156 183.824,-207.89 196.245,-205.036"/>
<polygon fill="midnightblue" stroke="midnightblue" points="98.8329,-228.589 90.3968,-234.999 100.989,-235.249 98.8329,-228.589"/>
</g>
<!-- Node9 -->
<g id="node10" class="node"><title>Node9</title>
<g id="a_node10"><a xlink:href="interface_system_1_1_component_model_1_1_i_type_descriptor_context.html" target="_top" xlink:title="Provides contextual information about a component, such as its container and property descriptor.">
<polygon fill="none" stroke="black" points="164,-98.5 164,-128.5 319,-128.5 319,-98.5 164,-98.5"/>
<text text-anchor="start" x="172" y="-116.5" font-family="Helvetica,sans-Serif" font-size="10.00">System.ComponentModel.IType</text>
<text text-anchor="middle" x="241.5" y="-105.5" font-family="Helvetica,sans-Serif" font-size="10.00">DescriptorContext</text>
</a>
</g>
</g>
<!-- Node0&#45;&gt;Node9 -->
<g id="edge17" class="edge"><title>Node0&#45;&gt;Node9</title>
<path fill="none" stroke="midnightblue" d="M74.9033,-226.48C91.7229,-204.169 123.136,-166.331 158,-143.5 167.053,-137.572 177.43,-132.625 187.7,-128.57"/>
<polygon fill="midnightblue" stroke="midnightblue" points="71.9316,-224.612 68.8114,-234.737 77.5646,-228.768 71.9316,-224.612"/>
</g>
<!-- Node10 -->
<g id="node11" class="node"><title>Node10</title>
<g id="a_node11"><a xlink:href="class_system_1_1_component_model_1_1_license_context.html" target="_top" xlink:title="Specifies when you can use a licensed object and provides a way of obtaining additional services need...">
<polygon fill="none" stroke="red" points="158.5,-49.5 158.5,-79.5 324.5,-79.5 324.5,-49.5 158.5,-49.5"/>
<text text-anchor="start" x="166.5" y="-67.5" font-family="Helvetica,sans-Serif" font-size="10.00">System.ComponentModel.License</text>
<text text-anchor="middle" x="241.5" y="-56.5" font-family="Helvetica,sans-Serif" font-size="10.00">Context</text>
</a>
</g>
</g>
<!-- Node0&#45;&gt;Node10 -->
<g id="edge18" class="edge"><title>Node0&#45;&gt;Node10</title>
<path fill="none" stroke="midnightblue" d="M68.7796,-225.058C81.2319,-192.196 110.874,-125.718 158,-89.5 162.984,-85.6697 168.553,-82.4233 174.381,-79.6724"/>
<polygon fill="midnightblue" stroke="midnightblue" points="65.3569,-224.227 65.2152,-234.821 71.9324,-226.628 65.3569,-224.227"/>
</g>
<!-- Node12 -->
<g id="node12" class="node"><title>Node12</title>
<g id="a_node12"><a xlink:href="class_system_1_1_component_model_1_1_marshal_by_value_component.html" target="_top" xlink:title="Implements T:System.ComponentModel.IComponent and provides the base implementation for remotable comp...">
<polygon fill="none" stroke="black" points="158,-0.5 158,-30.5 325,-30.5 325,-0.5 158,-0.5"/>
<text text-anchor="start" x="166" y="-18.5" font-family="Helvetica,sans-Serif" font-size="10.00">System.ComponentModel.Marshal</text>
<text text-anchor="middle" x="241.5" y="-7.5" font-family="Helvetica,sans-Serif" font-size="10.00">ByValueComponent</text>
</a>
</g>
</g>
<!-- Node0&#45;&gt;Node12 -->
<g id="edge19" class="edge"><title>Node0&#45;&gt;Node12</title>
<path fill="none" stroke="midnightblue" d="M65.6367,-224.578C74.1628,-183.647 99.3274,-89.7235 158,-39.5 161.966,-36.1049 166.39,-33.1896 171.072,-30.6863"/>
<polygon fill="midnightblue" stroke="midnightblue" points="62.154,-224.15 63.6591,-234.638 69.0225,-225.501 62.154,-224.15"/>
</g>
<!-- Node1&#45;&gt;Node2 -->
<g id="edge2" class="edge"><title>Node1&#45;&gt;Node2</title>
<path fill="none" stroke="midnightblue" d="M533.67,-408.394C552.133,-404.479 571.623,-400.346 589.638,-396.526"/>
<polygon fill="midnightblue" stroke="midnightblue" points="532.886,-404.982 523.829,-410.481 534.338,-411.83 532.886,-404.982"/>
</g>
<!-- Node1&#45;&gt;Node3 -->
<g id="edge4" class="edge"><title>Node1&#45;&gt;Node3</title>
<path fill="none" stroke="midnightblue" d="M545.174,-420.554C615.55,-416.778 711.691,-411.619 779.753,-407.967"/>
<polygon fill="midnightblue" stroke="midnightblue" points="544.782,-417.07 534.984,-421.101 545.157,-424.06 544.782,-417.07"/>
</g>
<!-- Node2&#45;&gt;Node3 -->
<g id="edge3" class="edge"><title>Node2&#45;&gt;Node3</title>
<path fill="none" stroke="midnightblue" d="M754.092,-391.55C762.692,-392.494 771.377,-393.447 779.893,-394.381"/>
<polygon fill="midnightblue" stroke="midnightblue" points="754.373,-388.06 744.051,-390.448 753.61,-395.018 754.373,-388.06"/>
</g>
<!-- Node4&#45;&gt;Node1 -->
<g id="edge6" class="edge"><title>Node4&#45;&gt;Node1</title>
<path fill="none" stroke="midnightblue" d="M287.703,-356.579C325.946,-372.719 380.006,-395.536 415.277,-410.423"/>
<polygon fill="midnightblue" stroke="midnightblue" points="288.916,-353.292 278.342,-352.628 286.194,-359.741 288.916,-353.292"/>
</g>
<!-- Node4&#45;&gt;Node2 -->
<g id="edge7" class="edge"><title>Node4&#45;&gt;Node2</title>
<path fill="none" stroke="midnightblue" d="M334.298,-346.206C393.826,-351.965 473.04,-359.841 543,-367.5 554.64,-368.774 566.922,-370.175 578.983,-371.583"/>
<polygon fill="midnightblue" stroke="midnightblue" points="334.46,-342.706 324.17,-345.229 333.787,-349.673 334.46,-342.706"/>
</g>
<!-- Node4&#45;&gt;Node3 -->
<g id="edge8" class="edge"><title>Node4&#45;&gt;Node3</title>
<path fill="none" stroke="midnightblue" d="M334.626,-331.553C436.172,-327.211 603.727,-326.614 744,-357.5 774.717,-364.263 807.971,-377.677 831.496,-388.282"/>
<polygon fill="midnightblue" stroke="midnightblue" points="334.234,-328.067 324.402,-332.012 334.549,-335.06 334.234,-328.067"/>
</g>
<!-- Node4&#45;&gt;Node5 -->
<g id="edge9" class="edge"><title>Node4&#45;&gt;Node5</title>
<path fill="none" stroke="midnightblue" d="M294.991,-319.032C305.002,-315.336 315.361,-311.389 325,-307.5 341.237,-300.949 344.676,-297.831 361,-291.5 374.513,-286.259 389.371,-281.076 403.052,-276.531"/>
<polygon fill="midnightblue" stroke="midnightblue" points="293.724,-315.769 285.534,-322.49 296.128,-322.343 293.724,-315.769"/>
</g>
<!-- Node8&#45;&gt;Node7 -->
<g id="edge16" class="edge"><title>Node8&#45;&gt;Node7</title>
<path fill="none" stroke="midnightblue" d="M328.061,-187.703C338.896,-186.716 350.01,-185.703 360.913,-184.709"/>
<polygon fill="midnightblue" stroke="midnightblue" points="327.414,-184.247 317.773,-188.641 328.05,-191.219 327.414,-184.247"/>
</g>
</g>
</svg>
        <g id="navigator" transform="translate(0 0)" fill="#404254">
                <rect fill="#f2f5e9" fill-opacity="0.5" stroke="#606060" stroke-width=".5" x="0" y="0" width="60" height="60"/>
                <use id="zoomplus" xlink:href="#zoomPlus" x="17" y="9" onmousedown="handleZoom(evt,'in')"/>
                <use id="zoomminus" xlink:href="#zoomMin" x="42" y="9" onmousedown="handleZoom(evt,'out')"/>
                <use id="reset" xlink:href="#resetDef" x="30" y="36" onmousedown="handleReset()"/>
                <g id="arrowUp" xlink:href="#dirArrow" transform="translate(30 24)" onmousedown="handlePan(0,-1)">
                  <use xlink:href="#rim" fill="#404040">
                        <set attributeName="fill" to="#808080" begin="arrowUp.mouseover" end="arrowUp.mouseout"/>
                  </use>
                  <path fill="none" stroke="white" stroke-width="1.5" d="M0,-3.0v7 M-2.5,-0.5L0,-3.0L2.5,-0.5"/>
                </g>
                <g id="arrowRight" xlink:href="#dirArrow" transform="rotate(90) translate(36 -43)" onmousedown="handlePan(1,0)">
                  <use xlink:href="#rim" fill="#404040">
                        <set attributeName="fill" to="#808080" begin="arrowRight.mouseover" end="arrowRight.mouseout"/>
                  </use>
                  <path fill="none" stroke="white" stroke-width="1.5" d="M0,-3.0v7 M-2.5,-0.5L0,-3.0L2.5,-0.5"/>
                </g>
                <g id="arrowDown" xlink:href="#dirArrow" transform="rotate(180) translate(-30 -48)" onmousedown="handlePan(0,1)">
                  <use xlink:href="#rim" fill="#404040">
                        <set attributeName="fill" to="#808080" begin="arrowDown.mouseover" end="arrowDown.mouseout"/>
                  </use>
                  <path fill="none" stroke="white" stroke-width="1.5" d="M0,-3.0v7 M-2.5,-0.5L0,-3.0L2.5,-0.5"/>
                </g>
                <g id="arrowLeft" xlink:href="#dirArrow" transform="rotate(270) translate(-36 17)" onmousedown="handlePan(-1,0)">
                  <use xlink:href="#rim" fill="#404040">
                        <set attributeName="fill" to="#808080" begin="arrowLeft.mouseover" end="arrowLeft.mouseout"/>
                  </use>
                  <path fill="none" stroke="white" stroke-width="1.5" d="M0,-3.0v7 M-2.5,-0.5L0,-3.0L2.5,-0.5"/>
                </g>
        </g>
        <svg viewBox="0 0 15 15" width="100%" height="30px" preserveAspectRatio="xMaxYMin meet">
         <g id="arrow_out" transform="scale(0.3 0.3)">
          <a xlink:href="interface_system_1_1_i_service_provider__inherit__graph_org.svg" target="_base">
           <rect id="button" ry="5" rx="5" y="6" x="6" height="38" width="38"
                fill="#f2f5e9" fill-opacity="0.5" stroke="#606060" stroke-width="1.0"/>
           <path id="arrow"
             d="M 11.500037,31.436501 C 11.940474,20.09759 22.043105,11.32322 32.158766,21.979434 L 37.068811,17.246167 C 37.068811,17.246167 37.088388,32 37.088388,32 L 22.160133,31.978069 C 22.160133,31.978069 26.997745,27.140456 26.997745,27.140456 C 18.528582,18.264221 13.291696,25.230495 11.500037,31.436501 z"
             style="fill:#404040;"/>
          </a>
         </g>
        </svg>
</svg>
