<?xml version="1.0" encoding="UTF-8" standalone="no"?>
<!DOCTYPE svg PUBLIC "-//W3C//DTD SVG 1.1//EN"
 "http://www.w3.org/Graphics/SVG/1.1/DTD/svg11.dtd">
<!-- Generated by graphviz version 2.38.0 (20140413.2041)
 -->
<!-- Title: System.Runtime.Remoting.Channels.IServerResponseChannelSinkStack Pages: 1 -->
<svg width="585pt" height="67pt"
 viewBox="0.00 0.00 585.00 66.50" xmlns="http://www.w3.org/2000/svg" xmlns:xlink="http://www.w3.org/1999/xlink">
<g id="graph0" class="graph" transform="scale(1 1) rotate(0) translate(4 62.5)">
<title>System.Runtime.Remoting.Channels.IServerResponseChannelSinkStack</title>
<!-- Node0 -->
<g id="node1" class="node"><title>Node0</title>
<g id="a_node1"><a xlink:title="Provides the stack functionality for a stack of server response channel sinks.">
<polygon fill="#bfbfbf" stroke="black" points="0,-0.5 0,-41.5 168,-41.5 168,-0.5 0,-0.5"/>
<text text-anchor="start" x="8" y="-29.5" font-family="Helvetica,sans-Serif" font-size="10.00">System.Runtime.Remoting.</text>
<text text-anchor="start" x="8" y="-18.5" font-family="Helvetica,sans-Serif" font-size="10.00">Channels.IServerResponseChannel</text>
<text text-anchor="middle" x="84" y="-7.5" font-family="Helvetica,sans-Serif" font-size="10.00">SinkStack</text>
</a>
</g>
</g>
<!-- Node1 -->
<g id="node2" class="node"><title>Node1</title>
<g id="a_node2"><a xlink:href="interface_system_1_1_runtime_1_1_remoting_1_1_channels_1_1_i_server_channel_sink_stack.html" target="_top" xlink:title="Provides the stack functionality for a stack of server channel sinks.">
<polygon fill="none" stroke="black" points="204,-28 204,-58 374,-58 374,-28 204,-28"/>
<text text-anchor="start" x="212" y="-46" font-family="Helvetica,sans-Serif" font-size="10.00">System.Runtime.Remoting.</text>
<text text-anchor="middle" x="289" y="-35" font-family="Helvetica,sans-Serif" font-size="10.00">Channels.IServerChannelSinkStack</text>
</a>
</g>
</g>
<!-- Node0&#45;&gt;Node1 -->
<g id="edge1" class="edge"><title>Node0&#45;&gt;Node1</title>
<path fill="none" stroke="midnightblue" d="M178.198,-31.1003C186.798,-32.0323 195.479,-32.973 203.99,-33.8954"/>
<polygon fill="midnightblue" stroke="midnightblue" points="178.473,-27.6096 168.154,-30.0117 177.718,-34.5689 178.473,-27.6096"/>
</g>
<!-- Node2 -->
<g id="node3" class="node"><title>Node2</title>
<g id="a_node3"><a xlink:href="class_system_1_1_runtime_1_1_remoting_1_1_channels_1_1_server_channel_sink_stack.html" target="_top" xlink:title="Holds the stack of server channel sinks.">
<polygon fill="none" stroke="black" points="410,-6 410,-36 577,-36 577,-6 410,-6"/>
<text text-anchor="start" x="418" y="-24" font-family="Helvetica,sans-Serif" font-size="10.00">System.Runtime.Remoting.</text>
<text text-anchor="middle" x="493.5" y="-13" font-family="Helvetica,sans-Serif" font-size="10.00">Channels.ServerChannelSinkStack</text>
</a>
</g>
</g>
<!-- Node0&#45;&gt;Node2 -->
<g id="edge3" class="edge"><title>Node0&#45;&gt;Node2</title>
<path fill="none" stroke="midnightblue" d="M178.379,-19.2817C187.041,-19.1672 195.684,-19.0699 204,-19 279.553,-18.3651 298.447,-18.3625 374,-19 385.625,-19.0981 397.891,-19.2503 409.948,-19.428"/>
<polygon fill="midnightblue" stroke="midnightblue" points="178.172,-15.7841 168.222,-19.4233 178.27,-22.7834 178.172,-15.7841"/>
</g>
<!-- Node1&#45;&gt;Node2 -->
<g id="edge2" class="edge"><title>Node1&#45;&gt;Node2</title>
<path fill="none" stroke="midnightblue" d="M384.174,-32.7687C392.779,-31.8338 401.453,-30.8915 409.945,-29.9689"/>
<polygon fill="midnightblue" stroke="midnightblue" points="383.682,-29.3015 374.119,-33.8611 384.439,-36.2605 383.682,-29.3015"/>
</g>
</g>
</svg>
