<?xml version="1.0" encoding="UTF-8" standalone="no"?>
<!DOCTYPE svg PUBLIC "-//W3C//DTD SVG 1.1//EN"
 "http://www.w3.org/Graphics/SVG/1.1/DTD/svg11.dtd">
<!-- Generated by graphviz version 2.38.0 (20140413.2041)
 -->
<!-- Title: System.Runtime.Remoting.Messaging.IMethodCallMessage Pages: 1 -->
<svg width="170pt" height="151pt"
 viewBox="0.00 0.00 169.50 151.00" xmlns="http://www.w3.org/2000/svg" xmlns:xlink="http://www.w3.org/1999/xlink">
<g id="graph0" class="graph" transform="scale(1 1) rotate(0) translate(4 147)">
<title>System.Runtime.Remoting.Messaging.IMethodCallMessage</title>
<!-- Node7 -->
<g id="node1" class="node"><title>Node7</title>
<g id="a_node1"><a xlink:title="Defines the method call message interface.">
<polygon fill="#bfbfbf" stroke="black" points="0,-0.5 0,-30.5 158,-30.5 158,-0.5 0,-0.5"/>
<text text-anchor="start" x="8" y="-18.5" font-family="Helvetica,sans-Serif" font-size="10.00">System.Runtime.Remoting.</text>
<text text-anchor="middle" x="79" y="-7.5" font-family="Helvetica,sans-Serif" font-size="10.00">Messaging.IMethodCallMessage</text>
</a>
</g>
</g>
<!-- Node8 -->
<g id="node2" class="node"><title>Node8</title>
<g id="a_node2"><a xlink:href="interface_system_1_1_runtime_1_1_remoting_1_1_messaging_1_1_i_method_message.html" target="_top" xlink:title="Defines the method message interface.">
<polygon fill="none" stroke="black" points="70.5,-67.5 70.5,-86.5 161.5,-86.5 161.5,-67.5 70.5,-67.5"/>
<text text-anchor="middle" x="116" y="-74.5" font-family="Helvetica,sans-Serif" font-size="10.00">IMethodMessage</text>
</a>
</g>
</g>
<!-- Node8&#45;&gt;Node7 -->
<g id="edge1" class="edge"><title>Node8&#45;&gt;Node7</title>
<path fill="none" stroke="midnightblue" d="M105.406,-58.9634C99.8048,-49.9564 93.013,-39.0344 87.7202,-30.523"/>
<polygon fill="midnightblue" stroke="midnightblue" points="102.446,-60.8314 110.699,-67.4751 108.39,-57.1348 102.446,-60.8314"/>
</g>
<!-- Node9 -->
<g id="node3" class="node"><title>Node9</title>
<g id="a_node3"><a xlink:href="interface_system_1_1_runtime_1_1_remoting_1_1_messaging_1_1_i_message.html" target="_top" xlink:title="Contains communication data sent between cooperating message sinks.">
<polygon fill="none" stroke="black" points="49.5,-123.5 49.5,-142.5 108.5,-142.5 108.5,-123.5 49.5,-123.5"/>
<text text-anchor="middle" x="79" y="-130.5" font-family="Helvetica,sans-Serif" font-size="10.00">IMessage</text>
</a>
</g>
</g>
<!-- Node9&#45;&gt;Node7 -->
<g id="edge3" class="edge"><title>Node9&#45;&gt;Node7</title>
<path fill="none" stroke="midnightblue" d="M70.5544,-114.145C67.175,-106.052 63.6876,-96.2425 62,-87 58.4042,-67.3069 65.8329,-44.8804 71.9788,-30.7127"/>
<polygon fill="midnightblue" stroke="midnightblue" points="67.3687,-115.595 74.6337,-123.307 73.7635,-112.748 67.3687,-115.595"/>
</g>
<!-- Node9&#45;&gt;Node8 -->
<g id="edge2" class="edge"><title>Node9&#45;&gt;Node8</title>
<path fill="none" stroke="midnightblue" d="M90.9458,-114.566C97.3117,-105.275 104.867,-94.2484 110.004,-86.7511"/>
<polygon fill="midnightblue" stroke="midnightblue" points="87.8749,-112.855 85.1098,-123.083 93.6494,-116.812 87.8749,-112.855"/>
</g>
</g>
</svg>
