<?xml version="1.0" encoding="UTF-8" standalone="no"?>
<!DOCTYPE svg PUBLIC "-//W3C//DTD SVG 1.1//EN"
 "http://www.w3.org/Graphics/SVG/1.1/DTD/svg11.dtd">
<!-- Generated by graphviz version 2.38.0 (20140413.2041)
 -->
<!-- Title: System.Collections.Generic.IComparer&lt; in in T &gt; Pages: 1 -->
<svg width="642pt" height="603pt"
 viewBox="0.00 0.00 642.00 602.88" xmlns="http://www.w3.org/2000/svg" xmlns:xlink="http://www.w3.org/1999/xlink">
<g id="graph0" class="graph" transform="scale(1 1) rotate(0) translate(4 598.884)">
<title>System.Collections.Generic.IComparer&lt; in in T &gt;</title>
<!-- Node0 -->
<g id="node1" class="node"><title>Node0</title>
<g id="a_node1"><a xlink:title="Defines a method that a type implements to compare two objects.">
<polygon fill="#bfbfbf" stroke="black" points="0,-294.5 0,-324.5 141,-324.5 141,-294.5 0,-294.5"/>
<text text-anchor="start" x="8" y="-312.5" font-family="Helvetica,sans-Serif" font-size="10.00">System.Collections.Generic.</text>
<text text-anchor="middle" x="70.5" y="-301.5" font-family="Helvetica,sans-Serif" font-size="10.00">IComparer&lt; in in T &gt;</text>
</a>
</g>
</g>
<!-- Node1 -->
<g id="node2" class="node"><title>Node1</title>
<g id="a_node2"><a xlink:href="class_system_1_1_collections_1_1_generic_1_1_comparer.html" target="_top" xlink:title="Provides a base class for implementations of the T:System.Collections.Generic.IComparer`1 generic int...">
<polygon fill="none" stroke="red" points="493,-501.5 493,-531.5 634,-531.5 634,-501.5 493,-501.5"/>
<text text-anchor="start" x="501" y="-519.5" font-family="Helvetica,sans-Serif" font-size="10.00">System.Collections.Generic.</text>
<text text-anchor="middle" x="563.5" y="-508.5" font-family="Helvetica,sans-Serif" font-size="10.00">Comparer&lt; T &gt;</text>
</a>
</g>
</g>
<!-- Node0&#45;&gt;Node1 -->
<g id="edge1" class="edge"><title>Node0&#45;&gt;Node1</title>
<path fill="none" stroke="midnightblue" d="M71.0619,-335.013C71.6486,-390.153 81.6074,-520.379 159,-581.5 184.75,-601.836 450.95,-593.1 456,-591.5 493.081,-579.754 528.41,-549.935 547.603,-531.632"/>
<polygon fill="midnightblue" stroke="midnightblue" points="74.5618,-334.73 71.0551,-324.733 67.5618,-334.735 74.5618,-334.73"/>
</g>
<!-- Node8 -->
<g id="node3" class="node"><title>Node8</title>
<g id="a_node3"><a xlink:href="interface_system_1_1_collections_1_1_generic_1_1_i_comparer.html" target="_top" xlink:title=" ">
<polygon fill="none" stroke="black" points="293,-551.5 293,-581.5 451,-581.5 451,-551.5 293,-551.5"/>
<text text-anchor="start" x="301" y="-569.5" font-family="Helvetica,sans-Serif" font-size="10.00">System.Collections.Generic.</text>
<text text-anchor="middle" x="372" y="-558.5" font-family="Helvetica,sans-Serif" font-size="10.00">IComparer&lt; Producer&lt; TKey &gt; &gt;</text>
</a>
</g>
</g>
<!-- Node0&#45;&gt;Node8 -->
<g id="edge2" class="edge"><title>Node0&#45;&gt;Node8</title>
<path fill="none" stroke="orange" stroke-dasharray="5,2" d="M73.8393,-334.529C79.5466,-380.46 98.502,-478.023 159,-527.5 196.08,-557.825 249.08,-567.575 292.81,-569.744"/>
<polygon fill="orange" stroke="orange" points="77.31,-334.072 72.7075,-324.529 70.3544,-334.859 77.31,-334.072"/>
<text text-anchor="middle" x="214.5" y="-569.5" font-family="Helvetica,sans-Serif" font-size="10.00"> &lt; Producer&lt; TKey &gt; &gt;</text>
</g>
<!-- Node9 -->
<g id="node4" class="node"><title>Node9</title>
<g id="a_node4"><a xlink:href="interface_system_1_1_collections_1_1_generic_1_1_i_comparer.html" target="_top" xlink:title=" ">
<polygon fill="none" stroke="black" points="301.5,-502.5 301.5,-532.5 442.5,-532.5 442.5,-502.5 301.5,-502.5"/>
<text text-anchor="start" x="309.5" y="-520.5" font-family="Helvetica,sans-Serif" font-size="10.00">System.Collections.Generic.</text>
<text text-anchor="middle" x="372" y="-509.5" font-family="Helvetica,sans-Serif" font-size="10.00">IComparer&lt; TOrderKey &gt;</text>
</a>
</g>
</g>
<!-- Node0&#45;&gt;Node9 -->
<g id="edge3" class="edge"><title>Node0&#45;&gt;Node9</title>
<path fill="none" stroke="orange" stroke-dasharray="5,2" d="M77.7924,-334.767C88.226,-371.16 112.701,-437.765 159,-472.5 199.782,-503.096 256.785,-513.91 301.413,-517.312"/>
<polygon fill="orange" stroke="orange" points="81.1174,-333.657 75.1056,-324.932 74.3649,-335.501 81.1174,-333.657"/>
<text text-anchor="middle" x="214.5" y="-515.5" font-family="Helvetica,sans-Serif" font-size="10.00"> &lt; TOrderKey &gt;</text>
</g>
<!-- Node10 -->
<g id="node5" class="node"><title>Node10</title>
<g id="a_node5"><a xlink:href="interface_system_1_1_collections_1_1_generic_1_1_i_comparer.html" target="_top" xlink:title=" ">
<polygon fill="none" stroke="black" points="288,-442 288,-483 456,-483 456,-442 288,-442"/>
<text text-anchor="start" x="296" y="-471" font-family="Helvetica,sans-Serif" font-size="10.00">System.Collections.Generic.</text>
<text text-anchor="start" x="296" y="-460" font-family="Helvetica,sans-Serif" font-size="10.00">IComparer&lt; ConcatKey&lt; TLeftKey,</text>
<text text-anchor="middle" x="372" y="-449" font-family="Helvetica,sans-Serif" font-size="10.00"> TRightKey &gt; &gt;</text>
</a>
</g>
</g>
<!-- Node0&#45;&gt;Node10 -->
<g id="edge4" class="edge"><title>Node0&#45;&gt;Node10</title>
<path fill="none" stroke="orange" stroke-dasharray="5,2" d="M87.3111,-333.152C103.016,-354.836 129.035,-386.261 159,-404.5 198.033,-428.258 246.937,-442.48 287.936,-450.889"/>
<polygon fill="orange" stroke="orange" points="90.0475,-330.959 81.4238,-324.804 84.327,-334.994 90.0475,-330.959"/>
<text text-anchor="start" x="159" y="-460.5" font-family="Helvetica,sans-Serif" font-size="10.00"> &lt; ConcatKey&lt; TLeftKey,</text>
<text text-anchor="middle" x="214.5" y="-449.5" font-family="Helvetica,sans-Serif" font-size="10.00"> TRightKey &gt; &gt;</text>
</g>
<!-- Node11 -->
<g id="node6" class="node"><title>Node11</title>
<g id="a_node6"><a xlink:href="interface_system_1_1_collections_1_1_generic_1_1_i_comparer.html" target="_top" xlink:title=" ">
<polygon fill="none" stroke="black" points="301.5,-392.5 301.5,-422.5 442.5,-422.5 442.5,-392.5 301.5,-392.5"/>
<text text-anchor="start" x="309.5" y="-410.5" font-family="Helvetica,sans-Serif" font-size="10.00">System.Collections.Generic.</text>
<text text-anchor="middle" x="372" y="-399.5" font-family="Helvetica,sans-Serif" font-size="10.00">IComparer&lt; TLeftKey &gt;</text>
</a>
</g>
</g>
<!-- Node0&#45;&gt;Node11 -->
<g id="edge5" class="edge"><title>Node0&#45;&gt;Node11</title>
<path fill="none" stroke="orange" stroke-dasharray="5,2" d="M103.782,-329.949C119.877,-339.423 139.935,-350.178 159,-357.5 205.068,-375.193 259.259,-387.84 301.32,-395.988"/>
<polygon fill="orange" stroke="orange" points="105.176,-326.703 94.8011,-324.554 101.571,-332.703 105.176,-326.703"/>
<text text-anchor="middle" x="214.5" y="-392.5" font-family="Helvetica,sans-Serif" font-size="10.00"> &lt; TLeftKey &gt;</text>
</g>
<!-- Node12 -->
<g id="node7" class="node"><title>Node12</title>
<g id="a_node7"><a xlink:href="interface_system_1_1_collections_1_1_generic_1_1_i_comparer.html" target="_top" xlink:title=" ">
<polygon fill="none" stroke="black" points="301.5,-343.5 301.5,-373.5 442.5,-373.5 442.5,-343.5 301.5,-343.5"/>
<text text-anchor="start" x="309.5" y="-361.5" font-family="Helvetica,sans-Serif" font-size="10.00">System.Collections.Generic.</text>
<text text-anchor="middle" x="372" y="-350.5" font-family="Helvetica,sans-Serif" font-size="10.00">IComparer&lt; TElement &gt;</text>
</a>
</g>
</g>
<!-- Node0&#45;&gt;Node12 -->
<g id="edge6" class="edge"><title>Node0&#45;&gt;Node12</title>
<path fill="none" stroke="orange" stroke-dasharray="5,2" d="M151.31,-323.218C153.904,-323.652 156.472,-324.081 159,-324.5 206.438,-332.37 259.898,-340.942 301.267,-347.51"/>
<polygon fill="orange" stroke="orange" points="151.661,-319.728 141.219,-321.521 150.5,-326.631 151.661,-319.728"/>
<text text-anchor="middle" x="214.5" y="-345.5" font-family="Helvetica,sans-Serif" font-size="10.00"> &lt; TElement &gt;</text>
</g>
<!-- Node13 -->
<g id="node8" class="node"><title>Node13</title>
<g id="a_node8"><a xlink:href="interface_system_1_1_collections_1_1_generic_1_1_i_comparer.html" target="_top" xlink:title=" ">
<polygon fill="none" stroke="black" points="301.5,-294.5 301.5,-324.5 442.5,-324.5 442.5,-294.5 301.5,-294.5"/>
<text text-anchor="start" x="309.5" y="-312.5" font-family="Helvetica,sans-Serif" font-size="10.00">System.Collections.Generic.</text>
<text text-anchor="middle" x="372" y="-301.5" font-family="Helvetica,sans-Serif" font-size="10.00">IComparer&lt; SingleRange &gt;</text>
</a>
</g>
</g>
<!-- Node0&#45;&gt;Node13 -->
<g id="edge7" class="edge"><title>Node0&#45;&gt;Node13</title>
<path fill="none" stroke="orange" stroke-dasharray="5,2" d="M151.422,-309.5C198.119,-309.5 256.489,-309.5 301.307,-309.5"/>
<polygon fill="orange" stroke="orange" points="151.341,-306 141.341,-309.5 151.341,-313 151.341,-306"/>
<text text-anchor="middle" x="214.5" y="-312.5" font-family="Helvetica,sans-Serif" font-size="10.00"> &lt; SingleRange &gt;</text>
</g>
<!-- Node14 -->
<g id="node9" class="node"><title>Node14</title>
<g id="a_node9"><a xlink:href="interface_system_1_1_collections_1_1_generic_1_1_i_comparer.html" target="_top" xlink:title=" ">
<polygon fill="none" stroke="black" points="301.5,-245.5 301.5,-275.5 442.5,-275.5 442.5,-245.5 301.5,-245.5"/>
<text text-anchor="start" x="309.5" y="-263.5" font-family="Helvetica,sans-Serif" font-size="10.00">System.Collections.Generic.</text>
<text text-anchor="middle" x="372" y="-252.5" font-family="Helvetica,sans-Serif" font-size="10.00">IComparer&lt; T &gt;</text>
</a>
</g>
</g>
<!-- Node0&#45;&gt;Node14 -->
<g id="edge8" class="edge"><title>Node0&#45;&gt;Node14</title>
<path fill="none" stroke="orange" stroke-dasharray="5,2" d="M151.31,-295.782C153.904,-295.348 156.472,-294.919 159,-294.5 206.438,-286.63 259.898,-278.058 301.267,-271.49"/>
<polygon fill="orange" stroke="orange" points="150.5,-292.369 141.219,-297.479 151.661,-299.272 150.5,-292.369"/>
<text text-anchor="middle" x="214.5" y="-297.5" font-family="Helvetica,sans-Serif" font-size="10.00"> &lt; T &gt;</text>
</g>
<!-- Node15 -->
<g id="node10" class="node"><title>Node15</title>
<g id="a_node10"><a xlink:href="interface_system_1_1_collections_1_1_generic_1_1_i_comparer.html" target="_top" xlink:title=" ">
<polygon fill="none" stroke="black" points="301.5,-196.5 301.5,-226.5 442.5,-226.5 442.5,-196.5 301.5,-196.5"/>
<text text-anchor="start" x="309.5" y="-214.5" font-family="Helvetica,sans-Serif" font-size="10.00">System.Collections.Generic.</text>
<text text-anchor="middle" x="372" y="-203.5" font-family="Helvetica,sans-Serif" font-size="10.00">IComparer&lt; U &gt;</text>
</a>
</g>
</g>
<!-- Node0&#45;&gt;Node15 -->
<g id="edge10" class="edge"><title>Node0&#45;&gt;Node15</title>
<path fill="none" stroke="orange" stroke-dasharray="5,2" d="M104.536,-289.149C120.527,-279.984 140.28,-269.643 159,-262.5 205.156,-244.889 259.345,-231.98 301.383,-223.556"/>
<polygon fill="orange" stroke="orange" points="102.459,-286.309 95.5914,-294.376 105.991,-292.352 102.459,-286.309"/>
<text text-anchor="middle" x="214.5" y="-265.5" font-family="Helvetica,sans-Serif" font-size="10.00"> &lt; U &gt;</text>
</g>
<!-- Node16 -->
<g id="node11" class="node"><title>Node16</title>
<g id="a_node11"><a xlink:href="interface_system_1_1_collections_1_1_generic_1_1_i_comparer.html" target="_top" xlink:title=" ">
<polygon fill="none" stroke="black" points="301.5,-147.5 301.5,-177.5 442.5,-177.5 442.5,-147.5 301.5,-147.5"/>
<text text-anchor="start" x="309.5" y="-165.5" font-family="Helvetica,sans-Serif" font-size="10.00">System.Collections.Generic.</text>
<text text-anchor="middle" x="372" y="-154.5" font-family="Helvetica,sans-Serif" font-size="10.00">IComparer&lt; TimeZoneInfo &gt;</text>
</a>
</g>
</g>
<!-- Node0&#45;&gt;Node16 -->
<g id="edge11" class="edge"><title>Node0&#45;&gt;Node16</title>
<path fill="none" stroke="orange" stroke-dasharray="5,2" d="M87.351,-286.236C103.084,-264.93 129.122,-234.112 159,-216.5 202.517,-190.848 258.038,-177.275 301.345,-170.154"/>
<polygon fill="orange" stroke="orange" points="84.4474,-284.279 81.4516,-294.441 90.131,-288.365 84.4474,-284.279"/>
<text text-anchor="middle" x="214.5" y="-219.5" font-family="Helvetica,sans-Serif" font-size="10.00"> &lt; TimeZoneInfo &gt;</text>
</g>
<!-- Node17 -->
<g id="node12" class="node"><title>Node17</title>
<g id="a_node12"><a xlink:href="interface_system_1_1_collections_1_1_generic_1_1_i_comparer.html" target="_top" xlink:title=" ">
<polygon fill="none" stroke="black" points="301.5,-98.5 301.5,-128.5 442.5,-128.5 442.5,-98.5 301.5,-98.5"/>
<text text-anchor="start" x="309.5" y="-116.5" font-family="Helvetica,sans-Serif" font-size="10.00">System.Collections.Generic.</text>
<text text-anchor="middle" x="372" y="-105.5" font-family="Helvetica,sans-Serif" font-size="10.00">IComparer&lt; TKey &gt;</text>
</a>
</g>
</g>
<!-- Node0&#45;&gt;Node17 -->
<g id="edge12" class="edge"><title>Node0&#45;&gt;Node17</title>
<path fill="none" stroke="orange" stroke-dasharray="5,2" d="M79.2124,-284.647C90.8997,-251.268 116.37,-192.567 159,-161.5 200.172,-131.496 256.876,-119.788 301.281,-115.424"/>
<polygon fill="orange" stroke="orange" points="75.892,-283.54 76.0241,-294.134 82.5273,-285.77 75.892,-283.54"/>
<text text-anchor="middle" x="214.5" y="-164.5" font-family="Helvetica,sans-Serif" font-size="10.00"> &lt; TKey &gt;</text>
</g>
<!-- Node18 -->
<g id="node13" class="node"><title>Node18</title>
<g id="a_node13"><a xlink:href="interface_system_1_1_collections_1_1_generic_1_1_i_comparer.html" target="_top" xlink:title=" ">
<polygon fill="none" stroke="black" points="301.5,-49.5 301.5,-79.5 442.5,-79.5 442.5,-49.5 301.5,-49.5"/>
<text text-anchor="start" x="309.5" y="-67.5" font-family="Helvetica,sans-Serif" font-size="10.00">System.Collections.Generic.</text>
<text text-anchor="middle" x="372" y="-56.5" font-family="Helvetica,sans-Serif" font-size="10.00">IComparer&lt; TSortKey &gt;</text>
</a>
</g>
</g>
<!-- Node0&#45;&gt;Node18 -->
<g id="edge13" class="edge"><title>Node0&#45;&gt;Node18</title>
<path fill="none" stroke="orange" stroke-dasharray="5,2" d="M74.6913,-284.275C81.6259,-240.6 102.293,-151.199 159,-105.5 198.697,-73.5087 256.048,-63.9369 301.092,-61.9926"/>
<polygon fill="orange" stroke="orange" points="71.2035,-283.936 73.2106,-294.339 78.129,-284.955 71.2035,-283.936"/>
<text text-anchor="middle" x="214.5" y="-108.5" font-family="Helvetica,sans-Serif" font-size="10.00"> &lt; TSortKey &gt;</text>
</g>
<!-- Node19 -->
<g id="node14" class="node"><title>Node19</title>
<g id="a_node14"><a xlink:href="interface_system_1_1_collections_1_1_generic_1_1_i_comparer.html" target="_top" xlink:title=" ">
<polygon fill="none" stroke="black" points="301.5,-0.5 301.5,-30.5 442.5,-30.5 442.5,-0.5 301.5,-0.5"/>
<text text-anchor="start" x="309.5" y="-18.5" font-family="Helvetica,sans-Serif" font-size="10.00">System.Collections.Generic.</text>
<text text-anchor="middle" x="372" y="-7.5" font-family="Helvetica,sans-Serif" font-size="10.00">IComparer&lt; TRightKey &gt;</text>
</a>
</g>
</g>
<!-- Node0&#45;&gt;Node19 -->
<g id="edge14" class="edge"><title>Node0&#45;&gt;Node19</title>
<path fill="none" stroke="orange" stroke-dasharray="5,2" d="M71.9471,-284.208C74.3429,-231.766 87.7515,-111.038 159,-50.5 197.946,-17.4084 255.923,-9.71145 301.408,-9.70608"/>
<polygon fill="orange" stroke="orange" points="68.4454,-284.197 71.5862,-294.316 75.4409,-284.447 68.4454,-284.197"/>
<text text-anchor="middle" x="214.5" y="-53.5" font-family="Helvetica,sans-Serif" font-size="10.00"> &lt; TRightKey &gt;</text>
</g>
<!-- Node14&#45;&gt;Node1 -->
<g id="edge9" class="edge"><title>Node14&#45;&gt;Node1</title>
<path fill="none" stroke="midnightblue" d="M451.741,-281.137C453.21,-282.202 454.633,-283.322 456,-284.5 525.851,-344.655 552.501,-460.214 560.039,-501.434"/>
<polygon fill="midnightblue" stroke="midnightblue" points="453.215,-277.932 442.876,-275.617 449.515,-283.874 453.215,-277.932"/>
</g>
</g>
</svg>
