<?xml version="1.0" encoding="UTF-8" standalone="no"?>
<!DOCTYPE svg PUBLIC "-//W3C//DTD SVG 1.1//EN"
 "http://www.w3.org/Graphics/SVG/1.1/DTD/svg11.dtd">
<!-- Generated by graphviz version 2.38.0 (20140413.2041)
 -->
<!-- Title: System.Configuration.IConfigurationSectionHandler Pages: 1 -->
<svg width="373pt" height="284pt"
 viewBox="0.00 0.00 373.00 284.00" xmlns="http://www.w3.org/2000/svg" xmlns:xlink="http://www.w3.org/1999/xlink">
<g id="graph0" class="graph" transform="scale(1 1) rotate(0) translate(4 280)">
<title>System.Configuration.IConfigurationSectionHandler</title>
<!-- Node0 -->
<g id="node1" class="node"><title>Node0</title>
<g id="a_node1"><a xlink:title="Handles the access to certain configuration sections.">
<polygon fill="#bfbfbf" stroke="black" points="0,-122.5 0,-152.5 171,-152.5 171,-122.5 0,-122.5"/>
<text text-anchor="start" x="8" y="-140.5" font-family="Helvetica,sans-Serif" font-size="10.00">System.Configuration.IConfiguration</text>
<text text-anchor="middle" x="85.5" y="-129.5" font-family="Helvetica,sans-Serif" font-size="10.00">SectionHandler</text>
</a>
</g>
</g>
<!-- Node1 -->
<g id="node2" class="node"><title>Node1</title>
<g id="a_node2"><a xlink:href="class_system_1_1_configuration_1_1_dictionary_section_handler.html" target="_top" xlink:title="Provides key/value pair configuration information from a configuration section.">
<polygon fill="none" stroke="black" points="208,-245.5 208,-275.5 364,-275.5 364,-245.5 208,-245.5"/>
<text text-anchor="start" x="216" y="-263.5" font-family="Helvetica,sans-Serif" font-size="10.00">System.Configuration.Dictionary</text>
<text text-anchor="middle" x="286" y="-252.5" font-family="Helvetica,sans-Serif" font-size="10.00">SectionHandler</text>
</a>
</g>
</g>
<!-- Node0&#45;&gt;Node1 -->
<g id="edge1" class="edge"><title>Node0&#45;&gt;Node1</title>
<path fill="none" stroke="midnightblue" d="M108.179,-159.831C130.926,-182.103 168.646,-215.888 207,-236.5 213.24,-239.854 220.018,-242.813 226.886,-245.403"/>
<polygon fill="midnightblue" stroke="midnightblue" points="110.62,-157.322 101.06,-152.755 105.685,-162.287 110.62,-157.322"/>
</g>
<!-- Node2 -->
<g id="node3" class="node"><title>Node2</title>
<g id="a_node3"><a xlink:href="class_system_1_1_configuration_1_1_ignore_section_handler.html" target="_top" xlink:title="Provides a legacy section&#45;handler definition for configuration sections that are not handled by the N...">
<polygon fill="none" stroke="black" points="216.5,-196.5 216.5,-226.5 355.5,-226.5 355.5,-196.5 216.5,-196.5"/>
<text text-anchor="start" x="224.5" y="-214.5" font-family="Helvetica,sans-Serif" font-size="10.00">System.Configuration.Ignore</text>
<text text-anchor="middle" x="286" y="-203.5" font-family="Helvetica,sans-Serif" font-size="10.00">SectionHandler</text>
</a>
</g>
</g>
<!-- Node0&#45;&gt;Node2 -->
<g id="edge2" class="edge"><title>Node0&#45;&gt;Node2</title>
<path fill="none" stroke="midnightblue" d="M129.826,-156.646C152.594,-166.409 181.084,-178.16 207,-187.5 215.531,-190.574 224.671,-193.612 233.583,-196.438"/>
<polygon fill="midnightblue" stroke="midnightblue" points="131.011,-153.345 120.443,-152.596 128.237,-159.772 131.011,-153.345"/>
</g>
<!-- Node3 -->
<g id="node4" class="node"><title>Node3</title>
<g id="a_node4"><a xlink:href="class_system_1_1_configuration_1_1_name_value_file_section_handler.html" target="_top" xlink:title="Provides access to a configuration file. This type supports the .NET Framework configuration infrastr...">
<polygon fill="none" stroke="black" points="217,-147.5 217,-177.5 355,-177.5 355,-147.5 217,-147.5"/>
<text text-anchor="start" x="225" y="-165.5" font-family="Helvetica,sans-Serif" font-size="10.00">System.Configuration.Name</text>
<text text-anchor="middle" x="286" y="-154.5" font-family="Helvetica,sans-Serif" font-size="10.00">ValueFileSectionHandler</text>
</a>
</g>
</g>
<!-- Node0&#45;&gt;Node3 -->
<g id="edge3" class="edge"><title>Node0&#45;&gt;Node3</title>
<path fill="none" stroke="midnightblue" d="M181.267,-149.435C193.224,-150.941 205.269,-152.458 216.705,-153.899"/>
<polygon fill="midnightblue" stroke="midnightblue" points="181.617,-145.952 171.258,-148.175 180.742,-152.897 181.617,-145.952"/>
</g>
<!-- Node4 -->
<g id="node5" class="node"><title>Node4</title>
<g id="a_node5"><a xlink:href="class_system_1_1_configuration_1_1_name_value_section_handler.html" target="_top" xlink:title="Provides name/value&#45;pair configuration information from a configuration section.">
<polygon fill="none" stroke="black" points="217,-98.5 217,-128.5 355,-128.5 355,-98.5 217,-98.5"/>
<text text-anchor="start" x="225" y="-116.5" font-family="Helvetica,sans-Serif" font-size="10.00">System.Configuration.Name</text>
<text text-anchor="middle" x="286" y="-105.5" font-family="Helvetica,sans-Serif" font-size="10.00">ValueSectionHandler</text>
</a>
</g>
</g>
<!-- Node0&#45;&gt;Node4 -->
<g id="edge4" class="edge"><title>Node0&#45;&gt;Node4</title>
<path fill="none" stroke="midnightblue" d="M181.267,-126.042C193.224,-124.596 205.269,-123.14 216.705,-121.757"/>
<polygon fill="midnightblue" stroke="midnightblue" points="180.765,-122.577 171.258,-127.252 181.605,-129.527 180.765,-122.577"/>
</g>
<!-- Node5 -->
<g id="node6" class="node"><title>Node5</title>
<g id="a_node6"><a xlink:href="class_system_1_1_configuration_1_1_single_tag_section_handler.html" target="_top" xlink:title="Handles configuration sections that are represented by a single XML tag in the .config file.">
<polygon fill="none" stroke="black" points="216,-49.5 216,-79.5 356,-79.5 356,-49.5 216,-49.5"/>
<text text-anchor="start" x="224" y="-67.5" font-family="Helvetica,sans-Serif" font-size="10.00">System.Configuration.Single</text>
<text text-anchor="middle" x="286" y="-56.5" font-family="Helvetica,sans-Serif" font-size="10.00">TagSectionHandler</text>
</a>
</g>
</g>
<!-- Node0&#45;&gt;Node5 -->
<g id="edge5" class="edge"><title>Node0&#45;&gt;Node5</title>
<path fill="none" stroke="midnightblue" d="M131.673,-118.65C154.172,-109.481 181.871,-98.52 207,-89.5 216.369,-86.1371 226.446,-82.7441 236.144,-79.5888"/>
<polygon fill="midnightblue" stroke="midnightblue" points="130.299,-115.43 122.372,-122.459 132.952,-121.908 130.299,-115.43"/>
</g>
<!-- Node6 -->
<g id="node7" class="node"><title>Node6</title>
<g id="a_node7"><a xlink:href="class_system_1_1_diagnostics_1_1_diagnostics_configuration_handler.html" target="_top" xlink:title="Handles the diagnostics section of configuration files.">
<polygon fill="none" stroke="black" points="207,-0.5 207,-30.5 365,-30.5 365,-0.5 207,-0.5"/>
<text text-anchor="start" x="215" y="-18.5" font-family="Helvetica,sans-Serif" font-size="10.00">System.Diagnostics.Diagnostics</text>
<text text-anchor="middle" x="286" y="-7.5" font-family="Helvetica,sans-Serif" font-size="10.00">ConfigurationHandler</text>
</a>
</g>
</g>
<!-- Node0&#45;&gt;Node6 -->
<g id="edge6" class="edge"><title>Node0&#45;&gt;Node6</title>
<path fill="none" stroke="midnightblue" d="M108.999,-115.087C131.919,-93.3535 169.35,-60.7745 207,-40.5 214.011,-36.7244 221.688,-33.4043 229.403,-30.5212"/>
<polygon fill="midnightblue" stroke="midnightblue" points="106.299,-112.829 101.521,-122.285 111.153,-117.872 106.299,-112.829"/>
</g>
</g>
</svg>
