<?xml version="1.0" encoding="UTF-8" standalone="no"?>
<!DOCTYPE svg PUBLIC "-//W3C//DTD SVG 1.1//EN"
 "http://www.w3.org/Graphics/SVG/1.1/DTD/svg11.dtd">
<!-- Generated by graphviz version 2.38.0 (20140413.2041)
 -->
<!-- Title: System.ComponentModel.IBindingList Pages: 1 -->
<svg width="358pt" height="263pt"
 viewBox="0.00 0.00 357.50 263.00" xmlns="http://www.w3.org/2000/svg" xmlns:xlink="http://www.w3.org/1999/xlink">
<g id="graph0" class="graph" transform="scale(1 1) rotate(0) translate(4 259)">
<title>System.ComponentModel.IBindingList</title>
<!-- Node0 -->
<g id="node1" class="node"><title>Node0</title>
<g id="a_node1"><a xlink:title="Provides the features required to support both complex and simple scenarios when binding to a data so...">
<polygon fill="#bfbfbf" stroke="black" points="83,-67.5 83,-86.5 265,-86.5 265,-67.5 83,-67.5"/>
<text text-anchor="middle" x="174" y="-74.5" font-family="Helvetica,sans-Serif" font-size="10.00">System.ComponentModel.IBindingList</text>
</a>
</g>
</g>
<!-- Node4 -->
<g id="node5" class="node"><title>Node4</title>
<g id="a_node5"><a xlink:href="class_system_1_1_component_model_1_1_binding_list.html" target="_top" xlink:title="Provides a generic collection that supports data binding.">
<polygon fill="none" stroke="black" points="0,-0.5 0,-30.5 164,-30.5 164,-0.5 0,-0.5"/>
<text text-anchor="start" x="8" y="-18.5" font-family="Helvetica,sans-Serif" font-size="10.00">System.ComponentModel.Binding</text>
<text text-anchor="middle" x="82" y="-7.5" font-family="Helvetica,sans-Serif" font-size="10.00">List&lt; T &gt;</text>
</a>
</g>
</g>
<!-- Node0&#45;&gt;Node4 -->
<g id="edge7" class="edge"><title>Node0&#45;&gt;Node4</title>
<path fill="none" stroke="midnightblue" d="M152.366,-62.0084C137.692,-52.518 118.367,-40.02 103.683,-30.523"/>
<polygon fill="midnightblue" stroke="midnightblue" points="150.521,-64.9834 160.819,-67.4751 154.322,-59.1055 150.521,-64.9834"/>
</g>
<!-- Node5 -->
<g id="node6" class="node"><title>Node5</title>
<g id="a_node6"><a xlink:href="interface_system_1_1_component_model_1_1_i_binding_list_view.html" target="_top" xlink:title="Extends the T:System.ComponentModel.IBindingList interface by providing advanced sorting and filterin...">
<polygon fill="none" stroke="black" points="182.5,-0.5 182.5,-30.5 349.5,-30.5 349.5,-0.5 182.5,-0.5"/>
<text text-anchor="start" x="190.5" y="-18.5" font-family="Helvetica,sans-Serif" font-size="10.00">System.ComponentModel.IBinding</text>
<text text-anchor="middle" x="266" y="-7.5" font-family="Helvetica,sans-Serif" font-size="10.00">ListView</text>
</a>
</g>
</g>
<!-- Node0&#45;&gt;Node5 -->
<g id="edge8" class="edge"><title>Node0&#45;&gt;Node5</title>
<path fill="none" stroke="midnightblue" d="M195.634,-62.0084C210.308,-52.518 229.633,-40.02 244.317,-30.523"/>
<polygon fill="midnightblue" stroke="midnightblue" points="193.678,-59.1055 187.181,-67.4751 197.479,-64.9834 193.678,-59.1055"/>
</g>
<!-- Node1 -->
<g id="node2" class="node"><title>Node1</title>
<g id="a_node2"><a xlink:href="interface_system_1_1_collections_1_1_i_list.html" target="_top" xlink:title="Represents a non&#45;generic collection of objects that can be individually accessed by index.">
<polygon fill="none" stroke="black" points="156.5,-123.5 156.5,-142.5 191.5,-142.5 191.5,-123.5 156.5,-123.5"/>
<text text-anchor="middle" x="174" y="-130.5" font-family="Helvetica,sans-Serif" font-size="10.00">IList</text>
</a>
</g>
</g>
<!-- Node1&#45;&gt;Node0 -->
<g id="edge1" class="edge"><title>Node1&#45;&gt;Node0</title>
<path fill="none" stroke="midnightblue" d="M174,-112.805C174,-103.91 174,-93.7798 174,-86.7511"/>
<polygon fill="midnightblue" stroke="midnightblue" points="170.5,-113.083 174,-123.083 177.5,-113.083 170.5,-113.083"/>
</g>
<!-- Node2 -->
<g id="node3" class="node"><title>Node2</title>
<g id="a_node3"><a xlink:href="interface_system_1_1_collections_1_1_i_collection.html" target="_top" xlink:title="Defines size, enumerators, and synchronization methods for all nongeneric collections.">
<polygon fill="none" stroke="black" points="192,-179.5 192,-198.5 254,-198.5 254,-179.5 192,-179.5"/>
<text text-anchor="middle" x="223" y="-186.5" font-family="Helvetica,sans-Serif" font-size="10.00">ICollection</text>
</a>
</g>
</g>
<!-- Node2&#45;&gt;Node0 -->
<g id="edge5" class="edge"><title>Node2&#45;&gt;Node0</title>
<path fill="none" stroke="midnightblue" d="M217.491,-169.608C213.293,-156.393 207.048,-138.287 200,-123 193.956,-109.89 185.31,-95.5893 179.677,-86.7075"/>
<polygon fill="midnightblue" stroke="midnightblue" points="214.216,-170.865 220.508,-179.389 220.905,-168.801 214.216,-170.865"/>
</g>
<!-- Node2&#45;&gt;Node1 -->
<g id="edge2" class="edge"><title>Node2&#45;&gt;Node1</title>
<path fill="none" stroke="midnightblue" d="M207.966,-171.431C199.378,-161.967 188.957,-150.483 181.941,-142.751"/>
<polygon fill="midnightblue" stroke="midnightblue" points="205.597,-174.029 214.909,-179.083 210.781,-169.325 205.597,-174.029"/>
</g>
<!-- Node3 -->
<g id="node4" class="node"><title>Node3</title>
<g id="a_node4"><a xlink:href="interface_system_1_1_collections_1_1_i_enumerable.html" target="_top" xlink:title="Exposes an enumerator, which supports a simple iteration over a non&#45;generic collection....">
<polygon fill="none" stroke="black" points="128.5,-235.5 128.5,-254.5 199.5,-254.5 199.5,-235.5 128.5,-235.5"/>
<text text-anchor="middle" x="164" y="-242.5" font-family="Helvetica,sans-Serif" font-size="10.00">IEnumerable</text>
</a>
</g>
</g>
<!-- Node3&#45;&gt;Node0 -->
<g id="edge6" class="edge"><title>Node3&#45;&gt;Node0</title>
<path fill="none" stroke="midnightblue" d="M156.896,-225.784C148.582,-201.838 137.13,-158.634 147,-123 150.843,-109.127 160.227,-95.2372 166.849,-86.6357"/>
<polygon fill="midnightblue" stroke="midnightblue" points="153.671,-227.157 160.407,-235.335 160.241,-224.741 153.671,-227.157"/>
</g>
<!-- Node3&#45;&gt;Node1 -->
<g id="edge4" class="edge"><title>Node3&#45;&gt;Node1</title>
<path fill="none" stroke="midnightblue" d="M165.696,-225.348C167.886,-201.254 171.608,-160.308 173.219,-142.591"/>
<polygon fill="midnightblue" stroke="midnightblue" points="162.205,-225.093 164.785,-235.368 169.176,-225.726 162.205,-225.093"/>
</g>
<!-- Node3&#45;&gt;Node2 -->
<g id="edge3" class="edge"><title>Node3&#45;&gt;Node2</title>
<path fill="none" stroke="midnightblue" d="M180.895,-228.537C191.415,-218.909 204.569,-206.869 213.348,-198.834"/>
<polygon fill="midnightblue" stroke="midnightblue" points="178.493,-225.99 173.479,-235.324 183.219,-231.154 178.493,-225.99"/>
</g>
</g>
</svg>
