<?xml version="1.0" encoding="UTF-8" standalone="no"?>
<!DOCTYPE svg PUBLIC "-//W3C//DTD SVG 1.1//EN"
 "http://www.w3.org/Graphics/SVG/1.1/DTD/svg11.dtd">
<!-- Generated by graphviz version 2.38.0 (20140413.2041)
 -->
<!-- Title: System.Security.Policy.IMembershipCondition Pages: 1 -->
<svg width="556pt" height="431pt"
 viewBox="0.00 0.00 556.00 431.00" xmlns="http://www.w3.org/2000/svg" xmlns:xlink="http://www.w3.org/1999/xlink">
<g id="graph0" class="graph" transform="scale(1 1) rotate(0) translate(4 427)">
<title>System.Security.Policy.IMembershipCondition</title>
<!-- Node0 -->
<g id="node1" class="node"><title>Node0</title>
<g id="a_node1"><a xlink:title="Defines the test to determine whether a code assembly is a member of a code group.">
<polygon fill="#bfbfbf" stroke="black" points="164,-196.5 164,-226.5 342,-226.5 342,-196.5 164,-196.5"/>
<text text-anchor="start" x="172" y="-214.5" font-family="Helvetica,sans-Serif" font-size="10.00">System.Security.Policy.IMembership</text>
<text text-anchor="middle" x="253" y="-203.5" font-family="Helvetica,sans-Serif" font-size="10.00">Condition</text>
</a>
</g>
</g>
<!-- Node3 -->
<g id="node4" class="node"><title>Node3</title>
<g id="a_node4"><a xlink:href="class_system_1_1_security_1_1_policy_1_1_all_membership_condition.html" target="_top" xlink:title="Represents a membership condition that matches all code. This class cannot be inherited.">
<polygon fill="none" stroke="black" points="396,-392.5 396,-422.5 530,-422.5 530,-392.5 396,-392.5"/>
<text text-anchor="start" x="404" y="-410.5" font-family="Helvetica,sans-Serif" font-size="10.00">System.Security.Policy.All</text>
<text text-anchor="middle" x="463" y="-399.5" font-family="Helvetica,sans-Serif" font-size="10.00">MembershipCondition</text>
</a>
</g>
</g>
<!-- Node0&#45;&gt;Node3 -->
<g id="edge3" class="edge"><title>Node0&#45;&gt;Node3</title>
<path fill="none" stroke="midnightblue" d="M264.874,-235.674C282.937,-273.065 322.691,-344.659 378,-383.5 383.461,-387.335 389.527,-390.561 395.827,-393.274"/>
<polygon fill="midnightblue" stroke="midnightblue" points="267.987,-234.068 260.555,-226.517 261.655,-237.054 267.987,-234.068"/>
</g>
<!-- Node4 -->
<g id="node5" class="node"><title>Node4</title>
<g id="a_node5"><a xlink:href="class_system_1_1_security_1_1_policy_1_1_application_directory_membership_condition.html" target="_top" xlink:title="Determines whether an assembly belongs to a code group by testing its application directory....">
<polygon fill="none" stroke="black" points="378,-343.5 378,-373.5 548,-373.5 548,-343.5 378,-343.5"/>
<text text-anchor="start" x="386" y="-361.5" font-family="Helvetica,sans-Serif" font-size="10.00">System.Security.Policy.Application</text>
<text text-anchor="middle" x="463" y="-350.5" font-family="Helvetica,sans-Serif" font-size="10.00">DirectoryMembershipCondition</text>
</a>
</g>
</g>
<!-- Node0&#45;&gt;Node4 -->
<g id="edge4" class="edge"><title>Node0&#45;&gt;Node4</title>
<path fill="none" stroke="midnightblue" d="M271.375,-234.813C293.256,-262.555 333.421,-308.391 378,-334.5 383.889,-337.949 390.304,-340.928 396.877,-343.494"/>
<polygon fill="midnightblue" stroke="midnightblue" points="274.079,-232.588 265.187,-226.827 268.545,-236.875 274.079,-232.588"/>
</g>
<!-- Node5 -->
<g id="node6" class="node"><title>Node5</title>
<g id="a_node6"><a xlink:href="class_system_1_1_security_1_1_policy_1_1_gac_membership_condition.html" target="_top" xlink:title="Determines whether an assembly belongs to a code group by testing its global assembly cache membershi...">
<polygon fill="none" stroke="black" points="393,-294.5 393,-324.5 533,-324.5 533,-294.5 393,-294.5"/>
<text text-anchor="start" x="401" y="-312.5" font-family="Helvetica,sans-Serif" font-size="10.00">System.Security.Policy.Gac</text>
<text text-anchor="middle" x="463" y="-301.5" font-family="Helvetica,sans-Serif" font-size="10.00">MembershipCondition</text>
</a>
</g>
</g>
<!-- Node0&#45;&gt;Node5 -->
<g id="edge5" class="edge"><title>Node0&#45;&gt;Node5</title>
<path fill="none" stroke="midnightblue" d="M283.924,-232.382C308.332,-248.658 344.186,-270.877 378,-285.5 385.656,-288.811 393.9,-291.807 402.126,-294.471"/>
<polygon fill="midnightblue" stroke="midnightblue" points="285.721,-229.372 275.474,-226.68 281.805,-235.175 285.721,-229.372"/>
</g>
<!-- Node6 -->
<g id="node7" class="node"><title>Node6</title>
<g id="a_node7"><a xlink:href="class_system_1_1_security_1_1_policy_1_1_hash_membership_condition.html" target="_top" xlink:title="Determines whether an assembly belongs to a code group by testing its hash value. This class cannot b...">
<polygon fill="none" stroke="black" points="390.5,-245.5 390.5,-275.5 535.5,-275.5 535.5,-245.5 390.5,-245.5"/>
<text text-anchor="start" x="398.5" y="-263.5" font-family="Helvetica,sans-Serif" font-size="10.00">System.Security.Policy.Hash</text>
<text text-anchor="middle" x="463" y="-252.5" font-family="Helvetica,sans-Serif" font-size="10.00">MembershipCondition</text>
</a>
</g>
</g>
<!-- Node0&#45;&gt;Node6 -->
<g id="edge6" class="edge"><title>Node0&#45;&gt;Node6</title>
<path fill="none" stroke="midnightblue" d="M327.568,-228.831C350.661,-234.271 375.95,-240.229 398.3,-245.494"/>
<polygon fill="midnightblue" stroke="midnightblue" points="328.357,-225.421 317.82,-226.535 326.751,-232.234 328.357,-225.421"/>
</g>
<!-- Node7 -->
<g id="node8" class="node"><title>Node7</title>
<g id="a_node8"><a xlink:href="class_system_1_1_security_1_1_policy_1_1_publisher_membership_condition.html" target="_top" xlink:title="Determines whether an assembly belongs to a code group by testing its software publisher&#39;s Authentico...">
<polygon fill="none" stroke="black" points="381.5,-196.5 381.5,-226.5 544.5,-226.5 544.5,-196.5 381.5,-196.5"/>
<text text-anchor="start" x="389.5" y="-214.5" font-family="Helvetica,sans-Serif" font-size="10.00">System.Security.Policy.Publisher</text>
<text text-anchor="middle" x="463" y="-203.5" font-family="Helvetica,sans-Serif" font-size="10.00">MembershipCondition</text>
</a>
</g>
</g>
<!-- Node0&#45;&gt;Node7 -->
<g id="edge7" class="edge"><title>Node0&#45;&gt;Node7</title>
<path fill="none" stroke="midnightblue" d="M352.283,-211.5C361.985,-211.5 371.753,-211.5 381.249,-211.5"/>
<polygon fill="midnightblue" stroke="midnightblue" points="352.211,-208 342.211,-211.5 352.211,-215 352.211,-208"/>
</g>
<!-- Node8 -->
<g id="node9" class="node"><title>Node8</title>
<g id="a_node9"><a xlink:href="class_system_1_1_security_1_1_policy_1_1_site_membership_condition.html" target="_top" xlink:title="Determines whether an assembly belongs to a code group by testing the site from which it originated....">
<polygon fill="none" stroke="black" points="393,-147.5 393,-177.5 533,-177.5 533,-147.5 393,-147.5"/>
<text text-anchor="start" x="401" y="-165.5" font-family="Helvetica,sans-Serif" font-size="10.00">System.Security.Policy.Site</text>
<text text-anchor="middle" x="463" y="-154.5" font-family="Helvetica,sans-Serif" font-size="10.00">MembershipCondition</text>
</a>
</g>
</g>
<!-- Node0&#45;&gt;Node8 -->
<g id="edge8" class="edge"><title>Node0&#45;&gt;Node8</title>
<path fill="none" stroke="midnightblue" d="M327.568,-194.169C350.661,-188.729 375.95,-182.771 398.3,-177.506"/>
<polygon fill="midnightblue" stroke="midnightblue" points="326.751,-190.766 317.82,-196.465 328.357,-197.579 326.751,-190.766"/>
</g>
<!-- Node9 -->
<g id="node10" class="node"><title>Node9</title>
<g id="a_node10"><a xlink:href="class_system_1_1_security_1_1_policy_1_1_strong_name_membership_condition.html" target="_top" xlink:title="Determines whether an assembly belongs to a code group by testing its strong name....">
<polygon fill="none" stroke="black" points="387.5,-98.5 387.5,-128.5 538.5,-128.5 538.5,-98.5 387.5,-98.5"/>
<text text-anchor="start" x="395.5" y="-116.5" font-family="Helvetica,sans-Serif" font-size="10.00">System.Security.Policy.Strong</text>
<text text-anchor="middle" x="463" y="-105.5" font-family="Helvetica,sans-Serif" font-size="10.00">NameMembershipCondition</text>
</a>
</g>
</g>
<!-- Node0&#45;&gt;Node9 -->
<g id="edge9" class="edge"><title>Node0&#45;&gt;Node9</title>
<path fill="none" stroke="midnightblue" d="M283.924,-190.618C308.332,-174.342 344.186,-152.123 378,-137.5 385.656,-134.189 393.9,-131.193 402.126,-128.529"/>
<polygon fill="midnightblue" stroke="midnightblue" points="281.805,-187.825 275.474,-196.32 285.721,-193.628 281.805,-187.825"/>
</g>
<!-- Node10 -->
<g id="node11" class="node"><title>Node10</title>
<g id="a_node11"><a xlink:href="class_system_1_1_security_1_1_policy_1_1_url_membership_condition.html" target="_top" xlink:title="Determines whether an assembly belongs to a code group by testing its URL. This class cannot be inher...">
<polygon fill="none" stroke="black" points="396,-49.5 396,-79.5 530,-79.5 530,-49.5 396,-49.5"/>
<text text-anchor="start" x="404" y="-67.5" font-family="Helvetica,sans-Serif" font-size="10.00">System.Security.Policy.Url</text>
<text text-anchor="middle" x="463" y="-56.5" font-family="Helvetica,sans-Serif" font-size="10.00">MembershipCondition</text>
</a>
</g>
</g>
<!-- Node0&#45;&gt;Node10 -->
<g id="edge10" class="edge"><title>Node0&#45;&gt;Node10</title>
<path fill="none" stroke="midnightblue" d="M271.375,-188.187C293.256,-160.445 333.421,-114.609 378,-88.5 383.889,-85.0507 390.304,-82.0725 396.877,-79.5063"/>
<polygon fill="midnightblue" stroke="midnightblue" points="268.545,-186.125 265.187,-196.173 274.079,-190.412 268.545,-186.125"/>
</g>
<!-- Node11 -->
<g id="node12" class="node"><title>Node11</title>
<g id="a_node12"><a xlink:href="class_system_1_1_security_1_1_policy_1_1_zone_membership_condition.html" target="_top" xlink:title="Determines whether an assembly belongs to a code group by testing its zone of origin....">
<polygon fill="none" stroke="black" points="391.5,-0.5 391.5,-30.5 534.5,-30.5 534.5,-0.5 391.5,-0.5"/>
<text text-anchor="start" x="399.5" y="-18.5" font-family="Helvetica,sans-Serif" font-size="10.00">System.Security.Policy.Zone</text>
<text text-anchor="middle" x="463" y="-7.5" font-family="Helvetica,sans-Serif" font-size="10.00">MembershipCondition</text>
</a>
</g>
</g>
<!-- Node0&#45;&gt;Node11 -->
<g id="edge11" class="edge"><title>Node0&#45;&gt;Node11</title>
<path fill="none" stroke="midnightblue" d="M264.874,-187.326C282.937,-149.935 322.691,-78.3405 378,-39.5 382.841,-36.1006 388.156,-33.18 393.689,-30.6711"/>
<polygon fill="midnightblue" stroke="midnightblue" points="261.655,-185.946 260.555,-196.483 267.987,-188.932 261.655,-185.946"/>
</g>
<!-- Node1 -->
<g id="node2" class="node"><title>Node1</title>
<g id="a_node2"><a xlink:href="interface_system_1_1_security_1_1_i_security_encodable.html" target="_top" xlink:title="Defines the methods that convert permission object state to and from XML element representation.">
<polygon fill="none" stroke="black" points="13.5,-221 13.5,-240 114.5,-240 114.5,-221 13.5,-221"/>
<text text-anchor="middle" x="64" y="-228" font-family="Helvetica,sans-Serif" font-size="10.00">ISecurityEncodable</text>
</a>
</g>
</g>
<!-- Node1&#45;&gt;Node0 -->
<g id="edge1" class="edge"><title>Node1&#45;&gt;Node0</title>
<path fill="none" stroke="midnightblue" d="M124.825,-224.422C137.256,-223.159 150.603,-221.802 163.809,-220.461"/>
<polygon fill="midnightblue" stroke="midnightblue" points="124.217,-220.965 114.622,-225.458 124.924,-227.929 124.217,-220.965"/>
</g>
<!-- Node2 -->
<g id="node3" class="node"><title>Node2</title>
<g id="a_node3"><a xlink:href="interface_system_1_1_security_1_1_i_security_policy_encodable.html" target="_top" xlink:title="Supports the methods that convert permission object state to and from an XML element representation.">
<polygon fill="none" stroke="black" points="0,-183 0,-202 128,-202 128,-183 0,-183"/>
<text text-anchor="middle" x="64" y="-190" font-family="Helvetica,sans-Serif" font-size="10.00">ISecurityPolicyEncodable</text>
</a>
</g>
</g>
<!-- Node2&#45;&gt;Node0 -->
<g id="edge2" class="edge"><title>Node2&#45;&gt;Node0</title>
<path fill="none" stroke="midnightblue" d="M138.226,-199.94C146.681,-200.799 155.367,-201.682 163.991,-202.558"/>
<polygon fill="midnightblue" stroke="midnightblue" points="138.352,-196.435 128.049,-198.906 137.644,-203.399 138.352,-196.435"/>
</g>
</g>
</svg>
