<?xml version="1.0" encoding="UTF-8" standalone="no"?>
<!DOCTYPE svg PUBLIC "-//W3C//DTD SVG 1.1//EN"
 "http://www.w3.org/Graphics/SVG/1.1/DTD/svg11.dtd">
<!-- Generated by graphviz version 2.38.0 (20140413.2041)
 -->
<!-- Title: System.Collections.IDictionary Pages: 1 -->
<!--zoomable 756 -->
<svg id="main" version="1.1" xmlns="http://www.w3.org/2000/svg" xmlns:xlink="http://www.w3.org/1999/xlink" xml:space="preserve" onload="init(evt)">
<style type="text/css"><![CDATA[
.edge:hover path { stroke: red; }
.edge:hover polygon { stroke: red; fill: red; }
]]></style>
<script type="text/javascript"><![CDATA[
var edges = document.getElementsByTagName('g');
if (edges && edges.length) {
  for (var i=0;i<edges.length;i++) {
    if (edges[i].id.substr(0,4)=='edge') {
      edges[i].setAttribute('class','edge');
    }
  }
}
]]></script>
        <defs>
                <circle id="rim" cx="0" cy="0" r="7"/>
                <circle id="rim2" cx="0" cy="0" r="3.5"/>
                <g id="zoomPlus">
                        <use xlink:href="#rim" fill="#404040">
                                <set attributeName="fill" to="#808080" begin="zoomplus.mouseover" end="zoomplus.mouseout"/>
                        </use>
                        <path d="M-4,0h8M0,-4v8" fill="none" stroke="white" stroke-width="1.5" pointer-events="none"/>
                </g>
                <g id="zoomMin">
                        <use xlink:href="#rim" fill="#404040">
                                <set attributeName="fill" to="#808080" begin="zoomminus.mouseover" end="zoomminus.mouseout"/>
                        </use>
                        <path d="M-4,0h8" fill="none" stroke="white" stroke-width="1.5" pointer-events="none"/>
                </g>
                <g id="dirArrow">
                        <path fill="none" stroke="white" stroke-width="1.5" d="M0,-3.0v7 M-2.5,-0.5L0,-3.0L2.5,-0.5"/>
                </g>
               <g id="resetDef">
                       <use xlink:href="#rim2" fill="#404040">
                               <set attributeName="fill" to="#808080" begin="reset.mouseover" end="reset.mouseout"/>
                       </use>
               </g>
        </defs>

<script type="text/javascript">
var viewWidth = 1236;
var viewHeight = 756;
var sectionId = 'dynsection-0';
</script>
<script xlink:href="svgpan.js"/>
<svg id="graph" class="graph">
<g id="viewport">
<title>System.Collections.IDictionary</title>
<!-- Node0 -->
<g id="node1" class="node"><title>Node0</title>
<g id="a_node1"><a xlink:title="Represents a nongeneric collection of key/value pairs.">
<polygon fill="#bfbfbf" stroke="black" points="207,-394 207,-413 357,-413 357,-394 207,-394"/>
<text text-anchor="middle" x="282" y="-401" font-family="Helvetica,sans-Serif" font-size="10.00">System.Collections.IDictionary</text>
</a>
</g>
</g>
<!-- Node3 -->
<g id="node4" class="node"><title>Node3</title>
<g id="a_node4"><a xlink:href="class_system_1_1_collections_1_1_concurrent_1_1_concurrent_dictionary.html" target="_top" xlink:title="Represents a thread&#45;safe collection of key/value pairs that can be accessed by multiple threads concu...">
<polygon fill="none" stroke="black" points="693.5,-597 693.5,-638 848.5,-638 848.5,-597 693.5,-597"/>
<text text-anchor="start" x="701.5" y="-626" font-family="Helvetica,sans-Serif" font-size="10.00">System.Collections.Concurrent.</text>
<text text-anchor="start" x="701.5" y="-615" font-family="Helvetica,sans-Serif" font-size="10.00">ConcurrentDictionary&lt; TKey,</text>
<text text-anchor="middle" x="771" y="-604" font-family="Helvetica,sans-Serif" font-size="10.00"> TValue &gt;</text>
</a>
</g>
</g>
<!-- Node0&#45;&gt;Node3 -->
<g id="edge4" class="edge"><title>Node0&#45;&gt;Node3</title>
<path fill="none" stroke="midnightblue" d="M285.364,-423.521C291.521,-465.813 312.207,-564.079 375,-609.5 470.172,-678.343 614.772,-658.662 700.082,-638.085"/>
<polygon fill="midnightblue" stroke="midnightblue" points="288.804,-422.836 284.016,-413.384 281.865,-423.759 288.804,-422.836"/>
</g>
<!-- Node9 -->
<g id="node10" class="node"><title>Node9</title>
<g id="a_node10"><a xlink:href="class_system_1_1_collections_1_1_dictionary_base.html" target="_top" xlink:title="Provides the abstract base class for a strongly typed collection of key/value pairs.">
<polygon fill="none" stroke="black" points="473,-504 473,-523 643,-523 643,-504 473,-504"/>
<text text-anchor="middle" x="558" y="-511" font-family="Helvetica,sans-Serif" font-size="10.00">System.Collections.DictionaryBase</text>
</a>
</g>
</g>
<!-- Node0&#45;&gt;Node9 -->
<g id="edge10" class="edge"><title>Node0&#45;&gt;Node9</title>
<path fill="none" stroke="midnightblue" d="M308.464,-418.148C344.133,-438.056 411.516,-473.466 473,-493.5 485.115,-497.448 498.446,-500.979 510.849,-503.935"/>
<polygon fill="midnightblue" stroke="midnightblue" points="310.118,-415.063 299.688,-413.204 306.683,-421.162 310.118,-415.063"/>
</g>
<!-- Node10 -->
<g id="node11" class="node"><title>Node10</title>
<g id="a_node11"><a xlink:href="class_system_1_1_collections_1_1_empty_read_only_dictionary_internal.html" target="_top" xlink:title=" ">
<polygon fill="none" stroke="black" points="491,-454.5 491,-484.5 625,-484.5 625,-454.5 491,-454.5"/>
<text text-anchor="start" x="499" y="-472.5" font-family="Helvetica,sans-Serif" font-size="10.00">System.Collections.Empty</text>
<text text-anchor="middle" x="558" y="-461.5" font-family="Helvetica,sans-Serif" font-size="10.00">ReadOnlyDictionaryInternal</text>
</a>
</g>
</g>
<!-- Node0&#45;&gt;Node10 -->
<g id="edge11" class="edge"><title>Node0&#45;&gt;Node10</title>
<path fill="none" stroke="midnightblue" d="M326.683,-415.79C341.933,-419.969 359.188,-424.573 375,-428.5 413.192,-437.986 456.128,-447.703 490.702,-455.295"/>
<polygon fill="midnightblue" stroke="midnightblue" points="327.557,-412.401 316.986,-413.117 325.696,-419.149 327.557,-412.401"/>
</g>
<!-- Node11 -->
<g id="node12" class="node"><title>Node11</title>
<g id="a_node12"><a xlink:href="class_system_1_1_collections_1_1_hashtable.html" target="_top" xlink:title="Represents a collection of key/value pairs that are organized based on the hash code of the key....">
<polygon fill="none" stroke="black" points="484,-416 484,-435 632,-435 632,-416 484,-416"/>
<text text-anchor="middle" x="558" y="-423" font-family="Helvetica,sans-Serif" font-size="10.00">System.Collections.Hashtable</text>
</a>
</g>
</g>
<!-- Node0&#45;&gt;Node11 -->
<g id="edge12" class="edge"><title>Node0&#45;&gt;Node11</title>
<path fill="none" stroke="midnightblue" d="M367.466,-410.282C404.658,-413.268 447.937,-416.743 483.742,-419.618"/>
<polygon fill="midnightblue" stroke="midnightblue" points="367.396,-406.765 357.148,-409.454 366.836,-413.743 367.396,-406.765"/>
</g>
<!-- Node13 -->
<g id="node14" class="node"><title>Node13</title>
<g id="a_node14"><a xlink:href="class_system_1_1_collections_1_1_list_dictionary_internal.html" target="_top" xlink:title=" ">
<polygon fill="none" stroke="black" points="476,-366.5 476,-396.5 640,-396.5 640,-366.5 476,-366.5"/>
<text text-anchor="start" x="484" y="-384.5" font-family="Helvetica,sans-Serif" font-size="10.00">System.Collections.ListDictionary</text>
<text text-anchor="middle" x="558" y="-373.5" font-family="Helvetica,sans-Serif" font-size="10.00">Internal</text>
</a>
</g>
</g>
<!-- Node0&#45;&gt;Node13 -->
<g id="edge14" class="edge"><title>Node0&#45;&gt;Node13</title>
<path fill="none" stroke="midnightblue" d="M367.191,-396.74C401.657,-393.973 441.389,-390.783 475.566,-388.038"/>
<polygon fill="midnightblue" stroke="midnightblue" points="366.836,-393.257 357.148,-397.546 367.396,-400.235 366.836,-393.257"/>
</g>
<!-- Node14 -->
<g id="node15" class="node"><title>Node14</title>
<g id="a_node15"><a xlink:href="class_system_1_1_collections_1_1_object_model_1_1_read_only_dictionary.html" target="_top" xlink:title="Represents a read&#45;only, generic collection of key/value pairs.">
<polygon fill="none" stroke="black" points="704.5,-535 704.5,-576 837.5,-576 837.5,-535 704.5,-535"/>
<text text-anchor="start" x="712.5" y="-564" font-family="Helvetica,sans-Serif" font-size="10.00">System.Collections.Object</text>
<text text-anchor="start" x="712.5" y="-553" font-family="Helvetica,sans-Serif" font-size="10.00">Model.ReadOnlyDictionary</text>
<text text-anchor="middle" x="771" y="-542" font-family="Helvetica,sans-Serif" font-size="10.00">&lt; TKey, TValue &gt;</text>
</a>
</g>
</g>
<!-- Node0&#45;&gt;Node14 -->
<g id="edge15" class="edge"><title>Node0&#45;&gt;Node14</title>
<path fill="none" stroke="midnightblue" d="M299.452,-420.447C317.043,-437.95 346.299,-465.338 375,-484.5 415.336,-511.43 426.211,-519.733 473,-532.5 550.584,-553.669 643.497,-557.607 704.491,-557.437"/>
<polygon fill="midnightblue" stroke="midnightblue" points="301.76,-417.804 292.235,-413.165 296.789,-422.732 301.76,-417.804"/>
</g>
<!-- Node15 -->
<g id="node16" class="node"><title>Node15</title>
<g id="a_node16"><a xlink:href="class_system_1_1_collections_1_1_sorted_list.html" target="_top" xlink:title="Represents a collection of key/value pairs that are sorted by the keys and are accessible by key and ...">
<polygon fill="none" stroke="black" points="483.5,-328 483.5,-347 632.5,-347 632.5,-328 483.5,-328"/>
<text text-anchor="middle" x="558" y="-335" font-family="Helvetica,sans-Serif" font-size="10.00">System.Collections.SortedList</text>
</a>
</g>
</g>
<!-- Node0&#45;&gt;Node15 -->
<g id="edge16" class="edge"><title>Node0&#45;&gt;Node15</title>
<path fill="none" stroke="midnightblue" d="M330.665,-391.428C369.054,-381.774 424.434,-367.998 473,-356.5 486.386,-353.331 500.999,-349.986 514.229,-347"/>
<polygon fill="midnightblue" stroke="midnightblue" points="329.64,-388.077 320.797,-393.913 331.349,-394.865 329.64,-388.077"/>
</g>
<!-- Node16 -->
<g id="node17" class="node"><title>Node16</title>
<g id="a_node17"><a xlink:href="class_system_1_1_runtime_1_1_remoting_1_1_channels_1_1_aggregate_dictionary.html" target="_top" xlink:title=" ">
<polygon fill="none" stroke="black" points="484,-278.5 484,-308.5 632,-308.5 632,-278.5 484,-278.5"/>
<text text-anchor="start" x="492" y="-296.5" font-family="Helvetica,sans-Serif" font-size="10.00">System.Runtime.Remoting.</text>
<text text-anchor="middle" x="558" y="-285.5" font-family="Helvetica,sans-Serif" font-size="10.00">Channels.AggregateDictionary</text>
</a>
</g>
</g>
<!-- Node0&#45;&gt;Node16 -->
<g id="edge17" class="edge"><title>Node0&#45;&gt;Node16</title>
<path fill="none" stroke="midnightblue" d="M309.983,-389.251C328.166,-379.837 352.796,-367.448 375,-357.5 417.781,-338.334 428.713,-333.868 473,-318.5 482.918,-315.058 493.593,-311.656 503.895,-308.521"/>
<polygon fill="midnightblue" stroke="midnightblue" points="308.361,-386.149 301.109,-393.874 311.595,-392.357 308.361,-386.149"/>
</g>
<!-- Node17 -->
<g id="node18" class="node"><title>Node17</title>
<g id="a_node18"><a xlink:href="class_system_1_1_runtime_1_1_remoting_1_1_channels_1_1_base_channel_object_with_properties.html" target="_top" xlink:title="Provides a base implementation of a channel object that exposes a dictionary interface to its propert...">
<polygon fill="none" stroke="black" points="474.5,-218 474.5,-259 641.5,-259 641.5,-218 474.5,-218"/>
<text text-anchor="start" x="482.5" y="-247" font-family="Helvetica,sans-Serif" font-size="10.00">System.Runtime.Remoting.</text>
<text text-anchor="start" x="482.5" y="-236" font-family="Helvetica,sans-Serif" font-size="10.00">Channels.BaseChannelObjectWith</text>
<text text-anchor="middle" x="558" y="-225" font-family="Helvetica,sans-Serif" font-size="10.00">Properties</text>
</a>
</g>
</g>
<!-- Node0&#45;&gt;Node17 -->
<g id="edge18" class="edge"><title>Node0&#45;&gt;Node17</title>
<path fill="none" stroke="midnightblue" d="M299.573,-386.558C317.263,-369.014 346.599,-341.43 375,-321.5 415.533,-293.057 427.774,-288.664 473,-268.5 480.355,-265.221 488.187,-262.036 496,-259.043"/>
<polygon fill="midnightblue" stroke="midnightblue" points="296.888,-384.294 292.31,-393.849 301.847,-389.234 296.888,-384.294"/>
</g>
<!-- Node20 -->
<g id="node21" class="node"><title>Node20</title>
<g id="a_node21"><a xlink:href="class_system_1_1_runtime_1_1_remoting_1_1_messaging_1_1_message_dictionary.html" target="_top" xlink:title=" ">
<polygon fill="none" stroke="black" points="483,-147.5 483,-177.5 633,-177.5 633,-147.5 483,-147.5"/>
<text text-anchor="start" x="491" y="-165.5" font-family="Helvetica,sans-Serif" font-size="10.00">System.Runtime.Remoting.</text>
<text text-anchor="middle" x="558" y="-154.5" font-family="Helvetica,sans-Serif" font-size="10.00">Messaging.MessageDictionary</text>
</a>
</g>
</g>
<!-- Node0&#45;&gt;Node20 -->
<g id="edge21" class="edge"><title>Node0&#45;&gt;Node20</title>
<path fill="none" stroke="midnightblue" d="M293.09,-385.052C308.34,-358.295 339.299,-308.138 375,-273.5 412.511,-237.106 428.261,-235.521 473,-208.5 490.933,-197.669 511.562,-186.357 527.889,-177.66"/>
<polygon fill="midnightblue" stroke="midnightblue" points="290.035,-383.344 288.203,-393.779 296.143,-386.764 290.035,-383.344"/>
</g>
<!-- Node25 -->
<g id="node26" class="node"><title>Node25</title>
<g id="a_node26"><a xlink:href="interface_system_1_1_collections_1_1_i_dictionary.html" target="_top" xlink:title=" ">
<polygon fill="none" stroke="black" points="483,-580.5 483,-610.5 633,-610.5 633,-580.5 483,-580.5"/>
<text text-anchor="start" x="491" y="-598.5" font-family="Helvetica,sans-Serif" font-size="10.00">System.Collections.IDictionary</text>
<text text-anchor="middle" x="558" y="-587.5" font-family="Helvetica,sans-Serif" font-size="10.00">&lt; TKey, TValue &gt;</text>
</a>
</g>
</g>
<!-- Node0&#45;&gt;Node25 -->
<g id="edge26" class="edge"><title>Node0&#45;&gt;Node25</title>
<path fill="none" stroke="orange" stroke-dasharray="5,2" d="M288.077,-423.026C298.22,-457.841 324.484,-530.281 375,-565.5 406.129,-587.203 447.436,-595.242 482.829,-597.616"/>
<polygon fill="orange" stroke="orange" points="291.381,-421.843 285.339,-413.139 284.635,-423.71 291.381,-421.843"/>
<text text-anchor="middle" x="415" y="-597.5" font-family="Helvetica,sans-Serif" font-size="10.00"> &lt; TKey, TValue &gt;</text>
</g>
<!-- Node26 -->
<g id="node27" class="node"><title>Node26</title>
<g id="a_node27"><a xlink:href="interface_system_1_1_collections_1_1_i_dictionary.html" target="_top" xlink:title=" ">
<polygon fill="none" stroke="black" points="483,-33.5 483,-63.5 633,-63.5 633,-33.5 483,-33.5"/>
<text text-anchor="start" x="491" y="-51.5" font-family="Helvetica,sans-Serif" font-size="10.00">System.Collections.IDictionary</text>
<text text-anchor="middle" x="558" y="-40.5" font-family="Helvetica,sans-Serif" font-size="10.00">&lt; string, object &gt;</text>
</a>
</g>
</g>
<!-- Node0&#45;&gt;Node26 -->
<g id="edge29" class="edge"><title>Node0&#45;&gt;Node26</title>
<path fill="none" stroke="orange" stroke-dasharray="5,2" d="M288.97,-384.006C301.02,-346.727 330.913,-263.857 375,-205.5 421.66,-143.736 496.26,-89.0475 533.81,-63.6101"/>
<polygon fill="orange" stroke="orange" points="285.6,-383.056 285.926,-393.646 292.275,-385.163 285.6,-383.056"/>
<text text-anchor="middle" x="415" y="-208.5" font-family="Helvetica,sans-Serif" font-size="10.00"> &lt; string, object &gt;</text>
</g>
<!-- Node1 -->
<g id="node2" class="node"><title>Node1</title>
<g id="a_node2"><a xlink:href="interface_system_1_1_collections_1_1_i_collection.html" target="_top" xlink:title="Defines size, enumerators, and synchronization methods for all nongeneric collections.">
<polygon fill="none" stroke="black" points="108,-417 108,-436 170,-436 170,-417 108,-417"/>
<text text-anchor="middle" x="139" y="-424" font-family="Helvetica,sans-Serif" font-size="10.00">ICollection</text>
</a>
</g>
</g>
<!-- Node1&#45;&gt;Node0 -->
<g id="edge1" class="edge"><title>Node1&#45;&gt;Node0</title>
<path fill="none" stroke="midnightblue" d="M180.387,-419.912C193.549,-417.765 208.434,-415.337 222.641,-413.02"/>
<polygon fill="midnightblue" stroke="midnightblue" points="179.554,-416.502 170.248,-421.566 180.681,-423.41 179.554,-416.502"/>
</g>
<!-- Node2 -->
<g id="node3" class="node"><title>Node2</title>
<g id="a_node3"><a xlink:href="interface_system_1_1_collections_1_1_i_enumerable.html" target="_top" xlink:title="Exposes an enumerator, which supports a simple iteration over a non&#45;generic collection....">
<polygon fill="none" stroke="black" points="0,-394 0,-413 71,-413 71,-394 0,-394"/>
<text text-anchor="middle" x="35.5" y="-401" font-family="Helvetica,sans-Serif" font-size="10.00">IEnumerable</text>
</a>
</g>
</g>
<!-- Node2&#45;&gt;Node0 -->
<g id="edge3" class="edge"><title>Node2&#45;&gt;Node0</title>
<path fill="none" stroke="midnightblue" d="M81.4109,-403.5C116.491,-403.5 165.987,-403.5 206.912,-403.5"/>
<polygon fill="midnightblue" stroke="midnightblue" points="81.0123,-400 71.0123,-403.5 81.0123,-407 81.0123,-400"/>
</g>
<!-- Node2&#45;&gt;Node1 -->
<g id="edge2" class="edge"><title>Node2&#45;&gt;Node1</title>
<path fill="none" stroke="midnightblue" d="M81.181,-413.625C90.2219,-415.673 99.5235,-417.781 107.916,-419.683"/>
<polygon fill="midnightblue" stroke="midnightblue" points="81.6729,-410.148 71.1467,-411.351 80.1259,-416.974 81.6729,-410.148"/>
</g>
<!-- Node4 -->
<g id="node5" class="node"><title>Node4</title>
<g id="a_node5"><a xlink:href="class_system_1_1_collections_1_1_concurrent_1_1_concurrent_dictionary.html" target="_top" xlink:title=" ">
<polygon fill="none" stroke="black" points="1026.5,-717.5 1026.5,-747.5 1225.5,-747.5 1225.5,-717.5 1026.5,-717.5"/>
<text text-anchor="start" x="1034.5" y="-735.5" font-family="Helvetica,sans-Serif" font-size="10.00">System.Collections.Concurrent.</text>
<text text-anchor="middle" x="1126" y="-724.5" font-family="Helvetica,sans-Serif" font-size="10.00">ConcurrentDictionary&lt; System.Guid, int &gt;</text>
</a>
</g>
</g>
<!-- Node3&#45;&gt;Node4 -->
<g id="edge5" class="edge"><title>Node3&#45;&gt;Node4</title>
<path fill="none" stroke="orange" stroke-dasharray="5,2" d="M802.321,-644.559C822.825,-661.341 851.305,-681.854 880,-693.5 926.095,-712.207 980.467,-721.973 1026.27,-727.057"/>
<polygon fill="orange" stroke="orange" points="804.513,-641.829 794.596,-638.102 800.024,-647.201 804.513,-641.829"/>
<text text-anchor="middle" x="943" y="-727.5" font-family="Helvetica,sans-Serif" font-size="10.00"> &lt; System::Guid, int &gt;</text>
</g>
<!-- Node5 -->
<g id="node6" class="node"><title>Node5</title>
<g id="a_node6"><a xlink:href="class_system_1_1_collections_1_1_concurrent_1_1_concurrent_dictionary.html" target="_top" xlink:title=" ">
<polygon fill="none" stroke="black" points="1036,-657 1036,-698 1216,-698 1216,-657 1036,-657"/>
<text text-anchor="start" x="1044" y="-686" font-family="Helvetica,sans-Serif" font-size="10.00">System.Collections.Concurrent.</text>
<text text-anchor="start" x="1044" y="-675" font-family="Helvetica,sans-Serif" font-size="10.00">ConcurrentDictionary&lt; System.Guid,</text>
<text text-anchor="middle" x="1126" y="-664" font-family="Helvetica,sans-Serif" font-size="10.00"> System.Tuple&lt; System.Guid, int &gt; &gt;</text>
</a>
</g>
</g>
<!-- Node3&#45;&gt;Node5 -->
<g id="edge6" class="edge"><title>Node3&#45;&gt;Node5</title>
<path fill="none" stroke="orange" stroke-dasharray="5,2" d="M858.465,-632.197C912.309,-641.349 981.421,-653.096 1035.78,-662.334"/>
<polygon fill="orange" stroke="orange" points="859.041,-628.744 848.596,-630.519 857.868,-635.645 859.041,-628.744"/>
<text text-anchor="start" x="887" y="-681.5" font-family="Helvetica,sans-Serif" font-size="10.00"> &lt; System::Guid, System</text>
<text text-anchor="start" x="887" y="-670.5" font-family="Helvetica,sans-Serif" font-size="10.00">::Tuple&lt; System::Guid,</text>
<text text-anchor="middle" x="943" y="-659.5" font-family="Helvetica,sans-Serif" font-size="10.00"> int &gt; &gt;</text>
</g>
<!-- Node6 -->
<g id="node7" class="node"><title>Node6</title>
<g id="a_node7"><a xlink:href="class_system_1_1_collections_1_1_concurrent_1_1_concurrent_dictionary.html" target="_top" xlink:title=" ">
<polygon fill="none" stroke="black" points="1048.5,-597 1048.5,-638 1203.5,-638 1203.5,-597 1048.5,-597"/>
<text text-anchor="start" x="1056.5" y="-626" font-family="Helvetica,sans-Serif" font-size="10.00">System.Collections.Concurrent.</text>
<text text-anchor="start" x="1056.5" y="-615" font-family="Helvetica,sans-Serif" font-size="10.00">ConcurrentDictionary&lt; int,</text>
<text text-anchor="middle" x="1126" y="-604" font-family="Helvetica,sans-Serif" font-size="10.00"> ProcessingMode &gt;</text>
</a>
</g>
</g>
<!-- Node3&#45;&gt;Node6 -->
<g id="edge7" class="edge"><title>Node3&#45;&gt;Node6</title>
<path fill="none" stroke="orange" stroke-dasharray="5,2" d="M858.846,-617.5C916.854,-617.5 992.452,-617.5 1048.25,-617.5"/>
<polygon fill="orange" stroke="orange" points="858.596,-614 848.596,-617.5 858.596,-621 858.596,-614"/>
<text text-anchor="middle" x="943" y="-620.5" font-family="Helvetica,sans-Serif" font-size="10.00"> &lt; int, ProcessingMode &gt;</text>
</g>
<!-- Node7 -->
<g id="node8" class="node"><title>Node7</title>
<g id="a_node8"><a xlink:href="class_system_1_1_collections_1_1_concurrent_1_1_concurrent_dictionary.html" target="_top" xlink:title=" ">
<polygon fill="none" stroke="black" points="1048.5,-537 1048.5,-578 1203.5,-578 1203.5,-537 1048.5,-537"/>
<text text-anchor="start" x="1056.5" y="-566" font-family="Helvetica,sans-Serif" font-size="10.00">System.Collections.Concurrent.</text>
<text text-anchor="start" x="1056.5" y="-555" font-family="Helvetica,sans-Serif" font-size="10.00">ConcurrentDictionary&lt; string,</text>
<text text-anchor="middle" x="1126" y="-544" font-family="Helvetica,sans-Serif" font-size="10.00"> object &gt;</text>
</a>
</g>
</g>
<!-- Node3&#45;&gt;Node7 -->
<g id="edge8" class="edge"><title>Node3&#45;&gt;Node7</title>
<path fill="none" stroke="orange" stroke-dasharray="5,2" d="M858.486,-602.8C916.541,-592.932 992.337,-580.049 1048.25,-570.545"/>
<polygon fill="orange" stroke="orange" points="857.868,-599.355 848.596,-604.481 859.041,-606.256 857.868,-599.355"/>
<text text-anchor="middle" x="943" y="-601.5" font-family="Helvetica,sans-Serif" font-size="10.00"> &lt; string, object &gt;</text>
</g>
<!-- Node8 -->
<g id="node9" class="node"><title>Node8</title>
<g id="a_node9"><a xlink:href="class_system_1_1_collections_1_1_concurrent_1_1_concurrent_dictionary.html" target="_top" xlink:title=" ">
<polygon fill="none" stroke="black" points="1024,-477 1024,-518 1228,-518 1228,-477 1024,-477"/>
<text text-anchor="start" x="1032" y="-506" font-family="Helvetica,sans-Serif" font-size="10.00">System.Collections.Concurrent.</text>
<text text-anchor="start" x="1032" y="-495" font-family="Helvetica,sans-Serif" font-size="10.00">ConcurrentDictionary&lt; System.Runtime.</text>
<text text-anchor="middle" x="1126" y="-484" font-family="Helvetica,sans-Serif" font-size="10.00">Serialization.MemberHolder, MemberInfo[]&gt;</text>
</a>
</g>
</g>
<!-- Node3&#45;&gt;Node8 -->
<g id="edge9" class="edge"><title>Node3&#45;&gt;Node8</title>
<path fill="none" stroke="orange" stroke-dasharray="5,2" d="M855.182,-591.217C857.572,-589.434 859.855,-587.531 862,-585.5 877.046,-571.257 863.864,-555.495 880,-542.5 919.997,-510.288 975.604,-498.278 1023.73,-494.658"/>
<polygon fill="orange" stroke="orange" points="853.099,-588.398 846.684,-596.83 856.957,-594.239 853.099,-588.398"/>
<text text-anchor="start" x="880" y="-567.5" font-family="Helvetica,sans-Serif" font-size="10.00"> &lt; System::Runtime::</text>
<text text-anchor="start" x="880" y="-556.5" font-family="Helvetica,sans-Serif" font-size="10.00">Serialization::MemberHolder,</text>
<text text-anchor="middle" x="943" y="-545.5" font-family="Helvetica,sans-Serif" font-size="10.00"> MemberInfo[]&gt;</text>
</g>
<!-- Node12 -->
<g id="node13" class="node"><title>Node12</title>
<g id="a_node13"><a xlink:href="class_system_1_1_runtime_1_1_serialization_1_1_surrogate_hashtable.html" target="_top" xlink:title=" ">
<polygon fill="none" stroke="black" points="696.5,-410.5 696.5,-440.5 845.5,-440.5 845.5,-410.5 696.5,-410.5"/>
<text text-anchor="start" x="704.5" y="-428.5" font-family="Helvetica,sans-Serif" font-size="10.00">System.Runtime.Serialization.</text>
<text text-anchor="middle" x="771" y="-417.5" font-family="Helvetica,sans-Serif" font-size="10.00">SurrogateHashtable</text>
</a>
</g>
</g>
<!-- Node11&#45;&gt;Node12 -->
<g id="edge13" class="edge"><title>Node11&#45;&gt;Node12</title>
<path fill="none" stroke="midnightblue" d="M642.531,-425.5C660.266,-425.5 678.868,-425.5 696.209,-425.5"/>
<polygon fill="midnightblue" stroke="midnightblue" points="642.205,-422 632.205,-425.5 642.205,-429 642.205,-422"/>
</g>
<!-- Node18 -->
<g id="node19" class="node"><title>Node18</title>
<g id="a_node19"><a xlink:href="class_system_1_1_runtime_1_1_remoting_1_1_channels_1_1_base_channel_sink_with_properties.html" target="_top" xlink:title="Provides a base implementation for channel sinks that want to expose a dictionary interface to their ...">
<polygon fill="none" stroke="black" points="692,-295 692,-336 850,-336 850,-295 692,-295"/>
<text text-anchor="start" x="700" y="-324" font-family="Helvetica,sans-Serif" font-size="10.00">System.Runtime.Remoting.</text>
<text text-anchor="start" x="700" y="-313" font-family="Helvetica,sans-Serif" font-size="10.00">Channels.BaseChannelSinkWith</text>
<text text-anchor="middle" x="771" y="-302" font-family="Helvetica,sans-Serif" font-size="10.00">Properties</text>
</a>
</g>
</g>
<!-- Node17&#45;&gt;Node18 -->
<g id="edge19" class="edge"><title>Node17&#45;&gt;Node18</title>
<path fill="none" stroke="midnightblue" d="M628.117,-262.778C633.168,-264.677 638.172,-266.596 643,-268.5 659.667,-275.072 663.296,-278.022 680,-284.5 689.091,-288.025 698.772,-291.572 708.288,-294.944"/>
<polygon fill="midnightblue" stroke="midnightblue" points="628.974,-259.363 618.381,-259.163 626.537,-265.925 628.974,-259.363"/>
</g>
<!-- Node19 -->
<g id="node20" class="node"><title>Node19</title>
<g id="a_node20"><a xlink:href="class_system_1_1_runtime_1_1_remoting_1_1_channels_1_1_base_channel_with_properties.html" target="_top" xlink:title="Provides a base implementation for channels that want to expose a dictionary interface to their prope...">
<polygon fill="none" stroke="black" points="680,-245.5 680,-275.5 862,-275.5 862,-245.5 680,-245.5"/>
<text text-anchor="start" x="688" y="-263.5" font-family="Helvetica,sans-Serif" font-size="10.00">System.Runtime.Remoting.</text>
<text text-anchor="middle" x="771" y="-252.5" font-family="Helvetica,sans-Serif" font-size="10.00">Channels.BaseChannelWithProperties</text>
</a>
</g>
</g>
<!-- Node17&#45;&gt;Node19 -->
<g id="edge20" class="edge"><title>Node17&#45;&gt;Node19</title>
<path fill="none" stroke="midnightblue" d="M651.804,-248.176C661.096,-249.145 670.521,-250.128 679.785,-251.094"/>
<polygon fill="midnightblue" stroke="midnightblue" points="652.096,-244.688 641.787,-247.132 651.37,-251.65 652.096,-244.688"/>
</g>
<!-- Node21 -->
<g id="node22" class="node"><title>Node21</title>
<g id="a_node22"><a xlink:href="class_system_1_1_runtime_1_1_remoting_1_1_messaging_1_1_c_c_m_dictionary.html" target="_top" xlink:title=" ">
<polygon fill="none" stroke="black" points="702.5,-196.5 702.5,-226.5 839.5,-226.5 839.5,-196.5 702.5,-196.5"/>
<text text-anchor="start" x="710.5" y="-214.5" font-family="Helvetica,sans-Serif" font-size="10.00">System.Runtime.Remoting.</text>
<text text-anchor="middle" x="771" y="-203.5" font-family="Helvetica,sans-Serif" font-size="10.00">Messaging.CCMDictionary</text>
</a>
</g>
</g>
<!-- Node20&#45;&gt;Node21 -->
<g id="edge22" class="edge"><title>Node20&#45;&gt;Node21</title>
<path fill="none" stroke="midnightblue" d="M633.629,-179.831C657.055,-185.271 682.709,-191.229 705.382,-196.494"/>
<polygon fill="midnightblue" stroke="midnightblue" points="634.273,-176.387 623.741,-177.535 632.69,-183.206 634.273,-176.387"/>
</g>
<!-- Node22 -->
<g id="node23" class="node"><title>Node22</title>
<g id="a_node23"><a xlink:href="class_system_1_1_runtime_1_1_remoting_1_1_messaging_1_1_c_r_m_dictionary.html" target="_top" xlink:title=" ">
<polygon fill="none" stroke="black" points="702.5,-147.5 702.5,-177.5 839.5,-177.5 839.5,-147.5 702.5,-147.5"/>
<text text-anchor="start" x="710.5" y="-165.5" font-family="Helvetica,sans-Serif" font-size="10.00">System.Runtime.Remoting.</text>
<text text-anchor="middle" x="771" y="-154.5" font-family="Helvetica,sans-Serif" font-size="10.00">Messaging.CRMDictionary</text>
</a>
</g>
</g>
<!-- Node20&#45;&gt;Node22 -->
<g id="edge23" class="edge"><title>Node20&#45;&gt;Node22</title>
<path fill="none" stroke="midnightblue" d="M643.265,-162.5C662.923,-162.5 683.607,-162.5 702.432,-162.5"/>
<polygon fill="midnightblue" stroke="midnightblue" points="643.094,-159 633.094,-162.5 643.094,-166 643.094,-159"/>
</g>
<!-- Node23 -->
<g id="node24" class="node"><title>Node23</title>
<g id="a_node24"><a xlink:href="class_system_1_1_runtime_1_1_remoting_1_1_messaging_1_1_m_c_m_dictionary.html" target="_top" xlink:title=" ">
<polygon fill="none" stroke="black" points="702.5,-98.5 702.5,-128.5 839.5,-128.5 839.5,-98.5 702.5,-98.5"/>
<text text-anchor="start" x="710.5" y="-116.5" font-family="Helvetica,sans-Serif" font-size="10.00">System.Runtime.Remoting.</text>
<text text-anchor="middle" x="771" y="-105.5" font-family="Helvetica,sans-Serif" font-size="10.00">Messaging.MCMDictionary</text>
</a>
</g>
</g>
<!-- Node20&#45;&gt;Node23 -->
<g id="edge24" class="edge"><title>Node20&#45;&gt;Node23</title>
<path fill="none" stroke="midnightblue" d="M633.629,-145.169C657.055,-139.729 682.709,-133.771 705.382,-128.506"/>
<polygon fill="midnightblue" stroke="midnightblue" points="632.69,-141.794 623.741,-147.465 634.273,-148.613 632.69,-141.794"/>
</g>
<!-- Node24 -->
<g id="node25" class="node"><title>Node24</title>
<g id="a_node25"><a xlink:href="class_system_1_1_runtime_1_1_remoting_1_1_messaging_1_1_m_r_m_dictionary.html" target="_top" xlink:title=" ">
<polygon fill="none" stroke="black" points="702.5,-49.5 702.5,-79.5 839.5,-79.5 839.5,-49.5 702.5,-49.5"/>
<text text-anchor="start" x="710.5" y="-67.5" font-family="Helvetica,sans-Serif" font-size="10.00">System.Runtime.Remoting.</text>
<text text-anchor="middle" x="771" y="-56.5" font-family="Helvetica,sans-Serif" font-size="10.00">Messaging.MRMDictionary</text>
</a>
</g>
</g>
<!-- Node20&#45;&gt;Node24 -->
<g id="edge25" class="edge"><title>Node20&#45;&gt;Node24</title>
<path fill="none" stroke="midnightblue" d="M587.625,-141.712C611.368,-125.294 646.536,-102.836 680,-88.5 687.73,-85.1887 696.032,-82.2324 704.357,-79.6235"/>
<polygon fill="midnightblue" stroke="midnightblue" points="585.6,-138.856 579.418,-147.461 589.617,-144.59 585.6,-138.856"/>
</g>
<!-- Node25&#45;&gt;Node3 -->
<g id="edge27" class="edge"><title>Node25&#45;&gt;Node3</title>
<path fill="none" stroke="midnightblue" d="M643.259,-604.285C659.76,-606.006 676.984,-607.802 693.225,-609.495"/>
<polygon fill="midnightblue" stroke="midnightblue" points="643.403,-600.781 633.094,-603.225 642.677,-607.744 643.403,-600.781"/>
</g>
<!-- Node25&#45;&gt;Node14 -->
<g id="edge28" class="edge"><title>Node25&#45;&gt;Node14</title>
<path fill="none" stroke="midnightblue" d="M642.98,-579.58C663.33,-575.722 684.796,-571.652 704.172,-567.979"/>
<polygon fill="midnightblue" stroke="midnightblue" points="642.267,-576.152 633.094,-581.454 643.571,-583.03 642.267,-576.152"/>
</g>
<!-- Node27 -->
<g id="node28" class="node"><title>Node27</title>
<g id="a_node28"><a xlink:href="class_system_1_1_diagnostics_1_1_tracing_1_1_event_payload.html" target="_top" xlink:title=" ">
<polygon fill="none" stroke="black" points="700,-0.5 700,-30.5 842,-30.5 842,-0.5 700,-0.5"/>
<text text-anchor="start" x="708" y="-18.5" font-family="Helvetica,sans-Serif" font-size="10.00">System.Diagnostics.Tracing.</text>
<text text-anchor="middle" x="771" y="-7.5" font-family="Helvetica,sans-Serif" font-size="10.00">EventPayload</text>
</a>
</g>
</g>
<!-- Node26&#45;&gt;Node27 -->
<g id="edge30" class="edge"><title>Node26&#45;&gt;Node27</title>
<path fill="none" stroke="midnightblue" d="M643.147,-35.3396C661.99,-32.3926 681.781,-29.2972 699.979,-26.4512"/>
<polygon fill="midnightblue" stroke="midnightblue" points="642.433,-31.9086 633.094,-36.9118 643.515,-38.8245 642.433,-31.9086"/>
</g>
</g>
</svg>
        <g id="navigator" transform="translate(0 0)" fill="#404254">
                <rect fill="#f2f5e9" fill-opacity="0.5" stroke="#606060" stroke-width=".5" x="0" y="0" width="60" height="60"/>
                <use id="zoomplus" xlink:href="#zoomPlus" x="17" y="9" onmousedown="handleZoom(evt,'in')"/>
                <use id="zoomminus" xlink:href="#zoomMin" x="42" y="9" onmousedown="handleZoom(evt,'out')"/>
                <use id="reset" xlink:href="#resetDef" x="30" y="36" onmousedown="handleReset()"/>
                <g id="arrowUp" xlink:href="#dirArrow" transform="translate(30 24)" onmousedown="handlePan(0,-1)">
                  <use xlink:href="#rim" fill="#404040">
                        <set attributeName="fill" to="#808080" begin="arrowUp.mouseover" end="arrowUp.mouseout"/>
                  </use>
                  <path fill="none" stroke="white" stroke-width="1.5" d="M0,-3.0v7 M-2.5,-0.5L0,-3.0L2.5,-0.5"/>
                </g>
                <g id="arrowRight" xlink:href="#dirArrow" transform="rotate(90) translate(36 -43)" onmousedown="handlePan(1,0)">
                  <use xlink:href="#rim" fill="#404040">
                        <set attributeName="fill" to="#808080" begin="arrowRight.mouseover" end="arrowRight.mouseout"/>
                  </use>
                  <path fill="none" stroke="white" stroke-width="1.5" d="M0,-3.0v7 M-2.5,-0.5L0,-3.0L2.5,-0.5"/>
                </g>
                <g id="arrowDown" xlink:href="#dirArrow" transform="rotate(180) translate(-30 -48)" onmousedown="handlePan(0,1)">
                  <use xlink:href="#rim" fill="#404040">
                        <set attributeName="fill" to="#808080" begin="arrowDown.mouseover" end="arrowDown.mouseout"/>
                  </use>
                  <path fill="none" stroke="white" stroke-width="1.5" d="M0,-3.0v7 M-2.5,-0.5L0,-3.0L2.5,-0.5"/>
                </g>
                <g id="arrowLeft" xlink:href="#dirArrow" transform="rotate(270) translate(-36 17)" onmousedown="handlePan(-1,0)">
                  <use xlink:href="#rim" fill="#404040">
                        <set attributeName="fill" to="#808080" begin="arrowLeft.mouseover" end="arrowLeft.mouseout"/>
                  </use>
                  <path fill="none" stroke="white" stroke-width="1.5" d="M0,-3.0v7 M-2.5,-0.5L0,-3.0L2.5,-0.5"/>
                </g>
        </g>
        <svg viewBox="0 0 15 15" width="100%" height="30px" preserveAspectRatio="xMaxYMin meet">
         <g id="arrow_out" transform="scale(0.3 0.3)">
          <a xlink:href="interface_system_1_1_collections_1_1_i_dictionary__inherit__graph_org.svg" target="_base">
           <rect id="button" ry="5" rx="5" y="6" x="6" height="38" width="38"
                fill="#f2f5e9" fill-opacity="0.5" stroke="#606060" stroke-width="1.0"/>
           <path id="arrow"
             d="M 11.500037,31.436501 C 11.940474,20.09759 22.043105,11.32322 32.158766,21.979434 L 37.068811,17.246167 C 37.068811,17.246167 37.088388,32 37.088388,32 L 22.160133,31.978069 C 22.160133,31.978069 26.997745,27.140456 26.997745,27.140456 C 18.528582,18.264221 13.291696,25.230495 11.500037,31.436501 z"
             style="fill:#404040;"/>
          </a>
         </g>
        </svg>
</svg>
