<?xml version="1.0" encoding="UTF-8" standalone="no"?>
<!DOCTYPE svg PUBLIC "-//W3C//DTD SVG 1.1//EN"
 "http://www.w3.org/Graphics/SVG/1.1/DTD/svg11.dtd">
<!-- Generated by graphviz version 2.38.0 (20140413.2041)
 -->
<!-- Title: System.Security.ISecurityPolicyEncodable Pages: 1 -->
<svg width="559pt" height="456pt"
 viewBox="0.00 0.00 559.00 456.00" xmlns="http://www.w3.org/2000/svg" xmlns:xlink="http://www.w3.org/1999/xlink">
<g id="graph0" class="graph" transform="scale(1 1) rotate(0) translate(4 452)">
<title>System.Security.ISecurityPolicyEncodable</title>
<!-- Node0 -->
<g id="node1" class="node"><title>Node0</title>
<g id="a_node1"><a xlink:title="Supports the methods that convert permission object state to and from an XML element representation.">
<polygon fill="#bfbfbf" stroke="black" points="0,-202.5 0,-232.5 131,-232.5 131,-202.5 0,-202.5"/>
<text text-anchor="start" x="8" y="-220.5" font-family="Helvetica,sans-Serif" font-size="10.00">System.Security.ISecurity</text>
<text text-anchor="middle" x="65.5" y="-209.5" font-family="Helvetica,sans-Serif" font-size="10.00">PolicyEncodable</text>
</a>
</g>
</g>
<!-- Node1 -->
<g id="node2" class="node"><title>Node1</title>
<g id="a_node2"><a xlink:href="class_system_1_1_security_1_1_policy_1_1_all_membership_condition.html" target="_top" xlink:title="Represents a membership condition that matches all code. This class cannot be inherited.">
<polygon fill="none" stroke="black" points="399,-417.5 399,-447.5 533,-447.5 533,-417.5 399,-417.5"/>
<text text-anchor="start" x="407" y="-435.5" font-family="Helvetica,sans-Serif" font-size="10.00">System.Security.Policy.All</text>
<text text-anchor="middle" x="466" y="-424.5" font-family="Helvetica,sans-Serif" font-size="10.00">MembershipCondition</text>
</a>
</g>
</g>
<!-- Node0&#45;&gt;Node1 -->
<g id="edge1" class="edge"><title>Node0&#45;&gt;Node1</title>
<path fill="none" stroke="midnightblue" d="M76.8627,-242.157C91.8422,-274.687 122.693,-331.338 167,-361.5 236.793,-409.011 334.621,-424.9 398.875,-430.116"/>
<polygon fill="midnightblue" stroke="midnightblue" points="79.9989,-240.596 72.7261,-232.891 73.607,-243.449 79.9989,-240.596"/>
</g>
<!-- Node2 -->
<g id="node3" class="node"><title>Node2</title>
<g id="a_node3"><a xlink:href="class_system_1_1_security_1_1_policy_1_1_application_directory_membership_condition.html" target="_top" xlink:title="Determines whether an assembly belongs to a code group by testing its application directory....">
<polygon fill="none" stroke="black" points="381,-368.5 381,-398.5 551,-398.5 551,-368.5 381,-368.5"/>
<text text-anchor="start" x="389" y="-386.5" font-family="Helvetica,sans-Serif" font-size="10.00">System.Security.Policy.Application</text>
<text text-anchor="middle" x="466" y="-375.5" font-family="Helvetica,sans-Serif" font-size="10.00">DirectoryMembershipCondition</text>
</a>
</g>
</g>
<!-- Node0&#45;&gt;Node2 -->
<g id="edge2" class="edge"><title>Node0&#45;&gt;Node2</title>
<path fill="none" stroke="midnightblue" d="M82.8253,-241.03C100.678,-264.883 131.519,-300.978 167,-320.5 233.251,-356.953 318.472,-372.339 380.797,-378.819"/>
<polygon fill="midnightblue" stroke="midnightblue" points="85.5753,-238.861 76.8513,-232.849 79.9221,-242.989 85.5753,-238.861"/>
</g>
<!-- Node3 -->
<g id="node4" class="node"><title>Node3</title>
<g id="a_node4"><a xlink:href="class_system_1_1_security_1_1_policy_1_1_gac_membership_condition.html" target="_top" xlink:title="Determines whether an assembly belongs to a code group by testing its global assembly cache membershi...">
<polygon fill="none" stroke="black" points="396,-319.5 396,-349.5 536,-349.5 536,-319.5 396,-319.5"/>
<text text-anchor="start" x="404" y="-337.5" font-family="Helvetica,sans-Serif" font-size="10.00">System.Security.Policy.Gac</text>
<text text-anchor="middle" x="466" y="-326.5" font-family="Helvetica,sans-Serif" font-size="10.00">MembershipCondition</text>
</a>
</g>
</g>
<!-- Node0&#45;&gt;Node3 -->
<g id="edge3" class="edge"><title>Node0&#45;&gt;Node3</title>
<path fill="none" stroke="midnightblue" d="M91.6548,-239.083C110.988,-254.484 139.039,-274.367 167,-285.5 241.773,-315.271 334.017,-326.957 395.897,-331.542"/>
<polygon fill="midnightblue" stroke="midnightblue" points="93.6374,-236.183 83.6731,-232.583 89.2172,-241.611 93.6374,-236.183"/>
</g>
<!-- Node4 -->
<g id="node5" class="node"><title>Node4</title>
<g id="a_node5"><a xlink:href="class_system_1_1_security_1_1_policy_1_1_hash_membership_condition.html" target="_top" xlink:title="Determines whether an assembly belongs to a code group by testing its hash value. This class cannot b...">
<polygon fill="none" stroke="black" points="393.5,-270.5 393.5,-300.5 538.5,-300.5 538.5,-270.5 393.5,-270.5"/>
<text text-anchor="start" x="401.5" y="-288.5" font-family="Helvetica,sans-Serif" font-size="10.00">System.Security.Policy.Hash</text>
<text text-anchor="middle" x="466" y="-277.5" font-family="Helvetica,sans-Serif" font-size="10.00">MembershipCondition</text>
</a>
</g>
</g>
<!-- Node0&#45;&gt;Node4 -->
<g id="edge4" class="edge"><title>Node0&#45;&gt;Node4</title>
<path fill="none" stroke="midnightblue" d="M106.552,-237.037C124.609,-245.002 146.454,-253.497 167,-258.5 242.836,-276.966 332.305,-283.057 393.281,-284.938"/>
<polygon fill="midnightblue" stroke="midnightblue" points="107.497,-233.623 96.9429,-232.693 104.613,-240.002 107.497,-233.623"/>
</g>
<!-- Node5 -->
<g id="node6" class="node"><title>Node5</title>
<g id="a_node6"><a xlink:href="interface_system_1_1_security_1_1_policy_1_1_i_membership_condition.html" target="_top" xlink:title="Defines the test to determine whether a code assembly is a member of a code group.">
<polygon fill="none" stroke="black" points="167,-202.5 167,-232.5 345,-232.5 345,-202.5 167,-202.5"/>
<text text-anchor="start" x="175" y="-220.5" font-family="Helvetica,sans-Serif" font-size="10.00">System.Security.Policy.IMembership</text>
<text text-anchor="middle" x="256" y="-209.5" font-family="Helvetica,sans-Serif" font-size="10.00">Condition</text>
</a>
</g>
</g>
<!-- Node0&#45;&gt;Node5 -->
<g id="edge5" class="edge"><title>Node0&#45;&gt;Node5</title>
<path fill="none" stroke="midnightblue" d="M141.234,-217.5C149.64,-217.5 158.263,-217.5 166.819,-217.5"/>
<polygon fill="midnightblue" stroke="midnightblue" points="141.107,-214 131.107,-217.5 141.107,-221 141.107,-214"/>
</g>
<!-- Node6 -->
<g id="node7" class="node"><title>Node6</title>
<g id="a_node7"><a xlink:href="class_system_1_1_security_1_1_policy_1_1_publisher_membership_condition.html" target="_top" xlink:title="Determines whether an assembly belongs to a code group by testing its software publisher&#39;s Authentico...">
<polygon fill="none" stroke="black" points="384.5,-221.5 384.5,-251.5 547.5,-251.5 547.5,-221.5 384.5,-221.5"/>
<text text-anchor="start" x="392.5" y="-239.5" font-family="Helvetica,sans-Serif" font-size="10.00">System.Security.Policy.Publisher</text>
<text text-anchor="middle" x="466" y="-228.5" font-family="Helvetica,sans-Serif" font-size="10.00">MembershipCondition</text>
</a>
</g>
</g>
<!-- Node0&#45;&gt;Node6 -->
<g id="edge16" class="edge"><title>Node0&#45;&gt;Node6</title>
<path fill="none" stroke="midnightblue" d="M129.12,-234.84C141.576,-237.611 154.629,-240.043 167,-241.5 240.228,-250.122 324.268,-247.596 384.393,-243.662"/>
<polygon fill="midnightblue" stroke="midnightblue" points="129.815,-231.408 119.283,-232.557 128.232,-238.227 129.815,-231.408"/>
</g>
<!-- Node7 -->
<g id="node8" class="node"><title>Node7</title>
<g id="a_node8"><a xlink:href="class_system_1_1_security_1_1_policy_1_1_site_membership_condition.html" target="_top" xlink:title="Determines whether an assembly belongs to a code group by testing the site from which it originated....">
<polygon fill="none" stroke="black" points="396,-172.5 396,-202.5 536,-202.5 536,-172.5 396,-172.5"/>
<text text-anchor="start" x="404" y="-190.5" font-family="Helvetica,sans-Serif" font-size="10.00">System.Security.Policy.Site</text>
<text text-anchor="middle" x="466" y="-179.5" font-family="Helvetica,sans-Serif" font-size="10.00">MembershipCondition</text>
</a>
</g>
</g>
<!-- Node0&#45;&gt;Node7 -->
<g id="edge17" class="edge"><title>Node0&#45;&gt;Node7</title>
<path fill="none" stroke="midnightblue" d="M127.24,-200.042C140.255,-196.964 154.001,-194.203 167,-192.5 244.855,-182.298 335.121,-182.434 395.727,-184.237"/>
<polygon fill="midnightblue" stroke="midnightblue" points="126.332,-196.662 117.455,-202.446 128.001,-203.459 126.332,-196.662"/>
</g>
<!-- Node8 -->
<g id="node9" class="node"><title>Node8</title>
<g id="a_node9"><a xlink:href="class_system_1_1_security_1_1_policy_1_1_strong_name_membership_condition.html" target="_top" xlink:title="Determines whether an assembly belongs to a code group by testing its strong name....">
<polygon fill="none" stroke="black" points="390.5,-123.5 390.5,-153.5 541.5,-153.5 541.5,-123.5 390.5,-123.5"/>
<text text-anchor="start" x="398.5" y="-141.5" font-family="Helvetica,sans-Serif" font-size="10.00">System.Security.Policy.Strong</text>
<text text-anchor="middle" x="466" y="-130.5" font-family="Helvetica,sans-Serif" font-size="10.00">NameMembershipCondition</text>
</a>
</g>
</g>
<!-- Node0&#45;&gt;Node8 -->
<g id="edge18" class="edge"><title>Node0&#45;&gt;Node8</title>
<path fill="none" stroke="midnightblue" d="M110.104,-198.566C127.519,-191.654 147.934,-184.35 167,-179.5 241.778,-160.477 329.504,-149.755 390.324,-144.089"/>
<polygon fill="midnightblue" stroke="midnightblue" points="108.72,-195.351 100.765,-202.348 111.347,-201.839 108.72,-195.351"/>
</g>
<!-- Node9 -->
<g id="node10" class="node"><title>Node9</title>
<g id="a_node10"><a xlink:href="class_system_1_1_security_1_1_policy_1_1_url_membership_condition.html" target="_top" xlink:title="Determines whether an assembly belongs to a code group by testing its URL. This class cannot be inher...">
<polygon fill="none" stroke="black" points="399,-74.5 399,-104.5 533,-104.5 533,-74.5 399,-74.5"/>
<text text-anchor="start" x="407" y="-92.5" font-family="Helvetica,sans-Serif" font-size="10.00">System.Security.Policy.Url</text>
<text text-anchor="middle" x="466" y="-81.5" font-family="Helvetica,sans-Serif" font-size="10.00">MembershipCondition</text>
</a>
</g>
</g>
<!-- Node0&#45;&gt;Node9 -->
<g id="edge19" class="edge"><title>Node0&#45;&gt;Node9</title>
<path fill="none" stroke="midnightblue" d="M90.5564,-195.609C109.841,-179.275 138.331,-157.747 167,-145.5 242.64,-113.189 336.96,-99.4583 398.979,-93.6639"/>
<polygon fill="midnightblue" stroke="midnightblue" points="88.1538,-193.06 82.8815,-202.25 92.7339,-198.354 88.1538,-193.06"/>
</g>
<!-- Node10 -->
<g id="node11" class="node"><title>Node10</title>
<g id="a_node11"><a xlink:href="class_system_1_1_security_1_1_policy_1_1_zone_membership_condition.html" target="_top" xlink:title="Determines whether an assembly belongs to a code group by testing its zone of origin....">
<polygon fill="none" stroke="black" points="394.5,-25.5 394.5,-55.5 537.5,-55.5 537.5,-25.5 394.5,-25.5"/>
<text text-anchor="start" x="402.5" y="-43.5" font-family="Helvetica,sans-Serif" font-size="10.00">System.Security.Policy.Zone</text>
<text text-anchor="middle" x="466" y="-32.5" font-family="Helvetica,sans-Serif" font-size="10.00">MembershipCondition</text>
</a>
</g>
</g>
<!-- Node0&#45;&gt;Node10 -->
<g id="edge20" class="edge"><title>Node0&#45;&gt;Node10</title>
<path fill="none" stroke="midnightblue" d="M79.4777,-193.8C95.9936,-166.039 127.217,-120.879 167,-97.5 237.049,-56.3346 330.874,-44.0827 394.391,-40.8465"/>
<polygon fill="midnightblue" stroke="midnightblue" points="76.4279,-192.082 74.4494,-202.491 82.4869,-195.588 76.4279,-192.082"/>
</g>
<!-- Node11 -->
<g id="node12" class="node"><title>Node11</title>
<g id="a_node12"><a xlink:href="class_system_1_1_security_1_1_policy_1_1_policy_statement.html" target="_top" xlink:title="Represents the statement of a T:System.Security.Policy.CodeGroup describing the permissions and other...">
<polygon fill="none" stroke="black" points="181.5,-0.5 181.5,-30.5 330.5,-30.5 330.5,-0.5 181.5,-0.5"/>
<text text-anchor="start" x="189.5" y="-18.5" font-family="Helvetica,sans-Serif" font-size="10.00">System.Security.Policy.Policy</text>
<text text-anchor="middle" x="256" y="-7.5" font-family="Helvetica,sans-Serif" font-size="10.00">Statement</text>
</a>
</g>
</g>
<!-- Node0&#45;&gt;Node11 -->
<g id="edge15" class="edge"><title>Node0&#45;&gt;Node11</title>
<path fill="none" stroke="midnightblue" d="M74.543,-192.897C87.9114,-155.739 118.17,-85.4146 167,-45.5 174.498,-39.3707 183.316,-34.4665 192.422,-30.5499"/>
<polygon fill="midnightblue" stroke="midnightblue" points="71.2014,-191.85 71.2189,-202.445 77.8122,-194.152 71.2014,-191.85"/>
</g>
<!-- Node5&#45;&gt;Node1 -->
<g id="edge6" class="edge"><title>Node5&#45;&gt;Node1</title>
<path fill="none" stroke="midnightblue" d="M266.175,-241.976C282.731,-282.77 321.508,-364.516 381,-408.5 386.366,-412.467 392.369,-415.78 398.631,-418.545"/>
<polygon fill="midnightblue" stroke="midnightblue" points="269.375,-240.55 262.446,-232.535 262.865,-243.122 269.375,-240.55"/>
</g>
<!-- Node5&#45;&gt;Node2 -->
<g id="edge7" class="edge"><title>Node5&#45;&gt;Node2</title>
<path fill="none" stroke="midnightblue" d="M271.722,-241.323C292.345,-272.737 332.771,-327.63 381,-358.5 387.023,-362.355 393.666,-365.638 400.498,-368.427"/>
<polygon fill="midnightblue" stroke="midnightblue" points="274.561,-239.267 266.205,-232.752 268.675,-243.056 274.561,-239.267"/>
</g>
<!-- Node5&#45;&gt;Node3 -->
<g id="edge8" class="edge"><title>Node5&#45;&gt;Node3</title>
<path fill="none" stroke="midnightblue" d="M281.204,-239.516C305.038,-260.167 343.256,-290.621 381,-309.5 388.484,-313.244 396.63,-316.533 404.808,-319.39"/>
<polygon fill="midnightblue" stroke="midnightblue" points="283.22,-236.628 273.398,-232.655 278.599,-241.885 283.22,-236.628"/>
</g>
<!-- Node5&#45;&gt;Node4 -->
<g id="edge9" class="edge"><title>Node5&#45;&gt;Node4</title>
<path fill="none" stroke="midnightblue" d="M308.596,-235.968C330.801,-243.766 357.101,-252.804 381,-260.5 391.283,-263.811 402.323,-267.209 412.91,-270.39"/>
<polygon fill="midnightblue" stroke="midnightblue" points="309.622,-232.619 299.028,-232.595 307.295,-239.221 309.622,-232.619"/>
</g>
<!-- Node5&#45;&gt;Node6 -->
<g id="edge10" class="edge"><title>Node5&#45;&gt;Node6</title>
<path fill="none" stroke="midnightblue" d="M355.283,-226.478C364.985,-227.364 374.753,-228.256 384.249,-229.124"/>
<polygon fill="midnightblue" stroke="midnightblue" points="355.488,-222.982 345.211,-225.558 354.851,-229.953 355.488,-222.982"/>
</g>
<!-- Node5&#45;&gt;Node7 -->
<g id="edge11" class="edge"><title>Node5&#45;&gt;Node7</title>
<path fill="none" stroke="midnightblue" d="M355.189,-203.338C368.943,-201.354 382.834,-199.351 395.895,-197.467"/>
<polygon fill="midnightblue" stroke="midnightblue" points="354.609,-199.886 345.211,-204.777 355.608,-206.814 354.609,-199.886"/>
</g>
<!-- Node5&#45;&gt;Node8 -->
<g id="edge12" class="edge"><title>Node5&#45;&gt;Node8</title>
<path fill="none" stroke="midnightblue" d="M296.756,-198.171C320.802,-186.908 352.269,-172.919 381,-162.5 389.698,-159.346 399.02,-156.332 408.175,-153.571"/>
<polygon fill="midnightblue" stroke="midnightblue" points="295.144,-195.061 287.596,-202.497 298.133,-201.391 295.144,-195.061"/>
</g>
<!-- Node5&#45;&gt;Node9 -->
<g id="edge13" class="edge"><title>Node5&#45;&gt;Node9</title>
<path fill="none" stroke="midnightblue" d="M277.97,-195.023C301.091,-171.497 340.422,-135.045 381,-113.5 387.43,-110.086 394.402,-107.108 401.486,-104.524"/>
<polygon fill="midnightblue" stroke="midnightblue" points="275.208,-192.844 270.772,-202.465 280.24,-197.71 275.208,-192.844"/>
</g>
<!-- Node5&#45;&gt;Node10 -->
<g id="edge14" class="edge"><title>Node5&#45;&gt;Node10</title>
<path fill="none" stroke="midnightblue" d="M269.997,-193.548C289.591,-159.709 329.897,-98.2742 381,-64.5 386.188,-61.0713 391.868,-58.1253 397.751,-55.5953"/>
<polygon fill="midnightblue" stroke="midnightblue" points="266.915,-191.889 265.028,-202.315 273.004,-195.341 266.915,-191.889"/>
</g>
</g>
</svg>
