<?xml version="1.0" encoding="UTF-8" standalone="no"?>
<!DOCTYPE svg PUBLIC "-//W3C//DTD SVG 1.1//EN"
 "http://www.w3.org/Graphics/SVG/1.1/DTD/svg11.dtd">
<!-- Generated by graphviz version 2.38.0 (20140413.2041)
 -->
<!-- Title: System.Resources.IResourceGroveler Pages: 1 -->
<svg width="336pt" height="88pt"
 viewBox="0.00 0.00 336.00 88.00" xmlns="http://www.w3.org/2000/svg" xmlns:xlink="http://www.w3.org/1999/xlink">
<g id="graph0" class="graph" transform="scale(1 1) rotate(0) translate(4 84)">
<title>System.Resources.IResourceGroveler</title>
<!-- Node0 -->
<g id="node1" class="node"><title>Node0</title>
<g id="a_node1"><a xlink:title=" ">
<polygon fill="#bfbfbf" stroke="black" points="0,-24.5 0,-54.5 146,-54.5 146,-24.5 0,-24.5"/>
<text text-anchor="start" x="8" y="-42.5" font-family="Helvetica,sans-Serif" font-size="10.00">System.Resources.IResource</text>
<text text-anchor="middle" x="73" y="-31.5" font-family="Helvetica,sans-Serif" font-size="10.00">Groveler</text>
</a>
</g>
</g>
<!-- Node1 -->
<g id="node2" class="node"><title>Node1</title>
<g id="a_node2"><a xlink:href="class_system_1_1_resources_1_1_file_based_resource_groveler.html" target="_top" xlink:title=" ">
<polygon fill="none" stroke="black" points="182,-49.5 182,-79.5 328,-79.5 328,-49.5 182,-49.5"/>
<text text-anchor="start" x="190" y="-67.5" font-family="Helvetica,sans-Serif" font-size="10.00">System.Resources.FileBased</text>
<text text-anchor="middle" x="255" y="-56.5" font-family="Helvetica,sans-Serif" font-size="10.00">ResourceGroveler</text>
</a>
</g>
</g>
<!-- Node0&#45;&gt;Node1 -->
<g id="edge1" class="edge"><title>Node0&#45;&gt;Node1</title>
<path fill="none" stroke="midnightblue" d="M156.16,-50.9111C164.718,-52.0998 173.372,-53.3017 181.808,-54.4733"/>
<polygon fill="midnightblue" stroke="midnightblue" points="156.562,-47.4335 146.176,-49.5244 155.599,-54.3669 156.562,-47.4335"/>
</g>
<!-- Node2 -->
<g id="node3" class="node"><title>Node2</title>
<g id="a_node3"><a xlink:href="class_system_1_1_resources_1_1_manifest_based_resource_groveler.html" target="_top" xlink:title=" ">
<polygon fill="none" stroke="black" points="185,-0.5 185,-30.5 325,-30.5 325,-0.5 185,-0.5"/>
<text text-anchor="start" x="193" y="-18.5" font-family="Helvetica,sans-Serif" font-size="10.00">System.Resources.Manifest</text>
<text text-anchor="middle" x="255" y="-7.5" font-family="Helvetica,sans-Serif" font-size="10.00">BasedResourceGroveler</text>
</a>
</g>
</g>
<!-- Node0&#45;&gt;Node2 -->
<g id="edge2" class="edge"><title>Node0&#45;&gt;Node2</title>
<path fill="none" stroke="midnightblue" d="M156.09,-28.5546C165.663,-27.2782 175.357,-25.9857 184.733,-24.7356"/>
<polygon fill="midnightblue" stroke="midnightblue" points="155.625,-25.0855 146.176,-29.8766 156.551,-32.0241 155.625,-25.0855"/>
</g>
</g>
</svg>
