<?xml version="1.0" encoding="UTF-8" standalone="no"?>
<!DOCTYPE svg PUBLIC "-//W3C//DTD SVG 1.1//EN"
 "http://www.w3.org/Graphics/SVG/1.1/DTD/svg11.dtd">
<!-- Generated by graphviz version 2.38.0 (20140413.2041)
 -->
<!-- Title: System.Runtime.InteropServices.WindowsRuntime.ICustomPropertyProvider Pages: 1 -->
<svg width="471pt" height="149pt"
 viewBox="0.00 0.00 471.00 148.50" xmlns="http://www.w3.org/2000/svg" xmlns:xlink="http://www.w3.org/1999/xlink">
<g id="graph0" class="graph" transform="scale(1 1) rotate(0) translate(4 144.5)">
<title>System.Runtime.InteropServices.WindowsRuntime.ICustomPropertyProvider</title>
<!-- Node0 -->
<g id="node1" class="node"><title>Node0</title>
<g id="a_node1"><a xlink:title=" ">
<polygon fill="#bfbfbf" stroke="black" points="0,-61 0,-91 203,-91 203,-61 0,-61"/>
<text text-anchor="start" x="8" y="-79" font-family="Helvetica,sans-Serif" font-size="10.00">System.Runtime.InteropServices.</text>
<text text-anchor="middle" x="101.5" y="-68" font-family="Helvetica,sans-Serif" font-size="10.00">WindowsRuntime.ICustomPropertyProvider</text>
</a>
</g>
</g>
<!-- Node1 -->
<g id="node2" class="node"><title>Node1</title>
<g id="a_node2"><a xlink:href="class_system_1_1_runtime_1_1_interop_services_1_1_windows_runtime_1_1_c_l_r_i_reference_array_impl.html" target="_top" xlink:title=" ">
<polygon fill="none" stroke="black" points="239,-110 239,-140 463,-140 463,-110 239,-110"/>
<text text-anchor="start" x="247" y="-128" font-family="Helvetica,sans-Serif" font-size="10.00">System.Runtime.InteropServices.</text>
<text text-anchor="middle" x="351" y="-117" font-family="Helvetica,sans-Serif" font-size="10.00">WindowsRuntime.CLRIReferenceArrayImpl&lt; T &gt;</text>
</a>
</g>
</g>
<!-- Node0&#45;&gt;Node1 -->
<g id="edge1" class="edge"><title>Node0&#45;&gt;Node1</title>
<path fill="none" stroke="midnightblue" d="M188.569,-93.04C216.442,-98.5582 247.133,-104.634 274.203,-109.994"/>
<polygon fill="midnightblue" stroke="midnightblue" points="188.93,-89.5434 178.44,-91.0346 187.57,-96.4102 188.93,-89.5434"/>
</g>
<!-- Node2 -->
<g id="node3" class="node"><title>Node2</title>
<g id="a_node3"><a xlink:href="class_system_1_1_runtime_1_1_interop_services_1_1_windows_runtime_1_1_c_l_r_i_reference_impl.html" target="_top" xlink:title=" ">
<polygon fill="none" stroke="black" points="250.5,-61 250.5,-91 451.5,-91 451.5,-61 250.5,-61"/>
<text text-anchor="start" x="258.5" y="-79" font-family="Helvetica,sans-Serif" font-size="10.00">System.Runtime.InteropServices.</text>
<text text-anchor="middle" x="351" y="-68" font-family="Helvetica,sans-Serif" font-size="10.00">WindowsRuntime.CLRIReferenceImpl&lt; T &gt;</text>
</a>
</g>
</g>
<!-- Node0&#45;&gt;Node2 -->
<g id="edge2" class="edge"><title>Node0&#45;&gt;Node2</title>
<path fill="none" stroke="midnightblue" d="M213.417,-76C225.679,-76 238.111,-76 250.224,-76"/>
<polygon fill="midnightblue" stroke="midnightblue" points="213.168,-72.5001 203.168,-76 213.168,-79.5001 213.168,-72.5001"/>
</g>
<!-- Node3 -->
<g id="node4" class="node"><title>Node3</title>
<g id="a_node4"><a xlink:href="class_system_1_1_runtime_1_1_interop_services_1_1_windows_runtime_1_1_i_custom_property_provider_proxy.html" target="_top" xlink:title=" ">
<polygon fill="none" stroke="black" points="249.5,-0.5 249.5,-41.5 452.5,-41.5 452.5,-0.5 249.5,-0.5"/>
<text text-anchor="start" x="257.5" y="-29.5" font-family="Helvetica,sans-Serif" font-size="10.00">System.Runtime.InteropServices.</text>
<text text-anchor="start" x="257.5" y="-18.5" font-family="Helvetica,sans-Serif" font-size="10.00">WindowsRuntime.ICustomPropertyProvider</text>
<text text-anchor="middle" x="351" y="-7.5" font-family="Helvetica,sans-Serif" font-size="10.00">Proxy&lt; T1, T2 &gt;</text>
</a>
</g>
</g>
<!-- Node0&#45;&gt;Node3 -->
<g id="edge3" class="edge"><title>Node0&#45;&gt;Node3</title>
<path fill="none" stroke="midnightblue" d="M180.091,-58.7576C204.607,-53.3096 231.944,-47.2347 257.4,-41.5777"/>
<polygon fill="midnightblue" stroke="midnightblue" points="179.133,-55.385 170.13,-60.971 180.652,-62.2183 179.133,-55.385"/>
</g>
</g>
</svg>
