<?xml version="1.0" encoding="UTF-8" standalone="no"?>
<!DOCTYPE svg PUBLIC "-//W3C//DTD SVG 1.1//EN"
 "http://www.w3.org/Graphics/SVG/1.1/DTD/svg11.dtd">
<!-- Generated by graphviz version 2.38.0 (20140413.2041)
 -->
<!-- Title: System.Collections.Generic.IDictionary&lt; TKey, TValue &gt; Pages: 1 -->
<svg width="324pt" height="145pt"
 viewBox="0.00 0.00 324.00 144.50" xmlns="http://www.w3.org/2000/svg" xmlns:xlink="http://www.w3.org/1999/xlink">
<g id="graph0" class="graph" transform="scale(1 1) rotate(0) translate(4 140.5)">
<title>System.Collections.Generic.IDictionary&lt; TKey, TValue &gt;</title>
<!-- Node33 -->
<g id="node1" class="node"><title>Node33</title>
<g id="a_node1"><a xlink:title="Represents a generic collection of key/value pairs.">
<polygon fill="#bfbfbf" stroke="black" points="175,-57 175,-87 316,-87 316,-57 175,-57"/>
<text text-anchor="start" x="183" y="-75" font-family="Helvetica,sans-Serif" font-size="10.00">System.Collections.Generic.</text>
<text text-anchor="middle" x="245.5" y="-64" font-family="Helvetica,sans-Serif" font-size="10.00">IDictionary&lt; TKey, TValue &gt;</text>
</a>
</g>
</g>
<!-- Node34 -->
<g id="node2" class="node"><title>Node34</title>
<g id="a_node2"><a xlink:title=" ">
<polygon fill="none" stroke="#bfbfbf" points="4.5,-106 4.5,-136 134.5,-136 134.5,-106 4.5,-106"/>
<text text-anchor="start" x="12.5" y="-124" font-family="Helvetica,sans-Serif" font-size="10.00">ICollection&lt; KeyValuePair</text>
<text text-anchor="middle" x="69.5" y="-113" font-family="Helvetica,sans-Serif" font-size="10.00">&lt; TKey, TValue &gt;&gt;</text>
</a>
</g>
</g>
<!-- Node34&#45;&gt;Node33 -->
<g id="edge1" class="edge"><title>Node34&#45;&gt;Node33</title>
<path fill="none" stroke="midnightblue" d="M133.784,-103.179C152.57,-97.8882 172.955,-92.1478 191.052,-87.0516"/>
<polygon fill="midnightblue" stroke="midnightblue" points="132.802,-99.8189 124.126,-105.899 134.7,-106.557 132.802,-99.8189"/>
</g>
<!-- Node35 -->
<g id="node3" class="node"><title>Node35</title>
<g id="a_node3"><a xlink:title=" ">
<polygon fill="none" stroke="#bfbfbf" points="0,-57 0,-87 139,-87 139,-57 0,-57"/>
<text text-anchor="start" x="8" y="-75" font-family="Helvetica,sans-Serif" font-size="10.00">IEnumerable&lt; KeyValuePair</text>
<text text-anchor="middle" x="69.5" y="-64" font-family="Helvetica,sans-Serif" font-size="10.00">&lt; TKey, TValue &gt;&gt;</text>
</a>
</g>
</g>
<!-- Node35&#45;&gt;Node33 -->
<g id="edge2" class="edge"><title>Node35&#45;&gt;Node33</title>
<path fill="none" stroke="midnightblue" d="M149.495,-72C157.937,-72 166.481,-72 174.804,-72"/>
<polygon fill="midnightblue" stroke="midnightblue" points="149.269,-68.5001 139.269,-72 149.269,-75.5001 149.269,-68.5001"/>
</g>
<!-- Node36 -->
<g id="node4" class="node"><title>Node36</title>
<g id="a_node4"><a xlink:href="interface_system_1_1_collections_1_1_generic_1_1_i_enumerable.html" target="_top" xlink:title="Exposes the enumerator, which supports a simple iteration over a collection of a specified type....">
<polygon fill="none" stroke="black" points="34,-0.5 34,-19.5 105,-19.5 105,-0.5 34,-0.5"/>
<text text-anchor="middle" x="69.5" y="-7.5" font-family="Helvetica,sans-Serif" font-size="10.00">IEnumerable</text>
</a>
</g>
</g>
<!-- Node36&#45;&gt;Node33 -->
<g id="edge3" class="edge"><title>Node36&#45;&gt;Node33</title>
<path fill="none" stroke="midnightblue" d="M107.018,-23.012C134.762,-32.8978 172.978,-46.5153 202.078,-56.8842"/>
<polygon fill="midnightblue" stroke="midnightblue" points="107.901,-19.6112 97.3062,-19.5516 105.551,-26.2051 107.901,-19.6112"/>
</g>
<!-- Node36&#45;&gt;Node36 -->
<g id="edge4" class="edge"><title>Node36&#45;&gt;Node36</title>
<path fill="none" stroke="midnightblue" d="M36.5166,-27.8913C36.9997,-33.5406 47.9941,-38 69.5,-38 100.781,-38 109.823,-28.5653 96.6267,-19.7571"/>
<polygon fill="midnightblue" stroke="midnightblue" points="39.3706,-29.9175 42.3733,-19.7571 33.6898,-25.8273 39.3706,-29.9175"/>
</g>
</g>
</svg>
