<?xml version="1.0" encoding="UTF-8" standalone="no"?>
<!DOCTYPE svg PUBLIC "-//W3C//DTD SVG 1.1//EN"
 "http://www.w3.org/Graphics/SVG/1.1/DTD/svg11.dtd">
<!-- Generated by graphviz version 2.38.0 (20140413.2041)
 -->
<!-- Title: System.Runtime.InteropServices._Assembly Pages: 1 -->
<svg width="337pt" height="229pt"
 viewBox="0.00 0.00 337.00 229.00" xmlns="http://www.w3.org/2000/svg" xmlns:xlink="http://www.w3.org/1999/xlink">
<g id="graph0" class="graph" transform="scale(1 1) rotate(0) translate(4 225)">
<title>System.Runtime.InteropServices._Assembly</title>
<!-- Node0 -->
<g id="node1" class="node"><title>Node0</title>
<g id="a_node1"><a xlink:title="Exposes the public members of the T:System.Reflection.Assembly class to unmanaged code.">
<polygon fill="#bfbfbf" stroke="black" points="86.5,-190.5 86.5,-220.5 247.5,-220.5 247.5,-190.5 86.5,-190.5"/>
<text text-anchor="start" x="94.5" y="-208.5" font-family="Helvetica,sans-Serif" font-size="10.00">System.Runtime.InteropServices.</text>
<text text-anchor="middle" x="167" y="-197.5" font-family="Helvetica,sans-Serif" font-size="10.00">_Assembly</text>
</a>
</g>
</g>
<!-- Node1 -->
<g id="node2" class="node"><title>Node1</title>
<g id="a_node2"><a xlink:href="class_system_1_1_reflection_1_1_assembly.html" target="_top" xlink:title="Represents an assembly, which is a reusable, versionable, and self&#45;describing building block of a com...">
<polygon fill="none" stroke="black" points="95.5,-134.5 95.5,-153.5 238.5,-153.5 238.5,-134.5 95.5,-134.5"/>
<text text-anchor="middle" x="167" y="-141.5" font-family="Helvetica,sans-Serif" font-size="10.00">System.Reflection.Assembly</text>
</a>
</g>
</g>
<!-- Node0&#45;&gt;Node1 -->
<g id="edge1" class="edge"><title>Node0&#45;&gt;Node1</title>
<path fill="none" stroke="midnightblue" d="M167,-180.289C167,-170.857 167,-160.655 167,-153.658"/>
<polygon fill="midnightblue" stroke="midnightblue" points="163.5,-180.399 167,-190.399 170.5,-180.399 163.5,-180.399"/>
</g>
<!-- Node2 -->
<g id="node3" class="node"><title>Node2</title>
<g id="a_node3"><a xlink:href="class_system_1_1_reflection_1_1_emit_1_1_assembly_builder.html" target="_top" xlink:title="Defines and represents a dynamic assembly.">
<polygon fill="none" stroke="black" points="0,-67.5 0,-97.5 166,-97.5 166,-67.5 0,-67.5"/>
<text text-anchor="start" x="8" y="-85.5" font-family="Helvetica,sans-Serif" font-size="10.00">System.Reflection.Emit.Assembly</text>
<text text-anchor="middle" x="83" y="-74.5" font-family="Helvetica,sans-Serif" font-size="10.00">Builder</text>
</a>
</g>
</g>
<!-- Node1&#45;&gt;Node2 -->
<g id="edge2" class="edge"><title>Node1&#45;&gt;Node2</title>
<path fill="none" stroke="midnightblue" d="M146.484,-128.468C133.185,-119.047 115.952,-106.841 102.797,-97.523"/>
<polygon fill="midnightblue" stroke="midnightblue" points="144.782,-131.551 154.965,-134.475 148.828,-125.839 144.782,-131.551"/>
</g>
<!-- Node3 -->
<g id="node4" class="node"><title>Node3</title>
<g id="a_node4"><a xlink:href="class_system_1_1_reflection_1_1_runtime_assembly.html" target="_top" xlink:title=" ">
<polygon fill="none" stroke="black" points="184.5,-67.5 184.5,-97.5 319.5,-97.5 319.5,-67.5 184.5,-67.5"/>
<text text-anchor="start" x="192.5" y="-85.5" font-family="Helvetica,sans-Serif" font-size="10.00">System.Reflection.Runtime</text>
<text text-anchor="middle" x="252" y="-74.5" font-family="Helvetica,sans-Serif" font-size="10.00">Assembly</text>
</a>
</g>
</g>
<!-- Node1&#45;&gt;Node3 -->
<g id="edge3" class="edge"><title>Node1&#45;&gt;Node3</title>
<path fill="none" stroke="midnightblue" d="M187.373,-128.739C200.882,-119.282 218.528,-106.93 231.967,-97.523"/>
<polygon fill="midnightblue" stroke="midnightblue" points="185.364,-125.873 179.178,-134.475 189.378,-131.608 185.364,-125.873"/>
</g>
<!-- Node4 -->
<g id="node5" class="node"><title>Node4</title>
<g id="a_node5"><a xlink:href="class_system_1_1_reflection_1_1_emit_1_1_internal_assembly_builder.html" target="_top" xlink:title=" ">
<polygon fill="none" stroke="black" points="175,-0.5 175,-30.5 329,-30.5 329,-0.5 175,-0.5"/>
<text text-anchor="start" x="183" y="-18.5" font-family="Helvetica,sans-Serif" font-size="10.00">System.Reflection.Emit.Internal</text>
<text text-anchor="middle" x="252" y="-7.5" font-family="Helvetica,sans-Serif" font-size="10.00">AssemblyBuilder</text>
</a>
</g>
</g>
<!-- Node3&#45;&gt;Node4 -->
<g id="edge4" class="edge"><title>Node3&#45;&gt;Node4</title>
<path fill="none" stroke="midnightblue" d="M252,-57.1081C252,-48.1539 252,-38.3227 252,-30.5765"/>
<polygon fill="midnightblue" stroke="midnightblue" points="248.5,-57.3959 252,-67.396 255.5,-57.396 248.5,-57.3959"/>
</g>
</g>
</svg>
