<?xml version="1.0" encoding="UTF-8" standalone="no"?>
<!DOCTYPE svg PUBLIC "-//W3C//DTD SVG 1.1//EN"
 "http://www.w3.org/Graphics/SVG/1.1/DTD/svg11.dtd">
<!-- Generated by graphviz version 2.38.0 (20140413.2041)
 -->
<!-- Title: System.Linq.IOrderedEnumerable&lt; TElement &gt; Pages: 1 -->
<svg width="614pt" height="88pt"
 viewBox="0.00 0.00 614.00 88.00" xmlns="http://www.w3.org/2000/svg" xmlns:xlink="http://www.w3.org/1999/xlink">
<g id="graph0" class="graph" transform="scale(1 1) rotate(0) translate(4 84)">
<title>System.Linq.IOrderedEnumerable&lt; TElement &gt;</title>
<!-- Node0 -->
<g id="node1" class="node"><title>Node0</title>
<g id="a_node1"><a xlink:title="Represents a sorted sequence.">
<polygon fill="#bfbfbf" stroke="black" points="167,-24.5 167,-54.5 330,-54.5 330,-24.5 167,-24.5"/>
<text text-anchor="start" x="175" y="-42.5" font-family="Helvetica,sans-Serif" font-size="10.00">System.Linq.IOrderedEnumerable</text>
<text text-anchor="middle" x="248.5" y="-31.5" font-family="Helvetica,sans-Serif" font-size="10.00">&lt; TElement &gt;</text>
</a>
</g>
</g>
<!-- Node4 -->
<g id="node4" class="node"><title>Node4</title>
<g id="a_node4"><a xlink:href="interface_system_1_1_linq_1_1_i_ordered_enumerable.html" target="_top" xlink:title=" ">
<polygon fill="none" stroke="black" points="443,-49.5 443,-79.5 606,-79.5 606,-49.5 443,-49.5"/>
<text text-anchor="start" x="451" y="-67.5" font-family="Helvetica,sans-Serif" font-size="10.00">System.Linq.IOrderedEnumerable</text>
<text text-anchor="middle" x="524.5" y="-56.5" font-family="Helvetica,sans-Serif" font-size="10.00">&lt; TSource &gt;</text>
</a>
</g>
</g>
<!-- Node0&#45;&gt;Node4 -->
<g id="edge3" class="edge"><title>Node0&#45;&gt;Node4</title>
<path fill="none" stroke="orange" stroke-dasharray="5,2" d="M340.367,-47.7908C373.496,-50.8135 410.699,-54.208 442.877,-57.1439"/>
<polygon fill="orange" stroke="orange" points="340.504,-44.2888 330.227,-46.8656 339.868,-51.2599 340.504,-44.2888"/>
<text text-anchor="middle" x="386.5" y="-57.5" font-family="Helvetica,sans-Serif" font-size="10.00"> &lt; TSource &gt;</text>
</g>
<!-- Node5 -->
<g id="node5" class="node"><title>Node5</title>
<g id="a_node5"><a xlink:href="interface_system_1_1_linq_1_1_i_ordered_enumerable.html" target="_top" xlink:title=" ">
<polygon fill="none" stroke="black" points="443,-0.5 443,-30.5 606,-30.5 606,-0.5 443,-0.5"/>
<text text-anchor="start" x="451" y="-18.5" font-family="Helvetica,sans-Serif" font-size="10.00">System.Linq.IOrderedEnumerable</text>
<text text-anchor="middle" x="524.5" y="-7.5" font-family="Helvetica,sans-Serif" font-size="10.00">&lt; TInputOutput &gt;</text>
</a>
</g>
</g>
<!-- Node0&#45;&gt;Node5 -->
<g id="edge4" class="edge"><title>Node0&#45;&gt;Node5</title>
<path fill="none" stroke="orange" stroke-dasharray="5,2" d="M340.367,-31.5408C373.496,-28.639 410.699,-25.3803 442.877,-22.5619"/>
<polygon fill="orange" stroke="orange" points="339.883,-28.0697 330.227,-32.429 340.494,-35.043 339.883,-28.0697"/>
<text text-anchor="middle" x="386.5" y="-32.5" font-family="Helvetica,sans-Serif" font-size="10.00"> &lt; TInputOutput &gt;</text>
</g>
<!-- Node1 -->
<g id="node2" class="node"><title>Node1</title>
<g id="a_node2"><a xlink:href="interface_system_1_1_collections_1_1_i_enumerable.html" target="_top" xlink:title=" ">
<polygon fill="none" stroke="red" points="0,-49 0,-68 130,-68 130,-49 0,-49"/>
<text text-anchor="middle" x="65" y="-56" font-family="Helvetica,sans-Serif" font-size="10.00">IEnumerable&lt; TElement &gt;</text>
</a>
</g>
</g>
<!-- Node1&#45;&gt;Node0 -->
<g id="edge1" class="edge"><title>Node1&#45;&gt;Node0</title>
<path fill="none" stroke="midnightblue" d="M140.363,-50.7155C149.08,-49.803 158.005,-48.8686 166.803,-47.9476"/>
<polygon fill="midnightblue" stroke="midnightblue" points="139.827,-47.2524 130.246,-51.7746 140.556,-54.2143 139.827,-47.2524"/>
</g>
<!-- Node3 -->
<g id="node3" class="node"><title>Node3</title>
<g id="a_node3"><a xlink:href="interface_system_1_1_collections_1_1_i_enumerable.html" target="_top" xlink:title="Exposes an enumerator, which supports a simple iteration over a non&#45;generic collection....">
<polygon fill="none" stroke="black" points="29.5,-11 29.5,-30 100.5,-30 100.5,-11 29.5,-11"/>
<text text-anchor="middle" x="65" y="-18" font-family="Helvetica,sans-Serif" font-size="10.00">IEnumerable</text>
</a>
</g>
</g>
<!-- Node3&#45;&gt;Node0 -->
<g id="edge2" class="edge"><title>Node3&#45;&gt;Node0</title>
<path fill="none" stroke="midnightblue" d="M110.711,-25.1805C127.659,-26.9547 147.522,-29.034 166.776,-31.0495"/>
<polygon fill="midnightblue" stroke="midnightblue" points="110.876,-21.6787 100.566,-24.1185 110.147,-28.6407 110.876,-21.6787"/>
</g>
</g>
</svg>
