<?xml version="1.0" encoding="UTF-8" standalone="no"?>
<!DOCTYPE svg PUBLIC "-//W3C//DTD SVG 1.1//EN"
 "http://www.w3.org/Graphics/SVG/1.1/DTD/svg11.dtd">
<!-- Generated by graphviz version 2.38.0 (20140413.2041)
 -->
<!-- Title: System.Resources.IResourceReader Pages: 1 -->
<svg width="164pt" height="95pt"
 viewBox="0.00 0.00 164.00 95.00" xmlns="http://www.w3.org/2000/svg" xmlns:xlink="http://www.w3.org/1999/xlink">
<g id="graph0" class="graph" transform="scale(1 1) rotate(0) translate(4 91)">
<title>System.Resources.IResourceReader</title>
<!-- Node4 -->
<g id="node1" class="node"><title>Node4</title>
<g id="a_node1"><a xlink:title="Provides the base functionality for reading data from resource files.">
<polygon fill="#bfbfbf" stroke="black" points="5.5,-0.5 5.5,-30.5 151.5,-30.5 151.5,-0.5 5.5,-0.5"/>
<text text-anchor="start" x="13.5" y="-18.5" font-family="Helvetica,sans-Serif" font-size="10.00">System.Resources.IResource</text>
<text text-anchor="middle" x="78.5" y="-7.5" font-family="Helvetica,sans-Serif" font-size="10.00">Reader</text>
</a>
</g>
</g>
<!-- Node5 -->
<g id="node2" class="node"><title>Node5</title>
<g id="a_node2"><a xlink:href="interface_system_1_1_collections_1_1_i_enumerable.html" target="_top" xlink:title="Exposes an enumerator, which supports a simple iteration over a non&#45;generic collection....">
<polygon fill="none" stroke="black" points="0,-67.5 0,-86.5 71,-86.5 71,-67.5 0,-67.5"/>
<text text-anchor="middle" x="35.5" y="-74.5" font-family="Helvetica,sans-Serif" font-size="10.00">IEnumerable</text>
</a>
</g>
</g>
<!-- Node5&#45;&gt;Node4 -->
<g id="edge1" class="edge"><title>Node5&#45;&gt;Node4</title>
<path fill="none" stroke="midnightblue" d="M47.6071,-59.2472C54.1551,-50.1866 62.1499,-39.124 68.3658,-30.523"/>
<polygon fill="midnightblue" stroke="midnightblue" points="44.6815,-57.32 41.6609,-67.4751 50.355,-61.4202 44.6815,-57.32"/>
</g>
<!-- Node6 -->
<g id="node3" class="node"><title>Node6</title>
<g id="a_node3"><a xlink:href="interface_system_1_1_i_disposable.html" target="_top" xlink:title="Provides a mechanism for releasing unmanaged resources.To browse the .NET Framework source code for t...">
<polygon fill="none" stroke="black" points="89,-67.5 89,-86.5 156,-86.5 156,-67.5 89,-67.5"/>
<text text-anchor="middle" x="122.5" y="-74.5" font-family="Helvetica,sans-Serif" font-size="10.00">IDisposable</text>
</a>
</g>
</g>
<!-- Node6&#45;&gt;Node4 -->
<g id="edge2" class="edge"><title>Node6&#45;&gt;Node4</title>
<path fill="none" stroke="midnightblue" d="M110.111,-59.2472C103.411,-50.1866 95.2304,-39.124 88.8699,-30.523"/>
<polygon fill="midnightblue" stroke="midnightblue" points="107.436,-61.5158 116.196,-67.4751 113.064,-57.3537 107.436,-61.5158"/>
</g>
</g>
</svg>
