<?xml version="1.0" encoding="UTF-8" standalone="no"?>
<!DOCTYPE svg PUBLIC "-//W3C//DTD SVG 1.1//EN"
 "http://www.w3.org/Graphics/SVG/1.1/DTD/svg11.dtd">
<!-- Generated by graphviz version 2.38.0 (20140413.2041)
 -->
<!-- Title: System.Runtime.InteropServices._ParameterInfo Pages: 1 -->
<svg width="169pt" height="162pt"
 viewBox="0.00 0.00 169.00 162.00" xmlns="http://www.w3.org/2000/svg" xmlns:xlink="http://www.w3.org/1999/xlink">
<g id="graph0" class="graph" transform="scale(1 1) rotate(0) translate(4 158)">
<title>System.Runtime.InteropServices._ParameterInfo</title>
<!-- Node0 -->
<g id="node1" class="node"><title>Node0</title>
<g id="a_node1"><a xlink:title="Exposes the T:System.Reflection.ParameterInfo class to unmanaged code.">
<polygon fill="#bfbfbf" stroke="black" points="0,-123.5 0,-153.5 161,-153.5 161,-123.5 0,-123.5"/>
<text text-anchor="start" x="8" y="-141.5" font-family="Helvetica,sans-Serif" font-size="10.00">System.Runtime.InteropServices.</text>
<text text-anchor="middle" x="80.5" y="-130.5" font-family="Helvetica,sans-Serif" font-size="10.00">_ParameterInfo</text>
</a>
</g>
</g>
<!-- Node1 -->
<g id="node2" class="node"><title>Node1</title>
<g id="a_node2"><a xlink:href="class_system_1_1_reflection_1_1_parameter_info.html" target="_top" xlink:title="Discovers the attributes of a parameter and provides access to parameter metadata.">
<polygon fill="none" stroke="black" points="1,-67.5 1,-86.5 160,-86.5 160,-67.5 1,-67.5"/>
<text text-anchor="middle" x="80.5" y="-74.5" font-family="Helvetica,sans-Serif" font-size="10.00">System.Reflection.ParameterInfo</text>
</a>
</g>
</g>
<!-- Node0&#45;&gt;Node1 -->
<g id="edge1" class="edge"><title>Node0&#45;&gt;Node1</title>
<path fill="none" stroke="midnightblue" d="M80.5,-113.289C80.5,-103.857 80.5,-93.6548 80.5,-86.6578"/>
<polygon fill="midnightblue" stroke="midnightblue" points="77.0001,-113.399 80.5,-123.399 84.0001,-113.399 77.0001,-113.399"/>
</g>
<!-- Node2 -->
<g id="node3" class="node"><title>Node2</title>
<g id="a_node3"><a xlink:href="class_system_1_1_reflection_1_1_runtime_parameter_info.html" target="_top" xlink:title=" ">
<polygon fill="none" stroke="black" points="13,-0.5 13,-30.5 148,-30.5 148,-0.5 13,-0.5"/>
<text text-anchor="start" x="21" y="-18.5" font-family="Helvetica,sans-Serif" font-size="10.00">System.Reflection.Runtime</text>
<text text-anchor="middle" x="80.5" y="-7.5" font-family="Helvetica,sans-Serif" font-size="10.00">ParameterInfo</text>
</a>
</g>
</g>
<!-- Node1&#45;&gt;Node2 -->
<g id="edge2" class="edge"><title>Node1&#45;&gt;Node2</title>
<path fill="none" stroke="midnightblue" d="M80.5,-57.2349C80.5,-48.5864 80.5,-38.4969 80.5,-30.523"/>
<polygon fill="midnightblue" stroke="midnightblue" points="77.0001,-57.4751 80.5,-67.4751 84.0001,-57.4751 77.0001,-57.4751"/>
</g>
</g>
</svg>
