<?xml version="1.0" encoding="UTF-8" standalone="no"?>
<!DOCTYPE svg PUBLIC "-//W3C//DTD SVG 1.1//EN"
 "http://www.w3.org/Graphics/SVG/1.1/DTD/svg11.dtd">
<!-- Generated by graphviz version 2.38.0 (20140413.2041)
 -->
<!-- Title: System.Runtime.InteropServices.WindowsRuntime.IBindableVector Pages: 1 -->
<svg width="535pt" height="50pt"
 viewBox="0.00 0.00 535.00 50.00" xmlns="http://www.w3.org/2000/svg" xmlns:xlink="http://www.w3.org/1999/xlink">
<g id="graph0" class="graph" transform="scale(1 1) rotate(0) translate(4 46)">
<title>System.Runtime.InteropServices.WindowsRuntime.IBindableVector</title>
<!-- Node0 -->
<g id="node1" class="node"><title>Node0</title>
<g id="a_node1"><a xlink:title=" ">
<polygon fill="#bfbfbf" stroke="black" points="124,-6 124,-36 288,-36 288,-6 124,-6"/>
<text text-anchor="start" x="132" y="-24" font-family="Helvetica,sans-Serif" font-size="10.00">System.Runtime.InteropServices.</text>
<text text-anchor="middle" x="206" y="-13" font-family="Helvetica,sans-Serif" font-size="10.00">WindowsRuntime.IBindableVector</text>
</a>
</g>
</g>
<!-- Node2 -->
<g id="node3" class="node"><title>Node2</title>
<g id="a_node3"><a xlink:href="class_system_1_1_runtime_1_1_interop_services_1_1_windows_runtime_1_1_i_custom_property_provider_proxy.html" target="_top" xlink:title=" ">
<polygon fill="none" stroke="black" points="324,-0.5 324,-41.5 527,-41.5 527,-0.5 324,-0.5"/>
<text text-anchor="start" x="332" y="-29.5" font-family="Helvetica,sans-Serif" font-size="10.00">System.Runtime.InteropServices.</text>
<text text-anchor="start" x="332" y="-18.5" font-family="Helvetica,sans-Serif" font-size="10.00">WindowsRuntime.ICustomPropertyProvider</text>
<text text-anchor="middle" x="425.5" y="-7.5" font-family="Helvetica,sans-Serif" font-size="10.00">Proxy&lt; T1, T2 &gt;</text>
</a>
</g>
</g>
<!-- Node0&#45;&gt;Node2 -->
<g id="edge2" class="edge"><title>Node0&#45;&gt;Node2</title>
<path fill="none" stroke="midnightblue" d="M298.441,-21C306.824,-21 315.349,-21 323.808,-21"/>
<polygon fill="midnightblue" stroke="midnightblue" points="298.298,-17.5001 288.298,-21 298.298,-24.5001 298.298,-17.5001"/>
</g>
<!-- Node1 -->
<g id="node2" class="node"><title>Node1</title>
<g id="a_node2"><a xlink:href="interface_system_1_1_runtime_1_1_interop_services_1_1_windows_runtime_1_1_i_bindable_iterable.html" target="_top" xlink:title=" ">
<polygon fill="none" stroke="black" points="0,-11.5 0,-30.5 88,-30.5 88,-11.5 0,-11.5"/>
<text text-anchor="middle" x="44" y="-18.5" font-family="Helvetica,sans-Serif" font-size="10.00">IBindableIterable</text>
</a>
</g>
</g>
<!-- Node1&#45;&gt;Node0 -->
<g id="edge1" class="edge"><title>Node1&#45;&gt;Node0</title>
<path fill="none" stroke="midnightblue" d="M98.3903,-21C106.558,-21 115.142,-21 123.747,-21"/>
<polygon fill="midnightblue" stroke="midnightblue" points="98.2983,-17.5001 88.2983,-21 98.2983,-24.5001 98.2983,-17.5001"/>
</g>
</g>
</svg>
