<?xml version="1.0" encoding="UTF-8" standalone="no"?>
<!DOCTYPE svg PUBLIC "-//W3C//DTD SVG 1.1//EN"
 "http://www.w3.org/Graphics/SVG/1.1/DTD/svg11.dtd">
<!-- Generated by graphviz version 2.38.0 (20140413.2041)
 -->
<!-- Title: System.Security.IStackWalk Pages: 1 -->
<svg width="330pt" height="95pt"
 viewBox="0.00 0.00 330.00 95.00" xmlns="http://www.w3.org/2000/svg" xmlns:xlink="http://www.w3.org/1999/xlink">
<g id="graph0" class="graph" transform="scale(1 1) rotate(0) translate(4 91)">
<title>System.Security.IStackWalk</title>
<!-- Node0 -->
<g id="node1" class="node"><title>Node0</title>
<g id="a_node1"><a xlink:title="Manages the stack walk that determines whether all callers in the call stack have the required permis...">
<polygon fill="#bfbfbf" stroke="black" points="87.5,-67.5 87.5,-86.5 230.5,-86.5 230.5,-67.5 87.5,-67.5"/>
<text text-anchor="middle" x="159" y="-74.5" font-family="Helvetica,sans-Serif" font-size="10.00">System.Security.IStackWalk</text>
</a>
</g>
</g>
<!-- Node1 -->
<g id="node2" class="node"><title>Node1</title>
<g id="a_node2"><a xlink:href="class_system_1_1_security_1_1_code_access_permission.html" target="_top" xlink:title="Defines the underlying structure of all code access permissions.">
<polygon fill="none" stroke="red" points="0,-0.5 0,-30.5 148,-30.5 148,-0.5 0,-0.5"/>
<text text-anchor="start" x="8" y="-18.5" font-family="Helvetica,sans-Serif" font-size="10.00">System.Security.CodeAccess</text>
<text text-anchor="middle" x="74" y="-7.5" font-family="Helvetica,sans-Serif" font-size="10.00">Permission</text>
</a>
</g>
</g>
<!-- Node0&#45;&gt;Node1 -->
<g id="edge1" class="edge"><title>Node0&#45;&gt;Node1</title>
<path fill="none" stroke="midnightblue" d="M138.627,-61.739C125.118,-52.2824 107.472,-39.9304 94.0328,-30.523"/>
<polygon fill="midnightblue" stroke="midnightblue" points="136.622,-64.6078 146.822,-67.4751 140.636,-58.8731 136.622,-64.6078"/>
</g>
<!-- Node29 -->
<g id="node3" class="node"><title>Node29</title>
<g id="a_node3"><a xlink:href="class_system_1_1_security_1_1_permission_set.html" target="_top" xlink:title="Represents a collection that can contain many different types of permissions.">
<polygon fill="none" stroke="red" points="166,-6 166,-25 322,-25 322,-6 166,-6"/>
<text text-anchor="middle" x="244" y="-13" font-family="Helvetica,sans-Serif" font-size="10.00">System.Security.PermissionSet</text>
</a>
</g>
</g>
<!-- Node0&#45;&gt;Node29 -->
<g id="edge2" class="edge"><title>Node0&#45;&gt;Node29</title>
<path fill="none" stroke="midnightblue" d="M179.553,-61.6127C195.901,-50.1691 218.22,-34.546 231.844,-25.0091"/>
<polygon fill="midnightblue" stroke="midnightblue" points="177.364,-58.8731 171.178,-67.4751 181.378,-64.6078 177.364,-58.8731"/>
</g>
</g>
</svg>
