<?xml version="1.0" encoding="UTF-8" standalone="no"?>
<!DOCTYPE svg PUBLIC "-//W3C//DTD SVG 1.1//EN"
 "http://www.w3.org/Graphics/SVG/1.1/DTD/svg11.dtd">
<!-- Generated by graphviz version 2.38.0 (20140413.2041)
 -->
<!-- Title: System.Runtime.Remoting.Channels.IServerChannelSinkStack Pages: 1 -->
<svg width="178pt" height="173pt"
 viewBox="0.00 0.00 178.00 173.00" xmlns="http://www.w3.org/2000/svg" xmlns:xlink="http://www.w3.org/1999/xlink">
<g id="graph0" class="graph" transform="scale(1 1) rotate(0) translate(4 169)">
<title>System.Runtime.Remoting.Channels.IServerChannelSinkStack</title>
<!-- Node0 -->
<g id="node1" class="node"><title>Node0</title>
<g id="a_node1"><a xlink:title="Provides the stack functionality for a stack of server channel sinks.">
<polygon fill="#bfbfbf" stroke="black" points="0,-67.5 0,-97.5 170,-97.5 170,-67.5 0,-67.5"/>
<text text-anchor="start" x="8" y="-85.5" font-family="Helvetica,sans-Serif" font-size="10.00">System.Runtime.Remoting.</text>
<text text-anchor="middle" x="85" y="-74.5" font-family="Helvetica,sans-Serif" font-size="10.00">Channels.IServerChannelSinkStack</text>
</a>
</g>
</g>
<!-- Node2 -->
<g id="node3" class="node"><title>Node2</title>
<g id="a_node3"><a xlink:href="class_system_1_1_runtime_1_1_remoting_1_1_channels_1_1_server_channel_sink_stack.html" target="_top" xlink:title="Holds the stack of server channel sinks.">
<polygon fill="none" stroke="black" points="1.5,-0.5 1.5,-30.5 168.5,-30.5 168.5,-0.5 1.5,-0.5"/>
<text text-anchor="start" x="9.5" y="-18.5" font-family="Helvetica,sans-Serif" font-size="10.00">System.Runtime.Remoting.</text>
<text text-anchor="middle" x="85" y="-7.5" font-family="Helvetica,sans-Serif" font-size="10.00">Channels.ServerChannelSinkStack</text>
</a>
</g>
</g>
<!-- Node0&#45;&gt;Node2 -->
<g id="edge2" class="edge"><title>Node0&#45;&gt;Node2</title>
<path fill="none" stroke="midnightblue" d="M85,-57.1081C85,-48.1539 85,-38.3227 85,-30.5765"/>
<polygon fill="midnightblue" stroke="midnightblue" points="81.5001,-57.3959 85,-67.396 88.5001,-57.396 81.5001,-57.3959"/>
</g>
<!-- Node1 -->
<g id="node2" class="node"><title>Node1</title>
<g id="a_node2"><a xlink:href="interface_system_1_1_runtime_1_1_remoting_1_1_channels_1_1_i_server_response_channel_sink_stack.html" target="_top" xlink:title="Provides the stack functionality for a stack of server response channel sinks.">
<polygon fill="none" stroke="black" points="13,-134.5 13,-164.5 157,-164.5 157,-134.5 13,-134.5"/>
<text text-anchor="start" x="21" y="-152.5" font-family="Helvetica,sans-Serif" font-size="10.00">IServerResponseChannelSink</text>
<text text-anchor="middle" x="85" y="-141.5" font-family="Helvetica,sans-Serif" font-size="10.00">Stack</text>
</a>
</g>
</g>
<!-- Node1&#45;&gt;Node0 -->
<g id="edge1" class="edge"><title>Node1&#45;&gt;Node0</title>
<path fill="none" stroke="midnightblue" d="M85,-124.108C85,-115.154 85,-105.323 85,-97.5765"/>
<polygon fill="midnightblue" stroke="midnightblue" points="81.5001,-124.396 85,-134.396 88.5001,-124.396 81.5001,-124.396"/>
</g>
</g>
</svg>
