<?xml version="1.0" encoding="UTF-8" standalone="no"?>
<!DOCTYPE svg PUBLIC "-//W3C//DTD SVG 1.1//EN"
 "http://www.w3.org/Graphics/SVG/1.1/DTD/svg11.dtd">
<!-- Generated by graphviz version 2.38.0 (20140413.2041)
 -->
<!-- Title: System.Runtime.Remoting.Contexts.IContextAttribute Pages: 1 -->
<svg width="318pt" height="88pt"
 viewBox="0.00 0.00 318.00 88.00" xmlns="http://www.w3.org/2000/svg" xmlns:xlink="http://www.w3.org/1999/xlink">
<g id="graph0" class="graph" transform="scale(1 1) rotate(0) translate(4 84)">
<title>System.Runtime.Remoting.Contexts.IContextAttribute</title>
<!-- Node0 -->
<g id="node1" class="node"><title>Node0</title>
<g id="a_node1"><a xlink:title="Identifies a context attribute.">
<polygon fill="#bfbfbf" stroke="black" points="0,-24.5 0,-54.5 137,-54.5 137,-24.5 0,-24.5"/>
<text text-anchor="start" x="8" y="-42.5" font-family="Helvetica,sans-Serif" font-size="10.00">System.Runtime.Remoting.</text>
<text text-anchor="middle" x="68.5" y="-31.5" font-family="Helvetica,sans-Serif" font-size="10.00">Contexts.IContextAttribute</text>
</a>
</g>
</g>
<!-- Node1 -->
<g id="node2" class="node"><title>Node1</title>
<g id="a_node2"><a xlink:href="class_system_1_1_runtime_1_1_remoting_1_1_contexts_1_1_context_attribute.html" target="_top" xlink:title="Provides the default implementations of the T:System.Runtime.Remoting.Contexts.IContextAttribute and ...">
<polygon fill="none" stroke="red" points="173,-49.5 173,-79.5 310,-79.5 310,-49.5 173,-49.5"/>
<text text-anchor="start" x="181" y="-67.5" font-family="Helvetica,sans-Serif" font-size="10.00">System.Runtime.Remoting.</text>
<text text-anchor="middle" x="241.5" y="-56.5" font-family="Helvetica,sans-Serif" font-size="10.00">Contexts.ContextAttribute</text>
</a>
</g>
</g>
<!-- Node0&#45;&gt;Node1 -->
<g id="edge1" class="edge"><title>Node0&#45;&gt;Node1</title>
<path fill="none" stroke="midnightblue" d="M147.1,-50.845C155.692,-52.1012 164.391,-53.373 172.847,-54.6092"/>
<polygon fill="midnightblue" stroke="midnightblue" points="147.485,-47.3642 137.084,-49.3807 146.472,-54.2905 147.485,-47.3642"/>
</g>
<!-- Node4 -->
<g id="node3" class="node"><title>Node4</title>
<g id="a_node3"><a xlink:href="class_system_1_1_runtime_1_1_remoting_1_1_proxies_1_1_proxy_attribute.html" target="_top" xlink:title="Indicates that an object type requires a custom proxy.">
<polygon fill="none" stroke="black" points="173,-0.5 173,-30.5 310,-30.5 310,-0.5 173,-0.5"/>
<text text-anchor="start" x="181" y="-18.5" font-family="Helvetica,sans-Serif" font-size="10.00">System.Runtime.Remoting.</text>
<text text-anchor="middle" x="241.5" y="-7.5" font-family="Helvetica,sans-Serif" font-size="10.00">Proxies.ProxyAttribute</text>
</a>
</g>
</g>
<!-- Node0&#45;&gt;Node4 -->
<g id="edge2" class="edge"><title>Node0&#45;&gt;Node4</title>
<path fill="none" stroke="midnightblue" d="M147.1,-28.6088C155.692,-27.4029 164.391,-26.1819 172.847,-24.9951"/>
<polygon fill="midnightblue" stroke="midnightblue" points="146.5,-25.1586 137.084,-30.0146 147.473,-32.0906 146.5,-25.1586"/>
</g>
</g>
</svg>
