<?xml version="1.0" encoding="UTF-8" standalone="no"?>
<!DOCTYPE svg PUBLIC "-//W3C//DTD SVG 1.1//EN"
 "http://www.w3.org/Graphics/SVG/1.1/DTD/svg11.dtd">
<!-- Generated by graphviz version 2.38.0 (20140413.2041)
 -->
<!-- Title: System.Runtime.Remoting.Metadata.W3cXsd2001.ISoapXsd Pages: 1 -->
<!--zoomable 1481 -->
<svg id="main" version="1.1" xmlns="http://www.w3.org/2000/svg" xmlns:xlink="http://www.w3.org/1999/xlink" xml:space="preserve" onload="init(evt)">
<style type="text/css"><![CDATA[
.edge:hover path { stroke: red; }
.edge:hover polygon { stroke: red; fill: red; }
]]></style>
<script type="text/javascript"><![CDATA[
var edges = document.getElementsByTagName('g');
if (edges && edges.length) {
  for (var i=0;i<edges.length;i++) {
    if (edges[i].id.substr(0,4)=='edge') {
      edges[i].setAttribute('class','edge');
    }
  }
}
]]></script>
        <defs>
                <circle id="rim" cx="0" cy="0" r="7"/>
                <circle id="rim2" cx="0" cy="0" r="3.5"/>
                <g id="zoomPlus">
                        <use xlink:href="#rim" fill="#404040">
                                <set attributeName="fill" to="#808080" begin="zoomplus.mouseover" end="zoomplus.mouseout"/>
                        </use>
                        <path d="M-4,0h8M0,-4v8" fill="none" stroke="white" stroke-width="1.5" pointer-events="none"/>
                </g>
                <g id="zoomMin">
                        <use xlink:href="#rim" fill="#404040">
                                <set attributeName="fill" to="#808080" begin="zoomminus.mouseover" end="zoomminus.mouseout"/>
                        </use>
                        <path d="M-4,0h8" fill="none" stroke="white" stroke-width="1.5" pointer-events="none"/>
                </g>
                <g id="dirArrow">
                        <path fill="none" stroke="white" stroke-width="1.5" d="M0,-3.0v7 M-2.5,-0.5L0,-3.0L2.5,-0.5"/>
                </g>
               <g id="resetDef">
                       <use xlink:href="#rim2" fill="#404040">
                               <set attributeName="fill" to="#808080" begin="reset.mouseover" end="reset.mouseout"/>
                       </use>
               </g>
        </defs>

<script type="text/javascript">
var viewWidth = 402;
var viewHeight = 1481;
var sectionId = 'dynsection-0';
</script>
<script xlink:href="svgpan.js"/>
<svg id="graph" class="graph">
<g id="viewport">
<title>System.Runtime.Remoting.Metadata.W3cXsd2001.ISoapXsd</title>
<!-- Node0 -->
<g id="node1" class="node"><title>Node0</title>
<g id="a_node1"><a xlink:title="Provides access to the XML Schema definition language (XSD) of a SOAP type.">
<polygon fill="#bfbfbf" stroke="black" points="0,-744.5 0,-774.5 161,-774.5 161,-744.5 0,-744.5"/>
<text text-anchor="start" x="8" y="-762.5" font-family="Helvetica,sans-Serif" font-size="10.00">System.Runtime.Remoting.</text>
<text text-anchor="middle" x="80.5" y="-751.5" font-family="Helvetica,sans-Serif" font-size="10.00">Metadata.W3cXsd2001.ISoapXsd</text>
</a>
</g>
</g>
<!-- Node1 -->
<g id="node2" class="node"><title>Node1</title>
<g id="a_node2"><a xlink:href="class_system_1_1_runtime_1_1_remoting_1_1_metadata_1_1_w3c_xsd2001_1_1_soap_any_uri.html" target="_top" xlink:title="Wraps an XSD anyURI type.">
<polygon fill="none" stroke="black" points="209.5,-1442.5 209.5,-1472.5 381.5,-1472.5 381.5,-1442.5 209.5,-1442.5"/>
<text text-anchor="start" x="217.5" y="-1460.5" font-family="Helvetica,sans-Serif" font-size="10.00">System.Runtime.Remoting.</text>
<text text-anchor="middle" x="295.5" y="-1449.5" font-family="Helvetica,sans-Serif" font-size="10.00">Metadata.W3cXsd2001.SoapAnyUri</text>
</a>
</g>
</g>
<!-- Node0&#45;&gt;Node1 -->
<g id="edge1" class="edge"><title>Node0&#45;&gt;Node1</title>
<path fill="none" stroke="midnightblue" d="M82.2787,-784.829C86.1948,-895.473 107.264,-1335.18 197,-1432.5 200.672,-1436.48 204.885,-1439.87 209.453,-1442.74"/>
<polygon fill="midnightblue" stroke="midnightblue" points="85.7695,-784.497 81.9338,-774.621 78.7735,-784.734 85.7695,-784.497"/>
</g>
<!-- Node2 -->
<g id="node3" class="node"><title>Node2</title>
<g id="a_node3"><a xlink:href="class_system_1_1_runtime_1_1_remoting_1_1_metadata_1_1_w3c_xsd2001_1_1_soap_base64_binary.html" target="_top" xlink:title="Wraps an XSD base64Binary type.">
<polygon fill="none" stroke="black" points="207.5,-1382 207.5,-1423 383.5,-1423 383.5,-1382 207.5,-1382"/>
<text text-anchor="start" x="215.5" y="-1411" font-family="Helvetica,sans-Serif" font-size="10.00">System.Runtime.Remoting.</text>
<text text-anchor="start" x="215.5" y="-1400" font-family="Helvetica,sans-Serif" font-size="10.00">Metadata.W3cXsd2001.SoapBase64</text>
<text text-anchor="middle" x="295.5" y="-1389" font-family="Helvetica,sans-Serif" font-size="10.00">Binary</text>
</a>
</g>
</g>
<!-- Node0&#45;&gt;Node2 -->
<g id="edge2" class="edge"><title>Node0&#45;&gt;Node2</title>
<path fill="none" stroke="midnightblue" d="M82.8591,-784.782C88.9491,-888.87 117.02,-1283 197,-1372.5 200.186,-1376.07 203.785,-1379.21 207.674,-1381.99"/>
<polygon fill="midnightblue" stroke="midnightblue" points="86.3415,-784.373 82.2794,-774.588 79.3528,-784.77 86.3415,-784.373"/>
</g>
<!-- Node3 -->
<g id="node4" class="node"><title>Node3</title>
<g id="a_node4"><a xlink:href="class_system_1_1_runtime_1_1_remoting_1_1_metadata_1_1_w3c_xsd2001_1_1_soap_date.html" target="_top" xlink:title="Wraps an XSD date type.">
<polygon fill="none" stroke="black" points="214,-1332.5 214,-1362.5 377,-1362.5 377,-1332.5 214,-1332.5"/>
<text text-anchor="start" x="222" y="-1350.5" font-family="Helvetica,sans-Serif" font-size="10.00">System.Runtime.Remoting.</text>
<text text-anchor="middle" x="295.5" y="-1339.5" font-family="Helvetica,sans-Serif" font-size="10.00">Metadata.W3cXsd2001.SoapDate</text>
</a>
</g>
</g>
<!-- Node0&#45;&gt;Node3 -->
<g id="edge3" class="edge"><title>Node0&#45;&gt;Node3</title>
<path fill="none" stroke="midnightblue" d="M83.1642,-784.768C90.1975,-883.826 120.713,-1244.15 197,-1323.5 201.833,-1328.53 207.535,-1332.57 213.719,-1335.81"/>
<polygon fill="midnightblue" stroke="midnightblue" points="86.6364,-784.244 82.4544,-774.51 79.6531,-784.727 86.6364,-784.244"/>
</g>
<!-- Node4 -->
<g id="node5" class="node"><title>Node4</title>
<g id="a_node5"><a xlink:href="class_system_1_1_runtime_1_1_remoting_1_1_metadata_1_1_w3c_xsd2001_1_1_soap_day.html" target="_top" xlink:title="Wraps an XSD gDay type.">
<polygon fill="none" stroke="black" points="215.5,-1283.5 215.5,-1313.5 375.5,-1313.5 375.5,-1283.5 215.5,-1283.5"/>
<text text-anchor="start" x="223.5" y="-1301.5" font-family="Helvetica,sans-Serif" font-size="10.00">System.Runtime.Remoting.</text>
<text text-anchor="middle" x="295.5" y="-1290.5" font-family="Helvetica,sans-Serif" font-size="10.00">Metadata.W3cXsd2001.SoapDay</text>
</a>
</g>
</g>
<!-- Node0&#45;&gt;Node4 -->
<g id="edge4" class="edge"><title>Node0&#45;&gt;Node4</title>
<path fill="none" stroke="midnightblue" d="M83.6885,-784.689C92.3075,-878.094 126.921,-1202.95 197,-1274.5 202.245,-1279.86 208.479,-1284.09 215.222,-1287.43"/>
<polygon fill="midnightblue" stroke="midnightblue" points="87.1729,-784.357 82.7864,-774.713 80.2013,-784.987 87.1729,-784.357"/>
</g>
<!-- Node5 -->
<g id="node6" class="node"><title>Node5</title>
<g id="a_node6"><a xlink:href="class_system_1_1_runtime_1_1_remoting_1_1_metadata_1_1_w3c_xsd2001_1_1_soap_entities.html" target="_top" xlink:title="Wraps an XML ENTITIES attribute.">
<polygon fill="none" stroke="black" points="207.5,-1234.5 207.5,-1264.5 383.5,-1264.5 383.5,-1234.5 207.5,-1234.5"/>
<text text-anchor="start" x="215.5" y="-1252.5" font-family="Helvetica,sans-Serif" font-size="10.00">System.Runtime.Remoting.</text>
<text text-anchor="middle" x="295.5" y="-1241.5" font-family="Helvetica,sans-Serif" font-size="10.00">Metadata.W3cXsd2001.SoapEntities</text>
</a>
</g>
</g>
<!-- Node0&#45;&gt;Node5 -->
<g id="edge5" class="edge"><title>Node0&#45;&gt;Node5</title>
<path fill="none" stroke="midnightblue" d="M84.3761,-785.11C94.7772,-873.203 133.222,-1161.82 197,-1225.5 200.331,-1228.83 204.044,-1231.72 208.021,-1234.23"/>
<polygon fill="midnightblue" stroke="midnightblue" points="87.8255,-784.47 83.1957,-774.94 80.8722,-785.277 87.8255,-784.47"/>
</g>
<!-- Node6 -->
<g id="node7" class="node"><title>Node6</title>
<g id="a_node7"><a xlink:href="class_system_1_1_runtime_1_1_remoting_1_1_metadata_1_1_w3c_xsd2001_1_1_soap_entity.html" target="_top" xlink:title="Wraps an XML ENTITY attribute.">
<polygon fill="none" stroke="black" points="211.5,-1185.5 211.5,-1215.5 379.5,-1215.5 379.5,-1185.5 211.5,-1185.5"/>
<text text-anchor="start" x="219.5" y="-1203.5" font-family="Helvetica,sans-Serif" font-size="10.00">System.Runtime.Remoting.</text>
<text text-anchor="middle" x="295.5" y="-1192.5" font-family="Helvetica,sans-Serif" font-size="10.00">Metadata.W3cXsd2001.SoapEntity</text>
</a>
</g>
</g>
<!-- Node0&#45;&gt;Node6 -->
<g id="edge6" class="edge"><title>Node0&#45;&gt;Node6</title>
<path fill="none" stroke="midnightblue" d="M85.1619,-785.038C97.3973,-866.873 139.366,-1120.5 197,-1176.5 201.251,-1180.63 206.093,-1184.09 211.293,-1186.98"/>
<polygon fill="midnightblue" stroke="midnightblue" points="88.5545,-784.053 83.6342,-774.67 81.6293,-785.073 88.5545,-784.053"/>
</g>
<!-- Node7 -->
<g id="node8" class="node"><title>Node7</title>
<g id="a_node8"><a xlink:href="class_system_1_1_runtime_1_1_remoting_1_1_metadata_1_1_w3c_xsd2001_1_1_soap_hex_binary.html" target="_top" xlink:title="Wraps an XSD hexBinary type.">
<polygon fill="none" stroke="black" points="201.5,-1136.5 201.5,-1166.5 389.5,-1166.5 389.5,-1136.5 201.5,-1136.5"/>
<text text-anchor="start" x="209.5" y="-1154.5" font-family="Helvetica,sans-Serif" font-size="10.00">System.Runtime.Remoting.</text>
<text text-anchor="middle" x="295.5" y="-1143.5" font-family="Helvetica,sans-Serif" font-size="10.00">Metadata.W3cXsd2001.SoapHexBinary</text>
</a>
</g>
</g>
<!-- Node0&#45;&gt;Node7 -->
<g id="edge7" class="edge"><title>Node0&#45;&gt;Node7</title>
<path fill="none" stroke="midnightblue" d="M81.4792,-784.834C82.8676,-851.44 96.2023,-1032.84 197,-1127.5 200.558,-1130.84 204.504,-1133.74 208.711,-1136.25"/>
<polygon fill="midnightblue" stroke="midnightblue" points="84.9787,-784.765 81.3454,-774.812 77.9793,-784.858 84.9787,-784.765"/>
</g>
<!-- Node8 -->
<g id="node9" class="node"><title>Node8</title>
<g id="a_node9"><a xlink:href="class_system_1_1_runtime_1_1_remoting_1_1_metadata_1_1_w3c_xsd2001_1_1_soap_id.html" target="_top" xlink:title="Wraps an XML ID attribute.">
<polygon fill="none" stroke="black" points="220.5,-1087.5 220.5,-1117.5 370.5,-1117.5 370.5,-1087.5 220.5,-1087.5"/>
<text text-anchor="start" x="228.5" y="-1105.5" font-family="Helvetica,sans-Serif" font-size="10.00">System.Runtime.Remoting.</text>
<text text-anchor="middle" x="295.5" y="-1094.5" font-family="Helvetica,sans-Serif" font-size="10.00">Metadata.W3cXsd2001.SoapId</text>
</a>
</g>
</g>
<!-- Node0&#45;&gt;Node8 -->
<g id="edge8" class="edge"><title>Node0&#45;&gt;Node8</title>
<path fill="none" stroke="midnightblue" d="M82.8783,-784.69C87.5857,-845.002 108.147,-998.602 197,-1078.5 203.74,-1084.56 211.765,-1089.15 220.275,-1092.62"/>
<polygon fill="midnightblue" stroke="midnightblue" points="86.3586,-784.285 82.1709,-774.553 79.3756,-784.773 86.3586,-784.285"/>
</g>
<!-- Node9 -->
<g id="node10" class="node"><title>Node9</title>
<g id="a_node10"><a xlink:href="class_system_1_1_runtime_1_1_remoting_1_1_metadata_1_1_w3c_xsd2001_1_1_soap_idref.html" target="_top" xlink:title="Wraps an XML IDREFS attribute.">
<polygon fill="none" stroke="black" points="215,-1038.5 215,-1068.5 376,-1068.5 376,-1038.5 215,-1038.5"/>
<text text-anchor="start" x="223" y="-1056.5" font-family="Helvetica,sans-Serif" font-size="10.00">System.Runtime.Remoting.</text>
<text text-anchor="middle" x="295.5" y="-1045.5" font-family="Helvetica,sans-Serif" font-size="10.00">Metadata.W3cXsd2001.SoapIdref</text>
</a>
</g>
</g>
<!-- Node0&#45;&gt;Node9 -->
<g id="edge9" class="edge"><title>Node0&#45;&gt;Node9</title>
<path fill="none" stroke="midnightblue" d="M84.7664,-784.844C93.0749,-838.546 120.1,-964.205 197,-1029.5 202.315,-1034.01 208.35,-1037.7 214.749,-1040.71"/>
<polygon fill="midnightblue" stroke="midnightblue" points="88.2102,-784.203 83.3055,-774.812 81.2833,-785.212 88.2102,-784.203"/>
</g>
<!-- Node10 -->
<g id="node11" class="node"><title>Node10</title>
<g id="a_node11"><a xlink:href="class_system_1_1_runtime_1_1_remoting_1_1_metadata_1_1_w3c_xsd2001_1_1_soap_idrefs.html" target="_top" xlink:title="Wraps an XML IDREFS attribute.">
<polygon fill="none" stroke="black" points="212.5,-989.5 212.5,-1019.5 378.5,-1019.5 378.5,-989.5 212.5,-989.5"/>
<text text-anchor="start" x="220.5" y="-1007.5" font-family="Helvetica,sans-Serif" font-size="10.00">System.Runtime.Remoting.</text>
<text text-anchor="middle" x="295.5" y="-996.5" font-family="Helvetica,sans-Serif" font-size="10.00">Metadata.W3cXsd2001.SoapIdrefs</text>
</a>
</g>
</g>
<!-- Node0&#45;&gt;Node10 -->
<g id="edge10" class="edge"><title>Node0&#45;&gt;Node10</title>
<path fill="none" stroke="midnightblue" d="M87.2777,-784.381C99.3203,-830.491 131.592,-929.18 197,-980.5 201.663,-984.159 206.807,-987.269 212.223,-989.912"/>
<polygon fill="midnightblue" stroke="midnightblue" points="90.6546,-783.458 84.8257,-774.611 83.8651,-785.162 90.6546,-783.458"/>
</g>
<!-- Node11 -->
<g id="node12" class="node"><title>Node11</title>
<g id="a_node12"><a xlink:href="class_system_1_1_runtime_1_1_remoting_1_1_metadata_1_1_w3c_xsd2001_1_1_soap_integer.html" target="_top" xlink:title="Wraps an XSD integer type.">
<polygon fill="none" stroke="black" points="209.5,-940.5 209.5,-970.5 381.5,-970.5 381.5,-940.5 209.5,-940.5"/>
<text text-anchor="start" x="217.5" y="-958.5" font-family="Helvetica,sans-Serif" font-size="10.00">System.Runtime.Remoting.</text>
<text text-anchor="middle" x="295.5" y="-947.5" font-family="Helvetica,sans-Serif" font-size="10.00">Metadata.W3cXsd2001.SoapInteger</text>
</a>
</g>
</g>
<!-- Node0&#45;&gt;Node11 -->
<g id="edge11" class="edge"><title>Node0&#45;&gt;Node11</title>
<path fill="none" stroke="midnightblue" d="M91.211,-784.394C107.292,-822.237 143.118,-893.809 197,-931.5 201.857,-934.897 207.143,-937.816 212.66,-940.322"/>
<polygon fill="midnightblue" stroke="midnightblue" points="94.2492,-782.581 87.2004,-774.671 87.7781,-785.25 94.2492,-782.581"/>
</g>
<!-- Node12 -->
<g id="node13" class="node"><title>Node12</title>
<g id="a_node13"><a xlink:href="class_system_1_1_runtime_1_1_remoting_1_1_metadata_1_1_w3c_xsd2001_1_1_soap_language.html" target="_top" xlink:title="Wraps an XML language type.">
<polygon fill="none" stroke="black" points="203,-891.5 203,-921.5 388,-921.5 388,-891.5 203,-891.5"/>
<text text-anchor="start" x="211" y="-909.5" font-family="Helvetica,sans-Serif" font-size="10.00">System.Runtime.Remoting.</text>
<text text-anchor="middle" x="295.5" y="-898.5" font-family="Helvetica,sans-Serif" font-size="10.00">Metadata.W3cXsd2001.SoapLanguage</text>
</a>
</g>
</g>
<!-- Node0&#45;&gt;Node12 -->
<g id="edge12" class="edge"><title>Node0&#45;&gt;Node12</title>
<path fill="none" stroke="midnightblue" d="M97.1017,-783.038C116.948,-811.077 153.874,-857.284 197,-882.5 202.944,-885.976 209.375,-888.95 216.002,-891.495"/>
<polygon fill="midnightblue" stroke="midnightblue" points="99.8435,-780.85 91.2719,-774.623 94.0893,-784.836 99.8435,-780.85"/>
</g>
<!-- Node13 -->
<g id="node14" class="node"><title>Node13</title>
<g id="a_node14"><a xlink:href="class_system_1_1_runtime_1_1_remoting_1_1_metadata_1_1_w3c_xsd2001_1_1_soap_month.html" target="_top" xlink:title="Wraps an XSD gMonth type.">
<polygon fill="none" stroke="black" points="210.5,-842.5 210.5,-872.5 380.5,-872.5 380.5,-842.5 210.5,-842.5"/>
<text text-anchor="start" x="218.5" y="-860.5" font-family="Helvetica,sans-Serif" font-size="10.00">System.Runtime.Remoting.</text>
<text text-anchor="middle" x="295.5" y="-849.5" font-family="Helvetica,sans-Serif" font-size="10.00">Metadata.W3cXsd2001.SoapMonth</text>
</a>
</g>
</g>
<!-- Node0&#45;&gt;Node13 -->
<g id="edge13" class="edge"><title>Node0&#45;&gt;Node13</title>
<path fill="none" stroke="midnightblue" d="M108.901,-780.744C131.435,-797.279 164.79,-819.669 197,-833.5 204.929,-836.905 213.437,-839.89 222.004,-842.491"/>
<polygon fill="midnightblue" stroke="midnightblue" points="110.93,-777.891 100.82,-774.724 106.748,-783.505 110.93,-777.891"/>
</g>
<!-- Node14 -->
<g id="node15" class="node"><title>Node14</title>
<g id="a_node15"><a xlink:href="class_system_1_1_runtime_1_1_remoting_1_1_metadata_1_1_w3c_xsd2001_1_1_soap_month_day.html" target="_top" xlink:title="Wraps an XSD gMonthDay type.">
<polygon fill="none" stroke="black" points="202,-793.5 202,-823.5 389,-823.5 389,-793.5 202,-793.5"/>
<text text-anchor="start" x="210" y="-811.5" font-family="Helvetica,sans-Serif" font-size="10.00">System.Runtime.Remoting.</text>
<text text-anchor="middle" x="295.5" y="-800.5" font-family="Helvetica,sans-Serif" font-size="10.00">Metadata.W3cXsd2001.SoapMonthDay</text>
</a>
</g>
</g>
<!-- Node0&#45;&gt;Node14 -->
<g id="edge14" class="edge"><title>Node0&#45;&gt;Node14</title>
<path fill="none" stroke="midnightblue" d="M156.837,-776.831C180.485,-782.271 206.381,-788.229 229.269,-793.494"/>
<polygon fill="midnightblue" stroke="midnightblue" points="157.385,-773.366 146.855,-774.535 155.815,-780.188 157.385,-773.366"/>
</g>
<!-- Node15 -->
<g id="node16" class="node"><title>Node15</title>
<g id="a_node16"><a xlink:href="class_system_1_1_runtime_1_1_remoting_1_1_metadata_1_1_w3c_xsd2001_1_1_soap_name.html" target="_top" xlink:title="Wraps an XML Name type.">
<polygon fill="none" stroke="black" points="211.5,-744.5 211.5,-774.5 379.5,-774.5 379.5,-744.5 211.5,-744.5"/>
<text text-anchor="start" x="219.5" y="-762.5" font-family="Helvetica,sans-Serif" font-size="10.00">System.Runtime.Remoting.</text>
<text text-anchor="middle" x="295.5" y="-751.5" font-family="Helvetica,sans-Serif" font-size="10.00">Metadata.W3cXsd2001.SoapName</text>
</a>
</g>
</g>
<!-- Node0&#45;&gt;Node15 -->
<g id="edge15" class="edge"><title>Node0&#45;&gt;Node15</title>
<path fill="none" stroke="midnightblue" d="M171.224,-759.5C184.552,-759.5 198.239,-759.5 211.423,-759.5"/>
<polygon fill="midnightblue" stroke="midnightblue" points="171.116,-756 161.116,-759.5 171.116,-763 171.116,-756"/>
</g>
<!-- Node16 -->
<g id="node17" class="node"><title>Node16</title>
<g id="a_node17"><a xlink:href="class_system_1_1_runtime_1_1_remoting_1_1_metadata_1_1_w3c_xsd2001_1_1_soap_nc_name.html" target="_top" xlink:title="Wraps an XML NcName type.">
<polygon fill="none" stroke="black" points="205.5,-695.5 205.5,-725.5 385.5,-725.5 385.5,-695.5 205.5,-695.5"/>
<text text-anchor="start" x="213.5" y="-713.5" font-family="Helvetica,sans-Serif" font-size="10.00">System.Runtime.Remoting.</text>
<text text-anchor="middle" x="295.5" y="-702.5" font-family="Helvetica,sans-Serif" font-size="10.00">Metadata.W3cXsd2001.SoapNcName</text>
</a>
</g>
</g>
<!-- Node0&#45;&gt;Node16 -->
<g id="edge16" class="edge"><title>Node0&#45;&gt;Node16</title>
<path fill="none" stroke="midnightblue" d="M156.837,-742.169C180.485,-736.729 206.381,-730.771 229.269,-725.506"/>
<polygon fill="midnightblue" stroke="midnightblue" points="155.815,-738.812 146.855,-744.465 157.385,-745.634 155.815,-738.812"/>
</g>
<!-- Node17 -->
<g id="node18" class="node"><title>Node17</title>
<g id="a_node18"><a xlink:href="class_system_1_1_runtime_1_1_remoting_1_1_metadata_1_1_w3c_xsd2001_1_1_soap_negative_integer.html" target="_top" xlink:title="Wraps an XSD negativeInteger type.">
<polygon fill="none" stroke="black" points="206,-635 206,-676 385,-676 385,-635 206,-635"/>
<text text-anchor="start" x="214" y="-664" font-family="Helvetica,sans-Serif" font-size="10.00">System.Runtime.Remoting.</text>
<text text-anchor="start" x="214" y="-653" font-family="Helvetica,sans-Serif" font-size="10.00">Metadata.W3cXsd2001.SoapNegative</text>
<text text-anchor="middle" x="295.5" y="-642" font-family="Helvetica,sans-Serif" font-size="10.00">Integer</text>
</a>
</g>
</g>
<!-- Node0&#45;&gt;Node17 -->
<g id="edge17" class="edge"><title>Node0&#45;&gt;Node17</title>
<path fill="none" stroke="midnightblue" d="M110.028,-738.556C132.714,-722.635 165.727,-701.06 197,-686.5 205.132,-682.714 213.849,-679.215 222.605,-676.038"/>
<polygon fill="midnightblue" stroke="midnightblue" points="107.99,-735.71 101.865,-744.355 112.044,-741.417 107.99,-735.71"/>
</g>
<!-- Node18 -->
<g id="node19" class="node"><title>Node18</title>
<g id="a_node19"><a xlink:href="class_system_1_1_runtime_1_1_remoting_1_1_metadata_1_1_w3c_xsd2001_1_1_soap_nmtoken.html" target="_top" xlink:title="Wraps an XML NMTOKEN attribute.">
<polygon fill="none" stroke="black" points="204.5,-585.5 204.5,-615.5 386.5,-615.5 386.5,-585.5 204.5,-585.5"/>
<text text-anchor="start" x="212.5" y="-603.5" font-family="Helvetica,sans-Serif" font-size="10.00">System.Runtime.Remoting.</text>
<text text-anchor="middle" x="295.5" y="-592.5" font-family="Helvetica,sans-Serif" font-size="10.00">Metadata.W3cXsd2001.SoapNmtoken</text>
</a>
</g>
</g>
<!-- Node0&#45;&gt;Node18 -->
<g id="edge18" class="edge"><title>Node0&#45;&gt;Node18</title>
<path fill="none" stroke="midnightblue" d="M95.481,-735.733C114.549,-705.451 151.586,-653.67 197,-625.5 203.237,-621.631 210.052,-618.359 217.087,-615.592"/>
<polygon fill="midnightblue" stroke="midnightblue" points="92.4131,-734.04 90.151,-744.391 98.374,-737.71 92.4131,-734.04"/>
</g>
<!-- Node19 -->
<g id="node20" class="node"><title>Node19</title>
<g id="a_node20"><a xlink:href="class_system_1_1_runtime_1_1_remoting_1_1_metadata_1_1_w3c_xsd2001_1_1_soap_nmtokens.html" target="_top" xlink:title="Wraps an XML NMTOKENS attribute.">
<polygon fill="none" stroke="black" points="202,-536.5 202,-566.5 389,-566.5 389,-536.5 202,-536.5"/>
<text text-anchor="start" x="210" y="-554.5" font-family="Helvetica,sans-Serif" font-size="10.00">System.Runtime.Remoting.</text>
<text text-anchor="middle" x="295.5" y="-543.5" font-family="Helvetica,sans-Serif" font-size="10.00">Metadata.W3cXsd2001.SoapNmtokens</text>
</a>
</g>
</g>
<!-- Node0&#45;&gt;Node19 -->
<g id="edge19" class="edge"><title>Node0&#45;&gt;Node19</title>
<path fill="none" stroke="midnightblue" d="M90.0566,-735.049C105.203,-695.453 140.564,-617.596 197,-576.5 202.368,-572.591 208.291,-569.292 214.485,-566.507"/>
<polygon fill="midnightblue" stroke="midnightblue" points="86.7582,-733.878 86.5603,-744.471 93.3209,-736.313 86.7582,-733.878"/>
</g>
<!-- Node20 -->
<g id="node21" class="node"><title>Node20</title>
<g id="a_node21"><a xlink:href="class_system_1_1_runtime_1_1_remoting_1_1_metadata_1_1_w3c_xsd2001_1_1_soap_non_negative_integer.html" target="_top" xlink:title="Wraps an XSD nonNegativeInteger type.">
<polygon fill="none" stroke="black" points="197,-476 197,-517 394,-517 394,-476 197,-476"/>
<text text-anchor="start" x="205" y="-505" font-family="Helvetica,sans-Serif" font-size="10.00">System.Runtime.Remoting.</text>
<text text-anchor="start" x="205" y="-494" font-family="Helvetica,sans-Serif" font-size="10.00">Metadata.W3cXsd2001.SoapNonNegative</text>
<text text-anchor="middle" x="295.5" y="-483" font-family="Helvetica,sans-Serif" font-size="10.00">Integer</text>
</a>
</g>
</g>
<!-- Node0&#45;&gt;Node20 -->
<g id="edge20" class="edge"><title>Node0&#45;&gt;Node20</title>
<path fill="none" stroke="midnightblue" d="M87.0769,-734.462C98.9246,-687.073 131.084,-583.969 197,-527.5 201.586,-523.571 206.674,-520.139 212.049,-517.141"/>
<polygon fill="midnightblue" stroke="midnightblue" points="83.667,-733.673 84.7315,-744.214 90.4729,-735.31 83.667,-733.673"/>
</g>
<!-- Node21 -->
<g id="node22" class="node"><title>Node21</title>
<g id="a_node22"><a xlink:href="class_system_1_1_runtime_1_1_remoting_1_1_metadata_1_1_w3c_xsd2001_1_1_soap_non_positive_integer.html" target="_top" xlink:title="Wraps an XSD nonPositiveInteger type.">
<polygon fill="none" stroke="black" points="198.5,-416 198.5,-457 392.5,-457 392.5,-416 198.5,-416"/>
<text text-anchor="start" x="206.5" y="-445" font-family="Helvetica,sans-Serif" font-size="10.00">System.Runtime.Remoting.</text>
<text text-anchor="start" x="206.5" y="-434" font-family="Helvetica,sans-Serif" font-size="10.00">Metadata.W3cXsd2001.SoapNonPositive</text>
<text text-anchor="middle" x="295.5" y="-423" font-family="Helvetica,sans-Serif" font-size="10.00">Integer</text>
</a>
</g>
</g>
<!-- Node0&#45;&gt;Node21 -->
<g id="edge21" class="edge"><title>Node0&#45;&gt;Node21</title>
<path fill="none" stroke="midnightblue" d="M84.1772,-733.973C91.4767,-677.408 116.881,-540.676 197,-466.5 200.769,-463.011 204.935,-459.927 209.36,-457.202"/>
<polygon fill="midnightblue" stroke="midnightblue" points="80.6695,-733.827 82.9478,-744.174 87.6192,-734.665 80.6695,-733.827"/>
</g>
<!-- Node22 -->
<g id="node23" class="node"><title>Node22</title>
<g id="a_node23"><a xlink:href="class_system_1_1_runtime_1_1_remoting_1_1_metadata_1_1_w3c_xsd2001_1_1_soap_normalized_string.html" target="_top" xlink:title="Wraps an XML normalizedString type.">
<polygon fill="none" stroke="black" points="200,-356 200,-397 391,-397 391,-356 200,-356"/>
<text text-anchor="start" x="208" y="-385" font-family="Helvetica,sans-Serif" font-size="10.00">System.Runtime.Remoting.</text>
<text text-anchor="start" x="208" y="-374" font-family="Helvetica,sans-Serif" font-size="10.00">Metadata.W3cXsd2001.SoapNormalized</text>
<text text-anchor="middle" x="295.5" y="-363" font-family="Helvetica,sans-Serif" font-size="10.00">String</text>
</a>
</g>
</g>
<!-- Node0&#45;&gt;Node22 -->
<g id="edge22" class="edge"><title>Node0&#45;&gt;Node22</title>
<path fill="none" stroke="midnightblue" d="M82.1922,-734.207C85.3424,-669.993 102.644,-499.199 197,-406.5 200.537,-403.025 204.467,-399.951 208.662,-397.232"/>
<polygon fill="midnightblue" stroke="midnightblue" points="78.6933,-734.109 81.7753,-744.246 85.6873,-734.4 78.6933,-734.109"/>
</g>
<!-- Node23 -->
<g id="node24" class="node"><title>Node23</title>
<g id="a_node24"><a xlink:href="class_system_1_1_runtime_1_1_remoting_1_1_metadata_1_1_w3c_xsd2001_1_1_soap_notation.html" target="_top" xlink:title="Wraps an XML NOTATION attribute type.">
<polygon fill="none" stroke="black" points="206,-306.5 206,-336.5 385,-336.5 385,-306.5 206,-306.5"/>
<text text-anchor="start" x="214" y="-324.5" font-family="Helvetica,sans-Serif" font-size="10.00">System.Runtime.Remoting.</text>
<text text-anchor="middle" x="295.5" y="-313.5" font-family="Helvetica,sans-Serif" font-size="10.00">Metadata.W3cXsd2001.SoapNotation</text>
</a>
</g>
</g>
<!-- Node0&#45;&gt;Node23 -->
<g id="edge23" class="edge"><title>Node0&#45;&gt;Node23</title>
<path fill="none" stroke="midnightblue" d="M85.2196,-734.226C97.6314,-653.236 140.078,-402.201 197,-346.5 200.872,-342.711 205.236,-339.474 209.916,-336.709"/>
<polygon fill="midnightblue" stroke="midnightblue" points="81.7025,-734.077 83.6692,-744.488 88.6239,-735.123 81.7025,-734.077"/>
</g>
<!-- Node24 -->
<g id="node25" class="node"><title>Node24</title>
<g id="a_node25"><a xlink:href="class_system_1_1_runtime_1_1_remoting_1_1_metadata_1_1_w3c_xsd2001_1_1_soap_positive_integer.html" target="_top" xlink:title="Wraps an XSD positiveInteger type.">
<polygon fill="none" stroke="black" points="207.5,-246 207.5,-287 383.5,-287 383.5,-246 207.5,-246"/>
<text text-anchor="start" x="215.5" y="-275" font-family="Helvetica,sans-Serif" font-size="10.00">System.Runtime.Remoting.</text>
<text text-anchor="start" x="215.5" y="-264" font-family="Helvetica,sans-Serif" font-size="10.00">Metadata.W3cXsd2001.SoapPositive</text>
<text text-anchor="middle" x="295.5" y="-253" font-family="Helvetica,sans-Serif" font-size="10.00">Integer</text>
</a>
</g>
</g>
<!-- Node0&#45;&gt;Node24 -->
<g id="edge24" class="edge"><title>Node0&#45;&gt;Node24</title>
<path fill="none" stroke="midnightblue" d="M84.563,-734.258C95.5796,-647.406 135.806,-362.667 197,-297.5 200.648,-293.616 204.779,-290.216 209.231,-287.24"/>
<polygon fill="midnightblue" stroke="midnightblue" points="81.0773,-733.926 83.3104,-744.283 88.0233,-734.794 81.0773,-733.926"/>
</g>
<!-- Node25 -->
<g id="node26" class="node"><title>Node25</title>
<g id="a_node26"><a xlink:href="class_system_1_1_runtime_1_1_remoting_1_1_metadata_1_1_w3c_xsd2001_1_1_soap_q_name.html" target="_top" xlink:title="Wraps an XSD QName type.">
<polygon fill="none" stroke="black" points="207.5,-196.5 207.5,-226.5 383.5,-226.5 383.5,-196.5 207.5,-196.5"/>
<text text-anchor="start" x="215.5" y="-214.5" font-family="Helvetica,sans-Serif" font-size="10.00">System.Runtime.Remoting.</text>
<text text-anchor="middle" x="295.5" y="-203.5" font-family="Helvetica,sans-Serif" font-size="10.00">Metadata.W3cXsd2001.SoapQName</text>
</a>
</g>
</g>
<!-- Node0&#45;&gt;Node25 -->
<g id="edge25" class="edge"><title>Node0&#45;&gt;Node25</title>
<path fill="none" stroke="midnightblue" d="M83.6243,-734.258C92.0667,-639.908 126.277,-309.644 197,-236.5 200.644,-232.731 204.773,-229.502 209.223,-226.739"/>
<polygon fill="midnightblue" stroke="midnightblue" points="80.1286,-734.057 82.742,-744.324 87.1018,-734.668 80.1286,-734.057"/>
</g>
<!-- Node26 -->
<g id="node27" class="node"><title>Node26</title>
<g id="a_node27"><a xlink:href="class_system_1_1_runtime_1_1_remoting_1_1_metadata_1_1_w3c_xsd2001_1_1_soap_time.html" target="_top" xlink:title="Wraps an XSD time type.">
<polygon fill="none" stroke="black" points="213.5,-147.5 213.5,-177.5 377.5,-177.5 377.5,-147.5 213.5,-147.5"/>
<text text-anchor="start" x="221.5" y="-165.5" font-family="Helvetica,sans-Serif" font-size="10.00">System.Runtime.Remoting.</text>
<text text-anchor="middle" x="295.5" y="-154.5" font-family="Helvetica,sans-Serif" font-size="10.00">Metadata.W3cXsd2001.SoapTime</text>
</a>
</g>
</g>
<!-- Node0&#45;&gt;Node26 -->
<g id="edge26" class="edge"><title>Node0&#45;&gt;Node26</title>
<path fill="none" stroke="midnightblue" d="M83.1117,-734.204C89.986,-634.272 120.096,-268.491 197,-187.5 201.693,-182.558 207.218,-178.541 213.214,-175.283"/>
<polygon fill="midnightblue" stroke="midnightblue" points="79.6122,-734.081 82.4353,-744.293 86.5965,-734.549 79.6122,-734.081"/>
</g>
<!-- Node27 -->
<g id="node28" class="node"><title>Node27</title>
<g id="a_node28"><a xlink:href="class_system_1_1_runtime_1_1_remoting_1_1_metadata_1_1_w3c_xsd2001_1_1_soap_token.html" target="_top" xlink:title="Wraps an XML token type.">
<polygon fill="none" stroke="black" points="211,-98.5 211,-128.5 380,-128.5 380,-98.5 211,-98.5"/>
<text text-anchor="start" x="219" y="-116.5" font-family="Helvetica,sans-Serif" font-size="10.00">System.Runtime.Remoting.</text>
<text text-anchor="middle" x="295.5" y="-105.5" font-family="Helvetica,sans-Serif" font-size="10.00">Metadata.W3cXsd2001.SoapToken</text>
</a>
</g>
</g>
<!-- Node0&#45;&gt;Node27 -->
<g id="edge27" class="edge"><title>Node0&#45;&gt;Node27</title>
<path fill="none" stroke="midnightblue" d="M82.6777,-734.131C88.0794,-628.807 113.896,-227.377 197,-138.5 201.058,-134.16 205.758,-130.532 210.857,-127.503"/>
<polygon fill="midnightblue" stroke="midnightblue" points="79.1664,-734.274 82.1668,-744.435 86.1578,-734.621 79.1664,-734.274"/>
</g>
<!-- Node28 -->
<g id="node29" class="node"><title>Node28</title>
<g id="a_node29"><a xlink:href="class_system_1_1_runtime_1_1_remoting_1_1_metadata_1_1_w3c_xsd2001_1_1_soap_year.html" target="_top" xlink:title="Wraps an XSD gYear type.">
<polygon fill="none" stroke="black" points="214,-49.5 214,-79.5 377,-79.5 377,-49.5 214,-49.5"/>
<text text-anchor="start" x="222" y="-67.5" font-family="Helvetica,sans-Serif" font-size="10.00">System.Runtime.Remoting.</text>
<text text-anchor="middle" x="295.5" y="-56.5" font-family="Helvetica,sans-Serif" font-size="10.00">Metadata.W3cXsd2001.SoapYear</text>
</a>
</g>
</g>
<!-- Node0&#45;&gt;Node28 -->
<g id="edge28" class="edge"><title>Node0&#45;&gt;Node28</title>
<path fill="none" stroke="midnightblue" d="M82.2959,-734.283C86.2847,-624.128 107.616,-186.365 197,-89.5 201.859,-84.2346 207.662,-80.0145 213.983,-76.64"/>
<polygon fill="midnightblue" stroke="midnightblue" points="78.7922,-734.331 81.9442,-744.446 85.788,-734.573 78.7922,-734.331"/>
</g>
<!-- Node29 -->
<g id="node30" class="node"><title>Node29</title>
<g id="a_node30"><a xlink:href="class_system_1_1_runtime_1_1_remoting_1_1_metadata_1_1_w3c_xsd2001_1_1_soap_year_month.html" target="_top" xlink:title="Wraps an XSD gYearMonth type.">
<polygon fill="none" stroke="black" points="200.5,-0.5 200.5,-30.5 390.5,-30.5 390.5,-0.5 200.5,-0.5"/>
<text text-anchor="start" x="208.5" y="-18.5" font-family="Helvetica,sans-Serif" font-size="10.00">System.Runtime.Remoting.</text>
<text text-anchor="middle" x="295.5" y="-7.5" font-family="Helvetica,sans-Serif" font-size="10.00">Metadata.W3cXsd2001.SoapYearMonth</text>
</a>
</g>
</g>
<!-- Node0&#45;&gt;Node29 -->
<g id="edge29" class="edge"><title>Node0&#45;&gt;Node29</title>
<path fill="none" stroke="midnightblue" d="M81.9794,-733.946C84.6708,-618.324 101.451,-145.241 197,-40.5 200.415,-36.7561 204.308,-33.5396 208.526,-30.7791"/>
<polygon fill="midnightblue" stroke="midnightblue" points="78.473,-734.207 81.7551,-744.281 85.4714,-734.359 78.473,-734.207"/>
</g>
</g>
</svg>
        <g id="navigator" transform="translate(0 0)" fill="#404254">
                <rect fill="#f2f5e9" fill-opacity="0.5" stroke="#606060" stroke-width=".5" x="0" y="0" width="60" height="60"/>
                <use id="zoomplus" xlink:href="#zoomPlus" x="17" y="9" onmousedown="handleZoom(evt,'in')"/>
                <use id="zoomminus" xlink:href="#zoomMin" x="42" y="9" onmousedown="handleZoom(evt,'out')"/>
                <use id="reset" xlink:href="#resetDef" x="30" y="36" onmousedown="handleReset()"/>
                <g id="arrowUp" xlink:href="#dirArrow" transform="translate(30 24)" onmousedown="handlePan(0,-1)">
                  <use xlink:href="#rim" fill="#404040">
                        <set attributeName="fill" to="#808080" begin="arrowUp.mouseover" end="arrowUp.mouseout"/>
                  </use>
                  <path fill="none" stroke="white" stroke-width="1.5" d="M0,-3.0v7 M-2.5,-0.5L0,-3.0L2.5,-0.5"/>
                </g>
                <g id="arrowRight" xlink:href="#dirArrow" transform="rotate(90) translate(36 -43)" onmousedown="handlePan(1,0)">
                  <use xlink:href="#rim" fill="#404040">
                        <set attributeName="fill" to="#808080" begin="arrowRight.mouseover" end="arrowRight.mouseout"/>
                  </use>
                  <path fill="none" stroke="white" stroke-width="1.5" d="M0,-3.0v7 M-2.5,-0.5L0,-3.0L2.5,-0.5"/>
                </g>
                <g id="arrowDown" xlink:href="#dirArrow" transform="rotate(180) translate(-30 -48)" onmousedown="handlePan(0,1)">
                  <use xlink:href="#rim" fill="#404040">
                        <set attributeName="fill" to="#808080" begin="arrowDown.mouseover" end="arrowDown.mouseout"/>
                  </use>
                  <path fill="none" stroke="white" stroke-width="1.5" d="M0,-3.0v7 M-2.5,-0.5L0,-3.0L2.5,-0.5"/>
                </g>
                <g id="arrowLeft" xlink:href="#dirArrow" transform="rotate(270) translate(-36 17)" onmousedown="handlePan(-1,0)">
                  <use xlink:href="#rim" fill="#404040">
                        <set attributeName="fill" to="#808080" begin="arrowLeft.mouseover" end="arrowLeft.mouseout"/>
                  </use>
                  <path fill="none" stroke="white" stroke-width="1.5" d="M0,-3.0v7 M-2.5,-0.5L0,-3.0L2.5,-0.5"/>
                </g>
        </g>
        <svg viewBox="0 0 15 15" width="100%" height="30px" preserveAspectRatio="xMaxYMin meet">
         <g id="arrow_out" transform="scale(0.3 0.3)">
          <a xlink:href="interface_system_1_1_runtime_1_1_remoting_1_1_metadata_1_1_w3c_xsd2001_1_1_i_soap_xsd__inherit__graph_org.svg" target="_base">
           <rect id="button" ry="5" rx="5" y="6" x="6" height="38" width="38"
                fill="#f2f5e9" fill-opacity="0.5" stroke="#606060" stroke-width="1.0"/>
           <path id="arrow"
             d="M 11.500037,31.436501 C 11.940474,20.09759 22.043105,11.32322 32.158766,21.979434 L 37.068811,17.246167 C 37.068811,17.246167 37.088388,32 37.088388,32 L 22.160133,31.978069 C 22.160133,31.978069 26.997745,27.140456 26.997745,27.140456 C 18.528582,18.264221 13.291696,25.230495 11.500037,31.436501 z"
             style="fill:#404040;"/>
          </a>
         </g>
        </svg>
</svg>
