<?xml version="1.0" encoding="UTF-8" standalone="no"?>
<!DOCTYPE svg PUBLIC "-//W3C//DTD SVG 1.1//EN"
 "http://www.w3.org/Graphics/SVG/1.1/DTD/svg11.dtd">
<!-- Generated by graphviz version 2.38.0 (20140413.2041)
 -->
<!-- Title: System.ICloneable Pages: 1 -->
<!--zoomable 1158 -->
<svg id="main" version="1.1" xmlns="http://www.w3.org/2000/svg" xmlns:xlink="http://www.w3.org/1999/xlink" xml:space="preserve" onload="init(evt)">
<style type="text/css"><![CDATA[
.edge:hover path { stroke: red; }
.edge:hover polygon { stroke: red; fill: red; }
]]></style>
<script type="text/javascript"><![CDATA[
var edges = document.getElementsByTagName('g');
if (edges && edges.length) {
  for (var i=0;i<edges.length;i++) {
    if (edges[i].id.substr(0,4)=='edge') {
      edges[i].setAttribute('class','edge');
    }
  }
}
]]></script>
        <defs>
                <circle id="rim" cx="0" cy="0" r="7"/>
                <circle id="rim2" cx="0" cy="0" r="3.5"/>
                <g id="zoomPlus">
                        <use xlink:href="#rim" fill="#404040">
                                <set attributeName="fill" to="#808080" begin="zoomplus.mouseover" end="zoomplus.mouseout"/>
                        </use>
                        <path d="M-4,0h8M0,-4v8" fill="none" stroke="white" stroke-width="1.5" pointer-events="none"/>
                </g>
                <g id="zoomMin">
                        <use xlink:href="#rim" fill="#404040">
                                <set attributeName="fill" to="#808080" begin="zoomminus.mouseover" end="zoomminus.mouseout"/>
                        </use>
                        <path d="M-4,0h8" fill="none" stroke="white" stroke-width="1.5" pointer-events="none"/>
                </g>
                <g id="dirArrow">
                        <path fill="none" stroke="white" stroke-width="1.5" d="M0,-3.0v7 M-2.5,-0.5L0,-3.0L2.5,-0.5"/>
                </g>
               <g id="resetDef">
                       <use xlink:href="#rim2" fill="#404040">
                               <set attributeName="fill" to="#808080" begin="reset.mouseover" end="reset.mouseout"/>
                       </use>
               </g>
        </defs>

<script type="text/javascript">
var viewWidth = 310;
var viewHeight = 1158;
var sectionId = 'dynsection-0';
</script>
<script xlink:href="svgpan.js"/>
<svg id="graph" class="graph">
<g id="viewport">
<title>System.ICloneable</title>
<!-- Node0 -->
<g id="node1" class="node"><title>Node0</title>
<g id="a_node1"><a xlink:title="Supports cloning, which creates a new instance of a class with the same value as an existing instance...">
<polygon fill="#bfbfbf" stroke="black" points="0,-572 0,-591 98,-591 98,-572 0,-572"/>
<text text-anchor="middle" x="49" y="-579" font-family="Helvetica,sans-Serif" font-size="10.00">System.ICloneable</text>
</a>
</g>
</g>
<!-- Node1 -->
<g id="node2" class="node"><title>Node1</title>
<g id="a_node2"><a xlink:href="class_system_1_1_array.html" target="_top" xlink:title="Provides methods for creating, manipulating, searching, and sorting arrays, thereby serving as the ba...">
<polygon fill="none" stroke="black" points="179.5,-1130 179.5,-1149 256.5,-1149 256.5,-1130 179.5,-1130"/>
<text text-anchor="middle" x="218" y="-1137" font-family="Helvetica,sans-Serif" font-size="10.00">System.Array</text>
</a>
</g>
</g>
<!-- Node0&#45;&gt;Node1 -->
<g id="edge1" class="edge"><title>Node0&#45;&gt;Node1</title>
<path fill="none" stroke="midnightblue" d="M50.2296,-601.651C51.6569,-690.115 61.8564,-1043.09 134,-1120.5 145.489,-1132.83 163.205,-1137.94 179.323,-1139.83"/>
<polygon fill="midnightblue" stroke="midnightblue" points="53.7256,-601.334 50.0856,-591.385 46.7263,-601.433 53.7256,-601.334"/>
</g>
<!-- Node2 -->
<g id="node3" class="node"><title>Node2</title>
<g id="a_node3"><a xlink:href="class_system_1_1_char_enumerator.html" target="_top" xlink:title="Supports iterating over a T:System.String object and reading its individual characters....">
<polygon fill="none" stroke="black" points="156,-1092 156,-1111 280,-1111 280,-1092 156,-1092"/>
<text text-anchor="middle" x="218" y="-1099" font-family="Helvetica,sans-Serif" font-size="10.00">System.CharEnumerator</text>
</a>
</g>
</g>
<!-- Node0&#45;&gt;Node2 -->
<g id="edge2" class="edge"><title>Node0&#45;&gt;Node2</title>
<path fill="none" stroke="midnightblue" d="M50.4801,-601.287C52.9271,-685.26 66.6858,-1011.1 134,-1082.5 139.983,-1088.85 147.617,-1093.28 155.822,-1096.34"/>
<polygon fill="midnightblue" stroke="midnightblue" points="53.9737,-600.997 50.2056,-591.095 46.9762,-601.186 53.9737,-600.997"/>
</g>
<!-- Node3 -->
<g id="node4" class="node"><title>Node3</title>
<g id="a_node4"><a xlink:href="class_system_1_1_collections_1_1_array_list.html" target="_top" xlink:title="Implements the T:System.Collections.IList interface using an array whose size is dynamically increase...">
<polygon fill="none" stroke="black" points="146.5,-1054 146.5,-1073 289.5,-1073 289.5,-1054 146.5,-1054"/>
<text text-anchor="middle" x="218" y="-1061" font-family="Helvetica,sans-Serif" font-size="10.00">System.Collections.ArrayList</text>
</a>
</g>
</g>
<!-- Node0&#45;&gt;Node3 -->
<g id="edge3" class="edge"><title>Node0&#45;&gt;Node3</title>
<path fill="none" stroke="midnightblue" d="M50.7781,-601.301C54.3272,-681.263 71.6035,-979.194 134,-1044.5 137.574,-1048.24 141.722,-1051.31 146.221,-1053.83"/>
<polygon fill="midnightblue" stroke="midnightblue" points="54.2678,-600.982 50.3503,-591.138 47.274,-601.277 54.2678,-600.982"/>
</g>
<!-- Node4 -->
<g id="node5" class="node"><title>Node4</title>
<g id="a_node5"><a xlink:href="class_system_1_1_collections_1_1_bit_array.html" target="_top" xlink:title="Manages a compact array of bit values, which are represented as Booleans, where true indicates that t...">
<polygon fill="none" stroke="black" points="148,-1016 148,-1035 288,-1035 288,-1016 148,-1016"/>
<text text-anchor="middle" x="218" y="-1023" font-family="Helvetica,sans-Serif" font-size="10.00">System.Collections.BitArray</text>
</a>
</g>
</g>
<!-- Node0&#45;&gt;Node4 -->
<g id="edge4" class="edge"><title>Node0&#45;&gt;Node4</title>
<path fill="none" stroke="midnightblue" d="M51.1157,-601.115C55.8107,-676.617 76.4532,-947.206 134,-1006.5 138.015,-1010.64 142.733,-1013.95 147.847,-1016.61"/>
<polygon fill="midnightblue" stroke="midnightblue" points="54.6066,-600.857 50.5158,-591.084 47.6191,-601.275 54.6066,-600.857"/>
</g>
<!-- Node5 -->
<g id="node6" class="node"><title>Node5</title>
<g id="a_node6"><a xlink:href="class_system_1_1_collections_1_1_hashtable.html" target="_top" xlink:title="Represents a collection of key/value pairs that are organized based on the hash code of the key....">
<polygon fill="none" stroke="red" points="144,-978 144,-997 292,-997 292,-978 144,-978"/>
<text text-anchor="middle" x="218" y="-985" font-family="Helvetica,sans-Serif" font-size="10.00">System.Collections.Hashtable</text>
</a>
</g>
</g>
<!-- Node0&#45;&gt;Node5 -->
<g id="edge5" class="edge"><title>Node0&#45;&gt;Node5</title>
<path fill="none" stroke="midnightblue" d="M51.5697,-601.62C57.5764,-673.386 81.4555,-915.358 134,-968.5 137.742,-972.284 142.072,-975.38 146.752,-977.906"/>
<polygon fill="midnightblue" stroke="midnightblue" points="55.028,-600.963 50.7308,-591.279 48.0509,-601.529 55.028,-600.963"/>
</g>
<!-- Node8 -->
<g id="node7" class="node"><title>Node8</title>
<g id="a_node7"><a xlink:href="class_system_1_1_collections_1_1_queue.html" target="_top" xlink:title="Represents a first&#45;in, first&#45;out collection of objects.">
<polygon fill="none" stroke="black" points="151.5,-940 151.5,-959 284.5,-959 284.5,-940 151.5,-940"/>
<text text-anchor="middle" x="218" y="-947" font-family="Helvetica,sans-Serif" font-size="10.00">System.Collections.Queue</text>
</a>
</g>
</g>
<!-- Node0&#45;&gt;Node8 -->
<g id="edge6" class="edge"><title>Node0&#45;&gt;Node8</title>
<path fill="none" stroke="midnightblue" d="M52.0537,-601.366C59.3606,-668.189 86.2464,-883.276 134,-930.5 138.94,-935.385 144.864,-939.117 151.244,-941.955"/>
<polygon fill="midnightblue" stroke="midnightblue" points="55.523,-600.891 50.9819,-591.319 48.5624,-601.634 55.523,-600.891"/>
</g>
<!-- Node9 -->
<g id="node8" class="node"><title>Node9</title>
<g id="a_node8"><a xlink:href="class_system_1_1_collections_1_1_sorted_list.html" target="_top" xlink:title="Represents a collection of key/value pairs that are sorted by the keys and are accessible by key and ...">
<polygon fill="none" stroke="black" points="143.5,-902 143.5,-921 292.5,-921 292.5,-902 143.5,-902"/>
<text text-anchor="middle" x="218" y="-909" font-family="Helvetica,sans-Serif" font-size="10.00">System.Collections.SortedList</text>
</a>
</g>
</g>
<!-- Node0&#45;&gt;Node9 -->
<g id="edge7" class="edge"><title>Node0&#45;&gt;Node9</title>
<path fill="none" stroke="midnightblue" d="M52.6523,-601.182C61.3648,-662.927 91.0281,-851.162 134,-892.5 137.942,-896.292 142.478,-899.385 147.354,-901.901"/>
<polygon fill="midnightblue" stroke="midnightblue" points="56.1073,-600.615 51.2708,-591.188 49.1733,-601.573 56.1073,-600.615"/>
</g>
<!-- Node10 -->
<g id="node9" class="node"><title>Node10</title>
<g id="a_node9"><a xlink:href="class_system_1_1_collections_1_1_stack.html" target="_top" xlink:title="Represents a simple last&#45;in&#45;first&#45;out (LIFO) non&#45;generic collection of objects.">
<polygon fill="none" stroke="black" points="153,-864 153,-883 283,-883 283,-864 153,-864"/>
<text text-anchor="middle" x="218" y="-871" font-family="Helvetica,sans-Serif" font-size="10.00">System.Collections.Stack</text>
</a>
</g>
</g>
<!-- Node0&#45;&gt;Node10 -->
<g id="edge8" class="edge"><title>Node0&#45;&gt;Node10</title>
<path fill="none" stroke="midnightblue" d="M49.8057,-601.427C50.4594,-651.831 59.5159,-785.296 134,-854.5 139.415,-859.531 145.881,-863.321 152.78,-866.164"/>
<polygon fill="midnightblue" stroke="midnightblue" points="53.3053,-601.221 49.7789,-591.23 46.3053,-601.24 53.3053,-601.221"/>
</g>
<!-- Node11 -->
<g id="node10" class="node"><title>Node11</title>
<g id="a_node10"><a xlink:href="class_system_1_1_component_model_1_1_masked_text_provider.html" target="_top" xlink:title="Represents a mask&#45;parsing service that can be used by any number of controls that support masking,...">
<polygon fill="none" stroke="black" points="134.5,-814.5 134.5,-844.5 301.5,-844.5 301.5,-814.5 134.5,-814.5"/>
<text text-anchor="start" x="142.5" y="-832.5" font-family="Helvetica,sans-Serif" font-size="10.00">System.ComponentModel.Masked</text>
<text text-anchor="middle" x="218" y="-821.5" font-family="Helvetica,sans-Serif" font-size="10.00">TextProvider</text>
</a>
</g>
</g>
<!-- Node0&#45;&gt;Node11 -->
<g id="edge9" class="edge"><title>Node0&#45;&gt;Node11</title>
<path fill="none" stroke="midnightblue" d="M51.6034,-601.389C56.196,-644.936 73.2815,-749.302 134,-805.5 137.743,-808.964 141.956,-811.932 146.447,-814.473"/>
<polygon fill="midnightblue" stroke="midnightblue" points="55.0708,-600.878 50.6492,-591.25 48.1016,-601.534 55.0708,-600.878"/>
</g>
<!-- Node12 -->
<g id="node11" class="node"><title>Node12</title>
<g id="a_node11"><a xlink:href="struct_system_1_1_configuration_1_1_assemblies_1_1_assembly_hash.html" target="_top" xlink:title="Represents a hash of an assembly manifest&#39;s contents.">
<polygon fill="none" stroke="black" points="134.5,-765.5 134.5,-795.5 301.5,-795.5 301.5,-765.5 134.5,-765.5"/>
<text text-anchor="start" x="142.5" y="-783.5" font-family="Helvetica,sans-Serif" font-size="10.00">System.Configuration.Assemblies.</text>
<text text-anchor="middle" x="218" y="-772.5" font-family="Helvetica,sans-Serif" font-size="10.00">AssemblyHash</text>
</a>
</g>
</g>
<!-- Node0&#45;&gt;Node12 -->
<g id="edge10" class="edge"><title>Node0&#45;&gt;Node12</title>
<path fill="none" stroke="midnightblue" d="M53.8484,-600.935C62.0256,-637.061 84.5777,-714.671 134,-756.5 138.007,-759.892 142.47,-762.805 147.19,-765.306"/>
<polygon fill="midnightblue" stroke="midnightblue" points="57.2684,-600.191 51.7583,-591.141 50.4225,-601.652 57.2684,-600.191"/>
</g>
<!-- Node13 -->
<g id="node12" class="node"><title>Node13</title>
<g id="a_node12"><a xlink:href="class_system_1_1_configuration_1_1_settings_property_collection.html" target="_top" xlink:title="Contains a collection of T:System.Configuration.SettingsProperty objects.">
<polygon fill="none" stroke="black" points="143.5,-716.5 143.5,-746.5 292.5,-746.5 292.5,-716.5 143.5,-716.5"/>
<text text-anchor="start" x="151.5" y="-734.5" font-family="Helvetica,sans-Serif" font-size="10.00">System.Configuration.Settings</text>
<text text-anchor="middle" x="218" y="-723.5" font-family="Helvetica,sans-Serif" font-size="10.00">PropertyCollection</text>
</a>
</g>
</g>
<!-- Node0&#45;&gt;Node13 -->
<g id="edge11" class="edge"><title>Node0&#45;&gt;Node13</title>
<path fill="none" stroke="midnightblue" d="M57.5413,-600.418C69.546,-628.101 95.6326,-679.4 134,-707.5 138.72,-710.957 143.928,-713.917 149.365,-716.452"/>
<polygon fill="midnightblue" stroke="midnightblue" points="60.7174,-598.94 53.6337,-591.062 54.2581,-601.638 60.7174,-598.94"/>
</g>
<!-- Node14 -->
<g id="node13" class="node"><title>Node14</title>
<g id="a_node13"><a xlink:href="class_system_1_1_configuration_1_1_settings_property_value_collection.html" target="_top" xlink:title="Contains a collection of settings property values that map T:System.Configuration....">
<polygon fill="none" stroke="black" points="143.5,-667.5 143.5,-697.5 292.5,-697.5 292.5,-667.5 143.5,-667.5"/>
<text text-anchor="start" x="151.5" y="-685.5" font-family="Helvetica,sans-Serif" font-size="10.00">System.Configuration.Settings</text>
<text text-anchor="middle" x="218" y="-674.5" font-family="Helvetica,sans-Serif" font-size="10.00">PropertyValueCollection</text>
</a>
</g>
</g>
<!-- Node0&#45;&gt;Node14 -->
<g id="edge12" class="edge"><title>Node0&#45;&gt;Node14</title>
<path fill="none" stroke="midnightblue" d="M64.8133,-598.794C80.4091,-615.982 106.479,-641.961 134,-657.5 140.683,-661.274 147.998,-664.536 155.427,-667.341"/>
<polygon fill="midnightblue" stroke="midnightblue" points="67.2892,-596.311 58.0381,-591.147 62.0497,-600.953 67.2892,-596.311"/>
</g>
<!-- Node15 -->
<g id="node14" class="node"><title>Node15</title>
<g id="a_node14"><a xlink:href="class_system_1_1_delegate.html" target="_top" xlink:title="Represents a delegate, which is a data structure that refers to a static method or to a class instanc...">
<polygon fill="none" stroke="red" points="172,-629 172,-648 264,-648 264,-629 172,-629"/>
<text text-anchor="middle" x="218" y="-636" font-family="Helvetica,sans-Serif" font-size="10.00">System.Delegate</text>
</a>
</g>
</g>
<!-- Node0&#45;&gt;Node15 -->
<g id="edge13" class="edge"><title>Node0&#45;&gt;Node15</title>
<path fill="none" stroke="midnightblue" d="M77.6157,-595.681C93.738,-603.529 114.655,-612.983 134,-619.5 146.048,-623.559 159.368,-627.035 171.746,-629.861"/>
<polygon fill="midnightblue" stroke="midnightblue" points="78.7683,-592.346 68.2539,-591.043 75.6607,-598.618 78.7683,-592.346"/>
</g>
<!-- Node17 -->
<g id="node15" class="node"><title>Node17</title>
<g id="a_node15"><a xlink:href="class_system_1_1_globalization_1_1_calendar.html" target="_top" xlink:title="Represents time in divisions, such as weeks, months, and years.">
<polygon fill="none" stroke="red" points="142.5,-591 142.5,-610 293.5,-610 293.5,-591 142.5,-591"/>
<text text-anchor="middle" x="218" y="-598" font-family="Helvetica,sans-Serif" font-size="10.00">System.Globalization.Calendar</text>
</a>
</g>
</g>
<!-- Node0&#45;&gt;Node17 -->
<g id="edge14" class="edge"><title>Node0&#45;&gt;Node17</title>
<path fill="none" stroke="midnightblue" d="M108.56,-588.162C119.486,-589.406 131.04,-590.72 142.374,-592.01"/>
<polygon fill="midnightblue" stroke="midnightblue" points="108.635,-584.649 98.3033,-586.996 107.844,-591.604 108.635,-584.649"/>
</g>
<!-- Node33 -->
<g id="node16" class="node"><title>Node33</title>
<g id="a_node16"><a xlink:href="class_system_1_1_globalization_1_1_culture_info.html" target="_top" xlink:title="Provides information about a specific culture (called a locale for unmanaged code development)....">
<polygon fill="none" stroke="black" points="139,-553 139,-572 297,-572 297,-553 139,-553"/>
<text text-anchor="middle" x="218" y="-560" font-family="Helvetica,sans-Serif" font-size="10.00">System.Globalization.CultureInfo</text>
</a>
</g>
</g>
<!-- Node0&#45;&gt;Node33 -->
<g id="edge15" class="edge"><title>Node0&#45;&gt;Node33</title>
<path fill="none" stroke="midnightblue" d="M108.378,-574.858C118.25,-573.735 128.638,-572.553 138.917,-571.384"/>
<polygon fill="midnightblue" stroke="midnightblue" points="107.844,-571.396 98.3033,-576.004 108.635,-578.351 107.844,-571.396"/>
</g>
<!-- Node34 -->
<g id="node17" class="node"><title>Node34</title>
<g id="a_node17"><a xlink:href="class_system_1_1_globalization_1_1_date_time_format_info.html" target="_top" xlink:title="Provides culture&#45;specific information about the format of date and time values.">
<polygon fill="none" stroke="black" points="151.5,-503.5 151.5,-533.5 284.5,-533.5 284.5,-503.5 151.5,-503.5"/>
<text text-anchor="start" x="159.5" y="-521.5" font-family="Helvetica,sans-Serif" font-size="10.00">System.Globalization.Date</text>
<text text-anchor="middle" x="218" y="-510.5" font-family="Helvetica,sans-Serif" font-size="10.00">TimeFormatInfo</text>
</a>
</g>
</g>
<!-- Node0&#45;&gt;Node34 -->
<g id="edge16" class="edge"><title>Node0&#45;&gt;Node34</title>
<path fill="none" stroke="midnightblue" d="M78.7412,-567.358C94.7841,-559.755 115.259,-550.526 134,-543.5 143.3,-540.013 153.322,-536.663 163.075,-533.61"/>
<polygon fill="midnightblue" stroke="midnightblue" points="76.883,-564.368 69.38,-571.848 79.9102,-570.679 76.883,-564.368"/>
</g>
<!-- Node35 -->
<g id="node18" class="node"><title>Node35</title>
<g id="a_node18"><a xlink:href="class_system_1_1_globalization_1_1_number_format_info.html" target="_top" xlink:title="Provides culture&#45;specific information for formatting and parsing numeric values.">
<polygon fill="none" stroke="black" points="145,-454.5 145,-484.5 291,-484.5 291,-454.5 145,-454.5"/>
<text text-anchor="start" x="153" y="-472.5" font-family="Helvetica,sans-Serif" font-size="10.00">System.Globalization.Number</text>
<text text-anchor="middle" x="218" y="-461.5" font-family="Helvetica,sans-Serif" font-size="10.00">FormatInfo</text>
</a>
</g>
</g>
<!-- Node0&#45;&gt;Node35 -->
<g id="edge17" class="edge"><title>Node0&#45;&gt;Node35</title>
<path fill="none" stroke="midnightblue" d="M62.6794,-563.709C77.6005,-544.031 104.157,-512.705 134,-494.5 140.295,-490.66 147.221,-487.374 154.306,-484.57"/>
<polygon fill="midnightblue" stroke="midnightblue" points="59.7982,-561.719 56.6724,-571.842 65.4289,-565.878 59.7982,-561.719"/>
</g>
<!-- Node36 -->
<g id="node19" class="node"><title>Node36</title>
<g id="a_node19"><a xlink:href="class_system_1_1_globalization_1_1_text_info.html" target="_top" xlink:title="Defines text properties and behaviors, such as casing, that are specific to a writing system.">
<polygon fill="none" stroke="black" points="145,-416 145,-435 291,-435 291,-416 145,-416"/>
<text text-anchor="middle" x="218" y="-423" font-family="Helvetica,sans-Serif" font-size="10.00">System.Globalization.TextInfo</text>
</a>
</g>
</g>
<!-- Node0&#45;&gt;Node36 -->
<g id="edge18" class="edge"><title>Node0&#45;&gt;Node36</title>
<path fill="none" stroke="midnightblue" d="M56.4785,-562.129C67.4917,-532.28 92.7683,-475.372 134,-445.5 140.002,-441.152 146.825,-437.739 153.92,-435.063"/>
<polygon fill="midnightblue" stroke="midnightblue" points="53.0925,-561.206 53.0633,-571.801 59.6931,-563.537 53.0925,-561.206"/>
</g>
<!-- Node37 -->
<g id="node20" class="node"><title>Node37</title>
<g id="a_node20"><a xlink:href="class_system_1_1_operating_system.html" target="_top" xlink:title="Represents information about an operating system, such as the version and platform identifier....">
<polygon fill="none" stroke="black" points="153.5,-378 153.5,-397 282.5,-397 282.5,-378 153.5,-378"/>
<text text-anchor="middle" x="218" y="-385" font-family="Helvetica,sans-Serif" font-size="10.00">System.OperatingSystem</text>
</a>
</g>
</g>
<!-- Node0&#45;&gt;Node37 -->
<g id="edge19" class="edge"><title>Node0&#45;&gt;Node37</title>
<path fill="none" stroke="midnightblue" d="M53.6316,-561.801C61.4464,-525.235 83.4171,-446.918 134,-406.5 139.774,-401.886 146.459,-398.35 153.479,-395.646"/>
<polygon fill="midnightblue" stroke="midnightblue" points="50.177,-561.228 51.6448,-571.721 57.0407,-562.603 50.177,-561.228"/>
</g>
<!-- Node38 -->
<g id="node21" class="node"><title>Node38</title>
<g id="a_node21"><a xlink:href="class_system_1_1_reflection_1_1_assembly_name.html" target="_top" xlink:title="Describes an assembly&#39;s unique identity in full.">
<polygon fill="none" stroke="black" points="134,-340 134,-359 302,-359 302,-340 134,-340"/>
<text text-anchor="middle" x="218" y="-347" font-family="Helvetica,sans-Serif" font-size="10.00">System.Reflection.AssemblyName</text>
</a>
</g>
</g>
<!-- Node0&#45;&gt;Node38 -->
<g id="edge20" class="edge"><title>Node0&#45;&gt;Node38</title>
<path fill="none" stroke="midnightblue" d="M51.8013,-561.465C56.7318,-519.026 74.3592,-419.773 134,-368.5 138.484,-364.645 143.593,-361.531 149.022,-359.021"/>
<polygon fill="midnightblue" stroke="midnightblue" points="48.298,-561.315 50.7428,-571.624 55.2603,-562.041 48.298,-561.315"/>
</g>
<!-- Node39 -->
<g id="node22" class="node"><title>Node39</title>
<g id="a_node22"><a xlink:href="class_system_1_1_runtime_1_1_remoting_1_1_messaging_1_1_logical_call_context.html" target="_top" xlink:title="Provides a set of properties that are carried with the execution code path during remote method calls...">
<polygon fill="none" stroke="black" points="144,-290.5 144,-320.5 292,-320.5 292,-290.5 144,-290.5"/>
<text text-anchor="start" x="152" y="-308.5" font-family="Helvetica,sans-Serif" font-size="10.00">System.Runtime.Remoting.</text>
<text text-anchor="middle" x="218" y="-297.5" font-family="Helvetica,sans-Serif" font-size="10.00">Messaging.LogicalCallContext</text>
</a>
</g>
</g>
<!-- Node0&#45;&gt;Node39 -->
<g id="edge21" class="edge"><title>Node0&#45;&gt;Node39</title>
<path fill="none" stroke="midnightblue" d="M50.7099,-561.879C53.4868,-514.963 67.1175,-395.381 134,-330.5 137.997,-326.623 142.572,-323.344 147.475,-320.572"/>
<polygon fill="midnightblue" stroke="midnightblue" points="47.2111,-561.772 50.2207,-571.931 54.2028,-562.113 47.2111,-561.772"/>
</g>
<!-- Node40 -->
<g id="node23" class="node"><title>Node40</title>
<g id="a_node23"><a xlink:href="class_system_1_1_string.html" target="_top" xlink:title="Represents text as a sequence of UTF&#45;16 code units.To browse the .NET Framework source code for this ...">
<polygon fill="none" stroke="black" points="178.5,-252 178.5,-271 257.5,-271 257.5,-252 178.5,-252"/>
<text text-anchor="middle" x="218" y="-259" font-family="Helvetica,sans-Serif" font-size="10.00">System.String</text>
</a>
</g>
</g>
<!-- Node0&#45;&gt;Node40 -->
<g id="edge22" class="edge"><title>Node0&#45;&gt;Node40</title>
<path fill="none" stroke="midnightblue" d="M49.1997,-561.501C48.2095,-507.81 53.2865,-359.316 134,-281.5 145.738,-270.184 162.713,-264.9 178.257,-262.553"/>
<polygon fill="midnightblue" stroke="midnightblue" points="45.7073,-561.826 49.4881,-571.724 52.7046,-561.629 45.7073,-561.826"/>
</g>
<!-- Node41 -->
<g id="node24" class="node"><title>Node41</title>
<g id="a_node24"><a xlink:href="class_system_1_1_text_1_1_encoding.html" target="_top" xlink:title="Represents a character encoding.To browse the .NET Framework source code for this type,...">
<polygon fill="none" stroke="red" points="160,-214 160,-233 276,-233 276,-214 160,-214"/>
<text text-anchor="middle" x="218" y="-221" font-family="Helvetica,sans-Serif" font-size="10.00">System.Text.Encoding</text>
</a>
</g>
</g>
<!-- Node0&#45;&gt;Node41 -->
<g id="edge23" class="edge"><title>Node0&#45;&gt;Node41</title>
<path fill="none" stroke="midnightblue" d="M52.1863,-561.792C59.835,-496.407 87.4814,-288.195 134,-242.5 141.066,-235.559 150.118,-230.95 159.633,-227.928"/>
<polygon fill="midnightblue" stroke="midnightblue" points="48.6826,-561.627 51.0251,-571.959 55.6374,-562.421 48.6826,-561.627"/>
</g>
<!-- Node47 -->
<g id="node25" class="node"><title>Node47</title>
<g id="a_node25"><a xlink:href="class_system_1_1_version.html" target="_top" xlink:title="Represents the version number of an assembly, operating system, or the common language runtime....">
<polygon fill="none" stroke="black" points="175,-176 175,-195 261,-195 261,-176 175,-176"/>
<text text-anchor="middle" x="218" y="-183" font-family="Helvetica,sans-Serif" font-size="10.00">System.Version</text>
</a>
</g>
</g>
<!-- Node0&#45;&gt;Node47 -->
<g id="edge24" class="edge"><title>Node0&#45;&gt;Node47</title>
<path fill="none" stroke="midnightblue" d="M51.6484,-561.895C57.9244,-491.964 82.6093,-256.19 134,-204.5 144.735,-193.702 160.268,-188.518 175,-186.177"/>
<polygon fill="midnightblue" stroke="midnightblue" points="48.1517,-561.705 50.77,-571.971 55.1253,-562.313 48.1517,-561.705"/>
</g>
<!-- Node48 -->
<g id="node26" class="node"><title>Node48</title>
<g id="a_node26"><a xlink:href="class_system_1_1_xml_1_1_schema_1_1_xml_atomic_value.html" target="_top" xlink:title="Represents the typed value of a validated XML element or attribute. The T:System.Xml....">
<polygon fill="none" stroke="black" points="139,-126.5 139,-156.5 297,-156.5 297,-126.5 139,-126.5"/>
<text text-anchor="start" x="147" y="-144.5" font-family="Helvetica,sans-Serif" font-size="10.00">System.Xml.Schema.XmlAtomic</text>
<text text-anchor="middle" x="218" y="-133.5" font-family="Helvetica,sans-Serif" font-size="10.00">Value</text>
</a>
</g>
</g>
<!-- Node0&#45;&gt;Node48 -->
<g id="edge25" class="edge"><title>Node0&#45;&gt;Node48</title>
<path fill="none" stroke="midnightblue" d="M51.3749,-561.518C56.8982,-486.917 79.8363,-225.942 134,-166.5 137.548,-162.607 141.677,-159.311 146.162,-156.521"/>
<polygon fill="midnightblue" stroke="midnightblue" points="47.8596,-561.607 50.6358,-571.831 54.8417,-562.107 47.8596,-561.607"/>
</g>
<!-- Node49 -->
<g id="node27" class="node"><title>Node49</title>
<g id="a_node27"><a xlink:href="class_system_1_1_xml_1_1_xml_node.html" target="_top" xlink:title="Represents a single node in the XML document.">
<polygon fill="none" stroke="red" points="163,-88 163,-107 273,-107 273,-88 163,-88"/>
<text text-anchor="middle" x="218" y="-95" font-family="Helvetica,sans-Serif" font-size="10.00">System.Xml.XmlNode</text>
</a>
</g>
</g>
<!-- Node0&#45;&gt;Node49 -->
<g id="edge26" class="edge"><title>Node0&#45;&gt;Node49</title>
<path fill="none" stroke="midnightblue" d="M50.7923,-561.677C54.3971,-481.62 71.8601,-183.311 134,-117.5 141.632,-109.417 151.916,-104.354 162.643,-101.234"/>
<polygon fill="midnightblue" stroke="midnightblue" points="47.2878,-561.71 50.3574,-571.851 54.2814,-562.01 47.2878,-561.71"/>
</g>
<!-- Node68 -->
<g id="node28" class="node"><title>Node68</title>
<g id="a_node28"><a xlink:href="class_system_1_1_xml_1_1_x_path_1_1_x_path_navigator.html" target="_top" xlink:title="Provides a cursor model for navigating and editing XML data.">
<polygon fill="none" stroke="black" points="135,-50 135,-69 301,-69 301,-50 135,-50"/>
<text text-anchor="middle" x="218" y="-57" font-family="Helvetica,sans-Serif" font-size="10.00">System.Xml.XPath.XPathNavigator</text>
</a>
</g>
</g>
<!-- Node0&#45;&gt;Node68 -->
<g id="edge27" class="edge"><title>Node0&#45;&gt;Node68</title>
<path fill="none" stroke="midnightblue" d="M50.4679,-561.635C52.8648,-477.329 66.4477,-150.201 134,-78.5 137.548,-74.7342 141.677,-71.643 146.162,-69.1122"/>
<polygon fill="midnightblue" stroke="midnightblue" points="46.963,-561.779 50.1995,-571.867 53.9606,-561.962 46.963,-561.779"/>
</g>
<!-- Node69 -->
<g id="node29" class="node"><title>Node69</title>
<g id="a_node29"><a xlink:href="class_system_1_1_xml_1_1_x_path_1_1_x_path_node_iterator.html" target="_top" xlink:title="Provides an iterator over a selected set of nodes.">
<polygon fill="none" stroke="black" points="143.5,-0.5 143.5,-30.5 292.5,-30.5 292.5,-0.5 143.5,-0.5"/>
<text text-anchor="start" x="151.5" y="-18.5" font-family="Helvetica,sans-Serif" font-size="10.00">System.Xml.XPath.XPathNode</text>
<text text-anchor="middle" x="218" y="-7.5" font-family="Helvetica,sans-Serif" font-size="10.00">Iterator</text>
</a>
</g>
</g>
<!-- Node0&#45;&gt;Node69 -->
<g id="edge28" class="edge"><title>Node0&#45;&gt;Node69</title>
<path fill="none" stroke="midnightblue" d="M50.3471,-561.391C52.2732,-473.095 64.2814,-120.613 134,-40.5 137.359,-36.6402 141.29,-33.3647 145.581,-30.5863"/>
<polygon fill="midnightblue" stroke="midnightblue" points="46.843,-561.57 50.1444,-571.637 53.8416,-561.708 46.843,-561.57"/>
</g>
</g>
</svg>
        <g id="navigator" transform="translate(0 0)" fill="#404254">
                <rect fill="#f2f5e9" fill-opacity="0.5" stroke="#606060" stroke-width=".5" x="0" y="0" width="60" height="60"/>
                <use id="zoomplus" xlink:href="#zoomPlus" x="17" y="9" onmousedown="handleZoom(evt,'in')"/>
                <use id="zoomminus" xlink:href="#zoomMin" x="42" y="9" onmousedown="handleZoom(evt,'out')"/>
                <use id="reset" xlink:href="#resetDef" x="30" y="36" onmousedown="handleReset()"/>
                <g id="arrowUp" xlink:href="#dirArrow" transform="translate(30 24)" onmousedown="handlePan(0,-1)">
                  <use xlink:href="#rim" fill="#404040">
                        <set attributeName="fill" to="#808080" begin="arrowUp.mouseover" end="arrowUp.mouseout"/>
                  </use>
                  <path fill="none" stroke="white" stroke-width="1.5" d="M0,-3.0v7 M-2.5,-0.5L0,-3.0L2.5,-0.5"/>
                </g>
                <g id="arrowRight" xlink:href="#dirArrow" transform="rotate(90) translate(36 -43)" onmousedown="handlePan(1,0)">
                  <use xlink:href="#rim" fill="#404040">
                        <set attributeName="fill" to="#808080" begin="arrowRight.mouseover" end="arrowRight.mouseout"/>
                  </use>
                  <path fill="none" stroke="white" stroke-width="1.5" d="M0,-3.0v7 M-2.5,-0.5L0,-3.0L2.5,-0.5"/>
                </g>
                <g id="arrowDown" xlink:href="#dirArrow" transform="rotate(180) translate(-30 -48)" onmousedown="handlePan(0,1)">
                  <use xlink:href="#rim" fill="#404040">
                        <set attributeName="fill" to="#808080" begin="arrowDown.mouseover" end="arrowDown.mouseout"/>
                  </use>
                  <path fill="none" stroke="white" stroke-width="1.5" d="M0,-3.0v7 M-2.5,-0.5L0,-3.0L2.5,-0.5"/>
                </g>
                <g id="arrowLeft" xlink:href="#dirArrow" transform="rotate(270) translate(-36 17)" onmousedown="handlePan(-1,0)">
                  <use xlink:href="#rim" fill="#404040">
                        <set attributeName="fill" to="#808080" begin="arrowLeft.mouseover" end="arrowLeft.mouseout"/>
                  </use>
                  <path fill="none" stroke="white" stroke-width="1.5" d="M0,-3.0v7 M-2.5,-0.5L0,-3.0L2.5,-0.5"/>
                </g>
        </g>
        <svg viewBox="0 0 15 15" width="100%" height="30px" preserveAspectRatio="xMaxYMin meet">
         <g id="arrow_out" transform="scale(0.3 0.3)">
          <a xlink:href="interface_system_1_1_i_cloneable__inherit__graph_org.svg" target="_base">
           <rect id="button" ry="5" rx="5" y="6" x="6" height="38" width="38"
                fill="#f2f5e9" fill-opacity="0.5" stroke="#606060" stroke-width="1.0"/>
           <path id="arrow"
             d="M 11.500037,31.436501 C 11.940474,20.09759 22.043105,11.32322 32.158766,21.979434 L 37.068811,17.246167 C 37.068811,17.246167 37.088388,32 37.088388,32 L 22.160133,31.978069 C 22.160133,31.978069 26.997745,27.140456 26.997745,27.140456 C 18.528582,18.264221 13.291696,25.230495 11.500037,31.436501 z"
             style="fill:#404040;"/>
          </a>
         </g>
        </svg>
</svg>
