<?xml version="1.0" encoding="UTF-8" standalone="no"?>
<!DOCTYPE svg PUBLIC "-//W3C//DTD SVG 1.1//EN"
 "http://www.w3.org/Graphics/SVG/1.1/DTD/svg11.dtd">
<!-- Generated by graphviz version 2.38.0 (20140413.2041)
 -->
<!-- Title: System.Runtime.Remoting.Messaging.IMessage Pages: 1 -->
<svg width="957pt" height="817pt"
 viewBox="0.00 0.00 957.00 816.88" xmlns="http://www.w3.org/2000/svg" xmlns:xlink="http://www.w3.org/1999/xlink">
<g id="graph0" class="graph" transform="scale(1 1) rotate(0) translate(4 812.885)">
<title>System.Runtime.Remoting.Messaging.IMessage</title>
<!-- Node0 -->
<g id="node1" class="node"><title>Node0</title>
<g id="a_node1"><a xlink:title="Contains communication data sent between cooperating message sinks.">
<polygon fill="#bfbfbf" stroke="black" points="0,-325.681 0,-355.681 137,-355.681 137,-325.681 0,-325.681"/>
<text text-anchor="start" x="8" y="-343.681" font-family="Helvetica,sans-Serif" font-size="10.00">System.Runtime.Remoting.</text>
<text text-anchor="middle" x="68.5" y="-332.681" font-family="Helvetica,sans-Serif" font-size="10.00">Messaging.IMessage</text>
</a>
</g>
</g>
<!-- Node1 -->
<g id="node2" class="node"><title>Node1</title>
<g id="a_node2"><a xlink:href="interface_system_1_1_runtime_1_1_remoting_1_1_activation_1_1_i_construction_call_message.html" target="_top" xlink:title="Represents the construction call request of an object.">
<polygon fill="none" stroke="black" points="583.5,-531.181 583.5,-572.181 720.5,-572.181 720.5,-531.181 583.5,-531.181"/>
<text text-anchor="start" x="591.5" y="-560.181" font-family="Helvetica,sans-Serif" font-size="10.00">System.Runtime.Remoting.</text>
<text text-anchor="start" x="591.5" y="-549.181" font-family="Helvetica,sans-Serif" font-size="10.00">Activation.IConstructionCall</text>
<text text-anchor="middle" x="652" y="-538.181" font-family="Helvetica,sans-Serif" font-size="10.00">Message</text>
</a>
</g>
</g>
<!-- Node0&#45;&gt;Node1 -->
<g id="edge1" class="edge"><title>Node0&#45;&gt;Node1</title>
<path fill="none" stroke="midnightblue" d="M94.4088,-362.682C114.702,-379.974 144.552,-404.008 173,-421.681 247.128,-467.731 266.58,-481.054 350,-506.681 428.035,-530.654 521.513,-542.081 583.371,-547.374"/>
<polygon fill="midnightblue" stroke="midnightblue" points="96.4558,-359.826 86.5941,-355.953 91.8882,-365.131 96.4558,-359.826"/>
</g>
<!-- Node2 -->
<g id="node3" class="node"><title>Node2</title>
<g id="a_node3"><a xlink:href="class_system_1_1_runtime_1_1_remoting_1_1_messaging_1_1_construction_call.html" target="_top" xlink:title="Implements the T:System.Runtime.Remoting.Activation.IConstructionCallMessage interface to create a re...">
<polygon fill="none" stroke="black" points="797.5,-635.681 797.5,-665.681 935.5,-665.681 935.5,-635.681 797.5,-635.681"/>
<text text-anchor="start" x="805.5" y="-653.681" font-family="Helvetica,sans-Serif" font-size="10.00">System.Runtime.Remoting.</text>
<text text-anchor="middle" x="866.5" y="-642.681" font-family="Helvetica,sans-Serif" font-size="10.00">Messaging.ConstructionCall</text>
</a>
</g>
</g>
<!-- Node0&#45;&gt;Node2 -->
<g id="edge5" class="edge"><title>Node0&#45;&gt;Node2</title>
<path fill="none" stroke="midnightblue" d="M73.2726,-365.94C84.9059,-440.457 122.509,-657.139 173,-704.681 359.113,-879.922 505.099,-798.346 748,-718.681 784.952,-706.562 823.083,-681.816 845.522,-665.755"/>
<polygon fill="midnightblue" stroke="midnightblue" points="76.7256,-365.366 71.7462,-356.014 69.8069,-366.43 76.7256,-365.366"/>
</g>
<!-- Node3 -->
<g id="node4" class="node"><title>Node3</title>
<g id="a_node4"><a xlink:href="interface_system_1_1_runtime_1_1_remoting_1_1_activation_1_1_i_construction_return_message.html" target="_top" xlink:title="Identifies a T:System.Runtime.Remoting.Messaging.IMethodReturnMessage that is returned after attempti...">
<polygon fill="none" stroke="black" points="578.5,-299.181 578.5,-340.181 725.5,-340.181 725.5,-299.181 578.5,-299.181"/>
<text text-anchor="start" x="586.5" y="-328.181" font-family="Helvetica,sans-Serif" font-size="10.00">System.Runtime.Remoting.</text>
<text text-anchor="start" x="586.5" y="-317.181" font-family="Helvetica,sans-Serif" font-size="10.00">Activation.IConstructionReturn</text>
<text text-anchor="middle" x="652" y="-306.181" font-family="Helvetica,sans-Serif" font-size="10.00">Message</text>
</a>
</g>
</g>
<!-- Node0&#45;&gt;Node3 -->
<g id="edge3" class="edge"><title>Node0&#45;&gt;Node3</title>
<path fill="none" stroke="midnightblue" d="M147.35,-337.87C260.256,-333.792 467.949,-326.292 578.042,-322.316"/>
<polygon fill="midnightblue" stroke="midnightblue" points="146.925,-334.383 137.058,-338.241 147.178,-341.378 146.925,-334.383"/>
</g>
<!-- Node4 -->
<g id="node5" class="node"><title>Node4</title>
<g id="a_node5"><a xlink:href="class_system_1_1_runtime_1_1_remoting_1_1_messaging_1_1_construction_response.html" target="_top" xlink:title="Implements the T:System.Runtime.Remoting.Activation.IConstructionReturnMessage interface to create a ...">
<polygon fill="none" stroke="black" points="784,-205.681 784,-235.681 949,-235.681 949,-205.681 784,-205.681"/>
<text text-anchor="start" x="792" y="-223.681" font-family="Helvetica,sans-Serif" font-size="10.00">System.Runtime.Remoting.</text>
<text text-anchor="middle" x="866.5" y="-212.681" font-family="Helvetica,sans-Serif" font-size="10.00">Messaging.ConstructionResponse</text>
</a>
</g>
</g>
<!-- Node0&#45;&gt;Node4 -->
<g id="edge6" class="edge"><title>Node0&#45;&gt;Node4</title>
<path fill="none" stroke="midnightblue" d="M71.8645,-315.263C78.1038,-264.322 99.9475,-150.214 173,-98.681 381.841,48.6412 515.139,13.6464 748,-91.681 801.271,-115.776 841.003,-176.861 857.333,-205.467"/>
<polygon fill="midnightblue" stroke="midnightblue" points="68.3633,-315.079 70.7291,-325.406 75.3199,-315.858 68.3633,-315.079"/>
</g>
<!-- Node5 -->
<g id="node6" class="node"><title>Node5</title>
<g id="a_node6"><a xlink:href="interface_system_1_1_runtime_1_1_remoting_1_1_messaging_1_1_i_method_call_message.html" target="_top" xlink:title="Defines the method call message interface.">
<polygon fill="none" stroke="black" points="356,-635.681 356,-665.681 514,-665.681 514,-635.681 356,-635.681"/>
<text text-anchor="start" x="364" y="-653.681" font-family="Helvetica,sans-Serif" font-size="10.00">System.Runtime.Remoting.</text>
<text text-anchor="middle" x="435" y="-642.681" font-family="Helvetica,sans-Serif" font-size="10.00">Messaging.IMethodCallMessage</text>
</a>
</g>
</g>
<!-- Node0&#45;&gt;Node5 -->
<g id="edge7" class="edge"><title>Node0&#45;&gt;Node5</title>
<path fill="none" stroke="midnightblue" d="M70.5048,-366.089C74.2145,-422.201 91.5996,-556.774 173,-620.681 224.123,-660.817 299.202,-665.566 355.727,-661.887"/>
<polygon fill="midnightblue" stroke="midnightblue" points="73.9908,-365.743 69.9302,-355.957 67.0021,-366.139 73.9908,-365.743"/>
</g>
<!-- Node6 -->
<g id="node7" class="node"><title>Node6</title>
<g id="a_node7"><a xlink:href="class_system_1_1_runtime_1_1_remoting_1_1_messaging_1_1_method_call.html" target="_top" xlink:title="Implements the T:System.Runtime.Remoting.Messaging.IMethodCallMessage interface to create a request m...">
<polygon fill="none" stroke="black" points="583.5,-679.681 583.5,-709.681 720.5,-709.681 720.5,-679.681 583.5,-679.681"/>
<text text-anchor="start" x="591.5" y="-697.681" font-family="Helvetica,sans-Serif" font-size="10.00">System.Runtime.Remoting.</text>
<text text-anchor="middle" x="652" y="-686.681" font-family="Helvetica,sans-Serif" font-size="10.00">Messaging.MethodCall</text>
</a>
</g>
</g>
<!-- Node0&#45;&gt;Node6 -->
<g id="edge32" class="edge"><title>Node0&#45;&gt;Node6</title>
<path fill="none" stroke="midnightblue" d="M70.2843,-366.018C73.5145,-425.342 89.9337,-574.369 173,-655.681 286.942,-767.217 497.893,-733.708 596.959,-709.742"/>
<polygon fill="midnightblue" stroke="midnightblue" points="73.7803,-365.849 69.8215,-356.022 66.7878,-366.173 73.7803,-365.849"/>
</g>
<!-- Node7 -->
<g id="node8" class="node"><title>Node7</title>
<g id="a_node8"><a xlink:href="class_system_1_1_runtime_1_1_remoting_1_1_messaging_1_1_method_call_message_wrapper.html" target="_top" xlink:title="Implements the T:System.Runtime.Remoting.Messaging.IMethodCallMessage interface to create a request m...">
<polygon fill="none" stroke="black" points="556,-591.681 556,-621.681 748,-621.681 748,-591.681 556,-591.681"/>
<text text-anchor="start" x="564" y="-609.681" font-family="Helvetica,sans-Serif" font-size="10.00">System.Runtime.Remoting.</text>
<text text-anchor="middle" x="652" y="-598.681" font-family="Helvetica,sans-Serif" font-size="10.00">Messaging.MethodCallMessageWrapper</text>
</a>
</g>
</g>
<!-- Node0&#45;&gt;Node7 -->
<g id="edge33" class="edge"><title>Node0&#45;&gt;Node7</title>
<path fill="none" stroke="midnightblue" d="M82.7007,-364.757C99.9081,-394.077 132.625,-443.312 173,-472.681 287.825,-556.206 452.827,-587.723 555.867,-599.579"/>
<polygon fill="midnightblue" stroke="midnightblue" points="85.6815,-362.92 77.6687,-355.988 79.6101,-366.404 85.6815,-362.92"/>
</g>
<!-- Node8 -->
<g id="node9" class="node"><title>Node8</title>
<g id="a_node9"><a xlink:href="interface_system_1_1_runtime_1_1_remoting_1_1_messaging_1_1_i_method_message.html" target="_top" xlink:title="Defines the method message interface.">
<polygon fill="none" stroke="black" points="173,-382.681 173,-412.681 314,-412.681 314,-382.681 173,-382.681"/>
<text text-anchor="start" x="181" y="-400.681" font-family="Helvetica,sans-Serif" font-size="10.00">System.Runtime.Remoting.</text>
<text text-anchor="middle" x="243.5" y="-389.681" font-family="Helvetica,sans-Serif" font-size="10.00">Messaging.IMethodMessage</text>
</a>
</g>
</g>
<!-- Node0&#45;&gt;Node8 -->
<g id="edge13" class="edge"><title>Node0&#45;&gt;Node8</title>
<path fill="none" stroke="midnightblue" d="M125.083,-358.994C148.198,-366.611 174.706,-375.344 196.679,-382.584"/>
<polygon fill="midnightblue" stroke="midnightblue" points="126,-355.612 115.407,-355.806 123.809,-362.26 126,-355.612"/>
</g>
<!-- Node9 -->
<g id="node10" class="node"><title>Node9</title>
<g id="a_node10"><a xlink:href="interface_system_1_1_runtime_1_1_remoting_1_1_messaging_1_1_i_method_return_message.html" target="_top" xlink:title="Defines the method call return message interface.">
<polygon fill="none" stroke="black" points="350,-205.681 350,-235.681 520,-235.681 520,-205.681 350,-205.681"/>
<text text-anchor="start" x="358" y="-223.681" font-family="Helvetica,sans-Serif" font-size="10.00">System.Runtime.Remoting.</text>
<text text-anchor="middle" x="435" y="-212.681" font-family="Helvetica,sans-Serif" font-size="10.00">Messaging.IMethodReturnMessage</text>
</a>
</g>
</g>
<!-- Node0&#45;&gt;Node9 -->
<g id="edge31" class="edge"><title>Node0&#45;&gt;Node9</title>
<path fill="none" stroke="midnightblue" d="M88.313,-317.816C107.281,-296.516 138.608,-265.838 173,-250.681 228.615,-226.171 297.046,-219.049 349.884,-217.854"/>
<polygon fill="midnightblue" stroke="midnightblue" points="85.5822,-315.622 81.6679,-325.468 90.8674,-320.212 85.5822,-315.622"/>
</g>
<!-- Node10 -->
<g id="node11" class="node"><title>Node10</title>
<g id="a_node11"><a xlink:href="class_system_1_1_runtime_1_1_remoting_1_1_messaging_1_1_method_response.html" target="_top" xlink:title="Implements the T:System.Runtime.Remoting.Messaging.IMethodReturnMessage interface to create a message...">
<polygon fill="none" stroke="black" points="580.5,-101.681 580.5,-131.681 723.5,-131.681 723.5,-101.681 580.5,-101.681"/>
<text text-anchor="start" x="588.5" y="-119.681" font-family="Helvetica,sans-Serif" font-size="10.00">System.Runtime.Remoting.</text>
<text text-anchor="middle" x="652" y="-108.681" font-family="Helvetica,sans-Serif" font-size="10.00">Messaging.MethodResponse</text>
</a>
</g>
</g>
<!-- Node0&#45;&gt;Node10 -->
<g id="edge34" class="edge"><title>Node0&#45;&gt;Node10</title>
<path fill="none" stroke="midnightblue" d="M75.2973,-315.706C86.3733,-274.246 114.801,-192.081 173,-154.681 298.01,-74.3464 481.084,-87.5661 580.472,-102.933"/>
<polygon fill="midnightblue" stroke="midnightblue" points="71.8662,-314.997 72.7911,-325.551 78.6499,-316.724 71.8662,-314.997"/>
</g>
<!-- Node11 -->
<g id="node12" class="node"><title>Node11</title>
<g id="a_node12"><a xlink:href="class_system_1_1_runtime_1_1_remoting_1_1_messaging_1_1_method_return_message_wrapper.html" target="_top" xlink:title="Implements the T:System.Runtime.Remoting.Messaging.IMethodReturnMessage interface to create a message...">
<polygon fill="none" stroke="black" points="568.5,-151.181 568.5,-192.181 735.5,-192.181 735.5,-151.181 568.5,-151.181"/>
<text text-anchor="start" x="576.5" y="-180.181" font-family="Helvetica,sans-Serif" font-size="10.00">System.Runtime.Remoting.</text>
<text text-anchor="start" x="576.5" y="-169.181" font-family="Helvetica,sans-Serif" font-size="10.00">Messaging.MethodReturnMessage</text>
<text text-anchor="middle" x="652" y="-158.181" font-family="Helvetica,sans-Serif" font-size="10.00">Wrapper</text>
</a>
</g>
</g>
<!-- Node0&#45;&gt;Node11 -->
<g id="edge35" class="edge"><title>Node0&#45;&gt;Node11</title>
<path fill="none" stroke="midnightblue" d="M83.8412,-316.86C101.596,-289.218 134.276,-243.954 173,-216.681 241.516,-168.426 267.491,-166.352 350,-151.681 423.091,-138.685 507.525,-146.213 568.331,-155.521"/>
<polygon fill="midnightblue" stroke="midnightblue" points="80.7643,-315.178 78.4051,-325.507 86.6905,-318.904 80.7643,-315.178"/>
</g>
<!-- Node12 -->
<g id="node13" class="node"><title>Node12</title>
<g id="a_node13"><a xlink:href="class_system_1_1_runtime_1_1_remoting_1_1_messaging_1_1_return_message.html" target="_top" xlink:title="Holds a message returned in response to a method call on a remote object.">
<polygon fill="none" stroke="black" points="583.5,-249.681 583.5,-279.681 720.5,-279.681 720.5,-249.681 583.5,-249.681"/>
<text text-anchor="start" x="591.5" y="-267.681" font-family="Helvetica,sans-Serif" font-size="10.00">System.Runtime.Remoting.</text>
<text text-anchor="middle" x="652" y="-256.681" font-family="Helvetica,sans-Serif" font-size="10.00">Messaging.ReturnMessage</text>
</a>
</g>
</g>
<!-- Node0&#45;&gt;Node12 -->
<g id="edge36" class="edge"><title>Node0&#45;&gt;Node12</title>
<path fill="none" stroke="midnightblue" d="M147.162,-330.531C261.764,-315.553 474.314,-287.773 583.063,-273.56"/>
<polygon fill="midnightblue" stroke="midnightblue" points="146.52,-327.085 137.058,-331.851 147.428,-334.026 146.52,-327.085"/>
</g>
<!-- Node1&#45;&gt;Node2 -->
<g id="edge2" class="edge"><title>Node1&#45;&gt;Node2</title>
<path fill="none" stroke="midnightblue" d="M730.24,-574.445C736.312,-576.727 742.296,-579.144 748,-581.681 782.801,-597.157 820.303,-620.458 843.344,-635.621"/>
<polygon fill="midnightblue" stroke="midnightblue" points="731.248,-571.088 720.654,-570.973 728.865,-577.669 731.248,-571.088"/>
</g>
<!-- Node3&#45;&gt;Node4 -->
<g id="edge4" class="edge"><title>Node3&#45;&gt;Node4</title>
<path fill="none" stroke="midnightblue" d="M731.452,-295.531C737.105,-293.35 742.672,-291.06 748,-288.681 782.433,-273.303 819.723,-250.585 842.849,-235.709"/>
<polygon fill="midnightblue" stroke="midnightblue" points="730.034,-292.325 721.887,-299.099 732.48,-298.884 730.034,-292.325"/>
</g>
<!-- Node5&#45;&gt;Node1 -->
<g id="edge8" class="edge"><title>Node5&#45;&gt;Node1</title>
<path fill="none" stroke="midnightblue" d="M467.228,-630.221C490.892,-615.345 524.588,-595.478 556,-581.681 564.71,-577.856 574.062,-574.289 583.379,-571.047"/>
<polygon fill="midnightblue" stroke="midnightblue" points="465.239,-627.338 458.676,-635.655 468.993,-633.247 465.239,-627.338"/>
</g>
<!-- Node5&#45;&gt;Node2 -->
<g id="edge9" class="edge"><title>Node5&#45;&gt;Node2</title>
<path fill="none" stroke="midnightblue" d="M524.453,-650.681C605.393,-650.681 723.464,-650.681 797.313,-650.681"/>
<polygon fill="midnightblue" stroke="midnightblue" points="524.278,-647.181 514.278,-650.681 524.277,-654.181 524.278,-647.181"/>
</g>
<!-- Node5&#45;&gt;Node6 -->
<g id="edge10" class="edge"><title>Node5&#45;&gt;Node6</title>
<path fill="none" stroke="midnightblue" d="M519.346,-667.738C540.541,-672.076 563.058,-676.684 583.363,-680.839"/>
<polygon fill="midnightblue" stroke="midnightblue" points="519.888,-664.276 509.389,-665.7 518.485,-671.134 519.888,-664.276"/>
</g>
<!-- Node5&#45;&gt;Node7 -->
<g id="edge12" class="edge"><title>Node5&#45;&gt;Node7</title>
<path fill="none" stroke="midnightblue" d="M519.321,-633.629C538.53,-629.698 558.825,-625.545 577.576,-621.707"/>
<polygon fill="midnightblue" stroke="midnightblue" points="518.485,-630.228 509.389,-635.662 519.888,-637.086 518.485,-630.228"/>
</g>
<!-- Node6&#45;&gt;Node2 -->
<g id="edge11" class="edge"><title>Node6&#45;&gt;Node2</title>
<path fill="none" stroke="midnightblue" d="M730.464,-678.641C752.391,-674.101 776.088,-669.195 797.418,-664.778"/>
<polygon fill="midnightblue" stroke="midnightblue" points="729.611,-675.244 720.528,-680.699 731.03,-682.098 729.611,-675.244"/>
</g>
<!-- Node8&#45;&gt;Node1 -->
<g id="edge14" class="edge"><title>Node8&#45;&gt;Node1</title>
<path fill="none" stroke="midnightblue" d="M270.763,-418.892C291.284,-434.561 321.084,-455.395 350,-468.681 360.79,-473.639 497.867,-510.706 583.269,-533.596"/>
<polygon fill="midnightblue" stroke="midnightblue" points="272.882,-416.106 262.836,-412.742 268.592,-421.637 272.882,-416.106"/>
</g>
<!-- Node8&#45;&gt;Node2 -->
<g id="edge16" class="edge"><title>Node8&#45;&gt;Node2</title>
<path fill="none" stroke="midnightblue" d="M307.763,-415.446C321.655,-419.243 336.305,-423.165 350,-426.681 526.147,-471.899 591.383,-429.25 748,-521.681 797.83,-551.089 838.711,-608.424 856.259,-635.643"/>
<polygon fill="midnightblue" stroke="midnightblue" points="308.376,-411.985 297.806,-412.712 306.522,-418.735 308.376,-411.985"/>
</g>
<!-- Node8&#45;&gt;Node3 -->
<g id="edge15" class="edge"><title>Node8&#45;&gt;Node3</title>
<path fill="none" stroke="midnightblue" d="M324.296,-387.512C379.52,-379.916 454.563,-368.488 520,-354.681 539.463,-350.574 560.351,-345.365 579.601,-340.229"/>
<polygon fill="midnightblue" stroke="midnightblue" points="323.657,-384.066 314.221,-388.885 324.603,-391.002 323.657,-384.066"/>
</g>
<!-- Node8&#45;&gt;Node4 -->
<g id="edge17" class="edge"><title>Node8&#45;&gt;Node4</title>
<path fill="none" stroke="midnightblue" d="M324.532,-408.162C428.612,-417.914 613.037,-421.673 748,-349.681 799.319,-322.306 839.753,-263.431 856.763,-235.705"/>
<polygon fill="midnightblue" stroke="midnightblue" points="324.7,-404.662 314.406,-407.17 324.018,-411.628 324.7,-404.662"/>
</g>
<!-- Node8&#45;&gt;Node5 -->
<g id="edge18" class="edge"><title>Node8&#45;&gt;Node5</title>
<path fill="none" stroke="midnightblue" d="M260.869,-421.21C281.326,-450.447 317.596,-501.728 350,-544.681 374.747,-577.484 404.913,-614.973 421.526,-635.413"/>
<polygon fill="midnightblue" stroke="midnightblue" points="263.645,-419.072 255.049,-412.878 257.906,-423.081 263.645,-419.072"/>
</g>
<!-- Node8&#45;&gt;Node6 -->
<g id="edge26" class="edge"><title>Node8&#45;&gt;Node6</title>
<path fill="none" stroke="midnightblue" d="M245.574,-423.126C249.457,-479.266 267.37,-613.592 350,-674.681 417.065,-724.262 517.17,-719.897 583.257,-709.516"/>
<polygon fill="midnightblue" stroke="midnightblue" points="249.058,-422.76 244.97,-412.986 242.071,-423.176 249.058,-422.76"/>
</g>
<!-- Node8&#45;&gt;Node7 -->
<g id="edge27" class="edge"><title>Node8&#45;&gt;Node7</title>
<path fill="none" stroke="midnightblue" d="M261.649,-420.822C280.78,-445.193 313.831,-483.22 350,-506.681 417.795,-550.657 506.774,-577.076 570.373,-591.616"/>
<polygon fill="midnightblue" stroke="midnightblue" points="264.357,-418.602 255.48,-412.818 258.812,-422.875 264.357,-418.602"/>
</g>
<!-- Node8&#45;&gt;Node9 -->
<g id="edge19" class="edge"><title>Node8&#45;&gt;Node9</title>
<path fill="none" stroke="midnightblue" d="M268.419,-375.339C307.615,-338.729 384.495,-266.92 417.884,-235.734"/>
<polygon fill="midnightblue" stroke="midnightblue" points="265.576,-373.206 260.657,-382.59 270.354,-378.322 265.576,-373.206"/>
</g>
<!-- Node8&#45;&gt;Node10 -->
<g id="edge28" class="edge"><title>Node8&#45;&gt;Node10</title>
<path fill="none" stroke="midnightblue" d="M247.223,-372.29C254.156,-321.344 277.414,-206.906 350,-152.681 416.196,-103.229 514.409,-100.893 580.471,-106.482"/>
<polygon fill="midnightblue" stroke="midnightblue" points="243.723,-372.072 245.948,-382.43 250.669,-372.945 243.723,-372.072"/>
</g>
<!-- Node8&#45;&gt;Node11 -->
<g id="edge29" class="edge"><title>Node8&#45;&gt;Node11</title>
<path fill="none" stroke="midnightblue" d="M249.445,-372.489C259.606,-328.192 287.359,-237.128 350,-195.681 414.158,-153.23 503.67,-151.562 568.386,-157.87"/>
<polygon fill="midnightblue" stroke="midnightblue" points="245.986,-371.923 247.281,-382.438 252.826,-373.411 245.986,-371.923"/>
</g>
<!-- Node8&#45;&gt;Node12 -->
<g id="edge30" class="edge"><title>Node8&#45;&gt;Node12</title>
<path fill="none" stroke="midnightblue" d="M288.849,-378.668C307.585,-370.881 329.721,-361.999 350,-354.681 440.305,-322.092 463.773,-316.35 556,-289.681 567.632,-286.317 580.12,-282.897 592.093,-279.709"/>
<polygon fill="midnightblue" stroke="midnightblue" points="287.264,-375.538 279.39,-382.627 289.966,-381.995 287.264,-375.538"/>
</g>
<!-- Node9&#45;&gt;Node3 -->
<g id="edge20" class="edge"><title>Node9&#45;&gt;Node3</title>
<path fill="none" stroke="midnightblue" d="M468.196,-241.272C491.849,-255.812 525.112,-275.054 556,-288.681 564.413,-292.392 573.414,-295.896 582.399,-299.118"/>
<polygon fill="midnightblue" stroke="midnightblue" points="469.968,-238.253 459.626,-235.952 466.275,-244.2 469.968,-238.253"/>
</g>
<!-- Node9&#45;&gt;Node4 -->
<g id="edge21" class="edge"><title>Node9&#45;&gt;Node4</title>
<path fill="none" stroke="midnightblue" d="M530.116,-220.681C605.947,-220.681 711.484,-220.681 783.801,-220.681"/>
<polygon fill="midnightblue" stroke="midnightblue" points="530.087,-217.181 520.087,-220.681 530.087,-224.181 530.087,-217.181"/>
</g>
<!-- Node9&#45;&gt;Node10 -->
<g id="edge22" class="edge"><title>Node9&#45;&gt;Node10</title>
<path fill="none" stroke="midnightblue" d="M462.87,-199.289C486.265,-181.599 521.717,-156.981 556,-141.681 564.488,-137.893 573.667,-134.585 582.859,-131.724"/>
<polygon fill="midnightblue" stroke="midnightblue" points="460.625,-196.6 454.821,-205.463 464.885,-202.154 460.625,-196.6"/>
</g>
<!-- Node9&#45;&gt;Node11 -->
<g id="edge24" class="edge"><title>Node9&#45;&gt;Node11</title>
<path fill="none" stroke="midnightblue" d="M511.718,-203.424C530.072,-199.241 549.784,-194.749 568.436,-190.498"/>
<polygon fill="midnightblue" stroke="midnightblue" points="510.94,-200.012 501.968,-205.646 512.496,-206.837 510.94,-200.012"/>
</g>
<!-- Node9&#45;&gt;Node12 -->
<g id="edge25" class="edge"><title>Node9&#45;&gt;Node12</title>
<path fill="none" stroke="midnightblue" d="M519.346,-237.738C540.541,-242.076 563.058,-246.684 583.363,-250.839"/>
<polygon fill="midnightblue" stroke="midnightblue" points="519.888,-234.276 509.389,-235.7 518.485,-241.134 519.888,-234.276"/>
</g>
<!-- Node10&#45;&gt;Node4 -->
<g id="edge23" class="edge"><title>Node10&#45;&gt;Node4</title>
<path fill="none" stroke="midnightblue" d="M731.201,-134.981C736.966,-137.02 742.624,-139.25 748,-141.681 785.853,-158.796 824.936,-187.742 847.128,-205.44"/>
<polygon fill="midnightblue" stroke="midnightblue" points="732.022,-131.565 721.428,-131.726 729.81,-138.206 732.022,-131.565"/>
</g>
</g>
</svg>
