<?xml version="1.0" encoding="UTF-8" standalone="no"?>
<!DOCTYPE svg PUBLIC "-//W3C//DTD SVG 1.1//EN"
 "http://www.w3.org/Graphics/SVG/1.1/DTD/svg11.dtd">
<!-- Generated by graphviz version 2.38.0 (20140413.2041)
 -->
<!-- Title: System.Runtime.InteropServices.WindowsRuntime.IMapView&lt; K, V &gt; Pages: 1 -->
<svg width="880pt" height="127pt"
 viewBox="0.00 0.00 880.00 126.50" xmlns="http://www.w3.org/2000/svg" xmlns:xlink="http://www.w3.org/1999/xlink">
<g id="graph0" class="graph" transform="scale(1 1) rotate(0) translate(4 122.5)">
<title>System.Runtime.InteropServices.WindowsRuntime.IMapView&lt; K, V &gt;</title>
<!-- Node0 -->
<g id="node1" class="node"><title>Node0</title>
<g id="a_node1"><a xlink:title=" ">
<polygon fill="#bfbfbf" stroke="black" points="178,-39 178,-69 353,-69 353,-39 178,-39"/>
<text text-anchor="start" x="186" y="-57" font-family="Helvetica,sans-Serif" font-size="10.00">System.Runtime.InteropServices.</text>
<text text-anchor="middle" x="265.5" y="-46" font-family="Helvetica,sans-Serif" font-size="10.00">WindowsRuntime.IMapView&lt; K, V &gt;</text>
</a>
</g>
</g>
<!-- Node4 -->
<g id="node5" class="node"><title>Node4</title>
<g id="a_node5"><a xlink:href="interface_system_1_1_runtime_1_1_interop_services_1_1_windows_runtime_1_1_i_map_view.html" target="_top" xlink:title=" ">
<polygon fill="none" stroke="black" points="469,-33.5 469,-74.5 641,-74.5 641,-33.5 469,-33.5"/>
<text text-anchor="start" x="477" y="-62.5" font-family="Helvetica,sans-Serif" font-size="10.00">System.Runtime.InteropServices.</text>
<text text-anchor="start" x="477" y="-51.5" font-family="Helvetica,sans-Serif" font-size="10.00">WindowsRuntime.IMapView&lt; TKey,</text>
<text text-anchor="middle" x="555" y="-40.5" font-family="Helvetica,sans-Serif" font-size="10.00"> TValue &gt;</text>
</a>
</g>
</g>
<!-- Node0&#45;&gt;Node4 -->
<g id="edge4" class="edge"><title>Node0&#45;&gt;Node4</title>
<path fill="none" stroke="orange" stroke-dasharray="5,2" d="M363.571,-54C397.589,-54 435.519,-54 468.518,-54"/>
<polygon fill="orange" stroke="orange" points="363.149,-50.5001 353.149,-54 363.149,-57.5001 363.149,-50.5001"/>
<text text-anchor="middle" x="411" y="-57" font-family="Helvetica,sans-Serif" font-size="10.00"> &lt; TKey, TValue &gt;</text>
</g>
<!-- Node1 -->
<g id="node2" class="node"><title>Node1</title>
<g id="a_node2"><a xlink:title=" ">
<polygon fill="none" stroke="#bfbfbf" points="10,-88 10,-118 131,-118 131,-88 10,-88"/>
<text text-anchor="start" x="18" y="-106" font-family="Helvetica,sans-Serif" font-size="10.00">IIterable&lt; IKeyValuePair</text>
<text text-anchor="middle" x="70.5" y="-95" font-family="Helvetica,sans-Serif" font-size="10.00">&lt; K, V &gt;&gt;</text>
</a>
</g>
</g>
<!-- Node1&#45;&gt;Node0 -->
<g id="edge1" class="edge"><title>Node1&#45;&gt;Node0</title>
<path fill="none" stroke="midnightblue" d="M140.625,-85.4502C161.819,-80.0694 184.933,-74.201 205.394,-69.0062"/>
<polygon fill="midnightblue" stroke="midnightblue" points="139.549,-82.1121 130.718,-87.9654 141.272,-88.8969 139.549,-82.1121"/>
</g>
<!-- Node2 -->
<g id="node3" class="node"><title>Node2</title>
<g id="a_node3"><a xlink:title=" ">
<polygon fill="none" stroke="#bfbfbf" points="0,-39 0,-69 141,-69 141,-39 0,-39"/>
<text text-anchor="start" x="8" y="-57" font-family="Helvetica,sans-Serif" font-size="10.00">IEnumerable&lt; IKeyValuePair</text>
<text text-anchor="middle" x="70.5" y="-46" font-family="Helvetica,sans-Serif" font-size="10.00">&lt; K, V &gt;&gt;</text>
</a>
</g>
</g>
<!-- Node2&#45;&gt;Node0 -->
<g id="edge2" class="edge"><title>Node2&#45;&gt;Node0</title>
<path fill="none" stroke="midnightblue" d="M151.321,-54C160.05,-54 168.967,-54 177.774,-54"/>
<polygon fill="midnightblue" stroke="midnightblue" points="151.177,-50.5001 141.177,-54 151.177,-57.5001 151.177,-50.5001"/>
</g>
<!-- Node3 -->
<g id="node4" class="node"><title>Node3</title>
<g id="a_node4"><a xlink:href="interface_system_1_1_collections_1_1_i_enumerable.html" target="_top" xlink:title="Exposes an enumerator, which supports a simple iteration over a non&#45;generic collection....">
<polygon fill="none" stroke="black" points="35,-0.5 35,-19.5 106,-19.5 106,-0.5 35,-0.5"/>
<text text-anchor="middle" x="70.5" y="-7.5" font-family="Helvetica,sans-Serif" font-size="10.00">IEnumerable</text>
</a>
</g>
</g>
<!-- Node3&#45;&gt;Node0 -->
<g id="edge3" class="edge"><title>Node3&#45;&gt;Node0</title>
<path fill="none" stroke="midnightblue" d="M115.761,-20.0905C140.318,-25.6891 171.337,-32.7608 198.685,-38.9956"/>
<polygon fill="midnightblue" stroke="midnightblue" points="116.532,-16.6767 106.005,-17.8663 114.976,-23.5016 116.532,-16.6767"/>
</g>
<!-- Node5 -->
<g id="node6" class="node"><title>Node5</title>
<g id="a_node6"><a xlink:href="class_system_1_1_runtime_1_1_interop_services_1_1_windows_runtime_1_1_constant_splittable_map.html" target="_top" xlink:title=" ">
<polygon fill="none" stroke="black" points="678,-33.5 678,-74.5 872,-74.5 872,-33.5 678,-33.5"/>
<text text-anchor="start" x="686" y="-62.5" font-family="Helvetica,sans-Serif" font-size="10.00">System.Runtime.InteropServices.</text>
<text text-anchor="start" x="686" y="-51.5" font-family="Helvetica,sans-Serif" font-size="10.00">WindowsRuntime.ConstantSplittableMap</text>
<text text-anchor="middle" x="775" y="-40.5" font-family="Helvetica,sans-Serif" font-size="10.00">&lt; TKey, TValue &gt;</text>
</a>
</g>
</g>
<!-- Node4&#45;&gt;Node5 -->
<g id="edge5" class="edge"><title>Node4&#45;&gt;Node5</title>
<path fill="none" stroke="midnightblue" d="M651.481,-54C660.279,-54 669.197,-54 678,-54"/>
<polygon fill="midnightblue" stroke="midnightblue" points="651.221,-50.5001 641.221,-54 651.221,-57.5001 651.221,-50.5001"/>
</g>
</g>
</svg>
