<?xml version="1.0" encoding="UTF-8" standalone="no"?>
<!DOCTYPE svg PUBLIC "-//W3C//DTD SVG 1.1//EN"
 "http://www.w3.org/Graphics/SVG/1.1/DTD/svg11.dtd">
<!-- Generated by graphviz version 2.38.0 (20140413.2041)
 -->
<!-- Title: System.Collections.Generic.ICollection&lt; T &gt; Pages: 1 -->
<svg width="192pt" height="95pt"
 viewBox="0.00 0.00 191.50 95.00" xmlns="http://www.w3.org/2000/svg" xmlns:xlink="http://www.w3.org/1999/xlink">
<g id="graph0" class="graph" transform="scale(1 1) rotate(0) translate(4 91)">
<title>System.Collections.Generic.ICollection&lt; T &gt;</title>
<!-- Node190 -->
<g id="node1" class="node"><title>Node190</title>
<g id="a_node1"><a xlink:title="Defines methods to manipulate generic collections.">
<polygon fill="#bfbfbf" stroke="black" points="26.5,-0.5 26.5,-30.5 167.5,-30.5 167.5,-0.5 26.5,-0.5"/>
<text text-anchor="start" x="34.5" y="-18.5" font-family="Helvetica,sans-Serif" font-size="10.00">System.Collections.Generic.</text>
<text text-anchor="middle" x="97" y="-7.5" font-family="Helvetica,sans-Serif" font-size="10.00">ICollection&lt; T &gt;</text>
</a>
</g>
</g>
<!-- Node191 -->
<g id="node2" class="node"><title>Node191</title>
<g id="a_node2"><a xlink:href="interface_system_1_1_collections_1_1_generic_1_1_i_enumerable.html" target="_top" xlink:title=" ">
<polygon fill="none" stroke="red" points="0,-67.5 0,-86.5 94,-86.5 94,-67.5 0,-67.5"/>
<text text-anchor="middle" x="47" y="-74.5" font-family="Helvetica,sans-Serif" font-size="10.00">IEnumerable&lt; T &gt;</text>
</a>
</g>
</g>
<!-- Node191&#45;&gt;Node190 -->
<g id="edge1" class="edge"><title>Node191&#45;&gt;Node190</title>
<path fill="none" stroke="midnightblue" d="M60.6044,-59.8108C68.3037,-50.6486 77.8376,-39.3032 85.216,-30.523"/>
<polygon fill="midnightblue" stroke="midnightblue" points="57.9177,-57.5676 54.1638,-67.4751 63.2768,-62.071 57.9177,-57.5676"/>
</g>
<!-- Node193 -->
<g id="node3" class="node"><title>Node193</title>
<g id="a_node3"><a xlink:href="interface_system_1_1_collections_1_1_i_enumerable.html" target="_top" xlink:title="Exposes an enumerator, which supports a simple iteration over a non&#45;generic collection....">
<polygon fill="none" stroke="black" points="112.5,-67.5 112.5,-86.5 183.5,-86.5 183.5,-67.5 112.5,-67.5"/>
<text text-anchor="middle" x="148" y="-74.5" font-family="Helvetica,sans-Serif" font-size="10.00">IEnumerable</text>
</a>
</g>
</g>
<!-- Node193&#45;&gt;Node190 -->
<g id="edge2" class="edge"><title>Node193&#45;&gt;Node190</title>
<path fill="none" stroke="midnightblue" d="M134.124,-59.8108C126.27,-50.6486 116.546,-39.3032 109.02,-30.523"/>
<polygon fill="midnightblue" stroke="midnightblue" points="131.528,-62.1603 140.693,-67.4751 136.842,-57.6047 131.528,-62.1603"/>
</g>
</g>
</svg>
