<?xml version="1.0" encoding="UTF-8" standalone="no"?>
<!DOCTYPE svg PUBLIC "-//W3C//DTD SVG 1.1//EN"
 "http://www.w3.org/Graphics/SVG/1.1/DTD/svg11.dtd">
<!-- Generated by graphviz version 2.38.0 (20140413.2041)
 -->
<!-- Title: System.IRuntimeMethodInfo Pages: 1 -->
<svg width="340pt" height="127pt"
 viewBox="0.00 0.00 340.00 126.50" xmlns="http://www.w3.org/2000/svg" xmlns:xlink="http://www.w3.org/1999/xlink">
<g id="graph0" class="graph" transform="scale(1 1) rotate(0) translate(4 122.5)">
<title>System.IRuntimeMethodInfo</title>
<!-- Node0 -->
<g id="node1" class="node"><title>Node0</title>
<g id="a_node1"><a xlink:title=" ">
<polygon fill="#bfbfbf" stroke="black" points="0,-44.5 0,-63.5 139,-63.5 139,-44.5 0,-44.5"/>
<text text-anchor="middle" x="69.5" y="-51.5" font-family="Helvetica,sans-Serif" font-size="10.00">System.IRuntimeMethodInfo</text>
</a>
</g>
</g>
<!-- Node1 -->
<g id="node2" class="node"><title>Node1</title>
<g id="a_node2"><a xlink:href="class_system_1_1_reflection_1_1_runtime_constructor_info.html" target="_top" xlink:title=" ">
<polygon fill="none" stroke="black" points="186,-88 186,-118 321,-118 321,-88 186,-88"/>
<text text-anchor="start" x="194" y="-106" font-family="Helvetica,sans-Serif" font-size="10.00">System.Reflection.Runtime</text>
<text text-anchor="middle" x="253.5" y="-95" font-family="Helvetica,sans-Serif" font-size="10.00">ConstructorInfo</text>
</a>
</g>
</g>
<!-- Node0&#45;&gt;Node1 -->
<g id="edge1" class="edge"><title>Node0&#45;&gt;Node1</title>
<path fill="none" stroke="midnightblue" d="M115.776,-66.1896C140.257,-72.7808 170.705,-80.9782 196.648,-87.963"/>
<polygon fill="midnightblue" stroke="midnightblue" points="116.59,-62.7842 106.023,-63.564 114.77,-69.5435 116.59,-62.7842"/>
</g>
<!-- Node2 -->
<g id="node3" class="node"><title>Node2</title>
<g id="a_node3"><a xlink:href="class_system_1_1_reflection_1_1_runtime_method_info.html" target="_top" xlink:title=" ">
<polygon fill="none" stroke="black" points="186,-39 186,-69 321,-69 321,-39 186,-39"/>
<text text-anchor="start" x="194" y="-57" font-family="Helvetica,sans-Serif" font-size="10.00">System.Reflection.Runtime</text>
<text text-anchor="middle" x="253.5" y="-46" font-family="Helvetica,sans-Serif" font-size="10.00">MethodInfo</text>
</a>
</g>
</g>
<!-- Node0&#45;&gt;Node2 -->
<g id="edge2" class="edge"><title>Node0&#45;&gt;Node2</title>
<path fill="none" stroke="midnightblue" d="M149.209,-54C161.413,-54 173.918,-54 185.824,-54"/>
<polygon fill="midnightblue" stroke="midnightblue" points="149.047,-50.5001 139.047,-54 149.047,-57.5001 149.047,-50.5001"/>
</g>
<!-- Node3 -->
<g id="node4" class="node"><title>Node3</title>
<g id="a_node4"><a xlink:href="class_system_1_1_runtime_method_info_stub.html" target="_top" xlink:title=" ">
<polygon fill="none" stroke="black" points="175,-0.5 175,-19.5 332,-19.5 332,-0.5 175,-0.5"/>
<text text-anchor="middle" x="253.5" y="-7.5" font-family="Helvetica,sans-Serif" font-size="10.00">System.RuntimeMethodInfoStub</text>
</a>
</g>
</g>
<!-- Node0&#45;&gt;Node3 -->
<g id="edge3" class="edge"><title>Node0&#45;&gt;Node3</title>
<path fill="none" stroke="midnightblue" d="M120.008,-42.031C149.262,-34.9586 185.795,-26.1264 213.086,-19.5287"/>
<polygon fill="midnightblue" stroke="midnightblue" points="118.889,-38.7007 109.991,-44.4527 120.534,-45.5047 118.889,-38.7007"/>
</g>
</g>
</svg>
