<?xml version="1.0" encoding="UTF-8" standalone="no"?>
<!DOCTYPE svg PUBLIC "-//W3C//DTD SVG 1.1//EN"
 "http://www.w3.org/Graphics/SVG/1.1/DTD/svg11.dtd">
<!-- Generated by graphviz version 2.38.0 (20140413.2041)
 -->
<!-- Title: System.Runtime.InteropServices.WindowsRuntime.IIterator&lt; T &gt; Pages: 1 -->
<svg width="423pt" height="110pt"
 viewBox="0.00 0.00 423.00 110.00" xmlns="http://www.w3.org/2000/svg" xmlns:xlink="http://www.w3.org/1999/xlink">
<g id="graph0" class="graph" transform="scale(1 1) rotate(0) translate(4 106)">
<title>System.Runtime.InteropServices.WindowsRuntime.IIterator&lt; T &gt;</title>
<!-- Node0 -->
<g id="node1" class="node"><title>Node0</title>
<g id="a_node1"><a xlink:title=" ">
<polygon fill="#bfbfbf" stroke="black" points="0,-36 0,-66 161,-66 161,-36 0,-36"/>
<text text-anchor="start" x="8" y="-54" font-family="Helvetica,sans-Serif" font-size="10.00">System.Runtime.InteropServices.</text>
<text text-anchor="middle" x="80.5" y="-43" font-family="Helvetica,sans-Serif" font-size="10.00">WindowsRuntime.IIterator&lt; T &gt;</text>
</a>
</g>
</g>
<!-- Node1 -->
<g id="node2" class="node"><title>Node1</title>
<g id="a_node2"><a xlink:href="class_system_1_1_runtime_1_1_interop_services_1_1_windows_runtime_1_1_enumerator_to_iterator_adapter.html" target="_top" xlink:title=" ">
<polygon fill="none" stroke="black" points="245,-60.5 245,-101.5 415,-101.5 415,-60.5 245,-60.5"/>
<text text-anchor="start" x="253" y="-89.5" font-family="Helvetica,sans-Serif" font-size="10.00">System::Runtime::Interop</text>
<text text-anchor="start" x="253" y="-78.5" font-family="Helvetica,sans-Serif" font-size="10.00">Services::WindowsRuntime</text>
<text text-anchor="middle" x="330" y="-67.5" font-family="Helvetica,sans-Serif" font-size="10.00">::EnumeratorToIteratorAdapter&lt; T &gt;</text>
</a>
</g>
</g>
<!-- Node0&#45;&gt;Node1 -->
<g id="edge1" class="edge"><title>Node0&#45;&gt;Node1</title>
<path fill="none" stroke="midnightblue" d="M171.324,-61.8878C195.302,-64.7942 221.12,-67.9237 244.784,-70.792"/>
<polygon fill="midnightblue" stroke="midnightblue" points="171.521,-58.3862 161.173,-60.6573 170.679,-65.3353 171.521,-58.3862"/>
</g>
<!-- Node2 -->
<g id="node3" class="node"><title>Node2</title>
<g id="a_node3"><a xlink:href="interface_system_1_1_runtime_1_1_interop_services_1_1_windows_runtime_1_1_i_iterator.html" target="_top" xlink:title=" ">
<polygon fill="none" stroke="black" points="249.5,-0.5 249.5,-41.5 410.5,-41.5 410.5,-0.5 249.5,-0.5"/>
<text text-anchor="start" x="257.5" y="-29.5" font-family="Helvetica,sans-Serif" font-size="10.00">System.Runtime.InteropServices.</text>
<text text-anchor="start" x="257.5" y="-18.5" font-family="Helvetica,sans-Serif" font-size="10.00">WindowsRuntime.IIterator&lt;</text>
<text text-anchor="middle" x="330" y="-7.5" font-family="Helvetica,sans-Serif" font-size="10.00"> object &gt;</text>
</a>
</g>
</g>
<!-- Node0&#45;&gt;Node2 -->
<g id="edge2" class="edge"><title>Node0&#45;&gt;Node2</title>
<path fill="none" stroke="orange" stroke-dasharray="5,2" d="M171.243,-40.1221C196.838,-37.0197 224.537,-33.6622 249.476,-30.6392"/>
<polygon fill="orange" stroke="orange" points="170.679,-36.6647 161.173,-41.3427 171.521,-43.6138 170.679,-36.6647"/>
<text text-anchor="middle" x="203" y="-41" font-family="Helvetica,sans-Serif" font-size="10.00"> &lt; object &gt;</text>
</g>
</g>
</svg>
