<?xml version="1.0" encoding="UTF-8" standalone="no"?>
<!DOCTYPE svg PUBLIC "-//W3C//DTD SVG 1.1//EN"
 "http://www.w3.org/Graphics/SVG/1.1/DTD/svg11.dtd">
<!-- Generated by graphviz version 2.38.0 (20140413.2041)
 -->
<!-- Title: System.Collections.IDictionaryEnumerator Pages: 1 -->
<svg width="499pt" height="160pt"
 viewBox="0.00 0.00 499.00 159.50" xmlns="http://www.w3.org/2000/svg" xmlns:xlink="http://www.w3.org/1999/xlink">
<g id="graph0" class="graph" transform="scale(1 1) rotate(0) translate(4 155.5)">
<title>System.Collections.IDictionaryEnumerator</title>
<!-- Node0 -->
<g id="node1" class="node"><title>Node0</title>
<g id="a_node1"><a xlink:title="Enumerates the elements of a nongeneric dictionary.">
<polygon fill="#bfbfbf" stroke="black" points="105,-55.5 105,-85.5 255,-85.5 255,-55.5 105,-55.5"/>
<text text-anchor="start" x="113" y="-73.5" font-family="Helvetica,sans-Serif" font-size="10.00">System.Collections.IDictionary</text>
<text text-anchor="middle" x="180" y="-62.5" font-family="Helvetica,sans-Serif" font-size="10.00">Enumerator</text>
</a>
</g>
</g>
<!-- Node2 -->
<g id="node3" class="node"><title>Node2</title>
<g id="a_node3"><a xlink:href="struct_system_1_1_collections_1_1_generic_1_1_dictionary_1_1_enumerator.html" target="_top" xlink:title="Enumerates the elements of a T:System.Collections.Generic.Dictionary`2.">
<polygon fill="none" stroke="black" points="320.5,-110 320.5,-151 461.5,-151 461.5,-110 320.5,-110"/>
<text text-anchor="start" x="328.5" y="-139" font-family="Helvetica,sans-Serif" font-size="10.00">System.Collections.Generic.</text>
<text text-anchor="start" x="328.5" y="-128" font-family="Helvetica,sans-Serif" font-size="10.00">Dictionary&lt; TKey, TValue</text>
<text text-anchor="middle" x="391" y="-117" font-family="Helvetica,sans-Serif" font-size="10.00"> &gt;.Enumerator</text>
</a>
</g>
</g>
<!-- Node0&#45;&gt;Node2 -->
<g id="edge2" class="edge"><title>Node0&#45;&gt;Node2</title>
<path fill="none" stroke="midnightblue" d="M243.243,-88.3689C267.431,-95.3127 295.25,-103.299 320.121,-110.439"/>
<polygon fill="midnightblue" stroke="midnightblue" points="244.047,-84.9584 233.47,-85.5631 242.116,-91.6866 244.047,-84.9584"/>
</g>
<!-- Node3 -->
<g id="node4" class="node"><title>Node3</title>
<g id="a_node4"><a xlink:href="class_system_1_1_runtime_1_1_remoting_1_1_channels_1_1_dictionary_enumerator_by_keys.html" target="_top" xlink:title=" ">
<polygon fill="none" stroke="black" points="314,-50 314,-91 468,-91 468,-50 314,-50"/>
<text text-anchor="start" x="322" y="-79" font-family="Helvetica,sans-Serif" font-size="10.00">System.Runtime.Remoting.</text>
<text text-anchor="start" x="322" y="-68" font-family="Helvetica,sans-Serif" font-size="10.00">Channels.DictionaryEnumerator</text>
<text text-anchor="middle" x="391" y="-57" font-family="Helvetica,sans-Serif" font-size="10.00">ByKeys</text>
</a>
</g>
</g>
<!-- Node0&#45;&gt;Node3 -->
<g id="edge3" class="edge"><title>Node0&#45;&gt;Node3</title>
<path fill="none" stroke="midnightblue" d="M265.645,-70.5C281.593,-70.5 298.181,-70.5 313.849,-70.5"/>
<polygon fill="midnightblue" stroke="midnightblue" points="265.274,-67.0001 255.274,-70.5 265.274,-74.0001 265.274,-67.0001"/>
</g>
<!-- Node4 -->
<g id="node5" class="node"><title>Node4</title>
<g id="a_node5"><a xlink:href="class_system_1_1_runtime_1_1_remoting_1_1_messaging_1_1_message_dictionary_enumerator.html" target="_top" xlink:title=" ">
<polygon fill="none" stroke="black" points="291,-0.5 291,-30.5 491,-30.5 491,-0.5 291,-0.5"/>
<text text-anchor="start" x="299" y="-18.5" font-family="Helvetica,sans-Serif" font-size="10.00">System.Runtime.Remoting.</text>
<text text-anchor="middle" x="391" y="-7.5" font-family="Helvetica,sans-Serif" font-size="10.00">Messaging.MessageDictionaryEnumerator</text>
</a>
</g>
</g>
<!-- Node0&#45;&gt;Node4 -->
<g id="edge4" class="edge"><title>Node0&#45;&gt;Node4</title>
<path fill="none" stroke="midnightblue" d="M244.969,-52.8346C260.05,-48.7307 276.08,-44.418 291,-40.5 303.516,-37.2132 316.945,-33.768 329.747,-30.5221"/>
<polygon fill="midnightblue" stroke="midnightblue" points="243.943,-49.4866 235.217,-55.4951 245.785,-56.2398 243.943,-49.4866"/>
</g>
<!-- Node1 -->
<g id="node2" class="node"><title>Node1</title>
<g id="a_node2"><a xlink:href="interface_system_1_1_collections_1_1_i_enumerator.html" target="_top" xlink:title="Supports a simple iteration over a non&#45;generic collection.">
<polygon fill="none" stroke="black" points="0,-61 0,-80 69,-80 69,-61 0,-61"/>
<text text-anchor="middle" x="34.5" y="-68" font-family="Helvetica,sans-Serif" font-size="10.00">IEnumerator</text>
</a>
</g>
</g>
<!-- Node1&#45;&gt;Node0 -->
<g id="edge1" class="edge"><title>Node1&#45;&gt;Node0</title>
<path fill="none" stroke="midnightblue" d="M79.3947,-70.5C87.4686,-70.5 96.0996,-70.5 104.779,-70.5"/>
<polygon fill="midnightblue" stroke="midnightblue" points="79.1444,-67.0001 69.1444,-70.5 79.1443,-74.0001 79.1444,-67.0001"/>
</g>
</g>
</svg>
