<?xml version="1.0" encoding="UTF-8" standalone="no"?>
<!DOCTYPE svg PUBLIC "-//W3C//DTD SVG 1.1//EN"
 "http://www.w3.org/Graphics/SVG/1.1/DTD/svg11.dtd">
<!-- Generated by graphviz version 2.38.0 (20140413.2041)
 -->
<!-- Title: System.Collections.Generic.KeyValuePair&lt; TKey, TValue &gt; Pages: 1 -->
<svg width="432pt" height="88pt"
 viewBox="0.00 0.00 432.00 88.00" xmlns="http://www.w3.org/2000/svg" xmlns:xlink="http://www.w3.org/1999/xlink">
<g id="graph0" class="graph" transform="scale(1 1) rotate(0) translate(4 84)">
<title>System.Collections.Generic.KeyValuePair&lt; TKey, TValue &gt;</title>
<!-- Node0 -->
<g id="node1" class="node"><title>Node0</title>
<g id="a_node1"><a xlink:title="Defines a key/value pair that can be set or retrieved.">
<polygon fill="#bfbfbf" stroke="black" points="0,-24.5 0,-54.5 152,-54.5 152,-24.5 0,-24.5"/>
<text text-anchor="start" x="8" y="-42.5" font-family="Helvetica,sans-Serif" font-size="10.00">System.Collections.Generic.</text>
<text text-anchor="middle" x="76" y="-31.5" font-family="Helvetica,sans-Serif" font-size="10.00">KeyValuePair&lt; TKey, TValue &gt;</text>
</a>
</g>
</g>
<!-- Node1 -->
<g id="node2" class="node"><title>Node1</title>
<g id="a_node2"><a xlink:href="struct_system_1_1_collections_1_1_generic_1_1_key_value_pair.html" target="_top" xlink:title=" ">
<polygon fill="none" stroke="black" points="276.5,-49.5 276.5,-79.5 417.5,-79.5 417.5,-49.5 276.5,-49.5"/>
<text text-anchor="start" x="284.5" y="-67.5" font-family="Helvetica,sans-Serif" font-size="10.00">System.Collections.Generic.</text>
<text text-anchor="middle" x="347" y="-56.5" font-family="Helvetica,sans-Serif" font-size="10.00">KeyValuePair&lt; K, V &gt;</text>
</a>
</g>
</g>
<!-- Node0&#45;&gt;Node1 -->
<g id="edge1" class="edge"><title>Node0&#45;&gt;Node1</title>
<path fill="none" stroke="orange" stroke-dasharray="5,2" d="M162.479,-47.4441C199.174,-50.8545 241.509,-54.789 276.265,-58.0191"/>
<polygon fill="orange" stroke="orange" points="162.57,-43.9376 152.289,-46.4971 161.922,-50.9076 162.57,-43.9376"/>
<text text-anchor="middle" x="211" y="-58.5" font-family="Helvetica,sans-Serif" font-size="10.00"> &lt; K, V &gt;</text>
</g>
<!-- Node2 -->
<g id="node3" class="node"><title>Node2</title>
<g id="a_node3"><a xlink:href="struct_system_1_1_collections_1_1_generic_1_1_key_value_pair.html" target="_top" xlink:title=" ">
<polygon fill="none" stroke="black" points="270,-0.5 270,-30.5 424,-30.5 424,-0.5 270,-0.5"/>
<text text-anchor="start" x="278" y="-18.5" font-family="Helvetica,sans-Serif" font-size="10.00">System.Collections.Generic.</text>
<text text-anchor="middle" x="347" y="-7.5" font-family="Helvetica,sans-Serif" font-size="10.00">KeyValuePair&lt; long, TSource &gt;</text>
</a>
</g>
</g>
<!-- Node0&#45;&gt;Node2 -->
<g id="edge2" class="edge"><title>Node0&#45;&gt;Node2</title>
<path fill="none" stroke="orange" stroke-dasharray="5,2" d="M162.343,-31.8857C196.822,-28.8095 236.299,-25.2874 269.795,-22.299"/>
<polygon fill="orange" stroke="orange" points="161.939,-28.4078 152.289,-32.7827 162.561,-35.3801 161.939,-28.4078"/>
<text text-anchor="middle" x="211" y="-33.5" font-family="Helvetica,sans-Serif" font-size="10.00"> &lt; long, TSource &gt;</text>
</g>
</g>
</svg>
