<?xml version="1.0" encoding="UTF-8" standalone="no"?>
<!DOCTYPE svg PUBLIC "-//W3C//DTD SVG 1.1//EN"
 "http://www.w3.org/Graphics/SVG/1.1/DTD/svg11.dtd">
<!-- Generated by graphviz version 2.38.0 (20140413.2041)
 -->
<!-- Title: System.TimeSpan Pages: 1 -->
<svg width="461pt" height="98pt"
 viewBox="0.00 0.00 461.00 98.00" xmlns="http://www.w3.org/2000/svg" xmlns:xlink="http://www.w3.org/1999/xlink">
<g id="graph0" class="graph" transform="scale(1 1) rotate(0) translate(4 94)">
<title>System.TimeSpan</title>
<!-- Node7 -->
<g id="node1" class="node"><title>Node7</title>
<g id="a_node1"><a xlink:title="Represents a time interval.To browse the .NET Framework source code for this type,...">
<polygon fill="#bfbfbf" stroke="black" points="180,-7 180,-26 277,-26 277,-7 180,-7"/>
<text text-anchor="middle" x="228.5" y="-14" font-family="Helvetica,sans-Serif" font-size="10.00">System.TimeSpan</text>
</a>
</g>
</g>
<!-- Node7&#45;&gt;Node7 -->
<g id="edge5" class="edge"><title>Node7&#45;&gt;Node7</title>
<path fill="none" stroke="#9a32cd" stroke-dasharray="5,2" d="M287.38,-21.3612C292.087,-20.2993 295,-18.679 295,-16.5 295,-13.0137 287.542,-10.9573 277.214,-10.3308"/>
<polygon fill="#9a32cd" stroke="#9a32cd" points="286.686,-17.9216 277.214,-22.6692 287.579,-24.8643 286.686,-17.9216"/>
<text text-anchor="middle" x="318.5" y="-25" font-family="Helvetica,sans-Serif" font-size="10.00"> MaxValue</text>
<text text-anchor="middle" x="318.5" y="-14" font-family="Helvetica,sans-Serif" font-size="10.00">Zero</text>
<text text-anchor="middle" x="318.5" y="-3" font-family="Helvetica,sans-Serif" font-size="10.00">MinValue</text>
</g>
<!-- Node8 -->
<g id="node2" class="node"><title>Node8</title>
<g id="a_node2"><a xlink:href="interface_system_1_1_i_comparable.html" target="_top" xlink:title="Defines a generalized type&#45;specific comparison method that a value type or class implements to order ...">
<polygon fill="none" stroke="black" points="0,-70.5 0,-89.5 71,-89.5 71,-70.5 0,-70.5"/>
<text text-anchor="middle" x="35.5" y="-77.5" font-family="Helvetica,sans-Serif" font-size="10.00">IComparable</text>
</a>
</g>
</g>
<!-- Node8&#45;&gt;Node7 -->
<g id="edge1" class="edge"><title>Node8&#45;&gt;Node7</title>
<path fill="none" stroke="midnightblue" d="M71.936,-67.3896C109.684,-55.361 167.789,-36.8458 201.582,-26.0776"/>
<polygon fill="midnightblue" stroke="midnightblue" points="70.8011,-64.0777 62.3358,-70.4487 72.9265,-70.7473 70.8011,-64.0777"/>
</g>
<!-- Node9 -->
<g id="node3" class="node"><title>Node9</title>
<g id="a_node3"><a xlink:href="interface_system_1_1_i_comparable.html" target="_top" xlink:title=" ">
<polygon fill="none" stroke="red" points="89.5,-70.5 89.5,-89.5 221.5,-89.5 221.5,-70.5 89.5,-70.5"/>
<text text-anchor="middle" x="155.5" y="-77.5" font-family="Helvetica,sans-Serif" font-size="10.00">IComparable&lt; TimeSpan &gt;</text>
</a>
</g>
</g>
<!-- Node9&#45;&gt;Node7 -->
<g id="edge2" class="edge"><title>Node9&#45;&gt;Node7</title>
<path fill="none" stroke="midnightblue" d="M173.605,-63.7471C187.563,-51.9882 206.38,-36.1357 217.963,-26.3769"/>
<polygon fill="midnightblue" stroke="midnightblue" points="171.043,-61.329 165.65,-70.4487 175.553,-66.6824 171.043,-61.329"/>
</g>
<!-- Node11 -->
<g id="node4" class="node"><title>Node11</title>
<g id="a_node4"><a xlink:href="interface_system_1_1_i_equatable.html" target="_top" xlink:title=" ">
<polygon fill="none" stroke="red" points="239.5,-70.5 239.5,-89.5 363.5,-89.5 363.5,-70.5 239.5,-70.5"/>
<text text-anchor="middle" x="301.5" y="-77.5" font-family="Helvetica,sans-Serif" font-size="10.00">IEquatable&lt; TimeSpan &gt;</text>
</a>
</g>
</g>
<!-- Node11&#45;&gt;Node7 -->
<g id="edge3" class="edge"><title>Node11&#45;&gt;Node7</title>
<path fill="none" stroke="midnightblue" d="M283.395,-63.7471C269.437,-51.9882 250.62,-36.1357 239.037,-26.3769"/>
<polygon fill="midnightblue" stroke="midnightblue" points="281.447,-66.6824 291.35,-70.4487 285.957,-61.329 281.447,-66.6824"/>
</g>
<!-- Node13 -->
<g id="node5" class="node"><title>Node13</title>
<g id="a_node5"><a xlink:href="interface_system_1_1_i_formattable.html" target="_top" xlink:title="Provides functionality to format the value of an object into a string representation.">
<polygon fill="none" stroke="black" points="382,-70.5 382,-89.5 453,-89.5 453,-70.5 382,-70.5"/>
<text text-anchor="middle" x="417.5" y="-77.5" font-family="Helvetica,sans-Serif" font-size="10.00">IFormattable</text>
</a>
</g>
</g>
<!-- Node13&#45;&gt;Node7 -->
<g id="edge4" class="edge"><title>Node13&#45;&gt;Node7</title>
<path fill="none" stroke="midnightblue" d="M381.346,-67.2357C344.369,-55.2036 287.812,-36.8 254.86,-26.0776"/>
<polygon fill="midnightblue" stroke="midnightblue" points="380.628,-70.6826 391.22,-70.4487 382.794,-64.0261 380.628,-70.6826"/>
</g>
</g>
</svg>
