<?xml version="1.0" encoding="UTF-8" standalone="no"?>
<!DOCTYPE svg PUBLIC "-//W3C//DTD SVG 1.1//EN"
 "http://www.w3.org/Graphics/SVG/1.1/DTD/svg11.dtd">
<!-- Generated by graphviz version 2.38.0 (20140413.2041)
 -->
<!-- Title: System.TimeSpan Pages: 1 -->
<svg width="461pt" height="165pt"
 viewBox="0.00 0.00 461.00 165.00" xmlns="http://www.w3.org/2000/svg" xmlns:xlink="http://www.w3.org/1999/xlink">
<g id="graph0" class="graph" transform="scale(1 1) rotate(0) translate(4 161)">
<title>System.TimeSpan</title>
<!-- Node7 -->
<g id="node1" class="node"><title>Node7</title>
<g id="a_node1"><a xlink:title="Represents a time interval.To browse the .NET Framework source code for this type,...">
<polygon fill="#bfbfbf" stroke="black" points="179,-7 179,-26 276,-26 276,-7 179,-7"/>
<text text-anchor="middle" x="227.5" y="-14" font-family="Helvetica,sans-Serif" font-size="10.00">System.TimeSpan</text>
</a>
</g>
</g>
<!-- Node7&#45;&gt;Node7 -->
<g id="edge7" class="edge"><title>Node7&#45;&gt;Node7</title>
<path fill="none" stroke="#9a32cd" stroke-dasharray="5,2" d="M286.38,-21.3612C291.087,-20.2993 294,-18.679 294,-16.5 294,-13.0137 286.542,-10.9573 276.214,-10.3308"/>
<polygon fill="#9a32cd" stroke="#9a32cd" points="285.686,-17.9216 276.214,-22.6692 286.579,-24.8643 285.686,-17.9216"/>
<text text-anchor="middle" x="317.5" y="-25" font-family="Helvetica,sans-Serif" font-size="10.00"> MaxValue</text>
<text text-anchor="middle" x="317.5" y="-14" font-family="Helvetica,sans-Serif" font-size="10.00">Zero</text>
<text text-anchor="middle" x="317.5" y="-3" font-family="Helvetica,sans-Serif" font-size="10.00">MinValue</text>
</g>
<!-- Node8 -->
<g id="node2" class="node"><title>Node8</title>
<g id="a_node2"><a xlink:href="interface_system_1_1_i_comparable.html" target="_top" xlink:title="Defines a generalized type&#45;specific comparison method that a value type or class implements to order ...">
<polygon fill="none" stroke="black" points="0,-70.5 0,-89.5 71,-89.5 71,-70.5 0,-70.5"/>
<text text-anchor="middle" x="35.5" y="-77.5" font-family="Helvetica,sans-Serif" font-size="10.00">IComparable</text>
</a>
</g>
</g>
<!-- Node8&#45;&gt;Node7 -->
<g id="edge1" class="edge"><title>Node8&#45;&gt;Node7</title>
<path fill="none" stroke="midnightblue" d="M71.7472,-67.3896C109.3,-55.361 167.103,-36.8458 200.721,-26.0776"/>
<polygon fill="midnightblue" stroke="midnightblue" points="70.6525,-64.065 62.1968,-70.4487 72.7878,-70.7313 70.6525,-64.065"/>
</g>
<!-- Node9 -->
<g id="node3" class="node"><title>Node9</title>
<g id="a_node3"><a xlink:href="interface_system_1_1_i_comparable.html" target="_top" xlink:title=" ">
<polygon fill="none" stroke="black" points="89.5,-70.5 89.5,-89.5 221.5,-89.5 221.5,-70.5 89.5,-70.5"/>
<text text-anchor="middle" x="155.5" y="-77.5" font-family="Helvetica,sans-Serif" font-size="10.00">IComparable&lt; TimeSpan &gt;</text>
</a>
</g>
</g>
<!-- Node9&#45;&gt;Node7 -->
<g id="edge2" class="edge"><title>Node9&#45;&gt;Node7</title>
<path fill="none" stroke="midnightblue" d="M173.357,-63.7471C187.124,-51.9882 205.683,-36.1357 217.107,-26.3769"/>
<polygon fill="midnightblue" stroke="midnightblue" points="170.842,-61.2925 165.511,-70.4487 175.388,-66.6151 170.842,-61.2925"/>
</g>
<!-- Node10 -->
<g id="node4" class="node"><title>Node10</title>
<g id="a_node4"><a xlink:href="interface_system_1_1_i_comparable.html" target="_top" xlink:title="Defines a generalized type&#45;specific comparison method that a value type or class implements to order ...">
<polygon fill="none" stroke="black" points="102,-137.5 102,-156.5 209,-156.5 209,-137.5 102,-137.5"/>
<text text-anchor="middle" x="155.5" y="-144.5" font-family="Helvetica,sans-Serif" font-size="10.00">System.IComparable</text>
</a>
</g>
</g>
<!-- Node10&#45;&gt;Node9 -->
<g id="edge3" class="edge"><title>Node10&#45;&gt;Node9</title>
<path fill="none" stroke="orange" stroke-dasharray="5,2" d="M155.5,-127.037C155.5,-114.67 155.5,-99.1198 155.5,-89.6273"/>
<polygon fill="orange" stroke="orange" points="152,-127.234 155.5,-137.234 159,-127.234 152,-127.234"/>
<text text-anchor="middle" x="188" y="-111" font-family="Helvetica,sans-Serif" font-size="10.00"> &lt; TimeSpan &gt;</text>
</g>
<!-- Node11 -->
<g id="node5" class="node"><title>Node11</title>
<g id="a_node5"><a xlink:href="interface_system_1_1_i_equatable.html" target="_top" xlink:title=" ">
<polygon fill="none" stroke="black" points="239.5,-70.5 239.5,-89.5 363.5,-89.5 363.5,-70.5 239.5,-70.5"/>
<text text-anchor="middle" x="301.5" y="-77.5" font-family="Helvetica,sans-Serif" font-size="10.00">IEquatable&lt; TimeSpan &gt;</text>
</a>
</g>
</g>
<!-- Node11&#45;&gt;Node7 -->
<g id="edge4" class="edge"><title>Node11&#45;&gt;Node7</title>
<path fill="none" stroke="midnightblue" d="M283.147,-63.7471C268.998,-51.9882 249.923,-36.1357 238.181,-26.3769"/>
<polygon fill="midnightblue" stroke="midnightblue" points="281.283,-66.7488 291.211,-70.4487 285.757,-61.3653 281.283,-66.7488"/>
</g>
<!-- Node12 -->
<g id="node6" class="node"><title>Node12</title>
<g id="a_node6"><a xlink:href="interface_system_1_1_i_equatable.html" target="_top" xlink:title="Defines a generalized method that a value type or class implements to create a type&#45;specific method f...">
<polygon fill="none" stroke="black" points="240.5,-137.5 240.5,-156.5 362.5,-156.5 362.5,-137.5 240.5,-137.5"/>
<text text-anchor="middle" x="301.5" y="-144.5" font-family="Helvetica,sans-Serif" font-size="10.00">System.IEquatable&lt; T &gt;</text>
</a>
</g>
</g>
<!-- Node12&#45;&gt;Node11 -->
<g id="edge5" class="edge"><title>Node12&#45;&gt;Node11</title>
<path fill="none" stroke="orange" stroke-dasharray="5,2" d="M301.5,-127.037C301.5,-114.67 301.5,-99.1198 301.5,-89.6273"/>
<polygon fill="orange" stroke="orange" points="298,-127.234 301.5,-137.234 305,-127.234 298,-127.234"/>
<text text-anchor="middle" x="334" y="-111" font-family="Helvetica,sans-Serif" font-size="10.00"> &lt; TimeSpan &gt;</text>
</g>
<!-- Node13 -->
<g id="node7" class="node"><title>Node13</title>
<g id="a_node7"><a xlink:href="interface_system_1_1_i_formattable.html" target="_top" xlink:title="Provides functionality to format the value of an object into a string representation.">
<polygon fill="none" stroke="black" points="382,-70.5 382,-89.5 453,-89.5 453,-70.5 382,-70.5"/>
<text text-anchor="middle" x="417.5" y="-77.5" font-family="Helvetica,sans-Serif" font-size="10.00">IFormattable</text>
</a>
</g>
</g>
<!-- Node13&#45;&gt;Node7 -->
<g id="edge6" class="edge"><title>Node13&#45;&gt;Node7</title>
<path fill="none" stroke="midnightblue" d="M381.155,-67.2357C343.983,-55.2036 287.126,-36.8 254,-26.0776"/>
<polygon fill="midnightblue" stroke="midnightblue" points="380.489,-70.699 391.081,-70.4487 382.645,-64.0392 380.489,-70.699"/>
</g>
</g>
</svg>
