<?xml version="1.0" encoding="UTF-8" standalone="no"?>
<!DOCTYPE svg PUBLIC "-//W3C//DTD SVG 1.1//EN"
 "http://www.w3.org/Graphics/SVG/1.1/DTD/svg11.dtd">
<!-- Generated by graphviz version 2.38.0 (20140413.2041)
 -->
<!-- Title: System.Security.Cryptography.HashAlgorithmName Pages: 1 -->
<svg width="219pt" height="198pt"
 viewBox="0.00 0.00 219.00 198.00" xmlns="http://www.w3.org/2000/svg" xmlns:xlink="http://www.w3.org/1999/xlink">
<g id="graph0" class="graph" transform="scale(1 1) rotate(0) translate(4 194)">
<title>System.Security.Cryptography.HashAlgorithmName</title>
<!-- Node3 -->
<g id="node1" class="node"><title>Node3</title>
<g id="a_node1"><a xlink:title="Specifies the name of a cryptographic hash algorithm.">
<polygon fill="#bfbfbf" stroke="black" points="0,-12.5 0,-42.5 153,-42.5 153,-12.5 0,-12.5"/>
<text text-anchor="start" x="8" y="-30.5" font-family="Helvetica,sans-Serif" font-size="10.00">System.Security.Cryptography.</text>
<text text-anchor="middle" x="76.5" y="-19.5" font-family="Helvetica,sans-Serif" font-size="10.00">HashAlgorithmName</text>
</a>
</g>
</g>
<!-- Node3&#45;&gt;Node3 -->
<g id="edge3" class="edge"><title>Node3&#45;&gt;Node3</title>
<path fill="none" stroke="#9a32cd" stroke-dasharray="5,2" d="M163.188,-33.3269C168.082,-31.9172 171,-29.9749 171,-27.5 171,-23.6367 163.89,-21.0713 153.253,-19.8036"/>
<polygon fill="#9a32cd" stroke="#9a32cd" points="162.434,-29.9074 153.253,-35.1964 163.728,-36.7867 162.434,-29.9074"/>
<text text-anchor="middle" x="191" y="-47" font-family="Helvetica,sans-Serif" font-size="10.00"> SHA384</text>
<text text-anchor="middle" x="191" y="-36" font-family="Helvetica,sans-Serif" font-size="10.00">SHA1</text>
<text text-anchor="middle" x="191" y="-25" font-family="Helvetica,sans-Serif" font-size="10.00">SHA256</text>
<text text-anchor="middle" x="191" y="-14" font-family="Helvetica,sans-Serif" font-size="10.00">MD5</text>
<text text-anchor="middle" x="191" y="-3" font-family="Helvetica,sans-Serif" font-size="10.00">SHA512</text>
</g>
<!-- Node4 -->
<g id="node2" class="node"><title>Node4</title>
<g id="a_node2"><a xlink:href="interface_system_1_1_i_equatable.html" target="_top" xlink:title=" ">
<polygon fill="none" stroke="black" points="9,-92.5 9,-122.5 144,-122.5 144,-92.5 9,-92.5"/>
<text text-anchor="start" x="17" y="-110.5" font-family="Helvetica,sans-Serif" font-size="10.00">IEquatable&lt; HashAlgorithm</text>
<text text-anchor="middle" x="76.5" y="-99.5" font-family="Helvetica,sans-Serif" font-size="10.00">Name &gt;</text>
</a>
</g>
</g>
<!-- Node4&#45;&gt;Node3 -->
<g id="edge1" class="edge"><title>Node4&#45;&gt;Node3</title>
<path fill="none" stroke="midnightblue" d="M76.5,-82.0644C76.5,-69.1243 76.5,-53.6862 76.5,-42.7157"/>
<polygon fill="midnightblue" stroke="midnightblue" points="73.0001,-82.1936 76.5,-92.1936 80.0001,-82.1936 73.0001,-82.1936"/>
</g>
<!-- Node5 -->
<g id="node3" class="node"><title>Node5</title>
<g id="a_node3"><a xlink:href="interface_system_1_1_i_equatable.html" target="_top" xlink:title="Defines a generalized method that a value type or class implements to create a type&#45;specific method f...">
<polygon fill="none" stroke="black" points="15.5,-170.5 15.5,-189.5 137.5,-189.5 137.5,-170.5 15.5,-170.5"/>
<text text-anchor="middle" x="76.5" y="-177.5" font-family="Helvetica,sans-Serif" font-size="10.00">System.IEquatable&lt; T &gt;</text>
</a>
</g>
</g>
<!-- Node5&#45;&gt;Node4 -->
<g id="edge2" class="edge"><title>Node5&#45;&gt;Node4</title>
<path fill="none" stroke="orange" stroke-dasharray="5,2" d="M76.5,-160.236C76.5,-148.408 76.5,-133.383 76.5,-122.576"/>
<polygon fill="orange" stroke="orange" points="73.0001,-160.355 76.5,-170.355 80.0001,-160.355 73.0001,-160.355"/>
<text text-anchor="middle" x="132" y="-144" font-family="Helvetica,sans-Serif" font-size="10.00"> &lt; HashAlgorithmName &gt;</text>
</g>
</g>
</svg>
