<?xml version="1.0" encoding="UTF-8" standalone="no"?>
<!DOCTYPE svg PUBLIC "-//W3C//DTD SVG 1.1//EN"
 "http://www.w3.org/Graphics/SVG/1.1/DTD/svg11.dtd">
<!-- Generated by graphviz version 2.38.0 (20140413.2041)
 -->
<!-- Title: System.Variant Pages: 1 -->
<svg width="314pt" height="222pt"
 viewBox="0.00 0.00 314.00 222.00" xmlns="http://www.w3.org/2000/svg" xmlns:xlink="http://www.w3.org/1999/xlink">
<g id="graph0" class="graph" transform="scale(1 1) rotate(0) translate(4 218)">
<title>System.Variant</title>
<!-- Node1 -->
<g id="node1" class="node"><title>Node1</title>
<g id="a_node1"><a xlink:title=" ">
<polygon fill="#bfbfbf" stroke="black" points="151,-7 151,-26 235,-26 235,-7 151,-7"/>
<text text-anchor="middle" x="193" y="-14" font-family="Helvetica,sans-Serif" font-size="10.00">System.Variant</text>
</a>
</g>
</g>
<!-- Node1&#45;&gt;Node1 -->
<g id="edge8" class="edge"><title>Node1&#45;&gt;Node1</title>
<path fill="none" stroke="#9a32cd" stroke-dasharray="5,2" d="M245.254,-22.4601C250.009,-21.2211 253,-19.2344 253,-16.5 253,-12.125 245.344,-9.66406 235.056,-9.11719"/>
<polygon fill="#9a32cd" stroke="#9a32cd" points="244.476,-19.0347 235.056,-23.8828 245.443,-25.9675 244.476,-19.0347"/>
<text text-anchor="middle" x="270" y="-25" font-family="Helvetica,sans-Serif" font-size="10.00"> DBNull</text>
<text text-anchor="middle" x="270" y="-14" font-family="Helvetica,sans-Serif" font-size="10.00">Empty</text>
<text text-anchor="middle" x="270" y="-3" font-family="Helvetica,sans-Serif" font-size="10.00">Missing</text>
</g>
<!-- Node2 -->
<g id="node2" class="node"><title>Node2</title>
<g id="a_node2"><a xlink:href="class_system_1_1_type.html" target="_top" xlink:title="Represents type declarations: class types, interface types, array types, value types,...">
<polygon fill="none" stroke="black" points="156,-80.5 156,-99.5 230,-99.5 230,-80.5 156,-80.5"/>
<text text-anchor="middle" x="193" y="-87.5" font-family="Helvetica,sans-Serif" font-size="10.00">System.Type</text>
</a>
</g>
</g>
<!-- Node2&#45;&gt;Node1 -->
<g id="edge1" class="edge"><title>Node2&#45;&gt;Node1</title>
<path fill="none" stroke="#9a32cd" stroke-dasharray="5,2" d="M193,-70.0936C193,-55.933 193,-37.2019 193,-26.339"/>
<polygon fill="#9a32cd" stroke="#9a32cd" points="189.5,-70.2327 193,-80.2327 196.5,-70.2327 189.5,-70.2327"/>
<text text-anchor="middle" x="220.5" y="-54" font-family="Helvetica,sans-Serif" font-size="10.00"> ClassTypes</text>
</g>
<!-- Node2&#45;&gt;Node2 -->
<g id="edge7" class="edge"><title>Node2&#45;&gt;Node2</title>
<path fill="none" stroke="#9a32cd" stroke-dasharray="5,2" d="M240.186,-94.3069C244.957,-93.4522 248,-92.0166 248,-90 248,-86.7734 240.21,-85.0341 230.015,-84.782"/>
<polygon fill="#9a32cd" stroke="#9a32cd" points="239.663,-90.8396 230.015,-95.218 240.288,-97.8117 239.663,-90.8396"/>
<text text-anchor="middle" x="277" y="-87.5" font-family="Helvetica,sans-Serif" font-size="10.00"> EmptyTypes</text>
</g>
<!-- Node3 -->
<g id="node3" class="node"><title>Node3</title>
<g id="a_node3"><a xlink:href="class_system_1_1_reflection_1_1_member_info.html" target="_top" xlink:title="Obtains information about the attributes of a member and provides access to member metadata.">
<polygon fill="none" stroke="black" points="86.5,-137.5 86.5,-156.5 153.5,-156.5 153.5,-137.5 86.5,-137.5"/>
<text text-anchor="middle" x="120" y="-144.5" font-family="Helvetica,sans-Serif" font-size="10.00">MemberInfo</text>
</a>
</g>
</g>
<!-- Node3&#45;&gt;Node2 -->
<g id="edge2" class="edge"><title>Node3&#45;&gt;Node2</title>
<path fill="none" stroke="midnightblue" d="M139.528,-131.287C152.904,-121.21 170.191,-108.185 181.433,-99.7149"/>
<polygon fill="midnightblue" stroke="midnightblue" points="137.287,-128.593 131.406,-137.406 141.499,-134.184 137.287,-128.593"/>
</g>
<!-- Node4 -->
<g id="node4" class="node"><title>Node4</title>
<g id="a_node4"><a xlink:href="interface_system_1_1_reflection_1_1_i_custom_attribute_provider.html" target="_top" xlink:title="Provides custom attributes for reflection objects that support them.">
<polygon fill="none" stroke="black" points="0,-194.5 0,-213.5 124,-213.5 124,-194.5 0,-194.5"/>
<text text-anchor="middle" x="62" y="-201.5" font-family="Helvetica,sans-Serif" font-size="10.00">ICustomAttributeProvider</text>
</a>
</g>
</g>
<!-- Node4&#45;&gt;Node3 -->
<g id="edge3" class="edge"><title>Node4&#45;&gt;Node3</title>
<path fill="none" stroke="midnightblue" d="M78.4339,-187.416C88.9236,-177.469 102.133,-164.943 110.81,-156.715"/>
<polygon fill="midnightblue" stroke="midnightblue" points="75.9104,-184.986 71.0625,-194.406 80.7271,-190.065 75.9104,-184.986"/>
</g>
<!-- Node5 -->
<g id="node5" class="node"><title>Node5</title>
<g id="a_node5"><a xlink:href="interface_system_1_1_runtime_1_1_interop_services_1_1___member_info.html" target="_top" xlink:title="Exposes the public members of the T:System.Reflection.MemberInfo class to unmanaged code.">
<polygon fill="none" stroke="black" points="142,-194.5 142,-213.5 214,-213.5 214,-194.5 142,-194.5"/>
<text text-anchor="middle" x="178" y="-201.5" font-family="Helvetica,sans-Serif" font-size="10.00">_MemberInfo</text>
</a>
</g>
</g>
<!-- Node5&#45;&gt;Node3 -->
<g id="edge4" class="edge"><title>Node5&#45;&gt;Node3</title>
<path fill="none" stroke="midnightblue" d="M161.566,-187.416C151.076,-177.469 137.867,-164.943 129.19,-156.715"/>
<polygon fill="midnightblue" stroke="midnightblue" points="159.273,-190.065 168.938,-194.406 164.09,-184.986 159.273,-190.065"/>
</g>
<!-- Node6 -->
<g id="node6" class="node"><title>Node6</title>
<g id="a_node6"><a xlink:href="interface_system_1_1_runtime_1_1_interop_services_1_1___type.html" target="_top" xlink:title="Exposes the public members of the T:System.Type class to the unmanaged code.">
<polygon fill="none" stroke="black" points="171.5,-137.5 171.5,-156.5 214.5,-156.5 214.5,-137.5 171.5,-137.5"/>
<text text-anchor="middle" x="193" y="-144.5" font-family="Helvetica,sans-Serif" font-size="10.00">_Type</text>
</a>
</g>
</g>
<!-- Node6&#45;&gt;Node2 -->
<g id="edge5" class="edge"><title>Node6&#45;&gt;Node2</title>
<path fill="none" stroke="midnightblue" d="M193,-127.117C193,-117.817 193,-107.056 193,-99.7149"/>
<polygon fill="midnightblue" stroke="midnightblue" points="189.5,-127.406 193,-137.406 196.5,-127.406 189.5,-127.406"/>
</g>
<!-- Node7 -->
<g id="node7" class="node"><title>Node7</title>
<g id="a_node7"><a xlink:href="interface_system_1_1_reflection_1_1_i_reflect.html" target="_top" xlink:title="Interoperates with the IDispatch interface.">
<polygon fill="none" stroke="black" points="232.5,-137.5 232.5,-156.5 281.5,-156.5 281.5,-137.5 232.5,-137.5"/>
<text text-anchor="middle" x="257" y="-144.5" font-family="Helvetica,sans-Serif" font-size="10.00">IReflect</text>
</a>
</g>
</g>
<!-- Node7&#45;&gt;Node2 -->
<g id="edge6" class="edge"><title>Node7&#45;&gt;Node2</title>
<path fill="none" stroke="midnightblue" d="M239.206,-130.708C227.577,-120.715 212.809,-108.024 203.141,-99.7149"/>
<polygon fill="midnightblue" stroke="midnightblue" points="237.135,-133.543 247,-137.406 241.697,-128.234 237.135,-133.543"/>
</g>
</g>
</svg>
