<?xml version="1.0" encoding="UTF-8" standalone="no"?>
<!DOCTYPE svg PUBLIC "-//W3C//DTD SVG 1.1//EN"
 "http://www.w3.org/Graphics/SVG/1.1/DTD/svg11.dtd">
<!-- Generated by graphviz version 2.38.0 (20140413.2041)
 -->
<!-- Title: System.UInt32 Pages: 1 -->
<svg width="513pt" height="152pt"
 viewBox="0.00 0.00 512.50 152.00" xmlns="http://www.w3.org/2000/svg" xmlns:xlink="http://www.w3.org/1999/xlink">
<g id="graph0" class="graph" transform="scale(1 1) rotate(0) translate(4 148)">
<title>System.UInt32</title>
<!-- Node8 -->
<g id="node1" class="node"><title>Node8</title>
<g id="a_node1"><a xlink:title="Represents a 32&#45;bit unsigned integer.">
<polygon fill="#bfbfbf" stroke="black" points="171,-0.5 171,-19.5 252,-19.5 252,-0.5 171,-0.5"/>
<text text-anchor="middle" x="211.5" y="-7.5" font-family="Helvetica,sans-Serif" font-size="10.00">System.UInt32</text>
</a>
</g>
</g>
<!-- Node9 -->
<g id="node2" class="node"><title>Node9</title>
<g id="a_node2"><a xlink:href="interface_system_1_1_i_comparable.html" target="_top" xlink:title="Defines a generalized type&#45;specific comparison method that a value type or class implements to order ...">
<polygon fill="none" stroke="black" points="0,-57.5 0,-76.5 71,-76.5 71,-57.5 0,-57.5"/>
<text text-anchor="middle" x="35.5" y="-64.5" font-family="Helvetica,sans-Serif" font-size="10.00">IComparable</text>
</a>
</g>
</g>
<!-- Node9&#45;&gt;Node8 -->
<g id="edge1" class="edge"><title>Node9&#45;&gt;Node8</title>
<path fill="none" stroke="midnightblue" d="M72.8453,-54.3296C106.21,-43.903 154.307,-28.8729 184.193,-19.5334"/>
<polygon fill="midnightblue" stroke="midnightblue" points="71.5008,-51.0828 63,-57.4063 73.5888,-57.7641 71.5008,-51.0828"/>
</g>
<!-- Node10 -->
<g id="node3" class="node"><title>Node10</title>
<g id="a_node3"><a xlink:href="interface_system_1_1_i_formattable.html" target="_top" xlink:title="Provides functionality to format the value of an object into a string representation.">
<polygon fill="none" stroke="black" points="89,-57.5 89,-76.5 160,-76.5 160,-57.5 89,-57.5"/>
<text text-anchor="middle" x="124.5" y="-64.5" font-family="Helvetica,sans-Serif" font-size="10.00">IFormattable</text>
</a>
</g>
</g>
<!-- Node10&#45;&gt;Node8 -->
<g id="edge2" class="edge"><title>Node10&#45;&gt;Node8</title>
<path fill="none" stroke="midnightblue" d="M146.923,-51.8244C163.088,-41.605 184.374,-28.1483 198.002,-19.5334"/>
<polygon fill="midnightblue" stroke="midnightblue" points="144.676,-49.1042 138.094,-57.4063 148.417,-55.021 144.676,-49.1042"/>
</g>
<!-- Node11 -->
<g id="node4" class="node"><title>Node11</title>
<g id="a_node4"><a xlink:href="interface_system_1_1_i_convertible.html" target="_top" xlink:title="Defines methods that convert the value of the implementing reference or value type to a common langua...">
<polygon fill="none" stroke="black" points="178.5,-57.5 178.5,-76.5 244.5,-76.5 244.5,-57.5 178.5,-57.5"/>
<text text-anchor="middle" x="211.5" y="-64.5" font-family="Helvetica,sans-Serif" font-size="10.00">IConvertible</text>
</a>
</g>
</g>
<!-- Node11&#45;&gt;Node8 -->
<g id="edge3" class="edge"><title>Node11&#45;&gt;Node8</title>
<path fill="none" stroke="midnightblue" d="M211.5,-47.1166C211.5,-37.8173 211.5,-27.0557 211.5,-19.7149"/>
<polygon fill="midnightblue" stroke="midnightblue" points="208,-47.4062 211.5,-57.4063 215,-47.4063 208,-47.4062"/>
</g>
<!-- Node12 -->
<g id="node5" class="node"><title>Node12</title>
<g id="a_node5"><a xlink:href="interface_system_1_1_i_comparable.html" target="_top" xlink:title=" ">
<polygon fill="none" stroke="black" points="262.5,-57.5 262.5,-76.5 366.5,-76.5 366.5,-57.5 262.5,-57.5"/>
<text text-anchor="middle" x="314.5" y="-64.5" font-family="Helvetica,sans-Serif" font-size="10.00">IComparable&lt; uint &gt;</text>
</a>
</g>
</g>
<!-- Node12&#45;&gt;Node8 -->
<g id="edge4" class="edge"><title>Node12&#45;&gt;Node8</title>
<path fill="none" stroke="midnightblue" d="M289.548,-52.6762C270.235,-42.3634 244.066,-28.3898 227.481,-19.5334"/>
<polygon fill="midnightblue" stroke="midnightblue" points="287.936,-55.7833 298.406,-57.4063 291.234,-49.6085 287.936,-55.7833"/>
</g>
<!-- Node13 -->
<g id="node6" class="node"><title>Node13</title>
<g id="a_node6"><a xlink:href="interface_system_1_1_i_comparable.html" target="_top" xlink:title="Defines a generalized type&#45;specific comparison method that a value type or class implements to order ...">
<polygon fill="none" stroke="black" points="257,-124.5 257,-143.5 364,-143.5 364,-124.5 257,-124.5"/>
<text text-anchor="middle" x="310.5" y="-131.5" font-family="Helvetica,sans-Serif" font-size="10.00">System.IComparable</text>
</a>
</g>
</g>
<!-- Node13&#45;&gt;Node12 -->
<g id="edge5" class="edge"><title>Node13&#45;&gt;Node12</title>
<path fill="none" stroke="orange" stroke-dasharray="5,2" d="M311.667,-114.037C312.428,-101.67 313.385,-86.1198 313.969,-76.6273"/>
<polygon fill="orange" stroke="orange" points="308.16,-114.038 311.039,-124.234 315.147,-114.468 308.16,-114.038"/>
<text text-anchor="middle" x="332" y="-98" font-family="Helvetica,sans-Serif" font-size="10.00"> &lt; uint &gt;</text>
</g>
<!-- Node14 -->
<g id="node7" class="node"><title>Node14</title>
<g id="a_node7"><a xlink:href="interface_system_1_1_i_equatable.html" target="_top" xlink:title=" ">
<polygon fill="none" stroke="black" points="391.5,-57.5 391.5,-76.5 487.5,-76.5 487.5,-57.5 391.5,-57.5"/>
<text text-anchor="middle" x="439.5" y="-64.5" font-family="Helvetica,sans-Serif" font-size="10.00">IEquatable&lt; uint &gt;</text>
</a>
</g>
</g>
<!-- Node14&#45;&gt;Node8 -->
<g id="edge6" class="edge"><title>Node14&#45;&gt;Node8</title>
<path fill="none" stroke="midnightblue" d="M393.888,-54.9972C350.595,-44.5535 286.426,-29.0742 246.875,-19.5334"/>
<polygon fill="midnightblue" stroke="midnightblue" points="393.333,-58.4636 403.875,-57.4063 394.975,-51.6588 393.333,-58.4636"/>
</g>
<!-- Node15 -->
<g id="node8" class="node"><title>Node15</title>
<g id="a_node8"><a xlink:href="interface_system_1_1_i_equatable.html" target="_top" xlink:title="Defines a generalized method that a value type or class implements to create a type&#45;specific method f...">
<polygon fill="none" stroke="black" points="382.5,-124.5 382.5,-143.5 504.5,-143.5 504.5,-124.5 382.5,-124.5"/>
<text text-anchor="middle" x="443.5" y="-131.5" font-family="Helvetica,sans-Serif" font-size="10.00">System.IEquatable&lt; T &gt;</text>
</a>
</g>
</g>
<!-- Node15&#45;&gt;Node14 -->
<g id="edge7" class="edge"><title>Node15&#45;&gt;Node14</title>
<path fill="none" stroke="orange" stroke-dasharray="5,2" d="M442.333,-114.037C441.572,-101.67 440.615,-86.1198 440.031,-76.6273"/>
<polygon fill="orange" stroke="orange" points="438.853,-114.468 442.961,-124.234 445.84,-114.038 438.853,-114.468"/>
<text text-anchor="middle" x="461" y="-98" font-family="Helvetica,sans-Serif" font-size="10.00"> &lt; uint &gt;</text>
</g>
</g>
</svg>
