<?xml version="1.0" encoding="UTF-8" standalone="no"?>
<!DOCTYPE svg PUBLIC "-//W3C//DTD SVG 1.1//EN"
 "http://www.w3.org/Graphics/SVG/1.1/DTD/svg11.dtd">
<!-- Generated by graphviz version 2.38.0 (20140413.2041)
 -->
<!-- Title: System.Runtime.InteropServices.ELEMDESC.DESCUNION Pages: 1 -->
<svg width="348pt" height="241pt"
 viewBox="0.00 0.00 348.00 241.00" xmlns="http://www.w3.org/2000/svg" xmlns:xlink="http://www.w3.org/1999/xlink">
<g id="graph0" class="graph" transform="scale(1 1) rotate(0) translate(4 237)">
<title>System.Runtime.InteropServices.ELEMDESC.DESCUNION</title>
<!-- Node1 -->
<g id="node1" class="node"><title>Node1</title>
<g id="a_node1"><a xlink:title="Use T:System.Runtime.InteropServices.ComTypes.ELEMDESC.DESCUNION instead.">
<polygon fill="#bfbfbf" stroke="black" points="59,-0.5 59,-30.5 220,-30.5 220,-0.5 59,-0.5"/>
<text text-anchor="start" x="67" y="-18.5" font-family="Helvetica,sans-Serif" font-size="10.00">System.Runtime.InteropServices.</text>
<text text-anchor="middle" x="139.5" y="-7.5" font-family="Helvetica,sans-Serif" font-size="10.00">ELEMDESC.DESCUNION</text>
</a>
</g>
</g>
<!-- Node2 -->
<g id="node2" class="node"><title>Node2</title>
<g id="a_node2"><a xlink:href="struct_system_1_1_runtime_1_1_interop_services_1_1_i_d_l_d_e_s_c.html" target="_top" xlink:title="Use T:System.Runtime.InteropServices.ComTypes.IDLDESC instead.">
<polygon fill="none" stroke="black" points="0,-78.5 0,-108.5 161,-108.5 161,-78.5 0,-78.5"/>
<text text-anchor="start" x="8" y="-96.5" font-family="Helvetica,sans-Serif" font-size="10.00">System.Runtime.InteropServices.</text>
<text text-anchor="middle" x="80.5" y="-85.5" font-family="Helvetica,sans-Serif" font-size="10.00">IDLDESC</text>
</a>
</g>
</g>
<!-- Node2&#45;&gt;Node1 -->
<g id="edge1" class="edge"><title>Node2&#45;&gt;Node1</title>
<path fill="none" stroke="#9a32cd" stroke-dasharray="5,2" d="M98.0131,-69.9408C107.877,-57.2348 119.895,-41.7536 128.452,-30.7309"/>
<polygon fill="#9a32cd" stroke="#9a32cd" points="94.965,-68.1596 91.5974,-78.205 100.494,-72.4521 94.965,-68.1596"/>
<text text-anchor="middle" x="130.5" y="-52" font-family="Helvetica,sans-Serif" font-size="10.00"> idldesc</text>
</g>
<!-- Node3 -->
<g id="node3" class="node"><title>Node3</title>
<g id="a_node3"><a xlink:href="struct_system_1_1_runtime_1_1_interop_services_1_1_p_a_r_a_m_d_e_s_c.html" target="_top" xlink:title="Use T:System.Runtime.InteropServices.ComTypes.PARAMDESC instead.">
<polygon fill="none" stroke="black" points="179,-78.5 179,-108.5 340,-108.5 340,-78.5 179,-78.5"/>
<text text-anchor="start" x="187" y="-96.5" font-family="Helvetica,sans-Serif" font-size="10.00">System.Runtime.InteropServices.</text>
<text text-anchor="middle" x="259.5" y="-85.5" font-family="Helvetica,sans-Serif" font-size="10.00">PARAMDESC</text>
</a>
</g>
</g>
<!-- Node3&#45;&gt;Node1 -->
<g id="edge2" class="edge"><title>Node3&#45;&gt;Node1</title>
<path fill="none" stroke="#9a32cd" stroke-dasharray="5,2" d="M228.658,-72.967C207.709,-59.6993 180.495,-42.4633 161.67,-30.5413"/>
<polygon fill="#9a32cd" stroke="#9a32cd" points="226.889,-75.9894 237.21,-78.3831 230.635,-70.0757 226.889,-75.9894"/>
<text text-anchor="middle" x="232.5" y="-52" font-family="Helvetica,sans-Serif" font-size="10.00"> paramdesc</text>
</g>
<!-- Node4 -->
<g id="node4" class="node"><title>Node4</title>
<g id="a_node4"><a xlink:href="struct_system_1_1_int_ptr.html" target="_top" xlink:title="A platform&#45;specific type that is used to represent a pointer or a handle.">
<polygon fill="none" stroke="black" points="221,-156.5 221,-175.5 298,-175.5 298,-156.5 221,-156.5"/>
<text text-anchor="middle" x="259.5" y="-163.5" font-family="Helvetica,sans-Serif" font-size="10.00">System.IntPtr</text>
</a>
</g>
</g>
<!-- Node4&#45;&gt;Node3 -->
<g id="edge3" class="edge"><title>Node4&#45;&gt;Node3</title>
<path fill="none" stroke="#9a32cd" stroke-dasharray="5,2" d="M259.5,-146.236C259.5,-134.408 259.5,-119.383 259.5,-108.576"/>
<polygon fill="#9a32cd" stroke="#9a32cd" points="256,-146.355 259.5,-156.355 263,-146.355 256,-146.355"/>
<text text-anchor="middle" x="285" y="-130" font-family="Helvetica,sans-Serif" font-size="10.00"> lpVarValue</text>
</g>
<!-- Node4&#45;&gt;Node4 -->
<g id="edge5" class="edge"><title>Node4&#45;&gt;Node4</title>
<path fill="none" stroke="#9a32cd" stroke-dasharray="5,2" d="M308.22,-170.263C312.979,-169.403 316,-167.982 316,-166 316,-162.828 308.266,-161.094 298.055,-160.796"/>
<polygon fill="#9a32cd" stroke="#9a32cd" points="307.69,-166.797 298.055,-171.204 308.335,-173.767 307.69,-166.797"/>
<text text-anchor="middle" x="327" y="-163.5" font-family="Helvetica,sans-Serif" font-size="10.00"> Zero</text>
</g>
<!-- Node5 -->
<g id="node5" class="node"><title>Node5</title>
<g id="a_node5"><a xlink:href="interface_system_1_1_runtime_1_1_serialization_1_1_i_serializable.html" target="_top" xlink:title="Allows an object to control its own serialization and deserialization.">
<polygon fill="none" stroke="black" points="225,-213.5 225,-232.5 294,-232.5 294,-213.5 225,-213.5"/>
<text text-anchor="middle" x="259.5" y="-220.5" font-family="Helvetica,sans-Serif" font-size="10.00">ISerializable</text>
</a>
</g>
</g>
<!-- Node5&#45;&gt;Node4 -->
<g id="edge4" class="edge"><title>Node5&#45;&gt;Node4</title>
<path fill="none" stroke="midnightblue" d="M259.5,-203.117C259.5,-193.817 259.5,-183.056 259.5,-175.715"/>
<polygon fill="midnightblue" stroke="midnightblue" points="256,-203.406 259.5,-213.406 263,-203.406 256,-203.406"/>
</g>
</g>
</svg>
