<?xml version="1.0" encoding="UTF-8" standalone="no"?>
<!DOCTYPE svg PUBLIC "-//W3C//DTD SVG 1.1//EN"
 "http://www.w3.org/Graphics/SVG/1.1/DTD/svg11.dtd">
<!-- Generated by graphviz version 2.38.0 (20140413.2041)
 -->
<!-- Title: System.Deployment.Internal.Isolation.StoreOperationUninstallDeployment Pages: 1 -->
<svg width="286pt" height="185pt"
 viewBox="0.00 0.00 286.00 185.00" xmlns="http://www.w3.org/2000/svg" xmlns:xlink="http://www.w3.org/1999/xlink">
<g id="graph0" class="graph" transform="scale(1 1) rotate(0) translate(4 181)">
<title>System.Deployment.Internal.Isolation.StoreOperationUninstallDeployment</title>
<!-- Node1 -->
<g id="node1" class="node"><title>Node1</title>
<g id="a_node1"><a xlink:title=" ">
<polygon fill="#bfbfbf" stroke="black" points="85.5,-0.5 85.5,-41.5 243.5,-41.5 243.5,-0.5 85.5,-0.5"/>
<text text-anchor="start" x="93.5" y="-29.5" font-family="Helvetica,sans-Serif" font-size="10.00">System.Deployment.Internal.</text>
<text text-anchor="start" x="93.5" y="-18.5" font-family="Helvetica,sans-Serif" font-size="10.00">Isolation.StoreOperationUninstall</text>
<text text-anchor="middle" x="164.5" y="-7.5" font-family="Helvetica,sans-Serif" font-size="10.00">Deployment</text>
</a>
</g>
</g>
<!-- Node2 -->
<g id="node2" class="node"><title>Node2</title>
<g id="a_node2"><a xlink:href="struct_system_1_1_int_ptr.html" target="_top" xlink:title="A platform&#45;specific type that is used to represent a pointer or a handle.">
<polygon fill="none" stroke="black" points="0,-95 0,-114 77,-114 77,-95 0,-95"/>
<text text-anchor="middle" x="38.5" y="-102" font-family="Helvetica,sans-Serif" font-size="10.00">System.IntPtr</text>
</a>
</g>
</g>
<!-- Node2&#45;&gt;Node1 -->
<g id="edge1" class="edge"><title>Node2&#45;&gt;Node1</title>
<path fill="none" stroke="#9a32cd" stroke-dasharray="5,2" d="M60.5892,-89.2121C81.0046,-76.007 111.519,-56.2696 134.205,-41.5958"/>
<polygon fill="#9a32cd" stroke="#9a32cd" points="58.4799,-86.4081 51.9842,-94.7781 62.2817,-92.2857 58.4799,-86.4081"/>
<text text-anchor="middle" x="129" y="-63" font-family="Helvetica,sans-Serif" font-size="10.00"> Reference</text>
</g>
<!-- Node2&#45;&gt;Node2 -->
<g id="edge3" class="edge"><title>Node2&#45;&gt;Node2</title>
<path fill="none" stroke="#9a32cd" stroke-dasharray="5,2" d="M87.2203,-109.676C91.979,-108.633 95,-106.907 95,-104.5 95,-100.648 87.2662,-98.5421 77.0552,-98.181"/>
<polygon fill="#9a32cd" stroke="#9a32cd" points="86.6016,-106.224 77.0552,-110.819 87.3835,-113.18 86.6016,-106.224"/>
<text text-anchor="middle" x="106" y="-102" font-family="Helvetica,sans-Serif" font-size="10.00"> Zero</text>
</g>
<!-- Node3 -->
<g id="node3" class="node"><title>Node3</title>
<g id="a_node3"><a xlink:href="interface_system_1_1_runtime_1_1_serialization_1_1_i_serializable.html" target="_top" xlink:title="Allows an object to control its own serialization and deserialization.">
<polygon fill="none" stroke="black" points="4,-157.5 4,-176.5 73,-176.5 73,-157.5 4,-157.5"/>
<text text-anchor="middle" x="38.5" y="-164.5" font-family="Helvetica,sans-Serif" font-size="10.00">ISerializable</text>
</a>
</g>
</g>
<!-- Node3&#45;&gt;Node2 -->
<g id="edge2" class="edge"><title>Node3&#45;&gt;Node2</title>
<path fill="none" stroke="midnightblue" d="M38.5,-147.003C38.5,-136 38.5,-122.682 38.5,-114.152"/>
<polygon fill="midnightblue" stroke="midnightblue" points="35.0001,-147.332 38.5,-157.332 42.0001,-147.332 35.0001,-147.332"/>
</g>
<!-- Node4 -->
<g id="node4" class="node"><title>Node4</title>
<g id="a_node4"><a xlink:href="interface_system_1_1_deployment_1_1_internal_1_1_isolation_1_1_i_definition_app_id.html" target="_top" xlink:title=" ">
<polygon fill="none" stroke="black" points="135,-89.5 135,-119.5 278,-119.5 278,-89.5 135,-89.5"/>
<text text-anchor="start" x="143" y="-107.5" font-family="Helvetica,sans-Serif" font-size="10.00">System.Deployment.Internal.</text>
<text text-anchor="middle" x="206.5" y="-96.5" font-family="Helvetica,sans-Serif" font-size="10.00">Isolation.IDefinitionAppId</text>
</a>
</g>
</g>
<!-- Node4&#45;&gt;Node1 -->
<g id="edge4" class="edge"><title>Node4&#45;&gt;Node1</title>
<path fill="none" stroke="#9a32cd" stroke-dasharray="5,2" d="M194.473,-80.1622C188.173,-67.9377 180.547,-53.1386 174.563,-41.5278"/>
<polygon fill="#9a32cd" stroke="#9a32cd" points="191.492,-82.018 199.184,-89.3038 197.714,-78.8114 191.492,-82.018"/>
<text text-anchor="middle" x="214.5" y="-63" font-family="Helvetica,sans-Serif" font-size="10.00"> Application</text>
</g>
</g>
</svg>
