<?xml version="1.0" encoding="UTF-8" standalone="no"?>
<!DOCTYPE svg PUBLIC "-//W3C//DTD SVG 1.1//EN"
 "http://www.w3.org/Graphics/SVG/1.1/DTD/svg11.dtd">
<!-- Generated by graphviz version 2.38.0 (20140413.2041)
 -->
<!-- Title: System.Runtime.InteropServices.FUNCDESC Pages: 1 -->
<svg width="304pt" height="128pt"
 viewBox="0.00 0.00 304.00 128.00" xmlns="http://www.w3.org/2000/svg" xmlns:xlink="http://www.w3.org/1999/xlink">
<g id="graph0" class="graph" transform="scale(1 1) rotate(0) translate(4 124)">
<title>System.Runtime.InteropServices.FUNCDESC</title>
<!-- Node1 -->
<g id="node1" class="node"><title>Node1</title>
<g id="a_node1"><a xlink:title="Use T:System.Runtime.InteropServices.ComTypes.FUNCDESC instead.">
<polygon fill="#bfbfbf" stroke="black" points="79,-0.5 79,-30.5 240,-30.5 240,-0.5 79,-0.5"/>
<text text-anchor="start" x="87" y="-18.5" font-family="Helvetica,sans-Serif" font-size="10.00">System.Runtime.InteropServices.</text>
<text text-anchor="middle" x="159.5" y="-7.5" font-family="Helvetica,sans-Serif" font-size="10.00">FUNCDESC</text>
</a>
</g>
</g>
<!-- Node2 -->
<g id="node2" class="node"><title>Node2</title>
<g id="a_node2"><a xlink:href="struct_system_1_1_int_ptr.html" target="_top" xlink:title="A platform&#45;specific type that is used to represent a pointer or a handle.">
<polygon fill="none" stroke="red" points="0,-95 0,-114 77,-114 77,-95 0,-95"/>
<text text-anchor="middle" x="38.5" y="-102" font-family="Helvetica,sans-Serif" font-size="10.00">System.IntPtr</text>
</a>
</g>
</g>
<!-- Node2&#45;&gt;Node1 -->
<g id="edge1" class="edge"><title>Node2&#45;&gt;Node1</title>
<path fill="none" stroke="#9a32cd" stroke-dasharray="5,2" d="M51.3216,-86.6863C60.8802,-74.9953 74.7785,-59.6575 89.5,-49 99.4849,-41.7715 111.334,-35.541 122.417,-30.5249"/>
<polygon fill="#9a32cd" stroke="#9a32cd" points="48.3789,-84.7648 44.9163,-94.7778 53.8674,-89.1095 48.3789,-84.7648"/>
<text text-anchor="middle" x="133" y="-63" font-family="Helvetica,sans-Serif" font-size="10.00"> lprgscode</text>
<text text-anchor="middle" x="133" y="-52" font-family="Helvetica,sans-Serif" font-size="10.00">lprgelemdescParam</text>
</g>
<!-- Node2&#45;&gt;Node2 -->
<g id="edge2" class="edge"><title>Node2&#45;&gt;Node2</title>
<path fill="none" stroke="#9a32cd" stroke-dasharray="5,2" d="M87.2203,-111.199C91.979,-109.848 95,-107.615 95,-104.5 95,-99.5156 87.2662,-96.7898 77.0552,-96.3225"/>
<polygon fill="#9a32cd" stroke="#9a32cd" points="86.4472,-107.774 77.0552,-112.677 87.4548,-114.702 86.4472,-107.774"/>
<text text-anchor="middle" x="106" y="-102" font-family="Helvetica,sans-Serif" font-size="10.00"> Zero</text>
</g>
<!-- Node4 -->
<g id="node3" class="node"><title>Node4</title>
<g id="a_node3"><a xlink:href="struct_system_1_1_runtime_1_1_interop_services_1_1_e_l_e_m_d_e_s_c.html" target="_top" xlink:title="Use T:System.Runtime.InteropServices.ComTypes.ELEMDESC instead.">
<polygon fill="none" stroke="red" points="135,-89.5 135,-119.5 296,-119.5 296,-89.5 135,-89.5"/>
<text text-anchor="start" x="143" y="-107.5" font-family="Helvetica,sans-Serif" font-size="10.00">System.Runtime.InteropServices.</text>
<text text-anchor="middle" x="215.5" y="-96.5" font-family="Helvetica,sans-Serif" font-size="10.00">ELEMDESC</text>
</a>
</g>
</g>
<!-- Node4&#45;&gt;Node1 -->
<g id="edge3" class="edge"><title>Node4&#45;&gt;Node1</title>
<path fill="none" stroke="#9a32cd" stroke-dasharray="5,2" d="M200.653,-80.4338C190.453,-64.5884 177.241,-44.062 168.575,-30.599"/>
<polygon fill="#9a32cd" stroke="#9a32cd" points="197.897,-82.6194 206.253,-89.1337 203.783,-78.8307 197.897,-82.6194"/>
<text text-anchor="middle" x="227" y="-57.5" font-family="Helvetica,sans-Serif" font-size="10.00"> elemdescFunc</text>
</g>
</g>
</svg>
