<?xml version="1.0" encoding="UTF-8" standalone="no"?>
<!DOCTYPE svg PUBLIC "-//W3C//DTD SVG 1.1//EN"
 "http://www.w3.org/Graphics/SVG/1.1/DTD/svg11.dtd">
<!-- Generated by graphviz version 2.38.0 (20140413.2041)
 -->
<!-- Title: System.Runtime.InteropServices.ComTypes.ELEMDESC.DESCUNION Pages: 1 -->
<svg width="711pt" height="88pt"
 viewBox="0.00 0.00 711.00 88.00" xmlns="http://www.w3.org/2000/svg" xmlns:xlink="http://www.w3.org/1999/xlink">
<g id="graph0" class="graph" transform="scale(1 1) rotate(0) translate(4 84)">
<title>System.Runtime.InteropServices.ComTypes.ELEMDESC.DESCUNION</title>
<!-- Node1 -->
<g id="node1" class="node"><title>Node1</title>
<g id="a_node1"><a xlink:title="Contains information about an element.">
<polygon fill="#bfbfbf" stroke="black" points="523,-26.5 523,-56.5 703,-56.5 703,-26.5 523,-26.5"/>
<text text-anchor="start" x="531" y="-44.5" font-family="Helvetica,sans-Serif" font-size="10.00">System.Runtime.InteropServices.</text>
<text text-anchor="middle" x="613" y="-33.5" font-family="Helvetica,sans-Serif" font-size="10.00">ComTypes.ELEMDESC.DESCUNION</text>
</a>
</g>
</g>
<!-- Node2 -->
<g id="node2" class="node"><title>Node2</title>
<g id="a_node2"><a xlink:href="struct_system_1_1_runtime_1_1_interop_services_1_1_com_types_1_1_p_a_r_a_m_d_e_s_c.html" target="_top" xlink:title="Contains information about how to transfer a structure element, parameter, or function return value b...">
<polygon fill="none" stroke="black" points="274,-49.5 274,-79.5 435,-79.5 435,-49.5 274,-49.5"/>
<text text-anchor="start" x="282" y="-67.5" font-family="Helvetica,sans-Serif" font-size="10.00">System.Runtime.InteropServices.</text>
<text text-anchor="middle" x="354.5" y="-56.5" font-family="Helvetica,sans-Serif" font-size="10.00">ComTypes.PARAMDESC</text>
</a>
</g>
</g>
<!-- Node2&#45;&gt;Node1 -->
<g id="edge1" class="edge"><title>Node2&#45;&gt;Node1</title>
<path fill="none" stroke="#9a32cd" stroke-dasharray="5,2" d="M445.495,-56.4303C470.6,-54.1791 497.858,-51.735 522.91,-49.4886"/>
<polygon fill="#9a32cd" stroke="#9a32cd" points="444.9,-52.9695 435.252,-57.3487 445.525,-59.9416 444.9,-52.9695"/>
<text text-anchor="middle" x="479" y="-58.5" font-family="Helvetica,sans-Serif" font-size="10.00"> paramdesc</text>
</g>
<!-- Node3 -->
<g id="node3" class="node"><title>Node3</title>
<g id="a_node3"><a xlink:href="struct_system_1_1_int_ptr.html" target="_top" xlink:title="A platform&#45;specific type that is used to represent a pointer or a handle.">
<polygon fill="none" stroke="black" points="106,-27 106,-46 183,-46 183,-27 106,-27"/>
<text text-anchor="middle" x="144.5" y="-34" font-family="Helvetica,sans-Serif" font-size="10.00">System.IntPtr</text>
</a>
</g>
</g>
<!-- Node3&#45;&gt;Node2 -->
<g id="edge2" class="edge"><title>Node3&#45;&gt;Node2</title>
<path fill="none" stroke="#9a32cd" stroke-dasharray="5,2" d="M193.368,-42.9438C217.237,-46.1569 246.739,-50.1283 273.89,-53.7833"/>
<polygon fill="#9a32cd" stroke="#9a32cd" points="193.545,-39.4361 183.167,-41.5706 192.611,-46.3735 193.545,-39.4361"/>
<text text-anchor="middle" x="228.5" y="-53.5" font-family="Helvetica,sans-Serif" font-size="10.00"> lpVarValue</text>
</g>
<!-- Node3&#45;&gt;Node3 -->
<g id="edge4" class="edge"><title>Node3&#45;&gt;Node3</title>
<path fill="none" stroke="#9a32cd" stroke-dasharray="5,2" d="M134.187,-56.2663C134.997,-60.9965 138.435,-64.5 144.5,-64.5 154.453,-64.5 157.33,-55.0653 153.131,-46.2571"/>
<polygon fill="#9a32cd" stroke="#9a32cd" points="137.664,-56.6988 135.869,-46.2571 130.76,-55.539 137.664,-56.6988"/>
<text text-anchor="middle" x="144.5" y="-67.5" font-family="Helvetica,sans-Serif" font-size="10.00"> Zero</text>
</g>
<!-- Node5 -->
<g id="node5" class="node"><title>Node5</title>
<g id="a_node5"><a xlink:href="struct_system_1_1_runtime_1_1_interop_services_1_1_com_types_1_1_i_d_l_d_e_s_c.html" target="_top" xlink:title="Contains information needed for transferring a structure element, parameter, or function return value...">
<polygon fill="none" stroke="black" points="274,-0.5 274,-30.5 435,-30.5 435,-0.5 274,-0.5"/>
<text text-anchor="start" x="282" y="-18.5" font-family="Helvetica,sans-Serif" font-size="10.00">System.Runtime.InteropServices.</text>
<text text-anchor="middle" x="354.5" y="-7.5" font-family="Helvetica,sans-Serif" font-size="10.00">ComTypes.IDLDESC</text>
</a>
</g>
</g>
<!-- Node3&#45;&gt;Node5 -->
<g id="edge6" class="edge"><title>Node3&#45;&gt;Node5</title>
<path fill="none" stroke="#9a32cd" stroke-dasharray="5,2" d="M193.222,-28.5035C195.85,-28.1436 198.456,-27.8058 201,-27.5 224.599,-24.6629 250.337,-22.3429 273.833,-20.5251"/>
<polygon fill="#9a32cd" stroke="#9a32cd" points="192.45,-25.0788 183.057,-29.9807 193.457,-32.0061 192.45,-25.0788"/>
<text text-anchor="middle" x="228.5" y="-30.5" font-family="Helvetica,sans-Serif" font-size="10.00"> dwReserved</text>
</g>
<!-- Node4 -->
<g id="node4" class="node"><title>Node4</title>
<g id="a_node4"><a xlink:href="interface_system_1_1_runtime_1_1_serialization_1_1_i_serializable.html" target="_top" xlink:title="Allows an object to control its own serialization and deserialization.">
<polygon fill="none" stroke="black" points="0,-27 0,-46 69,-46 69,-27 0,-27"/>
<text text-anchor="middle" x="34.5" y="-34" font-family="Helvetica,sans-Serif" font-size="10.00">ISerializable</text>
</a>
</g>
</g>
<!-- Node4&#45;&gt;Node3 -->
<g id="edge3" class="edge"><title>Node4&#45;&gt;Node3</title>
<path fill="none" stroke="midnightblue" d="M79.1953,-36.5C88.0115,-36.5 97.2082,-36.5 105.798,-36.5"/>
<polygon fill="midnightblue" stroke="midnightblue" points="79.0799,-33.0001 69.0799,-36.5 79.0798,-40.0001 79.0799,-33.0001"/>
</g>
<!-- Node5&#45;&gt;Node1 -->
<g id="edge5" class="edge"><title>Node5&#45;&gt;Node1</title>
<path fill="none" stroke="#9a32cd" stroke-dasharray="5,2" d="M445.495,-24.6223C470.6,-27.167 497.858,-29.93 522.91,-32.4695"/>
<polygon fill="#9a32cd" stroke="#9a32cd" points="445.554,-21.1104 435.252,-23.584 444.848,-28.0748 445.554,-21.1104"/>
<text text-anchor="middle" x="479" y="-33.5" font-family="Helvetica,sans-Serif" font-size="10.00"> idldesc</text>
</g>
</g>
</svg>
