<?xml version="1.0" encoding="UTF-8" standalone="no"?>
<!DOCTYPE svg PUBLIC "-//W3C//DTD SVG 1.1//EN"
 "http://www.w3.org/Graphics/SVG/1.1/DTD/svg11.dtd">
<!-- Generated by graphviz version 2.38.0 (20140413.2041)
 -->
<!-- Title: System.UInt64 Pages: 1 -->
<svg width="505pt" height="84pt"
 viewBox="0.00 0.00 504.50 84.00" xmlns="http://www.w3.org/2000/svg" xmlns:xlink="http://www.w3.org/1999/xlink">
<g id="graph0" class="graph" transform="scale(1 1) rotate(0) translate(4 80)">
<title>System.UInt64</title>
<!-- Node0 -->
<g id="node1" class="node"><title>Node0</title>
<g id="a_node1"><a xlink:title="Represents a 64&#45;bit unsigned integer.">
<polygon fill="#bfbfbf" stroke="black" points="171,-0.5 171,-19.5 252,-19.5 252,-0.5 171,-0.5"/>
<text text-anchor="middle" x="211.5" y="-7.5" font-family="Helvetica,sans-Serif" font-size="10.00">System.UInt64</text>
</a>
</g>
</g>
<!-- Node1 -->
<g id="node2" class="node"><title>Node1</title>
<g id="a_node2"><a xlink:href="interface_system_1_1_i_comparable.html" target="_top" xlink:title="Defines a generalized type&#45;specific comparison method that a value type or class implements to order ...">
<polygon fill="none" stroke="black" points="0,-56.5 0,-75.5 71,-75.5 71,-56.5 0,-56.5"/>
<text text-anchor="middle" x="35.5" y="-63.5" font-family="Helvetica,sans-Serif" font-size="10.00">IComparable</text>
</a>
</g>
</g>
<!-- Node1&#45;&gt;Node0 -->
<g id="edge1" class="edge"><title>Node1&#45;&gt;Node0</title>
<path fill="none" stroke="midnightblue" d="M73.189,-53.4363C106.372,-43.2551 153.928,-28.664 183.743,-19.5164"/>
<polygon fill="midnightblue" stroke="midnightblue" points="71.9212,-50.1642 63.3877,-56.4435 73.9745,-56.8563 71.9212,-50.1642"/>
</g>
<!-- Node2 -->
<g id="node3" class="node"><title>Node2</title>
<g id="a_node3"><a xlink:href="interface_system_1_1_i_formattable.html" target="_top" xlink:title="Provides functionality to format the value of an object into a string representation.">
<polygon fill="none" stroke="black" points="89,-56.5 89,-75.5 160,-75.5 160,-56.5 89,-56.5"/>
<text text-anchor="middle" x="124.5" y="-63.5" font-family="Helvetica,sans-Serif" font-size="10.00">IFormattable</text>
</a>
</g>
</g>
<!-- Node2&#45;&gt;Node0 -->
<g id="edge2" class="edge"><title>Node2&#45;&gt;Node0</title>
<path fill="none" stroke="midnightblue" d="M147.216,-50.9005C163.169,-40.9986 183.997,-28.0705 197.557,-19.6545"/>
<polygon fill="midnightblue" stroke="midnightblue" points="145.129,-48.0765 138.478,-56.324 148.82,-54.024 145.129,-48.0765"/>
</g>
<!-- Node3 -->
<g id="node4" class="node"><title>Node3</title>
<g id="a_node4"><a xlink:href="interface_system_1_1_i_convertible.html" target="_top" xlink:title="Defines methods that convert the value of the implementing reference or value type to a common langua...">
<polygon fill="none" stroke="black" points="178.5,-56.5 178.5,-75.5 244.5,-75.5 244.5,-56.5 178.5,-56.5"/>
<text text-anchor="middle" x="211.5" y="-63.5" font-family="Helvetica,sans-Serif" font-size="10.00">IConvertible</text>
</a>
</g>
</g>
<!-- Node3&#45;&gt;Node0 -->
<g id="edge3" class="edge"><title>Node3&#45;&gt;Node0</title>
<path fill="none" stroke="midnightblue" d="M211.5,-45.8045C211.5,-36.9102 211.5,-26.7798 211.5,-19.7511"/>
<polygon fill="midnightblue" stroke="midnightblue" points="208,-46.083 211.5,-56.083 215,-46.083 208,-46.083"/>
</g>
<!-- Node4 -->
<g id="node5" class="node"><title>Node4</title>
<g id="a_node5"><a xlink:href="interface_system_1_1_i_comparable.html" target="_top" xlink:title=" ">
<polygon fill="none" stroke="red" points="262.5,-56.5 262.5,-75.5 374.5,-75.5 374.5,-56.5 262.5,-56.5"/>
<text text-anchor="middle" x="318.5" y="-63.5" font-family="Helvetica,sans-Serif" font-size="10.00">IComparable&lt; ulong &gt;</text>
</a>
</g>
</g>
<!-- Node4&#45;&gt;Node0 -->
<g id="edge4" class="edge"><title>Node4&#45;&gt;Node0</title>
<path fill="none" stroke="midnightblue" d="M292.198,-51.7261C272.385,-41.7271 245.793,-28.3065 228.649,-19.6545"/>
<polygon fill="midnightblue" stroke="midnightblue" points="290.804,-54.9431 301.309,-56.324 293.958,-48.6938 290.804,-54.9431"/>
</g>
<!-- Node6 -->
<g id="node6" class="node"><title>Node6</title>
<g id="a_node6"><a xlink:href="interface_system_1_1_i_equatable.html" target="_top" xlink:title=" ">
<polygon fill="none" stroke="red" points="392.5,-56.5 392.5,-75.5 496.5,-75.5 496.5,-56.5 392.5,-56.5"/>
<text text-anchor="middle" x="444.5" y="-63.5" font-family="Helvetica,sans-Serif" font-size="10.00">IEquatable&lt; ulong &gt;</text>
</a>
</g>
</g>
<!-- Node6&#45;&gt;Node0 -->
<g id="edge5" class="edge"><title>Node6&#45;&gt;Node0</title>
<path fill="none" stroke="midnightblue" d="M397.697,-54.1529C353.673,-43.95 288.653,-28.8809 248.247,-19.5164"/>
<polygon fill="midnightblue" stroke="midnightblue" points="397.048,-57.5953 407.58,-56.4435 398.629,-50.7761 397.048,-57.5953"/>
</g>
</g>
</svg>
