<?xml version="1.0" encoding="UTF-8" standalone="no"?>
<!DOCTYPE svg PUBLIC "-//W3C//DTD SVG 1.1//EN"
 "http://www.w3.org/Graphics/SVG/1.1/DTD/svg11.dtd">
<!-- Generated by graphviz version 2.38.0 (20140413.2041)
 -->
<!-- Title: System.Runtime.InteropServices.ELEMDESC Pages: 1 -->
<svg width="394pt" height="88pt"
 viewBox="0.00 0.00 394.00 88.00" xmlns="http://www.w3.org/2000/svg" xmlns:xlink="http://www.w3.org/1999/xlink">
<g id="graph0" class="graph" transform="scale(1 1) rotate(0) translate(4 84)">
<title>System.Runtime.InteropServices.ELEMDESC</title>
<!-- Node1 -->
<g id="node1" class="node"><title>Node1</title>
<g id="a_node1"><a xlink:title="Use T:System.Runtime.InteropServices.ComTypes.ELEMDESC instead.">
<polygon fill="#bfbfbf" stroke="black" points="225,-24.5 225,-54.5 386,-54.5 386,-24.5 225,-24.5"/>
<text text-anchor="start" x="233" y="-42.5" font-family="Helvetica,sans-Serif" font-size="10.00">System.Runtime.InteropServices.</text>
<text text-anchor="middle" x="305.5" y="-31.5" font-family="Helvetica,sans-Serif" font-size="10.00">ELEMDESC</text>
</a>
</g>
</g>
<!-- Node2 -->
<g id="node2" class="node"><title>Node2</title>
<g id="a_node2"><a xlink:href="struct_system_1_1_runtime_1_1_interop_services_1_1_t_y_p_e_d_e_s_c.html" target="_top" xlink:title="Use T:System.Runtime.InteropServices.ComTypes.TYPEDESC instead.">
<polygon fill="none" stroke="red" points="0,-49.5 0,-79.5 161,-79.5 161,-49.5 0,-49.5"/>
<text text-anchor="start" x="8" y="-67.5" font-family="Helvetica,sans-Serif" font-size="10.00">System.Runtime.InteropServices.</text>
<text text-anchor="middle" x="80.5" y="-56.5" font-family="Helvetica,sans-Serif" font-size="10.00">TYPEDESC</text>
</a>
</g>
</g>
<!-- Node2&#45;&gt;Node1 -->
<g id="edge1" class="edge"><title>Node2&#45;&gt;Node1</title>
<path fill="none" stroke="#9a32cd" stroke-dasharray="5,2" d="M171.399,-54.4216C189.127,-52.4342 207.611,-50.362 224.967,-48.4163"/>
<polygon fill="#9a32cd" stroke="#9a32cd" points="170.611,-50.9879 161.064,-55.5803 171.391,-57.9443 170.611,-50.9879"/>
<text text-anchor="middle" x="193" y="-55.5" font-family="Helvetica,sans-Serif" font-size="10.00"> tdesc</text>
</g>
<!-- Node5 -->
<g id="node3" class="node"><title>Node5</title>
<g id="a_node3"><a xlink:href="struct_system_1_1_runtime_1_1_interop_services_1_1_e_l_e_m_d_e_s_c_1_1_d_e_s_c_u_n_i_o_n.html" target="_top" xlink:title="Use T:System.Runtime.InteropServices.ComTypes.ELEMDESC.DESCUNION instead.">
<polygon fill="none" stroke="red" points="0,-0.5 0,-30.5 161,-30.5 161,-0.5 0,-0.5"/>
<text text-anchor="start" x="8" y="-18.5" font-family="Helvetica,sans-Serif" font-size="10.00">System.Runtime.InteropServices.</text>
<text text-anchor="middle" x="80.5" y="-7.5" font-family="Helvetica,sans-Serif" font-size="10.00">ELEMDESC.DESCUNION</text>
</a>
</g>
</g>
<!-- Node5&#45;&gt;Node1 -->
<g id="edge2" class="edge"><title>Node5&#45;&gt;Node1</title>
<path fill="none" stroke="#9a32cd" stroke-dasharray="5,2" d="M171.399,-25.1753C189.127,-27.0831 207.611,-29.0725 224.967,-30.9404"/>
<polygon fill="#9a32cd" stroke="#9a32cd" points="171.381,-21.6531 161.064,-24.0629 170.632,-28.613 171.381,-21.6531"/>
<text text-anchor="middle" x="193" y="-31.5" font-family="Helvetica,sans-Serif" font-size="10.00"> desc</text>
</g>
</g>
</svg>
