<?xml version="1.0" encoding="UTF-8" standalone="no"?>
<!DOCTYPE svg PUBLIC "-//W3C//DTD SVG 1.1//EN"
 "http://www.w3.org/Graphics/SVG/1.1/DTD/svg11.dtd">
<!-- Generated by graphviz version 2.38.0 (20140413.2041)
 -->
<!-- Title: System.RuntimeMethodHandle Pages: 1 -->
<svg width="240pt" height="85pt"
 viewBox="0.00 0.00 240.00 85.00" xmlns="http://www.w3.org/2000/svg" xmlns:xlink="http://www.w3.org/1999/xlink">
<g id="graph0" class="graph" transform="scale(1 1) rotate(0) translate(4 81)">
<title>System.RuntimeMethodHandle</title>
<!-- Node2 -->
<g id="node1" class="node"><title>Node2</title>
<g id="a_node1"><a xlink:title="T:System.RuntimeMethodHandle is a handle to the internal metadata representation of a method.">
<polygon fill="#bfbfbf" stroke="black" points="0,-0.5 0,-19.5 152,-19.5 152,-0.5 0,-0.5"/>
<text text-anchor="middle" x="76" y="-7.5" font-family="Helvetica,sans-Serif" font-size="10.00">System.RuntimeMethodHandle</text>
</a>
</g>
</g>
<!-- Node2&#45;&gt;Node2 -->
<g id="edge2" class="edge"><title>Node2&#45;&gt;Node2</title>
<path fill="none" stroke="#9a32cd" stroke-dasharray="5,2" d="M162.582,-13.4834C167.237,-12.6309 170,-11.4697 170,-10 170,-7.64844 162.928,-6.08685 152.347,-5.31525"/>
<polygon fill="#9a32cd" stroke="#9a32cd" points="161.871,-10.0428 152.347,-14.6848 162.687,-16.9951 161.871,-10.0428"/>
<text text-anchor="middle" x="201" y="-7.5" font-family="Helvetica,sans-Serif" font-size="10.00"> EmptyHandle</text>
</g>
<!-- Node3 -->
<g id="node2" class="node"><title>Node3</title>
<g id="a_node2"><a xlink:href="interface_system_1_1_runtime_1_1_serialization_1_1_i_serializable.html" target="_top" xlink:title="Allows an object to control its own serialization and deserialization.">
<polygon fill="none" stroke="black" points="41.5,-57.5 41.5,-76.5 110.5,-76.5 110.5,-57.5 41.5,-57.5"/>
<text text-anchor="middle" x="76" y="-64.5" font-family="Helvetica,sans-Serif" font-size="10.00">ISerializable</text>
</a>
</g>
</g>
<!-- Node3&#45;&gt;Node2 -->
<g id="edge1" class="edge"><title>Node3&#45;&gt;Node2</title>
<path fill="none" stroke="midnightblue" d="M76,-47.1166C76,-37.8173 76,-27.0557 76,-19.7149"/>
<polygon fill="midnightblue" stroke="midnightblue" points="72.5001,-47.4062 76,-57.4063 79.5001,-47.4063 72.5001,-47.4062"/>
</g>
</g>
</svg>
