<?xml version="1.0" encoding="UTF-8" standalone="no"?>
<!DOCTYPE svg PUBLIC "-//W3C//DTD SVG 1.1//EN"
 "http://www.w3.org/Graphics/SVG/1.1/DTD/svg11.dtd">
<!-- Generated by graphviz version 2.38.0 (20140413.2041)
 -->
<!-- Title: System.Runtime.InteropServices.ComTypes.VARDESC.DESCUNION Pages: 1 -->
<svg width="181pt" height="106pt"
 viewBox="0.00 0.00 181.00 106.00" xmlns="http://www.w3.org/2000/svg" xmlns:xlink="http://www.w3.org/1999/xlink">
<g id="graph0" class="graph" transform="scale(1 1) rotate(0) translate(4 102)">
<title>System.Runtime.InteropServices.ComTypes.VARDESC.DESCUNION</title>
<!-- Node1 -->
<g id="node1" class="node"><title>Node1</title>
<g id="a_node1"><a xlink:title="Contains information about a variable.">
<polygon fill="#bfbfbf" stroke="black" points="0,-0.5 0,-30.5 173,-30.5 173,-0.5 0,-0.5"/>
<text text-anchor="start" x="8" y="-18.5" font-family="Helvetica,sans-Serif" font-size="10.00">System.Runtime.InteropServices.</text>
<text text-anchor="middle" x="86.5" y="-7.5" font-family="Helvetica,sans-Serif" font-size="10.00">ComTypes.VARDESC.DESCUNION</text>
</a>
</g>
</g>
<!-- Node2 -->
<g id="node2" class="node"><title>Node2</title>
<g id="a_node2"><a xlink:href="struct_system_1_1_int_ptr.html" target="_top" xlink:title="A platform&#45;specific type that is used to represent a pointer or a handle.">
<polygon fill="none" stroke="red" points="48,-78.5 48,-97.5 125,-97.5 125,-78.5 48,-78.5"/>
<text text-anchor="middle" x="86.5" y="-85.5" font-family="Helvetica,sans-Serif" font-size="10.00">System.IntPtr</text>
</a>
</g>
</g>
<!-- Node2&#45;&gt;Node1 -->
<g id="edge1" class="edge"><title>Node2&#45;&gt;Node1</title>
<path fill="none" stroke="#9a32cd" stroke-dasharray="5,2" d="M86.5,-68.2362C86.5,-56.4079 86.5,-41.3829 86.5,-30.5762"/>
<polygon fill="#9a32cd" stroke="#9a32cd" points="83.0001,-68.3553 86.5,-78.3553 90.0001,-68.3554 83.0001,-68.3553"/>
<text text-anchor="middle" x="110.5" y="-52" font-family="Helvetica,sans-Serif" font-size="10.00"> lpvarValue</text>
</g>
<!-- Node2&#45;&gt;Node2 -->
<g id="edge2" class="edge"><title>Node2&#45;&gt;Node2</title>
<path fill="none" stroke="#9a32cd" stroke-dasharray="5,2" d="M135.22,-92.872C139.979,-91.8896 143,-90.2656 143,-88 143,-84.375 135.266,-82.3926 125.055,-82.0527"/>
<polygon fill="#9a32cd" stroke="#9a32cd" points="134.631,-89.4146 125.055,-93.9473 135.368,-96.3758 134.631,-89.4146"/>
<text text-anchor="middle" x="154" y="-85.5" font-family="Helvetica,sans-Serif" font-size="10.00"> Zero</text>
</g>
</g>
</svg>
