<?xml version="1.0" encoding="UTF-8" standalone="no"?>
<!DOCTYPE svg PUBLIC "-//W3C//DTD SVG 1.1//EN"
 "http://www.w3.org/Graphics/SVG/1.1/DTD/svg11.dtd">
<!-- Generated by graphviz version 2.38.0 (20140413.2041)
 -->
<!-- Title: System.Security.Cryptography.ECParameters Pages: 1 -->
<svg width="233pt" height="195pt"
 viewBox="0.00 0.00 233.00 195.00" xmlns="http://www.w3.org/2000/svg" xmlns:xlink="http://www.w3.org/1999/xlink">
<g id="graph0" class="graph" transform="scale(1 1) rotate(0) translate(4 191)">
<title>System.Security.Cryptography.ECParameters</title>
<!-- Node1 -->
<g id="node1" class="node"><title>Node1</title>
<g id="a_node1"><a xlink:title="Represents the standard parameters for the elliptic curve cryptography (ECC) algorithm.">
<polygon fill="#bfbfbf" stroke="black" points="0,-0.5 0,-30.5 153,-30.5 153,-0.5 0,-0.5"/>
<text text-anchor="start" x="8" y="-18.5" font-family="Helvetica,sans-Serif" font-size="10.00">System.Security.Cryptography.</text>
<text text-anchor="middle" x="76.5" y="-7.5" font-family="Helvetica,sans-Serif" font-size="10.00">ECParameters</text>
</a>
</g>
</g>
<!-- Node2 -->
<g id="node2" class="node"><title>Node2</title>
<g id="a_node2"><a xlink:href="struct_system_1_1_security_1_1_cryptography_1_1_e_c_curve.html" target="_top" xlink:title="Represents an elliptic curve.">
<polygon fill="none" stroke="red" points="72,-78.5 72,-108.5 225,-108.5 225,-78.5 72,-78.5"/>
<text text-anchor="start" x="80" y="-96.5" font-family="Helvetica,sans-Serif" font-size="10.00">System.Security.Cryptography.</text>
<text text-anchor="middle" x="148.5" y="-85.5" font-family="Helvetica,sans-Serif" font-size="10.00">ECCurve</text>
</a>
</g>
</g>
<!-- Node2&#45;&gt;Node1 -->
<g id="edge1" class="edge"><title>Node2&#45;&gt;Node1</title>
<path fill="none" stroke="#9a32cd" stroke-dasharray="5,2" d="M127.82,-70.6707C115.657,-57.8319 100.625,-41.9656 89.9819,-30.7309"/>
<polygon fill="#9a32cd" stroke="#9a32cd" points="125.539,-73.3525 134.957,-78.205 130.621,-68.5383 125.539,-73.3525"/>
<text text-anchor="middle" x="130.5" y="-52" font-family="Helvetica,sans-Serif" font-size="10.00"> Curve</text>
</g>
<!-- Node6 -->
<g id="node3" class="node"><title>Node6</title>
<g id="a_node3"><a xlink:href="struct_system_1_1_security_1_1_cryptography_1_1_e_c_point.html" target="_top" xlink:title="Represents a (X,Y) coordinate pair for elliptic curve cryptography (ECC) structures.">
<polygon fill="none" stroke="black" points="0,-156.5 0,-186.5 153,-186.5 153,-156.5 0,-156.5"/>
<text text-anchor="start" x="8" y="-174.5" font-family="Helvetica,sans-Serif" font-size="10.00">System.Security.Cryptography.</text>
<text text-anchor="middle" x="76.5" y="-163.5" font-family="Helvetica,sans-Serif" font-size="10.00">ECPoint</text>
</a>
</g>
</g>
<!-- Node6&#45;&gt;Node1 -->
<g id="edge3" class="edge"><title>Node6&#45;&gt;Node1</title>
<path fill="none" stroke="#9a32cd" stroke-dasharray="5,2" d="M64.5508,-147.216C59.44,-135.982 54.0654,-122.123 51.5,-109 48.8567,-95.4782 48.8567,-91.5218 51.5,-78 54.8168,-61.0328 62.8298,-42.8347 68.8969,-30.6734"/>
<polygon fill="#9a32cd" stroke="#9a32cd" points="61.4324,-148.808 68.8969,-156.327 67.7504,-145.794 61.4324,-148.808"/>
<text text-anchor="middle" x="57" y="-91" font-family="Helvetica,sans-Serif" font-size="10.00"> Q</text>
</g>
<!-- Node6&#45;&gt;Node2 -->
<g id="edge2" class="edge"><title>Node6&#45;&gt;Node2</title>
<path fill="none" stroke="#9a32cd" stroke-dasharray="5,2" d="M97.1804,-148.671C109.343,-135.832 124.375,-119.966 135.018,-108.731"/>
<polygon fill="#9a32cd" stroke="#9a32cd" points="94.3793,-146.538 90.0426,-156.205 99.461,-151.353 94.3793,-146.538"/>
<text text-anchor="middle" x="122" y="-130" font-family="Helvetica,sans-Serif" font-size="10.00"> G</text>
</g>
</g>
</svg>
