<?xml version="1.0" encoding="UTF-8" standalone="no"?>
<!DOCTYPE svg PUBLIC "-//W3C//DTD SVG 1.1//EN"
 "http://www.w3.org/Graphics/SVG/1.1/DTD/svg11.dtd">
<!-- Generated by graphviz version 2.38.0 (20140413.2041)
 -->
<!-- Title: System.Runtime.InteropServices.ComTypes.STATSTG Pages: 1 -->
<svg width="312pt" height="139pt"
 viewBox="0.00 0.00 311.50 139.00" xmlns="http://www.w3.org/2000/svg" xmlns:xlink="http://www.w3.org/1999/xlink">
<g id="graph0" class="graph" transform="scale(1 1) rotate(0) translate(4 135)">
<title>System.Runtime.InteropServices.ComTypes.STATSTG</title>
<!-- Node1 -->
<g id="node1" class="node"><title>Node1</title>
<g id="a_node1"><a xlink:title="Contains statistical information about an open storage, stream, or byte&#45;array object.">
<polygon fill="#bfbfbf" stroke="black" points="95.5,-0.5 95.5,-30.5 256.5,-30.5 256.5,-0.5 95.5,-0.5"/>
<text text-anchor="start" x="103.5" y="-18.5" font-family="Helvetica,sans-Serif" font-size="10.00">System.Runtime.InteropServices.</text>
<text text-anchor="middle" x="176" y="-7.5" font-family="Helvetica,sans-Serif" font-size="10.00">ComTypes.STATSTG</text>
</a>
</g>
</g>
<!-- Node2 -->
<g id="node2" class="node"><title>Node2</title>
<g id="a_node2"><a xlink:href="struct_system_1_1_guid.html" target="_top" xlink:title="Represents a globally unique identifier (GUID).To browse the .NET Framework source code for this type...">
<polygon fill="none" stroke="red" points="0,-106 0,-125 74,-125 74,-106 0,-106"/>
<text text-anchor="middle" x="37" y="-113" font-family="Helvetica,sans-Serif" font-size="10.00">System.Guid</text>
</a>
</g>
</g>
<!-- Node2&#45;&gt;Node1 -->
<g id="edge1" class="edge"><title>Node2&#45;&gt;Node1</title>
<path fill="none" stroke="#9a32cd" stroke-dasharray="5,2" d="M57.5146,-100.036C83.977,-81.3795 129.713,-49.1341 155.948,-30.6372"/>
<polygon fill="#9a32cd" stroke="#9a32cd" points="55.4915,-97.1804 49.3353,-105.803 59.5251,-102.901 55.4915,-97.1804"/>
<text text-anchor="middle" x="140" y="-63" font-family="Helvetica,sans-Serif" font-size="10.00"> clsid</text>
</g>
<!-- Node2&#45;&gt;Node2 -->
<g id="edge2" class="edge"><title>Node2&#45;&gt;Node2</title>
<path fill="none" stroke="#9a32cd" stroke-dasharray="5,2" d="M84.1857,-123.191C88.9569,-121.665 92,-119.101 92,-115.5 92,-109.738 84.2097,-106.632 74.0153,-106.182"/>
<polygon fill="#9a32cd" stroke="#9a32cd" points="83.3369,-119.782 74.0153,-124.818 84.4426,-126.694 83.3369,-119.782"/>
<text text-anchor="middle" x="108" y="-113" font-family="Helvetica,sans-Serif" font-size="10.00"> Empty</text>
</g>
<!-- Node9 -->
<g id="node3" class="node"><title>Node9</title>
<g id="a_node3"><a xlink:href="struct_system_1_1_runtime_1_1_interop_services_1_1_com_types_1_1_f_i_l_e_t_i_m_e.html" target="_top" xlink:title="Represents the number of 100&#45;nanosecond intervals since January 1, 1601. This structure is a 64&#45;bit v...">
<polygon fill="none" stroke="black" points="142.5,-100.5 142.5,-130.5 303.5,-130.5 303.5,-100.5 142.5,-100.5"/>
<text text-anchor="start" x="150.5" y="-118.5" font-family="Helvetica,sans-Serif" font-size="10.00">System.Runtime.InteropServices.</text>
<text text-anchor="middle" x="223" y="-107.5" font-family="Helvetica,sans-Serif" font-size="10.00">ComTypes.FILETIME</text>
</a>
</g>
</g>
<!-- Node9&#45;&gt;Node1 -->
<g id="edge3" class="edge"><title>Node9&#45;&gt;Node1</title>
<path fill="none" stroke="#9a32cd" stroke-dasharray="5,2" d="M211.885,-91.3251C202.825,-72.4324 190.325,-46.3682 182.721,-30.515"/>
<polygon fill="#9a32cd" stroke="#9a32cd" points="208.786,-92.9558 216.266,-100.459 215.098,-89.9288 208.786,-92.9558"/>
<text text-anchor="middle" x="222.5" y="-74" font-family="Helvetica,sans-Serif" font-size="10.00"> mtime</text>
<text text-anchor="middle" x="222.5" y="-63" font-family="Helvetica,sans-Serif" font-size="10.00">atime</text>
<text text-anchor="middle" x="222.5" y="-52" font-family="Helvetica,sans-Serif" font-size="10.00">ctime</text>
</g>
</g>
</svg>
