<?xml version="1.0" encoding="UTF-8" standalone="no"?>
<!DOCTYPE svg PUBLIC "-//W3C//DTD SVG 1.1//EN"
 "http://www.w3.org/Graphics/SVG/1.1/DTD/svg11.dtd">
<!-- Generated by graphviz version 2.38.0 (20140413.2041)
 -->
<!-- Title: System.UIntPtr Pages: 1 -->
<svg width="131pt" height="85pt"
 viewBox="0.00 0.00 131.00 85.00" xmlns="http://www.w3.org/2000/svg" xmlns:xlink="http://www.w3.org/1999/xlink">
<g id="graph0" class="graph" transform="scale(1 1) rotate(0) translate(4 81)">
<title>System.UIntPtr</title>
<!-- Node2 -->
<g id="node1" class="node"><title>Node2</title>
<g id="a_node1"><a xlink:title="A platform&#45;specific type that is used to represent a pointer or a handle.">
<polygon fill="#bfbfbf" stroke="black" points="0,-0.5 0,-19.5 83,-19.5 83,-0.5 0,-0.5"/>
<text text-anchor="middle" x="41.5" y="-7.5" font-family="Helvetica,sans-Serif" font-size="10.00">System.UIntPtr</text>
</a>
</g>
</g>
<!-- Node2&#45;&gt;Node2 -->
<g id="edge2" class="edge"><title>Node2&#45;&gt;Node2</title>
<path fill="none" stroke="#9a32cd" stroke-dasharray="5,2" d="M93.319,-14.1721C98.0342,-13.3047 101,-11.9141 101,-10 101,-6.9375 93.4076,-5.21484 83.2052,-4.83203"/>
<polygon fill="#9a32cd" stroke="#9a32cd" points="92.8141,-10.7048 83.2052,-15.168 93.5001,-17.6711 92.8141,-10.7048"/>
<text text-anchor="middle" x="112" y="-7.5" font-family="Helvetica,sans-Serif" font-size="10.00"> Zero</text>
</g>
<!-- Node3 -->
<g id="node2" class="node"><title>Node3</title>
<g id="a_node2"><a xlink:href="interface_system_1_1_runtime_1_1_serialization_1_1_i_serializable.html" target="_top" xlink:title="Allows an object to control its own serialization and deserialization.">
<polygon fill="none" stroke="black" points="7,-57.5 7,-76.5 76,-76.5 76,-57.5 7,-57.5"/>
<text text-anchor="middle" x="41.5" y="-64.5" font-family="Helvetica,sans-Serif" font-size="10.00">ISerializable</text>
</a>
</g>
</g>
<!-- Node3&#45;&gt;Node2 -->
<g id="edge1" class="edge"><title>Node3&#45;&gt;Node2</title>
<path fill="none" stroke="midnightblue" d="M41.5,-47.1166C41.5,-37.8173 41.5,-27.0557 41.5,-19.7149"/>
<polygon fill="midnightblue" stroke="midnightblue" points="38.0001,-47.4062 41.5,-57.4063 45.0001,-47.4063 38.0001,-47.4062"/>
</g>
</g>
</svg>
