<?xml version="1.0" encoding="UTF-8" standalone="no"?>
<!DOCTYPE svg PUBLIC "-//W3C//DTD SVG 1.1//EN"
 "http://www.w3.org/Graphics/SVG/1.1/DTD/svg11.dtd">
<!-- Generated by graphviz version 2.38.0 (20140413.2041)
 -->
<!-- Title: System.Runtime.CompilerServices.AsyncTaskMethodBuilder Pages: 1 -->
<svg width="518pt" height="88pt"
 viewBox="0.00 0.00 518.00 88.00" xmlns="http://www.w3.org/2000/svg" xmlns:xlink="http://www.w3.org/1999/xlink">
<g id="graph0" class="graph" transform="scale(1 1) rotate(0) translate(4 84)">
<title>System.Runtime.CompilerServices.AsyncTaskMethodBuilder</title>
<!-- Node0 -->
<g id="node1" class="node"><title>Node0</title>
<g id="a_node1"><a xlink:title="Represents a builder for asynchronous methods that return a task.">
<polygon fill="#bfbfbf" stroke="black" points="0,-24.5 0,-54.5 170,-54.5 170,-24.5 0,-24.5"/>
<text text-anchor="start" x="8" y="-42.5" font-family="Helvetica,sans-Serif" font-size="10.00">System.Runtime.CompilerServices.</text>
<text text-anchor="middle" x="85" y="-31.5" font-family="Helvetica,sans-Serif" font-size="10.00">AsyncTaskMethodBuilder</text>
</a>
</g>
</g>
<!-- Node1 -->
<g id="node2" class="node"><title>Node1</title>
<g id="a_node2"><a xlink:href="struct_system_1_1_runtime_1_1_compiler_services_1_1_async_task_method_builder.html" target="_top" xlink:title=" ">
<polygon fill="none" stroke="black" points="313.5,-49.5 313.5,-79.5 492.5,-79.5 492.5,-49.5 313.5,-49.5"/>
<text text-anchor="start" x="321.5" y="-67.5" font-family="Helvetica,sans-Serif" font-size="10.00">System.Runtime.CompilerServices.</text>
<text text-anchor="middle" x="403" y="-56.5" font-family="Helvetica,sans-Serif" font-size="10.00">AsyncTaskMethodBuilder&lt; TResult &gt;</text>
</a>
</g>
</g>
<!-- Node0&#45;&gt;Node1 -->
<g id="edge1" class="edge"><title>Node0&#45;&gt;Node1</title>
<path fill="none" stroke="orange" stroke-dasharray="5,2" d="M180.254,-46.9568C222.394,-50.2907 271.803,-54.1996 313.273,-57.4805"/>
<polygon fill="orange" stroke="orange" points="180.512,-43.4664 170.267,-46.1667 179.96,-50.4446 180.512,-43.4664"/>
<text text-anchor="middle" x="233" y="-56.5" font-family="Helvetica,sans-Serif" font-size="10.00"> &lt; TResult &gt;</text>
</g>
<!-- Node2 -->
<g id="node3" class="node"><title>Node2</title>
<g id="a_node3"><a xlink:href="struct_system_1_1_runtime_1_1_compiler_services_1_1_async_task_method_builder.html" target="_top" xlink:title=" ">
<polygon fill="none" stroke="black" points="296,-0.5 296,-30.5 510,-30.5 510,-0.5 296,-0.5"/>
<text text-anchor="start" x="304" y="-18.5" font-family="Helvetica,sans-Serif" font-size="10.00">System.Runtime.CompilerServices.</text>
<text text-anchor="middle" x="403" y="-7.5" font-family="Helvetica,sans-Serif" font-size="10.00">AsyncTaskMethodBuilder&lt; VoidTaskResult &gt;</text>
</a>
</g>
</g>
<!-- Node0&#45;&gt;Node2 -->
<g id="edge2" class="edge"><title>Node0&#45;&gt;Node2</title>
<path fill="none" stroke="orange" stroke-dasharray="5,2" d="M180.233,-32.0966C182.85,-31.8951 185.443,-31.6959 188,-31.5 223.105,-28.811 261.453,-25.9271 295.866,-23.3584"/>
<polygon fill="orange" stroke="orange" points="179.748,-28.6236 170.048,-32.8837 180.287,-35.6028 179.748,-28.6236"/>
<text text-anchor="middle" x="233" y="-34.5" font-family="Helvetica,sans-Serif" font-size="10.00"> &lt; VoidTaskResult &gt;</text>
</g>
</g>
</svg>
