<?xml version="1.0" encoding="UTF-8" standalone="no"?>
<!DOCTYPE svg PUBLIC "-//W3C//DTD SVG 1.1//EN"
 "http://www.w3.org/Graphics/SVG/1.1/DTD/svg11.dtd">
<!-- Generated by graphviz version 2.38.0 (20140413.2041)
 -->
<!-- Title: System.Runtime.Serialization.SerializationEntry Pages: 1 -->
<svg width="314pt" height="220pt"
 viewBox="0.00 0.00 314.00 220.00" xmlns="http://www.w3.org/2000/svg" xmlns:xlink="http://www.w3.org/1999/xlink">
<g id="graph0" class="graph" transform="scale(1 1) rotate(0) translate(4 216)">
<title>System.Runtime.Serialization.SerializationEntry</title>
<!-- Node1 -->
<g id="node1" class="node"><title>Node1</title>
<g id="a_node1"><a xlink:title="Holds the value, T:System.Type, and name of a serialized object.">
<polygon fill="#bfbfbf" stroke="black" points="118.5,-0.5 118.5,-30.5 267.5,-30.5 267.5,-0.5 118.5,-0.5"/>
<text text-anchor="start" x="126.5" y="-18.5" font-family="Helvetica,sans-Serif" font-size="10.00">System.Runtime.Serialization.</text>
<text text-anchor="middle" x="193" y="-7.5" font-family="Helvetica,sans-Serif" font-size="10.00">SerializationEntry</text>
</a>
</g>
</g>
<!-- Node2 -->
<g id="node2" class="node"><title>Node2</title>
<g id="a_node2"><a xlink:href="class_system_1_1_type.html" target="_top" xlink:title="Represents type declarations: class types, interface types, array types, value types,...">
<polygon fill="none" stroke="black" points="156,-78.5 156,-97.5 230,-97.5 230,-78.5 156,-78.5"/>
<text text-anchor="middle" x="193" y="-85.5" font-family="Helvetica,sans-Serif" font-size="10.00">System.Type</text>
</a>
</g>
</g>
<!-- Node2&#45;&gt;Node1 -->
<g id="edge1" class="edge"><title>Node2&#45;&gt;Node1</title>
<path fill="none" stroke="#9a32cd" stroke-dasharray="5,2" d="M193,-68.2362C193,-56.4079 193,-41.3829 193,-30.5762"/>
<polygon fill="#9a32cd" stroke="#9a32cd" points="189.5,-68.3553 193,-78.3553 196.5,-68.3554 189.5,-68.3553"/>
<text text-anchor="middle" x="219.5" y="-52" font-family="Helvetica,sans-Serif" font-size="10.00"> ObjectType</text>
</g>
<!-- Node2&#45;&gt;Node2 -->
<g id="edge7" class="edge"><title>Node2&#45;&gt;Node2</title>
<path fill="none" stroke="#9a32cd" stroke-dasharray="5,2" d="M240.186,-92.3069C244.957,-91.4522 248,-90.0166 248,-88 248,-84.7734 240.21,-83.0341 230.015,-82.782"/>
<polygon fill="#9a32cd" stroke="#9a32cd" points="239.663,-88.8396 230.015,-93.218 240.288,-95.8117 239.663,-88.8396"/>
<text text-anchor="middle" x="277" y="-85.5" font-family="Helvetica,sans-Serif" font-size="10.00"> EmptyTypes</text>
</g>
<!-- Node3 -->
<g id="node3" class="node"><title>Node3</title>
<g id="a_node3"><a xlink:href="class_system_1_1_reflection_1_1_member_info.html" target="_top" xlink:title="Obtains information about the attributes of a member and provides access to member metadata.">
<polygon fill="none" stroke="black" points="86.5,-135.5 86.5,-154.5 153.5,-154.5 153.5,-135.5 86.5,-135.5"/>
<text text-anchor="middle" x="120" y="-142.5" font-family="Helvetica,sans-Serif" font-size="10.00">MemberInfo</text>
</a>
</g>
</g>
<!-- Node3&#45;&gt;Node2 -->
<g id="edge2" class="edge"><title>Node3&#45;&gt;Node2</title>
<path fill="none" stroke="midnightblue" d="M139.528,-129.287C152.904,-119.21 170.191,-106.185 181.433,-97.7149"/>
<polygon fill="midnightblue" stroke="midnightblue" points="137.287,-126.593 131.406,-135.406 141.499,-132.184 137.287,-126.593"/>
</g>
<!-- Node4 -->
<g id="node4" class="node"><title>Node4</title>
<g id="a_node4"><a xlink:href="interface_system_1_1_reflection_1_1_i_custom_attribute_provider.html" target="_top" xlink:title="Provides custom attributes for reflection objects that support them.">
<polygon fill="none" stroke="black" points="0,-192.5 0,-211.5 124,-211.5 124,-192.5 0,-192.5"/>
<text text-anchor="middle" x="62" y="-199.5" font-family="Helvetica,sans-Serif" font-size="10.00">ICustomAttributeProvider</text>
</a>
</g>
</g>
<!-- Node4&#45;&gt;Node3 -->
<g id="edge3" class="edge"><title>Node4&#45;&gt;Node3</title>
<path fill="none" stroke="midnightblue" d="M78.4339,-185.416C88.9236,-175.469 102.133,-162.943 110.81,-154.715"/>
<polygon fill="midnightblue" stroke="midnightblue" points="75.9104,-182.986 71.0625,-192.406 80.7271,-188.065 75.9104,-182.986"/>
</g>
<!-- Node5 -->
<g id="node5" class="node"><title>Node5</title>
<g id="a_node5"><a xlink:href="interface_system_1_1_runtime_1_1_interop_services_1_1___member_info.html" target="_top" xlink:title="Exposes the public members of the T:System.Reflection.MemberInfo class to unmanaged code.">
<polygon fill="none" stroke="black" points="142,-192.5 142,-211.5 214,-211.5 214,-192.5 142,-192.5"/>
<text text-anchor="middle" x="178" y="-199.5" font-family="Helvetica,sans-Serif" font-size="10.00">_MemberInfo</text>
</a>
</g>
</g>
<!-- Node5&#45;&gt;Node3 -->
<g id="edge4" class="edge"><title>Node5&#45;&gt;Node3</title>
<path fill="none" stroke="midnightblue" d="M161.566,-185.416C151.076,-175.469 137.867,-162.943 129.19,-154.715"/>
<polygon fill="midnightblue" stroke="midnightblue" points="159.273,-188.065 168.938,-192.406 164.09,-182.986 159.273,-188.065"/>
</g>
<!-- Node6 -->
<g id="node6" class="node"><title>Node6</title>
<g id="a_node6"><a xlink:href="interface_system_1_1_runtime_1_1_interop_services_1_1___type.html" target="_top" xlink:title="Exposes the public members of the T:System.Type class to the unmanaged code.">
<polygon fill="none" stroke="black" points="171.5,-135.5 171.5,-154.5 214.5,-154.5 214.5,-135.5 171.5,-135.5"/>
<text text-anchor="middle" x="193" y="-142.5" font-family="Helvetica,sans-Serif" font-size="10.00">_Type</text>
</a>
</g>
</g>
<!-- Node6&#45;&gt;Node2 -->
<g id="edge5" class="edge"><title>Node6&#45;&gt;Node2</title>
<path fill="none" stroke="midnightblue" d="M193,-125.117C193,-115.817 193,-105.056 193,-97.7149"/>
<polygon fill="midnightblue" stroke="midnightblue" points="189.5,-125.406 193,-135.406 196.5,-125.406 189.5,-125.406"/>
</g>
<!-- Node7 -->
<g id="node7" class="node"><title>Node7</title>
<g id="a_node7"><a xlink:href="interface_system_1_1_reflection_1_1_i_reflect.html" target="_top" xlink:title="Interoperates with the IDispatch interface.">
<polygon fill="none" stroke="black" points="232.5,-135.5 232.5,-154.5 281.5,-154.5 281.5,-135.5 232.5,-135.5"/>
<text text-anchor="middle" x="257" y="-142.5" font-family="Helvetica,sans-Serif" font-size="10.00">IReflect</text>
</a>
</g>
</g>
<!-- Node7&#45;&gt;Node2 -->
<g id="edge6" class="edge"><title>Node7&#45;&gt;Node2</title>
<path fill="none" stroke="midnightblue" d="M239.206,-128.708C227.577,-118.715 212.809,-106.024 203.141,-97.7149"/>
<polygon fill="midnightblue" stroke="midnightblue" points="237.135,-131.543 247,-135.406 241.697,-126.234 237.135,-131.543"/>
</g>
</g>
</svg>
