<?xml version="1.0" encoding="UTF-8" standalone="no"?>
<!DOCTYPE svg PUBLIC "-//W3C//DTD SVG 1.1//EN"
 "http://www.w3.org/Graphics/SVG/1.1/DTD/svg11.dtd">
<!-- Generated by graphviz version 2.38.0 (20140413.2041)
 -->
<!-- Title: System.Runtime.InteropServices.ComTypes.FUNCDESC Pages: 1 -->
<svg width="1306pt" height="180pt"
 viewBox="0.00 0.00 1306.00 179.50" xmlns="http://www.w3.org/2000/svg" xmlns:xlink="http://www.w3.org/1999/xlink">
<g id="graph0" class="graph" transform="scale(1 1) rotate(0) translate(4 175.5)">
<title>System.Runtime.InteropServices.ComTypes.FUNCDESC</title>
<!-- Node1 -->
<g id="node1" class="node"><title>Node1</title>
<g id="a_node1"><a xlink:title="Defines a function description.">
<polygon fill="#bfbfbf" stroke="black" points="1137,-112.5 1137,-142.5 1298,-142.5 1298,-112.5 1137,-112.5"/>
<text text-anchor="start" x="1145" y="-130.5" font-family="Helvetica,sans-Serif" font-size="10.00">System.Runtime.InteropServices.</text>
<text text-anchor="middle" x="1217.5" y="-119.5" font-family="Helvetica,sans-Serif" font-size="10.00">ComTypes.FUNCDESC</text>
</a>
</g>
</g>
<!-- Node2 -->
<g id="node2" class="node"><title>Node2</title>
<g id="a_node2"><a xlink:href="struct_system_1_1_runtime_1_1_interop_services_1_1_com_types_1_1_e_l_e_m_d_e_s_c.html" target="_top" xlink:title="Contains the type description and process transfer information for a variable, function,...">
<polygon fill="none" stroke="black" points="873,-73.5 873,-103.5 1034,-103.5 1034,-73.5 873,-73.5"/>
<text text-anchor="start" x="881" y="-91.5" font-family="Helvetica,sans-Serif" font-size="10.00">System.Runtime.InteropServices.</text>
<text text-anchor="middle" x="953.5" y="-80.5" font-family="Helvetica,sans-Serif" font-size="10.00">ComTypes.ELEMDESC</text>
</a>
</g>
</g>
<!-- Node2&#45;&gt;Node1 -->
<g id="edge1" class="edge"><title>Node2&#45;&gt;Node1</title>
<path fill="none" stroke="#9a32cd" stroke-dasharray="5,2" d="M1044.23,-101.857C1074.27,-106.328 1107.53,-111.279 1136.75,-115.629"/>
<polygon fill="#9a32cd" stroke="#9a32cd" points="1044.58,-98.3707 1034.18,-100.36 1043.55,-105.294 1044.58,-98.3707"/>
<text text-anchor="middle" x="1085.5" y="-116.5" font-family="Helvetica,sans-Serif" font-size="10.00"> elemdescFunc</text>
</g>
<!-- Node3 -->
<g id="node3" class="node"><title>Node3</title>
<g id="a_node3"><a xlink:href="struct_system_1_1_runtime_1_1_interop_services_1_1_com_types_1_1_e_l_e_m_d_e_s_c_1_1_d_e_s_c_u_n_i_o_n.html" target="_top" xlink:title="Contains information about an element.">
<polygon fill="none" stroke="black" points="632,-73.5 632,-103.5 812,-103.5 812,-73.5 632,-73.5"/>
<text text-anchor="start" x="640" y="-91.5" font-family="Helvetica,sans-Serif" font-size="10.00">System.Runtime.InteropServices.</text>
<text text-anchor="middle" x="722" y="-80.5" font-family="Helvetica,sans-Serif" font-size="10.00">ComTypes.ELEMDESC.DESCUNION</text>
</a>
</g>
</g>
<!-- Node3&#45;&gt;Node2 -->
<g id="edge2" class="edge"><title>Node3&#45;&gt;Node2</title>
<path fill="none" stroke="#9a32cd" stroke-dasharray="5,2" d="M822.473,-88.5C839.313,-88.5 856.6,-88.5 872.848,-88.5"/>
<polygon fill="#9a32cd" stroke="#9a32cd" points="822.059,-85.0001 812.059,-88.5 822.059,-92.0001 822.059,-85.0001"/>
<text text-anchor="middle" x="842.5" y="-91.5" font-family="Helvetica,sans-Serif" font-size="10.00"> desc</text>
</g>
<!-- Node4 -->
<g id="node4" class="node"><title>Node4</title>
<g id="a_node4"><a xlink:href="struct_system_1_1_runtime_1_1_interop_services_1_1_com_types_1_1_p_a_r_a_m_d_e_s_c.html" target="_top" xlink:title="Contains information about how to transfer a structure element, parameter, or function return value b...">
<polygon fill="none" stroke="black" points="274,-90.5 274,-120.5 435,-120.5 435,-90.5 274,-90.5"/>
<text text-anchor="start" x="282" y="-108.5" font-family="Helvetica,sans-Serif" font-size="10.00">System.Runtime.InteropServices.</text>
<text text-anchor="middle" x="354.5" y="-97.5" font-family="Helvetica,sans-Serif" font-size="10.00">ComTypes.PARAMDESC</text>
</a>
</g>
</g>
<!-- Node4&#45;&gt;Node3 -->
<g id="edge3" class="edge"><title>Node4&#45;&gt;Node3</title>
<path fill="none" stroke="#9a32cd" stroke-dasharray="5,2" d="M445.3,-101.323C502.066,-98.683 575.137,-95.2843 631.79,-92.6493"/>
<polygon fill="#9a32cd" stroke="#9a32cd" points="445.085,-97.8294 435.259,-101.79 445.411,-104.822 445.085,-97.8294"/>
<text text-anchor="middle" x="533.5" y="-104.5" font-family="Helvetica,sans-Serif" font-size="10.00"> paramdesc</text>
</g>
<!-- Node5 -->
<g id="node5" class="node"><title>Node5</title>
<g id="a_node5"><a xlink:href="struct_system_1_1_int_ptr.html" target="_top" xlink:title="A platform&#45;specific type that is used to represent a pointer or a handle.">
<polygon fill="none" stroke="black" points="106,-75 106,-94 183,-94 183,-75 106,-75"/>
<text text-anchor="middle" x="144.5" y="-82" font-family="Helvetica,sans-Serif" font-size="10.00">System.IntPtr</text>
</a>
</g>
</g>
<!-- Node5&#45;&gt;Node1 -->
<g id="edge11" class="edge"><title>Node5&#45;&gt;Node1</title>
<path fill="none" stroke="#9a32cd" stroke-dasharray="5,2" d="M172.354,-98.6541C211.199,-117.777 285.838,-149.5 353.5,-149.5 353.5,-149.5 353.5,-149.5 954.5,-149.5 1015.89,-149.5 1085.1,-143.427 1136.96,-137.663"/>
<polygon fill="#9a32cd" stroke="#9a32cd" points="173.783,-95.4548 163.276,-94.091 170.639,-101.709 173.783,-95.4548"/>
<text text-anchor="middle" x="722" y="-163.5" font-family="Helvetica,sans-Serif" font-size="10.00"> lprgscode</text>
<text text-anchor="middle" x="722" y="-152.5" font-family="Helvetica,sans-Serif" font-size="10.00">lprgelemdescParam</text>
</g>
<!-- Node5&#45;&gt;Node4 -->
<g id="edge4" class="edge"><title>Node5&#45;&gt;Node4</title>
<path fill="none" stroke="#9a32cd" stroke-dasharray="5,2" d="M193.368,-89.3328C217.237,-91.7427 246.739,-94.7212 273.89,-97.4625"/>
<polygon fill="#9a32cd" stroke="#9a32cd" points="193.468,-85.8252 183.167,-88.3029 192.765,-92.7898 193.468,-85.8252"/>
<text text-anchor="middle" x="228.5" y="-99.5" font-family="Helvetica,sans-Serif" font-size="10.00"> lpVarValue</text>
</g>
<!-- Node5&#45;&gt;Node5 -->
<g id="edge6" class="edge"><title>Node5&#45;&gt;Node5</title>
<path fill="none" stroke="#9a32cd" stroke-dasharray="5,2" d="M134.187,-104.266C134.997,-108.997 138.435,-112.5 144.5,-112.5 154.453,-112.5 157.33,-103.065 153.131,-94.2571"/>
<polygon fill="#9a32cd" stroke="#9a32cd" points="137.664,-104.699 135.869,-94.2571 130.76,-103.539 137.664,-104.699"/>
<text text-anchor="middle" x="144.5" y="-115.5" font-family="Helvetica,sans-Serif" font-size="10.00"> Zero</text>
</g>
<!-- Node7 -->
<g id="node7" class="node"><title>Node7</title>
<g id="a_node7"><a xlink:href="struct_system_1_1_runtime_1_1_interop_services_1_1_com_types_1_1_i_d_l_d_e_s_c.html" target="_top" xlink:title="Contains information needed for transferring a structure element, parameter, or function return value...">
<polygon fill="none" stroke="black" points="274,-41.5 274,-71.5 435,-71.5 435,-41.5 274,-41.5"/>
<text text-anchor="start" x="282" y="-59.5" font-family="Helvetica,sans-Serif" font-size="10.00">System.Runtime.InteropServices.</text>
<text text-anchor="middle" x="354.5" y="-48.5" font-family="Helvetica,sans-Serif" font-size="10.00">ComTypes.IDLDESC</text>
</a>
</g>
</g>
<!-- Node5&#45;&gt;Node7 -->
<g id="edge8" class="edge"><title>Node5&#45;&gt;Node7</title>
<path fill="none" stroke="#9a32cd" stroke-dasharray="5,2" d="M193.24,-76.6429C195.864,-76.2471 198.464,-75.8635 201,-75.5 224.637,-72.1121 250.387,-68.7708 273.882,-65.8576"/>
<polygon fill="#9a32cd" stroke="#9a32cd" points="192.435,-73.2257 183.088,-78.2127 193.505,-80.1435 192.435,-73.2257"/>
<text text-anchor="middle" x="228.5" y="-78.5" font-family="Helvetica,sans-Serif" font-size="10.00"> dwReserved</text>
</g>
<!-- Node8 -->
<g id="node8" class="node"><title>Node8</title>
<g id="a_node8"><a xlink:href="struct_system_1_1_runtime_1_1_interop_services_1_1_com_types_1_1_t_y_p_e_d_e_s_c.html" target="_top" xlink:title="Describes the type of a variable, return type of a function, or the type of a function parameter.">
<polygon fill="none" stroke="black" points="453,-0.5 453,-30.5 614,-30.5 614,-0.5 453,-0.5"/>
<text text-anchor="start" x="461" y="-18.5" font-family="Helvetica,sans-Serif" font-size="10.00">System.Runtime.InteropServices.</text>
<text text-anchor="middle" x="533.5" y="-7.5" font-family="Helvetica,sans-Serif" font-size="10.00">ComTypes.TYPEDESC</text>
</a>
</g>
</g>
<!-- Node5&#45;&gt;Node8 -->
<g id="edge10" class="edge"><title>Node5&#45;&gt;Node8</title>
<path fill="none" stroke="#9a32cd" stroke-dasharray="5,2" d="M169.215,-69.762C178.843,-64.1777 190.22,-58.0711 201,-53.5 282.065,-19.1256 383.732,-12.1744 452.958,-12.1995"/>
<polygon fill="#9a32cd" stroke="#9a32cd" points="167.402,-66.7682 160.597,-74.8888 170.981,-72.7842 167.402,-66.7682"/>
<text text-anchor="middle" x="228.5" y="-56.5" font-family="Helvetica,sans-Serif" font-size="10.00"> lpValue</text>
</g>
<!-- Node6 -->
<g id="node6" class="node"><title>Node6</title>
<g id="a_node6"><a xlink:href="interface_system_1_1_runtime_1_1_serialization_1_1_i_serializable.html" target="_top" xlink:title="Allows an object to control its own serialization and deserialization.">
<polygon fill="none" stroke="black" points="0,-75 0,-94 69,-94 69,-75 0,-75"/>
<text text-anchor="middle" x="34.5" y="-82" font-family="Helvetica,sans-Serif" font-size="10.00">ISerializable</text>
</a>
</g>
</g>
<!-- Node6&#45;&gt;Node5 -->
<g id="edge5" class="edge"><title>Node6&#45;&gt;Node5</title>
<path fill="none" stroke="midnightblue" d="M79.1953,-84.5C88.0115,-84.5 97.2082,-84.5 105.798,-84.5"/>
<polygon fill="midnightblue" stroke="midnightblue" points="79.0799,-81.0001 69.0799,-84.5 79.0798,-88.0001 79.0799,-81.0001"/>
</g>
<!-- Node7&#45;&gt;Node3 -->
<g id="edge7" class="edge"><title>Node7&#45;&gt;Node3</title>
<path fill="none" stroke="#9a32cd" stroke-dasharray="5,2" d="M445.3,-64.3621C502.066,-69.332 575.137,-75.7295 631.79,-80.6895"/>
<polygon fill="#9a32cd" stroke="#9a32cd" points="445.526,-60.8686 435.259,-63.483 444.915,-67.8419 445.526,-60.8686"/>
<text text-anchor="middle" x="533.5" y="-82.5" font-family="Helvetica,sans-Serif" font-size="10.00"> idldesc</text>
</g>
<!-- Node8&#45;&gt;Node2 -->
<g id="edge9" class="edge"><title>Node8&#45;&gt;Node2</title>
<path fill="none" stroke="#9a32cd" stroke-dasharray="5,2" d="M624.142,-24.7281C678.708,-31.0197 749.677,-40.4047 812,-52.5 841.292,-58.1849 873.571,-66.3204 899.795,-73.4198"/>
<polygon fill="#9a32cd" stroke="#9a32cd" points="624.482,-21.2443 614.15,-23.5894 623.689,-28.1993 624.482,-21.2443"/>
<text text-anchor="middle" x="722" y="-55.5" font-family="Helvetica,sans-Serif" font-size="10.00"> tdesc</text>
</g>
</g>
</svg>
