<?xml version="1.0" encoding="UTF-8" standalone="no"?>
<!DOCTYPE svg PUBLIC "-//W3C//DTD SVG 1.1//EN"
 "http://www.w3.org/Graphics/SVG/1.1/DTD/svg11.dtd">
<!-- Generated by graphviz version 2.38.0 (20140413.2041)
 -->
<!-- Title: System.Threading.ExecutionContextSwitcher Pages: 1 -->
<!--zoomable 435 -->
<svg id="main" version="1.1" xmlns="http://www.w3.org/2000/svg" xmlns:xlink="http://www.w3.org/1999/xlink" xml:space="preserve" onload="init(evt)">
<style type="text/css"><![CDATA[
.edge:hover path { stroke: red; }
.edge:hover polygon { stroke: red; fill: red; }
]]></style>
<script type="text/javascript"><![CDATA[
var edges = document.getElementsByTagName('g');
if (edges && edges.length) {
  for (var i=0;i<edges.length;i++) {
    if (edges[i].id.substr(0,4)=='edge') {
      edges[i].setAttribute('class','edge');
    }
  }
}
]]></script>
        <defs>
                <circle id="rim" cx="0" cy="0" r="7"/>
                <circle id="rim2" cx="0" cy="0" r="3.5"/>
                <g id="zoomPlus">
                        <use xlink:href="#rim" fill="#404040">
                                <set attributeName="fill" to="#808080" begin="zoomplus.mouseover" end="zoomplus.mouseout"/>
                        </use>
                        <path d="M-4,0h8M0,-4v8" fill="none" stroke="white" stroke-width="1.5" pointer-events="none"/>
                </g>
                <g id="zoomMin">
                        <use xlink:href="#rim" fill="#404040">
                                <set attributeName="fill" to="#808080" begin="zoomminus.mouseover" end="zoomminus.mouseout"/>
                        </use>
                        <path d="M-4,0h8" fill="none" stroke="white" stroke-width="1.5" pointer-events="none"/>
                </g>
                <g id="dirArrow">
                        <path fill="none" stroke="white" stroke-width="1.5" d="M0,-3.0v7 M-2.5,-0.5L0,-3.0L2.5,-0.5"/>
                </g>
               <g id="resetDef">
                       <use xlink:href="#rim2" fill="#404040">
                               <set attributeName="fill" to="#808080" begin="reset.mouseover" end="reset.mouseout"/>
                       </use>
               </g>
        </defs>

<script type="text/javascript">
var viewWidth = 928;
var viewHeight = 435;
var sectionId = 'dynsection-0';
</script>
<script xlink:href="svgpan.js"/>
<svg id="graph" class="graph">
<g id="viewport">
<title>System.Threading.ExecutionContextSwitcher</title>
<!-- Node1 -->
<g id="node1" class="node"><title>Node1</title>
<g id="a_node1"><a xlink:title=" ">
<polygon fill="#bfbfbf" stroke="black" points="778,-252 778,-282 920,-282 920,-252 778,-252"/>
<text text-anchor="start" x="786" y="-270" font-family="Helvetica,sans-Serif" font-size="10.00">System.Threading.Execution</text>
<text text-anchor="middle" x="849" y="-259" font-family="Helvetica,sans-Serif" font-size="10.00">ContextSwitcher</text>
</a>
</g>
</g>
<!-- Node2 -->
<g id="node2" class="node"><title>Node2</title>
<g id="a_node2"><a xlink:href="class_system_1_1_security_1_1_principal_1_1_windows_identity.html" target="_top" xlink:title="Represents a Windows user.">
<polygon fill="none" stroke="black" points="370,-326 370,-356 503,-356 503,-326 370,-326"/>
<text text-anchor="start" x="378" y="-344" font-family="Helvetica,sans-Serif" font-size="10.00">System.Security.Principal.</text>
<text text-anchor="middle" x="436.5" y="-333" font-family="Helvetica,sans-Serif" font-size="10.00">WindowsIdentity</text>
</a>
</g>
</g>
<!-- Node2&#45;&gt;Node1 -->
<g id="edge1" class="edge"><title>Node2&#45;&gt;Node1</title>
<path fill="none" stroke="#9a32cd" stroke-dasharray="5,2" d="M513.353,-329.025C578.815,-318.46 675.833,-302.255 760,-286 766.445,-284.755 773.145,-283.407 779.841,-282.024"/>
<polygon fill="#9a32cd" stroke="#9a32cd" points="512.442,-325.626 503.125,-330.671 513.554,-332.537 512.442,-325.626"/>
<text text-anchor="middle" x="647" y="-321" font-family="Helvetica,sans-Serif" font-size="10.00"> wi</text>
</g>
<!-- Node3 -->
<g id="node3" class="node"><title>Node3</title>
<g id="a_node3"><a xlink:href="class_system_1_1_security_1_1_claims_1_1_claims_identity.html" target="_top" xlink:title="Represents a claims&#45;based identity.">
<polygon fill="none" stroke="black" points="143.5,-407.5 143.5,-426.5 221.5,-426.5 221.5,-407.5 143.5,-407.5"/>
<text text-anchor="middle" x="182.5" y="-414.5" font-family="Helvetica,sans-Serif" font-size="10.00">ClaimsIdentity</text>
</a>
</g>
</g>
<!-- Node3&#45;&gt;Node2 -->
<g id="edge2" class="edge"><title>Node3&#45;&gt;Node2</title>
<path fill="none" stroke="midnightblue" d="M231.538,-414.199C263.526,-411.258 306.112,-405.249 342,-393 368.016,-384.12 395.201,-368.128 413.509,-356.215"/>
<polygon fill="midnightblue" stroke="midnightblue" points="231.214,-410.714 221.547,-415.051 231.808,-417.689 231.214,-410.714"/>
</g>
<!-- Node4 -->
<g id="node4" class="node"><title>Node4</title>
<g id="a_node4"><a xlink:href="interface_system_1_1_security_1_1_principal_1_1_i_identity.html" target="_top" xlink:title="Defines the basic functionality of an identity object.">
<polygon fill="none" stroke="black" points="9.5,-407.5 9.5,-426.5 59.5,-426.5 59.5,-407.5 9.5,-407.5"/>
<text text-anchor="middle" x="34.5" y="-414.5" font-family="Helvetica,sans-Serif" font-size="10.00">IIdentity</text>
</a>
</g>
</g>
<!-- Node4&#45;&gt;Node3 -->
<g id="edge3" class="edge"><title>Node4&#45;&gt;Node3</title>
<path fill="none" stroke="midnightblue" d="M69.8516,-417C91.9106,-417 120.586,-417 143.352,-417"/>
<polygon fill="midnightblue" stroke="midnightblue" points="69.609,-413.5 59.6089,-417 69.6089,-420.5 69.609,-413.5"/>
</g>
<!-- Node5 -->
<g id="node5" class="node"><title>Node5</title>
<g id="a_node5"><a xlink:href="interface_system_1_1_runtime_1_1_serialization_1_1_i_serializable.html" target="_top" xlink:title="Allows an object to control its own serialization and deserialization.">
<polygon fill="none" stroke="black" points="0,-260.5 0,-279.5 69,-279.5 69,-260.5 0,-260.5"/>
<text text-anchor="middle" x="34.5" y="-267.5" font-family="Helvetica,sans-Serif" font-size="10.00">ISerializable</text>
</a>
</g>
</g>
<!-- Node5&#45;&gt;Node2 -->
<g id="edge4" class="edge"><title>Node5&#45;&gt;Node2</title>
<path fill="none" stroke="midnightblue" d="M43.9045,-288.952C54.7271,-310.713 75.8059,-345.297 106,-360 200.147,-405.844 327.792,-376.553 393.131,-356.037"/>
<polygon fill="midnightblue" stroke="midnightblue" points="46.9741,-287.255 39.5389,-279.707 40.6444,-290.244 46.9741,-287.255"/>
</g>
<!-- Node8 -->
<g id="node8" class="node"><title>Node8</title>
<g id="a_node8"><a xlink:href="class_system_1_1_threading_1_1_execution_context.html" target="_top" xlink:title="Manages the execution context for the current thread. This class cannot be inherited.">
<polygon fill="none" stroke="black" points="365.5,-270 365.5,-300 507.5,-300 507.5,-270 365.5,-270"/>
<text text-anchor="start" x="373.5" y="-288" font-family="Helvetica,sans-Serif" font-size="10.00">System.Threading.Execution</text>
<text text-anchor="middle" x="436.5" y="-277" font-family="Helvetica,sans-Serif" font-size="10.00">Context</text>
</a>
</g>
</g>
<!-- Node5&#45;&gt;Node8 -->
<g id="edge9" class="edge"><title>Node5&#45;&gt;Node8</title>
<path fill="none" stroke="midnightblue" d="M79.3403,-271.644C148.262,-274.229 282.593,-279.266 365.143,-282.362"/>
<polygon fill="midnightblue" stroke="midnightblue" points="79.3832,-268.143 69.259,-271.266 79.1208,-275.138 79.3832,-268.143"/>
</g>
<!-- Node12 -->
<g id="node12" class="node"><title>Node12</title>
<g id="a_node12"><a xlink:href="struct_system_1_1_int_ptr.html" target="_top" xlink:title="A platform&#45;specific type that is used to represent a pointer or a handle.">
<polygon fill="none" stroke="black" points="144,-136.5 144,-155.5 221,-155.5 221,-136.5 144,-136.5"/>
<text text-anchor="middle" x="182.5" y="-143.5" font-family="Helvetica,sans-Serif" font-size="10.00">System.IntPtr</text>
</a>
</g>
</g>
<!-- Node5&#45;&gt;Node12 -->
<g id="edge18" class="edge"><title>Node5&#45;&gt;Node12</title>
<path fill="none" stroke="midnightblue" d="M51.0696,-253.068C64.9071,-238.387 85.9874,-216.903 106,-200 125.945,-183.155 150.881,-166.005 166.504,-155.682"/>
<polygon fill="midnightblue" stroke="midnightblue" points="48.4432,-250.752 44.1799,-260.452 53.5612,-255.528 48.4432,-250.752"/>
</g>
<!-- Node13 -->
<g id="node13" class="node"><title>Node13</title>
<g id="a_node13"><a xlink:href="class_system_1_1_threading_1_1_compressed_stack.html" target="_top" xlink:title="Provides methods for setting and capturing the compressed stack on the current thread....">
<polygon fill="none" stroke="black" points="106,-76 106,-106 259,-106 259,-76 106,-76"/>
<text text-anchor="start" x="114" y="-94" font-family="Helvetica,sans-Serif" font-size="10.00">System.Threading.Compressed</text>
<text text-anchor="middle" x="182.5" y="-83" font-family="Helvetica,sans-Serif" font-size="10.00">Stack</text>
</a>
</g>
</g>
<!-- Node5&#45;&gt;Node13 -->
<g id="edge21" class="edge"><title>Node5&#45;&gt;Node13</title>
<path fill="none" stroke="midnightblue" d="M40.5668,-250.658C49.3087,-220.662 69.8563,-162.673 106,-127 114.785,-118.329 126.06,-111.448 137.202,-106.123"/>
<polygon fill="midnightblue" stroke="midnightblue" points="37.179,-249.778 37.8733,-260.35 43.9233,-251.652 37.179,-249.778"/>
</g>
<!-- Node6 -->
<g id="node6" class="node"><title>Node6</title>
<g id="a_node6"><a xlink:href="interface_system_1_1_runtime_1_1_serialization_1_1_i_deserialization_callback.html" target="_top" xlink:title="Indicates that a class is to be notified when deserialization of the entire object graph has been com...">
<polygon fill="none" stroke="black" points="122.5,-331.5 122.5,-350.5 242.5,-350.5 242.5,-331.5 122.5,-331.5"/>
<text text-anchor="middle" x="182.5" y="-338.5" font-family="Helvetica,sans-Serif" font-size="10.00">IDeserializationCallback</text>
</a>
</g>
</g>
<!-- Node6&#45;&gt;Node2 -->
<g id="edge5" class="edge"><title>Node6&#45;&gt;Node2</title>
<path fill="none" stroke="midnightblue" d="M252.65,-341C289.151,-341 333.704,-341 369.694,-341"/>
<polygon fill="midnightblue" stroke="midnightblue" points="252.583,-337.5 242.583,-341 252.583,-344.5 252.583,-337.5"/>
</g>
<!-- Node7 -->
<g id="node7" class="node"><title>Node7</title>
<g id="a_node7"><a xlink:href="interface_system_1_1_i_disposable.html" target="_top" xlink:title="Provides a mechanism for releasing unmanaged resources.To browse the .NET Framework source code for t...">
<polygon fill="none" stroke="black" points="149,-209.5 149,-228.5 216,-228.5 216,-209.5 149,-209.5"/>
<text text-anchor="middle" x="182.5" y="-216.5" font-family="Helvetica,sans-Serif" font-size="10.00">IDisposable</text>
</a>
</g>
</g>
<!-- Node7&#45;&gt;Node2 -->
<g id="edge6" class="edge"><title>Node7&#45;&gt;Node2</title>
<path fill="none" stroke="midnightblue" d="M210.265,-233.395C244.596,-251.686 306.142,-283.893 360,-309 372.387,-314.774 386.101,-320.718 398.405,-325.892"/>
<polygon fill="midnightblue" stroke="midnightblue" points="211.803,-230.248 201.333,-228.623 208.504,-236.423 211.803,-230.248"/>
</g>
<!-- Node7&#45;&gt;Node8 -->
<g id="edge8" class="edge"><title>Node7&#45;&gt;Node8</title>
<path fill="none" stroke="midnightblue" d="M226.026,-230.138C267.722,-241.058 331.589,-257.785 377.841,-269.899"/>
<polygon fill="midnightblue" stroke="midnightblue" points="226.747,-226.709 216.186,-227.561 224.973,-233.48 226.747,-226.709"/>
</g>
<!-- Node9 -->
<g id="node9" class="node"><title>Node9</title>
<g id="a_node9"><a xlink:href="struct_system_1_1_security_1_1_security_context_switcher.html" target="_top" xlink:title=" ">
<polygon fill="none" stroke="black" points="583,-201 583,-231 711,-231 711,-201 583,-201"/>
<text text-anchor="start" x="591" y="-219" font-family="Helvetica,sans-Serif" font-size="10.00">System.Security.Security</text>
<text text-anchor="middle" x="647" y="-208" font-family="Helvetica,sans-Serif" font-size="10.00">ContextSwitcher</text>
</a>
</g>
</g>
<!-- Node7&#45;&gt;Node9 -->
<g id="edge11" class="edge"><title>Node7&#45;&gt;Node9</title>
<path fill="none" stroke="midnightblue" d="M226.443,-219.876C297.074,-221.145 442.19,-223.031 565,-220 570.771,-219.858 576.771,-219.658 582.779,-219.424"/>
<polygon fill="midnightblue" stroke="midnightblue" points="226.23,-216.371 216.167,-219.686 226.101,-223.37 226.23,-216.371"/>
</g>
<!-- Node10 -->
<g id="node10" class="node"><title>Node10</title>
<g id="a_node10"><a xlink:href="class_system_1_1_security_1_1_principal_1_1_windows_impersonation_context.html" target="_top" xlink:title="Represents the Windows user prior to an impersonation operation.">
<polygon fill="none" stroke="black" points="361,-175 361,-205 512,-205 512,-175 361,-175"/>
<text text-anchor="start" x="369" y="-193" font-family="Helvetica,sans-Serif" font-size="10.00">System.Security.Principal.</text>
<text text-anchor="middle" x="436.5" y="-182" font-family="Helvetica,sans-Serif" font-size="10.00">WindowsImpersonationContext</text>
</a>
</g>
</g>
<!-- Node7&#45;&gt;Node10 -->
<g id="edge13" class="edge"><title>Node7&#45;&gt;Node10</title>
<path fill="none" stroke="midnightblue" d="M226.551,-214.046C263.31,-209.816 317.02,-203.635 360.78,-198.599"/>
<polygon fill="midnightblue" stroke="midnightblue" points="225.721,-210.618 216.186,-215.238 226.521,-217.572 225.721,-210.618"/>
</g>
<!-- Node11 -->
<g id="node11" class="node"><title>Node11</title>
<g id="a_node11"><a xlink:href="struct_system_1_1_threading_1_1_compressed_stack_switcher.html" target="_top" xlink:title=" ">
<polygon fill="none" stroke="black" points="360,-77 360,-107 513,-107 513,-77 360,-77"/>
<text text-anchor="start" x="368" y="-95" font-family="Helvetica,sans-Serif" font-size="10.00">System.Threading.Compressed</text>
<text text-anchor="middle" x="436.5" y="-84" font-family="Helvetica,sans-Serif" font-size="10.00">StackSwitcher</text>
</a>
</g>
</g>
<!-- Node7&#45;&gt;Node11 -->
<g id="edge16" class="edge"><title>Node7&#45;&gt;Node11</title>
<path fill="none" stroke="midnightblue" d="M226.165,-209.822C237.506,-206.104 249.29,-200.984 259,-194 269.824,-186.215 266.578,-178.316 277,-170 301.727,-150.27 317.467,-160.97 342,-141 352.618,-132.357 348.915,-124.036 360,-116 364.677,-112.609 369.851,-109.685 375.234,-107.166"/>
<polygon fill="midnightblue" stroke="midnightblue" points="224.958,-206.529 216.374,-212.74 226.958,-213.238 224.958,-206.529"/>
</g>
<!-- Node14 -->
<g id="node14" class="node"><title>Node14</title>
<g id="a_node14"><a xlink:href="class_system_1_1_security_1_1_security_context.html" target="_top" xlink:title="Encapsulates and propagates all security&#45;related data for execution contexts transferred across threa...">
<polygon fill="none" stroke="black" points="372.5,-126 372.5,-156 500.5,-156 500.5,-126 372.5,-126"/>
<text text-anchor="start" x="380.5" y="-144" font-family="Helvetica,sans-Serif" font-size="10.00">System.Security.Security</text>
<text text-anchor="middle" x="436.5" y="-133" font-family="Helvetica,sans-Serif" font-size="10.00">Context</text>
</a>
</g>
</g>
<!-- Node7&#45;&gt;Node14 -->
<g id="edge23" class="edge"><title>Node7&#45;&gt;Node14</title>
<path fill="none" stroke="midnightblue" d="M223.967,-206.474C268.249,-192.768 339.227,-170.799 386.594,-156.137"/>
<polygon fill="midnightblue" stroke="midnightblue" points="222.918,-203.135 214.4,-209.436 224.988,-209.822 222.918,-203.135"/>
</g>
<!-- Node8&#45;&gt;Node1 -->
<g id="edge7" class="edge"><title>Node8&#45;&gt;Node1</title>
<path fill="none" stroke="#9a32cd" stroke-dasharray="5,2" d="M518.027,-281.469C593.685,-278.151 705.762,-273.237 777.845,-270.076"/>
<polygon fill="#9a32cd" stroke="#9a32cd" points="517.438,-277.991 507.601,-281.926 517.745,-284.985 517.438,-277.991"/>
<text text-anchor="middle" x="647" y="-282" font-family="Helvetica,sans-Serif" font-size="10.00"> outerEC</text>
</g>
<!-- Node8&#45;&gt;Node9 -->
<g id="edge14" class="edge"><title>Node8&#45;&gt;Node9</title>
<path fill="none" stroke="#9a32cd" stroke-dasharray="5,2" d="M496.675,-266.973C518.242,-260.261 542.781,-252.459 565,-245 578.027,-240.626 592.152,-235.651 604.904,-231.071"/>
<polygon fill="#9a32cd" stroke="#9a32cd" points="495.509,-263.67 486.994,-269.975 497.582,-270.356 495.509,-263.67"/>
<text text-anchor="middle" x="548" y="-259" font-family="Helvetica,sans-Serif" font-size="10.00"> currEC</text>
</g>
<!-- Node9&#45;&gt;Node1 -->
<g id="edge10" class="edge"><title>Node9&#45;&gt;Node1</title>
<path fill="none" stroke="#9a32cd" stroke-dasharray="5,2" d="M716.838,-233.554C740.377,-239.556 766.474,-246.211 789.151,-251.994"/>
<polygon fill="#9a32cd" stroke="#9a32cd" points="717.48,-230.105 706.925,-231.026 715.75,-236.888 717.48,-230.105"/>
<text text-anchor="middle" x="744.5" y="-248" font-family="Helvetica,sans-Serif" font-size="10.00"> scsw</text>
</g>
<!-- Node10&#45;&gt;Node9 -->
<g id="edge12" class="edge"><title>Node10&#45;&gt;Node9</title>
<path fill="none" stroke="#9a32cd" stroke-dasharray="5,2" d="M522.333,-200.579C542.558,-203.101 563.794,-205.749 582.849,-208.125"/>
<polygon fill="#9a32cd" stroke="#9a32cd" points="522.541,-197.078 512.184,-199.313 521.674,-204.024 522.541,-197.078"/>
<text text-anchor="middle" x="548" y="-209" font-family="Helvetica,sans-Serif" font-size="10.00"> wic</text>
</g>
<!-- Node11&#45;&gt;Node9 -->
<g id="edge15" class="edge"><title>Node11&#45;&gt;Node9</title>
<path fill="none" stroke="#9a32cd" stroke-dasharray="5,2" d="M501.326,-110.774C505.328,-112.415 509.25,-114.158 513,-116 559.672,-138.93 606.464,-179.053 630.134,-200.855"/>
<polygon fill="#9a32cd" stroke="#9a32cd" points="502.477,-107.467 491.888,-107.13 499.956,-113.997 502.477,-107.467"/>
<text text-anchor="middle" x="548" y="-150" font-family="Helvetica,sans-Serif" font-size="10.00"> cssw</text>
</g>
<!-- Node12&#45;&gt;Node11 -->
<g id="edge17" class="edge"><title>Node12&#45;&gt;Node11</title>
<path fill="none" stroke="#9a32cd" stroke-dasharray="5,2" d="M231.469,-135.721C269.315,-127.611 322.652,-116.182 365.301,-107.043"/>
<polygon fill="#9a32cd" stroke="#9a32cd" points="230.272,-132.398 221.227,-137.916 231.738,-139.243 230.272,-132.398"/>
<text text-anchor="middle" x="309.5" y="-129" font-family="Helvetica,sans-Serif" font-size="10.00"> prev_ADStack</text>
</g>
<!-- Node12&#45;&gt;Node12 -->
<g id="edge19" class="edge"><title>Node12&#45;&gt;Node12</title>
<path fill="none" stroke="#9a32cd" stroke-dasharray="5,2" d="M165.093,-165.4C166.256,-170.315 172.058,-174 182.5,-174 199.207,-174 204.036,-164.565 196.988,-155.757"/>
<polygon fill="#9a32cd" stroke="#9a32cd" points="168.465,-166.342 168.012,-155.757 161.765,-164.314 168.465,-166.342"/>
<text text-anchor="middle" x="182.5" y="-177" font-family="Helvetica,sans-Serif" font-size="10.00"> Zero</text>
</g>
<!-- Node13&#45;&gt;Node11 -->
<g id="edge20" class="edge"><title>Node13&#45;&gt;Node11</title>
<path fill="none" stroke="#9a32cd" stroke-dasharray="5,2" d="M269.219,-86.2351C271.842,-86.1473 274.441,-86.0684 277,-86 305.879,-85.2284 313.126,-85.0745 342,-86 347.853,-86.1876 353.908,-86.4411 359.994,-86.7382"/>
<polygon fill="#9a32cd" stroke="#9a32cd" points="268.875,-82.7454 259.012,-86.6151 269.135,-89.7406 268.875,-82.7454"/>
<text text-anchor="middle" x="309.5" y="-100" font-family="Helvetica,sans-Serif" font-size="10.00"> prev_CS</text>
<text text-anchor="middle" x="309.5" y="-89" font-family="Helvetica,sans-Serif" font-size="10.00">curr_CS</text>
</g>
<!-- Node14&#45;&gt;Node9 -->
<g id="edge22" class="edge"><title>Node14&#45;&gt;Node9</title>
<path fill="none" stroke="#9a32cd" stroke-dasharray="5,2" d="M508.693,-158.746C527.233,-164.006 547.04,-170.2 565,-177 582.954,-183.798 602.354,-193.067 617.666,-200.863"/>
<polygon fill="#9a32cd" stroke="#9a32cd" points="509.411,-155.313 498.839,-156.003 507.534,-162.056 509.411,-155.313"/>
<text text-anchor="middle" x="548" y="-191" font-family="Helvetica,sans-Serif" font-size="10.00"> currSC</text>
<text text-anchor="middle" x="548" y="-180" font-family="Helvetica,sans-Serif" font-size="10.00">prevSC</text>
</g>
<!-- Node15 -->
<g id="node15" class="node"><title>Node15</title>
<g id="a_node15"><a xlink:href="class_system_1_1_threading_1_1_thread.html" target="_top" xlink:title="Creates and controls a thread, sets its priority, and gets its status.">
<polygon fill="none" stroke="black" points="583,-38.5 583,-57.5 711,-57.5 711,-38.5 583,-38.5"/>
<text text-anchor="middle" x="647" y="-45.5" font-family="Helvetica,sans-Serif" font-size="10.00">System.Threading.Thread</text>
</a>
</g>
</g>
<!-- Node15&#45;&gt;Node1 -->
<g id="edge24" class="edge"><title>Node15&#45;&gt;Node1</title>
<path fill="none" stroke="#9a32cd" stroke-dasharray="5,2" d="M663.63,-65.1146C701.608,-106.701 798.257,-212.532 834.232,-251.924"/>
<polygon fill="#9a32cd" stroke="#9a32cd" points="666.18,-62.7167 656.852,-57.6927 661.011,-67.4371 666.18,-62.7167"/>
<text text-anchor="middle" x="744.5" y="-174" font-family="Helvetica,sans-Serif" font-size="10.00"> thread</text>
</g>
<!-- Node16 -->
<g id="node16" class="node"><title>Node16</title>
<g id="a_node16"><a xlink:href="class_system_1_1_runtime_1_1_constrained_execution_1_1_critical_finalizer_object.html" target="_top" xlink:title="Ensures that all finalization code in derived classes is marked as critical.">
<polygon fill="none" stroke="black" points="380.5,-0.5 380.5,-19.5 492.5,-19.5 492.5,-0.5 380.5,-0.5"/>
<text text-anchor="middle" x="436.5" y="-7.5" font-family="Helvetica,sans-Serif" font-size="10.00">CriticalFinalizerObject</text>
</a>
</g>
</g>
<!-- Node16&#45;&gt;Node15 -->
<g id="edge25" class="edge"><title>Node16&#45;&gt;Node15</title>
<path fill="none" stroke="midnightblue" d="M499.759,-21.347C529.674,-26.7991 565.128,-33.2607 593.634,-38.4561"/>
<polygon fill="midnightblue" stroke="midnightblue" points="500.31,-17.8898 489.844,-19.54 499.055,-24.7763 500.31,-17.8898"/>
</g>
<!-- Node17 -->
<g id="node17" class="node"><title>Node17</title>
<g id="a_node17"><a xlink:href="interface_system_1_1_runtime_1_1_interop_services_1_1___thread.html" target="_top" xlink:title="Exposes the T:System.Threading.Thread class to unmanaged code.">
<polygon fill="none" stroke="black" points="411,-38.5 411,-57.5 462,-57.5 462,-38.5 411,-38.5"/>
<text text-anchor="middle" x="436.5" y="-45.5" font-family="Helvetica,sans-Serif" font-size="10.00">_Thread</text>
</a>
</g>
</g>
<!-- Node17&#45;&gt;Node15 -->
<g id="edge26" class="edge"><title>Node17&#45;&gt;Node15</title>
<path fill="none" stroke="midnightblue" d="M472.253,-48C502.345,-48 546.626,-48 582.953,-48"/>
<polygon fill="midnightblue" stroke="midnightblue" points="472.236,-44.5001 462.236,-48 472.236,-51.5001 472.236,-44.5001"/>
</g>
</g>
</svg>
        <g id="navigator" transform="translate(0 0)" fill="#404254">
                <rect fill="#f2f5e9" fill-opacity="0.5" stroke="#606060" stroke-width=".5" x="0" y="0" width="60" height="60"/>
                <use id="zoomplus" xlink:href="#zoomPlus" x="17" y="9" onmousedown="handleZoom(evt,'in')"/>
                <use id="zoomminus" xlink:href="#zoomMin" x="42" y="9" onmousedown="handleZoom(evt,'out')"/>
                <use id="reset" xlink:href="#resetDef" x="30" y="36" onmousedown="handleReset()"/>
                <g id="arrowUp" xlink:href="#dirArrow" transform="translate(30 24)" onmousedown="handlePan(0,-1)">
                  <use xlink:href="#rim" fill="#404040">
                        <set attributeName="fill" to="#808080" begin="arrowUp.mouseover" end="arrowUp.mouseout"/>
                  </use>
                  <path fill="none" stroke="white" stroke-width="1.5" d="M0,-3.0v7 M-2.5,-0.5L0,-3.0L2.5,-0.5"/>
                </g>
                <g id="arrowRight" xlink:href="#dirArrow" transform="rotate(90) translate(36 -43)" onmousedown="handlePan(1,0)">
                  <use xlink:href="#rim" fill="#404040">
                        <set attributeName="fill" to="#808080" begin="arrowRight.mouseover" end="arrowRight.mouseout"/>
                  </use>
                  <path fill="none" stroke="white" stroke-width="1.5" d="M0,-3.0v7 M-2.5,-0.5L0,-3.0L2.5,-0.5"/>
                </g>
                <g id="arrowDown" xlink:href="#dirArrow" transform="rotate(180) translate(-30 -48)" onmousedown="handlePan(0,1)">
                  <use xlink:href="#rim" fill="#404040">
                        <set attributeName="fill" to="#808080" begin="arrowDown.mouseover" end="arrowDown.mouseout"/>
                  </use>
                  <path fill="none" stroke="white" stroke-width="1.5" d="M0,-3.0v7 M-2.5,-0.5L0,-3.0L2.5,-0.5"/>
                </g>
                <g id="arrowLeft" xlink:href="#dirArrow" transform="rotate(270) translate(-36 17)" onmousedown="handlePan(-1,0)">
                  <use xlink:href="#rim" fill="#404040">
                        <set attributeName="fill" to="#808080" begin="arrowLeft.mouseover" end="arrowLeft.mouseout"/>
                  </use>
                  <path fill="none" stroke="white" stroke-width="1.5" d="M0,-3.0v7 M-2.5,-0.5L0,-3.0L2.5,-0.5"/>
                </g>
        </g>
        <svg viewBox="0 0 15 15" width="100%" height="30px" preserveAspectRatio="xMaxYMin meet">
         <g id="arrow_out" transform="scale(0.3 0.3)">
          <a xlink:href="struct_system_1_1_threading_1_1_execution_context_switcher__coll__graph_org.svg" target="_base">
           <rect id="button" ry="5" rx="5" y="6" x="6" height="38" width="38"
                fill="#f2f5e9" fill-opacity="0.5" stroke="#606060" stroke-width="1.0"/>
           <path id="arrow"
             d="M 11.500037,31.436501 C 11.940474,20.09759 22.043105,11.32322 32.158766,21.979434 L 37.068811,17.246167 C 37.068811,17.246167 37.088388,32 37.088388,32 L 22.160133,31.978069 C 22.160133,31.978069 26.997745,27.140456 26.997745,27.140456 C 18.528582,18.264221 13.291696,25.230495 11.500037,31.436501 z"
             style="fill:#404040;"/>
          </a>
         </g>
        </svg>
</svg>
