<?xml version="1.0" encoding="UTF-8" standalone="no"?>
<!DOCTYPE svg PUBLIC "-//W3C//DTD SVG 1.1//EN"
 "http://www.w3.org/Graphics/SVG/1.1/DTD/svg11.dtd">
<!-- Generated by graphviz version 2.38.0 (20140413.2041)
 -->
<!-- Title: System.Runtime.InteropServices.TYPEATTR Pages: 1 -->
<!--zoomable 204 -->
<svg id="main" version="1.1" xmlns="http://www.w3.org/2000/svg" xmlns:xlink="http://www.w3.org/1999/xlink" xml:space="preserve" onload="init(evt)">
<style type="text/css"><![CDATA[
.edge:hover path { stroke: red; }
.edge:hover polygon { stroke: red; fill: red; }
]]></style>
<script type="text/javascript"><![CDATA[
var edges = document.getElementsByTagName('g');
if (edges && edges.length) {
  for (var i=0;i<edges.length;i++) {
    if (edges[i].id.substr(0,4)=='edge') {
      edges[i].setAttribute('class','edge');
    }
  }
}
]]></script>
        <defs>
                <circle id="rim" cx="0" cy="0" r="7"/>
                <circle id="rim2" cx="0" cy="0" r="3.5"/>
                <g id="zoomPlus">
                        <use xlink:href="#rim" fill="#404040">
                                <set attributeName="fill" to="#808080" begin="zoomplus.mouseover" end="zoomplus.mouseout"/>
                        </use>
                        <path d="M-4,0h8M0,-4v8" fill="none" stroke="white" stroke-width="1.5" pointer-events="none"/>
                </g>
                <g id="zoomMin">
                        <use xlink:href="#rim" fill="#404040">
                                <set attributeName="fill" to="#808080" begin="zoomminus.mouseover" end="zoomminus.mouseout"/>
                        </use>
                        <path d="M-4,0h8" fill="none" stroke="white" stroke-width="1.5" pointer-events="none"/>
                </g>
                <g id="dirArrow">
                        <path fill="none" stroke="white" stroke-width="1.5" d="M0,-3.0v7 M-2.5,-0.5L0,-3.0L2.5,-0.5"/>
                </g>
               <g id="resetDef">
                       <use xlink:href="#rim2" fill="#404040">
                               <set attributeName="fill" to="#808080" begin="reset.mouseover" end="reset.mouseout"/>
                       </use>
               </g>
        </defs>

<script type="text/javascript">
var viewWidth = 570;
var viewHeight = 204;
var sectionId = 'dynsection-0';
</script>
<script xlink:href="svgpan.js"/>
<svg id="graph" class="graph">
<g id="viewport">
<title>System.Runtime.InteropServices.TYPEATTR</title>
<!-- Node1 -->
<g id="node1" class="node"><title>Node1</title>
<g id="a_node1"><a xlink:title="Use T:System.Runtime.InteropServices.ComTypes.TYPEATTR instead.">
<polygon fill="#bfbfbf" stroke="black" points="401,-100 401,-130 562,-130 562,-100 401,-100"/>
<text text-anchor="start" x="409" y="-118" font-family="Helvetica,sans-Serif" font-size="10.00">System.Runtime.InteropServices.</text>
<text text-anchor="middle" x="481.5" y="-107" font-family="Helvetica,sans-Serif" font-size="10.00">TYPEATTR</text>
</a>
</g>
</g>
<!-- Node2 -->
<g id="node2" class="node"><title>Node2</title>
<g id="a_node2"><a xlink:href="struct_system_1_1_runtime_1_1_interop_services_1_1_i_d_l_d_e_s_c.html" target="_top" xlink:title="Use T:System.Runtime.InteropServices.ComTypes.IDLDESC instead.">
<polygon fill="none" stroke="black" points="149,-165 149,-195 310,-195 310,-165 149,-165"/>
<text text-anchor="start" x="157" y="-183" font-family="Helvetica,sans-Serif" font-size="10.00">System.Runtime.InteropServices.</text>
<text text-anchor="middle" x="229.5" y="-172" font-family="Helvetica,sans-Serif" font-size="10.00">IDLDESC</text>
</a>
</g>
</g>
<!-- Node2&#45;&gt;Node1 -->
<g id="edge1" class="edge"><title>Node2&#45;&gt;Node1</title>
<path fill="none" stroke="#9a32cd" stroke-dasharray="5,2" d="M320.21,-163.865C340.956,-159.554 362.85,-154.534 383,-149 402.361,-143.683 423.443,-136.51 441.035,-130.123"/>
<polygon fill="#9a32cd" stroke="#9a32cd" points="319.228,-160.493 310.131,-165.924 320.629,-167.352 319.228,-160.493"/>
<text text-anchor="middle" x="355.5" y="-165" font-family="Helvetica,sans-Serif" font-size="10.00"> idldescType</text>
</g>
<!-- Node3 -->
<g id="node3" class="node"><title>Node3</title>
<g id="a_node3"><a xlink:href="struct_system_1_1_runtime_1_1_interop_services_1_1_t_y_p_e_d_e_s_c.html" target="_top" xlink:title="Use T:System.Runtime.InteropServices.ComTypes.TYPEDESC instead.">
<polygon fill="none" stroke="black" points="149,-68 149,-98 310,-98 310,-68 149,-68"/>
<text text-anchor="start" x="157" y="-86" font-family="Helvetica,sans-Serif" font-size="10.00">System.Runtime.InteropServices.</text>
<text text-anchor="middle" x="229.5" y="-75" font-family="Helvetica,sans-Serif" font-size="10.00">TYPEDESC</text>
</a>
</g>
</g>
<!-- Node3&#45;&gt;Node1 -->
<g id="edge2" class="edge"><title>Node3&#45;&gt;Node1</title>
<path fill="none" stroke="#9a32cd" stroke-dasharray="5,2" d="M320.231,-94.4856C346.489,-97.8466 375.008,-101.497 400.612,-104.774"/>
<polygon fill="#9a32cd" stroke="#9a32cd" points="320.652,-91.011 310.289,-93.213 319.764,-97.9544 320.652,-91.011"/>
<text text-anchor="middle" x="355.5" y="-105" font-family="Helvetica,sans-Serif" font-size="10.00"> tdescAlias</text>
</g>
<!-- Node4 -->
<g id="node4" class="node"><title>Node4</title>
<g id="a_node4"><a xlink:href="struct_system_1_1_int_ptr.html" target="_top" xlink:title="A platform&#45;specific type that is used to represent a pointer or a handle.">
<polygon fill="none" stroke="red" points="0,-105.5 0,-124.5 77,-124.5 77,-105.5 0,-105.5"/>
<text text-anchor="middle" x="38.5" y="-112.5" font-family="Helvetica,sans-Serif" font-size="10.00">System.IntPtr</text>
</a>
</g>
</g>
<!-- Node4&#45;&gt;Node1 -->
<g id="edge5" class="edge"><title>Node4&#45;&gt;Node1</title>
<path fill="none" stroke="#9a32cd" stroke-dasharray="5,2" d="M87.2308,-120.493C89.8567,-120.691 92.4597,-120.863 95,-121 110.977,-121.861 115.001,-121.127 131,-121 223.543,-120.266 329.854,-118.277 400.69,-116.789"/>
<polygon fill="#9a32cd" stroke="#9a32cd" points="87.3361,-116.989 77.072,-119.615 86.7336,-123.963 87.3361,-116.989"/>
<text text-anchor="middle" x="229.5" y="-123" font-family="Helvetica,sans-Serif" font-size="10.00"> lpstrSchema</text>
</g>
<!-- Node4&#45;&gt;Node3 -->
<g id="edge3" class="edge"><title>Node4&#45;&gt;Node3</title>
<path fill="none" stroke="#9a32cd" stroke-dasharray="5,2" d="M87.3272,-106.902C106.042,-103.734 128.018,-100.013 148.984,-96.4631"/>
<polygon fill="#9a32cd" stroke="#9a32cd" points="86.5681,-103.481 77.2927,-108.601 87.7367,-110.383 86.5681,-103.481"/>
<text text-anchor="middle" x="113" y="-109" font-family="Helvetica,sans-Serif" font-size="10.00"> lpValue</text>
</g>
<!-- Node4&#45;&gt;Node4 -->
<g id="edge4" class="edge"><title>Node4&#45;&gt;Node4</title>
<path fill="none" stroke="#9a32cd" stroke-dasharray="5,2" d="M24.8725,-134.766C25.9428,-139.497 30.4853,-143 38.5,-143 51.6523,-143 55.4542,-133.565 49.9055,-124.757"/>
<polygon fill="#9a32cd" stroke="#9a32cd" points="28.344,-135.278 27.0945,-124.757 21.5104,-133.761 28.344,-135.278"/>
<text text-anchor="middle" x="38.5" y="-146" font-family="Helvetica,sans-Serif" font-size="10.00"> Zero</text>
</g>
<!-- Node6 -->
<g id="node5" class="node"><title>Node6</title>
<g id="a_node5"><a xlink:href="struct_system_1_1_guid.html" target="_top" xlink:title="Represents a globally unique identifier (GUID).To browse the .NET Framework source code for this type...">
<polygon fill="none" stroke="red" points="192.5,-0.5 192.5,-19.5 266.5,-19.5 266.5,-0.5 192.5,-0.5"/>
<text text-anchor="middle" x="229.5" y="-7.5" font-family="Helvetica,sans-Serif" font-size="10.00">System.Guid</text>
</a>
</g>
</g>
<!-- Node6&#45;&gt;Node1 -->
<g id="edge6" class="edge"><title>Node6&#45;&gt;Node1</title>
<path fill="none" stroke="#9a32cd" stroke-dasharray="5,2" d="M262.457,-23.4218C309.149,-43.0327 395.757,-79.408 444.592,-99.9185"/>
<polygon fill="#9a32cd" stroke="#9a32cd" points="263.702,-20.1487 253.127,-19.5032 260.991,-26.6026 263.702,-20.1487"/>
<text text-anchor="middle" x="355.5" y="-75" font-family="Helvetica,sans-Serif" font-size="10.00"> guid</text>
</g>
<!-- Node6&#45;&gt;Node6 -->
<g id="edge7" class="edge"><title>Node6&#45;&gt;Node6</title>
<path fill="none" stroke="#9a32cd" stroke-dasharray="5,2" d="M208.02,-29.4C209.454,-34.3146 216.614,-38 229.5,-38 250.117,-38 256.077,-28.5653 247.379,-19.7571"/>
<polygon fill="#9a32cd" stroke="#9a32cd" points="211.401,-30.3496 211.621,-19.7571 204.843,-27.9004 211.401,-30.3496"/>
<text text-anchor="middle" x="229.5" y="-41" font-family="Helvetica,sans-Serif" font-size="10.00"> Empty</text>
</g>
</g>
</svg>
        <g id="navigator" transform="translate(0 0)" fill="#404254">
                <rect fill="#f2f5e9" fill-opacity="0.5" stroke="#606060" stroke-width=".5" x="0" y="0" width="60" height="60"/>
                <use id="zoomplus" xlink:href="#zoomPlus" x="17" y="9" onmousedown="handleZoom(evt,'in')"/>
                <use id="zoomminus" xlink:href="#zoomMin" x="42" y="9" onmousedown="handleZoom(evt,'out')"/>
                <use id="reset" xlink:href="#resetDef" x="30" y="36" onmousedown="handleReset()"/>
                <g id="arrowUp" xlink:href="#dirArrow" transform="translate(30 24)" onmousedown="handlePan(0,-1)">
                  <use xlink:href="#rim" fill="#404040">
                        <set attributeName="fill" to="#808080" begin="arrowUp.mouseover" end="arrowUp.mouseout"/>
                  </use>
                  <path fill="none" stroke="white" stroke-width="1.5" d="M0,-3.0v7 M-2.5,-0.5L0,-3.0L2.5,-0.5"/>
                </g>
                <g id="arrowRight" xlink:href="#dirArrow" transform="rotate(90) translate(36 -43)" onmousedown="handlePan(1,0)">
                  <use xlink:href="#rim" fill="#404040">
                        <set attributeName="fill" to="#808080" begin="arrowRight.mouseover" end="arrowRight.mouseout"/>
                  </use>
                  <path fill="none" stroke="white" stroke-width="1.5" d="M0,-3.0v7 M-2.5,-0.5L0,-3.0L2.5,-0.5"/>
                </g>
                <g id="arrowDown" xlink:href="#dirArrow" transform="rotate(180) translate(-30 -48)" onmousedown="handlePan(0,1)">
                  <use xlink:href="#rim" fill="#404040">
                        <set attributeName="fill" to="#808080" begin="arrowDown.mouseover" end="arrowDown.mouseout"/>
                  </use>
                  <path fill="none" stroke="white" stroke-width="1.5" d="M0,-3.0v7 M-2.5,-0.5L0,-3.0L2.5,-0.5"/>
                </g>
                <g id="arrowLeft" xlink:href="#dirArrow" transform="rotate(270) translate(-36 17)" onmousedown="handlePan(-1,0)">
                  <use xlink:href="#rim" fill="#404040">
                        <set attributeName="fill" to="#808080" begin="arrowLeft.mouseover" end="arrowLeft.mouseout"/>
                  </use>
                  <path fill="none" stroke="white" stroke-width="1.5" d="M0,-3.0v7 M-2.5,-0.5L0,-3.0L2.5,-0.5"/>
                </g>
        </g>
        <svg viewBox="0 0 15 15" width="100%" height="30px" preserveAspectRatio="xMaxYMin meet">
         <g id="arrow_out" transform="scale(0.3 0.3)">
          <a xlink:href="struct_system_1_1_runtime_1_1_interop_services_1_1_t_y_p_e_a_t_t_r__coll__graph_org.svg" target="_base">
           <rect id="button" ry="5" rx="5" y="6" x="6" height="38" width="38"
                fill="#f2f5e9" fill-opacity="0.5" stroke="#606060" stroke-width="1.0"/>
           <path id="arrow"
             d="M 11.500037,31.436501 C 11.940474,20.09759 22.043105,11.32322 32.158766,21.979434 L 37.068811,17.246167 C 37.068811,17.246167 37.088388,32 37.088388,32 L 22.160133,31.978069 C 22.160133,31.978069 26.997745,27.140456 26.997745,27.140456 C 18.528582,18.264221 13.291696,25.230495 11.500037,31.436501 z"
             style="fill:#404040;"/>
          </a>
         </g>
        </svg>
</svg>
