<?xml version="1.0" encoding="UTF-8" standalone="no"?>
<!DOCTYPE svg PUBLIC "-//W3C//DTD SVG 1.1//EN"
 "http://www.w3.org/Graphics/SVG/1.1/DTD/svg11.dtd">
<!-- Generated by graphviz version 2.38.0 (20140413.2041)
 -->
<!-- Title: System.Runtime.InteropServices.ComTypes.VARDESC Pages: 1 -->
<!--zoomable 173 -->
<svg id="main" version="1.1" xmlns="http://www.w3.org/2000/svg" xmlns:xlink="http://www.w3.org/1999/xlink" xml:space="preserve" onload="init(evt)">
<style type="text/css"><![CDATA[
.edge:hover path { stroke: red; }
.edge:hover polygon { stroke: red; fill: red; }
]]></style>
<script type="text/javascript"><![CDATA[
var edges = document.getElementsByTagName('g');
if (edges && edges.length) {
  for (var i=0;i<edges.length;i++) {
    if (edges[i].id.substr(0,4)=='edge') {
      edges[i].setAttribute('class','edge');
    }
  }
}
]]></script>
        <defs>
                <circle id="rim" cx="0" cy="0" r="7"/>
                <circle id="rim2" cx="0" cy="0" r="3.5"/>
                <g id="zoomPlus">
                        <use xlink:href="#rim" fill="#404040">
                                <set attributeName="fill" to="#808080" begin="zoomplus.mouseover" end="zoomplus.mouseout"/>
                        </use>
                        <path d="M-4,0h8M0,-4v8" fill="none" stroke="white" stroke-width="1.5" pointer-events="none"/>
                </g>
                <g id="zoomMin">
                        <use xlink:href="#rim" fill="#404040">
                                <set attributeName="fill" to="#808080" begin="zoomminus.mouseover" end="zoomminus.mouseout"/>
                        </use>
                        <path d="M-4,0h8" fill="none" stroke="white" stroke-width="1.5" pointer-events="none"/>
                </g>
                <g id="dirArrow">
                        <path fill="none" stroke="white" stroke-width="1.5" d="M0,-3.0v7 M-2.5,-0.5L0,-3.0L2.5,-0.5"/>
                </g>
               <g id="resetDef">
                       <use xlink:href="#rim2" fill="#404040">
                               <set attributeName="fill" to="#808080" begin="reset.mouseover" end="reset.mouseout"/>
                       </use>
               </g>
        </defs>

<script type="text/javascript">
var viewWidth = 1448;
var viewHeight = 173;
var sectionId = 'dynsection-0';
</script>
<script xlink:href="svgpan.js"/>
<svg id="graph" class="graph">
<g id="viewport">
<title>System.Runtime.InteropServices.ComTypes.VARDESC</title>
<!-- Node1 -->
<g id="node1" class="node"><title>Node1</title>
<g id="a_node1"><a xlink:title="Describes a variable, constant, or data member.">
<polygon fill="#bfbfbf" stroke="black" points="1279,-19.5 1279,-49.5 1440,-49.5 1440,-19.5 1279,-19.5"/>
<text text-anchor="start" x="1287" y="-37.5" font-family="Helvetica,sans-Serif" font-size="10.00">System.Runtime.InteropServices.</text>
<text text-anchor="middle" x="1359.5" y="-26.5" font-family="Helvetica,sans-Serif" font-size="10.00">ComTypes.VARDESC</text>
</a>
</g>
</g>
<!-- Node2 -->
<g id="node2" class="node"><title>Node2</title>
<g id="a_node2"><a xlink:href="struct_system_1_1_runtime_1_1_interop_services_1_1_com_types_1_1_e_l_e_m_d_e_s_c.html" target="_top" xlink:title="Contains the type description and process transfer information for a variable, function,...">
<polygon fill="none" stroke="black" points="1021,-45.5 1021,-75.5 1182,-75.5 1182,-45.5 1021,-45.5"/>
<text text-anchor="start" x="1029" y="-63.5" font-family="Helvetica,sans-Serif" font-size="10.00">System.Runtime.InteropServices.</text>
<text text-anchor="middle" x="1101.5" y="-52.5" font-family="Helvetica,sans-Serif" font-size="10.00">ComTypes.ELEMDESC</text>
</a>
</g>
</g>
<!-- Node2&#45;&gt;Node1 -->
<g id="edge1" class="edge"><title>Node2&#45;&gt;Node1</title>
<path fill="none" stroke="#9a32cd" stroke-dasharray="5,2" d="M1192.36,-51.3739C1220.57,-48.5085 1251.5,-45.3667 1278.95,-42.579"/>
<polygon fill="#9a32cd" stroke="#9a32cd" points="1191.69,-47.9234 1182.1,-52.416 1192.4,-54.8875 1191.69,-47.9234"/>
<text text-anchor="middle" x="1230.5" y="-54.5" font-family="Helvetica,sans-Serif" font-size="10.00"> elemdescVar</text>
</g>
<!-- Node3 -->
<g id="node3" class="node"><title>Node3</title>
<g id="a_node3"><a xlink:href="struct_system_1_1_runtime_1_1_interop_services_1_1_com_types_1_1_e_l_e_m_d_e_s_c_1_1_d_e_s_c_u_n_i_o_n.html" target="_top" xlink:title="Contains information about an element.">
<polygon fill="none" stroke="black" points="632,-90.5 632,-120.5 812,-120.5 812,-90.5 632,-90.5"/>
<text text-anchor="start" x="640" y="-108.5" font-family="Helvetica,sans-Serif" font-size="10.00">System.Runtime.InteropServices.</text>
<text text-anchor="middle" x="722" y="-97.5" font-family="Helvetica,sans-Serif" font-size="10.00">ComTypes.ELEMDESC.DESCUNION</text>
</a>
</g>
</g>
<!-- Node3&#45;&gt;Node2 -->
<g id="edge2" class="edge"><title>Node3&#45;&gt;Node2</title>
<path fill="none" stroke="#9a32cd" stroke-dasharray="5,2" d="M822.481,-95.277C876.024,-89.5754 943.176,-82.1047 1003,-74.5 1008.85,-73.756 1014.9,-72.9583 1020.98,-72.1348"/>
<polygon fill="#9a32cd" stroke="#9a32cd" points="821.879,-91.8212 812.304,-96.3569 822.618,-98.7821 821.879,-91.8212"/>
<text text-anchor="middle" x="916.5" y="-97.5" font-family="Helvetica,sans-Serif" font-size="10.00"> desc</text>
</g>
<!-- Node4 -->
<g id="node4" class="node"><title>Node4</title>
<g id="a_node4"><a xlink:href="struct_system_1_1_runtime_1_1_interop_services_1_1_com_types_1_1_p_a_r_a_m_d_e_s_c.html" target="_top" xlink:title="Contains information about how to transfer a structure element, parameter, or function return value b...">
<polygon fill="none" stroke="black" points="274,-134.5 274,-164.5 435,-164.5 435,-134.5 274,-134.5"/>
<text text-anchor="start" x="282" y="-152.5" font-family="Helvetica,sans-Serif" font-size="10.00">System.Runtime.InteropServices.</text>
<text text-anchor="middle" x="354.5" y="-141.5" font-family="Helvetica,sans-Serif" font-size="10.00">ComTypes.PARAMDESC</text>
</a>
</g>
</g>
<!-- Node4&#45;&gt;Node3 -->
<g id="edge3" class="edge"><title>Node4&#45;&gt;Node3</title>
<path fill="none" stroke="#9a32cd" stroke-dasharray="5,2" d="M445.108,-139.426C494.876,-133.749 557.893,-126.426 614,-119.5 619.857,-118.777 625.893,-118.02 631.974,-117.248"/>
<polygon fill="#9a32cd" stroke="#9a32cd" points="444.557,-135.966 435.018,-140.575 445.349,-142.921 444.557,-135.966"/>
<text text-anchor="middle" x="533.5" y="-141.5" font-family="Helvetica,sans-Serif" font-size="10.00"> paramdesc</text>
</g>
<!-- Node5 -->
<g id="node5" class="node"><title>Node5</title>
<g id="a_node5"><a xlink:href="struct_system_1_1_int_ptr.html" target="_top" xlink:title="A platform&#45;specific type that is used to represent a pointer or a handle.">
<polygon fill="none" stroke="black" points="106,-64 106,-83 183,-83 183,-64 106,-64"/>
<text text-anchor="middle" x="144.5" y="-71" font-family="Helvetica,sans-Serif" font-size="10.00">System.IntPtr</text>
</a>
</g>
</g>
<!-- Node5&#45;&gt;Node4 -->
<g id="edge4" class="edge"><title>Node5&#45;&gt;Node4</title>
<path fill="none" stroke="#9a32cd" stroke-dasharray="5,2" d="M169.977,-88.1183C179.458,-93.4083 190.533,-99.1455 201,-103.5 230.745,-115.875 265,-126.513 293.499,-134.433"/>
<polygon fill="#9a32cd" stroke="#9a32cd" points="171.528,-84.9729 161.11,-83.0451 168.051,-91.0488 171.528,-84.9729"/>
<text text-anchor="middle" x="228.5" y="-126.5" font-family="Helvetica,sans-Serif" font-size="10.00"> lpVarValue</text>
</g>
<!-- Node5&#45;&gt;Node5 -->
<g id="edge6" class="edge"><title>Node5&#45;&gt;Node5</title>
<path fill="none" stroke="#9a32cd" stroke-dasharray="5,2" d="M134.187,-93.2663C134.997,-97.9965 138.435,-101.5 144.5,-101.5 154.453,-101.5 157.33,-92.0653 153.131,-83.2571"/>
<polygon fill="#9a32cd" stroke="#9a32cd" points="137.664,-93.6988 135.869,-83.2571 130.76,-92.539 137.664,-93.6988"/>
<text text-anchor="middle" x="144.5" y="-104.5" font-family="Helvetica,sans-Serif" font-size="10.00"> Zero</text>
</g>
<!-- Node7 -->
<g id="node7" class="node"><title>Node7</title>
<g id="a_node7"><a xlink:href="struct_system_1_1_runtime_1_1_interop_services_1_1_com_types_1_1_i_d_l_d_e_s_c.html" target="_top" xlink:title="Contains information needed for transferring a structure element, parameter, or function return value...">
<polygon fill="none" stroke="black" points="274,-85.5 274,-115.5 435,-115.5 435,-85.5 274,-85.5"/>
<text text-anchor="start" x="282" y="-103.5" font-family="Helvetica,sans-Serif" font-size="10.00">System.Runtime.InteropServices.</text>
<text text-anchor="middle" x="354.5" y="-92.5" font-family="Helvetica,sans-Serif" font-size="10.00">ComTypes.IDLDESC</text>
</a>
</g>
</g>
<!-- Node5&#45;&gt;Node7 -->
<g id="edge8" class="edge"><title>Node5&#45;&gt;Node7</title>
<path fill="none" stroke="#9a32cd" stroke-dasharray="5,2" d="M193.368,-79.7136C217.237,-82.8121 246.739,-86.6416 273.89,-90.166"/>
<polygon fill="#9a32cd" stroke="#9a32cd" points="193.535,-76.206 183.167,-78.3895 192.633,-83.1477 193.535,-76.206"/>
<text text-anchor="middle" x="228.5" y="-91.5" font-family="Helvetica,sans-Serif" font-size="10.00"> dwReserved</text>
</g>
<!-- Node8 -->
<g id="node8" class="node"><title>Node8</title>
<g id="a_node8"><a xlink:href="struct_system_1_1_runtime_1_1_interop_services_1_1_com_types_1_1_t_y_p_e_d_e_s_c.html" target="_top" xlink:title="Describes the type of a variable, return type of a function, or the type of a function parameter.">
<polygon fill="none" stroke="black" points="453,-43.5 453,-73.5 614,-73.5 614,-43.5 453,-43.5"/>
<text text-anchor="start" x="461" y="-61.5" font-family="Helvetica,sans-Serif" font-size="10.00">System.Runtime.InteropServices.</text>
<text text-anchor="middle" x="533.5" y="-50.5" font-family="Helvetica,sans-Serif" font-size="10.00">ComTypes.TYPEDESC</text>
</a>
</g>
</g>
<!-- Node5&#45;&gt;Node8 -->
<g id="edge10" class="edge"><title>Node5&#45;&gt;Node8</title>
<path fill="none" stroke="#9a32cd" stroke-dasharray="5,2" d="M193.226,-67.166C195.853,-66.9155 198.458,-66.6905 201,-66.5 286.825,-60.0687 385.463,-58.4206 452.679,-58.1625"/>
<polygon fill="#9a32cd" stroke="#9a32cd" points="192.642,-63.7082 183.064,-68.239 193.377,-70.6695 192.642,-63.7082"/>
<text text-anchor="middle" x="228.5" y="-69.5" font-family="Helvetica,sans-Serif" font-size="10.00"> lpValue</text>
</g>
<!-- Node9 -->
<g id="node9" class="node"><title>Node9</title>
<g id="a_node9"><a xlink:href="struct_system_1_1_runtime_1_1_interop_services_1_1_com_types_1_1_v_a_r_d_e_s_c_1_1_d_e_s_c_u_n_i_o_n.html" target="_top" xlink:title="Contains information about a variable.">
<polygon fill="none" stroke="black" points="830,-0.5 830,-30.5 1003,-30.5 1003,-0.5 830,-0.5"/>
<text text-anchor="start" x="838" y="-18.5" font-family="Helvetica,sans-Serif" font-size="10.00">System.Runtime.InteropServices.</text>
<text text-anchor="middle" x="916.5" y="-7.5" font-family="Helvetica,sans-Serif" font-size="10.00">ComTypes.VARDESC.DESCUNION</text>
</a>
</g>
</g>
<!-- Node5&#45;&gt;Node9 -->
<g id="edge12" class="edge"><title>Node5&#45;&gt;Node9</title>
<path fill="none" stroke="#9a32cd" stroke-dasharray="5,2" d="M188.543,-61.3247C213.322,-54.8528 245.173,-47.4386 274,-43.5 471.708,-16.4876 706.568,-13.561 829.964,-14.2442"/>
<polygon fill="#9a32cd" stroke="#9a32cd" points="187.494,-57.9819 178.73,-63.9346 189.293,-64.7467 187.494,-57.9819"/>
<text text-anchor="middle" x="354.5" y="-46.5" font-family="Helvetica,sans-Serif" font-size="10.00"> lpvarValue</text>
</g>
<!-- Node6 -->
<g id="node6" class="node"><title>Node6</title>
<g id="a_node6"><a xlink:href="interface_system_1_1_runtime_1_1_serialization_1_1_i_serializable.html" target="_top" xlink:title="Allows an object to control its own serialization and deserialization.">
<polygon fill="none" stroke="black" points="0,-64 0,-83 69,-83 69,-64 0,-64"/>
<text text-anchor="middle" x="34.5" y="-71" font-family="Helvetica,sans-Serif" font-size="10.00">ISerializable</text>
</a>
</g>
</g>
<!-- Node6&#45;&gt;Node5 -->
<g id="edge5" class="edge"><title>Node6&#45;&gt;Node5</title>
<path fill="none" stroke="midnightblue" d="M79.1953,-73.5C88.0115,-73.5 97.2082,-73.5 105.798,-73.5"/>
<polygon fill="midnightblue" stroke="midnightblue" points="79.0799,-70.0001 69.0799,-73.5 79.0798,-77.0001 79.0799,-70.0001"/>
</g>
<!-- Node7&#45;&gt;Node3 -->
<g id="edge7" class="edge"><title>Node7&#45;&gt;Node3</title>
<path fill="none" stroke="#9a32cd" stroke-dasharray="5,2" d="M445.3,-101.728C502.066,-102.505 575.137,-103.505 631.79,-104.28"/>
<polygon fill="#9a32cd" stroke="#9a32cd" points="445.306,-98.2283 435.259,-101.591 445.21,-105.228 445.306,-98.2283"/>
<text text-anchor="middle" x="533.5" y="-107.5" font-family="Helvetica,sans-Serif" font-size="10.00"> idldesc</text>
</g>
<!-- Node8&#45;&gt;Node2 -->
<g id="edge9" class="edge"><title>Node8&#45;&gt;Node2</title>
<path fill="none" stroke="#9a32cd" stroke-dasharray="5,2" d="M624.109,-58.8166C733.385,-59.2028 916.405,-59.8495 1020.92,-60.2188"/>
<polygon fill="#9a32cd" stroke="#9a32cd" points="624.107,-55.3167 614.094,-58.7813 624.082,-62.3167 624.107,-55.3167"/>
<text text-anchor="middle" x="722" y="-62.5" font-family="Helvetica,sans-Serif" font-size="10.00"> tdesc</text>
</g>
<!-- Node9&#45;&gt;Node1 -->
<g id="edge11" class="edge"><title>Node9&#45;&gt;Node1</title>
<path fill="none" stroke="#9a32cd" stroke-dasharray="5,2" d="M1013.48,-18.2441C1063.7,-19.8117 1126.18,-21.9692 1182,-24.5 1213.58,-25.9317 1248.32,-27.8301 1278.56,-29.588"/>
<polygon fill="#9a32cd" stroke="#9a32cd" points="1013.39,-14.7396 1003.29,-17.9286 1013.17,-21.7363 1013.39,-14.7396"/>
<text text-anchor="middle" x="1101.5" y="-27.5" font-family="Helvetica,sans-Serif" font-size="10.00"> desc</text>
</g>
</g>
</svg>
        <g id="navigator" transform="translate(0 0)" fill="#404254">
                <rect fill="#f2f5e9" fill-opacity="0.5" stroke="#606060" stroke-width=".5" x="0" y="0" width="60" height="60"/>
                <use id="zoomplus" xlink:href="#zoomPlus" x="17" y="9" onmousedown="handleZoom(evt,'in')"/>
                <use id="zoomminus" xlink:href="#zoomMin" x="42" y="9" onmousedown="handleZoom(evt,'out')"/>
                <use id="reset" xlink:href="#resetDef" x="30" y="36" onmousedown="handleReset()"/>
                <g id="arrowUp" xlink:href="#dirArrow" transform="translate(30 24)" onmousedown="handlePan(0,-1)">
                  <use xlink:href="#rim" fill="#404040">
                        <set attributeName="fill" to="#808080" begin="arrowUp.mouseover" end="arrowUp.mouseout"/>
                  </use>
                  <path fill="none" stroke="white" stroke-width="1.5" d="M0,-3.0v7 M-2.5,-0.5L0,-3.0L2.5,-0.5"/>
                </g>
                <g id="arrowRight" xlink:href="#dirArrow" transform="rotate(90) translate(36 -43)" onmousedown="handlePan(1,0)">
                  <use xlink:href="#rim" fill="#404040">
                        <set attributeName="fill" to="#808080" begin="arrowRight.mouseover" end="arrowRight.mouseout"/>
                  </use>
                  <path fill="none" stroke="white" stroke-width="1.5" d="M0,-3.0v7 M-2.5,-0.5L0,-3.0L2.5,-0.5"/>
                </g>
                <g id="arrowDown" xlink:href="#dirArrow" transform="rotate(180) translate(-30 -48)" onmousedown="handlePan(0,1)">
                  <use xlink:href="#rim" fill="#404040">
                        <set attributeName="fill" to="#808080" begin="arrowDown.mouseover" end="arrowDown.mouseout"/>
                  </use>
                  <path fill="none" stroke="white" stroke-width="1.5" d="M0,-3.0v7 M-2.5,-0.5L0,-3.0L2.5,-0.5"/>
                </g>
                <g id="arrowLeft" xlink:href="#dirArrow" transform="rotate(270) translate(-36 17)" onmousedown="handlePan(-1,0)">
                  <use xlink:href="#rim" fill="#404040">
                        <set attributeName="fill" to="#808080" begin="arrowLeft.mouseover" end="arrowLeft.mouseout"/>
                  </use>
                  <path fill="none" stroke="white" stroke-width="1.5" d="M0,-3.0v7 M-2.5,-0.5L0,-3.0L2.5,-0.5"/>
                </g>
        </g>
        <svg viewBox="0 0 15 15" width="100%" height="30px" preserveAspectRatio="xMaxYMin meet">
         <g id="arrow_out" transform="scale(0.3 0.3)">
          <a xlink:href="struct_system_1_1_runtime_1_1_interop_services_1_1_com_types_1_1_v_a_r_d_e_s_c__coll__graph_org.svg" target="_base">
           <rect id="button" ry="5" rx="5" y="6" x="6" height="38" width="38"
                fill="#f2f5e9" fill-opacity="0.5" stroke="#606060" stroke-width="1.0"/>
           <path id="arrow"
             d="M 11.500037,31.436501 C 11.940474,20.09759 22.043105,11.32322 32.158766,21.979434 L 37.068811,17.246167 C 37.068811,17.246167 37.088388,32 37.088388,32 L 22.160133,31.978069 C 22.160133,31.978069 26.997745,27.140456 26.997745,27.140456 C 18.528582,18.264221 13.291696,25.230495 11.500037,31.436501 z"
             style="fill:#404040;"/>
          </a>
         </g>
        </svg>
</svg>
