<?xml version="1.0" encoding="UTF-8" standalone="no"?>
<!DOCTYPE svg PUBLIC "-//W3C//DTD SVG 1.1//EN"
 "http://www.w3.org/Graphics/SVG/1.1/DTD/svg11.dtd">
<!-- Generated by graphviz version 2.38.0 (20140413.2041)
 -->
<!-- Title: System.Collections.Generic.SortedDictionary&lt; TKey, TValue &gt;.KeyCollection.Enumerator Pages: 1 -->
<svg width="291pt" height="106pt"
 viewBox="0.00 0.00 290.50 106.00" xmlns="http://www.w3.org/2000/svg" xmlns:xlink="http://www.w3.org/1999/xlink">
<g id="graph0" class="graph" transform="scale(1 1) rotate(0) translate(4 102)">
<title>System.Collections.Generic.SortedDictionary&lt; TKey, TValue &gt;.KeyCollection.Enumerator</title>
<!-- Node5 -->
<g id="node1" class="node"><title>Node5</title>
<g id="a_node1"><a xlink:title="Enumerates the elements of a T:System.Collections.Generic.SortedDictionary`2.KeyCollection.">
<polygon fill="#bfbfbf" stroke="black" points="74.5,-0.5 74.5,-41.5 249.5,-41.5 249.5,-0.5 74.5,-0.5"/>
<text text-anchor="start" x="82.5" y="-29.5" font-family="Helvetica,sans-Serif" font-size="10.00">System.Collections.Generic.</text>
<text text-anchor="start" x="82.5" y="-18.5" font-family="Helvetica,sans-Serif" font-size="10.00">SortedDictionary&lt; TKey,</text>
<text text-anchor="middle" x="162" y="-7.5" font-family="Helvetica,sans-Serif" font-size="10.00"> TValue &gt;.KeyCollection.Enumerator</text>
</a>
</g>
</g>
<!-- Node6 -->
<g id="node2" class="node"><title>Node6</title>
<g id="a_node2"><a xlink:href="interface_system_1_1_collections_1_1_generic_1_1_i_enumerator.html" target="_top" xlink:title=" ">
<polygon fill="none" stroke="red" points="0,-78.5 0,-97.5 110,-97.5 110,-78.5 0,-78.5"/>
<text text-anchor="middle" x="55" y="-85.5" font-family="Helvetica,sans-Serif" font-size="10.00">IEnumerator&lt; TKey &gt;</text>
</a>
</g>
</g>
<!-- Node6&#45;&gt;Node5 -->
<g id="edge1" class="edge"><title>Node6&#45;&gt;Node5</title>
<path fill="none" stroke="midnightblue" d="M78.1413,-72.9422C93.25,-63.764 113.187,-51.6527 129.831,-41.5421"/>
<polygon fill="midnightblue" stroke="midnightblue" points="76.16,-70.0506 69.4305,-78.2338 79.7943,-76.0332 76.16,-70.0506"/>
</g>
<!-- Node8 -->
<g id="node3" class="node"><title>Node8</title>
<g id="a_node3"><a xlink:href="interface_system_1_1_i_disposable.html" target="_top" xlink:title="Provides a mechanism for releasing unmanaged resources.To browse the .NET Framework source code for t...">
<polygon fill="none" stroke="black" points="128.5,-78.5 128.5,-97.5 195.5,-97.5 195.5,-78.5 128.5,-78.5"/>
<text text-anchor="middle" x="162" y="-85.5" font-family="Helvetica,sans-Serif" font-size="10.00">IDisposable</text>
</a>
</g>
</g>
<!-- Node8&#45;&gt;Node5 -->
<g id="edge2" class="edge"><title>Node8&#45;&gt;Node5</title>
<path fill="none" stroke="midnightblue" d="M162,-68.037C162,-59.7084 162,-49.9358 162,-41.5421"/>
<polygon fill="midnightblue" stroke="midnightblue" points="158.5,-68.2338 162,-78.2338 165.5,-68.2338 158.5,-68.2338"/>
</g>
<!-- Node9 -->
<g id="node4" class="node"><title>Node9</title>
<g id="a_node4"><a xlink:href="interface_system_1_1_collections_1_1_i_enumerator.html" target="_top" xlink:title="Supports a simple iteration over a non&#45;generic collection.">
<polygon fill="none" stroke="black" points="213.5,-78.5 213.5,-97.5 282.5,-97.5 282.5,-78.5 213.5,-78.5"/>
<text text-anchor="middle" x="248" y="-85.5" font-family="Helvetica,sans-Serif" font-size="10.00">IEnumerator</text>
</a>
</g>
</g>
<!-- Node9&#45;&gt;Node5 -->
<g id="edge3" class="edge"><title>Node9&#45;&gt;Node5</title>
<path fill="none" stroke="midnightblue" d="M228.36,-72.156C216.352,-63.0801 200.854,-51.3665 187.856,-41.5421"/>
<polygon fill="midnightblue" stroke="midnightblue" points="226.314,-74.9963 236.402,-78.2338 230.534,-69.4119 226.314,-74.9963"/>
</g>
</g>
</svg>
