<?xml version="1.0" encoding="UTF-8" standalone="no"?>
<!DOCTYPE svg PUBLIC "-//W3C//DTD SVG 1.1//EN"
 "http://www.w3.org/Graphics/SVG/1.1/DTD/svg11.dtd">
<!-- Generated by graphviz version 2.38.0 (20140413.2041)
 -->
<!-- Title: System.Reflection.InterfaceMapping Pages: 1 -->
<svg width="344pt" height="290pt"
 viewBox="0.00 0.00 343.50 290.00" xmlns="http://www.w3.org/2000/svg" xmlns:xlink="http://www.w3.org/1999/xlink">
<g id="graph0" class="graph" transform="scale(1 1) rotate(0) translate(4 286)">
<title>System.Reflection.InterfaceMapping</title>
<!-- Node1 -->
<g id="node1" class="node"><title>Node1</title>
<g id="a_node1"><a xlink:title="Retrieves the mapping of an interface into the actual methods on a class that implements that interfa...">
<polygon fill="#bfbfbf" stroke="black" points="103.5,-0.5 103.5,-30.5 239.5,-30.5 239.5,-0.5 103.5,-0.5"/>
<text text-anchor="start" x="111.5" y="-18.5" font-family="Helvetica,sans-Serif" font-size="10.00">System.Reflection.Interface</text>
<text text-anchor="middle" x="171.5" y="-7.5" font-family="Helvetica,sans-Serif" font-size="10.00">Mapping</text>
</a>
</g>
</g>
<!-- Node2 -->
<g id="node2" class="node"><title>Node2</title>
<g id="a_node2"><a xlink:href="class_system_1_1_type.html" target="_top" xlink:title="Represents type declarations: class types, interface types, array types, value types,...">
<polygon fill="none" stroke="black" points="185.5,-148.5 185.5,-167.5 259.5,-167.5 259.5,-148.5 185.5,-148.5"/>
<text text-anchor="middle" x="222.5" y="-155.5" font-family="Helvetica,sans-Serif" font-size="10.00">System.Type</text>
</a>
</g>
</g>
<!-- Node2&#45;&gt;Node1 -->
<g id="edge1" class="edge"><title>Node2&#45;&gt;Node1</title>
<path fill="none" stroke="#9a32cd" stroke-dasharray="5,2" d="M223.946,-138.013C224.819,-115.442 223.564,-77.2775 208.5,-49 204.721,-41.9069 198.729,-35.6409 192.658,-30.551"/>
<polygon fill="#9a32cd" stroke="#9a32cd" points="220.437,-138.076 223.358,-148.26 227.426,-138.478 220.437,-138.076"/>
<text text-anchor="middle" x="254" y="-103" font-family="Helvetica,sans-Serif" font-size="10.00"> InterfaceType</text>
<text text-anchor="middle" x="254" y="-92" font-family="Helvetica,sans-Serif" font-size="10.00">TargetType</text>
</g>
<!-- Node2&#45;&gt;Node2 -->
<g id="edge7" class="edge"><title>Node2&#45;&gt;Node2</title>
<path fill="none" stroke="#9a32cd" stroke-dasharray="5,2" d="M269.686,-162.307C274.457,-161.452 277.5,-160.017 277.5,-158 277.5,-154.773 269.71,-153.034 259.515,-152.782"/>
<polygon fill="#9a32cd" stroke="#9a32cd" points="269.163,-158.84 259.515,-163.218 269.788,-165.812 269.163,-158.84"/>
<text text-anchor="middle" x="306.5" y="-155.5" font-family="Helvetica,sans-Serif" font-size="10.00"> EmptyTypes</text>
</g>
<!-- Node3 -->
<g id="node3" class="node"><title>Node3</title>
<g id="a_node3"><a xlink:href="class_system_1_1_reflection_1_1_member_info.html" target="_top" xlink:title="Obtains information about the attributes of a member and provides access to member metadata.">
<polygon fill="none" stroke="black" points="116,-205.5 116,-224.5 183,-224.5 183,-205.5 116,-205.5"/>
<text text-anchor="middle" x="149.5" y="-212.5" font-family="Helvetica,sans-Serif" font-size="10.00">MemberInfo</text>
</a>
</g>
</g>
<!-- Node3&#45;&gt;Node2 -->
<g id="edge2" class="edge"><title>Node3&#45;&gt;Node2</title>
<path fill="none" stroke="midnightblue" d="M169.028,-199.287C182.404,-189.21 199.691,-176.185 210.933,-167.715"/>
<polygon fill="midnightblue" stroke="midnightblue" points="166.787,-196.593 160.906,-205.406 170.999,-202.184 166.787,-196.593"/>
</g>
<!-- Node9 -->
<g id="node9" class="node"><title>Node9</title>
<g id="a_node9"><a xlink:href="class_system_1_1_reflection_1_1_method_base.html" target="_top" xlink:title="Provides information about methods and constructors.">
<polygon fill="none" stroke="black" points="87,-148.5 87,-167.5 158,-167.5 158,-148.5 87,-148.5"/>
<text text-anchor="middle" x="122.5" y="-155.5" font-family="Helvetica,sans-Serif" font-size="10.00">MethodBase</text>
</a>
</g>
</g>
<!-- Node3&#45;&gt;Node9 -->
<g id="edge10" class="edge"><title>Node3&#45;&gt;Node9</title>
<path fill="none" stroke="midnightblue" d="M140.828,-196.334C136.133,-186.77 130.54,-175.378 126.778,-167.715"/>
<polygon fill="midnightblue" stroke="midnightblue" points="137.733,-197.972 145.281,-205.406 144.016,-194.887 137.733,-197.972"/>
</g>
<!-- Node4 -->
<g id="node4" class="node"><title>Node4</title>
<g id="a_node4"><a xlink:href="interface_system_1_1_reflection_1_1_i_custom_attribute_provider.html" target="_top" xlink:title="Provides custom attributes for reflection objects that support them.">
<polygon fill="none" stroke="black" points="29.5,-262.5 29.5,-281.5 153.5,-281.5 153.5,-262.5 29.5,-262.5"/>
<text text-anchor="middle" x="91.5" y="-269.5" font-family="Helvetica,sans-Serif" font-size="10.00">ICustomAttributeProvider</text>
</a>
</g>
</g>
<!-- Node4&#45;&gt;Node3 -->
<g id="edge3" class="edge"><title>Node4&#45;&gt;Node3</title>
<path fill="none" stroke="midnightblue" d="M107.934,-255.416C118.424,-245.469 131.633,-232.943 140.31,-224.715"/>
<polygon fill="midnightblue" stroke="midnightblue" points="105.41,-252.986 100.563,-262.406 110.227,-258.065 105.41,-252.986"/>
</g>
<!-- Node5 -->
<g id="node5" class="node"><title>Node5</title>
<g id="a_node5"><a xlink:href="interface_system_1_1_runtime_1_1_interop_services_1_1___member_info.html" target="_top" xlink:title="Exposes the public members of the T:System.Reflection.MemberInfo class to unmanaged code.">
<polygon fill="none" stroke="black" points="171.5,-262.5 171.5,-281.5 243.5,-281.5 243.5,-262.5 171.5,-262.5"/>
<text text-anchor="middle" x="207.5" y="-269.5" font-family="Helvetica,sans-Serif" font-size="10.00">_MemberInfo</text>
</a>
</g>
</g>
<!-- Node5&#45;&gt;Node3 -->
<g id="edge4" class="edge"><title>Node5&#45;&gt;Node3</title>
<path fill="none" stroke="midnightblue" d="M191.066,-255.416C180.576,-245.469 167.367,-232.943 158.69,-224.715"/>
<polygon fill="midnightblue" stroke="midnightblue" points="188.773,-258.065 198.438,-262.406 193.59,-252.986 188.773,-258.065"/>
</g>
<!-- Node6 -->
<g id="node6" class="node"><title>Node6</title>
<g id="a_node6"><a xlink:href="interface_system_1_1_runtime_1_1_interop_services_1_1___type.html" target="_top" xlink:title="Exposes the public members of the T:System.Type class to the unmanaged code.">
<polygon fill="none" stroke="black" points="201,-205.5 201,-224.5 244,-224.5 244,-205.5 201,-205.5"/>
<text text-anchor="middle" x="222.5" y="-212.5" font-family="Helvetica,sans-Serif" font-size="10.00">_Type</text>
</a>
</g>
</g>
<!-- Node6&#45;&gt;Node2 -->
<g id="edge5" class="edge"><title>Node6&#45;&gt;Node2</title>
<path fill="none" stroke="midnightblue" d="M222.5,-195.117C222.5,-185.817 222.5,-175.056 222.5,-167.715"/>
<polygon fill="midnightblue" stroke="midnightblue" points="219,-195.406 222.5,-205.406 226,-195.406 219,-195.406"/>
</g>
<!-- Node7 -->
<g id="node7" class="node"><title>Node7</title>
<g id="a_node7"><a xlink:href="interface_system_1_1_reflection_1_1_i_reflect.html" target="_top" xlink:title="Interoperates with the IDispatch interface.">
<polygon fill="none" stroke="black" points="262,-205.5 262,-224.5 311,-224.5 311,-205.5 262,-205.5"/>
<text text-anchor="middle" x="286.5" y="-212.5" font-family="Helvetica,sans-Serif" font-size="10.00">IReflect</text>
</a>
</g>
</g>
<!-- Node7&#45;&gt;Node2 -->
<g id="edge6" class="edge"><title>Node7&#45;&gt;Node2</title>
<path fill="none" stroke="midnightblue" d="M268.706,-198.708C257.077,-188.715 242.309,-176.024 232.641,-167.715"/>
<polygon fill="midnightblue" stroke="midnightblue" points="266.635,-201.543 276.5,-205.406 271.197,-196.234 266.635,-201.543"/>
</g>
<!-- Node8 -->
<g id="node8" class="node"><title>Node8</title>
<g id="a_node8"><a xlink:href="class_system_1_1_reflection_1_1_method_info.html" target="_top" xlink:title="Discovers the attributes of a method and provides access to method metadata.">
<polygon fill="none" stroke="black" points="40.5,-90.5 40.5,-109.5 186.5,-109.5 186.5,-90.5 40.5,-90.5"/>
<text text-anchor="middle" x="113.5" y="-97.5" font-family="Helvetica,sans-Serif" font-size="10.00">System.Reflection.MethodInfo</text>
</a>
</g>
</g>
<!-- Node8&#45;&gt;Node1 -->
<g id="edge8" class="edge"><title>Node8&#45;&gt;Node1</title>
<path fill="none" stroke="#9a32cd" stroke-dasharray="5,2" d="M117.203,-80.1231C119.788,-70.219 123.974,-58.2553 130.5,-49 135.42,-42.022 142.255,-35.7866 148.935,-30.6893"/>
<polygon fill="#9a32cd" stroke="#9a32cd" points="113.722,-79.6496 114.926,-90.1758 120.549,-81.1964 113.722,-79.6496"/>
<text text-anchor="middle" x="169.5" y="-63" font-family="Helvetica,sans-Serif" font-size="10.00"> InterfaceMethods</text>
<text text-anchor="middle" x="169.5" y="-52" font-family="Helvetica,sans-Serif" font-size="10.00">TargetMethods</text>
</g>
<!-- Node9&#45;&gt;Node8 -->
<g id="edge9" class="edge"><title>Node9&#45;&gt;Node8</title>
<path fill="none" stroke="midnightblue" d="M119.489,-138.268C117.925,-128.533 116.09,-117.113 114.867,-109.505"/>
<polygon fill="midnightblue" stroke="midnightblue" points="116.051,-138.932 121.094,-148.25 122.963,-137.821 116.051,-138.932"/>
</g>
<!-- Node10 -->
<g id="node10" class="node"><title>Node10</title>
<g id="a_node10"><a xlink:href="interface_system_1_1_runtime_1_1_interop_services_1_1___method_base.html" target="_top" xlink:title="Exposes the public members of the T:System.Reflection.MethodBase class to unmanaged code.">
<polygon fill="none" stroke="black" points="21,-205.5 21,-224.5 98,-224.5 98,-205.5 21,-205.5"/>
<text text-anchor="middle" x="59.5" y="-212.5" font-family="Helvetica,sans-Serif" font-size="10.00">_MethodBase</text>
</a>
</g>
</g>
<!-- Node10&#45;&gt;Node9 -->
<g id="edge11" class="edge"><title>Node10&#45;&gt;Node9</title>
<path fill="none" stroke="midnightblue" d="M77.0163,-198.708C88.4628,-188.715 103,-176.024 112.517,-167.715"/>
<polygon fill="midnightblue" stroke="midnightblue" points="74.5751,-196.193 69.3438,-205.406 79.1788,-201.466 74.5751,-196.193"/>
</g>
<!-- Node11 -->
<g id="node11" class="node"><title>Node11</title>
<g id="a_node11"><a xlink:href="interface_system_1_1_runtime_1_1_interop_services_1_1___method_info.html" target="_top" xlink:title="Exposes the public members of the T:System.Reflection.MethodInfo class to unmanaged code.">
<polygon fill="none" stroke="black" points="0,-148.5 0,-167.5 69,-167.5 69,-148.5 0,-148.5"/>
<text text-anchor="middle" x="34.5" y="-155.5" font-family="Helvetica,sans-Serif" font-size="10.00">_MethodInfo</text>
</a>
</g>
</g>
<!-- Node11&#45;&gt;Node8 -->
<g id="edge12" class="edge"><title>Node11&#45;&gt;Node8</title>
<path fill="none" stroke="midnightblue" d="M54.9626,-142.495C69.6867,-132.058 89.0493,-118.332 101.389,-109.585"/>
<polygon fill="midnightblue" stroke="midnightblue" points="52.6326,-139.856 46.4984,-148.495 56.6807,-145.567 52.6326,-139.856"/>
</g>
</g>
</svg>
