<?xml version="1.0" encoding="UTF-8" standalone="no"?>
<!DOCTYPE svg PUBLIC "-//W3C//DTD SVG 1.1//EN"
 "http://www.w3.org/Graphics/SVG/1.1/DTD/svg11.dtd">
<!-- Generated by graphviz version 2.38.0 (20140413.2041)
 -->
<!-- Title: System.DateTimeResult Pages: 1 -->
<svg width="778pt" height="332pt"
 viewBox="0.00 0.00 778.00 332.00" xmlns="http://www.w3.org/2000/svg" xmlns:xlink="http://www.w3.org/1999/xlink">
<g id="graph0" class="graph" transform="scale(1 1) rotate(0) translate(4 328)">
<title>System.DateTimeResult</title>
<!-- Node1 -->
<g id="node1" class="node"><title>Node1</title>
<g id="a_node1"><a xlink:title=" ">
<polygon fill="#bfbfbf" stroke="black" points="648,-80.5 648,-99.5 770,-99.5 770,-80.5 648,-80.5"/>
<text text-anchor="middle" x="709" y="-87.5" font-family="Helvetica,sans-Serif" font-size="10.00">System.DateTimeResult</text>
</a>
</g>
</g>
<!-- Node2 -->
<g id="node2" class="node"><title>Node2</title>
<g id="a_node2"><a xlink:href="struct_system_1_1_date_time.html" target="_top" xlink:title="Represents an instant in time, typically expressed as a date and time of day. To browse the ....">
<polygon fill="none" stroke="black" points="420,-193.5 420,-212.5 515,-212.5 515,-193.5 420,-193.5"/>
<text text-anchor="middle" x="467.5" y="-200.5" font-family="Helvetica,sans-Serif" font-size="10.00">System.DateTime</text>
</a>
</g>
</g>
<!-- Node2&#45;&gt;Node1 -->
<g id="edge1" class="edge"><title>Node2&#45;&gt;Node1</title>
<path fill="none" stroke="#9a32cd" stroke-dasharray="5,2" d="M498.111,-189.029C547.455,-165.748 645.257,-119.603 687.632,-99.6099"/>
<polygon fill="#9a32cd" stroke="#9a32cd" points="496.47,-185.933 488.92,-193.366 499.457,-192.264 496.47,-185.933"/>
<text text-anchor="middle" x="595.5" y="-159" font-family="Helvetica,sans-Serif" font-size="10.00"> parsedDate</text>
</g>
<!-- Node2&#45;&gt;Node2 -->
<g id="edge10" class="edge"><title>Node2&#45;&gt;Node2</title>
<path fill="none" stroke="#9a32cd" stroke-dasharray="5,2" d="M450.093,-222.4C451.256,-227.315 457.058,-231 467.5,-231 484.207,-231 489.036,-221.565 481.988,-212.757"/>
<polygon fill="#9a32cd" stroke="#9a32cd" points="453.465,-223.342 453.012,-212.757 446.765,-221.314 453.465,-223.342"/>
<text text-anchor="middle" x="467.5" y="-245" font-family="Helvetica,sans-Serif" font-size="10.00"> MaxValue</text>
<text text-anchor="middle" x="467.5" y="-234" font-family="Helvetica,sans-Serif" font-size="10.00">MinValue</text>
</g>
<!-- Node3 -->
<g id="node3" class="node"><title>Node3</title>
<g id="a_node3"><a xlink:href="interface_system_1_1_i_comparable.html" target="_top" xlink:title="Defines a generalized type&#45;specific comparison method that a value type or class implements to order ...">
<polygon fill="none" stroke="black" points="253.5,-114.5 253.5,-133.5 324.5,-133.5 324.5,-114.5 253.5,-114.5"/>
<text text-anchor="middle" x="289" y="-121.5" font-family="Helvetica,sans-Serif" font-size="10.00">IComparable</text>
</a>
</g>
</g>
<!-- Node3&#45;&gt;Node2 -->
<g id="edge2" class="edge"><title>Node3&#45;&gt;Node2</title>
<path fill="none" stroke="midnightblue" d="M334.554,-135.675C341.483,-137.876 348.495,-140.333 355,-143 390.798,-157.674 430.075,-180.531 451.127,-193.383"/>
<polygon fill="midnightblue" stroke="midnightblue" points="335.119,-132.189 324.534,-132.641 333.09,-138.889 335.119,-132.189"/>
</g>
<!-- Node13 -->
<g id="node13" class="node"><title>Node13</title>
<g id="a_node13"><a xlink:href="struct_system_1_1_time_span.html" target="_top" xlink:title="Represents a time interval.To browse the .NET Framework source code for this type,...">
<polygon fill="none" stroke="black" points="419,-80.5 419,-99.5 516,-99.5 516,-80.5 419,-80.5"/>
<text text-anchor="middle" x="467.5" y="-87.5" font-family="Helvetica,sans-Serif" font-size="10.00">System.TimeSpan</text>
</a>
</g>
</g>
<!-- Node3&#45;&gt;Node13 -->
<g id="edge14" class="edge"><title>Node3&#45;&gt;Node13</title>
<path fill="none" stroke="midnightblue" d="M334.706,-115.388C360.345,-110.449 392.528,-104.25 418.673,-99.2131"/>
<polygon fill="midnightblue" stroke="midnightblue" points="334.028,-111.954 324.871,-117.283 335.352,-118.828 334.028,-111.954"/>
</g>
<!-- Node4 -->
<g id="node4" class="node"><title>Node4</title>
<g id="a_node4"><a xlink:href="interface_system_1_1_i_formattable.html" target="_top" xlink:title="Provides functionality to format the value of an object into a string representation.">
<polygon fill="none" stroke="black" points="253.5,-152.5 253.5,-171.5 324.5,-171.5 324.5,-152.5 253.5,-152.5"/>
<text text-anchor="middle" x="289" y="-159.5" font-family="Helvetica,sans-Serif" font-size="10.00">IFormattable</text>
</a>
</g>
</g>
<!-- Node4&#45;&gt;Node2 -->
<g id="edge3" class="edge"><title>Node4&#45;&gt;Node2</title>
<path fill="none" stroke="midnightblue" d="M334.775,-172.401C362.688,-178.885 398.337,-187.166 425.508,-193.478"/>
<polygon fill="midnightblue" stroke="midnightblue" points="335.403,-168.954 324.871,-170.1 333.819,-175.772 335.403,-168.954"/>
</g>
<!-- Node4&#45;&gt;Node13 -->
<g id="edge19" class="edge"><title>Node4&#45;&gt;Node13</title>
<path fill="none" stroke="midnightblue" d="M334.675,-149.964C341.542,-147.82 348.504,-145.475 355,-143 389.048,-130.026 427.045,-110.911 448.732,-99.5327"/>
<polygon fill="midnightblue" stroke="midnightblue" points="333.315,-146.718 324.747,-152.951 335.332,-153.421 333.315,-146.718"/>
</g>
<!-- Node5 -->
<g id="node5" class="node"><title>Node5</title>
<g id="a_node5"><a xlink:href="interface_system_1_1_i_convertible.html" target="_top" xlink:title="Defines methods that convert the value of the implementing reference or value type to a common langua...">
<polygon fill="none" stroke="black" points="256,-190.5 256,-209.5 322,-209.5 322,-190.5 256,-190.5"/>
<text text-anchor="middle" x="289" y="-197.5" font-family="Helvetica,sans-Serif" font-size="10.00">IConvertible</text>
</a>
</g>
</g>
<!-- Node5&#45;&gt;Node2 -->
<g id="edge4" class="edge"><title>Node5&#45;&gt;Node2</title>
<path fill="none" stroke="midnightblue" d="M332.424,-200.721C358.747,-201.169 392.598,-201.744 419.701,-202.205"/>
<polygon fill="midnightblue" stroke="midnightblue" points="332.431,-197.221 322.373,-200.55 332.312,-204.22 332.431,-197.221"/>
</g>
<!-- Node6 -->
<g id="node6" class="node"><title>Node6</title>
<g id="a_node6"><a xlink:href="interface_system_1_1_runtime_1_1_serialization_1_1_i_serializable.html" target="_top" xlink:title="Allows an object to control its own serialization and deserialization.">
<polygon fill="none" stroke="black" points="254.5,-304.5 254.5,-323.5 323.5,-323.5 323.5,-304.5 254.5,-304.5"/>
<text text-anchor="middle" x="289" y="-311.5" font-family="Helvetica,sans-Serif" font-size="10.00">ISerializable</text>
</a>
</g>
</g>
<!-- Node6&#45;&gt;Node2 -->
<g id="edge5" class="edge"><title>Node6&#45;&gt;Node2</title>
<path fill="none" stroke="midnightblue" d="M333.645,-303.905C340.978,-301.465 348.357,-298.519 355,-295 398.024,-272.21 439.872,-231.127 457.618,-212.565"/>
<polygon fill="midnightblue" stroke="midnightblue" points="332.29,-300.659 323.746,-306.925 334.333,-307.354 332.29,-300.659"/>
</g>
<!-- Node7 -->
<g id="node7" class="node"><title>Node7</title>
<g id="a_node7"><a xlink:href="interface_system_1_1_i_comparable.html" target="_top" xlink:title=" ">
<polygon fill="none" stroke="black" points="224,-266.5 224,-285.5 354,-285.5 354,-266.5 224,-266.5"/>
<text text-anchor="middle" x="289" y="-273.5" font-family="Helvetica,sans-Serif" font-size="10.00">IComparable&lt; DateTime &gt;</text>
</a>
</g>
</g>
<!-- Node7&#45;&gt;Node2 -->
<g id="edge6" class="edge"><title>Node7&#45;&gt;Node2</title>
<path fill="none" stroke="midnightblue" d="M336.543,-263.422C342.802,-261.432 349.096,-259.274 355,-257 389.321,-243.779 427.54,-224.127 449.137,-212.534"/>
<polygon fill="midnightblue" stroke="midnightblue" points="335.336,-260.131 326.797,-266.402 337.384,-266.824 335.336,-260.131"/>
</g>
<!-- Node8 -->
<g id="node8" class="node"><title>Node8</title>
<g id="a_node8"><a xlink:href="interface_system_1_1_i_comparable.html" target="_top" xlink:title="Defines a generalized type&#45;specific comparison method that a value type or class implements to order ...">
<polygon fill="none" stroke="black" points="7.5,-204.5 7.5,-223.5 114.5,-223.5 114.5,-204.5 7.5,-204.5"/>
<text text-anchor="middle" x="61" y="-211.5" font-family="Helvetica,sans-Serif" font-size="10.00">System.IComparable</text>
</a>
</g>
</g>
<!-- Node8&#45;&gt;Node7 -->
<g id="edge7" class="edge"><title>Node8&#45;&gt;Node7</title>
<path fill="none" stroke="orange" stroke-dasharray="5,2" d="M106.727,-226.27C149.722,-238.065 213.809,-255.647 253.143,-266.438"/>
<polygon fill="orange" stroke="orange" points="107.387,-222.822 96.8172,-223.552 105.535,-229.573 107.387,-222.822"/>
<text text-anchor="middle" x="172.5" y="-255" font-family="Helvetica,sans-Serif" font-size="10.00"> &lt; DateTime &gt;</text>
</g>
<!-- Node14 -->
<g id="node14" class="node"><title>Node14</title>
<g id="a_node14"><a xlink:href="interface_system_1_1_i_comparable.html" target="_top" xlink:title=" ">
<polygon fill="none" stroke="black" points="223,-76.5 223,-95.5 355,-95.5 355,-76.5 223,-76.5"/>
<text text-anchor="middle" x="289" y="-83.5" font-family="Helvetica,sans-Serif" font-size="10.00">IComparable&lt; TimeSpan &gt;</text>
</a>
</g>
</g>
<!-- Node8&#45;&gt;Node14 -->
<g id="edge16" class="edge"><title>Node8&#45;&gt;Node14</title>
<path fill="none" stroke="orange" stroke-dasharray="5,2" d="M81.4409,-197.857C110.542,-174.412 167.917,-130.916 223,-105 230.872,-101.296 239.625,-98.146 248.091,-95.5389"/>
<polygon fill="orange" stroke="orange" points="78.8931,-195.418 73.351,-204.448 83.3145,-200.845 78.8931,-195.418"/>
<text text-anchor="middle" x="172.5" y="-156" font-family="Helvetica,sans-Serif" font-size="10.00"> &lt; TimeSpan &gt;</text>
</g>
<!-- Node9 -->
<g id="node9" class="node"><title>Node9</title>
<g id="a_node9"><a xlink:href="interface_system_1_1_i_equatable.html" target="_top" xlink:title=" ">
<polygon fill="none" stroke="black" points="228,-228.5 228,-247.5 350,-247.5 350,-228.5 228,-228.5"/>
<text text-anchor="middle" x="289" y="-235.5" font-family="Helvetica,sans-Serif" font-size="10.00">IEquatable&lt; DateTime &gt;</text>
</a>
</g>
</g>
<!-- Node9&#45;&gt;Node2 -->
<g id="edge8" class="edge"><title>Node9&#45;&gt;Node2</title>
<path fill="none" stroke="midnightblue" d="M348.313,-226.436C371.547,-221.829 397.922,-216.599 419.853,-212.25"/>
<polygon fill="midnightblue" stroke="midnightblue" points="347.358,-223.058 338.229,-228.436 348.719,-229.924 347.358,-223.058"/>
</g>
<!-- Node10 -->
<g id="node10" class="node"><title>Node10</title>
<g id="a_node10"><a xlink:href="interface_system_1_1_i_equatable.html" target="_top" xlink:title="Defines a generalized method that a value type or class implements to create a type&#45;specific method f...">
<polygon fill="none" stroke="black" points="0,-120.5 0,-139.5 122,-139.5 122,-120.5 0,-120.5"/>
<text text-anchor="middle" x="61" y="-127.5" font-family="Helvetica,sans-Serif" font-size="10.00">System.IEquatable&lt; T &gt;</text>
</a>
</g>
</g>
<!-- Node10&#45;&gt;Node9 -->
<g id="edge9" class="edge"><title>Node10&#45;&gt;Node9</title>
<path fill="none" stroke="orange" stroke-dasharray="5,2" d="M85.6634,-145.269C116.341,-164.543 171.968,-197.743 223,-219 231.574,-222.571 241.046,-225.748 250.046,-228.433"/>
<polygon fill="orange" stroke="orange" points="87.2966,-142.16 76.9765,-139.763 83.5491,-148.073 87.2966,-142.16"/>
<text text-anchor="middle" x="172.5" y="-213" font-family="Helvetica,sans-Serif" font-size="10.00"> &lt; DateTime &gt;</text>
</g>
<!-- Node15 -->
<g id="node15" class="node"><title>Node15</title>
<g id="a_node15"><a xlink:href="interface_system_1_1_i_equatable.html" target="_top" xlink:title=" ">
<polygon fill="none" stroke="black" points="227,-38.5 227,-57.5 351,-57.5 351,-38.5 227,-38.5"/>
<text text-anchor="middle" x="289" y="-45.5" font-family="Helvetica,sans-Serif" font-size="10.00">IEquatable&lt; TimeSpan &gt;</text>
</a>
</g>
</g>
<!-- Node10&#45;&gt;Node15 -->
<g id="edge18" class="edge"><title>Node10&#45;&gt;Node15</title>
<path fill="none" stroke="orange" stroke-dasharray="5,2" d="M78.2916,-113.008C93.0041,-98.7858 115.976,-79.2232 140,-69 167.103,-57.4665 199.266,-52.0321 226.673,-49.5556"/>
<polygon fill="orange" stroke="orange" points="75.6223,-110.727 71.0134,-120.267 80.5655,-115.684 75.6223,-110.727"/>
<text text-anchor="middle" x="172.5" y="-72" font-family="Helvetica,sans-Serif" font-size="10.00"> &lt; TimeSpan &gt;</text>
</g>
<!-- Node11 -->
<g id="node11" class="node"><title>Node11</title>
<g id="a_node11"><a xlink:href="class_system_1_1_globalization_1_1_calendar.html" target="_top" xlink:title="Represents time in divisions, such as weeks, months, and years.">
<polygon fill="none" stroke="black" points="392,-27.5 392,-46.5 543,-46.5 543,-27.5 392,-27.5"/>
<text text-anchor="middle" x="467.5" y="-34.5" font-family="Helvetica,sans-Serif" font-size="10.00">System.Globalization.Calendar</text>
</a>
</g>
</g>
<!-- Node11&#45;&gt;Node1 -->
<g id="edge11" class="edge"><title>Node11&#45;&gt;Node1</title>
<path fill="none" stroke="#9a32cd" stroke-dasharray="5,2" d="M521.613,-48.7537C564.704,-58.2894 624.683,-71.5623 664.848,-80.4508"/>
<polygon fill="#9a32cd" stroke="#9a32cd" points="522.114,-45.28 511.594,-46.5365 520.602,-52.1146 522.114,-45.28"/>
<text text-anchor="middle" x="595.5" y="-74" font-family="Helvetica,sans-Serif" font-size="10.00"> calendar</text>
</g>
<!-- Node12 -->
<g id="node12" class="node"><title>Node12</title>
<g id="a_node12"><a xlink:href="interface_system_1_1_i_cloneable.html" target="_top" xlink:title="Supports cloning, which creates a new instance of a class with the same value as an existing instance...">
<polygon fill="none" stroke="black" points="258,-0.5 258,-19.5 320,-19.5 320,-0.5 258,-0.5"/>
<text text-anchor="middle" x="289" y="-7.5" font-family="Helvetica,sans-Serif" font-size="10.00">ICloneable</text>
</a>
</g>
</g>
<!-- Node12&#45;&gt;Node11 -->
<g id="edge12" class="edge"><title>Node12&#45;&gt;Node11</title>
<path fill="none" stroke="midnightblue" d="M330.252,-16.1575C352.074,-19.4958 379.524,-23.6949 404.056,-27.4477"/>
<polygon fill="midnightblue" stroke="midnightblue" points="330.756,-12.694 320.341,-14.6415 329.697,-19.6135 330.756,-12.694"/>
</g>
<!-- Node13&#45;&gt;Node1 -->
<g id="edge13" class="edge"><title>Node13&#45;&gt;Node1</title>
<path fill="none" stroke="#9a32cd" stroke-dasharray="5,2" d="M526.167,-90C562.921,-90 610.461,-90 647.713,-90"/>
<polygon fill="#9a32cd" stroke="#9a32cd" points="526.104,-86.5001 516.104,-90 526.104,-93.5001 526.104,-86.5001"/>
<text text-anchor="middle" x="595.5" y="-93" font-family="Helvetica,sans-Serif" font-size="10.00"> timeZoneOffset</text>
</g>
<!-- Node13&#45;&gt;Node13 -->
<g id="edge20" class="edge"><title>Node13&#45;&gt;Node13</title>
<path fill="none" stroke="#9a32cd" stroke-dasharray="5,2" d="M450.093,-109.4C451.256,-114.315 457.058,-118 467.5,-118 484.207,-118 489.036,-108.565 481.988,-99.7571"/>
<polygon fill="#9a32cd" stroke="#9a32cd" points="453.465,-110.342 453.012,-99.7571 446.765,-108.314 453.465,-110.342"/>
<text text-anchor="middle" x="467.5" y="-143" font-family="Helvetica,sans-Serif" font-size="10.00"> MaxValue</text>
<text text-anchor="middle" x="467.5" y="-132" font-family="Helvetica,sans-Serif" font-size="10.00">Zero</text>
<text text-anchor="middle" x="467.5" y="-121" font-family="Helvetica,sans-Serif" font-size="10.00">MinValue</text>
</g>
<!-- Node14&#45;&gt;Node13 -->
<g id="edge15" class="edge"><title>Node14&#45;&gt;Node13</title>
<path fill="none" stroke="midnightblue" d="M365.236,-87.7051C383.439,-88.1176 402.397,-88.5472 418.921,-88.9217"/>
<polygon fill="midnightblue" stroke="midnightblue" points="365.297,-84.2057 355.221,-87.4781 365.139,-91.2039 365.297,-84.2057"/>
</g>
<!-- Node15&#45;&gt;Node13 -->
<g id="edge17" class="edge"><title>Node15&#45;&gt;Node13</title>
<path fill="none" stroke="midnightblue" d="M339.824,-59.856C367.172,-66.3638 400.638,-74.3274 426.303,-80.4347"/>
<polygon fill="midnightblue" stroke="midnightblue" points="340.589,-56.4406 330.051,-57.5305 338.969,-63.2504 340.589,-56.4406"/>
</g>
</g>
</svg>
