<?xml version="1.0" encoding="UTF-8" standalone="no"?>
<!DOCTYPE svg PUBLIC "-//W3C//DTD SVG 1.1//EN"
 "http://www.w3.org/Graphics/SVG/1.1/DTD/svg11.dtd">
<!-- Generated by graphviz version 2.38.0 (20140413.2041)
 -->
<!-- Title: System.Collections.Generic.LinkedList&lt; T &gt;.Enumerator Pages: 1 -->
<svg width="498pt" height="95pt"
 viewBox="0.00 0.00 498.00 95.00" xmlns="http://www.w3.org/2000/svg" xmlns:xlink="http://www.w3.org/1999/xlink">
<g id="graph0" class="graph" transform="scale(1 1) rotate(0) translate(4 91)">
<title>System.Collections.Generic.LinkedList&lt; T &gt;.Enumerator</title>
<!-- Node0 -->
<g id="node1" class="node"><title>Node0</title>
<g id="a_node1"><a xlink:title="Enumerates the elements of a T:System.Collections.Generic.LinkedList`1.">
<polygon fill="#bfbfbf" stroke="black" points="159.5,-0.5 159.5,-30.5 300.5,-30.5 300.5,-0.5 159.5,-0.5"/>
<text text-anchor="start" x="167.5" y="-18.5" font-family="Helvetica,sans-Serif" font-size="10.00">System.Collections.Generic.</text>
<text text-anchor="middle" x="230" y="-7.5" font-family="Helvetica,sans-Serif" font-size="10.00">LinkedList&lt; T &gt;.Enumerator</text>
</a>
</g>
</g>
<!-- Node1 -->
<g id="node2" class="node"><title>Node1</title>
<g id="a_node2"><a xlink:href="interface_system_1_1_collections_1_1_generic_1_1_i_enumerator.html" target="_top" xlink:title=" ">
<polygon fill="none" stroke="red" points="0,-67.5 0,-86.5 92,-86.5 92,-67.5 0,-67.5"/>
<text text-anchor="middle" x="46" y="-74.5" font-family="Helvetica,sans-Serif" font-size="10.00">IEnumerator&lt; T &gt;</text>
</a>
</g>
</g>
<!-- Node1&#45;&gt;Node0 -->
<g id="edge1" class="edge"><title>Node1&#45;&gt;Node0</title>
<path fill="none" stroke="midnightblue" d="M82.0052,-64.357C111.987,-54.6619 154.772,-40.8263 186.635,-30.523"/>
<polygon fill="midnightblue" stroke="midnightblue" points="80.8007,-61.068 72.3627,-67.4751 82.9545,-67.7284 80.8007,-61.068"/>
</g>
<!-- Node3 -->
<g id="node3" class="node"><title>Node3</title>
<g id="a_node3"><a xlink:href="interface_system_1_1_i_disposable.html" target="_top" xlink:title="Provides a mechanism for releasing unmanaged resources.To browse the .NET Framework source code for t...">
<polygon fill="none" stroke="red" points="110.5,-67.5 110.5,-86.5 177.5,-86.5 177.5,-67.5 110.5,-67.5"/>
<text text-anchor="middle" x="144" y="-74.5" font-family="Helvetica,sans-Serif" font-size="10.00">IDisposable</text>
</a>
</g>
</g>
<!-- Node3&#45;&gt;Node0 -->
<g id="edge2" class="edge"><title>Node3&#45;&gt;Node0</title>
<path fill="none" stroke="midnightblue" d="M164.613,-61.739C178.281,-52.2824 196.134,-39.9304 209.732,-30.523"/>
<polygon fill="midnightblue" stroke="midnightblue" points="162.554,-58.9072 156.322,-67.4751 166.537,-64.6637 162.554,-58.9072"/>
</g>
<!-- Node4 -->
<g id="node4" class="node"><title>Node4</title>
<g id="a_node4"><a xlink:href="interface_system_1_1_collections_1_1_i_enumerator.html" target="_top" xlink:title="Supports a simple iteration over a non&#45;generic collection.">
<polygon fill="none" stroke="red" points="195.5,-67.5 195.5,-86.5 264.5,-86.5 264.5,-67.5 195.5,-67.5"/>
<text text-anchor="middle" x="230" y="-74.5" font-family="Helvetica,sans-Serif" font-size="10.00">IEnumerator</text>
</a>
</g>
</g>
<!-- Node4&#45;&gt;Node0 -->
<g id="edge3" class="edge"><title>Node4&#45;&gt;Node0</title>
<path fill="none" stroke="midnightblue" d="M230,-57.2349C230,-48.5864 230,-38.4969 230,-30.523"/>
<polygon fill="midnightblue" stroke="midnightblue" points="226.5,-57.4751 230,-67.4751 233.5,-57.4751 226.5,-57.4751"/>
</g>
<!-- Node5 -->
<g id="node5" class="node"><title>Node5</title>
<g id="a_node5"><a xlink:href="interface_system_1_1_runtime_1_1_serialization_1_1_i_serializable.html" target="_top" xlink:title="Allows an object to control its own serialization and deserialization.">
<polygon fill="none" stroke="black" points="282.5,-67.5 282.5,-86.5 351.5,-86.5 351.5,-67.5 282.5,-67.5"/>
<text text-anchor="middle" x="317" y="-74.5" font-family="Helvetica,sans-Serif" font-size="10.00">ISerializable</text>
</a>
</g>
</g>
<!-- Node5&#45;&gt;Node0 -->
<g id="edge4" class="edge"><title>Node5&#45;&gt;Node0</title>
<path fill="none" stroke="midnightblue" d="M296.148,-61.739C282.321,-52.2824 264.26,-39.9304 250.504,-30.523"/>
<polygon fill="midnightblue" stroke="midnightblue" points="294.305,-64.7189 304.535,-67.4751 298.257,-58.9409 294.305,-64.7189"/>
</g>
<!-- Node6 -->
<g id="node6" class="node"><title>Node6</title>
<g id="a_node6"><a xlink:href="interface_system_1_1_runtime_1_1_serialization_1_1_i_deserialization_callback.html" target="_top" xlink:title="Indicates that a class is to be notified when deserialization of the entire object graph has been com...">
<polygon fill="none" stroke="black" points="370,-67.5 370,-86.5 490,-86.5 490,-67.5 370,-67.5"/>
<text text-anchor="middle" x="430" y="-74.5" font-family="Helvetica,sans-Serif" font-size="10.00">IDeserializationCallback</text>
</a>
</g>
</g>
<!-- Node6&#45;&gt;Node0 -->
<g id="edge5" class="edge"><title>Node6&#45;&gt;Node0</title>
<path fill="none" stroke="midnightblue" d="M391.711,-64.609C359.085,-54.9028 312.07,-40.9159 277.136,-30.523"/>
<polygon fill="midnightblue" stroke="midnightblue" points="390.762,-67.9782 401.345,-67.4751 392.758,-61.2688 390.762,-67.9782"/>
</g>
</g>
</svg>
