<?xml version="1.0" encoding="UTF-8" standalone="no"?>
<!DOCTYPE svg PUBLIC "-//W3C//DTD SVG 1.1//EN"
 "http://www.w3.org/Graphics/SVG/1.1/DTD/svg11.dtd">
<!-- Generated by graphviz version 2.38.0 (20140413.2041)
 -->
<!-- Title: System.Collections.Generic.List&lt; T &gt;.Enumerator Pages: 1 -->
<svg width="177pt" height="151pt"
 viewBox="0.00 0.00 177.00 151.00" xmlns="http://www.w3.org/2000/svg" xmlns:xlink="http://www.w3.org/1999/xlink">
<g id="graph0" class="graph" transform="scale(1 1) rotate(0) translate(4 147)">
<title>System.Collections.Generic.List&lt; T &gt;.Enumerator</title>
<!-- Node4 -->
<g id="node1" class="node"><title>Node4</title>
<g id="a_node1"><a xlink:title="Enumerates the elements of a T:System.Collections.Generic.List`1.">
<polygon fill="#bfbfbf" stroke="black" points="6,-0.5 6,-30.5 147,-30.5 147,-0.5 6,-0.5"/>
<text text-anchor="start" x="14" y="-18.5" font-family="Helvetica,sans-Serif" font-size="10.00">System.Collections.Generic.</text>
<text text-anchor="middle" x="76.5" y="-7.5" font-family="Helvetica,sans-Serif" font-size="10.00">List&lt; T &gt;.Enumerator</text>
</a>
</g>
</g>
<!-- Node5 -->
<g id="node2" class="node"><title>Node5</title>
<g id="a_node2"><a xlink:href="interface_system_1_1_collections_1_1_generic_1_1_i_enumerator.html" target="_top" xlink:title="Supports a simple iteration over a generic collection.">
<polygon fill="none" stroke="black" points="30.5,-67.5 30.5,-86.5 122.5,-86.5 122.5,-67.5 30.5,-67.5"/>
<text text-anchor="middle" x="76.5" y="-74.5" font-family="Helvetica,sans-Serif" font-size="10.00">IEnumerator&lt; T &gt;</text>
</a>
</g>
</g>
<!-- Node5&#45;&gt;Node4 -->
<g id="edge1" class="edge"><title>Node5&#45;&gt;Node4</title>
<path fill="none" stroke="midnightblue" d="M76.5,-57.2349C76.5,-48.5864 76.5,-38.4969 76.5,-30.523"/>
<polygon fill="midnightblue" stroke="midnightblue" points="73.0001,-57.4751 76.5,-67.4751 80.0001,-57.4751 73.0001,-57.4751"/>
</g>
<!-- Node6 -->
<g id="node3" class="node"><title>Node6</title>
<g id="a_node3"><a xlink:href="interface_system_1_1_i_disposable.html" target="_top" xlink:title="Provides a mechanism for releasing unmanaged resources.To browse the .NET Framework source code for t...">
<polygon fill="none" stroke="black" points="0,-123.5 0,-142.5 67,-142.5 67,-123.5 0,-123.5"/>
<text text-anchor="middle" x="33.5" y="-130.5" font-family="Helvetica,sans-Serif" font-size="10.00">IDisposable</text>
</a>
</g>
</g>
<!-- Node6&#45;&gt;Node4 -->
<g id="edge4" class="edge"><title>Node6&#45;&gt;Node4</title>
<path fill="none" stroke="midnightblue" d="M24.5841,-113.695C19.3558,-100.294 14.9433,-81.9217 21.5,-67 28.1229,-51.9277 41.7107,-39.3815 53.7228,-30.5644"/>
<polygon fill="midnightblue" stroke="midnightblue" points="21.5373,-115.462 28.758,-123.215 27.9482,-112.651 21.5373,-115.462"/>
</g>
<!-- Node6&#45;&gt;Node5 -->
<g id="edge2" class="edge"><title>Node6&#45;&gt;Node5</title>
<path fill="none" stroke="midnightblue" d="M46.9224,-115.144C54.4142,-105.736 63.4371,-94.4046 69.5315,-86.7511"/>
<polygon fill="midnightblue" stroke="midnightblue" points="44.0919,-113.08 40.6006,-123.083 49.5679,-117.44 44.0919,-113.08"/>
</g>
<!-- Node7 -->
<g id="node4" class="node"><title>Node7</title>
<g id="a_node4"><a xlink:href="interface_system_1_1_collections_1_1_i_enumerator.html" target="_top" xlink:title="Supports a simple iteration over a non&#45;generic collection.">
<polygon fill="none" stroke="black" points="100,-123.5 100,-142.5 169,-142.5 169,-123.5 100,-123.5"/>
<text text-anchor="middle" x="134.5" y="-130.5" font-family="Helvetica,sans-Serif" font-size="10.00">IEnumerator</text>
</a>
</g>
</g>
<!-- Node7&#45;&gt;Node4 -->
<g id="edge5" class="edge"><title>Node7&#45;&gt;Node4</title>
<path fill="none" stroke="midnightblue" d="M137.319,-113.063C138.466,-99.5867 138.224,-81.3927 131.5,-67 124.531,-52.0845 110.941,-39.5394 99.0138,-30.6838"/>
<polygon fill="midnightblue" stroke="midnightblue" points="133.832,-112.746 136.14,-123.086 140.784,-113.564 133.832,-112.746"/>
</g>
<!-- Node7&#45;&gt;Node5 -->
<g id="edge3" class="edge"><title>Node7&#45;&gt;Node5</title>
<path fill="none" stroke="midnightblue" d="M117.587,-116.253C107.297,-106.673 94.5343,-94.7906 85.9883,-86.8339"/>
<polygon fill="midnightblue" stroke="midnightblue" points="115.477,-119.071 125.181,-123.324 120.247,-113.948 115.477,-119.071"/>
</g>
</g>
</svg>
