<?xml version="1.0" encoding="UTF-8" standalone="no"?>
<!DOCTYPE svg PUBLIC "-//W3C//DTD SVG 1.1//EN"
 "http://www.w3.org/Graphics/SVG/1.1/DTD/svg11.dtd">
<!-- Generated by graphviz version 2.38.0 (20140413.2041)
 -->
<!-- Title: System.Runtime.InteropServices.ComTypes.STATSTG Pages: 1 -->
<svg width="432pt" height="263pt"
 viewBox="0.00 0.00 432.00 263.00" xmlns="http://www.w3.org/2000/svg" xmlns:xlink="http://www.w3.org/1999/xlink">
<g id="graph0" class="graph" transform="scale(1 1) rotate(0) translate(4 259)">
<title>System.Runtime.InteropServices.ComTypes.STATSTG</title>
<!-- Node1 -->
<g id="node1" class="node"><title>Node1</title>
<g id="a_node1"><a xlink:title="Contains statistical information about an open storage, stream, or byte&#45;array object.">
<polygon fill="#bfbfbf" stroke="black" points="216,-0.5 216,-30.5 377,-30.5 377,-0.5 216,-0.5"/>
<text text-anchor="start" x="224" y="-18.5" font-family="Helvetica,sans-Serif" font-size="10.00">System.Runtime.InteropServices.</text>
<text text-anchor="middle" x="296.5" y="-7.5" font-family="Helvetica,sans-Serif" font-size="10.00">ComTypes.STATSTG</text>
</a>
</g>
</g>
<!-- Node2 -->
<g id="node2" class="node"><title>Node2</title>
<g id="a_node2"><a xlink:href="struct_system_1_1_guid.html" target="_top" xlink:title="Represents a globally unique identifier (GUID).To browse the .NET Framework source code for this type...">
<polygon fill="none" stroke="black" points="120.5,-106 120.5,-125 194.5,-125 194.5,-106 120.5,-106"/>
<text text-anchor="middle" x="157.5" y="-113" font-family="Helvetica,sans-Serif" font-size="10.00">System.Guid</text>
</a>
</g>
</g>
<!-- Node2&#45;&gt;Node1 -->
<g id="edge1" class="edge"><title>Node2&#45;&gt;Node1</title>
<path fill="none" stroke="#9a32cd" stroke-dasharray="5,2" d="M178.015,-100.036C204.477,-81.3795 250.213,-49.1341 276.448,-30.6372"/>
<polygon fill="#9a32cd" stroke="#9a32cd" points="175.991,-97.1804 169.835,-105.803 180.025,-102.901 175.991,-97.1804"/>
<text text-anchor="middle" x="260.5" y="-63" font-family="Helvetica,sans-Serif" font-size="10.00"> clsid</text>
</g>
<!-- Node2&#45;&gt;Node2 -->
<g id="edge8" class="edge"><title>Node2&#45;&gt;Node2</title>
<path fill="none" stroke="#9a32cd" stroke-dasharray="5,2" d="M204.686,-120.73C209.457,-119.692 212.5,-117.949 212.5,-115.5 212.5,-111.582 204.71,-109.47 194.515,-109.164"/>
<polygon fill="#9a32cd" stroke="#9a32cd" points="204.078,-117.275 194.515,-121.836 204.835,-124.234 204.078,-117.275"/>
<text text-anchor="middle" x="228.5" y="-113" font-family="Helvetica,sans-Serif" font-size="10.00"> Empty</text>
</g>
<!-- Node3 -->
<g id="node3" class="node"><title>Node3</title>
<g id="a_node3"><a xlink:href="interface_system_1_1_i_formattable.html" target="_top" xlink:title="Provides functionality to format the value of an object into a string representation.">
<polygon fill="none" stroke="black" points="0,-168.5 0,-187.5 71,-187.5 71,-168.5 0,-168.5"/>
<text text-anchor="middle" x="35.5" y="-175.5" font-family="Helvetica,sans-Serif" font-size="10.00">IFormattable</text>
</a>
</g>
</g>
<!-- Node3&#45;&gt;Node2 -->
<g id="edge2" class="edge"><title>Node3&#45;&gt;Node2</title>
<path fill="none" stroke="midnightblue" d="M61.8374,-163.939C85.4777,-152.216 119.514,-135.337 139.972,-125.192"/>
<polygon fill="midnightblue" stroke="midnightblue" points="60.1248,-160.882 52.7209,-168.46 63.2348,-167.153 60.1248,-160.882"/>
</g>
<!-- Node4 -->
<g id="node4" class="node"><title>Node4</title>
<g id="a_node4"><a xlink:href="interface_system_1_1_i_comparable.html" target="_top" xlink:title="Defines a generalized type&#45;specific comparison method that a value type or class implements to order ...">
<polygon fill="none" stroke="black" points="89,-168.5 89,-187.5 160,-187.5 160,-168.5 89,-168.5"/>
<text text-anchor="middle" x="124.5" y="-175.5" font-family="Helvetica,sans-Serif" font-size="10.00">IComparable</text>
</a>
</g>
</g>
<!-- Node4&#45;&gt;Node2 -->
<g id="edge3" class="edge"><title>Node4&#45;&gt;Node2</title>
<path fill="none" stroke="midnightblue" d="M134.111,-159.379C140.247,-148.13 147.932,-134.041 152.781,-125.152"/>
<polygon fill="midnightblue" stroke="midnightblue" points="130.944,-157.877 129.228,-168.332 137.089,-161.229 130.944,-157.877"/>
</g>
<!-- Node5 -->
<g id="node5" class="node"><title>Node5</title>
<g id="a_node5"><a xlink:href="interface_system_1_1_i_comparable.html" target="_top" xlink:title=" ">
<polygon fill="none" stroke="black" points="178,-168.5 178,-187.5 287,-187.5 287,-168.5 178,-168.5"/>
<text text-anchor="middle" x="232.5" y="-175.5" font-family="Helvetica,sans-Serif" font-size="10.00">IComparable&lt; Guid &gt;</text>
</a>
</g>
</g>
<!-- Node5&#45;&gt;Node2 -->
<g id="edge4" class="edge"><title>Node5&#45;&gt;Node2</title>
<path fill="none" stroke="midnightblue" d="M213.963,-162.047C199.576,-150.441 180.136,-134.759 168.226,-125.152"/>
<polygon fill="midnightblue" stroke="midnightblue" points="211.773,-164.777 221.754,-168.332 216.168,-159.329 211.773,-164.777"/>
</g>
<!-- Node6 -->
<g id="node6" class="node"><title>Node6</title>
<g id="a_node6"><a xlink:href="interface_system_1_1_i_comparable.html" target="_top" xlink:title="Defines a generalized type&#45;specific comparison method that a value type or class implements to order ...">
<polygon fill="none" stroke="black" points="174,-235.5 174,-254.5 281,-254.5 281,-235.5 174,-235.5"/>
<text text-anchor="middle" x="227.5" y="-242.5" font-family="Helvetica,sans-Serif" font-size="10.00">System.IComparable</text>
</a>
</g>
</g>
<!-- Node6&#45;&gt;Node5 -->
<g id="edge5" class="edge"><title>Node6&#45;&gt;Node5</title>
<path fill="none" stroke="orange" stroke-dasharray="5,2" d="M228.959,-225.037C229.91,-212.67 231.106,-197.12 231.836,-187.627"/>
<polygon fill="orange" stroke="orange" points="225.452,-224.995 228.174,-235.234 232.431,-225.532 225.452,-224.995"/>
<text text-anchor="middle" x="251.5" y="-209" font-family="Helvetica,sans-Serif" font-size="10.00"> &lt; Guid &gt;</text>
</g>
<!-- Node7 -->
<g id="node7" class="node"><title>Node7</title>
<g id="a_node7"><a xlink:href="interface_system_1_1_i_equatable.html" target="_top" xlink:title=" ">
<polygon fill="none" stroke="black" points="308,-168.5 308,-187.5 409,-187.5 409,-168.5 308,-168.5"/>
<text text-anchor="middle" x="358.5" y="-175.5" font-family="Helvetica,sans-Serif" font-size="10.00">IEquatable&lt; Guid &gt;</text>
</a>
</g>
</g>
<!-- Node7&#45;&gt;Node2 -->
<g id="edge6" class="edge"><title>Node7&#45;&gt;Node2</title>
<path fill="none" stroke="midnightblue" d="M320.416,-165.537C281.292,-153.761 221.278,-135.697 186.052,-125.094"/>
<polygon fill="midnightblue" stroke="midnightblue" points="319.543,-168.929 330.128,-168.46 321.561,-162.226 319.543,-168.929"/>
</g>
<!-- Node8 -->
<g id="node8" class="node"><title>Node8</title>
<g id="a_node8"><a xlink:href="interface_system_1_1_i_equatable.html" target="_top" xlink:title="Defines a generalized method that a value type or class implements to create a type&#45;specific method f...">
<polygon fill="none" stroke="black" points="299.5,-235.5 299.5,-254.5 421.5,-254.5 421.5,-235.5 299.5,-235.5"/>
<text text-anchor="middle" x="360.5" y="-242.5" font-family="Helvetica,sans-Serif" font-size="10.00">System.IEquatable&lt; T &gt;</text>
</a>
</g>
</g>
<!-- Node8&#45;&gt;Node7 -->
<g id="edge7" class="edge"><title>Node8&#45;&gt;Node7</title>
<path fill="none" stroke="orange" stroke-dasharray="5,2" d="M359.917,-225.037C359.536,-212.67 359.058,-197.12 358.765,-187.627"/>
<polygon fill="orange" stroke="orange" points="356.424,-225.346 360.23,-235.234 363.421,-225.131 356.424,-225.346"/>
<text text-anchor="middle" x="381.5" y="-209" font-family="Helvetica,sans-Serif" font-size="10.00"> &lt; Guid &gt;</text>
</g>
<!-- Node9 -->
<g id="node9" class="node"><title>Node9</title>
<g id="a_node9"><a xlink:href="struct_system_1_1_runtime_1_1_interop_services_1_1_com_types_1_1_f_i_l_e_t_i_m_e.html" target="_top" xlink:title="Represents the number of 100&#45;nanosecond intervals since January 1, 1601. This structure is a 64&#45;bit v...">
<polygon fill="none" stroke="black" points="263,-100.5 263,-130.5 424,-130.5 424,-100.5 263,-100.5"/>
<text text-anchor="start" x="271" y="-118.5" font-family="Helvetica,sans-Serif" font-size="10.00">System.Runtime.InteropServices.</text>
<text text-anchor="middle" x="343.5" y="-107.5" font-family="Helvetica,sans-Serif" font-size="10.00">ComTypes.FILETIME</text>
</a>
</g>
</g>
<!-- Node9&#45;&gt;Node1 -->
<g id="edge9" class="edge"><title>Node9&#45;&gt;Node1</title>
<path fill="none" stroke="#9a32cd" stroke-dasharray="5,2" d="M332.385,-91.3251C323.325,-72.4324 310.825,-46.3682 303.221,-30.515"/>
<polygon fill="#9a32cd" stroke="#9a32cd" points="329.286,-92.9558 336.766,-100.459 335.598,-89.9288 329.286,-92.9558"/>
<text text-anchor="middle" x="343" y="-74" font-family="Helvetica,sans-Serif" font-size="10.00"> mtime</text>
<text text-anchor="middle" x="343" y="-63" font-family="Helvetica,sans-Serif" font-size="10.00">atime</text>
<text text-anchor="middle" x="343" y="-52" font-family="Helvetica,sans-Serif" font-size="10.00">ctime</text>
</g>
</g>
</svg>
