<?xml version="1.0" encoding="UTF-8" standalone="no"?>
<!DOCTYPE svg PUBLIC "-//W3C//DTD SVG 1.1//EN"
 "http://www.w3.org/Graphics/SVG/1.1/DTD/svg11.dtd">
<!-- Generated by graphviz version 2.38.0 (20140413.2041)
 -->
<!-- Title: System.Deployment.Internal.Isolation.StoreOperationStageComponent Pages: 1 -->
<svg width="436pt" height="88pt"
 viewBox="0.00 0.00 436.00 88.00" xmlns="http://www.w3.org/2000/svg" xmlns:xlink="http://www.w3.org/1999/xlink">
<g id="graph0" class="graph" transform="scale(1 1) rotate(0) translate(4 84)">
<title>System.Deployment.Internal.Isolation.StoreOperationStageComponent</title>
<!-- Node1 -->
<g id="node1" class="node"><title>Node1</title>
<g id="a_node1"><a xlink:title=" ">
<polygon fill="#bfbfbf" stroke="black" points="232,-24.5 232,-54.5 428,-54.5 428,-24.5 232,-24.5"/>
<text text-anchor="start" x="240" y="-42.5" font-family="Helvetica,sans-Serif" font-size="10.00">System.Deployment.Internal.</text>
<text text-anchor="middle" x="330" y="-31.5" font-family="Helvetica,sans-Serif" font-size="10.00">Isolation.StoreOperationStageComponent</text>
</a>
</g>
</g>
<!-- Node2 -->
<g id="node2" class="node"><title>Node2</title>
<g id="a_node2"><a xlink:href="interface_system_1_1_deployment_1_1_internal_1_1_isolation_1_1_i_definition_identity.html" target="_top" xlink:title=" ">
<polygon fill="none" stroke="black" points="0,-49.5 0,-79.5 143,-79.5 143,-49.5 0,-49.5"/>
<text text-anchor="start" x="8" y="-67.5" font-family="Helvetica,sans-Serif" font-size="10.00">System.Deployment.Internal.</text>
<text text-anchor="middle" x="71.5" y="-56.5" font-family="Helvetica,sans-Serif" font-size="10.00">Isolation.IDefinitionIdentity</text>
</a>
</g>
</g>
<!-- Node2&#45;&gt;Node1 -->
<g id="edge1" class="edge"><title>Node2&#45;&gt;Node1</title>
<path fill="none" stroke="#9a32cd" stroke-dasharray="5,2" d="M153.361,-56.6188C178.188,-54.1991 205.771,-51.5106 231.583,-48.9949"/>
<polygon fill="#9a32cd" stroke="#9a32cd" points="152.882,-53.1488 143.269,-57.6025 153.561,-60.1158 152.882,-53.1488"/>
<text text-anchor="middle" x="187.5" y="-58.5" font-family="Helvetica,sans-Serif" font-size="10.00"> Component</text>
</g>
<!-- Node3 -->
<g id="node3" class="node"><title>Node3</title>
<g id="a_node3"><a xlink:href="interface_system_1_1_deployment_1_1_internal_1_1_isolation_1_1_i_definition_app_id.html" target="_top" xlink:title=" ">
<polygon fill="none" stroke="black" points="0,-0.5 0,-30.5 143,-30.5 143,-0.5 0,-0.5"/>
<text text-anchor="start" x="8" y="-18.5" font-family="Helvetica,sans-Serif" font-size="10.00">System.Deployment.Internal.</text>
<text text-anchor="middle" x="71.5" y="-7.5" font-family="Helvetica,sans-Serif" font-size="10.00">Isolation.IDefinitionAppId</text>
</a>
</g>
</g>
<!-- Node3&#45;&gt;Node1 -->
<g id="edge2" class="edge"><title>Node3&#45;&gt;Node1</title>
<path fill="none" stroke="#9a32cd" stroke-dasharray="5,2" d="M153.361,-23.066C178.188,-25.3889 205.771,-27.9698 231.583,-30.3849"/>
<polygon fill="#9a32cd" stroke="#9a32cd" points="153.551,-19.5686 143.269,-22.1216 152.899,-26.5381 153.551,-19.5686"/>
<text text-anchor="middle" x="187.5" y="-30.5" font-family="Helvetica,sans-Serif" font-size="10.00"> Application</text>
</g>
</g>
</svg>
