<?xml version="1.0" encoding="UTF-8" standalone="no"?>
<!DOCTYPE svg PUBLIC "-//W3C//DTD SVG 1.1//EN"
 "http://www.w3.org/Graphics/SVG/1.1/DTD/svg11.dtd">
<!-- Generated by graphviz version 2.38.0 (20140413.2041)
 -->
<!-- Title: System.TimeZoneInfo.TransitionTime Pages: 1 -->
<svg width="377pt" height="152pt"
 viewBox="0.00 0.00 376.50 152.00" xmlns="http://www.w3.org/2000/svg" xmlns:xlink="http://www.w3.org/1999/xlink">
<g id="graph0" class="graph" transform="scale(1 1) rotate(0) translate(4 148)">
<title>System.TimeZoneInfo.TransitionTime</title>
<!-- Node0 -->
<g id="node1" class="node"><title>Node0</title>
<g id="a_node1"><a xlink:title="Provides information about a specific time change, such as the change from daylight saving time to st...">
<polygon fill="#bfbfbf" stroke="black" points="107.5,-0.5 107.5,-19.5 283.5,-19.5 283.5,-0.5 107.5,-0.5"/>
<text text-anchor="middle" x="195.5" y="-7.5" font-family="Helvetica,sans-Serif" font-size="10.00">System.TimeZoneInfo.TransitionTime</text>
</a>
</g>
</g>
<!-- Node1 -->
<g id="node2" class="node"><title>Node1</title>
<g id="a_node2"><a xlink:href="interface_system_1_1_i_equatable.html" target="_top" xlink:title=" ">
<polygon fill="none" stroke="black" points="0,-57.5 0,-76.5 143,-76.5 143,-57.5 0,-57.5"/>
<text text-anchor="middle" x="71.5" y="-64.5" font-family="Helvetica,sans-Serif" font-size="10.00">IEquatable&lt; TransitionTime &gt;</text>
</a>
</g>
</g>
<!-- Node1&#45;&gt;Node0 -->
<g id="edge1" class="edge"><title>Node1&#45;&gt;Node0</title>
<path fill="none" stroke="midnightblue" d="M100.279,-53.235C123.64,-42.8732 155.931,-28.5509 176.261,-19.5334"/>
<polygon fill="midnightblue" stroke="midnightblue" points="98.5971,-50.1522 90.875,-57.4063 101.435,-56.5511 98.5971,-50.1522"/>
</g>
<!-- Node2 -->
<g id="node3" class="node"><title>Node2</title>
<g id="a_node3"><a xlink:href="interface_system_1_1_i_equatable.html" target="_top" xlink:title="Defines a generalized method that a value type or class implements to create a type&#45;specific method f...">
<polygon fill="none" stroke="black" points="10.5,-124.5 10.5,-143.5 132.5,-143.5 132.5,-124.5 10.5,-124.5"/>
<text text-anchor="middle" x="71.5" y="-131.5" font-family="Helvetica,sans-Serif" font-size="10.00">System.IEquatable&lt; T &gt;</text>
</a>
</g>
</g>
<!-- Node2&#45;&gt;Node1 -->
<g id="edge2" class="edge"><title>Node2&#45;&gt;Node1</title>
<path fill="none" stroke="orange" stroke-dasharray="5,2" d="M71.5,-114.037C71.5,-101.67 71.5,-86.1198 71.5,-76.6273"/>
<polygon fill="orange" stroke="orange" points="68.0001,-114.234 71.5,-124.234 75.0001,-114.234 68.0001,-114.234"/>
<text text-anchor="middle" x="114" y="-98" font-family="Helvetica,sans-Serif" font-size="10.00"> &lt; TransitionTime &gt;</text>
</g>
<!-- Node3 -->
<g id="node4" class="node"><title>Node3</title>
<g id="a_node4"><a xlink:href="interface_system_1_1_runtime_1_1_serialization_1_1_i_serializable.html" target="_top" xlink:title="Allows an object to control its own serialization and deserialization.">
<polygon fill="none" stroke="black" points="161,-57.5 161,-76.5 230,-76.5 230,-57.5 161,-57.5"/>
<text text-anchor="middle" x="195.5" y="-64.5" font-family="Helvetica,sans-Serif" font-size="10.00">ISerializable</text>
</a>
</g>
</g>
<!-- Node3&#45;&gt;Node0 -->
<g id="edge3" class="edge"><title>Node3&#45;&gt;Node0</title>
<path fill="none" stroke="midnightblue" d="M195.5,-47.1166C195.5,-37.8173 195.5,-27.0557 195.5,-19.7149"/>
<polygon fill="midnightblue" stroke="midnightblue" points="192,-47.4062 195.5,-57.4063 199,-47.4063 192,-47.4062"/>
</g>
<!-- Node4 -->
<g id="node5" class="node"><title>Node4</title>
<g id="a_node5"><a xlink:href="interface_system_1_1_runtime_1_1_serialization_1_1_i_deserialization_callback.html" target="_top" xlink:title="Indicates that a class is to be notified when deserialization of the entire object graph has been com...">
<polygon fill="none" stroke="black" points="248.5,-57.5 248.5,-76.5 368.5,-76.5 368.5,-57.5 248.5,-57.5"/>
<text text-anchor="middle" x="308.5" y="-64.5" font-family="Helvetica,sans-Serif" font-size="10.00">IDeserializationCallback</text>
</a>
</g>
</g>
<!-- Node4&#45;&gt;Node0 -->
<g id="edge4" class="edge"><title>Node4&#45;&gt;Node0</title>
<path fill="none" stroke="midnightblue" d="M281.702,-52.9565C260.46,-42.6179 231.394,-28.4704 213.032,-19.5334"/>
<polygon fill="midnightblue" stroke="midnightblue" points="280.32,-56.1768 290.844,-57.4063 283.384,-49.8828 280.32,-56.1768"/>
</g>
</g>
</svg>
