<?xml version="1.0" encoding="UTF-8" standalone="no"?>
<!DOCTYPE svg PUBLIC "-//W3C//DTD SVG 1.1//EN"
 "http://www.w3.org/Graphics/SVG/1.1/DTD/svg11.dtd">
<!-- Generated by graphviz version 2.38.0 (20140413.2041)
 -->
<!-- Title: System.Char Pages: 1 -->
<svg width="427pt" height="152pt"
 viewBox="0.00 0.00 426.50 152.00" xmlns="http://www.w3.org/2000/svg" xmlns:xlink="http://www.w3.org/1999/xlink">
<g id="graph0" class="graph" transform="scale(1 1) rotate(0) translate(4 148)">
<title>System.Char</title>
<!-- Node7 -->
<g id="node1" class="node"><title>Node7</title>
<g id="a_node1"><a xlink:title="Represents a character as a UTF&#45;16 code unit.">
<polygon fill="#bfbfbf" stroke="black" points="117.5,-0.5 117.5,-19.5 191.5,-19.5 191.5,-0.5 117.5,-0.5"/>
<text text-anchor="middle" x="154.5" y="-7.5" font-family="Helvetica,sans-Serif" font-size="10.00">System.Char</text>
</a>
</g>
</g>
<!-- Node8 -->
<g id="node2" class="node"><title>Node8</title>
<g id="a_node2"><a xlink:href="interface_system_1_1_i_comparable.html" target="_top" xlink:title="Defines a generalized type&#45;specific comparison method that a value type or class implements to order ...">
<polygon fill="none" stroke="black" points="0,-57.5 0,-76.5 71,-76.5 71,-57.5 0,-57.5"/>
<text text-anchor="middle" x="35.5" y="-64.5" font-family="Helvetica,sans-Serif" font-size="10.00">IComparable</text>
</a>
</g>
</g>
<!-- Node8&#45;&gt;Node7 -->
<g id="edge1" class="edge"><title>Node8&#45;&gt;Node7</title>
<path fill="none" stroke="midnightblue" d="M63.4196,-53.096C85.8144,-42.7455 116.613,-28.5106 136.037,-19.5334"/>
<polygon fill="midnightblue" stroke="midnightblue" points="61.7027,-50.0337 54.0938,-57.4063 64.6395,-56.3879 61.7027,-50.0337"/>
</g>
<!-- Node9 -->
<g id="node3" class="node"><title>Node9</title>
<g id="a_node3"><a xlink:href="interface_system_1_1_i_convertible.html" target="_top" xlink:title="Defines methods that convert the value of the implementing reference or value type to a common langua...">
<polygon fill="none" stroke="black" points="89.5,-57.5 89.5,-76.5 155.5,-76.5 155.5,-57.5 89.5,-57.5"/>
<text text-anchor="middle" x="122.5" y="-64.5" font-family="Helvetica,sans-Serif" font-size="10.00">IConvertible</text>
</a>
</g>
</g>
<!-- Node9&#45;&gt;Node7 -->
<g id="edge2" class="edge"><title>Node9&#45;&gt;Node7</title>
<path fill="none" stroke="midnightblue" d="M132.603,-48.6354C138.203,-39.0102 144.924,-27.459 149.43,-19.7149"/>
<polygon fill="midnightblue" stroke="midnightblue" points="129.504,-47.0026 127.5,-57.4063 135.554,-50.5229 129.504,-47.0026"/>
</g>
<!-- Node10 -->
<g id="node4" class="node"><title>Node10</title>
<g id="a_node4"><a xlink:href="interface_system_1_1_i_comparable.html" target="_top" xlink:title=" ">
<polygon fill="none" stroke="black" points="174,-57.5 174,-76.5 281,-76.5 281,-57.5 174,-57.5"/>
<text text-anchor="middle" x="227.5" y="-64.5" font-family="Helvetica,sans-Serif" font-size="10.00">IComparable&lt; char &gt;</text>
</a>
</g>
</g>
<!-- Node10&#45;&gt;Node7 -->
<g id="edge3" class="edge"><title>Node10&#45;&gt;Node7</title>
<path fill="none" stroke="midnightblue" d="M207.972,-51.287C194.596,-41.2095 177.309,-28.1851 166.067,-19.7149"/>
<polygon fill="midnightblue" stroke="midnightblue" points="206.001,-54.1841 216.094,-57.4063 210.213,-48.5933 206.001,-54.1841"/>
</g>
<!-- Node11 -->
<g id="node5" class="node"><title>Node11</title>
<g id="a_node5"><a xlink:href="interface_system_1_1_i_comparable.html" target="_top" xlink:title="Defines a generalized type&#45;specific comparison method that a value type or class implements to order ...">
<polygon fill="none" stroke="black" points="171,-124.5 171,-143.5 278,-143.5 278,-124.5 171,-124.5"/>
<text text-anchor="middle" x="224.5" y="-131.5" font-family="Helvetica,sans-Serif" font-size="10.00">System.IComparable</text>
</a>
</g>
</g>
<!-- Node11&#45;&gt;Node10 -->
<g id="edge4" class="edge"><title>Node11&#45;&gt;Node10</title>
<path fill="none" stroke="orange" stroke-dasharray="5,2" d="M225.375,-114.037C225.946,-101.67 226.664,-86.1198 227.102,-76.6273"/>
<polygon fill="orange" stroke="orange" points="221.869,-114.083 224.905,-124.234 228.862,-114.406 221.869,-114.083"/>
<text text-anchor="middle" x="246.5" y="-98" font-family="Helvetica,sans-Serif" font-size="10.00"> &lt; char &gt;</text>
</g>
<!-- Node12 -->
<g id="node6" class="node"><title>Node12</title>
<g id="a_node6"><a xlink:href="interface_system_1_1_i_equatable.html" target="_top" xlink:title=" ">
<polygon fill="none" stroke="black" points="305,-57.5 305,-76.5 404,-76.5 404,-57.5 305,-57.5"/>
<text text-anchor="middle" x="354.5" y="-64.5" font-family="Helvetica,sans-Serif" font-size="10.00">IEquatable&lt; char &gt;</text>
</a>
</g>
</g>
<!-- Node12&#45;&gt;Node7 -->
<g id="edge5" class="edge"><title>Node12&#45;&gt;Node7</title>
<path fill="none" stroke="midnightblue" d="M313.525,-54.7318C275.564,-44.2927 219.932,-28.9937 185.531,-19.5334"/>
<polygon fill="midnightblue" stroke="midnightblue" points="312.68,-58.1293 323.25,-57.4063 314.536,-51.3799 312.68,-58.1293"/>
</g>
<!-- Node13 -->
<g id="node7" class="node"><title>Node13</title>
<g id="a_node7"><a xlink:href="interface_system_1_1_i_equatable.html" target="_top" xlink:title="Defines a generalized method that a value type or class implements to create a type&#45;specific method f...">
<polygon fill="none" stroke="black" points="296.5,-124.5 296.5,-143.5 418.5,-143.5 418.5,-124.5 296.5,-124.5"/>
<text text-anchor="middle" x="357.5" y="-131.5" font-family="Helvetica,sans-Serif" font-size="10.00">System.IEquatable&lt; T &gt;</text>
</a>
</g>
</g>
<!-- Node13&#45;&gt;Node12 -->
<g id="edge6" class="edge"><title>Node13&#45;&gt;Node12</title>
<path fill="none" stroke="orange" stroke-dasharray="5,2" d="M356.625,-114.037C356.054,-101.67 355.336,-86.1198 354.898,-76.6273"/>
<polygon fill="orange" stroke="orange" points="353.138,-114.406 357.095,-124.234 360.131,-114.083 353.138,-114.406"/>
<text text-anchor="middle" x="376.5" y="-98" font-family="Helvetica,sans-Serif" font-size="10.00"> &lt; char &gt;</text>
</g>
</g>
</svg>
