<?xml version="1.0" encoding="UTF-8" standalone="no"?>
<!DOCTYPE svg PUBLIC "-//W3C//DTD SVG 1.1//EN"
 "http://www.w3.org/Graphics/SVG/1.1/DTD/svg11.dtd">
<!-- Generated by graphviz version 2.38.0 (20140413.2041)
 -->
<!-- Title: System.Deployment.Internal.Isolation.StoreTransactionOperation Pages: 1 -->
<svg width="179pt" height="241pt"
 viewBox="0.00 0.00 179.00 241.00" xmlns="http://www.w3.org/2000/svg" xmlns:xlink="http://www.w3.org/1999/xlink">
<g id="graph0" class="graph" transform="scale(1 1) rotate(0) translate(4 237)">
<title>System.Deployment.Internal.Isolation.StoreTransactionOperation</title>
<!-- Node1 -->
<g id="node1" class="node"><title>Node1</title>
<g id="a_node1"><a xlink:title=" ">
<polygon fill="#bfbfbf" stroke="black" points="0,-0.5 0,-30.5 171,-30.5 171,-0.5 0,-0.5"/>
<text text-anchor="start" x="8" y="-18.5" font-family="Helvetica,sans-Serif" font-size="10.00">System.Deployment.Internal.</text>
<text text-anchor="middle" x="85.5" y="-7.5" font-family="Helvetica,sans-Serif" font-size="10.00">Isolation.StoreTransactionOperation</text>
</a>
</g>
</g>
<!-- Node2 -->
<g id="node2" class="node"><title>Node2</title>
<g id="a_node2"><a xlink:href="struct_system_1_1_deployment_1_1_internal_1_1_isolation_1_1_store_transaction_data.html" target="_top" xlink:title=" ">
<polygon fill="none" stroke="black" points="11,-78.5 11,-108.5 160,-108.5 160,-78.5 11,-78.5"/>
<text text-anchor="start" x="19" y="-96.5" font-family="Helvetica,sans-Serif" font-size="10.00">System.Deployment.Internal.</text>
<text text-anchor="middle" x="85.5" y="-85.5" font-family="Helvetica,sans-Serif" font-size="10.00">Isolation.StoreTransactionData</text>
</a>
</g>
</g>
<!-- Node2&#45;&gt;Node1 -->
<g id="edge1" class="edge"><title>Node2&#45;&gt;Node1</title>
<path fill="none" stroke="#9a32cd" stroke-dasharray="5,2" d="M85.5,-68.0898C85.5,-55.7565 85.5,-41.2237 85.5,-30.7309"/>
<polygon fill="#9a32cd" stroke="#9a32cd" points="82.0001,-68.2049 85.5,-78.205 89.0001,-68.205 82.0001,-68.2049"/>
<text text-anchor="middle" x="97.5" y="-52" font-family="Helvetica,sans-Serif" font-size="10.00"> Data</text>
</g>
<!-- Node3 -->
<g id="node3" class="node"><title>Node3</title>
<g id="a_node3"><a xlink:href="struct_system_1_1_int_ptr.html" target="_top" xlink:title="A platform&#45;specific type that is used to represent a pointer or a handle.">
<polygon fill="none" stroke="black" points="47,-156.5 47,-175.5 124,-175.5 124,-156.5 47,-156.5"/>
<text text-anchor="middle" x="85.5" y="-163.5" font-family="Helvetica,sans-Serif" font-size="10.00">System.IntPtr</text>
</a>
</g>
</g>
<!-- Node3&#45;&gt;Node2 -->
<g id="edge2" class="edge"><title>Node3&#45;&gt;Node2</title>
<path fill="none" stroke="#9a32cd" stroke-dasharray="5,2" d="M85.5,-146.236C85.5,-134.408 85.5,-119.383 85.5,-108.576"/>
<polygon fill="#9a32cd" stroke="#9a32cd" points="82.0001,-146.355 85.5,-156.355 89.0001,-146.355 82.0001,-146.355"/>
<text text-anchor="middle" x="104" y="-130" font-family="Helvetica,sans-Serif" font-size="10.00"> DataPtr</text>
</g>
<!-- Node3&#45;&gt;Node3 -->
<g id="edge4" class="edge"><title>Node3&#45;&gt;Node3</title>
<path fill="none" stroke="#9a32cd" stroke-dasharray="5,2" d="M134.22,-170.263C138.979,-169.403 142,-167.982 142,-166 142,-162.828 134.266,-161.094 124.055,-160.796"/>
<polygon fill="#9a32cd" stroke="#9a32cd" points="133.69,-166.797 124.055,-171.204 134.335,-173.767 133.69,-166.797"/>
<text text-anchor="middle" x="153" y="-163.5" font-family="Helvetica,sans-Serif" font-size="10.00"> Zero</text>
</g>
<!-- Node4 -->
<g id="node4" class="node"><title>Node4</title>
<g id="a_node4"><a xlink:href="interface_system_1_1_runtime_1_1_serialization_1_1_i_serializable.html" target="_top" xlink:title="Allows an object to control its own serialization and deserialization.">
<polygon fill="none" stroke="black" points="51,-213.5 51,-232.5 120,-232.5 120,-213.5 51,-213.5"/>
<text text-anchor="middle" x="85.5" y="-220.5" font-family="Helvetica,sans-Serif" font-size="10.00">ISerializable</text>
</a>
</g>
</g>
<!-- Node4&#45;&gt;Node3 -->
<g id="edge3" class="edge"><title>Node4&#45;&gt;Node3</title>
<path fill="none" stroke="midnightblue" d="M85.5,-203.117C85.5,-193.817 85.5,-183.056 85.5,-175.715"/>
<polygon fill="midnightblue" stroke="midnightblue" points="82.0001,-203.406 85.5,-213.406 89.0001,-203.406 82.0001,-203.406"/>
</g>
</g>
</svg>
