<?xml version="1.0" encoding="UTF-8" standalone="no"?>
<!DOCTYPE svg PUBLIC "-//W3C//DTD SVG 1.1//EN"
 "http://www.w3.org/Graphics/SVG/1.1/DTD/svg11.dtd">
<!-- Generated by graphviz version 2.38.0 (20140413.2041)
 -->
<!-- Title: System.Runtime.InteropServices.ComTypes.TYPEATTR Pages: 1 -->
<svg width="589pt" height="181pt"
 viewBox="0.00 0.00 589.00 181.00" xmlns="http://www.w3.org/2000/svg" xmlns:xlink="http://www.w3.org/1999/xlink">
<g id="graph0" class="graph" transform="scale(1 1) rotate(0) translate(4 177)">
<title>System.Runtime.InteropServices.ComTypes.TYPEATTR</title>
<!-- Node1 -->
<g id="node1" class="node"><title>Node1</title>
<g id="a_node1"><a xlink:title="Contains attributes of a UCOMITypeInfo.">
<polygon fill="#bfbfbf" stroke="black" points="420,-91 420,-121 581,-121 581,-91 420,-91"/>
<text text-anchor="start" x="428" y="-109" font-family="Helvetica,sans-Serif" font-size="10.00">System.Runtime.InteropServices.</text>
<text text-anchor="middle" x="500.5" y="-98" font-family="Helvetica,sans-Serif" font-size="10.00">ComTypes.TYPEATTR</text>
</a>
</g>
</g>
<!-- Node2 -->
<g id="node2" class="node"><title>Node2</title>
<g id="a_node2"><a xlink:href="struct_system_1_1_runtime_1_1_interop_services_1_1_com_types_1_1_i_d_l_d_e_s_c.html" target="_top" xlink:title="Contains information needed for transferring a structure element, parameter, or function return value...">
<polygon fill="none" stroke="black" points="168,-117 168,-147 329,-147 329,-117 168,-117"/>
<text text-anchor="start" x="176" y="-135" font-family="Helvetica,sans-Serif" font-size="10.00">System.Runtime.InteropServices.</text>
<text text-anchor="middle" x="248.5" y="-124" font-family="Helvetica,sans-Serif" font-size="10.00">ComTypes.IDLDESC</text>
</a>
</g>
</g>
<!-- Node2&#45;&gt;Node1 -->
<g id="edge1" class="edge"><title>Node2&#45;&gt;Node1</title>
<path fill="none" stroke="#9a32cd" stroke-dasharray="5,2" d="M339.578,-122.632C365.74,-119.911 394.121,-116.959 419.612,-114.308"/>
<polygon fill="#9a32cd" stroke="#9a32cd" points="338.873,-119.186 329.289,-123.702 339.597,-126.149 338.873,-119.186"/>
<text text-anchor="middle" x="374.5" y="-125" font-family="Helvetica,sans-Serif" font-size="10.00"> idldescType</text>
</g>
<!-- Node3 -->
<g id="node3" class="node"><title>Node3</title>
<g id="a_node3"><a xlink:href="struct_system_1_1_int_ptr.html" target="_top" xlink:title="A platform&#45;specific type that is used to represent a pointer or a handle.">
<polygon fill="none" stroke="red" points="0,-122.5 0,-141.5 77,-141.5 77,-122.5 0,-122.5"/>
<text text-anchor="middle" x="38.5" y="-129.5" font-family="Helvetica,sans-Serif" font-size="10.00">System.IntPtr</text>
</a>
</g>
</g>
<!-- Node3&#45;&gt;Node1 -->
<g id="edge4" class="edge"><title>Node3&#45;&gt;Node1</title>
<path fill="none" stroke="#9a32cd" stroke-dasharray="5,2" d="M81.6337,-143.989C86.1271,-145.088 90.6455,-146.117 95,-147 127.094,-153.508 135.328,-154.773 168,-157 239.39,-161.867 258.083,-166.539 329,-157 362.34,-152.516 369.742,-146.543 402,-137 418.862,-132.012 437.264,-126.245 453.492,-121.049"/>
<polygon fill="#9a32cd" stroke="#9a32cd" points="82.4649,-140.589 71.9097,-141.505 80.7322,-147.372 82.4649,-140.589"/>
<text text-anchor="middle" x="248.5" y="-165" font-family="Helvetica,sans-Serif" font-size="10.00"> lpstrSchema</text>
</g>
<!-- Node3&#45;&gt;Node2 -->
<g id="edge2" class="edge"><title>Node3&#45;&gt;Node2</title>
<path fill="none" stroke="#9a32cd" stroke-dasharray="5,2" d="M87.368,-132C111.237,-132 140.739,-132 167.89,-132"/>
<polygon fill="#9a32cd" stroke="#9a32cd" points="87.1673,-128.5 77.1672,-132 87.1672,-135.5 87.1673,-128.5"/>
<text text-anchor="middle" x="122.5" y="-135" font-family="Helvetica,sans-Serif" font-size="10.00"> dwReserved</text>
</g>
<!-- Node3&#45;&gt;Node3 -->
<g id="edge3" class="edge"><title>Node3&#45;&gt;Node3</title>
<path fill="none" stroke="#9a32cd" stroke-dasharray="5,2" d="M23.0309,-151.766C24.2459,-156.497 29.4022,-160 38.5,-160 53.4297,-160 57.7453,-150.565 51.4468,-141.757"/>
<polygon fill="#9a32cd" stroke="#9a32cd" points="26.5034,-152.309 25.5532,-141.757 19.7156,-150.599 26.5034,-152.309"/>
<text text-anchor="middle" x="38.5" y="-163" font-family="Helvetica,sans-Serif" font-size="10.00"> Zero</text>
</g>
<!-- Node12 -->
<g id="node5" class="node"><title>Node12</title>
<g id="a_node5"><a xlink:href="struct_system_1_1_runtime_1_1_interop_services_1_1_com_types_1_1_t_y_p_e_d_e_s_c.html" target="_top" xlink:title="Describes the type of a variable, return type of a function, or the type of a function parameter.">
<polygon fill="none" stroke="black" points="168,-68 168,-98 329,-98 329,-68 168,-68"/>
<text text-anchor="start" x="176" y="-86" font-family="Helvetica,sans-Serif" font-size="10.00">System.Runtime.InteropServices.</text>
<text text-anchor="middle" x="248.5" y="-75" font-family="Helvetica,sans-Serif" font-size="10.00">ComTypes.TYPEDESC</text>
</a>
</g>
</g>
<!-- Node3&#45;&gt;Node12 -->
<g id="edge8" class="edge"><title>Node3&#45;&gt;Node12</title>
<path fill="none" stroke="#9a32cd" stroke-dasharray="5,2" d="M83.7679,-119.846C87.5616,-118.862 91.3446,-117.901 95,-117 121.733,-110.411 151.24,-103.702 177.12,-98.0041"/>
<polygon fill="#9a32cd" stroke="#9a32cd" points="82.5586,-116.545 73.7809,-122.478 84.3428,-123.314 82.5586,-116.545"/>
<text text-anchor="middle" x="122.5" y="-120" font-family="Helvetica,sans-Serif" font-size="10.00"> lpValue</text>
</g>
<!-- Node5 -->
<g id="node4" class="node"><title>Node5</title>
<g id="a_node4"><a xlink:href="struct_system_1_1_guid.html" target="_top" xlink:title="Represents a globally unique identifier (GUID).To browse the .NET Framework source code for this type...">
<polygon fill="none" stroke="red" points="211.5,-0.5 211.5,-19.5 285.5,-19.5 285.5,-0.5 211.5,-0.5"/>
<text text-anchor="middle" x="248.5" y="-7.5" font-family="Helvetica,sans-Serif" font-size="10.00">System.Guid</text>
</a>
</g>
</g>
<!-- Node5&#45;&gt;Node1 -->
<g id="edge5" class="edge"><title>Node5&#45;&gt;Node1</title>
<path fill="none" stroke="#9a32cd" stroke-dasharray="5,2" d="M283.927,-23.22C329.999,-40.9117 411.517,-72.2147 460.025,-90.8415"/>
<polygon fill="#9a32cd" stroke="#9a32cd" points="284.975,-19.8733 274.385,-19.5558 282.466,-26.4081 284.975,-19.8733"/>
<text text-anchor="middle" x="374.5" y="-70" font-family="Helvetica,sans-Serif" font-size="10.00"> guid</text>
</g>
<!-- Node5&#45;&gt;Node5 -->
<g id="edge6" class="edge"><title>Node5&#45;&gt;Node5</title>
<path fill="none" stroke="#9a32cd" stroke-dasharray="5,2" d="M225.063,-29.0292C226.341,-34.128 234.154,-38 248.5,-38 270.895,-38 277.368,-28.5653 267.92,-19.7571"/>
<polygon fill="#9a32cd" stroke="#9a32cd" points="228.316,-30.3243 229.08,-19.7571 221.893,-27.5415 228.316,-30.3243"/>
<text text-anchor="middle" x="248.5" y="-41" font-family="Helvetica,sans-Serif" font-size="10.00"> Empty</text>
</g>
<!-- Node12&#45;&gt;Node1 -->
<g id="edge7" class="edge"><title>Node12&#45;&gt;Node1</title>
<path fill="none" stroke="#9a32cd" stroke-dasharray="5,2" d="M339.178,-87.0378C359.839,-88.3161 381.705,-89.9476 402,-92 407.785,-92.585 413.753,-93.2615 419.753,-93.995"/>
<polygon fill="#9a32cd" stroke="#9a32cd" points="339.335,-83.5411 329.144,-86.4384 338.918,-90.5286 339.335,-83.5411"/>
<text text-anchor="middle" x="374.5" y="-95" font-family="Helvetica,sans-Serif" font-size="10.00"> tdescAlias</text>
</g>
</g>
</svg>
