<?xml version="1.0" encoding="UTF-8" standalone="no"?>
<!DOCTYPE svg PUBLIC "-//W3C//DTD SVG 1.1//EN"
 "http://www.w3.org/Graphics/SVG/1.1/DTD/svg11.dtd">
<!-- Generated by graphviz version 2.38.0 (20140413.2041)
 -->
<!-- Title: System.Guid Pages: 1 -->
<svg width="432pt" height="152pt"
 viewBox="0.00 0.00 431.50 152.00" xmlns="http://www.w3.org/2000/svg" xmlns:xlink="http://www.w3.org/1999/xlink">
<g id="graph0" class="graph" transform="scale(1 1) rotate(0) translate(4 148)">
<title>System.Guid</title>
<!-- Node7 -->
<g id="node1" class="node"><title>Node7</title>
<g id="a_node1"><a xlink:title="Represents a globally unique identifier (GUID).To browse the .NET Framework source code for this type...">
<polygon fill="#bfbfbf" stroke="black" points="120.5,-0.5 120.5,-19.5 194.5,-19.5 194.5,-0.5 120.5,-0.5"/>
<text text-anchor="middle" x="157.5" y="-7.5" font-family="Helvetica,sans-Serif" font-size="10.00">System.Guid</text>
</a>
</g>
</g>
<!-- Node7&#45;&gt;Node7 -->
<g id="edge7" class="edge"><title>Node7&#45;&gt;Node7</title>
<path fill="none" stroke="#9a32cd" stroke-dasharray="5,2" d="M204.686,-14.3069C209.457,-13.4522 212.5,-12.0166 212.5,-10 212.5,-6.77344 204.71,-5.03412 194.515,-4.78204"/>
<polygon fill="#9a32cd" stroke="#9a32cd" points="204.163,-10.8396 194.515,-15.218 204.788,-17.8117 204.163,-10.8396"/>
<text text-anchor="middle" x="228.5" y="-7.5" font-family="Helvetica,sans-Serif" font-size="10.00"> Empty</text>
</g>
<!-- Node8 -->
<g id="node2" class="node"><title>Node8</title>
<g id="a_node2"><a xlink:href="interface_system_1_1_i_formattable.html" target="_top" xlink:title="Provides functionality to format the value of an object into a string representation.">
<polygon fill="none" stroke="black" points="0,-57.5 0,-76.5 71,-76.5 71,-57.5 0,-57.5"/>
<text text-anchor="middle" x="35.5" y="-64.5" font-family="Helvetica,sans-Serif" font-size="10.00">IFormattable</text>
</a>
</g>
</g>
<!-- Node8&#45;&gt;Node7 -->
<g id="edge1" class="edge"><title>Node8&#45;&gt;Node7</title>
<path fill="none" stroke="midnightblue" d="M63.8151,-53.235C86.7994,-42.8732 118.569,-28.5509 138.571,-19.5334"/>
<polygon fill="midnightblue" stroke="midnightblue" points="62.2405,-50.1056 54.5625,-57.4063 65.1174,-56.4871 62.2405,-50.1056"/>
</g>
<!-- Node9 -->
<g id="node3" class="node"><title>Node9</title>
<g id="a_node3"><a xlink:href="interface_system_1_1_i_comparable.html" target="_top" xlink:title="Defines a generalized type&#45;specific comparison method that a value type or class implements to order ...">
<polygon fill="none" stroke="black" points="89,-57.5 89,-76.5 160,-76.5 160,-57.5 89,-57.5"/>
<text text-anchor="middle" x="124.5" y="-64.5" font-family="Helvetica,sans-Serif" font-size="10.00">IComparable</text>
</a>
</g>
</g>
<!-- Node9&#45;&gt;Node7 -->
<g id="edge2" class="edge"><title>Node9&#45;&gt;Node7</title>
<path fill="none" stroke="midnightblue" d="M134.919,-48.6354C140.694,-39.0102 147.625,-27.459 152.271,-19.7149"/>
<polygon fill="midnightblue" stroke="midnightblue" points="131.8,-47.0306 129.656,-57.4063 137.802,-50.6321 131.8,-47.0306"/>
</g>
<!-- Node10 -->
<g id="node4" class="node"><title>Node10</title>
<g id="a_node4"><a xlink:href="interface_system_1_1_i_comparable.html" target="_top" xlink:title=" ">
<polygon fill="none" stroke="black" points="178,-57.5 178,-76.5 287,-76.5 287,-57.5 178,-57.5"/>
<text text-anchor="middle" x="232.5" y="-64.5" font-family="Helvetica,sans-Serif" font-size="10.00">IComparable&lt; Guid &gt;</text>
</a>
</g>
</g>
<!-- Node10&#45;&gt;Node7 -->
<g id="edge3" class="edge"><title>Node10&#45;&gt;Node7</title>
<path fill="none" stroke="midnightblue" d="M212.437,-51.287C198.695,-41.2095 180.934,-28.1851 169.384,-19.7149"/>
<polygon fill="midnightblue" stroke="midnightblue" points="210.647,-54.315 220.781,-57.4063 214.787,-48.6701 210.647,-54.315"/>
</g>
<!-- Node11 -->
<g id="node5" class="node"><title>Node11</title>
<g id="a_node5"><a xlink:href="interface_system_1_1_i_comparable.html" target="_top" xlink:title="Defines a generalized type&#45;specific comparison method that a value type or class implements to order ...">
<polygon fill="none" stroke="black" points="176,-124.5 176,-143.5 283,-143.5 283,-124.5 176,-124.5"/>
<text text-anchor="middle" x="229.5" y="-131.5" font-family="Helvetica,sans-Serif" font-size="10.00">System.IComparable</text>
</a>
</g>
</g>
<!-- Node11&#45;&gt;Node10 -->
<g id="edge4" class="edge"><title>Node11&#45;&gt;Node10</title>
<path fill="none" stroke="orange" stroke-dasharray="5,2" d="M230.375,-114.037C230.946,-101.67 231.664,-86.1198 232.102,-76.6273"/>
<polygon fill="orange" stroke="orange" points="226.869,-114.083 229.905,-124.234 233.862,-114.406 226.869,-114.083"/>
<text text-anchor="middle" x="252.5" y="-98" font-family="Helvetica,sans-Serif" font-size="10.00"> &lt; Guid &gt;</text>
</g>
<!-- Node12 -->
<g id="node6" class="node"><title>Node12</title>
<g id="a_node6"><a xlink:href="interface_system_1_1_i_equatable.html" target="_top" xlink:title=" ">
<polygon fill="none" stroke="black" points="310,-57.5 310,-76.5 411,-76.5 411,-57.5 310,-57.5"/>
<text text-anchor="middle" x="360.5" y="-64.5" font-family="Helvetica,sans-Serif" font-size="10.00">IEquatable&lt; Guid &gt;</text>
</a>
</g>
</g>
<!-- Node12&#45;&gt;Node7 -->
<g id="edge5" class="edge"><title>Node12&#45;&gt;Node7</title>
<path fill="none" stroke="midnightblue" d="M318.91,-54.7318C280.38,-44.2927 223.913,-28.9937 188.996,-19.5334"/>
<polygon fill="midnightblue" stroke="midnightblue" points="318.214,-58.1693 328.781,-57.4063 320.045,-51.4129 318.214,-58.1693"/>
</g>
<!-- Node13 -->
<g id="node7" class="node"><title>Node13</title>
<g id="a_node7"><a xlink:href="interface_system_1_1_i_equatable.html" target="_top" xlink:title="Defines a generalized method that a value type or class implements to create a type&#45;specific method f...">
<polygon fill="none" stroke="black" points="301.5,-124.5 301.5,-143.5 423.5,-143.5 423.5,-124.5 301.5,-124.5"/>
<text text-anchor="middle" x="362.5" y="-131.5" font-family="Helvetica,sans-Serif" font-size="10.00">System.IEquatable&lt; T &gt;</text>
</a>
</g>
</g>
<!-- Node13&#45;&gt;Node12 -->
<g id="edge6" class="edge"><title>Node13&#45;&gt;Node12</title>
<path fill="none" stroke="orange" stroke-dasharray="5,2" d="M361.917,-114.037C361.536,-101.67 361.058,-86.1198 360.765,-76.6273"/>
<polygon fill="orange" stroke="orange" points="358.424,-114.346 362.23,-124.234 365.421,-114.131 358.424,-114.346"/>
<text text-anchor="middle" x="382.5" y="-98" font-family="Helvetica,sans-Serif" font-size="10.00"> &lt; Guid &gt;</text>
</g>
</g>
</svg>
