<?xml version="1.0" encoding="UTF-8" standalone="no"?>
<!DOCTYPE svg PUBLIC "-//W3C//DTD SVG 1.1//EN"
 "http://www.w3.org/Graphics/SVG/1.1/DTD/svg11.dtd">
<!-- Generated by graphviz version 2.38.0 (20140413.2041)
 -->
<!-- Title: System.Deployment.Internal.Isolation.BLOB Pages: 1 -->
<svg width="218pt" height="163pt"
 viewBox="0.00 0.00 218.00 163.00" xmlns="http://www.w3.org/2000/svg" xmlns:xlink="http://www.w3.org/1999/xlink">
<g id="graph0" class="graph" transform="scale(1 1) rotate(0) translate(4 159)">
<title>System.Deployment.Internal.Isolation.BLOB</title>
<!-- Node2 -->
<g id="node1" class="node"><title>Node2</title>
<g id="a_node1"><a xlink:title=" ">
<polygon fill="#bfbfbf" stroke="black" points="0,-0.5 0,-30.5 143,-30.5 143,-0.5 0,-0.5"/>
<text text-anchor="start" x="8" y="-18.5" font-family="Helvetica,sans-Serif" font-size="10.00">System.Deployment.Internal.</text>
<text text-anchor="middle" x="71.5" y="-7.5" font-family="Helvetica,sans-Serif" font-size="10.00">Isolation.BLOB</text>
</a>
</g>
</g>
<!-- Node3 -->
<g id="node2" class="node"><title>Node3</title>
<g id="a_node2"><a xlink:href="interface_system_1_1_i_disposable.html" target="_top" xlink:title="Provides a mechanism for releasing unmanaged resources.To browse the .NET Framework source code for t...">
<polygon fill="none" stroke="black" points="8,-78.5 8,-97.5 75,-97.5 75,-78.5 8,-78.5"/>
<text text-anchor="middle" x="41.5" y="-85.5" font-family="Helvetica,sans-Serif" font-size="10.00">IDisposable</text>
</a>
</g>
</g>
<!-- Node3&#45;&gt;Node2 -->
<g id="edge1" class="edge"><title>Node3&#45;&gt;Node2</title>
<path fill="none" stroke="midnightblue" d="M49.175,-68.9637C54.2535,-57.0293 60.8167,-41.6057 65.5101,-30.5762"/>
<polygon fill="midnightblue" stroke="midnightblue" points="45.8737,-67.7833 45.1786,-78.3553 52.3147,-70.5242 45.8737,-67.7833"/>
</g>
<!-- Node4 -->
<g id="node3" class="node"><title>Node4</title>
<g id="a_node3"><a xlink:href="struct_system_1_1_int_ptr.html" target="_top" xlink:title="A platform&#45;specific type that is used to represent a pointer or a handle.">
<polygon fill="none" stroke="black" points="93,-78.5 93,-97.5 170,-97.5 170,-78.5 93,-78.5"/>
<text text-anchor="middle" x="131.5" y="-85.5" font-family="Helvetica,sans-Serif" font-size="10.00">System.IntPtr</text>
</a>
</g>
</g>
<!-- Node4&#45;&gt;Node2 -->
<g id="edge2" class="edge"><title>Node4&#45;&gt;Node2</title>
<path fill="none" stroke="#9a32cd" stroke-dasharray="5,2" d="M117.366,-70.3927C107.06,-58.2828 93.2458,-42.0514 83.4797,-30.5762"/>
<polygon fill="#9a32cd" stroke="#9a32cd" points="114.996,-73.0083 124.143,-78.3553 120.327,-68.4715 114.996,-73.0083"/>
<text text-anchor="middle" x="128" y="-52" font-family="Helvetica,sans-Serif" font-size="10.00"> BlobData</text>
</g>
<!-- Node4&#45;&gt;Node4 -->
<g id="edge4" class="edge"><title>Node4&#45;&gt;Node4</title>
<path fill="none" stroke="#9a32cd" stroke-dasharray="5,2" d="M180.22,-92.263C184.979,-91.4034 188,-89.9824 188,-88 188,-84.8281 180.266,-83.0935 170.055,-82.7961"/>
<polygon fill="#9a32cd" stroke="#9a32cd" points="179.69,-88.797 170.055,-93.2039 180.335,-95.7672 179.69,-88.797"/>
<text text-anchor="middle" x="199" y="-85.5" font-family="Helvetica,sans-Serif" font-size="10.00"> Zero</text>
</g>
<!-- Node5 -->
<g id="node4" class="node"><title>Node5</title>
<g id="a_node4"><a xlink:href="interface_system_1_1_runtime_1_1_serialization_1_1_i_serializable.html" target="_top" xlink:title="Allows an object to control its own serialization and deserialization.">
<polygon fill="none" stroke="black" points="97,-135.5 97,-154.5 166,-154.5 166,-135.5 97,-135.5"/>
<text text-anchor="middle" x="131.5" y="-142.5" font-family="Helvetica,sans-Serif" font-size="10.00">ISerializable</text>
</a>
</g>
</g>
<!-- Node5&#45;&gt;Node4 -->
<g id="edge3" class="edge"><title>Node5&#45;&gt;Node4</title>
<path fill="none" stroke="midnightblue" d="M131.5,-125.117C131.5,-115.817 131.5,-105.056 131.5,-97.7149"/>
<polygon fill="midnightblue" stroke="midnightblue" points="128,-125.406 131.5,-135.406 135,-125.406 128,-125.406"/>
</g>
</g>
</svg>
