<?xml version="1.0" encoding="UTF-8" standalone="no"?>
<!DOCTYPE svg PUBLIC "-//W3C//DTD SVG 1.1//EN"
 "http://www.w3.org/Graphics/SVG/1.1/DTD/svg11.dtd">
<!-- Generated by graphviz version 2.38.0 (20140413.2041)
 -->
<!-- Title: System.DateTime Pages: 1 -->
<svg width="270pt" height="218pt"
 viewBox="0.00 0.00 270.00 218.00" xmlns="http://www.w3.org/2000/svg" xmlns:xlink="http://www.w3.org/1999/xlink">
<g id="graph0" class="graph" transform="scale(1 1) rotate(0) translate(4 214)">
<title>System.DateTime</title>
<!-- Node9 -->
<g id="node1" class="node"><title>Node9</title>
<g id="a_node1"><a xlink:title="Represents an instant in time, typically expressed as a date and time of day. To browse the ....">
<polygon fill="#bfbfbf" stroke="black" points="167,-95.5 167,-114.5 262,-114.5 262,-95.5 167,-95.5"/>
<text text-anchor="middle" x="214.5" y="-102.5" font-family="Helvetica,sans-Serif" font-size="10.00">System.DateTime</text>
</a>
</g>
</g>
<!-- Node9&#45;&gt;Node9 -->
<g id="edge7" class="edge"><title>Node9&#45;&gt;Node9</title>
<path fill="none" stroke="#9a32cd" stroke-dasharray="5,2" d="M202.346,-124.766C203.3,-129.497 207.352,-133 214.5,-133 226.23,-133 229.621,-123.565 224.673,-114.757"/>
<polygon fill="#9a32cd" stroke="#9a32cd" points="205.818,-125.246 204.327,-114.757 198.952,-123.887 205.818,-125.246"/>
<text text-anchor="middle" x="214.5" y="-147" font-family="Helvetica,sans-Serif" font-size="10.00"> MaxValue</text>
<text text-anchor="middle" x="214.5" y="-136" font-family="Helvetica,sans-Serif" font-size="10.00">MinValue</text>
</g>
<!-- Node10 -->
<g id="node2" class="node"><title>Node10</title>
<g id="a_node2"><a xlink:href="interface_system_1_1_i_comparable.html" target="_top" xlink:title="Defines a generalized type&#45;specific comparison method that a value type or class implements to order ...">
<polygon fill="none" stroke="black" points="29.5,-190.5 29.5,-209.5 100.5,-209.5 100.5,-190.5 29.5,-190.5"/>
<text text-anchor="middle" x="65" y="-197.5" font-family="Helvetica,sans-Serif" font-size="10.00">IComparable</text>
</a>
</g>
</g>
<!-- Node10&#45;&gt;Node9 -->
<g id="edge1" class="edge"><title>Node10&#45;&gt;Node9</title>
<path fill="none" stroke="midnightblue" d="M110.518,-189.625C117.255,-187.255 123.963,-184.405 130,-181 161.928,-162.994 191.766,-130.741 205.53,-114.663"/>
<polygon fill="midnightblue" stroke="midnightblue" points="109.162,-186.384 100.702,-192.762 111.292,-193.052 109.162,-186.384"/>
</g>
<!-- Node11 -->
<g id="node3" class="node"><title>Node11</title>
<g id="a_node3"><a xlink:href="interface_system_1_1_i_formattable.html" target="_top" xlink:title="Provides functionality to format the value of an object into a string representation.">
<polygon fill="none" stroke="black" points="29.5,-152.5 29.5,-171.5 100.5,-171.5 100.5,-152.5 29.5,-152.5"/>
<text text-anchor="middle" x="65" y="-159.5" font-family="Helvetica,sans-Serif" font-size="10.00">IFormattable</text>
</a>
</g>
</g>
<!-- Node11&#45;&gt;Node9 -->
<g id="edge2" class="edge"><title>Node11&#45;&gt;Node9</title>
<path fill="none" stroke="midnightblue" d="M110.177,-149.758C116.87,-147.653 123.654,-145.373 130,-143 152.676,-134.521 177.861,-122.714 194.582,-114.521"/>
<polygon fill="midnightblue" stroke="midnightblue" points="109.045,-146.444 100.501,-152.709 111.087,-153.14 109.045,-146.444"/>
</g>
<!-- Node12 -->
<g id="node4" class="node"><title>Node12</title>
<g id="a_node4"><a xlink:href="interface_system_1_1_i_convertible.html" target="_top" xlink:title="Defines methods that convert the value of the implementing reference or value type to a common langua...">
<polygon fill="none" stroke="black" points="32,-114.5 32,-133.5 98,-133.5 98,-114.5 32,-114.5"/>
<text text-anchor="middle" x="65" y="-121.5" font-family="Helvetica,sans-Serif" font-size="10.00">IConvertible</text>
</a>
</g>
</g>
<!-- Node12&#45;&gt;Node9 -->
<g id="edge3" class="edge"><title>Node12&#45;&gt;Node9</title>
<path fill="none" stroke="midnightblue" d="M108.13,-118.573C126.518,-116.204 148.141,-113.419 166.998,-110.99"/>
<polygon fill="midnightblue" stroke="midnightblue" points="107.476,-115.128 98.0053,-119.877 108.371,-122.071 107.476,-115.128"/>
</g>
<!-- Node13 -->
<g id="node5" class="node"><title>Node13</title>
<g id="a_node5"><a xlink:href="interface_system_1_1_runtime_1_1_serialization_1_1_i_serializable.html" target="_top" xlink:title="Allows an object to control its own serialization and deserialization.">
<polygon fill="none" stroke="black" points="30.5,-76.5 30.5,-95.5 99.5,-95.5 99.5,-76.5 30.5,-76.5"/>
<text text-anchor="middle" x="65" y="-83.5" font-family="Helvetica,sans-Serif" font-size="10.00">ISerializable</text>
</a>
</g>
</g>
<!-- Node13&#45;&gt;Node9 -->
<g id="edge4" class="edge"><title>Node13&#45;&gt;Node9</title>
<path fill="none" stroke="midnightblue" d="M109.791,-91.6409C127.8,-93.9607 148.68,-96.6503 166.965,-99.0056"/>
<polygon fill="midnightblue" stroke="midnightblue" points="110.205,-88.1653 99.8395,-90.359 109.31,-95.108 110.205,-88.1653"/>
</g>
<!-- Node14 -->
<g id="node6" class="node"><title>Node14</title>
<g id="a_node6"><a xlink:href="interface_system_1_1_i_comparable.html" target="_top" xlink:title=" ">
<polygon fill="none" stroke="red" points="0,-38.5 0,-57.5 130,-57.5 130,-38.5 0,-38.5"/>
<text text-anchor="middle" x="65" y="-45.5" font-family="Helvetica,sans-Serif" font-size="10.00">IComparable&lt; DateTime &gt;</text>
</a>
</g>
</g>
<!-- Node14&#45;&gt;Node9 -->
<g id="edge5" class="edge"><title>Node14&#45;&gt;Node9</title>
<path fill="none" stroke="midnightblue" d="M111.321,-60.603C117.641,-62.6072 124.015,-64.7622 130,-67 152.676,-75.4792 177.861,-87.2858 194.582,-95.4793"/>
<polygon fill="midnightblue" stroke="midnightblue" points="112.087,-57.177 101.5,-57.5876 110.033,-63.8686 112.087,-57.177"/>
</g>
<!-- Node16 -->
<g id="node7" class="node"><title>Node16</title>
<g id="a_node7"><a xlink:href="interface_system_1_1_i_equatable.html" target="_top" xlink:title=" ">
<polygon fill="none" stroke="red" points="4,-0.5 4,-19.5 126,-19.5 126,-0.5 4,-0.5"/>
<text text-anchor="middle" x="65" y="-7.5" font-family="Helvetica,sans-Serif" font-size="10.00">IEquatable&lt; DateTime &gt;</text>
</a>
</g>
</g>
<!-- Node16&#45;&gt;Node9 -->
<g id="edge6" class="edge"><title>Node16&#45;&gt;Node9</title>
<path fill="none" stroke="midnightblue" d="M117.598,-23.0613C121.897,-24.8217 126.09,-26.7946 130,-29 161.928,-47.0064 191.766,-79.259 205.53,-95.3371"/>
<polygon fill="midnightblue" stroke="midnightblue" points="118.676,-19.7283 108.083,-19.5392 116.246,-26.293 118.676,-19.7283"/>
</g>
</g>
</svg>
