<?xml version="1.0" encoding="UTF-8" standalone="no"?>
<!DOCTYPE svg PUBLIC "-//W3C//DTD SVG 1.1//EN"
 "http://www.w3.org/Graphics/SVG/1.1/DTD/svg11.dtd">
<!-- Generated by graphviz version 2.38.0 (20140413.2041)
 -->
<!-- Title: System.Runtime.InteropServices.ComTypes.ELEMDESC Pages: 1 -->
<!--zoomable 132 -->
<svg id="main" version="1.1" xmlns="http://www.w3.org/2000/svg" xmlns:xlink="http://www.w3.org/1999/xlink" xml:space="preserve" onload="init(evt)">
<style type="text/css"><![CDATA[
.edge:hover path { stroke: red; }
.edge:hover polygon { stroke: red; fill: red; }
]]></style>
<script type="text/javascript"><![CDATA[
var edges = document.getElementsByTagName('g');
if (edges && edges.length) {
  for (var i=0;i<edges.length;i++) {
    if (edges[i].id.substr(0,4)=='edge') {
      edges[i].setAttribute('class','edge');
    }
  }
}
]]></script>
        <defs>
                <circle id="rim" cx="0" cy="0" r="7"/>
                <circle id="rim2" cx="0" cy="0" r="3.5"/>
                <g id="zoomPlus">
                        <use xlink:href="#rim" fill="#404040">
                                <set attributeName="fill" to="#808080" begin="zoomplus.mouseover" end="zoomplus.mouseout"/>
                        </use>
                        <path d="M-4,0h8M0,-4v8" fill="none" stroke="white" stroke-width="1.5" pointer-events="none"/>
                </g>
                <g id="zoomMin">
                        <use xlink:href="#rim" fill="#404040">
                                <set attributeName="fill" to="#808080" begin="zoomminus.mouseover" end="zoomminus.mouseout"/>
                        </use>
                        <path d="M-4,0h8" fill="none" stroke="white" stroke-width="1.5" pointer-events="none"/>
                </g>
                <g id="dirArrow">
                        <path fill="none" stroke="white" stroke-width="1.5" d="M0,-3.0v7 M-2.5,-0.5L0,-3.0L2.5,-0.5"/>
                </g>
               <g id="resetDef">
                       <use xlink:href="#rim2" fill="#404040">
                               <set attributeName="fill" to="#808080" begin="reset.mouseover" end="reset.mouseout"/>
                       </use>
               </g>
        </defs>

<script type="text/javascript">
var viewWidth = 1042;
var viewHeight = 132;
var sectionId = 'dynsection-0';
</script>
<script xlink:href="svgpan.js"/>
<svg id="graph" class="graph">
<g id="viewport">
<title>System.Runtime.InteropServices.ComTypes.ELEMDESC</title>
<!-- Node1 -->
<g id="node1" class="node"><title>Node1</title>
<g id="a_node1"><a xlink:title="Contains the type description and process transfer information for a variable, function,...">
<polygon fill="#bfbfbf" stroke="black" points="873,-19.5 873,-49.5 1034,-49.5 1034,-19.5 873,-19.5"/>
<text text-anchor="start" x="881" y="-37.5" font-family="Helvetica,sans-Serif" font-size="10.00">System.Runtime.InteropServices.</text>
<text text-anchor="middle" x="953.5" y="-26.5" font-family="Helvetica,sans-Serif" font-size="10.00">ComTypes.ELEMDESC</text>
</a>
</g>
</g>
<!-- Node2 -->
<g id="node2" class="node"><title>Node2</title>
<g id="a_node2"><a xlink:href="struct_system_1_1_runtime_1_1_interop_services_1_1_com_types_1_1_e_l_e_m_d_e_s_c_1_1_d_e_s_c_u_n_i_o_n.html" target="_top" xlink:title="Contains information about an element.">
<polygon fill="none" stroke="black" points="632,-45.5 632,-75.5 812,-75.5 812,-45.5 632,-45.5"/>
<text text-anchor="start" x="640" y="-63.5" font-family="Helvetica,sans-Serif" font-size="10.00">System.Runtime.InteropServices.</text>
<text text-anchor="middle" x="722" y="-52.5" font-family="Helvetica,sans-Serif" font-size="10.00">ComTypes.ELEMDESC.DESCUNION</text>
</a>
</g>
</g>
<!-- Node2&#45;&gt;Node1 -->
<g id="edge1" class="edge"><title>Node2&#45;&gt;Node1</title>
<path fill="none" stroke="#9a32cd" stroke-dasharray="5,2" d="M821.997,-49.2847C838.987,-47.3599 856.447,-45.3819 872.848,-43.5238"/>
<polygon fill="#9a32cd" stroke="#9a32cd" points="821.602,-45.807 812.059,-50.4105 822.39,-52.7625 821.602,-45.807"/>
<text text-anchor="middle" x="842.5" y="-51.5" font-family="Helvetica,sans-Serif" font-size="10.00"> desc</text>
</g>
<!-- Node3 -->
<g id="node3" class="node"><title>Node3</title>
<g id="a_node3"><a xlink:href="struct_system_1_1_runtime_1_1_interop_services_1_1_com_types_1_1_p_a_r_a_m_d_e_s_c.html" target="_top" xlink:title="Contains information about how to transfer a structure element, parameter, or function return value b...">
<polygon fill="none" stroke="black" points="274,-93.5 274,-123.5 435,-123.5 435,-93.5 274,-93.5"/>
<text text-anchor="start" x="282" y="-111.5" font-family="Helvetica,sans-Serif" font-size="10.00">System.Runtime.InteropServices.</text>
<text text-anchor="middle" x="354.5" y="-100.5" font-family="Helvetica,sans-Serif" font-size="10.00">ComTypes.PARAMDESC</text>
</a>
</g>
</g>
<!-- Node3&#45;&gt;Node2 -->
<g id="edge2" class="edge"><title>Node3&#45;&gt;Node2</title>
<path fill="none" stroke="#9a32cd" stroke-dasharray="5,2" d="M445.105,-97.3364C494.872,-91.0669 557.889,-83.0143 614,-75.5 619.856,-74.7157 625.892,-73.8973 631.973,-73.0651"/>
<polygon fill="#9a32cd" stroke="#9a32cd" points="444.5,-93.8849 435.015,-98.606 445.373,-100.83 444.5,-93.8849"/>
<text text-anchor="middle" x="533.5" y="-99.5" font-family="Helvetica,sans-Serif" font-size="10.00"> paramdesc</text>
</g>
<!-- Node4 -->
<g id="node4" class="node"><title>Node4</title>
<g id="a_node4"><a xlink:href="struct_system_1_1_int_ptr.html" target="_top" xlink:title="A platform&#45;specific type that is used to represent a pointer or a handle.">
<polygon fill="none" stroke="black" points="106,-50 106,-69 183,-69 183,-50 106,-50"/>
<text text-anchor="middle" x="144.5" y="-57" font-family="Helvetica,sans-Serif" font-size="10.00">System.IntPtr</text>
</a>
</g>
</g>
<!-- Node4&#45;&gt;Node3 -->
<g id="edge3" class="edge"><title>Node4&#45;&gt;Node3</title>
<path fill="none" stroke="#9a32cd" stroke-dasharray="5,2" d="M189.768,-71.654C193.562,-72.6379 197.345,-73.599 201,-74.5 227.733,-81.0891 257.24,-87.798 283.12,-93.4959"/>
<polygon fill="#9a32cd" stroke="#9a32cd" points="190.343,-68.186 179.781,-69.0216 188.559,-74.9548 190.343,-68.186"/>
<text text-anchor="middle" x="228.5" y="-90.5" font-family="Helvetica,sans-Serif" font-size="10.00"> lpVarValue</text>
</g>
<!-- Node4&#45;&gt;Node4 -->
<g id="edge5" class="edge"><title>Node4&#45;&gt;Node4</title>
<path fill="none" stroke="#9a32cd" stroke-dasharray="5,2" d="M134.187,-79.2663C134.997,-83.9965 138.435,-87.5 144.5,-87.5 154.453,-87.5 157.33,-78.0653 153.131,-69.2571"/>
<polygon fill="#9a32cd" stroke="#9a32cd" points="137.664,-79.6988 135.869,-69.2571 130.76,-78.539 137.664,-79.6988"/>
<text text-anchor="middle" x="144.5" y="-90.5" font-family="Helvetica,sans-Serif" font-size="10.00"> Zero</text>
</g>
<!-- Node6 -->
<g id="node6" class="node"><title>Node6</title>
<g id="a_node6"><a xlink:href="struct_system_1_1_runtime_1_1_interop_services_1_1_com_types_1_1_i_d_l_d_e_s_c.html" target="_top" xlink:title="Contains information needed for transferring a structure element, parameter, or function return value...">
<polygon fill="none" stroke="black" points="274,-44.5 274,-74.5 435,-74.5 435,-44.5 274,-44.5"/>
<text text-anchor="start" x="282" y="-62.5" font-family="Helvetica,sans-Serif" font-size="10.00">System.Runtime.InteropServices.</text>
<text text-anchor="middle" x="354.5" y="-51.5" font-family="Helvetica,sans-Serif" font-size="10.00">ComTypes.IDLDESC</text>
</a>
</g>
</g>
<!-- Node4&#45;&gt;Node6 -->
<g id="edge7" class="edge"><title>Node4&#45;&gt;Node6</title>
<path fill="none" stroke="#9a32cd" stroke-dasharray="5,2" d="M193.368,-59.5C217.237,-59.5 246.739,-59.5 273.89,-59.5"/>
<polygon fill="#9a32cd" stroke="#9a32cd" points="193.167,-56.0001 183.167,-59.5 193.167,-63.0001 193.167,-56.0001"/>
<text text-anchor="middle" x="228.5" y="-62.5" font-family="Helvetica,sans-Serif" font-size="10.00"> dwReserved</text>
</g>
<!-- Node7 -->
<g id="node7" class="node"><title>Node7</title>
<g id="a_node7"><a xlink:href="struct_system_1_1_runtime_1_1_interop_services_1_1_com_types_1_1_t_y_p_e_d_e_s_c.html" target="_top" xlink:title="Describes the type of a variable, return type of a function, or the type of a function parameter.">
<polygon fill="none" stroke="black" points="453,-0.5 453,-30.5 614,-30.5 614,-0.5 453,-0.5"/>
<text text-anchor="start" x="461" y="-18.5" font-family="Helvetica,sans-Serif" font-size="10.00">System.Runtime.InteropServices.</text>
<text text-anchor="middle" x="533.5" y="-7.5" font-family="Helvetica,sans-Serif" font-size="10.00">ComTypes.TYPEDESC</text>
</a>
</g>
</g>
<!-- Node4&#45;&gt;Node7 -->
<g id="edge9" class="edge"><title>Node4&#45;&gt;Node7</title>
<path fill="none" stroke="#9a32cd" stroke-dasharray="5,2" d="M187.634,-47.5107C192.127,-46.4124 196.645,-45.3829 201,-44.5 285.93,-27.2794 385.144,-20.2828 452.745,-17.4412"/>
<polygon fill="#9a32cd" stroke="#9a32cd" points="186.732,-44.1285 177.91,-49.9948 188.465,-50.9107 186.732,-44.1285"/>
<text text-anchor="middle" x="228.5" y="-47.5" font-family="Helvetica,sans-Serif" font-size="10.00"> lpValue</text>
</g>
<!-- Node5 -->
<g id="node5" class="node"><title>Node5</title>
<g id="a_node5"><a xlink:href="interface_system_1_1_runtime_1_1_serialization_1_1_i_serializable.html" target="_top" xlink:title="Allows an object to control its own serialization and deserialization.">
<polygon fill="none" stroke="black" points="0,-50 0,-69 69,-69 69,-50 0,-50"/>
<text text-anchor="middle" x="34.5" y="-57" font-family="Helvetica,sans-Serif" font-size="10.00">ISerializable</text>
</a>
</g>
</g>
<!-- Node5&#45;&gt;Node4 -->
<g id="edge4" class="edge"><title>Node5&#45;&gt;Node4</title>
<path fill="none" stroke="midnightblue" d="M79.1953,-59.5C88.0115,-59.5 97.2082,-59.5 105.798,-59.5"/>
<polygon fill="midnightblue" stroke="midnightblue" points="79.0799,-56.0001 69.0799,-59.5 79.0798,-63.0001 79.0799,-56.0001"/>
</g>
<!-- Node6&#45;&gt;Node2 -->
<g id="edge6" class="edge"><title>Node6&#45;&gt;Node2</title>
<path fill="none" stroke="#9a32cd" stroke-dasharray="5,2" d="M445.3,-59.7457C502.066,-59.901 575.137,-60.1009 631.79,-60.2559"/>
<polygon fill="#9a32cd" stroke="#9a32cd" points="445.268,-56.2457 435.259,-59.7182 445.249,-63.2457 445.268,-56.2457"/>
<text text-anchor="middle" x="533.5" y="-63.5" font-family="Helvetica,sans-Serif" font-size="10.00"> idldesc</text>
</g>
<!-- Node7&#45;&gt;Node1 -->
<g id="edge8" class="edge"><title>Node7&#45;&gt;Node1</title>
<path fill="none" stroke="#9a32cd" stroke-dasharray="5,2" d="M624.376,-17.5356C678.715,-18.9852 749.366,-21.2565 812,-24.5 831.659,-25.518 852.847,-26.8846 872.659,-28.2799"/>
<polygon fill="#9a32cd" stroke="#9a32cd" points="624.168,-14.0291 614.079,-17.2656 623.984,-21.0266 624.168,-14.0291"/>
<text text-anchor="middle" x="722" y="-27.5" font-family="Helvetica,sans-Serif" font-size="10.00"> tdesc</text>
</g>
</g>
</svg>
        <g id="navigator" transform="translate(0 0)" fill="#404254">
                <rect fill="#f2f5e9" fill-opacity="0.5" stroke="#606060" stroke-width=".5" x="0" y="0" width="60" height="60"/>
                <use id="zoomplus" xlink:href="#zoomPlus" x="17" y="9" onmousedown="handleZoom(evt,'in')"/>
                <use id="zoomminus" xlink:href="#zoomMin" x="42" y="9" onmousedown="handleZoom(evt,'out')"/>
                <use id="reset" xlink:href="#resetDef" x="30" y="36" onmousedown="handleReset()"/>
                <g id="arrowUp" xlink:href="#dirArrow" transform="translate(30 24)" onmousedown="handlePan(0,-1)">
                  <use xlink:href="#rim" fill="#404040">
                        <set attributeName="fill" to="#808080" begin="arrowUp.mouseover" end="arrowUp.mouseout"/>
                  </use>
                  <path fill="none" stroke="white" stroke-width="1.5" d="M0,-3.0v7 M-2.5,-0.5L0,-3.0L2.5,-0.5"/>
                </g>
                <g id="arrowRight" xlink:href="#dirArrow" transform="rotate(90) translate(36 -43)" onmousedown="handlePan(1,0)">
                  <use xlink:href="#rim" fill="#404040">
                        <set attributeName="fill" to="#808080" begin="arrowRight.mouseover" end="arrowRight.mouseout"/>
                  </use>
                  <path fill="none" stroke="white" stroke-width="1.5" d="M0,-3.0v7 M-2.5,-0.5L0,-3.0L2.5,-0.5"/>
                </g>
                <g id="arrowDown" xlink:href="#dirArrow" transform="rotate(180) translate(-30 -48)" onmousedown="handlePan(0,1)">
                  <use xlink:href="#rim" fill="#404040">
                        <set attributeName="fill" to="#808080" begin="arrowDown.mouseover" end="arrowDown.mouseout"/>
                  </use>
                  <path fill="none" stroke="white" stroke-width="1.5" d="M0,-3.0v7 M-2.5,-0.5L0,-3.0L2.5,-0.5"/>
                </g>
                <g id="arrowLeft" xlink:href="#dirArrow" transform="rotate(270) translate(-36 17)" onmousedown="handlePan(-1,0)">
                  <use xlink:href="#rim" fill="#404040">
                        <set attributeName="fill" to="#808080" begin="arrowLeft.mouseover" end="arrowLeft.mouseout"/>
                  </use>
                  <path fill="none" stroke="white" stroke-width="1.5" d="M0,-3.0v7 M-2.5,-0.5L0,-3.0L2.5,-0.5"/>
                </g>
        </g>
        <svg viewBox="0 0 15 15" width="100%" height="30px" preserveAspectRatio="xMaxYMin meet">
         <g id="arrow_out" transform="scale(0.3 0.3)">
          <a xlink:href="struct_system_1_1_runtime_1_1_interop_services_1_1_com_types_1_1_e_l_e_m_d_e_s_c__coll__graph_org.svg" target="_base">
           <rect id="button" ry="5" rx="5" y="6" x="6" height="38" width="38"
                fill="#f2f5e9" fill-opacity="0.5" stroke="#606060" stroke-width="1.0"/>
           <path id="arrow"
             d="M 11.500037,31.436501 C 11.940474,20.09759 22.043105,11.32322 32.158766,21.979434 L 37.068811,17.246167 C 37.068811,17.246167 37.088388,32 37.088388,32 L 22.160133,31.978069 C 22.160133,31.978069 26.997745,27.140456 26.997745,27.140456 C 18.528582,18.264221 13.291696,25.230495 11.500037,31.436501 z"
             style="fill:#404040;"/>
          </a>
         </g>
        </svg>
</svg>
