<?xml version="1.0" encoding="UTF-8" standalone="no"?>
<!DOCTYPE svg PUBLIC "-//W3C//DTD SVG 1.1//EN"
 "http://www.w3.org/Graphics/SVG/1.1/DTD/svg11.dtd">
<!-- Generated by graphviz version 2.38.0 (20140413.2041)
 -->
<!-- Title: System.Threading.Tasks.RangeWorker Pages: 1 -->
<svg width="232pt" height="262pt"
 viewBox="0.00 0.00 232.00 262.00" xmlns="http://www.w3.org/2000/svg" xmlns:xlink="http://www.w3.org/1999/xlink">
<g id="graph0" class="graph" transform="scale(1 1) rotate(0) translate(4 258)">
<title>System.Threading.Tasks.RangeWorker</title>
<!-- Node1 -->
<g id="node1" class="node"><title>Node1</title>
<g id="a_node1"><a xlink:title=" ">
<polygon fill="#bfbfbf" stroke="black" points="13.5,-0.5 13.5,-30.5 168.5,-30.5 168.5,-0.5 13.5,-0.5"/>
<text text-anchor="start" x="21.5" y="-18.5" font-family="Helvetica,sans-Serif" font-size="10.00">System.Threading.Tasks.Range</text>
<text text-anchor="middle" x="91" y="-7.5" font-family="Helvetica,sans-Serif" font-size="10.00">Worker</text>
</a>
</g>
</g>
<!-- Node2 -->
<g id="node2" class="node"><title>Node2</title>
<g id="a_node2"><a xlink:href="struct_system_1_1_threading_1_1_tasks_1_1_index_range.html" target="_top" xlink:title=" ">
<polygon fill="none" stroke="black" points="15.5,-78.5 15.5,-108.5 166.5,-108.5 166.5,-78.5 15.5,-78.5"/>
<text text-anchor="start" x="23.5" y="-96.5" font-family="Helvetica,sans-Serif" font-size="10.00">System.Threading.Tasks.Index</text>
<text text-anchor="middle" x="91" y="-85.5" font-family="Helvetica,sans-Serif" font-size="10.00">Range</text>
</a>
</g>
</g>
<!-- Node2&#45;&gt;Node1 -->
<g id="edge1" class="edge"><title>Node2&#45;&gt;Node1</title>
<path fill="none" stroke="#9a32cd" stroke-dasharray="5,2" d="M91,-68.0898C91,-55.7565 91,-41.2237 91,-30.7309"/>
<polygon fill="#9a32cd" stroke="#9a32cd" points="87.5001,-68.2049 91,-78.205 94.5001,-68.205 87.5001,-68.2049"/>
<text text-anchor="middle" x="127.5" y="-52" font-family="Helvetica,sans-Serif" font-size="10.00"> m_indexRanges</text>
</g>
<!-- Node3 -->
<g id="node3" class="node"><title>Node3</title>
<g id="a_node3"><a xlink:href="class_system_1_1_threading_1_1_tasks_1_1_shared.html" target="_top" xlink:title=" ">
<polygon fill="none" stroke="black" points="12,-156.5 12,-186.5 170,-186.5 170,-156.5 12,-156.5"/>
<text text-anchor="start" x="20" y="-174.5" font-family="Helvetica,sans-Serif" font-size="10.00">System.Threading.Tasks.Shared</text>
<text text-anchor="middle" x="91" y="-163.5" font-family="Helvetica,sans-Serif" font-size="10.00">&lt; long &gt;</text>
</a>
</g>
</g>
<!-- Node3&#45;&gt;Node2 -->
<g id="edge2" class="edge"><title>Node3&#45;&gt;Node2</title>
<path fill="none" stroke="#9a32cd" stroke-dasharray="5,2" d="M91,-146.09C91,-133.757 91,-119.224 91,-108.731"/>
<polygon fill="#9a32cd" stroke="#9a32cd" points="87.5001,-146.205 91,-156.205 94.5001,-146.205 87.5001,-146.205"/>
<text text-anchor="middle" x="157.5" y="-130" font-family="Helvetica,sans-Serif" font-size="10.00"> m_nSharedCurrentIndexOffset</text>
</g>
<!-- Node4 -->
<g id="node4" class="node"><title>Node4</title>
<g id="a_node4"><a xlink:href="class_system_1_1_threading_1_1_tasks_1_1_shared.html" target="_top" xlink:title=" ">
<polygon fill="none" stroke="black" points="0,-234.5 0,-253.5 182,-253.5 182,-234.5 0,-234.5"/>
<text text-anchor="middle" x="91" y="-241.5" font-family="Helvetica,sans-Serif" font-size="10.00">System.Threading.Tasks.Shared&lt; T &gt;</text>
</a>
</g>
</g>
<!-- Node4&#45;&gt;Node3 -->
<g id="edge3" class="edge"><title>Node4&#45;&gt;Node3</title>
<path fill="none" stroke="orange" stroke-dasharray="5,2" d="M91,-224.236C91,-212.408 91,-197.383 91,-186.576"/>
<polygon fill="orange" stroke="orange" points="87.5001,-224.355 91,-234.355 94.5001,-224.355 87.5001,-224.355"/>
<text text-anchor="middle" x="111" y="-208" font-family="Helvetica,sans-Serif" font-size="10.00"> &lt; long &gt;</text>
</g>
</g>
</svg>
