<?xml version="1.0" encoding="UTF-8" standalone="no"?>
<!DOCTYPE svg PUBLIC "-//W3C//DTD SVG 1.1//EN"
 "http://www.w3.org/Graphics/SVG/1.1/DTD/svg11.dtd">
<!-- Generated by graphviz version 2.38.0 (20140413.2041)
 -->
<!-- Title: System.Threading.NativeOverlapped Pages: 1 -->
<svg width="181pt" height="174pt"
 viewBox="0.00 0.00 181.00 174.00" xmlns="http://www.w3.org/2000/svg" xmlns:xlink="http://www.w3.org/1999/xlink">
<g id="graph0" class="graph" transform="scale(1 1) rotate(0) translate(4 170)">
<title>System.Threading.NativeOverlapped</title>
<!-- Node1 -->
<g id="node1" class="node"><title>Node1</title>
<g id="a_node1"><a xlink:title="Provides an explicit layout that is visible from unmanaged code and that will have the same layout as...">
<polygon fill="#bfbfbf" stroke="black" points="0,-0.5 0,-19.5 173,-19.5 173,-0.5 0,-0.5"/>
<text text-anchor="middle" x="86.5" y="-7.5" font-family="Helvetica,sans-Serif" font-size="10.00">System.Threading.NativeOverlapped</text>
</a>
</g>
</g>
<!-- Node2 -->
<g id="node2" class="node"><title>Node2</title>
<g id="a_node2"><a xlink:href="struct_system_1_1_int_ptr.html" target="_top" xlink:title="A platform&#45;specific type that is used to represent a pointer or a handle.">
<polygon fill="none" stroke="black" points="48,-89.5 48,-108.5 125,-108.5 125,-89.5 48,-89.5"/>
<text text-anchor="middle" x="86.5" y="-96.5" font-family="Helvetica,sans-Serif" font-size="10.00">System.IntPtr</text>
</a>
</g>
</g>
<!-- Node2&#45;&gt;Node1 -->
<g id="edge1" class="edge"><title>Node2&#45;&gt;Node1</title>
<path fill="none" stroke="#9a32cd" stroke-dasharray="5,2" d="M86.5,-79.1946C86.5,-60.7379 86.5,-33.412 86.5,-19.6249"/>
<polygon fill="#9a32cd" stroke="#9a32cd" points="83.0001,-79.34 86.5,-89.34 90.0001,-79.3401 83.0001,-79.34"/>
<text text-anchor="middle" x="114" y="-63" font-family="Helvetica,sans-Serif" font-size="10.00"> InternalHigh</text>
<text text-anchor="middle" x="114" y="-52" font-family="Helvetica,sans-Serif" font-size="10.00">EventHandle</text>
<text text-anchor="middle" x="114" y="-41" font-family="Helvetica,sans-Serif" font-size="10.00">InternalLow</text>
</g>
<!-- Node2&#45;&gt;Node2 -->
<g id="edge3" class="edge"><title>Node2&#45;&gt;Node2</title>
<path fill="none" stroke="#9a32cd" stroke-dasharray="5,2" d="M135.22,-103.263C139.979,-102.403 143,-100.982 143,-99 143,-95.8281 135.266,-94.0935 125.055,-93.7961"/>
<polygon fill="#9a32cd" stroke="#9a32cd" points="134.69,-99.797 125.055,-104.204 135.335,-106.767 134.69,-99.797"/>
<text text-anchor="middle" x="154" y="-96.5" font-family="Helvetica,sans-Serif" font-size="10.00"> Zero</text>
</g>
<!-- Node3 -->
<g id="node3" class="node"><title>Node3</title>
<g id="a_node3"><a xlink:href="interface_system_1_1_runtime_1_1_serialization_1_1_i_serializable.html" target="_top" xlink:title="Allows an object to control its own serialization and deserialization.">
<polygon fill="none" stroke="black" points="52,-146.5 52,-165.5 121,-165.5 121,-146.5 52,-146.5"/>
<text text-anchor="middle" x="86.5" y="-153.5" font-family="Helvetica,sans-Serif" font-size="10.00">ISerializable</text>
</a>
</g>
</g>
<!-- Node3&#45;&gt;Node2 -->
<g id="edge2" class="edge"><title>Node3&#45;&gt;Node2</title>
<path fill="none" stroke="midnightblue" d="M86.5,-136.117C86.5,-126.817 86.5,-116.056 86.5,-108.715"/>
<polygon fill="midnightblue" stroke="midnightblue" points="83.0001,-136.406 86.5,-146.406 90.0001,-136.406 83.0001,-136.406"/>
</g>
</g>
</svg>
