<?xml version="1.0" encoding="UTF-8" standalone="no"?>
<!DOCTYPE svg PUBLIC "-//W3C//DTD SVG 1.1//EN"
 "http://www.w3.org/Graphics/SVG/1.1/DTD/svg11.dtd">
<!-- Generated by graphviz version 2.38.0 (20140413.2041)
 -->
<!-- Title: System.Deployment.Internal.Isolation.StoreOperationUnpinDeployment Pages: 1 -->
<svg width="286pt" height="174pt"
 viewBox="0.00 0.00 286.00 174.00" xmlns="http://www.w3.org/2000/svg" xmlns:xlink="http://www.w3.org/1999/xlink">
<g id="graph0" class="graph" transform="scale(1 1) rotate(0) translate(4 170)">
<title>System.Deployment.Internal.Isolation.StoreOperationUnpinDeployment</title>
<!-- Node1 -->
<g id="node1" class="node"><title>Node1</title>
<g id="a_node1"><a xlink:title=" ">
<polygon fill="#bfbfbf" stroke="black" points="66,-0.5 66,-30.5 263,-30.5 263,-0.5 66,-0.5"/>
<text text-anchor="start" x="74" y="-18.5" font-family="Helvetica,sans-Serif" font-size="10.00">System.Deployment.Internal.</text>
<text text-anchor="middle" x="164.5" y="-7.5" font-family="Helvetica,sans-Serif" font-size="10.00">Isolation.StoreOperationUnpinDeployment</text>
</a>
</g>
</g>
<!-- Node2 -->
<g id="node2" class="node"><title>Node2</title>
<g id="a_node2"><a xlink:href="struct_system_1_1_int_ptr.html" target="_top" xlink:title="A platform&#45;specific type that is used to represent a pointer or a handle.">
<polygon fill="none" stroke="black" points="0,-84 0,-103 77,-103 77,-84 0,-84"/>
<text text-anchor="middle" x="38.5" y="-91" font-family="Helvetica,sans-Serif" font-size="10.00">System.IntPtr</text>
</a>
</g>
</g>
<!-- Node2&#45;&gt;Node1 -->
<g id="edge1" class="edge"><title>Node2&#45;&gt;Node1</title>
<path fill="none" stroke="#9a32cd" stroke-dasharray="5,2" d="M61.5851,-78.5757C84.2261,-64.9192 118.561,-44.2091 141.257,-30.5198"/>
<polygon fill="#9a32cd" stroke="#9a32cd" points="59.709,-75.6198 52.9538,-83.7818 63.3245,-81.6139 59.709,-75.6198"/>
<text text-anchor="middle" x="133" y="-52" font-family="Helvetica,sans-Serif" font-size="10.00"> Reference</text>
</g>
<!-- Node2&#45;&gt;Node2 -->
<g id="edge3" class="edge"><title>Node2&#45;&gt;Node2</title>
<path fill="none" stroke="#9a32cd" stroke-dasharray="5,2" d="M87.2203,-98.6765C91.979,-97.6327 95,-95.9072 95,-93.5 95,-89.6484 87.2662,-87.5421 77.0552,-87.181"/>
<polygon fill="#9a32cd" stroke="#9a32cd" points="86.6016,-95.2239 77.0552,-99.819 87.3835,-102.18 86.6016,-95.2239"/>
<text text-anchor="middle" x="106" y="-91" font-family="Helvetica,sans-Serif" font-size="10.00"> Zero</text>
</g>
<!-- Node3 -->
<g id="node3" class="node"><title>Node3</title>
<g id="a_node3"><a xlink:href="interface_system_1_1_runtime_1_1_serialization_1_1_i_serializable.html" target="_top" xlink:title="Allows an object to control its own serialization and deserialization.">
<polygon fill="none" stroke="black" points="4,-146.5 4,-165.5 73,-165.5 73,-146.5 4,-146.5"/>
<text text-anchor="middle" x="38.5" y="-153.5" font-family="Helvetica,sans-Serif" font-size="10.00">ISerializable</text>
</a>
</g>
</g>
<!-- Node3&#45;&gt;Node2 -->
<g id="edge2" class="edge"><title>Node3&#45;&gt;Node2</title>
<path fill="none" stroke="midnightblue" d="M38.5,-136.003C38.5,-125 38.5,-111.682 38.5,-103.152"/>
<polygon fill="midnightblue" stroke="midnightblue" points="35.0001,-136.332 38.5,-146.332 42.0001,-136.332 35.0001,-136.332"/>
</g>
<!-- Node4 -->
<g id="node4" class="node"><title>Node4</title>
<g id="a_node4"><a xlink:href="interface_system_1_1_deployment_1_1_internal_1_1_isolation_1_1_i_definition_app_id.html" target="_top" xlink:title=" ">
<polygon fill="none" stroke="black" points="135,-78.5 135,-108.5 278,-108.5 278,-78.5 135,-78.5"/>
<text text-anchor="start" x="143" y="-96.5" font-family="Helvetica,sans-Serif" font-size="10.00">System.Deployment.Internal.</text>
<text text-anchor="middle" x="206.5" y="-85.5" font-family="Helvetica,sans-Serif" font-size="10.00">Isolation.IDefinitionAppId</text>
</a>
</g>
</g>
<!-- Node4&#45;&gt;Node1 -->
<g id="edge4" class="edge"><title>Node4&#45;&gt;Node1</title>
<path fill="none" stroke="#9a32cd" stroke-dasharray="5,2" d="M193.626,-69.2047C186.683,-56.641 178.339,-41.5416 172.364,-30.7309"/>
<polygon fill="#9a32cd" stroke="#9a32cd" points="190.7,-71.1455 198.6,-78.205 196.827,-67.7596 190.7,-71.1455"/>
<text text-anchor="middle" x="213.5" y="-52" font-family="Helvetica,sans-Serif" font-size="10.00"> Application</text>
</g>
</g>
</svg>
