<?xml version="1.0" encoding="UTF-8" standalone="no"?>
<!DOCTYPE svg PUBLIC "-//W3C//DTD SVG 1.1//EN"
 "http://www.w3.org/Graphics/SVG/1.1/DTD/svg11.dtd">
<!-- Generated by graphviz version 2.38.0 (20140413.2041)
 -->
<!-- Title: System.Runtime.InteropServices.TYPEATTR Pages: 1 -->
<svg width="802pt" height="254pt"
 viewBox="0.00 0.00 802.00 253.50" xmlns="http://www.w3.org/2000/svg" xmlns:xlink="http://www.w3.org/1999/xlink">
<g id="graph0" class="graph" transform="scale(1 1) rotate(0) translate(4 249.5)">
<title>System.Runtime.InteropServices.TYPEATTR</title>
<!-- Node1 -->
<g id="node1" class="node"><title>Node1</title>
<g id="a_node1"><a xlink:title="Use T:System.Runtime.InteropServices.ComTypes.TYPEATTR instead.">
<polygon fill="#bfbfbf" stroke="black" points="633,-150 633,-180 794,-180 794,-150 633,-150"/>
<text text-anchor="start" x="641" y="-168" font-family="Helvetica,sans-Serif" font-size="10.00">System.Runtime.InteropServices.</text>
<text text-anchor="middle" x="713.5" y="-157" font-family="Helvetica,sans-Serif" font-size="10.00">TYPEATTR</text>
</a>
</g>
</g>
<!-- Node2 -->
<g id="node2" class="node"><title>Node2</title>
<g id="a_node2"><a xlink:href="struct_system_1_1_runtime_1_1_interop_services_1_1_i_d_l_d_e_s_c.html" target="_top" xlink:title="Use T:System.Runtime.InteropServices.ComTypes.IDLDESC instead.">
<polygon fill="none" stroke="black" points="381,-215 381,-245 542,-245 542,-215 381,-215"/>
<text text-anchor="start" x="389" y="-233" font-family="Helvetica,sans-Serif" font-size="10.00">System.Runtime.InteropServices.</text>
<text text-anchor="middle" x="461.5" y="-222" font-family="Helvetica,sans-Serif" font-size="10.00">IDLDESC</text>
</a>
</g>
</g>
<!-- Node2&#45;&gt;Node1 -->
<g id="edge1" class="edge"><title>Node2&#45;&gt;Node1</title>
<path fill="none" stroke="#9a32cd" stroke-dasharray="5,2" d="M552.21,-213.865C572.956,-209.554 594.85,-204.534 615,-199 634.361,-193.683 655.443,-186.51 673.035,-180.123"/>
<polygon fill="#9a32cd" stroke="#9a32cd" points="551.228,-210.493 542.131,-215.924 552.629,-217.352 551.228,-210.493"/>
<text text-anchor="middle" x="587.5" y="-215" font-family="Helvetica,sans-Serif" font-size="10.00"> idldescType</text>
</g>
<!-- Node3 -->
<g id="node3" class="node"><title>Node3</title>
<g id="a_node3"><a xlink:href="struct_system_1_1_runtime_1_1_interop_services_1_1_t_y_p_e_d_e_s_c.html" target="_top" xlink:title="Use T:System.Runtime.InteropServices.ComTypes.TYPEDESC instead.">
<polygon fill="none" stroke="black" points="381,-118 381,-148 542,-148 542,-118 381,-118"/>
<text text-anchor="start" x="389" y="-136" font-family="Helvetica,sans-Serif" font-size="10.00">System.Runtime.InteropServices.</text>
<text text-anchor="middle" x="461.5" y="-125" font-family="Helvetica,sans-Serif" font-size="10.00">TYPEDESC</text>
</a>
</g>
</g>
<!-- Node3&#45;&gt;Node1 -->
<g id="edge2" class="edge"><title>Node3&#45;&gt;Node1</title>
<path fill="none" stroke="#9a32cd" stroke-dasharray="5,2" d="M552.231,-144.486C578.489,-147.847 607.008,-151.497 632.612,-154.774"/>
<polygon fill="#9a32cd" stroke="#9a32cd" points="552.652,-141.011 542.289,-143.213 551.764,-147.954 552.652,-141.011"/>
<text text-anchor="middle" x="587.5" y="-154" font-family="Helvetica,sans-Serif" font-size="10.00"> tdescAlias</text>
</g>
<!-- Node4 -->
<g id="node4" class="node"><title>Node4</title>
<g id="a_node4"><a xlink:href="struct_system_1_1_int_ptr.html" target="_top" xlink:title="A platform&#45;specific type that is used to represent a pointer or a handle.">
<polygon fill="none" stroke="black" points="216,-162.5 216,-181.5 293,-181.5 293,-162.5 216,-162.5"/>
<text text-anchor="middle" x="254.5" y="-169.5" font-family="Helvetica,sans-Serif" font-size="10.00">System.IntPtr</text>
</a>
</g>
</g>
<!-- Node4&#45;&gt;Node1 -->
<g id="edge6" class="edge"><title>Node4&#45;&gt;Node1</title>
<path fill="none" stroke="#9a32cd" stroke-dasharray="5,2" d="M303.329,-171.636C321.953,-171.473 343.474,-171.258 363,-171 455.538,-169.775 561.85,-167.881 632.687,-166.549"/>
<polygon fill="#9a32cd" stroke="#9a32cd" points="303.281,-168.136 293.311,-171.721 303.34,-175.136 303.281,-168.136"/>
<text text-anchor="middle" x="461.5" y="-173" font-family="Helvetica,sans-Serif" font-size="10.00"> lpstrSchema</text>
</g>
<!-- Node4&#45;&gt;Node3 -->
<g id="edge3" class="edge"><title>Node4&#45;&gt;Node3</title>
<path fill="none" stroke="#9a32cd" stroke-dasharray="5,2" d="M303.069,-162.95C326.374,-158.517 355.056,-153.06 381.526,-148.024"/>
<polygon fill="#9a32cd" stroke="#9a32cd" points="302.27,-159.539 293.1,-164.847 303.578,-166.416 302.27,-159.539"/>
<text text-anchor="middle" x="345" y="-161" font-family="Helvetica,sans-Serif" font-size="10.00"> lpValue</text>
</g>
<!-- Node4&#45;&gt;Node4 -->
<g id="edge5" class="edge"><title>Node4&#45;&gt;Node4</title>
<path fill="none" stroke="#9a32cd" stroke-dasharray="5,2" d="M237.834,-191.4C238.947,-196.315 244.502,-200 254.5,-200 270.496,-200 275.12,-190.565 268.372,-181.757"/>
<polygon fill="#9a32cd" stroke="#9a32cd" points="241.207,-192.336 240.628,-181.757 234.483,-190.388 241.207,-192.336"/>
<text text-anchor="middle" x="254.5" y="-203" font-family="Helvetica,sans-Serif" font-size="10.00"> Zero</text>
</g>
<!-- Node5 -->
<g id="node5" class="node"><title>Node5</title>
<g id="a_node5"><a xlink:href="interface_system_1_1_runtime_1_1_serialization_1_1_i_serializable.html" target="_top" xlink:title="Allows an object to control its own serialization and deserialization.">
<polygon fill="none" stroke="black" points="26.5,-162.5 26.5,-181.5 95.5,-181.5 95.5,-162.5 26.5,-162.5"/>
<text text-anchor="middle" x="61" y="-169.5" font-family="Helvetica,sans-Serif" font-size="10.00">ISerializable</text>
</a>
</g>
</g>
<!-- Node5&#45;&gt;Node4 -->
<g id="edge4" class="edge"><title>Node5&#45;&gt;Node4</title>
<path fill="none" stroke="midnightblue" d="M106.12,-172C139.296,-172 184.269,-172 215.779,-172"/>
<polygon fill="midnightblue" stroke="midnightblue" points="105.796,-168.5 95.7955,-172 105.796,-175.5 105.796,-168.5"/>
</g>
<!-- Node6 -->
<g id="node6" class="node"><title>Node6</title>
<g id="a_node6"><a xlink:href="struct_system_1_1_guid.html" target="_top" xlink:title="Represents a globally unique identifier (GUID).To browse the .NET Framework source code for this type...">
<polygon fill="none" stroke="black" points="424.5,-50.5 424.5,-69.5 498.5,-69.5 498.5,-50.5 424.5,-50.5"/>
<text text-anchor="middle" x="461.5" y="-57.5" font-family="Helvetica,sans-Serif" font-size="10.00">System.Guid</text>
</a>
</g>
</g>
<!-- Node6&#45;&gt;Node1 -->
<g id="edge7" class="edge"><title>Node6&#45;&gt;Node1</title>
<path fill="none" stroke="#9a32cd" stroke-dasharray="5,2" d="M494.457,-73.4218C541.149,-93.0327 627.757,-129.408 676.592,-149.919"/>
<polygon fill="#9a32cd" stroke="#9a32cd" points="495.702,-70.1487 485.127,-69.5032 492.991,-76.6026 495.702,-70.1487"/>
<text text-anchor="middle" x="587.5" y="-125" font-family="Helvetica,sans-Serif" font-size="10.00"> guid</text>
</g>
<!-- Node6&#45;&gt;Node6 -->
<g id="edge14" class="edge"><title>Node6&#45;&gt;Node6</title>
<path fill="none" stroke="#9a32cd" stroke-dasharray="5,2" d="M440.02,-79.4C441.454,-84.3146 448.614,-88 461.5,-88 482.117,-88 488.077,-78.5653 479.379,-69.7571"/>
<polygon fill="#9a32cd" stroke="#9a32cd" points="443.401,-80.3496 443.621,-69.7571 436.843,-77.9004 443.401,-80.3496"/>
<text text-anchor="middle" x="461.5" y="-91" font-family="Helvetica,sans-Serif" font-size="10.00"> Empty</text>
</g>
<!-- Node7 -->
<g id="node7" class="node"><title>Node7</title>
<g id="a_node7"><a xlink:href="interface_system_1_1_i_formattable.html" target="_top" xlink:title="Provides functionality to format the value of an object into a string representation.">
<polygon fill="none" stroke="black" points="219,-114.5 219,-133.5 290,-133.5 290,-114.5 219,-114.5"/>
<text text-anchor="middle" x="254.5" y="-121.5" font-family="Helvetica,sans-Serif" font-size="10.00">IFormattable</text>
</a>
</g>
</g>
<!-- Node7&#45;&gt;Node6 -->
<g id="edge8" class="edge"><title>Node7&#45;&gt;Node6</title>
<path fill="none" stroke="midnightblue" d="M295.752,-111.433C335.138,-99.1374 394.259,-80.68 429.935,-69.5423"/>
<polygon fill="midnightblue" stroke="midnightblue" points="294.693,-108.097 286.191,-114.419 296.779,-114.779 294.693,-108.097"/>
</g>
<!-- Node8 -->
<g id="node8" class="node"><title>Node8</title>
<g id="a_node8"><a xlink:href="interface_system_1_1_i_comparable.html" target="_top" xlink:title="Defines a generalized type&#45;specific comparison method that a value type or class implements to order ...">
<polygon fill="none" stroke="black" points="219,-76.5 219,-95.5 290,-95.5 290,-76.5 219,-76.5"/>
<text text-anchor="middle" x="254.5" y="-83.5" font-family="Helvetica,sans-Serif" font-size="10.00">IComparable</text>
</a>
</g>
</g>
<!-- Node8&#45;&gt;Node6 -->
<g id="edge9" class="edge"><title>Node8&#45;&gt;Node6</title>
<path fill="none" stroke="midnightblue" d="M300.328,-80.3145C337.471,-75.6036 389.594,-68.9929 424.171,-64.6076"/>
<polygon fill="midnightblue" stroke="midnightblue" points="299.756,-76.859 290.275,-81.5895 300.636,-83.8033 299.756,-76.859"/>
</g>
<!-- Node9 -->
<g id="node9" class="node"><title>Node9</title>
<g id="a_node9"><a xlink:href="interface_system_1_1_i_comparable.html" target="_top" xlink:title=" ">
<polygon fill="none" stroke="black" points="200,-38.5 200,-57.5 309,-57.5 309,-38.5 200,-38.5"/>
<text text-anchor="middle" x="254.5" y="-45.5" font-family="Helvetica,sans-Serif" font-size="10.00">IComparable&lt; Guid &gt;</text>
</a>
</g>
</g>
<!-- Node9&#45;&gt;Node6 -->
<g id="edge10" class="edge"><title>Node9&#45;&gt;Node6</title>
<path fill="none" stroke="midnightblue" d="M319.118,-51.724C353.717,-53.7493 395.256,-56.1808 424.323,-57.8823"/>
<polygon fill="midnightblue" stroke="midnightblue" points="319.281,-48.2276 309.094,-51.1372 318.872,-55.2157 319.281,-48.2276"/>
</g>
<!-- Node10 -->
<g id="node10" class="node"><title>Node10</title>
<g id="a_node10"><a xlink:href="interface_system_1_1_i_comparable.html" target="_top" xlink:title="Defines a generalized type&#45;specific comparison method that a value type or class implements to order ...">
<polygon fill="none" stroke="black" points="7.5,-38.5 7.5,-57.5 114.5,-57.5 114.5,-38.5 7.5,-38.5"/>
<text text-anchor="middle" x="61" y="-45.5" font-family="Helvetica,sans-Serif" font-size="10.00">System.IComparable</text>
</a>
</g>
</g>
<!-- Node10&#45;&gt;Node9 -->
<g id="edge11" class="edge"><title>Node10&#45;&gt;Node9</title>
<path fill="none" stroke="orange" stroke-dasharray="5,2" d="M124.745,-48C148.968,-48 176.401,-48 199.703,-48"/>
<polygon fill="orange" stroke="orange" points="124.582,-44.5001 114.582,-48 124.581,-51.5001 124.582,-44.5001"/>
<text text-anchor="middle" x="161" y="-51" font-family="Helvetica,sans-Serif" font-size="10.00"> &lt; Guid &gt;</text>
</g>
<!-- Node11 -->
<g id="node11" class="node"><title>Node11</title>
<g id="a_node11"><a xlink:href="interface_system_1_1_i_equatable.html" target="_top" xlink:title=" ">
<polygon fill="none" stroke="black" points="204,-0.5 204,-19.5 305,-19.5 305,-0.5 204,-0.5"/>
<text text-anchor="middle" x="254.5" y="-7.5" font-family="Helvetica,sans-Serif" font-size="10.00">IEquatable&lt; Guid &gt;</text>
</a>
</g>
</g>
<!-- Node11&#45;&gt;Node6 -->
<g id="edge12" class="edge"><title>Node11&#45;&gt;Node6</title>
<path fill="none" stroke="midnightblue" d="M304.573,-21.969C341.428,-30.958 391.073,-43.0667 424.353,-51.1837"/>
<polygon fill="midnightblue" stroke="midnightblue" points="305.086,-18.4916 294.541,-19.5223 303.427,-25.2923 305.086,-18.4916"/>
</g>
<!-- Node12 -->
<g id="node12" class="node"><title>Node12</title>
<g id="a_node12"><a xlink:href="interface_system_1_1_i_equatable.html" target="_top" xlink:title="Defines a generalized method that a value type or class implements to create a type&#45;specific method f...">
<polygon fill="none" stroke="black" points="0,-0.5 0,-19.5 122,-19.5 122,-0.5 0,-0.5"/>
<text text-anchor="middle" x="61" y="-7.5" font-family="Helvetica,sans-Serif" font-size="10.00">System.IEquatable&lt; T &gt;</text>
</a>
</g>
</g>
<!-- Node12&#45;&gt;Node11 -->
<g id="edge13" class="edge"><title>Node12&#45;&gt;Node11</title>
<path fill="none" stroke="orange" stroke-dasharray="5,2" d="M132.116,-10C155.937,-10 182.042,-10 203.919,-10"/>
<polygon fill="orange" stroke="orange" points="132.066,-6.5001 122.066,-10 132.066,-13.5001 132.066,-6.5001"/>
<text text-anchor="middle" x="161" y="-13" font-family="Helvetica,sans-Serif" font-size="10.00"> &lt; Guid &gt;</text>
</g>
</g>
</svg>
