<?xml version="1.0" encoding="UTF-8" standalone="no"?>
<!DOCTYPE svg PUBLIC "-//W3C//DTD SVG 1.1//EN"
 "http://www.w3.org/Graphics/SVG/1.1/DTD/svg11.dtd">
<!-- Generated by graphviz version 2.38.0 (20140413.2041)
 -->
<!-- Title: System.ComponentModel.Design.Serialization.MemberRelationship Pages: 1 -->
<svg width="224pt" height="117pt"
 viewBox="0.00 0.00 224.00 117.00" xmlns="http://www.w3.org/2000/svg" xmlns:xlink="http://www.w3.org/1999/xlink">
<g id="graph0" class="graph" transform="scale(1 1) rotate(0) translate(4 113)">
<title>System.ComponentModel.Design.Serialization.MemberRelationship</title>
<!-- Node1 -->
<g id="node1" class="node"><title>Node1</title>
<g id="a_node1"><a xlink:title="Represents a single relationship between an object and a member.">
<polygon fill="#bfbfbf" stroke="black" points="1,-0.5 1,-30.5 166,-30.5 166,-0.5 1,-0.5"/>
<text text-anchor="start" x="9" y="-18.5" font-family="Helvetica,sans-Serif" font-size="10.00">System.ComponentModel.Design.</text>
<text text-anchor="middle" x="83.5" y="-7.5" font-family="Helvetica,sans-Serif" font-size="10.00">Serialization.MemberRelationship</text>
</a>
</g>
</g>
<!-- Node1&#45;&gt;Node1 -->
<g id="edge2" class="edge"><title>Node1&#45;&gt;Node1</title>
<path fill="none" stroke="#9a32cd" stroke-dasharray="5,2" d="M176.229,-20.19C181.11,-19.0365 184,-17.4732 184,-15.5 184,-12.4199 176.957,-10.3385 166.296,-9.25562"/>
<polygon fill="#9a32cd" stroke="#9a32cd" points="175.635,-16.7403 166.296,-21.7444 176.717,-23.6562 175.635,-16.7403"/>
<text text-anchor="middle" x="200" y="-13" font-family="Helvetica,sans-Serif" font-size="10.00"> Empty</text>
</g>
<!-- Node2 -->
<g id="node2" class="node"><title>Node2</title>
<g id="a_node2"><a xlink:href="class_system_1_1_component_model_1_1_member_descriptor.html" target="_top" xlink:title="Represents a class member, such as a property or event. This is an abstract base class.">
<polygon fill="none" stroke="black" points="0,-78.5 0,-108.5 167,-108.5 167,-78.5 0,-78.5"/>
<text text-anchor="start" x="8" y="-96.5" font-family="Helvetica,sans-Serif" font-size="10.00">System.ComponentModel.Member</text>
<text text-anchor="middle" x="83.5" y="-85.5" font-family="Helvetica,sans-Serif" font-size="10.00">Descriptor</text>
</a>
</g>
</g>
<!-- Node2&#45;&gt;Node1 -->
<g id="edge1" class="edge"><title>Node2&#45;&gt;Node1</title>
<path fill="none" stroke="#9a32cd" stroke-dasharray="5,2" d="M83.5,-68.0898C83.5,-55.7565 83.5,-41.2237 83.5,-30.7309"/>
<polygon fill="#9a32cd" stroke="#9a32cd" points="80.0001,-68.2049 83.5,-78.205 87.0001,-68.205 80.0001,-68.2049"/>
<text text-anchor="middle" x="103" y="-52" font-family="Helvetica,sans-Serif" font-size="10.00"> Member</text>
</g>
</g>
</svg>
