<?xml version="1.0" encoding="UTF-8" standalone="no"?>
<!DOCTYPE svg PUBLIC "-//W3C//DTD SVG 1.1//EN"
 "http://www.w3.org/Graphics/SVG/1.1/DTD/svg11.dtd">
<!-- Generated by graphviz version 2.38.0 (20140413.2041)
 -->
<!-- Title: System.Runtime.InteropServices.EXCEPINFO Pages: 1 -->
<svg width="169pt" height="174pt"
 viewBox="0.00 0.00 169.00 174.00" xmlns="http://www.w3.org/2000/svg" xmlns:xlink="http://www.w3.org/1999/xlink">
<g id="graph0" class="graph" transform="scale(1 1) rotate(0) translate(4 170)">
<title>System.Runtime.InteropServices.EXCEPINFO</title>
<!-- Node1 -->
<g id="node1" class="node"><title>Node1</title>
<g id="a_node1"><a xlink:title="Use T:System.Runtime.InteropServices.ComTypes.EXCEPINFO instead.">
<polygon fill="#bfbfbf" stroke="black" points="0,-0.5 0,-30.5 161,-30.5 161,-0.5 0,-0.5"/>
<text text-anchor="start" x="8" y="-18.5" font-family="Helvetica,sans-Serif" font-size="10.00">System.Runtime.InteropServices.</text>
<text text-anchor="middle" x="80.5" y="-7.5" font-family="Helvetica,sans-Serif" font-size="10.00">EXCEPINFO</text>
</a>
</g>
</g>
<!-- Node2 -->
<g id="node2" class="node"><title>Node2</title>
<g id="a_node2"><a xlink:href="struct_system_1_1_int_ptr.html" target="_top" xlink:title="A platform&#45;specific type that is used to represent a pointer or a handle.">
<polygon fill="none" stroke="black" points="42,-89.5 42,-108.5 119,-108.5 119,-89.5 42,-89.5"/>
<text text-anchor="middle" x="80.5" y="-96.5" font-family="Helvetica,sans-Serif" font-size="10.00">System.IntPtr</text>
</a>
</g>
</g>
<!-- Node2&#45;&gt;Node1 -->
<g id="edge1" class="edge"><title>Node2&#45;&gt;Node1</title>
<path fill="none" stroke="#9a32cd" stroke-dasharray="5,2" d="M80.5,-79.229C80.5,-64.4075 80.5,-44.0505 80.5,-30.5974"/>
<polygon fill="#9a32cd" stroke="#9a32cd" points="77.0001,-79.278 80.5,-89.2781 84.0001,-79.2781 77.0001,-79.278"/>
<text text-anchor="middle" x="117" y="-63" font-family="Helvetica,sans-Serif" font-size="10.00"> pfnDeferredFillIn</text>
<text text-anchor="middle" x="117" y="-52" font-family="Helvetica,sans-Serif" font-size="10.00">pvReserved</text>
</g>
<!-- Node2&#45;&gt;Node2 -->
<g id="edge3" class="edge"><title>Node2&#45;&gt;Node2</title>
<path fill="none" stroke="#9a32cd" stroke-dasharray="5,2" d="M129.22,-103.263C133.979,-102.403 137,-100.982 137,-99 137,-95.8281 129.266,-94.0935 119.055,-93.7961"/>
<polygon fill="#9a32cd" stroke="#9a32cd" points="128.69,-99.797 119.055,-104.204 129.335,-106.767 128.69,-99.797"/>
<text text-anchor="middle" x="148" y="-96.5" font-family="Helvetica,sans-Serif" font-size="10.00"> Zero</text>
</g>
<!-- Node3 -->
<g id="node3" class="node"><title>Node3</title>
<g id="a_node3"><a xlink:href="interface_system_1_1_runtime_1_1_serialization_1_1_i_serializable.html" target="_top" xlink:title="Allows an object to control its own serialization and deserialization.">
<polygon fill="none" stroke="black" points="46,-146.5 46,-165.5 115,-165.5 115,-146.5 46,-146.5"/>
<text text-anchor="middle" x="80.5" y="-153.5" font-family="Helvetica,sans-Serif" font-size="10.00">ISerializable</text>
</a>
</g>
</g>
<!-- Node3&#45;&gt;Node2 -->
<g id="edge2" class="edge"><title>Node3&#45;&gt;Node2</title>
<path fill="none" stroke="midnightblue" d="M80.5,-136.117C80.5,-126.817 80.5,-116.056 80.5,-108.715"/>
<polygon fill="midnightblue" stroke="midnightblue" points="77.0001,-136.406 80.5,-146.406 84.0001,-136.406 77.0001,-136.406"/>
</g>
</g>
</svg>
