<?xml version="1.0" encoding="UTF-8" standalone="no"?>
<!DOCTYPE svg PUBLIC "-//W3C//DTD SVG 1.1//EN"
 "http://www.w3.org/Graphics/SVG/1.1/DTD/svg11.dtd">
<!-- Generated by graphviz version 2.38.0 (20140413.2041)
 -->
<!-- Title: System.UInt16 Pages: 1 -->
<svg width="522pt" height="152pt"
 viewBox="0.00 0.00 521.50 152.00" xmlns="http://www.w3.org/2000/svg" xmlns:xlink="http://www.w3.org/1999/xlink">
<g id="graph0" class="graph" transform="scale(1 1) rotate(0) translate(4 148)">
<title>System.UInt16</title>
<!-- Node0 -->
<g id="node1" class="node"><title>Node0</title>
<g id="a_node1"><a xlink:title="Represents a 16&#45;bit unsigned integer.">
<polygon fill="#bfbfbf" stroke="black" points="171,-0.5 171,-19.5 252,-19.5 252,-0.5 171,-0.5"/>
<text text-anchor="middle" x="211.5" y="-7.5" font-family="Helvetica,sans-Serif" font-size="10.00">System.UInt16</text>
</a>
</g>
</g>
<!-- Node1 -->
<g id="node2" class="node"><title>Node1</title>
<g id="a_node2"><a xlink:href="interface_system_1_1_i_comparable.html" target="_top" xlink:title="Defines a generalized type&#45;specific comparison method that a value type or class implements to order ...">
<polygon fill="none" stroke="black" points="0,-57.5 0,-76.5 71,-76.5 71,-57.5 0,-57.5"/>
<text text-anchor="middle" x="35.5" y="-64.5" font-family="Helvetica,sans-Serif" font-size="10.00">IComparable</text>
</a>
</g>
</g>
<!-- Node1&#45;&gt;Node0 -->
<g id="edge1" class="edge"><title>Node1&#45;&gt;Node0</title>
<path fill="none" stroke="midnightblue" d="M72.8453,-54.3296C106.21,-43.903 154.307,-28.8729 184.193,-19.5334"/>
<polygon fill="midnightblue" stroke="midnightblue" points="71.5008,-51.0828 63,-57.4063 73.5888,-57.7641 71.5008,-51.0828"/>
</g>
<!-- Node2 -->
<g id="node3" class="node"><title>Node2</title>
<g id="a_node3"><a xlink:href="interface_system_1_1_i_formattable.html" target="_top" xlink:title="Provides functionality to format the value of an object into a string representation.">
<polygon fill="none" stroke="black" points="89,-57.5 89,-76.5 160,-76.5 160,-57.5 89,-57.5"/>
<text text-anchor="middle" x="124.5" y="-64.5" font-family="Helvetica,sans-Serif" font-size="10.00">IFormattable</text>
</a>
</g>
</g>
<!-- Node2&#45;&gt;Node0 -->
<g id="edge2" class="edge"><title>Node2&#45;&gt;Node0</title>
<path fill="none" stroke="midnightblue" d="M146.923,-51.8244C163.088,-41.605 184.374,-28.1483 198.002,-19.5334"/>
<polygon fill="midnightblue" stroke="midnightblue" points="144.676,-49.1042 138.094,-57.4063 148.417,-55.021 144.676,-49.1042"/>
</g>
<!-- Node3 -->
<g id="node4" class="node"><title>Node3</title>
<g id="a_node4"><a xlink:href="interface_system_1_1_i_convertible.html" target="_top" xlink:title="Defines methods that convert the value of the implementing reference or value type to a common langua...">
<polygon fill="none" stroke="black" points="178.5,-57.5 178.5,-76.5 244.5,-76.5 244.5,-57.5 178.5,-57.5"/>
<text text-anchor="middle" x="211.5" y="-64.5" font-family="Helvetica,sans-Serif" font-size="10.00">IConvertible</text>
</a>
</g>
</g>
<!-- Node3&#45;&gt;Node0 -->
<g id="edge3" class="edge"><title>Node3&#45;&gt;Node0</title>
<path fill="none" stroke="midnightblue" d="M211.5,-47.1166C211.5,-37.8173 211.5,-27.0557 211.5,-19.7149"/>
<polygon fill="midnightblue" stroke="midnightblue" points="208,-47.4062 211.5,-57.4063 215,-47.4063 208,-47.4062"/>
</g>
<!-- Node4 -->
<g id="node5" class="node"><title>Node4</title>
<g id="a_node5"><a xlink:href="interface_system_1_1_i_comparable.html" target="_top" xlink:title=" ">
<polygon fill="none" stroke="black" points="262.5,-57.5 262.5,-76.5 378.5,-76.5 378.5,-57.5 262.5,-57.5"/>
<text text-anchor="middle" x="320.5" y="-64.5" font-family="Helvetica,sans-Serif" font-size="10.00">IComparable&lt; ushort &gt;</text>
</a>
</g>
</g>
<!-- Node4&#45;&gt;Node0 -->
<g id="edge4" class="edge"><title>Node4&#45;&gt;Node0</title>
<path fill="none" stroke="midnightblue" d="M294.373,-52.8166C273.909,-42.4906 246.043,-28.4301 228.412,-19.5334"/>
<polygon fill="midnightblue" stroke="midnightblue" points="292.964,-56.0261 303.469,-57.4063 296.118,-49.7766 292.964,-56.0261"/>
</g>
<!-- Node5 -->
<g id="node6" class="node"><title>Node5</title>
<g id="a_node6"><a xlink:href="interface_system_1_1_i_comparable.html" target="_top" xlink:title="Defines a generalized type&#45;specific comparison method that a value type or class implements to order ...">
<polygon fill="none" stroke="black" points="266,-124.5 266,-143.5 373,-143.5 373,-124.5 266,-124.5"/>
<text text-anchor="middle" x="319.5" y="-131.5" font-family="Helvetica,sans-Serif" font-size="10.00">System.IComparable</text>
</a>
</g>
</g>
<!-- Node5&#45;&gt;Node4 -->
<g id="edge5" class="edge"><title>Node5&#45;&gt;Node4</title>
<path fill="none" stroke="orange" stroke-dasharray="5,2" d="M319.792,-114.037C319.982,-101.67 320.221,-86.1198 320.367,-76.6273"/>
<polygon fill="orange" stroke="orange" points="316.289,-114.181 319.635,-124.234 323.288,-114.289 316.289,-114.181"/>
<text text-anchor="middle" x="345" y="-98" font-family="Helvetica,sans-Serif" font-size="10.00"> &lt; ushort &gt;</text>
</g>
<!-- Node6 -->
<g id="node7" class="node"><title>Node6</title>
<g id="a_node7"><a xlink:href="interface_system_1_1_i_equatable.html" target="_top" xlink:title=" ">
<polygon fill="none" stroke="black" points="398,-57.5 398,-76.5 505,-76.5 505,-57.5 398,-57.5"/>
<text text-anchor="middle" x="451.5" y="-64.5" font-family="Helvetica,sans-Serif" font-size="10.00">IEquatable&lt; ushort &gt;</text>
</a>
</g>
</g>
<!-- Node6&#45;&gt;Node0 -->
<g id="edge6" class="edge"><title>Node6&#45;&gt;Node0</title>
<path fill="none" stroke="midnightblue" d="M404.337,-55.1917C358.789,-44.7538 290.723,-29.1553 248.824,-19.5534"/>
<polygon fill="midnightblue" stroke="midnightblue" points="403.734,-58.6443 414.263,-57.4666 405.298,-51.8212 403.734,-58.6443"/>
</g>
<!-- Node7 -->
<g id="node8" class="node"><title>Node7</title>
<g id="a_node8"><a xlink:href="interface_system_1_1_i_equatable.html" target="_top" xlink:title="Defines a generalized method that a value type or class implements to create a type&#45;specific method f...">
<polygon fill="none" stroke="black" points="391.5,-124.5 391.5,-143.5 513.5,-143.5 513.5,-124.5 391.5,-124.5"/>
<text text-anchor="middle" x="452.5" y="-131.5" font-family="Helvetica,sans-Serif" font-size="10.00">System.IEquatable&lt; T &gt;</text>
</a>
</g>
</g>
<!-- Node7&#45;&gt;Node6 -->
<g id="edge7" class="edge"><title>Node7&#45;&gt;Node6</title>
<path fill="none" stroke="orange" stroke-dasharray="5,2" d="M452.208,-114.037C452.018,-101.67 451.779,-86.1198 451.633,-76.6273"/>
<polygon fill="orange" stroke="orange" points="448.712,-114.289 452.365,-124.234 455.711,-114.181 448.712,-114.289"/>
<text text-anchor="middle" x="476" y="-98" font-family="Helvetica,sans-Serif" font-size="10.00"> &lt; ushort &gt;</text>
</g>
</g>
</svg>
