<?xml version="1.0" encoding="UTF-8" standalone="no"?>
<!DOCTYPE svg PUBLIC "-//W3C//DTD SVG 1.1//EN"
 "http://www.w3.org/Graphics/SVG/1.1/DTD/svg11.dtd">
<!-- Generated by graphviz version 2.38.0 (20140413.2041)
 -->
<!-- Title: System.Runtime.InteropServices.OSPlatform Pages: 1 -->
<svg width="169pt" height="163pt"
 viewBox="0.00 0.00 169.00 163.00" xmlns="http://www.w3.org/2000/svg" xmlns:xlink="http://www.w3.org/1999/xlink">
<g id="graph0" class="graph" transform="scale(1 1) rotate(0) translate(4 159)">
<title>System.Runtime.InteropServices.OSPlatform</title>
<!-- Node3 -->
<g id="node1" class="node"><title>Node3</title>
<g id="a_node1"><a xlink:title="Represents an operating system platform.">
<polygon fill="#bfbfbf" stroke="black" points="0,-0.5 0,-30.5 161,-30.5 161,-0.5 0,-0.5"/>
<text text-anchor="start" x="8" y="-18.5" font-family="Helvetica,sans-Serif" font-size="10.00">System.Runtime.InteropServices.</text>
<text text-anchor="middle" x="80.5" y="-7.5" font-family="Helvetica,sans-Serif" font-size="10.00">OSPlatform</text>
</a>
</g>
</g>
<!-- Node4 -->
<g id="node2" class="node"><title>Node4</title>
<g id="a_node2"><a xlink:href="interface_system_1_1_i_equatable.html" target="_top" xlink:title=" ">
<polygon fill="none" stroke="black" points="15,-68.5 15,-87.5 146,-87.5 146,-68.5 15,-68.5"/>
<text text-anchor="middle" x="80.5" y="-75.5" font-family="Helvetica,sans-Serif" font-size="10.00">IEquatable&lt; OSPlatform &gt;</text>
</a>
</g>
</g>
<!-- Node4&#45;&gt;Node3 -->
<g id="edge1" class="edge"><title>Node4&#45;&gt;Node3</title>
<path fill="none" stroke="midnightblue" d="M80.5,-58.2154C80.5,-49.3565 80.5,-38.9577 80.5,-30.7587"/>
<polygon fill="midnightblue" stroke="midnightblue" points="77.0001,-58.3318 80.5,-68.3318 84.0001,-58.3319 77.0001,-58.3318"/>
</g>
<!-- Node5 -->
<g id="node3" class="node"><title>Node5</title>
<g id="a_node3"><a xlink:href="interface_system_1_1_i_equatable.html" target="_top" xlink:title="Defines a generalized method that a value type or class implements to create a type&#45;specific method f...">
<polygon fill="none" stroke="black" points="19.5,-135.5 19.5,-154.5 141.5,-154.5 141.5,-135.5 19.5,-135.5"/>
<text text-anchor="middle" x="80.5" y="-142.5" font-family="Helvetica,sans-Serif" font-size="10.00">System.IEquatable&lt; T &gt;</text>
</a>
</g>
</g>
<!-- Node5&#45;&gt;Node4 -->
<g id="edge2" class="edge"><title>Node5&#45;&gt;Node4</title>
<path fill="none" stroke="orange" stroke-dasharray="5,2" d="M80.5,-125.037C80.5,-112.67 80.5,-97.1198 80.5,-87.6273"/>
<polygon fill="orange" stroke="orange" points="77.0001,-125.234 80.5,-135.234 84.0001,-125.234 77.0001,-125.234"/>
<text text-anchor="middle" x="116.5" y="-109" font-family="Helvetica,sans-Serif" font-size="10.00"> &lt; OSPlatform &gt;</text>
</g>
</g>
</svg>
