<?xml version="1.0" encoding="UTF-8" standalone="no"?>
<!DOCTYPE svg PUBLIC "-//W3C//DTD SVG 1.1//EN"
 "http://www.w3.org/Graphics/SVG/1.1/DTD/svg11.dtd">
<!-- Generated by graphviz version 2.38.0 (20140413.2041)
 -->
<!-- Title: System.DateTimeOffset Pages: 1 -->
<svg width="320pt" height="218pt"
 viewBox="0.00 0.00 320.00 218.00" xmlns="http://www.w3.org/2000/svg" xmlns:xlink="http://www.w3.org/1999/xlink">
<g id="graph0" class="graph" transform="scale(1 1) rotate(0) translate(4 214)">
<title>System.DateTimeOffset</title>
<!-- Node9 -->
<g id="node1" class="node"><title>Node9</title>
<g id="a_node1"><a xlink:title="Represents a point in time, typically expressed as a date and time of day, relative to Coordinated Un...">
<polygon fill="#bfbfbf" stroke="black" points="192,-95.5 192,-114.5 312,-114.5 312,-95.5 192,-95.5"/>
<text text-anchor="middle" x="252" y="-102.5" font-family="Helvetica,sans-Serif" font-size="10.00">System.DateTimeOffset</text>
</a>
</g>
</g>
<!-- Node9&#45;&gt;Node9 -->
<g id="edge7" class="edge"><title>Node9&#45;&gt;Node9</title>
<path fill="none" stroke="#9a32cd" stroke-dasharray="5,2" d="M237.636,-124.766C238.764,-129.497 243.552,-133 252,-133 265.863,-133 269.871,-123.565 264.022,-114.757"/>
<polygon fill="#9a32cd" stroke="#9a32cd" points="241.107,-125.292 239.978,-114.757 234.292,-123.697 241.107,-125.292"/>
<text text-anchor="middle" x="252" y="-147" font-family="Helvetica,sans-Serif" font-size="10.00"> MaxValue</text>
<text text-anchor="middle" x="252" y="-136" font-family="Helvetica,sans-Serif" font-size="10.00">MinValue</text>
</g>
<!-- Node10 -->
<g id="node2" class="node"><title>Node10</title>
<g id="a_node2"><a xlink:href="interface_system_1_1_i_comparable.html" target="_top" xlink:title="Defines a generalized type&#45;specific comparison method that a value type or class implements to order ...">
<polygon fill="none" stroke="black" points="42,-190.5 42,-209.5 113,-209.5 113,-190.5 42,-190.5"/>
<text text-anchor="middle" x="77.5" y="-197.5" font-family="Helvetica,sans-Serif" font-size="10.00">IComparable</text>
</a>
</g>
</g>
<!-- Node10&#45;&gt;Node9 -->
<g id="edge1" class="edge"><title>Node10&#45;&gt;Node9</title>
<path fill="none" stroke="midnightblue" d="M122.86,-192.369C133.695,-189.597 145.031,-185.896 155,-181 190.871,-163.382 225.83,-130.653 241.871,-114.509"/>
<polygon fill="midnightblue" stroke="midnightblue" points="122.038,-188.967 113.104,-194.661 123.639,-195.781 122.038,-188.967"/>
</g>
<!-- Node11 -->
<g id="node3" class="node"><title>Node11</title>
<g id="a_node3"><a xlink:href="interface_system_1_1_i_formattable.html" target="_top" xlink:title="Provides functionality to format the value of an object into a string representation.">
<polygon fill="none" stroke="black" points="42,-152.5 42,-171.5 113,-171.5 113,-152.5 42,-152.5"/>
<text text-anchor="middle" x="77.5" y="-159.5" font-family="Helvetica,sans-Serif" font-size="10.00">IFormattable</text>
</a>
</g>
</g>
<!-- Node11&#45;&gt;Node9 -->
<g id="edge2" class="edge"><title>Node11&#45;&gt;Node9</title>
<path fill="none" stroke="midnightblue" d="M122.952,-152.025C133.532,-149.358 144.729,-146.292 155,-143 180.946,-134.684 209.925,-122.847 229.188,-114.601"/>
<polygon fill="midnightblue" stroke="midnightblue" points="121.926,-148.672 113.048,-154.454 123.594,-155.471 121.926,-148.672"/>
</g>
<!-- Node12 -->
<g id="node4" class="node"><title>Node12</title>
<g id="a_node4"><a xlink:href="interface_system_1_1_runtime_1_1_serialization_1_1_i_serializable.html" target="_top" xlink:title="Allows an object to control its own serialization and deserialization.">
<polygon fill="none" stroke="black" points="43,-114.5 43,-133.5 112,-133.5 112,-114.5 43,-114.5"/>
<text text-anchor="middle" x="77.5" y="-121.5" font-family="Helvetica,sans-Serif" font-size="10.00">ISerializable</text>
</a>
</g>
</g>
<!-- Node12&#45;&gt;Node9 -->
<g id="edge3" class="edge"><title>Node12&#45;&gt;Node9</title>
<path fill="none" stroke="midnightblue" d="M122.156,-119.192C143.312,-116.861 169.034,-114.028 191.915,-111.508"/>
<polygon fill="midnightblue" stroke="midnightblue" points="121.726,-115.718 112.169,-120.292 122.492,-122.676 121.726,-115.718"/>
</g>
<!-- Node13 -->
<g id="node5" class="node"><title>Node13</title>
<g id="a_node5"><a xlink:href="interface_system_1_1_runtime_1_1_serialization_1_1_i_deserialization_callback.html" target="_top" xlink:title="Indicates that a class is to be notified when deserialization of the entire object graph has been com...">
<polygon fill="none" stroke="black" points="17.5,-76.5 17.5,-95.5 137.5,-95.5 137.5,-76.5 17.5,-76.5"/>
<text text-anchor="middle" x="77.5" y="-83.5" font-family="Helvetica,sans-Serif" font-size="10.00">IDeserializationCallback</text>
</a>
</g>
</g>
<!-- Node13&#45;&gt;Node9 -->
<g id="edge4" class="edge"><title>Node13&#45;&gt;Node9</title>
<path fill="none" stroke="midnightblue" d="M147.828,-93.6361C162.405,-95.2417 177.654,-96.9213 191.818,-98.4814"/>
<polygon fill="midnightblue" stroke="midnightblue" points="148.188,-90.1547 137.865,-92.5387 147.421,-97.1126 148.188,-90.1547"/>
</g>
<!-- Node14 -->
<g id="node6" class="node"><title>Node14</title>
<g id="a_node6"><a xlink:href="interface_system_1_1_i_comparable.html" target="_top" xlink:title=" ">
<polygon fill="none" stroke="red" points="0,-38.5 0,-57.5 155,-57.5 155,-38.5 0,-38.5"/>
<text text-anchor="middle" x="77.5" y="-45.5" font-family="Helvetica,sans-Serif" font-size="10.00">IComparable&lt; DateTimeOffset &gt;</text>
</a>
</g>
</g>
<!-- Node14&#45;&gt;Node9 -->
<g id="edge5" class="edge"><title>Node14&#45;&gt;Node9</title>
<path fill="none" stroke="midnightblue" d="M131.02,-60.0587C139.101,-62.1973 147.31,-64.5353 155,-67 180.946,-75.3161 209.925,-87.1533 229.188,-95.3986"/>
<polygon fill="midnightblue" stroke="midnightblue" points="131.828,-56.6524 121.271,-57.5536 130.085,-63.4322 131.828,-56.6524"/>
</g>
<!-- Node16 -->
<g id="node7" class="node"><title>Node16</title>
<g id="a_node7"><a xlink:href="interface_system_1_1_i_equatable.html" target="_top" xlink:title=" ">
<polygon fill="none" stroke="red" points="4,-0.5 4,-19.5 151,-19.5 151,-0.5 4,-0.5"/>
<text text-anchor="middle" x="77.5" y="-7.5" font-family="Helvetica,sans-Serif" font-size="10.00">IEquatable&lt; DateTimeOffset &gt;</text>
</a>
</g>
</g>
<!-- Node16&#45;&gt;Node9 -->
<g id="edge6" class="edge"><title>Node16&#45;&gt;Node9</title>
<path fill="none" stroke="midnightblue" d="M139.487,-22.5995C144.841,-24.464 150.087,-26.5869 155,-29 190.871,-46.6178 225.83,-79.3467 241.871,-95.491"/>
<polygon fill="midnightblue" stroke="midnightblue" points="140.371,-19.2081 129.781,-19.5158 138.252,-25.8795 140.371,-19.2081"/>
</g>
</g>
</svg>
