<?xml version="1.0" encoding="UTF-8" standalone="no"?>
<!DOCTYPE svg PUBLIC "-//W3C//DTD SVG 1.1//EN"
 "http://www.w3.org/Graphics/SVG/1.1/DTD/svg11.dtd">
<!-- Generated by graphviz version 2.38.0 (20140413.2041)
 -->
<!-- Title: System.Reflection.Emit.SignatureToken Pages: 1 -->
<!--zoomable 410 -->
<svg id="main" version="1.1" xmlns="http://www.w3.org/2000/svg" xmlns:xlink="http://www.w3.org/1999/xlink" xml:space="preserve" onload="init(evt)">
<style type="text/css"><![CDATA[
.edge:hover path { stroke: red; }
.edge:hover polygon { stroke: red; fill: red; }
]]></style>
<script type="text/javascript"><![CDATA[
var edges = document.getElementsByTagName('g');
if (edges && edges.length) {
  for (var i=0;i<edges.length;i++) {
    if (edges[i].id.substr(0,4)=='edge') {
      edges[i].setAttribute('class','edge');
    }
  }
}
]]></script>
        <defs>
                <circle id="rim" cx="0" cy="0" r="7"/>
                <circle id="rim2" cx="0" cy="0" r="3.5"/>
                <g id="zoomPlus">
                        <use xlink:href="#rim" fill="#404040">
                                <set attributeName="fill" to="#808080" begin="zoomplus.mouseover" end="zoomplus.mouseout"/>
                        </use>
                        <path d="M-4,0h8M0,-4v8" fill="none" stroke="white" stroke-width="1.5" pointer-events="none"/>
                </g>
                <g id="zoomMin">
                        <use xlink:href="#rim" fill="#404040">
                                <set attributeName="fill" to="#808080" begin="zoomminus.mouseover" end="zoomminus.mouseout"/>
                        </use>
                        <path d="M-4,0h8" fill="none" stroke="white" stroke-width="1.5" pointer-events="none"/>
                </g>
                <g id="dirArrow">
                        <path fill="none" stroke="white" stroke-width="1.5" d="M0,-3.0v7 M-2.5,-0.5L0,-3.0L2.5,-0.5"/>
                </g>
               <g id="resetDef">
                       <use xlink:href="#rim2" fill="#404040">
                               <set attributeName="fill" to="#808080" begin="reset.mouseover" end="reset.mouseout"/>
                       </use>
               </g>
        </defs>

<script type="text/javascript">
var viewWidth = 1121;
var viewHeight = 410;
var sectionId = 'dynsection-0';
</script>
<script xlink:href="svgpan.js"/>
<svg id="graph" class="graph">
<g id="viewport">
<title>System.Reflection.Emit.SignatureToken</title>
<!-- Node1 -->
<g id="node1" class="node"><title>Node1</title>
<g id="a_node1"><a xlink:title="Represents the Token returned by the metadata to represent a signature.">
<polygon fill="#bfbfbf" stroke="black" points="949,-216 949,-246 1113,-246 1113,-216 949,-216"/>
<text text-anchor="start" x="957" y="-234" font-family="Helvetica,sans-Serif" font-size="10.00">System.Reflection.Emit.Signature</text>
<text text-anchor="middle" x="1031" y="-223" font-family="Helvetica,sans-Serif" font-size="10.00">Token</text>
</a>
</g>
</g>
<!-- Node1&#45;&gt;Node1 -->
<g id="edge1" class="edge"><title>Node1&#45;&gt;Node1</title>
<path fill="none" stroke="#9a32cd" stroke-dasharray="5,2" d="M1006.48,-256.458C1009.52,-261.179 1017.7,-264.5 1031,-264.5 1052.83,-264.5 1060.85,-255.557 1055.05,-246.159"/>
<polygon fill="#9a32cd" stroke="#9a32cd" points="1009.99,-256.309 1006.95,-246.159 1003,-255.988 1009.99,-256.309"/>
<text text-anchor="middle" x="1031" y="-267.5" font-family="Helvetica,sans-Serif" font-size="10.00"> Empty</text>
</g>
<!-- Node2 -->
<g id="node2" class="node"><title>Node2</title>
<g id="a_node2"><a xlink:href="class_system_1_1_reflection_1_1_emit_1_1_module_builder.html" target="_top" xlink:title="Defines and represents a module in a dynamic assembly.">
<polygon fill="none" stroke="black" points="680,-216 680,-246 834,-246 834,-216 680,-216"/>
<text text-anchor="start" x="688" y="-234" font-family="Helvetica,sans-Serif" font-size="10.00">System.Reflection.Emit.Module</text>
<text text-anchor="middle" x="757" y="-223" font-family="Helvetica,sans-Serif" font-size="10.00">Builder</text>
</a>
</g>
</g>
<!-- Node2&#45;&gt;Node1 -->
<g id="edge2" class="edge"><title>Node2&#45;&gt;Node1</title>
<path fill="none" stroke="#9a32cd" stroke-dasharray="5,2" d="M844.333,-231C877.727,-231 915.752,-231 948.657,-231"/>
<polygon fill="#9a32cd" stroke="#9a32cd" points="844.129,-227.5 834.129,-231 844.129,-234.5 844.129,-227.5"/>
<text text-anchor="middle" x="891.5" y="-234" font-family="Helvetica,sans-Serif" font-size="10.00"> m_moduleBuilder</text>
</g>
<!-- Node3 -->
<g id="node3" class="node"><title>Node3</title>
<g id="a_node3"><a xlink:href="class_system_1_1_reflection_1_1_module.html" target="_top" xlink:title="Performs reflection on a module.">
<polygon fill="none" stroke="black" points="472.5,-287.5 472.5,-306.5 520.5,-306.5 520.5,-287.5 472.5,-287.5"/>
<text text-anchor="middle" x="496.5" y="-294.5" font-family="Helvetica,sans-Serif" font-size="10.00">Module</text>
</a>
</g>
</g>
<!-- Node3&#45;&gt;Node2 -->
<g id="edge3" class="edge"><title>Node3&#45;&gt;Node2</title>
<path fill="none" stroke="midnightblue" d="M530.606,-288.548C572.539,-277.841 645.534,-259.204 697.076,-246.044"/>
<polygon fill="midnightblue" stroke="midnightblue" points="529.719,-285.161 520.896,-291.027 531.451,-291.944 529.719,-285.161"/>
</g>
<!-- Node4 -->
<g id="node4" class="node"><title>Node4</title>
<g id="a_node4"><a xlink:href="interface_system_1_1_runtime_1_1_interop_services_1_1___module.html" target="_top" xlink:title="Exposes the T:System.Reflection.Module class to unmanaged code.">
<polygon fill="none" stroke="black" points="235.5,-382.5 235.5,-401.5 288.5,-401.5 288.5,-382.5 235.5,-382.5"/>
<text text-anchor="middle" x="262" y="-389.5" font-family="Helvetica,sans-Serif" font-size="10.00">_Module</text>
</a>
</g>
</g>
<!-- Node4&#45;&gt;Node3 -->
<g id="edge4" class="edge"><title>Node4&#45;&gt;Node3</title>
<path fill="none" stroke="midnightblue" d="M298.375,-381.739C306.834,-379.078 315.791,-376.086 324,-373 380.244,-351.859 444.497,-321.715 476.001,-306.526"/>
<polygon fill="midnightblue" stroke="midnightblue" points="297.277,-378.415 288.747,-384.698 299.334,-385.106 297.277,-378.415"/>
</g>
<!-- Node5 -->
<g id="node5" class="node"><title>Node5</title>
<g id="a_node5"><a xlink:href="interface_system_1_1_runtime_1_1_serialization_1_1_i_serializable.html" target="_top" xlink:title="Allows an object to control its own serialization and deserialization.">
<polygon fill="none" stroke="black" points="227.5,-234.5 227.5,-253.5 296.5,-253.5 296.5,-234.5 227.5,-234.5"/>
<text text-anchor="middle" x="262" y="-241.5" font-family="Helvetica,sans-Serif" font-size="10.00">ISerializable</text>
</a>
</g>
</g>
<!-- Node5&#45;&gt;Node3 -->
<g id="edge5" class="edge"><title>Node5&#45;&gt;Node3</title>
<path fill="none" stroke="midnightblue" d="M306.826,-253.99C355.925,-265.183 433.675,-282.907 472.233,-291.696"/>
<polygon fill="midnightblue" stroke="midnightblue" points="307.335,-250.517 296.807,-251.707 305.779,-257.342 307.335,-250.517"/>
</g>
<!-- Node16 -->
<g id="node16" class="node"><title>Node16</title>
<g id="a_node16"><a xlink:href="class_system_1_1_reflection_1_1_assembly.html" target="_top" xlink:title="Represents an assembly, which is a reusable, versionable, and self&#45;describing building block of a com...">
<polygon fill="none" stroke="black" points="425,-199.5 425,-218.5 568,-218.5 568,-199.5 425,-199.5"/>
<text text-anchor="middle" x="496.5" y="-206.5" font-family="Helvetica,sans-Serif" font-size="10.00">System.Reflection.Assembly</text>
</a>
</g>
</g>
<!-- Node5&#45;&gt;Node16 -->
<g id="edge22" class="edge"><title>Node5&#45;&gt;Node16</title>
<path fill="none" stroke="midnightblue" d="M306.83,-237.402C342.228,-232.073 392.515,-224.503 432.272,-218.518"/>
<polygon fill="midnightblue" stroke="midnightblue" points="306.175,-233.961 296.807,-238.911 307.217,-240.883 306.175,-233.961"/>
</g>
<!-- Node6 -->
<g id="node6" class="node"><title>Node6</title>
<g id="a_node6"><a xlink:href="interface_system_1_1_reflection_1_1_i_custom_attribute_provider.html" target="_top" xlink:title="Provides custom attributes for reflection objects that support them.">
<polygon fill="none" stroke="black" points="200,-275.5 200,-294.5 324,-294.5 324,-275.5 200,-275.5"/>
<text text-anchor="middle" x="262" y="-282.5" font-family="Helvetica,sans-Serif" font-size="10.00">ICustomAttributeProvider</text>
</a>
</g>
</g>
<!-- Node6&#45;&gt;Node3 -->
<g id="edge6" class="edge"><title>Node6&#45;&gt;Node3</title>
<path fill="none" stroke="midnightblue" d="M334.266,-288.678C381.439,-291.113 440.295,-294.151 472.24,-295.799"/>
<polygon fill="midnightblue" stroke="midnightblue" points="334.254,-285.173 324.087,-288.153 333.893,-292.164 334.254,-285.173"/>
</g>
<!-- Node6&#45;&gt;Node16 -->
<g id="edge21" class="edge"><title>Node6&#45;&gt;Node16</title>
<path fill="none" stroke="midnightblue" d="M317.181,-272.959C344.883,-265.692 378.642,-255.086 407,-241 415.838,-236.61 416.09,-232.242 425,-228 432.897,-224.24 441.659,-221.126 450.245,-218.584"/>
<polygon fill="midnightblue" stroke="midnightblue" points="316.096,-269.623 307.27,-275.485 317.825,-276.406 316.096,-269.623"/>
</g>
<!-- Node7 -->
<g id="node7" class="node"><title>Node7</title>
<g id="a_node7"><a xlink:href="struct_system_1_1_module_handle.html" target="_top" xlink:title="Represents a runtime handle for a module.">
<polygon fill="none" stroke="black" points="204.5,-315.5 204.5,-334.5 319.5,-334.5 319.5,-315.5 204.5,-315.5"/>
<text text-anchor="middle" x="262" y="-322.5" font-family="Helvetica,sans-Serif" font-size="10.00">System.ModuleHandle</text>
</a>
</g>
</g>
<!-- Node7&#45;&gt;Node3 -->
<g id="edge7" class="edge"><title>Node7&#45;&gt;Node3</title>
<path fill="none" stroke="#9a32cd" stroke-dasharray="5,2" d="M329.595,-316.98C377.593,-311.199 439.5,-303.744 472.455,-299.775"/>
<polygon fill="#9a32cd" stroke="#9a32cd" points="329.088,-313.516 319.579,-318.186 329.925,-320.465 329.088,-313.516"/>
<text text-anchor="middle" x="374.5" y="-318" font-family="Helvetica,sans-Serif" font-size="10.00"> ModuleHandle</text>
</g>
<!-- Node7&#45;&gt;Node7 -->
<g id="edge8" class="edge"><title>Node7&#45;&gt;Node7</title>
<path fill="none" stroke="#9a32cd" stroke-dasharray="5,2" d="M243.482,-344.4C244.719,-349.315 250.892,-353 262,-353 279.773,-353 284.911,-343.565 277.413,-334.757"/>
<polygon fill="#9a32cd" stroke="#9a32cd" points="246.854,-345.349 246.587,-334.757 240.191,-343.203 246.854,-345.349"/>
<text text-anchor="middle" x="262" y="-356" font-family="Helvetica,sans-Serif" font-size="10.00"> EmptyHandle</text>
</g>
<!-- Node8 -->
<g id="node8" class="node"><title>Node8</title>
<g id="a_node8"><a xlink:href="interface_system_1_1_runtime_1_1_interop_services_1_1___module_builder.html" target="_top" xlink:title="Exposes the T:System.Reflection.Emit.ModuleBuilder class to unmanaged code.">
<polygon fill="none" stroke="black" points="455,-237.5 455,-256.5 538,-256.5 538,-237.5 455,-237.5"/>
<text text-anchor="middle" x="496.5" y="-244.5" font-family="Helvetica,sans-Serif" font-size="10.00">_ModuleBuilder</text>
</a>
</g>
</g>
<!-- Node8&#45;&gt;Node2 -->
<g id="edge9" class="edge"><title>Node8&#45;&gt;Node2</title>
<path fill="none" stroke="midnightblue" d="M548.358,-243.852C585.861,-241.531 637.514,-238.334 679.92,-235.709"/>
<polygon fill="midnightblue" stroke="midnightblue" points="547.94,-240.371 538.175,-244.482 548.372,-247.358 547.94,-240.371"/>
</g>
<!-- Node9 -->
<g id="node9" class="node"><title>Node9</title>
<g id="a_node9"><a xlink:href="struct_system_1_1_guid.html" target="_top" xlink:title="Represents a globally unique identifier (GUID).To browse the .NET Framework source code for this type...">
<polygon fill="none" stroke="black" points="459.5,-76.5 459.5,-95.5 533.5,-95.5 533.5,-76.5 459.5,-76.5"/>
<text text-anchor="middle" x="496.5" y="-83.5" font-family="Helvetica,sans-Serif" font-size="10.00">System.Guid</text>
</a>
</g>
</g>
<!-- Node9&#45;&gt;Node2 -->
<g id="edge10" class="edge"><title>Node9&#45;&gt;Node2</title>
<path fill="none" stroke="#9a32cd" stroke-dasharray="5,2" d="M523.195,-100.413C572.227,-127.916 678.713,-187.648 728.855,-215.774"/>
<polygon fill="#9a32cd" stroke="#9a32cd" points="524.895,-97.3535 514.461,-95.5139 521.47,-103.459 524.895,-97.3535"/>
<text text-anchor="middle" x="624" y="-178" font-family="Helvetica,sans-Serif" font-size="10.00"> ModuleVersionId</text>
</g>
<!-- Node9&#45;&gt;Node9 -->
<g id="edge17" class="edge"><title>Node9&#45;&gt;Node9</title>
<path fill="none" stroke="#9a32cd" stroke-dasharray="5,2" d="M473.807,-105.029C475.044,-110.128 482.609,-114 496.5,-114 518.184,-114 524.452,-104.565 515.304,-95.7571"/>
<polygon fill="#9a32cd" stroke="#9a32cd" points="477.055,-106.332 477.696,-95.7571 470.6,-103.625 477.055,-106.332"/>
<text text-anchor="middle" x="496.5" y="-117" font-family="Helvetica,sans-Serif" font-size="10.00"> Empty</text>
</g>
<!-- Node10 -->
<g id="node10" class="node"><title>Node10</title>
<g id="a_node10"><a xlink:href="interface_system_1_1_i_formattable.html" target="_top" xlink:title="Provides functionality to format the value of an object into a string representation.">
<polygon fill="none" stroke="black" points="226.5,-38.5 226.5,-57.5 297.5,-57.5 297.5,-38.5 226.5,-38.5"/>
<text text-anchor="middle" x="262" y="-45.5" font-family="Helvetica,sans-Serif" font-size="10.00">IFormattable</text>
</a>
</g>
</g>
<!-- Node10&#45;&gt;Node9 -->
<g id="edge11" class="edge"><title>Node10&#45;&gt;Node9</title>
<path fill="none" stroke="midnightblue" d="M307.7,-55.3058C351.779,-62.5101 418.315,-73.3849 459.22,-80.0704"/>
<polygon fill="midnightblue" stroke="midnightblue" points="307.99,-51.8069 297.557,-53.648 306.861,-58.7152 307.99,-51.8069"/>
</g>
<!-- Node11 -->
<g id="node11" class="node"><title>Node11</title>
<g id="a_node11"><a xlink:href="interface_system_1_1_i_comparable.html" target="_top" xlink:title="Defines a generalized type&#45;specific comparison method that a value type or class implements to order ...">
<polygon fill="none" stroke="black" points="226.5,-0.5 226.5,-19.5 297.5,-19.5 297.5,-0.5 226.5,-0.5"/>
<text text-anchor="middle" x="262" y="-7.5" font-family="Helvetica,sans-Serif" font-size="10.00">IComparable</text>
</a>
</g>
</g>
<!-- Node11&#45;&gt;Node9 -->
<g id="edge12" class="edge"><title>Node11&#45;&gt;Node9</title>
<path fill="none" stroke="midnightblue" d="M303.782,-22.5854C310.542,-24.7052 317.473,-26.8992 324,-29 374.624,-45.2952 433.394,-65.0001 467.331,-76.456"/>
<polygon fill="midnightblue" stroke="midnightblue" points="304.657,-19.1919 294.068,-19.5524 302.571,-25.8738 304.657,-19.1919"/>
</g>
<!-- Node12 -->
<g id="node12" class="node"><title>Node12</title>
<g id="a_node12"><a xlink:href="interface_system_1_1_i_comparable.html" target="_top" xlink:title=" ">
<polygon fill="none" stroke="black" points="207.5,-114.5 207.5,-133.5 316.5,-133.5 316.5,-114.5 207.5,-114.5"/>
<text text-anchor="middle" x="262" y="-121.5" font-family="Helvetica,sans-Serif" font-size="10.00">IComparable&lt; Guid &gt;</text>
</a>
</g>
</g>
<!-- Node12&#45;&gt;Node9 -->
<g id="edge13" class="edge"><title>Node12&#45;&gt;Node9</title>
<path fill="none" stroke="midnightblue" d="M326.66,-113.595C369.385,-106.612 424.119,-97.6665 459.494,-91.8848"/>
<polygon fill="midnightblue" stroke="midnightblue" points="325.937,-110.167 316.632,-115.234 327.066,-117.075 325.937,-110.167"/>
</g>
<!-- Node13 -->
<g id="node13" class="node"><title>Node13</title>
<g id="a_node13"><a xlink:href="interface_system_1_1_i_comparable.html" target="_top" xlink:title="Defines a generalized type&#45;specific comparison method that a value type or class implements to order ...">
<polygon fill="none" stroke="black" points="7.5,-114.5 7.5,-133.5 114.5,-133.5 114.5,-114.5 7.5,-114.5"/>
<text text-anchor="middle" x="61" y="-121.5" font-family="Helvetica,sans-Serif" font-size="10.00">System.IComparable</text>
</a>
</g>
</g>
<!-- Node13&#45;&gt;Node12 -->
<g id="edge14" class="edge"><title>Node13&#45;&gt;Node12</title>
<path fill="none" stroke="orange" stroke-dasharray="5,2" d="M124.882,-124C151.43,-124 182.019,-124 207.467,-124"/>
<polygon fill="orange" stroke="orange" points="124.545,-120.5 114.545,-124 124.545,-127.5 124.545,-120.5"/>
<text text-anchor="middle" x="161" y="-127" font-family="Helvetica,sans-Serif" font-size="10.00"> &lt; Guid &gt;</text>
</g>
<!-- Node14 -->
<g id="node14" class="node"><title>Node14</title>
<g id="a_node14"><a xlink:href="interface_system_1_1_i_equatable.html" target="_top" xlink:title=" ">
<polygon fill="none" stroke="black" points="211.5,-76.5 211.5,-95.5 312.5,-95.5 312.5,-76.5 211.5,-76.5"/>
<text text-anchor="middle" x="262" y="-83.5" font-family="Helvetica,sans-Serif" font-size="10.00">IEquatable&lt; Guid &gt;</text>
</a>
</g>
</g>
<!-- Node14&#45;&gt;Node9 -->
<g id="edge15" class="edge"><title>Node14&#45;&gt;Node9</title>
<path fill="none" stroke="midnightblue" d="M322.692,-86C365.861,-86 422.79,-86 459.279,-86"/>
<polygon fill="midnightblue" stroke="midnightblue" points="322.592,-82.5001 312.592,-86 322.592,-89.5001 322.592,-82.5001"/>
</g>
<!-- Node15 -->
<g id="node15" class="node"><title>Node15</title>
<g id="a_node15"><a xlink:href="interface_system_1_1_i_equatable.html" target="_top" xlink:title="Defines a generalized method that a value type or class implements to create a type&#45;specific method f...">
<polygon fill="none" stroke="black" points="0,-76.5 0,-95.5 122,-95.5 122,-76.5 0,-76.5"/>
<text text-anchor="middle" x="61" y="-83.5" font-family="Helvetica,sans-Serif" font-size="10.00">System.IEquatable&lt; T &gt;</text>
</a>
</g>
</g>
<!-- Node15&#45;&gt;Node14 -->
<g id="edge16" class="edge"><title>Node15&#45;&gt;Node14</title>
<path fill="none" stroke="orange" stroke-dasharray="5,2" d="M132.452,-86C158.515,-86 187.491,-86 211.326,-86"/>
<polygon fill="orange" stroke="orange" points="132.247,-82.5001 122.247,-86 132.247,-89.5001 132.247,-82.5001"/>
<text text-anchor="middle" x="161" y="-89" font-family="Helvetica,sans-Serif" font-size="10.00"> &lt; Guid &gt;</text>
</g>
<!-- Node16&#45;&gt;Node2 -->
<g id="edge18" class="edge"><title>Node16&#45;&gt;Node2</title>
<path fill="none" stroke="#9a32cd" stroke-dasharray="5,2" d="M578.412,-215.126C605.043,-217.214 634.796,-219.623 662,-222 667.798,-222.507 673.795,-223.046 679.825,-223.599"/>
<polygon fill="#9a32cd" stroke="#9a32cd" points="578.612,-211.631 568.37,-214.342 578.067,-218.61 578.612,-211.631"/>
<text text-anchor="middle" x="624" y="-225" font-family="Helvetica,sans-Serif" font-size="10.00"> Assembly</text>
</g>
<!-- Node17 -->
<g id="node17" class="node"><title>Node17</title>
<g id="a_node17"><a xlink:href="interface_system_1_1_runtime_1_1_interop_services_1_1___assembly.html" target="_top" xlink:title="Exposes the public members of the T:System.Reflection.Assembly class to unmanaged code.">
<polygon fill="none" stroke="black" points="229.5,-190.5 229.5,-209.5 294.5,-209.5 294.5,-190.5 229.5,-190.5"/>
<text text-anchor="middle" x="262" y="-197.5" font-family="Helvetica,sans-Serif" font-size="10.00">_Assembly</text>
</a>
</g>
</g>
<!-- Node17&#45;&gt;Node16 -->
<g id="edge19" class="edge"><title>Node17&#45;&gt;Node16</title>
<path fill="none" stroke="midnightblue" d="M305.152,-201.632C338.508,-202.923 385.819,-204.754 424.929,-206.268"/>
<polygon fill="midnightblue" stroke="midnightblue" points="304.969,-198.122 294.841,-201.233 304.698,-205.117 304.969,-198.122"/>
</g>
<!-- Node18 -->
<g id="node18" class="node"><title>Node18</title>
<g id="a_node18"><a xlink:href="interface_system_1_1_security_1_1_i_evidence_factory.html" target="_top" xlink:title="Gets an object&#39;s T:System.Security.Policy.Evidence.">
<polygon fill="none" stroke="black" points="216.5,-152.5 216.5,-171.5 307.5,-171.5 307.5,-152.5 216.5,-152.5"/>
<text text-anchor="middle" x="262" y="-159.5" font-family="Helvetica,sans-Serif" font-size="10.00">IEvidenceFactory</text>
</a>
</g>
</g>
<!-- Node18&#45;&gt;Node16 -->
<g id="edge20" class="edge"><title>Node18&#45;&gt;Node16</title>
<path fill="none" stroke="midnightblue" d="M317.591,-173.036C357.275,-181.058 410.449,-191.807 448.302,-199.459"/>
<polygon fill="midnightblue" stroke="midnightblue" points="318.049,-169.557 307.553,-171.006 316.661,-176.419 318.049,-169.557"/>
</g>
</g>
</svg>
        <g id="navigator" transform="translate(0 0)" fill="#404254">
                <rect fill="#f2f5e9" fill-opacity="0.5" stroke="#606060" stroke-width=".5" x="0" y="0" width="60" height="60"/>
                <use id="zoomplus" xlink:href="#zoomPlus" x="17" y="9" onmousedown="handleZoom(evt,'in')"/>
                <use id="zoomminus" xlink:href="#zoomMin" x="42" y="9" onmousedown="handleZoom(evt,'out')"/>
                <use id="reset" xlink:href="#resetDef" x="30" y="36" onmousedown="handleReset()"/>
                <g id="arrowUp" xlink:href="#dirArrow" transform="translate(30 24)" onmousedown="handlePan(0,-1)">
                  <use xlink:href="#rim" fill="#404040">
                        <set attributeName="fill" to="#808080" begin="arrowUp.mouseover" end="arrowUp.mouseout"/>
                  </use>
                  <path fill="none" stroke="white" stroke-width="1.5" d="M0,-3.0v7 M-2.5,-0.5L0,-3.0L2.5,-0.5"/>
                </g>
                <g id="arrowRight" xlink:href="#dirArrow" transform="rotate(90) translate(36 -43)" onmousedown="handlePan(1,0)">
                  <use xlink:href="#rim" fill="#404040">
                        <set attributeName="fill" to="#808080" begin="arrowRight.mouseover" end="arrowRight.mouseout"/>
                  </use>
                  <path fill="none" stroke="white" stroke-width="1.5" d="M0,-3.0v7 M-2.5,-0.5L0,-3.0L2.5,-0.5"/>
                </g>
                <g id="arrowDown" xlink:href="#dirArrow" transform="rotate(180) translate(-30 -48)" onmousedown="handlePan(0,1)">
                  <use xlink:href="#rim" fill="#404040">
                        <set attributeName="fill" to="#808080" begin="arrowDown.mouseover" end="arrowDown.mouseout"/>
                  </use>
                  <path fill="none" stroke="white" stroke-width="1.5" d="M0,-3.0v7 M-2.5,-0.5L0,-3.0L2.5,-0.5"/>
                </g>
                <g id="arrowLeft" xlink:href="#dirArrow" transform="rotate(270) translate(-36 17)" onmousedown="handlePan(-1,0)">
                  <use xlink:href="#rim" fill="#404040">
                        <set attributeName="fill" to="#808080" begin="arrowLeft.mouseover" end="arrowLeft.mouseout"/>
                  </use>
                  <path fill="none" stroke="white" stroke-width="1.5" d="M0,-3.0v7 M-2.5,-0.5L0,-3.0L2.5,-0.5"/>
                </g>
        </g>
        <svg viewBox="0 0 15 15" width="100%" height="30px" preserveAspectRatio="xMaxYMin meet">
         <g id="arrow_out" transform="scale(0.3 0.3)">
          <a xlink:href="struct_system_1_1_reflection_1_1_emit_1_1_signature_token__coll__graph_org.svg" target="_base">
           <rect id="button" ry="5" rx="5" y="6" x="6" height="38" width="38"
                fill="#f2f5e9" fill-opacity="0.5" stroke="#606060" stroke-width="1.0"/>
           <path id="arrow"
             d="M 11.500037,31.436501 C 11.940474,20.09759 22.043105,11.32322 32.158766,21.979434 L 37.068811,17.246167 C 37.068811,17.246167 37.088388,32 37.088388,32 L 22.160133,31.978069 C 22.160133,31.978069 26.997745,27.140456 26.997745,27.140456 C 18.528582,18.264221 13.291696,25.230495 11.500037,31.436501 z"
             style="fill:#404040;"/>
          </a>
         </g>
        </svg>
</svg>
