<?xml version="1.0" encoding="UTF-8" standalone="no"?>
<!DOCTYPE svg PUBLIC "-//W3C//DTD SVG 1.1//EN"
 "http://www.w3.org/Graphics/SVG/1.1/DTD/svg11.dtd">
<!-- Generated by graphviz version 2.38.0 (20140413.2041)
 -->
<!-- Title: System.Deployment.Internal.Isolation.StoreOperationSetDeploymentMetadata Pages: 1 -->
<svg width="286pt" height="229pt"
 viewBox="0.00 0.00 286.00 229.00" xmlns="http://www.w3.org/2000/svg" xmlns:xlink="http://www.w3.org/1999/xlink">
<g id="graph0" class="graph" transform="scale(1 1) rotate(0) translate(4 225)">
<title>System.Deployment.Internal.Isolation.StoreOperationSetDeploymentMetadata</title>
<!-- Node1 -->
<g id="node1" class="node"><title>Node1</title>
<g id="a_node1"><a xlink:title=" ">
<polygon fill="#bfbfbf" stroke="black" points="60.5,-0.5 60.5,-41.5 248.5,-41.5 248.5,-0.5 60.5,-0.5"/>
<text text-anchor="start" x="68.5" y="-29.5" font-family="Helvetica,sans-Serif" font-size="10.00">System.Deployment.Internal.</text>
<text text-anchor="start" x="68.5" y="-18.5" font-family="Helvetica,sans-Serif" font-size="10.00">Isolation.StoreOperationSetDeployment</text>
<text text-anchor="middle" x="154.5" y="-7.5" font-family="Helvetica,sans-Serif" font-size="10.00">Metadata</text>
</a>
</g>
</g>
<!-- Node2 -->
<g id="node2" class="node"><title>Node2</title>
<g id="a_node2"><a xlink:href="struct_system_1_1_int_ptr.html" target="_top" xlink:title="A platform&#45;specific type that is used to represent a pointer or a handle.">
<polygon fill="none" stroke="black" points="0,-139 0,-158 77,-158 77,-139 0,-139"/>
<text text-anchor="middle" x="38.5" y="-146" font-family="Helvetica,sans-Serif" font-size="10.00">System.IntPtr</text>
</a>
</g>
</g>
<!-- Node2&#45;&gt;Node1 -->
<g id="edge1" class="edge"><title>Node2&#45;&gt;Node1</title>
<path fill="none" stroke="#9a32cd" stroke-dasharray="5,2" d="M44.7835,-129.132C52.093,-109.963 65.7381,-79.9701 85.5,-60 92.5221,-52.9039 101.15,-46.7648 109.897,-41.6141"/>
<polygon fill="#9a32cd" stroke="#9a32cd" points="41.4064,-128.179 41.2945,-138.773 47.9886,-130.561 41.4064,-128.179"/>
<text text-anchor="middle" x="126" y="-107" font-family="Helvetica,sans-Serif" font-size="10.00"> InstallerReference</text>
<text text-anchor="middle" x="126" y="-96" font-family="Helvetica,sans-Serif" font-size="10.00">PropertiesToTest</text>
<text text-anchor="middle" x="126" y="-85" font-family="Helvetica,sans-Serif" font-size="10.00">cPropertiesToSet</text>
<text text-anchor="middle" x="126" y="-74" font-family="Helvetica,sans-Serif" font-size="10.00">cPropertiesToTest</text>
<text text-anchor="middle" x="126" y="-63" font-family="Helvetica,sans-Serif" font-size="10.00">PropertiesToSet</text>
</g>
<!-- Node2&#45;&gt;Node2 -->
<g id="edge3" class="edge"><title>Node2&#45;&gt;Node2</title>
<path fill="none" stroke="#9a32cd" stroke-dasharray="5,2" d="M87.2203,-153.676C91.979,-152.633 95,-150.907 95,-148.5 95,-144.648 87.2662,-142.542 77.0552,-142.181"/>
<polygon fill="#9a32cd" stroke="#9a32cd" points="86.6016,-150.224 77.0552,-154.819 87.3835,-157.18 86.6016,-150.224"/>
<text text-anchor="middle" x="106" y="-146" font-family="Helvetica,sans-Serif" font-size="10.00"> Zero</text>
</g>
<!-- Node3 -->
<g id="node3" class="node"><title>Node3</title>
<g id="a_node3"><a xlink:href="interface_system_1_1_runtime_1_1_serialization_1_1_i_serializable.html" target="_top" xlink:title="Allows an object to control its own serialization and deserialization.">
<polygon fill="none" stroke="black" points="4,-201.5 4,-220.5 73,-220.5 73,-201.5 4,-201.5"/>
<text text-anchor="middle" x="38.5" y="-208.5" font-family="Helvetica,sans-Serif" font-size="10.00">ISerializable</text>
</a>
</g>
</g>
<!-- Node3&#45;&gt;Node2 -->
<g id="edge2" class="edge"><title>Node3&#45;&gt;Node2</title>
<path fill="none" stroke="midnightblue" d="M38.5,-191.003C38.5,-180 38.5,-166.682 38.5,-158.152"/>
<polygon fill="midnightblue" stroke="midnightblue" points="35.0001,-191.332 38.5,-201.332 42.0001,-191.332 35.0001,-191.332"/>
</g>
<!-- Node4 -->
<g id="node4" class="node"><title>Node4</title>
<g id="a_node4"><a xlink:href="interface_system_1_1_deployment_1_1_internal_1_1_isolation_1_1_i_definition_app_id.html" target="_top" xlink:title=" ">
<polygon fill="none" stroke="black" points="135,-133.5 135,-163.5 278,-163.5 278,-133.5 135,-133.5"/>
<text text-anchor="start" x="143" y="-151.5" font-family="Helvetica,sans-Serif" font-size="10.00">System.Deployment.Internal.</text>
<text text-anchor="middle" x="206.5" y="-140.5" font-family="Helvetica,sans-Serif" font-size="10.00">Isolation.IDefinitionAppId</text>
</a>
</g>
</g>
<!-- Node4&#45;&gt;Node1 -->
<g id="edge4" class="edge"><title>Node4&#45;&gt;Node1</title>
<path fill="none" stroke="#9a32cd" stroke-dasharray="5,2" d="M196.655,-123.741C186.795,-99.9436 171.801,-63.7544 162.605,-41.562"/>
<polygon fill="#9a32cd" stroke="#9a32cd" points="193.474,-125.205 200.535,-133.104 199.94,-122.525 193.474,-125.205"/>
<text text-anchor="middle" x="220" y="-85" font-family="Helvetica,sans-Serif" font-size="10.00"> Deployment</text>
</g>
</g>
</svg>
