<?xml version="1.0" encoding="UTF-8" standalone="no"?>
<!DOCTYPE svg PUBLIC "-//W3C//DTD SVG 1.1//EN"
 "http://www.w3.org/Graphics/SVG/1.1/DTD/svg11.dtd">
<!-- Generated by graphviz version 2.38.0 (20140413.2041)
 -->
<!-- Title: System.TimeSpan Pages: 1 -->
<svg width="461pt" height="152pt"
 viewBox="0.00 0.00 461.00 152.00" xmlns="http://www.w3.org/2000/svg" xmlns:xlink="http://www.w3.org/1999/xlink">
<g id="graph0" class="graph" transform="scale(1 1) rotate(0) translate(4 148)">
<title>System.TimeSpan</title>
<!-- Node0 -->
<g id="node1" class="node"><title>Node0</title>
<g id="a_node1"><a xlink:title="Represents a time interval.To browse the .NET Framework source code for this type,...">
<polygon fill="#bfbfbf" stroke="black" points="179,-0.5 179,-19.5 276,-19.5 276,-0.5 179,-0.5"/>
<text text-anchor="middle" x="227.5" y="-7.5" font-family="Helvetica,sans-Serif" font-size="10.00">System.TimeSpan</text>
</a>
</g>
</g>
<!-- Node1 -->
<g id="node2" class="node"><title>Node1</title>
<g id="a_node2"><a xlink:href="interface_system_1_1_i_comparable.html" target="_top" xlink:title="Defines a generalized type&#45;specific comparison method that a value type or class implements to order ...">
<polygon fill="none" stroke="black" points="0,-57.5 0,-76.5 71,-76.5 71,-57.5 0,-57.5"/>
<text text-anchor="middle" x="35.5" y="-64.5" font-family="Helvetica,sans-Serif" font-size="10.00">IComparable</text>
</a>
</g>
</g>
<!-- Node1&#45;&gt;Node0 -->
<g id="edge1" class="edge"><title>Node1&#45;&gt;Node0</title>
<path fill="none" stroke="midnightblue" d="M75.3026,-54.5982C111.732,-44.1626 164.826,-28.9534 197.711,-19.5334"/>
<polygon fill="midnightblue" stroke="midnightblue" points="74.1495,-51.2877 65.5,-57.4063 76.0772,-58.017 74.1495,-51.2877"/>
</g>
<!-- Node2 -->
<g id="node3" class="node"><title>Node2</title>
<g id="a_node3"><a xlink:href="interface_system_1_1_i_comparable.html" target="_top" xlink:title=" ">
<polygon fill="none" stroke="black" points="89.5,-57.5 89.5,-76.5 221.5,-76.5 221.5,-57.5 89.5,-57.5"/>
<text text-anchor="middle" x="155.5" y="-64.5" font-family="Helvetica,sans-Serif" font-size="10.00">IComparable&lt; TimeSpan &gt;</text>
</a>
</g>
</g>
<!-- Node2&#45;&gt;Node0 -->
<g id="edge2" class="edge"><title>Node2&#45;&gt;Node0</title>
<path fill="none" stroke="midnightblue" d="M174.761,-51.287C187.953,-41.2095 205.003,-28.1851 216.091,-19.7149"/>
<polygon fill="midnightblue" stroke="midnightblue" points="172.572,-48.5545 166.75,-57.4063 176.821,-54.1172 172.572,-48.5545"/>
</g>
<!-- Node3 -->
<g id="node4" class="node"><title>Node3</title>
<g id="a_node4"><a xlink:href="interface_system_1_1_i_comparable.html" target="_top" xlink:title="Defines a generalized type&#45;specific comparison method that a value type or class implements to order ...">
<polygon fill="none" stroke="black" points="102,-124.5 102,-143.5 209,-143.5 209,-124.5 102,-124.5"/>
<text text-anchor="middle" x="155.5" y="-131.5" font-family="Helvetica,sans-Serif" font-size="10.00">System.IComparable</text>
</a>
</g>
</g>
<!-- Node3&#45;&gt;Node2 -->
<g id="edge3" class="edge"><title>Node3&#45;&gt;Node2</title>
<path fill="none" stroke="orange" stroke-dasharray="5,2" d="M155.5,-114.037C155.5,-101.67 155.5,-86.1198 155.5,-76.6273"/>
<polygon fill="orange" stroke="orange" points="152,-114.234 155.5,-124.234 159,-114.234 152,-114.234"/>
<text text-anchor="middle" x="188" y="-98" font-family="Helvetica,sans-Serif" font-size="10.00"> &lt; TimeSpan &gt;</text>
</g>
<!-- Node4 -->
<g id="node5" class="node"><title>Node4</title>
<g id="a_node5"><a xlink:href="interface_system_1_1_i_equatable.html" target="_top" xlink:title=" ">
<polygon fill="none" stroke="black" points="239.5,-57.5 239.5,-76.5 363.5,-76.5 363.5,-57.5 239.5,-57.5"/>
<text text-anchor="middle" x="301.5" y="-64.5" font-family="Helvetica,sans-Serif" font-size="10.00">IEquatable&lt; TimeSpan &gt;</text>
</a>
</g>
</g>
<!-- Node4&#45;&gt;Node0 -->
<g id="edge4" class="edge"><title>Node4&#45;&gt;Node0</title>
<path fill="none" stroke="midnightblue" d="M281.704,-51.287C268.146,-41.2095 250.622,-28.1851 239.226,-19.7149"/>
<polygon fill="midnightblue" stroke="midnightblue" points="279.824,-54.2501 289.938,-57.4063 283.999,-48.6319 279.824,-54.2501"/>
</g>
<!-- Node5 -->
<g id="node6" class="node"><title>Node5</title>
<g id="a_node6"><a xlink:href="interface_system_1_1_i_equatable.html" target="_top" xlink:title="Defines a generalized method that a value type or class implements to create a type&#45;specific method f...">
<polygon fill="none" stroke="black" points="240.5,-124.5 240.5,-143.5 362.5,-143.5 362.5,-124.5 240.5,-124.5"/>
<text text-anchor="middle" x="301.5" y="-131.5" font-family="Helvetica,sans-Serif" font-size="10.00">System.IEquatable&lt; T &gt;</text>
</a>
</g>
</g>
<!-- Node5&#45;&gt;Node4 -->
<g id="edge5" class="edge"><title>Node5&#45;&gt;Node4</title>
<path fill="none" stroke="orange" stroke-dasharray="5,2" d="M301.5,-114.037C301.5,-101.67 301.5,-86.1198 301.5,-76.6273"/>
<polygon fill="orange" stroke="orange" points="298,-114.234 301.5,-124.234 305,-114.234 298,-114.234"/>
<text text-anchor="middle" x="334" y="-98" font-family="Helvetica,sans-Serif" font-size="10.00"> &lt; TimeSpan &gt;</text>
</g>
<!-- Node6 -->
<g id="node7" class="node"><title>Node6</title>
<g id="a_node7"><a xlink:href="interface_system_1_1_i_formattable.html" target="_top" xlink:title="Provides functionality to format the value of an object into a string representation.">
<polygon fill="none" stroke="black" points="382,-57.5 382,-76.5 453,-76.5 453,-57.5 382,-57.5"/>
<text text-anchor="middle" x="417.5" y="-64.5" font-family="Helvetica,sans-Serif" font-size="10.00">IFormattable</text>
</a>
</g>
</g>
<!-- Node6&#45;&gt;Node0 -->
<g id="edge6" class="edge"><title>Node6&#45;&gt;Node0</title>
<path fill="none" stroke="midnightblue" d="M378.112,-54.5982C342.062,-44.1626 289.521,-28.9534 256.979,-19.5334"/>
<polygon fill="midnightblue" stroke="midnightblue" points="377.234,-57.9876 387.813,-57.4063 379.18,-51.2636 377.234,-57.9876"/>
</g>
</g>
</svg>
